{
  "title" : "",
  "description" : "",
  "author" : "",
  "targetLoudness" : -18.0,
  "shouldApplyLoudnessNormalization" : true,
  "videoFormatFrameRate" : 30,
  "audioFormatSampleRate" : 44100,
  "width" : 400.0,
  "height" : 475.0,
  "version" : "5.0",
  "editRate" : 30,
  "authoringClientName" :  {
    "name" : "Camtasia",
    "platform" : "Mac",
    "version" : "2021.0.12"
  },
  "sourceBin" : [
    {
      "id" : 1,
      "src" : "./media/1665593298.832530/01 - A Tour of Druid’s Log Files Script.mp4",
      "rect" : [0, 0, 1920, 1080],
      "lastMod" : "20221010T212703",
      "loudnessNormalization" : true,
      "sourceTracks" : [
        {
          "range" : [0, 9328620],
          "type" : 0,
          "editRate" : 44100,
          "trackRect" : [0, 0, 1920, 1080],
          "sampleRate" : 30,
          "bitDepth" : 0,
          "numChannels" : 0,
          "integratedLUFS" : 100.0,
          "peakLevel" : -1.0,
          "metaData" : ""
        },
        {
          "range" : [0, 9328620],
          "type" : 2,
          "editRate" : 44100,
          "trackRect" : [0, 0, 0, 0],
          "sampleRate" : 44100,
          "bitDepth" : 0,
          "numChannels" : 2,
          "integratedLUFS" : -18.1093577833061,
          "peakLevel" : 1.00705111026764,
          "metaData" : ""
        }
      ],
      "metadata" : {
        "timeAdded" : "20221012T162346.964438"
      }
    }
  ],
  "timeline" : {
    "id" : 2,
    "sceneTrack" : {
      "scenes" : [
        {
          "csml" : {
            "tracks" : [
              {
                "trackIndex" : 0,
                "medias" : [
                  {
                    "id" : 3,
                    "_type" : "VMFile",
                    "src" : 1,
                    "trackNumber" : 0,
                    "attributes" : {
                      "ident" : "01 - A Tour of Druid’s Log Files Script"
                    },
                    "parameters" : {
                      "translation0" : 46.0,
                      "translation1" : 45.4396863548073,
                      "scale0" : 0.800841675026439,
                      "scale1" : 0.800841675026439,
                      "sourceCrop0" : 0.0,
                      "sourceCrop1" : 0.0,
                      "sourceCrop2" : 0.0,
                      "sourceCrop3" : 0.0,
                      "geometryCrop0" : 0.0,
                      "geometryCrop1" : 0.0,
                      "geometryCrop2" : 0.0,
                      "geometryCrop3" : 0.0
                    },
                    "effects" : [

                    ],
                    "start" : 0,
                    "duration" : 6059,
                    "mediaStart" : 161,
                    "mediaDuration" : 6059,
                    "scalar" : 1,
                    "metadata" : {
                      "clipSpeedAttribute" : false,
                      "effectApplied" : "none",
                      "lockAspectRatio" : true
                    },
                    "animationTracks" : {

                    }
                  }
                ]
              },
              {
                "trackIndex" : 1,
                "medias" : [
                  {
                    "id" : 4,
                    "_type" : "AMFile",
                    "src" : 1,
                    "trackNumber" : 1,
                    "attributes" : {
                      "ident" : "01 - A Tour of Druid’s Log Files Script",
                      "gain" : 1.0,
                      "mixToMono" : false,
                      "loudnessNormalization" : true,
                      "sourceFileOffset" : 0
                    },
                      "channelNumber" : "0,1",
                    "effects" : [

                    ],
                    "start" : 28,
                    "duration" : 35,
                    "mediaStart" : 189,
                    "mediaDuration" : 35,
                    "scalar" : 1,
                    "metadata" : {
                      "clipSpeedAttribute" : false,
                      "effectApplied" : "none"
                    },
                    "animationTracks" : {

                    }
                  },
                  {
                    "id" : 5,
                    "_type" : "AMFile",
                    "src" : 1,
                    "trackNumber" : 1,
                    "attributes" : {
                      "ident" : "01 - A Tour of Druid’s Log Files Script",
                      "gain" : 1.0,
                      "mixToMono" : false,
                      "loudnessNormalization" : true,
                      "sourceFileOffset" : 0
                    },
                      "channelNumber" : "0,1",
                    "effects" : [

                    ],
                    "start" : 71,
                    "duration" : 103,
                    "mediaStart" : 232,
                    "mediaDuration" : 103,
                    "scalar" : 1,
                    "metadata" : {
                      "clipSpeedAttribute" : false,
                      "effectApplied" : "none"
                    },
                    "animationTracks" : {

                    }
                  },
                  {
                    "id" : 6,
                    "_type" : "AMFile",
                    "src" : 1,
                    "trackNumber" : 1,
                    "attributes" : {
                      "ident" : "01 - A Tour of Druid’s Log Files Script",
                      "gain" : 1.0,
                      "mixToMono" : false,
                      "loudnessNormalization" : true,
                      "sourceFileOffset" : 0
                    },
                      "channelNumber" : "0,1",
                    "effects" : [

                    ],
                    "start" : 189,
                    "duration" : 130,
                    "mediaStart" : 350,
                    "mediaDuration" : 130,
                    "scalar" : 1,
                    "metadata" : {
                      "clipSpeedAttribute" : false,
                      "effectApplied" : "none"
                    },
                    "animationTracks" : {

                    }
                  },
                  {
                    "id" : 7,
                    "_type" : "AMFile",
                    "src" : 1,
                    "trackNumber" : 1,
                    "attributes" : {
                      "ident" : "01 - A Tour of Druid’s Log Files Script",
                      "gain" : 1.0,
                      "mixToMono" : false,
                      "loudnessNormalization" : true,
                      "sourceFileOffset" : 0
                    },
                      "channelNumber" : "0,1",
                    "effects" : [

                    ],
                    "start" : 338,
                    "duration" : 108,
                    "mediaStart" : 499,
                    "mediaDuration" : 108,
                    "scalar" : 1,
                    "metadata" : {
                      "clipSpeedAttribute" : false,
                      "effectApplied" : "none"
                    },
                    "animationTracks" : {

                    }
                  },
                  {
                    "id" : 8,
                    "_type" : "AMFile",
                    "src" : 1,
                    "trackNumber" : 1,
                    "attributes" : {
                      "ident" : "01 - A Tour of Druid’s Log Files Script",
                      "gain" : 1.0,
                      "mixToMono" : false,
                      "loudnessNormalization" : true,
                      "sourceFileOffset" : 0
                    },
                      "channelNumber" : "0,1",
                    "effects" : [

                    ],
                    "start" : 456,
                    "duration" : 42,
                    "mediaStart" : 617,
                    "mediaDuration" : 42,
                    "scalar" : 1,
                    "metadata" : {
                      "clipSpeedAttribute" : false,
                      "effectApplied" : "none"
                    },
                    "animationTracks" : {

                    }
                  },
                  {
                    "id" : 9,
                    "_type" : "AMFile",
                    "src" : 1,
                    "trackNumber" : 1,
                    "attributes" : {
                      "ident" : "01 - A Tour of Druid’s Log Files Script",
                      "gain" : 0.505192886949889,
                      "mixToMono" : false,
                      "loudnessNormalization" : true,
                      "sourceFileOffset" : 0
                    },
                      "channelNumber" : "0,1",
                    "effects" : [
                        {
                          "effectName" : "Pitch",
                          "bypassed" : false,
                          "category" : "categoryAudioEffects",
                          "parameters" : {
                            "effectBlend" : 100.0,
                            "pitch" : -200.0,
                            "smoothness" : 50.0,
                            "tightness" : 50.0
                          },
                          "rightEdgeMods" : [
                            {
                              "group" : "Video",
                              "duration" : "3/2",
                              "parameters" : [
                                {
                                  "name" : "pitch",
                                    "func" : "FadeOutFunc"
                                  }
                              ]
                            }
                          ]
                        }
                    ],
                    "start" : 498,
                    "duration" : 5,
                    "mediaStart" : 716,
                    "mediaDuration" : 10,
                    "scalar" : "1/2",
                    "metadata" : {
                      "clipSpeedAttribute" : true,
                      "default-Pitch-pitch" : "-200",
                      "default-easeOut" : "0",
                      "effectApplied" : "Clip Speed"
                    },
                    "animationTracks" : {

                    }
                  },
                  {
                    "id" : 10,
                    "_type" : "AMFile",
                    "src" : 1,
                    "trackNumber" : 1,
                    "attributes" : {
                      "ident" : "01 - A Tour of Druid’s Log Files Script",
                      "gain" : 1.0,
                      "mixToMono" : false,
                      "loudnessNormalization" : true,
                      "sourceFileOffset" : 0
                    },
                      "channelNumber" : "0,1",
                    "effects" : [

                    ],
                    "start" : 520,
                    "duration" : 35,
                    "mediaStart" : 681,
                    "mediaDuration" : 35,
                    "scalar" : 1,
                    "metadata" : {
                      "clipSpeedAttribute" : false,
                      "effectApplied" : "none"
                    },
                    "animationTracks" : {

                    }
                  },
                  {
                    "id" : 11,
                    "_type" : "AMFile",
                    "src" : 1,
                    "trackNumber" : 1,
                    "attributes" : {
                      "ident" : "01 - A Tour of Druid’s Log Files Script",
                      "gain" : 1.0,
                      "mixToMono" : false,
                      "loudnessNormalization" : true,
                      "sourceFileOffset" : 0
                    },
                      "channelNumber" : "0,1",
                    "effects" : [

                    ],
                    "start" : 555,
                    "duration" : 10,
                    "mediaStart" : 716,
                    "mediaDuration" : 10,
                    "scalar" : 1,
                    "metadata" : {
                      "clipSpeedAttribute" : false,
                      "effectApplied" : "none"
                    },
                    "animationTracks" : {

                    }
                  },
                  {
                    "id" : 12,
                    "_type" : "AMFile",
                    "src" : 1,
                    "trackNumber" : 1,
                    "attributes" : {
                      "ident" : "01 - A Tour of Druid’s Log Files Script",
                      "gain" : 1.0,
                      "mixToMono" : false,
                      "loudnessNormalization" : true,
                      "sourceFileOffset" : 0
                    },
                      "channelNumber" : "0,1",
                    "effects" : [

                    ],
                    "start" : 576,
                    "duration" : 55,
                    "mediaStart" : 737,
                    "mediaDuration" : 55,
                    "scalar" : 1,
                    "metadata" : {
                      "clipSpeedAttribute" : false,
                      "effectApplied" : "none"
                    },
                    "animationTracks" : {

                    }
                  },
                  {
                    "id" : 13,
                    "_type" : "AMFile",
                    "src" : 1,
                    "trackNumber" : 1,
                    "attributes" : {
                      "ident" : "01 - A Tour of Druid’s Log Files Script",
                      "gain" : 1.0,
                      "mixToMono" : false,
                      "loudnessNormalization" : true,
                      "sourceFileOffset" : 0
                    },
                      "channelNumber" : "0,1",
                    "effects" : [

                    ],
                    "start" : 668,
                    "duration" : 151,
                    "mediaStart" : 829,
                    "mediaDuration" : 151,
                    "scalar" : 1,
                    "metadata" : {
                      "clipSpeedAttribute" : false,
                      "effectApplied" : "none"
                    },
                    "animationTracks" : {

                    }
                  },
                  {
                    "id" : 14,
                    "_type" : "AMFile",
                    "src" : 1,
                    "trackNumber" : 1,
                    "attributes" : {
                      "ident" : "01 - A Tour of Druid’s Log Files Script",
                      "gain" : 1.0,
                      "mixToMono" : false,
                      "loudnessNormalization" : true,
                      "sourceFileOffset" : 0
                    },
                      "channelNumber" : "0,1",
                    "effects" : [

                    ],
                    "start" : 842,
                    "duration" : 112,
                    "mediaStart" : 1003,
                    "mediaDuration" : 112,
                    "scalar" : 1,
                    "metadata" : {
                      "clipSpeedAttribute" : false,
                      "effectApplied" : "none"
                    },
                    "animationTracks" : {

                    }
                  },
                  {
                    "id" : 15,
                    "_type" : "AMFile",
                    "src" : 1,
                    "trackNumber" : 1,
                    "attributes" : {
                      "ident" : "01 - A Tour of Druid’s Log Files Script",
                      "gain" : 1.0,
                      "mixToMono" : false,
                      "loudnessNormalization" : true,
                      "sourceFileOffset" : 0
                    },
                      "channelNumber" : "0,1",
                    "effects" : [

                    ],
                    "start" : 988,
                    "duration" : 24,
                    "mediaStart" : 1149,
                    "mediaDuration" : 24,
                    "scalar" : 1,
                    "metadata" : {
                      "clipSpeedAttribute" : false,
                      "effectApplied" : "none"
                    },
                    "animationTracks" : {

                    }
                  },
                  {
                    "id" : 16,
                    "_type" : "AMFile",
                    "src" : 1,
                    "trackNumber" : 1,
                    "attributes" : {
                      "ident" : "01 - A Tour of Druid’s Log Files Script",
                      "gain" : 1.0,
                      "mixToMono" : false,
                      "loudnessNormalization" : true,
                      "sourceFileOffset" : 0
                    },
                      "channelNumber" : "0,1",
                    "effects" : [

                    ],
                    "start" : 1012,
                    "duration" : 17,
                    "mediaStart" : 1173,
                    "mediaDuration" : 17,
                    "scalar" : 1,
                    "metadata" : {
                      "clipSpeedAttribute" : false,
                      "effectApplied" : "none"
                    },
                    "animationTracks" : {

                    }
                  },
                  {
                    "id" : 17,
                    "_type" : "AMFile",
                    "src" : 1,
                    "trackNumber" : 1,
                    "attributes" : {
                      "ident" : "01 - A Tour of Druid’s Log Files Script",
                      "gain" : 1.0,
                      "mixToMono" : false,
                      "loudnessNormalization" : true,
                      "sourceFileOffset" : 0
                    },
                      "channelNumber" : "0,1",
                    "effects" : [

                    ],
                    "start" : 1029,
                    "duration" : 83,
                    "mediaStart" : 1190,
                    "mediaDuration" : 83,
                    "scalar" : 1,
                    "metadata" : {
                      "clipSpeedAttribute" : false,
                      "effectApplied" : "none"
                    },
                    "animationTracks" : {

                    }
                  },
                  {
                    "id" : 18,
                    "_type" : "AMFile",
                    "src" : 1,
                    "trackNumber" : 1,
                    "attributes" : {
                      "ident" : "01 - A Tour of Druid’s Log Files Script",
                      "gain" : 1.0,
                      "mixToMono" : false,
                      "loudnessNormalization" : true,
                      "sourceFileOffset" : 0
                    },
                      "channelNumber" : "0,1",
                    "effects" : [

                    ],
                    "start" : 1141,
                    "duration" : 95,
                    "mediaStart" : 1302,
                    "mediaDuration" : 95,
                    "scalar" : 1,
                    "metadata" : {
                      "clipSpeedAttribute" : false,
                      "effectApplied" : "none"
                    },
                    "animationTracks" : {

                    }
                  },
                  {
                    "id" : 19,
                    "_type" : "AMFile",
                    "src" : 1,
                    "trackNumber" : 1,
                    "attributes" : {
                      "ident" : "01 - A Tour of Druid’s Log Files Script",
                      "gain" : 1.0,
                      "mixToMono" : false,
                      "loudnessNormalization" : true,
                      "sourceFileOffset" : 0
                    },
                      "channelNumber" : "0,1",
                    "effects" : [

                    ],
                    "start" : 1245,
                    "duration" : 50,
                    "mediaStart" : 1406,
                    "mediaDuration" : 50,
                    "scalar" : 1,
                    "metadata" : {
                      "clipSpeedAttribute" : false,
                      "effectApplied" : "none"
                    },
                    "animationTracks" : {

                    }
                  },
                  {
                    "id" : 20,
                    "_type" : "AMFile",
                    "src" : 1,
                    "trackNumber" : 1,
                    "attributes" : {
                      "ident" : "01 - A Tour of Druid’s Log Files Script",
                      "gain" : 1.0,
                      "mixToMono" : false,
                      "loudnessNormalization" : true,
                      "sourceFileOffset" : 0
                    },
                      "channelNumber" : "0,1",
                    "effects" : [

                    ],
                    "start" : 1310,
                    "duration" : 90,
                    "mediaStart" : 1471,
                    "mediaDuration" : 90,
                    "scalar" : 1,
                    "metadata" : {
                      "clipSpeedAttribute" : false,
                      "effectApplied" : "none"
                    },
                    "animationTracks" : {

                    }
                  },
                  {
                    "id" : 21,
                    "_type" : "AMFile",
                    "src" : 1,
                    "trackNumber" : 1,
                    "attributes" : {
                      "ident" : "01 - A Tour of Druid’s Log Files Script",
                      "gain" : 1.0,
                      "mixToMono" : false,
                      "loudnessNormalization" : true,
                      "sourceFileOffset" : 0
                    },
                      "channelNumber" : "0,1",
                    "effects" : [

                    ],
                    "start" : 1410,
                    "duration" : 34,
                    "mediaStart" : 1571,
                    "mediaDuration" : 34,
                    "scalar" : 1,
                    "metadata" : {
                      "clipSpeedAttribute" : false,
                      "effectApplied" : "none"
                    },
                    "animationTracks" : {

                    }
                  },
                  {
                    "id" : 22,
                    "_type" : "AMFile",
                    "src" : 1,
                    "trackNumber" : 1,
                    "attributes" : {
                      "ident" : "01 - A Tour of Druid’s Log Files Script",
                      "gain" : 1.0,
                      "mixToMono" : false,
                      "loudnessNormalization" : true,
                      "sourceFileOffset" : 0
                    },
                      "channelNumber" : "0,1",
                    "effects" : [

                    ],
                    "start" : 1459,
                    "duration" : 86,
                    "mediaStart" : 1620,
                    "mediaDuration" : 86,
                    "scalar" : 1,
                    "metadata" : {
                      "clipSpeedAttribute" : false,
                      "effectApplied" : "none"
                    },
                    "animationTracks" : {

                    }
                  },
                  {
                    "id" : 23,
                    "_type" : "AMFile",
                    "src" : 1,
                    "trackNumber" : 1,
                    "attributes" : {
                      "ident" : "01 - A Tour of Druid’s Log Files Script",
                      "gain" : 1.0,
                      "mixToMono" : false,
                      "loudnessNormalization" : true,
                      "sourceFileOffset" : 0
                    },
                      "channelNumber" : "0,1",
                    "effects" : [

                    ],
                    "start" : 1553,
                    "duration" : 36,
                    "mediaStart" : 1714,
                    "mediaDuration" : 36,
                    "scalar" : 1,
                    "metadata" : {
                      "clipSpeedAttribute" : false,
                      "effectApplied" : "none"
                    },
                    "animationTracks" : {

                    }
                  },
                  {
                    "id" : 24,
                    "_type" : "AMFile",
                    "src" : 1,
                    "trackNumber" : 1,
                    "attributes" : {
                      "ident" : "01 - A Tour of Druid’s Log Files Script",
                      "gain" : 1.0,
                      "mixToMono" : false,
                      "loudnessNormalization" : true,
                      "sourceFileOffset" : 0
                    },
                      "channelNumber" : "0,1",
                    "effects" : [

                    ],
                    "start" : 1604,
                    "duration" : 92,
                    "mediaStart" : 1765,
                    "mediaDuration" : 92,
                    "scalar" : 1,
                    "metadata" : {
                      "clipSpeedAttribute" : false,
                      "effectApplied" : "none"
                    },
                    "animationTracks" : {

                    }
                  },
                  {
                    "id" : 25,
                    "_type" : "AMFile",
                    "src" : 1,
                    "trackNumber" : 1,
                    "attributes" : {
                      "ident" : "01 - A Tour of Druid’s Log Files Script",
                      "gain" : 1.0,
                      "mixToMono" : false,
                      "loudnessNormalization" : true,
                      "sourceFileOffset" : 0
                    },
                      "channelNumber" : "0,1",
                    "effects" : [

                    ],
                    "start" : 1704,
                    "duration" : 21,
                    "mediaStart" : 1865,
                    "mediaDuration" : 21,
                    "scalar" : 1,
                    "metadata" : {
                      "clipSpeedAttribute" : false,
                      "effectApplied" : "none"
                    },
                    "animationTracks" : {

                    }
                  },
                  {
                    "id" : 26,
                    "_type" : "AMFile",
                    "src" : 1,
                    "trackNumber" : 1,
                    "attributes" : {
                      "ident" : "01 - A Tour of Druid’s Log Files Script",
                      "gain" : 1.0,
                      "mixToMono" : false,
                      "loudnessNormalization" : true,
                      "sourceFileOffset" : 0
                    },
                      "channelNumber" : "0,1",
                    "effects" : [

                    ],
                    "start" : 1753,
                    "duration" : 15,
                    "mediaStart" : 1914,
                    "mediaDuration" : 15,
                    "scalar" : 1,
                    "metadata" : {
                      "clipSpeedAttribute" : false,
                      "effectApplied" : "none"
                    },
                    "animationTracks" : {

                    }
                  },
                  {
                    "id" : 27,
                    "_type" : "AMFile",
                    "src" : 1,
                    "trackNumber" : 1,
                    "attributes" : {
                      "ident" : "01 - A Tour of Druid’s Log Files Script",
                      "gain" : 1.0,
                      "mixToMono" : false,
                      "loudnessNormalization" : true,
                      "sourceFileOffset" : 0
                    },
                      "channelNumber" : "0,1",
                    "effects" : [

                    ],
                    "start" : 1779,
                    "duration" : 102,
                    "mediaStart" : 1940,
                    "mediaDuration" : 102,
                    "scalar" : 1,
                    "metadata" : {
                      "clipSpeedAttribute" : false,
                      "effectApplied" : "none"
                    },
                    "animationTracks" : {

                    }
                  },
                  {
                    "id" : 28,
                    "_type" : "AMFile",
                    "src" : 1,
                    "trackNumber" : 1,
                    "attributes" : {
                      "ident" : "01 - A Tour of Druid’s Log Files Script",
                      "gain" : 1.0,
                      "mixToMono" : false,
                      "loudnessNormalization" : true,
                      "sourceFileOffset" : 0
                    },
                      "channelNumber" : "0,1",
                    "effects" : [

                    ],
                    "start" : 1888,
                    "duration" : 41,
                    "mediaStart" : 2049,
                    "mediaDuration" : 41,
                    "scalar" : 1,
                    "metadata" : {
                      "clipSpeedAttribute" : false,
                      "effectApplied" : "none"
                    },
                    "animationTracks" : {

                    }
                  },
                  {
                    "id" : 29,
                    "_type" : "AMFile",
                    "src" : 1,
                    "trackNumber" : 1,
                    "attributes" : {
                      "ident" : "01 - A Tour of Druid’s Log Files Script",
                      "gain" : 1.0,
                      "mixToMono" : false,
                      "loudnessNormalization" : true,
                      "sourceFileOffset" : 0
                    },
                      "channelNumber" : "0,1",
                    "effects" : [

                    ],
                    "start" : 1942,
                    "duration" : 80,
                    "mediaStart" : 2103,
                    "mediaDuration" : 80,
                    "scalar" : 1,
                    "metadata" : {
                      "clipSpeedAttribute" : false,
                      "effectApplied" : "none"
                    },
                    "animationTracks" : {

                    }
                  },
                  {
                    "id" : 30,
                    "_type" : "AMFile",
                    "src" : 1,
                    "trackNumber" : 1,
                    "attributes" : {
                      "ident" : "01 - A Tour of Druid’s Log Files Script",
                      "gain" : 1.0,
                      "mixToMono" : false,
                      "loudnessNormalization" : true,
                      "sourceFileOffset" : 0
                    },
                      "channelNumber" : "0,1",
                    "effects" : [

                    ],
                    "start" : 2036,
                    "duration" : 98,
                    "mediaStart" : 2197,
                    "mediaDuration" : 98,
                    "scalar" : 1,
                    "metadata" : {
                      "clipSpeedAttribute" : false,
                      "effectApplied" : "none"
                    },
                    "animationTracks" : {

                    }
                  },
                  {
                    "id" : 31,
                    "_type" : "AMFile",
                    "src" : 1,
                    "trackNumber" : 1,
                    "attributes" : {
                      "ident" : "01 - A Tour of Druid’s Log Files Script",
                      "gain" : 1.0,
                      "mixToMono" : false,
                      "loudnessNormalization" : true,
                      "sourceFileOffset" : 0
                    },
                      "channelNumber" : "0,1",
                    "effects" : [

                    ],
                    "start" : 2144,
                    "duration" : 70,
                    "mediaStart" : 2305,
                    "mediaDuration" : 70,
                    "scalar" : 1,
                    "metadata" : {
                      "clipSpeedAttribute" : false,
                      "effectApplied" : "none"
                    },
                    "animationTracks" : {

                    }
                  },
                  {
                    "id" : 32,
                    "_type" : "AMFile",
                    "src" : 1,
                    "trackNumber" : 1,
                    "attributes" : {
                      "ident" : "01 - A Tour of Druid’s Log Files Script",
                      "gain" : 1.0,
                      "mixToMono" : false,
                      "loudnessNormalization" : true,
                      "sourceFileOffset" : 0
                    },
                      "channelNumber" : "0,1",
                    "effects" : [

                    ],
                    "start" : 2222,
                    "duration" : 40,
                    "mediaStart" : 2383,
                    "mediaDuration" : 40,
                    "scalar" : 1,
                    "metadata" : {
                      "clipSpeedAttribute" : false,
                      "effectApplied" : "none"
                    },
                    "animationTracks" : {

                    }
                  },
                  {
                    "id" : 33,
                    "_type" : "AMFile",
                    "src" : 1,
                    "trackNumber" : 1,
                    "attributes" : {
                      "ident" : "01 - A Tour of Druid’s Log Files Script",
                      "gain" : 1.0,
                      "mixToMono" : false,
                      "loudnessNormalization" : true,
                      "sourceFileOffset" : 0
                    },
                      "channelNumber" : "0,1",
                    "effects" : [

                    ],
                    "start" : 2309,
                    "duration" : 47,
                    "mediaStart" : 2470,
                    "mediaDuration" : 47,
                    "scalar" : 1,
                    "metadata" : {
                      "clipSpeedAttribute" : false,
                      "effectApplied" : "none"
                    },
                    "animationTracks" : {

                    }
                  },
                  {
                    "id" : 34,
                    "_type" : "AMFile",
                    "src" : 1,
                    "trackNumber" : 1,
                    "attributes" : {
                      "ident" : "01 - A Tour of Druid’s Log Files Script",
                      "gain" : 1.0,
                      "mixToMono" : false,
                      "loudnessNormalization" : true,
                      "sourceFileOffset" : 0
                    },
                      "channelNumber" : "0,1",
                    "effects" : [

                    ],
                    "start" : 2366,
                    "duration" : 50,
                    "mediaStart" : 2527,
                    "mediaDuration" : 50,
                    "scalar" : 1,
                    "metadata" : {
                      "clipSpeedAttribute" : false,
                      "effectApplied" : "none"
                    },
                    "animationTracks" : {

                    }
                  },
                  {
                    "id" : 35,
                    "_type" : "AMFile",
                    "src" : 1,
                    "trackNumber" : 1,
                    "attributes" : {
                      "ident" : "01 - A Tour of Druid’s Log Files Script",
                      "gain" : 1.0,
                      "mixToMono" : false,
                      "loudnessNormalization" : true,
                      "sourceFileOffset" : 0
                    },
                      "channelNumber" : "0,1",
                    "effects" : [

                    ],
                    "start" : 2426,
                    "duration" : 59,
                    "mediaStart" : 2587,
                    "mediaDuration" : 59,
                    "scalar" : 1,
                    "metadata" : {
                      "clipSpeedAttribute" : false,
                      "effectApplied" : "none"
                    },
                    "animationTracks" : {

                    }
                  },
                  {
                    "id" : 36,
                    "_type" : "AMFile",
                    "src" : 1,
                    "trackNumber" : 1,
                    "attributes" : {
                      "ident" : "01 - A Tour of Druid’s Log Files Script",
                      "gain" : 1.0,
                      "mixToMono" : false,
                      "loudnessNormalization" : true,
                      "sourceFileOffset" : 0
                    },
                      "channelNumber" : "0,1",
                    "effects" : [

                    ],
                    "start" : 2502,
                    "duration" : 121,
                    "mediaStart" : 2663,
                    "mediaDuration" : 121,
                    "scalar" : 1,
                    "metadata" : {
                      "clipSpeedAttribute" : false,
                      "effectApplied" : "none"
                    },
                    "animationTracks" : {

                    }
                  },
                  {
                    "id" : 37,
                    "_type" : "AMFile",
                    "src" : 1,
                    "trackNumber" : 1,
                    "attributes" : {
                      "ident" : "01 - A Tour of Druid’s Log Files Script",
                      "gain" : 1.0,
                      "mixToMono" : false,
                      "loudnessNormalization" : true,
                      "sourceFileOffset" : 0
                    },
                      "channelNumber" : "0,1",
                    "effects" : [

                    ],
                    "start" : 2690,
                    "duration" : 70,
                    "mediaStart" : 2851,
                    "mediaDuration" : 70,
                    "scalar" : 1,
                    "metadata" : {
                      "clipSpeedAttribute" : false,
                      "effectApplied" : "none"
                    },
                    "animationTracks" : {

                    }
                  },
                  {
                    "id" : 38,
                    "_type" : "AMFile",
                    "src" : 1,
                    "trackNumber" : 1,
                    "attributes" : {
                      "ident" : "01 - A Tour of Druid’s Log Files Script",
                      "gain" : 1.0,
                      "mixToMono" : false,
                      "loudnessNormalization" : true,
                      "sourceFileOffset" : 0
                    },
                      "channelNumber" : "0,1",
                    "effects" : [

                    ],
                    "start" : 2770,
                    "duration" : 58,
                    "mediaStart" : 2931,
                    "mediaDuration" : 58,
                    "scalar" : 1,
                    "metadata" : {
                      "clipSpeedAttribute" : false,
                      "effectApplied" : "none"
                    },
                    "animationTracks" : {

                    }
                  },
                  {
                    "id" : 39,
                    "_type" : "AMFile",
                    "src" : 1,
                    "trackNumber" : 1,
                    "attributes" : {
                      "ident" : "01 - A Tour of Druid’s Log Files Script",
                      "gain" : 1.0,
                      "mixToMono" : false,
                      "loudnessNormalization" : true,
                      "sourceFileOffset" : 0
                    },
                      "channelNumber" : "0,1",
                    "effects" : [

                    ],
                    "start" : 2836,
                    "duration" : 24,
                    "mediaStart" : 2997,
                    "mediaDuration" : 24,
                    "scalar" : 1,
                    "metadata" : {
                      "clipSpeedAttribute" : false,
                      "effectApplied" : "none"
                    },
                    "animationTracks" : {

                    }
                  },
                  {
                    "id" : 40,
                    "_type" : "AMFile",
                    "src" : 1,
                    "trackNumber" : 1,
                    "attributes" : {
                      "ident" : "01 - A Tour of Druid’s Log Files Script",
                      "gain" : 1.0,
                      "mixToMono" : false,
                      "loudnessNormalization" : true,
                      "sourceFileOffset" : 0
                    },
                      "channelNumber" : "0,1",
                    "effects" : [

                    ],
                    "start" : 2883,
                    "duration" : 146,
                    "mediaStart" : 3044,
                    "mediaDuration" : 146,
                    "scalar" : 1,
                    "metadata" : {
                      "clipSpeedAttribute" : false,
                      "effectApplied" : "none"
                    },
                    "animationTracks" : {

                    }
                  },
                  {
                    "id" : 41,
                    "_type" : "AMFile",
                    "src" : 1,
                    "trackNumber" : 1,
                    "attributes" : {
                      "ident" : "01 - A Tour of Druid’s Log Files Script",
                      "gain" : 1.0,
                      "mixToMono" : false,
                      "loudnessNormalization" : true,
                      "sourceFileOffset" : 0
                    },
                      "channelNumber" : "0,1",
                    "effects" : [

                    ],
                    "start" : 3037,
                    "duration" : 51,
                    "mediaStart" : 3198,
                    "mediaDuration" : 51,
                    "scalar" : 1,
                    "metadata" : {
                      "clipSpeedAttribute" : false,
                      "effectApplied" : "none"
                    },
                    "animationTracks" : {

                    }
                  },
                  {
                    "id" : 42,
                    "_type" : "AMFile",
                    "src" : 1,
                    "trackNumber" : 1,
                    "attributes" : {
                      "ident" : "01 - A Tour of Druid’s Log Files Script",
                      "gain" : 1.0,
                      "mixToMono" : false,
                      "loudnessNormalization" : true,
                      "sourceFileOffset" : 0
                    },
                      "channelNumber" : "0,1",
                    "effects" : [

                    ],
                    "start" : 3112,
                    "duration" : 54,
                    "mediaStart" : 3273,
                    "mediaDuration" : 54,
                    "scalar" : 1,
                    "metadata" : {
                      "clipSpeedAttribute" : false,
                      "effectApplied" : "none"
                    },
                    "animationTracks" : {

                    }
                  },
                  {
                    "id" : 43,
                    "_type" : "AMFile",
                    "src" : 1,
                    "trackNumber" : 1,
                    "attributes" : {
                      "ident" : "01 - A Tour of Druid’s Log Files Script",
                      "gain" : 1.0,
                      "mixToMono" : false,
                      "loudnessNormalization" : true,
                      "sourceFileOffset" : 0
                    },
                      "channelNumber" : "0,1",
                    "effects" : [

                    ],
                    "start" : 3182,
                    "duration" : 11,
                    "mediaStart" : 3343,
                    "mediaDuration" : 11,
                    "scalar" : 1,
                    "metadata" : {
                      "clipSpeedAttribute" : false,
                      "effectApplied" : "none"
                    },
                    "animationTracks" : {

                    }
                  },
                  {
                    "id" : 44,
                    "_type" : "AMFile",
                    "src" : 1,
                    "trackNumber" : 1,
                    "attributes" : {
                      "ident" : "01 - A Tour of Druid’s Log Files Script",
                      "gain" : 1.0,
                      "mixToMono" : false,
                      "loudnessNormalization" : true,
                      "sourceFileOffset" : 0
                    },
                      "channelNumber" : "0,1",
                    "effects" : [

                    ],
                    "start" : 3201,
                    "duration" : 30,
                    "mediaStart" : 3362,
                    "mediaDuration" : 30,
                    "scalar" : 1,
                    "metadata" : {
                      "clipSpeedAttribute" : false,
                      "effectApplied" : "none"
                    },
                    "animationTracks" : {

                    }
                  },
                  {
                    "id" : 45,
                    "_type" : "AMFile",
                    "src" : 1,
                    "trackNumber" : 1,
                    "attributes" : {
                      "ident" : "01 - A Tour of Druid’s Log Files Script",
                      "gain" : 1.0,
                      "mixToMono" : false,
                      "loudnessNormalization" : true,
                      "sourceFileOffset" : 0
                    },
                      "channelNumber" : "0,1",
                    "effects" : [

                    ],
                    "start" : 3242,
                    "duration" : 87,
                    "mediaStart" : 3403,
                    "mediaDuration" : 87,
                    "scalar" : 1,
                    "metadata" : {
                      "clipSpeedAttribute" : false,
                      "effectApplied" : "none"
                    },
                    "animationTracks" : {

                    }
                  },
                  {
                    "id" : 46,
                    "_type" : "AMFile",
                    "src" : 1,
                    "trackNumber" : 1,
                    "attributes" : {
                      "ident" : "01 - A Tour of Druid’s Log Files Script",
                      "gain" : 1.0,
                      "mixToMono" : false,
                      "loudnessNormalization" : true,
                      "sourceFileOffset" : 0
                    },
                      "channelNumber" : "0,1",
                    "effects" : [

                    ],
                    "start" : 3354,
                    "duration" : 121,
                    "mediaStart" : 3515,
                    "mediaDuration" : 121,
                    "scalar" : 1,
                    "metadata" : {
                      "clipSpeedAttribute" : false,
                      "effectApplied" : "none"
                    },
                    "animationTracks" : {

                    }
                  },
                  {
                    "id" : 47,
                    "_type" : "AMFile",
                    "src" : 1,
                    "trackNumber" : 1,
                    "attributes" : {
                      "ident" : "01 - A Tour of Druid’s Log Files Script",
                      "gain" : 1.0,
                      "mixToMono" : false,
                      "loudnessNormalization" : true,
                      "sourceFileOffset" : 0
                    },
                      "channelNumber" : "0,1",
                    "effects" : [

                    ],
                    "start" : 3493,
                    "duration" : 58,
                    "mediaStart" : 3654,
                    "mediaDuration" : 58,
                    "scalar" : 1,
                    "metadata" : {
                      "clipSpeedAttribute" : false,
                      "effectApplied" : "none"
                    },
                    "animationTracks" : {

                    }
                  },
                  {
                    "id" : 48,
                    "_type" : "AMFile",
                    "src" : 1,
                    "trackNumber" : 1,
                    "attributes" : {
                      "ident" : "01 - A Tour of Druid’s Log Files Script",
                      "gain" : 1.0,
                      "mixToMono" : false,
                      "loudnessNormalization" : true,
                      "sourceFileOffset" : 0
                    },
                      "channelNumber" : "0,1",
                    "effects" : [

                    ],
                    "start" : 3561,
                    "duration" : 108,
                    "mediaStart" : 3722,
                    "mediaDuration" : 108,
                    "scalar" : 1,
                    "metadata" : {
                      "clipSpeedAttribute" : false,
                      "effectApplied" : "none"
                    },
                    "animationTracks" : {

                    }
                  },
                  {
                    "id" : 49,
                    "_type" : "AMFile",
                    "src" : 1,
                    "trackNumber" : 1,
                    "attributes" : {
                      "ident" : "01 - A Tour of Druid’s Log Files Script",
                      "gain" : 1.0,
                      "mixToMono" : false,
                      "loudnessNormalization" : true,
                      "sourceFileOffset" : 0
                    },
                      "channelNumber" : "0,1",
                    "effects" : [

                    ],
                    "start" : 3680,
                    "duration" : 66,
                    "mediaStart" : 3841,
                    "mediaDuration" : 66,
                    "scalar" : 1,
                    "metadata" : {
                      "clipSpeedAttribute" : false,
                      "effectApplied" : "none"
                    },
                    "animationTracks" : {

                    }
                  },
                  {
                    "id" : 50,
                    "_type" : "AMFile",
                    "src" : 1,
                    "trackNumber" : 1,
                    "attributes" : {
                      "ident" : "01 - A Tour of Druid’s Log Files Script",
                      "gain" : 1.0,
                      "mixToMono" : false,
                      "loudnessNormalization" : true,
                      "sourceFileOffset" : 0
                    },
                      "channelNumber" : "0,1",
                    "effects" : [

                    ],
                    "start" : 3763,
                    "duration" : 108,
                    "mediaStart" : 3924,
                    "mediaDuration" : 108,
                    "scalar" : 1,
                    "metadata" : {
                      "clipSpeedAttribute" : false,
                      "effectApplied" : "none"
                    },
                    "animationTracks" : {

                    }
                  },
                  {
                    "id" : 51,
                    "_type" : "AMFile",
                    "src" : 1,
                    "trackNumber" : 1,
                    "attributes" : {
                      "ident" : "01 - A Tour of Druid’s Log Files Script",
                      "gain" : 1.0,
                      "mixToMono" : false,
                      "loudnessNormalization" : true,
                      "sourceFileOffset" : 0
                    },
                      "channelNumber" : "0,1",
                    "effects" : [

                    ],
                    "start" : 3881,
                    "duration" : 99,
                    "mediaStart" : 4042,
                    "mediaDuration" : 99,
                    "scalar" : 1,
                    "metadata" : {
                      "clipSpeedAttribute" : false,
                      "effectApplied" : "none"
                    },
                    "animationTracks" : {

                    }
                  },
                  {
                    "id" : 52,
                    "_type" : "AMFile",
                    "src" : 1,
                    "trackNumber" : 1,
                    "attributes" : {
                      "ident" : "01 - A Tour of Druid’s Log Files Script",
                      "gain" : 1.0,
                      "mixToMono" : false,
                      "loudnessNormalization" : true,
                      "sourceFileOffset" : 0
                    },
                      "channelNumber" : "0,1",
                    "effects" : [

                    ],
                    "start" : 3989,
                    "duration" : 70,
                    "mediaStart" : 4150,
                    "mediaDuration" : 70,
                    "scalar" : 1,
                    "metadata" : {
                      "clipSpeedAttribute" : false,
                      "effectApplied" : "none"
                    },
                    "animationTracks" : {

                    }
                  },
                  {
                    "id" : 53,
                    "_type" : "AMFile",
                    "src" : 1,
                    "trackNumber" : 1,
                    "attributes" : {
                      "ident" : "01 - A Tour of Druid’s Log Files Script",
                      "gain" : 1.0,
                      "mixToMono" : false,
                      "loudnessNormalization" : true,
                      "sourceFileOffset" : 0
                    },
                      "channelNumber" : "0,1",
                    "effects" : [

                    ],
                    "start" : 4066,
                    "duration" : 41,
                    "mediaStart" : 4227,
                    "mediaDuration" : 41,
                    "scalar" : 1,
                    "metadata" : {
                      "clipSpeedAttribute" : false,
                      "effectApplied" : "none"
                    },
                    "animationTracks" : {

                    }
                  },
                  {
                    "id" : 54,
                    "_type" : "AMFile",
                    "src" : 1,
                    "trackNumber" : 1,
                    "attributes" : {
                      "ident" : "01 - A Tour of Druid’s Log Files Script",
                      "gain" : 1.0,
                      "mixToMono" : false,
                      "loudnessNormalization" : true,
                      "sourceFileOffset" : 0
                    },
                      "channelNumber" : "0,1",
                    "effects" : [

                    ],
                    "start" : 4147,
                    "duration" : 22,
                    "mediaStart" : 4308,
                    "mediaDuration" : 22,
                    "scalar" : 1,
                    "metadata" : {
                      "clipSpeedAttribute" : false,
                      "effectApplied" : "none"
                    },
                    "animationTracks" : {

                    }
                  },
                  {
                    "id" : 55,
                    "_type" : "AMFile",
                    "src" : 1,
                    "trackNumber" : 1,
                    "attributes" : {
                      "ident" : "01 - A Tour of Druid’s Log Files Script",
                      "gain" : 1.0,
                      "mixToMono" : false,
                      "loudnessNormalization" : true,
                      "sourceFileOffset" : 0
                    },
                      "channelNumber" : "0,1",
                    "effects" : [

                    ],
                    "start" : 4174,
                    "duration" : 63,
                    "mediaStart" : 4335,
                    "mediaDuration" : 63,
                    "scalar" : 1,
                    "metadata" : {
                      "clipSpeedAttribute" : false,
                      "effectApplied" : "none"
                    },
                    "animationTracks" : {

                    }
                  },
                  {
                    "id" : 56,
                    "_type" : "AMFile",
                    "src" : 1,
                    "trackNumber" : 1,
                    "attributes" : {
                      "ident" : "01 - A Tour of Druid’s Log Files Script",
                      "gain" : 1.0,
                      "mixToMono" : false,
                      "loudnessNormalization" : true,
                      "sourceFileOffset" : 0
                    },
                      "channelNumber" : "0,1",
                    "effects" : [

                    ],
                    "start" : 4249,
                    "duration" : 117,
                    "mediaStart" : 4410,
                    "mediaDuration" : 117,
                    "scalar" : 1,
                    "metadata" : {
                      "clipSpeedAttribute" : false,
                      "effectApplied" : "none"
                    },
                    "animationTracks" : {

                    }
                  },
                  {
                    "id" : 57,
                    "_type" : "AMFile",
                    "src" : 1,
                    "trackNumber" : 1,
                    "attributes" : {
                      "ident" : "01 - A Tour of Druid’s Log Files Script",
                      "gain" : 1.0,
                      "mixToMono" : false,
                      "loudnessNormalization" : true,
                      "sourceFileOffset" : 0
                    },
                      "channelNumber" : "0,1",
                    "effects" : [

                    ],
                    "start" : 4377,
                    "duration" : 162,
                    "mediaStart" : 4538,
                    "mediaDuration" : 162,
                    "scalar" : 1,
                    "metadata" : {
                      "clipSpeedAttribute" : false,
                      "effectApplied" : "none"
                    },
                    "animationTracks" : {

                    }
                  },
                  {
                    "id" : 58,
                    "_type" : "AMFile",
                    "src" : 1,
                    "trackNumber" : 1,
                    "attributes" : {
                      "ident" : "01 - A Tour of Druid’s Log Files Script",
                      "gain" : 1.0,
                      "mixToMono" : false,
                      "loudnessNormalization" : true,
                      "sourceFileOffset" : 0
                    },
                      "channelNumber" : "0,1",
                    "effects" : [

                    ],
                    "start" : 4550,
                    "duration" : 81,
                    "mediaStart" : 4711,
                    "mediaDuration" : 81,
                    "scalar" : 1,
                    "metadata" : {
                      "clipSpeedAttribute" : false,
                      "effectApplied" : "none"
                    },
                    "animationTracks" : {

                    }
                  },
                  {
                    "id" : 59,
                    "_type" : "AMFile",
                    "src" : 1,
                    "trackNumber" : 1,
                    "attributes" : {
                      "ident" : "01 - A Tour of Druid’s Log Files Script",
                      "gain" : 1.0,
                      "mixToMono" : false,
                      "loudnessNormalization" : true,
                      "sourceFileOffset" : 0
                    },
                      "channelNumber" : "0,1",
                    "effects" : [

                    ],
                    "start" : 4679,
                    "duration" : 76,
                    "mediaStart" : 4840,
                    "mediaDuration" : 76,
                    "scalar" : 1,
                    "metadata" : {
                      "clipSpeedAttribute" : false,
                      "effectApplied" : "none"
                    },
                    "animationTracks" : {

                    }
                  },
                  {
                    "id" : 60,
                    "_type" : "AMFile",
                    "src" : 1,
                    "trackNumber" : 1,
                    "attributes" : {
                      "ident" : "01 - A Tour of Druid’s Log Files Script",
                      "gain" : 1.0,
                      "mixToMono" : false,
                      "loudnessNormalization" : true,
                      "sourceFileOffset" : 0
                    },
                      "channelNumber" : "0,1",
                    "effects" : [

                    ],
                    "start" : 4764,
                    "duration" : 72,
                    "mediaStart" : 4925,
                    "mediaDuration" : 72,
                    "scalar" : 1,
                    "metadata" : {
                      "clipSpeedAttribute" : false,
                      "effectApplied" : "none"
                    },
                    "animationTracks" : {

                    }
                  },
                  {
                    "id" : 61,
                    "_type" : "AMFile",
                    "src" : 1,
                    "trackNumber" : 1,
                    "attributes" : {
                      "ident" : "01 - A Tour of Druid’s Log Files Script",
                      "gain" : 1.0,
                      "mixToMono" : false,
                      "loudnessNormalization" : true,
                      "sourceFileOffset" : 0
                    },
                      "channelNumber" : "0,1",
                    "effects" : [

                    ],
                    "start" : 4844,
                    "duration" : 64,
                    "mediaStart" : 5005,
                    "mediaDuration" : 64,
                    "scalar" : 1,
                    "metadata" : {
                      "clipSpeedAttribute" : false,
                      "effectApplied" : "none"
                    },
                    "animationTracks" : {

                    }
                  },
                  {
                    "id" : 62,
                    "_type" : "AMFile",
                    "src" : 1,
                    "trackNumber" : 1,
                    "attributes" : {
                      "ident" : "01 - A Tour of Druid’s Log Files Script",
                      "gain" : 1.0,
                      "mixToMono" : false,
                      "loudnessNormalization" : true,
                      "sourceFileOffset" : 0
                    },
                      "channelNumber" : "0,1",
                    "effects" : [

                    ],
                    "start" : 4936,
                    "duration" : 149,
                    "mediaStart" : 5097,
                    "mediaDuration" : 149,
                    "scalar" : 1,
                    "metadata" : {
                      "clipSpeedAttribute" : false,
                      "effectApplied" : "none"
                    },
                    "animationTracks" : {

                    }
                  },
                  {
                    "id" : 63,
                    "_type" : "AMFile",
                    "src" : 1,
                    "trackNumber" : 1,
                    "attributes" : {
                      "ident" : "01 - A Tour of Druid’s Log Files Script",
                      "gain" : 1.0,
                      "mixToMono" : false,
                      "loudnessNormalization" : true,
                      "sourceFileOffset" : 0
                    },
                      "channelNumber" : "0,1",
                    "effects" : [

                    ],
                    "start" : 5097,
                    "duration" : 57,
                    "mediaStart" : 5258,
                    "mediaDuration" : 57,
                    "scalar" : 1,
                    "metadata" : {
                      "clipSpeedAttribute" : false,
                      "effectApplied" : "none"
                    },
                    "animationTracks" : {

                    }
                  },
                  {
                    "id" : 64,
                    "_type" : "AMFile",
                    "src" : 1,
                    "trackNumber" : 1,
                    "attributes" : {
                      "ident" : "01 - A Tour of Druid’s Log Files Script",
                      "gain" : 1.0,
                      "mixToMono" : false,
                      "loudnessNormalization" : true,
                      "sourceFileOffset" : 0
                    },
                      "channelNumber" : "0,1",
                    "effects" : [

                    ],
                    "start" : 5178,
                    "duration" : 137,
                    "mediaStart" : 5339,
                    "mediaDuration" : 137,
                    "scalar" : 1,
                    "metadata" : {
                      "clipSpeedAttribute" : false,
                      "effectApplied" : "none"
                    },
                    "animationTracks" : {

                    }
                  },
                  {
                    "id" : 65,
                    "_type" : "AMFile",
                    "src" : 1,
                    "trackNumber" : 1,
                    "attributes" : {
                      "ident" : "01 - A Tour of Druid’s Log Files Script",
                      "gain" : 1.0,
                      "mixToMono" : false,
                      "loudnessNormalization" : true,
                      "sourceFileOffset" : 0
                    },
                      "channelNumber" : "0,1",
                    "effects" : [

                    ],
                    "start" : 5327,
                    "duration" : 61,
                    "mediaStart" : 5488,
                    "mediaDuration" : 61,
                    "scalar" : 1,
                    "metadata" : {
                      "clipSpeedAttribute" : false,
                      "effectApplied" : "none"
                    },
                    "animationTracks" : {

                    }
                  },
                  {
                    "id" : 66,
                    "_type" : "AMFile",
                    "src" : 1,
                    "trackNumber" : 1,
                    "attributes" : {
                      "ident" : "01 - A Tour of Druid’s Log Files Script",
                      "gain" : 1.0,
                      "mixToMono" : false,
                      "loudnessNormalization" : true,
                      "sourceFileOffset" : 0
                    },
                      "channelNumber" : "0,1",
                    "effects" : [

                    ],
                    "start" : 5398,
                    "duration" : 94,
                    "mediaStart" : 5559,
                    "mediaDuration" : 94,
                    "scalar" : 1,
                    "metadata" : {
                      "clipSpeedAttribute" : false,
                      "effectApplied" : "none"
                    },
                    "animationTracks" : {

                    }
                  },
                  {
                    "id" : 67,
                    "_type" : "AMFile",
                    "src" : 1,
                    "trackNumber" : 1,
                    "attributes" : {
                      "ident" : "01 - A Tour of Druid’s Log Files Script",
                      "gain" : 1.0,
                      "mixToMono" : false,
                      "loudnessNormalization" : true,
                      "sourceFileOffset" : 0
                    },
                      "channelNumber" : "0,1",
                    "effects" : [

                    ],
                    "start" : 5503,
                    "duration" : 90,
                    "mediaStart" : 5664,
                    "mediaDuration" : 90,
                    "scalar" : 1,
                    "metadata" : {
                      "clipSpeedAttribute" : false,
                      "effectApplied" : "none"
                    },
                    "animationTracks" : {

                    }
                  },
                  {
                    "id" : 68,
                    "_type" : "AMFile",
                    "src" : 1,
                    "trackNumber" : 1,
                    "attributes" : {
                      "ident" : "01 - A Tour of Druid’s Log Files Script",
                      "gain" : 1.0,
                      "mixToMono" : false,
                      "loudnessNormalization" : true,
                      "sourceFileOffset" : 0
                    },
                      "channelNumber" : "0,1",
                    "effects" : [

                    ],
                    "start" : 5604,
                    "duration" : 53,
                    "mediaStart" : 5765,
                    "mediaDuration" : 53,
                    "scalar" : 1,
                    "metadata" : {
                      "clipSpeedAttribute" : false,
                      "effectApplied" : "none"
                    },
                    "animationTracks" : {

                    }
                  },
                  {
                    "id" : 69,
                    "_type" : "AMFile",
                    "src" : 1,
                    "trackNumber" : 1,
                    "attributes" : {
                      "ident" : "01 - A Tour of Druid’s Log Files Script",
                      "gain" : 1.0,
                      "mixToMono" : false,
                      "loudnessNormalization" : true,
                      "sourceFileOffset" : 0
                    },
                      "channelNumber" : "0,1",
                    "effects" : [

                    ],
                    "start" : 5665,
                    "duration" : 129,
                    "mediaStart" : 5826,
                    "mediaDuration" : 129,
                    "scalar" : 1,
                    "metadata" : {
                      "clipSpeedAttribute" : false,
                      "effectApplied" : "none"
                    },
                    "animationTracks" : {

                    }
                  },
                  {
                    "id" : 70,
                    "_type" : "AMFile",
                    "src" : 1,
                    "trackNumber" : 1,
                    "attributes" : {
                      "ident" : "01 - A Tour of Druid’s Log Files Script",
                      "gain" : 1.0,
                      "mixToMono" : false,
                      "loudnessNormalization" : true,
                      "sourceFileOffset" : 0
                    },
                      "channelNumber" : "0,1",
                    "effects" : [

                    ],
                    "start" : 5808,
                    "duration" : 34,
                    "mediaStart" : 5969,
                    "mediaDuration" : 34,
                    "scalar" : 1,
                    "metadata" : {
                      "clipSpeedAttribute" : false,
                      "effectApplied" : "none"
                    },
                    "animationTracks" : {

                    }
                  },
                  {
                    "id" : 71,
                    "_type" : "AMFile",
                    "src" : 1,
                    "trackNumber" : 1,
                    "attributes" : {
                      "ident" : "01 - A Tour of Druid’s Log Files Script",
                      "gain" : 1.0,
                      "mixToMono" : false,
                      "loudnessNormalization" : true,
                      "sourceFileOffset" : 0
                    },
                      "channelNumber" : "0,1",
                    "effects" : [

                    ],
                    "start" : 5851,
                    "duration" : 112,
                    "mediaStart" : 6012,
                    "mediaDuration" : 112,
                    "scalar" : 1,
                    "metadata" : {
                      "clipSpeedAttribute" : false,
                      "effectApplied" : "none"
                    },
                    "animationTracks" : {

                    }
                  },
                  {
                    "id" : 72,
                    "_type" : "AMFile",
                    "src" : 1,
                    "trackNumber" : 1,
                    "attributes" : {
                      "ident" : "01 - A Tour of Druid’s Log Files Script",
                      "gain" : 1.0,
                      "mixToMono" : false,
                      "loudnessNormalization" : true,
                      "sourceFileOffset" : 0
                    },
                      "channelNumber" : "0,1",
                    "effects" : [

                    ],
                    "start" : 5982,
                    "duration" : 45,
                    "mediaStart" : 6143,
                    "mediaDuration" : 45,
                    "scalar" : 1,
                    "metadata" : {
                      "clipSpeedAttribute" : false,
                      "effectApplied" : "none"
                    },
                    "animationTracks" : {

                    }
                  }
                ]
              },
              {
                "trackIndex" : 2,
                "medias" : [
                ]
              }            ]
          }
        }
      ]
    },
    "trackAttributes" : [
      {
        "ident" : "",
        "audioMuted" : false,
        "videoHidden" : false,
        "magnetic" : false,
        "matte" : 0,
        "solo" : false,
        "metadata" : {
          "IsLocked" : "False",
          "trackHeight" : "54"
        }
      },
      {
        "ident" : "",
        "audioMuted" : false,
        "videoHidden" : false,
        "magnetic" : false,
        "matte" : 0,
        "solo" : false,
        "metadata" : {
          "IsLocked" : "False",
          "trackHeight" : "54"
        }
      },
      {
        "ident" : "",
        "audioMuted" : false,
        "videoHidden" : false,
        "magnetic" : false,
        "matte" : 0,
        "solo" : false,
        "metadata" : {
          "IsLocked" : "False",
          "trackHeight" : "54"
        }
      }
    ],
    "captionAttributes" : {
      "enabled" : true,
      "fontName" : "Arial",
      "fontSize" : 32,
      "backgroundColor" : [ 0, 0, 0, 204],
      "foregroundColor" : [ 255, 255, 255, 255],
      "lang" : "en",
      "alignment" : 0,
      "defaultFontSize" : true,
      "opacity" : 0.5,
      "backgroundEnabled" : true,
      "backgroundOnlyAroundText" : true
    },
    "gain" : 1.0,
    "legacyAttenuateAudioMix" : false,
    "backgroundColor" : [ 0, 0, 0, 255]
  },
  "metadata" : {
    "ProjectThumbnail" : "iVBORw0KGgoAAAANSUhEUgAAAOMAAAENCAYAAAD9t9IKAAAAAXNSR0IArs4c6QAAAERlWElmTU0AKgAAAAgAAYdpAAQAAAABAAAAGgAAAAAAA6ABAAMAAAABAAEAAKACAAQAAAABAAAA46ADAAQAAAABAAABDQAAAADq2697AABAAElEQVR4AZS9aZMux3XnV7133xU7QHAXtXgoSpY0kjySNYpw+IVDDvvLzLzy93GEHaGwZiLsCM+MY0YajSSbm0iKIrESAAEQAEFsF7hL7+3f73/yVFU3Likpu5+nsjLPlifPyb3q2fhf/vW/upgIFxu5GJ3DxrQx4hfTp3MncivfvE2iBbPBlb+Li2mTv4QmM0OY4GdQ3RgA4FyGr9up8+dbeAC7QfpM2rhwTWPAIlnFmgV3M84MQ9rMo2Sf8RqmkQact8rQYcEn/VzZOmeazrucI2mWGvQ1XsDAk66U1eSlsDHKEr6fyr0Eutwgy1ziojfLDa8lrzAukPZy6IKAe2G8JNNcqp4Lfi7HmuZKVwtNsaTTdJdyXpW0Sjh4rhW6EFvRqbJdUvyqfkTpchdnvkN6wStO434lY1jPyUo130SSwoOckVW5kjnuNweRGVcSgec6yG3/yX/3x7m72MBkyLRyNgeU8QuInPOXSgPgYjozte6nrcQmcEsSjUV23MNg42Kbe8x6s9Kx0sBVxY0iyBMepahBh/sNvZsQw97cCoxENzDIhreA/IfjpunBSUJwgz+ccTaWOedyRPyA6gh+vC8RAtj4fY2863y1YuXLPs6olgjSqthMJ3olzetGDLxYVZ2gb/DP0NXWpjAdoKdMBPl0Q3d+Xq7ecAuGsbqzRisUh3PrYcikDFHiuLeul1Dw3hvTAcsJ5Qbts7Pp7Bx7sBL4t0G3rq0jOZuej3FxB51StHcVtD2tbLrYIqHTtQVlqfu53gdOg0X+pFlnkaohps2LU4XiHnmsB+uHkPogXXWaJo0UYdhceAIqdMnvNYiQQ9ISabZRiMACLUNw44KPTObgnbyagFSVZQaYziPDxbR955N7QY5C5AhQBKvUYJQrkqcgqciQL0AhyNIoSowuXJlC8azvLlinqYQgUxHnG2cUhpStrVzb2ISt5kH+VlCqjdTKkYJp/IcaBEypbC5WpyG8BApewRYF9XjZ8RZiQc2XsldIVa6UuaQ3tIZnaIU3RBKv3MwwpF+g2zNxY0Bo3XJxW7yNDcIhRNkCW2ktn/VgaFwJtMEpkNDVSguj0xBGnRo9i0BF0/vSVMX8loJSxbAvzlLvkdEGd+gxzg/NDRSRutNQMdLLYdBQgmQBqyPLAWs/o3BzG24ttv41+DAsap2snKXLkj3pZ8JArwo5SHSZRxmhJTm/o8Pc052M7NZVgBol8haWmO3kW9juRDnPYV5+XbzVs3JEFq7BVKhF+ORuH+zuSA8ai9kWYsQjR0KDMcgyHjJF+DaCVHiVWnJRbMENaAs5yLTwhWv+NjSrhd3ertZxw96QnMgcGawsKZcRhgYAaQAG4U00cHGl0rtUW9BTgMjJdYhSBFuwTryiKIEaxHhKNIrlvWF9O/d2Qx/rvGIMo+Rx7YoaDliUkJO/Fqc4LDxMl6YkWpdpyEgrZ2qMcdXZbCHqH0OpBmtzSzn4x/K4JJzjYJfDUPpIbLmiRwTQ+a1H8TU6jXCp14orm41rwVSp7P0NoXPJxKwj6vjMmhslHT2kdXARpy8a9R0yl75MD+woirzSMMBnNG+z3hb7LVnjOJE3qgndhpGm4fz8NPZdd3ynLsW3oaCcDTgDdEQ5Cj71dgVu+xTlb1StoqzqAwsVrDC34i5XSJO2BYgNmQANwVV7IrbQpsmQT0jBQSHsAQJZzYfIKLmwT60E4dPCi+t/GU/Rg/6gywWJ+TJCECXDgbpNWium4eSi8SnBEEr2FbzKL0Aj7R9xEVzEKJjYrJOkX84rXoWRePOKTqrssxBUegdFW9O1RroHFmbYtqneErpQ5qHfFLhycNmCGARbHz1caqi6LnSKZt9Tt0Pv40L56SmtOxsYrjphhtFe+RjOHdZyTbEROriQHNmBKZsxaj51hU2Y5ucCfIFN7wYoSONLOkqYDzCpE52EhAuGHYsaSh7hDRfooniIubLr3AE04IQ1foGxdX2Ll7Kq5EIPWMoGsKgm+51GIfIzGswwKBl8bUzbNZQoZnGkOU8S609lmGIyxQyHYtWgKwoyTItUeRbaRk0BLbjBniwKlhoALXYpRRhNzmLY4nA1yTG5yYSi0rHh+OM2BkFcbOkFuhG4dlTwOYzEgM+JVyKRs9LmyohofhUBh9yGlG32oBXHTkuSxlX0BtJyk4JaghHW3ieS/6vsBqvrQrS0GCEra+BEXOMANJ0F6zK1EnLNzNpq0xar6lId5C9DTlK511DLG+o+vMK3uKWhXDGu+irY7nlN6/RINu6HKSRJkrIylCMUDVsx7TU0tDn+yjICmq+tre65K61hys5HuUP8ihyARy7lCSrf9uTWceCx15mfjcqAN7UQiiH324rpPCvCpsUUQuZ+LOqCIdNadR2GL4j1ERCIo4HQMwlDOmMBIkHNDM5rhW6iAIPC2ipLx7g2mAokTwpFk28K2E4WvMulIV9oZdN5F7lnWmS3H4j/TwlSNmzFQSIqRUdrtoZUcEo+dz9jGIgM51heylbofFsG8UZCIkNWL9LwqvwzUNBIkq64AzloForkh4YApF7EqYU0AOEhiq27zDYZwmeaEPlL9tKfUF3BEWrhTc60wQIddBu2rtLDsEkXu3luWmZI6IhF1W90URepzaGrLhy5kW7RnkGiInnY7DWcuSQlREfErRcbfaFM24oOvbdcA5iYcmZk0MxJC+WVfOor0yflIXemwH3Aghumwc1aBLEaCRIZ/JSjh+mmdlCbiUu8gxNpEaRNUVYiV8GTAXAUlIJ6U3mtNK9brI6lSszjEwUVKIVqRxwSAABIVaSR3JnmTRKKBipQpgRwdLQqAfLG08Ao8BlGpc1irvKC5xdpq+TCu/KdlbJVWtCUmcqNlBA4v+LpaTg08NU8rPnk6pfySyzCyIBI4nwNIzJV0DLvrpegkkaO8EMlwuZ+Jko+PKpBkgoB3ScWmKJrGSyJuvp0sJxi1GepRxiTZF7XpyQVR54G6Tk1dRgtXC8AlheSKf4QfqCIlmB5TWvn7vT1tRvadVr4k2CZxG3ZIqeyZMTGLBadCZshp/BDAECWQNpcXhEib2VrE1VWaAxdCmCavHVcK9fhuzTDa8A1Lyk1Ls64qkWFSa/CJRLlq6iItQrmhy4RZZzDCi/kIlnR2aD7lnEEwdBaoOpRBwVAy1Qk2oSrUi73MBa4wqC+JCSZVDMGkH4SxY1vQeIsCGnLVXlBzJeydctWsKpXoypI4ws95fRukZcbwmBeN+N7lDtdAjjSU1EOk5TDW8jIX4rNZR2t0YG5BfHQ7kWEdEO4w+jNiYTMggePkdQ91gBAjqKfbL68Dm4SHnd1rekGI6GG6JavifVV8BFiyC3+Kr3z+6pqKlSku4ZCnTMbiKvNE+nWn46ow3CbxlSdUq7SbzVtIq6ddbbPQVEOpYml1N6b7seQ+0VQrAAn9D46LJj61jGH/ZPQ9l95DFOLsN8S1w2KTYyhkquBJt9Wrvf/zK9PGWAxKXMsZdRk2RYxQimb+Aqpkkbca9iYPsYspU5zGqd4bI2WSYTQCcTDv0IOEu4JFewoWZFdIWn07URLsjjpdVWoxAjK2ZDGK3XktVWbPhu/MFv4mUagoy0LEebI2WZAWhkCmTaG7tWDSNvK40Loa9XEkhZ9DZjUfzu6aX6yMdY3lkdcvmRcsdStdDpkOM7tRqYaBZvFMFerS+CUJw1WssGGefVUAKAPwZS5VVhrCCQYyBixiFLAI6suS3rfcy0ToId1AYU/dV0NJPQQLUPu0b1ndR2cLDTREVinkYe0rFtEtlJCZCHadhUVNt+1rOKOT8nPnQmhbQq2PTdG5XzWZdlE8QfoUghP9JVhanurSgvdS6AUWGNKWuVWoUqULKyMXAtqcF5pPM6NIAncx14rI8KtjT24AtT/QEG7Wdb2lgwDIswKa4aVc+k78wTy1UtaRwonhcYV2PJKcJ1mimFdxtwnNRmJrWlZsaWZBlqu8nf4qgzrnlaISKSMCKJpmWJdZBgFYumk5CwZ5boOpdtPqwG4GdRI3xSPsPIrYObpRHzzVToRpeqwhBAEGFB0yNiLDarkCEW94CtOoq0W4oVuGM45oshyCTEMyzJg+sK15Un7Jv/AVp0JNpddUwleEQ78aPRDN8lDX3K2HM3PexmBj9a9K1tN7Bd8BbT00cPl8ocFpxsgQUuyJe9qjNXU0aVeySmR+EbjEvHj/lQXvg3YiqmQdioLFuLqiCnctsMvEviyYrqwRZ97CBoXOwUKA2uyIDRik0KP1A7lLHUX+oEJm0qULp+WblFW0R2YXJb7GV6CoSeNQW5AVnWuseCp4ZK/6EL5l2C5yzqXntAUjVlIHVE+2VsLw4vp9MS9LPpV5h1Z6dMIrasUVuzim3vodDlND7saEnhLGF5RN3KbY42f8qLrC07VJHTBB2RflFk9Gaq1rwak8JWRMiF3VHhZ3CaRa1nVkFWJgrMURBnDRgWNws02IpORLNymm+0jLcDZM2exJo4b0JDAwgaUduFZIykWcVO0xL4WllT9uxxSFSSlUULI2A1k0gEEFKooIPZQKhF60LlKbaG9vcmKWMQCOWwbViIwUlRbwzKoRjSVPBRVZgdj6rtWWgtPzhnWiK8gK6Wq+F5saYrZ4o/2JS1zFed4v5XUgolBt+94ZRhmo5lThoJ8ihjhFmW2EQlnCMU18iotw6D5ONpCowjXt6nS8JMyDlpDLFINLXcLpDv7Kd0KYc7J6el0eHg4nRwfUazz6WD/2rTLgQy31WxdtzwMAf3iOCp60Jb35QBPdTwSZzNYEiJvDAYYh1HW3wZfNaQjfkZDkAMYetRCXRLWn0G55mC0dUm29Kg8v8zgczks0i3pGT1YreKEtDryT2Ij3QYpAQoh69eavullbHGGAT1QQtZytq2mRTQzlRamBdOWDWkboA5rbpftSaDi27D/0HVFNmXZztxkcAjxUa440kiXhQW3jOe0uCpa9WyibH2CKuRqAV3KLwKhlVUrFaqCqNwMOQcDYVdKLDTphFtalVSC4G3dQ8l1uVQUJYSHaVVZRUf1DC5DLgCW8LC0kRv8iFrytt2tuVpLs6GPsijq1UrSKCpNbBuZ1gFFoyeKM7Didooj3vnoo+nOnY+mwweH+NPF9MUv/dL0uWc/P93HUbd2Wcpno9gtIeVrWaSdZfm5ZPLr3Ko7s8reyrjFcZXvgg3105Pj6ZTGYHdnZzZEq8Ht0taj+Eot3pB+ISxtHDRTU9i6Y2ItklrfXGZVgxzesY1kr76o8UXsGT/UosMqc/EHsGHHVMb0TuqrxMPPPGkMGPmYrg1HtiIqOKEaAa9V2jW1gnjYdw40jIJ+qiG4gjBTbIGQnH1GAgRKydxdEiqZccICK8wLewyiDv0c5mrwKqxoNAkKBIzFT8WmWFVF0oqzxzq8UwSHwAvzOU6agls4G+TwEMyPisyl6AZdpiNUXuGb5P1Ml/jDFLbOF8dgmiaceKgk+ukvGOhqlw2KNB1nlNUmqEwi0kW3Gv3W1vZ0/cbNaYerc7Mf3/nx9NrLL00/euml6Wtf+43p1iOPTI89+cT02KNPTMfHJzgRQPZ+kJH0VgpPXDn5f2hofXM9xvFd7IDQ9OH7700nJyfTtevXp729/ciyu8NywhwGzcFjTl4xSg3QSpY82geC8aneE/sYMmVUZNFFGPIki6+H6X7h9fNig/CVepHF1eCi1FKP5A6e1o8joSWIPSjEnprHXIwZtGXu+u2MbsQu0+3cspMoS07DLbZNKMV9WhmmC6gzqbcwREbFdJgekXOvseoYJXSLXmcgKz1pc6ElJr8hhQJZeatQ9yEep25Y6TislrtD1eoBdAFJ1qxAUjQB4JkiRtERZh2u8gycGMNISqEDq0jMeU2nqPtN4CK/T9OtbL/VhqHkSjTwpj64f396/733MlT8/Gc/P92jh3z1lRenP/vTv5ueeuaZ6anPfHb6whe+OP3mb/7z6fr1m9PhKT0aPWu0z5zBxtGhZfPvGunhpPcahy34/t4ew+IH0ys/enH68MMPpmvXriGB88WzaW93f5p2gM7KqZJV81EepCJMU8Nwzq335Ca9S1YwOp10HHobzk+5kmXvrtZaNnWuvnsIPEhF39ExCaYVp5DKl3YRTkEIQb6SokCBGbVjZu79Uhf5B0/erbMAUKgFkliRmXE70g7XsrfdrGmt48FTTkj2ynrTshzMGeHFl4TXXqww2qSjHfXYezEOnSRmYZSxcSRWVUbmnGsccAETHQpvxSX38lcJD5w7xQZgXW0sYRRWUlRACqUSBTJ/XB2yFFjSc/Ij+NwCHDm9N3Dpyq+EEEMXVpDgdR9Q7rOEfilt0IFQacN7cDRiY15IKnb0iETsF2OuGUaWAx0fHTFUPJree/en06uv/Wi6d/eT6Uf0iucMH+/d/TgG+/JLz0/PvfDcdPPmrem73/n29NVf/6+nf/EHfzhdO9jPEBNKcoxzuk2S+oS3iz+WonjjYyyoHR+eTi+98NL08ssvTB9/fGf6DI6+t3sb26XHPDphrrqn2JF1aziRhVEf64/8hr2HdxsjNwQp+CEgQHQ64kl76BeaAcU6ChLySD9pwpMnRaugdDriyatGwHqwvJXUaeNe+YlKoxf0klAmQ/pSj03D8s5rH80U/NDhvvUhB+NzSLSkqWTikR9mhNptUn8ApoAeh7M1CulisBArwiV4w4CcfgkhyAidGcFI4RS9YYkmSyR55KwFNnmEJV0aFtKMEjbonUaGzpgATHEcwniH8RT/ulLAOFHRGGhDBtNKmcNgI2i1ivVd8H4LG/glaS7Lhs/hzZlLuduOzZRPegcU55BSxz49PZlOzk+wcx6dIv7Tn74xfeubfzW98/Y7mTOeHZ2mF9vZ2Z22GDbaqH388d3phRdemH78+o+nb337r+klf3t65JFHp3v37k83bjiUfXJ64vEnsgp7nWHn2dnpdEQPqHM6FL5z58Ppu9/6xvT3f//96fHHH2NO+qXgX7t+bTSsalRZx2c44ebocaNbQYQaeqzCV9ryrUKEqZS24wWn0vs+V2D7fuQu9VsJP/dbfWrYcl1PBAb74C3xJaZSIyP4ZTeClux9UCCOsyTPDXg3PtURicOnUKG12KioFcpvjNt4BoMvpfGTnrGGc9yOwgjcIYB+gVqKtTUvRqW4ZI484ep+lipJtqqVYgG6ezcrgTxpzRXtMTqVNHqouJUE8pFOOU/jDippYKyQ0CEx8lHYan3AaxoDoaqusYFXO7DpSl1yilYb1OV06MZwNQb0An6PFgrellDCFey1TshwG2OP1dL7D+5Pb76BY33969O3v/mN6d1338ExGSru3chi2AYOdMKw8vT4fNph+Hh0eBRHu3t6d3rj9R9Nz33/++F7As7W1t50+5HHp6c/88y0vbM1ffWrvz79s6/+M3q+z8B8Y3r+uR9Mzz//w+neJx9NX/nlr+C8t6ZHH3s8K7cpO1DpuzUQdOVhBesqdaNe1Z+Ucu0Gxt5sKV8ArnxVdil3kBh1hb6cIH8qmLakN07zl1+lDXnEJ6ExlvPDld/kxa++sqmv+FDOQYZMyj2IpWxDgB5FZcUZ4LZjy5c0I9IZbAdas+e6ZJS+qxyxWLJobu2jxwRQBiIMKkuhS/EWoYYQCl4F2cgTCl0QmRXDGg7W0CxDGRURJS6VCvAcVJRsLY/BlkXjzmpvEsgfCmtFmdxuGaWJNxoK8wyRSN6R1wTlGA9CdwUEsvKWaJWj76Nwki6nSs4lmQqKXvzqvoyn5kviK6PDxj0+x8fH0wcf/mz6t3/2p9P/8+//3XTvo/vTNkPIm7ev8cD75vTgwYPImpELCrQ33QbfRZfDw+Mw2Nu9zhzslKHpKQ7MEJMn2z9494PpxeeemzaZ8/3Vf/6L6dFHH51+7/d/N3PEd95+m0Waa9MzOOtHH92h0ZiYe96Ytrd2JntfV1S3XZCbDWopcJVrVYdDE6O6kGeJVemXb0Qfdd9pVdcLzlXccHsITQlJo+DLZqDVZEmWl2GVWgnj23RBtIe2GRMurT4Li0MmHZrWHcaYiLizjYXfsK0Amac/lj+EzEg3Lr06tHAZTprKs/Hn/+f/YUeTXsjCpVeQuQAQ8jhUCpBSiiawmULMkcRjfDiDqenVqGzBnKQ7Z2g/KTihCFxagd6W7MJm59Gk6KV41bc5oZHch38N6mqmxuoysTlSyYZclM50/skfOckGcFzrMh8CL/BkR4Fkm2dv2DIZ9+ieD+qe0mOdscjiNoJPgj84vDt9jznf3/3d9xgq/mB6/ZVXGILuTLt7u7TGPOHuviKst4GtLY9ydRfDtra30+PtbO3Sa0pbp5R+8da51LW6t8E6Yeh7P47rgs3m9MitG9NTTz7NU/TT9Gu/9jXmnP8tD16wcMAQ2MZhZ3tnun6TFd3t3emABR3vtzZd46uFIXvKCqUbDcfFoF8UFlsUp/BaT2u8dozK05iFlZ9arpARTqJVV2s6M/QAXmAH8riIo9yOAFoeCjjXXcCkMZyxfAAbauMlK2oAJvUvPf1ERHA2WOswfllTZg5ug5c4XWbzSKZnNFOyViIdpJZQpPlOnoKMEopFbr2rJBJzX4qLYsIoQKGjRCrFYkujxdRdg00+2ZdCnWKoDLv+Ul6BFH6lmRKeXNeFKsjkAkAeDGqDt/jLLno2zwhBeRLgZ2i6uRlfV+UsSGgkX2eomAMNe3SN+/zipFY3ofvC8z+YXnzx+envv//dycWYj3ndyfnpBquYBzDE8ejZjvCSE7YstnVk/nTiSGbtQ/ji+DCOtrXFHmQswgWbMqoskAjj3iHlOmPV0sZgl6Ht3t4OtE6m996/N7333kvT4489Nv3u792ejtgi2WKxqbc5tva344DydVHJBkVnrGD5SlNd9pGRyzpNTdeMaA3xD8fVu7oTvwxcW2QRCjkMVs+oqdz3l3bR6VVP3q0lasi6qro0XCP5oXU7PO4yz8X2ZJhpCTTaXloGyTb35MHA6UmErKJU3KrrAMzGX/5f/4a6o+IGcQkmzlVCJaikpdLshvnmlrhA9Q9M4XntIWaEBkbegqb3FUC1F4P5CGpIuf9FpUhezq3qyGPaL3CaLl90KSZDvgQILQoypaiGX0HESWegJVLoAVSp1XClkmASGbnJH07gSZpzFmW24WvP9fLLz0+v/fhHWQH94Q9/MJ0cHWeoen6+yd4eizg4nw4sO68xZHgpa90P4XKJBofOaNtHgSxr5OGqPPbUeYIiDYRANBb21vaupLmi6srpl37pS9Ovf+03p6efepp55rPT008/nX3GI2Tco6feYVXVearDLj9um6RxHfpvyao+LEAJ1PZgfoP21kbjeO2677TqeR1RiDfXJM5oqSyX2uGvbhst1zhxMxs5TV/5UAkmNezWrRZsvhy+5CjJm6Q80jMVzNwr0qfKXGAu3Ug01vraNtpD1sggQOzIAhaZ4Cgbf2PT33lCJZAOvIXuMMQMAoXIsn0rChJDURGyUUJD8hUiv4YxtKhiDA3hEMDHq5KWuAAFJN2mE4ACSjSSmc8nhUfptX8FRv0nT2CdpenMChparRL6rYwhvXyRVPnyIDMVS5yoc7WMKIDols9ezdMoL734w+kv/+I/Tt/81tenu3fvZCgo6U3mZ8csxjh8ldk5x85koP7VgFL6MqZso9gTDZ2VFFIQqCSKLNy6/y+cRpymB7AcNxxXX/Jl+R0+yyfz1v0dhswPsoXy03fenp58+63pK7/yK9NnP/d58hmeMtza3z9APsponXNs0uMdxRlqg2fk6a8WL6UYNwOjQfq6lKtSWv5qhqqHvAqjLZSRN+2mpkpKsk5Z41rf61x5qOcUKzTBWuFLvTiUbaHcuudq8GKsea55BeDnfYkUEkUg0RXsdk7qr1OJW6HFwAyLwQfrqwKZO54MJ1ZddcFZRJmZlhVFjFI6GpkQfUqEKKHyzA+2VkKsHFVVlXOmwMIEDkiuvj0s0njyYARpmCcNtygdnnpXMtdVGt1oFJ8uU5AbKFd79apEyy4hYKkwW+wzjNq50jZzqk16mUzCth1WnkyvvPLC9F/+8j9N/+9f/5fpbRZMPOh9wF6g/E5OGIYyNFV/0s58axiBZUK4kEpPAEKNQLsEFm/oQZGQw8GgT3jUkHVpbFSDadESjWBaXJWCvnTEnf3daXuX5w+h88n9u9P9o3vT2z97a/rWd/6/6Ytf+KXpt37rd9j2eHL6/Be+xFx2D1rIC5EzGg5pK0eFqjPjSlk6tXSlV+9Nt2GYUQQmLDQsi1BLQPQROn1OEDENVTXSS3rTk9Y6LiE7jEAqhLxGZ+O82vTokbFEYIEZ0MlTj7Ff0rXv2I+tHsHvlmDNV/4tQwABapqFmdQZpstfEwKEawVEOJxpjRSOJFiWfr+H8VJ2GcF88BZg09Njeg2gCirJvZCaTztGJbW43sndjwT4H8JJ1+S6t9dIdsnKTfRsDxz6g0IDoVHRR5Yx4mue5kqjmJjTvZ2gGr/zMRsZVz1PGWK+8for7O/dm+6zSf/SSz+c3vrJmzjjj6YP3v8Zw7yD6elnns02hXt9Os02Bu2LIk54IsMKgGRCXj+C2Pay0QkiWGRYDZlLptwJFyzThtMRjQFUhjfV6oPt3qJDU2s0IxAbgbPN6fD+cVZgz1nkcZHujOH1Dgs5P/nJazmg/tWvfm3aP9idPvuZzzG3fIAse5l/7uzuwlVGxb/ig/F8oWxkWx+CahuraikUsiqg6SZFgga/ug1IG2tVZcNLXEgxjC1YuQe4GilJLHneDYTKF5iEmkoNOo7OSM0HOl4jl5UCfB8CKEzuU9Dlmk5HJEKq2LquW2gpf2U23shytVxFkTkAUmHpvzE+SQQPAjSCfpKUNMkTIa1Z1bXS0zIvEoTfQE+8iphosaioohILg1wiOOP3GBvpvScqhIYbFkMZFkG4VGe3LoNukbUcSkGw3F6Fb3xw4iApwpBh5NmLpTfCqt56883pO9/+xvTXf/XnbNC/NZ0mj3y6sv1rN6bPPFtDPR3bfUGPnVkuHdLKcYHkhNM1x8dsyHPixdXMLNbAy0Y3ZSBSlTrkCJ4aLi1rLl1ei5Hms0U2gfwqBnMRynzBm+ZsXJznxEgvxis6kdF9OXvKbVZrrfXX3/hxnPnjjz+a7n98b3rq2WenA2HY/nB/1LmjtIWVZfh4VVckmJq5NWmxAwUlr+qWxCFnjIfbopDIQ79EX4LcllC84Qf9lmN2wihI2OIshE/hx6dCs+QNf20MyJqKoF27zSshVBpvlTfbFGk5zBENlJ2lFpDjUhFWuOvoxl/+3/8GR7eXCRpX4lSQ88YUz3QolQwodDhGCi4Thz+E1MO6+SPZpfqEtWOIEx2s6AL0MHEzvMB4lM0QGOVJxZpginmluHwPlt161TBa+ZR9ZEpsFTo9+H6lYokoKAYs7jkO9AlHx77NHPDrf/Ofpzfe/HGM24PWefv3zh7GypCOuVWkGmXOUy6k6Mj2dBqg+cesjN6/fwiP2sJ4QA+rI+asKWLKM8NUYP33tX7K2RXvY0B1zpM0ixXi5hMnweOEDr8cDrPlyNX0WoTZTp73DCmzmDNNu1zVt8Pu/YNr091POIYHj8duPcoBgV+d/vnv/zfTk/T0NzjM7uKOdlBvXZePf1FcaKoB398aZ1Vm5ZuNCBBVG0HFMc/7iv7D3wXot+UbFCK7KYbQ0o7DI0l8CVlyBkogZEyI3XYjLT5x/gMtDHoJNjjWy9XQ9iNGNbfCROHwSKXPKAXbNEreyqSxsxUxy8+iEMXwjzoWMkIYcwm/YHs41Th1BScR3BiC0X/uTddebJkkV0LUt0VYQuObWOlKJhYBvKQlr3KVZpBLXpzQ/Cit5Sn0ItF4S1orOLzNhmCvmkr/3M30996lN/zm9L2//RaPOX2QJyyOcKYzti88xuT8K/XGvCwOwAkYw9b23nRM5hGb+C7sunp6zuKNuvCRpU32DI9wTHtH03bAswdzESdEJYJMDnHzB69thp50pdPpNhv+LgRFRRpmOWyf6wV06AQN2qgx99uBpwc13LLYpCe0/p2j+vJoG5ztHZwXGIejx0eH051PPpye+8F34HM0fe23fnd65tnPTU888QSnhzi/Cl5qxi9k6GnHXIcmDnUr+9qOR3IQFX8GTPwXf2VEJDErnms6EFsb48i08JFycVKmpA9jSQ6wBmWbw8iPrkdcy68yLdcZfo6AAXzR8rtWY53Zr0PRidZIRgoFIViGzBmbUSWXw0lO11EePymIFcpN9zYLczAH0aIBtnwiB3Fp+Jd7ITqC8uZ4pdZWhMSUYyh44BftohUqTaYzQktcqKYrIAYNna0NJb29ENIeocp3uQXTeD2Wdsbw7u2335y+y7D0B2zU3/nwfVYhD5kznsgmczKvbhfoeHs77BtC2geDVdoDhqknD/zNh3Ia1inTwKXRwBnOSNd5PBrn5r1zPJWpk+0B629ZyChDL+ilHsjvVwEHniI7jM7r5aswwbGslt1hqsHFGz82Ai4+RUfkuTizgywZhtPweBLHAwZ7GwceXs4C1QvPPc+CKj0/jY2ybty+jePCGAfPSEoldKNpDDk0SGvDAJc5LqhydR30SnrqaBhJGkjgpGoj1XaS9QKIKrt5BV51V1VaHGObkaFrXJmUJF+F6+1DQ8GUjNq7NfKPDQMXDGMlZXHVHyq1aZFQ4FysJ0rAgKdzucpWCLOtcudrGCZbDxKelTKU1vfVPXe+AxRJXMKo6iiNQScA0O4YlU5003Op7gElX2nW4pdsA2VA1KXp+Pr3okh6+HMBYdmj6tzmIFvSIpdDUj8agCufx9Pbb70xvcITFK++/OL0/rtvTYfswYlhQ5XKZbi2jUHqCJsbOCB4zqvusml+5JP7HPa2MBq/p2zUpQZlT6jDbQCrfBfQkKeGrTPs7Oq06OTcXoon/hHqhIMEAKfnPNeZ4OnCSz70aqGDdPasls63b2+OXnRjz9M7nPIB360LvDu9ZeSmMdj2pI1+h7i+bcCOeZuzrk6dLjbpyVl0ev6570+vvPbi9Nu//bvTH/3RH0+3bz+G00JP2eU3VJv4qIXWtrJ1PI1E7pXSoP79eKF8OmqgO00hGnYFjsDaHVBczTcmZsPW1VRD0e54Xa9+K0YaAul4Q4g0Q67IuZKlaQtnfC6ldgh77ckIGs6VShmQLSPJ2gT0eTuchSkyVSALyIekpCsEy+5OfJVNpBbS+zBTEkLyY6F00QjcvVFRgvlgKmzxEkk8aA7ZcpKFNIOXOhZn5iJ82pvwrjSN2z9pJqZVGSjEfPpGPslXtIGnscs7OXIQwvzapvjZu2+zD/fi9NqrL7FX+HGGdaef3I2hTjieCt5mU1xj9Il9F0noL+M49mjn7CfuMY9Urhh9GgqdQV2CzdUjayccANCJ09viBR7y1ok8GOBxtV2cyDLevY98DiVxkjSNpIlzyN9uerZ6fce2R+vAc5irPt2mqd6whqUOQ+XhCR17RIecNsrawhlX5702CJ57Vf/pUXFWndK57V//xZ9PpzRK//KP/3uG6zfYj9zPnqRqjWbVdXSMZjUKUscGAXHrwTTzcpt4YlG+uJVuw3Se/eeRYHLqa1wpv3YZWxr8gjlgmnzb62WegcyXtk57FNmzx25CZNQW4G1el8ectq+Uq+mII6xXAj6n1HWrs1UZLHt+zwQapQfJm8cqvXwLzqyga+vEHBpZQQLrzRJudONJuvJl/siQbscDxZ34M54AqhEOSZOjafYU8GVFt5SoHEqhQshGNkrDF+lOwhLLJTGLODfR0K9eXwZFQ8huJKzKgEfR5qtB9xfldcZZTp+835xef/XVyPIRr8Q45nUY+wfXc7/LsM0exYqyd8pWIcZ9doIjQidP7VtgDNptA3u3LdjgahSd0uIwO/QsvkrDV1+cMCrQUS2oPekp+3o+W6jzuNrqazk2mNvd4MHicxThqznYmJh2cVyf1HeeuY1MVVacm/msjuxqqXuFPsXvtswuva6b+uoyPTb0HX5KAyGmbeAudmyQ7KnRoQ0N+nBofbB3bdo42Jy+8Q0OM3zyYPqT/+l/nm7ikPbG1odnGOTfrX1uS8lmjDpNlK+uk66fgvYt7Npe+ndND7A0uIvxNIG6mk8eoj40iJuG+WEA4IUsIIIZtEThy4HKKzQU7UYWnSKYTAPvt7QkYEikBVJA/3VE6dvgCeCHAoZx+k4zSU4CLbZxEfmUE+gY3pMQQL8iQ8FpuYSIEZDKX4lVuAIpeLwfQAMXYzpFFhhGosadd5OEVNwVYfhv58OgqqUCN4UKYmgtjliUs4E+YNLoRIaSMYoI1hjWKUscEZ70cj995x0Wbb6FkeIIJ4fZhtjlRVE7u8yl6J10HBd6ziC8gfOkDOhxcwt6TPXcAkivSZrD530WRXRGjdtfMtrBcfb3rmfr4xRn2b4BDWRw4aQOhWP4OLsNhBJv6hAY/XUOcUv7lB7pwf0HOOE5T3kcxlkc55yfsW1y+iBO6sqowW0LPxpYlpawgfSKHntj2JphvD1w64qrw+00AnDXBlSV2KFzfWP6zne+Pt28dX36H/7kf+TpkMeB8Wf9bEQBDYLwBL5yNZ6Y5otO1JtXf0fxEgRpOre2lX+1sgrw6KNoNf1QNP6s8lXoslhH6zCnI2Nw+Ko0ZRGWe/2BqPnthMqTfOoj8235CSNK4E2w9Si86ugcniYpuNLr430NKG/pBlLC0hIphUqkYlWOolYOW4gSNXQv04WYOYeGlaikHZZC+EBuCkFpskzeYJHB/q0SbNEx3aGEtZKGAJBODwe8GH4rW+PHu4SJwAVjWmMnJazEo5fiwLbO8vqrr01/+r/9r7yS4v2U8e69Q56yfzyV4Bwxb9UDz/JljxCC6WWY313DYe0ZwoVCelZ0m97HldLMEZUUnV8/OMjw8sEDejPoeFDA3u/ouN5Ds89ikNsHOr097wmnYTwYrk5OOe3jFsOTPCLlXPPOnTvT3Xt3M6fdu3EN58Rt4oA6mvpQd1yJu9HPZTr2DC0NW8lpy8/Ckz2zgXh+ZQxd6Hxq9szRCkA5BA/Ra9cPpr9ir9XrH/7hv+RZSuaQceh2HrUsJ0InDc2bWnVipnB8BmgesjX5Uhi0qKMY76W8n3MjCqH4YBHIbNxGPavlI0+21mP7gDiGOFwJOmzVQoyerGnbYBBid4nUvTqF29w3wNj/1Hv5hE4L8VFmy8+cUUcUUdTmsBS4CtKaNL9arHJMaDk2418G5obhuBZNvsnzzwpxj8sFmuncXth5C/EUWCQ+fBUdvkcBpJnU5Au+yGp6t1hm17AUgi2IJAm2tEkb6VnNRC4pa/D2VK5InnFk7SdvvjH9x//w76Z33nmTB28Ppvv3HuBIdWjaSpSf5JSEap12LhxK1raBq5s6lfMsewk37mWzO06ubNALOOyUhnNG9wA1Ph3Mw+X0b1mttEf1NOi+w1Sc0CHkMY5+ykEBn/pHWuQmn95RmW7hgO/y2o4H9Kr2nPd2HT5XI+AynHWgrtXRxZmvg3TF9nR6wFz4jGHpfhoGhsPUj3rInBHHtwfKAg1xLQuxEJhtD4bVPgNp7/kdtnue5LD5l770FRqsR7JPadky/5IhOvDSYZlzVYq1oC7nOht1FMUVyJyf4W/AY1Fz7tWIJMp265qqlop6oPLa0axGGyjvY6UDUJ/wL1wiGgRzxYirF5npyzslHDjeBxh4t3+Wsq/jwigk/6MV4CXGgqZtJJ1rMKGyCpUmHk6A0IaZ7PDTRcHkhAZAoxAzrFi0rlQvWSLSevfQU5aNBwEHZtJx8zgydh5gPttXDilOGRqxoLd8ixABkZogCV1JXUr5uHVwznzJ98984+t/M33vu98Cg1VRnHNn27kWix/y0hq5uu+nQ5XBMW/DMFXNBSuk14j72JL4B/v1Ppm0yvDY3T4IHQ1evfj0xJaHsEG2h921YqDvUGYHg97GW7eB2eY86QEOdv+TTzhbytE07jc2d4PjKzt292+g1TMeGv6IZxEPpgPkO8bZ9q9f4+qcb8oziq7oejzOntaNfd8Q4MEDjTR7zhgqvk2rVtrRcHPgAHkwlliKKtja2GXhib1ShufCvv2Tn3B07gvTyQGNDTTVsVZl/ba+h/JRUjlSagQ4/gl8dYWMqw2mNAypb7v2DiSbY7k6yKdokWJ+oXKjDUHJVRqDSJY3t40Ti4sOnNUXde3CuesIccIVQ6EGjYIYzhtpK28lsdAB004wJOh6T8kUh9gY0JqoUAVcHEY8wOOXWpNki1d5DQ5yBamSZX4qV/ItOwUJnoyBy+RYAvUv97QQJRjFt/dsBqMSLvGllfa+eSWvxEKWMIlM7ZxNakh66ZKGxDV9eq1vfvOvc8KG7iZDwn2ebtij99lk7saYIHj2bG4PYNKAuX3AsJE55W2emr/tayzsaejRbGd85aE9pBq3bKb5iFU29UnwZVueTHMj3yNyp9SUiz0qZpe5qU6uvnKixbnmsY827YR+bANnuMDBtul597cfp5dm+MkG/c7BHr2k8xAchjy3QW7fvpUe0NXiHTzq7LEnpiN4um+aYTBOfcgWho+BndH4KOMxnxP54pSb4F2gJ3txh3pbzI0tu49mvfbKK9Ov/tpXOaVTr/gQxha/9Z/CW1/8rR3LekHkfKWOvIeXISu8ZFqt3dhX3O8K63oNvyWrQT59VY7QXQNrk/IybdjqwOw2wPoTxmuHTqt7Myozzg9wyjpoZr0kgDbo8BhE1K142Q+2/em5n/kN1MYfFiZaiLQTDaFxdnwVbWnJUvgKdeOtFVRi2jaQomOZzqcLF+XLTxarIGQdw0KqFHYUf2akIhlyNDFwK8uEChq3ob7lay91xkHv16fvfPPr08cfvBdBXNHdY6Fmb4dFEIzOtjOb4Rj3MYenjxk6OrTc5XPr1mMcHbvN29pY4MGx3Czfw6ny4mYMOvMU+Lo1YY/G0kiNdhjmWxdZMcWAj8FzyKiGfIQpL6JiKOgijfuMOzwBskvjUAe2LcXoO+ytWOXdOj+ePvzAAwkMgdUz9HRUu4EdnGkXGcRVjxvOb2k4DlhIclh6jDN6ztb9z0PmpL76Y++Uh4/Zbz3mXhgd03e27rCA5NA9TupiErI9/8MfTl/68i+zGmsToLFRV/Arhxz6z0W5lvpIjK+2wazI5t7eo2tpybfUHcyVVtPo9LqampzLyd6RHNzkaFOOZEhrufTWBaCgVqTW8ifzyleTWWggY3jKSxsFQR8kboct30zfr9CZb4V3zGuo7+WaxE99FVSqIdwojfhcSngFGjBeLKzBeMCsOAXjPg5rpsGE1XduAazkhWacrGG5wmuwm7Fl2jK44mfjYu+mob/4wvPT6z9+mXkj2wzMzW6yQriLgbv4coax72F02DNGeo/8+8Qv8g6Zx27xYid6nQN6QyyVkys6Ar0izNPa+fY35qQK3GdGjVvfljPzZuRwFr3na/19bInMA4a6GnychB5pG8c94I1v9kambZHnopG1qvG7L3jdRR5g3Oc82OD9p8jgApBwXneZ29pTeqrFYbHp12/yukdonPDk/zE9vPNOmqA46vGhr+6Y6DF5Mx06OuZEUQI9p3uo0rQn3WIeeffuXc7vfjxde+Z65NEJXUVW5/2SKHFTJ36p/9yE4vyV+dpIz9Qg9TpnL5GZhjTRJzmCmlx05f3wEOiZrkgFWw0H2rSiJUgoyhVffz9M9l7lLdP2W1oOiYvYSLH7c6Qaeau8GabaSqmUQu9CRAALFexSWoZbEJdsQS+itWDhSaaF0duFjkKlxV8cjbiG57BicMUgiQmjUgK70I7EpGG5UXJAh541whZmlj2w+Qq8MpXeSzFSMs12wpVB5z0/4NWF//bP/ncWaz7B0DHkazcx0tvTFg7hPNEzm253HuKIhzjiHjiPPHpreuT2o9Mt5mj79IIOXN1M1wl3UNwWDlELOIwAqniZGxZ/KoO0POKEQe8wH9xjSLq7sx+96GD1K7uWkId8MyS+nZVeK9dXZRzhoFVvltVVTpyCmKu09mDZCkL2PRqTrAC7JYSN+aoN5TzLy8Rwyg2f6KCx4ZGp8z3gcbRDGqRDHHbnGvXEfszGIc0WQA+YU3tCZ+OCefGFR/9oTGgYzug973IgwkMIzq/VoY2GhXR4Zr1HShVPSH0bScXEMryj7OoFxaxCjgKCZ+M3hyKD/rSJrt+qV2HSI6O5xmj7nPGHIZruJz/9Lg/KWMf7ilaJApXAFXZsdCbUaV6l5TQO/iM/C5yVVeXCECxttmRCs3QjLqMpsyRSBZJ5GjPu+U8wrQQouE4f2blcKuzA7TTUG8dsgpVe4s60UOo61CKPyqRV0WsSmvAKcpS6eVVOKcR4NSBEqlUZFQ1V8VA8Vcnzh+9P/+k//PvpvZ/+lCQMlVb+0Sefma7xwmDp1j4c74Vh2HaGsTmse4Se8IlHH4sj7tgTIueOsLjDLmIqsvuCDFgtQVWyiiXd3sSFgay4Mhd1fuW+ofNMj8kZXGl2+mDMunG/0SL4dgEXf/Avej57OPIAkIbDyCNfiMz7b07YotGwpJftCxo5Yew91WnKhXPaQ/rZ5nQNo2twSaNhEM/G4R6NlQL4xP/G5g3mmecMg99n++UYXfls5zY9LT0rMr33s59yYumF6fNf/DK8tCqCZUbZOpIqT+NkOqHrrHKAFg6ZR5UmPzSGvFmAITOONmwiugmxkBw0iyIcSoZkdbwodkZ3DnWvXgYWfJRP6AxdG800gZC1G5QuhyAF1rwGLvIrc06DDdyS9vI3a26FXq2RjAQA0VpWoVRiHV4uRGhWAC7CYojCXwoKPCohebFBEDQc4sPECg0L86+LIR1lMq0KXSl+J4QVedIntCJKrpbDq24mi1qzSrECTxrZlhN7xQB3pu99m7e1sbm/zarmfeZntx59hGNetzL0UhoN6z4vDz5hY11Xuck2gvPDA4Z7vnF7j8WcPeB0O3991o19RwMZftBDuTLq8TQXUUzbprctY0UI9Le16TnTan5cJgK9pAcPlRFMURLou/WAU9nT1aF6V17p5agvtxluMkR1TucZ2ryPB/7pPVOXaAO1aYCqL3VL+T1pk6N40N9iHpmVXeid4mg7LA5dY/V2H8c8Bm6PhuratX0eQn5zOqMnduvHOlB3rv6+/CK/DfKbv5N36rgolGF0KzylSEFk3nejZF5Gmhfjfix6PnwlTdkLLmBkG4zP8z3rLCnWnaMBCQBRaLm4I5cIWdpIMUHDgbUDGA06cGJ3CAnKY5q0gw1ORMe4lWGwKZRh323lsdoAN8UBBlaa4fp5b2SDShk3kVSWhBfSiaeHaThFKlHTWg0mYkjHnHYWYv0f7sE0aSGfdL8a5xLNAApMsVY4lSJOuIWG8SzKBI5q4drOGjKAem+v6RDLuaIvX9piWfOA+dMN9sr6IIIV70LGMb+DsUkN3sZRH+WYnEM/33+qAdojzr3hEGiDCopDosdt5ox9xlYjcMLeDw7XfM7VSRxMh/RKL5mRiJVrxSOr2vQZRivVVU5j9SpFG0NPsTGQteIDwxaJ5gj+KT1eyp4v+OrgDmHBsVdL/2uDwBaKzpwHjcHTuQ/p/dz436LR8bTOIc6XAw4gu1B1n0e/jh7QYyPzzUduRVYXi3wmM7WhI6gP6KmPVAT0SC2ZFJwgSIJ53IhrSHrwsTzyjFr+5PV9ymV+kldfQQQazVnYEYqGN9CRVBCLfkBCVycugtH9oJ26CGpJYf1KP6DACDZAQ6q/IvmcUeXoPK9FjYZWWaqeWjhySROl0JRYlvxFU8mM4iVUJZKGcOClcIkOfNPqvr9TKMmkeTaVm6DDI1H5jXRzB4FcwHHhRRqmF1dhSuNdaUEfVIZog2KV49SeX7PQsFlc0QG2tlk15ep7QzPfwbj9vYtTlv4t/y2c0NccHjiEG064xVDUOZirrLqFQ9Ma+isfTmhB8gUt8jy549zTns2nKLJ/CS17I8vgtkWPRET1EEN+QMhC4GjOHTfp+U7SE8ILB1IHDl3tEXU0eyR/bNXnJnFd8mq4qvO6cHAGrzyapQ7B8UdFTZeSdPPwMcxdJQaQEQR7kQi9R+9+g/mxqrZ3zIuW5U/5fOvddd7LalldXIoOiKfuEFDDtTpS9wps4dRqrsYJxsXJTaIj5gWk5FHno0KtQT/SSE9meQQddB0TxdBXTGRdYcjGTTiuYMxPXzn4yLpDeEeOSgk/76/gdxmWdqBGOStSTTINoun0jBqNKNxyTRRRJCb9Krh53GTvD5jkmrQWIhgFN9gULZJCy2+V5ZXC5rKI1mWpQmkakWi0UPIhYQAFtRGSXFSrwo1Lt/gsHDpWlWkPcMJyvT3JHiuQZxjkNsNFHcFle1W3gWG7ZO/K6LUbuzgj2wps5DFyY3Me5WGkbh+46YHF45AuWKjDai3VlOc1z3jnTJ26YU5Jj+oTFK6Y6sAUsAyJq71snDLSi0s2f5bIXtze+pxjhJuMhT3h7wqtc1hVocQ2KK5eOow9RY4s0MBfJ/NJDnnrmKfH9JjQrcWP0rTO64/vnNg74rT20HmlI7hn8DzCwTXQ6wxZPWT+LG8lt9s7ZOXVxaRDGi4PGLgVc4c3IuRMLrrNGX/kix1ZHnQDWsrWBmxNWQbLmzj3l8Koax1LXRRe1af1mPvgit01X/HcD3xTCsvUCi2Di0wlg/4w5xIxvbAqXQku4zZ0roNJ88kwmYJVXco/zcMKpUplToap5shCwZpRQZdgEuqQIWDghBTHyiTGbZRpxKyBs6ZZPetSsBEr/LifqEVPgpIJj4wD5FEpGR4Qd15rWpwQSOmV6Rac2FeLbpo4GqXG6KsS73PY+hhjvHmbA+D2jPROUvAJDXsZV1v32TvLiim9AwOzzA1reFrzN4detqfKkrdK59bNdeCZU+rgZEKf3gmHj3OpMD7iUhrimPswCo1ZFxPEVj96wCgsX6oPujFwnq7wh3OiC+BSB0pPQ3J4eD+POp2C51AS0YDlylMbbogkkOYqqYsRNBHTBhNph6gXlFvHsW+1JtSBv8vpsN4h+qOsNJ8/fTa9ydzxFJl3XXWG5941Fn3ucMQOOFds5+nDqEOFUA7V48cQufxapVbtK/AKzps5FMToPVapFS27Q1OUKzocTludizzRoxkjtMPJwjy5eq0FQJuhJSR7uU0sizmguV6g0LF1Yll7MUV+uWLfkano96qqOAxT2/gBTQtQBZahlV4tcsVFeFiogmlIxdRrGMu8EYiEsfcmFoPO5SqGwYJbYQEaV5O6MJWn1M5nipTfHWKqfTPjrxWfTFBMe8CrCj/44F3271ikuL6fJyYiCwaqUSqHzwru07Ps46R5nwyy7tA72Cr7iJVzOWV26Ol8sCbx4A4Y/DeGndVTdUxv5aqthxd8iZV26lzOIlvKfIY6TNNZ8csEe3J7Qc/3khUHF0LaFUTEafhI82I4ISCpy1rkgGKG5/SaGgaZm/SkyrPDKyfpCmPAJGXE0E/a21D5ex+OAtyrvMGJIx+fOuOInieILJo68aNuBVVGblVKxLM8BpMS916RCeq6b0sLlT4DjFvzxE8Y9AaJQUo6losgE/8H476aqbzdRjSPqrtylCAWl/k7MqZAYFhAgmnSKX4lWeWQZpkG74YNUr70L/ELGmekF9jwFL8JFtNiJDrASYN+9z4KqAw1wR1DhEBWoaVDbMAbk5nmBBJMpd3CKWOpX6hwNXfkD3ow65Wv9AokVz8xeEBEpcw0JTVoFS+ElxFzKmnnxIg9Isv/PiL20Z33p3d/+lYWJHSSUqXD0/E2NYz5Gvt2eyz3qxk/nkvVwbbTDIJDL6XDulHvXHMu42yA8CfRuZ/DTo1VPhmS4sAZwiKTvWF6VuQFo/QO7QTwLWO3uLo/HmWRqvkaBhId00OJ79zX5y11zMDpgOoTNJ3aVdQTtix8gA7+sQAAQABJREFUlX8WbyiU6crg+3Gcn1oEGw6P41lcGx8KnDIecBLoNqvKDlXTk+5L+yR6zRG8xdLDX5G7nlTIHFdY86AfQO6jAeSAYspijiHWJRwyDC01SvKbZjuKibFdcMoGi9k8wlO/lG0O0f0QSA7KgBK4cBXO+4YuOO/b6easGcQyLKHlKrorHQCSOaPAFqwLUujttWZqEOYL6dAjkpkUAb31YzDPaN8nQgUnPYxECuhsWBKqFtustRzAWveDWNO2QEWqmEaewVtaCVwi7iJIJUc+MqHh3OjVV17FmE6mRw9uT2dcHYLtssiyweb3LsNLz456uNr5kw7nI0Y+ZWGvlwYJ+RyGuhIq57SQdo8Mf63npIKzhTP7rhmz1KMNgXNEX0jlSqVD0QyJ4AdmymwjNpdN6soOAw9ue9jbeOVbPxXsxQoUnUK3T/6YHOfi6uzvwn0dGih/dQohps3scfK283NO2MAnZ2dxWnvhnUz8oE97psxZGLIRwUn9rZCDa9fzMmRHCP7m5KEv37LBoyxWlFUQObl26HJ5v0pONqWqa3Ap2wogeev7EQc0dZorUZONz3xIENe0tidbmqbXcJEZmDXTymvHAcMCXQ3WTdJLAi1UKA8QJJBnTjujaRmVkl1DYeeMOYWRLLPHpxjrg8VgEFR0onNPF4LimiZ2wUWmSiClHCeeQVoUNOAUd3aYIBUts0MrvKRZdPPqx+U2wMpnAWvPZ+D3pdCqDCv6GX7iKe/w8PBzP/ghrfsjwT/mF5t2OeKVbQ6MboPFGtcfPZHiMbI9PjpihqMlYXoeHSz2qgESt0wugNiJKIJH4PLGNmSwf/aI3AY00+vgGBpANCOicvKfyrRc/CWQLi0VaA+cxZrKSU8bPMaV9nA5McNwMz0ix9h6SKqusufJkNIGZPeMJ0qgdc4jV+Krxw0K4DlUH662nl1ZlbG8nXsqtAsNdKgxIl+85QF0553+RscWj4+999570/s/e396/MknkIdemoasypgSDKlXlxS78sqIS3Gm2EjHnpEtQnizIkPqEoCdA9Ey8koxJ7bSVxCjn1gksAOx7N2bptxX06pxXGBMq5C06HDcz0KCv5arEbg2HTlYu+jVYQB/M4JZMkW8yCExKQjjtUJalzDXkIqYOTNMlBcTC37MjcrMMn2RCHBYeE/TXUNf+JQIDcUVbOUxyGwgLStVVKGGZLdUwgKj3CXwujWShMGzqDkIzcFr8WzRM0xlLOZKqq/OcBHkGvMi3xGzy2RR5+oVT4fKaCmVGLnDCl3SY9hLxuEUFONxhdHhq3x8XCpbDJRHvVephOPD+FEnbh1iwnNjBSYMyxgcNqlH6Wnk0qhFHhuDVhBXdYpzunWjajROnz458Qo7x52enJGPovqjrHH+iFM6JQcpwcXZ6hUjAc2w9YAnQ9wi8XDBBW+Le8DQ3lHEEQtf9zmn+syzz3CkTqe2pOugXVinpFqvlt0QuJHOrfXmXyRIuSrK9y8M6sU/ycYC1XXKXvpaej9ZIoN8hgzlB4PnJS5QVL7IcSU/6SWvxbkUHJKUIJHBk1TZhjJt8OwrA6foYODLrKJerXQTanjKNbB+q7DiGgGTUnSavgpRZIMmJ73G6dRZzwCGDleNRrZiFU5uCqVSQZNypYunU5aSGparyHMYkpiGgM6L3N9zUcazqW5k+5NsHnzewFkcBuoYOyhOx9nxwDab57CJfJbMJkwHy4cMaVp2n9ZwiJbKhx0xnBgTh3cOa0OzW2w1GvnJU1odzPOoKYsJqcgqqT2awWGozp/imQTPeYivACMDcSKTEvgQsnKmN7VxQEZ7SxugGDx0rC85KYOrqvLxeJ2/XqW+rW5niuLmBBCOrBZsoYx5DtbHzXTw+/fvTT/jQeev/Mov05hoJ0NQYjo7UgbHqzkZ1UR07wjEw9Oy8G+8QukpeANUgI42VMBF9QO/Pq1lmcukC2OQL3ubkeVU+dXY2xxViI4CN4ALjEzv+6b8ojBIH0zyLqEkdmOjZAuWWdn0b2LiGebNeCRPYUa6BlWt1UJkxinUsgXjGr20AlDOGycb5TDfPEmXIYgEWuBJ77JVcsGNxOpBZVHEiofIo/BCj7gogdOTLA/3eYkvm4cOwQ6zEkivg7H65IFL0Tqno7M8iY/T5gSNdGCRJyzYd9MON6HRTmLF2etk/qfl0r2rR50xf/B25dQ/LD5lD0UMRKcTxXxi+YvnmziK5VVHsCGIMxOv4oOff/StgJYvUHbstWjltoY9rnmWz5bZx6JO3FekN3N/8fCIc7fgqx/3P7P1w+qp5bLM+TlzGJBNL4nu0IEN0C4jARuQ9LhuZxDf5bGs1378yvS13/4tHoTeT5uShnjUCUJEL6kXFs2YTFu8yOdF85/r1IQhlwDhb9JwLBNMa/iV6yDT0HMMzykvupPGsKPCHFQlMsKSL92qg2TZwhlm/Lr1u4bhiS2JxJqsdCpuYYrEPJ8Ezqqr39qAeNH3isIDrEEVXZXWjmhak22cglp9B89WVib1p6VIJ+2BNJpnrphYDDKIg1DLpOCkF7ORVwqak+YI2alwrhgRFIiUAjP0Ba6yvbJJzZGuPZ8ZZBElh52ZCKWVBivHvvi1X4NOQteIzMiPMedtBVY0H4+16SBRVhUYBNPgzSKODpmzOYBc8NaADBkZj2gf5xi1DqZx2oGc8nDzCfR825v0cp6V+2ygNxfw1Kg8LV10Q1l0MGsmRgove/fMH6Gvc2kMltm/cx2Ro2x5oxxldl53yuNTrooesrLq3qpy717bY+/VM7riuvrMPiR05WuD4HbGHlscHmI4hoZp2ZdlhOELoO/yhMcTN67H4Z1nK7k623BbhzsrAxTFjmwUlRDNhcflOres4uQ/dIRWj9Ly03W8diZhKqjHAoZt9FGcKteTSgZxwyeCmTIYJnP+MpLQvLS2qpcUIuURoEdB6v5qGG3EnEzPWMiIEUFyVTuEEqoETGFNKzVVnnFawp8XdOwYgEpH1BYsGhQV5SijMOveUb4tlvKlGMBEhhZKpg10SYBAz3ICRG6VxwbgvJ0U3e9xmuRz/B7hWz95C0OjdcfpUj6FItT+IfLphHJPulfmdswD62kIAe0V+ZCFrwYu+34M3TJktZw6MXCSsP+L4cqP1yn6l3OnGHrmYByT26Oh2OSsbIxXZ7IHdX8SAvWUvWUqw7GESqiI9mK++rF1nGN6yOo2Rnp9nCTzzPRmxJFNeh4Id0/SEzy+I/b46P704OQBc8qTHJrfYMFnixXm1KGNU4y19hs9p+rrOzQu36B+wSNZFtRTPcpmPVVVlYy5sRymo/eMFoinDMJHQ9bacNoi4XcaLXWARgScQ+wYGjXMr2TOPiWyQDo6aC5plsivXEhGrMUfvIcf6VHsFUq55Ut7aRzjHTqt76VhfsgtiZdiy/gAOvXLO4XgIkYIhn4xaQbIGGVHeuBK2CReIu5gJCqlwsUVLwJRwnK+ShOpaReB4pd0viyAH1Mvw5HQaQCkoCUcFV15wSLNPI3QilTDDtsOMSqPv5lrj1dvRsNIAHGe56kZOgWWTnAq8DftvW18yEstUfQLh3IaD06QAkKrVk/tOTAnPlqpRieM5Xf+YI/q41CHHGdLIM3VYnsUndY353iW1ZGErXbmsSmb0kJHu4p6NVnFIT1VgfAUIIs8Dk+RtZoxyh+HrlqxrpVzyyE3XDSEi/FKax5Jnk5wyKMHnOD56GOOt92frnEu19eAbDIE3cJxM1JCiFNo+gOwmdow7/Y9r3kbgOXJ8LPKGxlWdaJp6hiWBWGHjJbEUFcbLWWrfOiIb/GMmEVQB9EpaRl1VfL4FkE8r4aBVDfju9JmkFVe622V9IujsFHHc8cC6eZcwoNuwkPEQBXOGcmlRCWMCsS0bN5RkMrSFKuwJYdHr0ItRMnPBJ0k7lWhyilFM0pTMP4y6YeWmDUMlqcELoceSkkh7AFRAsMl6IfgSk8Y8QrLCAZKQsrItfJkrSOMXgYnETPvnWF4lh+V0cAg5rCUMR1XFl1AzsCXNHuH9BBcLaF05a2B53C4zqeMEFGV1QNwz7ZB8Lge+r5TexM9SCD07FP9bgP4lvILGgllyEEAqOtyyhk++XZOCwy9Zp4RRAh7xfRGzhVlT13a4+dQPPelEevaISX8eNRki9eK2JNebLNZj8zO8c4+3uTp/kPEpWdExgcP7k73WJQ54AjcPr9CdX2bh66hbX0pnw7o5whYX4Llo13HNDSf3Pt4euaCM6zWvLpKBSiFLYmNCsHyE7e5a+OvBUPrMhDJV5/5gEI0vbDo6ujTTmjOkq52W3fJyD1plKFDbD567bShMAGIXg5SfEhQ3Ng/EYX0f4Cm5kgbJQqyIB2MDmcsXDOq50BxeeJAwQRr5yCejTSu/MfVrlIkow0x8gwBI4wMCCZJtUPgG28kVlrDAY0oaRvW/OIFGkU5XUNLQh6WpcpTKcpQaczPWGzwNYd7nK6xBXbBZpN9RCf9Gr7Ol96DLY0NFxlodHSHHR0RGCvSN197EFz+9oC9ca9DmeaDvHZhWfTh3pXbjfR8owcMHWRDp74DtWhwgIB4zpBGJ8jEii7EMXzkx3EW/lRgeGHcNiAYdvo5e2NwM0Q1znwwLwpm3uu7AJzzbvAyKYSkWLzCg+HkxRkjBOI6hEN59xp9WdVdfqPRfdlT5pKbOw9giG18Mk03+Kk4PDm96y4HGtSlvTztULZInDveZXFM3ToMVbYKXfPoMBWK3pCjHKpNdVzT2Fk0G7mBbsm4sS4MFDvBtKuhU8wznpGJcegiVspfV9WrzpbQ9DQxg/exJRB6VBdbsk4KJN8NL8OSsXKDT1rZcCE0j0bPk/6AcL8UOEAYUa7QsoIKUTg/BNJHrO6TBmSRmvPTOpPmgMvhWYYYC0bolh6LWvMZd2FUaUQp+CWuUayKLuiS097KUGlj7IY81TNn6EdDo9KUbd+nJ4DdZ/jlUS5Vm8MF2XNbKZSCObStR54whhyJc4hqmeWlI7tq6bDXEywOB3m0yPfpsBnuNoFPgLja6PE3US5Y4BHXd+xsY8yuQvobjzkeR7ry2SDY/tlYCJunxXWwODJXDCvGoX3ZYPjkicVP+SyZPgMNiKif7GUBp5No0oiQ3njrlHfZWGbkf4y59PWbN3G4W9OdDz7g9Y8fsF1xNz2ebxE4p1d3Drnn+3j8Q07fgrfLkF0eeHMWck5ZKPL9QrZl4Sev1KECGpROOQxVa4mOFG1FFw5UsttGdZzCslSzfYw0aZjWFDu/U3pKUc5VsDP83JM1dl+p1WIJgvwLL5HVV3iteJfNFkAsdZS/ec+o0F7mjChVA+0ieo2RE8nQasYyo6CiwDHMMLve2mb1CKMpOu8sdcdF0ixYOAu2FKj4NE2RDX3vVcEKPvHkdSVgHLYA9R+jEzstJgWy50owLl8BIwJVQ9rjTz4+3XqE39RguHfCD9U4d9x0VEC5EgdYzgxsq+fCmjUSN8Dtlez9XLUUasdjdDikRm4joDGecKrnzL1Mh6LIWa+lKvwcJKc3vsn5zusM//LE/6BhneURJr1wlI1LbacQUQY/ptWHOJFqGCh/4qOoyBRZkUk39BUaBvlre8488gwjjphFHKD2aSCewikfefyp6bG7H03vvv0mP3pzn3Kw8sqi0yFDUB1rn+NwvgFvF1rX6dHluO15Zx2Uj6u7aDI9QvSIDiIvtuBVoa0ra8fyVGmsIEYv1gUNT+a9ALUB59plD07A+UrF5qZhvWlnZPwTHclDfgXPdww/0qCMIYFpkRA7JiuSESkstaa+Bw53huaZ1EFT+GBfgkUj0qrMmQ7O2ETXhGE2kGeG3rd8YbBiQlZUHAf0Zk2rgU1rXp1WND5FFriHh3V6x4uuxt8OmHZYolFIKUlF+XHIYz9ti+1y/K3bj/Cs4vXp7ocf0rrXO0qlWL1c3EpCiI5ROD/DeewPPQwQUuTZMzhv8/A5/R8NAi+MYs7l+2gEsjHTSX0OUN3YC97wbQEMkbfZLrhGD2Ovm+0dyh5HC0t7Y3QG/SqtBoyx0xDkFR56LLwcLlc+ohJst6wPDc6r1eFizQ4vkXJLI+kAtU7iMGVf9GgyZsmIRsxe2IMCN5krKsEH7787ffzxh7x+hP1JhtvKabldifWq/nwRFWjZ7nA+ecqLoWEYPdhl59e6lMfFHXCy4MHVIJjR0itxymdaAvH6I12PuRIKr+h01iUoAPybA9G6q8hs53B0GB/NkVUNRMk2yzfTKQpFc5aUWzitswLQCWu4WZpExqY/6J/GLsiWwLumF2ZV2VhF4AodITSQhwZbpYcJ2bwXIdcUxKmWVQtr9VbLXpUmtJ/CzxCEeLdSJrfR6axJx3Fd5lfhTtyzrwYJjdT5mA8Z+y4bDbjomSn94pXFCx0EOlkEcEpJvj2OT7kf3ff1+XXKRywfOt5lP9Nfj9rneJ37m77waT5xA0yRxiPkw6cWs2xgcHRlCWvN0Lkgc8jokgyvMjHfWy9eVRfXnm9p9MqknFIRxcUen+zXtu3dz5Dftd3MfemR1Lt8rdPrNBjb28/wM+LXeOTsg+lDhq469v27W9P1rVssOvEyLUzBl3c5JHdu60PHDtPlaKZvSkPcBHllLRCHtUzqvaSvfOVc0rreK28N1ymWOQqwMKE3cprhuG0B5OaAquwBjAEnndgBCoxIwpFoGQJCvvIaSr5EgRn+4C2AJc9CV6pLqPJcFS2Pp62JllBhHVwFzn6hPIYQdYmKw6JEI3dIL1yJL4nKTRGRpwSYKXVCeF2G9i6aSV4NdgaEJKMgqRdMGV0yorxGzeKJmhkK0glLlkpzs1xpMh90QQJED4NvYbyeL7XXk5YPHHvuMr0gcFUqSukQ1ZEw8GcYe1aQ8QKd3M103wlznZ73Br3LjZu81pE3yjnvdCVVZ3A+J30fxs1ikPE4iL2OvKn6VqEORVza1pNG4ZwyYVzqhm/L7D84mo+OeMKbxl24sryWu/YjEd55ILLmtSASgLYb8/LPb0XA0yc3tljlzRMq/uwcef7YzjkLPb5tQN14aPzINw/AQ+Y+uC2fdLppZ5TX8nC1HPJS/86LHVcTyv4qrhpUQd1ZjtQ2V22vXML8Du0AjTEQAQc3hKTkR+tUOWIWgZ42pQWLl45sBeUjVMBF6SCcqYKYJiwhcMTrLknz18NSIwsQ6RmHrdISFHoppPAF9Fm2dlgh7KssnPGakancy7i2jNTmSqCoHr0ISxM64IuL3xahaPRFueSfdjxCilc9cVo00aATh5OCMEIHz3t7FviaTKJR41kEkQlpupVv7r7AgByGbmIcDg03MU6N0UrQKX1tocNNsnI1vXqb0g9o6W1d1rdR8ukH51OP8M6cfZ5ksDd0c9z2qhoAexG40z3YK5EYw/Rig3HKcPEcZsJeMLzsH5JJWXAAHdpztJbBkLKji2o8KCv6z69IgaBWdWDfACdt456+OaEVcQ5oQ2DI2wB0FuL+ZsgmslFi+OAEJPqkv/iec3Xo6lMaJ/z8XDkTfBjCW+YH9Ig59wqlyAhMHTGUCDTQUdNVhzDLSnFGA+FejaBl0v1o4riWXACnRLEsBV2FtkFhtAtDZF/BVBo2Il8rQ/VFhwM+/CtZGu2kgjV91xIqiGMO90SLgikt6wDLJRKvEz4VzwKOcjehT0GQMMpVWQBW9bZSYCyyNFaAMcgI+jCKD0urFmqo4RJAFAGDGBwe1XuVGlU54ALu/fwxWeRcikriVoTl4OrJFI9zHVExOl0Uy7eqswGySA4p45igVYOFgWid/Nsje8g879BhiKYz5C1v+5sszNyannz6KVYZeUO46c71hswaWW/UZxtF8fRo04FxqOdqz8YJ7+rhOUt7nT22JiAESPda1AQCdnkRJ8HG0l46bxPwSsYJ89dTnkTxZcP1M+HwgF/m0OQ7NE357UEMGfsqEs6HHlwYMsnGyz1Zn2a5xRDUH9qJa1E2LcLnQf35gM1DtkFwspzHtXfX4OFTi2LQszcsRvnWvrdIC1B0M8pmbicHsiHqOpIeelnbYxHRVktLzuGVByXxVWkzEdWcGxnXyOkSSIOzcFVh6GwGascT/x8ODZ19Rm8Ucsh5CTvCh3lJ0I2IvY5zHudVhi5kI1cLjbAr3IfBNXwL5L08rNgOxcF00+qTRQdkaLmTRW4aWm4atq5NqWhIOzz4OnOYxfwl5SFdtcYOBUAhtfdXBq9Rpq+srBi3Bp6qo2LcD/TlVn502gOeExTeZwM914lL0CtRGmmrGGAcpRr114TPWYU8pre5QCZ/YCb+jiHby/DkM2db2RZx4QiDPwM3m/70MiGVhqTLZ13WCME22sUWz5we4yD+/mPoiUegSIG1vmrVvOwg7RUC9HA2c2NkDVbqnpd08VMEp9cdZoqLjsi1kzc9ZgoR541byGuZy+7VpXRH/4HeVEccnmucdsiGaKnt1LGFVN58U89co7ogm1f5jSNY133Z5gJjHuIGpd49a0qFgkU28qUvee3F/+CQ1teCQCIrKunjmrt/+tdYTS0Gl4QPXRVcodgYVzBdZ8kbIPOlCsRtt7IjJ0qdS1KUm+cMa6Wp2MAVTCp2pq4jkS6IX4QMdeb8RdIkCWtIsq2tFeqNfDBYWkh/mXiTY2HZDHelFYvyV5rsKdIbMBy097RXaOrKEIO1QaI+HDzbsufBX3Ddt7zBz7T1AWktEZ8EVsOt4qke6asXy7y55Y+k+huNGDgwynVhb8aQ05nXGVspZzsMn9NrskCE/Jv0mJ4ntdHQAV10sbD5lg8ynXCs7YhD2/d596uLVVkpBtZhKV0V8tSxOcvTZ2nzCkhlRhe+LcDe2r3FTRZiPC/gqMQ5zjWG+P40nI3jhgckkMlXPHKuB9rWlTQcwxftSqveRhm1JXtdZzXpGK0V4pbBtFiZHggtqZslXpJUkqETubUMhuSQH1sUjnT74miG29DSiQRMfluZCcotlcqq2Oq78VZJYhm0qp8fwgx2BTPbfkqTtQoLqKQCaKxayCBnmqVW9BS8iJmiklOwZEMD2IIx4WFhTWOdX4J1SknBXeh16s+/Zph1KVtFXqbZ2ZeKhcPoxK5wPvn0M9NPXnm5DJGn+S7YR3OYrbHt89sXe3zq1RgYcNTT5dUJ1A6K1GHptey57LH8IdGoDKPF5S1O9ss2HY8RnHflERqEUsUa5KlGDz1/f9Fedpsl3Qc40BEHttX3yRG/dYGr7vObGBf8DqKI1zZ9jym03J90lGJD6SUq0BH4zUlOwnzMcDKPVDHX9C13bu47dxYs7zllqJ3fFIFv1SP3OhnzSiX2WFwaFhZ2PBShzJ7dzQ8juQDEvYzFFU9Ye0t7W7mAJUB5i/NkGoD0gqRVL6TzaVFIBL56NViOwlRS8EeQj3epfxvNzhJYKiCmHMLx0X+GUozwZ0LRSCMWha14ND2gPhU0gjkAKP1xL+VfHPAb8JVJ+6t6KgxX8EtIMqsQfM+8FFllKj5KCQwRgsv1GlMKbQIAwmQ4k9hIJB4H53rZSdalLTpiVLBIxTuKXElstMVoR1zoRsrkz2kN3KRDt5RXLxW21AS+7BViA/aSKEqH9Gfd3GsL0fQ+RC2rcyloa4Qanqux/hSc78mxN8K0Mtw8P+1y0jtgNDqAPZPDo8wV0a+9jPt6mn1BO/y3wtjPpMC+leDkmFwXW4j7W5A+iqUu3GbxTQQIWfUDgXL3KpcnZz5872cMF3kvjY878aC05bSv9XzuMfPRmnsDTzk3Nzn2xtW0rAYDK6X8diQMt/wBSPTS+nV+TCJOoUNSanTCyBo96n7woVwXvDe2vKuMP5IBr/wq0/l39mJTejVACcwjiMHUk/KhM2i3NtNIBD8QgWx4r6kviChnLRoK19iB4As+loVrplXe5yPcEKBB56vw/7Sg3EVfPHlIATvQ0WBl+6y9z88zmk31+0UQgbgy5YIiTF4FFRkmAShsgY3pwBW8Uxl1J/w/JghFVaXVczO5QxkAxAa9SvdGeTt4vwA0zxnXPGliDPZOzmds9T2ClgbGVp0ehuw0NoLa4SiFlakDpvoA8FC4RdVZXWBxWMs/TobjcbTOpf1TnEiHka2PK6lJnTGLNK5ucq8hZ1XTISHzRVtDj8jt7vMsIT3sHj9L54KOK6BW2hlnTTf4aXP3Gw+P6I2BdTP9nPKcg2tv5c+7OTf0NySdJ6ojGwBxTimDPwPuaqjvQVW46MmFIRer0MEZvZ3zPRulWkFliIx8W1Rm3hwHDWW3rusN6NZYDfFtRMS5gDdC4+T05PkTBrwYhHUg39KracogVdN1oHpwW0xhgbMSjI+QmHidJqrQBRioii84JnY+4KEb+1nhmPyPDwo2oJHFoOMVD+/nTOJtp6brI5WnTVkKm1NgBlLyBajiSTArflakBmUgey4MeIlnDGCGJA0lVDNXRss6ZA2EwhR9YQd/sIWRlfMhg0MZ06zGVFgJMN8HaMAaT0WL8CnlyoOP9Aop91usAvo6DMwIY6UHxDFypAx5q20vwVVYOWKp0Z6rH3fKAgZCb2LIrZvuWex9dBB7Iw+CepjaPB0jb25D/zqezaOvhzxh7zFzYIZxu9d4JIk8DxPkAAJlBzOV7X7mXZ6k2GWRiJFjhri4MDR9XQYLJ6yaOiw9wtnc4nBY6q9rHVP+errfxsKypgnmiBsv34rTTDyhwaNTo4G68HD5IW8u51ifLfkOcvqDrTZi0aMOPmioVofZwuVEEVrVvux5aC2SmZ+FVxfwqy0e+AMTgyTNevOStVntivs4N4nq0oatF3vkFxvSDm1AlSgkwJuD+Kt7o8DEjHIRQWAT/zHh03BNXTuohmbQifzG5SEUHwuX8deg4zArgU4gQmn9QTBVpAJIQZMyCCXbeAfh/HTaOt5UzCY//wV3SeBQUJHmFV90ax0mCKuBhfJQqr3IOqR8AzfplofES3wg0A3LIi+VjlH5xIHvDj3lJ7rd67Ep0i/t8ezFlN9FjmoYIglzRIwIXPOdK2ZVWUGiXCgQzfAvMuNo/NpoejeGl/aEOm62ABziQSutKcPbPJjLvc8JnjDXO2T46R5jymjPh0Eqgb2QvwLlKZjT02vc4dzwOoW2zqiODnkx1D0WbuIMCGRRckLIg+v0wKfMJzUgjfy9996fPuH3FU8YAiunvd31m/yiFfRucm72Ni+cOsGxj3icah85963PMTSuKQuGiNP11CG9NeWwGc1IwFydBjkgmQrONIcGwfq2urvB1+7cmskmODk5DKG+AVIPxWMYSHRR+ESvhAVmzlB5Bnk+JLsy198NJGLF1b1xrCKA2pky92fBFr4Zmnr1foE0xmGTKmQz0gkcw9saidpdqDcyc6XLaxl6IAIbsi5Tz8ypfCcPCaZKoO5VgiI6Ryo63jWsCFarQDWEM8UgbP5imSXHyKmLMIkB1TApxcgw06ZbsRWCjTzPT+7hjN4664nBYKA6gAsxUTB46kMf1yFri0MnVEc47qCXHk/SOgRp9p4IwgFr1kfpEZ0vnqFAz2X6W4xHOIOrnArtS5wkc8CmubpSG3YmvgrDOeE+b2Lz9SAn7t2xPbLJkqZy3L93l+FsvV7S13a4COIqpL++7BC0nlJxXuqclHrj6hDVn3c7Rw5/+s5zua+9/Q6Pbrkls8NziBxzO/x4+upTzzIP3ph++NwPp6efemr6wuc/EyfZonfcpDw+TrbFlkwaKsrlYQ5/n+QY73Jv9gg455quTLtggzopFDJYUOsH+f2zrvpQQLLIpir4V1fAEQQ3uDMkjJ9YDBlmZbXX1GGbOra0E0ROfdet31dul4zEUqvEBtNLuQ9LWwOY3xJ69Z5PWqAhj+ARgPsuGEnZ9K/iSKKdDGThJGPhKLZ/oSkhgnkL6ct3yb+U1JAmVohjzYJ0fufWfcvVqV5tqdec13mzVLbAc8bgaVc1F2qkcdG53Kg+4JSMr1F0HmgDZWteq5QYPkaTvUJ6sS2e2pCUwzCdzTdsWwzlcg/xlPfceILHVUz6n+nBJx/jMPyuo6urnFA5omc8xNDvvPra9JM33yaPzXHoX795Y/qN3/odePKqQ14O5WNKB/S4yuaziAwOQ2N7h9UM5260KTDkBAy9FYsz8ne4rbHGIcnTIG1U7hG3LT9n8ec+r8W4x4cB3/TZr3xxeuyZZ6af/e3fTsc4+ld+/Td5KfFNfkr9jemNN1+fTq/dmn7/D/7F9OjTn52+9Zd/jhMfTV/+ypdxHBpLf+eAf/tDRxAZftrrwWcbh1f/vaqqPtzL3UB35scbaah1tgzfVWDqJymj7oSNYskLNTEJDnmLdwQgRafs6i1kLVkcUYlVNPVUacn6uV8Frp0ZBnLdXLkbiQ2VwgEfFG+SMHKVsmkSTSA/sFWmOGMpsrJVQRp0EGvYoGGDgcKiM41PUEufng8MaUrUJNKjitZAkc1391behMYqbx2VnmGBj8RJs/Uth8wtdJRYjqOgjVzZfKf9lBgwhNF7K14aBCJ5aoJewv4oq17AOp+ik4hjOrTCX4KrgzpE1WGzcIOD2Vi5UHLuviANgWbmA7qnR6c42z2GnDWnO2budZdh3ttvvTO98tobPDV/Y/rVr/6Gms6vJ5/sXp9+9w/+iC2Mw+mdV1+ePnz9dbY1juCHwZ+zEpofVdULEQU5ztiCccjmPNN+4NTekKsfn21UT/bIurLO6ILOfTb+HzD/O3jsiWmT3vacBuaDB7xDFr0+/+rr088Yrjpsf/LZz00f3aeHxJF/+Wu/gYefTt//+t9Mb7z2+vTEU09OG4946KAaJBsrR1P2TqRgFlzRwyk/uf7eGz+eHmPraIehrj8BkLOuGZ2U3TgSyRsV0l1asGFnw35mv7PQBt5SkOOU8EnQVqibjNZmm5MG9c192VBqPuAzSGE/9HuQHIS5rIw1vhAsYtRBhQVjJNSFskS4ErDiyFUthyDabAwr/hNnzDBLPIcEUUraGgoirJXK1ehcOElgsGRkpZA8QYa5C5qwOFOnjKv8o2X4DNpXIASYk5zrLaHSF9rc1z8gKGiAXqoE5HSeFkUKi6FSrJRNXdzgjeLu7Tk30ck0Ghsie79sd0A0hkdaNvVJVxemFU9gqZhjeOgAztlcAHH10TmaQ0IXh36KoRs/2eQJBw6N33zmM9PuY0/RzXK8jL3M1z/4aPq9vWvT4088DT2aBhzg3ocfTJ9wIFsVuNJpXbjgoa59HQitBs9MsmKpUesUpBON/B449+ibdWS1qxPPyF7A/4DD6/cc4nLGdI8f/DlkrnhxTM8KPqJPH3x0Z/ryL315usbb4U7ppV0ous052w2c+z6/MuWWj09wZCgO7fBW+fSaxmmjpg1e8/8G7099643Xpy/h0I88+RTiokMMTv0ZLIf1672rzxlcmoWsSQ+MkATSC8sbCjkSmpapGoAwl9Iq2dx/MBS2YIOTbLyTrh/u89aESh7fA4i7mHXjRr5F4tAswyu8OGvjYk8RPEhSQgFcsprHVUOs1XsUNhqiosI3RLPKFYKdaiuncut+9FWduVwDoNox/JjJktWxplFO1QJ3bl0Xh1wXeA0DHtoRriggny0qMlvRSoD1TI8+yk+Cs0J45/3384yh+4Xun4UquJEUA8uZU9I1QJ9eiH6iQNIYqqlsFz/gCNuN6S694j32+Rw23r1zb7pPF/mlX/u16c233p42WCw5wnH/9nvfzfDzM5/9bJzsLr3JE4/dnj7E4P3lYJ/4OOeg9R4/Secc0MZAo0gDRaFSAudp9MI5PO4+p6kqEK+suW45rXjKfHCNoS9O9Qlzxfv0ko/gcJ95+unpnXf5NS5XXOmZD27fnL721f9qOue5zA9xqDsffciDxk/QQ7NodHg3w/Ycx6MvlJV7qxpTVqXlQ5pH+h75/1l7z2/NjutO79wcOqMbBNEAARIgIOYcREmUKM1o5FlLGq+ZNfOv2V/s5W8eLWtsBdpWoGRJzKRAgpBISgBBEERsoBudb05+nt+uet9zQ4OQNNV933NO1a5du6r2rr0rY35v0WC89tKLw+nzF3KglfVhswFI8Rxaeer0BRE4CGRAigdVFoXRgAypnJdH8AW+vo/9VoRj3m/vMeXe0sSSmqaDxqbq2u+4nrbhClv/PpaAhIyJMX7DwVs0o5WnENmiKnN9aD9yRty6fowXYHr6hVREU6L5GIX7ddT1hCtT2Q94FIRvoTqkwWOzNN+EmiVhxlkz7JhLATaxh/kzD5dCIzaZdTDEebwMjqBFdpkvPOV+Q4Qv+MlzMXTTlFRETgZHM4S5UzEMQNBXnCfu+i3OfYFhnYtzEGWL/tntdXuPXBJz7iLajd3zl+4f9l74eaZGVtzNwV7Bu3dvDY8/8DirY+aGF3/60+H1V15mVGeNGuIWLLRS+l3pi5F3NbsZh0OzDYo6gDo88Kc6siomTOG7WtERXMsMASA8mpV+qDcu77FUzvnWDzz22PAA27tucxqc84sf+vAHhznM19feeGPY4KS4JfuvCNYudz4uLJyhDMALTkdll0xDzQxNmukuuZsjIax8pZPlcjwQTMN7jU2aRzNi10GVknqtchUS9FYRdBMG3jTcZNO3WlIWhADIlwDzqWUzdtFmY497vCcNwjpd/VtwshdXSkp+sKyTbJ6TH8mckFQvE4GdAE1fpC1Ex4vGvoJMmupUY/A20YIBbpGD20IYZ1Z2feduksFGhOV3ktP7cCaOAx72mX7JDGRChWjd8BfCU7GmlcK28nwHNlMFfK8okIkDUzmlQbjziHYcMw9GjeR8GyJqhpUJ21a9kBEZ0z2PNmRlHnrRqnN5LCiA2U+dOpuNxTfeuDZcevjy8JnPfHZ45gfPZH5sEzjvpXj84YeHG6+9Ntxl6dq8UuPwo7RSL94orHmU0VzNU3tnMgUaycOerD9dzGzqyHrURThYgKAU7u8bp/Iujb5DLbAIDsJ2jtuIt+lLbiFwO9w+/Cba20ZgjsYlezwdTGL53RxbuohaZUcD0c17TdR+yLFaepW+592768MtNPDKEuY4ZSdV/WQC68D8xLfITb1YWREi/EItIL0+A9BgidhcAxBafMmXj2OAPUJ7/qJwwAAJheKkrDMd885jH0nv7T8ztSFIJNo8+Y9nDctPMzTNmKRVy1BkwjTN5W2Uv84gMnO0bAqeWKJopWprYwFqPsVXYRrhiOeRn5ODiSdemMxHGZnoAr67C6MS6hycAzWamg5euXLmNK1+pjJE0/5sjd0epZRmMAtcMplCIH41pK2mgz2Kx9bMdo7wuHObaQzXawLvYcQrbMqdmWcNKXGzZ5Kw973nERaSrww3b1xjmmN5eODBB4Y9zpXRrHUFkKXhWtEa3OAdmiVMAbKAZArfvBnZ0VXP4jEvxrONtR5tXJyrI9UIZRhV+9FGl0eW1AFTUxPAMGe5Sp684tyGyAUHnu3KKA95FQdC7UAXDZSaccEtXYTb15s5sFyq21G0spYV03r3JosFaAgWKTO1tgsEcgYP6auRM2AGzRMHYX3g0FoEjPT8fRtnsGqX/+aRR767LJrX/t6xVAkHsnvlWT4i9I+GKOqcd3HoawHHKZjylr4Tzwri18GsCmteLampHOnfUpNAHMJYLWWshBZYLSaADUEgT/wpJNMgv+8RiXTsr1lY+etgPhsN4pGOo1j1f+euEExx9ISkzDAEBI2zgXl2FxPSZuUMk9sXLpyvBgEQl4JlkzEDOplwBibUIxxzCLArWWQql+o5cGNLDwehXehrwsAKisdPLJzmzkcEGnTkiQoj765ymfEofQZm7qcBuJ9BEKLS13TpGefIoE2wKkmPhgBaxJXVNwx8mBNHclFkiaPZWQyhZlb4MQm3FFhGLREWTWWF2cOZ95joT38O5lJYEA3wCAtTIcz2gxSOBYR1lXnN0kw2ZsRVKwPrErvOfzawtcyPtAmLho25WY2QjYFWlORGcBkJ9toCQKGZn15BvAdOwPCH2g0YvvPscIR2p1fkkyzk3QDj+KRO3pl7Ozg4hfS1gMp15NLYnX78leB0z+nT/CQcL9EAem9XgRnAEZ+FXwUoIUVEfx5GIkHHMQsru4hDF8ZveEoAYfJ8AyOdAlnauBRse7chsE0p/ZbgCT3iubdrOVbDUuMKUVy376WN1n4JhvvZT54dfvjM08CokVkJIxOi2jw6IsdoENdNuFkXK4eDWi3jtzn0PccpElcLwpT9caeGmm/e25goDQ8ldsd9NvVCkxrI1SrISfBgD+a8VJl6AcG0bxxmV8hIS62RXR4KCxgVfJ0T4QwVgQ96KBKnFZzcdxoj2t0pEAUEfwU8Gglc9mGhDgEhF8TbMzJ/pjmjBiRvjgK7LYtEgKsaVT/lgKpW/CQbFqh+HnhAMEda6SKE0ohVGjWZVUGXLo/e99AuN1kr+NZzCGmPmuA3pylRQ3ktvApGLCzLX7InIFBHHrJjJQLdhNsSbnBT2EJZ+EUwQQIf+E4+KWtd8X4P16/e9e87/dN3DPIORx0ldv2kfKgrXcnFFK5BtHyUvze4T1wSMjHCjvO9SI8iG38TT0wUvi9HQxSuewvTFPcEJpnspFWGTvoap5NwCKca+KfzDcYAlwupFaarV14Zfvi977IujJFKRlD3mDD3ktQ1NJMFaUx4MMwDyyAA/hIfpvZPNrOHlsriM4sDeEq3JuwZzhtVE3j3o62ObcHyotKnhkNY2TXhFdvRRDH5ZB7xMRdIZaBXouGy657wWklTazKlrv9JU2TJJ/+8TdhKUyi9sVhBViBTkdCtVRIBZSGry/BEtcecnaat/V015yz+OVmdsqpy7SxkmSpE0Gc5iJZGSg1rA6IZus/+H1OxzKWrDwK69nUhx45wNYCNCWFqnYIjjg0DXzrxWvbVtWiaKZ6VJsUEbgDyIoV6JGr9+N6RjbyPvwqUWmxBRAzfQru4jznp7U56C0bSdPrIYybew8qfVMQb15/tk8fRtKi1AjJAhiphOB5xmuup+BayYuGeYKn2jmeUMK+1NCtUJPMVv2AnGWsFPabgKNGptSnq6ZuVLJOYD5MxhBefMpwt/F36aHMI4ioaaoWad+J970ytZLl2/Q32/nFYr1KRwlWA6CvBXRlJa345SgJN4lSH/S5hTU/YRW6ugrUzepjtU8TVpLWSbH0jJNBiX07G01+GrkXTwgpHmuDIKQL0Bd1qZSaSPAI2jz2Ta9iQ9OzWYLgyAoEQqXn2EJhieGginukqRKa9xy6SRRoH3208MGgzF6rc7mK2z5CeFwJFC6nJRRDtRt8TutScTt+AEFzsBgGPGsAS2GNgKQ0fuGx8s2WLPrPHVnpXR8YhoA/q6YtCs7JpwZk3HjrrLhq5eZTWpSEx8+KNLFagv8bv5mR85YEKrvIK1kQ1epzBQAUsOAixEbTBsg6PuyNCamTcBJ8ikZYR2ifCV+EhuwMmFqCNvvbJtwD27fMwUxWjMg3SozF6zNHTKAVW2P2tzHWgUaoJUPAKpn4b06TCCQg+qlXi+N9dKvsQPaPAAIncEtG/GgvfZBAzauiMgzbgmGH/3iZzZuv0GS9wZuoMC6AdsndC/b7T54cDVsk4Imjh9oEey8L7KRyskLtdz7LnKhOZXEHzT7PQ9AiPSQaTppBJPMwCTJ42Fvg5HgPCYjxipmUVNwH77tzgL4sPxEv6CoJXs3kFW/qpMHMdOsXODM4xZTFO5RPke8SdmUeIFZSG28GmRQrffZFb7MpwK9UZ8r/E0fwz3Dg1j4m7jym5vb3OPSC7OVhqkZMHXNZn+aVoGx32+RRuGxTzMuOKGl7Mv2wtrPVs/9q7OzwQeZWFFTkRQFQ0PtZPmkderP57uWnaBdG/Sbp5iKk+Jrw1CWwwo0eTo6QfGQLWhi1ENzz1Lt7ueqz6HockZUxRy0E66snrGKii5bdI68R3oPqmPHmJXwcIzniNfEbofDWkEI2FtsP3Z6vGxLWqegtmoZUrRhNHH/VMo2B4R8LrFL48+zyPlTpxmi8CBvckAYKteAoJWIfvXdx8CgZZgAlRI8MtNt6u0MKfYgDnFIcKbzLnd4f1pPYlFSrpSGstA6F5PNkMTg69YSqEap8pB0Qvra19Dk1G17kOB2oOSaqGwH5m5zy1ghoOSUtcBcw5O69iyx5I6HSkdI7DrJy/zKoVKn1lsc7VcZ3oDufi6NSGtRyNUqYM7D9lEIrOVW6IMhkWls9TRgf7bq1ivyNacP/M3nCOKRcFUm3nzpUd1pxuumSOa8CFmWdFUDS1jUTKG5zQ2keVw3zykI0eT81ey9t8uX9zH/N7mTJdXD4VM1wB7H2/FNi4qshLyjq56j/gtHEGJdkimWJ4o/FphEmZWtJTl9DpZ3uTD3VCUgypDhuRNIbmY4JjimvM48Y97MyvsEfSO/J5NM7h7/qKZqR0RqhSlPmOyQGcJp5OorqW6po0AYbxJ1TPQjLQPzoQUMIlz/o1vEYSvgtkgCZxKmz0SbQmhMZvTVFeAaoUzAP48FQ3BD8PJ8hPnTnL9MNpRjQxyRQctxIxkLJ1+86w6D49cHj8QehE8Nx1oG20JGPxJyNrbqkZcvgxApNd+mpTYiVLaD8ruDvnpxS+zFOBw/ieDhBth/YQ1h35W65jTd/WaRdMaNaOOkIbTOIgLc3lXQTKda+7aHnDPAZfM9O07VN5BEhGe0lDjW+L4CS8p50rEa7oSZrsGPGE9NNYBy5kdypjfYOGBFo32H7lCQP74PLs186nlqkaX11hY6I5bG0odKGTgrNKYiYTYH7OMVrtKPEWZSbyPUeUrMMCtNgOuWmf0TKz325qpGG5Ui7V7LVoEDaOXg0nfokjZcI1GAFDpCVS73qZt96DHGPrpr6gYwcnEGecKrH4LploCYwiTEGFqfRGwZPXEkYonCYMYlrBcWL93cTSCU/2K6MdUyeh57cIK4K7Xydf2Mk7BaxLhz9v/vQYE48jLz21/hRePLRReBW9CqR/zeHvRLdrUFfQgPZZljD7djgK0cEIR1ldbuZhSqtsY3KynhgIHOepspYkK13YLpS5PFfYwEieQ2qdm6Y4Uuj82Ii59cgRj+xd1MQEbgYNCjcSrnbwW6Iwmxns2WGivdInNTSho7IKh9rZvraCKIOpvTYxM/dZj5qzaRE2R203GIBBIpJfp0+WWbWzwDzm5PRxQrY8PhE6ZWqPbtxG+21AmPd8OLc4g9C52gp5ZMKetbYIovV4wMhyGhBo8WIdaSkTuMrarJohG+rsPSVb+zQeHuNhKXqdAREoQ8xn4fhnGSnU1rvFUBXVXlKg+Ol4VzEa7jNBdhnoYekdoeJ52E1q/ZB3+BdE+UfeJnFD/yHQf/HHWFZOQkJ27+kmwigzFyKgbRpxZZZQALyLxPCuGctUNGTsWmnFa5Qq8fzqPiWo4qegCZM5HBTR+R04nroOO343JK2kMKmpSrfmBEetD+HSK0KvaZMz3Ai8wsltLq5eQSvswfSuxfQGpT2/t6EJvrYFljFpmeAjBE8GRnDUVGqn9CclhKQlYVKx5EkGi/BlPak7GSQACBnRPqD5RTNso03tF7qXz/Z+CSHSlFYwFlgI4DRIpldmEBLwqqU37q7lz0l5BTUVGG0HreB2ekaz0PiLHJnoAc1edZfDqBAIrXkbVK8030Ibb8+sD9tn1rK/0gZgefW0aOiHbtQyN+hTAOQFhd80HeSI1UQ+cxN0y55XBag1zKMaUT7a2fN2K0xwYLQsUgytXjLSyDve4TE5QM7LIAqeJGvJ4aZvgE95JGH9x7qWn/hOpOInQxV+nZwVdhC3wdJD5Zm/zNcSOexkDMoqcYIwr6Ofoqo86j04TCE04Ec8U+1WZcEWHR2RKegjBp/UZRHEe3wsrAr20QgKjop2Im1GaY7i4E3Ygu/+PoPmxJAx1NH3yuxR3+PflaYtbxqVJMYP31Z2phlYTTPv9AKtOzIHg9ZV4q4ISZ+Sye6YUM5K4Gd9eG3bPn0vmdF+lcJihVrIjiyWxjPXCKCNmOlJHAyv0JWJVRWuWWvxqKEDIq0wrialdDvlkWkPhGLB6+HA51Vr3uvogI5HN+5wE9QuAzam4y1XGT1FSNIgkKcs0/O+xFMrmOP098DppmE5LvxF4+LqIAXeC1v3EfA7b11Lumfuu4AyZyE5mkxT3YZqhzQc1XVgyesI9nKCOGUAbZazQllMLUkyu5pPU1gTtfKpf4QZ3KkKcMfJuHkpxvW1Bx16x1O48J7vfFQ8oSqO5Z96L6938NvTPoxrHNF61k2pq+97/Uq7f6H1RKCjVB9Om7K3LRq1IhSQrjLuezFKPCc/ZKThbeAJ0ZbvBdJbowQAJCZTMVqlAGYqp1ozCjK2TqAJn2bHdCatS0vUk7LLrCZQ7YWgmG5VCKKgd/4ZVy1U3+6zo5GOptDkUwhzH4TNpAOlMOkSJp876+8w2uoSvQPuse/4fFEj1wQ3uMRLjak5a6QUwVLy+W8mDzCFZpyhhgDj1fSFDIxmRZDdD6fJOovWdkTPvplHNDrQ4wBJBpAsMzUNArnBIvRtNiNHYVNeaRTMPi9phEyb920GXs6x6Ht1lWMzEBpxqq1XTlMP4NrnZijvjPRUAVukPQdsuBT1LLs35tGinm/jQJcnmddgDY0A8GbLPNiIZT0qNFpX0bSNESx3iEkdC28duz9Sv5RJfuSfxuKpG/lDTPyzAWzvRE9Z+u2LdebbRAMajhN157uMYDf4Ck3M/hoarI/0KSXQurf59H3k0sjgWWkbYMq6I4DlOfntdEygJW7kwovxMrfmWcyVv2jGkxKosj2MaISTKC2sVcKhsPZhcjqZxrf0kXy2Px7vyAnfM1cRonvq1YAWmPRMjBTUdP5Lai1coZbhvXV3hy1KMxsIKku80l6DUhPUfpN9xjssV9t3BLLlU40j0xEDBhZhUWVdeoyGgyZSpYmV0JCI8AJrxcJH4G8MR9T9WSfMmyYzXQDC+MRXOy4sYl7SDmyzcyP9OzTi9StvJt0ZhMtEZjAZD0h7zkaGVkZT3wEbBbPmyxBy6SF9+3Kzjswu0Ade3Eq/dG+bMPp2HoS1dotzVdlGtbDAsR8k7HEauqxuoW+8N7sLXVgO9JezuJ70FWxbhiyIME9kyOKSIW1kUvo2soJJE2nxlvIJ8v4DyCEn2EkuNqTA0wgKZoRJ+Hj3cCugI+rw9e1v9zHaUZeBeTxjwvqMwI6hxrjH/r/4vag7mnp9h9dqV7hmTDgojCzakvKjESvBVMTbpF1y3zKfApsUWWJZUTqfvcjicdKPAFa0Lb+vqVS98CMsvoERX5rt8iScscXENSFhXVd66YEHhztvXBlmYcLdaECYB0bNcjYEwYOpnEN0nkyT1uVbcWoVpxEYRcyBVCRs2mo5RDUaRZNTp6lmtu0vyqDlfJFQ0kNonM5YmGcROWlpkjp9oTa0UeARyJwYx8iv0wxZjECcDBYpMNDl6hYFRJNVAVCjLtJfNHLmLOms2SjlJAK1GnA5DpIyjODal4YsBcyNyMuYtmk5iH8Qoa8yHhYpWcxsb1727IDc06GAE9f6oNR5IVIEsRqZDJgxGJXjImkoLJpYOa2MUi4pG8soLykbUUl/r++EGW59ku9pgQI0cdBpsxrcheuoBhV0kk5IBa7NMdpgJTzFYWMOAP+1dOSisROHwboJvvqEhhbAt2/VWBQPJMQkZUT/89RPHA4IhsukozLRMIJynIjhPfEOcexpXpLasRDrugg7HvSOfKLs7gUp7a0IpLE65M2HiklhBAYENDYyyJmLF4Zz918abjGV4Ihf+ottsEQtFm0CxdXgUBHGQwgzL0haTmu0kgtVKT/ri1FPzYBMykct8Im/W59S6NIJkR6b2EcnNQlro7IMzNyiUx3SCyoFzBHQA/pqJBr/7AskziIjwnP0K+XwOade0Oa5xBRNv7hC/46GJussSds8e4bPLmEb7O53RUy0MEvz9jzWg7zvYLJvM50hbDlLFGEAAEAASURBVE4Oh27L0vJQwCE85Wz6CqS7WSJY5Dea0ZJQC3bGleGMq2bWSrFsXD7TtCOB4LTM+DPaPVyxq0Dd9fejkbq/T/+KBxTQqZOvzVjzMX+8Fn9V/C5oqYMON0Xwtm+Cj1MLsAqOsuvUxa99WKK6LviTQ4zj234OC2Kn6BC6CbhEW+g+FIaxmxREWgBHIEsfJk4Kawxd7z3tjqtaFsKIdAQ9XpVuEva9FXRaVFpt/8kwKSDD+J8+JFrp4uXLw90rV6KVZM5uYjlSug3TykuZRxSLnSQKVbqzE4L39B1ppaVKhi06oYEwW9kUtJngL306INNHhhk9SQDJA9bRUs034xmOkIob5hVfFq2jdR359IiNML35QThcCOAOkZiZW9CHkCgLrnHdRcA2OTHAhQ0e9yE96bOi+fbZJnWTnfuavvNsgfIKN50jt+q3rGc1V2hRzXfr0D6uAqkguphBA9aBGpeqWW7ZMqXCsozAQih/1b+zjur0c+vCkWmZk2BobY/Ka77wn7ge2rD52bCbysluGifhpA1RIEjkFqXxSb5ivxA+xdchOx+O0xFdCM+vuMehfsojHYNh7Z2IBSovlF/9dgQ+abhkYF/HKESTfBjCf+OPCRE6fjKRwN0JdBRRC0u1Em6wjCGgGe7EdRRhwp5ooPwpIc40RQfkWclJHCA8xG2BFA31JZNbPsLu0TI7ZL2FcJ2+9K7hNAcr3X7j9WGOuUcbCgXR1TMxhWA5371W+wCzVIbeIZFFYOBOkiAdUqvLcsKySde+mXfchybJBgfII0CaPN6J0a/QjtaAOAWotmY52IIwuocSGu1jC8tZVCSJ8LIbZM9VMaRuGW5hYr/6s58MazffGu5ev5E8rp6/b3jgve8bHmF64y7nrjqv6tSNDcsWz2tXXh+ucSzjDgvkT7P44V0PPczighU062r6qk7ZYOhCuH1kRnhZkeNCB6dGDlgYsOOTf+lHYS1YNzY84QeflJM8UVYF/VH6m9azUzTGK9feFRSBcWH+9t48ijdSscS0nIwviglcvRRf1PtUGFpajXeCk4hdyOQJa7A3nJB3zB3nTelsmHjaCMe1pMLPU+ISZJPUG/qUG74BJ2q3RrUcdI5gH3Om0YkeB07S7omPA098n2KX7OC0cJszs8kOiI9lvANNnjKAH/40HFYm7/mS5jQOvOCR5WGC+8mfMlTvzLnZn0MrXbzMzvprb0YbyNyZsJbZ1EYwmms8ZWIvK1UAI7AUXBaSgEzq+7tJmW52M9iv4SNzpwzgiA+7NET4sPlD35AfWkPwKqRWWjQkeZpFOGV601f7KShOtWxunh+uXr2W+cbZrbnhratvDtc5FsPFApqsmxzxaOPyFnORm6R537seGE6xQNuVOjtoyzdfe5Vd9zcRfC9yZTM1c5CuraWzzKFUfDOSHFFq9dJHHKtuIgpZ9OCcqw2WF73GarDxIQcWcKvR5J+c0SDcHU5dqkULtCDhgVgKpGG98L/+kmaaUnym/r5Zl5lvNQJlddjxHQbAVxKCrUMY0AP1Kxp9E5V1V06Y/uE7tQE9h10Pt/bau0ia880oaTSm3mYZ1PK3KfD0PXFaSYlDwaIeXB153IlU32AQgr/41dOgIsiwkur48WndKuhpDYwX1wSmfdmi9AxJmgS6sqW7ijX9nsS2v6G3iUyc0Po3+PYowSw6Ekd40rHbYj9ti6mCU/ddHE5zzMSbP/sZ827MqaF1UE0wrsdluFrGiXbfU6Ikq8jobUarUNUevMa/VufAcP5La1dwMRWFgMZUJU/nH40rk2XgxX6k+AnzL2Yl0eeyGkdTczbTFZv0Ba9zcNZtBE66ljnkCVEfVjnlzb7ozZvXs3H6JkvdZpnaWId+DdDbCOGrr7xK48KhwgidNyrPsl50Bm23jCA6gDXH4Fb18aCT/mtaegosgkcnFqoZMGL6hYZii03MybjC0QpAmmVGmdlFIaa1TYOSXR749gY+4CnIeFZ+4SNNdpo6Ss9yKLTi0kSvRSbFNaQYZ+MVwQZh1bd80XlDqLZ6njdxVvomXBimaVg1RdAUBrDmugar7gieND6px9R6xe3ZqfTFr8UgLLTx6XvEj/dK3e8aB0iuSD/COEVk7IqY0uC9tJG+DaOvvEu0BdA0bHyDvmWqeQS2MBbzJrPEDVsDW2mfRMFRv4YxOelhfkwxqJVkbH2TwZa6HjYOqSbfDUXojHn50fcN1159JULnaCocnoZBBg9m8uiR+RpuYo2wGGYiceSkvVcDhCc4QgEIxGHbYYXopylMNy7vDhSln2UgfzKiyCxzQpz6DIOmSAl38v4Mc4GeOrdBn28fgdlHsJCW4Q793FNnloeH3v9EVgttb65hjqNN1zB30e7rrKiZoa/s8RyeOrfuqiOuBVDY1RC7DLC4INuGMY2l5SjN0O5o8h6jsjMeu6GDPoX1QHMaoLRN8gLv1q/l4ICRmto82cdN42K+MshTWoHP5uQD067P0pxaIAgiXiUgHVagBngsrMP4FDtwIa78y4Rt/vEqPNZp+DkZLtjDv0Xp9Fdqxd19/Oo0hct6UJIPFMERYD4kqceURkdSxfCLzVQBK2bom7SYeuavkd0S6Pu5zJdTJroSA9vV7gjU8fDNrKl7RskcqoBgIVCmsS/S0wCoVSCtEIKYNZxyfokdz46/nvEwRYRLbbWDCbly7hLa8V0ctvsS+/goEC96sTXPqhNaa9JTK0XQYFbbRNu8aAAYsHGLjWVe1R8qcPMlnT6lM60rpNmARZvydEojS94w+cx75gnLjs0Ip/03R27FoWntLgO3JLlSxncvqGEEDhwICzDBxQipF7Vub63mAGUXezMxMtxGGFnlx5IjGiEGfMyf1oGa33W3B4sIP5o2JmgGfZowOgqKK2ZtT/MNXVmUYB1Q9tLD/9SHeNJIkym19TKNSAaHUjdC4cIgVZ+97wUayqYQyVo2SLJpCYtPkhWGhsDUSivyZlmKL6UoJ+ls3IAVnYWbZH3R+WGccJZtWfObxtXnqIMCGkd8g6Zw+VurjsCINaAy0EmbgJO0AZRnPKIlg3bylGYamXKRveMDmdpI7Lf7mRBwHKhIwh+mNYNK+NSV+JWP4VWx03DJ1Z2UgFmvDBQ7NpggK4yJCtDUxDC9UZjxWwqTJBp80oXxpWj1wqXh4NXXapcCLJCVMtlNER0awTAtzVALLNqRwqwzZgyRznrmPT8UMsKkBRAhgSmFiSYk3TBgaMEvjGQkAOS4EFfMEp7Fz/2XlvEGI78V7tzh1nCHlTNu3F1kvtETw2+z+HsZjj116owqLXla2Fkc3rx6hRup2DiMdlw8hXDAga4/vcJpdDYu981dYssWZwOxyOBglT2IcHHWnUpWdxBjQyKZNgK7rDtdkMCYsJGSEiBAXL6XwRvykgEr8zXJZ0doRok/dkc+qzjGcPKYTk47AjzG094jyEJOQH0RQwnNCVHu7UW01OEYYoK3exZ1SYXXpFteSTbF1UDT0PDee18nCuOUOYxPS2/LTanorymiltBZGBl55NNh65NdUXtUTIUOFuP290MIWqHRAjcDk9SKBoUiWDtIJKGqplfQUXqKiiocW8TCYIs+M9zPSW0vPfccJ2zfHhZ23KvnKp0zmIOcKSpTOphDGXhNuGl7w/AMZpsX36gpF4DJaCGJ2HLOoCaiqW2gaAmzSQoBccF2maXCUXbkN08Y3LJI2RqfMBJu/DKT24udVthlSZp9P+9V3GaARnxaC9sI2TBH3xah2NtgOZxHiKDhnfzf3WaJH5ryvov3D2tLdxgUYsre5XAIi+ejev2Ai893H9kZLly8j1PyVsg/1gHaxw3JEmHVOuJHUhCnjwscmF4hTzYA0utor2WahgpYR4XN09KyS/xcqE58RmYNDxrz2Jw+ahDx6Bt8rUzkEvkt2Km3buaGroar4znpGdzUj9ozBE2STQhpVayydwpEIgztrr8LK69OLbyC02+KNoXV8iGGip06LV+88OO/cSr96lpNBnB6gkafuERIlEQqhJPQd/Ai1sI80VCTWJ38Cu+4e2UZr0NMooR9Zf/uCkK1X/VCxRF0PF6Hb9S0inHdpiOdHl1/+hIDOS/cpI4paiRqHkaeYRLchsC7C+G6MDghICEFBE3zDoUXAbNRsj8YOjA7SguCDtochS3z1OmCMr6yLw+GD62gzy6RlFUrLxDJ4LlaPFCzw22W8K257QntuA1slsJJJ0LjhaT2Bz00eXd9B9OQoyFPzeZauGx4RkDOMdizQ34VZth62Lx1g4UC6znm/7UXfzrcRctefvhyTNcz+5zziklsk+Ggjm5SI5RfThYIJ5kDa0ShofTxcx2r00cGaz0s0hikEZrgqDxaU76lDPiJbwpu6q94logCOHHHfSZBoxcb3eAGZ+8y9Zid30bg7TUxEq9TeRym+whb9OXNDNsAn+gKbwVVeR0FO3EAZwJEfIkuws2QUt8KTyDTngCf9EIPqtHgowSm4CQ5ZJuBMF4BFj6Zur4NnsYwE/zZjDYEwYGv1acgpz9XUCnQitvTal+JXgIikC33o08+PtxkDk414PEQ0uExFzJYVt84YJE0iyVDl98wJmyHqUHFN9JcWmZ4Fr8LYx6A08TzT7NV5sxgU0MUYQU2WpuEPOZDId5mkp6cpT+3oaBh+m6zlUtBlKBVzFHXqLoCxzlQV9kcHGCG8u5hyDpPMHCLmH0aecVRUw+e2rp7H0f3v8m5P2+xuZmDi9FynlpwmkGid3E71Zmz56hg9mayRNCbmaOtyYz0mEGnLpwjtXTDkuRT0zzXntMwuC53Ew2cLVeMYDtfaWGkdJvQVc30+k5BJV8mUdMEtTAihUiaasnWloKpyotH3JRXhTYdXPAQj3ykP4q/8VPsFa1+O78RmJjAJGdBMgbs78CBxDpM7tt7eBOQqVLp8D5FJtUnu9KMICqBK6BjhFa2JhkISoCs8MqgdXY8Eb0kaoKb93L92dObmr59+DgV3qArE37Yw5PjK61uivrVMXYq+tNYJ7oUIvTDpK6d9FKWS488Mrz5MgM5MN7OBnNzmFZeAbfldMCyKhCs/I85iaDYOEmnJumB9yXyL3lVS0Jr2mXLiLQ8xiMDN+BIv6sRJd1qVJsZB5XMCGcE82SQBaFzmdo62vDWjVtoPY/iJxU0d7Q1sEvMFc4jbG6zOsNdi+c91wdBVrD6TosltKd3UJqWF++YCSfxT9E3XCRfN67OD5tqXPqLV69ezSioNAqzxJ5IuVfN7cFYNhrWuzkPX1kkwFo3Vq/tZFbmUCaOoGryCl2btSnDpN5qB1hxeR2B/Up+gyPoLGfDQGjXwOvL8chAmUefKDAZgME/6TaUSaD/EKUc8ZkTtf6sH9M55IwLrNXbu2BGnUTnfYx+ws8iSeJFA78NriE0/JDrWKoODgXxUWfgSEWHOwoRkozcXNLxp+KMPztIf2aou3+8zVMcuv6sr5N+LR7ZQIFs4SmxXnQWRg84Kf4RP1tDmcuOHgL07ve+b7jOTVF40bjAQjCT5pwV5Mna+/TRMtookwEks+7uOCIKjlTKFL9FqleNDsoEMDNphFwTCMeRDYHIUxQMdEiSQu7UhWfR7DA9cIcboW5yRL5pKFTuRbRdWmaHvrdJnWKO0ZwvMzWTc3b4ciHAsAoQDL3J1W7uTvGejxUaBU3fnARAftyM7L7HLQTxrTfeHG5fv5Z9jrfRqi7XWz3LiDPpyAGmbx83DYHfUk5ZJKO8eyXdhkeBoBG30Ih3MafnWeXjWl0FqqomJQB0c8m/tUbG+ctn3gq/v9XoARFt2iMefopVDGPnVEYf0e4CRArHAceR3uZd/BkpHyUkPoq4uZOFrIdOnyMEU086QJguxQkj37d9JYNUSF921DPZh6fHUS1YBXJSwpPAKvoUdyv9Tl7HdzhOFXWZrlN8hYUCsNDBbVppM03XQv+FToFDtGVQ+lKnz3Mb1bnTXMN2k8ERBh4wzzTtFCThnLx27su0PCwqSgazbI49j/MO7ihUUmDD67B1I9VdGK6kcYKxC2e0I3lX16fPG+FnYAiYLZj4DpfNbHNNm4Msm7vsdqaaNPucO3S+cYUJ+9NoQc+W8aLXRejdYrPwxu3bpYVcGO5+RP7lrknLYxET1/4mjcgy59LssE1q8TRxl+4bdhG4rJXN1E6t6LnLaOsdGoU5BPbi/fdLQpgxRQvtTiVpneyk8dhk/pLr4hBCxofIFxYFmn0ZK0O8xKQ8WoFYgDg/48+vJRFB4Vf5TpwGZzmGV4Cypm0UYkEZQD0EDz/WeI9S9V/hxpafavBsClHQxELIHQjrIdOXxKzo/E7CzUtSq/Du37la3wkfF8g7+p2PsLwj0A6kMPru05dGQjiww/SnRWIRNSe4rVvz628jiA45yUw0zqgYKq4xcUYMvnyFkniN06ygQ789iuSHQjys/DAWzK5QzSI8rhe12XM3hcIjbvtsnvy8Qx8xZ5ZyTOHMzFaEjI1XMEkJXOGGV3jRxKssiAtzNdS0klEr84chZ1KsPd0Z3mKJ3iYjuVsIonOBjpa6v3CBoxNlvjOXLrLn8hwCyCAN/zzv9CrXzN1Fg3qciGtRXbxdBxsL4ZwgQu5CAUeCnd6gj7mAVl0+i1BzMt4Sa1kvYKprARhfDav57jUI1zBdz13gOjcEfgdaQDfhgR2FHsJdB+uxG7Q65A7eIE8O3pyi36k1UfeGlMD0ykgt5kefqrm8dR7RK85GTsAqM98Dnbj4WX8Im35QMOGdQk1Ygwuq/AgldNVE99eneLrVjd89MPB88V/yQgNp3ttNYx6DKYIOeQuNEU/bHCoOhU0+xhIeGz3APdiItu26w4SVEOkvIzbCIrAtMTKitpmEmbEGZ5q9mDQRp5irGogpYkskrWSiAZQOP+SYWuozQPf+yS26aDD7OGUu2uI6esiACAf9Hpxa5V7FO6RByw6MGsYDnnxuoxW8u36Zi0fn0DQyqRfWJN/0k9yZkRYcQXTtg2ZvbVRWo5An6Yw9TJo81XoOzNx+6zrrZa+iEZmMB3/MY/LmIMoZzh6dRUvNczDwIianOnoLIbjOwu9brFn1GI0thFENnrsk6Q/PAjeHEN3krNjXubrcsvECV08CePdj741FYD0skd4ZTok7d/Ei5rFTOmhUj6zcns/0h1MgSxdZTEBc+8hqmfQDLTv/UQnSbGW5kif9+VSM/cQKT9mYZ3181CsvlIeVTLwMiPBheeSkBd7V7hNgIk55sisEgnUi5U9UPkWfQUdo1TPvllrS9ScQQuFXHGesxMfSgZxGYiIEPnTCXFMlZsNDEM4w49zTVcKp75NgYBuQkNbb4UjETk8j7zCyHrtnrodWpPJNSj2gCsuCS+78nCQwheGtY9ZTkAZ+COaw5I1jHAY7+atVGiktsJN9BQFc5zo0RxxXmPJYdw0oWuaAURV7q63cw5AOMDhyyHhfBJiN80rdwH56vtWSEGwe+cvAB0Vg0+XGZKmMUKpN1K70O3fWt+izqhXRbDBt7iYJHuYMoWueAZdZ6HIbk1pvnd35txHCt1gsvsPStGV2bDz40OWYrlffvII2XYxmcvJ+nlHTm/Tprr3yGinPDlcR+k3of/C9j4Q+pzzUpounKQOuKLAvuGyfmGkKw9SQp3a4Cpy8OMoLACO3bFQmzKEqp4dmaQQ20awHNAJaFw6AUQjEIUlyXCXtezk1WhpQAQLTQ3z2ehwH+N7/DK8wi/mYi2RUwITHJolM41Y6UwQ2/f47JFSAt5QqmSl4fScfvnaay/ukX6OeBKX/vMxxFPdhwaAIJwCi6UKldoKJgrp+DRPUECGjwchVn6Y4RAaF1dPphUWUQ677Cydz+NRvHC9+MoeORK3yENEqo4XES5BowGmGCjatNfkC+NHH38/E+DZCcTU3UamZbLH2WW3iRmRNrkpf89RJb+bt+CeTHsws5aYll5ip7RzFVOAchYwVAJ7eZ7ScZESZVQ2jtnVhdQoO4Un5gXOeObqzmJM+FzwmET9LfQ2NeI1jOK6/zqALDcYAzHs+8qHhPHcsqtVm3n2JASY0OcK8xkDQA5fuG95EeLeuv4WQ0awgiGsMDl157RVGizeGU0xnbGzdHe5bfDAa0imSBfumXDHOxGZMV1cBzXPdufXqqXZblJMjzebdcnaTMsfrlUbXgxHSU5jBjqi6C0Vtmjq1rKwfV9/CyPaT1YhWRkxO3rOYBLgsJhBU3mowwvV/hlhoqW5fG+7ereBTT39aveXNL/5E7FP6kwjv5ZMXfvR1P2e54iZnDgpjAWSQSIEUSF6qRCvKkd+O6Yh3Pmus+aSQiZ/RJ0nzPkVn8hnh4qkYarD432LVLJMmyVZAZDbdWJDi8a/+kZ7CHVTdZmgFMqbc8FAfRgj09Ad4G6ZTTIw/8dGPDzevX0e/7Q8//sH3h5tXXx+W2EaVVTXAweJmpOWNEVKFCcbOToxlB3bIMWs/F5dMvZdfCWQdV1jCFhIRaIXGgZo7DL7Yv3RXicdCnsJsdKTU/lsON5ZxwXjzxlvDG69ytfebNxhpvT3s0t+9wADLwlkEClqkY5HBKOcO1a7LbDLmyJ3hDU6B28LM3KeP6Tk7F1iVs8zBzWq+24zWOnq7ilCe4aBnz7vJWl8EkmEs+pkeuQgSTy3g6ZasHd6dfkHiMdlpmCgZ93xuIrwcL4RmpgFBeLE4KS654ohL8YxrqN6tnghlcnskzuSzmD8o8JtgOaluE2cMOYFu2ORV/MIc4joaXmDdv2ALmCoJ39jItuj3iN2SusfDuJln/NcIiGKok6iYYhSG5RHC9cSNV8t3bSczBzAQh3+Owvgtjf0pdGDMgYw/iq6JEdkMWdM0pMcGIuEN3ujGlRSdgrANo80xX3f/6ln6fXvDLValXH/rCpPX28Oyl4TaumMmJt9GBKeCojnnED4/Wa85R1zXf6qBrC4nnV0I7iFXkphVLZKKn4M0m+yy2GSkU4afYQTyPAM0C04LIIhqCResuzv/xrVrw3VMzg1uznJgR+HeIs5tBnzeeusGAnYRAVgcXnv55eHFF19gjSqneTMQdYtpi9df+Cl9wF2E7UL2OV6g4VnC/FXb73KtwD4NiGav93mcZUWSy+joGQ77p1pDSn6c1/TK83VHWREwc+caVBfdu/fT/LhQXBP1/IW6GiB1RFwL2qI2ThzfMrF8o+mbk/U6BH1RLS/rq2KN6lwGMx4QWhzBkUpsPGK5N54RRt6ppziSsr79Jc9SKvqWf36B7eDB0aM49CokNASCrAkXmB4hWP95P24Um8QQ2XFHotE2lYpmVzkLCnj/93gEFUGd5YWd4vQtsYOj/IXvUBEwY+gnzCStSrGH54uw+j4sjFoUmk0lpMD05CeJFy5/e5Dp++evAmn6jpra/7v/8sOcBLDMXfc3h12O23cHwjKDKE5CK+9aBMZT5rY4cn9+iZFYBm92WM+6gWZaAZYeWwmlWglozT/fZCLL0/Wdzlk6wqlwzXMy3AraaZ/RSPNTRzVu5V6QN9mTuIXmcf5zGaER3z4mpZf5/PTp74Nzlj7v7eEW5qh58ngOj4FUWz5y6cEc4Ow0haeW27DEHARyL2tIaUhW6RsjCDkQmniu7NEiyCZraKujNoZMY+Q0PWDsU1e4jRnC24TBTdEOPGnWOorVRzwpYChrDiKrwZJanPmVyYWx/nl2ASmA9tvCIohCjFB2uPAiATVw03gqtdYh6jmOW+/VSCSJgBRt4kuhmpYVkw8BRomn8cXLPBjSkE94dQRaNqTZLFzRjIl1LOLE15D2J3IiwuFFXiOHBENb9w3RVKj+QRM1VWiSsJ6ykU5hEluDid87/+liP45hmgqhWCv9cej0PWE9I8JagHzbSroyBy7LIMgKppuLAXYymMPRG0wpaJKrGcxHTHTyuonJtoDGmD8lQzMniKarG44QHXAjdmXCOtLKKpncg0E8j/1YoADn9hAczLqsxIGhOyNucvL3VXZXeLTGjsvWNrj01NPs2A51GjP2AgLjtIP9ao/+9xTx+2hEHBW2fJaZk3RwKn098ucVBi5vS0MF8yh4+0ydzCuQbMEyfatQRvdlAf85tJ6T/Tv0CZ2ysNHKIc5Mk2yiGR1Z9l4O52E9CNr9oitoZfO4TcMEyhK6xqTWQsqfZ4SxfUivXGP6Ezd+b54ycDFxSCzf8OYkVsLTVBNfFMKXldYRdp7z2xo1Xcu9oWtEEM3Y/BGQ/1IZz/IzeOLwTwQyfJLrGevRRzAn9hm7NBecmYbQTqCFlZavQs1ACsbPBpMnNW3vqlxpmyo8c6O/BdEitELqheszGrhKoeEAelI45IR3v72Zt8crwBERvB7Ks0GHPKYkpACtTGAqbfpxDE44InmB4yte/OkLmGA7GbSws69GES57HRU0sqT8aDouMOjjZLxi6pH82fVPv820FUqnHlzWlkEpnmpSj+NXuzi1ecB3mF38mI6S5aT+IkLrNW4LC2hGz0AlzgwRcvAxYa6q0ZS1k0ZzknQsG6cIcsKb2efbZsE6VBs7GsxHhNNd/AsM2CBToU3N6RyMxa4wewfLFv1L4Z0vdVHCHjP8G8xLbnlWEAIurGto9xVGGgGPzFBb9wKyznoVKIQZTYUuy1P/zMsKEyB+LIP2FzwmcE9nWMcuLpvJBp94mtX6dBx84S9FcqNxrSvT1hItKMIbPT6FMYWOp8PEn8awzF18BQp8QfClR/kH85TOHnaiMFZg+xWhBILAf0V0Eapf0mygilhP2pBpcoYIbWHoO47VaDZuMj0tfLzemUsTX6C+jrFPaTgZ1aQxTTzyKak4W9D8Q3iWWIztDVWz+27iZfcES8dcB2pZeApAjvFnjtH8ZQUNZqMDIAuszJHhLL0MYFFZHm41D1O7Sz+aVyTkO4cOp/LwhnmjnYD3dPBtVsKoyVZXWDWD8C2hPZm6RwjRWO0iGm+TWoQGzUobKDdIJw3QO5qpgxTSonx4+iqrHizAiFgBiyvcQaImW1lElj1aEtMTYXWRgI2OAz4KsIrNInKb2Q6Xkpg35zFpdrLixhU4a2jydz/0KH1Olu2RV7VN5x+iHnYSY36T9+IO09XZiPzznLkaOWjt3JBXM5+/DlPpVVjFrfeKJWyrEjx6SItLgDHkH3VgyjQF3Gk+mtaR+KFjTK8LM/C0FRi7PvLVCbEgJ46CjcNLcnpInjJwxw9YhE8P/DV56qjBxu3JCmENXi3RXbWk4qq/7n/yU/yGVHwH/seu01fFXqAtyQmYMJLpqJ8Q5luhVPt4C9W7H3xkuP9dDw1vcaDTAmacLf/87F0uzvGGX4bljQfjZKWOK0/w2GdP4QzmnRKrGWgf0ol4BTcaELst0yEklH4b5apwMOyTb3fvO6CyRQW7ciZXxHF/hppj6wBti0ZyysQ9lu4ucZHBDFpLjeX34myZrfb/ZO7MDZpJnJrYJsK1Rgvue0Qb5lBlBN78zbIQwn6sW7K8a2PLBod0c00AWj+jyggZ5EWQ3HJtOhvMk97gXNZl7nx832MfQJOfNjfE1UYFtlY/hB86l+stQ9fUlSXAtxXgiw6aDbPPKz+Ip8/fFsDRXzEWL+QaiMSzyaB+oikLtVD+JRnS6/yhKW7ysY54MV1dvjt8YlaZKCuRQTEFdiofxmtF7mtc/zaN7qohQhh7i9QDxk/bep2EGrl/j2EOvwtvFkcuXoUn6BLciwI4gtQe0pHCblEt8JiBI1Rv/1rpHkm95YCYVWJBMWnkjgDnk59e8FXpXATDwU6PPvHE8AYnr+3RqMzDsE5FeB+F5qSmltMbVqldTVtRR0YVjHOMVmoKytirrJxx9C83NAGvlpnx8g+eKgHLIIyLoGbZHPidJ1xi4CiCFw1EuYhDsYVJPSDZBqGy4i8DKAjJrC0sAhKBcv8ijUQOV1awGNG1f5xT02kwFtGGmuPevbGYvAEP12QvJbhvsY/Sda8ubUMiGf3dTB5cdeRlPDLwBnlco0w8gOp+RmlXcm24/dJwj4WSf1B1zAVC0iW5Hsdg/iUe4h1j7PWub3c9ve7Xn/J6+B25Lt6XvArteDqOPKE9FkBHcCjwXh+WxjRCTfpT6Se53jqEKQWQqiPONmfsSribD5XUh4z3yIGx+3Knlq0AxiTsTcYImRqylqmhtWC8k5wFYCF1WTtMTcXIaFojvbTtFJPwPX+h0DziGTjCkmXoOHP+IoMUrEm9uz6cZctSltDBgBxlmv4YeikDFXvsus3NyDCxo4we/oSaEeGwzjxezoMhCcZBOAEA8w4hYWjWlPJfNaE5WIKphLI7A3PPb1f62DB42av0qWHdXuXSsX1uSVa3em6OWtJ62cC8VcNpAlv+B/R5C7fJoU0984cMOIrrNXnzDOJkFBXcC8SBSuimvwnsXUZooSx3LeZkAehxccO6go5Gvc1pdPvE2cEKcC7TC3Rcm2M65j18Qb6azjJbU2d5BzuNRLdsLJLmEjcVIaoSMbWpsZz3tAGTNj+7VZdQYOXhvqBAv1iBFrWwfPtXGA3FBU0PoczkW+mHdstWXovQCWg9+W9EW4goTEHWwyZevIAufxXNtMrZVSekKj8Zij/Q/x1cT0YTQS1gQUqcrbLvypffFoanid3LvXNqxDV1pp9KS+YrRL/egFiQOmlpr36Vn79ELlPygLm5cxz6e3Z4/SWOdYTpELUIkbSf5ju7DNA68GIw5NQ1ULlqJX1K8ukgTI4uBK83CVvBufXJpCwH40OLZTGrgFFAatWMXoJrid0Z7v5YRsN69L8DQUv0ZW9efQvBpH8H8+8wvbJPv9LDqtYxGWVEB2/Er+k779pW3u02ZMfHGY5ppH9rnxNvcDiCTJ9zG1Fi8Ml9kRbPPANEnjBwgABqDXglgRpCZt9md0g2J5OfTdI/c+GiLRTxmeohfXGOp8dSwP3HKkiR++LfO3OB7OCpZON1j3oLr+Gnbw/poP37aGqSEnheAmMfJHVCudiw6Bl6pzjHOKoeG0ACjqdkOU+QjCJnACdEA+EzboxrBHzSa2dowyra4cj1ZYtnJ77BKP+V1VS0cWVMza6TXIRFmE5fA+r+YeAkJFZxkA+zgl+HMUrSb/5+d6EURu04hm0lgSDQf0LAFmD6T3z2M8OrL7+Q7U0raAOH8XdnGXGVK9Fe7sfw1QXTLuNyIGZPcxZNtYQQWQq7CjgMzbgjAsDqFc7Scd5RWvxTqBxBPUA4nLzPFARCJ332X2pQA1rB4/XlNvVLZ1e5Ls6bj225ne/coJ8Ibj68FMcDmd2HmGvM0cYeF7LEoVRLaFnX32p6ZlQTAXWuy9uRs2PD3R9KonigzZHjDOqQjvOkag3h1hBSTxtQE19i5Pn9738ijY51ClAahNImVQfyTOpfmvyzMniakP751u8EpzCBtcBJ/0CtyDO8IY7QW7zmnSGdZ5KOWQFE/OGFEX6/e7qBieDha3eX8rIcVCJJnzDLq7vORyIQR0+zfQWs+415rKjoWGi/fCUpkHQSxej7yHVKk9HDYaNYLcI0PDj57ATUPJ5MV7EsMsOCvkpgkmj8CYupbLonuJ5Sxy+IZRSMLc44qv72tyqvAk+RCtfnu3orLrz+zpkpJPc/8O7hoUfeO7z47I84QY3+FRpxGQ2ws4jwcR35HoyxgNZwRU1Wp9gRbCOD88y3xWQCoVnVxNzZVkMxd7dLn43biTWD9oyriYv56haqDGbxHTOia07Q5j7HfUxMtFqZYgt1NKMbiWEazbEZaHPDr+/IfARndoljNVbOZKTTTcp19CYNmAxGXmUsy1OBtGG5w26Nmyx48MSMUyxE0MpxPyRJoAUVWrQngzrGBxkHeZ2jkeGIDXDprGsb4iCPjwIEuIn5R2EUKJ7ujuGhkwa7HqYTL4F8t/CMp+M9YfV17NeuTV8UkEDgW1N9KJ5YrOvjzrTIAXkrU7egwpvAJ18SMCJixF2Fjvi6UkYjwAo99IswSkoH6s9DMNUUnURrA7tHrIRWWC/waYRKVXGE2F64BFvYY+Hy/VAFNBSFHOyJe5g40xyhnMYQjL9s7+G1t1YBCCrShhwFRKOvY03908p7Lff7aPVfeuEF5tZYIM12KgXHw5cOZjy5G23Eliqkari7Yd+NPh4DIw6izKFBMgnPJTZLmHxaAZqACzBgzrXBnFWjbbIA/My5C2zNisRlcXoaCYhUOxU7EYaTPqccziIAG+suBFgc1mZu0b/jNHEE0XlBMpmchOEoFDcmn71wDnOXk8RX0ebQmJFsUFafyLI7GO6wfWqTxuAWz9u3bmXLmBubV0+fR/igBInaQuveuHMLunxnwQFL7XYwb+skAAWw6tLyTPqWMTQ7ODRhOTOiw0tWtxeWT2Hyl89DP+LQFWS9H/0tPqIyGRlOPTfg1KXvIxLCb2+LrNIy3YCFAN7yMZWeTkOnz+8JWtPjYxzW4fuTuqhCC2T3PfrsGMR2zJ3kVwVbIRDbVbrESFTw2fJp6nTkEgsAf8br/jEfR2l2f73qHRwNr34Vt8LEZ39F15OJXxvt6bgy7RIAaVF7Cl/x1ByOyO9pOuL38CPvY9f7u4Yrr7yYexQdrJiBaXWz4FXITjFCecDCBo94tEVVg+bKNfvF+jUh9mbgnYXdYWOWg6YQ2Nu3rnN3xuvDJcy+++5/MH26rGGlwFC6pSUkDnosJxeQS/ES/cBeFkyARqMecPy+JuosAuTCAPPtrgovi7WvqPmr1nUahKHZwFbhoeFBepfR09dfZ+mdAzQKNsJ7ixVIGzQmzkfegUZhHLTJOlkE/8GHHxoe/6X3029VO2Oae34OzgbXIrdunMaZaJQKrADfceZHDlAbFScY67AzL/yPs6HKvtQO1gIsjyz3s7A0L41TyBv/VVoTHujxW1J+GuZBYzYlWWJpfP2PwJbvvX6tLNoE4oCFt4Ykvod/YqYC9d/FjdFUQR5PvPtrWvWCmCRuQSoUFhx/hvfnBGb8Iuw98iYtxu+2fcD8ISBhIzyhg0p1l4IkxCyhEhU+txJp7ni1uFeOv3HtKguyr2XQYkchs//HSphNmNZBGY+1GGZPD6toICIOB65Gsf83LGcTso2Ly8eyeRn6ZOgDRlmt4VusL73F8YlOa6wwYORGXhd529/0bsiYbNDXslEDMgiK9Ds/KEBdE4epDE4vnXGedIHlcY6o2lCoSV0FtAjOrCJSuCPsjsVqNZTALDFIZD9wff0mftDPFq09pkRoepjs5zoB8K+x79LzW7MXksh31u8E133c4+HBV14p4AJyT6bTfLcfLfXaHebXurUyen5IPbWifjSvqShDbRipG6vbVkkoBatFT5z6mWLKN3RGiDpEJTep/y5U8qR2kPk32U5QhNeWuDn5Ik563pGbZCK8ZM6D/4S40lLCmNTNSHdTArqPTzOfAhl5VqwqhGMJGWHkJKZKgoyLy8ICYYShwRlDs0m/VBbfkwXGY1wS0gjKgNckmxQUpVh4jUw6ETTge+mP8PgaMw3a+jycay5lDNF7YNMKLfyzzz07/Ml/+4PhqW9+PVMb73/8sWgTd9fv73AdGzS7gPzUuVOO4MR0W0EAkIbgUlOswkjOMe5s16U1OSxYgXdPoBVMeWjy3Vnj7BnM1Rw85elvFFbWuIKuGKKatEz9QGRnasSIfzYoHCS1xBTI8hk0G40D+ZhnOV4uZXWZB3EciOl9ZKSf+mDUEzinouzbryJ8S0zhOLi0hTa/QSPhpuF5Drk6YMeIt1xpkub6AbSdK3WeefoHw9899b3hsSc+NHzm878yfPQTnxjOIvyeXO4yvV2sBQ9GdiDKsu3jAZ3JrQetFAoj5eFZp8UD8pdODiqG1gfI5lO+fpcVVvCa3fbdbQB1GRn3hc8Is++4sr6aoDTYPIhrCoGXrjga7SYewky8W+jhh3Sk6UiXOtSH8Ko/V0pNnUsn/pnO6A1fFYsf79RBl+C9OCXJii9hwN9KMIcK2j/TJVtEg1UqDdEkrXoWzkBNMJc8T4XetZYmrxac47wZj5p48aWfDi++8LPh//j9/zq88tILw/kzq8PlR36Jq8gvD+v0l8SRUUyEyXlED2/yDsaDfTQepp0zfkswu+ahgyBWjcI+w8CHewxrhUyNfCpcNAnRJrdu3x3OnaV8aEgc1DnL7ntN1kxTwPyanDJxygwmtmWX+cLgxNFEm0OQ3Q5lGo4Kp0D48eh9NVq0JOZqMmHRpPwoQwpBU1qc2UgLzJrCSLrsDEPT1wCNg7kubFelbN5BE2PG3mSBwM9//urwF1/5y+ETn/nc8MVf/43hySffPzz04MOUCf1KLAf7xmplBTMDVPBBNQwQYYMpLc2lNsmnffgYuNDmv8POmtaN/dt7eIn3cVABl5cVnlqp4vHrOP7yNVpSOgGXYSe7zu2GGrHTyqtapDlDRsJowDTRDnTsCYhQurKB632aSA/t/jwpEH17K+KXqck4ZtwKUSBtBWWusQuzjTw6TH+GmpakjB7c4AgW/FOw4q03E8VToa/WWQg397psZYU7C91g+9qrrw9PP/308Mwz/zD8/IUXhqtvXIFZdoezrFF93+NPDu977EnygiY8OI3i2x5uckWbh//a4u8zOW5+9xg9zWQxfcFNMw7zzS7cQVthMqKlPChZ5pL0HfphriX1yEf7YDZILoFbX6M/prYAnzdBLcL4jk4uysTp65tLzWvEhizYv9Gcy3V24KjDsRgJhlaggAV/09TmeQsTfNk9k5i4jjLb4m+y7tZBmzuYuCssa9u5emNY29hi5VFdlOrG5DQ+mLBeJ+61A/sM1e4iRLmMFhrOsUBikz7209///vCt73x7ePjyQ8PnP/+F4UMf/vDwwQ/80nAf5+/skPYGZe3CCPMV8zr1Rk3FsqFKWqOSxsJq45816z+yxy95jq8fftUjUyr54pug6q8Zv3v2l0KSmNGC+uMn8pGbjvwWjsOhI8Ajr8JRpNBJrVH8UTx89/jypKH9eySM+P8rXRXHFEmx2vi7IFKQUGBha56VKVKEBToAR7FN8Rx9m0CCQvNj8t0A08lPOmX2ZMsQwqWGkvHdYjTHKOg//eTZ4f/+4z8afvz3/zBcQ8DUBCtqF/pPSAvMzvTGfffjRx+RQ5vMn9rJVTTraIaMTHLnhccTDoP7ABnYQVjdCeB5p8teBz5LOAM8e4w8Wumyl9ezbfLn/sB90lSDeqTFwV1XwrjudJbR263hHOnU+aNmVPOLama3RFY5QVv6t2jR0EUvNeYZDYQMa3sjExsvlghpu+70AO2/eMClOYS56F1r4NaN6/RlN+kvsoKHiO7el2UsV9N3kv8Atb7qHKXaGEvg1h2WyLGQfheJ3qIv6Vzm/QxCbSOsb75xbfjDP/yj4U//9M+Gh9+DYH7u88Ov/vIXhsvvYZsXGn4TYRdndpbYyOhMrLMEaSaP8gt0K2CjQD+OuB55iuYIQD5t6DvvibLeecHfuvnXOqmwCUw+2mOShv5HXBNGEo558PYEnETjIZrBIQHH3AgowheA1m9s7z6OasUE/cKfaYpSH8GLkFtxhPkfuuyL2AqnPwg9HsN4ipFH+05vcKDTN77x1eG//v7/znEbN5k7ZCsR/UQ34HpBjOe9zLJ+7bT9LkwLhc5LZVR4d2+YD7SVZijCrXnnKpv9A05qI9wl2QuYiE6ML6/yx+IBj6PY2eW2J2jLKCpL2txqlRUyxHdJmSdsewr2Et/6e5mN/U2SobmFYc1bXK11NR/ODYIwtLnG1Bnr6o8xcIPAOBDlLhBKg0JhdSuCtr3PyKe40HQe9WH/1ZUzm/Tz1tbuDDdvs4eS8nOH/8Ya596AA/lPQ7rEu8LplMdbDD6tk0cXQmgFeMHODQ69WvL8HjZLnyO+TPnKS68PLzz/+8OXv/zl4dOf/tTweYTyEx/7OKfVncuqITXmAuWvkDropE4PU/FQY85QNn6X9sMC4bsaH3gvMD6rkUyCrZR8RPi6ZPAtW/I/jqgCxDNNJDxkGWcRv1Qc4uFAnyCvHVvhzK9pELe6D763rgWZSPqjKFPNOEpshGry2oOLjIn3JDP6pOWdBsVn/Gm6xheuYDs2vijAk9yJvhZac3lLXCvBIfTC3BcYyIC5fxB/F117j70jn29ydMXLL788/IAzbv7hmR8OL7/6MuYY99yf40ZfMusC6H2Wdmn/pf/lCW4w92nPh2F01L2NXuiywTD/OgcOuz6Uogbefh99HJtENJlaxVbds0XXNQth9EVo8qBfzxp1jes2dpTrXheAza1OvtNvFckCgyfVE3Y01NPoaBxW0IjgtA8GAtIkDcIQ37SpDtTk0OQMgKhpLF9gaEgOFlw0Z5QyfT3r1BVDC0toUBqAXfDn8hwHeBCqM5w4d9VTAxRyl8ShLd31IVMZ1+TfeOMqfUWElnNxFHQbvDR+MHGmRmi1vNHLUeJTLCk8O3uB1Tprw9e++s3hO9/+3vDEk48Nv/GbXxp+9Vd/jTnTM9BDnxZh9obkHIJMOSoYlpWKM9qRdEvLmD+5RBge/Z235LkzrkFv4wpXlVM4qMXL+5F4x7WbCUPQSY4ga7Doo87Ih/+M0dNMMD9TYew+o+fJ+RgnmtxPYqgpSKslPvGevExi+qIAJQFIS8AktIgkWH9bwBmYskIbDPEsaD1l9GSPbw+CyoAD9SPTuofQVnaZoyRM6yZHMP7wRz8c/uLP/pxBhp8Pr115LatlFuc53l6rEVgvalGQ7W9lTanUwwRJB+bzygarf85WkyI9z8WljphucxRGNhKHbvPkKCkfFrwdBvtcmKkOcqgNJV+huI0g+44qYA6PtaZoY1frcGtAymETbs+xjQjKDSbfz3Lo1Aw4XCq3RBxvvZ2lodhDc5umyCwbX2XcaBOEwPI2XY+gVKgRp6ykkTmcD11DQ7pVysUMdxktvYuWvYUArWE+u6hhe/NuDjrOubHk3HbA/ZQ3OMjqlVdf4ZtGiEbFbqtMZuPDG7RBi/VMQ6gZ7Ioel+bZ7z1/4f5YEz957vnhxz/+0fA3f/U3w//w7//98NGPfmS4xNEg0rnLbcle7Oq8KMoyZSGTOWSl4GckPUlZG93JH9LRv1MsfAiIP8Ld3iZPUBuSXyiexK9xDbxF2NxYGKfeauMO4bN/l+AZKN9Ig6xf2EY4CXEpYgsQsLtGVIOt4WLDVODTFBNs4fMS4QhE+5mmY8S4eIWQEqDuW3GneIsgvkFcYZqCaoMkZGLaSfVoDKjpZiF57OEBasfbe9006xTBj5/50fCDv//74QfPPD28+PMX6a9ZQPxjv+IFDmdaZyoh3JWhZgm0MsEPM8hcOi+TsU+2u+tlpQ6qyPj80ZdcZgrgLKexebqb/WBX1mhiyfwy4w6Vv7ziBmFMWeK4skWT1kXe5knTbJF+pPN1MvESC7XJBPMq9B1Z8H0RbX2DKwd22OqkGXybFTYeJjWDlvHqaaikISq6s1cRHPsI1TymoY2TDKumct4w+eRdYZKhHYH1EtUNGpQtTD4HdVzIsEb8bItykMWyZUeHh3I58KQQKlze0LN2Z51yYbURUyC7ey5+YBRXM1Uz2G4BjYkWif10nfXpAVgpJ+pKdnIRwSnmZp/76fPDC//z/zS8mxuwPvnJTw6/8aUvoTWfqD4zB3ZJ8/wc86Rqcc1huTrMUnwyERL5o0mGg1vWdaYvuj94TNfoYvAvA4gRF+oeXtO+MSRJNJhCCbaGe8LzIngHriU7gjSi6eiYIw4l/bt8+S2PSnT6nm8qwzzFgUs/PyXsF9Ek00zimdEgMnPGr6D6rcL1Pd4IgoXavzUJY6JRIbY3btWxn2MfSIYfqKzXuN7ta1//OqbQ33I2KMcaMlXg4ugV9xRiYrqixmVdu7ts/YGRnZvzr+iw+kzP1M2V5pEVypES7IRQE6qt1Tz27xbRZMv0MXMymoyNuaZbwKyz72Sj4ijtPiaYUy/O/SnY3kXhAIdH5G/dZe6OQQyFc3mRAQ3wufDaG4RvIXxL9FfPnn1ouM4RkubdhQYzaMQVhEAD2oaD/2g5ysGBIk4ZQMXDTA76mKq5sRyd92TACdxbWA/2E2+x/WkNmved/nCElPAtzXTiW7aOtrpYGtA0ipazjYI7StbvqOlUWZYh/VJHnyxLh4TIS65GlxS8FcCcEWvhUCYLqgLi3WVTsv3iM2cvQt/e8Nqbbwwv/7//z/C1b31r+PSnPjn829/60vCBDz6ZMhaPprzC7S4YBT88mIojsLniXT5ShcWb436fYFPoAvNXjlL5ZDVVa+CDI3jHMeLxz/iZcH/SNR1J6853b4OOk4DJ+4TM5ITwEhzDg6LR5CNxBGt4bKDjH6z/gh8Q9hYnsUMCTGJFym22dKaBtsltvjCGIG4vcmnfz178+fAnf/InTE18j+Vcr8MwCCiMffr8+YR7I9M2jFbCJlpNPFkOB6Kq2MpXaWL8SNMR07OcY+rWpGg+TE+HvBdkPG7kPX3+DC0+V8cdwKSMgrrI+zwtPhwDEyNo/Ln5VrNbZrKUnAi3T+vAzB3mLDcdXCF8ln6pedzDNJ3nqI01BQwPJ989cMrT4Dx0ynnO82fOZ8R3B/PPcveU7wjOKvTB4B4INctufvNl46Pwu0bWW6I83FhhzBpUBpG24YEV8O17JQDa3qVyO7cUcgRLwU4KlBf0rLCu9fUrbwxXrl5FK66Ax/61ufKhxnNqhy/yk2qz6vKvwVB2tcsEjkJ124jcXXdvIqPHC6fp2y9khPkv/vKvh299+5vDxz/ykeFzn/9lpkY+ODz66KM5gtJBJgec5tHQ9kd74y4Rlp/08L89aVzjqcdhF+0XQGkjl9CWNoWnxCvEQce3z3fmSp7GSRq3kdVKor4Ln12HOCmplt/PRldC/OoM6vs4zHcrfuzGxB4OGUNN3yV2UohT77xZBFRThVNiCptacQem1vjQ9FplJ71+L7zwwvD1r39j+Ku/+qvhBhfAaKIuMW8476HCCKx9IbWRJpsML9niTmGD25SKDrVjUW7R++bTC069NdhBF/uU0cyEOdoGOiblGZlF4Aw/gxDKXApORjXJpJr9Nid6K7zmIytgiK956ZEcu2izLCuzj7TMtAtaa5V5PvuwGwjvIhfPrNGX82iLFbTSXYRvEy29TeNy1t0UCNoS5qPzlQqkZlfu98BSWGXBgHmIeUjb7+ZgzW8FU4a2T+gm4XXiMfGITqNSEGSQYkKy1hWNveVqG7U4DZnlep7Lcn74ox/hRxnaVlKgCpLfMrflVufn1Obk8EUVKyGNCfnudRA+EBeAO5i7Xmnn4M15GlHN+G9/+7vDU997erh08V3Dxz/+MRYTfHH4+Mc+ymnrnKRAfuyv5/4Ry9rUk1a4hFf/hYKknZ+A8IM3bdAh56d/FaNijuMfwXQo7jv5oLgaPWKaJt6O3SBhS6O5agcAC1PylaCK2Pi0gx56ClFQ4jP+oeB7fhyCG0VUM1UxUsmwiJVCDaePYZ/MwYNnnvl7Ws5vDd/57neZrL+SEU433/Y1kwqea0pz1IXMAhXRsHIQNLaqK8pDMyYKccyHpko0KIJkH29/m32CTDFkct+48g70apT57oS+t0cpqKeYg9N0tKLVujYcawiPptUZrl9La4tfhBBhcA2nI6T+3bqN6QcNSwijjJ2Ny9C+xikDmnmzmtoEKMRX2Vjsbg3rygEiKc8AETSoFZdofXZ2mUpBkOyvyp4yrjZ35htpZGqAiblMGrkFGy3odZuUa2gzqEW/cJOGwO1aLB0a3vf4Y2nM7q7fxhRnwQDCYD4zwkuNKVNjJpvwFjBZZWS98mc9WN29/+eZNboZ5moPdtkNQ0OlFeCywdXVMwQw4EXZ/Nmf/eXw1a99bfjkxz/KCOwXhi9+8TeGi7mwh/lNGpCsUhIPf6ZjWXftJv5f6IC3j9njS5/vydYocuXLkLGrPByHHpfIGH763jTj1OPoW5mvXaqOJlzQ8fWngzUkMtLEi5dxYEkXAABAAElEQVTDsQ2ZhCaGX1nt4NMChHmcDLaFdSf6GaYlHDF1JPQ732JY/DvfYXripYwyOi91331qEhYse8gvzKYL40GIR9Jn/insqiBWI0NdASukMHyESWDZVEZloG6DYnE3fafNjbvs77vOapxTVDDMb0WZFEg0HT2Fe3PzNtMhMHn6YGCmMVBAZYy7aNcsBNeEpUHZRAPYsi9gFmoabaBZFRKP2Nd/Aw25QALuxndjsou+b6PN1tcQYFbLaOp6ZKOHJS+zsGCJOT2P2NhR44F7dZupHAa0TjMKayfXBi7rYxE2rYNsIkYjeoq5xvM6ZYedSDkAy4SiGjxbpqB1mc3ITn+8+/JDwz89+yybrDmjlUbHARw3+cast5HT0c9P+ZCmGjaNagqqgi2LXkeyemqLfCcqdSe8Wt4dIy6AMGotnzug73wesL3he2jKf7Ax/uZ3ht/9vd8bPvOZT8dkt0+uKZ3lfqQ/FUTrF0RJrOjwN7Q1TyBST6FoDEeANIy9phje2Ztxxa/T6B9rW/3oMxpcSci/nRgDdYb3Mgxoeee3WoZCmXgjSoOVn5HXhBAzKilJDaQxVbCYTV+cFmTOWSHsFJt4dfbVvvHNbzE5/43h+9//wXCFrUbL9FVklsUlNAUVubbG/Q+2rmpAtERoAGc0rLSAWwGve+gpDt515lGeyaZY8BEBCsvcqpFI7rrg28N/b1y7MVx59dXh/Ic+wqjsFutOmzBa6QjgRcw3r+N20+3CggsH2O1BfrxAx2MVoylh3l1a/3mOSTRtJ85lSBelz26i2WBel7BpjsvaezQ06zQms/Qf3eh8nSka1pINpxi8OUAQb7AXcp30TlMGi6S1hGBkzpCsrLO6ZXPPPYcH3ELMHB5wO/RNHRW9g8DeRvh3KRffbaxuMMm/iOZWK7qn0QXm5zDBHRWlkNkm9R6uAtgdvv/d7yljaOoUF1RaYlJb9ZqiBZ/HblivLhQoXgMEVyOswpI/8h8HHVoEs8yTBksG7mgiFCBczV/aqJX2W8akdvHCd7/z1PDMD344/Apa8j/+p/84fOhDH6bsEWJWSbkO17QW6VO60COnI5CeNRys0x9SgBOhwbzQepJO8UxAJOCIG+fHoDTgVnAw91gtby1uw578UXLNtx5NMwpSZlJ5H0bQy0oYEyqmPgxT8Q7/tuwe9gRH/lkgQeFQOMIDXTGvsHHsn6kFXf3y0ks/H579x2cxRb9Nn+EpNMtGBgwWFmEsTUda8M11N/aYh5pPdKVNBg8oWN+nlBbtlQ/J6syjkEKPROgkDA7aQxJlOOtnG4ZY1GxCy7zKtWrvfewxTMAqPgXJhQH2TVcQvtNoizev3kk+nHx3TtAyk5CYzaSj1vPSUsNqJFjjENN06TTL0Ng3iFm4zQZlxhoZZTyL0HA/Io3O7gzmJg2OB115K5Ymsn1VrwXYRus6f3eGRspjPcz3Eky4iOC5W18Bk69deqcW9vo2pzAcZHrDE9OBB0IANkezAodbqc6xHcoCWMPvwXdfHh55z6PDj6kPLZJ0B8A5SyNTpUxhEb0zaTEnCR1xKQv8EgLuwPMR05BvB7VEFDN6EtcaRlApc+E9TcGG2IXwK6wZNt2//erXhueee3747Oc+N/zqr/zK8DHM2LPcRO2Itua9DZEDf9nkDQ6b6+IbS6rKy9+jFBs69owFBetM406IhDZ5LDGmnvd4O5rOpM9Y8IWkF9YYR5iVDNhJ9y/zRn6PgUbvBB13zU8VrRD5mSVqMgkfmlm2Ym9dvTZ897vfGb71jW8O3/27p7h45q2s+lhmMOHseS5eQSu4kFoNFnnip2s/+0WwRCpWrdZX9tRRGhRgKn9KmumWXwljTC08ZQwCMtJnqy7bO2m9xEjjlStXhheff374pSc+AHPQmAhr1fBUvM+hgW6xUXiH0UoJ3Gc+UyYQX/ATx9FWD62an2O3PRpyhr7YAcIxO8fgCrzoyKoS44hjtBLaTnPxDIMnpuPRiq6ccVqB6MM284D7lCNWLbLFoAaw5m0P7YKdm8UPGzQks5j715nKuMNSt1sIb+Yv0epvMUfqVIvLAL20RqvBhQ+hg7pyccGjjz6W3Sff+7u/C/PbiDrQ5F5Kkqq6IJs2TvLLDPGkVZff9h4PfhJHInEydoet0eby9Te0ZKCMdbE2YvCImbO8ZrbVpJQ636uUjbtG/vhPvjx87WtfHz71mU8Nv/zLn6ee3j+8iw3hDrJpobgqyPpIvOCXBv6grxRb0WTaupqrNC/1TcrJY/+qZ/vq+QnwYTwdTl9RNXTxjt/rL/6Yp97TiL1QAnXsR3azsKv1msZqWJrH2D8o8HB0L0wOwbuOIMIwulX6S7ZcWeX/rW8PT//g6eENVsdsIHSL9IFqbSYDChTiJp1Cb3dyfahp2DqmBbVy+LYsfE4ap9STzD6tbGkPHMySFwWKSDOZgysvLy9F0goZbagX3SwRbwnEK0zIXzi9TAv8+eEhtIV75uaZPggw7wrCGsu9XuHQ4zXyUPsIS4uqmWzCcjEp/cs5hFvmc5mZ2tLTuN1kbIOXOVPo8uQ1F2V7Yc0cNF+4dJGtTDAU6dhKz6JJXIh+gOAuYIpdZFfEKXCbN0d7HXF2banlb1ldu3ZleJ3LVG8qlJiim9TFLehEVodTDA4dwKiawzKsgzpuKfsw1+Q98t7Hhu9841vDn//ZX+RyVOch3UTM/5h33h8S3iCHsodzgI5qa6XILTqFVCGW47rm62EB4Ocw/wnpn85KUrOBExwZiGMKZQkLw28VBEnSoHtmEV0Dxhq8hUtBfD+WzOc++6nhU5/+5PCehx6OUG5y/qvlrAIIX7Yk0l3yvSfrK/hteI87aCqOkzSi1KRqZPE48BhlE2j5UkC4YiyMxbAWmH8mYt6nFNnhdsRs0gSGqUugAkyUccEKKZ4Mcmj2Aa8pausk03gGqKbDj1gd88d//IfDN776rUxGKwgWkDa+S6FcW+rlKTFfmBc8YE1aqJNG6EsrHAIwdWPi1EenPTSMCtLvxKEiYtLyVHidT+wuRzmM4qhlXTvK5MGAsTgsokXe/a5LwweeeHJ46D2PsObSeU5oAZfIpO+nL76AFn0j5mUvxdzPCM22yvaNHCmVTi/JWUMgnbLw9ACZKbvzockwBzMu01+zIZHKcwin9y5mMAZBmkMiTtPXs1FxMOu8AumgEPHcJOwIowMZ1sE1JtVfZ1HEbQajXNTulIonl8+jFc2nHBMTmj7sXTToY48/MXyaLVDPPvvs8OU/+CNgaQDBp8bWaqBqYv5q+OnMvYK2gMncGdiNwt2Fg1q9mZx/3fU6699Vt6X9HEjLqeytMNOoIYzyZR/csV8R6w0/l0LC8eE3SVvCKnj4PQ8Pv/s7v8MC9c9TnpfJqNvVHPCzgXfcAuTyAUSlKikM8enK/CQc3Cc5ae/09+dRuGnMGN3Je+Lx9o6EUfq6y6p8BKK8bAHt60ydlmMcjGsiZtKKkcGUYw9jsuW6yuLi79EH/O53vz184+vfyB665ZXTmFi08MA5DWClambab3NwYI9aT0Xzq/O3kxYBa9/KqC5h/JTgTQsqsAECsCEhNHAV08iFOQVlIUMHFLD7Ae2DoCyhRc8wgHI/Azb/5rf/Lf26UzQ0TECzXMvKdEnVNpX8s5/9nNHem2nNLRtPJHf1SpnBVDJlofPbZW7ufFATuddPU9a7Dy2/uw6mEM+ld5J+loEtz76xfN3ZscV61SX6n+cYhd2mPyWci+I9Cfwsc3UOJDl4cRNz9DpTQm6P2qZB0ezT5Jex55imWJq3/G1UaPzIh+fY/Nqvf4nv2eF/+1//F6ZuML2h2SXhtntOlaBCk1+Xv+lMR62oBqxytGyrfG0UohEtXzLi+1HGLeav8q8KspLKGS11opfWEWlbhzZuhqkZtQasT9fcWg/OP9p3d8vYNuV6kVvFLj90efjCr3xh+NJv/sbwKFepO+Vko6dJWlfdqWnhOnG3sQEbm6R9RBjH9Pf3/ux092fPVcuNpRcnX89c+fk/TnPaAvpjysQpt4pEpUQV8xVTVUmZuKBshWtlUaGYYLY4rsO0L/Icretf/eVXGBF9enj+J8/FpFs9zbHxMPk2q2V2NukHQFh2rdsgQd3unmmqvWiR8fLvqOsCJnP296MwhnVXMGPaLZZeNB2qVby1TBg5Cg3LCCLjtwzgYN4gMB948vHhi7/1JXkDoYIJ+cthUFTa62zPcneIzOk0y6aDSwiPo4zUcsxUaTFpzT2PP3QwyCkGr/nOJD6WhEcualXEQY9bszxp3MOlNC130aguarjILgvXic7CfE6a7zAQ5ICYN0Xpr/DddYSVdJzWUAjVjp6EjrVH2l5wUzdM3XfpXZh1n2Ex/KXhDzhy5PnnfpKGYgtCvS1Zi0XCD1gBI9O7HlWnuahVUwxZMGQ29ZJzYMm7eZY/XFKn2VnxqgGfHrdh+RvfRtnn1Cno2FwZwTYsNUR5i0vTmAgpYxdoGGaj4SIHYc+iEEBMA7XIPSoPDB/92IeH3/l3vzN88IO/xAAYC/YZQJO3000gbsc/WXonQty9BM6wo7zW4VtUaC/XvxP+dsJYCCpSLwtbSAUjlQDBqq0gtkCoIGol/TiXWWmmrNBC32K3wTPPPMNE7d8OTz31d0zOvwID7OWKbI8MdELd7TeuRkmxglAt4uimGmkn6fDdstCfZtii7hXls78X1dPfceFMfQ+/pcVuXqW5zCX/SN/F3vZSF6DH5zwMuUjeF2k6l1gx8oEPPD585nNfYBf7RTQN24woZQtak+6VV17hfsdrESbvMQRF5s/UADZUWhvJK/OSMjXZjqC4pcvtTNuuGyU9GzQLZoOpDI/iUPvl7FNSWsBfWr1AdRVtNo8mdJJec9dTzZ3EVxi9PPU6ezYVXIm0OUr61iPl524Uuwgr7EP8tS9+iTm9C8P/9X/+t+Hvqb8lLBcvQ1XLbSGIvVE0H+Yp3QjzBh+EF8CdBptnH0BLlwU2sVkV3jTnjXzIlXAe8mp1H7FCkJwmKhE0DZkF0SSa9ayWTH/VBpx0qmSa4PKVLgD5XF3llDwaLRvO+x+4NHyOUdgv/tqvMQr7MYSSq9FpEOU1xyxMQlf4i97Oa523/FZA+7Ni1O+9BHec82amWlhj7xEavA2RmDwpeF1ow7MnbPxsxCXAq8AWGEC4zubSr7NS4itowp+iBe1/uCrEeUEHY5w32uTiT5E7qe/ay5gtSYnUqCyFwnkoNaU0jF0vhO4nLf6d5I7CFow56q5aavPhn7nszGZu7et5crhsEjMK5nVAR5Y4w40lHNvEooOLmD6/HrPH1UIO0gAczfP888/l+I4ZmQi/WmxCOjC++Gx8PKfGeb00CminuwzcrDHI0leq5GhG8qfJv4kmVOO58N3KWASH0xqaWDGV4UznLTVzN1gV5DSIN0054KWp6fpa9yMqeHaONJ3XwHmWvu8Dlx8cHqcvfN+ldyOIfzB876nvZ9HAtvOjJKbm3KMP2DsoabgoF+vJvnZpOkvQ+qhSLGEkv9CVBRicFKC2sr5yjip5mPLgcWGserVuC5/TKTqFzjBHqaMQLYz4kyeFkbJ2+WH68qTX+cnldrKyXSYHuOY4+c61zpcvPzx8gf7kZz/z2eFTLFJ39Y8mfW75gl3EnpFxn+DWdd6SDv36M4Htp8OO/Xwfc+BEGBPQkFfGp4l1BAbH9qcSHV0i5QQ5Cuho6DIjV7Z8L7NY+6mnnhr+/M//YvjRj/8xrb7TFlkZggAic1ZDMu8UBwoR+54FziHNirA1K0JTpaRj5z3MHRh9LQTTF7IqQL/uIBF3OMwCOVwoh+NRlpOCNQVRJH0C1CBWZOUYc463OYTNAZMlj6CgMZlnqdzFC6eHz+a8lw8V49MP0RyyX/bqKy+zg+QKfcjrYVwvJ3WXgtpRpvCSVPs26f/A8DZYG2jZnmqn3af9QrWpfTAFzPsz7DNq1dVIKI0e6WaTNVrVXSNulUpcaJIeGdhpAvNlWqfoY37kIx8eHnnkvSm5/++v/3r4zvd+kJFS156a+T01N4MmKQHi6SIMxLCRkTE7c/Ywn512hdF6scFRIVrGluFh93bCKLB/0N3SMv/yooIv/3X+XcqoMPTYn1RoCQvFRLfhyA1i4HLVlyOyKhEtuV26HmewDL70W18afvu3/83wJOceZeM0cDaAGPWpr05zz1v/7s9D/tBn2v4dzW5oMqxGUyt6j9wz078NtdyhJX/6K4wZGaUAahnYUo4z/MuvfGX4xt9+dXj11VcZwGB1vxOyxF2jNZYZZO/ICZWr8Gn3G+4tSlnbmIQkTxOVIuc7ppsFqIRRg7Z4ui6M0jum1exKa7l66TAdrvIYSpK3EEHDEOYVN0TZcodakCmMDZAKhxXDSVQ++VhkWmOWFT/nVlgyxk76A1Z+fPKzn+Wowk8y6XwmJqam5g5CcJuDnp77p39keuEqc4UwNXwnU6k5FCLNSzUgH/Tv6uh8GSxOQZCJoWeOvl22lZE9hVKY9JcsVfLhaqAc9WjZEHmdBeW32OWxADOpFew7apmIy4Xkjpi+7/HHh/vYJ/nT559nnu5vhxcYfOLAVMrdEVMaXMiwLjx8SsKtH8taZnblilNOXUAM0VU5k0fD+U75Gx0cRCu/4gjBm+vCGMD4FR4xJFHwWCaGlxNvT6u/e0SKEB7mZaNTq2uKJtsWrRJZKfeQkEfz4xGVnuSwgCCbl4cffmj4D7/3u8Nv/uZv0kdn0zeWRo20V7ipd54qSqa/Y//ojfCtfH/Y9VxkAMdCMZM98jhTh6MJCHuiEWwpvdHIVv+fnntu+OrXv8ZObXbQv/BiGMo1km5PWqdlV5vaetk22PfJWkNbthQojMO/HQYQUnTASlwncJx+zLd4FHOWMCK29peoDP43J52Hs2zcgoEGhXrkCo/xJwgILYZwBFXfvmQrOFpcqUD25CsAaHgwaU45CrLDmk3uVHzw4ctskv3E8P7H34+5yGlvCMMco623GRn9px//MKtithA4nUc5ug5TEzMajbLZRgAyAW6ZkJjkpa8H17gUTLoVSPdmOmhkOVqm9qcsRY9FNL65zZH/aAjX+UqLWmyVRRSn2TL15Ac/giA+BtTM8BTrfb/CwVEHwLoMb2dXTUMXhDrfhUF9moa0zCCd8orfah8bLMun14s0GG5NyPDSYWM3h2YNT4CrXD2nfFemu7jCNyYWJ6b+3rze5jHHiLDQZcVZgOLlEVryktjCWJfyjCPZWidkFasDodRSwfL5H//D7w3/5b/8Z8Y5HDWn/02YDUJvvBN99GMauv7sQfreKxeT0VQFsue5hLO+jdgLXDS2DKUJVzhT9OfDl//0y8Pf/PVfs3j7pTDEAkK4i7nm/Nb+jKNWTILDEEhhqFAOZGx37kuVAmgaXUCiKfnutIwFrdNFKBA6Y/LLQ/jKeFgifoZ1PL531yu9f48LbPpu9VTRVXNRaRmnvymuMpyawUUBWSdAvljwQlkwF0nL6traJx5/b8y/i5cuxdQ2r2usCb361lXm+17LpL4LyBVCNw0rKNLhnKlzsm7QtRz1szsg/R6WpROX332DryOZalgFsi+YdqrBjcqawxaIGvnyQ+/hsOEnhwvMR965dWf4xx//GE34AoNrr0G8g0oMWtHgHswxV6kg8u6iASoudKQMrVK91Igwp+UC+vxBbYRUGlNe+REAJqZo7SNLu3mq+ugAxijRMGaFmab+wvhe4b0/aohOXIb9/8S9W8yu6Vnf96z9mpk14/EOiB2DPTbG4Bgc2wfBFBIhpY1CSrqJaKRUagU5aKsEp2lyUvXARz1oe9BWqgJRFSmlhSoiEEJolYhAGyChARzv8A6PPZ4xY4/HM+NZns3azFqrv9//f1/v+3zfrDFJW6n39z3v8zz3fd3X/rp3z846bueRwZRzcaoXGg0bCzHJg3X20w/LMw+l6bDTcRpgT3kfiz3vetc7tx/7sR9Lw6VuXSyzqSldGQyT69fTnnN0SIE9nJ08OATjyezjWVp9mJ4WygvLvk3tZ5nY+6Ja3yPjKh0W5AZiX27EnSFenMlc0JYYBakcWmSZjRE4cvhnIPYmggouVQZckSFfcVLUQ6+3F6zGyB0YVlqpSmkr6ztZTH505XQSbp9q8OZY5vksOKQ1p4g2el8lx4PHGZSCufLrPMTnqS6Dx7dnnLnxHCuv3NdJL/kdvDP0Hd/xjtxrCpE0UlfpLX1H6Zd4EPr3v/hoaLvSnMeVbH35662HHBFgLjJkZBJ+KptPivgeHKcNLst7C5uLZL5LR0mdL72K5yF97b4Ngk9fvNpHjrgD5aMf/hg3WX84vbT1z3OdkQ9qZXEn95wik3bKtATnVHWl6oIHAcpJhsfQMCgdxmpFLvBoSS1obWSoPYIAGGoih3o2eGqPscPoVbU24Bq0nus5x2DUJuXGuj5K1gUisMNr+2rrSE/eGozKEL3wayDKU+2snJbIV7IjkzdzuOrqjfvv+u4/sv1nf/2vbW/h2uR1Vqlz+SOwymdd63Wfk/Ujf0NrSuV8jt2/QjBWwDgm4PkePcz4+ejf5NGln/npn94+y7zCRYAuYdNHoNSXULiNeFRNq1cHLUExmq9p6uxy2WOPppVT0dNiNl/FlOUxgvkm5DvsixNlxhlWAfjvopcDvtYWz8DDERV6rgtB19iCJ1qFE3DWTXlBwowNiy+x8tEpnxLwWuB5blvjSjNzkI37Si9ur3+dF5zftL3t27+Dr01xMZ4CG6urPInxFK/UuM51wWc59n06vqHc63AGoHq2V/Rm9GgjvRe8Qk99eW3SGyoMKHtF5+o+APwqaJh/hftlvSZ5m0D//Oe+kJsRHud2vSe/+pVckzzv7XTIfsuXaEGr8aE9sRn5Bto8E2nPkUUTdUCZK7LqIhf5tXF0YiiKioUteL1JQ63Bol8aq5e4rpwbrgulOg/6HXs3z0DEPiBrw7x64NTTboZRUGdRxYWwGS3k9sbwHk7AgRGoUi+EY8osMckzp6Tm2HsaPF3tNuhZOWeBzIe43/GOd2x/+cf/0vZd3/mOjBS9dmq14Xv2Yht8Pa78pRBWDvTNOwSjjBx9kv6JLt0W2QdW/WrvRz/2se1//Ft/k9dZfAgHYQhGa+ytaj6mwsNwMK6xuOsEYTM/0ElUPn8KbxqnP8lsinZliF27WWNthelytnk1QHNp1fanux5MB9on6Q4P+/zTx3v+VJLXmcyrkdui7+tkAYCMcIaxTF5isFPO29sIprPMiR02nbnDyAEevR7pEwVvfeih7a1v4QkQL0TTsjsN8BKRlzT6bcSnQ/cGq5031h054o9mCYq8JY6XWfkuHF8j6UuXO/9kgYfeQZ6dL37hkUe4VPL17Zmnn9m++iSfeGNJOz0nY2tfnJx7TLGh8zmUFD1V09Wh8nvPrXflWG4D5esyhDmHrzi/sh/2XB3bONhQeC1UHp/jAeUkAOw9vYG9wWiuNOqi2kyeTeK9w40E+cgr9NoAGOTwDI3TSR5Thn+41098XUp6JGnYO5fMoaq8jk9I+zDfhV7O9RkDEfmsm8sk6OGhh96y/dW/+oH0lL6v1h5SbdR3oE4908kO5MjzsGGOx+H8iUc/ObxYVz2HIa9PuYzrS4Z+9Vd/dfvJn/zJ7XNfeIShzuvystwXeWu0z/8xOiIoGxAuJmgAKgXRiRgJdrPLcBSnoEupsxfM4U+FcH9U1gi4UB12C0XOi8d6ygFzd0mDZ0/zNNhpGOcOpml19/BRZpSv3A6/oc251B1ue6OATpXPg6eBcD7jPA9noSe7jLO+jvtcX/ctfyg92QO8T8frsb4W0RGDTpuFGgMdYcXvM4m54Rp8LjLYI/jZ8K/Tq/o0x1WujX2N9536Wo1n6WXdO6RM73eHsGE4ykCT0Qx84fR2Dd5a5vtXOWFr6vLVHOuWIlG3BM1SvD2jwTiXKKydy1XCoZI4mhnoRF3RnGUeqo5rg2MwllJ/W64X9RKOucJXH1IxifGYvANKBoc3zZJrqTuZ1CXNDkHuEFlwfdYeuPyZP0GUPGwV+ZBT2t7MAufbW9/2lu0DH/hxnp98R27SOAxZQdl6yieHQtcnT3J75DtQcweOQsq4TDjU8bqgrzn8mz/xE9s/+KVfRLm0fhd4rQQttHeY0IzHKAw4cFBbK0fox8CRzGlnl0GdWRqlNcY4MhVlq3CFWJyfxnOEfvnR0LAFk87d6saMEiAJ/43S4GuLeXdYMdljzCqjqKFMwDH5N+CUZ4hgWHHmu3+MPHLBm9U5mjQVlgWf87zdTkoP8gIs547OY5TDN9SJ50VuBjjLaESH8507NpzeNO5Fe7+K5c0Tc9XW+1dtFrJ6SW1j4pY25hZDndIWw9vzLLAX73Sh3Po7fEvfsOhwrnowz0ZH53Xe6AjB5K+j3dQFxr1BzmFkNyd1kafz/rsHo7gMxOGi6KHHQRqpELDuMU0D3N61Zb0JQeAVpDBi4yWj8mQwZp0jfLWhsbExyadwnRcTwspJD+uFfxtX3/H6gf/0r2SE4+jlHqYi0St161vyWzru+X+FBFyDUQcpcZfCjfBHH3ts+4mf+Bvbr/zyL+cJAIeg1693COZqqPPIDDM0qCRUEEfDiHldnCGPAFS4MnfkZX8eoY9FqePpHmZX/LJD6+9xjDJPAi5eoxLVIsf/amnPz9BwLpenReDBFjRYtSE6Se/IcC7XtMizp3Fpw2DNP3VV/U3mlj4CdZl7OvMqSe0ALoEyD2Kom1EH9dMzUCJ99a2juOrq3Tu5tzIr2VAgAHSA2wSe9kivCD6vk1kgn+Y5l+oxODlQM0myCE+58RsYA3mCca8HYR3y2hiNHURr6hDRIa78S0XS0NbJD6n8HU53B7MG0OBS5k4ZcN3IptzHJNHhvnv5GFKl6wV7AopgLK9USTDWN8amtlIj4+y9G8djb9jX5l4Cucgw/11/5Du3H//AX9ne9KY3ERcvcvOAK93KB3FHGxwNX9V6Mg4/U56L/jLgIoGLA6/ijvbf+PXf2P6b//q/ylP29z/4ur5ZLUMkA8zWRQM7d5JkUan0CLdIyMrSfXJUyuk0Qpo/xhmlF1aF7yvWgAO7L6ti2+vs8e1himqPr1RO/1pnaJwum3Nh3GaOoaPlpoToo3wCkKDTAFkyd3GBHHuJNn1g49gnJJyf61eaziFshk3BaQNoQyMoP2ze5pa3sLmYQ2DlrW84ik4CyTzl4g3myuAlkN4zWufVXrpdcKX1twJBLQ0OXUxSQwf5Y2T4ZchvPaAONhnd6j/qYRr0Q93wXV2UdTFAAyZProQftEGpx61TWH9tzL3maH0D3qGnQemKboOxvOzxaMNy3EAo7QYhegNPXu8RGIO85WkZoaIORr7uDUID1GbUyx/QAugyD3Xf4RWd73rXd7Oo8+Pb2972EJ3WC0wdXF22Md3zxKmiqWd2kzxW6wlGJ8Z5AzdDu3/wi7+w/ff/3X/L3Rov5KVIL3DvqK85zHUk+FUMkw5mbymx9Hx6AdvREDkN7OmfKunlPaVwcwllFHCS7SpsAnZaMWm6WWcUOHl72gO/z9sfT13z9vX3+QM/tIQbZ5QvHcW8fYKr2GDgHJo6l2yyrH91NDTM6xq9TS4BEyAaQEcX6n7hNnDUhnHbIOqqpXbySZlaSSdzlVtb0CPLVmyEngl0mACnfLD4tpzyNrT3/NOJJNUudUYzohP17TFbbjk7yCQE/LGAlNVfAHTiabjM29ModH/jwFmV722CDo7ddH6nT3PJqfUVCH0pG75bTmoPZRr6aCj6MxANKHXrYsc0HlIe3vrKSTA5RCDFzj0IjdxW5xzbMhqIe8BnQN5gFfw7v/O7th/9i/8hbxj4o7mlTnX49Iq8Rl+pVS7XYXarGdjOPP75373jRfzHHnts+4Wf+7vb3/25n4V1sHjRGOG1kQ+fajv9IGN1IDRD8oDN8MnWEaUsICBIesounWRK5d09nYTT1E2dJzTwzHG4Iaybyf3MGZLBjwaZFOVLNoJoRE9OBnBhxXfMN29ojFI9n+MJMvNEbb77aVjE5bnpeIsWXg4c66yWcoyi4Sd15VnlpodkR71VPTj8mWANX1Rl4FV+dHrqJUwwnuUvucpGvssO6ZFcyQRH5qLqgGjOjfjk5pqmZfDWTVqMgvSFRL2jgc6d5GPSzB09D09r396s3Ose6nwCVFhpmKaOweYijPxoy3O0IF0VFtagaeswAW3vKD/Dr7ik4bl3G03D3x60DUIDz4AqbetMMOrvqqTDY/c7GI6dbti4jbyuYl8gKF0xRlPb61734PZDP/Sntx/+4T/LuktHJY5YtOBRxiNOaZvM4VbIS3ye6+9vP/0//9T22Be/SMvhYzZ8tZfeEJKggIHUdVhqK2VFnatHnMK8Tn1UKBKk3Hb3ZDo668n8k2cqdxhXiG+UVNYRVsjydTKvGLLIEp5sSBwO7pVivVOBGxW17t4ozTn+SsvR3CTRFvURvzDlKaGHQakAyTOzBOkJLba3mN3KPIM54MDobHudgMuXR4kgDSA9nDdXNElHm6n76saFH6nmlr6YpHbx0bUEPOW1MXscR4ezIRF/AlDZZBd+vMfTpI1qZ/KUI7n+qEe3FMfJdZVuNpY4HUPqBqkNagPH8xlZOEc1eT7JYKlOJ8/9NIhH6nLSRrs0PbdeuFo3niiTATuBLY3II8agKu69VMLkNTE0Sq5eq1FaDC5DUYce1+9Y+i6gZ3gHz0/91E9z7/FXtx/7sR9lXklPzGhjT0tc+1RroIs3fMtrP/iTP/k3+q5Rnoj2O4K+OVrl+REWFxxUjSNSdeOEP1u4lvNwv8d9OL6bA98t71DhDziw7tR3Pw6+zzsei0wTHJNCey1M49jz+Cd864wsQtkYUNsf0uDMyfo5nTe8TB33+xZ76KThgpRDULG3hRdpadnDVb/lzcsNqtpGUf3bYeL+4a+OJv/yXDnmmyBpc3RgiuKcYGgvIV6QLHFzHS7BTiCy12nsMU0GpJs9k1UyVUFfDvUy9wIJ0GIOvDIqd4PKY+j7ZwSS1LsqHd24r14akMI0UKgTu3hOL36AK35xTJrj9mzWQz8oKqOScAdu/rRpZFOfroaimKFhHVNwgXtwmCfM7D2WtPIHyDIz2LKDrgH7ADdbfOSjH0nd7/medzO85tlebxhYzA7OIOZnkd/OPffskx98PnfSXOCltF9fJYzPsbqGl3EJObw5zGHMCIqiGWWZO2kI7ssmb2D+Vfd7YaKYnXCeV8EaWF3pfDK6RCXTp+s901ge6Vyt17rpBSwBThjxmHq8TpqVvHUYHPtj6Up6FimGRobVoEm7GxjDSrzjwPJFefgEQQUhh0DMNjaZQC+v9o5d0Bg82q3yu7dHlKZBlkAjOAJvEELLa6gNxI5IGoDHnmrYGDkCTw/pYo88quWIwZF1PVGXFmdT36tnk58G87F3lHaGkRIygN2LJYQ5sEeGT2mpU3Hsk3AzzDR/itESPb49ee1b/zBPuUsnOpHOSvp4yyanfAghn9pwwMPTyjfPebPv6BHGr3n5Ydo/8QN/HHm5DrwaOLGKXxlCx/O1nX/6Gb5HD3PoKw8Ev8SA2OcNdQtbUkOxrQwtAsw4fxhhRWySyTKosjS7CqnCJPj/VTqNS7onkzSP9IYnYcKPQyKOc2mBuvY4JneYGJmt30CKoo6oBEsauTwRRh72eftjYVRDg7kBbnnq2LjS0Hm9UYdQ1w7PXBvMfESuDvRBQj2HleXV0zqYNq7GHc0YjJVhZJfW4frf4le+xGfKS4aLAMLcuQcNLxeMXOKJEwPbW8M8h2ZWMcuNU1zvqnHtQJ14qWXuWw0RK5AWyfA4w1R59sn7dtZaAR8iz/zolwIkTeCnFwaX5RmeB2dhxVebAWvc2hggVxqfihqcUaD4JGh9h3zKyHF4p7Ky2PiFaxRcfvQbYG1YKJmGPDgWr65w+z5a333kN1Ce571E17ml8Uq+B0M9Gn/lMklLhTgKCh3yWNhTMJbcUehLvKsv17DiqBgxZBGqtZkv6PxT1cymKO2UU45iBub/zV4eR4gjHhV6clvcsJNHebWRWDDwN0kDGXhpOFTOAb+S6gQqa6CX4tap+Ew666Q97OTNXr4zqliNlI5qj5LejCFhrsuCQAdy/uStbO67OnlkQrrpUejF7JkCQ504mzzDz6wWOqfxZgEflp1ez9baYVrnaDaxNgq+vZwHjxlGXeM1Kb4Y2UCMjOpln6A/OMy2WNl8SVicdQI6dU7VxR7R7MJp4763Z+pTz3ZENOp29CucdQuDnsRPnryf7A1DITxeYs3DDw55WSdBa6WlSjF44/f0atby2L1GT8PIoQ31XFcdX/HxMQ2VRkn4XQqf8OWDEjYM9/CKlEcffWT72Mc+Hhvkeij475bKOfZ//atf9UHn8erJ61GGoO98yZDNuhh8FNcWXnQ4c1pg+a9SFGjyThMcBz6d/y97bv2TODr0CHMw2OGlMOZHrUE99Q57SxVUpbDP7WQe77ahM3WGxzmfvfkDOzDuxf9K+YVrsOuQbgZd53Q240KgW+xhs36c4xn47YXHUUujTpWhE+XHvAaO2PZJuOBfDUP1R0BBUNvWzvbSNn5AohfpuW9ZZeuQuHzbiJRP4WkksuxvGfkSp27xtLHRR4pvzb0Wg956KayVSmsVkOWn6SgMHflpg3Lkc0HCq7fleTG/eBQz9KgrYgNNfqUvqfLlgTQXXY4NPnkoHLBST10aS+jbYUUvEj7Ix/OnBGIbCXgE7nleM/PVJ7+yfR/v1TE4vVHAQD6RrL8y0LQXTxmza3wC8TYObeuEqIc6Mq7Cy5yKnpZJJVWQ9DK7OlNZB/COHnH8/5nkOUY+iHWaIc/32zfm9oDvG4Bp4NNJ52jPsHTM41VeV0SrNv9MEbpgkmDlvA2ciLp1mX8Cp9jlRf1PQM155LXmkn1grFUYbmXU7nuxM3zT1jqjW4PIb1fo7FN3GorKKG8Gh3M/IdaIhDydMqOBUw6wP00vRC39zmHePmVeSm/hUNtLf9UH1DwHt3gGl72nHYrXI13dhKGgSt8KXHtSCRyJjE/bC0o77aC1QGpcOOfsnnPts26mEKTYPZJUbTK690Vir+KzDB9jIecX/t7Pp8f2wQrpjV12bAQH0rQV8y6MPGFgcwJijWTMzmqfTy4ojILbMs0kvC3RGvIF5ckf4RuoJ/P/Zc9GuL2jna5bhULoD0hezmhjY6NjA4Txdpst6myD6pVwf6P8g7Ix1xyPETxfPmIpfLDhZfzGAbwZwGcw/UPdy4HKzVEHwlpmCOMgDDP5wVkY2biNl0BodC/9Sa5QZoELmr4ZzUZApmzxHcCDNuW7KuFZeiYXW7LCCsDwVNf0enQD3B5gemzrSH946RDbwK3rOzowpcFflzWS4Q/1/OhrVpgDZ2N2bIyk0c3eCBmjX+fW7b2if8QziH0apij1450+gM27gMCVxgAb5FUd7NOwqE/mltrGxkX+j3KPPrgzKlMM58vGjzq+kE/Z/dIv/RJPzXwhN/97/+roYvwgTPFz3pdJ6YCyFkfRvCqA1g2UEcrKRC0lJAA9H0QyZr1RdIQXbqW2ZKdahCn8l9jvlTbgp2ncDWZgZy9M+E4GMmq0ZY+DWdIrABBlTM1vvBePLec++byfOI692r40WgwvGtrkXR8GpRewQ9qGcPFreZ3WnqCcpswCkpYqPeuAD/TKlTewebxwxcapru0Wv9qdLiENQSmDsRfDnVcFF/nTI06vNP5iDFdZI78ylKaBHZRAkJs/wcXlamYexUJ+9eedaLIue9UAByTlDBMy4rkbwTDB2HLtKuzw0EbKc3vKaUCCQgSk8dWg51zuMvwEyIe0Teow9Dy2EeL/8EIr8sY+tf9CTH05VXY/CegnLM5x6+KzvGbl0cce5TnWN9JjM1TlVSYiP/BGHROv/6S10DhQd8YouhGSzAhpIKK1KC7KQooRREfxuK1FYYq6vyP4Pi8GQEDptHvfl778uPzIQvGf4Q6SY1IR8B/VHXPvfrScAjxJs5cP/mhvI0sm/YLgJK+U5EnZ6gTSP6Y4n45ur7dGGMdSkdZJ1Ft8Vt0Hl/qwDoZZgWc9Vyb1B2WU7gSHOcKHaYZTZRn85CmptrF89Ce9O47HPEjd/BZHcvyRRq7G4hJoJRPYOo58TCAcHzAWl1upizpykxe/ESXpzm3XInoJRZZzeYEu3IDxs24KbVvocBQySeq2DdDREOaJf9LINuezbyOEHOhxfDBvYliyl19+oW9QaPM8uicCZJCCOgx+TjyOYcynBz2ZlF9czU0HzY9r42cIPL+Y5VfAtNstHwg4X7+Jbay3eEJW750zEI8CFjGKcsjDn6S9W8vhT+sdYXunR5mwrEPZMqcgbvs8gzbDF0Dm2P0flOJ0ADl3KQ/7GjqcPB35GiNZb+oeawxc+Uw+h+KN0s0AZFd6rLo7Kg3xH50lVRfNONPLmC1tAyXfG8TxNZLXonQKwdMY7Kirn9IqR9plH7yWlcwaSimFTkbmXNZQB/Zs/EbGhEoqiVP9u4295FEaDuts+JSPPXIWj7fT6cRtxEp/tKW9de7io+Ih7RcvuoqMDwA7iz7V+Mjaagd75FQaNjSmI/7qJpn8VL/laWQSZ3WryFOWepyHF6oZRG66klO20EZvCeJ1Xn7u5lNDv3vQcBspQ3b2foLv137j1/m8/dfi+9OgxTd31bCXzm1VGUcUD0kxOMr3L3fiMAbOuB1G986t6DN8EU8MoTGQ6rj1vEpo64+MJGE6QfbsG6XBPfUGV1jXNRIQJ4NCfA34yjb4DdxuyzDCxYHgB4RhjZ+TjjC1j3txK+/dks4qT3kKntulGmhgjFMc9VRHl2Koht9pvJTR5HmX4z1fBuKoPZ+t7Oi0c2B1JFfe7ufwa3/Bmez0RjqgvVv52QdAez+X4sXjy62IfeZb5Nt7QV6bafM0CPAzizRjb2mYFvs98bfGY9e61ncl155QP/Qdui8tGPXlHG0auvpY5be3Gx2Nv7WBrx4ktdd35q+s1vqS6AQAsrtvY4kO0Ja8SHpk8IXQvoiqj62JcZ+049EOllg3OLCjXuhCnNcwtZFzyd/5nQ9tn/rkJ/mWCbfOcQ+d8/s8eUO9SdiMAhWcywK6H73kikjzhGVanovRnW5btYyMYNbvcTF73mthXg9Lv1rB47itOwxUKXcx3ADs9sIq3CslFTJJ2G+U9sW5XcsMHMwtIwC9OQfiKS5l0cimNgbt5V3qP+bt5AOnBoqRxJ1UfOqoWy8EjzNMqzmrpqXnUKutceUqjnFUddLAhFPo6Qg+3Gu/5nYgXQYOvwaCqY7b3qNzSxsZrmfyxAES4jQdwqmH0tSRbQTKh1MdN/Uw+lGd4jJw9w2u/PtXmnXqODb5LuTYcBQGv0MWlWS5QVI7SFPcO32UjeTXLrWB/PmGBW9Q8LKCc7mpV1z+UhnwsVOH4rx1nVec+MaE4kNe4RJmBu3JBlDC2lKZesMAjQzwXpfXjvf6tTVWVz/y4Q+lbmybBgGsiKiYJjoCBFVgz/iJqAgq8jipLblOyObUUoLjlNZNNfZpmWSGjOAAWeFsfUeh7Un6mojm997DxU2w9WdwD/45n/0OdHdYyruMOPH03Pv8OlJzrGUrVeaR3QwNmQN5G6ftPZnqwG0MaA+TFhVd7ZNoNH6Uq27jQO7JSg/ZlrqBKLS9XfejMyt7XBl0Jpfue10wFfgpH66qEnog95qdXDs9dCMzODwyya9beIOc772RH/myB/ZJCfXjyuhL3Azgvk9HaH95MMTrI1CI7OXRhqf862RAw752pkFefEwwLI8LD/KfG+fF2urgcWV22SQ66DCz5UEmgcDYqCSoOM+3MPHV4hdZ+Y2fiY6s2axPcTJG37q0fntBHEsneR9Uek95aMOrHMK6TRKH+EavWamHE5/MOcc7o36Tb49+/pHPYx8+dOujH4420S/OFx7ouAHWsdgbpvqfomUlCoK6FwFO2lGlXIdI7oEbjEgGLAbSlsiPraS1qGXSes9dIhpII2gwYTT2LD33fJywLVGIrZ8ILS21ukuTv8s6HFbZBpB1yqmOZMpQZMlhqXh95hC2+hZt8jJKWMvuGktnGfq5tEB9g1cnd+k/VJbDj3GkVTL2NNXfDHXlT96m3HN7FOsagMJNMm91GsALB5+I0mN7lg7DhBdnXBO44TfP82El0JB8LrXL7aN3bU1p8Dk6sLe2LA0ydI58lmbxGg7tMdTV4UI99KPTtAo2WiEq4fiJQ87qonXlx/nmkReHy+raGuqiW/iBDu82MDdrGr4x3ACgtsDYtav4ubFC/Uyvqw8gj7Aijt6oa9J+HtrTW2wjKx475nO+EJdkj59CAK0b+RdshtxIFv8hkvRz33t7L6/O/MoTT20f+u1/wRsBvo1ely9T0/BBHYUiH75DHSu6QUXFUaCLKmzmUXDRVryMuJADhib3ZMu8DCmjfApiQRj1MMzrNAaBrX8h2nMaiC0bA5jfvL5sqQKnan46DyzMMfcbH8ljOZP2XohXqmeF2Y6BcFdowJQ/8032o57c2bICY3KVxTRO5fHI18bJnCbPB37yjnsw6i2LWpxTB8MIXirRnrPoZnBO8FvfatbNPFQvWylH5NswprItc/DLh5XEcwx0Ha1349TWWBGNqSsxsVl9JUdZGWlNBnv58OK8f8JXh468hG0gdAqhj2hvhsEMhX1RV5ycOl4X9KNEBmIt675Ort+a4A548jPqWKO4sQPlYVNQ8Lgukp42erA2pcoeXXjeNPaUZ3H3Tipp6ePdJm7smBTWb2T+k3/y63ys9sk0DH5iQZ5nKsGlDRiAkRUvYENwKmbpGaV0VUmA9lB+7DPc21JjeGFVWBQJ4tjMPQyGYSXl2J7WS1cmDqMgi3SUtrQd/npuGicMXoLYFlVHmHz3zkvtlcT3ByVhbGGPaTFzzDhxZE/jNolZWQ4hS2pPNb3V6uTi8JHtFGpPZVGes/jA2V4WMYrXgDIAlXnw2MtO4yXcJMvFOsPaPNZDjte2gssWmT/1joUCO7rLNURy5rxP0ONG0ge2tLt3BDB8SzI9Bc4iDOAr9Xz0AebimGL2uDh8WAeeoldlrE+pz4hjMBsQ+gAZtyWgY9q365cLX/CkV7GmuB3NgZst3700DyXM9dSR8yxfmoos2gGYJJVFcrEl5KRNnrow6ZsmweTBRs3NVX2Z9PWhDfraLLqminryuU3RaFP5vMLXpj//+c9vH/vdj20/+IM/uH2dF05f4bHFzI2BOw+6ILWb7Dyq7RuZSZoygeiZQnjKoS2v+0z4c7DEE0bYAIGbE53Lc4M2w99IZp7KKX2rmDrZJ3gVIFYTUXHrcMKPgwQvZaKb1Lw5O+6LSxHE11Ta8uf5MX+VZieMEkUPLeC3BA2eOCU4yyWQGCHGh6nhxfoC9kZ753vHIe7gUoZx9I4M5JUpxJoOHEivgzpYHcCsoeWx9EYlajceAa6OPByZ9NHk4gAyOqkMt7kWKIZZRXQ11RJXOsVV2USqxEtqcFeXoZZ8ZTHp2zLjV4OF9yVO6XWtixOdIQhKmV91ZA8YNPJLDQPfDoOgiK4JQnkQdq7PmR9qVDQoKWWjPpmWFT/51DO5k/PWM8+gWmXi6qGgKwlduuJwc0QQvEFk8ciuwGa2g1L+jAjJ8i42h8a/9mu/vv2x731/8n1Prn7ty5HPvfrB13xQPArueBmaByZd2VoshsERBkpJuqnXsYSRFVlwyGBG2joPLVypgsyZim+h+3GmyRuoCc4gHW5WPQPMVtQeUrgYSA3fJZW29Pab/PEpNe6SMIlv6EuixzqBQzpbOTeNAbBk2LtTZPuhed2FzVnecbN4CagwGX5L58ijOEWUoAfxkb5EmkY3c+6+PWFhxCvOwSt2Nxs+G8DSUFfWPAZjnAReDQAtaLlDKh8UMIrc1y/g0XOwTgMWRASo74TpG9vqfMmPjns0hzaCaQzIHhmF6K1wytFNHmpz8bbxTRnFPgi9RIhN9Lz0pMgeOR2trZQRCMxL6276i86lSnltWt33+ihUqtpVX56qH+FnGiUz8uvWWGzYe259/cICdZbLg4xa7udjQ0888Xi+kvyH3vDGPBan/5oc/C2EMEW060iKlA/T6DQiXimE52TtbQdmg0/qw9CqF3mor1PkWS8MHUZTt06+N4zZDSgxNlh7vmNi1XVn3b1znMYV0FM/wtQ5GxwG4ih36rs3b+/wg6b8SLw57pTP62Mv4XA3WWl0u8HN3y8xLPa2L1cFI5H6wTAqv5sON8FSGaXtNnqYHn3oz97y0dHwPWXuW64TwR+NjG+Gzw3UzFP4+AD2pQFat36JZ/DFMfGi9BTwMQ1UAiket5w2jt4AFGboDQ+VQ0aqKlAh15T2uHmlJb3MFYE5+ojw0isOcU3SPoGXVxs5C6gon64mh/8FPzoV5O66ssRUf8q0izM8MLaVAY/LhXm3+zXomzdynCketJZJRLRkPfq4tfPcJvy+wGfc/8WHP4JuiQfXaFgscrrHN3eNSEn5AU7mX/YOYiMJmKVpEEgoQTaFlnNs3JkAKa85K6wLaDqqOBv9ZQ5ZgG0vpBH3huxxDbBQvWxXGIO180wBRuF1Gp1oH/hFoYEcx8MONPmYCc+7+dzfC7wU2HmAPNb5FUoc7itg83Xs0hLPIS3hhWlLbx2FNK0JvboAn41frdZS+d7roOddKBl+b3K3/6RxJoev47zD48C4rz5KSmeOc5Jf/cATelcW851Lj6wp1/WMYhOVzZNG37/Ksc4QGGTKYhzn9ErDm/QqB+UYW1z611G3lh/hOYv+x/by0/rauPrXwSQrv87nhM2L0hjmOmQEMOW+OEt+u6DipZ4UKYkgSaWjTNW9meoyMqKU29wsq2+LUCtGHnplfdk66spFFwtSBiw1zOmIn3PPBG95dah/eTOFtD7+8X4S8AGe7LCRPMeNAYwEHAroMFagRVEwEWkp92yGp8QMLt0pwoQayiEvGz9jAMAxQM8VsckKFJA0SuYAwS4+ziOopcIRSBn9dx+VxCjyFPUIuEvFa4Y8qABpeTxpePNNBgae5+5f5EtC0h/HrnOWR3mJYZElcxcsJNwsgEgoTrXkcjX1mDx2Qx56St8+fcvXICp7WiPlXLpAduWfTWNP8Lh4Ux6Ozju6UmXq0sCsrHv6kKXc+g0CdaMz06PkuiK2dnUy181chPDYt2Fra3RD5TSk9KgubiBpZY2P2JtXv/kEBDqRx+KvH1V2CcqHQVX4CH36h7KOFJxuVIbBr9nd7PsuGGTrHOZ6dxH+2lVSAx7bsHnzO8MS5NFWRw88kq2u1Ys+UP9rKSX1TegoUPg+VDQQ8T/K/CqVZcLrr/VLbMURTUU6uLGT1eMzwNs7XuQ64+Nf/H0+QPRwOgR5sFE7b8uFiAgibVscmFMWhM2ckWNYstTh7yHy05KqGAiYNLyHbh6HSfYq1TmFK0YLNHU6H2h9j4fxWR0UCdUDG3wLPzkLj3QDAagOXtjmTUtXZxTKYY1OqzKHj3FSileq8n0Brfw0aEaGgdntQSyX5VQ4rjHSIxf/0kvA27DJrosO/o28YhC+/Mvv9ArNs/oEvw2CybrWmRXZcWBxTRLGfPGOzrz2l9vjcNm8TQ69EWccixM7ZbjX3j1P/JPndx9rE7zED1DaGBodzBfVj/xmegND+oSN7Bl6lvZ8XoT3YV+ZkJ9enzVw5el00pf6eFaD1/LU9Edw9umdwOczkmrVXvcWo6zoRBo4qb2i+mmQuD+mBNDSo7mFa08rz8nzR/3lTNL98zy+GoVB0/wwuOwrvAipW1S1s7zF/wlav/p8iRGZXxn7nd/60Pae97wvvCsXbwNsC3iCeTDltiRo2FDlC7AAqGyv5yiQb2Cm/iFFGZwb1s0uI7LZ96XAZ3phYDLEqwIbHOLr1nKdfgAAQABJREFUsnH4iKFbXyHE53AlC0yhuCjEqFLouTyIT77CY3oxnanL0W0YHAW0XHjrVp4GYFdqjzA6vHAzrxS+9aqH1A8af+hhI4AU1J1tZF1iAjsZ6FSa/MKvDQSwyGLWOMTdVlFnDls5HVaXT2mdhpdf4aQr7gQsjpAAPutqKrriLxe+2Uu7PCIvDf1FAifWdNQEnsOwVWIHZ7aeAaCNsFf2DQhHRtJQTheFbjusBudRj/LS4XdlVxeOUOwda0PrB68rqPyVdP3LEmXywWyKQyt2SWCqS/1H36hup2FSTvGq8ybn8A27GdkglaY5Jo7zwdoEufK0cnG1sxE+IwgyJ3+PwB6x781pYF7iyf9PfPIT2xNPPrG9nm9lvsRqM22dlxsgD/62ZiBjYl9DagSp+O+PxgUuPiC3utoxqTBb3gxvKJuZji3u6SSeKG8V7I+rCfGXgsLNvbMFX20WQasScosW/Md0sgRyFZvLLxznWTW1H0UVb/EcfxscyteAFltaehndpfZOIRJ9ycBZjQ7u6GgHazDqpuIc3brKGgc9egP8K4/D5zrY6R5bPupcyqqTlacGbvHr5OJoGocQvrrPUI7AUfrpnYWV65qnfNlTRjp1pWwBsoekJhuSql6SgWjweIylKc43PFJCmBvRyXRX/q0fOayB/OnlQieQ5E462kidhl6yRscEMplx/hVw4nVrMpirJ+smaIc28M3Tx5VFCkoaqVN9sAw3sxfq5Yma4NbfGhfj9dAFuP7U0U6+/Cw1Fn54YTHfxnxq+/LjX96++fWv5zEr3pPrazc2vxmYlqyVPbZNz5ADIrPXaTSKbGc4xt7h+SQJe5NyAMhUzE6kNUbMmtYwgUIr014MqCjM8f00AtTF6tIbVUXZ9YwhB4yCe8sdu0iOUcEh3rNMlmMcEPlWNRW+77VEcuw1WmecXM4zClgBUyPL58ih0Ogh5zRAXjsjec0ow43Ft42cuJzvzJ9wqrpObfA1WIa2PZd1UHP0InzpUCe9qEEAtkNQa43qKgf8TI+gXu25ovvUIYN/9aMEecDXA7nb4ZwewpLgkt/w4/pCe1mv/WFCzsGDfr3zR6dvnVpN+6WhIbteU16VxyPL1Fdpl4cgCHfF1XN+16lv1DNl7k3entcU5Af/1QZpEOTRhs4llw6TC1eY0E8Gq+BcerhgL5moUtYSLR58Ynpyeu+JFxkbOHn0JhlTfz2ozh1ZZB2G85dYP7h09hJD1Re3zz/8yPa+9753u8Fn5zMNAB21VGaVFx7IUogojmOZtjW7yR0v3vVyICblSVS0N8iQ5hSAOMWVVj/HU6l7yyYpXIxIRpx1cK3WbuDcAylUjtz3pb9M6ilBIoiiVOasvXgtohpf/B0S7ZVex63DWV59dGhlzyEdUxkaeaYHja509KVHIRVr2O85xiDgpL8fZlrm3LA0XZqXXmrE2Abp9JCDx31hPGqShzq3uiu/aZwMFP7VsmizFzZn65eCBJQApDjZCjBX/PKNSRqYPOeob6APNyplS+8QjPUDJAj2OqhI2wDLT+xNvbyIigaJPvawlcOwEB4yD7SuwRCe5b+4CyWzh6Po3BVo7y7zZgWfOtGPooLYUGA1oM+rd/Vko4g8bONT2s6tsO6bOlpchSknH0Av3EeuBdcmhyIDksaqyPApPrQgXnn6OB8hvvrs1zmmUVcFXqjPPY1UmOV9HU9D20471ArvZISAiCiLI4BV5/M4xrNeeEOk9AzNr5N4sZoJPXScXzQJDQ0MZKoTqhzydEBwCD98ee6x/MTpYMSqwqQnCrrmIXV4SRBFq1Qip865Wu1QKt29IuvQ7amX8IGUvzpT+W2AIo+oo6TK0kBoYKAgigKwqC3eUZrO0MswwqpHnAwZ5EUDGYQ2BrMqaHl1KRzOc5CrqC3fpyz7kzG9pcUd8msDiNMADGfK5cgiNl5o0vMsmpWPa6gMsy6wIpiPwEgMIfQHn7yQHTf56KjJsHF0gLMnX/qUL58Jr4MfEB/kPbz6IrbH3jit7EhP5PYwXo6Trt+aNBmakYR89ZWGa+W3dzLQgCMw1EETx9BrY2qm+jRoXZMVVhLNG/1FN6k8esMP4rucwy9umDpjh/bg8ESP67uOjDM8NQ9F+JbxRx/7fW4g/8r2bd/2rb6/yFDDCGGwrd7RwJxTqhD9pp8cwqYMAm9+kopZKbBzEhUeTnYQp/NOnxefPKliFeLdFzkvo6lQzswPYPYxNOdppRdflWdoHHmdnFfal96xVDoTCEVtT2aL2gC03GuXe7jwTn54PKIKnjkVVx3ikJMD6/atbAZp3OOQb4NksAa/TnoqSS+9XPKXzPKRvwLXeXusXPZ+VFqro9ADfvjya0ozkrh86Z7KvXygvjA209lpSCgLx2SHpiZiSy6yyFtOKdeO9h7dt5ErV6vuYl8pXQewufdYDL3/FEoZvqqnQLGXepO6SBAY6LmUc1pfDdDaCC40CIEVBw9tOF08gKFI2aGq+Fn9CxwKTQoecFTC5hlJGd0wdG6D51srLuTDt1/4wiOpmy5GpA5DTUZ3x9c5BaGtXpkXraqyFzrHZ7CQMC1BHBRuO/8Rj5vOsIYW5YeebmjIaJmXcRuElyfwMXywoWjrDEbwyYn0TX49NkZdijff2aF/Dm0gcnjZ0RIv8mkweR45I194VAZ7PqjCk84jnNs4tvwKY5r94LZsji3vubg6qddBpo7l0iidDk/Na9KppFu9zCWNqStek/vZ5HGfyrcyCCu+Bc+Z/UwsQJ3YkzyhfPVHXYiz9ELKSMFKkhCfutCxfHWhq+7RefCXjpxI4www3KMCDHLzQR97KHVrGn7DnrAcJI/iKcuefJ/MyHwL7uwMBlb96BMO98VLSeQAOvIqt8my0oH+mkem4NTP2FitiCmr8NioesfzlDdjSZnMfzHIu/LzV3/kCL7kU39VfhsDxHcoyp4Dzn3J8nPPvrj93mc+s73//d/nq8D2WDkDUCQVGEwUU9OfHOpQWeCRukMchBNE/NY9Os6aiwG2kFCvtCIsNMa5AkFdz0MbocYgCsDpoCgPaYHIpE6Xx+GZksTfimvQJyClKc7SsMrxOOqzbJW3MZlTL7U47FLFakCjyLPqFU9pl2dzynMDqMeVTwGaFpk5DY7hbRynha0zrfvo6Qi7oODhdIr+FiGnWPbctUth/XVakgaO+nEM9tJoHgAA2dA1WeNoD3GpERfDnOeBnHrq3hvAbZ+9VFOdeynD5jQp6HTSnoaImMkX5zFghFm0M87tsXnqI95mFl9jzpCTB6FtgmE/vExDLZWjvvTLnh/zlEko8hNJiyaZyjfJY89yRWBVsBEyDa7gNgvAlujh4uUnHY36VVf4k7qBVxthvwqtvzz99FO5NHU+hqJOEA13MkDvobBW0hWPCUzApbWXGnO/YX5acmHF6/2QopyhnM4cYyoMVghtAOpAZq1y8vxSGv9xkKyZ2hJTrmJc6BCvztaexRa6gSyAMFbWTAIKa9LwOp10TYqWxgXthC8BQhV8edp9wQJ+5qxcVB/O38YQ4jGV9/Kj4keW4huYY73qtfWO9eV1Mdsqf+DvaT6mwuBp7689o5UUW5ZLAwNM2awqDpiXDUzVywB2TyhjF21TH+kn1JXldj5j7tz9NrbXPfwQjCrtsj71l47RBLjFp5UWLfLk8rYNAVmZ01oXQKtZZp34UWD0PQHH+T1OGIiFOh3K185HXVO4aHMgUlJHf3Jy9PX47VJIGpHVkI+/t2bxqid1cgv4eIqMgs27hiSiDOfslS2kgbTh0zYX+fT7U08/vT3/4nM+QmUVWOAgLSPnTZYMoebkN62IQznPvPtCafbG1mExNlHvhFuBPJdKrgfClHxmiAFDOkkdF/WBNMEC7Ai8uLCCZJI8XEfUsVV00QEQ6CyQKEaa40ytc6gYXKUrjIZTafskX5Es8xmPK6fwpbmHbqNwcoV0AsAye3B5KT+6ELzwPzDBXiJBe+StdabewM9+eJhz4SYVR2lMIxReFoDlbkp+vPY4Gqw9xKcN21u54mdPCzw6d8Xy2a9f4z5NRwx6Ga/poPDKPZfYuNfy3EV6ShZgELQLFzpspyV5pyiOmoYLP7pD4zdTJZ2xYkRBqik+pHryTU15svGlZ55hp3jlPD0Qe47YzHMUUB2Ip3psiQaOLFA4wy2L6mif6hdWwt+9vS6+vodYx+CRn6wMa2s2eRmbSCTH+inHXYGGdxo8L4s98eWvbA//3sNe9JdTmQEIJDJ8FEiEFSDseyIVUne29Ot8HVRYB3UQ0og4uR+LXFCHmivjsLPePsENp93ae0HI00VP2Agm39a1jDTFs+91ToqR7VC44KQRsmlgUn33c0RYMxdjDVaHijp2vepB+QtLzzV42sryORQW+jmd/d1wVKelbzCZ5OM07OBwP7TL475kyo55BtsM94+5hTvY1wJ6wpvO/VgFfPrr17f7rrx2ey+fzH7HO9+5PfDAvdu1a1e3L335ye2xL3xu+9QnPsrLem9s9xOY9pxncXZ7Su2gE3qb3fAIYpDbkLaRiqT8EKqrqP2VoWKvaGoHWF2MjMGPQcXrporrGxzlvL4SuvH5YKrr2BiLqA5hQc97RLajPHleGWvXRhh/EL9v0KNcGJsKk/Tti/JYGpNCyXSVmUE+PaOrIDd4vvTxxx/fznsB0kgWg4JGCBAcHUAVFPGx92jvByngdLSWS3ySuPJoSPAuGSkMoy9rgVRbU5VXJZsjfFrtxUYpSROBUegFZsTCsFqQvOOPFaTbGjRK67wBmDo6gPjdszF+YFMHR9gem2GrhiOFtQ6/YYxGZ/HyCjK1daXlzG1eHfZGxpI4/L5c7zpeA87ePw4EtPsJSCt7rq6d3+Z8/XY0Yrk05V+elbd6ESx+t3Qw9EsHbbjoRDVX/kxid+pyjne5fP5LT29/5D3v3/6Dv/gfbd/ybW/hvhFfsERvwPL9++Dl+vPPbo986mPbz/+d/2V7+CO/tX3Tax/EIe0/5d1RWkdLowf1rxVM4ZRDF4ayCCfPGO82Q+Bcr1z85/IWdXxQOr02daRhsNtDLbMXJ/SUVckdLlcP0IKGgP65t25iATv3HT6pDmB5a0DKqVyuJGJsYE7xisdH6eCXfKdbWXh0aqMN/FUm/uTxLPdB37pxbXvqqae2cw8+8MAHLZTcMRiDHxpUSDVJcSyQb4bOMaKFp5iJAuvoGEdje4+hrId9ylaFwA2se7dJMZCEVm+iwhgglJcMX+Ao1yjZQ0pyR2Oq6PIxeAb3ns7+WLpzrtNaT0eOrIeywakER16H5z2OHE/Bkm3wT5nnQyDHCz48B6hUhpJGzTCMfYeMRx0PqdnPKl75r26P9EfX2qT2zjDxwA/laQBkDx3Ipgo2oIH3ksaTz7ywfce7/9j2H/+1/3x7zRsf2r5288z23Evntudunduu8n7IF3ig/w5Dr2/91oe27/me925PfuWp7WFWC6/w3Ki970XekvYiry3cD9tnDm7wOdyTd+1e3XRvmZc/DCZfrfHs1a/zcuAXuema651pRKELj6knDgVcKT0sOWBKzjRIin3YwCE9A84kjJ5neTGLcbbiscQ0tgn9Vgio+FzoUqcTF6rTm+dtB6CShSEbEcvPvebKAx+8w4qjiyK2wG2FJzAFL2M94re2YS+jblWWxpvj2Y9gIatwh02cFWgcUGbiAEtp5/AEWGWzPVFJYHEjpUUzH71NzwfHlrR88TRKGFqpO2WL/vBqXb81GH6gI13/p4GSd3kMbermNflpJJiMQ/ogB2W57U5eMz6RrfIl/UNgScH8VTT1HdofDEdhGm9wxaiiEgmKCPwOb7L5qTzVxWm5B0Ys0oiDpwFKxQNd4So3eM76EDJzYa4zPn+N+yfvf932n/z1/2J79Rvfsj1zDUyX76e3vESg3N7e9IZL2/33Xtyeed67jM7wzpf7tve9793bp7kh+ouPPbI98OD9BNPZ7Wl6gQ984C9t3/rmN2//7Df/2fbgq17FB0ZxSP1DfpAri0LwGbnjW3LFddwLl7evfvWZ7Qe+//u31776ddvDn390e/DBV2dk0KdblkKXprSbprBzG1sXYul/wSGoBCSBjeWjJ/XB+qE+4R8snkjaIjRaXRThW96dJsVvPE49583meRsE8kHrPL2jsZTLP144dTxMzK5N7wpK0bIpyBhIx5veUJhwHZjTP2d4Pq5bPyEQScOq9fZba9Z5FIw/isV8xM5RNXqoe1Auwk0yT/5cqfIi9gzpVFh7vCNGZWqCXqL9cJaga4uNIYK/MDZWDQRglwg5n/oL5wH1ojA7B7XeJenconOHliQ4MMxwFwNiyMCSq8Y9ZiC2YBbxYSI8akfx1dHUxTiCuaVhsGt8dSYOMSuTt49JwXTkPhyB9DxD0ae//sL2nvf/wPaH3/K27WvPX9su8IKl6+j5urfKcYvklYs3t4feeH67n17wwqX7+ADrue3Kq79l+3f//F/YLt7LQ7TgdZZ06coDDLD4mCnBet+rXgu9c9sl5qGXLt6Te4ovn7+03Xf5PjqIC9UTrDJQJ8CBJO8agfvOd75r+3M/8u/h7Hz3kPf2vIQyfSysF/312cpXLeETijXJTGRy7qpPdGtHpC0Z/KYHVjPayCGyPXKPq3/xBTbwwLB3iOutjhziP/DAsN722MGpDYy2jxzC6qPg1J43GTG88OI15owiw/Mz8kMp+ENbTCqOQPuQMFdD6qgK0Zcb1egyNxPaGltxmhpoKsh0NLYBYfC4HO6x9ew9RnsROg6zalq26o+jZfEBQKin/tC2bhcmOFBDQsDSOGnxmGeZSaPRw/MXHhadNj46rHNGVWqAdtk81YSDrzYEUhl8lHI455bPlMB6SmIrGYjwZ26Tp7SRLh/muzC+g5ZmNO3R9FryaQpdmt02PDZGyCALFM8QSjjLxdtH0XAOlQGQ9VWreFMJoFUdj8DGOJZ3I1+48uD2He/87gTSOT7e8q3ffIcAcv4H7Zcub/dcvL295tK2veut57dPfOHado16z7x4a/v273rP9rbv+u7t05/48PbaBx9kGHtz+1s/87Pbvffcx9j3vu3J51/MG7fv3Hlxu+fS+e3mC9yriU1e9ZpXc3MJ1y/RuwsdWGA7e8/9BPGrtyeefn57y9vv3e65l94WMfIpAOw/N5ZEbqTJqivCHZ6TJc+k/Y5Jz6mvag+P8tEalYIivDndQ1duoz9PTM1UydGpNOV03sivXud2RPO8t9f4sqPJS5vBq5y2G36Pg6eLDKriDiUt2H+pTUH2Gtk8A9HD3DC+QFpW8B47bNWbIK5AwA2MTB4ThhctUrtzlS3HO7x7+B4Pw/CBMOmtqB3nBJn7oR3CYMzQg/0hOKUC7PDEacS1rk5ZlvILCpnxuOeD0yqVTXqrzMzTiSINVWMteSs0GG1A9vpQV8Ci41saH35cjTaQLvJaP/kLpWEJWmrOwMJnqUfBsLnjQ3KVV6fiOJdahNfRtJVy6ylsoOhLfOFOpDY8eNDle65s97/qNbzM15EOY1SeUrnvEg04r0C8eJlXmDjVuXZre809Z7Z3v+2e7YuP39ieevLaduX+Bwmcd26f+MTvbmeYdz599entR/78v7NduHx5+5/+15/b/ty//xe2O9ev29Zsv/5PfxOnvLW94fWv3T7xqd/brvJKFMPmOvNDR3DP3b62vXDhge36mUvUv7KduXgliyXnuIziAsxF+Mm7WOmhzscm1beyqSf9JQl5kTg6se/ybBUk37Cqph1FtKR3aq36RaJhczQ9n7rv0xf6BEUDHh07MDVjxYU0mJY4h7RDyGUbsY1Tpsvm3FVKMU0LozPkzWHcaXGcfOtI1j7W71lb4fZcLdPY4hijW09a4yRtlc2zI69j2ItMsp5bU/ddyTVHPKyAIZQKtr6GUSZX+ALhMdXicNbg3Dojtx44PEi2veERnmYieMoDOIXBT1PfO4uSZj98xq8PZeJNDoYZpwiPGMSFGY8PjQXIfbVj+VP20ux8GSw2ryuV3zmRgmXDS3l0tTUOGZkZjqIM5XUxrGpVH4Y+uqNqcIDGJXuHtXe4pJHX3NNY2nu42ugFq6vXbmaufYEb39S0iyvnzhGQr7m8ffdDF7cPM/yCwvbmh95GJ3gF+ex1GIY++M3bH+Lm6Hve+PHtff/av05g36ABuLW95wf+jQx5779yefvkZx7efubv/Pz2Iz/8p7eb157HJy9sT119fvupv/8Pt6d98+PZe7Y3vuXt2+8zH73GR0jPE6xPsWB0Lw/u3nf5HnimMUMGbans9p7erN3RjfqxUXdrY8QBulB3elH9xsCpfiw1qZ/6sRi0x9wwICBF1QO8msbnPfYuntytBB/B6eovyj6beTkPix+HaL24qw3nwdDcwwmzEnVw5s3iZUyGNJwMK8wIUcN7PitkMmMKPJUV1uPjwot13UZ4VUMiMz3JCuA9js5tkxNc8tAGauEHQ3ntuZCm0j3yKs0qv/zE6fTEchC+UpEfedSgVe7IQ70EvVClFfk4E4tzDJ1BDbDrpg4pzOWaJSNF5Y3GyTI1YZPihXKPHS1AKceWAxxc/ipTkzJQZLEZh/zy7v2bDtVqlzYsbQzrWFNF2ytD5aVPym1uTl8u0OOc3a4+dy1O5aWH19x/YXv1FVt7w40RE4Lai9nBcslt+9ITN3lolt7qHoaeRO45nuFjCSZD02cJ0jczZ7x+/p7tBfD+o//rk9tnH31s+y8/8KPb3//lf7p96JOf2v7aj/7I9tbv+eL2LQ+9ffumVz+4/ew//o3t/e/53u3P3Lq4Pfy5h7db5+/bfujP/tvbl7/8+9tP/e2f4u0EZ7d3/9E/tl195qvbV596gsWke4hxXqMPfwYQt2pEX3t7xG7Uqx7VIbAoefyi5UiHvIFBLv1e37EBnVTdW+hooo1qG7/i6io45fxnSqa+mP8y+AevVvbmiJhO9qblpHICwDxLYYIt1sEpVHrs3J/A+BMnTF6PG1y6YJNFGsk0gq+z1F0xS6F1jsJUKYWc32Pgqjydp4htlW7l/SvggJgK1HnF0SByyKHibVrMV5nKI45kHfblkfpTEHgVaA+mbgaHeKRfY6XeCApOyCfNXnSL1CpZ5SjIfPWbgOPEa1Sm9tgjS/VXu0yZ1rMcfRDAcidHyxwcUVbki1dgstBAcGYEVD6t619Wg6kV5tUXm6OO2zfubJ/mTpHv/0FeocEiy6Nfvr09ul1neMobtmH2VcTZm7/ZhZuz2yOPv7g9+wJvHLyDs0HchsV5k72IT6LcYI50z8XL22WeeNcZrxFYX7j60vbsc9e3r710fvv0V65Tn/C5/zXb1154afvMFx/efvb/+ND2uSe+tv3Yv/Wntudu3NqucpntU198anvvu969vff7vrh95cuPbn/1r//l7Sd+4m9sj33pS9ur7z+/XWdY67yx8736tKIt4bLXxr1uiR5xxDwgH+GXwwYeLcZ4KBI5+rcv1xerz5QBm9GPNhzjz+EYhta6jbn+SUNm65guHCfrjdGYWaKQy0ZFj6jVijpeioZCSsOIzChMWwRbIyvqCOK0NQHNMIJA7R2P9aV7zgUL3OkwzAwv4mlKdepKJwTAq+/rRGJidpV5kPdEqpRzGLqwCyaePtgSsxS46lVlBonFB7oKIa/HrAZ05Z/Wb/YH+Y4kegRzHWLCO4FQqcXZI3n0qDCKBj+rbIIxMFEA5erTv1Rnjx1z7JwR/EcHCNbgE97qaf2jMXWm5qArl/xk+JsM+KTEhtnT6wypXvvAa7dPfvIz26cYPr7tu96+Pf08b4g4f2/mn2dx+vuunN+uoctPP/Yilz187yyvrj9znc+r3d4e+cLjDDMvYV/eQMeQ9ya3lz1w/xUWgC5LZXvw3ivbdQJR1l3YuUU5zRGNwCUC+AKrrg9u26X7tyeevQbNS9vrv+lbtttcs3z4ay9u5z7/+PZn/s0/tX3i4x/ZHuMOoE9/7rHtCpc7XnR1GD+4Be+mNqJKKsWm6B9SYzfPbTC0hm/0M+FF6PbYe1pZrfX9QcWzANv40wmYxBV88BAf1Eb6Kvvz+LnXF/2sOKs59rVpQAG0JzKQdMigyX6Og3n9yIT5Q2jKRph0x/UQiiIl+zI3wW6d4nF1qpvLufOEhU7T4K0wwh+TxHUQrMbel/zotKrXvkpn6nhfqXW+NhDCq5Ao5YiscqA8g8m5kLQjN7oI/wdY5V64AqBMlcv9yD96mf2hutjAeZNPSvfultaVn6krbFRnEeRtINx8U58Sy1HyQheJgyK5yO1cG6Paa6fnZp8a8q1mhDsu38tfenly98m73Vxyd+nI5febzLvsVbr6x8t7+T79P/zH/+f23NUXWFBi+Ikzebni9rl7t6eev7h9+ku3t6++wKUG5oXPPf/Sdu99l7bP8mqJj/1uPxT6wrUX0+B86jOf3f75P/+d7flnntqe/NLj29ee/Mp2iTtRrvnUeyaW6oneliC9+tzXt+9++1u297/3u7b3fMdDrLhe3J4CLk/xX7hn+9/++Ue3+69c2X7oT/7g9hu/9eHtOYbAF7j26ZeD01KfaIDVwz7V3vqmW17shc6r29rIGjEJtsKBomf1qb7d5ti9lkLhHrIDtojWvrCpQs1Zo9D3LvoybV6i+sFhzYrOLSYQBDqJTALHnnR6A+vHmYFPq4sSHZZUBMTgMC2CDJKfzdaKW9iyCmlQpTWp43TY2AA56agrOFFuvnk/zuiYW3riXm2MAZkLyJQpDz6VpDzqx20uK1iQSzXw5C18WUQC5cApwJ4P4YsnDHCmrMck7AR99OdwmWJtpF/45HqGgmQIOzoOQeHYnG8e8o+od0fSaJBVFuCtaVBCxKV6+zYwrU1aHkuvdo0MQJW70pta4QW4O6yk6vR3mN/4TcGL3A735aeubl999vntrW99C73bZZ78v8Ow8w4rn7e2r11zmMscE7oP3HeeQHtq+7s/+/PbU49/gWX8m9y/eoPe8Pz2zNNf3T5DD8syKqusn+BdMJ/brjDF+NxnP7d98rOf3a5efWa7xkrqI48/sX37m9+wPcAlDi9bfP9737X95sc+sf3Kb3+U43dvjz/5zPaR3/7I9q63/+HtoTd80/bz/+AfbV9/9pnt4m2D2RsJ8AiVjpRYfMmKcU0aJNpWX/qOf039xIF18UNyoyUKxeKwV0zWF/VgdZrgTQ2iTXkcSLDaeLl4fF1/0+e1wSWG6p5zw0e7UHtFUxAtXnve/BTufsY5RTbHLdaLYIrWTV5kv8bWu3cIThwWxzhfnITKJxx6Bx98IodZad/m/sRJUYzCH9iWaAlnJStBVtzel2ty4aY3s99cjYKNQ0r4KSJpHlBa9A3Sy/hWqfzLhR8/0cDybc8k7OjwbvinbE9ur+/eS2nj5Py3zqTrnEzFfNQvWlogljRIa6lUZURhctcbAZCeQD7PtcXbL359u8xdMJ/6+Mfoga5v3/t937u97e1vpgdzcYaGHDZcR7zx4s3t9z79yPaLv/CPts8TbPfdYgjKYgo3xREovkH7/HaBlzC98PzzabhffeFeet1nmTc+hU5Y48Gdf+u3fnt7nqHw+9/xpu3ZK/duf+9//5Xt13jX6ONPfHV75mtXt7/9Mz+3PcelFKe9r+Xung999He3x37/8e1VDH+vP/tcgsaLtOkgIpNhFcl2vzk89QOUNiPtO6QBepl9p4C9mtMKXQiDMdCMDQ1Gy93CiCSWnzt0P++jLC0RgnZUTahWJuyHZfaU1PE9hFSqSLTj6aCPg8XgWEQFvURLpuMcXmQL8fSm4URvb3njqseWh8ZSxjiQefI2w+CjQ9Km0bNO8jWTdsNTnp4XOvqqeaItvcrpcTYkSU8qIup7va260nHbOno+9U/PF4TZ8zr8pAJ8G4ASykuVkHFg2ztL8qjDQ10Plh72eVPXvGoRXdNL5vY/G1f0Psvtrb6GBUGyGj5doiQPJOwdjMB2JPoAcjN6SXDTg/XyxrXt1gtPZ+j8yQ+/sH3hkS9u3/72t20PfdubttcQMD4md417T3/vC49tv/epT29nn7u63c+88fq157aLZ3ijOpdAYJAO8QxD4BfJ43uL3EFzyyDHr/L8H3duXb15a7uPoH/0xrPbAxfubK978J7txatf3R752lM8HXFzu8QQ9BME343nX9j+xPd9z/bWb37d9j/84i/BO3pguGkP7/RZkRwJYPlIPz85W/JrF/8Ejt8A72qxWbV3AUfvxoU5eekztqxfFb+jPm2pzvILrqknC+lp9QV8wpenhTd07vrJus5YAw2jjp3tKew1Z0hjWStiWAi6CmePkufU4Hicf3AA7P+JFIcjz+ywzk9hGiQGmtvJRkCFVFCRTU8iBo8tOr7cWNiq9Uh46qKe8KOsx9JyE7VhwHn7tdgBCmBlm0sRMh+nh3YbLsGKcJTeRbEQi5zCH0jKhEVLOca9KQbNMLvnDoVMzhG/UbLxkg8XAnRkwe0JzuQpFgm1PiDYa/EEkIGXOTJZ5h/IZD6OfcEluE4FZLA4Kz97m0sFDER8lvHcOYaC5D368ee3L378o9sDPC51g9vibnHNMJ8B5RGqszf4jsmNq1wD9MLgDQKPPNs6BL918zp8ihs/I/OcfLmYwQX9y+jn9tUn6FFf3B77zMe355/60nbx2jPbgyzavHTrBYaDwNG7XiXwf/iPv297mpcBP8w89B7w3eRBXVeilSkSu58DqI29Tuq1eqrElMQwM306CTnvAc5axShO/KDwNkw/n9Dr9OYhk/ZQaFLZMK9B67VP481GL0/6B4qfYdK9BtZIM64Vjc7mWoCCeaN0WtJVb+qKS7h9925LbZ1xhrBka2D7BTPScv7j8rJ4Bld6Uc4njbNP+RQpqEKGZ5Uof1OohpKEcCv+yBIYHXFgVJhSicCFJXtPHQU3BMY5gS3b3RqLwZGXOlnL7xqKN4JLtyl0OU3rSXHucKFIqoOjkNBabI3cC8WJ3QwxO2JokSQjZ2QXSecnLZWluzSUi0VHEufYvBkg7OdmB3hBxxnuEUA+WHDpIlfI7nx9u8Uc8PzGBXnugLl2k6EW1yOdNpx9qb3hTb5l4s10m3fs3CGfzebSEcwZPl/ucM4VVtds9AjL1O9F5qg+lHzu8p3tn/2TX04vfS8X+emgGeYyQqIjuEHj9Sru1nn4kx9iePrE9hJBeP9lLpvQkZxlKMzdttAEp8iXL0cl1DOp7+p2KZo8dZfRFGXyZocTmwlrHQCczze1XkY9lMZzNJqjCfz7CINkjgbsvA75dCLglJ+5k+3MG97whmKk5hh9GDRQ2jvqKA1MW9g6zRIEAg690oJD37BIKxDO2xoY+Z7mY6GhpmBBdKApgIbYJ4NreNrnj2PMPNeyOiAYnLQkDa4R73g+ONWFx5VHjoQRnj1O08UQJNIARYqjlkufKhBaXiKfVQheHUmdqYkkuxd6e5M8pj4kpNlVYHVLMKKjwoi16SL1pG2AH3mu3sUln+NQ6io58kdZ5yzwTUsNVa7t9RGmSEdDAQfFGecwtzY+Q5eihA1yh6nK4XtnuV5IPRdzbnk3DpccbnN+lsUHBAFOGGCVBcfzdfWu3l7wVf0sppxhznjbnhJNpifWOZdWzxJ4eTtcgkRdyx/DNnyLZoC3b19kqkOPx1u3b0ILTikloVu/CXLzJmu33GTu41k3WZG197790jWgCCYbFoOSM5i3VmwWu4uJvNqfApBqT+XXTl0g0++9trz0om7BadrbJBn5ca0E/aBzTS+kDa4Be8GL/BpH27P5lH+/gCwN5DwiOTJZFJbYosrIPP0AIvImqXyJlbUya14EEhTDeZ+gKTAqwwPL1m4UYUsXBemZJPNVhsEV43FueYY1HC+wBbtacZSgrKaXK6p4V2l24tWJvaYJEVhbMgSJDlk84sp7OsXLJm9uQ0OFikc0uX7kAS5VXlOhIotnCS8eF1+Wf+TaqMqJXDtWRz+AR6/uzbMndG/wT+84MHEiA8Rg5s9GS5G0i/jlW0mt7z2qkYryzq/FbxtvUiMeIQ+NU142xfJM1gkcctrjcRsa15eAgCcgQ4cqF+hVvI5mo2Cjdpa1CUMr2A6BKHcm8I9vBI/DX/nQl7j98rp9XHtnOx7l0V+0m/efXr6sLhgaE6xpwOkVldAAsK05422S8rMW7CTar0jDj/xJW0bYGZw5sAFVGE8pHFt7ZubJ8+b2VymlLs7GgiRKoBCLQuSILGm8Cc4WS7fG8TwCcX6RO/INBu1lN9u+QEcTHrdC0tyt4zmqFsfMddRCLtwbUBnuARTBsB3QeU2BsiK8vaqO4XskTdI37YcI43jtdSxVeyeTMCBKCz3KOvSe1Q08Wqf4LYsjm0d5hxu2xdrHYIJP8bm1YviMfkRDmnz3brLQQDmWHZqvsMeP9diEPaaVLx0czLLRw9Dw3IBSB114k0bn2GSnrFMBV2nBgZgZLoGzL6ACKQ2QriJ9A+V465d06wORmfIGr3wd9eTcpvXJ18beZgEdsdprild+M/wGvwEu3y6ykUsdnInyjmDAC/y80IrDE8kGUB9KYwzkbRqEPEdKJUcj6fl4i9OtvOti0Sbg1F0aFphJzydTSfooB/Dp3JQD/suLI4A0HLqG/DO1MolLHZGZc6cX+Z7M5ACQj0EJWwggC5tenYbKOWSTyI92tUb8jHGvuh6oAKVFlHixZixrA5GeQwIwnqSCVSoGd6JsbpyRfQPCPcpKmcgWQuHyZ0FqZeeq14nhwsIzARjci7QXZT33eujwCXgTGdYZZZgZGMlb37Jaw6LQtlGZVJ6XbCmP8MWZeohMy5QJd+gLC84Q0ajHbXCe2Md5ly4WvvAFkCjMcmjDLw0KB+i3ArirbDq2we53JrXHBRYxOICnLrhZuzIaWMXp83h9DcTIupzC5vVINHiyqEO+F/yjsuT2B2nByXzMFt9Iz+TJHku5DYbi13cNpARhml4tku4BRNIELkudS0YbDkqaPCp/6QDoCh1qT4OYvh56vr1OuZCwMuiP0LzFAlK+s2JvQ7GUc5MFkPayo8fScqRQnwjesQ95epEp8GGHHFCqLzk0vz2vel7H7sFhTeHOOYxXJ0VlLXRiD40OkEG03s+71HYMxgBomF0yT4m8y0LCebwJBWR4J8Mo4NbM0TiWEYnLSHukqlgn94779IDgTKMjQwd60OXfIVfrdu7lcWE6vLJFylwNHiBPqoN6FFQ6BDANqspifoyf06hR8KQoMfDl00zz5KVzpRrqyCdFDI/yVStgixIFRxfqpaODIF8/6sH6lvkmgdg15w04P6cW84nMoZxPmVAePsgazoYH89WTLalK6POkBoQLYQ5f6wxeWppYdsUOrQRXeF68ecnJNLQs81iaeT6Q4z6bF67RiUsq4gcCe3NH10rkBXaVckzXU8dMr2LgiLW6CAHfGUqetgoa6oyMB6zowTLznV8rL5hS3J6WQ3pFMQc3B/KdWwNtLMLr0q8Q5FXW4rCWKY0I+lOlqFYy/NSemK30ycvwXzYAzE0b4S7A8QGqJ0ec0SPICIlDcpTi9cSpK4t00knCxxpl8FAnB3Ugh0Ms1cJRhj+hKzdugiFG9hq+RjTfFsTn5HJNDSiveencWVEK9lYfPqNiOePfIZjKGJ5Kt2JKNuaRfDRWZO3dNCbn1mU385+02CkQ1pJXTtPSnYYYPo8EdIBQ2YEeoHZ5HgqLg/DnnCvDkeFHXtnyugj29h36bEYio0/zFurKaR2oA6eiWyZAHW30EsfW+SiRh+NvDtdPkOwzgs+gbs3yHb2BQix1fY4Wf31+Ujw4b7KpixNmmEpuegYpJBhz4A8Je1HNQEgThSDtSbUjDmtkWM4uo4SDzFSVjsxQrq5GB3KxD2iDLzaNsiiMNoQ6mcwpPpCK10bCeM0xPwC093c+KLBlFpLA3ZFR3Jd4kH9GLOsRqgILKB4qBhc+rryczIjQOodh6gkjhgZKRVCV4iUHleL9q3duu1ghcoNMZTu17spXc0tzeUsYc0TSntI6BhYwCuNwA2QO+6a1l6atkyt48t7bC5dSoyCN7VBNR7Q3cOHEFczezZI5CfzEwaWhwEsJdYgqK1qxlDI3jWbDIqgKU3fWNqko79k8pLB+zLB89Df7AywH4nGx5iKrgm0VIYHD15E0pufIBJ46aAhQBxj+lG2fOl8yvPmzDuDqwWRZ87Rf63p/qcNObZmyJVl79Mpu3YiOAkYe+fbYVLstw3Ounm6K32UZKya1PHOsVe9kczBw1j/iCh14cuonE8cAsud3RNZGIdpYOhm+FKU6F9/SR1oFcQVZZeDwrrZRf4Dezs0v7Qz8unCuY1Jmna4SL71IhQrqznrhN5HsiTQc3cGvq8jAaANHRQLaqGgDbQ8C8nc8kZVgjIGW8oIxZCTFFoaotHQnwgxTOc9YXBAgVRf42PiDkL2Aw1rLksf+qH5OhOY/t3N58LJkzUkq5Qh7glUotNVqYAaQqsKbxmhVngpt/v73KP9R4TIuDtuOzJ9U+KHyy5EMnbsZPIJGEx4RLPImCjZ7ykMd8etIQEl7XhBd4HKcoAPkgiOPkwotwPod+dW9fKeHEr/boZBgUsCkQHKkJR3u0bgFTmYn7Y/lSkg38+U5regA7/bCDJ1d9u5Q6hk9RTkWWKdJ/ai36kk6tdNqxQZqmUdepFXnZ5cgEN28JX1VoKjylFJ/HQman4AKIFIW7IS0g6N2P/I6vqTqeq1RwkCr90PyGBr8xncDsFtNPQi4SBYZxkKuMD0MgSFvUQORyPQHy31FhOcayHOHKTNE8dzqM3ThkERLiOD2clmCh1l56LtKBvNA9vpM5bG1b76/CpP5E8cjQ3kw45QOrHBIQEmGpALlL7013XhMCS/m5ba3BQcBwZeEZHJukbm2ngMWfAtWIh46bJY//+ZWOunHf9mfZf4WiiGhBAvvIOXcZB05rLMUX/MLGBpDWyyhbSVwoiuhXN0eu6VxmICkXnvA4sqIJq2wumqeFpdGEnPI9shTtt8XRtCpGvqC0LDlQQLp0Wsc8MGs+NLgI2P0YR43ByivkpuO+pXGcZjaqQn6Xpcw5j036YlUxGHziL8lh7qwNzY1ix5snehfrTfUOVWXlvO7au14ao4NpXzmXa8BLZ7o0ZgCQN07J7dDOstK6GGYelLAhch+1IpymH9bjAbN4uXgWKXX/lHhVd6NrHalJA4eNts3RyCDSB20d5AOqlUKkmJKKwHMcrq9RH1G+u1xAwicLZA85n2UWZSo4JaPwqMExZc39hr8dJpeaoYg8pB7FAGMk8gsSZyDVxPHUeQhx8LIT4eLMXJ0phMbBJa7WOBijy7BMF98jCSCh2LpNomRBqHjduocGx55hCRpwUoD2cyTZp6ZXOX5WpStKuWmW+jP4VLcAZ50GNCxgZ9LBUpSyMHO+Rp+NaelwsF0ygZS/PURj/QD9y2dRaEMz0WRzQZA2mzwlyYNF8j9xlYWZsk4Oj/6oPilXzqjP59Plcak1lOGIJvs7qXL31zIl1T1X8anTuiUGepZpi06/OxaSPFbYqMeWwDfRrrw4U8JOe2HhfQJ4J0D8X8IxnI2vwri8AkHicVtvYxiDEdEyFgTyOaQDF0tinmZo9sGyL7K9uBYqbiqVLPDHAw6T7JM+v1Gxyg3ISIWtZh0HJevPPEslQ5QcLMUb09kNY2er2JZJcasUYNwoQnkohFeFt9y0iFcoX3Ha2USWNn2mzDW0FhoyNW0dO3LEARkcMmDnPFfMsidg/I19Mc5QmMaNiolzlAutUJfE/SdndT3HYcAyFU5CSVJ4QAsrskdhfKXmxs4FtZfv1gldOlauyWW6sQUeEhyP2WT5/k6Bs4bDBzyJ8tz/s56YR85R59SSxKv+lo6PyF3IQ6/grhuoIPr8EP1WOcA+rKDyEDu0BcAb4+8d5ivxj9B6EPv8q004vdI/P5Vp+RQ4NveMveHqZQu8ceW1qwteYEWzrjnMcFoxmljD5COzjIKlEStMV1ooEWgtzKViMWlmmGHcLbmKy+A5okjeUscjjsMKIPCdci5Ah6wNgbibh3306tFUeJNl18ZfG2gae6wyMn+B88bmpMtT26lPbndj1xDy9y4svJXZHIaAJYpns4x8Dq42+jXSjWCdYSXb4/AmmP3Kcn+iAejxxY7/g/0yQNJ5lzioLqvjQ8WkZGhjkY+e0X5sI6w6anS+I1dj06Y67nQtaU3RddlEAz25sURIsE2Mom5skQ+qkc+9/wJOtOYYyCEGwIwpFJf5cTZF81ZAKssYjK4a3t51DWlkJd5tSIoah/1nlJtAgO98SBZw3l9tFBymeR9tFbtyKx+bGPXL3yZPzrg2MaFJi73Wcsd10jlMguUYQ5fQNde0sICNE5crXDUQjoEo4pSQJXbF+Qoo8d1JAWMBsO2x8NqEUUBChgomACfOPfJIDArrVgsZOlovnt7jUx89yQ8jvBeGvAyS7GOo1rHBaMMc9a1FigB5LZL4OiKogjkr23a8KmjmeJgB/6SdfgJLGU2SF18osgmMWn2xTF4LfK4eHO2aKfSK/64MjoBmFo42/EbEMpW57LMwJKGele6PtytvLWJkinSEjm8WE+9ertY+MupGSlRRRnuqpeju+laxzSgx5y7H+3rz/HYr4EeDlPZBZMjlfIzjU0AdKLFRQIwozXZBlZbrN6xWMqttHyW1K+jpZzs8j7las0GjXODNYoy8MxFt1xJMNBSiX1WfsMMWUfWIQ/nbL2feNUFLlMNbNEYKA/m3WI+fOu2r5ncraaKd+88pSOjsmxAtlyYW2m6qF25AypkxVEFHK/WN4UASlgdWt+y6Z3GIMK1DmgVaLVi6iZLy5THYaCZi69Q6UuEaDkdonA+XzKuHEcNZRhL66MMDVLL5NLtSDdOJxCpOHIYx/X8kGc1jatxkgy0roqOPML2WHzFOWVWmXIvIFsalKsxsHzS0LSuDjrBqcGTVxEGPHtDNPqjTp7SlwKOkFsQ9aeyA1QPdLzyM4Uu3HlDOPm546mQQ2r4lViC/4jQrKTy3RraHeu3ICRx78izYLM7MAUv2scEHMcu5WR65N048hR+F0RoD2fIvdOhdMuHdvLEOujNX/TntEs+cn6gaeHgK0/Gd6vCFwddKMJuUZc3q4MH/U7D5z74yZd+eKDeS9w/66Ugb49rA0cA0kBoU2FeYc4o05P2jHkMISqGzZ1CB9q94qXrjqLgHwXVQXQgGXAsIZ6d0sUV5ai4CnygrDI4MVhDu8SjSGEjrAdJE2ieCNjKadm49qMBxCWtLqLA68Kf6tYIL0N9cvd7K8hvK2oUk/VsZA4BI6GaMeX7H2GT1s7jNOo7sgMze+V0y+gBvP7ZULrfXTIO2t4vCS+eLRrevZSGkKzgonQWVVIp+FpBjGI/sKlOzNnxV8idAEGiPtWNgKeAU+4PmCjv8PGQeTiwAW464iB0codSZV7FYW4pn6yQnJr7k1VWfxOnPLtXOx7PxqEJvId7Z4PnpIzWDNV1YK89oqZndcGxkZoRSnVBJeBz6QSc6XiA2a/BJBiPypMTe56YsBU4j+HwlC4Vy4F4cbwRiizZJVaArYDBSZ75KnBeCeh5ndVKYtGBrduWqkHiPYStGwRCUVGce97kqy2lPOkADuts7VSVQUclniJvGYewZo9heWFsFHSMOlq+uESOvYj0OwSyzKzSlgfrDB8abfRnkao7KF9cJPPb61u3aerLlPjlcYaaOaOSc4lc4JcZkngNxPIQKOqCUz0MTCChx36ouY/ugKZ2IMR4DAatYDJ4S0ubeHidnlG+1rQmUMqSaYgABU/+v+pPfaW1RqbRnfvmwZlkQodjeJmRUvaL/tQbHlpXIVLF37UlB/04VEReEVPk2nLFka5z5yzjUKR/WGcRChZyZcVcRonSkn4/hsQYgK9xuTiYOTG94C0eHVPD9pZYCnivEdMwgsCc+jwzzdNCSHYU43FJ9qgM2ceZRMiFfbkiHRSzGB9lGprKUShPSDI+fwYPw70zDsKXYhz+dRh7olYELgJBj8pp3v5cAbv1iffCi+3w0C/HVbRqykn5UrGLlYg2LChDlO5eg1nJvfroAKMsHfkYh1AW4Vve4+JCdiclJAPvEKCcy//0sAHgZ28XcR0CYgFE5wTK6EYd22BaT3btBdMoRDDpDq9ABkZ484B26MWhbwgPjgWdGvws8dPS9yVmyQHq/1mqbOLAY6CZ/Q5VZaB8kfHcxlW9nkyLf2XHNjp+9S5wfUJ4G5g0RtGzXlqbTo8WLPzUvT0bWq2nbqMq+TWBJyvF6F+ecs2aAx+ouJXFPmoYuIDa8ThtO7Nu7i1/6npJMwY8Mh8SZTgofDSFp7SjKBDaVIrcnsZFFfKjF/DJqBe2bYWFd5CaVVHL7L0ou5k5oefQISB1gyJQsD4Q63t46pQdXnXeyU3nPGplj6FjxUgKDY60NuQtzilTcPUUImQvehx1iIqhUk/lAaMAwBoEBlB6TM4jF0Ud36t85eo8mBPgNDp10mtJ0FwSM3suZCCvDwgLY2935CF41BY0bvGA7KwSt7JqWYYWFXWVN8HEeZxpzTVyH7BBDR0Dzlct3kQ/JlkZjeQcWl7M79xKmZXFEu3ijnNkD21gMy9nb1Gw5bhn5jji0cbUStBaoiqlfoQS8hskcN7maQsx8BN9nIZWR+pgMQuMEOruCFk7NyOw2CXuUAEBPOrecuHVV+TlBhRXYG2syzl4ohfsbH2V6CLO8i87kNDWj2XLkZ0PAtCj+oa42EI9Ut4FS7M4j5ZswIkLrzgkIQc40qTLVAWhgsOmNgcVPmqVKx3/aNasXKJ1AzECSQg8GsUkpIyHeRyjwx/peDStvrRswXSAI26DIc6NgMObe4domD98dBItJehYX4WUdDPXr/VimHB0oignKdN7rIzywj51RgcCcUq+PNsA4GicGydHfSzXS73eJyui8B4qoBZ38sQnQuUOWo60s2bqXTjqUB2ZZEtw69t7pqpl2CjyYpOu6lK+5uICzXBUXN7ILLbqYXTvOcKErfKax+KA8/Eos3WDDOM4bipf0Xcyyql85AjFaMsD01PtxB5IQKqDhTWCHO1fPikL090JSTsROpbv6xfL3X/bsO5x74+tQxOAfnxaV63pwVXy+A0g6o/+ISMcbaEfss8KfoWJLr0W6UMR06iE2xjZu2wYvqJv77RJCKJjnakaBB1kO74KPSVvmta3Z0sjMrlLaUUlK+/kG2QijiLJkMebXmPRT8n31rdRYPe2vgqMg6XmDnnw1fnNnR5Pvqw728FowNiL+qVkccrRBMrAzF58ob/EAd1K4lU/Njo1djCRGbkCJX4PvHDfXntVpq4I0YfRyl6lNK94h/7w3uBMYxtlee2pDRanKFWn7nyxFDxWpmV7gMBrMMn02stay+E5/FgXuKJIWeDDZ/m1zEWtBB28+3j36CQQ/qw0eCLDyrM4de0hvKFhXd88EJ3KgVsypGEcbPCsvu6WtEOKgHXPLra7G+xd87xMZsHL8ZufSyo2xCDONAGw9Fno85zXAVO3cPqgL+HqKz4u8xxpL0cENfXUsjgyzOXYgBxeteWKDmzQnvcQK3IHPf3mMGccB5T1MqFDK0SHoIRG8h2SSSTDPEj6l3Ng7d0ioEiS5JKWgKBUmIyTRWkt4dnqvDLkuYFXDYizwkwr2PNjvrAaNwgXbAULheBTIfJdWRZoOENfyXe4llesg+YCL8rViV3WV7mhJWCSvbK04vKnaC9coVP9NXAMqJFH3kRUuT165SS/x0Zh4JTXJB6wxKVzzpG9Wh7lUX9ev1p8Y+bU8Qf2jo3FypWljGwCz/UxgXapd+RM46STgSfl6qfHY0sbkdhM3QeyvMamVIwdUrs6tHbqGnFTTl3xRlf5kZobGB1fp3scnwgj+Rk/CBx8eM7A6kQyL/yRW/zlKVMu8sps6t4AACr+SURBVJS1VRa9xVP8wV4F/b/Ii5Vv8HqPe+/htZQ0oOd5/jQ9JvXzKhBkGdzhOzgJVHWTgrXSGh6GQfUKLvKSTgijzLG7wIZhnWCBhliCEhR27Xk6Q0GXswycrbdLudMr5tGnDKUKIc2hO/sqvuUxHjgsc87l6MDjUahQ+2PPbSRMWQnVeA79nCynsnK4ma/i3Tv8Y2iB0s5h6AyzcGjxepzGQvqRTV6mxbMhKK3yBCoS1Vp3DbFL61gGqiTh5OF0isYptFxjd05b/afxgV/nNjboaj/0kCm6gsdIBBEDzML9MHN67z1N66WujIFTSvIwyXs2R+fqyONsUApX5gE8G4XB13ttxVmdwiF69gXOq3GY3lhi0hYDuHoMTzIgb1KhSBA34/aVknyZtL31tN3k3a1OGg+6Qh988GaKV4IVaxos1ir8UM+LN27y6QLeiMdbFi77lWY+6aZU0Qs8qPPGQiNHO97OyBBiBiu+0UWv2o1MKu+CUWb3zNRILlpYckyVdwlNtkRdCLX1ME09lembu3Qg80x5m/aCG8bNF5s92BxLQ0W571C2x+3lhP6/C7sTJUluJEmgrGZxpqVF5v//c3d7yGketfpUgfDILLIHmeEHYLcZDHC4h8eflfHYA9IJAJ0vBR98b7myXP4v53rkiUkjH2P2fmSQ+hqF0HBFBzcuQ/XIPLlqzMMAzOSe3gJi6k++HU8HcMJ/Oh5ZZdDU7hv8psOZviSBgUH7yk9ucMKu/2m7z3FWgLatfdKmAvSxc3WgV/1TtVV1NKmkE678KhHBwecjSXX1NXUSkhcoG4VcLbH/uF550Y5djfSBeC8SWwuGoRVts6fYiYXyQ83kUScHF3oBER8mAR3Je546NlKpkC07sD24dTlnQxzEgFGtdHN8cYrSygcVvzzk9sOP//VfP+Q16D/8M5/ff87LuCIrHl/yZeIOOtGpvoqgtXvFQTG6mr1gHATJ1JNulbes3+4UE+w6mtyTsEd/ucFCaSfBzHE+pkx+dMRoMufLBD9F8TkDHw71nOHl+QqYahbKyFXgBfcqLkec/rzg93JyQaL9C62WeUOstDnPHkwMuTdzRzaLJVoiK8P1OeHIm/9X0Tb5V8mGCB0/1tmDeRLSTQKIbJSl6IKNjjf5oIHcpXn5jh/sleoauH4NJxKDt5Ld89sJSmsyGh0tfl06OorPnmIqQyq82p101S904aByR1t4znVE+0dG54EnT61I1nWwQTofrR2FALh2TljtKqHHNii/FR311OPHN1CzXHDsriIlbYn1zmpXsS259NfKVqEDihDdrgIHH92rK4KlHNB//OPv+SXl/EjPL3ktZGwg5v7xj39U0o6FpR8inAgv+x1hmJKTdI2GeNLBwCLsa8h4H8EYrvoGqw54F3Lktk29DIlRs1mOrRrpiJaqKQ1115cMS44pLQHm3mj4PNODBVAqCZ8XLpk+mtpUHoROoeNdACHfDHJkDRvO9N7O8R7fwVwKWJBDJwh0LDM+Wd5uyiLY8jhndOp6UcNbGPVWCGzC1KCCHK93OfGACOYp16Yb7eh/bHPAkBQYXiR8b4k4J6fi2pv+EsZ9KGBPNZEnH0vwkeknrzkMzmQYf7z2a8Wf5ZwMg5peeLLbdEKTTAsuOvUa1cgQpvhakbwzpMof+NqpCoFJqDouRbR62K4X0JTJupX1JBQvvzIlN2Je4PKybgE+r7c4CX5ysdFsgF4v1wO4L2kP3vZbMmvvjx9ZjE7kYk904JoBmB1dvvMZrTWbseTtF2gl3n/L1PDnn3/+4Ze/+S3I/EhlYWxiuwDlB21KFw3TdDQ2SJVC6iw+ZmTc6Zgg8pQFqeC8dnjadjTBY/BY4H5htiNiOiIFdULvFK1DQ6TzaAxfTEM713VOBdWW5ufY0j5B/LkjXZNQ6HaGz7LJ9IPTmTl+QXDhigvmO+VIk1KdJuq2Exxev/kf4433wJtwDurx8RrOlg4LmI9yaCaCToLeO806fmxjie/x8EFztrrsYtPItt8Y5PThvcNIAgL/zlQupn2TcngdVdpEvvLK2Yf6nJNLAja9pKOgxrM6pX3BB2qJpAS7IXyCtfJNxrXpUHw3m/RAQrh0W/FsOi2OUBL3rvFN6RcX1noULGoneYUYOmz+mndPe04/FKc+9HiVY2vT4b/nJ+cs5rgU87MK/8p15HjQPR0rse82hmPa7DnqUWo8OzwMqCc+v5oq7rf3Lnv7Db2DphjMz05XF0f0GsHxOlRfqxdYGU3n4gzBURLZK818UYjT7jVexMAhcJzq+L1wkK+auJ0ge64j3EC7+9JGKGX3JI2gPPDnZb+ku2naHPbA4UFxtMneztJUq1PJ8K4VRnujDZmGz7D3+F2292OQO59dq382zexNBLF75n9er9FOE4K7gTwHo0/Gylm284VAJM9dwMlJr+nvVHKBumBFw2gwa09Xcrxbv/pfZfgnOOr4ig2u/8koATDBEl8FbOfc9bfkHF0+ePbdyzBHW+ducsu5xOF5z9e1YOqu/y88mfAkez9J8KvLPvim2f/59/xwaxYBqw8+6NpPTFTHK5UdvefaSjvJYqsZp1PfztoS3+ixafUXa2L8IgR7o205Te40zn7T1X16TNSdaSqjoGDvo7G7wyi1DbwXlxfMDXYCSTmmUGgYEdu5YiQuMDiLZfp0mTet/TpL5GxdF1zm5MpSca4sSwgbCcFPDngwqtwx1A3QyUEPThqdaXS2rYMroJ+WO1X5liSzp3IwIXj0SkSjNykhVcgXsjbl7tf+aq4cV54HZuQHBR8vllP8UGocnaOvZ+W21VrCq7OJ2m21V48jxvSiX+Ucnwtz9bz07r6JxclRjbZGvSNQfMae8Wc6cS0Rgvg1gSZJVe6qkKPsY8XKr6WSHOEk6ALnPGAV7vrJUzDoaJFEMvSGfimXxsCL1aQ7m7a2suDTQYYIh9+v+eWq/joXudMRvXw7gdjOUpjUlSkyrzKe97SdNGA1R3G32q1DVfYJfcEPuUhzjZ6ao0Zhar/Il9qcvzrjC/91sAyL0LLok+0xHhglrrLgBUezcgS1mikL1hYYNlvHuG43UEhDDhluAUAgZc5Jq+ZDP3jx9uVVmkCLi4dEANoxzP+94PvQhLsy9MwWcqoj+DWhrlLGDmWR+uaCeASv2WLJooppP+TWPht0ChW7yPSuq9zbnNzT8crNcfDJx+mYadvP3qn4qN/DgyyZHjVbb9SaGA/86C7zu/8puz+BEtKol2kOACsM8n6Y+iVgEi7zbxkfMD+kBL6jIbn7CZn4/+qY3hCQXT4swOdz9BS2avzlWEuDNXYrrQNTwLaDwTLJPVNGo6rftPhbblW4dh7PJK4+bngWEGGEx9W9Kp5e0jeJn4s3JkD7yl1ZMQ5dv0At4dO9t8V0yHxcQ3b94dBnK1qRrzPELG5KLn8kFqLk0XV6540nKcdoVzgiOG4nIdEp6qJizlZXQXO2jpjV0yzcgNnFbWDQ0B76Ca04MQKXoSbZbsFZwxfm8LKDm4/CWNeo0BsMty2Um9RKN3wAnzIdRuca9O6BvB/fc7JE4hpOsI4s+StUVe/ULnw6CXijc+lduS9/tOtIjovcV8IXHNpVdfqCR0u7pOYatWoFsfhHRzACsHY9qJNhJ6URWrM5rg9vPHp++Oz82d5E8RI2TfvtC9N09I9Ncth7uFPgRYCI8zsd0lFyPp0CAr8iTkcnJLv2SIhv9AmMB9XJMJWL9OLhwMiZ//rd7IFvuuDWvIAmqGxqy5MQgrB6uLCf0hHbafhCxTcTUUcbUVP5r/zk3X/ndyE7nTaqJYF1Ma7PH6/DN/kmMdIJneoWMqxWH7ku9mXnOMflx1cvpKrMEK50QQzqcTAyIVB5jVxz5oScGjKgAPaokHYBvMwJ8yl1TAi9VMcTyeCibyTqvD80yPI+nJuitI+AyV+8WxhK9ZP6SzktpVPI0LkwaO54HWLtdHtJ9OHY/cX3Wy/glfInbwx/ebTBWXj8u9Lrn+iy6xvyzLYC4E9xA6AjmbTRL5Yq+Qt7Zbd/6oCAY8MF3/VXgNp2/XOnfjA+l+qZSiuktyR1VpI4YFX/Rt/NhE5AB3rSZzQOhRYjcP+l94fHGgOfDOuNg1/zc3F/Wdiv5GZLlz8jKkHPBtcupZHmdlRwL5bzx+VBJR1mf7d2ez/dxtb/zA1/CzezUbZnWs2/JZxLGrbfIJV7i/mrrQ9/opGj19tR4G8ZicX3uWb8GEjXyVtCT6bJCHbLYXcCF0E//6UrbTFAZ/yrYtoQuWjbxYl7ewD9GilNluJjybS3px5SsrHDbm4oIFPD9YbSCYwbYNcJrwxfSvDXkXvaDSoTivEqy5u+D9xz1MTSTHLr6LzEUFJ60EiqZfkC2lrhU4er+m+e9A9fwfuxNIf2mwDqLXotKRWzoHS8HzSUxmD29/aFAGknTgNbzD5oCODUBW+BiwcK2bSjjF6v2VRXhcF67OulbzQ5pgf14l/aoX/l64JSYHVP5OuXiLFYuzpt73cLdawvX/qkbKgKeCF9ZE47P2V3LiFCR+edVSsEWMVV0RWwLyoO3h5N01oBHMQHaDoql1JCfxKt3k+4/ZEk3EuwALPb10yJGU78us1CH75on+CTiVG62natvc5pFP9mSp1ner/kmd5XZwR4DUeEnObDITpCBHyzOPoTEg6jaNcZR+4Gxke8YLjuUgJboVPlHszukc3QXmGAN8PYowH2u5I6ctTob4sbF3T1w39wGeEEUjTI2eEzuf5dIrk03nW7dbMNOY0cyXK9f/nwfrcdnMpI+JTpSb9jm+ArtedbB8VXEL8XMNc+y8qzq7rWR7/fswp9+bNjn/pgu+DOB+pm3/eHyy+zaDWW3cF7F0ISXqy8y/VCaFICz9L7hbEXvgRVeYJ/kMkBun2iWA8vnc004Yg6/VSN/GhcQsE1Y/ObKO/i4g386pvDp4R+nyoqPSNViKEfOYnaEn/Ut/jEGX4z0vW/+7kI345m+ooTPazkAt9DFdlHhl97D3xPVv2WH3uV3H7/I/2gTr4a4lEDTcleG7VO5l6vz+lRxqiY1b50HpJM0Uldox4rXMUJROBbKOk3zOFJIHsd47LTroEurdGHdx1595VV/bFWO0oZpfJlQZgrgjm5vSdovJzehBIDHpkBXLnV3WP1zt87pAy98+lycXvb4+K+7LvAu3zEqnLPl9ReUr060n207y6UXHkGz05X6ZKrvGx679etdturjz3Zs2uhQwPwy2Y5aSFYaA0AnMQblJTZ5DN/NG9SuDod8kfHexaJJZfYpaPyiEaL0xk/qlO+uG5wcJQZ1Im75zuBD+1BzIfGE7LrKIfNbe5oem3Z530PCTIZ6WorMsUGmvA3uvo5vtkliV3sxCaDXQeVBCR2izx/5Ng9xq7us3Hofe0XEg6OJBAy+tHrWxskfA8y5zVWMqvXH5p9lmEE7SpSDMbhriqaPRL8e3JiwcQAQv+9vNuYeoIhVPORcY1Ym64NFz+f3cQFM9jJRbY5PMpEITJcvAD2/iWc5+mLYeMGr9PC0HgKeW6QPfVscvW+sMOvggeHTJOLI2G7R0ieOpAe/lIhWMNlwgT2NQ0MzuR3LQqPPVa3+p5+t9F2O8B74w2yu78yXx9fWHaYfmrC+9hE0Gx0vP6cvmBNwdC5VyQGkRaBz6el0e6cao00Hj44NeS6aBtAtbOScluGq2YyPjQGhcbqPrZoRS22IctfGLC+OqxeU0SIh23Rcnw8Flrxn/ZQ5lcvH3ZNTTazQvHs16ZntySaHLvX3pEvyaBv0A81dLJdMgi1/px49h9k0BlqJALks+yDecR5rX5arMkv1qb0IjU4faI9mvsmBxrTfcE3kxS8mwk+B+OhA8zQUwouGVYHJQbPOecbPY2aTQIydpTf25x9bxLN4bWjRd5lLy4RsMy4AJEl1b6niiWG8QKP//ueDJ8LmHUE+9mODLJqcmNkwkEnX8dyXDdkGtPrjrDI/OKQxQ8PeswmG4me8wP42pHpXq/fyskJ3+XDdB7dC7F9g4kNW24i8njdlWct/QGhA4VOk0n0q08irkWuXe9HzvAsr9R9LqaNK7FVjjvypIINvci4qsMLzWv72q+XNr4LC7sbWE5SwM8+Qcr5bW/jOuKp+uy/ru4G53bnhg8KgUeKfJJM/VvaJ16Ojnt0MwBBqC31nfjul9xCUUxhxRkZiVAbuYyz4poa+P0mUn/1et396x2SEbiF4FP+Ubtz3zjKY2+M5BbCt/zSYwO78y3BGIPnWMjFTfl86utlgDbxBEwrulkw3/N3wwqq4ZgWQzUNUGowfszI/TwIcAzQQLu8wi3MPExcybBPWdacAxgd2Wck/ijflfWjUw+h6gL+XW4cUpdtvxOYfaRR2WvkOkddn9lSH8iTMUMI2MHu4bHBe0cJTP8ZAOXRnh2uLGxh5IOHpg84doG25KUD3g7QNDVSASc/nM8FgHrXQ0tsl+4g0TeDMnri/9Bo0mu/vDSO5AlyNlF72X/LrGg1qA4+XjztznOJkO1Wpw/IgSMfXGHwcA/MKWZSZNu0M/qHXGOEyRS2yc6ppP7twFcXU+S06wdkJpOeq59OVzrNMlO9kiS+QjEjJV3U98vhHYzCJ8GXVfM/FfWV6bWWAeY5Tpfu8rQYcpPzP7IK9Fw7AMDIo1FeIbHz7rJBB7tlV3D3eutRAmwFDT/FY3Dw7iJP5aE0OKPwVSzw5ukbEeCmJXX3usn0SVtdpD4BKBs6b/YDn4vo9eEYLN4hwgI2pxiieg9yfNtvPVh1YIaHelwVXOdhkOMFb1iHV+Byc1qW3PdDRzO1xeu1yqG1UY5eK8TgQA7uZYMASZl84RnfwJn+hMdRcbxOPT+4TZPrFQ8LaM1II1C7YDIpIEWwfIJ6O3tXAnNDitzsCoBMyrVZR4zg1SepZwuLG+q3IstOga8f4hPIaBw65aluXa5Hd9NLkyyVvvwRGl2tD0F1kwWhnHPA5xK4mL1t4oYcOlaTpEEln4qSTV80lao81tJOa63jV0OrG3J4nXk6K/yEsU/1TgXCZMhW2aUQ/2yoevimM5rjGpU6Sgy+jqRQpxYEVg8L45zMiQhy3OvO0ZQO2B6KDd1OeRicQLfISKtbJwiDlGcqd+S/4NmTZSud6ESGjrq6IjXXnl0KcwwWz2X88aaLT69NBT/wkXvR/uOPTL9TxxbeVofvUbtL5AxJZ+29BYNGy3RY8BlhZT9WU29kR2efS1PevAK4sd1pU4MgeDU4O3vjdKDCb3L8Z3H4QIk0acw2ye/bWXhB/+FdsPLGa21pDQww9kdbR2xdwH2jgdR78N99QcmQn69Yw7WK+Pu3rZBqWUKO3mxK3vzt5U70ZwkJQFBKfqMlDtiztjEzqeihFUgFDbyb2PmvfkurjEmBHLrmrsp5TI/9V2CO22sR8rTY1Q7ht+ei3QUgN9mya8faMcJod5UZwZBvTOu8ElYaxcEXP+GeP9eEeQ60OsLbSA8xNEq9h+XVOv2HpPkXm568PhDPbs6KgGHuXuANm0J8APeQeQSvo8ZOFlqo34B/EG6nvCx1lhsIleglwoPTDl8rpZGGKXK4wyaRnH8T/M1UJN01pSnSOsVGgRo0yrvQdsN2RkcN5/CLUM329MmpRav6NnzIq06w3Cw4zLt9gmAiBhjNFiNBaB2ln98CSfsBq/0KjsEbaoitI2qkGxPEgccOgJEd7addUN4ZgbY7mpVANqO5M6ReARvYPbYW/DZXqCSi7THTgecTV8W7DGG/ynGm3D2ObE18h19OqlrJ5tibzr8Evsk8AS0sF3cJcARSpieYtOqAgerjauHX1erg+M2KmTp1B4/jugKdc1XXXjqPglTJVcnZeNYLcGmcmC78rTs+TF0fZYxNSg8PHTgh2O/C5hYOtE5hw2uLmpNhPNKm70tCub7swCawQufrHogecOUIAZ1EMRJw5A3csJwSbYUvKzBGMmtgMau6Ea5ZCsIps8MUkhkVRppzHb9EXePLOac+hHW+4hxGjAE/nkVgNHLIEGTG/kU2xzFxQCNDJN2kCPD5FDr1pSVAR1sznXJ62lBNcR79217eoFbIeDvR03mO7jqKTwTrtW/IsceogsnIHptLZehIVnvaB+3L48hQ5s9UHwQbobYO6nh81yEZ7rbx77X5kY3NTsfjeyUtFQ5HpukvWmX0/DGPbz3izKHa/7fCKzpSJYkd2uuRakDikbqwZrc7xRaj5XXgpraklFjdegmEsOZXXqZPqqpD/GitgV5HX3a9BTy5Oz29lWmmEd0bR/FJE3/gUpWGbNDIjASj+ifnXijhHuKP94mcUMlVSCmRTA8hm61/s5CSjM8koKa2ClcBA5FmK3TqmtnKV30EPFGjrURorD1775kxQrXzlpbA1rygejpb6uCdsuMFlOObpWcwRmUWOD6c0rQSflHAzdU4TVt2OWaM813KXJy3szQ4R8fK6751AHY6HfKpmH6V10kKGAHrwYQfMoX1rpROPdZ8ZHp0edGMQPd4Ad/QqxKusUzxbsCw32MPARbiEYocyrOifWV++PXoKHBHwiJlUzIv0IXWQuzSefbFObA4K1sJjBRubZ06T658zTtfTNMfmatWO9jtDO9tJXY2KO9JnEZoEDWc+Gh0rkqHdEtKc581jjLz/2Sr+ckAXUm7Osl5R9E0NEwdW9LY+GtGXdVrGyLk7aJsKtmftUodU4TRxWyh6PToUcLB/7V3GMY7feen2CnT1RUElLXaXvssNnLe5JTOmIfZwpnQDBTQBLsOtUyKyITd0bOVdToa2pOuUts5nrPIr83nCpCq78oCDvR78BkFo3QC97meTUU6128//E/oXTI5SLWY/DUdpvVEYDn1J1jHPyN+VhbJDU7nMvLcYlRSXrA5ZocGH50C2neuBBcM+d6TDNyr791j5Pfdg5Hsly+iJkm4RtkoH5u/9DA1xMu0lk6zmVnKrpcnW6yZNpwmA9irozp8VxA+OK+603R2G0Xj+di4U6zQYu+WI0M8EEYWieIPwaxdW0p590jSYkf8FrEDYaMlmGhTyIE01NfRUuusNcf+6Hfh7vjpxSfkq19I3WdDd262MfpUdUSL371tIgx980add5+2PSch/RoNJ00ATqm5sqHNSo6ingnjL/+zb2u0EUBoLUYHaSTdJdLi1wxos4xjgcjZThjczsKC5mVYxP/6W4LT6/SBXkf6LiIusssj0JjdrfqJe51AJRe0FF7mR+PSvHh/vmeqlQbiPcl+K423LfLUQeApS6MZdUGJn2TCFR8l9w6elmgN+96ffOAE/0AOYOhwQLpIGxakplgorAMItHecHY//iMU1kSQOSSDrkxxndBU8AuJO7UYH3cl3KD2ODDk8wXkb3zsU8Tpdz8FevkVmfiDc5Pheyqem+h2+vPkqiLQzZpdDt2FoM/1AZRSweyvvIQybDP2sj8Ku7i+48NDk89CazJ3MzuzrOKUVeDk18IK8Iua4JYnzZRe6G1ToVXJ8sGtcCy27JTfZ3mnM1+usl+zqxPYf+bbGP5tIAzHTxie+rsXHkim9wHuhmIUnyfw1O5JoQ1TOqa7ZzEaJqcDlmxvfB+6ciLwuaipY1AZPLnZGMAxdNjRRqsm/rK6zBKFBxpgEu/gflQM2urf+fa+NElsRnYJtDx8/Fz41sq3i15WD6/XMIdbEEFr3kaSgQ4qcmX5+8eux38s3kNGCT8caP1vXH+tInHunIrvGBsXMRthOZ2OPflGW0SOi0aPfNk+vtLTv2vZ+e7xyxIh1XGSaXBjvw1Q6Y5rKP2c9Nz1lq35i+9nUnk3g0K8K9PzW2Q92MFtIc7lA/vBJlqgvOTZlYeJ4tua52lZjCj50fz7Da5IITjuOXhQYeB2VKXUKfH8KuZr0yM6erRzlXv8N7HSKNVbHBHQkUbEiFkPD9ZgHRn7MJ4e5hRDfxUf+FPwm/9CQoP982JPa/Ndf8pqNf3kJlVdOgo0tkmTXxaSp2Bl47Ochd+pJ+m4d8b11CGgur5Trq1/PGk2/z0gHiAKUAHcBB+UZqbjblMFxVCRqZzl4pRNasmt2ITiUu70hgY92tG9A3GnGhVVPpq1wgn21FO+ePfXT4f18MNOBnD7vPCfpTTafHFLkq4C99u4aKEYFne7KP16240f4drTg1NF6Y/7XodxbjCyGRbcVYLUTHCWDu0BIUgvMkkvq2A2dFvt7zI6nupZ9RuzxA/cCeMlM9spWmfHKvdfIoaCnbe1qKNKWUAreYSjLt6Tt/sjQq+KlzmyXkCxu25sgbmc7gEN8wYT7+EcOgb5QPkBnR76JQpBrk6NDakY52/z7xoUEs7+PPD9RzWlkhl9DJCVmv/fcJIrZpqu4ocQAt2ODTfCTu/HsvksSLhjq/pH72Drx5L29AZdUpvTZ1C96qhVRI1uuZ9BQfksgbBQYsDoBoU4NQxgNvZBHsexPBfdgGjjlGkGyB9+LcfvzOVK9OTwN2gJ/V/PKowEyHs6fZDH4u5UdrbW8F/DKb/lC6KbQefflkZfZqjeACHVhnX4sk1hg36nR/fbD4B55d56On7joOHB0J4ZpTAisPoAeTm6J3F9MM6z6HXmb6dPYkbJAsTX71qbH9jkfuCAcrnOvkN8HYq6nAlcFnaY8NMFmISxLkvfeL/gLe0QpDrbOyZfwal07YvlJ4mitniwrJ06SpT2u2ChAY9iFV4cm3Ku7Zsfv5zkZybMFL6HR7acsYy5JsTj5b0kwaD+LKeVzhL4yXMgre3mG9pV1fOOzTG3vd1iZs8mBzLTJvoWeZpI5+T189nRV+qdZUGrFBNv1kmUI2x78fdMfyQSa0ZKQFST7ThUypXrZwUEQZQlF53LsjDL9tCE1rR+ckEOXqRS1DcNDb9kHxAqDUHwGuti39d/t6bGpcdUe+4OQYKiMDHYcVsdwfECy8Ufnz4VtMs7NLr2+brcK2GiS1+cmkAX/qNxFkulyKT+BV0nOvTJiDA49GdV0SuXFs9cWW3aUn0Xh4D/9LsxkSmJOfeikt+ynBhB8Crx5Z/vyDb9WH8aO6fF6DrXnsWJM1ZEmAILNbaPJQODZ+D4cMb0uX+38VG26f1dxMh3YwHBJ47O6LC5jnNkqtuvlUfgHdII39hy2pvve72OMT+XC3OorJ8xqERps9698AwPsbT/choZPYys7h6k1De4zt2Iqx12kTC/uQheAyK3n3HjD76tBpx0qBFU81wqn3k3yKNGFlNJIIKaLd6oZAdpVpIpkqTrmjpKEwhTOds8WeCrx+65N3aEbCWKAR+ARcA3wvVG1PZ3gI1VGtCxvRPjN0xLm7gUxjJqewY6hDwz466S7B39vYoO+wTYZpwmfrOD1dLhLw95to/vavtaz14cREd4C6b45L3OV2upa7NK7o+dWvm9iiG8SvRcGjmPTT3pvStXa1ONF+auvY8mXfXg2LVUK/pKjRRALe5OR/2M/tgusmdES0joamzkXgGz8yIRyIwdW/jLCheBN8ovEQNCjKXx0d/sm8EGVHCaamRKdOUhnsYsBc3C/SVG+qXu5B/tTrky3kxWq+g+g0uUtFnQWX/2LTrtFA+ZQDd/Ko6bs1a/zLr5QUkIhvnANTtb38vXH87h6UUOFYWu5QHWqiUSRQDBQTizFppLSDKOKoF8SVFVq0oDeeY4m2khNYdRWGIRrlGuUin5Zd/g/uN91RMLBFkiXSg7fCpp47sJ5nU8fgMnINzuxIocTn0w3IJHKK4hKEa3qakUzMM14bbEZf/ZQtM9qR/+cC87RIC+7be/4pXvxs/Egs3qNLeuo6P/4438EfjzQ8MOgAJcwBnex7MFeXu1COZ9URs0z6ldaoy2pCwCo9qCbCVhcnPMEYzsZfdchQYsFOt+Oq202gjkeLBKQyDPN+NkRP5jGsQFZlY5mIjKXQngqd4p9E+/OR7ODSpHnB3x8FHJc+67m2d4k0JoLT6rKGZ+dS5/e5qq/+IXUKfj1H+J4oPdb7qP86Bqx97tTz+/slstBK6fVswS2geM9OCUIeNkGmynuwVtGuvfWwCgMeP2lZs/2mb8HN9MnQexYxmPQeyO/yG8bAjGS8sEgrUl9HYAXZwi294yf6uJyHinsOYFjRrNkzmZVq3fMptQxMuxmcUkUF75PDVbal9fda5uH3mEvv1vnnGTl+qK3Tnxh3/cXr0kw8L02DwEimP7ckqaUdez7TRaTE8Wq6Np3frfqmtkln8Yqe93gvlLqmGcECNykH4X6KmBk7OjHeNCUc+j0Y3I6jUAKO3/fjmSklvzj3drIFljtnn0ssG3j/hqAb1J9ynw0v0sLYmQWX0LykEfliwASwCshTaDqg7/bRU8JzuExfQ0qYju3ciJz5jcBrRFDen9FCI2mpgx7ps7pjasG45JD/CLsH/3IgH6aa9NeM6oHoeNtmnoYZdc28DH+EGvVYmhMF/TYC3oTTyc8nbaMdVDQqWO491J6pwKM1n5OFtyjWcEnV1smz82SQ+Uc2Zx8qPjoLNNhFAf5vt39yHALL38jHxtEXmSqwpG9IyfBbjm0G6C16rFgjj/reFHu/jr3Zvh3G1wYMhit6OnyYAtjHzWhncHF9+b4IQN6/eMakzT3+c5LU+06+Uc/4H/dYt+FlltRStONXkZFqpfOQ7h8Wb3XlOnpEfm7cvUcP4zQzefsCHFNjNc9voSuXZdQ3u1sdiJZs08YB1divzGI0KV2ZUATfXq0A0eIPnJ36qyUuoxCtOKFfmdMzoRaL3NG9T3OjHz9sdQjv7Z9OwU/fkqMGhXL/do9jPCJ0XYXNPTrkRCBIyMrm1gcVdRBMtlVFq2te7qKhk077A+mw3byPuIUGn0lu865FA2pStuzwVNqirUFviK0cfJ9hBMBsG/bPf9IEQ4jVfzANsga/MGLoW7WBlNqYcosl+oNCnRWtKyVs1/Bdpv/Yo/Oh+ComJudaHPqUx/cYY8gp4wrfsPZNZfp0/flyvzO70KxKbLzVmRqw+Vjn2RQWc10DmyDOCf0Lbz6UGjwXb1E7VMGZ2uK69bOjnUa4wUbwlc+ypn2xsmVaX5d3fgWKfjlQaaAmklU76KNF963VF8wrqNT/+KZWPgjndErFBWd5F+/5NWMeZW/GSC5NxiM1rWfLNXRVVzDixA6Z9Ajhw/bRseXDONbJuozqiax5oJ8kvdXZ/tTZFJgyv2GAmKYcrhRqJ01XzFioy8ZijG9953gUeA6x3lHm+CbDrSEXp+wz4qp6yLSMoZWIpZXDuDVaFGwHXjYIF5HHw8uBTQGs8UNUCgvVOmDpynVhUvy6zs6e1+z0JGpAWPGEFpwUg7Z4tFxI9gTRDX6i/dBGuqxydH1wMyx7FrqgUn3i2NZowkjm2kynV7XnAH3w0Eac8ezMnoouddrOW+MpZk8E97+dpAnB6eyuEaTXS8v2NUrt4O0oxmKI2i/HLDmnusYOlhnJknWsymd3CPduoFFC3YkTnWrydDDI/vqoj0ed9xyHo44NFX7tgck0/NOl4u4uuEQKbxSL52WVAmy4qPbZTH7HMyAmIW1N4POdMMtjf/7f/5fF97o2VEXvRMb6tim9ZGrauGrT4VWHy7IoYf/fVnaaAeeZHiZddXGaf/6azqXplvaL8l9Sg+f5lO7ioEJFhQwomwMmm0h3ugcxO93bzBwthQemjnhNIQWqBcVAj5/VT7O/XVoROY4OMPfCO/YZ6Wdn6F9ypQu+yMLyKdrBOZVNqKOx8fAAHIdfvfgptM7jUKCTtuxYUXLJuetae8EJxaSvfuq/cknKDpDqaPnBzw2dQ8Mx4b2PigkLA69Tv3CQcIr1AexPpwMMdubxNDwsUrc1dp0rI8JEO/YJDZ9bIfLLQ/9WTi0b1P2rKlbRboeWT/QSeir1FYhMXuqeaPHbiE22BycpusH0O/l8i9YED0t9fPPv3QaDO7qfHHQKf02kpvk0/fhEWqBm39y6VEhEqNNMFkUvOIG9evvebj6i8fLcqKza7vtl6k94h2mY/RbwCcn5r55iPemrpZ0zZwbHb2EVukvG2d/HyZo5d20s+wk5FbqAc47ktD4VdTNEa+qPzmYMWaYz82bit5R4mlVHzUbVB0Nw7crjaljRJyf4H7wWAxeMx6gI/fjkHfYBUc7AHsH8XGy4Lm6JsDNDNI+2vZzfhNM6wMrkze7LgmBSZ5Odb5lYsk/rH/0VZ3ymhyXxzX9PXfZMB0nA33u9TL8dYIF1h68mOx4io3sUuiwZCAAPYZ2arv/s03XBMJg+gnpEiqoa9+f8hCDQk7UZucHRtsSi7qnfh24EgF5teBTYdHrhTCcJSNwBgL+cW/xvu9J/S3kKI1UOHZP3FNSYmVc0PNZe3+RKo/HdYCpObIxUs40hRNvvpl2KqdoAU7G1KFa3pHCZAsrxGe2TD57tXtgKYVr9p/La+RJw1XmM0zPg8q4NT6B5uWeD2+K/inuh0oyfJbjHfdz2+RSa9ql+5FZcP0tT3ng3e9DRqZ3Od51IfMt9/i9Xdue5HC0TnJlvJhI4Gn633L038lkJNffsnLKVRx5p/Fwu2SWRLipEqevA8GfeOiqH8c7ykwOMtFZUuKHwCUw/c0n2obXWhnZ6RF1bSpMV7NLoT8VmkRWpbZTOzQca2dvheXVloqg/ZIBI2doF87mlCvLY+Nh4n3BFndDANfruRgOlS3+hG78Pb1JdG2wxSGY02F8H16jaUsOl3B+F1SnvMmBDN9y20lSiQWdHD5ue1QryE16/x/NboptmkiMnAAAAABJRU5ErkJggg==",
    "activeThemeId" : "e59eeb42-ccf0-4a36-bdf9-e630fdab686d",
    "audiateSessionId" : "",
    "firstMedia" : true,
    "hasNotifiedAboutHFRMedia" : false,
    "projectDuration" : "03:21"
  }
}
