{
  "title" : "",
  "description" : "",
  "author" : "",
  "targetLoudness" : -18.0,
  "shouldApplyLoudnessNormalization" : true,
  "videoFormatFrameRate" : 30,
  "audioFormatSampleRate" : 44100,
  "width" : 1280.0,
  "height" : 720.0,
  "version" : "5.0",
  "editRate" : 30,
  "authoringClientName" :  {
    "name" : "Camtasia",
    "platform" : "Mac",
    "version" : "2021.0.12"
  },
  "sourceBin" : [
    {
      "id" : 1,
      "src" : "./media/loq6Le8m/Pasted Image.pdf",
      "rect" : [0, 0, 960, 540],
      "lastMod" : "20221013T174538",
      "loudnessNormalization" : true,
      "sourceTracks" : [
        {
          "range" : [0, 1],
          "type" : 1,
          "editRate" : 600,
          "trackRect" : [0, 0, 960, 540],
          "sampleRate" : 0,
          "bitDepth" : 0,
          "numChannels" : 0,
          "integratedLUFS" : 100.0,
          "peakLevel" : -1.0,
          "metaData" : ""
        }
      ],
      "metadata" : {
        "timeAdded" : "20221013T174538.182921"
      }
    },
    {
      "id" : 2,
      "src" : "./media/1665689300.409450/tools.mov",
      "rect" : [0, 0, 2668, 1610],
      "lastMod" : "20221011T205406",
      "loudnessNormalization" : true,
      "sourceTracks" : [
        {
          "range" : [0, 165700],
          "type" : 0,
          "editRate" : 6000,
          "trackRect" : [0, 0, 2668, 1610],
          "sampleRate" : "29619/500",
          "bitDepth" : 0,
          "numChannels" : 0,
          "integratedLUFS" : 100.0,
          "peakLevel" : -1.0,
          "metaData" : ""
        }
      ],
      "metadata" : {
        "timeAdded" : "20221013T190123.862439"
      }
    },
    {
      "id" : 3,
      "src" : "./media/1665689300.410390/Pasted Image.pdf",
      "rect" : [0, 0, 658, 540],
      "lastMod" : "20221011T180546",
      "loudnessNormalization" : true,
      "sourceTracks" : [
        {
          "range" : [0, 1],
          "type" : 1,
          "editRate" : 600,
          "trackRect" : [0, 0, 658, 540],
          "sampleRate" : 0,
          "bitDepth" : 0,
          "numChannels" : 0,
          "integratedLUFS" : 100.0,
          "peakLevel" : -1.0,
          "metaData" : ""
        }
      ],
      "metadata" : {
        "timeAdded" : "20221013T190123.862452"
      }
    },
    {
      "id" : 4,
      "src" : "./media/iZOP693H/Pasted Image.pdf",
      "rect" : [0, 0, 773, 342],
      "lastMod" : "20221013T191045",
      "loudnessNormalization" : true,
      "sourceTracks" : [
        {
          "range" : [0, 1],
          "type" : 1,
          "editRate" : 600,
          "trackRect" : [0, 0, 773, 342],
          "sampleRate" : 0,
          "bitDepth" : 0,
          "numChannels" : 0,
          "integratedLUFS" : 100.0,
          "peakLevel" : -1.0,
          "metaData" : ""
        }
      ],
      "metadata" : {
        "timeAdded" : "20221013T191045.388965"
      }
    },
    {
      "id" : 5,
      "src" : "./media/mPDn69dM/Pasted Image.pdf",
      "rect" : [0, 0, 62, 157],
      "lastMod" : "20221013T191236",
      "loudnessNormalization" : true,
      "sourceTracks" : [
        {
          "range" : [0, 1],
          "type" : 1,
          "editRate" : 600,
          "trackRect" : [0, 0, 62, 157],
          "sampleRate" : 0,
          "bitDepth" : 0,
          "numChannels" : 0,
          "integratedLUFS" : 100.0,
          "peakLevel" : -1.0,
          "metaData" : ""
        }
      ],
      "metadata" : {
        "timeAdded" : "20221013T191236.590013"
      }
    },
    {
      "id" : 6,
      "src" : "./media/SAobTw08/Pasted Image.pdf",
      "rect" : [0, 0, 76, 157],
      "lastMod" : "20221013T191430",
      "loudnessNormalization" : true,
      "sourceTracks" : [
        {
          "range" : [0, 1],
          "type" : 1,
          "editRate" : 600,
          "trackRect" : [0, 0, 76, 157],
          "sampleRate" : 0,
          "bitDepth" : 0,
          "numChannels" : 0,
          "integratedLUFS" : 100.0,
          "peakLevel" : -1.0,
          "metaData" : ""
        }
      ],
      "metadata" : {
        "timeAdded" : "20221013T191430.286421"
      }
    },
    {
      "id" : 7,
      "src" : "./media/xnHBqEoi/Pasted Image.pdf",
      "rect" : [0, 0, 115, 62],
      "lastMod" : "20221013T191557",
      "loudnessNormalization" : true,
      "sourceTracks" : [
        {
          "range" : [0, 1],
          "type" : 1,
          "editRate" : 600,
          "trackRect" : [0, 0, 115, 62],
          "sampleRate" : 0,
          "bitDepth" : 0,
          "numChannels" : 0,
          "integratedLUFS" : 100.0,
          "peakLevel" : -1.0,
          "metaData" : ""
        }
      ],
      "metadata" : {
        "timeAdded" : "20221013T191557.692117"
      }
    },
    {
      "id" : 8,
      "src" : "./media/SJvgT68r/Pasted Image.pdf",
      "rect" : [0, 0, 76, 157],
      "lastMod" : "20221013T191732",
      "loudnessNormalization" : true,
      "sourceTracks" : [
        {
          "range" : [0, 1],
          "type" : 1,
          "editRate" : 600,
          "trackRect" : [0, 0, 76, 157],
          "sampleRate" : 0,
          "bitDepth" : 0,
          "numChannels" : 0,
          "integratedLUFS" : 100.0,
          "peakLevel" : -1.0,
          "metaData" : ""
        }
      ],
      "metadata" : {
        "timeAdded" : "20221013T191732.180012"
      }
    },
    {
      "id" : 9,
      "src" : "./media/g73y0acX/Pasted Image.pdf",
      "rect" : [0, 0, 76, 157],
      "lastMod" : "20221013T192025",
      "loudnessNormalization" : true,
      "sourceTracks" : [
        {
          "range" : [0, 1],
          "type" : 1,
          "editRate" : 600,
          "trackRect" : [0, 0, 76, 157],
          "sampleRate" : 0,
          "bitDepth" : 0,
          "numChannels" : 0,
          "integratedLUFS" : 100.0,
          "peakLevel" : -1.0,
          "metaData" : ""
        }
      ],
      "metadata" : {
        "timeAdded" : "20221013T192025.569278"
      }
    },
    {
      "id" : 10,
      "src" : "./media/vIE4xeWh/Pasted Image.pdf",
      "rect" : [0, 0, 115, 61],
      "lastMod" : "20221013T192208",
      "loudnessNormalization" : true,
      "sourceTracks" : [
        {
          "range" : [0, 1],
          "type" : 1,
          "editRate" : 600,
          "trackRect" : [0, 0, 115, 61],
          "sampleRate" : 0,
          "bitDepth" : 0,
          "numChannels" : 0,
          "integratedLUFS" : 100.0,
          "peakLevel" : -1.0,
          "metaData" : ""
        }
      ],
      "metadata" : {
        "timeAdded" : "20221013T192208.410120"
      }
    },
    {
      "id" : 11,
      "src" : "./media/VISFHgJu/Pasted Image.pdf",
      "rect" : [0, 0, 528, 180],
      "lastMod" : "20221013T192624",
      "loudnessNormalization" : true,
      "sourceTracks" : [
        {
          "range" : [0, 1],
          "type" : 1,
          "editRate" : 600,
          "trackRect" : [0, 0, 528, 180],
          "sampleRate" : 0,
          "bitDepth" : 0,
          "numChannels" : 0,
          "integratedLUFS" : 100.0,
          "peakLevel" : -1.0,
          "metaData" : ""
        }
      ],
      "metadata" : {
        "timeAdded" : "20221013T192624.964781"
      }
    },
    {
      "id" : 12,
      "src" : "./media/1665689607.705419/ScrollingLog.mp4",
      "rect" : [0, 0, 1448, 1080],
      "lastMod" : "20221011T175754",
      "loudnessNormalization" : true,
      "sourceTracks" : [
        {
          "range" : [0, 12120],
          "type" : 0,
          "editRate" : 600,
          "trackRect" : [0, 0, 1448, 1080],
          "sampleRate" : 30,
          "bitDepth" : 0,
          "numChannels" : 0,
          "integratedLUFS" : 100.0,
          "peakLevel" : -1.0,
          "metaData" : ""
        }
      ],
      "metadata" : {
        "timeAdded" : "20221013T193220.795243"
      }
    },
    {
      "id" : 13,
      "src" : "./media/ydoOpsrf/Pasted Image.pdf",
      "rect" : [0, 0, 883, 39],
      "lastMod" : "20221013T200207",
      "loudnessNormalization" : true,
      "sourceTracks" : [
        {
          "range" : [0, 1],
          "type" : 1,
          "editRate" : 600,
          "trackRect" : [0, 0, 883, 39],
          "sampleRate" : 0,
          "bitDepth" : 0,
          "numChannels" : 0,
          "integratedLUFS" : 100.0,
          "peakLevel" : -1.0,
          "metaData" : ""
        }
      ],
      "metadata" : {
        "timeAdded" : "20221013T200207.769890"
      }
    },
    {
      "id" : 14,
      "src" : "./media/TsTlUfM7/Pasted Image.pdf",
      "rect" : [0, 0, 884, 352],
      "lastMod" : "20221013T200256",
      "loudnessNormalization" : true,
      "sourceTracks" : [
        {
          "range" : [0, 1],
          "type" : 1,
          "editRate" : 600,
          "trackRect" : [0, 0, 884, 352],
          "sampleRate" : 0,
          "bitDepth" : 0,
          "numChannels" : 0,
          "integratedLUFS" : 100.0,
          "peakLevel" : -1.0,
          "metaData" : ""
        }
      ],
      "metadata" : {
        "timeAdded" : "20221013T200256.580130"
      }
    },
    {
      "id" : 15,
      "src" : "./media/IchLTScF/Pasted Image.pdf",
      "rect" : [0, 0, 883, 201],
      "lastMod" : "20221013T201138",
      "loudnessNormalization" : true,
      "sourceTracks" : [
        {
          "range" : [0, 1],
          "type" : 1,
          "editRate" : 600,
          "trackRect" : [0, 0, 883, 201],
          "sampleRate" : 0,
          "bitDepth" : 0,
          "numChannels" : 0,
          "integratedLUFS" : 100.0,
          "peakLevel" : -1.0,
          "metaData" : ""
        }
      ],
      "metadata" : {
        "timeAdded" : "20221013T201138.916252"
      }
    },
    {
      "id" : 16,
      "src" : "./media/2xS08D86/Pasted Image.pdf",
      "rect" : [0, 0, 883, 201],
      "lastMod" : "20221013T201255",
      "loudnessNormalization" : true,
      "sourceTracks" : [
        {
          "range" : [0, 1],
          "type" : 1,
          "editRate" : 600,
          "trackRect" : [0, 0, 883, 201],
          "sampleRate" : 0,
          "bitDepth" : 0,
          "numChannels" : 0,
          "integratedLUFS" : 100.0,
          "peakLevel" : -1.0,
          "metaData" : ""
        }
      ],
      "metadata" : {
        "timeAdded" : "20221013T201255.098937"
      }
    },
    {
      "id" : 17,
      "src" : "./media/XRlunXrd/Pasted Image.pdf",
      "rect" : [0, 0, 883, 201],
      "lastMod" : "20221013T201607",
      "loudnessNormalization" : true,
      "sourceTracks" : [
        {
          "range" : [0, 1],
          "type" : 1,
          "editRate" : 600,
          "trackRect" : [0, 0, 883, 201],
          "sampleRate" : 0,
          "bitDepth" : 0,
          "numChannels" : 0,
          "integratedLUFS" : 100.0,
          "peakLevel" : -1.0,
          "metaData" : ""
        }
      ],
      "metadata" : {
        "timeAdded" : "20221013T201607.657661"
      }
    },
    {
      "id" : 18,
      "src" : "./media/WOLal19s/Pasted Image.pdf",
      "rect" : [0, 0, 883, 244],
      "lastMod" : "20221013T201858",
      "loudnessNormalization" : true,
      "sourceTracks" : [
        {
          "range" : [0, 1],
          "type" : 1,
          "editRate" : 600,
          "trackRect" : [0, 0, 883, 244],
          "sampleRate" : 0,
          "bitDepth" : 0,
          "numChannels" : 0,
          "integratedLUFS" : 100.0,
          "peakLevel" : -1.0,
          "metaData" : ""
        }
      ],
      "metadata" : {
        "timeAdded" : "20221013T201858.372109"
      }
    },
    {
      "id" : 19,
      "src" : "./media/gJ5E53SN/Pasted Image.pdf",
      "rect" : [0, 0, 883, 244],
      "lastMod" : "20221013T202023",
      "loudnessNormalization" : true,
      "sourceTracks" : [
        {
          "range" : [0, 1],
          "type" : 1,
          "editRate" : 600,
          "trackRect" : [0, 0, 883, 244],
          "sampleRate" : 0,
          "bitDepth" : 0,
          "numChannels" : 0,
          "integratedLUFS" : 100.0,
          "peakLevel" : -1.0,
          "metaData" : ""
        }
      ],
      "metadata" : {
        "timeAdded" : "20221013T202023.642695"
      }
    },
    {
      "id" : 20,
      "src" : "./media/2epPrMew/Pasted Image.pdf",
      "rect" : [0, 0, 893, 373],
      "lastMod" : "20221013T203035",
      "loudnessNormalization" : true,
      "sourceTracks" : [
        {
          "range" : [0, 1],
          "type" : 1,
          "editRate" : 600,
          "trackRect" : [0, 0, 893, 373],
          "sampleRate" : 0,
          "bitDepth" : 0,
          "numChannels" : 0,
          "integratedLUFS" : 100.0,
          "peakLevel" : -1.0,
          "metaData" : ""
        }
      ],
      "metadata" : {
        "timeAdded" : "20221013T203035.746418"
      }
    },
    {
      "id" : 21,
      "src" : "./media/kQtK48tk/Pasted Image.pdf",
      "rect" : [0, 0, 893, 373],
      "lastMod" : "20221013T203101",
      "loudnessNormalization" : true,
      "sourceTracks" : [
        {
          "range" : [0, 1],
          "type" : 1,
          "editRate" : 600,
          "trackRect" : [0, 0, 893, 373],
          "sampleRate" : 0,
          "bitDepth" : 0,
          "numChannels" : 0,
          "integratedLUFS" : 100.0,
          "peakLevel" : -1.0,
          "metaData" : ""
        }
      ],
      "metadata" : {
        "timeAdded" : "20221013T203101.712499"
      }
    },
    {
      "id" : 22,
      "src" : "./media/WQfUxRjs/Pasted Image.pdf",
      "rect" : [0, 0, 893, 356],
      "lastMod" : "20221013T203138",
      "loudnessNormalization" : true,
      "sourceTracks" : [
        {
          "range" : [0, 1],
          "type" : 1,
          "editRate" : 600,
          "trackRect" : [0, 0, 893, 356],
          "sampleRate" : 0,
          "bitDepth" : 0,
          "numChannels" : 0,
          "integratedLUFS" : 100.0,
          "peakLevel" : -1.0,
          "metaData" : ""
        }
      ],
      "metadata" : {
        "timeAdded" : "20221013T203138.693225"
      }
    },
    {
      "id" : 23,
      "src" : "./media/2CfHB8Ck/Pasted Image.pdf",
      "rect" : [0, 0, 893, 325],
      "lastMod" : "20221013T203305",
      "loudnessNormalization" : true,
      "sourceTracks" : [
        {
          "range" : [0, 1],
          "type" : 1,
          "editRate" : 600,
          "trackRect" : [0, 0, 893, 325],
          "sampleRate" : 0,
          "bitDepth" : 0,
          "numChannels" : 0,
          "integratedLUFS" : 100.0,
          "peakLevel" : -1.0,
          "metaData" : ""
        }
      ],
      "metadata" : {
        "timeAdded" : "20221013T203305.449823"
      }
    },
    {
      "id" : 24,
      "src" : "./media/4fPCVF4q/Pasted Image.pdf",
      "rect" : [0, 0, 893, 277],
      "lastMod" : "20221013T203529",
      "loudnessNormalization" : true,
      "sourceTracks" : [
        {
          "range" : [0, 1],
          "type" : 1,
          "editRate" : 600,
          "trackRect" : [0, 0, 893, 277],
          "sampleRate" : 0,
          "bitDepth" : 0,
          "numChannels" : 0,
          "integratedLUFS" : 100.0,
          "peakLevel" : -1.0,
          "metaData" : ""
        }
      ],
      "metadata" : {
        "timeAdded" : "20221013T203529.658406"
      }
    },
    {
      "id" : 25,
      "src" : "./media/ncdbslyy/Pasted Image.pdf",
      "rect" : [0, 0, 893, 373],
      "lastMod" : "20221013T203744",
      "loudnessNormalization" : true,
      "sourceTracks" : [
        {
          "range" : [0, 1],
          "type" : 1,
          "editRate" : 600,
          "trackRect" : [0, 0, 893, 373],
          "sampleRate" : 0,
          "bitDepth" : 0,
          "numChannels" : 0,
          "integratedLUFS" : 100.0,
          "peakLevel" : -1.0,
          "metaData" : ""
        }
      ],
      "metadata" : {
        "timeAdded" : "20221013T203744.652228"
      }
    },
    {
      "id" : 26,
      "src" : "./media/SQJOxBob/Pasted Image.pdf",
      "rect" : [0, 0, 909, 303],
      "lastMod" : "20221013T205506",
      "loudnessNormalization" : true,
      "sourceTracks" : [
        {
          "range" : [0, 1],
          "type" : 1,
          "editRate" : 600,
          "trackRect" : [0, 0, 909, 303],
          "sampleRate" : 0,
          "bitDepth" : 0,
          "numChannels" : 0,
          "integratedLUFS" : 100.0,
          "peakLevel" : -1.0,
          "metaData" : ""
        }
      ],
      "metadata" : {
        "timeAdded" : "20221013T205506.685991"
      }
    },
    {
      "id" : 27,
      "src" : "./media/WcZNaMMd/Pasted Image.pdf",
      "rect" : [0, 0, 748, 51],
      "lastMod" : "20221013T205620",
      "loudnessNormalization" : true,
      "sourceTracks" : [
        {
          "range" : [0, 1],
          "type" : 1,
          "editRate" : 600,
          "trackRect" : [0, 0, 748, 51],
          "sampleRate" : 0,
          "bitDepth" : 0,
          "numChannels" : 0,
          "integratedLUFS" : 100.0,
          "peakLevel" : -1.0,
          "metaData" : ""
        }
      ],
      "metadata" : {
        "timeAdded" : "20221013T205620.888804"
      }
    },
    {
      "id" : 28,
      "src" : "./media/jBMu0pM3/Pasted Image.pdf",
      "rect" : [0, 0, 567, 51],
      "lastMod" : "20221013T205833",
      "loudnessNormalization" : true,
      "sourceTracks" : [
        {
          "range" : [0, 1],
          "type" : 1,
          "editRate" : 600,
          "trackRect" : [0, 0, 567, 51],
          "sampleRate" : 0,
          "bitDepth" : 0,
          "numChannels" : 0,
          "integratedLUFS" : 100.0,
          "peakLevel" : -1.0,
          "metaData" : ""
        }
      ],
      "metadata" : {
        "timeAdded" : "20221013T205833.026191"
      }
    },
    {
      "id" : 29,
      "src" : "./media/ckQIdMeF/Pasted Image.pdf",
      "rect" : [0, 0, 841, 207],
      "lastMod" : "20221013T205916",
      "loudnessNormalization" : true,
      "sourceTracks" : [
        {
          "range" : [0, 1],
          "type" : 1,
          "editRate" : 600,
          "trackRect" : [0, 0, 841, 207],
          "sampleRate" : 0,
          "bitDepth" : 0,
          "numChannels" : 0,
          "integratedLUFS" : 100.0,
          "peakLevel" : -1.0,
          "metaData" : ""
        }
      ],
      "metadata" : {
        "timeAdded" : "20221013T205916.131833"
      }
    },
    {
      "id" : 30,
      "src" : "./media/AaHYNKQ4/Pasted Image.pdf",
      "rect" : [0, 0, 387, 50],
      "lastMod" : "20221013T205953",
      "loudnessNormalization" : true,
      "sourceTracks" : [
        {
          "range" : [0, 1],
          "type" : 1,
          "editRate" : 600,
          "trackRect" : [0, 0, 387, 50],
          "sampleRate" : 0,
          "bitDepth" : 0,
          "numChannels" : 0,
          "integratedLUFS" : 100.0,
          "peakLevel" : -1.0,
          "metaData" : ""
        }
      ],
      "metadata" : {
        "timeAdded" : "20221013T205953.976835"
      }
    },
    {
      "id" : 31,
      "src" : "./media/JN9VorVu/Pasted Image.pdf",
      "rect" : [0, 0, 797, 174],
      "lastMod" : "20221013T210027",
      "loudnessNormalization" : true,
      "sourceTracks" : [
        {
          "range" : [0, 1],
          "type" : 1,
          "editRate" : 600,
          "trackRect" : [0, 0, 797, 174],
          "sampleRate" : 0,
          "bitDepth" : 0,
          "numChannels" : 0,
          "integratedLUFS" : 100.0,
          "peakLevel" : -1.0,
          "metaData" : ""
        }
      ],
      "metadata" : {
        "timeAdded" : "20221013T210027.072444"
      }
    },
    {
      "id" : 32,
      "src" : "./media/9oVPAKxQ/Pasted Image.pdf",
      "rect" : [0, 0, 581, 120],
      "lastMod" : "20221013T210052",
      "loudnessNormalization" : true,
      "sourceTracks" : [
        {
          "range" : [0, 1],
          "type" : 1,
          "editRate" : 600,
          "trackRect" : [0, 0, 581, 120],
          "sampleRate" : 0,
          "bitDepth" : 0,
          "numChannels" : 0,
          "integratedLUFS" : 100.0,
          "peakLevel" : -1.0,
          "metaData" : ""
        }
      ],
      "metadata" : {
        "timeAdded" : "20221013T210052.978193"
      }
    },
    {
      "id" : 33,
      "src" : "./media/WjkHpwWa/Pasted Image.pdf",
      "rect" : [0, 0, 847, 289],
      "lastMod" : "20221013T211528",
      "loudnessNormalization" : true,
      "sourceTracks" : [
        {
          "range" : [0, 1],
          "type" : 1,
          "editRate" : 600,
          "trackRect" : [0, 0, 847, 289],
          "sampleRate" : 0,
          "bitDepth" : 0,
          "numChannels" : 0,
          "integratedLUFS" : 100.0,
          "peakLevel" : -1.0,
          "metaData" : ""
        }
      ],
      "metadata" : {
        "timeAdded" : "20221013T211528.936013"
      }
    },
    {
      "id" : 34,
      "src" : "./media/voKZ5n0h/Pasted Image.pdf",
      "rect" : [0, 0, 888, 203],
      "lastMod" : "20221013T212643",
      "loudnessNormalization" : true,
      "sourceTracks" : [
        {
          "range" : [0, 1],
          "type" : 1,
          "editRate" : 600,
          "trackRect" : [0, 0, 888, 203],
          "sampleRate" : 0,
          "bitDepth" : 0,
          "numChannels" : 0,
          "integratedLUFS" : 100.0,
          "peakLevel" : -1.0,
          "metaData" : ""
        }
      ],
      "metadata" : {
        "timeAdded" : "20221013T212643.418493"
      }
    },
    {
      "id" : 35,
      "src" : "./media/sEcZdf9N/Pasted Image.pdf",
      "rect" : [0, 0, 58, 31],
      "lastMod" : "20221013T212751",
      "loudnessNormalization" : true,
      "sourceTracks" : [
        {
          "range" : [0, 1],
          "type" : 1,
          "editRate" : 600,
          "trackRect" : [0, 0, 58, 31],
          "sampleRate" : 0,
          "bitDepth" : 0,
          "numChannels" : 0,
          "integratedLUFS" : 100.0,
          "peakLevel" : -1.0,
          "metaData" : ""
        }
      ],
      "metadata" : {
        "timeAdded" : "20221013T212751.177505"
      }
    },
    {
      "id" : 36,
      "src" : "./media/4eMusFUw/Pasted Image.pdf",
      "rect" : [0, 0, 883, 184],
      "lastMod" : "20221013T213524",
      "loudnessNormalization" : true,
      "sourceTracks" : [
        {
          "range" : [0, 1],
          "type" : 1,
          "editRate" : 600,
          "trackRect" : [0, 0, 883, 184],
          "sampleRate" : 0,
          "bitDepth" : 0,
          "numChannels" : 0,
          "integratedLUFS" : 100.0,
          "peakLevel" : -1.0,
          "metaData" : ""
        }
      ],
      "metadata" : {
        "timeAdded" : "20221013T213524.471842"
      }
    },
    {
      "id" : 37,
      "src" : "./media/TrZbI1BW/Pasted Image.pdf",
      "rect" : [0, 0, 2127, 85],
      "lastMod" : "20221013T214001",
      "loudnessNormalization" : true,
      "sourceTracks" : [
        {
          "range" : [0, 1],
          "type" : 1,
          "editRate" : 600,
          "trackRect" : [0, 0, 2127, 85],
          "sampleRate" : 0,
          "bitDepth" : 0,
          "numChannels" : 0,
          "integratedLUFS" : 100.0,
          "peakLevel" : -1.0,
          "metaData" : ""
        }
      ],
      "metadata" : {
        "timeAdded" : "20221013T214001.686367"
      }
    },
    {
      "id" : 38,
      "src" : "./media/ZgBLK32q/Pasted Image.pdf",
      "rect" : [0, 0, 2127, 85],
      "lastMod" : "20221013T214038",
      "loudnessNormalization" : true,
      "sourceTracks" : [
        {
          "range" : [0, 1],
          "type" : 1,
          "editRate" : 600,
          "trackRect" : [0, 0, 2127, 85],
          "sampleRate" : 0,
          "bitDepth" : 0,
          "numChannels" : 0,
          "integratedLUFS" : 100.0,
          "peakLevel" : -1.0,
          "metaData" : ""
        }
      ],
      "metadata" : {
        "timeAdded" : "20221013T214038.939171"
      }
    },
    {
      "id" : 39,
      "src" : "./media/3Hirc1RA/Pasted Image.pdf",
      "rect" : [0, 0, 2054, 85],
      "lastMod" : "20221013T214218",
      "loudnessNormalization" : true,
      "sourceTracks" : [
        {
          "range" : [0, 1],
          "type" : 1,
          "editRate" : 600,
          "trackRect" : [0, 0, 2054, 85],
          "sampleRate" : 0,
          "bitDepth" : 0,
          "numChannels" : 0,
          "integratedLUFS" : 100.0,
          "peakLevel" : -1.0,
          "metaData" : ""
        }
      ],
      "metadata" : {
        "timeAdded" : "20221013T214218.292808"
      }
    },
    {
      "id" : 40,
      "src" : "./media/PwSSefMr/Pasted Image.pdf",
      "rect" : [0, 0, 807, 166],
      "lastMod" : "20221013T214424",
      "loudnessNormalization" : true,
      "sourceTracks" : [
        {
          "range" : [0, 1],
          "type" : 1,
          "editRate" : 600,
          "trackRect" : [0, 0, 807, 166],
          "sampleRate" : 0,
          "bitDepth" : 0,
          "numChannels" : 0,
          "integratedLUFS" : 100.0,
          "peakLevel" : -1.0,
          "metaData" : ""
        }
      ],
      "metadata" : {
        "timeAdded" : "20221013T214424.779543"
      }
    },
    {
      "id" : 41,
      "src" : "./media/i44UWjs5/<Logger name=\"org.apache.druid.server.coordinator\" level=\"info\" additivity=\"false\">\r\n.pdf",
      "rect" : [0, 0, 2051, 84],
      "lastMod" : "20221013T214708",
      "loudnessNormalization" : true,
      "sourceTracks" : [
        {
          "range" : [0, 1],
          "type" : 1,
          "editRate" : 600,
          "trackRect" : [0, 0, 2051, 84],
          "sampleRate" : 0,
          "bitDepth" : 0,
          "numChannels" : 0,
          "integratedLUFS" : 100.0,
          "peakLevel" : -1.0,
          "metaData" : ""
        }
      ],
      "metadata" : {
        "timeAdded" : "20221013T214708.603452"
      }
    },
    {
      "id" : 42,
      "src" : "./media/IA9GtN5z/Pasted Image.pdf",
      "rect" : [0, 0, 883, 39],
      "lastMod" : "20221013T214934",
      "loudnessNormalization" : true,
      "sourceTracks" : [
        {
          "range" : [0, 1],
          "type" : 1,
          "editRate" : 600,
          "trackRect" : [0, 0, 883, 39],
          "sampleRate" : 0,
          "bitDepth" : 0,
          "numChannels" : 0,
          "integratedLUFS" : 100.0,
          "peakLevel" : -1.0,
          "metaData" : ""
        }
      ],
      "metadata" : {
        "timeAdded" : "20221013T214934.293861"
      }
    },
    {
      "id" : 43,
      "src" : "./media/9wXvhfNO/Pasted Image.tiff",
      "rect" : [0, 0, 621, 616],
      "lastMod" : "20221014T165422",
      "loudnessNormalization" : true,
      "sourceTracks" : [
        {
          "range" : [0, 1],
          "type" : 1,
          "editRate" : 600,
          "trackRect" : [0, 0, 621, 616],
          "sampleRate" : 0,
          "bitDepth" : 0,
          "numChannels" : 0,
          "integratedLUFS" : 100.0,
          "peakLevel" : -1.0,
          "metaData" : ""
        }
      ],
      "metadata" : {
        "timeAdded" : "20221014T165422.585378"
      }
    },
    {
      "id" : 44,
      "src" : "./media/4wNepmA7/Pasted Image.pdf",
      "rect" : [0, 0, 310, 308],
      "lastMod" : "20221014T165815",
      "loudnessNormalization" : true,
      "sourceTracks" : [
        {
          "range" : [0, 1],
          "type" : 1,
          "editRate" : 600,
          "trackRect" : [0, 0, 310, 308],
          "sampleRate" : 0,
          "bitDepth" : 0,
          "numChannels" : 0,
          "integratedLUFS" : 100.0,
          "peakLevel" : -1.0,
          "metaData" : ""
        }
      ],
      "metadata" : {
        "timeAdded" : "20221014T165815.410043"
      }
    },
    {
      "id" : 45,
      "src" : "./media/lt3AT0yE/Pasted Image.pdf",
      "rect" : [0, 0, 883, 201],
      "lastMod" : "20221014T170032",
      "loudnessNormalization" : true,
      "sourceTracks" : [
        {
          "range" : [0, 1],
          "type" : 1,
          "editRate" : 600,
          "trackRect" : [0, 0, 883, 201],
          "sampleRate" : 0,
          "bitDepth" : 0,
          "numChannels" : 0,
          "integratedLUFS" : 100.0,
          "peakLevel" : -1.0,
          "metaData" : ""
        }
      ],
      "metadata" : {
        "timeAdded" : "20221014T170032.314041"
      }
    },
    {
      "id" : 46,
      "src" : "./media/4ufvWPm4/Pasted Image.pdf",
      "rect" : [0, 0, 883, 201],
      "lastMod" : "20221014T170522",
      "loudnessNormalization" : true,
      "sourceTracks" : [
        {
          "range" : [0, 1],
          "type" : 1,
          "editRate" : 600,
          "trackRect" : [0, 0, 883, 201],
          "sampleRate" : 0,
          "bitDepth" : 0,
          "numChannels" : 0,
          "integratedLUFS" : 100.0,
          "peakLevel" : -1.0,
          "metaData" : ""
        }
      ],
      "metadata" : {
        "timeAdded" : "20221014T170522.587428"
      }
    },
    {
      "id" : 47,
      "src" : "./media/gJyhevgM/Pasted Image.tiff",
      "rect" : [0, 0, 3572, 1766],
      "lastMod" : "20221014T171738",
      "loudnessNormalization" : true,
      "sourceTracks" : [
        {
          "range" : [0, 1],
          "type" : 1,
          "editRate" : 600,
          "trackRect" : [0, 0, 3572, 1766],
          "sampleRate" : 0,
          "bitDepth" : 0,
          "numChannels" : 0,
          "integratedLUFS" : 100.0,
          "peakLevel" : -1.0,
          "metaData" : ""
        }
      ],
      "metadata" : {
        "timeAdded" : "20221014T171738.538857"
      }
    },
    {
      "id" : 48,
      "src" : "./media/L5UyIRbF/Pasted Image.pdf",
      "rect" : [0, 0, 884, 352],
      "lastMod" : "20221014T171900",
      "loudnessNormalization" : true,
      "sourceTracks" : [
        {
          "range" : [0, 1],
          "type" : 1,
          "editRate" : 600,
          "trackRect" : [0, 0, 884, 352],
          "sampleRate" : 0,
          "bitDepth" : 0,
          "numChannels" : 0,
          "integratedLUFS" : 100.0,
          "peakLevel" : -1.0,
          "metaData" : ""
        }
      ],
      "metadata" : {
        "timeAdded" : "20221014T171900.624713"
      }
    },
    {
      "id" : 49,
      "src" : "./media/q7NTh2nz/Pasted Image.pdf",
      "rect" : [0, 0, 882, 29],
      "lastMod" : "20221014T173314",
      "loudnessNormalization" : true,
      "sourceTracks" : [
        {
          "range" : [0, 1],
          "type" : 1,
          "editRate" : 600,
          "trackRect" : [0, 0, 882, 29],
          "sampleRate" : 0,
          "bitDepth" : 0,
          "numChannels" : 0,
          "integratedLUFS" : 100.0,
          "peakLevel" : -1.0,
          "metaData" : ""
        }
      ],
      "metadata" : {
        "timeAdded" : "20221014T173314.329434"
      }
    },
    {
      "id" : 50,
      "src" : "./media/1665771412.850085/02-TalkingHead.mp4",
      "rect" : [0, 0, 400, 474],
      "lastMod" : "20221014T181557",
      "loudnessNormalization" : true,
      "sourceTracks" : [
        {
          "range" : [0, 11730600],
          "type" : 0,
          "editRate" : 44100,
          "trackRect" : [0, 0, 400, 474],
          "sampleRate" : 30,
          "bitDepth" : 0,
          "numChannels" : 0,
          "integratedLUFS" : 100.0,
          "peakLevel" : -1.0,
          "metaData" : ""
        },
        {
          "range" : [0, 11730600],
          "type" : 2,
          "editRate" : 44100,
          "trackRect" : [0, 0, 0, 0],
          "sampleRate" : 44100,
          "bitDepth" : 0,
          "numChannels" : 2,
          "integratedLUFS" : -18.2385928047432,
          "peakLevel" : 0.967247366905212,
          "metaData" : ""
        }
      ],
      "metadata" : {
        "timeAdded" : "20221014T181612.980320"
      }
    }
  ],
  "timeline" : {
    "id" : 51,
    "sceneTrack" : {
      "scenes" : [
        {
          "csml" : {
            "tracks" : [
              {
                "trackIndex" : 0,
                "medias" : [
                  {
                    "id" : 52,
                    "_type" : "IMFile",
                    "src" : 1,
                    "trackNumber" : 0,
                    "trimStartSum" : 0,
                    "attributes" : {
                      "ident" : "Pasted Image"
                    },
                    "parameters" : {
                      "translation1" : 0.0078444965478397,
                      "scale0" : 1.33328523753099,
                      "scale1" : 1.33328523753099,
                      "sourceCrop0" : 0.0,
                      "sourceCrop1" : 0.0,
                      "sourceCrop2" : 0.0,
                      "sourceCrop3" : 0.0,
                      "geometryCrop0" : 0.0,
                      "geometryCrop1" : 0.0,
                      "geometryCrop2" : 0.0,
                      "geometryCrop3" : 0.0
                    },
                    "effects" : [

                    ],
                    "start" : 0,
                    "duration" : 7980,
                    "mediaStart" : 0,
                    "mediaDuration" : 1,
                    "scalar" : 1,
                    "metadata" : {
                      "clipSpeedAttribute" : false,
                      "default-scale" : "1",
                      "effectApplied" : "none",
                      "lockAspectRatio" : true
                    },
                    "animationTracks" : {

                    }
                  }
                ],
                "transitions" : [
                  {
                    "name" : "Fade",
                    "duration" : 30,
                    "rightMedia" : 52,
                    "attributes" : {
                      "bypass" : false,
                      "reverse" : false,
                      "trivial" : false,
                      "useAudioPreRoll" : true,
                      "useVisualPreRoll" : true
                    }

                  },
                  {
                    "name" : "Fade",
                    "duration" : 30,
                    "leftMedia" : 52,
                    "attributes" : {
                      "bypass" : false,
                      "reverse" : false,
                      "trivial" : false,
                      "useAudioPreRoll" : true,
                      "useVisualPreRoll" : true
                    }

                  }
                ]
              },
              {
                "trackIndex" : 1,
                "medias" : [
                  {
                    "id" : 53,
                    "_type" : "UnifiedMedia",
                    "video" : 
                        {
                          "id" : 54,
                          "_type" : "VMFile",
                          "src" : 50,
                          "trackNumber" : 0,
                          "attributes" : {
                            "ident" : "02-TalkingHead"
                          },
                          "parameters" : {
                            "translation0" : {
                              "type" : "double",
                              "defaultValue" : 474.692482640199,
                              "interp" : "eioe"
                            },
                            "translation1" : {
                              "type" : "double",
                              "defaultValue" : -170.995591928635,
                              "interp" : "eioe"
                            },
                            "scale0" : {
                              "type" : "double",
                              "defaultValue" : 0.721537586799007,
                              "interp" : "eioe"
                            },
                            "scale1" : {
                              "type" : "double",
                              "defaultValue" : 0.721537586799007,
                              "interp" : "eioe"
                            },
                            "sourceCrop0" : {
                              "type" : "double",
                              "defaultValue" : 0.0,
                              "interp" : "eioe"
                            },
                            "sourceCrop1" : {
                              "type" : "double",
                              "defaultValue" : 0.0,
                              "interp" : "eioe"
                            },
                            "sourceCrop2" : {
                              "type" : "double",
                              "defaultValue" : 0.0,
                              "interp" : "eioe"
                            },
                            "sourceCrop3" : {
                              "type" : "double",
                              "defaultValue" : 0.0,
                              "interp" : "eioe"
                            },
                            "geometryCrop0" : {
                              "type" : "double",
                              "defaultValue" : 0.0,
                              "interp" : "eioe"
                            },
                            "geometryCrop1" : {
                              "type" : "double",
                              "defaultValue" : 0.0,
                              "interp" : "eioe"
                            },
                            "geometryCrop2" : {
                              "type" : "double",
                              "defaultValue" : 0.0,
                              "interp" : "eioe"
                            },
                            "geometryCrop3" : {
                              "type" : "double",
                              "defaultValue" : 0.0,
                              "interp" : "eioe"
                            }
                          },
                          "effects" : [

                          ],
                          "start" : 0,
                          "duration" : 7980,
                          "mediaStart" : 0,
                          "mediaDuration" : 7980,
                          "scalar" : 1,
                          "animationTracks" : {

                          }
                        },
                    "audio" : 
                        {
                          "id" : 55,
                          "_type" : "AMFile",
                          "src" : 50,
                          "trackNumber" : 1,
                          "attributes" : {
                            "ident" : "",
                            "gain" : 1.0,
                            "mixToMono" : false,
                            "loudnessNormalization" : true,
                            "sourceFileOffset" : 0
                          },
                            "channelNumber" : "0,1",
                          "effects" : [

                          ],
                          "start" : 0,
                          "duration" : 7980,
                          "mediaStart" : 0,
                          "mediaDuration" : 7980,
                          "scalar" : 1,
                          "animationTracks" : {

                          }
                        }
,
                    "start" : 0,
                    "duration" : 7980,
                    "mediaStart" : 0,
                    "mediaDuration" : 7980,
                    "scalar" : 1,
                    "metadata" : {
                      "clipSpeedAttribute" : false,
                      "default-scale" : "1",
                      "effectApplied" : "none"
                    }
                  }
                ],
                "transitions" : [
                  {
                    "name" : "Fade",
                    "duration" : 30,
                    "rightMedia" : 53,
                    "attributes" : {
                      "bypass" : false,
                      "reverse" : false,
                      "trivial" : false,
                      "useAudioPreRoll" : true,
                      "useVisualPreRoll" : true
                    }

                  },
                  {
                    "name" : "Fade",
                    "duration" : 30,
                    "leftMedia" : 53,
                    "attributes" : {
                      "bypass" : false,
                      "reverse" : false,
                      "trivial" : false,
                      "useAudioPreRoll" : true,
                      "useVisualPreRoll" : true
                    }

                  }
                ]
              },
              {
                "trackIndex" : 2,
                "medias" : [
                  {
                    "id" : 56,
                    "_type" : "VMFile",
                    "src" : 2,
                    "trackNumber" : 0,
                    "attributes" : {
                      "ident" : "tools"
                    },
                    "parameters" : {
                      "translation0" : -139.454161579063,
                      "translation1" : -6.32919359288807,
                      "scale0" : 0.238710923116234,
                      "scale1" : 0.238710923116234,
                      "sourceCrop0" : 0.0,
                      "sourceCrop1" : 0.0,
                      "sourceCrop2" : 0.0,
                      "sourceCrop3" : 0.0,
                      "geometryCrop0" : 0.0,
                      "geometryCrop1" : 0.0,
                      "geometryCrop2" : 0.0,
                      "geometryCrop3" : 0.0
                    },
                    "effects" : [

                    ],
                    "start" : 30,
                    "duration" : 349,
                    "mediaStart" : 409,
                    "mediaDuration" : 349,
                    "scalar" : 1,
                    "metadata" : {
                      "clipSpeedAttribute" : false,
                      "default-scale" : "0.447205",
                      "effectApplied" : "none",
                      "lockAspectRatio" : true
                    },
                    "animationTracks" : {

                    }
                  },
                  {
                    "id" : 57,
                    "_type" : "VMFile",
                    "src" : 2,
                    "trackNumber" : 0,
                    "attributes" : {
                      "ident" : "tools"
                    },
                    "parameters" : {
                      "translation0" : -139.454161579063,
                      "translation1" : -6.32919359288807,
                      "scale0" : 0.238710923116234,
                      "scale1" : 0.238710923116234,
                      "sourceCrop0" : 0.0,
                      "sourceCrop1" : 0.0,
                      "sourceCrop2" : 0.0,
                      "sourceCrop3" : 0.0,
                      "geometryCrop0" : 0.0,
                      "geometryCrop1" : 0.0,
                      "geometryCrop2" : 0.0,
                      "geometryCrop3" : 0.0
                    },
                    "effects" : [

                    ],
                    "start" : 379,
                    "duration" : 71,
                    "mediaStart" : 758,
                    "mediaDuration" : 71,
                    "scalar" : 1,
                    "metadata" : {
                      "clipSpeedAttribute" : false,
                      "default-scale" : "0.447205",
                      "effectApplied" : "none",
                      "lockAspectRatio" : true
                    },
                    "animationTracks" : {

                    }
                  },
                  {
                    "id" : 58,
                    "_type" : "VMFile",
                    "src" : 2,
                    "trackNumber" : 0,
                    "attributes" : {
                      "ident" : "tools"
                    },
                    "parameters" : {
                      "translation0" : -139.454161579063,
                      "translation1" : -6.32919359288807,
                      "scale0" : 0.238710923116234,
                      "scale1" : 0.238710923116234,
                      "sourceCrop0" : 0.0,
                      "sourceCrop1" : 0.0,
                      "sourceCrop2" : 0.0,
                      "sourceCrop3" : 0.0,
                      "geometryCrop0" : 0.0,
                      "geometryCrop1" : 0.0,
                      "geometryCrop2" : 0.0,
                      "geometryCrop3" : 0.0
                    },
                    "effects" : [

                    ],
                    "start" : 450,
                    "duration" : 71,
                    "mediaStart" : 758,
                    "mediaDuration" : 71,
                    "scalar" : 1,
                    "metadata" : {
                      "clipSpeedAttribute" : false,
                      "default-scale" : "0.447205",
                      "effectApplied" : "none",
                      "lockAspectRatio" : true
                    },
                    "animationTracks" : {

                    }
                  },
                  {
                    "id" : 59,
                    "_type" : "VMFile",
                    "src" : 2,
                    "trackNumber" : 0,
                    "attributes" : {
                      "ident" : "tools"
                    },
                    "parameters" : {
                      "translation0" : -139.454161579063,
                      "translation1" : -6.32919359288807,
                      "scale0" : 0.238710923116234,
                      "scale1" : 0.238710923116234,
                      "sourceCrop0" : 0.0,
                      "sourceCrop1" : 0.0,
                      "sourceCrop2" : 0.0,
                      "sourceCrop3" : 0.0,
                      "geometryCrop0" : 0.0,
                      "geometryCrop1" : 0.0,
                      "geometryCrop2" : 0.0,
                      "geometryCrop3" : 0.0
                    },
                    "effects" : [

                    ],
                    "start" : 521,
                    "duration" : 50,
                    "mediaStart" : 758,
                    "mediaDuration" : 50,
                    "scalar" : 1,
                    "metadata" : {
                      "clipSpeedAttribute" : false,
                      "default-scale" : "0.447205",
                      "effectApplied" : "none",
                      "lockAspectRatio" : true
                    },
                    "animationTracks" : {

                    }
                  },
                  {
                    "id" : 60,
                    "_type" : "IMFile",
                    "src" : 4,
                    "trackNumber" : 0,
                    "trimStartSum" : -6,
                    "attributes" : {
                      "ident" : "Pasted Image"
                    },
                    "parameters" : {
                      "translation0" : -127.0,
                      "translation1" : 6.0,
                      "sourceCrop0" : 0.0,
                      "sourceCrop1" : 0.0,
                      "sourceCrop2" : 0.0,
                      "sourceCrop3" : 0.0,
                      "geometryCrop0" : 0.0,
                      "geometryCrop1" : 0.0,
                      "geometryCrop2" : 0.0,
                      "geometryCrop3" : 0.0
                    },
                    "effects" : [

                    ],
                    "start" : 573,
                    "duration" : 727,
                    "mediaStart" : 0,
                    "mediaDuration" : 1,
                    "scalar" : 1,
                    "metadata" : {
                      "clipSpeedAttribute" : false,
                      "default-scale" : "1",
                      "effectApplied" : "none",
                      "lockAspectRatio" : true
                    },
                    "animationTracks" : {

                    }
                  },
                  {
                    "id" : 61,
                    "_type" : "IMFile",
                    "src" : 13,
                    "trackNumber" : 0,
                    "trimStartSum" : 0,
                    "attributes" : {
                      "ident" : "Pasted Image"
                    },
                    "parameters" : {
                      "translation0" : -112.0,
                      "translation1" : 157.0,
                      "sourceCrop0" : 0.0,
                      "sourceCrop1" : 0.0,
                      "sourceCrop2" : 0.0,
                      "sourceCrop3" : 0.0,
                      "geometryCrop0" : 0.0,
                      "geometryCrop1" : 0.0,
                      "geometryCrop2" : 0.0,
                      "geometryCrop3" : 0.0
                    },
                    "effects" : [

                    ],
                    "start" : 1334,
                    "duration" : 147,
                    "mediaStart" : 0,
                    "mediaDuration" : 1,
                    "scalar" : 1,
                    "metadata" : {
                      "clipSpeedAttribute" : false,
                      "default-scale" : "1",
                      "effectApplied" : "none",
                      "lockAspectRatio" : true
                    },
                    "animationTracks" : {

                    }
                  },
                  {
                    "id" : 62,
                    "_type" : "IMFile",
                    "src" : 16,
                    "trackNumber" : 0,
                    "trimStartSum" : 0,
                    "attributes" : {
                      "ident" : "Pasted Image"
                    },
                    "parameters" : {
                      "translation0" : -112.0,
                      "translation1" : 76.0,
                      "sourceCrop0" : 0.0,
                      "sourceCrop1" : 0.0,
                      "sourceCrop2" : 0.0,
                      "sourceCrop3" : 0.0,
                      "geometryCrop0" : 0.0,
                      "geometryCrop1" : 0.0,
                      "geometryCrop2" : 0.0,
                      "geometryCrop3" : 0.0
                    },
                    "effects" : [

                    ],
                    "start" : 1694,
                    "duration" : 525,
                    "mediaStart" : 0,
                    "mediaDuration" : 1,
                    "scalar" : 1,
                    "metadata" : {
                      "clipSpeedAttribute" : false,
                      "default-scale" : "1",
                      "effectApplied" : "none",
                      "lockAspectRatio" : true
                    },
                    "animationTracks" : {

                    }
                  },
                  {
                    "id" : 63,
                    "_type" : "IMFile",
                    "src" : 25,
                    "trackNumber" : 0,
                    "trimStartSum" : 0,
                    "attributes" : {
                      "ident" : "Pasted Image"
                    },
                    "parameters" : {
                      "translation0" : -170.0,
                      "translation1" : 15.0,
                      "sourceCrop0" : 0.0,
                      "sourceCrop1" : 0.0,
                      "sourceCrop2" : 0.0,
                      "sourceCrop3" : 0.0,
                      "geometryCrop0" : 0.0,
                      "geometryCrop1" : 0.0,
                      "geometryCrop2" : 0.0,
                      "geometryCrop3" : 0.0
                    },
                    "effects" : [

                    ],
                    "start" : 2668,
                    "duration" : 1580,
                    "mediaStart" : 0,
                    "mediaDuration" : 1,
                    "scalar" : 1,
                    "metadata" : {
                      "clipSpeedAttribute" : false,
                      "default-scale" : "1",
                      "effectApplied" : "none",
                      "lockAspectRatio" : true
                    },
                    "animationTracks" : {

                    }
                  },
                  {
                    "id" : 64,
                    "_type" : "IMFile",
                    "src" : 37,
                    "trackNumber" : 0,
                    "trimStartSum" : 0,
                    "attributes" : {
                      "ident" : "Pasted Image"
                    },
                    "parameters" : {
                      "translation1" : 160.0,
                      "scale0" : 0.601786553831688,
                      "scale1" : 0.601786553831688,
                      "sourceCrop0" : 0.0,
                      "sourceCrop1" : 0.0,
                      "sourceCrop2" : 0.0,
                      "sourceCrop3" : 0.0,
                      "geometryCrop0" : 0.0,
                      "geometryCrop1" : 0.0,
                      "geometryCrop2" : 0.0,
                      "geometryCrop3" : 0.0
                    },
                    "effects" : [

                    ],
                    "start" : 4255,
                    "duration" : 274,
                    "mediaStart" : 0,
                    "mediaDuration" : 1,
                    "scalar" : 1,
                    "metadata" : {
                      "clipSpeedAttribute" : false,
                      "default-scale" : "0.601787",
                      "effectApplied" : "none",
                      "lockAspectRatio" : true
                    },
                    "animationTracks" : {

                    }
                  },
                  {
                    "id" : 65,
                    "_type" : "IMFile",
                    "src" : 42,
                    "trackNumber" : 0,
                    "trimStartSum" : 0,
                    "attributes" : {
                      "ident" : "Pasted Image"
                    },
                    "parameters" : {
                      "translation0" : -112.0,
                      "translation1" : 156.0,
                      "sourceCrop0" : 0.0,
                      "sourceCrop1" : 0.0,
                      "sourceCrop2" : 0.0,
                      "sourceCrop3" : 0.0,
                      "geometryCrop0" : 0.0,
                      "geometryCrop1" : 0.0,
                      "geometryCrop2" : 0.0,
                      "geometryCrop3" : 0.0
                    },
                    "effects" : [

                    ],
                    "start" : 4559,
                    "duration" : 154,
                    "mediaStart" : 0,
                    "mediaDuration" : 1,
                    "scalar" : 1,
                    "metadata" : {
                      "clipSpeedAttribute" : false,
                      "default-scale" : "1",
                      "effectApplied" : "none",
                      "lockAspectRatio" : true
                    },
                    "animationTracks" : {

                    }
                  },
                  {
                    "id" : 66,
                    "_type" : "IMFile",
                    "src" : 42,
                    "trackNumber" : 0,
                    "trimStartSum" : 0,
                    "attributes" : {
                      "ident" : "Pasted Image"
                    },
                    "parameters" : {
                      "translation0" : {
                        "type" : "double",
                        "defaultValue" : -112.0,
                        "interp" : "eioe"
                      },
                      "translation1" : {
                        "type" : "double",
                        "defaultValue" : 156.0,
                        "interp" : "eioe"
                      },
                      "sourceCrop0" : {
                        "type" : "double",
                        "defaultValue" : 0.0,
                        "interp" : "eioe"
                      },
                      "sourceCrop1" : {
                        "type" : "double",
                        "defaultValue" : 0.0,
                        "interp" : "eioe"
                      },
                      "sourceCrop2" : {
                        "type" : "double",
                        "defaultValue" : 0.0,
                        "interp" : "eioe"
                      },
                      "sourceCrop3" : {
                        "type" : "double",
                        "defaultValue" : 0.0,
                        "interp" : "eioe"
                      },
                      "geometryCrop0" : {
                        "type" : "double",
                        "defaultValue" : 0.0,
                        "interp" : "eioe"
                      },
                      "geometryCrop1" : {
                        "type" : "double",
                        "defaultValue" : 0.0,
                        "interp" : "eioe"
                      },
                      "geometryCrop2" : {
                        "type" : "double",
                        "defaultValue" : 0.0,
                        "interp" : "eioe"
                      },
                      "geometryCrop3" : {
                        "type" : "double",
                        "defaultValue" : 0.0,
                        "interp" : "eioe"
                      }
                    },
                    "effects" : [

                    ],
                    "start" : 5520,
                    "duration" : 95,
                    "mediaStart" : 0,
                    "mediaDuration" : 1,
                    "scalar" : 1,
                    "metadata" : {
                      "clipSpeedAttribute" : false,
                      "default-scale" : "1",
                      "effectApplied" : "none",
                      "lockAspectRatio" : true
                    },
                    "animationTracks" : {

                    }
                  },
                  {
                    "id" : 67,
                    "_type" : "IMFile",
                    "src" : 42,
                    "trackNumber" : 0,
                    "trimStartSum" : 0,
                    "attributes" : {
                      "ident" : "Pasted Image"
                    },
                    "parameters" : {
                      "translation0" : {
                        "type" : "double",
                        "defaultValue" : -112.0,
                        "interp" : "eioe"
                      },
                      "translation1" : {
                        "type" : "double",
                        "defaultValue" : 156.0,
                        "interp" : "eioe"
                      },
                      "sourceCrop0" : {
                        "type" : "double",
                        "defaultValue" : 0.0,
                        "interp" : "eioe"
                      },
                      "sourceCrop1" : {
                        "type" : "double",
                        "defaultValue" : 0.0,
                        "interp" : "eioe"
                      },
                      "sourceCrop2" : {
                        "type" : "double",
                        "defaultValue" : 0.0,
                        "interp" : "eioe"
                      },
                      "sourceCrop3" : {
                        "type" : "double",
                        "defaultValue" : 0.0,
                        "interp" : "eioe"
                      },
                      "geometryCrop0" : {
                        "type" : "double",
                        "defaultValue" : 0.0,
                        "interp" : "eioe"
                      },
                      "geometryCrop1" : {
                        "type" : "double",
                        "defaultValue" : 0.0,
                        "interp" : "eioe"
                      },
                      "geometryCrop2" : {
                        "type" : "double",
                        "defaultValue" : 0.0,
                        "interp" : "eioe"
                      },
                      "geometryCrop3" : {
                        "type" : "double",
                        "defaultValue" : 0.0,
                        "interp" : "eioe"
                      }
                    },
                    "effects" : [

                    ],
                    "start" : 6359,
                    "duration" : 95,
                    "mediaStart" : 0,
                    "mediaDuration" : 1,
                    "scalar" : 1,
                    "metadata" : {
                      "clipSpeedAttribute" : false,
                      "default-scale" : "1",
                      "effectApplied" : "none",
                      "lockAspectRatio" : true
                    },
                    "animationTracks" : {

                    }
                  },
                  {
                    "id" : 68,
                    "_type" : "IMFile",
                    "src" : 48,
                    "trackNumber" : 0,
                    "trimStartSum" : 0,
                    "attributes" : {
                      "ident" : "Pasted Image"
                    },
                    "parameters" : {
                      "translation0" : {
                        "type" : "double",
                        "defaultValue" : -152.0,
                        "interp" : "eioe"
                      },
                      "translation1" : {
                        "type" : "double",
                        "defaultValue" : -39.0,
                        "interp" : "eioe"
                      },
                      "sourceCrop0" : {
                        "type" : "double",
                        "defaultValue" : 0.0,
                        "interp" : "eioe"
                      },
                      "sourceCrop1" : {
                        "type" : "double",
                        "defaultValue" : 0.0,
                        "interp" : "eioe"
                      },
                      "sourceCrop2" : {
                        "type" : "double",
                        "defaultValue" : 0.0,
                        "interp" : "eioe"
                      },
                      "sourceCrop3" : {
                        "type" : "double",
                        "defaultValue" : 0.0,
                        "interp" : "eioe"
                      },
                      "geometryCrop0" : {
                        "type" : "double",
                        "defaultValue" : 0.0,
                        "interp" : "eioe"
                      },
                      "geometryCrop1" : {
                        "type" : "double",
                        "defaultValue" : 0.0,
                        "interp" : "eioe"
                      },
                      "geometryCrop2" : {
                        "type" : "double",
                        "defaultValue" : 0.0,
                        "interp" : "eioe"
                      },
                      "geometryCrop3" : {
                        "type" : "double",
                        "defaultValue" : 0.0,
                        "interp" : "eioe"
                      }
                    },
                    "effects" : [

                    ],
                    "start" : 7541,
                    "duration" : 271,
                    "mediaStart" : 0,
                    "mediaDuration" : 1,
                    "scalar" : 1,
                    "metadata" : {
                      "clipSpeedAttribute" : false,
                      "default-scale" : "1",
                      "effectApplied" : "none",
                      "lockAspectRatio" : true
                    },
                    "animationTracks" : {

                    }
                  }
                ],
                "transitions" : [
                  {
                    "name" : "Fade",
                    "duration" : 30,
                    "rightMedia" : 56,
                    "attributes" : {
                      "bypass" : false,
                      "reverse" : false,
                      "trivial" : false,
                      "useAudioPreRoll" : true,
                      "useVisualPreRoll" : true
                    }

                  },
                  {
                    "name" : "Fade",
                    "duration" : 30,
                    "leftMedia" : 59,
                    "attributes" : {
                      "bypass" : false,
                      "reverse" : false,
                      "trivial" : false,
                      "useAudioPreRoll" : true,
                      "useVisualPreRoll" : true
                    }

                  },
                  {
                    "name" : "Fade",
                    "duration" : 30,
                    "rightMedia" : 60,
                    "attributes" : {
                      "bypass" : false,
                      "reverse" : false,
                      "trivial" : false,
                      "useAudioPreRoll" : true,
                      "useVisualPreRoll" : true
                    }

                  },
                  {
                    "name" : "Fade",
                    "duration" : 30,
                    "leftMedia" : 60,
                    "attributes" : {
                      "bypass" : false,
                      "reverse" : false,
                      "trivial" : false,
                      "useAudioPreRoll" : true,
                      "useVisualPreRoll" : true
                    }

                  },
                  {
                    "name" : "Fade",
                    "duration" : 30,
                    "rightMedia" : 61,
                    "attributes" : {
                      "bypass" : false,
                      "reverse" : false,
                      "trivial" : false,
                      "useAudioPreRoll" : true,
                      "useVisualPreRoll" : true
                    }

                  },
                  {
                    "name" : "Fade",
                    "duration" : 30,
                    "leftMedia" : 61,
                    "attributes" : {
                      "bypass" : false,
                      "reverse" : false,
                      "trivial" : false,
                      "useAudioPreRoll" : true,
                      "useVisualPreRoll" : true
                    }

                  },
                  {
                    "name" : "Fade",
                    "duration" : 30,
                    "rightMedia" : 62,
                    "attributes" : {
                      "bypass" : false,
                      "reverse" : false,
                      "trivial" : false,
                      "useAudioPreRoll" : true,
                      "useVisualPreRoll" : true
                    }

                  },
                  {
                    "name" : "Fade",
                    "duration" : 30,
                    "leftMedia" : 62,
                    "attributes" : {
                      "bypass" : false,
                      "reverse" : false,
                      "trivial" : false,
                      "useAudioPreRoll" : true,
                      "useVisualPreRoll" : true
                    }

                  },
                  {
                    "name" : "Fade",
                    "duration" : 30,
                    "rightMedia" : 63,
                    "attributes" : {
                      "bypass" : false,
                      "reverse" : false,
                      "trivial" : false,
                      "useAudioPreRoll" : true,
                      "useVisualPreRoll" : true
                    }

                  },
                  {
                    "name" : "Fade",
                    "duration" : 30,
                    "leftMedia" : 63,
                    "attributes" : {
                      "bypass" : false,
                      "reverse" : false,
                      "trivial" : false,
                      "useAudioPreRoll" : true,
                      "useVisualPreRoll" : true
                    }

                  },
                  {
                    "name" : "Fade",
                    "duration" : 30,
                    "rightMedia" : 64,
                    "attributes" : {
                      "bypass" : false,
                      "reverse" : false,
                      "trivial" : false,
                      "useAudioPreRoll" : true,
                      "useVisualPreRoll" : true
                    }

                  },
                  {
                    "name" : "Fade",
                    "duration" : 30,
                    "leftMedia" : 64,
                    "attributes" : {
                      "bypass" : false,
                      "reverse" : false,
                      "trivial" : false,
                      "useAudioPreRoll" : true,
                      "useVisualPreRoll" : true
                    }

                  },
                  {
                    "name" : "Fade",
                    "duration" : 30,
                    "rightMedia" : 65,
                    "attributes" : {
                      "bypass" : false,
                      "reverse" : false,
                      "trivial" : false,
                      "useAudioPreRoll" : true,
                      "useVisualPreRoll" : true
                    }

                  },
                  {
                    "name" : "Fade",
                    "duration" : 30,
                    "leftMedia" : 65,
                    "attributes" : {
                      "bypass" : false,
                      "reverse" : false,
                      "trivial" : false,
                      "useAudioPreRoll" : true,
                      "useVisualPreRoll" : true
                    }

                  },
                  {
                    "name" : "Fade",
                    "duration" : 30,
                    "rightMedia" : 66,
                    "attributes" : {
                      "bypass" : false,
                      "reverse" : false,
                      "trivial" : false,
                      "useAudioPreRoll" : true,
                      "useVisualPreRoll" : true
                    }

                  },
                  {
                    "name" : "Fade",
                    "duration" : 30,
                    "leftMedia" : 66,
                    "attributes" : {
                      "bypass" : false,
                      "reverse" : false,
                      "trivial" : false,
                      "useAudioPreRoll" : true,
                      "useVisualPreRoll" : true
                    }

                  },
                  {
                    "name" : "Fade",
                    "duration" : 30,
                    "rightMedia" : 67,
                    "attributes" : {
                      "bypass" : false,
                      "reverse" : false,
                      "trivial" : false,
                      "useAudioPreRoll" : true,
                      "useVisualPreRoll" : true
                    }

                  },
                  {
                    "name" : "Fade",
                    "duration" : 30,
                    "leftMedia" : 67,
                    "attributes" : {
                      "bypass" : false,
                      "reverse" : false,
                      "trivial" : false,
                      "useAudioPreRoll" : true,
                      "useVisualPreRoll" : true
                    }

                  },
                  {
                    "name" : "Fade",
                    "duration" : 30,
                    "rightMedia" : 68,
                    "attributes" : {
                      "bypass" : false,
                      "reverse" : false,
                      "trivial" : false,
                      "useAudioPreRoll" : true,
                      "useVisualPreRoll" : true
                    }

                  },
                  {
                    "name" : "Fade",
                    "duration" : 30,
                    "leftMedia" : 68,
                    "attributes" : {
                      "bypass" : false,
                      "reverse" : false,
                      "trivial" : false,
                      "useAudioPreRoll" : true,
                      "useVisualPreRoll" : true
                    }

                  }
                ]
              },
              {
                "trackIndex" : 3,
                "medias" : [
                  {
                    "id" : 69,
                    "_type" : "IMFile",
                    "src" : 3,
                    "trackNumber" : 0,
                    "trimStartSum" : 150,
                    "attributes" : {
                      "ident" : "Pasted Image"
                    },
                    "parameters" : {
                      "translation0" : -139.0,
                      "translation1" : -60.0,
                      "sourceCrop0" : 0.0,
                      "sourceCrop1" : 0.0,
                      "sourceCrop2" : 0.0,
                      "sourceCrop3" : 0.0,
                      "geometryCrop0" : 0.0,
                      "geometryCrop1" : 0.0,
                      "geometryCrop2" : 0.0,
                      "geometryCrop3" : 0.0
                    },
                    "effects" : [

                    ],
                    "start" : 30,
                    "duration" : 541,
                    "mediaStart" : 0,
                    "mediaDuration" : 1,
                    "scalar" : 1,
                    "metadata" : {
                      "clipSpeedAttribute" : false,
                      "default-scale" : "1",
                      "effectApplied" : "none",
                      "lockAspectRatio" : true
                    },
                    "animationTracks" : {

                    }
                  },
                  {
                    "id" : 70,
                    "_type" : "IMFile",
                    "src" : 5,
                    "trackNumber" : 0,
                    "trimStartSum" : 0,
                    "attributes" : {
                      "ident" : "Pasted Image"
                    },
                    "parameters" : {
                      "translation0" : -183.0,
                      "translation1" : 166.0,
                      "sourceCrop0" : 0.0,
                      "sourceCrop1" : 0.0,
                      "sourceCrop2" : 0.0,
                      "sourceCrop3" : 0.0,
                      "geometryCrop0" : 0.0,
                      "geometryCrop1" : 0.0,
                      "geometryCrop2" : 0.0,
                      "geometryCrop3" : 0.0
                    },
                    "effects" : [

                    ],
                    "start" : 603,
                    "duration" : 22,
                    "mediaStart" : 0,
                    "mediaDuration" : 1,
                    "scalar" : 1,
                    "metadata" : {
                      "clipSpeedAttribute" : false,
                      "default-scale" : "1",
                      "effectApplied" : "none",
                      "lockAspectRatio" : true
                    },
                    "animationTracks" : {

                    }
                  },
                  {
                    "id" : 71,
                    "_type" : "IMFile",
                    "src" : 5,
                    "trackNumber" : 0,
                    "trimStartSum" : 0,
                    "attributes" : {
                      "ident" : "Pasted Image"
                    },
                    "parameters" : {
                      "translation0" : -183.0,
                      "translation1" : 166.0,
                      "sourceCrop0" : 0.0,
                      "sourceCrop1" : 0.0,
                      "sourceCrop2" : 0.0,
                      "sourceCrop3" : 0.0,
                      "geometryCrop0" : 0.0,
                      "geometryCrop1" : 0.0,
                      "geometryCrop2" : 0.0,
                      "geometryCrop3" : 0.0
                    },
                    "effects" : [

                    ],
                    "start" : 647,
                    "duration" : 22,
                    "mediaStart" : 0,
                    "mediaDuration" : 1,
                    "scalar" : 1,
                    "metadata" : {
                      "clipSpeedAttribute" : false,
                      "default-scale" : "1",
                      "effectApplied" : "none",
                      "lockAspectRatio" : true
                    },
                    "animationTracks" : {

                    }
                  },
                  {
                    "id" : 72,
                    "_type" : "IMFile",
                    "src" : 5,
                    "trackNumber" : 0,
                    "trimStartSum" : 0,
                    "attributes" : {
                      "ident" : "Pasted Image"
                    },
                    "parameters" : {
                      "translation0" : -183.0,
                      "translation1" : 166.0,
                      "sourceCrop0" : 0.0,
                      "sourceCrop1" : 0.0,
                      "sourceCrop2" : 0.0,
                      "sourceCrop3" : 0.0,
                      "geometryCrop0" : 0.0,
                      "geometryCrop1" : 0.0,
                      "geometryCrop2" : 0.0,
                      "geometryCrop3" : 0.0
                    },
                    "effects" : [

                    ],
                    "start" : 709,
                    "duration" : 22,
                    "mediaStart" : 0,
                    "mediaDuration" : 1,
                    "scalar" : 1,
                    "metadata" : {
                      "clipSpeedAttribute" : false,
                      "default-scale" : "1",
                      "effectApplied" : "none",
                      "lockAspectRatio" : true
                    },
                    "animationTracks" : {

                    }
                  },
                  {
                    "id" : 73,
                    "_type" : "IMFile",
                    "src" : 5,
                    "trackNumber" : 0,
                    "trimStartSum" : 0,
                    "attributes" : {
                      "ident" : "Pasted Image"
                    },
                    "parameters" : {
                      "translation0" : -183.0,
                      "translation1" : 166.0,
                      "sourceCrop0" : 0.0,
                      "sourceCrop1" : 0.0,
                      "sourceCrop2" : 0.0,
                      "sourceCrop3" : 0.0,
                      "geometryCrop0" : 0.0,
                      "geometryCrop1" : 0.0,
                      "geometryCrop2" : 0.0,
                      "geometryCrop3" : 0.0
                    },
                    "effects" : [

                    ],
                    "start" : 738,
                    "duration" : 22,
                    "mediaStart" : 0,
                    "mediaDuration" : 1,
                    "scalar" : 1,
                    "metadata" : {
                      "clipSpeedAttribute" : false,
                      "default-scale" : "1",
                      "effectApplied" : "none",
                      "lockAspectRatio" : true
                    },
                    "animationTracks" : {

                    }
                  },
                  {
                    "id" : 74,
                    "_type" : "IMFile",
                    "src" : 5,
                    "trackNumber" : 0,
                    "trimStartSum" : 0,
                    "attributes" : {
                      "ident" : "Pasted Image"
                    },
                    "parameters" : {
                      "translation0" : -183.0,
                      "translation1" : 166.0,
                      "sourceCrop0" : 0.0,
                      "sourceCrop1" : 0.0,
                      "sourceCrop2" : 0.0,
                      "sourceCrop3" : 0.0,
                      "geometryCrop0" : 0.0,
                      "geometryCrop1" : 0.0,
                      "geometryCrop2" : 0.0,
                      "geometryCrop3" : 0.0
                    },
                    "effects" : [

                    ],
                    "start" : 782,
                    "duration" : 22,
                    "mediaStart" : 0,
                    "mediaDuration" : 1,
                    "scalar" : 1,
                    "metadata" : {
                      "clipSpeedAttribute" : false,
                      "default-scale" : "1",
                      "effectApplied" : "none",
                      "lockAspectRatio" : true
                    },
                    "animationTracks" : {

                    }
                  },
                  {
                    "id" : 75,
                    "_type" : "IMFile",
                    "src" : 5,
                    "trackNumber" : 0,
                    "trimStartSum" : 0,
                    "attributes" : {
                      "ident" : "Pasted Image"
                    },
                    "parameters" : {
                      "translation0" : -183.0,
                      "translation1" : 166.0,
                      "sourceCrop0" : 0.0,
                      "sourceCrop1" : 0.0,
                      "sourceCrop2" : 0.0,
                      "sourceCrop3" : 0.0,
                      "geometryCrop0" : 0.0,
                      "geometryCrop1" : 0.0,
                      "geometryCrop2" : 0.0,
                      "geometryCrop3" : 0.0
                    },
                    "effects" : [

                    ],
                    "start" : 839,
                    "duration" : 22,
                    "mediaStart" : 0,
                    "mediaDuration" : 1,
                    "scalar" : 1,
                    "metadata" : {
                      "clipSpeedAttribute" : false,
                      "default-scale" : "1",
                      "effectApplied" : "none",
                      "lockAspectRatio" : true
                    },
                    "animationTracks" : {

                    }
                  },
                  {
                    "id" : 76,
                    "_type" : "IMFile",
                    "src" : 5,
                    "trackNumber" : 0,
                    "trimStartSum" : 0,
                    "attributes" : {
                      "ident" : "Pasted Image"
                    },
                    "parameters" : {
                      "translation0" : -183.0,
                      "translation1" : 166.0,
                      "sourceCrop0" : 0.0,
                      "sourceCrop1" : 0.0,
                      "sourceCrop2" : 0.0,
                      "sourceCrop3" : 0.0,
                      "geometryCrop0" : 0.0,
                      "geometryCrop1" : 0.0,
                      "geometryCrop2" : 0.0,
                      "geometryCrop3" : 0.0
                    },
                    "effects" : [

                    ],
                    "start" : 867,
                    "duration" : 22,
                    "mediaStart" : 0,
                    "mediaDuration" : 1,
                    "scalar" : 1,
                    "metadata" : {
                      "clipSpeedAttribute" : false,
                      "default-scale" : "1",
                      "effectApplied" : "none",
                      "lockAspectRatio" : true
                    },
                    "animationTracks" : {

                    }
                  },
                  {
                    "id" : 77,
                    "_type" : "IMFile",
                    "src" : 5,
                    "trackNumber" : 0,
                    "trimStartSum" : 0,
                    "attributes" : {
                      "ident" : "Pasted Image"
                    },
                    "parameters" : {
                      "translation0" : -183.0,
                      "translation1" : 166.0,
                      "sourceCrop0" : 0.0,
                      "sourceCrop1" : 0.0,
                      "sourceCrop2" : 0.0,
                      "sourceCrop3" : 0.0,
                      "geometryCrop0" : 0.0,
                      "geometryCrop1" : 0.0,
                      "geometryCrop2" : 0.0,
                      "geometryCrop3" : 0.0
                    },
                    "effects" : [

                    ],
                    "start" : 911,
                    "duration" : 22,
                    "mediaStart" : 0,
                    "mediaDuration" : 1,
                    "scalar" : 1,
                    "metadata" : {
                      "clipSpeedAttribute" : false,
                      "default-scale" : "1",
                      "effectApplied" : "none",
                      "lockAspectRatio" : true
                    },
                    "animationTracks" : {

                    }
                  },
                  {
                    "id" : 78,
                    "_type" : "IMFile",
                    "src" : 5,
                    "trackNumber" : 0,
                    "trimStartSum" : 0,
                    "attributes" : {
                      "ident" : "Pasted Image"
                    },
                    "parameters" : {
                      "translation0" : -183.0,
                      "translation1" : 166.0,
                      "sourceCrop0" : 0.0,
                      "sourceCrop1" : 0.0,
                      "sourceCrop2" : 0.0,
                      "sourceCrop3" : 0.0,
                      "geometryCrop0" : 0.0,
                      "geometryCrop1" : 0.0,
                      "geometryCrop2" : 0.0,
                      "geometryCrop3" : 0.0
                    },
                    "effects" : [

                    ],
                    "start" : 968,
                    "duration" : 22,
                    "mediaStart" : 0,
                    "mediaDuration" : 1,
                    "scalar" : 1,
                    "metadata" : {
                      "clipSpeedAttribute" : false,
                      "default-scale" : "1",
                      "effectApplied" : "none",
                      "lockAspectRatio" : true
                    },
                    "animationTracks" : {

                    }
                  },
                  {
                    "id" : 79,
                    "_type" : "IMFile",
                    "src" : 5,
                    "trackNumber" : 0,
                    "trimStartSum" : 0,
                    "attributes" : {
                      "ident" : "Pasted Image"
                    },
                    "parameters" : {
                      "translation0" : -183.0,
                      "translation1" : 166.0,
                      "sourceCrop0" : 0.0,
                      "sourceCrop1" : 0.0,
                      "sourceCrop2" : 0.0,
                      "sourceCrop3" : 0.0,
                      "geometryCrop0" : 0.0,
                      "geometryCrop1" : 0.0,
                      "geometryCrop2" : 0.0,
                      "geometryCrop3" : 0.0
                    },
                    "effects" : [

                    ],
                    "start" : 1006,
                    "duration" : 22,
                    "mediaStart" : 0,
                    "mediaDuration" : 1,
                    "scalar" : 1,
                    "metadata" : {
                      "clipSpeedAttribute" : false,
                      "default-scale" : "1",
                      "effectApplied" : "none",
                      "lockAspectRatio" : true
                    },
                    "animationTracks" : {

                    }
                  },
                  {
                    "id" : 80,
                    "_type" : "IMFile",
                    "src" : 5,
                    "trackNumber" : 0,
                    "trimStartSum" : 0,
                    "attributes" : {
                      "ident" : "Pasted Image"
                    },
                    "parameters" : {
                      "translation0" : -183.0,
                      "translation1" : 166.0,
                      "sourceCrop0" : 0.0,
                      "sourceCrop1" : 0.0,
                      "sourceCrop2" : 0.0,
                      "sourceCrop3" : 0.0,
                      "geometryCrop0" : 0.0,
                      "geometryCrop1" : 0.0,
                      "geometryCrop2" : 0.0,
                      "geometryCrop3" : 0.0
                    },
                    "effects" : [

                    ],
                    "start" : 1034,
                    "duration" : 22,
                    "mediaStart" : 0,
                    "mediaDuration" : 1,
                    "scalar" : 1,
                    "metadata" : {
                      "clipSpeedAttribute" : false,
                      "default-scale" : "1",
                      "effectApplied" : "none",
                      "lockAspectRatio" : true
                    },
                    "animationTracks" : {

                    }
                  },
                  {
                    "id" : 81,
                    "_type" : "IMFile",
                    "src" : 5,
                    "trackNumber" : 0,
                    "trimStartSum" : 0,
                    "attributes" : {
                      "ident" : "Pasted Image"
                    },
                    "parameters" : {
                      "translation0" : -183.0,
                      "translation1" : 166.0,
                      "sourceCrop0" : 0.0,
                      "sourceCrop1" : 0.0,
                      "sourceCrop2" : 0.0,
                      "sourceCrop3" : 0.0,
                      "geometryCrop0" : 0.0,
                      "geometryCrop1" : 0.0,
                      "geometryCrop2" : 0.0,
                      "geometryCrop3" : 0.0
                    },
                    "effects" : [

                    ],
                    "start" : 1078,
                    "duration" : 22,
                    "mediaStart" : 0,
                    "mediaDuration" : 1,
                    "scalar" : 1,
                    "metadata" : {
                      "clipSpeedAttribute" : false,
                      "default-scale" : "1",
                      "effectApplied" : "none",
                      "lockAspectRatio" : true
                    },
                    "animationTracks" : {

                    }
                  },
                  {
                    "id" : 82,
                    "_type" : "IMFile",
                    "src" : 5,
                    "trackNumber" : 0,
                    "trimStartSum" : 0,
                    "attributes" : {
                      "ident" : "Pasted Image"
                    },
                    "parameters" : {
                      "translation0" : -183.0,
                      "translation1" : 166.0,
                      "sourceCrop0" : 0.0,
                      "sourceCrop1" : 0.0,
                      "sourceCrop2" : 0.0,
                      "sourceCrop3" : 0.0,
                      "geometryCrop0" : 0.0,
                      "geometryCrop1" : 0.0,
                      "geometryCrop2" : 0.0,
                      "geometryCrop3" : 0.0
                    },
                    "effects" : [

                    ],
                    "start" : 1135,
                    "duration" : 22,
                    "mediaStart" : 0,
                    "mediaDuration" : 1,
                    "scalar" : 1,
                    "metadata" : {
                      "clipSpeedAttribute" : false,
                      "default-scale" : "1",
                      "effectApplied" : "none",
                      "lockAspectRatio" : true
                    },
                    "animationTracks" : {

                    }
                  },
                  {
                    "id" : 83,
                    "_type" : "IMFile",
                    "src" : 5,
                    "trackNumber" : 0,
                    "trimStartSum" : 0,
                    "attributes" : {
                      "ident" : "Pasted Image"
                    },
                    "parameters" : {
                      "translation0" : -183.0,
                      "translation1" : 166.0,
                      "sourceCrop0" : 0.0,
                      "sourceCrop1" : 0.0,
                      "sourceCrop2" : 0.0,
                      "sourceCrop3" : 0.0,
                      "geometryCrop0" : 0.0,
                      "geometryCrop1" : 0.0,
                      "geometryCrop2" : 0.0,
                      "geometryCrop3" : 0.0
                    },
                    "effects" : [

                    ],
                    "start" : 1176,
                    "duration" : 22,
                    "mediaStart" : 0,
                    "mediaDuration" : 1,
                    "scalar" : 1,
                    "metadata" : {
                      "clipSpeedAttribute" : false,
                      "default-scale" : "1",
                      "effectApplied" : "none",
                      "lockAspectRatio" : true
                    },
                    "animationTracks" : {

                    }
                  },
                  {
                    "id" : 84,
                    "_type" : "IMFile",
                    "src" : 5,
                    "trackNumber" : 0,
                    "trimStartSum" : 0,
                    "attributes" : {
                      "ident" : "Pasted Image"
                    },
                    "parameters" : {
                      "translation0" : -183.0,
                      "translation1" : 166.0,
                      "sourceCrop0" : 0.0,
                      "sourceCrop1" : 0.0,
                      "sourceCrop2" : 0.0,
                      "sourceCrop3" : 0.0,
                      "geometryCrop0" : 0.0,
                      "geometryCrop1" : 0.0,
                      "geometryCrop2" : 0.0,
                      "geometryCrop3" : 0.0
                    },
                    "effects" : [

                    ],
                    "start" : 1204,
                    "duration" : 22,
                    "mediaStart" : 0,
                    "mediaDuration" : 1,
                    "scalar" : 1,
                    "metadata" : {
                      "clipSpeedAttribute" : false,
                      "default-scale" : "1",
                      "effectApplied" : "none",
                      "lockAspectRatio" : true
                    },
                    "animationTracks" : {

                    }
                  },
                  {
                    "id" : 85,
                    "_type" : "IMFile",
                    "src" : 5,
                    "trackNumber" : 0,
                    "trimStartSum" : 0,
                    "attributes" : {
                      "ident" : "Pasted Image"
                    },
                    "parameters" : {
                      "translation0" : -183.0,
                      "translation1" : 166.0,
                      "sourceCrop0" : 0.0,
                      "sourceCrop1" : 0.0,
                      "sourceCrop2" : 0.0,
                      "sourceCrop3" : 0.0,
                      "geometryCrop0" : 0.0,
                      "geometryCrop1" : 0.0,
                      "geometryCrop2" : 0.0,
                      "geometryCrop3" : 0.0
                    },
                    "effects" : [

                    ],
                    "start" : 1248,
                    "duration" : 22,
                    "mediaStart" : 0,
                    "mediaDuration" : 1,
                    "scalar" : 1,
                    "metadata" : {
                      "clipSpeedAttribute" : false,
                      "default-scale" : "1",
                      "effectApplied" : "none",
                      "lockAspectRatio" : true
                    },
                    "animationTracks" : {

                    }
                  },
                  {
                    "id" : 86,
                    "_type" : "IMFile",
                    "src" : 18,
                    "trackNumber" : 0,
                    "trimStartSum" : -7,
                    "attributes" : {
                      "ident" : "Pasted Image"
                    },
                    "parameters" : {
                      "translation0" : -112.0,
                      "translation1" : 55.0,
                      "sourceCrop0" : 0.0,
                      "sourceCrop1" : 0.0,
                      "sourceCrop2" : 0.0,
                      "sourceCrop3" : 0.0,
                      "geometryCrop0" : 0.0,
                      "geometryCrop1" : 0.0,
                      "geometryCrop2" : 0.0,
                      "geometryCrop3" : 0.0
                    },
                    "effects" : [

                    ],
                    "start" : 1450,
                    "duration" : 273,
                    "mediaStart" : 0,
                    "mediaDuration" : 1,
                    "scalar" : 1,
                    "metadata" : {
                      "clipSpeedAttribute" : false,
                      "default-scale" : "1",
                      "effectApplied" : "none",
                      "lockAspectRatio" : true
                    },
                    "animationTracks" : {

                    }
                  },
                  {
                    "id" : 87,
                    "_type" : "Callout",
                    "def" : {
                      "kind" : "TypeWinSVG",
                      "shape" : "",
                      "style" : "",
                      "DrawTime" : 1.0,
                      "borderColorBlue" : 0.0,
                      "borderColorGreen" : 1.0,
                      "borderColorRed" : 1.0,
                      "borderWidth" : 3.0,
                      "height" : 59.2505900481523,
                      "width" : 400.987,
                      "xmlContent" : "<?xml version=\"1.0\" encoding=\"utf-8\"?>\r\n<!-- Generator: Adobe Illustrator 15.0.2, SVG Export Plug-In . SVG Version: 6.00 Build 0)  -->\r\n<!DOCTYPE svg PUBLIC \"-//W3C//DTD SVG 1.1//EN\" \"http://www.w3.org/Graphics/SVG/1.1/DTD/svg11.dtd\">\r\n<svg version=\"1.1\" id=\"Layer_1\" xmlns=\"http://www.w3.org/2000/svg\" xmlns:xlink=\"http://www.w3.org/1999/xlink\" x=\"0px\" y=\"0px\"\r\n\t width=\"420px\" height=\"420px\" viewBox=\"0 0 420 420\" enable-background=\"new 0 0 420 420\" xml:space=\"preserve\">\r\n<path fill=\"none\" stroke=\"#000000\" stroke-miterlimit=\"10\" d=\"M60.383,184.37c-8.266,1.782-16.925,2.15-25.362,1.716\r\n\tc55.994-5.072,111.775-11.591,168.218-13.374c45.888-1.45,92.026-3.477,137.946-2.2c18.141,0.504,43.871-1.199,60.004,3.191\r\n\tc-45.926-1.45-92.748-3.568-139.053-3.176c-58.164,0.493-116.047,4.436-174.051,8.389c-24.45,1.666-51.165,0.241-75.268,5.663\r\n\tc50.304-12.151,104.897-12.959,156.303-14.475c64.87-1.914,147.716-11.813,210.706,9.323c-9.012,3.176-22.994,1.516-33.312,1.504\r\n\tc-36.834-0.048-73.586,0.138-110.407,1.222c-76.121,2.242-153.218,16.799-229.066,16.051c71.634-4.535,140.968-15.478,213.52-13.605\r\n\tc48.931,1.264,97.727,5.188,146.572,8.036c13.602,0.793,27.662,0.291,40.895,3.908c-124.527-9.618-246.63-5.8-370.181,12.505\r\n\tc50.926,4.547,108.248-5.809,160.446-5.81c62.115-0.004,124.245,5.786,186.069,6.639c-49.217-11.589-108.559-5.909-158.891-4.592\r\n\tc-53.609,1.4-107.208,9.18-160.684,10.133c63.294,1.356,126.319-7.266,190-3.632c38.305,2.188,76.697,6.343,115.064,7.123\r\n\tc-37.316-6.239-75.154-9.06-112.971-10.182c-56.831-1.684-117.409-5.038-173.903,3.298c90.708,0.773,187.308-10.865,276.505,13.346\"\r\n\t/>\r\n</svg>\r\n"
                    },
                    "attributes" : {
                      "ident" : "",
                      "autoRotateText" : true
                    },
                    "parameters" : {
                      "translation0" : -380.833586126251,
                      "translation1" : 146.336326969872,
                      "scale0" : 0.147290606800939,
                      "scale1" : 0.147290606800939,
                      "sourceCrop0" : 0.0,
                      "sourceCrop1" : 0.0,
                      "sourceCrop2" : 0.0,
                      "sourceCrop3" : 0.0,
                      "geometryCrop0" : 0.0,
                      "geometryCrop1" : 0.0,
                      "geometryCrop2" : 0.0,
                      "geometryCrop3" : 0.0
                    },
                    "leftEdgeMods" : [
                      {
                        "group" : "DrawPercentageFade",
                        "duration" : 30,
                        "parameters" : [
                          {
                            "name" : "DrawTime",
                              "func" : "FadeInFunc"
                            }
                        ]
                      }
                    ],
                    "effects" : [

                    ],
                    "start" : 2009,
                    "duration" : 110,
                    "mediaStart" : 0,
                    "mediaDuration" : 110,
                    "scalar" : 1,
                    "metadata" : {
                      "clipSpeedAttribute" : false,
                      "default-scale" : "1",
                      "effectApplied" : "none",
                      "lockAspectRatio" : true
                    },
                    "animationTracks" : {

                    }
                  },
                  {
                    "id" : 88,
                    "_type" : "IMFile",
                    "src" : 19,
                    "trackNumber" : 0,
                    "trimStartSum" : 0,
                    "attributes" : {
                      "ident" : "Pasted Image"
                    },
                    "parameters" : {
                      "translation0" : -112.0,
                      "translation1" : 55.0,
                      "sourceCrop0" : 0.0,
                      "sourceCrop1" : 0.0,
                      "sourceCrop2" : 0.0,
                      "sourceCrop3" : 0.0,
                      "geometryCrop0" : 0.0,
                      "geometryCrop1" : 0.0,
                      "geometryCrop2" : 0.0,
                      "geometryCrop3" : 0.0
                    },
                    "effects" : [

                    ],
                    "start" : 2189,
                    "duration" : 479,
                    "mediaStart" : 0,
                    "mediaDuration" : 1,
                    "scalar" : 1,
                    "metadata" : {
                      "clipSpeedAttribute" : false,
                      "default-scale" : "1",
                      "effectApplied" : "none",
                      "lockAspectRatio" : true
                    },
                    "animationTracks" : {

                    }
                  },
                  {
                    "id" : 89,
                    "_type" : "IMFile",
                    "src" : 27,
                    "trackNumber" : 0,
                    "trimStartSum" : 0,
                    "attributes" : {
                      "ident" : "Pasted Image"
                    },
                    "parameters" : {
                      "translation0" : {
                        "type" : "double",
                        "defaultValue" : -220.0,
                        "keyframes" : [
                          {
                            "endTime" : 111,
                            "time" : 99,
                            "value" : -125.0,
                            "interp" : "linr",
                            "duration" : 12
                          },
                          {
                            "endTime" : 148,
                            "time" : 128,
                            "value" : 160.0,
                            "interp" : "linr",
                            "duration" : 20
                          }
                        ]
                      },
                      "translation1" : {
                        "type" : "double",
                        "defaultValue" : 112.0,
                        "keyframes" : [
                          {
                            "endTime" : 148,
                            "time" : 128,
                            "value" : 112.0,
                            "interp" : "linr",
                            "duration" : 20
                          }
                        ]
                      },
                      "sourceCrop0" : 0.0,
                      "sourceCrop1" : 0.0,
                      "sourceCrop2" : 0.0,
                      "sourceCrop3" : 0.0,
                      "geometryCrop0" : 0.0,
                      "geometryCrop1" : 0.0,
                      "geometryCrop2" : 0.0,
                      "geometryCrop3" : 0.0
                    },
                    "effects" : [

                    ],
                    "start" : 2668,
                    "duration" : 148,
                    "mediaStart" : 0,
                    "mediaDuration" : 1,
                    "scalar" : 1,
                    "metadata" : {
                      "clipSpeedAttribute" : false,
                      "default-scale" : "1",
                      "effectApplied" : "none",
                      "lockAspectRatio" : true
                    },
                    "animationTracks" : {
                      "visual" : [
                        {
                          "endTime" : 111,
                          "duration" : 12,
                          "range" : [ 99, 12],
                          "interp" : "linr"
                        },
                        {
                          "endTime" : 148,
                          "duration" : 20,
                          "range" : [ 128, 20],
                          "interp" : "linr"
                        }
                      ]
                    }
                  },
                  {
                    "id" : 90,
                    "_type" : "IMFile",
                    "src" : 34,
                    "trackNumber" : 0,
                    "trimStartSum" : 0,
                    "attributes" : {
                      "ident" : "Pasted Image"
                    },
                    "parameters" : {
                      "translation0" : {
                        "type" : "double",
                        "defaultValue" : -160.0,
                        "keyframes" : [
                          {
                            "endTime" : 34,
                            "time" : 4,
                            "value" : -157.0,
                            "interp" : "linr",
                            "duration" : 30
                          }
                        ]
                      },
                      "translation1" : {
                        "type" : "double",
                        "defaultValue" : -30.0,
                        "keyframes" : [
                          {
                            "endTime" : 34,
                            "time" : 4,
                            "value" : 43.0,
                            "interp" : "linr",
                            "duration" : 30
                          }
                        ]
                      },
                      "scale1" : {
                        "type" : "double",
                        "defaultValue" : 0.197044334975369,
                        "keyframes" : [
                          {
                            "endTime" : 34,
                            "time" : 4,
                            "value" : 0.935960591133005,
                            "interp" : "linr",
                            "duration" : 30
                          }
                        ]
                      },
                      "sourceCrop0" : 0.0,
                      "sourceCrop1" : 0.0,
                      "sourceCrop2" : 0.0,
                      "sourceCrop3" : 0.0,
                      "geometryCrop0" : 0.0,
                      "geometryCrop1" : 0.0,
                      "geometryCrop2" : 0.0,
                      "geometryCrop3" : 0.0
                    },
                    "effects" : [

                    ],
                    "start" : 4149,
                    "duration" : 99,
                    "mediaStart" : 0,
                    "mediaDuration" : 1,
                    "scalar" : 1,
                    "metadata" : {
                      "clipSpeedAttribute" : false,
                      "default-scale" : "1",
                      "effectApplied" : "none",
                      "lockAspectRatio" : false
                    },
                    "animationTracks" : {
                      "visual" : [
                        {
                          "endTime" : 34,
                          "duration" : 30,
                          "range" : [ 4, 30],
                          "interp" : "linr"
                        }
                      ]
                    }
                  },
                  {
                    "id" : 91,
                    "_type" : "IMFile",
                    "src" : 38,
                    "trackNumber" : 0,
                    "trimStartSum" : 0,
                    "attributes" : {
                      "ident" : "Pasted Image"
                    },
                    "parameters" : {
                      "translation1" : 120.0,
                      "scale0" : 0.601786553831688,
                      "scale1" : 0.601786553831688,
                      "sourceCrop0" : 0.0,
                      "sourceCrop1" : 0.0,
                      "sourceCrop2" : 0.0,
                      "sourceCrop3" : 0.0,
                      "geometryCrop0" : 0.0,
                      "geometryCrop1" : 0.0,
                      "geometryCrop2" : 0.0,
                      "geometryCrop3" : 0.0
                    },
                    "effects" : [

                    ],
                    "start" : 4285,
                    "duration" : 244,
                    "mediaStart" : 0,
                    "mediaDuration" : 1,
                    "scalar" : 1,
                    "metadata" : {
                      "clipSpeedAttribute" : false,
                      "default-scale" : "0.601787",
                      "effectApplied" : "none",
                      "lockAspectRatio" : true
                    },
                    "animationTracks" : {

                    }
                  },
                  {
                    "id" : 92,
                    "_type" : "IMFile",
                    "src" : 36,
                    "trackNumber" : 0,
                    "trimStartSum" : 0,
                    "attributes" : {
                      "ident" : "Pasted Image"
                    },
                    "parameters" : {
                      "translation0" : -112.0,
                      "translation1" : 84.0,
                      "sourceCrop0" : 0.0,
                      "sourceCrop1" : 0.0,
                      "sourceCrop2" : 0.0,
                      "sourceCrop3" : 0.0,
                      "geometryCrop0" : 0.0,
                      "geometryCrop1" : 0.0,
                      "geometryCrop2" : 0.0,
                      "geometryCrop3" : 0.0
                    },
                    "effects" : [

                    ],
                    "start" : 4683,
                    "duration" : 867,
                    "mediaStart" : 0,
                    "mediaDuration" : 1,
                    "scalar" : 1,
                    "metadata" : {
                      "clipSpeedAttribute" : false,
                      "default-scale" : "1",
                      "effectApplied" : "none",
                      "lockAspectRatio" : true
                    },
                    "animationTracks" : {

                    }
                  },
                  {
                    "id" : 93,
                    "_type" : "IMFile",
                    "src" : 45,
                    "trackNumber" : 0,
                    "trimStartSum" : 0,
                    "attributes" : {
                      "ident" : "Pasted Image"
                    },
                    "parameters" : {
                      "translation0" : {
                        "type" : "double",
                        "defaultValue" : -112.0,
                        "interp" : "eioe"
                      },
                      "translation1" : {
                        "type" : "double",
                        "defaultValue" : 76.0,
                        "interp" : "eioe"
                      },
                      "sourceCrop0" : {
                        "type" : "double",
                        "defaultValue" : 0.0,
                        "interp" : "eioe"
                      },
                      "sourceCrop1" : {
                        "type" : "double",
                        "defaultValue" : 0.0,
                        "interp" : "eioe"
                      },
                      "sourceCrop2" : {
                        "type" : "double",
                        "defaultValue" : 0.0,
                        "interp" : "eioe"
                      },
                      "sourceCrop3" : {
                        "type" : "double",
                        "defaultValue" : 0.0,
                        "interp" : "eioe"
                      },
                      "geometryCrop0" : {
                        "type" : "double",
                        "defaultValue" : 0.0,
                        "interp" : "eioe"
                      },
                      "geometryCrop1" : {
                        "type" : "double",
                        "defaultValue" : 0.0,
                        "interp" : "eioe"
                      },
                      "geometryCrop2" : {
                        "type" : "double",
                        "defaultValue" : 0.0,
                        "interp" : "eioe"
                      },
                      "geometryCrop3" : {
                        "type" : "double",
                        "defaultValue" : 0.0,
                        "interp" : "eioe"
                      }
                    },
                    "effects" : [

                    ],
                    "start" : 5582,
                    "duration" : 807,
                    "mediaStart" : 0,
                    "mediaDuration" : 1,
                    "scalar" : 1,
                    "metadata" : {
                      "clipSpeedAttribute" : false,
                      "default-scale" : "1",
                      "effectApplied" : "none",
                      "lockAspectRatio" : true
                    },
                    "animationTracks" : {

                    }
                  },
                  {
                    "id" : 94,
                    "_type" : "IMFile",
                    "src" : 46,
                    "trackNumber" : 0,
                    "trimStartSum" : 0,
                    "attributes" : {
                      "ident" : "Pasted Image"
                    },
                    "parameters" : {
                      "translation0" : {
                        "type" : "double",
                        "defaultValue" : -112.0,
                        "interp" : "eioe"
                      },
                      "translation1" : {
                        "type" : "double",
                        "defaultValue" : 76.0,
                        "interp" : "eioe"
                      },
                      "sourceCrop0" : {
                        "type" : "double",
                        "defaultValue" : 0.0,
                        "interp" : "eioe"
                      },
                      "sourceCrop1" : {
                        "type" : "double",
                        "defaultValue" : 0.0,
                        "interp" : "eioe"
                      },
                      "sourceCrop2" : {
                        "type" : "double",
                        "defaultValue" : 0.0,
                        "interp" : "eioe"
                      },
                      "sourceCrop3" : {
                        "type" : "double",
                        "defaultValue" : 0.0,
                        "interp" : "eioe"
                      },
                      "geometryCrop0" : {
                        "type" : "double",
                        "defaultValue" : 0.0,
                        "interp" : "eioe"
                      },
                      "geometryCrop1" : {
                        "type" : "double",
                        "defaultValue" : 0.0,
                        "interp" : "eioe"
                      },
                      "geometryCrop2" : {
                        "type" : "double",
                        "defaultValue" : 0.0,
                        "interp" : "eioe"
                      },
                      "geometryCrop3" : {
                        "type" : "double",
                        "defaultValue" : 0.0,
                        "interp" : "eioe"
                      }
                    },
                    "effects" : [

                    ],
                    "start" : 6424,
                    "duration" : 942,
                    "mediaStart" : 0,
                    "mediaDuration" : 1,
                    "scalar" : 1,
                    "metadata" : {
                      "clipSpeedAttribute" : false,
                      "default-scale" : "1",
                      "effectApplied" : "none",
                      "lockAspectRatio" : true
                    },
                    "animationTracks" : {

                    }
                  }
                ],
                "transitions" : [
                  {
                    "name" : "Fade",
                    "duration" : 30,
                    "rightMedia" : 69,
                    "attributes" : {
                      "bypass" : false,
                      "reverse" : false,
                      "trivial" : false,
                      "useAudioPreRoll" : true,
                      "useVisualPreRoll" : true
                    }

                  },
                  {
                    "name" : "Fade",
                    "duration" : 30,
                    "leftMedia" : 69,
                    "attributes" : {
                      "bypass" : false,
                      "reverse" : false,
                      "trivial" : false,
                      "useAudioPreRoll" : true,
                      "useVisualPreRoll" : true
                    }

                  },
                  {
                    "name" : "Fade",
                    "duration" : 6,
                    "rightMedia" : 70,
                    "attributes" : {
                      "bypass" : false,
                      "reverse" : false,
                      "trivial" : false,
                      "useAudioPreRoll" : true,
                      "useVisualPreRoll" : true
                    }

                  },
                  {
                    "name" : "Fade",
                    "duration" : 6,
                    "leftMedia" : 70,
                    "attributes" : {
                      "bypass" : false,
                      "reverse" : false,
                      "trivial" : false,
                      "useAudioPreRoll" : true,
                      "useVisualPreRoll" : true
                    }

                  },
                  {
                    "name" : "Fade",
                    "duration" : 6,
                    "rightMedia" : 71,
                    "attributes" : {
                      "bypass" : false,
                      "reverse" : false,
                      "trivial" : false,
                      "useAudioPreRoll" : true,
                      "useVisualPreRoll" : true
                    }

                  },
                  {
                    "name" : "Fade",
                    "duration" : 6,
                    "leftMedia" : 71,
                    "attributes" : {
                      "bypass" : false,
                      "reverse" : false,
                      "trivial" : false,
                      "useAudioPreRoll" : true,
                      "useVisualPreRoll" : true
                    }

                  },
                  {
                    "name" : "Fade",
                    "duration" : 6,
                    "rightMedia" : 72,
                    "attributes" : {
                      "bypass" : false,
                      "reverse" : false,
                      "trivial" : false,
                      "useAudioPreRoll" : true,
                      "useVisualPreRoll" : true
                    }

                  },
                  {
                    "name" : "Fade",
                    "duration" : 6,
                    "leftMedia" : 72,
                    "attributes" : {
                      "bypass" : false,
                      "reverse" : false,
                      "trivial" : false,
                      "useAudioPreRoll" : true,
                      "useVisualPreRoll" : true
                    }

                  },
                  {
                    "name" : "Fade",
                    "duration" : 6,
                    "rightMedia" : 73,
                    "attributes" : {
                      "bypass" : false,
                      "reverse" : false,
                      "trivial" : false,
                      "useAudioPreRoll" : true,
                      "useVisualPreRoll" : true
                    }

                  },
                  {
                    "name" : "Fade",
                    "duration" : 6,
                    "leftMedia" : 73,
                    "attributes" : {
                      "bypass" : false,
                      "reverse" : false,
                      "trivial" : false,
                      "useAudioPreRoll" : true,
                      "useVisualPreRoll" : true
                    }

                  },
                  {
                    "name" : "Fade",
                    "duration" : 6,
                    "rightMedia" : 74,
                    "attributes" : {
                      "bypass" : false,
                      "reverse" : false,
                      "trivial" : false,
                      "useAudioPreRoll" : true,
                      "useVisualPreRoll" : true
                    }

                  },
                  {
                    "name" : "Fade",
                    "duration" : 6,
                    "leftMedia" : 74,
                    "attributes" : {
                      "bypass" : false,
                      "reverse" : false,
                      "trivial" : false,
                      "useAudioPreRoll" : true,
                      "useVisualPreRoll" : true
                    }

                  },
                  {
                    "name" : "Fade",
                    "duration" : 6,
                    "rightMedia" : 75,
                    "attributes" : {
                      "bypass" : false,
                      "reverse" : false,
                      "trivial" : false,
                      "useAudioPreRoll" : true,
                      "useVisualPreRoll" : true
                    }

                  },
                  {
                    "name" : "Fade",
                    "duration" : 6,
                    "leftMedia" : 75,
                    "attributes" : {
                      "bypass" : false,
                      "reverse" : false,
                      "trivial" : false,
                      "useAudioPreRoll" : true,
                      "useVisualPreRoll" : true
                    }

                  },
                  {
                    "name" : "Fade",
                    "duration" : 6,
                    "rightMedia" : 76,
                    "attributes" : {
                      "bypass" : false,
                      "reverse" : false,
                      "trivial" : false,
                      "useAudioPreRoll" : true,
                      "useVisualPreRoll" : true
                    }

                  },
                  {
                    "name" : "Fade",
                    "duration" : 6,
                    "leftMedia" : 76,
                    "attributes" : {
                      "bypass" : false,
                      "reverse" : false,
                      "trivial" : false,
                      "useAudioPreRoll" : true,
                      "useVisualPreRoll" : true
                    }

                  },
                  {
                    "name" : "Fade",
                    "duration" : 6,
                    "rightMedia" : 77,
                    "attributes" : {
                      "bypass" : false,
                      "reverse" : false,
                      "trivial" : false,
                      "useAudioPreRoll" : true,
                      "useVisualPreRoll" : true
                    }

                  },
                  {
                    "name" : "Fade",
                    "duration" : 6,
                    "leftMedia" : 77,
                    "attributes" : {
                      "bypass" : false,
                      "reverse" : false,
                      "trivial" : false,
                      "useAudioPreRoll" : true,
                      "useVisualPreRoll" : true
                    }

                  },
                  {
                    "name" : "Fade",
                    "duration" : 6,
                    "rightMedia" : 78,
                    "attributes" : {
                      "bypass" : false,
                      "reverse" : false,
                      "trivial" : false,
                      "useAudioPreRoll" : true,
                      "useVisualPreRoll" : true
                    }

                  },
                  {
                    "name" : "Fade",
                    "duration" : 6,
                    "leftMedia" : 78,
                    "attributes" : {
                      "bypass" : false,
                      "reverse" : false,
                      "trivial" : false,
                      "useAudioPreRoll" : true,
                      "useVisualPreRoll" : true
                    }

                  },
                  {
                    "name" : "Fade",
                    "duration" : 6,
                    "rightMedia" : 79,
                    "attributes" : {
                      "bypass" : false,
                      "reverse" : false,
                      "trivial" : false,
                      "useAudioPreRoll" : true,
                      "useVisualPreRoll" : true
                    }

                  },
                  {
                    "name" : "Fade",
                    "duration" : 6,
                    "leftMedia" : 79,
                    "attributes" : {
                      "bypass" : false,
                      "reverse" : false,
                      "trivial" : false,
                      "useAudioPreRoll" : true,
                      "useVisualPreRoll" : true
                    }

                  },
                  {
                    "name" : "Fade",
                    "duration" : 6,
                    "rightMedia" : 80,
                    "attributes" : {
                      "bypass" : false,
                      "reverse" : false,
                      "trivial" : false,
                      "useAudioPreRoll" : true,
                      "useVisualPreRoll" : true
                    }

                  },
                  {
                    "name" : "Fade",
                    "duration" : 6,
                    "leftMedia" : 80,
                    "attributes" : {
                      "bypass" : false,
                      "reverse" : false,
                      "trivial" : false,
                      "useAudioPreRoll" : true,
                      "useVisualPreRoll" : true
                    }

                  },
                  {
                    "name" : "Fade",
                    "duration" : 6,
                    "rightMedia" : 81,
                    "attributes" : {
                      "bypass" : false,
                      "reverse" : false,
                      "trivial" : false,
                      "useAudioPreRoll" : true,
                      "useVisualPreRoll" : true
                    }

                  },
                  {
                    "name" : "Fade",
                    "duration" : 6,
                    "leftMedia" : 81,
                    "attributes" : {
                      "bypass" : false,
                      "reverse" : false,
                      "trivial" : false,
                      "useAudioPreRoll" : true,
                      "useVisualPreRoll" : true
                    }

                  },
                  {
                    "name" : "Fade",
                    "duration" : 6,
                    "rightMedia" : 82,
                    "attributes" : {
                      "bypass" : false,
                      "reverse" : false,
                      "trivial" : false,
                      "useAudioPreRoll" : true,
                      "useVisualPreRoll" : true
                    }

                  },
                  {
                    "name" : "Fade",
                    "duration" : 6,
                    "leftMedia" : 82,
                    "attributes" : {
                      "bypass" : false,
                      "reverse" : false,
                      "trivial" : false,
                      "useAudioPreRoll" : true,
                      "useVisualPreRoll" : true
                    }

                  },
                  {
                    "name" : "Fade",
                    "duration" : 6,
                    "rightMedia" : 83,
                    "attributes" : {
                      "bypass" : false,
                      "reverse" : false,
                      "trivial" : false,
                      "useAudioPreRoll" : true,
                      "useVisualPreRoll" : true
                    }

                  },
                  {
                    "name" : "Fade",
                    "duration" : 6,
                    "leftMedia" : 83,
                    "attributes" : {
                      "bypass" : false,
                      "reverse" : false,
                      "trivial" : false,
                      "useAudioPreRoll" : true,
                      "useVisualPreRoll" : true
                    }

                  },
                  {
                    "name" : "Fade",
                    "duration" : 6,
                    "rightMedia" : 84,
                    "attributes" : {
                      "bypass" : false,
                      "reverse" : false,
                      "trivial" : false,
                      "useAudioPreRoll" : true,
                      "useVisualPreRoll" : true
                    }

                  },
                  {
                    "name" : "Fade",
                    "duration" : 6,
                    "leftMedia" : 84,
                    "attributes" : {
                      "bypass" : false,
                      "reverse" : false,
                      "trivial" : false,
                      "useAudioPreRoll" : true,
                      "useVisualPreRoll" : true
                    }

                  },
                  {
                    "name" : "Fade",
                    "duration" : 6,
                    "rightMedia" : 85,
                    "attributes" : {
                      "bypass" : false,
                      "reverse" : false,
                      "trivial" : false,
                      "useAudioPreRoll" : true,
                      "useVisualPreRoll" : true
                    }

                  },
                  {
                    "name" : "Fade",
                    "duration" : 6,
                    "leftMedia" : 85,
                    "attributes" : {
                      "bypass" : false,
                      "reverse" : false,
                      "trivial" : false,
                      "useAudioPreRoll" : true,
                      "useVisualPreRoll" : true
                    }

                  },
                  {
                    "name" : "Fade",
                    "duration" : 30,
                    "rightMedia" : 86,
                    "attributes" : {
                      "bypass" : false,
                      "reverse" : false,
                      "trivial" : false,
                      "useAudioPreRoll" : true,
                      "useVisualPreRoll" : true
                    }

                  },
                  {
                    "name" : "Fade",
                    "duration" : 30,
                    "leftMedia" : 86,
                    "attributes" : {
                      "bypass" : false,
                      "reverse" : false,
                      "trivial" : false,
                      "useAudioPreRoll" : true,
                      "useVisualPreRoll" : true
                    }

                  },
                  {
                    "name" : "Fade",
                    "duration" : 30,
                    "leftMedia" : 87,
                    "attributes" : {
                      "bypass" : false,
                      "reverse" : false,
                      "trivial" : false,
                      "useAudioPreRoll" : false,
                      "useVisualPreRoll" : true
                    }

                  },
                  {
                    "name" : "Fade",
                    "duration" : 30,
                    "rightMedia" : 88,
                    "attributes" : {
                      "bypass" : false,
                      "reverse" : false,
                      "trivial" : false,
                      "useAudioPreRoll" : true,
                      "useVisualPreRoll" : true
                    }

                  },
                  {
                    "name" : "Fade",
                    "duration" : 30,
                    "leftMedia" : 88,
                    "attributes" : {
                      "bypass" : false,
                      "reverse" : false,
                      "trivial" : false,
                      "useAudioPreRoll" : true,
                      "useVisualPreRoll" : true
                    }

                  },
                  {
                    "name" : "Fade",
                    "duration" : 30,
                    "leftMedia" : 90,
                    "attributes" : {
                      "bypass" : false,
                      "reverse" : false,
                      "trivial" : false,
                      "useAudioPreRoll" : true,
                      "useVisualPreRoll" : true
                    }

                  },
                  {
                    "name" : "Fade",
                    "duration" : 30,
                    "rightMedia" : 91,
                    "attributes" : {
                      "bypass" : false,
                      "reverse" : false,
                      "trivial" : false,
                      "useAudioPreRoll" : true,
                      "useVisualPreRoll" : true
                    }

                  },
                  {
                    "name" : "Fade",
                    "duration" : 30,
                    "leftMedia" : 91,
                    "attributes" : {
                      "bypass" : false,
                      "reverse" : false,
                      "trivial" : false,
                      "useAudioPreRoll" : true,
                      "useVisualPreRoll" : true
                    }

                  },
                  {
                    "name" : "Fade",
                    "duration" : 30,
                    "rightMedia" : 92,
                    "attributes" : {
                      "bypass" : false,
                      "reverse" : false,
                      "trivial" : false,
                      "useAudioPreRoll" : true,
                      "useVisualPreRoll" : true
                    }

                  },
                  {
                    "name" : "Fade",
                    "duration" : 30,
                    "leftMedia" : 92,
                    "attributes" : {
                      "bypass" : false,
                      "reverse" : false,
                      "trivial" : false,
                      "useAudioPreRoll" : true,
                      "useVisualPreRoll" : true
                    }

                  },
                  {
                    "name" : "Fade",
                    "duration" : 30,
                    "rightMedia" : 93,
                    "attributes" : {
                      "bypass" : false,
                      "reverse" : false,
                      "trivial" : false,
                      "useAudioPreRoll" : true,
                      "useVisualPreRoll" : true
                    }

                  },
                  {
                    "name" : "Fade",
                    "duration" : 30,
                    "leftMedia" : 93,
                    "attributes" : {
                      "bypass" : false,
                      "reverse" : false,
                      "trivial" : false,
                      "useAudioPreRoll" : true,
                      "useVisualPreRoll" : true
                    }

                  },
                  {
                    "name" : "Fade",
                    "duration" : 30,
                    "rightMedia" : 94,
                    "attributes" : {
                      "bypass" : false,
                      "reverse" : false,
                      "trivial" : false,
                      "useAudioPreRoll" : true,
                      "useVisualPreRoll" : true
                    }

                  },
                  {
                    "name" : "Fade",
                    "duration" : 30,
                    "leftMedia" : 94,
                    "attributes" : {
                      "bypass" : false,
                      "reverse" : false,
                      "trivial" : false,
                      "useAudioPreRoll" : true,
                      "useVisualPreRoll" : true
                    }

                  }
                ]
              },
              {
                "trackIndex" : 4,
                "medias" : [
                  {
                    "id" : 95,
                    "_type" : "IMFile",
                    "src" : 6,
                    "trackNumber" : 0,
                    "trimStartSum" : -2,
                    "attributes" : {
                      "ident" : "Pasted Image"
                    },
                    "parameters" : {
                      "translation0" : -435.0,
                      "translation1" : 20.0,
                      "sourceCrop0" : 0.0,
                      "sourceCrop1" : 0.0,
                      "sourceCrop2" : 0.0,
                      "sourceCrop3" : 0.0,
                      "geometryCrop0" : 0.0,
                      "geometryCrop1" : 0.0,
                      "geometryCrop2" : 0.0,
                      "geometryCrop3" : 0.0
                    },
                    "effects" : [

                    ],
                    "start" : 609,
                    "duration" : 22,
                    "mediaStart" : 0,
                    "mediaDuration" : 1,
                    "scalar" : 1,
                    "metadata" : {
                      "clipSpeedAttribute" : false,
                      "default-scale" : "1",
                      "effectApplied" : "none",
                      "lockAspectRatio" : true
                    },
                    "animationTracks" : {

                    }
                  },
                  {
                    "id" : 96,
                    "_type" : "IMFile",
                    "src" : 6,
                    "trackNumber" : 0,
                    "trimStartSum" : -2,
                    "attributes" : {
                      "ident" : "Pasted Image"
                    },
                    "parameters" : {
                      "translation0" : -435.0,
                      "translation1" : 20.0,
                      "sourceCrop0" : 0.0,
                      "sourceCrop1" : 0.0,
                      "sourceCrop2" : 0.0,
                      "sourceCrop3" : 0.0,
                      "geometryCrop0" : 0.0,
                      "geometryCrop1" : 0.0,
                      "geometryCrop2" : 0.0,
                      "geometryCrop3" : 0.0
                    },
                    "effects" : [

                    ],
                    "start" : 669,
                    "duration" : 22,
                    "mediaStart" : 0,
                    "mediaDuration" : 1,
                    "scalar" : 1,
                    "metadata" : {
                      "clipSpeedAttribute" : false,
                      "default-scale" : "1",
                      "effectApplied" : "none",
                      "lockAspectRatio" : true
                    },
                    "animationTracks" : {

                    }
                  },
                  {
                    "id" : 97,
                    "_type" : "IMFile",
                    "src" : 6,
                    "trackNumber" : 0,
                    "trimStartSum" : -2,
                    "attributes" : {
                      "ident" : "Pasted Image"
                    },
                    "parameters" : {
                      "translation0" : -435.0,
                      "translation1" : 20.0,
                      "sourceCrop0" : 0.0,
                      "sourceCrop1" : 0.0,
                      "sourceCrop2" : 0.0,
                      "sourceCrop3" : 0.0,
                      "geometryCrop0" : 0.0,
                      "geometryCrop1" : 0.0,
                      "geometryCrop2" : 0.0,
                      "geometryCrop3" : 0.0
                    },
                    "effects" : [

                    ],
                    "start" : 744,
                    "duration" : 22,
                    "mediaStart" : 0,
                    "mediaDuration" : 1,
                    "scalar" : 1,
                    "metadata" : {
                      "clipSpeedAttribute" : false,
                      "default-scale" : "1",
                      "effectApplied" : "none",
                      "lockAspectRatio" : true
                    },
                    "animationTracks" : {

                    }
                  },
                  {
                    "id" : 98,
                    "_type" : "IMFile",
                    "src" : 6,
                    "trackNumber" : 0,
                    "trimStartSum" : -2,
                    "attributes" : {
                      "ident" : "Pasted Image"
                    },
                    "parameters" : {
                      "translation0" : -435.0,
                      "translation1" : 20.0,
                      "sourceCrop0" : 0.0,
                      "sourceCrop1" : 0.0,
                      "sourceCrop2" : 0.0,
                      "sourceCrop3" : 0.0,
                      "geometryCrop0" : 0.0,
                      "geometryCrop1" : 0.0,
                      "geometryCrop2" : 0.0,
                      "geometryCrop3" : 0.0
                    },
                    "effects" : [

                    ],
                    "start" : 826,
                    "duration" : 22,
                    "mediaStart" : 0,
                    "mediaDuration" : 1,
                    "scalar" : 1,
                    "metadata" : {
                      "clipSpeedAttribute" : false,
                      "default-scale" : "1",
                      "effectApplied" : "none",
                      "lockAspectRatio" : true
                    },
                    "animationTracks" : {

                    }
                  },
                  {
                    "id" : 99,
                    "_type" : "IMFile",
                    "src" : 6,
                    "trackNumber" : 0,
                    "trimStartSum" : -2,
                    "attributes" : {
                      "ident" : "Pasted Image"
                    },
                    "parameters" : {
                      "translation0" : -435.0,
                      "translation1" : 20.0,
                      "sourceCrop0" : 0.0,
                      "sourceCrop1" : 0.0,
                      "sourceCrop2" : 0.0,
                      "sourceCrop3" : 0.0,
                      "geometryCrop0" : 0.0,
                      "geometryCrop1" : 0.0,
                      "geometryCrop2" : 0.0,
                      "geometryCrop3" : 0.0
                    },
                    "effects" : [

                    ],
                    "start" : 873,
                    "duration" : 22,
                    "mediaStart" : 0,
                    "mediaDuration" : 1,
                    "scalar" : 1,
                    "metadata" : {
                      "clipSpeedAttribute" : false,
                      "default-scale" : "1",
                      "effectApplied" : "none",
                      "lockAspectRatio" : true
                    },
                    "animationTracks" : {

                    }
                  },
                  {
                    "id" : 100,
                    "_type" : "IMFile",
                    "src" : 6,
                    "trackNumber" : 0,
                    "trimStartSum" : -2,
                    "attributes" : {
                      "ident" : "Pasted Image"
                    },
                    "parameters" : {
                      "translation0" : -435.0,
                      "translation1" : 20.0,
                      "sourceCrop0" : 0.0,
                      "sourceCrop1" : 0.0,
                      "sourceCrop2" : 0.0,
                      "sourceCrop3" : 0.0,
                      "geometryCrop0" : 0.0,
                      "geometryCrop1" : 0.0,
                      "geometryCrop2" : 0.0,
                      "geometryCrop3" : 0.0
                    },
                    "effects" : [

                    ],
                    "start" : 943,
                    "duration" : 22,
                    "mediaStart" : 0,
                    "mediaDuration" : 1,
                    "scalar" : 1,
                    "metadata" : {
                      "clipSpeedAttribute" : false,
                      "default-scale" : "1",
                      "effectApplied" : "none",
                      "lockAspectRatio" : true
                    },
                    "animationTracks" : {

                    }
                  },
                  {
                    "id" : 101,
                    "_type" : "IMFile",
                    "src" : 6,
                    "trackNumber" : 0,
                    "trimStartSum" : -2,
                    "attributes" : {
                      "ident" : "Pasted Image"
                    },
                    "parameters" : {
                      "translation0" : -435.0,
                      "translation1" : 20.0,
                      "sourceCrop0" : 0.0,
                      "sourceCrop1" : 0.0,
                      "sourceCrop2" : 0.0,
                      "sourceCrop3" : 0.0,
                      "geometryCrop0" : 0.0,
                      "geometryCrop1" : 0.0,
                      "geometryCrop2" : 0.0,
                      "geometryCrop3" : 0.0
                    },
                    "effects" : [

                    ],
                    "start" : 1040,
                    "duration" : 22,
                    "mediaStart" : 0,
                    "mediaDuration" : 1,
                    "scalar" : 1,
                    "metadata" : {
                      "clipSpeedAttribute" : false,
                      "default-scale" : "1",
                      "effectApplied" : "none",
                      "lockAspectRatio" : true
                    },
                    "animationTracks" : {

                    }
                  },
                  {
                    "id" : 102,
                    "_type" : "IMFile",
                    "src" : 6,
                    "trackNumber" : 0,
                    "trimStartSum" : -2,
                    "attributes" : {
                      "ident" : "Pasted Image"
                    },
                    "parameters" : {
                      "translation0" : -435.0,
                      "translation1" : 20.0,
                      "sourceCrop0" : 0.0,
                      "sourceCrop1" : 0.0,
                      "sourceCrop2" : 0.0,
                      "sourceCrop3" : 0.0,
                      "geometryCrop0" : 0.0,
                      "geometryCrop1" : 0.0,
                      "geometryCrop2" : 0.0,
                      "geometryCrop3" : 0.0
                    },
                    "effects" : [

                    ],
                    "start" : 1100,
                    "duration" : 22,
                    "mediaStart" : 0,
                    "mediaDuration" : 1,
                    "scalar" : 1,
                    "metadata" : {
                      "clipSpeedAttribute" : false,
                      "default-scale" : "1",
                      "effectApplied" : "none",
                      "lockAspectRatio" : true
                    },
                    "animationTracks" : {

                    }
                  },
                  {
                    "id" : 103,
                    "_type" : "IMFile",
                    "src" : 6,
                    "trackNumber" : 0,
                    "trimStartSum" : -2,
                    "attributes" : {
                      "ident" : "Pasted Image"
                    },
                    "parameters" : {
                      "translation0" : -435.0,
                      "translation1" : 20.0,
                      "sourceCrop0" : 0.0,
                      "sourceCrop1" : 0.0,
                      "sourceCrop2" : 0.0,
                      "sourceCrop3" : 0.0,
                      "geometryCrop0" : 0.0,
                      "geometryCrop1" : 0.0,
                      "geometryCrop2" : 0.0,
                      "geometryCrop3" : 0.0
                    },
                    "effects" : [

                    ],
                    "start" : 1210,
                    "duration" : 22,
                    "mediaStart" : 0,
                    "mediaDuration" : 1,
                    "scalar" : 1,
                    "metadata" : {
                      "clipSpeedAttribute" : false,
                      "default-scale" : "1",
                      "effectApplied" : "none",
                      "lockAspectRatio" : true
                    },
                    "animationTracks" : {

                    }
                  },
                  {
                    "id" : 104,
                    "_type" : "IMFile",
                    "src" : 28,
                    "trackNumber" : 0,
                    "trimStartSum" : 0,
                    "attributes" : {
                      "ident" : "Pasted Image"
                    },
                    "parameters" : {
                      "translation0" : {
                        "type" : "double",
                        "defaultValue" : -311.0,
                        "keyframes" : [
                          {
                            "endTime" : 235,
                            "time" : 220,
                            "value" : -190.0,
                            "interp" : "linr",
                            "duration" : 15
                          },
                          {
                            "endTime" : 320,
                            "time" : 260,
                            "value" : 251.0,
                            "interp" : "linr",
                            "duration" : 60
                          }
                        ]
                      },
                      "translation1" : {
                        "type" : "double",
                        "defaultValue" : 62.0,
                        "keyframes" : [
                          {
                            "endTime" : 235,
                            "time" : 220,
                            "value" : 62.0,
                            "interp" : "linr",
                            "duration" : 15
                          },
                          {
                            "endTime" : 320,
                            "time" : 260,
                            "value" : 62.0,
                            "interp" : "linr",
                            "duration" : 60
                          }
                        ]
                      },
                      "sourceCrop0" : 0.0,
                      "sourceCrop1" : 0.0,
                      "sourceCrop2" : 0.0,
                      "sourceCrop3" : 0.0,
                      "geometryCrop0" : 0.0,
                      "geometryCrop1" : 0.0,
                      "geometryCrop2" : 0.0,
                      "geometryCrop3" : 0.0
                    },
                    "effects" : [

                    ],
                    "start" : 2668,
                    "duration" : 330,
                    "mediaStart" : 0,
                    "mediaDuration" : 1,
                    "scalar" : 1,
                    "metadata" : {
                      "clipSpeedAttribute" : false,
                      "default-scale" : "1",
                      "effectApplied" : "none",
                      "lockAspectRatio" : true
                    },
                    "animationTracks" : {
                      "visual" : [
                        {
                          "endTime" : 235,
                          "duration" : 15,
                          "range" : [ 220, 15],
                          "interp" : "linr"
                        },
                        {
                          "endTime" : 320,
                          "duration" : 60,
                          "range" : [ 260, 60],
                          "interp" : "linr"
                        }
                      ]
                    }
                  },
                  {
                    "id" : 105,
                    "_type" : "IMFile",
                    "src" : 35,
                    "trackNumber" : 0,
                    "trimStartSum" : 0,
                    "attributes" : {
                      "ident" : "Pasted Image"
                    },
                    "parameters" : {
                      "translation0" : -605.0,
                      "translation1" : -30.0,
                      "sourceCrop0" : 0.0,
                      "sourceCrop1" : 0.0,
                      "sourceCrop2" : 0.0,
                      "sourceCrop3" : 0.0,
                      "geometryCrop0" : 0.0,
                      "geometryCrop1" : 0.0,
                      "geometryCrop2" : 0.0,
                      "geometryCrop3" : 0.0
                    },
                    "effects" : [

                    ],
                    "start" : 4123,
                    "duration" : 125,
                    "mediaStart" : 0,
                    "mediaDuration" : 1,
                    "scalar" : 1,
                    "metadata" : {
                      "clipSpeedAttribute" : false,
                      "default-scale" : "1",
                      "effectApplied" : "none",
                      "lockAspectRatio" : true
                    },
                    "animationTracks" : {

                    }
                  },
                  {
                    "id" : 106,
                    "_type" : "IMFile",
                    "src" : 41,
                    "trackNumber" : 0,
                    "trimStartSum" : 0,
                    "attributes" : {
                      "ident" : "<Logger name=\"org.apache.druid.server.coordinator\" level=\"info\" additivity=\"false\">\r\n"
                    },
                    "parameters" : {
                      "translation1" : 76.0,
                      "scale0" : 0.624085811799122,
                      "scale1" : 0.624085811799122,
                      "sourceCrop0" : 0.0,
                      "sourceCrop1" : 0.0,
                      "sourceCrop2" : 0.0,
                      "sourceCrop3" : 0.0,
                      "geometryCrop0" : 0.0,
                      "geometryCrop1" : 0.0,
                      "geometryCrop2" : 0.0,
                      "geometryCrop3" : 0.0
                    },
                    "effects" : [

                    ],
                    "start" : 4315,
                    "duration" : 214,
                    "mediaStart" : 0,
                    "mediaDuration" : 1,
                    "scalar" : 1,
                    "metadata" : {
                      "clipSpeedAttribute" : false,
                      "default-scale" : "0.624086",
                      "effectApplied" : "none",
                      "lockAspectRatio" : true
                    },
                    "animationTracks" : {

                    }
                  },
                  {
                    "id" : 107,
                    "_type" : "IMFile",
                    "src" : 43,
                    "trackNumber" : 0,
                    "trimStartSum" : 0,
                    "attributes" : {
                      "ident" : "Pasted Image"
                    },
                    "parameters" : {
                      "translation0" : {
                        "type" : "double",
                        "defaultValue" : -170.00102406748,
                        "interp" : "eioe"
                      },
                      "translation1" : {
                        "type" : "double",
                        "defaultValue" : -170.608101168386,
                        "interp" : "eioe"
                      },
                      "scale0" : {
                        "type" : "double",
                        "defaultValue" : 0.442830840362383,
                        "interp" : "eioe"
                      },
                      "scale1" : {
                        "type" : "double",
                        "defaultValue" : 0.442830840362383,
                        "interp" : "eioe"
                      },
                      "sourceCrop0" : {
                        "type" : "double",
                        "defaultValue" : 0.0,
                        "interp" : "eioe"
                      },
                      "sourceCrop1" : {
                        "type" : "double",
                        "defaultValue" : 0.0,
                        "interp" : "eioe"
                      },
                      "sourceCrop2" : {
                        "type" : "double",
                        "defaultValue" : 0.0,
                        "interp" : "eioe"
                      },
                      "sourceCrop3" : {
                        "type" : "double",
                        "defaultValue" : 0.0,
                        "interp" : "eioe"
                      },
                      "geometryCrop0" : {
                        "type" : "double",
                        "defaultValue" : 0.0,
                        "interp" : "eioe"
                      },
                      "geometryCrop1" : {
                        "type" : "double",
                        "defaultValue" : 0.0,
                        "interp" : "eioe"
                      },
                      "geometryCrop2" : {
                        "type" : "double",
                        "defaultValue" : 0.0,
                        "interp" : "eioe"
                      },
                      "geometryCrop3" : {
                        "type" : "double",
                        "defaultValue" : 0.0,
                        "interp" : "eioe"
                      }
                    },
                    "effects" : [

                    ],
                    "start" : 5225,
                    "duration" : 207,
                    "mediaStart" : 0,
                    "mediaDuration" : 1,
                    "scalar" : 1,
                    "metadata" : {
                      "clipSpeedAttribute" : false,
                      "default-scale" : "1",
                      "effectApplied" : "none",
                      "lockAspectRatio" : true
                    },
                    "animationTracks" : {

                    }
                  },
                  {
                    "id" : 108,
                    "_type" : "Callout",
                    "def" : {
                      "kind" : "TypeWinSVG",
                      "shape" : "",
                      "style" : "",
                      "DrawTime" : 1.0,
                      "borderColorBlue" : 0.0,
                      "borderColorGreen" : 1.0,
                      "borderColorRed" : 1.0,
                      "borderWidth" : 3.0,
                      "height" : 59.2505900481523,
                      "width" : 400.987,
                      "xmlContent" : "<?xml version=\"1.0\" encoding=\"utf-8\"?>\r\n<!-- Generator: Adobe Illustrator 15.0.2, SVG Export Plug-In . SVG Version: 6.00 Build 0)  -->\r\n<!DOCTYPE svg PUBLIC \"-//W3C//DTD SVG 1.1//EN\" \"http://www.w3.org/Graphics/SVG/1.1/DTD/svg11.dtd\">\r\n<svg version=\"1.1\" id=\"Layer_1\" xmlns=\"http://www.w3.org/2000/svg\" xmlns:xlink=\"http://www.w3.org/1999/xlink\" x=\"0px\" y=\"0px\"\r\n\t width=\"420px\" height=\"420px\" viewBox=\"0 0 420 420\" enable-background=\"new 0 0 420 420\" xml:space=\"preserve\">\r\n<path fill=\"none\" stroke=\"#000000\" stroke-miterlimit=\"10\" d=\"M60.383,184.37c-8.266,1.782-16.925,2.15-25.362,1.716\r\n\tc55.994-5.072,111.775-11.591,168.218-13.374c45.888-1.45,92.026-3.477,137.946-2.2c18.141,0.504,43.871-1.199,60.004,3.191\r\n\tc-45.926-1.45-92.748-3.568-139.053-3.176c-58.164,0.493-116.047,4.436-174.051,8.389c-24.45,1.666-51.165,0.241-75.268,5.663\r\n\tc50.304-12.151,104.897-12.959,156.303-14.475c64.87-1.914,147.716-11.813,210.706,9.323c-9.012,3.176-22.994,1.516-33.312,1.504\r\n\tc-36.834-0.048-73.586,0.138-110.407,1.222c-76.121,2.242-153.218,16.799-229.066,16.051c71.634-4.535,140.968-15.478,213.52-13.605\r\n\tc48.931,1.264,97.727,5.188,146.572,8.036c13.602,0.793,27.662,0.291,40.895,3.908c-124.527-9.618-246.63-5.8-370.181,12.505\r\n\tc50.926,4.547,108.248-5.809,160.446-5.81c62.115-0.004,124.245,5.786,186.069,6.639c-49.217-11.589-108.559-5.909-158.891-4.592\r\n\tc-53.609,1.4-107.208,9.18-160.684,10.133c63.294,1.356,126.319-7.266,190-3.632c38.305,2.188,76.697,6.343,115.064,7.123\r\n\tc-37.316-6.239-75.154-9.06-112.971-10.182c-56.831-1.684-117.409-5.038-173.903,3.298c90.708,0.773,187.308-10.865,276.505,13.346\"\r\n\t/>\r\n</svg>\r\n"
                    },
                    "attributes" : {
                      "ident" : "",
                      "autoRotateText" : true
                    },
                    "parameters" : {
                      "translation0" : -30.0,
                      "translation1" : 142.917287820123,
                      "scale0" : 0.256714593090657,
                      "scale1" : 0.256714593090657,
                      "sourceCrop0" : 0.0,
                      "sourceCrop1" : 0.0,
                      "sourceCrop2" : 0.0,
                      "sourceCrop3" : 0.0,
                      "geometryCrop0" : 0.0,
                      "geometryCrop1" : 0.0,
                      "geometryCrop2" : 0.0,
                      "geometryCrop3" : 0.0
                    },
                    "leftEdgeMods" : [
                      {
                        "group" : "DrawPercentageFade",
                        "duration" : 30,
                        "parameters" : [
                          {
                            "name" : "DrawTime",
                              "func" : "FadeInFunc"
                            }
                        ]
                      }
                    ],
                    "effects" : [

                    ],
                    "start" : 5905,
                    "duration" : 190,
                    "mediaStart" : 0,
                    "mediaDuration" : 190,
                    "scalar" : 1,
                    "metadata" : {
                      "clipSpeedAttribute" : false,
                      "default-scale" : "1",
                      "effectApplied" : "none",
                      "lockAspectRatio" : true
                    },
                    "animationTracks" : {

                    }
                  },
                  {
                    "id" : 109,
                    "_type" : "IMFile",
                    "src" : 47,
                    "trackNumber" : 0,
                    "trimStartSum" : 0,
                    "attributes" : {
                      "ident" : "Pasted Image"
                    },
                    "parameters" : {
                      "translation0" : {
                        "type" : "double",
                        "defaultValue" : -155.121955579398,
                        "interp" : "eioe"
                      },
                      "translation1" : {
                        "type" : "double",
                        "defaultValue" : -107.610506912351,
                        "interp" : "eioe"
                      },
                      "scale0" : {
                        "type" : "double",
                        "defaultValue" : 0.265918535035009,
                        "interp" : "eioe"
                      },
                      "scale1" : {
                        "type" : "double",
                        "defaultValue" : 0.265918535035009,
                        "interp" : "eioe"
                      },
                      "sourceCrop0" : {
                        "type" : "double",
                        "defaultValue" : 0.0,
                        "interp" : "eioe"
                      },
                      "sourceCrop1" : {
                        "type" : "double",
                        "defaultValue" : 0.0,
                        "interp" : "eioe"
                      },
                      "sourceCrop2" : {
                        "type" : "double",
                        "defaultValue" : 0.0,
                        "interp" : "eioe"
                      },
                      "sourceCrop3" : {
                        "type" : "double",
                        "defaultValue" : 0.0,
                        "interp" : "eioe"
                      },
                      "geometryCrop0" : {
                        "type" : "double",
                        "defaultValue" : 0.0,
                        "interp" : "eioe"
                      },
                      "geometryCrop1" : {
                        "type" : "double",
                        "defaultValue" : 0.0,
                        "interp" : "eioe"
                      },
                      "geometryCrop2" : {
                        "type" : "double",
                        "defaultValue" : 0.0,
                        "interp" : "eioe"
                      },
                      "geometryCrop3" : {
                        "type" : "double",
                        "defaultValue" : 0.0,
                        "interp" : "eioe"
                      }
                    },
                    "effects" : [

                    ],
                    "start" : 7368,
                    "duration" : 150,
                    "mediaStart" : 0,
                    "mediaDuration" : 1,
                    "scalar" : 1,
                    "metadata" : {
                      "clipSpeedAttribute" : false,
                      "default-scale" : "0.358343",
                      "effectApplied" : "none",
                      "lockAspectRatio" : true
                    },
                    "animationTracks" : {

                    }
                  }
                ],
                "transitions" : [
                  {
                    "name" : "Fade",
                    "duration" : 6,
                    "rightMedia" : 95,
                    "attributes" : {
                      "bypass" : false,
                      "reverse" : false,
                      "trivial" : false,
                      "useAudioPreRoll" : true,
                      "useVisualPreRoll" : true
                    }

                  },
                  {
                    "name" : "Fade",
                    "duration" : 6,
                    "leftMedia" : 95,
                    "attributes" : {
                      "bypass" : false,
                      "reverse" : false,
                      "trivial" : false,
                      "useAudioPreRoll" : true,
                      "useVisualPreRoll" : true
                    }

                  },
                  {
                    "name" : "Fade",
                    "duration" : 6,
                    "rightMedia" : 96,
                    "attributes" : {
                      "bypass" : false,
                      "reverse" : false,
                      "trivial" : false,
                      "useAudioPreRoll" : true,
                      "useVisualPreRoll" : true
                    }

                  },
                  {
                    "name" : "Fade",
                    "duration" : 6,
                    "leftMedia" : 96,
                    "attributes" : {
                      "bypass" : false,
                      "reverse" : false,
                      "trivial" : false,
                      "useAudioPreRoll" : true,
                      "useVisualPreRoll" : true
                    }

                  },
                  {
                    "name" : "Fade",
                    "duration" : 6,
                    "rightMedia" : 97,
                    "attributes" : {
                      "bypass" : false,
                      "reverse" : false,
                      "trivial" : false,
                      "useAudioPreRoll" : true,
                      "useVisualPreRoll" : true
                    }

                  },
                  {
                    "name" : "Fade",
                    "duration" : 6,
                    "leftMedia" : 97,
                    "attributes" : {
                      "bypass" : false,
                      "reverse" : false,
                      "trivial" : false,
                      "useAudioPreRoll" : true,
                      "useVisualPreRoll" : true
                    }

                  },
                  {
                    "name" : "Fade",
                    "duration" : 6,
                    "rightMedia" : 98,
                    "attributes" : {
                      "bypass" : false,
                      "reverse" : false,
                      "trivial" : false,
                      "useAudioPreRoll" : true,
                      "useVisualPreRoll" : true
                    }

                  },
                  {
                    "name" : "Fade",
                    "duration" : 6,
                    "leftMedia" : 98,
                    "attributes" : {
                      "bypass" : false,
                      "reverse" : false,
                      "trivial" : false,
                      "useAudioPreRoll" : true,
                      "useVisualPreRoll" : true
                    }

                  },
                  {
                    "name" : "Fade",
                    "duration" : 6,
                    "rightMedia" : 99,
                    "attributes" : {
                      "bypass" : false,
                      "reverse" : false,
                      "trivial" : false,
                      "useAudioPreRoll" : true,
                      "useVisualPreRoll" : true
                    }

                  },
                  {
                    "name" : "Fade",
                    "duration" : 6,
                    "leftMedia" : 99,
                    "attributes" : {
                      "bypass" : false,
                      "reverse" : false,
                      "trivial" : false,
                      "useAudioPreRoll" : true,
                      "useVisualPreRoll" : true
                    }

                  },
                  {
                    "name" : "Fade",
                    "duration" : 6,
                    "rightMedia" : 100,
                    "attributes" : {
                      "bypass" : false,
                      "reverse" : false,
                      "trivial" : false,
                      "useAudioPreRoll" : true,
                      "useVisualPreRoll" : true
                    }

                  },
                  {
                    "name" : "Fade",
                    "duration" : 6,
                    "leftMedia" : 100,
                    "attributes" : {
                      "bypass" : false,
                      "reverse" : false,
                      "trivial" : false,
                      "useAudioPreRoll" : true,
                      "useVisualPreRoll" : true
                    }

                  },
                  {
                    "name" : "Fade",
                    "duration" : 6,
                    "rightMedia" : 101,
                    "attributes" : {
                      "bypass" : false,
                      "reverse" : false,
                      "trivial" : false,
                      "useAudioPreRoll" : true,
                      "useVisualPreRoll" : true
                    }

                  },
                  {
                    "name" : "Fade",
                    "duration" : 6,
                    "leftMedia" : 101,
                    "attributes" : {
                      "bypass" : false,
                      "reverse" : false,
                      "trivial" : false,
                      "useAudioPreRoll" : true,
                      "useVisualPreRoll" : true
                    }

                  },
                  {
                    "name" : "Fade",
                    "duration" : 6,
                    "rightMedia" : 102,
                    "attributes" : {
                      "bypass" : false,
                      "reverse" : false,
                      "trivial" : false,
                      "useAudioPreRoll" : true,
                      "useVisualPreRoll" : true
                    }

                  },
                  {
                    "name" : "Fade",
                    "duration" : 6,
                    "leftMedia" : 102,
                    "attributes" : {
                      "bypass" : false,
                      "reverse" : false,
                      "trivial" : false,
                      "useAudioPreRoll" : true,
                      "useVisualPreRoll" : true
                    }

                  },
                  {
                    "name" : "Fade",
                    "duration" : 6,
                    "rightMedia" : 103,
                    "attributes" : {
                      "bypass" : false,
                      "reverse" : false,
                      "trivial" : false,
                      "useAudioPreRoll" : true,
                      "useVisualPreRoll" : true
                    }

                  },
                  {
                    "name" : "Fade",
                    "duration" : 6,
                    "leftMedia" : 103,
                    "attributes" : {
                      "bypass" : false,
                      "reverse" : false,
                      "trivial" : false,
                      "useAudioPreRoll" : true,
                      "useVisualPreRoll" : true
                    }

                  },
                  {
                    "name" : "Fade",
                    "duration" : 30,
                    "rightMedia" : 105,
                    "attributes" : {
                      "bypass" : false,
                      "reverse" : false,
                      "trivial" : false,
                      "useAudioPreRoll" : true,
                      "useVisualPreRoll" : true
                    }

                  },
                  {
                    "name" : "Fade",
                    "duration" : 30,
                    "leftMedia" : 105,
                    "attributes" : {
                      "bypass" : false,
                      "reverse" : false,
                      "trivial" : false,
                      "useAudioPreRoll" : true,
                      "useVisualPreRoll" : true
                    }

                  },
                  {
                    "name" : "Fade",
                    "duration" : 30,
                    "rightMedia" : 106,
                    "attributes" : {
                      "bypass" : false,
                      "reverse" : false,
                      "trivial" : false,
                      "useAudioPreRoll" : true,
                      "useVisualPreRoll" : true
                    }

                  },
                  {
                    "name" : "Fade",
                    "duration" : 30,
                    "leftMedia" : 106,
                    "attributes" : {
                      "bypass" : false,
                      "reverse" : false,
                      "trivial" : false,
                      "useAudioPreRoll" : true,
                      "useVisualPreRoll" : true
                    }

                  },
                  {
                    "name" : "Fade",
                    "duration" : 30,
                    "rightMedia" : 107,
                    "attributes" : {
                      "bypass" : false,
                      "reverse" : false,
                      "trivial" : false,
                      "useAudioPreRoll" : true,
                      "useVisualPreRoll" : true
                    }

                  },
                  {
                    "name" : "Fade",
                    "duration" : 30,
                    "leftMedia" : 107,
                    "attributes" : {
                      "bypass" : false,
                      "reverse" : false,
                      "trivial" : false,
                      "useAudioPreRoll" : true,
                      "useVisualPreRoll" : true
                    }

                  },
                  {
                    "name" : "Fade",
                    "duration" : 30,
                    "leftMedia" : 108,
                    "attributes" : {
                      "bypass" : false,
                      "reverse" : false,
                      "trivial" : false,
                      "useAudioPreRoll" : false,
                      "useVisualPreRoll" : true
                    }

                  },
                  {
                    "name" : "Fade",
                    "duration" : 30,
                    "rightMedia" : 109,
                    "attributes" : {
                      "bypass" : false,
                      "reverse" : false,
                      "trivial" : false,
                      "useAudioPreRoll" : true,
                      "useVisualPreRoll" : true
                    }

                  },
                  {
                    "name" : "Fade",
                    "duration" : 30,
                    "leftMedia" : 109,
                    "attributes" : {
                      "bypass" : false,
                      "reverse" : false,
                      "trivial" : false,
                      "useAudioPreRoll" : true,
                      "useVisualPreRoll" : true
                    }

                  }
                ]
              },
              {
                "trackIndex" : 5,
                "medias" : [
                  {
                    "id" : 110,
                    "_type" : "IMFile",
                    "src" : 7,
                    "trackNumber" : 0,
                    "trimStartSum" : 0,
                    "attributes" : {
                      "ident" : "Pasted Image"
                    },
                    "parameters" : {
                      "translation1" : 79.0,
                      "sourceCrop0" : 0.0,
                      "sourceCrop1" : 0.0,
                      "sourceCrop2" : 0.0,
                      "sourceCrop3" : 0.0,
                      "geometryCrop0" : 0.0,
                      "geometryCrop1" : 0.0,
                      "geometryCrop2" : 0.0,
                      "geometryCrop3" : 0.0
                    },
                    "effects" : [

                    ],
                    "start" : 620,
                    "duration" : 22,
                    "mediaStart" : 0,
                    "mediaDuration" : 1,
                    "scalar" : 1,
                    "metadata" : {
                      "clipSpeedAttribute" : false,
                      "default-scale" : "1",
                      "effectApplied" : "none",
                      "lockAspectRatio" : true
                    },
                    "animationTracks" : {

                    }
                  },
                  {
                    "id" : 111,
                    "_type" : "IMFile",
                    "src" : 7,
                    "trackNumber" : 0,
                    "trimStartSum" : 0,
                    "attributes" : {
                      "ident" : "Pasted Image"
                    },
                    "parameters" : {
                      "translation1" : 79.0,
                      "sourceCrop0" : 0.0,
                      "sourceCrop1" : 0.0,
                      "sourceCrop2" : 0.0,
                      "sourceCrop3" : 0.0,
                      "geometryCrop0" : 0.0,
                      "geometryCrop1" : 0.0,
                      "geometryCrop2" : 0.0,
                      "geometryCrop3" : 0.0
                    },
                    "effects" : [

                    ],
                    "start" : 658,
                    "duration" : 22,
                    "mediaStart" : 0,
                    "mediaDuration" : 1,
                    "scalar" : 1,
                    "metadata" : {
                      "clipSpeedAttribute" : false,
                      "default-scale" : "1",
                      "effectApplied" : "none",
                      "lockAspectRatio" : true
                    },
                    "animationTracks" : {

                    }
                  },
                  {
                    "id" : 112,
                    "_type" : "IMFile",
                    "src" : 7,
                    "trackNumber" : 0,
                    "trimStartSum" : 0,
                    "attributes" : {
                      "ident" : "Pasted Image"
                    },
                    "parameters" : {
                      "translation1" : 79.0,
                      "sourceCrop0" : 0.0,
                      "sourceCrop1" : 0.0,
                      "sourceCrop2" : 0.0,
                      "sourceCrop3" : 0.0,
                      "geometryCrop0" : 0.0,
                      "geometryCrop1" : 0.0,
                      "geometryCrop2" : 0.0,
                      "geometryCrop3" : 0.0
                    },
                    "effects" : [

                    ],
                    "start" : 720,
                    "duration" : 22,
                    "mediaStart" : 0,
                    "mediaDuration" : 1,
                    "scalar" : 1,
                    "metadata" : {
                      "clipSpeedAttribute" : false,
                      "default-scale" : "1",
                      "effectApplied" : "none",
                      "lockAspectRatio" : true
                    },
                    "animationTracks" : {

                    }
                  },
                  {
                    "id" : 113,
                    "_type" : "IMFile",
                    "src" : 7,
                    "trackNumber" : 0,
                    "trimStartSum" : 0,
                    "attributes" : {
                      "ident" : "Pasted Image"
                    },
                    "parameters" : {
                      "translation1" : 79.0,
                      "sourceCrop0" : 0.0,
                      "sourceCrop1" : 0.0,
                      "sourceCrop2" : 0.0,
                      "sourceCrop3" : 0.0,
                      "geometryCrop0" : 0.0,
                      "geometryCrop1" : 0.0,
                      "geometryCrop2" : 0.0,
                      "geometryCrop3" : 0.0
                    },
                    "effects" : [

                    ],
                    "start" : 755,
                    "duration" : 22,
                    "mediaStart" : 0,
                    "mediaDuration" : 1,
                    "scalar" : 1,
                    "metadata" : {
                      "clipSpeedAttribute" : false,
                      "default-scale" : "1",
                      "effectApplied" : "none",
                      "lockAspectRatio" : true
                    },
                    "animationTracks" : {

                    }
                  },
                  {
                    "id" : 114,
                    "_type" : "IMFile",
                    "src" : 7,
                    "trackNumber" : 0,
                    "trimStartSum" : 0,
                    "attributes" : {
                      "ident" : "Pasted Image"
                    },
                    "parameters" : {
                      "translation1" : 79.0,
                      "sourceCrop0" : 0.0,
                      "sourceCrop1" : 0.0,
                      "sourceCrop2" : 0.0,
                      "sourceCrop3" : 0.0,
                      "geometryCrop0" : 0.0,
                      "geometryCrop1" : 0.0,
                      "geometryCrop2" : 0.0,
                      "geometryCrop3" : 0.0
                    },
                    "effects" : [

                    ],
                    "start" : 798,
                    "duration" : 22,
                    "mediaStart" : 0,
                    "mediaDuration" : 1,
                    "scalar" : 1,
                    "metadata" : {
                      "clipSpeedAttribute" : false,
                      "default-scale" : "1",
                      "effectApplied" : "none",
                      "lockAspectRatio" : true
                    },
                    "animationTracks" : {

                    }
                  },
                  {
                    "id" : 115,
                    "_type" : "IMFile",
                    "src" : 7,
                    "trackNumber" : 0,
                    "trimStartSum" : 0,
                    "attributes" : {
                      "ident" : "Pasted Image"
                    },
                    "parameters" : {
                      "translation1" : 79.0,
                      "sourceCrop0" : 0.0,
                      "sourceCrop1" : 0.0,
                      "sourceCrop2" : 0.0,
                      "sourceCrop3" : 0.0,
                      "geometryCrop0" : 0.0,
                      "geometryCrop1" : 0.0,
                      "geometryCrop2" : 0.0,
                      "geometryCrop3" : 0.0
                    },
                    "effects" : [

                    ],
                    "start" : 855,
                    "duration" : 22,
                    "mediaStart" : 0,
                    "mediaDuration" : 1,
                    "scalar" : 1,
                    "metadata" : {
                      "clipSpeedAttribute" : false,
                      "default-scale" : "1",
                      "effectApplied" : "none",
                      "lockAspectRatio" : true
                    },
                    "animationTracks" : {

                    }
                  },
                  {
                    "id" : 116,
                    "_type" : "IMFile",
                    "src" : 7,
                    "trackNumber" : 0,
                    "trimStartSum" : 0,
                    "attributes" : {
                      "ident" : "Pasted Image"
                    },
                    "parameters" : {
                      "translation1" : 79.0,
                      "sourceCrop0" : 0.0,
                      "sourceCrop1" : 0.0,
                      "sourceCrop2" : 0.0,
                      "sourceCrop3" : 0.0,
                      "geometryCrop0" : 0.0,
                      "geometryCrop1" : 0.0,
                      "geometryCrop2" : 0.0,
                      "geometryCrop3" : 0.0
                    },
                    "effects" : [

                    ],
                    "start" : 884,
                    "duration" : 22,
                    "mediaStart" : 0,
                    "mediaDuration" : 1,
                    "scalar" : 1,
                    "metadata" : {
                      "clipSpeedAttribute" : false,
                      "default-scale" : "1",
                      "effectApplied" : "none",
                      "lockAspectRatio" : true
                    },
                    "animationTracks" : {

                    }
                  },
                  {
                    "id" : 117,
                    "_type" : "IMFile",
                    "src" : 7,
                    "trackNumber" : 0,
                    "trimStartSum" : 0,
                    "attributes" : {
                      "ident" : "Pasted Image"
                    },
                    "parameters" : {
                      "translation1" : 79.0,
                      "sourceCrop0" : 0.0,
                      "sourceCrop1" : 0.0,
                      "sourceCrop2" : 0.0,
                      "sourceCrop3" : 0.0,
                      "geometryCrop0" : 0.0,
                      "geometryCrop1" : 0.0,
                      "geometryCrop2" : 0.0,
                      "geometryCrop3" : 0.0
                    },
                    "effects" : [

                    ],
                    "start" : 927,
                    "duration" : 22,
                    "mediaStart" : 0,
                    "mediaDuration" : 1,
                    "scalar" : 1,
                    "metadata" : {
                      "clipSpeedAttribute" : false,
                      "default-scale" : "1",
                      "effectApplied" : "none",
                      "lockAspectRatio" : true
                    },
                    "animationTracks" : {

                    }
                  },
                  {
                    "id" : 118,
                    "_type" : "IMFile",
                    "src" : 7,
                    "trackNumber" : 0,
                    "trimStartSum" : 0,
                    "attributes" : {
                      "ident" : "Pasted Image"
                    },
                    "parameters" : {
                      "translation1" : 79.0,
                      "sourceCrop0" : 0.0,
                      "sourceCrop1" : 0.0,
                      "sourceCrop2" : 0.0,
                      "sourceCrop3" : 0.0,
                      "geometryCrop0" : 0.0,
                      "geometryCrop1" : 0.0,
                      "geometryCrop2" : 0.0,
                      "geometryCrop3" : 0.0
                    },
                    "effects" : [

                    ],
                    "start" : 984,
                    "duration" : 22,
                    "mediaStart" : 0,
                    "mediaDuration" : 1,
                    "scalar" : 1,
                    "metadata" : {
                      "clipSpeedAttribute" : false,
                      "default-scale" : "1",
                      "effectApplied" : "none",
                      "lockAspectRatio" : true
                    },
                    "animationTracks" : {

                    }
                  },
                  {
                    "id" : 119,
                    "_type" : "IMFile",
                    "src" : 7,
                    "trackNumber" : 0,
                    "trimStartSum" : 0,
                    "attributes" : {
                      "ident" : "Pasted Image"
                    },
                    "parameters" : {
                      "translation1" : 79.0,
                      "sourceCrop0" : 0.0,
                      "sourceCrop1" : 0.0,
                      "sourceCrop2" : 0.0,
                      "sourceCrop3" : 0.0,
                      "geometryCrop0" : 0.0,
                      "geometryCrop1" : 0.0,
                      "geometryCrop2" : 0.0,
                      "geometryCrop3" : 0.0
                    },
                    "effects" : [

                    ],
                    "start" : 1022,
                    "duration" : 22,
                    "mediaStart" : 0,
                    "mediaDuration" : 1,
                    "scalar" : 1,
                    "metadata" : {
                      "clipSpeedAttribute" : false,
                      "default-scale" : "1",
                      "effectApplied" : "none",
                      "lockAspectRatio" : true
                    },
                    "animationTracks" : {

                    }
                  },
                  {
                    "id" : 120,
                    "_type" : "IMFile",
                    "src" : 7,
                    "trackNumber" : 0,
                    "trimStartSum" : 0,
                    "attributes" : {
                      "ident" : "Pasted Image"
                    },
                    "parameters" : {
                      "translation1" : 79.0,
                      "sourceCrop0" : 0.0,
                      "sourceCrop1" : 0.0,
                      "sourceCrop2" : 0.0,
                      "sourceCrop3" : 0.0,
                      "geometryCrop0" : 0.0,
                      "geometryCrop1" : 0.0,
                      "geometryCrop2" : 0.0,
                      "geometryCrop3" : 0.0
                    },
                    "effects" : [

                    ],
                    "start" : 1051,
                    "duration" : 22,
                    "mediaStart" : 0,
                    "mediaDuration" : 1,
                    "scalar" : 1,
                    "metadata" : {
                      "clipSpeedAttribute" : false,
                      "default-scale" : "1",
                      "effectApplied" : "none",
                      "lockAspectRatio" : true
                    },
                    "animationTracks" : {

                    }
                  },
                  {
                    "id" : 121,
                    "_type" : "IMFile",
                    "src" : 7,
                    "trackNumber" : 0,
                    "trimStartSum" : 0,
                    "attributes" : {
                      "ident" : "Pasted Image"
                    },
                    "parameters" : {
                      "translation1" : 79.0,
                      "sourceCrop0" : 0.0,
                      "sourceCrop1" : 0.0,
                      "sourceCrop2" : 0.0,
                      "sourceCrop3" : 0.0,
                      "geometryCrop0" : 0.0,
                      "geometryCrop1" : 0.0,
                      "geometryCrop2" : 0.0,
                      "geometryCrop3" : 0.0
                    },
                    "effects" : [

                    ],
                    "start" : 1094,
                    "duration" : 22,
                    "mediaStart" : 0,
                    "mediaDuration" : 1,
                    "scalar" : 1,
                    "metadata" : {
                      "clipSpeedAttribute" : false,
                      "default-scale" : "1",
                      "effectApplied" : "none",
                      "lockAspectRatio" : true
                    },
                    "animationTracks" : {

                    }
                  },
                  {
                    "id" : 122,
                    "_type" : "IMFile",
                    "src" : 7,
                    "trackNumber" : 0,
                    "trimStartSum" : 0,
                    "attributes" : {
                      "ident" : "Pasted Image"
                    },
                    "parameters" : {
                      "translation1" : 79.0,
                      "sourceCrop0" : 0.0,
                      "sourceCrop1" : 0.0,
                      "sourceCrop2" : 0.0,
                      "sourceCrop3" : 0.0,
                      "geometryCrop0" : 0.0,
                      "geometryCrop1" : 0.0,
                      "geometryCrop2" : 0.0,
                      "geometryCrop3" : 0.0
                    },
                    "effects" : [

                    ],
                    "start" : 1151,
                    "duration" : 22,
                    "mediaStart" : 0,
                    "mediaDuration" : 1,
                    "scalar" : 1,
                    "metadata" : {
                      "clipSpeedAttribute" : false,
                      "default-scale" : "1",
                      "effectApplied" : "none",
                      "lockAspectRatio" : true
                    },
                    "animationTracks" : {

                    }
                  },
                  {
                    "id" : 123,
                    "_type" : "IMFile",
                    "src" : 7,
                    "trackNumber" : 0,
                    "trimStartSum" : 0,
                    "attributes" : {
                      "ident" : "Pasted Image"
                    },
                    "parameters" : {
                      "translation1" : 79.0,
                      "sourceCrop0" : 0.0,
                      "sourceCrop1" : 0.0,
                      "sourceCrop2" : 0.0,
                      "sourceCrop3" : 0.0,
                      "geometryCrop0" : 0.0,
                      "geometryCrop1" : 0.0,
                      "geometryCrop2" : 0.0,
                      "geometryCrop3" : 0.0
                    },
                    "effects" : [

                    ],
                    "start" : 1192,
                    "duration" : 22,
                    "mediaStart" : 0,
                    "mediaDuration" : 1,
                    "scalar" : 1,
                    "metadata" : {
                      "clipSpeedAttribute" : false,
                      "default-scale" : "1",
                      "effectApplied" : "none",
                      "lockAspectRatio" : true
                    },
                    "animationTracks" : {

                    }
                  },
                  {
                    "id" : 124,
                    "_type" : "IMFile",
                    "src" : 7,
                    "trackNumber" : 0,
                    "trimStartSum" : 0,
                    "attributes" : {
                      "ident" : "Pasted Image"
                    },
                    "parameters" : {
                      "translation1" : 79.0,
                      "sourceCrop0" : 0.0,
                      "sourceCrop1" : 0.0,
                      "sourceCrop2" : 0.0,
                      "sourceCrop3" : 0.0,
                      "geometryCrop0" : 0.0,
                      "geometryCrop1" : 0.0,
                      "geometryCrop2" : 0.0,
                      "geometryCrop3" : 0.0
                    },
                    "effects" : [

                    ],
                    "start" : 1221,
                    "duration" : 22,
                    "mediaStart" : 0,
                    "mediaDuration" : 1,
                    "scalar" : 1,
                    "metadata" : {
                      "clipSpeedAttribute" : false,
                      "default-scale" : "1",
                      "effectApplied" : "none",
                      "lockAspectRatio" : true
                    },
                    "animationTracks" : {

                    }
                  },
                  {
                    "id" : 125,
                    "_type" : "IMFile",
                    "src" : 7,
                    "trackNumber" : 0,
                    "trimStartSum" : 0,
                    "attributes" : {
                      "ident" : "Pasted Image"
                    },
                    "parameters" : {
                      "translation1" : 79.0,
                      "sourceCrop0" : 0.0,
                      "sourceCrop1" : 0.0,
                      "sourceCrop2" : 0.0,
                      "sourceCrop3" : 0.0,
                      "geometryCrop0" : 0.0,
                      "geometryCrop1" : 0.0,
                      "geometryCrop2" : 0.0,
                      "geometryCrop3" : 0.0
                    },
                    "effects" : [

                    ],
                    "start" : 1264,
                    "duration" : 22,
                    "mediaStart" : 0,
                    "mediaDuration" : 1,
                    "scalar" : 1,
                    "metadata" : {
                      "clipSpeedAttribute" : false,
                      "default-scale" : "1",
                      "effectApplied" : "none",
                      "lockAspectRatio" : true
                    },
                    "animationTracks" : {

                    }
                  },
                  {
                    "id" : 126,
                    "_type" : "IMFile",
                    "src" : 33,
                    "trackNumber" : 0,
                    "trimStartSum" : 0,
                    "attributes" : {
                      "ident" : "Pasted Image"
                    },
                    "parameters" : {
                      "translation0" : {
                        "type" : "double",
                        "defaultValue" : -169.0,
                        "keyframes" : [
                          {
                            "endTime" : 413,
                            "time" : 383,
                            "value" : -111.177304561671,
                            "interp" : "linr",
                            "duration" : 30
                          },
                          {
                            "endTime" : 536,
                            "time" : 445,
                            "value" : 256.822695438329,
                            "interp" : "linr",
                            "duration" : 91
                          }
                        ]
                      },
                      "translation1" : {
                        "type" : "double",
                        "defaultValue" : 0.156979408476388,
                        "keyframes" : [
                          {
                            "endTime" : 413,
                            "time" : 383,
                            "value" : -6.2942633038051,
                            "interp" : "linr",
                            "duration" : 30
                          },
                          {
                            "endTime" : 536,
                            "time" : 445,
                            "value" : -6.2942633038051,
                            "interp" : "linr",
                            "duration" : 91
                          }
                        ]
                      },
                      "scale0" : {
                        "type" : "double",
                        "defaultValue" : 1.01275446776141,
                        "keyframes" : [
                          {
                            "endTime" : 413,
                            "time" : 383,
                            "value" : 0.87054853497443,
                            "interp" : "linr",
                            "duration" : 30
                          },
                          {
                            "endTime" : 536,
                            "time" : 445,
                            "value" : 0.00118063754427391,
                            "interp" : "linr",
                            "duration" : 91
                          }
                        ]
                      },
                      "scale1" : {
                        "type" : "double",
                        "defaultValue" : 0.346020761245675,
                        "keyframes" : [
                          {
                            "endTime" : 413,
                            "time" : 383,
                            "value" : 0.346020761245675,
                            "interp" : "linr",
                            "duration" : 30
                          },
                          {
                            "endTime" : 536,
                            "time" : 445,
                            "value" : 0.346020761245675,
                            "interp" : "linr",
                            "duration" : 91
                          }
                        ]
                      },
                      "sourceCrop0" : 0.0,
                      "sourceCrop1" : 0.0,
                      "sourceCrop2" : 0.0,
                      "sourceCrop3" : 0.0,
                      "geometryCrop0" : 0.0,
                      "geometryCrop1" : 0.0,
                      "geometryCrop2" : {
                        "type" : "double",
                        "defaultValue" : 0.0,
                        "keyframes" : [
                          {
                            "endTime" : 536,
                            "time" : 445,
                            "value" : 0.0,
                            "interp" : "linr",
                            "duration" : 91
                          }
                        ]
                      },
                      "geometryCrop3" : 0.0
                    },
                    "effects" : [

                    ],
                    "start" : 2668,
                    "duration" : 548,
                    "mediaStart" : 0,
                    "mediaDuration" : 1,
                    "scalar" : 1,
                    "metadata" : {
                      "clipSpeedAttribute" : false,
                      "default-scale" : "1",
                      "effectApplied" : "none",
                      "lockAspectRatio" : false
                    },
                    "animationTracks" : {
                      "visual" : [
                        {
                          "endTime" : 413,
                          "duration" : 30,
                          "range" : [ 383, 30],
                          "interp" : "linr"
                        },
                        {
                          "endTime" : 536,
                          "duration" : 91,
                          "range" : [ 445, 91],
                          "interp" : "linr"
                        }
                      ]
                    }
                  },
                  {
                    "id" : 127,
                    "_type" : "IMFile",
                    "src" : 40,
                    "trackNumber" : 0,
                    "trimStartSum" : 0,
                    "attributes" : {
                      "ident" : "Pasted Image"
                    },
                    "parameters" : {
                      "translation0" : -46.0,
                      "translation1" : 115.0,
                      "sourceCrop0" : 0.0,
                      "sourceCrop1" : 0.0,
                      "sourceCrop2" : 0.0,
                      "sourceCrop3" : 0.0,
                      "geometryCrop0" : 0.0,
                      "geometryCrop1" : 0.0,
                      "geometryCrop2" : 0.0,
                      "geometryCrop3" : 0.0
                    },
                    "effects" : [

                    ],
                    "start" : 4357,
                    "duration" : 172,
                    "mediaStart" : 0,
                    "mediaDuration" : 1,
                    "scalar" : 1,
                    "metadata" : {
                      "clipSpeedAttribute" : false,
                      "default-scale" : "1",
                      "effectApplied" : "none",
                      "lockAspectRatio" : true
                    },
                    "animationTracks" : {

                    }
                  },
                  {
                    "id" : 128,
                    "_type" : "IMFile",
                    "src" : 44,
                    "trackNumber" : 0,
                    "trimStartSum" : 43,
                    "attributes" : {
                      "ident" : "Pasted Image"
                    },
                    "parameters" : {
                      "translation0" : {
                        "type" : "double",
                        "defaultValue" : -170.00102406748,
                        "interp" : "eioe"
                      },
                      "translation1" : {
                        "type" : "double",
                        "defaultValue" : -170.644323943402,
                        "interp" : "eioe"
                      },
                      "scale0" : {
                        "type" : "double",
                        "defaultValue" : 0.885373628415069,
                        "interp" : "eioe"
                      },
                      "scale1" : {
                        "type" : "double",
                        "defaultValue" : 0.885373628415069,
                        "interp" : "eioe"
                      },
                      "sourceCrop0" : {
                        "type" : "double",
                        "defaultValue" : 0.0,
                        "interp" : "eioe"
                      },
                      "sourceCrop1" : {
                        "type" : "double",
                        "defaultValue" : 0.0,
                        "interp" : "eioe"
                      },
                      "sourceCrop2" : {
                        "type" : "double",
                        "defaultValue" : 0.0,
                        "interp" : "eioe"
                      },
                      "sourceCrop3" : {
                        "type" : "double",
                        "defaultValue" : 0.0,
                        "interp" : "eioe"
                      },
                      "geometryCrop0" : {
                        "type" : "double",
                        "defaultValue" : 0.0,
                        "interp" : "eioe"
                      },
                      "geometryCrop1" : {
                        "type" : "double",
                        "defaultValue" : 0.0,
                        "interp" : "eioe"
                      },
                      "geometryCrop2" : {
                        "type" : "double",
                        "defaultValue" : 0.0,
                        "interp" : "eioe"
                      },
                      "geometryCrop3" : {
                        "type" : "double",
                        "defaultValue" : 0.0,
                        "interp" : "eioe"
                      }
                    },
                    "effects" : [

                    ],
                    "start" : 5402,
                    "duration" : 148,
                    "mediaStart" : 0,
                    "mediaDuration" : 1,
                    "scalar" : 1,
                    "metadata" : {
                      "clipSpeedAttribute" : false,
                      "default-scale" : "1",
                      "effectApplied" : "none",
                      "lockAspectRatio" : true
                    },
                    "animationTracks" : {

                    }
                  },
                  {
                    "id" : 129,
                    "_type" : "Callout",
                    "def" : {
                      "kind" : "TypeWinSVG",
                      "shape" : "",
                      "style" : "",
                      "DrawTime" : 1.0,
                      "borderColorBlue" : 0.0,
                      "borderColorGreen" : 1.0,
                      "borderColorRed" : 1.0,
                      "borderWidth" : 3.0,
                      "height" : 280.015,
                      "width" : 280.014,
                      "xmlContent" : "<?xml version=\"1.0\" encoding=\"utf-8\"?>\r\n<!-- Generator: Adobe Illustrator 15.0.2, SVG Export Plug-In . SVG Version: 6.00 Build 0)  -->\r\n<!DOCTYPE svg PUBLIC \"-//W3C//DTD SVG 1.1//EN\" \"http://www.w3.org/Graphics/SVG/1.1/DTD/svg11.dtd\">\r\n<svg version=\"1.1\" id=\"Layer_1\" xmlns=\"http://www.w3.org/2000/svg\" xmlns:xlink=\"http://www.w3.org/1999/xlink\" x=\"0px\" y=\"0px\"\r\n\t width=\"420px\" height=\"420px\" viewBox=\"0 0 420 420\" enable-background=\"new 0 0 420 420\" xml:space=\"preserve\">\r\n<path fill=\"none\" stroke=\"#000000\" stroke-miterlimit=\"10\" d=\"M69.993,353.101L350.007,73.086\"/>\r\n</svg>\r\n"
                    },
                    "attributes" : {
                      "ident" : "",
                      "autoRotateText" : true
                    },
                    "parameters" : {
                      "translation0" : -169.091317485509,
                      "translation1" : 145.062592559499,
                      "rotation2" : -0.78539816339746,
                      "scale0" : 0.447346431951198,
                      "scale1" : 0.447346431951198,
                      "sourceCrop0" : 0.0,
                      "sourceCrop1" : 0.0,
                      "sourceCrop2" : 0.0,
                      "sourceCrop3" : 0.0,
                      "geometryCrop0" : 0.0,
                      "geometryCrop1" : 0.0,
                      "geometryCrop2" : 0.0,
                      "geometryCrop3" : 0.0
                    },
                    "leftEdgeMods" : [
                      {
                        "group" : "DrawPercentageFade",
                        "duration" : 30,
                        "parameters" : [
                          {
                            "name" : "DrawTime",
                              "func" : "FadeInFunc"
                            }
                        ]
                      }
                    ],
                    "effects" : [

                    ],
                    "start" : 6090,
                    "duration" : 299,
                    "mediaStart" : 0,
                    "mediaDuration" : 299,
                    "scalar" : 1,
                    "metadata" : {
                      "clipSpeedAttribute" : false,
                      "default-scale" : "1",
                      "effectApplied" : "none",
                      "lockAspectRatio" : true
                    },
                    "animationTracks" : {

                    }
                  }
                ],
                "transitions" : [
                  {
                    "name" : "Fade",
                    "duration" : 6,
                    "rightMedia" : 110,
                    "attributes" : {
                      "bypass" : false,
                      "reverse" : false,
                      "trivial" : false,
                      "useAudioPreRoll" : true,
                      "useVisualPreRoll" : true
                    }

                  },
                  {
                    "name" : "Fade",
                    "duration" : 6,
                    "leftMedia" : 110,
                    "attributes" : {
                      "bypass" : false,
                      "reverse" : false,
                      "trivial" : false,
                      "useAudioPreRoll" : true,
                      "useVisualPreRoll" : true
                    }

                  },
                  {
                    "name" : "Fade",
                    "duration" : 6,
                    "rightMedia" : 111,
                    "attributes" : {
                      "bypass" : false,
                      "reverse" : false,
                      "trivial" : false,
                      "useAudioPreRoll" : true,
                      "useVisualPreRoll" : true
                    }

                  },
                  {
                    "name" : "Fade",
                    "duration" : 6,
                    "leftMedia" : 111,
                    "attributes" : {
                      "bypass" : false,
                      "reverse" : false,
                      "trivial" : false,
                      "useAudioPreRoll" : true,
                      "useVisualPreRoll" : true
                    }

                  },
                  {
                    "name" : "Fade",
                    "duration" : 6,
                    "rightMedia" : 112,
                    "attributes" : {
                      "bypass" : false,
                      "reverse" : false,
                      "trivial" : false,
                      "useAudioPreRoll" : true,
                      "useVisualPreRoll" : true
                    }

                  },
                  {
                    "name" : "Fade",
                    "duration" : 6,
                    "leftMedia" : 112,
                    "attributes" : {
                      "bypass" : false,
                      "reverse" : false,
                      "trivial" : false,
                      "useAudioPreRoll" : true,
                      "useVisualPreRoll" : true
                    }

                  },
                  {
                    "name" : "Fade",
                    "duration" : 6,
                    "rightMedia" : 113,
                    "attributes" : {
                      "bypass" : false,
                      "reverse" : false,
                      "trivial" : false,
                      "useAudioPreRoll" : true,
                      "useVisualPreRoll" : true
                    }

                  },
                  {
                    "name" : "Fade",
                    "duration" : 6,
                    "leftMedia" : 113,
                    "attributes" : {
                      "bypass" : false,
                      "reverse" : false,
                      "trivial" : false,
                      "useAudioPreRoll" : true,
                      "useVisualPreRoll" : true
                    }

                  },
                  {
                    "name" : "Fade",
                    "duration" : 6,
                    "rightMedia" : 114,
                    "attributes" : {
                      "bypass" : false,
                      "reverse" : false,
                      "trivial" : false,
                      "useAudioPreRoll" : true,
                      "useVisualPreRoll" : true
                    }

                  },
                  {
                    "name" : "Fade",
                    "duration" : 6,
                    "leftMedia" : 114,
                    "attributes" : {
                      "bypass" : false,
                      "reverse" : false,
                      "trivial" : false,
                      "useAudioPreRoll" : true,
                      "useVisualPreRoll" : true
                    }

                  },
                  {
                    "name" : "Fade",
                    "duration" : 6,
                    "rightMedia" : 115,
                    "attributes" : {
                      "bypass" : false,
                      "reverse" : false,
                      "trivial" : false,
                      "useAudioPreRoll" : true,
                      "useVisualPreRoll" : true
                    }

                  },
                  {
                    "name" : "Fade",
                    "duration" : 6,
                    "leftMedia" : 115,
                    "attributes" : {
                      "bypass" : false,
                      "reverse" : false,
                      "trivial" : false,
                      "useAudioPreRoll" : true,
                      "useVisualPreRoll" : true
                    }

                  },
                  {
                    "name" : "Fade",
                    "duration" : 6,
                    "rightMedia" : 116,
                    "attributes" : {
                      "bypass" : false,
                      "reverse" : false,
                      "trivial" : false,
                      "useAudioPreRoll" : true,
                      "useVisualPreRoll" : true
                    }

                  },
                  {
                    "name" : "Fade",
                    "duration" : 6,
                    "leftMedia" : 116,
                    "attributes" : {
                      "bypass" : false,
                      "reverse" : false,
                      "trivial" : false,
                      "useAudioPreRoll" : true,
                      "useVisualPreRoll" : true
                    }

                  },
                  {
                    "name" : "Fade",
                    "duration" : 6,
                    "rightMedia" : 117,
                    "attributes" : {
                      "bypass" : false,
                      "reverse" : false,
                      "trivial" : false,
                      "useAudioPreRoll" : true,
                      "useVisualPreRoll" : true
                    }

                  },
                  {
                    "name" : "Fade",
                    "duration" : 6,
                    "leftMedia" : 117,
                    "attributes" : {
                      "bypass" : false,
                      "reverse" : false,
                      "trivial" : false,
                      "useAudioPreRoll" : true,
                      "useVisualPreRoll" : true
                    }

                  },
                  {
                    "name" : "Fade",
                    "duration" : 6,
                    "rightMedia" : 118,
                    "attributes" : {
                      "bypass" : false,
                      "reverse" : false,
                      "trivial" : false,
                      "useAudioPreRoll" : true,
                      "useVisualPreRoll" : true
                    }

                  },
                  {
                    "name" : "Fade",
                    "duration" : 6,
                    "leftMedia" : 118,
                    "attributes" : {
                      "bypass" : false,
                      "reverse" : false,
                      "trivial" : false,
                      "useAudioPreRoll" : true,
                      "useVisualPreRoll" : true
                    }

                  },
                  {
                    "name" : "Fade",
                    "duration" : 6,
                    "rightMedia" : 119,
                    "attributes" : {
                      "bypass" : false,
                      "reverse" : false,
                      "trivial" : false,
                      "useAudioPreRoll" : true,
                      "useVisualPreRoll" : true
                    }

                  },
                  {
                    "name" : "Fade",
                    "duration" : 6,
                    "leftMedia" : 119,
                    "attributes" : {
                      "bypass" : false,
                      "reverse" : false,
                      "trivial" : false,
                      "useAudioPreRoll" : true,
                      "useVisualPreRoll" : true
                    }

                  },
                  {
                    "name" : "Fade",
                    "duration" : 6,
                    "rightMedia" : 120,
                    "attributes" : {
                      "bypass" : false,
                      "reverse" : false,
                      "trivial" : false,
                      "useAudioPreRoll" : true,
                      "useVisualPreRoll" : true
                    }

                  },
                  {
                    "name" : "Fade",
                    "duration" : 6,
                    "leftMedia" : 120,
                    "attributes" : {
                      "bypass" : false,
                      "reverse" : false,
                      "trivial" : false,
                      "useAudioPreRoll" : true,
                      "useVisualPreRoll" : true
                    }

                  },
                  {
                    "name" : "Fade",
                    "duration" : 6,
                    "rightMedia" : 121,
                    "attributes" : {
                      "bypass" : false,
                      "reverse" : false,
                      "trivial" : false,
                      "useAudioPreRoll" : true,
                      "useVisualPreRoll" : true
                    }

                  },
                  {
                    "name" : "Fade",
                    "duration" : 6,
                    "leftMedia" : 121,
                    "attributes" : {
                      "bypass" : false,
                      "reverse" : false,
                      "trivial" : false,
                      "useAudioPreRoll" : true,
                      "useVisualPreRoll" : true
                    }

                  },
                  {
                    "name" : "Fade",
                    "duration" : 6,
                    "rightMedia" : 122,
                    "attributes" : {
                      "bypass" : false,
                      "reverse" : false,
                      "trivial" : false,
                      "useAudioPreRoll" : true,
                      "useVisualPreRoll" : true
                    }

                  },
                  {
                    "name" : "Fade",
                    "duration" : 6,
                    "leftMedia" : 122,
                    "attributes" : {
                      "bypass" : false,
                      "reverse" : false,
                      "trivial" : false,
                      "useAudioPreRoll" : true,
                      "useVisualPreRoll" : true
                    }

                  },
                  {
                    "name" : "Fade",
                    "duration" : 6,
                    "rightMedia" : 123,
                    "attributes" : {
                      "bypass" : false,
                      "reverse" : false,
                      "trivial" : false,
                      "useAudioPreRoll" : true,
                      "useVisualPreRoll" : true
                    }

                  },
                  {
                    "name" : "Fade",
                    "duration" : 6,
                    "leftMedia" : 123,
                    "attributes" : {
                      "bypass" : false,
                      "reverse" : false,
                      "trivial" : false,
                      "useAudioPreRoll" : true,
                      "useVisualPreRoll" : true
                    }

                  },
                  {
                    "name" : "Fade",
                    "duration" : 6,
                    "rightMedia" : 124,
                    "attributes" : {
                      "bypass" : false,
                      "reverse" : false,
                      "trivial" : false,
                      "useAudioPreRoll" : true,
                      "useVisualPreRoll" : true
                    }

                  },
                  {
                    "name" : "Fade",
                    "duration" : 6,
                    "leftMedia" : 124,
                    "attributes" : {
                      "bypass" : false,
                      "reverse" : false,
                      "trivial" : false,
                      "useAudioPreRoll" : true,
                      "useVisualPreRoll" : true
                    }

                  },
                  {
                    "name" : "Fade",
                    "duration" : 6,
                    "rightMedia" : 125,
                    "attributes" : {
                      "bypass" : false,
                      "reverse" : false,
                      "trivial" : false,
                      "useAudioPreRoll" : true,
                      "useVisualPreRoll" : true
                    }

                  },
                  {
                    "name" : "Fade",
                    "duration" : 6,
                    "leftMedia" : 125,
                    "attributes" : {
                      "bypass" : false,
                      "reverse" : false,
                      "trivial" : false,
                      "useAudioPreRoll" : true,
                      "useVisualPreRoll" : true
                    }

                  },
                  {
                    "name" : "Fade",
                    "duration" : 30,
                    "rightMedia" : 127,
                    "attributes" : {
                      "bypass" : false,
                      "reverse" : false,
                      "trivial" : false,
                      "useAudioPreRoll" : true,
                      "useVisualPreRoll" : true
                    }

                  },
                  {
                    "name" : "Fade",
                    "duration" : 30,
                    "leftMedia" : 127,
                    "attributes" : {
                      "bypass" : false,
                      "reverse" : false,
                      "trivial" : false,
                      "useAudioPreRoll" : true,
                      "useVisualPreRoll" : true
                    }

                  },
                  {
                    "name" : "Fade",
                    "duration" : 30,
                    "rightMedia" : 128,
                    "attributes" : {
                      "bypass" : false,
                      "reverse" : false,
                      "trivial" : false,
                      "useAudioPreRoll" : true,
                      "useVisualPreRoll" : true
                    }

                  },
                  {
                    "name" : "Fade",
                    "duration" : 30,
                    "leftMedia" : 128,
                    "attributes" : {
                      "bypass" : false,
                      "reverse" : false,
                      "trivial" : false,
                      "useAudioPreRoll" : true,
                      "useVisualPreRoll" : true
                    }

                  },
                  {
                    "name" : "Fade",
                    "duration" : 30,
                    "leftMedia" : 129,
                    "attributes" : {
                      "bypass" : false,
                      "reverse" : false,
                      "trivial" : false,
                      "useAudioPreRoll" : false,
                      "useVisualPreRoll" : true
                    }

                  }
                ]
              },
              {
                "trackIndex" : 6,
                "medias" : [
                  {
                    "id" : 130,
                    "_type" : "IMFile",
                    "src" : 8,
                    "trackNumber" : 0,
                    "trimStartSum" : 0,
                    "attributes" : {
                      "ident" : "Pasted Image"
                    },
                    "parameters" : {
                      "translation0" : 190.0,
                      "translation1" : 19.0,
                      "sourceCrop0" : 0.0,
                      "sourceCrop1" : 0.0,
                      "sourceCrop2" : 0.0,
                      "sourceCrop3" : 0.0,
                      "geometryCrop0" : 0.0,
                      "geometryCrop1" : 0.0,
                      "geometryCrop2" : 0.0,
                      "geometryCrop3" : 0.0
                    },
                    "effects" : [

                    ],
                    "start" : 604,
                    "duration" : 22,
                    "mediaStart" : 0,
                    "mediaDuration" : 1,
                    "scalar" : 1,
                    "metadata" : {
                      "clipSpeedAttribute" : false,
                      "default-scale" : "1",
                      "effectApplied" : "none",
                      "lockAspectRatio" : true
                    },
                    "animationTracks" : {

                    }
                  },
                  {
                    "id" : 131,
                    "_type" : "IMFile",
                    "src" : 8,
                    "trackNumber" : 0,
                    "trimStartSum" : 0,
                    "attributes" : {
                      "ident" : "Pasted Image"
                    },
                    "parameters" : {
                      "translation0" : 190.0,
                      "translation1" : 19.0,
                      "sourceCrop0" : 0.0,
                      "sourceCrop1" : 0.0,
                      "sourceCrop2" : 0.0,
                      "sourceCrop3" : 0.0,
                      "geometryCrop0" : 0.0,
                      "geometryCrop1" : 0.0,
                      "geometryCrop2" : 0.0,
                      "geometryCrop3" : 0.0
                    },
                    "effects" : [

                    ],
                    "start" : 642,
                    "duration" : 22,
                    "mediaStart" : 0,
                    "mediaDuration" : 1,
                    "scalar" : 1,
                    "metadata" : {
                      "clipSpeedAttribute" : false,
                      "default-scale" : "1",
                      "effectApplied" : "none",
                      "lockAspectRatio" : true
                    },
                    "animationTracks" : {

                    }
                  },
                  {
                    "id" : 132,
                    "_type" : "IMFile",
                    "src" : 8,
                    "trackNumber" : 0,
                    "trimStartSum" : 0,
                    "attributes" : {
                      "ident" : "Pasted Image"
                    },
                    "parameters" : {
                      "translation0" : 190.0,
                      "translation1" : 19.0,
                      "sourceCrop0" : 0.0,
                      "sourceCrop1" : 0.0,
                      "sourceCrop2" : 0.0,
                      "sourceCrop3" : 0.0,
                      "geometryCrop0" : 0.0,
                      "geometryCrop1" : 0.0,
                      "geometryCrop2" : 0.0,
                      "geometryCrop3" : 0.0
                    },
                    "effects" : [

                    ],
                    "start" : 704,
                    "duration" : 22,
                    "mediaStart" : 0,
                    "mediaDuration" : 1,
                    "scalar" : 1,
                    "metadata" : {
                      "clipSpeedAttribute" : false,
                      "default-scale" : "1",
                      "effectApplied" : "none",
                      "lockAspectRatio" : true
                    },
                    "animationTracks" : {

                    }
                  },
                  {
                    "id" : 133,
                    "_type" : "IMFile",
                    "src" : 8,
                    "trackNumber" : 0,
                    "trimStartSum" : 0,
                    "attributes" : {
                      "ident" : "Pasted Image"
                    },
                    "parameters" : {
                      "translation0" : 190.0,
                      "translation1" : 19.0,
                      "sourceCrop0" : 0.0,
                      "sourceCrop1" : 0.0,
                      "sourceCrop2" : 0.0,
                      "sourceCrop3" : 0.0,
                      "geometryCrop0" : 0.0,
                      "geometryCrop1" : 0.0,
                      "geometryCrop2" : 0.0,
                      "geometryCrop3" : 0.0
                    },
                    "effects" : [

                    ],
                    "start" : 739,
                    "duration" : 22,
                    "mediaStart" : 0,
                    "mediaDuration" : 1,
                    "scalar" : 1,
                    "metadata" : {
                      "clipSpeedAttribute" : false,
                      "default-scale" : "1",
                      "effectApplied" : "none",
                      "lockAspectRatio" : true
                    },
                    "animationTracks" : {

                    }
                  },
                  {
                    "id" : 134,
                    "_type" : "IMFile",
                    "src" : 8,
                    "trackNumber" : 0,
                    "trimStartSum" : 0,
                    "attributes" : {
                      "ident" : "Pasted Image"
                    },
                    "parameters" : {
                      "translation0" : 190.0,
                      "translation1" : 19.0,
                      "sourceCrop0" : 0.0,
                      "sourceCrop1" : 0.0,
                      "sourceCrop2" : 0.0,
                      "sourceCrop3" : 0.0,
                      "geometryCrop0" : 0.0,
                      "geometryCrop1" : 0.0,
                      "geometryCrop2" : 0.0,
                      "geometryCrop3" : 0.0
                    },
                    "effects" : [

                    ],
                    "start" : 789,
                    "duration" : 22,
                    "mediaStart" : 0,
                    "mediaDuration" : 1,
                    "scalar" : 1,
                    "metadata" : {
                      "clipSpeedAttribute" : false,
                      "default-scale" : "1",
                      "effectApplied" : "none",
                      "lockAspectRatio" : true
                    },
                    "animationTracks" : {

                    }
                  },
                  {
                    "id" : 135,
                    "_type" : "IMFile",
                    "src" : 8,
                    "trackNumber" : 0,
                    "trimStartSum" : 0,
                    "attributes" : {
                      "ident" : "Pasted Image"
                    },
                    "parameters" : {
                      "translation0" : 190.0,
                      "translation1" : 19.0,
                      "sourceCrop0" : 0.0,
                      "sourceCrop1" : 0.0,
                      "sourceCrop2" : 0.0,
                      "sourceCrop3" : 0.0,
                      "geometryCrop0" : 0.0,
                      "geometryCrop1" : 0.0,
                      "geometryCrop2" : 0.0,
                      "geometryCrop3" : 0.0
                    },
                    "effects" : [

                    ],
                    "start" : 839,
                    "duration" : 22,
                    "mediaStart" : 0,
                    "mediaDuration" : 1,
                    "scalar" : 1,
                    "metadata" : {
                      "clipSpeedAttribute" : false,
                      "default-scale" : "1",
                      "effectApplied" : "none",
                      "lockAspectRatio" : true
                    },
                    "animationTracks" : {

                    }
                  },
                  {
                    "id" : 136,
                    "_type" : "IMFile",
                    "src" : 8,
                    "trackNumber" : 0,
                    "trimStartSum" : 0,
                    "attributes" : {
                      "ident" : "Pasted Image"
                    },
                    "parameters" : {
                      "translation0" : 190.0,
                      "translation1" : 19.0,
                      "sourceCrop0" : 0.0,
                      "sourceCrop1" : 0.0,
                      "sourceCrop2" : 0.0,
                      "sourceCrop3" : 0.0,
                      "geometryCrop0" : 0.0,
                      "geometryCrop1" : 0.0,
                      "geometryCrop2" : 0.0,
                      "geometryCrop3" : 0.0
                    },
                    "effects" : [

                    ],
                    "start" : 868,
                    "duration" : 22,
                    "mediaStart" : 0,
                    "mediaDuration" : 1,
                    "scalar" : 1,
                    "metadata" : {
                      "clipSpeedAttribute" : false,
                      "default-scale" : "1",
                      "effectApplied" : "none",
                      "lockAspectRatio" : true
                    },
                    "animationTracks" : {

                    }
                  },
                  {
                    "id" : 137,
                    "_type" : "IMFile",
                    "src" : 8,
                    "trackNumber" : 0,
                    "trimStartSum" : 0,
                    "attributes" : {
                      "ident" : "Pasted Image"
                    },
                    "parameters" : {
                      "translation0" : 190.0,
                      "translation1" : 19.0,
                      "sourceCrop0" : 0.0,
                      "sourceCrop1" : 0.0,
                      "sourceCrop2" : 0.0,
                      "sourceCrop3" : 0.0,
                      "geometryCrop0" : 0.0,
                      "geometryCrop1" : 0.0,
                      "geometryCrop2" : 0.0,
                      "geometryCrop3" : 0.0
                    },
                    "effects" : [

                    ],
                    "start" : 906,
                    "duration" : 22,
                    "mediaStart" : 0,
                    "mediaDuration" : 1,
                    "scalar" : 1,
                    "metadata" : {
                      "clipSpeedAttribute" : false,
                      "default-scale" : "1",
                      "effectApplied" : "none",
                      "lockAspectRatio" : true
                    },
                    "animationTracks" : {

                    }
                  },
                  {
                    "id" : 138,
                    "_type" : "IMFile",
                    "src" : 8,
                    "trackNumber" : 0,
                    "trimStartSum" : 0,
                    "attributes" : {
                      "ident" : "Pasted Image"
                    },
                    "parameters" : {
                      "translation0" : 190.0,
                      "translation1" : 19.0,
                      "sourceCrop0" : 0.0,
                      "sourceCrop1" : 0.0,
                      "sourceCrop2" : 0.0,
                      "sourceCrop3" : 0.0,
                      "geometryCrop0" : 0.0,
                      "geometryCrop1" : 0.0,
                      "geometryCrop2" : 0.0,
                      "geometryCrop3" : 0.0
                    },
                    "effects" : [

                    ],
                    "start" : 968,
                    "duration" : 22,
                    "mediaStart" : 0,
                    "mediaDuration" : 1,
                    "scalar" : 1,
                    "metadata" : {
                      "clipSpeedAttribute" : false,
                      "default-scale" : "1",
                      "effectApplied" : "none",
                      "lockAspectRatio" : true
                    },
                    "animationTracks" : {

                    }
                  },
                  {
                    "id" : 139,
                    "_type" : "IMFile",
                    "src" : 8,
                    "trackNumber" : 0,
                    "trimStartSum" : 0,
                    "attributes" : {
                      "ident" : "Pasted Image"
                    },
                    "parameters" : {
                      "translation0" : 190.0,
                      "translation1" : 19.0,
                      "sourceCrop0" : 0.0,
                      "sourceCrop1" : 0.0,
                      "sourceCrop2" : 0.0,
                      "sourceCrop3" : 0.0,
                      "geometryCrop0" : 0.0,
                      "geometryCrop1" : 0.0,
                      "geometryCrop2" : 0.0,
                      "geometryCrop3" : 0.0
                    },
                    "effects" : [

                    ],
                    "start" : 1006,
                    "duration" : 22,
                    "mediaStart" : 0,
                    "mediaDuration" : 1,
                    "scalar" : 1,
                    "metadata" : {
                      "clipSpeedAttribute" : false,
                      "default-scale" : "1",
                      "effectApplied" : "none",
                      "lockAspectRatio" : true
                    },
                    "animationTracks" : {

                    }
                  },
                  {
                    "id" : 140,
                    "_type" : "IMFile",
                    "src" : 8,
                    "trackNumber" : 0,
                    "trimStartSum" : 0,
                    "attributes" : {
                      "ident" : "Pasted Image"
                    },
                    "parameters" : {
                      "translation0" : 190.0,
                      "translation1" : 19.0,
                      "sourceCrop0" : 0.0,
                      "sourceCrop1" : 0.0,
                      "sourceCrop2" : 0.0,
                      "sourceCrop3" : 0.0,
                      "geometryCrop0" : 0.0,
                      "geometryCrop1" : 0.0,
                      "geometryCrop2" : 0.0,
                      "geometryCrop3" : 0.0
                    },
                    "effects" : [

                    ],
                    "start" : 1046,
                    "duration" : 22,
                    "mediaStart" : 0,
                    "mediaDuration" : 1,
                    "scalar" : 1,
                    "metadata" : {
                      "clipSpeedAttribute" : false,
                      "default-scale" : "1",
                      "effectApplied" : "none",
                      "lockAspectRatio" : true
                    },
                    "animationTracks" : {

                    }
                  },
                  {
                    "id" : 141,
                    "_type" : "IMFile",
                    "src" : 8,
                    "trackNumber" : 0,
                    "trimStartSum" : 0,
                    "attributes" : {
                      "ident" : "Pasted Image"
                    },
                    "parameters" : {
                      "translation0" : 190.0,
                      "translation1" : 19.0,
                      "sourceCrop0" : 0.0,
                      "sourceCrop1" : 0.0,
                      "sourceCrop2" : 0.0,
                      "sourceCrop3" : 0.0,
                      "geometryCrop0" : 0.0,
                      "geometryCrop1" : 0.0,
                      "geometryCrop2" : 0.0,
                      "geometryCrop3" : 0.0
                    },
                    "effects" : [

                    ],
                    "start" : 1084,
                    "duration" : 22,
                    "mediaStart" : 0,
                    "mediaDuration" : 1,
                    "scalar" : 1,
                    "metadata" : {
                      "clipSpeedAttribute" : false,
                      "default-scale" : "1",
                      "effectApplied" : "none",
                      "lockAspectRatio" : true
                    },
                    "animationTracks" : {

                    }
                  },
                  {
                    "id" : 142,
                    "_type" : "IMFile",
                    "src" : 8,
                    "trackNumber" : 0,
                    "trimStartSum" : 0,
                    "attributes" : {
                      "ident" : "Pasted Image"
                    },
                    "parameters" : {
                      "translation0" : 190.0,
                      "translation1" : 19.0,
                      "sourceCrop0" : 0.0,
                      "sourceCrop1" : 0.0,
                      "sourceCrop2" : 0.0,
                      "sourceCrop3" : 0.0,
                      "geometryCrop0" : 0.0,
                      "geometryCrop1" : 0.0,
                      "geometryCrop2" : 0.0,
                      "geometryCrop3" : 0.0
                    },
                    "effects" : [

                    ],
                    "start" : 1135,
                    "duration" : 22,
                    "mediaStart" : 0,
                    "mediaDuration" : 1,
                    "scalar" : 1,
                    "metadata" : {
                      "clipSpeedAttribute" : false,
                      "default-scale" : "1",
                      "effectApplied" : "none",
                      "lockAspectRatio" : true
                    },
                    "animationTracks" : {

                    }
                  },
                  {
                    "id" : 143,
                    "_type" : "IMFile",
                    "src" : 8,
                    "trackNumber" : 0,
                    "trimStartSum" : 0,
                    "attributes" : {
                      "ident" : "Pasted Image"
                    },
                    "parameters" : {
                      "translation0" : 190.0,
                      "translation1" : 19.0,
                      "sourceCrop0" : 0.0,
                      "sourceCrop1" : 0.0,
                      "sourceCrop2" : 0.0,
                      "sourceCrop3" : 0.0,
                      "geometryCrop0" : 0.0,
                      "geometryCrop1" : 0.0,
                      "geometryCrop2" : 0.0,
                      "geometryCrop3" : 0.0
                    },
                    "effects" : [

                    ],
                    "start" : 1176,
                    "duration" : 22,
                    "mediaStart" : 0,
                    "mediaDuration" : 1,
                    "scalar" : 1,
                    "metadata" : {
                      "clipSpeedAttribute" : false,
                      "default-scale" : "1",
                      "effectApplied" : "none",
                      "lockAspectRatio" : true
                    },
                    "animationTracks" : {

                    }
                  },
                  {
                    "id" : 144,
                    "_type" : "IMFile",
                    "src" : 8,
                    "trackNumber" : 0,
                    "trimStartSum" : 0,
                    "attributes" : {
                      "ident" : "Pasted Image"
                    },
                    "parameters" : {
                      "translation0" : 190.0,
                      "translation1" : 19.0,
                      "sourceCrop0" : 0.0,
                      "sourceCrop1" : 0.0,
                      "sourceCrop2" : 0.0,
                      "sourceCrop3" : 0.0,
                      "geometryCrop0" : 0.0,
                      "geometryCrop1" : 0.0,
                      "geometryCrop2" : 0.0,
                      "geometryCrop3" : 0.0
                    },
                    "effects" : [

                    ],
                    "start" : 1205,
                    "duration" : 22,
                    "mediaStart" : 0,
                    "mediaDuration" : 1,
                    "scalar" : 1,
                    "metadata" : {
                      "clipSpeedAttribute" : false,
                      "default-scale" : "1",
                      "effectApplied" : "none",
                      "lockAspectRatio" : true
                    },
                    "animationTracks" : {

                    }
                  },
                  {
                    "id" : 145,
                    "_type" : "IMFile",
                    "src" : 8,
                    "trackNumber" : 0,
                    "trimStartSum" : 0,
                    "attributes" : {
                      "ident" : "Pasted Image"
                    },
                    "parameters" : {
                      "translation0" : 190.0,
                      "translation1" : 19.0,
                      "sourceCrop0" : 0.0,
                      "sourceCrop1" : 0.0,
                      "sourceCrop2" : 0.0,
                      "sourceCrop3" : 0.0,
                      "geometryCrop0" : 0.0,
                      "geometryCrop1" : 0.0,
                      "geometryCrop2" : 0.0,
                      "geometryCrop3" : 0.0
                    },
                    "effects" : [

                    ],
                    "start" : 1243,
                    "duration" : 22,
                    "mediaStart" : 0,
                    "mediaDuration" : 1,
                    "scalar" : 1,
                    "metadata" : {
                      "clipSpeedAttribute" : false,
                      "default-scale" : "1",
                      "effectApplied" : "none",
                      "lockAspectRatio" : true
                    },
                    "animationTracks" : {

                    }
                  },
                  {
                    "id" : 146,
                    "_type" : "IMFile",
                    "src" : 30,
                    "trackNumber" : 0,
                    "trimStartSum" : -4,
                    "attributes" : {
                      "ident" : "Pasted Image"
                    },
                    "parameters" : {
                      "translation0" : {
                        "type" : "double",
                        "defaultValue" : -399.0,
                        "keyframes" : [
                          {
                            "endTime" : 638,
                            "time" : 615,
                            "value" : -310.0,
                            "interp" : "linr",
                            "duration" : 23
                          },
                          {
                            "endTime" : 727,
                            "time" : 658,
                            "value" : -14.0,
                            "interp" : "linr",
                            "duration" : 69
                          }
                        ]
                      },
                      "translation1" : {
                        "type" : "double",
                        "defaultValue" : -25.0,
                        "keyframes" : [
                          {
                            "endTime" : 727,
                            "time" : 658,
                            "value" : -25.0,
                            "interp" : "linr",
                            "duration" : 69
                          }
                        ]
                      },
                      "sourceCrop0" : 0.0,
                      "sourceCrop1" : 0.0,
                      "sourceCrop2" : 0.0,
                      "sourceCrop3" : 0.0,
                      "geometryCrop0" : 0.0,
                      "geometryCrop1" : 0.0,
                      "geometryCrop2" : 0.0,
                      "geometryCrop3" : 0.0
                    },
                    "effects" : [

                    ],
                    "start" : 2668,
                    "duration" : 731,
                    "mediaStart" : 0,
                    "mediaDuration" : 1,
                    "scalar" : 1,
                    "metadata" : {
                      "clipSpeedAttribute" : false,
                      "default-scale" : "1",
                      "effectApplied" : "none",
                      "lockAspectRatio" : true
                    },
                    "animationTracks" : {
                      "visual" : [
                        {
                          "endTime" : 638,
                          "duration" : 23,
                          "range" : [ 615, 23],
                          "interp" : "linr"
                        },
                        {
                          "endTime" : 727,
                          "duration" : 69,
                          "range" : [ 658, 69],
                          "interp" : "linr"
                        }
                      ]
                    }
                  }
                ],
                "transitions" : [
                  {
                    "name" : "Fade",
                    "duration" : 6,
                    "rightMedia" : 130,
                    "attributes" : {
                      "bypass" : false,
                      "reverse" : false,
                      "trivial" : false,
                      "useAudioPreRoll" : true,
                      "useVisualPreRoll" : true
                    }

                  },
                  {
                    "name" : "Fade",
                    "duration" : 6,
                    "leftMedia" : 130,
                    "attributes" : {
                      "bypass" : false,
                      "reverse" : false,
                      "trivial" : false,
                      "useAudioPreRoll" : true,
                      "useVisualPreRoll" : true
                    }

                  },
                  {
                    "name" : "Fade",
                    "duration" : 6,
                    "rightMedia" : 131,
                    "attributes" : {
                      "bypass" : false,
                      "reverse" : false,
                      "trivial" : false,
                      "useAudioPreRoll" : true,
                      "useVisualPreRoll" : true
                    }

                  },
                  {
                    "name" : "Fade",
                    "duration" : 6,
                    "leftMedia" : 131,
                    "attributes" : {
                      "bypass" : false,
                      "reverse" : false,
                      "trivial" : false,
                      "useAudioPreRoll" : true,
                      "useVisualPreRoll" : true
                    }

                  },
                  {
                    "name" : "Fade",
                    "duration" : 6,
                    "rightMedia" : 132,
                    "attributes" : {
                      "bypass" : false,
                      "reverse" : false,
                      "trivial" : false,
                      "useAudioPreRoll" : true,
                      "useVisualPreRoll" : true
                    }

                  },
                  {
                    "name" : "Fade",
                    "duration" : 6,
                    "leftMedia" : 132,
                    "attributes" : {
                      "bypass" : false,
                      "reverse" : false,
                      "trivial" : false,
                      "useAudioPreRoll" : true,
                      "useVisualPreRoll" : true
                    }

                  },
                  {
                    "name" : "Fade",
                    "duration" : 6,
                    "rightMedia" : 133,
                    "attributes" : {
                      "bypass" : false,
                      "reverse" : false,
                      "trivial" : false,
                      "useAudioPreRoll" : true,
                      "useVisualPreRoll" : true
                    }

                  },
                  {
                    "name" : "Fade",
                    "duration" : 6,
                    "leftMedia" : 133,
                    "attributes" : {
                      "bypass" : false,
                      "reverse" : false,
                      "trivial" : false,
                      "useAudioPreRoll" : true,
                      "useVisualPreRoll" : true
                    }

                  },
                  {
                    "name" : "Fade",
                    "duration" : 6,
                    "rightMedia" : 134,
                    "attributes" : {
                      "bypass" : false,
                      "reverse" : false,
                      "trivial" : false,
                      "useAudioPreRoll" : true,
                      "useVisualPreRoll" : true
                    }

                  },
                  {
                    "name" : "Fade",
                    "duration" : 6,
                    "leftMedia" : 134,
                    "attributes" : {
                      "bypass" : false,
                      "reverse" : false,
                      "trivial" : false,
                      "useAudioPreRoll" : true,
                      "useVisualPreRoll" : true
                    }

                  },
                  {
                    "name" : "Fade",
                    "duration" : 6,
                    "rightMedia" : 135,
                    "attributes" : {
                      "bypass" : false,
                      "reverse" : false,
                      "trivial" : false,
                      "useAudioPreRoll" : true,
                      "useVisualPreRoll" : true
                    }

                  },
                  {
                    "name" : "Fade",
                    "duration" : 6,
                    "leftMedia" : 135,
                    "attributes" : {
                      "bypass" : false,
                      "reverse" : false,
                      "trivial" : false,
                      "useAudioPreRoll" : true,
                      "useVisualPreRoll" : true
                    }

                  },
                  {
                    "name" : "Fade",
                    "duration" : 6,
                    "rightMedia" : 136,
                    "attributes" : {
                      "bypass" : false,
                      "reverse" : false,
                      "trivial" : false,
                      "useAudioPreRoll" : true,
                      "useVisualPreRoll" : true
                    }

                  },
                  {
                    "name" : "Fade",
                    "duration" : 6,
                    "leftMedia" : 136,
                    "attributes" : {
                      "bypass" : false,
                      "reverse" : false,
                      "trivial" : false,
                      "useAudioPreRoll" : true,
                      "useVisualPreRoll" : true
                    }

                  },
                  {
                    "name" : "Fade",
                    "duration" : 6,
                    "rightMedia" : 137,
                    "attributes" : {
                      "bypass" : false,
                      "reverse" : false,
                      "trivial" : false,
                      "useAudioPreRoll" : true,
                      "useVisualPreRoll" : true
                    }

                  },
                  {
                    "name" : "Fade",
                    "duration" : 6,
                    "leftMedia" : 137,
                    "attributes" : {
                      "bypass" : false,
                      "reverse" : false,
                      "trivial" : false,
                      "useAudioPreRoll" : true,
                      "useVisualPreRoll" : true
                    }

                  },
                  {
                    "name" : "Fade",
                    "duration" : 6,
                    "rightMedia" : 138,
                    "attributes" : {
                      "bypass" : false,
                      "reverse" : false,
                      "trivial" : false,
                      "useAudioPreRoll" : true,
                      "useVisualPreRoll" : true
                    }

                  },
                  {
                    "name" : "Fade",
                    "duration" : 6,
                    "leftMedia" : 138,
                    "attributes" : {
                      "bypass" : false,
                      "reverse" : false,
                      "trivial" : false,
                      "useAudioPreRoll" : true,
                      "useVisualPreRoll" : true
                    }

                  },
                  {
                    "name" : "Fade",
                    "duration" : 6,
                    "rightMedia" : 139,
                    "attributes" : {
                      "bypass" : false,
                      "reverse" : false,
                      "trivial" : false,
                      "useAudioPreRoll" : true,
                      "useVisualPreRoll" : true
                    }

                  },
                  {
                    "name" : "Fade",
                    "duration" : 6,
                    "leftMedia" : 139,
                    "attributes" : {
                      "bypass" : false,
                      "reverse" : false,
                      "trivial" : false,
                      "useAudioPreRoll" : true,
                      "useVisualPreRoll" : true
                    }

                  },
                  {
                    "name" : "Fade",
                    "duration" : 6,
                    "rightMedia" : 140,
                    "attributes" : {
                      "bypass" : false,
                      "reverse" : false,
                      "trivial" : false,
                      "useAudioPreRoll" : true,
                      "useVisualPreRoll" : true
                    }

                  },
                  {
                    "name" : "Fade",
                    "duration" : 6,
                    "leftMedia" : 140,
                    "attributes" : {
                      "bypass" : false,
                      "reverse" : false,
                      "trivial" : false,
                      "useAudioPreRoll" : true,
                      "useVisualPreRoll" : true
                    }

                  },
                  {
                    "name" : "Fade",
                    "duration" : 6,
                    "rightMedia" : 141,
                    "attributes" : {
                      "bypass" : false,
                      "reverse" : false,
                      "trivial" : false,
                      "useAudioPreRoll" : true,
                      "useVisualPreRoll" : true
                    }

                  },
                  {
                    "name" : "Fade",
                    "duration" : 6,
                    "leftMedia" : 141,
                    "attributes" : {
                      "bypass" : false,
                      "reverse" : false,
                      "trivial" : false,
                      "useAudioPreRoll" : true,
                      "useVisualPreRoll" : true
                    }

                  },
                  {
                    "name" : "Fade",
                    "duration" : 6,
                    "rightMedia" : 142,
                    "attributes" : {
                      "bypass" : false,
                      "reverse" : false,
                      "trivial" : false,
                      "useAudioPreRoll" : true,
                      "useVisualPreRoll" : true
                    }

                  },
                  {
                    "name" : "Fade",
                    "duration" : 6,
                    "leftMedia" : 142,
                    "attributes" : {
                      "bypass" : false,
                      "reverse" : false,
                      "trivial" : false,
                      "useAudioPreRoll" : true,
                      "useVisualPreRoll" : true
                    }

                  },
                  {
                    "name" : "Fade",
                    "duration" : 6,
                    "rightMedia" : 143,
                    "attributes" : {
                      "bypass" : false,
                      "reverse" : false,
                      "trivial" : false,
                      "useAudioPreRoll" : true,
                      "useVisualPreRoll" : true
                    }

                  },
                  {
                    "name" : "Fade",
                    "duration" : 6,
                    "leftMedia" : 143,
                    "attributes" : {
                      "bypass" : false,
                      "reverse" : false,
                      "trivial" : false,
                      "useAudioPreRoll" : true,
                      "useVisualPreRoll" : true
                    }

                  },
                  {
                    "name" : "Fade",
                    "duration" : 6,
                    "rightMedia" : 144,
                    "attributes" : {
                      "bypass" : false,
                      "reverse" : false,
                      "trivial" : false,
                      "useAudioPreRoll" : true,
                      "useVisualPreRoll" : true
                    }

                  },
                  {
                    "name" : "Fade",
                    "duration" : 6,
                    "leftMedia" : 144,
                    "attributes" : {
                      "bypass" : false,
                      "reverse" : false,
                      "trivial" : false,
                      "useAudioPreRoll" : true,
                      "useVisualPreRoll" : true
                    }

                  },
                  {
                    "name" : "Fade",
                    "duration" : 6,
                    "rightMedia" : 145,
                    "attributes" : {
                      "bypass" : false,
                      "reverse" : false,
                      "trivial" : false,
                      "useAudioPreRoll" : true,
                      "useVisualPreRoll" : true
                    }

                  },
                  {
                    "name" : "Fade",
                    "duration" : 6,
                    "leftMedia" : 145,
                    "attributes" : {
                      "bypass" : false,
                      "reverse" : false,
                      "trivial" : false,
                      "useAudioPreRoll" : true,
                      "useVisualPreRoll" : true
                    }

                  }
                ]
              },
              {
                "trackIndex" : 7,
                "medias" : [
                  {
                    "id" : 147,
                    "_type" : "IMFile",
                    "src" : 9,
                    "trackNumber" : 0,
                    "trimStartSum" : 0,
                    "attributes" : {
                      "ident" : "Pasted Image"
                    },
                    "parameters" : {
                      "translation0" : 128.0,
                      "translation1" : -13.0,
                      "sourceCrop0" : 0.0,
                      "sourceCrop1" : 0.0,
                      "sourceCrop2" : 0.0,
                      "sourceCrop3" : 0.0,
                      "geometryCrop0" : 0.0,
                      "geometryCrop1" : 0.0,
                      "geometryCrop2" : 0.0,
                      "geometryCrop3" : 0.0
                    },
                    "effects" : [

                    ],
                    "start" : 615,
                    "duration" : 21,
                    "mediaStart" : 0,
                    "mediaDuration" : 1,
                    "scalar" : 1,
                    "metadata" : {
                      "clipSpeedAttribute" : false,
                      "default-scale" : "1",
                      "effectApplied" : "none",
                      "lockAspectRatio" : true
                    },
                    "animationTracks" : {

                    }
                  },
                  {
                    "id" : 148,
                    "_type" : "IMFile",
                    "src" : 9,
                    "trackNumber" : 0,
                    "trimStartSum" : 0,
                    "attributes" : {
                      "ident" : "Pasted Image"
                    },
                    "parameters" : {
                      "translation0" : 128.0,
                      "translation1" : -13.0,
                      "sourceCrop0" : 0.0,
                      "sourceCrop1" : 0.0,
                      "sourceCrop2" : 0.0,
                      "sourceCrop3" : 0.0,
                      "geometryCrop0" : 0.0,
                      "geometryCrop1" : 0.0,
                      "geometryCrop2" : 0.0,
                      "geometryCrop3" : 0.0
                    },
                    "effects" : [

                    ],
                    "start" : 670,
                    "duration" : 21,
                    "mediaStart" : 0,
                    "mediaDuration" : 1,
                    "scalar" : 1,
                    "metadata" : {
                      "clipSpeedAttribute" : false,
                      "default-scale" : "1",
                      "effectApplied" : "none",
                      "lockAspectRatio" : true
                    },
                    "animationTracks" : {

                    }
                  },
                  {
                    "id" : 149,
                    "_type" : "IMFile",
                    "src" : 9,
                    "trackNumber" : 0,
                    "trimStartSum" : 0,
                    "attributes" : {
                      "ident" : "Pasted Image"
                    },
                    "parameters" : {
                      "translation0" : 128.0,
                      "translation1" : -13.0,
                      "sourceCrop0" : 0.0,
                      "sourceCrop1" : 0.0,
                      "sourceCrop2" : 0.0,
                      "sourceCrop3" : 0.0,
                      "geometryCrop0" : 0.0,
                      "geometryCrop1" : 0.0,
                      "geometryCrop2" : 0.0,
                      "geometryCrop3" : 0.0
                    },
                    "effects" : [

                    ],
                    "start" : 712,
                    "duration" : 21,
                    "mediaStart" : 0,
                    "mediaDuration" : 1,
                    "scalar" : 1,
                    "metadata" : {
                      "clipSpeedAttribute" : false,
                      "default-scale" : "1",
                      "effectApplied" : "none",
                      "lockAspectRatio" : true
                    },
                    "animationTracks" : {

                    }
                  },
                  {
                    "id" : 150,
                    "_type" : "IMFile",
                    "src" : 9,
                    "trackNumber" : 0,
                    "trimStartSum" : 0,
                    "attributes" : {
                      "ident" : "Pasted Image"
                    },
                    "parameters" : {
                      "translation0" : 128.0,
                      "translation1" : -13.0,
                      "sourceCrop0" : 0.0,
                      "sourceCrop1" : 0.0,
                      "sourceCrop2" : 0.0,
                      "sourceCrop3" : 0.0,
                      "geometryCrop0" : 0.0,
                      "geometryCrop1" : 0.0,
                      "geometryCrop2" : 0.0,
                      "geometryCrop3" : 0.0
                    },
                    "effects" : [

                    ],
                    "start" : 750,
                    "duration" : 21,
                    "mediaStart" : 0,
                    "mediaDuration" : 1,
                    "scalar" : 1,
                    "metadata" : {
                      "clipSpeedAttribute" : false,
                      "default-scale" : "1",
                      "effectApplied" : "none",
                      "lockAspectRatio" : true
                    },
                    "animationTracks" : {

                    }
                  },
                  {
                    "id" : 151,
                    "_type" : "IMFile",
                    "src" : 9,
                    "trackNumber" : 0,
                    "trimStartSum" : 0,
                    "attributes" : {
                      "ident" : "Pasted Image"
                    },
                    "parameters" : {
                      "translation0" : 128.0,
                      "translation1" : -13.0,
                      "sourceCrop0" : 0.0,
                      "sourceCrop1" : 0.0,
                      "sourceCrop2" : 0.0,
                      "sourceCrop3" : 0.0,
                      "geometryCrop0" : 0.0,
                      "geometryCrop1" : 0.0,
                      "geometryCrop2" : 0.0,
                      "geometryCrop3" : 0.0
                    },
                    "effects" : [

                    ],
                    "start" : 805,
                    "duration" : 21,
                    "mediaStart" : 0,
                    "mediaDuration" : 1,
                    "scalar" : 1,
                    "metadata" : {
                      "clipSpeedAttribute" : false,
                      "default-scale" : "1",
                      "effectApplied" : "none",
                      "lockAspectRatio" : true
                    },
                    "animationTracks" : {

                    }
                  },
                  {
                    "id" : 152,
                    "_type" : "IMFile",
                    "src" : 9,
                    "trackNumber" : 0,
                    "trimStartSum" : 0,
                    "attributes" : {
                      "ident" : "Pasted Image"
                    },
                    "parameters" : {
                      "translation0" : 128.0,
                      "translation1" : -13.0,
                      "sourceCrop0" : 0.0,
                      "sourceCrop1" : 0.0,
                      "sourceCrop2" : 0.0,
                      "sourceCrop3" : 0.0,
                      "geometryCrop0" : 0.0,
                      "geometryCrop1" : 0.0,
                      "geometryCrop2" : 0.0,
                      "geometryCrop3" : 0.0
                    },
                    "effects" : [

                    ],
                    "start" : 847,
                    "duration" : 21,
                    "mediaStart" : 0,
                    "mediaDuration" : 1,
                    "scalar" : 1,
                    "metadata" : {
                      "clipSpeedAttribute" : false,
                      "default-scale" : "1",
                      "effectApplied" : "none",
                      "lockAspectRatio" : true
                    },
                    "animationTracks" : {

                    }
                  },
                  {
                    "id" : 153,
                    "_type" : "IMFile",
                    "src" : 9,
                    "trackNumber" : 0,
                    "trimStartSum" : 0,
                    "attributes" : {
                      "ident" : "Pasted Image"
                    },
                    "parameters" : {
                      "translation0" : 128.0,
                      "translation1" : -13.0,
                      "sourceCrop0" : 0.0,
                      "sourceCrop1" : 0.0,
                      "sourceCrop2" : 0.0,
                      "sourceCrop3" : 0.0,
                      "geometryCrop0" : 0.0,
                      "geometryCrop1" : 0.0,
                      "geometryCrop2" : 0.0,
                      "geometryCrop3" : 0.0
                    },
                    "effects" : [

                    ],
                    "start" : 879,
                    "duration" : 21,
                    "mediaStart" : 0,
                    "mediaDuration" : 1,
                    "scalar" : 1,
                    "metadata" : {
                      "clipSpeedAttribute" : false,
                      "default-scale" : "1",
                      "effectApplied" : "none",
                      "lockAspectRatio" : true
                    },
                    "animationTracks" : {

                    }
                  },
                  {
                    "id" : 154,
                    "_type" : "IMFile",
                    "src" : 9,
                    "trackNumber" : 0,
                    "trimStartSum" : 0,
                    "attributes" : {
                      "ident" : "Pasted Image"
                    },
                    "parameters" : {
                      "translation0" : 128.0,
                      "translation1" : -13.0,
                      "sourceCrop0" : 0.0,
                      "sourceCrop1" : 0.0,
                      "sourceCrop2" : 0.0,
                      "sourceCrop3" : 0.0,
                      "geometryCrop0" : 0.0,
                      "geometryCrop1" : 0.0,
                      "geometryCrop2" : 0.0,
                      "geometryCrop3" : 0.0
                    },
                    "effects" : [

                    ],
                    "start" : 920,
                    "duration" : 21,
                    "mediaStart" : 0,
                    "mediaDuration" : 1,
                    "scalar" : 1,
                    "metadata" : {
                      "clipSpeedAttribute" : false,
                      "default-scale" : "1",
                      "effectApplied" : "none",
                      "lockAspectRatio" : true
                    },
                    "animationTracks" : {

                    }
                  },
                  {
                    "id" : 155,
                    "_type" : "IMFile",
                    "src" : 9,
                    "trackNumber" : 0,
                    "trimStartSum" : 0,
                    "attributes" : {
                      "ident" : "Pasted Image"
                    },
                    "parameters" : {
                      "translation0" : 128.0,
                      "translation1" : -13.0,
                      "sourceCrop0" : 0.0,
                      "sourceCrop1" : 0.0,
                      "sourceCrop2" : 0.0,
                      "sourceCrop3" : 0.0,
                      "geometryCrop0" : 0.0,
                      "geometryCrop1" : 0.0,
                      "geometryCrop2" : 0.0,
                      "geometryCrop3" : 0.0
                    },
                    "effects" : [

                    ],
                    "start" : 976,
                    "duration" : 21,
                    "mediaStart" : 0,
                    "mediaDuration" : 1,
                    "scalar" : 1,
                    "metadata" : {
                      "clipSpeedAttribute" : false,
                      "default-scale" : "1",
                      "effectApplied" : "none",
                      "lockAspectRatio" : true
                    },
                    "animationTracks" : {

                    }
                  },
                  {
                    "id" : 156,
                    "_type" : "IMFile",
                    "src" : 9,
                    "trackNumber" : 0,
                    "trimStartSum" : 0,
                    "attributes" : {
                      "ident" : "Pasted Image"
                    },
                    "parameters" : {
                      "translation0" : 128.0,
                      "translation1" : -13.0,
                      "sourceCrop0" : 0.0,
                      "sourceCrop1" : 0.0,
                      "sourceCrop2" : 0.0,
                      "sourceCrop3" : 0.0,
                      "geometryCrop0" : 0.0,
                      "geometryCrop1" : 0.0,
                      "geometryCrop2" : 0.0,
                      "geometryCrop3" : 0.0
                    },
                    "effects" : [

                    ],
                    "start" : 1014,
                    "duration" : 21,
                    "mediaStart" : 0,
                    "mediaDuration" : 1,
                    "scalar" : 1,
                    "metadata" : {
                      "clipSpeedAttribute" : false,
                      "default-scale" : "1",
                      "effectApplied" : "none",
                      "lockAspectRatio" : true
                    },
                    "animationTracks" : {

                    }
                  },
                  {
                    "id" : 157,
                    "_type" : "IMFile",
                    "src" : 9,
                    "trackNumber" : 0,
                    "trimStartSum" : 0,
                    "attributes" : {
                      "ident" : "Pasted Image"
                    },
                    "parameters" : {
                      "translation0" : 128.0,
                      "translation1" : -13.0,
                      "sourceCrop0" : 0.0,
                      "sourceCrop1" : 0.0,
                      "sourceCrop2" : 0.0,
                      "sourceCrop3" : 0.0,
                      "geometryCrop0" : 0.0,
                      "geometryCrop1" : 0.0,
                      "geometryCrop2" : 0.0,
                      "geometryCrop3" : 0.0
                    },
                    "effects" : [

                    ],
                    "start" : 1046,
                    "duration" : 21,
                    "mediaStart" : 0,
                    "mediaDuration" : 1,
                    "scalar" : 1,
                    "metadata" : {
                      "clipSpeedAttribute" : false,
                      "default-scale" : "1",
                      "effectApplied" : "none",
                      "lockAspectRatio" : true
                    },
                    "animationTracks" : {

                    }
                  },
                  {
                    "id" : 158,
                    "_type" : "IMFile",
                    "src" : 9,
                    "trackNumber" : 0,
                    "trimStartSum" : 0,
                    "attributes" : {
                      "ident" : "Pasted Image"
                    },
                    "parameters" : {
                      "translation0" : 128.0,
                      "translation1" : -13.0,
                      "sourceCrop0" : 0.0,
                      "sourceCrop1" : 0.0,
                      "sourceCrop2" : 0.0,
                      "sourceCrop3" : 0.0,
                      "geometryCrop0" : 0.0,
                      "geometryCrop1" : 0.0,
                      "geometryCrop2" : 0.0,
                      "geometryCrop3" : 0.0
                    },
                    "effects" : [

                    ],
                    "start" : 1101,
                    "duration" : 21,
                    "mediaStart" : 0,
                    "mediaDuration" : 1,
                    "scalar" : 1,
                    "metadata" : {
                      "clipSpeedAttribute" : false,
                      "default-scale" : "1",
                      "effectApplied" : "none",
                      "lockAspectRatio" : true
                    },
                    "animationTracks" : {

                    }
                  },
                  {
                    "id" : 159,
                    "_type" : "IMFile",
                    "src" : 9,
                    "trackNumber" : 0,
                    "trimStartSum" : 0,
                    "attributes" : {
                      "ident" : "Pasted Image"
                    },
                    "parameters" : {
                      "translation0" : 128.0,
                      "translation1" : -13.0,
                      "sourceCrop0" : 0.0,
                      "sourceCrop1" : 0.0,
                      "sourceCrop2" : 0.0,
                      "sourceCrop3" : 0.0,
                      "geometryCrop0" : 0.0,
                      "geometryCrop1" : 0.0,
                      "geometryCrop2" : 0.0,
                      "geometryCrop3" : 0.0
                    },
                    "effects" : [

                    ],
                    "start" : 1143,
                    "duration" : 21,
                    "mediaStart" : 0,
                    "mediaDuration" : 1,
                    "scalar" : 1,
                    "metadata" : {
                      "clipSpeedAttribute" : false,
                      "default-scale" : "1",
                      "effectApplied" : "none",
                      "lockAspectRatio" : true
                    },
                    "animationTracks" : {

                    }
                  },
                  {
                    "id" : 160,
                    "_type" : "IMFile",
                    "src" : 9,
                    "trackNumber" : 0,
                    "trimStartSum" : 0,
                    "attributes" : {
                      "ident" : "Pasted Image"
                    },
                    "parameters" : {
                      "translation0" : 128.0,
                      "translation1" : -13.0,
                      "sourceCrop0" : 0.0,
                      "sourceCrop1" : 0.0,
                      "sourceCrop2" : 0.0,
                      "sourceCrop3" : 0.0,
                      "geometryCrop0" : 0.0,
                      "geometryCrop1" : 0.0,
                      "geometryCrop2" : 0.0,
                      "geometryCrop3" : 0.0
                    },
                    "effects" : [

                    ],
                    "start" : 1184,
                    "duration" : 21,
                    "mediaStart" : 0,
                    "mediaDuration" : 1,
                    "scalar" : 1,
                    "metadata" : {
                      "clipSpeedAttribute" : false,
                      "default-scale" : "1",
                      "effectApplied" : "none",
                      "lockAspectRatio" : true
                    },
                    "animationTracks" : {

                    }
                  },
                  {
                    "id" : 161,
                    "_type" : "IMFile",
                    "src" : 9,
                    "trackNumber" : 0,
                    "trimStartSum" : 0,
                    "attributes" : {
                      "ident" : "Pasted Image"
                    },
                    "parameters" : {
                      "translation0" : 128.0,
                      "translation1" : -13.0,
                      "sourceCrop0" : 0.0,
                      "sourceCrop1" : 0.0,
                      "sourceCrop2" : 0.0,
                      "sourceCrop3" : 0.0,
                      "geometryCrop0" : 0.0,
                      "geometryCrop1" : 0.0,
                      "geometryCrop2" : 0.0,
                      "geometryCrop3" : 0.0
                    },
                    "effects" : [

                    ],
                    "start" : 1216,
                    "duration" : 21,
                    "mediaStart" : 0,
                    "mediaDuration" : 1,
                    "scalar" : 1,
                    "metadata" : {
                      "clipSpeedAttribute" : false,
                      "default-scale" : "1",
                      "effectApplied" : "none",
                      "lockAspectRatio" : true
                    },
                    "animationTracks" : {

                    }
                  },
                  {
                    "id" : 162,
                    "_type" : "IMFile",
                    "src" : 31,
                    "trackNumber" : 0,
                    "trimStartSum" : -4,
                    "attributes" : {
                      "ident" : "Pasted Image"
                    },
                    "parameters" : {
                      "translation0" : {
                        "type" : "double",
                        "defaultValue" : -200.826153413424,
                        "keyframes" : [
                          {
                            "endTime" : 837,
                            "time" : 807,
                            "value" : -139.142283707214,
                            "interp" : "linr",
                            "duration" : 30
                          },
                          {
                            "endTime" : 966,
                            "time" : 872,
                            "value" : 265.768222117433,
                            "interp" : "linr",
                            "duration" : 94
                          }
                        ]
                      },
                      "translation1" : {
                        "type" : "double",
                        "defaultValue" : -138.466741943388,
                        "keyframes" : [
                          {
                            "endTime" : 837,
                            "time" : 807,
                            "value" : -121.0,
                            "interp" : "linr",
                            "duration" : 30
                          },
                          {
                            "endTime" : 966,
                            "time" : 872,
                            "value" : -78.0387835258805,
                            "interp" : "linr",
                            "duration" : 94
                          }
                        ]
                      },
                      "scale0" : {
                        "type" : "double",
                        "defaultValue" : 0.994544927009847,
                        "keyframes" : [
                          {
                            "endTime" : 837,
                            "time" : 807,
                            "value" : 0.839754789729522,
                            "interp" : "linr",
                            "duration" : 30
                          },
                          {
                            "endTime" : 966,
                            "time" : 872,
                            "value" : 0.16141550631453,
                            "interp" : "linr",
                            "duration" : 94
                          }
                        ]
                      },
                      "scale1" : {
                        "type" : "double",
                        "defaultValue" : 0.994544927009847,
                        "keyframes" : [
                          {
                            "endTime" : 837,
                            "time" : 807,
                            "value" : 0.839754789729522,
                            "interp" : "linr",
                            "duration" : 30
                          },
                          {
                            "endTime" : 966,
                            "time" : 872,
                            "value" : 0.16141550631453,
                            "interp" : "linr",
                            "duration" : 94
                          }
                        ]
                      },
                      "sourceCrop0" : 0.0,
                      "sourceCrop1" : 0.0,
                      "sourceCrop2" : 0.0,
                      "sourceCrop3" : 0.0,
                      "geometryCrop0" : 0.0,
                      "geometryCrop1" : 0.0,
                      "geometryCrop2" : 0.0,
                      "geometryCrop3" : 0.0
                    },
                    "effects" : [

                    ],
                    "start" : 2668,
                    "duration" : 976,
                    "mediaStart" : 0,
                    "mediaDuration" : 1,
                    "scalar" : 1,
                    "metadata" : {
                      "clipSpeedAttribute" : false,
                      "default-scale" : "1",
                      "effectApplied" : "none",
                      "lockAspectRatio" : true
                    },
                    "animationTracks" : {
                      "visual" : [
                        {
                          "endTime" : 837,
                          "duration" : 30,
                          "range" : [ 807, 30],
                          "interp" : "linr"
                        },
                        {
                          "endTime" : 966,
                          "duration" : 94,
                          "range" : [ 872, 94],
                          "interp" : "linr"
                        }
                      ]
                    }
                  }
                ],
                "transitions" : [
                  {
                    "name" : "Fade",
                    "duration" : 6,
                    "rightMedia" : 147,
                    "attributes" : {
                      "bypass" : false,
                      "reverse" : false,
                      "trivial" : false,
                      "useAudioPreRoll" : true,
                      "useVisualPreRoll" : true
                    }

                  },
                  {
                    "name" : "Fade",
                    "duration" : 6,
                    "leftMedia" : 147,
                    "attributes" : {
                      "bypass" : false,
                      "reverse" : false,
                      "trivial" : false,
                      "useAudioPreRoll" : true,
                      "useVisualPreRoll" : true
                    }

                  },
                  {
                    "name" : "Fade",
                    "duration" : 6,
                    "rightMedia" : 148,
                    "attributes" : {
                      "bypass" : false,
                      "reverse" : false,
                      "trivial" : false,
                      "useAudioPreRoll" : true,
                      "useVisualPreRoll" : true
                    }

                  },
                  {
                    "name" : "Fade",
                    "duration" : 6,
                    "leftMedia" : 148,
                    "attributes" : {
                      "bypass" : false,
                      "reverse" : false,
                      "trivial" : false,
                      "useAudioPreRoll" : true,
                      "useVisualPreRoll" : true
                    }

                  },
                  {
                    "name" : "Fade",
                    "duration" : 6,
                    "rightMedia" : 149,
                    "attributes" : {
                      "bypass" : false,
                      "reverse" : false,
                      "trivial" : false,
                      "useAudioPreRoll" : true,
                      "useVisualPreRoll" : true
                    }

                  },
                  {
                    "name" : "Fade",
                    "duration" : 6,
                    "leftMedia" : 149,
                    "attributes" : {
                      "bypass" : false,
                      "reverse" : false,
                      "trivial" : false,
                      "useAudioPreRoll" : true,
                      "useVisualPreRoll" : true
                    }

                  },
                  {
                    "name" : "Fade",
                    "duration" : 6,
                    "rightMedia" : 150,
                    "attributes" : {
                      "bypass" : false,
                      "reverse" : false,
                      "trivial" : false,
                      "useAudioPreRoll" : true,
                      "useVisualPreRoll" : true
                    }

                  },
                  {
                    "name" : "Fade",
                    "duration" : 6,
                    "leftMedia" : 150,
                    "attributes" : {
                      "bypass" : false,
                      "reverse" : false,
                      "trivial" : false,
                      "useAudioPreRoll" : true,
                      "useVisualPreRoll" : true
                    }

                  },
                  {
                    "name" : "Fade",
                    "duration" : 6,
                    "rightMedia" : 151,
                    "attributes" : {
                      "bypass" : false,
                      "reverse" : false,
                      "trivial" : false,
                      "useAudioPreRoll" : true,
                      "useVisualPreRoll" : true
                    }

                  },
                  {
                    "name" : "Fade",
                    "duration" : 6,
                    "leftMedia" : 151,
                    "attributes" : {
                      "bypass" : false,
                      "reverse" : false,
                      "trivial" : false,
                      "useAudioPreRoll" : true,
                      "useVisualPreRoll" : true
                    }

                  },
                  {
                    "name" : "Fade",
                    "duration" : 6,
                    "rightMedia" : 152,
                    "attributes" : {
                      "bypass" : false,
                      "reverse" : false,
                      "trivial" : false,
                      "useAudioPreRoll" : true,
                      "useVisualPreRoll" : true
                    }

                  },
                  {
                    "name" : "Fade",
                    "duration" : 6,
                    "leftMedia" : 152,
                    "attributes" : {
                      "bypass" : false,
                      "reverse" : false,
                      "trivial" : false,
                      "useAudioPreRoll" : true,
                      "useVisualPreRoll" : true
                    }

                  },
                  {
                    "name" : "Fade",
                    "duration" : 6,
                    "rightMedia" : 153,
                    "attributes" : {
                      "bypass" : false,
                      "reverse" : false,
                      "trivial" : false,
                      "useAudioPreRoll" : true,
                      "useVisualPreRoll" : true
                    }

                  },
                  {
                    "name" : "Fade",
                    "duration" : 6,
                    "leftMedia" : 153,
                    "attributes" : {
                      "bypass" : false,
                      "reverse" : false,
                      "trivial" : false,
                      "useAudioPreRoll" : true,
                      "useVisualPreRoll" : true
                    }

                  },
                  {
                    "name" : "Fade",
                    "duration" : 6,
                    "rightMedia" : 154,
                    "attributes" : {
                      "bypass" : false,
                      "reverse" : false,
                      "trivial" : false,
                      "useAudioPreRoll" : true,
                      "useVisualPreRoll" : true
                    }

                  },
                  {
                    "name" : "Fade",
                    "duration" : 6,
                    "leftMedia" : 154,
                    "attributes" : {
                      "bypass" : false,
                      "reverse" : false,
                      "trivial" : false,
                      "useAudioPreRoll" : true,
                      "useVisualPreRoll" : true
                    }

                  },
                  {
                    "name" : "Fade",
                    "duration" : 6,
                    "rightMedia" : 155,
                    "attributes" : {
                      "bypass" : false,
                      "reverse" : false,
                      "trivial" : false,
                      "useAudioPreRoll" : true,
                      "useVisualPreRoll" : true
                    }

                  },
                  {
                    "name" : "Fade",
                    "duration" : 6,
                    "leftMedia" : 155,
                    "attributes" : {
                      "bypass" : false,
                      "reverse" : false,
                      "trivial" : false,
                      "useAudioPreRoll" : true,
                      "useVisualPreRoll" : true
                    }

                  },
                  {
                    "name" : "Fade",
                    "duration" : 6,
                    "rightMedia" : 156,
                    "attributes" : {
                      "bypass" : false,
                      "reverse" : false,
                      "trivial" : false,
                      "useAudioPreRoll" : true,
                      "useVisualPreRoll" : true
                    }

                  },
                  {
                    "name" : "Fade",
                    "duration" : 6,
                    "leftMedia" : 156,
                    "attributes" : {
                      "bypass" : false,
                      "reverse" : false,
                      "trivial" : false,
                      "useAudioPreRoll" : true,
                      "useVisualPreRoll" : true
                    }

                  },
                  {
                    "name" : "Fade",
                    "duration" : 6,
                    "rightMedia" : 157,
                    "attributes" : {
                      "bypass" : false,
                      "reverse" : false,
                      "trivial" : false,
                      "useAudioPreRoll" : true,
                      "useVisualPreRoll" : true
                    }

                  },
                  {
                    "name" : "Fade",
                    "duration" : 6,
                    "leftMedia" : 157,
                    "attributes" : {
                      "bypass" : false,
                      "reverse" : false,
                      "trivial" : false,
                      "useAudioPreRoll" : true,
                      "useVisualPreRoll" : true
                    }

                  },
                  {
                    "name" : "Fade",
                    "duration" : 6,
                    "rightMedia" : 158,
                    "attributes" : {
                      "bypass" : false,
                      "reverse" : false,
                      "trivial" : false,
                      "useAudioPreRoll" : true,
                      "useVisualPreRoll" : true
                    }

                  },
                  {
                    "name" : "Fade",
                    "duration" : 6,
                    "leftMedia" : 158,
                    "attributes" : {
                      "bypass" : false,
                      "reverse" : false,
                      "trivial" : false,
                      "useAudioPreRoll" : true,
                      "useVisualPreRoll" : true
                    }

                  },
                  {
                    "name" : "Fade",
                    "duration" : 6,
                    "rightMedia" : 159,
                    "attributes" : {
                      "bypass" : false,
                      "reverse" : false,
                      "trivial" : false,
                      "useAudioPreRoll" : true,
                      "useVisualPreRoll" : true
                    }

                  },
                  {
                    "name" : "Fade",
                    "duration" : 6,
                    "leftMedia" : 159,
                    "attributes" : {
                      "bypass" : false,
                      "reverse" : false,
                      "trivial" : false,
                      "useAudioPreRoll" : true,
                      "useVisualPreRoll" : true
                    }

                  },
                  {
                    "name" : "Fade",
                    "duration" : 6,
                    "rightMedia" : 160,
                    "attributes" : {
                      "bypass" : false,
                      "reverse" : false,
                      "trivial" : false,
                      "useAudioPreRoll" : true,
                      "useVisualPreRoll" : true
                    }

                  },
                  {
                    "name" : "Fade",
                    "duration" : 6,
                    "leftMedia" : 160,
                    "attributes" : {
                      "bypass" : false,
                      "reverse" : false,
                      "trivial" : false,
                      "useAudioPreRoll" : true,
                      "useVisualPreRoll" : true
                    }

                  },
                  {
                    "name" : "Fade",
                    "duration" : 6,
                    "rightMedia" : 161,
                    "attributes" : {
                      "bypass" : false,
                      "reverse" : false,
                      "trivial" : false,
                      "useAudioPreRoll" : true,
                      "useVisualPreRoll" : true
                    }

                  },
                  {
                    "name" : "Fade",
                    "duration" : 6,
                    "leftMedia" : 161,
                    "attributes" : {
                      "bypass" : false,
                      "reverse" : false,
                      "trivial" : false,
                      "useAudioPreRoll" : true,
                      "useVisualPreRoll" : true
                    }

                  }
                ]
              },
              {
                "trackIndex" : 8,
                "medias" : [
                  {
                    "id" : 163,
                    "_type" : "IMFile",
                    "src" : 10,
                    "trackNumber" : 0,
                    "trimStartSum" : 0,
                    "attributes" : {
                      "ident" : "Pasted Image"
                    },
                    "parameters" : {
                      "translation0" : -276.0,
                      "translation1" : 79.0,
                      "sourceCrop0" : 0.0,
                      "sourceCrop1" : 0.0,
                      "sourceCrop2" : 0.0,
                      "sourceCrop3" : 0.0,
                      "geometryCrop0" : 0.0,
                      "geometryCrop1" : 0.0,
                      "geometryCrop2" : 0.0,
                      "geometryCrop3" : 0.0
                    },
                    "effects" : [

                    ],
                    "start" : 627,
                    "duration" : 21,
                    "mediaStart" : 0,
                    "mediaDuration" : 1,
                    "scalar" : 1,
                    "metadata" : {
                      "clipSpeedAttribute" : false,
                      "default-scale" : "1",
                      "effectApplied" : "none",
                      "lockAspectRatio" : true
                    },
                    "animationTracks" : {

                    }
                  },
                  {
                    "id" : 164,
                    "_type" : "IMFile",
                    "src" : 10,
                    "trackNumber" : 0,
                    "trimStartSum" : 0,
                    "attributes" : {
                      "ident" : "Pasted Image"
                    },
                    "parameters" : {
                      "translation0" : -276.0,
                      "translation1" : 79.0,
                      "sourceCrop0" : 0.0,
                      "sourceCrop1" : 0.0,
                      "sourceCrop2" : 0.0,
                      "sourceCrop3" : 0.0,
                      "geometryCrop0" : 0.0,
                      "geometryCrop1" : 0.0,
                      "geometryCrop2" : 0.0,
                      "geometryCrop3" : 0.0
                    },
                    "effects" : [

                    ],
                    "start" : 697,
                    "duration" : 21,
                    "mediaStart" : 0,
                    "mediaDuration" : 1,
                    "scalar" : 1,
                    "metadata" : {
                      "clipSpeedAttribute" : false,
                      "default-scale" : "1",
                      "effectApplied" : "none",
                      "lockAspectRatio" : true
                    },
                    "animationTracks" : {

                    }
                  },
                  {
                    "id" : 165,
                    "_type" : "IMFile",
                    "src" : 10,
                    "trackNumber" : 0,
                    "trimStartSum" : 0,
                    "attributes" : {
                      "ident" : "Pasted Image"
                    },
                    "parameters" : {
                      "translation0" : -276.0,
                      "translation1" : 79.0,
                      "sourceCrop0" : 0.0,
                      "sourceCrop1" : 0.0,
                      "sourceCrop2" : 0.0,
                      "sourceCrop3" : 0.0,
                      "geometryCrop0" : 0.0,
                      "geometryCrop1" : 0.0,
                      "geometryCrop2" : 0.0,
                      "geometryCrop3" : 0.0
                    },
                    "effects" : [

                    ],
                    "start" : 774,
                    "duration" : 21,
                    "mediaStart" : 0,
                    "mediaDuration" : 1,
                    "scalar" : 1,
                    "metadata" : {
                      "clipSpeedAttribute" : false,
                      "default-scale" : "1",
                      "effectApplied" : "none",
                      "lockAspectRatio" : true
                    },
                    "animationTracks" : {

                    }
                  },
                  {
                    "id" : 166,
                    "_type" : "IMFile",
                    "src" : 10,
                    "trackNumber" : 0,
                    "trimStartSum" : 0,
                    "attributes" : {
                      "ident" : "Pasted Image"
                    },
                    "parameters" : {
                      "translation0" : -276.0,
                      "translation1" : 79.0,
                      "sourceCrop0" : 0.0,
                      "sourceCrop1" : 0.0,
                      "sourceCrop2" : 0.0,
                      "sourceCrop3" : 0.0,
                      "geometryCrop0" : 0.0,
                      "geometryCrop1" : 0.0,
                      "geometryCrop2" : 0.0,
                      "geometryCrop3" : 0.0
                    },
                    "effects" : [

                    ],
                    "start" : 832,
                    "duration" : 21,
                    "mediaStart" : 0,
                    "mediaDuration" : 1,
                    "scalar" : 1,
                    "metadata" : {
                      "clipSpeedAttribute" : false,
                      "default-scale" : "1",
                      "effectApplied" : "none",
                      "lockAspectRatio" : true
                    },
                    "animationTracks" : {

                    }
                  },
                  {
                    "id" : 167,
                    "_type" : "IMFile",
                    "src" : 10,
                    "trackNumber" : 0,
                    "trimStartSum" : 0,
                    "attributes" : {
                      "ident" : "Pasted Image"
                    },
                    "parameters" : {
                      "translation0" : -276.0,
                      "translation1" : 79.0,
                      "sourceCrop0" : 0.0,
                      "sourceCrop1" : 0.0,
                      "sourceCrop2" : 0.0,
                      "sourceCrop3" : 0.0,
                      "geometryCrop0" : 0.0,
                      "geometryCrop1" : 0.0,
                      "geometryCrop2" : 0.0,
                      "geometryCrop3" : 0.0
                    },
                    "effects" : [

                    ],
                    "start" : 891,
                    "duration" : 21,
                    "mediaStart" : 0,
                    "mediaDuration" : 1,
                    "scalar" : 1,
                    "metadata" : {
                      "clipSpeedAttribute" : false,
                      "default-scale" : "1",
                      "effectApplied" : "none",
                      "lockAspectRatio" : true
                    },
                    "animationTracks" : {

                    }
                  },
                  {
                    "id" : 168,
                    "_type" : "IMFile",
                    "src" : 10,
                    "trackNumber" : 0,
                    "trimStartSum" : 0,
                    "attributes" : {
                      "ident" : "Pasted Image"
                    },
                    "parameters" : {
                      "translation0" : -276.0,
                      "translation1" : 79.0,
                      "sourceCrop0" : 0.0,
                      "sourceCrop1" : 0.0,
                      "sourceCrop2" : 0.0,
                      "sourceCrop3" : 0.0,
                      "geometryCrop0" : 0.0,
                      "geometryCrop1" : 0.0,
                      "geometryCrop2" : 0.0,
                      "geometryCrop3" : 0.0
                    },
                    "effects" : [

                    ],
                    "start" : 949,
                    "duration" : 21,
                    "mediaStart" : 0,
                    "mediaDuration" : 1,
                    "scalar" : 1,
                    "metadata" : {
                      "clipSpeedAttribute" : false,
                      "default-scale" : "1",
                      "effectApplied" : "none",
                      "lockAspectRatio" : true
                    },
                    "animationTracks" : {

                    }
                  },
                  {
                    "id" : 169,
                    "_type" : "IMFile",
                    "src" : 10,
                    "trackNumber" : 0,
                    "trimStartSum" : 0,
                    "attributes" : {
                      "ident" : "Pasted Image"
                    },
                    "parameters" : {
                      "translation0" : -276.0,
                      "translation1" : 79.0,
                      "sourceCrop0" : 0.0,
                      "sourceCrop1" : 0.0,
                      "sourceCrop2" : 0.0,
                      "sourceCrop3" : 0.0,
                      "geometryCrop0" : 0.0,
                      "geometryCrop1" : 0.0,
                      "geometryCrop2" : 0.0,
                      "geometryCrop3" : 0.0
                    },
                    "effects" : [

                    ],
                    "start" : 999,
                    "duration" : 21,
                    "mediaStart" : 0,
                    "mediaDuration" : 1,
                    "scalar" : 1,
                    "metadata" : {
                      "clipSpeedAttribute" : false,
                      "default-scale" : "1",
                      "effectApplied" : "none",
                      "lockAspectRatio" : true
                    },
                    "animationTracks" : {

                    }
                  },
                  {
                    "id" : 170,
                    "_type" : "IMFile",
                    "src" : 10,
                    "trackNumber" : 0,
                    "trimStartSum" : 0,
                    "attributes" : {
                      "ident" : "Pasted Image"
                    },
                    "parameters" : {
                      "translation0" : -276.0,
                      "translation1" : 79.0,
                      "sourceCrop0" : 0.0,
                      "sourceCrop1" : 0.0,
                      "sourceCrop2" : 0.0,
                      "sourceCrop3" : 0.0,
                      "geometryCrop0" : 0.0,
                      "geometryCrop1" : 0.0,
                      "geometryCrop2" : 0.0,
                      "geometryCrop3" : 0.0
                    },
                    "effects" : [

                    ],
                    "start" : 1058,
                    "duration" : 21,
                    "mediaStart" : 0,
                    "mediaDuration" : 1,
                    "scalar" : 1,
                    "metadata" : {
                      "clipSpeedAttribute" : false,
                      "default-scale" : "1",
                      "effectApplied" : "none",
                      "lockAspectRatio" : true
                    },
                    "animationTracks" : {

                    }
                  },
                  {
                    "id" : 171,
                    "_type" : "IMFile",
                    "src" : 10,
                    "trackNumber" : 0,
                    "trimStartSum" : 0,
                    "attributes" : {
                      "ident" : "Pasted Image"
                    },
                    "parameters" : {
                      "translation0" : -276.0,
                      "translation1" : 79.0,
                      "sourceCrop0" : 0.0,
                      "sourceCrop1" : 0.0,
                      "sourceCrop2" : 0.0,
                      "sourceCrop3" : 0.0,
                      "geometryCrop0" : 0.0,
                      "geometryCrop1" : 0.0,
                      "geometryCrop2" : 0.0,
                      "geometryCrop3" : 0.0
                    },
                    "effects" : [

                    ],
                    "start" : 1128,
                    "duration" : 21,
                    "mediaStart" : 0,
                    "mediaDuration" : 1,
                    "scalar" : 1,
                    "metadata" : {
                      "clipSpeedAttribute" : false,
                      "default-scale" : "1",
                      "effectApplied" : "none",
                      "lockAspectRatio" : true
                    },
                    "animationTracks" : {

                    }
                  },
                  {
                    "id" : 172,
                    "_type" : "IMFile",
                    "src" : 10,
                    "trackNumber" : 0,
                    "trimStartSum" : 0,
                    "attributes" : {
                      "ident" : "Pasted Image"
                    },
                    "parameters" : {
                      "translation0" : -276.0,
                      "translation1" : 79.0,
                      "sourceCrop0" : 0.0,
                      "sourceCrop1" : 0.0,
                      "sourceCrop2" : 0.0,
                      "sourceCrop3" : 0.0,
                      "geometryCrop0" : 0.0,
                      "geometryCrop1" : 0.0,
                      "geometryCrop2" : 0.0,
                      "geometryCrop3" : 0.0
                    },
                    "effects" : [

                    ],
                    "start" : 1169,
                    "duration" : 21,
                    "mediaStart" : 0,
                    "mediaDuration" : 1,
                    "scalar" : 1,
                    "metadata" : {
                      "clipSpeedAttribute" : false,
                      "default-scale" : "1",
                      "effectApplied" : "none",
                      "lockAspectRatio" : true
                    },
                    "animationTracks" : {

                    }
                  },
                  {
                    "id" : 173,
                    "_type" : "IMFile",
                    "src" : 10,
                    "trackNumber" : 0,
                    "trimStartSum" : 0,
                    "attributes" : {
                      "ident" : "Pasted Image"
                    },
                    "parameters" : {
                      "translation0" : -276.0,
                      "translation1" : 79.0,
                      "sourceCrop0" : 0.0,
                      "sourceCrop1" : 0.0,
                      "sourceCrop2" : 0.0,
                      "sourceCrop3" : 0.0,
                      "geometryCrop0" : 0.0,
                      "geometryCrop1" : 0.0,
                      "geometryCrop2" : 0.0,
                      "geometryCrop3" : 0.0
                    },
                    "effects" : [

                    ],
                    "start" : 1228,
                    "duration" : 21,
                    "mediaStart" : 0,
                    "mediaDuration" : 1,
                    "scalar" : 1,
                    "metadata" : {
                      "clipSpeedAttribute" : false,
                      "default-scale" : "1",
                      "effectApplied" : "none",
                      "lockAspectRatio" : true
                    },
                    "animationTracks" : {

                    }
                  },
                  {
                    "id" : 174,
                    "_type" : "IMFile",
                    "src" : 32,
                    "trackNumber" : 0,
                    "trimStartSum" : -4,
                    "attributes" : {
                      "ident" : "Pasted Image"
                    },
                    "parameters" : {
                      "translation0" : {
                        "type" : "double",
                        "defaultValue" : -304.0,
                        "keyframes" : [
                          {
                            "endTime" : 1073,
                            "time" : 1050,
                            "value" : -193.0,
                            "interp" : "linr",
                            "duration" : 23
                          },
                          {
                            "endTime" : 1154,
                            "time" : 1097,
                            "value" : 131.0,
                            "interp" : "linr",
                            "duration" : 57
                          }
                        ]
                      },
                      "translation1" : {
                        "type" : "double",
                        "defaultValue" : -165.0,
                        "keyframes" : [
                          {
                            "endTime" : 1154,
                            "time" : 1097,
                            "value" : -127.547722298423,
                            "interp" : "linr",
                            "duration" : 57
                          }
                        ]
                      },
                      "scale0" : {
                        "type" : "double",
                        "defaultValue" : 1.0,
                        "keyframes" : [
                          {
                            "endTime" : 1154,
                            "time" : 1097,
                            "value" : 0.475795371640385,
                            "interp" : "linr",
                            "duration" : 57
                          }
                        ]
                      },
                      "scale1" : {
                        "type" : "double",
                        "defaultValue" : 1.0,
                        "keyframes" : [
                          {
                            "endTime" : 1154,
                            "time" : 1097,
                            "value" : 0.475795371640385,
                            "interp" : "linr",
                            "duration" : 57
                          }
                        ]
                      },
                      "sourceCrop0" : 0.0,
                      "sourceCrop1" : 0.0,
                      "sourceCrop2" : 0.0,
                      "sourceCrop3" : 0.0,
                      "geometryCrop0" : 0.0,
                      "geometryCrop1" : 0.0,
                      "geometryCrop2" : 0.0,
                      "geometryCrop3" : 0.0
                    },
                    "effects" : [

                    ],
                    "start" : 2668,
                    "duration" : 1161,
                    "mediaStart" : 0,
                    "mediaDuration" : 1,
                    "scalar" : 1,
                    "metadata" : {
                      "clipSpeedAttribute" : false,
                      "default-scale" : "1",
                      "effectApplied" : "none",
                      "lockAspectRatio" : true
                    },
                    "animationTracks" : {
                      "visual" : [
                        {
                          "endTime" : 1073,
                          "duration" : 23,
                          "range" : [ 1050, 23],
                          "interp" : "linr"
                        },
                        {
                          "endTime" : 1154,
                          "duration" : 57,
                          "range" : [ 1097, 57],
                          "interp" : "linr"
                        }
                      ]
                    }
                  }
                ],
                "transitions" : [
                  {
                    "name" : "Fade",
                    "duration" : 6,
                    "rightMedia" : 163,
                    "attributes" : {
                      "bypass" : false,
                      "reverse" : false,
                      "trivial" : false,
                      "useAudioPreRoll" : true,
                      "useVisualPreRoll" : true
                    }

                  },
                  {
                    "name" : "Fade",
                    "duration" : 6,
                    "leftMedia" : 163,
                    "attributes" : {
                      "bypass" : false,
                      "reverse" : false,
                      "trivial" : false,
                      "useAudioPreRoll" : true,
                      "useVisualPreRoll" : true
                    }

                  },
                  {
                    "name" : "Fade",
                    "duration" : 6,
                    "rightMedia" : 164,
                    "attributes" : {
                      "bypass" : false,
                      "reverse" : false,
                      "trivial" : false,
                      "useAudioPreRoll" : true,
                      "useVisualPreRoll" : true
                    }

                  },
                  {
                    "name" : "Fade",
                    "duration" : 6,
                    "leftMedia" : 164,
                    "attributes" : {
                      "bypass" : false,
                      "reverse" : false,
                      "trivial" : false,
                      "useAudioPreRoll" : true,
                      "useVisualPreRoll" : true
                    }

                  },
                  {
                    "name" : "Fade",
                    "duration" : 6,
                    "rightMedia" : 165,
                    "attributes" : {
                      "bypass" : false,
                      "reverse" : false,
                      "trivial" : false,
                      "useAudioPreRoll" : true,
                      "useVisualPreRoll" : true
                    }

                  },
                  {
                    "name" : "Fade",
                    "duration" : 6,
                    "leftMedia" : 165,
                    "attributes" : {
                      "bypass" : false,
                      "reverse" : false,
                      "trivial" : false,
                      "useAudioPreRoll" : true,
                      "useVisualPreRoll" : true
                    }

                  },
                  {
                    "name" : "Fade",
                    "duration" : 6,
                    "rightMedia" : 166,
                    "attributes" : {
                      "bypass" : false,
                      "reverse" : false,
                      "trivial" : false,
                      "useAudioPreRoll" : true,
                      "useVisualPreRoll" : true
                    }

                  },
                  {
                    "name" : "Fade",
                    "duration" : 6,
                    "leftMedia" : 166,
                    "attributes" : {
                      "bypass" : false,
                      "reverse" : false,
                      "trivial" : false,
                      "useAudioPreRoll" : true,
                      "useVisualPreRoll" : true
                    }

                  },
                  {
                    "name" : "Fade",
                    "duration" : 6,
                    "rightMedia" : 167,
                    "attributes" : {
                      "bypass" : false,
                      "reverse" : false,
                      "trivial" : false,
                      "useAudioPreRoll" : true,
                      "useVisualPreRoll" : true
                    }

                  },
                  {
                    "name" : "Fade",
                    "duration" : 6,
                    "leftMedia" : 167,
                    "attributes" : {
                      "bypass" : false,
                      "reverse" : false,
                      "trivial" : false,
                      "useAudioPreRoll" : true,
                      "useVisualPreRoll" : true
                    }

                  },
                  {
                    "name" : "Fade",
                    "duration" : 6,
                    "rightMedia" : 168,
                    "attributes" : {
                      "bypass" : false,
                      "reverse" : false,
                      "trivial" : false,
                      "useAudioPreRoll" : true,
                      "useVisualPreRoll" : true
                    }

                  },
                  {
                    "name" : "Fade",
                    "duration" : 6,
                    "leftMedia" : 168,
                    "attributes" : {
                      "bypass" : false,
                      "reverse" : false,
                      "trivial" : false,
                      "useAudioPreRoll" : true,
                      "useVisualPreRoll" : true
                    }

                  },
                  {
                    "name" : "Fade",
                    "duration" : 6,
                    "rightMedia" : 169,
                    "attributes" : {
                      "bypass" : false,
                      "reverse" : false,
                      "trivial" : false,
                      "useAudioPreRoll" : true,
                      "useVisualPreRoll" : true
                    }

                  },
                  {
                    "name" : "Fade",
                    "duration" : 6,
                    "leftMedia" : 169,
                    "attributes" : {
                      "bypass" : false,
                      "reverse" : false,
                      "trivial" : false,
                      "useAudioPreRoll" : true,
                      "useVisualPreRoll" : true
                    }

                  },
                  {
                    "name" : "Fade",
                    "duration" : 6,
                    "rightMedia" : 170,
                    "attributes" : {
                      "bypass" : false,
                      "reverse" : false,
                      "trivial" : false,
                      "useAudioPreRoll" : true,
                      "useVisualPreRoll" : true
                    }

                  },
                  {
                    "name" : "Fade",
                    "duration" : 6,
                    "leftMedia" : 170,
                    "attributes" : {
                      "bypass" : false,
                      "reverse" : false,
                      "trivial" : false,
                      "useAudioPreRoll" : true,
                      "useVisualPreRoll" : true
                    }

                  },
                  {
                    "name" : "Fade",
                    "duration" : 6,
                    "rightMedia" : 171,
                    "attributes" : {
                      "bypass" : false,
                      "reverse" : false,
                      "trivial" : false,
                      "useAudioPreRoll" : true,
                      "useVisualPreRoll" : true
                    }

                  },
                  {
                    "name" : "Fade",
                    "duration" : 6,
                    "leftMedia" : 171,
                    "attributes" : {
                      "bypass" : false,
                      "reverse" : false,
                      "trivial" : false,
                      "useAudioPreRoll" : true,
                      "useVisualPreRoll" : true
                    }

                  },
                  {
                    "name" : "Fade",
                    "duration" : 6,
                    "rightMedia" : 172,
                    "attributes" : {
                      "bypass" : false,
                      "reverse" : false,
                      "trivial" : false,
                      "useAudioPreRoll" : true,
                      "useVisualPreRoll" : true
                    }

                  },
                  {
                    "name" : "Fade",
                    "duration" : 6,
                    "leftMedia" : 172,
                    "attributes" : {
                      "bypass" : false,
                      "reverse" : false,
                      "trivial" : false,
                      "useAudioPreRoll" : true,
                      "useVisualPreRoll" : true
                    }

                  },
                  {
                    "name" : "Fade",
                    "duration" : 6,
                    "rightMedia" : 173,
                    "attributes" : {
                      "bypass" : false,
                      "reverse" : false,
                      "trivial" : false,
                      "useAudioPreRoll" : true,
                      "useVisualPreRoll" : true
                    }

                  },
                  {
                    "name" : "Fade",
                    "duration" : 6,
                    "leftMedia" : 173,
                    "attributes" : {
                      "bypass" : false,
                      "reverse" : false,
                      "trivial" : false,
                      "useAudioPreRoll" : true,
                      "useVisualPreRoll" : true
                    }

                  }
                ]
              },
              {
                "trackIndex" : 9,
                "medias" : [
                  {
                    "id" : 175,
                    "_type" : "IMFile",
                    "src" : 11,
                    "trackNumber" : 0,
                    "trimStartSum" : 0,
                    "attributes" : {
                      "ident" : "Pasted Image"
                    },
                    "parameters" : {
                      "translation0" : -112.0,
                      "translation1" : 6.0,
                      "sourceCrop0" : 0.0,
                      "sourceCrop1" : 0.0,
                      "sourceCrop2" : 0.0,
                      "sourceCrop3" : 0.0,
                      "geometryCrop0" : 0.0,
                      "geometryCrop1" : 0.0,
                      "geometryCrop2" : 0.0,
                      "geometryCrop3" : 0.0
                    },
                    "effects" : [

                    ],
                    "start" : 621,
                    "duration" : 21,
                    "mediaStart" : 0,
                    "mediaDuration" : 1,
                    "scalar" : 1,
                    "metadata" : {
                      "clipSpeedAttribute" : false,
                      "default-scale" : "1",
                      "effectApplied" : "none",
                      "lockAspectRatio" : true
                    },
                    "animationTracks" : {

                    }
                  },
                  {
                    "id" : 176,
                    "_type" : "IMFile",
                    "src" : 11,
                    "trackNumber" : 0,
                    "trimStartSum" : 0,
                    "attributes" : {
                      "ident" : "Pasted Image"
                    },
                    "parameters" : {
                      "translation0" : -112.0,
                      "translation1" : 6.0,
                      "sourceCrop0" : 0.0,
                      "sourceCrop1" : 0.0,
                      "sourceCrop2" : 0.0,
                      "sourceCrop3" : 0.0,
                      "geometryCrop0" : 0.0,
                      "geometryCrop1" : 0.0,
                      "geometryCrop2" : 0.0,
                      "geometryCrop3" : 0.0
                    },
                    "effects" : [

                    ],
                    "start" : 676,
                    "duration" : 21,
                    "mediaStart" : 0,
                    "mediaDuration" : 1,
                    "scalar" : 1,
                    "metadata" : {
                      "clipSpeedAttribute" : false,
                      "default-scale" : "1",
                      "effectApplied" : "none",
                      "lockAspectRatio" : true
                    },
                    "animationTracks" : {

                    }
                  },
                  {
                    "id" : 177,
                    "_type" : "IMFile",
                    "src" : 11,
                    "trackNumber" : 0,
                    "trimStartSum" : 0,
                    "attributes" : {
                      "ident" : "Pasted Image"
                    },
                    "parameters" : {
                      "translation0" : -112.0,
                      "translation1" : 6.0,
                      "sourceCrop0" : 0.0,
                      "sourceCrop1" : 0.0,
                      "sourceCrop2" : 0.0,
                      "sourceCrop3" : 0.0,
                      "geometryCrop0" : 0.0,
                      "geometryCrop1" : 0.0,
                      "geometryCrop2" : 0.0,
                      "geometryCrop3" : 0.0
                    },
                    "effects" : [

                    ],
                    "start" : 710,
                    "duration" : 21,
                    "mediaStart" : 0,
                    "mediaDuration" : 1,
                    "scalar" : 1,
                    "metadata" : {
                      "clipSpeedAttribute" : false,
                      "default-scale" : "1",
                      "effectApplied" : "none",
                      "lockAspectRatio" : true
                    },
                    "animationTracks" : {

                    }
                  },
                  {
                    "id" : 178,
                    "_type" : "IMFile",
                    "src" : 11,
                    "trackNumber" : 0,
                    "trimStartSum" : 0,
                    "attributes" : {
                      "ident" : "Pasted Image"
                    },
                    "parameters" : {
                      "translation0" : -112.0,
                      "translation1" : 6.0,
                      "sourceCrop0" : 0.0,
                      "sourceCrop1" : 0.0,
                      "sourceCrop2" : 0.0,
                      "sourceCrop3" : 0.0,
                      "geometryCrop0" : 0.0,
                      "geometryCrop1" : 0.0,
                      "geometryCrop2" : 0.0,
                      "geometryCrop3" : 0.0
                    },
                    "effects" : [

                    ],
                    "start" : 756,
                    "duration" : 21,
                    "mediaStart" : 0,
                    "mediaDuration" : 1,
                    "scalar" : 1,
                    "metadata" : {
                      "clipSpeedAttribute" : false,
                      "default-scale" : "1",
                      "effectApplied" : "none",
                      "lockAspectRatio" : true
                    },
                    "animationTracks" : {

                    }
                  },
                  {
                    "id" : 179,
                    "_type" : "IMFile",
                    "src" : 11,
                    "trackNumber" : 0,
                    "trimStartSum" : 0,
                    "attributes" : {
                      "ident" : "Pasted Image"
                    },
                    "parameters" : {
                      "translation0" : -112.0,
                      "translation1" : 6.0,
                      "sourceCrop0" : 0.0,
                      "sourceCrop1" : 0.0,
                      "sourceCrop2" : 0.0,
                      "sourceCrop3" : 0.0,
                      "geometryCrop0" : 0.0,
                      "geometryCrop1" : 0.0,
                      "geometryCrop2" : 0.0,
                      "geometryCrop3" : 0.0
                    },
                    "effects" : [

                    ],
                    "start" : 799,
                    "duration" : 21,
                    "mediaStart" : 0,
                    "mediaDuration" : 1,
                    "scalar" : 1,
                    "metadata" : {
                      "clipSpeedAttribute" : false,
                      "default-scale" : "1",
                      "effectApplied" : "none",
                      "lockAspectRatio" : true
                    },
                    "animationTracks" : {

                    }
                  },
                  {
                    "id" : 180,
                    "_type" : "IMFile",
                    "src" : 11,
                    "trackNumber" : 0,
                    "trimStartSum" : 0,
                    "attributes" : {
                      "ident" : "Pasted Image"
                    },
                    "parameters" : {
                      "translation0" : -112.0,
                      "translation1" : 6.0,
                      "sourceCrop0" : 0.0,
                      "sourceCrop1" : 0.0,
                      "sourceCrop2" : 0.0,
                      "sourceCrop3" : 0.0,
                      "geometryCrop0" : 0.0,
                      "geometryCrop1" : 0.0,
                      "geometryCrop2" : 0.0,
                      "geometryCrop3" : 0.0
                    },
                    "effects" : [

                    ],
                    "start" : 845,
                    "duration" : 21,
                    "mediaStart" : 0,
                    "mediaDuration" : 1,
                    "scalar" : 1,
                    "metadata" : {
                      "clipSpeedAttribute" : false,
                      "default-scale" : "1",
                      "effectApplied" : "none",
                      "lockAspectRatio" : true
                    },
                    "animationTracks" : {

                    }
                  },
                  {
                    "id" : 181,
                    "_type" : "IMFile",
                    "src" : 11,
                    "trackNumber" : 0,
                    "trimStartSum" : 0,
                    "attributes" : {
                      "ident" : "Pasted Image"
                    },
                    "parameters" : {
                      "translation0" : -112.0,
                      "translation1" : 6.0,
                      "sourceCrop0" : 0.0,
                      "sourceCrop1" : 0.0,
                      "sourceCrop2" : 0.0,
                      "sourceCrop3" : 0.0,
                      "geometryCrop0" : 0.0,
                      "geometryCrop1" : 0.0,
                      "geometryCrop2" : 0.0,
                      "geometryCrop3" : 0.0
                    },
                    "effects" : [

                    ],
                    "start" : 885,
                    "duration" : 21,
                    "mediaStart" : 0,
                    "mediaDuration" : 1,
                    "scalar" : 1,
                    "metadata" : {
                      "clipSpeedAttribute" : false,
                      "default-scale" : "1",
                      "effectApplied" : "none",
                      "lockAspectRatio" : true
                    },
                    "animationTracks" : {

                    }
                  },
                  {
                    "id" : 182,
                    "_type" : "IMFile",
                    "src" : 11,
                    "trackNumber" : 0,
                    "trimStartSum" : 0,
                    "attributes" : {
                      "ident" : "Pasted Image"
                    },
                    "parameters" : {
                      "translation0" : -112.0,
                      "translation1" : 6.0,
                      "sourceCrop0" : 0.0,
                      "sourceCrop1" : 0.0,
                      "sourceCrop2" : 0.0,
                      "sourceCrop3" : 0.0,
                      "geometryCrop0" : 0.0,
                      "geometryCrop1" : 0.0,
                      "geometryCrop2" : 0.0,
                      "geometryCrop3" : 0.0
                    },
                    "effects" : [

                    ],
                    "start" : 914,
                    "duration" : 21,
                    "mediaStart" : 0,
                    "mediaDuration" : 1,
                    "scalar" : 1,
                    "metadata" : {
                      "clipSpeedAttribute" : false,
                      "default-scale" : "1",
                      "effectApplied" : "none",
                      "lockAspectRatio" : true
                    },
                    "animationTracks" : {

                    }
                  },
                  {
                    "id" : 183,
                    "_type" : "IMFile",
                    "src" : 11,
                    "trackNumber" : 0,
                    "trimStartSum" : 0,
                    "attributes" : {
                      "ident" : "Pasted Image"
                    },
                    "parameters" : {
                      "translation0" : -112.0,
                      "translation1" : 6.0,
                      "sourceCrop0" : 0.0,
                      "sourceCrop1" : 0.0,
                      "sourceCrop2" : 0.0,
                      "sourceCrop3" : 0.0,
                      "geometryCrop0" : 0.0,
                      "geometryCrop1" : 0.0,
                      "geometryCrop2" : 0.0,
                      "geometryCrop3" : 0.0
                    },
                    "effects" : [

                    ],
                    "start" : 974,
                    "duration" : 21,
                    "mediaStart" : 0,
                    "mediaDuration" : 1,
                    "scalar" : 1,
                    "metadata" : {
                      "clipSpeedAttribute" : false,
                      "default-scale" : "1",
                      "effectApplied" : "none",
                      "lockAspectRatio" : true
                    },
                    "animationTracks" : {

                    }
                  },
                  {
                    "id" : 184,
                    "_type" : "IMFile",
                    "src" : 11,
                    "trackNumber" : 0,
                    "trimStartSum" : 0,
                    "attributes" : {
                      "ident" : "Pasted Image"
                    },
                    "parameters" : {
                      "translation0" : -112.0,
                      "translation1" : 6.0,
                      "sourceCrop0" : 0.0,
                      "sourceCrop1" : 0.0,
                      "sourceCrop2" : 0.0,
                      "sourceCrop3" : 0.0,
                      "geometryCrop0" : 0.0,
                      "geometryCrop1" : 0.0,
                      "geometryCrop2" : 0.0,
                      "geometryCrop3" : 0.0
                    },
                    "effects" : [

                    ],
                    "start" : 1012,
                    "duration" : 21,
                    "mediaStart" : 0,
                    "mediaDuration" : 1,
                    "scalar" : 1,
                    "metadata" : {
                      "clipSpeedAttribute" : false,
                      "default-scale" : "1",
                      "effectApplied" : "none",
                      "lockAspectRatio" : true
                    },
                    "animationTracks" : {

                    }
                  },
                  {
                    "id" : 185,
                    "_type" : "IMFile",
                    "src" : 11,
                    "trackNumber" : 0,
                    "trimStartSum" : 0,
                    "attributes" : {
                      "ident" : "Pasted Image"
                    },
                    "parameters" : {
                      "translation0" : -112.0,
                      "translation1" : 6.0,
                      "sourceCrop0" : 0.0,
                      "sourceCrop1" : 0.0,
                      "sourceCrop2" : 0.0,
                      "sourceCrop3" : 0.0,
                      "geometryCrop0" : 0.0,
                      "geometryCrop1" : 0.0,
                      "geometryCrop2" : 0.0,
                      "geometryCrop3" : 0.0
                    },
                    "effects" : [

                    ],
                    "start" : 1052,
                    "duration" : 21,
                    "mediaStart" : 0,
                    "mediaDuration" : 1,
                    "scalar" : 1,
                    "metadata" : {
                      "clipSpeedAttribute" : false,
                      "default-scale" : "1",
                      "effectApplied" : "none",
                      "lockAspectRatio" : true
                    },
                    "animationTracks" : {

                    }
                  },
                  {
                    "id" : 186,
                    "_type" : "IMFile",
                    "src" : 11,
                    "trackNumber" : 0,
                    "trimStartSum" : 0,
                    "attributes" : {
                      "ident" : "Pasted Image"
                    },
                    "parameters" : {
                      "translation0" : -112.0,
                      "translation1" : 6.0,
                      "sourceCrop0" : 0.0,
                      "sourceCrop1" : 0.0,
                      "sourceCrop2" : 0.0,
                      "sourceCrop3" : 0.0,
                      "geometryCrop0" : 0.0,
                      "geometryCrop1" : 0.0,
                      "geometryCrop2" : 0.0,
                      "geometryCrop3" : 0.0
                    },
                    "effects" : [

                    ],
                    "start" : 1095,
                    "duration" : 21,
                    "mediaStart" : 0,
                    "mediaDuration" : 1,
                    "scalar" : 1,
                    "metadata" : {
                      "clipSpeedAttribute" : false,
                      "default-scale" : "1",
                      "effectApplied" : "none",
                      "lockAspectRatio" : true
                    },
                    "animationTracks" : {

                    }
                  },
                  {
                    "id" : 187,
                    "_type" : "IMFile",
                    "src" : 11,
                    "trackNumber" : 0,
                    "trimStartSum" : 0,
                    "attributes" : {
                      "ident" : "Pasted Image"
                    },
                    "parameters" : {
                      "translation0" : -112.0,
                      "translation1" : 6.0,
                      "sourceCrop0" : 0.0,
                      "sourceCrop1" : 0.0,
                      "sourceCrop2" : 0.0,
                      "sourceCrop3" : 0.0,
                      "geometryCrop0" : 0.0,
                      "geometryCrop1" : 0.0,
                      "geometryCrop2" : 0.0,
                      "geometryCrop3" : 0.0
                    },
                    "effects" : [

                    ],
                    "start" : 1141,
                    "duration" : 21,
                    "mediaStart" : 0,
                    "mediaDuration" : 1,
                    "scalar" : 1,
                    "metadata" : {
                      "clipSpeedAttribute" : false,
                      "default-scale" : "1",
                      "effectApplied" : "none",
                      "lockAspectRatio" : true
                    },
                    "animationTracks" : {

                    }
                  },
                  {
                    "id" : 188,
                    "_type" : "IMFile",
                    "src" : 11,
                    "trackNumber" : 0,
                    "trimStartSum" : 0,
                    "attributes" : {
                      "ident" : "Pasted Image"
                    },
                    "parameters" : {
                      "translation0" : -112.0,
                      "translation1" : 6.0,
                      "sourceCrop0" : 0.0,
                      "sourceCrop1" : 0.0,
                      "sourceCrop2" : 0.0,
                      "sourceCrop3" : 0.0,
                      "geometryCrop0" : 0.0,
                      "geometryCrop1" : 0.0,
                      "geometryCrop2" : 0.0,
                      "geometryCrop3" : 0.0
                    },
                    "effects" : [

                    ],
                    "start" : 1182,
                    "duration" : 21,
                    "mediaStart" : 0,
                    "mediaDuration" : 1,
                    "scalar" : 1,
                    "metadata" : {
                      "clipSpeedAttribute" : false,
                      "default-scale" : "1",
                      "effectApplied" : "none",
                      "lockAspectRatio" : true
                    },
                    "animationTracks" : {

                    }
                  },
                  {
                    "id" : 189,
                    "_type" : "IMFile",
                    "src" : 11,
                    "trackNumber" : 0,
                    "trimStartSum" : 0,
                    "attributes" : {
                      "ident" : "Pasted Image"
                    },
                    "parameters" : {
                      "translation0" : -112.0,
                      "translation1" : 6.0,
                      "sourceCrop0" : 0.0,
                      "sourceCrop1" : 0.0,
                      "sourceCrop2" : 0.0,
                      "sourceCrop3" : 0.0,
                      "geometryCrop0" : 0.0,
                      "geometryCrop1" : 0.0,
                      "geometryCrop2" : 0.0,
                      "geometryCrop3" : 0.0
                    },
                    "effects" : [

                    ],
                    "start" : 1222,
                    "duration" : 21,
                    "mediaStart" : 0,
                    "mediaDuration" : 1,
                    "scalar" : 1,
                    "metadata" : {
                      "clipSpeedAttribute" : false,
                      "default-scale" : "1",
                      "effectApplied" : "none",
                      "lockAspectRatio" : true
                    },
                    "animationTracks" : {

                    }
                  },
                  {
                    "id" : 190,
                    "_type" : "IMFile",
                    "src" : 11,
                    "trackNumber" : 0,
                    "trimStartSum" : 0,
                    "attributes" : {
                      "ident" : "Pasted Image"
                    },
                    "parameters" : {
                      "translation0" : -112.0,
                      "translation1" : 6.0,
                      "sourceCrop0" : 0.0,
                      "sourceCrop1" : 0.0,
                      "sourceCrop2" : 0.0,
                      "sourceCrop3" : 0.0,
                      "geometryCrop0" : 0.0,
                      "geometryCrop1" : 0.0,
                      "geometryCrop2" : 0.0,
                      "geometryCrop3" : 0.0
                    },
                    "effects" : [

                    ],
                    "start" : 1265,
                    "duration" : 21,
                    "mediaStart" : 0,
                    "mediaDuration" : 1,
                    "scalar" : 1,
                    "metadata" : {
                      "clipSpeedAttribute" : false,
                      "default-scale" : "1",
                      "effectApplied" : "none",
                      "lockAspectRatio" : true
                    },
                    "animationTracks" : {

                    }
                  }
                ],
                "transitions" : [
                  {
                    "name" : "Fade",
                    "duration" : 6,
                    "rightMedia" : 175,
                    "attributes" : {
                      "bypass" : false,
                      "reverse" : false,
                      "trivial" : false,
                      "useAudioPreRoll" : true,
                      "useVisualPreRoll" : true
                    }

                  },
                  {
                    "name" : "Fade",
                    "duration" : 8,
                    "leftMedia" : 175,
                    "attributes" : {
                      "bypass" : false,
                      "reverse" : false,
                      "trivial" : false,
                      "useAudioPreRoll" : true,
                      "useVisualPreRoll" : true
                    }

                  },
                  {
                    "name" : "Fade",
                    "duration" : 6,
                    "rightMedia" : 176,
                    "attributes" : {
                      "bypass" : false,
                      "reverse" : false,
                      "trivial" : false,
                      "useAudioPreRoll" : true,
                      "useVisualPreRoll" : true
                    }

                  },
                  {
                    "name" : "Fade",
                    "duration" : 8,
                    "leftMedia" : 176,
                    "attributes" : {
                      "bypass" : false,
                      "reverse" : false,
                      "trivial" : false,
                      "useAudioPreRoll" : true,
                      "useVisualPreRoll" : true
                    }

                  },
                  {
                    "name" : "Fade",
                    "duration" : 6,
                    "rightMedia" : 177,
                    "attributes" : {
                      "bypass" : false,
                      "reverse" : false,
                      "trivial" : false,
                      "useAudioPreRoll" : true,
                      "useVisualPreRoll" : true
                    }

                  },
                  {
                    "name" : "Fade",
                    "duration" : 8,
                    "leftMedia" : 177,
                    "attributes" : {
                      "bypass" : false,
                      "reverse" : false,
                      "trivial" : false,
                      "useAudioPreRoll" : true,
                      "useVisualPreRoll" : true
                    }

                  },
                  {
                    "name" : "Fade",
                    "duration" : 6,
                    "rightMedia" : 178,
                    "attributes" : {
                      "bypass" : false,
                      "reverse" : false,
                      "trivial" : false,
                      "useAudioPreRoll" : true,
                      "useVisualPreRoll" : true
                    }

                  },
                  {
                    "name" : "Fade",
                    "duration" : 8,
                    "leftMedia" : 178,
                    "attributes" : {
                      "bypass" : false,
                      "reverse" : false,
                      "trivial" : false,
                      "useAudioPreRoll" : true,
                      "useVisualPreRoll" : true
                    }

                  },
                  {
                    "name" : "Fade",
                    "duration" : 6,
                    "rightMedia" : 179,
                    "attributes" : {
                      "bypass" : false,
                      "reverse" : false,
                      "trivial" : false,
                      "useAudioPreRoll" : true,
                      "useVisualPreRoll" : true
                    }

                  },
                  {
                    "name" : "Fade",
                    "duration" : 8,
                    "leftMedia" : 179,
                    "attributes" : {
                      "bypass" : false,
                      "reverse" : false,
                      "trivial" : false,
                      "useAudioPreRoll" : true,
                      "useVisualPreRoll" : true
                    }

                  },
                  {
                    "name" : "Fade",
                    "duration" : 6,
                    "rightMedia" : 180,
                    "attributes" : {
                      "bypass" : false,
                      "reverse" : false,
                      "trivial" : false,
                      "useAudioPreRoll" : true,
                      "useVisualPreRoll" : true
                    }

                  },
                  {
                    "name" : "Fade",
                    "duration" : 8,
                    "leftMedia" : 180,
                    "attributes" : {
                      "bypass" : false,
                      "reverse" : false,
                      "trivial" : false,
                      "useAudioPreRoll" : true,
                      "useVisualPreRoll" : true
                    }

                  },
                  {
                    "name" : "Fade",
                    "duration" : 6,
                    "rightMedia" : 181,
                    "attributes" : {
                      "bypass" : false,
                      "reverse" : false,
                      "trivial" : false,
                      "useAudioPreRoll" : true,
                      "useVisualPreRoll" : true
                    }

                  },
                  {
                    "name" : "Fade",
                    "duration" : 8,
                    "leftMedia" : 181,
                    "attributes" : {
                      "bypass" : false,
                      "reverse" : false,
                      "trivial" : false,
                      "useAudioPreRoll" : true,
                      "useVisualPreRoll" : true
                    }

                  },
                  {
                    "name" : "Fade",
                    "duration" : 6,
                    "rightMedia" : 182,
                    "attributes" : {
                      "bypass" : false,
                      "reverse" : false,
                      "trivial" : false,
                      "useAudioPreRoll" : true,
                      "useVisualPreRoll" : true
                    }

                  },
                  {
                    "name" : "Fade",
                    "duration" : 8,
                    "leftMedia" : 182,
                    "attributes" : {
                      "bypass" : false,
                      "reverse" : false,
                      "trivial" : false,
                      "useAudioPreRoll" : true,
                      "useVisualPreRoll" : true
                    }

                  },
                  {
                    "name" : "Fade",
                    "duration" : 6,
                    "rightMedia" : 183,
                    "attributes" : {
                      "bypass" : false,
                      "reverse" : false,
                      "trivial" : false,
                      "useAudioPreRoll" : true,
                      "useVisualPreRoll" : true
                    }

                  },
                  {
                    "name" : "Fade",
                    "duration" : 8,
                    "leftMedia" : 183,
                    "attributes" : {
                      "bypass" : false,
                      "reverse" : false,
                      "trivial" : false,
                      "useAudioPreRoll" : true,
                      "useVisualPreRoll" : true
                    }

                  },
                  {
                    "name" : "Fade",
                    "duration" : 6,
                    "rightMedia" : 184,
                    "attributes" : {
                      "bypass" : false,
                      "reverse" : false,
                      "trivial" : false,
                      "useAudioPreRoll" : true,
                      "useVisualPreRoll" : true
                    }

                  },
                  {
                    "name" : "Fade",
                    "duration" : 8,
                    "leftMedia" : 184,
                    "attributes" : {
                      "bypass" : false,
                      "reverse" : false,
                      "trivial" : false,
                      "useAudioPreRoll" : true,
                      "useVisualPreRoll" : true
                    }

                  },
                  {
                    "name" : "Fade",
                    "duration" : 6,
                    "rightMedia" : 185,
                    "attributes" : {
                      "bypass" : false,
                      "reverse" : false,
                      "trivial" : false,
                      "useAudioPreRoll" : true,
                      "useVisualPreRoll" : true
                    }

                  },
                  {
                    "name" : "Fade",
                    "duration" : 8,
                    "leftMedia" : 185,
                    "attributes" : {
                      "bypass" : false,
                      "reverse" : false,
                      "trivial" : false,
                      "useAudioPreRoll" : true,
                      "useVisualPreRoll" : true
                    }

                  },
                  {
                    "name" : "Fade",
                    "duration" : 6,
                    "rightMedia" : 186,
                    "attributes" : {
                      "bypass" : false,
                      "reverse" : false,
                      "trivial" : false,
                      "useAudioPreRoll" : true,
                      "useVisualPreRoll" : true
                    }

                  },
                  {
                    "name" : "Fade",
                    "duration" : 8,
                    "leftMedia" : 186,
                    "attributes" : {
                      "bypass" : false,
                      "reverse" : false,
                      "trivial" : false,
                      "useAudioPreRoll" : true,
                      "useVisualPreRoll" : true
                    }

                  },
                  {
                    "name" : "Fade",
                    "duration" : 6,
                    "rightMedia" : 187,
                    "attributes" : {
                      "bypass" : false,
                      "reverse" : false,
                      "trivial" : false,
                      "useAudioPreRoll" : true,
                      "useVisualPreRoll" : true
                    }

                  },
                  {
                    "name" : "Fade",
                    "duration" : 8,
                    "leftMedia" : 187,
                    "attributes" : {
                      "bypass" : false,
                      "reverse" : false,
                      "trivial" : false,
                      "useAudioPreRoll" : true,
                      "useVisualPreRoll" : true
                    }

                  },
                  {
                    "name" : "Fade",
                    "duration" : 6,
                    "rightMedia" : 188,
                    "attributes" : {
                      "bypass" : false,
                      "reverse" : false,
                      "trivial" : false,
                      "useAudioPreRoll" : true,
                      "useVisualPreRoll" : true
                    }

                  },
                  {
                    "name" : "Fade",
                    "duration" : 8,
                    "leftMedia" : 188,
                    "attributes" : {
                      "bypass" : false,
                      "reverse" : false,
                      "trivial" : false,
                      "useAudioPreRoll" : true,
                      "useVisualPreRoll" : true
                    }

                  },
                  {
                    "name" : "Fade",
                    "duration" : 6,
                    "rightMedia" : 189,
                    "attributes" : {
                      "bypass" : false,
                      "reverse" : false,
                      "trivial" : false,
                      "useAudioPreRoll" : true,
                      "useVisualPreRoll" : true
                    }

                  },
                  {
                    "name" : "Fade",
                    "duration" : 8,
                    "leftMedia" : 189,
                    "attributes" : {
                      "bypass" : false,
                      "reverse" : false,
                      "trivial" : false,
                      "useAudioPreRoll" : true,
                      "useVisualPreRoll" : true
                    }

                  },
                  {
                    "name" : "Fade",
                    "duration" : 6,
                    "rightMedia" : 190,
                    "attributes" : {
                      "bypass" : false,
                      "reverse" : false,
                      "trivial" : false,
                      "useAudioPreRoll" : true,
                      "useVisualPreRoll" : true
                    }

                  },
                  {
                    "name" : "Fade",
                    "duration" : 8,
                    "leftMedia" : 190,
                    "attributes" : {
                      "bypass" : false,
                      "reverse" : false,
                      "trivial" : false,
                      "useAudioPreRoll" : true,
                      "useVisualPreRoll" : true
                    }

                  }
                ]
              },
              {
                "trackIndex" : 10,
                "medias" : [
                  {
                    "id" : 191,
                    "_type" : "VMFile",
                    "src" : 12,
                    "trackNumber" : 0,
                    "attributes" : {
                      "ident" : "ScrollingLog"
                    },
                    "parameters" : {
                      "translation0" : {
                        "type" : "double",
                        "defaultValue" : -152.079007158519,
                        "keyframes" : [
                          {
                            "endTime" : 399,
                            "time" : 371,
                            "value" : -152.079007158519,
                            "duration" : 28
                          }
                        ]
                      },
                      "translation1" : {
                        "type" : "double",
                        "defaultValue" : -414.880873989088,
                        "keyframes" : [
                          {
                            "endTime" : 399,
                            "time" : 371,
                            "value" : -305.220504436679,
                            "duration" : 28
                          }
                        ]
                      },
                      "scale0" : {
                        "type" : "double",
                        "defaultValue" : 0.452007839501234,
                        "keyframes" : [
                          {
                            "endTime" : 399,
                            "time" : 371,
                            "value" : 0.655082597931622,
                            "duration" : 28
                          }
                        ]
                      },
                      "scale1" : {
                        "type" : "double",
                        "defaultValue" : 0.452007839501234,
                        "keyframes" : [
                          {
                            "endTime" : 399,
                            "time" : 371,
                            "value" : 0.655082597931622,
                            "duration" : 28
                          }
                        ]
                      },
                      "sourceCrop0" : 0.0,
                      "sourceCrop1" : 0.0,
                      "sourceCrop2" : 0.0,
                      "sourceCrop3" : 0.0,
                      "geometryCrop0" : 0.0,
                      "geometryCrop1" : 0.0,
                      "geometryCrop2" : 0.0,
                      "geometryCrop3" : 0.0
                    },
                    "effects" : [

                    ],
                    "start" : 770,
                    "duration" : 530,
                    "mediaStart" : 0,
                    "mediaDuration" : 530,
                    "scalar" : 1,
                    "metadata" : {
                      "clipSpeedAttribute" : false,
                      "default-scale" : "0.666667",
                      "effectApplied" : "none",
                      "lockAspectRatio" : true
                    },
                    "animationTracks" : {
                      "visual" : [
                        {
                          "endTime" : 399,
                          "duration" : 28,
                          "range" : [ 371, 28]
                        }
                      ]
                    }
                  }
                ],
                "transitions" : [
                  {
                    "name" : "Fade",
                    "duration" : 30,
                    "rightMedia" : 191,
                    "attributes" : {
                      "bypass" : false,
                      "reverse" : false,
                      "trivial" : false,
                      "useAudioPreRoll" : true,
                      "useVisualPreRoll" : true
                    }

                  },
                  {
                    "name" : "Fade",
                    "duration" : 30,
                    "leftMedia" : 191,
                    "attributes" : {
                      "bypass" : false,
                      "reverse" : false,
                      "trivial" : false,
                      "useAudioPreRoll" : true,
                      "useVisualPreRoll" : true
                    }

                  }
                ]
              },
              {
                "trackIndex" : 11,
                "medias" : [
                ]
              },
              {
                "trackIndex" : 12,
                "medias" : [
                ]
              },
              {
                "trackIndex" : 13,
                "medias" : [
                ]
              },
              {
                "trackIndex" : 14,
                "medias" : [
                ]
              },
              {
                "trackIndex" : 15,
                "medias" : [
                ]
              },
              {
                "trackIndex" : 16,
                "medias" : [
                ]
              },
              {
                "trackIndex" : 17,
                "medias" : [
                ]
              }            ]
          }
        }
      ]
    },
    "trackAttributes" : [
      {
        "ident" : "",
        "audioMuted" : false,
        "videoHidden" : false,
        "magnetic" : false,
        "matte" : 0,
        "solo" : false,
        "metadata" : {
          "IsLocked" : "False",
          "trackHeight" : "54"
        }
      },
      {
        "ident" : "",
        "audioMuted" : false,
        "videoHidden" : false,
        "magnetic" : false,
        "matte" : 0,
        "solo" : false,
        "metadata" : {
          "IsLocked" : "False",
          "trackHeight" : "54"
        }
      },
      {
        "ident" : "",
        "audioMuted" : false,
        "videoHidden" : false,
        "magnetic" : false,
        "matte" : 0,
        "solo" : false,
        "metadata" : {
          "IsLocked" : "False",
          "trackHeight" : "54"
        }
      },
      {
        "ident" : "",
        "audioMuted" : false,
        "videoHidden" : false,
        "magnetic" : false,
        "matte" : 0,
        "solo" : false,
        "metadata" : {
          "IsLocked" : "False",
          "trackHeight" : "54"
        }
      },
      {
        "ident" : "",
        "audioMuted" : false,
        "videoHidden" : false,
        "magnetic" : false,
        "matte" : 0,
        "solo" : false,
        "metadata" : {
          "IsLocked" : "False",
          "trackHeight" : "54"
        }
      },
      {
        "ident" : "",
        "audioMuted" : false,
        "videoHidden" : false,
        "magnetic" : false,
        "matte" : 0,
        "solo" : false,
        "metadata" : {
          "IsLocked" : "False",
          "trackHeight" : "54"
        }
      },
      {
        "ident" : "",
        "audioMuted" : false,
        "videoHidden" : false,
        "magnetic" : false,
        "matte" : 0,
        "solo" : false,
        "metadata" : {
          "IsLocked" : "False",
          "trackHeight" : "54"
        }
      },
      {
        "ident" : "",
        "audioMuted" : false,
        "videoHidden" : false,
        "magnetic" : false,
        "matte" : 0,
        "solo" : false,
        "metadata" : {
          "IsLocked" : "False",
          "trackHeight" : "54"
        }
      },
      {
        "ident" : "",
        "audioMuted" : false,
        "videoHidden" : false,
        "magnetic" : false,
        "matte" : 0,
        "solo" : false,
        "metadata" : {
          "IsLocked" : "False",
          "trackHeight" : "54"
        }
      },
      {
        "ident" : "",
        "audioMuted" : false,
        "videoHidden" : false,
        "magnetic" : false,
        "matte" : 0,
        "solo" : false,
        "metadata" : {
          "IsLocked" : "False",
          "trackHeight" : "54"
        }
      },
      {
        "ident" : "",
        "audioMuted" : false,
        "videoHidden" : false,
        "magnetic" : false,
        "matte" : 0,
        "solo" : false,
        "metadata" : {
          "IsLocked" : "False",
          "trackHeight" : "54"
        }
      },
      {
        "ident" : "",
        "audioMuted" : false,
        "videoHidden" : false,
        "magnetic" : false,
        "matte" : 0,
        "solo" : false,
        "metadata" : {
          "IsLocked" : "False",
          "trackHeight" : "54"
        }
      },
      {
        "ident" : "",
        "audioMuted" : false,
        "videoHidden" : false,
        "magnetic" : false,
        "matte" : 0,
        "solo" : false,
        "metadata" : {
          "IsLocked" : "False",
          "trackHeight" : "54"
        }
      },
      {
        "ident" : "",
        "audioMuted" : false,
        "videoHidden" : false,
        "magnetic" : false,
        "matte" : 0,
        "solo" : false,
        "metadata" : {
          "IsLocked" : "False",
          "trackHeight" : "54"
        }
      },
      {
        "ident" : "",
        "audioMuted" : false,
        "videoHidden" : false,
        "magnetic" : false,
        "matte" : 0,
        "solo" : false,
        "metadata" : {
          "IsLocked" : "False",
          "trackHeight" : "54"
        }
      },
      {
        "ident" : "",
        "audioMuted" : false,
        "videoHidden" : false,
        "magnetic" : false,
        "matte" : 0,
        "solo" : false,
        "metadata" : {
          "IsLocked" : "False",
          "trackHeight" : "54"
        }
      },
      {
        "ident" : "",
        "audioMuted" : false,
        "videoHidden" : false,
        "magnetic" : false,
        "matte" : 0,
        "solo" : false,
        "metadata" : {
          "IsLocked" : "False",
          "trackHeight" : "54"
        }
      },
      {
        "ident" : "",
        "audioMuted" : false,
        "videoHidden" : false,
        "magnetic" : false,
        "matte" : 0,
        "solo" : false,
        "metadata" : {
          "IsLocked" : "False",
          "trackHeight" : "54"
        }
      }
    ],
    "captionAttributes" : {
      "enabled" : true,
      "fontName" : "Arial",
      "fontSize" : 32,
      "backgroundColor" : [ 0, 0, 0, 204],
      "foregroundColor" : [ 255, 255, 255, 255],
      "lang" : "en",
      "alignment" : 0,
      "defaultFontSize" : true,
      "opacity" : 0.5,
      "backgroundEnabled" : true,
      "backgroundOnlyAroundText" : true
    },
    "gain" : 1.0,
    "legacyAttenuateAudioMix" : false,
    "backgroundColor" : [ 0, 0, 0, 255]
  },
  "metadata" : {
    "ProjectThumbnail" : "iVBORw0KGgoAAAANSUhEUgAAAeAAAAEOCAYAAABRmsRnAAAAAXNSR0IArs4c6QAAAERlWElmTU0AKgAAAAgAAYdpAAQAAAABAAAAGgAAAAAAA6ABAAMAAAABAAEAAKACAAQAAAABAAAB4KADAAQAAAABAAABDgAAAAARszjOAABAAElEQVR4AeydB5xeRdW4Z1t20yuELk0FlCa9SxERBbGiotjA3j87/kU/u2IXO4qoIGID8VOxIEhHQGlSpPckpGeTbcn/ec698+bmzW4SMMJmvfPbfe+9U86cOXPmnDNn5s5taT3pnmWpDjUFagrUFKgpUFOgpsBjSoHWx7S2urKaAjUFagrUFKgpUFMgKFAr4JoRagrUFKgpUFOgpsDjQIFaAT8ORK+rrClQU6CmQE2BmgK1Aq55oKZATYGaAjUFago8DhSoFfDjQPS6ypoCNQVqCtQUqClQK+CaB2oK1BSoKVBToKbA40CBWgE/DkSvq6wpUFOgpkBNgZoCtQKueaCmQE2BmgI1BWoKPA4UqBXw40D0usqaAjUFagrUFKgpUCvgmgdqCtQUqCmwlinQArwWfrxWw7LKuYORh8TmPNX89f3IpkD7yG5e3bqaAjUFago8dhRQmapjB/xZyj8RoWjLaytTnqWlEo485b3KutWMhDKqeKh/V0mBkmSRZ12kW62AV9m9dWJNgZoCNQVWTwEVgYrVf5XpqLaU2tGoznj7UcQD3Ji2jJ/WUtN2trUk/kLh9hFvPh9U0sLjtg6roUAYMWWewTwOqyn+uCfXCvhx74IagZoCNQXWVQpkRTmA8mxH6Y5Co6pMe3v4N5IMbR0taZT/KN5xaOa5PQNpKUlLevnpL9XsqJbU2dGaXBPsQauoWLJyXldp85/GW9prxOTQD93XNaOlVsC59+prTYGaAjUFHgEFFP1ZUY5GgapQuxcvTa3c77jRqHTAxqPSLhuMSttM7UgTietqb0mTOlvTDPKgK9J9C/rTDbP60+UP9KYL7+1J98zpAyCKt6s1jUZhL+kr1IkT5nVNsTwCMj7qrNKwZwlGTBlaoJmz4HUptNSfI1yXuqvGtaZATYHhQgFnsZ0o1QG0cD+KYIOp7ekV241Jz3/i6FC8HaWreVX4qljVGfNQ3n+9pyedflN3+uXNi9MSlHTnmDYU9TJm1Gt/Nmyd66pSF3eVr7Tfab2OwstA3A0P9+FdWJbaynX2dUEX1wqYjqtDTYGaAjUFHgkFXNtVASxZPJAmjW1Lb991XHrzTuPTemN0IqPcSNeVHJureG7hRoWgTnbWbFC5qkiM03VttHlumNWXPnbZ/PTT67tTC+DaR7WmXlzVa6DPBbvaYB3i4FWYJTqrLfd4Z8h446lPfdBji8nt6ZbXbgD+Lcm4I34xM5170+I0GsNlMenrggu/dkE/3lxV119ToKbAOkEBFUBWVujEtKR7IB3JjPfLB05Km09sD2UaSpd8KlRdzoOF5dHL04Xbi1ZUIW6Ly/onz5maXvWUsemN581Od84ZSJ24pXvWklKJ2SP4uTHMjV9rS7EP1ta1HbecYkVf6B0wqIBVxOtaAO061BSoKVBToKbAqiigaHdWa2CvVczAPn/o5HT2UdPSphPaQ3ma5qYgla/B/Bap/kd8Na7MYwnL6rZ2ZqwyPmyLrnTNqzZIz0fJ96DsR6O5y31dgnnUoYN6enqWhuvc+3UpSMscxFzF215qsXzN6evCtVbA60Iv1TjWFKgp8LhSIJQoEl99pdA8/cip6V27jg9Xp4pApZvduVlJ5NdiTM//1UZEHD9eDVEHV19fEp67eseiYX5OXe/Yi7pQwl1sNPp3lLB1DTBt3IFNYhuPb099KOKMtzisSyHTK9NPo2VdC7UCXtd6rMa3pkBNgcecArpt0X0xazzzuVPT0duMSd24hJ2Vqmiz6FcZZIUwFJJD5cnxWbGoiHVX69b+4oGT0zv2HB9u71DCZFpdPdX6hamitR0/OGJq+sex09NNrJ++aqexqZ+NS74iZdojgVmF/3jcN+OaPRS2dV0JtQJeV3qqxFOmy//rGOo1ujUF1jkKONZUTK7n9vYuS9/A7fzcrUeH8h1DXLkEucaKS1hLUKi+KzyUosjj23SVu67pUMIHTU4vfMqYUMKx+5oMpq8qNPB3Rs1O7aO27krHbAsMjIexWBQf3XsCm8hYXwYnsjTasyqYwyUt0y9f3f1sWA1JikzD5LdWwI9DR8ggmUnydU3R0MuS/zPjrUnZap1rkr/OU1Pgv50CjhnHmsp3yaKB9KZdxqXX7Tgu3M4qX8efAnRNx7D5VZhdaLp8ShZRQwbh5jGeZ6jfPmxKegrvFvfw2pLrn6t1R5dAQlFjLazPDmGDRoBhArvJxvGOslZG5MkVRurw/rFphnzt4x1qwzrUhOCfAusR9GsHxAYIbhrXSsfIaLnTHo9mawXL/+JZjoM1RiPvrlQoaLGuSZAG1vNI61oT2MMlT7WfxWlNSGMe+6C5rOXr8N9NAXnD8aKSW8I66VM2HJU+dcDE4JW8u3lNeKxKRfM/zGtLX716YXrTeXOAP/QsOJfLPKrMck14Mgd5nPyMycHgxYtNBQ/n/M1XedtXmdxBndhJfebN3emW2f1xIIh5f/zP7nTvXHZZ09B1bUd0c1vXaNCvVOjxjRhxryEpUF3rCGuuibYyo8rPF+jtrKzALPNYBety56EDywHYzn0fI31Ncej1+Dolg21k25+Da3VBevhvGGlK2D6N9lXo4KxAeg7GA0GE8kdeCLdVSZvMH6srV4VR349sCrTKDMuWpo/tOyFmi7pqdQkHf62m6TmPis0dujdzUMRep89KC5hN9zOOj8Qd/KwtR8eOZw3rnL8ZrOxpmnlUpAds2pmO235s+u5VC9No3kFezIlZbUxs5d/BguXldXGYywEfB/5kRnr+k0enexYMpN/8a0lqxRWtS9xxNASIlXTbYPmspxoGy1NNb75vLp/T1xROyPVcaB25jjgFzMQwLLnlzJi7r9gsEee1wmkOCgdTyO2hev4/0ImOZ3ceLuPaArL97GxsxapdVbAFDg4Vy3brd6QteOdQ3K9+qDfNXrLqk19smoNvQAuYh1YG8UgJ0kWholExgPvJlhnXAVdr4mjYDKVMC6XNup50KYN5M7wcV1//+yggH8lTrrP2MGM9aMuu9LwnjQklpfI1FL9xO+RPziNPyWVbcXDExmNa0o2cOKn1/5nLFoQC9pCO1YWco62s/392G8+pWYvTYhD14w3L5d3gkKwiDE7a9CAGwNcuXYAwgN+RPcLOoyCu+YH4rJSlRyMTBYzP5bwKG/G0Qh7jc3mTcmiuQ9wyjBXSyvgMwzTz5RB5echX17TjwQj+I75aIBcc5NpMvzXokkGgPPKoEaeA+xHEkzmNxhfl7YBMf5WXuxa7sTxVgL7M1zm6DaXGwec85k5+5CRcfQlxiAHN4PHs0qOfOiZ9aK8JMQO/9P7e9IY/6I4aHI7RNCVm7a47nX/0emkaeIvvpy9fkD7wxzmpc1wb7WIgNlnBud5JnS1p+tj2cGHdh9XLWfBDKqbBsRiesdLAE3HGI0TG0kYtYA2bOYuWpn46VcueyctyJiibEXSBBktJnMoMArKGJ0Eazqd/Wo0Yoj+GJyVqrNYmBXLXh1BmzL4LZWfIQtp0eWhNQs7rKzIq7/ftMT694lcPp/ET29IFdyxJX/7bwjhFS9kUm7ooIF8PFoQla7p+6/nSx7Ih65tXLEhdeRZcyrzByuY4x0g7FsHYzkImuRkr42ge664qH2Wjz7rdM1rmtz0qXfMru7QLnKFXQ28pW422TA7NdQhHGLr7XRuvBuOtK8qQ4HBuDrlET4mQXi09g17Ff3VB3PIGLvMKz3ofi7DOK+BMrNgowWzyeN7N+/ohk9L8XncPIqDtlDLIbPctHEhXPtgbax8XMQA66PWwIO2osidzh1oslzbO+3w1bbB8xudQTS/KAQGc3rzzuPTUaR2xmcNTb07++8J09X29qRNFkncjZhi5fq8yiQxqHl9/sH0RqpmI8JGsMUAmsMHismOmM2tuiwHynWsXpdf9ZjbGR2vshGweHAGPn4x7Br26+EZ60dAG3YzPsHKewWBW43L+alwua5qDI3aGYkjt+4TOdM7zpjFAWROn0R5icC9GxnG/nZMuva8njaL9vShb22kXSxfLT0Rh//g509LTcedVBcCx/zc7/eLG7tTVRJ8QSpSr4rQqPMXX9DXJPxicweIyTK9VuDm+Oc74HJrxz/Bzutfm8pbJSifny+Wa85o+WNpgcRnWcLyKr/zh5wR74a+dWfs9dPOu4JGsYHKbxF86NNPI+Gowj/wqHx7D6Vbf44jJ85E9XRjO7/nL3LTzBu1p/026Qh44rjOfVmFU7+VlwzEc0PHNvy/ig0rUQJz1rC7Yp328B9yHfDS0ACx4o3gsjNiKzOxAWauiPfUrKrBu/mPmTEG9TJ26sJGtvqfcQII8fpRiFIOy2RMVhnKlDr1y4W1wcqRrMjfEukxDLsaXjkiq4irKZsnZwzsBHv0aFV5JbMma28xDBGFYphGIyJ+MbMT9h27WeQWc6SIRDfvwBRKV1JiOZbHbcBlTokanYfVtgLW48/qj0hvYzfizWxan1/9udprDQJMJZAz7S97I3aHA9j4GBWkOTvMY6X2WOkY16jGZtOAxE5pCNZ9Jgw3gsNwoa16r8Ud4gsuCQJyGClGODA7o6bxmkC3LjRj0Gechy5IQbbPiEgfzBp7iQJw0MLk5VC1OcY08TRktH/+k26ZMJ+OinSXQoHN537iYh3aFxQqSB27WmSazucSzX22rQm47jJovHjwp7fnDGYGzRWzHMtI6EQrdKOg37zExPRvXouV0XeXyh6DQf3H9okYfa0nbbl3cQQsvwqrgDeusQAvrW9N25bxBWx4aNJBmPDfTIPMFqY0+WFW/CF9QVfwtG7xjQiVoiBpWKiNexEc/UUYcm/vf9JV4hry5b5vbYT3DNoC348XPCT57qy5mZuyCpnHuXpZktjUH76PPcsQgV8sY5Fnzfv3QSWnvH85Mc1A2ln/hL2en8148Ne00vbNRj/lzuVxfvhanZaW0B8bBDixJXcuEompo5nLCGCxsyhKWs0375GGWsObg9dFNru4bz/hYj53S8pm43jOnP77MdOSOY9Nu7L52fF2MYfvnO3vSQhT5aJSjincDYB7OuvT2fJDCbSp+GOE8jIwH5w9wlnWx5Gf7hTsN43aCHisQdefyDFziuvqfhFw+mPH8pCmFWvonMP7KxOSfD/WxrATtxdFxWGot6WFbM13m0o6xE9rSZvwvQKar1B/CG7aINXLbOhRdHL+bsjzQQgbzLe5P6QFwah7Xg9Hy340bMQo4E0ImMoRQ4upsSFfIRBjFWY/M6wxS5nrhk0anLSetlw48YybMVMTJFCo40/0P6w04bZZDWGtlaXGa5oBU6MAXMdPO96IgQzuIvbcjFfDhxCHTN65ZGBs6hHExnyG7bmbf8o0Q5JdRxsC0MqszeMv7PVGvBtMN1ru6YP22KYfwCFSec3z1ajucXbeBoPmjPHUroKWfcQ4c8amCkubhqiK+HyCmkT3gZPg8NmglXOnkpjQtXPtOmkg3y9lPK4VBoqp57Ds9HQqnvTDGLr27pzhHF1jibx+OYoniZbwLaYhNNlUA3lN38E959d7PzXm17V4VJlkQiqf45iDaHdDP9NW1y7ziLB3kNZ+lgQLHELzKlegQNGPgA/tUuNLPXNYlzSwvDcUl5zePz8FP3LvkYminEuupBl19pgbcXIYHYRqf22Q9nsFb7X/xVuDRjKBRwODB12csm9vB7bAO4ipRpa8nbxzyhK7A13ZVg/kkn+NaBValRTVfvje/XdqNcH8CR1d+bP8J6S2/n5M6kEszUWCH/GRWOuOoqekZ1Cet5B37rTnkepVpyp9nbN6ZrkWGtGOExn4GETXTEEE++83zp8YpWH4a8f0Xzkuf4388CmjO3P505Lbj0vcOmxzycBZK8U1/mJs+sd/EGE+5btR0uuLBnnTsuXPSzSj/l+48Np10wKQUxn2l3lndS9Nrfz87ncNEx28iy3MDaPATDpyY3rTTONqZ0uX396TDzpqZPs/O7uN3GIsBsCKlpcUP8Ui9H0/BbJeH5Kch2jeT+vZmzJ/3wvXSXSj+J6CIT756QdC5nWU7x779ZJBfs9f0GA4j+f6zpqb78Y5uzATlOHD+PjvVOzBElCWr69sC4qP7HXEKWAYzSDSJ9ww697Z5xbZ7Z7/H7zAmvlqiAF3Imt/TsLpOevok3LIPN76ioespOpmfNkzF+CQYUqjDTsS8C7cNHdgNg0ZF9GZ8i5IR5pqjsyZdGuFOcRSZDmP1MTJaMQLOQAGfTgfHiOQUmtbxSFDxLsu2ChtmMF3GVRb0YUh0jGPDhAzEs6Pfy+qC2asDORjQyKECQMMdBLOH5EXxdICD9OiDXrbJzWO6hfIXWjIe7uj2M2qBMO0NOvhNUy2JHHiUVtLN/AOk90lH4jzhB7IV3/ik0S0IlZVQbYrQSDDYRnFUMOX2+lm4S7HC7etEPZ3gpLX+DAyvp7AE4CBcRqH+pcuNGw0tCZvp7FUDYbH9wb0b5jTC/FZrP3jLC51dzJYQrOYVB/NHu7RSVtEu86p8++CpEJ7g18XX1VRuSxAmIhIb9MhnG+Qt+SJm5QG3NRSqB0T00i9tlG+nbzR+NDb06ETbKe+sX36y73hM/VYiApXQSnljHEMm5TId8GwbjV9CGXEN1yL127xoM2VsR3yb1X5jzNiOJaSHW5JM8n0Ar9Q3HG9tt+23PzfkqEb5xKBCjCCBuM1rumffujgdjyJdr1yHDdoVOQf9lV5LoZFjbHS5zKESngfjP/vMWekLz5iU3sISFVnCkImllbLqKsActc/Gnenz9nWJ15rQ2MmIXiNhqITsmIAHDI0s+3ICiI6nj3/CqVnOWIUvCRwzGh27b9CZfvicKeksXmv6LMo36i8RNI9G2jQM3dP5qMR+pz+UrnmgD/kKj5CmEWkduvmnAPs04Lxs27FBU0GQJfDJxq47vrfns4NH/nxWmsG4aFdrmakpbMYy2+/+uThd8UBP2n3DzhBfr0PRf+Mfi9INM/oaXgLbYT9EH1L/u3cr9uNsihy+A13xcz4H6SYi22C+QapqqvnRP444BZyJVTA6QgRmURnOQhrNRXi9/ddL0mVsfJIx/Oi1A+4VbIr63JXz0618dUROeu42o9OrnjoW4dWSPn7xvLC8vnf4lLBcHwDG4b+YFe7Ozx0wJQam7qn/d9G8dAfv13XB3EtQXk/ZoCN9mI1WDty5KPT3XDAv6SIZQFg+F4bS2lPE/pMPcp9A2TyAlgHLet/Kaw8vQlFMZ2ArnH+Py+crf1sQTNE66pF1eFXOBn0ykZrAGK0A0R20B5b4a6DBrrRjgv4qGPFhlOsl0O7b/1iYbtItxCBW2Etrx3EvJu2z2C3qN1E3xJKcQrplZGrLK7DHQfMv0I6rsZxVEJtPbkvv3HVS2glX2lTyqxf0Wvzi1u506g3dwf1DoBvYW7dBpagFew0DTdey4XnQ78SL54chFkgaCTDXzgwUSX9m9rAxA0+3tSHDy1JA8L4y8iL6y3b51ZsOMrnh4zo+G6c345K7WGtWCdM+BZhKamtccW/bZRLLHSu36we0y/5WOcY6I+fyvuVp49K2uN4md2l1Lw0LXstfYeCu7j4U/kTo88Ltx8Wa5NaT2jlAoTXaIE9eBj1P5rWUO3EZtqPsdNXZl0vpH13sb2DGtT/CWvei3o07mSHM0lgi2L266k6E16kmxov9dBw8eORWozm8QWHdEi7Hi3A/fpV65HUVh0LK8r4etz+zsTci8Nyl7+xKF+VtzKq+y76DP9y5pDC4qLJB46h9+PzY11JEo66fPthyUlsoH5oYdK5imsfUIsbzQmjuGmgP9y3QNqdV8690HwxAjdDOsrEOSr+99f/mpD/CT19iliivUXXwikqjGrLh+ST4QMNLZSVdzb+6IH7+V/Pnchl3PSUaCdNGF7um7T9l6bN5bWoTxovKa1dc0rtOL4TRfPr/j+R5ED46BD7YZkpHWgA9dGm/cefx6XX3PIyMKBDM9riK/GmU34lJkMFxL39Zbgtmr09HBrkxbSGw96Cu73MIybN/PhNDAKJVWpppI0m1ED7CmP8/ZsHKZfn4g3tMSMf8ahakLsqZz+UqjcOXYuzsgHKfh4zWMPn8lQvSfMbTaOTXYvBY1etd4vzvhhGngDOf2hf2t/8Gra1+HibCGGdcsygYSUGsclRYHERn3zqLWSkFfTfP4+YMChg3TD0RF40zZq2k6QgkO+slnAebO+4MXmi/A6U0eiwzBRhGxnzxk8eEK0cmOBlBfVU5O3wWCkJGZoynvTZcmj7DTsbZpPmKlAPx1y+YFq4v0xWioJCeDN7O6CZQrwyUmS6QXAs/Djzrd5b76YMnp/ftPj7qVUmRpP5MW09KsQ70NpTF8aydf5/NYyphyzoLO5kBomsp453LPX1ZZ/SDA07Gv4uBdjUzh8Nh/tOxsKVPNagMD4dGNyHkL8bwqG6IquYb7P5MPmiuAnbdZyuEk2tKvyZuDAOqGwNoOv14BEpFRa/i8APob39asctVeA5Rg7j7Y56z6A/5wX6o0uOp4PlyXNkfuHBu+vRF89NY6ljE4D2EvOdSRvdr5j/B5XbdgNF1GYLGfnwJO1nPgAYKpZitmpGw0/opPZPNP9fMeDDdTv5NwPu8F01DSXc0+l8cpdyWtHPfTTrj83UHnzkjXQsfxoY+eHtTZgV/Onr94N8q3wg/hxz/gxsWpRsxsLZD2P0Md6gbBHNazus64Ot2GJee98tZ6Q+3LU7jMBAX0p/vx035qf0nhiLIs0XptQvjYD8U/5NOeTDGgvSjqYF3hjncrjG2YGrHukFl5Os/0jsjnsffJGZQG2KkTsOwkb9h7yKfeVcRLC9tNUIdd3NZi30ART5mQms6G568gKWTtzxtbHo1RrD9m/s6g5SOBt2+U8FhBopPONK8TCoyDPJblYs5b77m7NFWHu6Z358O/dmsdBMGnkhsjrK64CXrxzqrSl9DYAHy7ggmJRfdzjvFjJdx0OIvL10v9toITz4ejfdOhegAy7BzG8yj4vvIJfPTQj0/ChQItD10PeWZU9JuLCdpzB3OevyxTJZOY0art0Zw1TBPrx20+C1eL+XxS8sjNz23+yvIgcvvZa0cI0dDWdf2WPbG+EENg/L8Jtacf4hxrOdNd7VtEZX/ZBhxCjgTS4aq0s57ZwMS1kX8n6MAVMCZ8RQU8UCyFpfBzVnPQ+nZWZZXiRsClj8EXZ4GlY7lo8NgSt3fhnCjkBDpEVO4xr3VihS2eUaBUy/M9/GDJoXynU/dumqwaxvWt4PNgSts1/xKFEqoj+7iYFT4h0XIxoN37zsxlK/WrsJEwfMQlmIn9em2chA52/zes6bERosrHmBgwtAvZWCofF1LV6FeytqOM6yDN+sKxQIvh4CynjudETNIPVfXvNLANv0JoaPFq9tP4WdeCcrvaoP01Tj5CzCcCTsDN7yEQfhrBqM4+wrac7ceF4NNBazg+C1C4//hqVghQFjzL4YeJz17SihfDS2P7fsb717fwaxuP3at+vF1he6n9p8UnoEL7+hJ46nXk4osb5tsW26XhpyzB/ciJAyWLaZ3pK8dMjl4Rg57iP6/8J6eoPPO8KMegVgTo+4dEXwqX3lFt+StCGvXHjdHwXq8oPe6Cj+898T0wp/NjNfwdPd9HVw0Hu1PGeb3zFI2AwdnHvaltJWFbZ/GqEslPzpiSihfDU55/gK8BLpkD2KDmsEZ9Xcxtnb/0UPpoXkDaReEm8o31tdpt/17OQJ7Oni5Fm+/6BlI7ryVEahvWIYgBsO4vG5fup/LIR54RxrI60I1HImx5S7p4imi1uhHEjiWc/AwjQ/iCfsOryWpJObCm5/86/z0GV41/NR+E9L/7D5hBeMm4+Exkr7pMGOhM2BkAnwt3EdL4lxO2aR7+kt4q26i/8diBOgHuRP+/+ENC9MJe00MI9dXHPVwXPSvxWyAIg84zEdp6435LjJCHttkfGuM51v0MNL/uuANpknHb+JRe/dveTODsTMKns90uQ639VG/mJmu5JOMG2HoGd7MbPqHNy4Ow6WZlfJyi53x8UvmpefjAROW8f+LXHsmy5HKOsemXr5X7zQ+XNvyuXR05jwfQ6aLce3YtYszPaLy/8DPiFXAK9FKSsq1/Pnj+7CGPJCc1RZpBVOYNhYGhEeiwy5AMJ57+2J2WXemu3Hf7b5BwRBd5bRFaylCwC9mrj7HLIhrZirj8gxBF08HL+X7vAABOhWX06txTxvGMPVy9vuhv85LZ7GJ4XXsQnw7M08Z3GasreBYsB4FwPoIame+xrnBQ+PiFbyWc57uQ3A8iaP4tCpVXCqGt+8yPh1zzsMxqHTZG1SoPwffFzJDAkB6NesrbuowLKOOfc+YkS6GlrtuwufQGHB5Vvxi3o08h4E8Ghx0eeo9uAUloxXghhibHF0YkJb/ZAvVPCrsexb0p98wMzueXe4qWa3m9RAes1EuaiXxNzizPZvZ9UMoUxWK/eyAi803dK3KaFuUx+uB42xaC/mHNy5i5j8nFM2OWOd/ZSZQrKEVguFCDkbYEffbk2iDA9i0o89e3i55TIPuNpSWWlejz9lLzvucs2alv0HrTgTZ1rg/FezBp+B9N/yqi+58aHcqu7TdITofvKThubyGpZI17IJSn4iCnYcgeTLub7050ljD5uhfP5x+iiemnTrPwUX3LL43a7C/3vqnOekBjiR8FRtqfEsge3aM/5r7FSDfK+HBU1G8Cix3mmrcfPlPc2PjkHAcA90Qcl92n9+HEu6gvbsCq5jBLJ9RrEX2tdq1HjJ+GksG+W6oAFkLQ3GoDGsQb30qhW9jkB63/Zj0MjY33Ub/jkdxzYNXrsQrYXBcGvI48OoMtMsBzEPGOzI9yp8Mw/FuuBxvCtZ3yIeIAs/gX9JyHmWjA0pj0/0yjtm7MYINQlFmjQ4cjVsuv5Qx8uZJGBmJ/TW+wx/7SmiOk6UJ8Pb9jE+XPMLAI25HeNpd0m7+asc/LE2yPAxZYLnR7enGB/vYgLUw3uF2/DqW5PffwuturmqjTW9kbBtUvpcwYfjpLd1sZkM5g5Ntlb7/6UBT/4sCRA0GYVzNYFZHXzVml1mQSo3M6O4NUiifRcc8/Ucz0kkXzE8vxh2jm9GNNhHKS6O3yl5r7rzqc4ZvnDO3mB3AJK63Ost1DUR+PeW6RekTf5wbTPjuX89Ob+Le4FqqISuf4umR/4q6uIQRgrLUVeQsyvUcGfBElP+PLsMqRBndjzI8DmV8OwIh71T0HdoJYbi0NA55F4sfXVe48iehFH6G0rI9BpWzhoY7Mfgt6F8O9CNQTONZN+1h585d7Ar/HOuR9yDEPRTDfsqDLAAN8SM9nAWc5SYKgorN5QWV3gDKazfWWvfDVaugMPyEmXEhtXInln0vTvSHsxtvVdYO4g+w2aYH42ssnfMPrPBTdMGTQRruRt8laDGfthZ4RBWp2q47WTP+Im4222UHC9NQ/KZ0FEZHJ4qtj7X0G/AsfBHaP8ys2A1MbiLZ4QcPpleylnU+eD8AjZbSL7cgUH7ADMLgrEUvhecFSzRnDbZMw+ReePYXlFufmbSfn/uZbS+DNHpAo4BiL+KIQoMGh+9Rf429C61FUvrBpfPTlWxwicP7yaMxapmYXfPs7EKj9SgUcxt4DNDXl961JH3l8vmxJi3cdSFEf0A4vQyGBu9JzKZgmmP13/nXcLG8e0T+dFdveN48LyDGOfyU13ubqo6+dRzFe8DNiY/yOTdRmdQNf2r0WZHxbb6nw13Ecee4MNzDmDAUeeI25GtxV/xugLs3C9Z88pdy50r4XI+S8lTXsHQQrO/vdmtBE+8EwCB8DZUwNskrXaoyUEVvJr1Ebn50r4k7zMOTRtn3MLmI8w+gs/trtsPDYRsNX8AFvgw7J3sWreuxCP89M+CSmkFYaG7n29HFECsEbCa4QtfAfpiw0N6Nla/beqyWE53ch2syi82VOqqMyIyxUjolc1wwWn6G1/IshqgIv2AtyDUNN1m0TUzpDBTyZ3D16dIzZDzj4VH8FKxHwfLGjVCG7BXQPZuYjaHHaDsKA2VwPgJ1SzYkaSXq+lTIz+fUk2D6KM0a+hPHpF+hBOficnoZX5BxI4bKwWoWqvxQKK7v3oUicn1LRXQcMF33/Qm7Kn/ADM91TF/FcQxmepXgB73oiLAO6/orLrO7cIP5uofhFayzfhuF/mLWguh2ZmrFhq0/0BbXkixnvMExHIjS97qMDfEKGtrlA+yWjxkyceK1OwrdflYAKhjcCev7j3czC7fuldvVTbt6Q7iktmXpWpSoxo4fXddYOIHvvb6EDYA/Qjn+iPXYf7nRCRqI3yiucxB0E6hjV2bmm6OoXXcUn/0wnAyxWxs4mS/mlYYUl7QJht3TmQH8UZ6izUdRTw5L1Jw0eiLwtppYtNk0d6iexMfgyR7K1Y6wzth4RXtD0ZN4ucsQBGknPl/jHezXM1s+jQMnzrhpUboPvF2fdGNY0DdyD8MfGZQQY5e23K6hRChGW9w2fpTx0lketv16syTjmrbPOkrnWbDbMgB+5oqF6fLbOByIma+RbtDbD2Pm9Xi+DHnGSbWNoDtX/rBvAu9GyqO8KYGrzHwPWj63UQWHkNjCRlKqM2Q8nLnmIF3CKGPiXKIVSRl3HyrZ0yy3ypOxAxa2rhJ0XIOPIcXDKEzlS1bceqxsbBVOAy64mtfXNu/DgPos+2s+x7h1EnAgy2FuKjwLOfoBxprBZT777xcsST7Ws1/rH9EK2A7KnRQDw96VW+igrVk7M8530dwV6jpn0fu5RMHwviSuN8XOX8RGiVFu2MsjlNscMuNEaR6yEMzpQ10tl2ucihvGkJXBnSp6Muge9rWWdpSgOA9SfZR7tD+BO3BdszNo2aoQHohNY4WRomXqQJmhW4DggFQwx2yI+NNRGsWL+svS8bjRN2LTxRzo5exTK1NG//PdS9LtM3H5qsxp23v/Mi/9lI+b6x7V+nXH9ztxa7+NdZ5PMPv7CDPwdsqtiWBzl+4AC2Bau/OZzZ3LIfNvRnDZjr2ZqW3L4MsuV2n4a9zU81EM43AzZqVqu6IvJAgdqDfA4CYcZ/1vYtNYpEds8WNfuMyggAkhPHdpevf589JPUFyDteuTtOtE3rscA+z7ZvelD3If68CUV1G68/VE1qTfy/GH/3P+3PQN1gR9XWUxdH8l9buzXvdvVaCJiSiLm20LoQm+Kvg/syZ+EGu0elrOYOf/rzBCnojR44H+7nVwJ/XZ0Ip35KKNricaaHJs/HPzXw65jhD4EUkMM93LMXjsrxP2LNYprf8pbOD63NMnhqB7HZ6Dn7OjuwP3nrM6+VtYwzJk3LjOXlxgKU1zsL99lgZ6zVzffy3LJ53wbg98Hq+I5cyruNLdxVqoVQgfulh27BQ28rF8sDXG38d9EwKviHkNmW4+2j/Gu1Ti+7E+8FvIBzOvhWA7y6pXgLZSXEGmIo+J4kZbqvmqWarAOrVCqCjGeCUhRp6F+Ff2KH99ZVCo5q2GIrbIZ34nSXq53M/wXTZsvQl5osFqeC2G/hhYeof13NhV7FcpZr+FfFUWWLcwH4swohWw/UU/BDVlWG/G0Ck9MPgzy/Wv4mCCFj5sgARqorrltdy9mtQCtbJyzMyVrxFPJl/L0X0UvGKVjyBk12guomCXi3krOSp2g4W7Jh0YjySskN2G8B/4ee9jjiseG7+hdC1MnZEHzgyccg7KBc7g+VfWgaSxLlnxew5rjwZBC0K31esRxNLGzRe6KH/ObHeX0/rTiftMSIfTH+FdAIjK4kQ+FO4muC/jsm188SVGpVCHCoU72BGkRasCVhBIxq8/s9iMJI4+/5T1WjvT7hK/wYK4G5wBq8hd61ru7vNQlyLdzVnOpu9l1q0g1r27K261wdr14bJdX6JdKv+Tr1yYbsA1/f/YPKVSFKTCXdq7gWou7uIzcI+9Zq/x6RTWX6WNaa6d3U4d92PIqFBV3AZnLsVXtuBFPBaX4EYuFDDvZaLIfbXM9jtLUPm6nvwd1oXbcBFqKPludgGH04CwPP/GuND1mOcbGqvSUIPk+5TVPTKGvvwQxpRHvKqENcTMI2/o3j4LY2QvYF0O/WJ3tv1PNZm+UeEw+ollKojkZjL7PS9PSZlmnGNcyETe2OjBMg3SNrP6PrWGlB4F3yVfCv0X02fvwcg6gTOjfe1M0CqFZoPLPrav3Y8yF0NBl7G88UhlwyCoNaKoeqX2NhJXc1MoSyE0BegT9C2jn8x6bhfthMxRV5Aw8tgWbminrzRh6/DqX1HI44Rl4py3UQN5DPK3iZ7S5aunn7psXvo2u6nlR9eC92cZSlq5JOapXsoK3+Z4LNd+A1F+RqwCdjzYfy70tyMpQ5kQN4dZxy50wnHlAryCRCZ396kHRCzDmowOhDiWt5Ozi0WY/EXIgtiyhglyCH9j6fQFuCHDPUd8zh+ZBvmhSJGHG7f8G4oZWUt6Ksz5d/CazMx4JhtkFHTFCVkIsFJQRoHV/FRxiAHKYJUeA/zL0w7eJdTvV1IMS0BDV+7WWI0eJec6r21nqwWHwBcso6J1vdPXH1xv+RJuR+mmclUZu7koZqMoEHfEnoQr6D7gi3cMHOD5ytW1rG2+gFcYnsza5LuY/eqKLoyi4qSyL6N8FDbS1nZwGTSoIiRJ7EqnDy5mU8U/H+5nN68foUhx5rNKRxyvR+HppvZ9WZVd9dxX64hKyJvfk7VOXcUvYv11CczQgkKyDcISthtGlCAemhGbSOCFVbXrBXgF3F0aMyZop2K/6Kcz0w5soDqBdxbdvan7WgXvq2ce3PJ6dpgbFF4q5aOYdam4Z2HYvIPZskdv2j5JpTu8Hz7eE5f+e1n3MujGuwZlqsDzlY75wPgRs9If4ur2oBVnra7lut6/Hn1n8GtbR3JK3ASUu7NleUb4NldlYVCJxOfwgHE269G/w4W6B6cROYv31T55xFn1UbTjctbywu0qm0vUYRZsUe5T9x7cCW19X3obaOasK7uMRVteM7ij/ABmqZOhmQLc+IIyRfpgv6bbt39k9rwIeuvl8eCVaRhB3z9qWnoOGweVAfJWMUGsEMvCPNoH+iZc8tB10o7hpyIX/9XVvyJOTbmbHlfM+0ieKjg3FXPsGNzM5/vsB286Kv0Gg3gifOYGT9tsO5RLKk0/OmFwaUzlexMyXJmTx7M8KU3CSOEhwANA46mNfpHPHT9uetQDo1wKLxHFPo7nph88fNUx4BG31kgArNWFEauAg0kVKrju+hf2p6UIR7f3v4BZ0RcPnBTuweyC893Rm1kHmAwzzEFJ2PkGGcXb8jHiis4udu8ZkQeiG2hco32QAXEAB65/itNhDLolDVUYEcEP6IVyzwx0/0JjSkbi+mqU0Y9YR5vNWqBW4vd4JUaDwvUMXw/JjByFVvEThmSZ7sBVWThYY7bOY5/IEafL0lBYqC3pNRgpF902K5h1sQIdIXo4M1sHhUL+2pm96SHWWdwtLHML29eV/pdPnSm8xyJ4ZzKLaKHsMumAseOZtZ5L7KxCJX2vG10odzu7Fo8/fQb9Mj29jNfDRHNDhIoHvTMmG30SCA7yY36JrNAStx6WFH7DrvVtp46PgVXMNArB9yss3j7c62MRnio6m2/5uOYbcLye9rFKFILC9e7n0censaHIWW4/aLeWing8zy2sYanUdLW7djpUu+yzjajXmaY00AC8n/7t5/izazmA4QW3PJT++oYN075ucCKsj1BuxQByrd22KYROh88uQClPZKaZ4NdNWE4pgsYNJ7bJwLTrUF4byuv5bpR5MbugfW1El2UPgqyFPl/GuHB6oeG4CJq589z3pzVMnoGhat/+E2NFj4X90KKAA/4k1pQ1Ntwo49KJQnMGRmIf6Rey/v9M3Nq3vG0jDlQoREy8UwtawbMSepgGUVPZekiPBzVcdO8SFDA76mlXbGkrcc+bMJ+B58b/1YXMVgp5++cTfIrw7FuWhFHdjfLdDaPlzCOnpC0mdQTtsyfJciuEsv5MwvN49e2RBmFmfLJnI9fTmGyUeVYFO5cZKo+wS3U4aJZs0HyJV/Fuhu/+hQxoK5cpOii7cFF/eg0GZPU8BU8em7OgOI0N9ivGbEmMkGcxwyiqk9e6oLWy66O8YnTO86eFEany1QAS1u/gUw/RCWUNnNW1adCG/BuRI04BxwCHICo1XQw/xqJUYYyD4q6dKQgULt1IM11wdzLrfN8FbLIir4Mjpr0lQemjCLlTlGsxO0Vg6f5zhqRbT8XzYnaPTn/ldE4UGoj3RkMIUjrDCE4p4eWLfIM8DcGmcroKpSVcNyaJ80GsW17w8vXThQjAoxH+eZNWfh+5wmsZ5KDXsKStjOB7uVcfv2EoNOt21rMBysXTuM7EJfw1viTlpiBp5CEAtu9cNmNJu9dxCpNgXK/VFXkKrw1pRfhN0vw6kXX4ycRb5vQFbEgVrs0bmY2eymzL9ULXu3bDDfQX8p3GLmlfg9Gy3YSNQfvhhpWe4uaM3FmiGyqsU/oPFUyKf35ixgyAXzLA3s3sMPeFCs++/CX1qXSsJ9Mwg4464AOPUzyb2dwn9sPYKEfJN3AJ2zee1mNZT9DywBXXuT0J7TSE6r68RnIuA9018eZ2yV7C953dftr7AoTL93CNfYnzav/AK1EeAO+7pzuyPpVdn9LA3c7ODPJrMYdR38FsbnOX7jt3n5LeytqwsBUq4hWBevxWtEFYe7Jh7B4Uu2fk6h4UD8/OvZhXXL7Fbu7Z3EscjVHXyu1Pd0J7oMhn8UJYlwLTU64O2rSLg0I60tHnPpz+AW+8dZ+JnDY0Pn2S10l06XlcoG6+J3CUo8ai3pTYOQv8oK9oZYIHhsPsp4Lb71Bwx3HwSGMcN6GqnGnQvCktP9pcx4HjxNnXL3ir4kN8RtSvIal89+KVvN++eBr0ZhZLR2o0WWYwMomadWpkakj95R7W75Edlqsa2rnu5qvlbUtuYvO10U7q0KzL6SvAaYrMY6iax7gGrCHgBC+Q5iz49y9aL32UXfZ+nlXeU+4ct/2kOFlN+rqfwjHwlTjCF7EDu2b8ys3Z5ViWakWQX+NdY4zHXyML/sgykWd7q6iVCe6SVn65f6Sgdi752F1HnAJ2HdGg0JHIByAIMoPkrnE2NIpIjxL0Pc27sNxDINMZ9oXCzGDnqbwCInGuJ7qTUzfwg8xafobCegOuDWcBDhpP/LEu8zuzUtA50xGPgBFQl3e1OFqXLlcP4piPy+urMNgXOYzDeNP33qgzhJlFjZM5VTAOQJ8N5aV4yBFlhVQdwTIqMWdoHo/oIBZX2+is2tdzfsQA+Bhrk+4a9HxklbAndnlylIHHwEmBqqD+wbUL0zhmX3fiRv4YZfUsiJ+08NQn8crt9mxW3csf4QX5j543N03C6rR+P4rwSjwGvneqgrRdtruN+1OZ/Tszdxe4CJt/5caKWeGqkh4ed+e3gD2/+FK8Gs7qPWpOpecrOg5w1/s7aINGDtUE/fOs3nU1DYQJbCLTK/J5NkH5brQ4uRPZtWnrsW2g2qBfzPBI0Hixv48ZpF25DtddnaG6dmx1b4aH3HzmhhoNRQVH3mhyOu4zX9v6JQcdeDKVG0c80/wcDEv7ZxJtMiiA7R/71T7wvcrv0D++brE/Ro386MEe/os71cbVNbG3ocAP5ASt6+hHDYdj6Q/XjYXzBBTuNzE8hG1NQR7ubbtCUmK4Ec8Z4ftRwp1tE+J1GnfqW49ptvvHtgP6hQFr5cM0iLNjRpxbaIOvwGSjWBrYbvPkJkgPeWhNgspXPnw/6+W+3SBPbeGrerzHnZWvvFOFX4Wb4z0G1THr++6+HjgaA9q+yrhVyzTfC8Mxb/uEUSylFXWaV3lncCnHfOZvDvkgDfnPpofHrEoD7o0r5Gchq8jaCNLMoKzWDa1s0rD9HnscXAIRrmNVOSKe8rSy4b18kOFmJilj4H9PtbNy6xDcWOhWuKADdPxYzmUTPTUbMoFw/BhnP7gJ80KWADqpxzrs8wqKy4H8h++K0fsfruQ/Dh7KRadydVOKQUEuUatB4ivkPKXpjVige572ULoJJTxKAV92gvnNZ7DThZEZzGjrscN8OV23hhtPdCM6cMxrlR6e8IKzZ6V/odhl8uYAb0cQvqnC9KQhv9LzJWYbX3TnK2kKtWAg6yO4XvF5rDYFtyGDjrZHTPHjs3VoMLgG56CX2d1AZZmy+sic2zrLXeAIha9Q9/F8DWRRaVTYphxyfSeB4yvPnc07uoUQwZppnAkr3n5FRTev58c6qy+UQ3Hi1wl7TkxPYDbmiVU34q4PgQNCzrbsM4OD/728f/pd3m/1Ky8KKtsSeFfwMSJmu5RxN6XUDJFBvG1dhofCWaght+MsX8PBknaw2vZS3jTqzn0dwgWcTsA74hF50jO3X1j5XvydpcZhBNDPk8H+gSITvmWq7ZJv3oPw/YZWPALBU6mcGeYZjxuW7G+b6Aa0V3M60NmeBY1wOpFTkfRQ6NURroaUSs72q2id2YqL+AtDw8XNWVvwb/DVDfvibBT5n3F1ez639TgeXArwizcSw6Iv4BAV66qOIdub+cz2O4ZuZOy4C/o3eAo0oPIGPY0C81jG18FehJF7HeNEo0cj0HiaMGwD6MUMy7G7AE+FR3Qair0ZcbvGP3l8ycOG77Ar91YMQN+Xto9OOXxyvPuvIon+I4/1DxZyvPQzfI+lCDtFfliTYDb7RSMx91VxLZSYMPIYNN58ua5ct3nclGiQb/0X79yhkUJF8n/IsDKvHrMcwsjlQT6VJ+VzDQjLqnh9GyJvBhSOcvLdvBHwzavYr8C7oa61m1le9SCkjHNZVa4m6GJ5x7tn7+eDf8zwxXL2mzMH3vnhMby2tJ50zxp232OI1aOoSgKqpxQ0HhIeQoi4OACc62JMO2cBd/CKymwGlZk7EDzutHM9VOHiv+uTmyIcdy9huAlDoWo/Kqytx2DepTCCg/Q5zDI8PUi96Kzaz2/NoY7dPBUJATgTRRA7aAHgzGYT4Hu4uDhW4VN1bKzwPObd2Jigu8QNMW6g+S2usKtxoWzEpqK9mGk7fp3h3U17BjsD1k518OhucRbj5hvXPiwn7gYv0kyX9t9RGvfT1k4Gnce0TWPtzm/tPpXZ4yQatgj63cKs35OY7uJsYjff+PUiv87zatyhWq/ZWt2H066uZqY5EYNiHi62dzCDdHact/2/AIH8C4THZOjg4RjumvXDDfOY6akYVNwPYtn79Skt9BLdwNmf5W0r1kj9BrQCQyXkhq+cX8GkoHMG6Nqnm5fcILbIwU6m3H49Ap5epaFwJcLxnkxT6UUf9UH/jUh/Oq5XN3U5q1NgeHSkJ1JdQVs9RCG+RES8p5gdAO12ZlOVM87mdnkSlbi5ecudrgfTz75z7BGVngl+K8sQf+A8W3lIgSMNVKN+kGEf1nVdH/YYTF3Ivtp1JcbMXsDYChx9L9Wdy657/ZHzeIVtcCZ3GIfIyCvyha3/I2dLx2EaPLkUs/33Hwra8IpyfC1pW/rFDzioxBWgGnMe86mB4cc0NJQUlP3gNR13qkdVbsMswzEobv9ks8wfcVF3Q3c/4K6nJ/OeGAznUOWxDaD11Swvebyp/dYs6IdqhzAkdS4j7bb71oOpW57CYDkOz8N32J2vclbJwG4ruG2rcDMsDUOVngbu89i86OTBuDXFyb7/X946UNHp1v0pBt65/Of3/PemD32H2x3xjuePsp9DA174lvXDEdvAq+9jacdlvA4U4Mfxft0N38n/Ghz28wbQ6iN4i5R3esxcxrgeuaEQ+jpHVPrRDoMKeNfvPpi2Zwy/k3OZ9ViqKOUTl2SUvSdzdv8F8O8oeMi2Oib1RPq1JdvCYxgFnqn/L8Zj/jYywxB8U9qcU+WuOnZ64KGxoFHuSX1+Hc02rintAuG1/DNiFHCDLjDAUiyeRpBzDfaSvQoX6Uq0E/2knMl2QM5mVr9I5LGJEcjfikBpDqbKkKa4oacBgAiFjS5UFVnW2rqzMpTVwY/df67fweyNADw3YvXCwEsRhBHAy92ajbobmZff2GQNhWVVWBWwOacK1U/rubbixrFe2h90rOa1AdQ5hrZ0g0PeqPJNNod5ZKPhbgT5E7/1AIcIuHYKDRA0b+Z9xq/xgYd5lJlIPc/krOLzbl1SvN+KUBJstRp3E7vu6+AwbVXBV7OW5f6mTz1Yozm4hhoVAEx3dt5okvPFjl7qMuTPSjYQIlp+6YHuy6R7FVELlHXqNtZ95zWEEEKrOW9ul0IkioKP9G7gF7H8iCc08BCOTAPpIOxe+aIsH8SRn+ELjQT7OL7GA3NPRThd+6rpaQpwFO6fvWJ+eh9ei07clcLUErvoFeunfVjiMNyMstzhBw9FG6xLxRqfFzRvgW7kix+UsTxuUMA6ljRcox0RW/4ASA+GMybbvK4oX7GXBjbdWZybsd7Fa2CfP3C5spQk5llVyHmEo6zQlf1WDvXxbO3FyIxrj98g3peWb6Rhzr8qmObV67EnJ/P9HeWUlZLwLb8mYamWeM5MwYYMEQbIVmWFeyGa+81DQ1abB/jLrIcQnil4xteC/KznN/n8YJYXKtg92XzZRlY/kTkFw39TDiKxne4LmVt6NP3yVvNBLo6zXEfUAxF9l9p+kS9DPlH+c3zi8d2cpa3RrPGyB2eYX3Xf8g8zPBLaWc/aDCNuDVhmcU2kOchvIRj5ccaryzfeETW+ktl7Lbn2UpDLQuZvDrmTvfqeapVJdZH438nsJSt3YWQoq4PfA26+L9m2/LCiYEgNBgVjp8e6EZwZyajiMFTQ+q7WN1S+vIYovlrkCnvXWpqB2w5fOzFEm6nfGZ7BTw9uxgD6yzHTw9WpO9TveLqLUYta5evn6S6F+VXkKgI3olhnIwBKYW1b7Z/VBT8X1iGeBLHIyi0iyp8qPwyWLq0zDtJzhVm39CjpHt9jrgLmXvpKE8sJw4EfPNjEEyLX3K5V5ZU2VRoUbYMvQqEtR8LZRvCabWCym2kQMxjw7uLrXHp+3rXrhDi5TA+N7mvfu94L5ZvPfP41bmQ/BhJfjcLQsO98a6B9kE4AtVhXkzdsq3LWfrBslV8AEbjphcn0XY758L6TjuLsWNCI+Aruz6O2HhObBO0b3Z7mIcuQIacp4A2+q/0bNrX9De/B3/FSuE8ixmfJ5zl/kXv5r3nExXGnUvnEJQvS31Hi1ffjxWVNg3Ip16UyzzLE/vI1QV/bzKEqt3LcmuQRXz1YBnlEXh6MYKap9K2zDfeMs+3ZpdLVahFXy0lz6VhtZ7UO63GJQFoFTSm2GMPcrzfFufAYiBpTp7Pp8yq+iuRkRrd/M0zhPJZhxClgZEFYOkMR0Q6345y5yHDVDrWMSTKkjBch5y+eVvgVjrmyQsqJyiw7VqbJFVTl2OrgN8qiiBsBeCpFQeryM2Rrr5FnkBuKxURa19GqgvliMHC1fumoEG8O5gk8Mo1Qqt9lDfLlvDrkOdbSdC/cyv6vEBgQDq7XcJ70AhR1ttxjbaypGttlHU3RK4DLD1V62HnRtzmxvGr5ZmDVfsjZqv00GE0bdHcG3ByoM/OUqUPxhMWa2/VI8lre/IHrIHwRhoXN5L+LPnHW9sWrFqSv4HnQ6neGlT+YIZ6ACmPBNerf4+7+CLu4WxVK0Eoa2SbXa93AslIgrUrn4BeyDcYvMRYAMAiUlcAOtwhplPF2zL6WvREXvnT9WKP0WZo6TrisURCWxopLZLvwb19V6TgYkKx87ReVr4bSx9mToHLLfZVxHKz8YHGxhlom2M+20+BVo7C61j0YfjHmKnxRhRGA+BGnGNtcg44ZyXytZgSAr3npRXGstcG/BnHJuIrHYEVzHeYXD/PpVdLV7DedP8iRk/K4MqAN19dJ7HERoTjcyEKPcxhxChjarpKp7cToyOberHRE7sgcNVTWHC/TNLi4jPSiDE+NTQAAQABJREFUYMrxOa8wVwe/UbY6sok0PtpXxldhCneoENktuJqQ4a1QT7VcmUGhYBtCCGFV3sorRnvj1vFAiANZJ3V9Mm+McPblpiyPO/w2m6o82KOdAaaBE/QRp0HamXFZDcor0MO8g5Ubqh8y7Gr6YDCEGSj6Mwg9TM/15usKPFECreYro7yE0GmG25w3MprX+pvpReYQlCVuKmlnbV9F2NzMur1HaHo0pGtxbuzzMALX9G8l7TusxZ/DGiAyC+D8lw1QOTToMkSbLWKwyFD0Ma0EadZ1KkS7aLt87pLIreyofxnvUp/7wvXcg4kxXGxqlHbVLhmqkdLTf+GFhyEIPFTuUrmT35maywjXzOhNx547q+grOsgx+GhCtdrmvgk+qgBtTjfJaqv5BstjvlyP+Sv62qTloWyD9OPFi2ibithg+zKM1dVRlCiUdgdabTHLTtvzDrtvWITxAv1O4+2Da/AcdOEhNU7YQ8HN8P7T1xGngCXY2iDqI4EReQcpMEhUoz9XldZowxCZhohuwG6+eaT5c/kot4rCDhCtVE/yuZeX49/52zlxYIObI9wZblEV8EzWcgYYELGuiVszr+U0QDducs2P7Lq64v9uutg0YDRuVo1jZHsM81arolvCDeeu4z9g+JzHhh3d8G7oczas29Fzuufy0Qgb5mZEg0rXsjk0YDZucsrK10aWxs3KedbFGJujMaUnoItZ5/lsKlMJn8nxmu28gOrrenn9NrevSsMcV72af0VKL0/N5BOG2VQUKl/fGDiCTXRz/WIPhpLjTiWY8y+HsPq7VZVZVVoV8prkGypPNb56L/xod0lA05rTqzh4X00vi0E37pglfIBjUeV3DRgNni/79gHP3g+XMCIV8HAh7n8DHo2ZMEJhTBxywoctOJ7yIZRujA6kiDslu0hzZubsq2o9/zfQ6PFqo7T282sKcmnvTtXoE+STn3tzJqDQym68Rzujerza91jVq7x2jdt1TGl2Nu9KP5v1xTOfO41d7sUGM193yXydxXtWCM14NqdXn3OZcAVTscrXg3hewpsDvu6msasBq1EwjPRIcxOHfqaB8mMOOl2aQ6ZHc/yqnqUbLB679Xvom33Zze23v3U9u/Z7MifHXe3aL5OD4TL7tT1VWqyqfXVaTYEhKaArR+Z3Z7Szq9gYBdN7xrCbxtzgtcg0rHbz1uGxoYC0dg3NPQoKNTfj2SfurlbZKohM8z4rj8cGs3WvllDCSEuVsDvJ/8RrgXv9cAafsuuJWZb0dR3ecSCL+5+DaY1/b8qQb6v5XSN2vLh27qt1X0FxHHbmzHitq42pc6yTUmCdU74Vgtg+g7Ii9jSU9Fgrl5gRLEtv48hhg7NdX3/8CvshfJfPTYvDKdQKeDj1xjqKiyzt+NIq9yqPF4KkUMwKd9O8Di/2X0cJvoZoS2uVsLQ3aADZL65BNqfV/VLQaFW/QTNoqVHjJsLbOG51f16heT+flFzAEovuTukdu93JozI2ELX8n4fqs1nc9KQxZH7d024gugmX87N+Piu9nUMqlqJUloXbudhNXoIV9DoZ8v4QDwfynfl/N0hPaae3oIcNnkewIfRFfHZTxethIn5b+xbeXR/NspheIftouNBw5L0H/O/2Zl1+rVDAQWEYLoxeYFP/2i91n/x7fJAFvspS9dHL7v5NOATlrRwn6vnpbkLMQWPU19ryjNWrkzSDiiBOaioeo198PekbbFY8nQ1DfinJdWcVun0m1HW172y3hmA/hoaH78QXpojzPP3zOAf931WKwrc/fNtjV+B7sI0f2xlN5B85xMNPa+oBUlGX5C+p/vheagX8+NK/rr2mQE2BdZACCnGVq8rUmW+v707jXlgfRew71n5v3FfxNuGDFCqXoYJLM7fM7YvPoZ7DK0YXcVKbCr0dxWs5Z9uDvTo3FLx1Id5DPHz3NwJtHOzwnEfdDuB5YE7AL+k+2OE7jxr+Wi5YK+C1TNAaXE2BmgL/XRSI905xETubjTMBmHk5zZrAe/FbcvjGkzgGdhqbtXSHrsf6sd/9ZnKb7mRT3C0cTHMvz/2ecEZ5X9HzVTHXRlXwKuFSVY0YokqnbJTYtniHfS21TnieoaR7GxLHbDd7ENZSFWsVTK2A1yo5a2A1BWoK/LdRwImWwt5jUXWzOiMOxcJMz/O+w+9phP+GcmYWPmXy6hp1wxUfikQZkY18PEa2XKQoODJ+bZ//EWinbV2bYQX4AB7scJ21Wd+/A6t+DenfoV5dtqZATYH/egqoS9QhuopVxDELJsJZnh8GaEMD5HXfBrEoZF535aKni1PEyK8y8l+Y/o/EEAqXNuawttspratKfW3Dz3ivjWutgNcGFWsYNQVqCvzXU0BBr17Ja7Y+O6MNVTqYFiiVUChdlHeZc8Qq3qKFj41hMRi5c/3D6Vor4OHUGzUuNQVqCqzzFKgK/7zWGZq5MuuralnzV8us8wSoG7DGFKgV8BqTqs5YU6CmQE2BR0aBFRTrCg+PDE6de2RSoHR8jMzG1a2qKVBToKZATYGaAsOVArUCHq49U+NVU6CmQE2BmgIjmgK1Ah7R3Vs3rqZATYGaAjUFhisFagU8XHumxqumQE2BmgI1BUY0BWoFPKK7t25cTYGaAjUFagoMVwrUCni49kyNV02BmgI1BWoKjGgK1Ap4RHdv3biaAjUFagrUFBiuFKgV8HDtmf8gXtXzAB5pNf9O2UdaV51/aAqsS/2wLuE6NMXrlJoCa58Cw1oBO3Crg7d6v6aksMyq3n/PdQwFe7D41cEbDLfB4AyWrxqXy6yqvmr+5nvLWzbDyemeD78mMAfLE2UHS8jA1+LVatZ2VSudybsG+FbLBE6rQGoVSWtQ0/Isuc6obxA6+KWcnGapnH85hEd+t7Zwb65ZXJvDqvCNw/SbCzQ9DwJyhRxVnl9d3hUKrqWHVdWZ276qPGsJjRrMMKfAsFTAwZiMIAduCJqSUxX+OVTjG1/WILH6JQzvzReKiGsunvP7nOvIsCNvWYn3VYUT5SiUj5fLcM2eB1U1f8T7Q4j44jbwyPnLqLiIi6F6tU7zmlQmRx4fcvuMyOlexctgnXZwM06j+foKfxG85P8iZvmv7cxpXg1dFOSrag1cmtNzvuZ4y+a46n1z/pzmVRwznj7nkMv43Awzxw119dNxOW2wsjmteh0oy3hmrzTxizfVdO/ti+gr7oPnyNcMPz97NTQ/5ziv4mm/W6c0qPKc5fz4eODiAyHyF7er/BXHHDKvCML/5jrMl9PKaoxqxFXvc77IUObJ9+Kay+drtR+qcLw3f/Nh+hl+voprvvdqyM+2yz7wanvtLu9zes5PVIT8XE3PcWaoxkcfE5HHb05rzlelZTXN+9z2VbWhWr9l6jAyKTDsPkco4zn4VBoh6Bw5DIGlcL7fkRzg6uAq0opnGdlsxlu2ldHhV0baeHDAWKaRB8Fm2VKmFl8Ei3zLEt/TbsCwVsuO6eBj2yDTT1o73/z0k2P9PLcC0IHUVsZF3cBVuZlf/C0vZi3g01HBXWRtT6vIlkEhIaw+Dm9XAPVzFf+WlqLunFW45jUUArqFMrbVmgj8RB5Ad4KjX2bpog39IGi8NS7lg98taNFlAopCFiyFynKUCmJQSYbrZ72W9fAEnq3ANMF25yA+RZuLekwSXMTnTJX8OT2SzFimBQyeaXoBj3pNzsFsmR7m9TmnV3Ew3hBp/Ji3k/6RXkPhLdzoy8o1vs/KJ2taABAw+WkpEcht0yiht+ChZWGg9PQXFVfrzu0ToVxPA7/yJj5pB33bAezH2C2/LBOkQQcQWEoKf2LURj/n/MJdFoVILrIIuVF1rtc0I4MnynuriT7malpuW5ncoLn0MS4Hs+cKAm6ZkMs3GDID4hofsfczQGXwLiebv4U2Wd44f7IRVD4WNCFDpBtJyNAoGuPBMet9jCVo6nM1fzyUhQJX0nOGDMv81XvHmfDMF2kkWtZQzRfMBrGj60iLPGYgr+PSvg1687xCOeGU+eyrOoxsCgw7BRxMCQO2w6R9jBh5scOBxgDq7UUJI0D92khvKZxGqSBl5nJEtCAdSCZfa+pRo8LEKqA+8oSwcVCQR/gGB1MLo3uZdZCvk3SFqMzvoOldBAy+8NzWgRCg/rF+MJt88/iAtvcLjePZvIu4X6Zy6wQD/vwwtMaAH9dehiJcZp38OYtUAC3kw908RhtbqGZABEkT0dHA6OGr3cqEUQDqjzYCDzpkCzpGKhlaKWNRg8Vt7xLq66f8WD4K3t1NPZRbRqNs354bjUrXzepLC6Qn+bPAzsaNOBlsVw/0UeB2UN727b7hqDSbNt46uy9o6IevpZXVq+Rtl8KyRCfap0GiUWFcITIL48hy5tUYsZ3xEW3uQ0BRZr3RbVHugUUDRR0BtKC1BpaPGjbCEYY8sNS+I0KlpcEmBy1FWZmqQdO7eGl89FwDCpQiFEqzMPJkGWHaljD4uNrvXaNbA5dx9IWwZ0BTu1O62/dLoTeXNIp+WwJ9RpOfKoN24qYS51Lk5Sp86zFwW9CAq3w5AN8P9GH8jeEzdqRP7mpNvWSaBe7SxmIT5QniukFgMUaR9XeSX+PCIG5+F14crDd/oce6TDPOZA1G+VMDYjSdtBAC2Ifmk8Yaj0E7MOnhWZoVhi0ZiBOXshnRttyfJDbauun4tjQTei2Ch/3urfQYAOc2aKWBuaxkQPvfujaCZ22r/CmuwtRwCuXHPVFpDKfYL5TmPhBsT2GwYsQSH9/hpbD8PZpxOg94XSXNrMd6NXali89LwG0C+aSJXzCSXx1n/QBeTg8N5KVpPHDIEvR3fGcDKQx78BAXDfcFdEB855cIwEc95rXt7bRd+dENvaUxfwHP8RF1k9++5FKHEUyBtpZD3/WR4dA+Gc3B7YD49AET0xcOnJRmIMgehllPP2Jqeum2Y9JdC5em1+80Ln3tkMnplrn96SnrjUpnPXdq2nJSe7rwvp4QJqMZHF88aFI6Ya+J6Y4F/WnLye3px8+emnbaYFS69IG+EMgbj29P337mlPTOXcenKx7qTVtM7kjnHb1eOudfS9LrdhybPrX/xPTKp4wN5brf5l3pS8A75W8L066bdkXabht1puspN+v+vnTINmPSp8m/N0rtmhl96TXg98n9J6Qf3NgdA20UQkvD4YznTUu7bNiRrnqoL53+7CnpgE0604Mo93vm9IdCn8yAvObVG6SLacdhW3WlU581BcFRDPSf08anb9qZrniwN80l/3Ohxf6U33PjzvTWXcaln/9zcfos9FLgfvfQKWmfjUelW+cOpPfvPTG9c5fx6dAtu9LfqHfuvIG052adQdtT/rEoLekeCCHUD501RBQ4/itwehcMpLfsOSHNJ+0+cOpCQvfMH0jH7TY+HbX16PTL67tDySxGOQ4gXQYQekpGFZwCU2NCAW6as5kwLsiyzHiuAyDbhxFDlvhX0iwVDnh0cb8EA+G43calp6zfkS4B1zH02WJgG4S5FEGu0FoKf/RpqCjYbANImK4QNH6AmailWonw+ejtx6Y75gyk7sUDobT66BsZr492ircSX8NFJd5HfVNQBgfDAzPoq6O3G5v2h+abo1CuuGlxGjO2jZlM0aanrD8qfeuwyem1wF9A/dfdsSQURa/TLkKvNCbe+qS1Bp/49PMsza1buvfA41vC1ztNHxWzpBfBXwfSZ52gecM/u9OT6fdDtxidDiJuZ2iz/pi2tAQi7gVeN9zdkzpUMtIYvFrQPl3AHIOgX4JCH8f164yds2/oToc/aXQ6Ej67EN5ppcxGtOW1O45LF9y+OC0FJ5WYNLRPQhGhKDT0NHDt64JXrMc20Q7ibJvtsJz1q5z64bHvHTk1XXpPT5oNT6msNVVevN2YdD3jJQxLCmhwgF5aAn9/FF6WnW6Fhkczng7avDNdwnjqQjMtXjiQnjClPb0GXP/yL3CnTB9l9RxYqBd+3Bh5sM9mXekuZMQXDplEn4yLsXbr/T1hmPeCr+3SCOuHfzpVxouXQZMxabtpHekfty4OZb6E/rECjXCqif76xEGT05t2Gps2m9CeLgK/Xuq0rRpNQTd4Zj34482My/NJH4Bu0kZ+8qpR9yL46AbG4//sMT5dx3X+/H7wgdYlvYMv4BHrlsfrMHIpMGwUMGMhhPSkrrb01/t60xwE1qEMvK0YTLcxkP6EcHkXAvlVZz8cs+BnowS+/vdF6Te3Lklv3Hlcuuju3nQfCvQVKNXpCM0vX7UwvZHBq6L6wF/npf1QYN3AvB7FsRHC8jvXL0pPndqRdpzekc6/pxcFPzZd9kBv+tFlC9KeCNz/u31JOg3Bvw/lnoYw/A7lPvv0iTGT+eAF89ImE9rSEQhbreGd1utI7yFuLvC3AeZ+m3Slb12zMD3ziaPTAU/oSjNRNN945uT0h9t70gMI2GOfOiZ9+OL56ZoH+1KXMyZmB+9B2R1AXeff1RNGwOvPm5uO32FsunZmXzrhwnnpzbRxBsLs+tuWpP0RFFtMbA9h9z8oxEvv703bg4Oz1Y0Z/Mf8alZ6CQbEfrT9kNMeTC9gwD9pSkf6I+3ZDbrNR6A4A/6/l6yfDtmiK4TxmxAYf0MgPu/JY9In95uY7keYjkHgjgO/N+05Pr1vr/Hpdtp3Cfg9DQPkN7ctTv2IpZdCgx9gIE2D5jNJ/y2GzEYIp/1QECfuOzGtP7Y1XYLw3QKheSIGwcvA6w4U+bv2mJA+ffDkmK2jC9NXUQy7YcT8jfZ+6/DJ6TnAVd++HGPj4G1Hp8uh1b7Q8ssHTwoheuPDGFMIrOejoM7EuJmFID0CpTKDQi9/6liUTWv6OkbWrhgjO9N/b4cvJqNkvvD0SamT2YmK9idHrZe2QYlpzJ31/GlpL+j1G4Tv/x4wKd2Fsngp/XQIdX4MesxDaC9BsTkbVYE8g3qP2Gp0unpmb1oEPb+JwXQRfPu+C+fGrOfl8N7J9PndpG2LUP/+c6amPYB/LIrjmSi+v9POLz1jcvrgPhOjnWOg87cOnZwmQcd9NhmVPgMO0kkBPJkx8W7440nwxy0oqI3JM8ZpEmEe/SQe79x1XNp2g84wwsbQ9ldjSP6V8dAGDfWAOBUcTbvfCh99H14+BB7fEKNmM3B7Fzz0AHmctU1g5n7yYVPSC6H7tdA4+AGa7Qzs81Aowv7g3hPSO3cfn26GbsfST585cHLaEc/Ie4nvQotOwSjYZcPONJUZ+cHgRtNCob4BY/A58J94/AijeOaSAXilLX39GVPSEpTwRvD0KRibGh+/hr9up88PevLotB7wNmJcffvwKWkj+OgWjMstJraFEfY1ym49tT1dB66nU/ZgxtzOGNuf3G9SeOmfQ/3v/su8dAVj++3Q8AN7TQg+ffrmo9MHeb4bhf0R+HQL4KMDw3h5MrifBU/1g7eei5Pp21fQzisYM4dBNw3tk65ckD5Euc2QT4fTpkMwij6wz4R0GGPTsbU5Y6AXeGeC01PB5yjin0W/j4V+pz5rcsKO0BJJsxgzH4W+72F8XYkyfhVj/tMY/NtMa09/Ruahg8OA5FKHEUiBYhQPg4YpTOW2xViMc7BUj2IgfQuFMZ4B/fe7l6RbGUALlMgMNJXGz5iBzMEC1oq/DAXUgYA5ESG6B0LqH+S95h6sUwTm7xAax8HUWzAgtmdgn/jCaVi8yF8YX2v3lGu70+03daeL71xSWNEIWoXtAvBwUfjUy+ZjSTNaEBBTEL53Mov8JoJ1fYT5X+/tSRejXH5LHT9EOOja/Q6K+AEEp4PrZnC9GYH5tUMnpa9dvTAMg/sZ8LbrwwiCtyL4usH15eD3tA060k/AYzoK9DyUnIJyY4TTP2j77ggYZ1W/vGUx05i2cAHbtodpwzf+vjC9F0ECtuG2c1b0/5iRP41Bfy7wEsLij5SbhjAUJ935usIVUvfiIfgHisBBbluORqlcAi2V+gr1DWjjUxEEuj0V2i9AwelanehUBWve9NeB+3N/OSs9ES/C8QipG4CnQbAPM7LZpVBPszXvUyidLRGyhzyhMwyIN/1hTjoYBSduGho7YER8CGXfzYzmVb96ODwav6KPr8BzoWdCg8Q1bWf97ZC4Axq8hftX/XZ2+g0G094YBs6SN4VGKj3dthpit9IHutO3Rcj+HAV7Km15D7R/1W8fDgH7RpTiElD8zKULktowZp9YBU8E19vpyzOYeVpuD5RMN/0gPfZFsd82rz/NsK8Jxl0IveeBx8bcP4W2vBBj8VgMjmdvOTqdTTvMcx0K22ULvQjq0Lf/eW56ObNBZ443PtyfDoO370P5f/vahfRFTxhWnbhbT8CIvA0+lAbOelXMzqq2QSFdCQ+dQd3fx6iU148BXnwIHlq9kVnWBzAc3V/gjFS3bQL+Itq5mLYcuOmo9DD3ukI3h980SjV4Ff7y4C7wyRxosd5o+AY6Ph8eEEfbcvwO49L20Pm0GxeFofxLaLQd5feGNnRB6oQu28C78zCO6Kp0NQpmD5Sbbu9Tb1gU4+ZD8K5LGm9DOX8QXDVkL4QXzaOFpVyYieG5P0bJqbTPMejsfzOMhw+j8EGDvuhMX8WY+xd4H/+72cF/Z97SnT4JrC+gKPVQ6e16EcalM/fj6W9xtP0atQcxW3YcyCPPgB+fh+x5Lkas41la3jCrN4yrlzI+bmP8P4v+3BNe+951i9IPUM4aQVMZFz+9uRtPU296B23Rm7ETY/EBDLCvMvbvALedMfxH05enMZv/xa3dUeb9GKJX4tn6Ih62/2GCIT2F6wxbftVDUrjtg83qnxFGgWGlgB10rmf9+BXTcSu3pUsYiK6THcCAOBq3z78Qdt84dnraEMH/CwTa8Si9ExiEZ6Fg3DzyJ5TVjQyWQxggL2aQadF/B2ZWubjGdTEC7WqYHTWWrjx+w3QT65j3Ioymo8Q3RZA5e0VDpfFkHmsBBvf2WLZa2OsrUSz3QE/MdMXhIQbXRAbet69dFDN2Z5mbIBy2BNZWwHJg2iYVgDPUQ7Get0OhKdBvQiltgcDrYga+MYNN4arS03387X8sRPD3p1nA3xyj4XfHrJ9+Qhlno0okZ3cqTYXvOdBBgWlZZFUIuY+dMztdAC1e87RxaTozmdcxW1Exhh+NcnMQOjbvWpTzTcTrCtQVpkJ9L4pJ4apgcxeU69XCvwxDQ6GyiP5xvUxYrlCJh2t2ra7lUeQmlMhl0FsFbNnvXdeddkCIPRM3+KuYUS7EVefMWqHrLH4Rgv8YcNTN6pqffaZi6kTJTIG214DXP8HRWZMu7Rswat77l7nM9kal3SyDd2EThLHrd67lPpe6NmN2JK5XoZh6wfc9u2OggJzK2/7YDLqrEMTbdrq+eBV84fLH9vSRnoznoTi3pj8fYqpivmng4prrePBwXfCzVyxIb2aW+1yEsrPIhzCs3rLvhLQl9R/CjF038KbUI04GaaJL9NJ7e3FnQ3/YaQG4aRi6tv7mncemHeERaatisM6J9DdVhRtZfrONejmkue2wD22nhtSeKLbLMSIV1kei3L92NcYExpzC/SqUAtlRpEtj7OyPobQv7YSN0kcumR885xKP/OwM/xJwvA3+1KjTmFEJfxkFoY94ETS0Xo3FH6AQNQT+ggF6PzhciOGogrMNLh0cyriyXun2/Cd2YXR0haLXONCIk9+0c6/FKDkRj5B9oiKbCg66amUo26mXiclyuoD22TdUH8anV/cHfPTS+eluZIP0crYsn4yl3O4YCs4qL4B3X0b73HNx3l14tlD+X6A9KjuV6vvwMJ3ELHQz6OU69yj6Rnrbc3bfDYyPa6GjvDkJ6/0sFO3lGJl652zbeuCssadXYireCj0lIq9C/zO02Q3F+yJm8q4J294JxNu/wnbV20mG7Xa1YjFlz7+zJ83H/W3bzSSNDeWleKh/RwQFho0L2vEGf6bxDL79mcXet2Bp2pFBrGV4JMrFjQrfxOWs5ToTQaIF7GajuTCqiu9iLPa/38E/guOJKL/9UADvPH9uuIycuX2JmdDvcFffgptwAwT/1uRxM9YomNwBtA0wdDf9HqHtwLkbBXgXOLxi+zGhkEw7FWXyEdxMusMvREi9GkGmdf4NXIcKum+iOF/5lDEIytY0l8Y4YPdGMJ7wy4fTv8D5CoSBivbUZ02NmdSncHefddS0dPLfFqTTLp6X5kODX4GjbrMDsMrf/qe5oSxUWAqsbmZp/wLGFAS7s1/XkO/AIv8Dg9wNIFfislNAXjOnL91CvEJea/w3rOt9FyNBl9hmrInvwVq2begk/V5gKC90hakU78NF7qYZ0++l/Q/RPjfE6EZXsCgMnF2Lp57NuSiRj+Ja/jFWvW4+HkMIKtzuYIZ4BMqgG5yc+SucFSJ/RiDap7rcv403wBmPwkxafvmqRWlX4B+2RWf6G+25GwMJ/ZTuRcCK0wtw5f0TJe8s0H7Sw/FZhOd1s/qjD16D+9l19svBxXAV7sANcYOrOM9hdjoPftmTmezJeA4+s/8kZnpL0tnM3FRkUxCeG4xrTedTjzNJDbSfYtypGKdTn8LczVfO6Jy5/4V2qHjF95P05TMR+Cq/UzD6nG2+ZWdmdQh3Z5ezoJ/CXTe9ykQYRzMjk8c/zyztBtqkQXI7NDvr5sVpH2ZYbiq6HoPjTtp+9DajY6b6dfBWEd/COrazK42K36GYjtoaulBWo8ex9BP4fQJj5F/Q4TZo00YZ12tvg6/fgddAxfXpyxekN+yE+xkj4/8YOwuApUFqP99N3KaU3wJD+G/w9rHQ9fsoHhXdaDTwXuB3NYrdvHdQxrGoK38CCsrZ/r642zVAfnbLEnhSJVt4IVRYzgA3GdcervRTWY92xnkXcM+jHW+GZuJgvzrOx6EIZzIDd0lKN7nr3RqIjtfPQjcNPRXYtxh7B9Enh2N8n4JhYB9rwDlbV9G/6rdzQvm5LKPx+zQMX3ci/4k+PIIy5+DydmzeqEFKX7gMc/I1i8Iz4x6xh8Cll/FnHtf5beeWk8ABQ0ya7w4PaGC7RPAdvBca8NZj2X/Ag3p+NMjPhIbrs4PsSYzDf5Lu5MEZ+C4Y2hqW09h4eCPxYyh/PeUcX7HxkjFQa+AY0iPqZ1jugl7moiCDzBCvy7gZgkd3KS9TGpvkv0xZhg6s304Unzuf3VCj+d7KIHFzhht/fG2ko6vYfbwEpu5XCloHgjJevRAuSqwVA8Ady967icVXdtzyaN3WuQxcjI80ynjN+VvBwd2obnkMXMGthbq7nAkhgGOnLsltpPejoLdCeOzB/+kIjPEI+AUIRQeb+C5jsLcgWGxHwCfeNrTYJnE1eCEudoeKl/Qhv+VaSRtAaETgfhSKxQ0jbjj79N7j0ztxfd6Pgm3FJbaU9vlqUQvX2JCKkMt0sY4wVGibG7NOYN2yB9qdxKyjCwG9BEHtxpzYYU2eHpTo9gjC9+DycwfyH7Dmf3zl/NSBYNH6V9tPRsG7pvnhP8xOS+kD26VydrrXwiximZYYIfol84ER4iJqJY1Ucoal5G+8VmVZ6WS/kDf62KmF98THNe55Ni/wfaWqqB/YZiBf4CBv0Ka4t6x/ghA9rvFP2+MWgblUvvVBnK2DfpYnDBbxx138bnrbmiWHY1ib/+jvZ6cOZkPuyI1AuehHeV448iFxGYdW+jYMGeuxDi/k6aK8O98/xnLHXzAg/oRRMRrF4852vUjOqsVNOPKWIWDRH0EvEQRO0Nd8PLs08AnWI0dT3nXNz10+PwxWN9rFq2jSSZ6hP2JbcHmN/nEcADveCCC5QTPjGKe5PUEvUZP/oGWMH+pvwTpswInyKF7HN/z2WTa7zUWpf5IljC742hl30FWaycCOG9vFX0wzwdO22u5lEJNepZ0kEh/5uBQdW+BhnGNOnrKdgTt5xc/gq3iOsWXUOwYl343h8w42jl2JMr8Y1/IYjINuxnsLY6vRbulLncGX9oUNt2+lueOZNHmlSk/zml6HkUuBYaeAHQu6Xhw/Bl14Wrw+ui3fGasCKMZPyZzex7u3CAMVmDs/FZS6unzdIF5vIE+4hrj6Pq95Yozy7NhwrHEbg1mBpfJQbptPBaeANJ+zRtfrtOTNp4DTXWbZ4nWOwoVqfp2yvp/pDNA6bZvB2ZZBgRm7MRnM7uCNtgHPZGHaJi5lPcoSZlHkc2arEDGEUucqTOljW3WHmaplXuTCtZUFMHmWoXXbEQ6tVBqvX4kpDSgUGmWB4bP4FzUVu1vbgNejkhnVEcKlhSnBKBSmLmNpJU18jWYJAto1edvsmqy7hXULCsv25Ly+hpHp5As39pn9nekjDsIMHNRChFzeOn19xVj7RFp5n9fL+igsTN3F9pNBUBQTXNDNenJfxqsgRRK6BJ6jjP1tn3pvXH5dRjrlV0/EWWKpb0YDTxzkCSkv3/iKnA0TO/ExzT6yXeZ1Fm+fSu1sUJgWr69YijZaOnClgO0Mfo7SQZmApRvdclmRB15Atc1m1b3urXDIGvcBS9qAkzjKS1Fb+Wxh+dN1/4V4RjRoDcIojEn6E7j2rTjltnk1j7SWFwPLsCKK/rePizFm1QWP2w+2P49D6W6cniex9Zeo8AqIVw9Ky1e+itTl/emz7XL8eC8dxCCPDcd1gU9Rt3gXY4j85PU1Nj0P8lcx5pfTJPOILmqNSeHbVse4ssU2i664B9zA21xF33qX2y4WBQ2LNpom3q7rV+kZ5COtDiOTAsNOAUtmB0GMBu6DfYsxU95XHszsI0FBULC65Ys4B5QhyxNljcFkZ3XWUUZFHtNCUJUwiwFpbAOdIh+FTAu4pHk1hDXrfQE64vyx3upAiuz8KKAVFAoH4XEpms0142z5gG+d3Od6jY9QxsesSImXYXCb6WC+oA+ABtDe290zIz00BpfmlPGpra8/DYC4sA0Ujwqtp6gxYgJAC+/PLBs9Km11z8y0COQf2GBKauvpSwNBtOXtHOWsmmL+K5Q0NKp4e2/b4x3ssuIGDXnO7a22RWwMpgUs7suijbic7rXAv7hmOuQ4W2TZXE+GY7kcGviAZ2MWQ2LOK4wcjBN2tZ5IL3E1n3kijhthyxOW0fBq4GUG481b3nO7/Nl7E5tCo27SwjAhvYF/mTfqLuMbaSWsSlWR22jHiMpEZaRi0Jjzaoh2klYWD5wa+JIlypcVVvGNKNMrNDVvmXWldlo242oeaeazV8eNii4K88xfI28VfgYesMhjiLzeCNSHMlRuA1YV90YZ8opDhpfjpZX8ntMyzHzN7cjlcnwuLy65Pq/C8mp6HUYuBRCVwy94sk8eOPBhDDixjPsYhRWcS6Vjmv8GhbvB52BgfwRZZvDRdwDN0MhTgWMVBtMCls9l2TwifMyoRH7BERn3FVi5aB5cFGvMwoShEMlwcrMjr/DMTFC/+ZCfqwMzx8WJXDyYVo3LDwNU0olLYGBMV9rzkpvStdtulh7eeFpqYxY7wLRDV7ltc7bl3MWDliyr1e91KUh04cNbzOz3adfcluZNHJMe2HyDNGpxT1rc0c7rLsXcQno5c8g46h40TpyqdHJ2U+2nalpur/hYTlQaoXww3hCP1XxG+EwGb81Xrcc4g/FRZ3lvnCGnx00JJ/Apklf6FU6jHmZGAg7Y5mwAWx6X6/WqkK3itgINKmUFlWFZLteXo43LcKSrGXJx06oh12FchlVNz/FlU8qZY+EZyvTKdeXyXk2L5/LayEOkuEQegcsLPAxJUzMLwwLe+kwoh0CjHo0Bx0tuaMAv88a9BQzVuCJm+W+ZliPKKosig6RlkBmm5aIurkF2yjTokIHmPMLjP9renOazacUlrlkWVLLWtyOQAsNSAefBl+mdB4bPzWnBrTljeV0hf06rRjbBiaRKeuW2AF+NyPCEUd7HtXyo3puc85RZ41KNqw60HJ+vucxKbR4Ebs5TLZvjGnC8IbJndGex1tvblzqYhqqcW9EGuqNjDRisO9QOZudf2dHfxp1xlO/tZAMLStf75bnMHVENoWnaSu0rCkSe8rYoF4XjdqU+ruYrciz/raY17sub/JyvlSoCQDU+Q1whrnxYIS5nrFxzepXeOa6SrcELOU265nvzxX0ZUY2vwmjkKyNzvnzNCqu5TH7O+YZ6bo7PCmWlfiwzZngrXXME+fJtXMuHHJfrW+E6SGKOylfbme9z2epz9X6w9Bw32HWwsuZbVbx9ach58rWILePLyEHTyow5LV9z+fo6MikwLBXwyCT14K16LAdaCAl+XPsdYCbLzi/ciuyCRpku1b0sisxkdcwPsCM4h9hkhcQb0PeoRCaUS7I5y5DXx7J9QyJRJzxqCuT+y9dHDaguWFOgpsBKFKgV8EokGaERSNCY3SpJUaYb3f9weujme9IYzihc3DUq9bF42I8fu5s13k7WdTeYNT/1sJjr+u4AaYuZ9TpLno0LexTrxu3VxcvwnwE4TwNGKAnrZtUUqClQU2BtUqBWwGuTmsMYlmchD7hFHOV63t7bpWlzFqYNHp6f2pgBT52zIF5bUrH2sXV5u9sfSDOmjk/Xb7VRmjy/m/VgdoWicEcxS+6/d2Yo45tZ/xXWAIt98ZWgWvkO496vUaspUFNgOFKgVsDDsVf+Qzg5A1YRz1h/Unpoo6nFjDX7FolvR6H2Mxve5KE5acY0Pmbx1C1Sx/xFqY+ZcHwxSve07xC5g0ZYbuDiXgVch5oCNQVqCtQUeGQUqBXwI6PXiMjtq0etPZwUVdGbzmTbneGyNux9h8f+LOKEqO4eDhwoD9tgJhxfIWI27Bqw93WoKVBToKZATYFHR4FaAT86uq3TpZy19uf3RGyJihjl6hqv73t08B5R6GY2Z/Xiku7nP3ZJm43Z7v9n782DPc3O+r5zf/vde++Z1mxCCwKBEEILGMxeMktIBRKbclLBDrZTVFJxJa5UGarimEr4w+WQQKpwClPlgtgGjLElEEuQkYTQYmlGmhlto2VmNFv39Ezvt+9+f2s+n+e87+/eXmcpmL49Ouf27/e+79nP995+v+d5znOe45YkQ5F8A4byVRAoCBQEXhYChYBfFmy3dyGJ82or5iBchwUJnz+0kNbme+EpI2TcavtRLe8W4r29f/+l9wWBgsD+QGBfesLaH9B8bfZiL7m6L7iEgkBBoCBQEPjLQWDq3OUvp/pS6+2CgOu5rgGHp6zPP5lef+p8GmOQZVxZ671dfoulnwWBgsDthEAh4Nvpt/WX1Feto5u49huw5ju/spbe+dkn0tu+8BQ+JTkTNqyc/5IaLtUWBAoCBYGvYQQKAX8N//J3h66qGbeSSMGvObOS1nG2oSr6KPuEswEWfp6LNnoXrnJXECgIFAT+AhAoBPwXAOLtXoVk69ajLl6xHn39a9KFgwvpybuPpnPHD3KAQ+1s43YfZel/QaAgUBDYXwgUAt5fv49b1ps4rtV9vaqjWfdteKxOtd3olnWqNFwQKAgUBF7FCBQCfhX/cl/K0GIbEpKwQaOrbHg13Zz0UqoqeQsCBYGCQEHgRSBQCPhFgPQ1k6Va51UazvuEy8Lv18zvvgy0IFAQeMURKAT8ikNeGiwIFAQKAgWBgkA4HiwwFAQKAgWBgkBBoCDwSiNQJOBXGvHSXkGgIFAQKAgUBECgEHD5MygIFAQKAgWBgsAtQKAQ8C0AvTRZECgIFAQKAgWBQsDlb6AgUBAoCBQECgK3AIFCwLcA9NJkQaAgUBAoCBQECgGXv4GCQEGgIFAQKAjcAgQKAd8C0EuTBYGCQEGgIFAQKARc/gYKAgWBgkBBoCBwCxAoBHwLQC9NFgQKAgWBgkBBoBBw+RsoCBQECgIFgYLALUCgEPAtAL00WRAoCBQECgIFgULA5W+gIFAQKAgUBAoCtwCBQsC3APTSZEGgIFAQKAgUBAoBl7+BgkBBoCBQECgI3AIECgHfAtBLkwWBgkBBoCBQECgE/DX2NzDDeOuPQ5+8zPG/3HIvs7lSrCBQECgIvOoQaL3qRlQGdFMERnuYswETN/lMiJvhKjH75bW+r6Li3MpxHc/VsuM9dZmvhIJAQaAgUBB48QgUAn7xWN32OSXVLowr2Sr69mHQYc3IRI5l2FFKQ+4Hkiv3kvOE+CGfGfQl8RzEO0kNWbiEgkBBoCBQEHhZCBQCflmw3Z6FJM+dnXGa4WaCjDvba6R5PlvDSdoirduaSZMu8TDuQpMxtmdSy0UKrk3IegAJtyDdLn81rUYjXdqWsUsoCBQECgIFgZeDwEzjF0+GPPNyCpcy+x8BSbcJiQ4h2dcst9L/9p1L6a7FZnr80jBd7k/SudVh+qUPrqTZY520tT5EOm6kuc3NtAXBjpdmU4MKQjKGgBtd4iDwWaTof/6fHk5/7/2XQoqWo8sf0f7/Wyg9LAgUBPYXAkUC3l+/j7/w3qhujrVaJNeLW+P0v3z0cnrfjx9Jv/zgevq24+30c+9aSm882kn/xwOr6Qe/aSm9+95u+j8/O5f+s9f10vMrg/Q7X9lK//3bFtIc0vEvfHI1/eib59Lf/qb5WDseQc6Sr3JwUUb/hf/qSoUFgYLAqxwB358lfA0gIBEPYeLnkHyf2xinx84NIM+Z9Dmum+iW//M3zqUfvKebPvZsP/30G7vpO4610k9901x6933d9Mj5Qfruuzrp73/rQvqh+3rpX3x+I/VZO3b52HpLKAgUBAoCBYGXjkAh4JeO2e1ZoibLzkw6OtdILa6LvZl0/6md9CePb6Vj8410Fgn530CurvWehqT/pw+tpEOzzfSTb5pNj68M091LTch6kh460089JOJa9Vw4+Pb8kyi9LggUBG4tAoWAby3+r1zrsGSooiHX+0/3sX5O6dTqKF2AUMes6T56cZievDxMi/PN9M8/t5FmIdgfuLcX0u8KxlaLnUb6nS9vpacp869/5FD6zNnBVO9c1n9fuV9jaakgUBB49SBQjLBePb/LFz2SMQZZ0w3A1QJuA13yGIaegYwn6JbbXBuQ8A7k673ZRqZTVMMuQwMpuoSCQEGgIFAQeHkIFCOsl4fbbV2qizSr3fJ4wp5gSNZNSUrHEq3c3GLbkeu7A3TRqqolXNd6m5Iy68YNWHiGiB0yFQq+rf8USucLAgWBW4hAIeBbCP6taloDKqXcJpbRI8hXcmXXUSZh7iVfHXYoJWdyRgKGhSXbsTGIw0MtoI0ooSBQECgIFAReFgJlDfhlwXb7FVKKlVNVMx9nnfcLf/eOtMS+3r/1zXPpb37DXBpdHiVss1J/J5Pz1sYobW2O0jbGWH32/qq2Hrle7Id79xaXUBAoCBQECgIvH4EiAb987G6bklly3e2u3q3efLid/ud3LqSzm3i9Qs38N96+kP7+ty2k/xHL5xO4wfq5dy6lz7P96CCeslb7ef+we4aPwNL/+yfW0pfO9lOHcn2MuSR2+L2EgkBBoCBQEHgJCBQ55iWAdbtn1Y2kTp7v0NL5sxshAf/EG2fTV1dG6eTaKNZ3v+eubnrXHZ30/qe2Y7hfuThIp9dH6dfefSjdt9xMd0HOfxtnHAmpONTUMq8MX0JBoCBQECgIvCQECgG/JLhu78yu9SqqusWozW/+Vx9ex8FGN93L/t6ffediEGkHcda14f94cic9w7akT5zqp3PrGGPhG1pDLZ1w/PtHt1LCkEsjLMlX9XYJBYGCQEGgIPDSEGjOvPsf/PxLK1Jy344IyJESsJypNfMCBPpHX9yMrUT3P9/nYAUl40b6wye20wrS7Rmccoywkj7NOnAT8n3/k0rEM+mdd3bSx9lH/DxSsfVYXzHGuh3/Ikqfb08EnEW/Wj71b8Dx1OGljs1yL7XMK5m/Htf1r2Uf8PVxeVXHasU84XzBZq+Zxlss4sKgIcQSP+MpSDzAvXGNv+2KZONQBrYgxTGESNFl4fdV/WdSBrcfESjqpv34W7lxn0LteOPkYoR1Y2xetSkNSLbVbqY+1sy9OUi4+k+tMw4lWoPbj9gljHo5b1OSbE033jx+5OgSCgIFgVcIAV/m/uc1xP9T/xPWM+Uc/YL/K/2/HmXq/Pvp6qBeylslQHiJZV7h8Y4RcG4SCgHfBJxXa5JruTuQr6rjLYyy/P8Yf8o12U4HTqz/H3SDRZB8DUbt2//D0cPyVRB4tSHAdJiXeXO0wcD4H+h/QkP+L5nvX8x3/Ge3kBVUhffc7lbh9Hv3//xufL6Lyfm1kTnmpfaprqfuR1yrPk7v9/bYyJcS6g5RLlz5XVX2CkxMq4SPwCc6kAvUL716EuN1+ovIWabfVbFRs4s28cb9LQQ8Rexr58Y/B8nXPx/Xd/07Cmu8PX8n9Z9WXKu8tcWecSUUBAoCf7kI+N9xxAu+MzPi3O1OenP3UvrHRx5K65NO6jZ0ieP/yHp2nP9X6qEuUydp/r8NsnCS3eSeFOL8+P9/Bu87Ez4NpGp93BkX+/st2mgRx8sBwtJjXuS3wopMyB3lY/GKuDHrWjmJPHUIgqIPzPhDk0b5CeeNG8w1ooy9nrC2Vb9TZixj/mpcsdzl2heVe1b5aDCM+8GYK3kbjGuGzjXouOlWr7c+eZYM8RMaPiJazTZxuX/mqXPY+DjGaV9AfIaxWEvVpjkbVDzmWS1gM0AyloLEN8CQ6MDXOk2xhiZ1/tRn7kzPbLbxMjhxAwq1XhkKAV+Jx9fMU/x9Mtrq/4h/SteEOu7q6zUZS0RBoCDwl4MA//kkAklplmWjNxydT6uQcQeSUE6rmCYukc9Y8weBSBGSnlfvJAo/kBHbGiReFaQSSJP7INmKyIyTSkiBYyBvfgwSkbVbp/GWidprsrW/xEiKOSqXk4An4zw1sCrzDKEpUyOtus6MiIMEo5QV5AZiTA5rhO2KpD8aUZr06A9SxAz9bsVkgh6TUdLPQR/3jJIxN5hUGMSgHsd4QhpZ7YmTiJgoMPTmDBOQwNHWxpSl8WYryjVpR9xMlpDFMQL15DIe/coyH/W0v5AlHMdrO5ape2ZUIWBRKKEgUBAoCOxHBOLNTce4Sjg7eL7pQxpKaWOIoCZGs0lvEkAmNPPkAUEfUb6BJK30JkEpQKbGqJLUJBHzUx4CVFpuKQVCOsrXfk8gsGaQd5ZGrTxSJaZglEwrcmZNMaF65bnqRvTLiUT9XEvA5rdcjIWOKakbKsEXkstjp/lwoSu5jjnODT6nT3ycWJB5THrMG+yD9dhSRFBOoo3RKLGawVS1AnaQkVSk31RTQIpYSbrmzKRK7xrDIHrxA5wolyc0mcRjEOanlNKuWz0naCvoBDHWdG0oBHwtJiWmIFAQKAjsDwSCAXJXlLY6SFvtSQMJGCmL5wZSmWSSicR8vvVVHecyfkueBokkS74QFuRidBBISL353nINWK0tyUgcEFKQDW0EEREvAYVBJlmcFEjFhiAs6swTACXKiOaral9ipXs5wWlBJvgpaUe6pGgdfOij1OXhL7ZiPaqwx4iXI1S6RjWRfjUotQ8hiZotyJQbSRICtt91nXZgBnJV/U4DVc+IlckJ9imrlK2xImDiHUGouemTE5ExH/OFaprKY8xmYiJQaw+UgAPGqvekXhMKAV8DSYkoCBQECgL7DAEJiR+lPo8FHSPFjSEQX/gSjJKqLJFphKfIn8fgtsMmKmel30wIUIvqYIkJyrFUEHFdB6LkiDTjZGlV1jCfVUb9cRCL9xFhHh5kOG/4lwmY8pSIiQEpBnNEXshuMjKj//hyPCSpApZXja2U0NGG6uFc0DyUgAQFosGY7OIYDCTiKFVv44iGLMfHfwLHzQTytasI+EaaFDmzJJsxMcY89s10g6XtXwPM8wE2Oc/YpQAy2wfHEdK7Q4t4Ebh5KAR8c3xKakGgIFAQ2DcI5Fd6JoaQSOMVrzR5tZozS6YhFUJ4ererSSavf1ZkAymHYZFEHGTLhfzIyhEP40AmkrDpxnuB/CRviMf+RKykaFqVHgwWJJ7jTavJOK5KoBBWQ2mVsjxBinmCMBoO4izyqA1iq0ks+klfgkDR7/qsOjn3zQZy36Kc+aJvljYf+KiGju7kPsW6rqliI37T8kQaH+PM/bbPCuhETT+WR/EdP9FWjMMxWF9uI3fe+3oUUfX0qxDwFIpyUxAoCBQE9j8Cqk+VSvOLnv4qCUsM/OTXfCYciTZIw/xBMuSQQSQmCVXCCJKxcFVfkAf5JSTILcjaOOsKwqUY5Wwo17V7rZELcraVKedE5uibFs8G69BwaowkPBoPkIg5fW17m9PXNtPBgweJU7LnQx56FpKw1flRJd1gYFxClawltDJ0NvJyLLThMM1Nv8nJaPRxYGQ9Jim/DuQIXOrn6mpV9pOBMFeI4GlyDcR0kQ6jLWKnBl9RR24jLM5jVmGxqnDUcOVXIeAr8ShPBYGCQEFgXyLgqz0IAX6R5DKVEce9ZBfEKLGSsV7HDBKsSEh+CDJSFS2J+hRxkm9UztX1VNIjQhi4l8dIjzpzqSB2Uw27hJtJvJZ0p1XYIfPxcduTYTjMVsxjpF0l0yBkLJufPfV0Wl27nO77uq8LghsMTM+k2WAbUajRUQXnuqPTkW6defoh+So12w6fAID8tGvTbqnKoSJFH83juKm07ntexzVPHnw9xsAlopWI67rIxn3GzAlD1T9wtlc3C4WAb4ZOSSsIFAQKAvsFgXjJZ2Jx32pmQaRIXvL6ZZcPdrcG0el45koRySmIVeLNGYmWMP1UhGz9/kSWKn/koTSR8o5EFAZMFSZkpR+Sl/XkKYEkFnkxGLMuH7xKpv1+n762UreDdTD9mkxa7O3tp0e/8qX05Ue+gGQ7SSefey69/o1fn97yLW9NBw4c4tjTLsSJBfj2Tkib3U6PKmnLevnJreWxRKQJBo2sZjT3Jo9aAq75w6UOVVYfox6y1BhkEhddyxG4OH6v0b7ryjznyQ7p1CW/25KlgtijL9zfIBQCvgEwJbogUBAoCOwrBIIsoAOl3GwKFJJsbA+CWJVd/VeznvmULDNBSRQkQn7uWrWqeDTd6uoAocgxLM7mTFSo9a90HCES68xeidewietMpQpXZLatIVuaxrGtifRQKXMIzHw3bayvpYc///l0aXWF+8302YceTF99/NF04eL51Gu00/zCYvr8Zx5MD33i4+m+170h3X3ffbjMnU+ve+3r0/KB5bSz08eam3GwrzeMn6I7SL1OSqaB+5gQxEghcBOqMcQ1560lfQlVPgUxcHG8mUxDMo6ibnZiG1LE1/VI0eADJmIcwnU1oUF7T5ot1nmt5NpQCPhaTEpMQaAgUBDYfwjwLs/859ndvOEhRolOwpiGyFM9SwywQkinEoGEHNeKikyXhYMqjItU6nQrEJSKVJ3JyDySaq5XcqqJK3fIdEKwHGUoPxz2U6fVTjMdSdL+pnThwtn0x3/2p+mjH/7T9MzTT6btrUFa39xOQ/Y2t2d7qdNtY309TNuX1xjaJPUHo3T67Nk0/PMPQc6XkIrflP76X/+b6a3f+vYYwNY2p7mFXtk26W90z97tDUbm/uVR7KY5BteYq97HhCPgqCK81J/Qw8cojLFO2qNBfx9BwDSrpywLVBf6c3Vfdtuu7woB10iUa0GgIFAQuC0QgH5V8/KpycVu18ubQQB+xfsf4uQ+LI1dB1VK5Fny8X6GQuFiEVLJBCtpm0digWhkpCDxzCyUyAwTbZuN/EbZGITtxXVd12pPPvXV9Od/9oF06uQzIak/9eST6amnn0IqHqa5+YXU6nXTbAN1MuvBAxxrDAbsc1batr+syW73d1J3NI/xFBbZSLuPfOFz6Utf/Hz60R/7ifTjP/FfpMNHjqRt1NIbG+uoqdvxsct5ckBHQhFsz/Le3JhUMM4Yu8iR2VwRaLPqPnExSjLU5GwuPnl4cXXcPEYYOQkKjMhV4VIlveClEPALQlQyFAQKAgWB/YIADKOqVxUxIUhAIvUOEok4b7mRNiQbCTLEQ+OrPAqONYVkD1eV845KIs5qVXLIO3W5zLSQoaRGZNdp6J8AAEAASURBVDRAetbvRvwIlXMbDxT33/+x9Jv/6teRdJ8NlfMOFs6zcwup3Z5No/Y47SDd7vQHSMqqp+117tsOFtEzrBNHG6qtx6s0g0QtwbW64YryN3/919NDD3wi/dCP/Gj6xjd/M0R8LNaIR1hSu083zxvIb+eDhLOBVTQSyHjHCCos4p6YwMoihBi/uGZGJ0YQBcMMVbyxMUEhppoM7dZJ4osIhYBfBEglS0GgIFAQuPUISAISBe4kVZ2yxqma05d+JknJOVNFzsg3USHFViQqh+a9s5KoErErx6qmLWg9kZFC1K0EGIZUtpsrrmXCnI9oQnA2eQdaNPe30r97z79O7/v93wuynJ+fS73ZedZs80EIA4h3iDHWYLCNxNlOWzMD1nS3aQcHFzCxPpRto8H2pMkmRL21nhuhX0OspXXUsbh4EOn6ZPqNf/Fr6cRrTqRv/MY3p297+7vSPfe8Ni0eWApC17d1p6cbSP1VWyMF+ea2CkraNQk7PgJZJN481oyp904ALJvHXuFNjPMGP1GEa5Qj30sJhYBfClolb0GgIFAQuGUISAqqiiu1Mm/+IAze+dKD34b4Ji2TjsRJqurnSPXRfbPTnDxXpCKTyib5X3XNxJWr955a6nZ5CleUTAZ2dnbSLIT3h3/yR+n3f+/fpYWFA2lrcysOTWjhparTnklzc4usC3eQfiFd1Mvb20PUxxtpc7vN2eQj8krOfXjMdvKBC0PGqyFXC+Mx12sHUN5wZwShd1KL2cTlC6vp0/d/AktqJGnyLR85SD/m0oHlg6mJi8o23rIcz9RAKxg4j14EDLtSa0Yo45bTpt/UYZ/EMW75Mve0JnF7GaH+nbyMoqVIQaAgUBAoCLxSCEgMOoXwVR88wo1PQb4SgGwQF+QyLYAh1LwtSa9WJku0ubeSsFKi6mfVvZKbiZngkYolPPJEhXx7KlIjfEzb3rSpOIGoj+Q7iwHV5x5+IP3pn74/3Xn8riDE8WCc5rFenp+bS3NsO+rSxoT138lgR8PpNNdup+X5+XRwYSnNk77Q7ZGvC2l26BPGW3aa1tru/w0inZDWTrML86nJmm+opdmStHzweLq0cjk9+NCn0tnnz6QW9bT5OB4lVOuIcVOd15iMOOZcPalTGjUnmcQiCkYBa3F92MlOrJs7YSE5JOuopMr7Mi5FAn4ZoJUiBYGCQEHglUcAelCShQiVnKaSa8XGqqMzB2dyifVJica8/sAiQUAYNYV6mYSwAjYy/uWcsWgcJCTRZIIOqqeusPStJFTHP4RMNZz6xMc+lH77N//ftLa2jhNLDKi2+mwnWkjd7myw9RhDq+3RNqrnLKnOzs6FylnPUvM9DKhmFlJfcsYwq69RFu0OeB6yHiyLusbaok+qslttjbKYPLDW7Hg3NrZCJb+xeglpeZSOHD+Rjhw+lgmSvmQVPZKrY+Srlnhj3ZZ6s0MNx0ptFRZxpe6QeC3jYJ3UBNY+EJwMRUIMkQgfMpnbhscWvlAoBPxCCJX0gkBBoCCwHxDg/e5pRkqPsZZbkUG91Sj2sUoWrtvS3/iQJ5O1EapPTZeMII89BFFRDKnGU9LCkm9dEXkzuVuPkiA7kUcDLI876cMf+uP0b3/rt9LqpbUgyt7SLA40OmnAfl2db9hqp92BJCFaloLDLzXk5YEPnV4vrKKHHcmNU47ILymrkvbQhx3WlLdYIzYuukS/BaAHUavOVjJ2j/Em25mWFroYfT2W/uC9v51+8if/69hDnL1suf4sWVpDJkhupuSZbypp3/pN48c18hhzlIvoSMl31JX/xSNTg3jWSMtWAud8k7Pf4LsQ8A2AKdEFgYJAQWC/IaD/4Xi9Swrxj1e9bMyzKmOJtSYNJTw5IDNCJqAwuiKPzjXyHt88wijjbUW+qlujLM9WvzdIZEMkzR7S7WcevD/9xq/9alpf3SSule648w7WXpGUh5N04OCitITlM+rnrqrlZupCmiP2Befzd5FqWaf1dPsRkm5f8pX06Mw6zjqaONvYxHr6wuVLIR1bLiYejU5sOZqThGF0id1CbQ5ogOLT+TNn0vve9570U//Nz6SlpWXwoNaYrNQknEejFmAKUKTzPBmSlwEz4XDiIB4+7kIgLrtPodbn2bmMGMbvIVd/5X0dd9W1EPBVgJTHgkBBoCCwbxEIQoACdPIQzMi1qfQo+WoV7X5WCEI2gBWCPBSBp7RhWaklZF2jyeOX/8xPCp9MuuZSMpTIg16sKK9DQ1g7WxvpPb/zb9Jzp85ygMKRdOTokTCAkoy6s6iKKbOEqnmJNdsOHq46GkWhBtdwawiZ0mT0JfxCo3buD4akN8MYa71LYpsvyPXQpbm0gmp7hzwNSDlRl13uss7bZB25zWRC1fMYidz4+UOL6SzuLD/NVqUf/Gs/HO4ve0jaOdhqHRzT7nMeI89McoRMHJzuZJKty+QJUC7nUoBYGedYKpScQbzIUAj4RQJVshUECgIFgVuJgOSCdhlx0Rd9Jo9MpN6rMIWEufWM2pBgKwnPPCEdB8Gakw91BfG6b1a1KZVHjZXEJwMFuRAZhl/md/CSEipfXUGePX8Ro6ezSLpH0sKBA2ke5xodOjhmrbdDnuXF5XRgcSEtkLdLfKzfQsCTkICRMIlXqh1Ssc4scIWFWllKmqR11nebvdnUhbyPzPfSGhbVl9fXFZbh5dk0YEvSgD1LLVTg9sv+a0y2M2A9GOrvtA6mT33yo+mNX//16bW4s8xnBrP2TV6DWDqiwICRBq0aB3lmFT39FMxrQlUDFYTrzWpyc0VOx3JFxDWVTCMKAU+hKDcFgYJAQWCfI+CLXdKENPIeXqkY8q0IKNODpApBQA4SjfJrGF3JqsYTl4lHsqE+IlRXTw2OzFbBUNGyNUQeDYuG42GaRfX75GOPpcuXV9KBw4dim5B98CzfHuR5jLgFVMTzrZmkMNtCYm/jZrKt9TWSsMQbswXyDiXdsZbPDTiYK52aRbJtct+ljmVIdmV1PR1aXIy14fnl5dRGol1ZWUnbGIENkJw3WSd2eL2lJQzDUFWjjO6vDtIjn/tMuvPO18TMZXYWAoYcQzUfM5k8SCHNmHBDvPcRF8mO3B/j0DD4U+NnPj61Kl9Ma7V/nS+quMlXIeCbgFOSCgIFgYLA/kAgU0IQKwQVJCAhcC8pNlVB01EteqVnfyS4fJdjjMokS76acCXgCOSkrprUjaroZkoyUpBBot3e3EgP3f9x1l0lVCRcHW1AhvBpOo5EvDzLmi+q3B6NKhV3SbBtP6p4WSZGAoaIqa+FVNxT+uWjVfYYA6zZLs47IGFywarUgkX0KM3n/tPm4tKBdAeEvLm9lTbZU3zx8mp69sxp1Ntj0pbDcOsQ5wpfPHcuJgkHDx0JAtUxh9OL7LyLMVeEHIZhpERQguWfX/447Bh5LRFLtKQ2VD07npzLAmAYBeP+xXwVAn4xKJU8BYGCQEHgViFQkUHQQNy7fsqPL3vXfWeyatWk/DHezsaXTAHR4M9J6U6+MEUSD/LIz03WXnN9yNPV2rLVq4aVlIPMfYbgVD9fXrmQLl+6HF3qcyjC4jLHBkKkSxCv1xkMqroQqOTbYU9vxzogUy2W25TXMEvysn7XcmfxlhXtYwQ1anLqEOWaYTmd2xz2exC2ltS4pUR6XuzgOYv14XmInQ1P6ejBQ+nIoUOQ8PNxbKH2yxL4EHeX8uYCJyy5rck2JE+vbmXyqjQebQsFY3TcOZiTz/Q5q7kziNQTGf092Mdcwnuzx8evFwiFgF8AoJJcECgIFAT2CwJhFiQnQF7KtbEvl85BA/JskG28/iumVW2afT1fSSRBOCEFZxLyOfgkCEc2oXZIMzg6HmFu6p+4HYjIIWS2wbpsA4cdi7OLONlopnkIbwnXk3OdJocsYJFMEfso4Uq0UB3k3ELilZiR2iHPGUhWybeNFK0k35jp0GMmAZBiQ2MrJWJIeXlxicpcR6YujK2UmJXQ9ZI1mODakh7PdY6kRdahnz55Mj179kx4xepTzw4W1kq6sX1LrLwXH8bjmPPkg4QbBrFVeteDGOOwEMsAeR09F8rY3bCCGyYUAr4hNCWhIFAQKAjsFwRkQWk2nwzk3QRSkFxDOg32NQ8f+CEkY0lOw6wgGvKZKulCamaJ+kjMhGRiFRtsYgtmyeneGijNN7bRqJznINt5rJyDwDCKmsUr1RzHD3aRtrtZaA6Fr12zTWVgybjFurDONLq4rlRKdY9wG4tn61GUVLKMCQHteIrTTKPLunIvtiJJ3o1Em8SH1CmDcaLSAMl6A9V1Qwn5jjvSJbYx6dpyDk9c7lUO0qQfYWBFvfmah5xHTT3XCeTMGAQmGdsKJmEIPKPu65a9TuRVUYWArwKkPBYECgIFgX2FgLzq2z7IVcL1vF4ukhPRQafqWU3nKVSjJNQnA1UcEnmDUKKuLPkZac1+6vKqfyPGyq3SCw1KNLbVRKU8o9cPpOFZ1cTEtynTxjCrbX2WY2KQVc0Sa76HMoNwu+7dVZqFLFtOErwqGVNmAnkraSrOK3XOICXHRKMxTC2kbssNMbrqQNyStypxx+AWpdTkXGEk4wl57mZt+MLlyxhrzWHYhbQsYNEW9XGr5bchjz5ur/uVx+J4crLPyvKxDcwox7onWCtdn0489iRd97YQ8HVhKZEFgYJAQWA/IJCJoiZHCdb7eO9DUL7s3YcaW2IkX0jGoHMOSUKCkXByOTLnf0FGUScVWZdbjZTsVLGGRB1rtnXbREU+6oK4/MmqYZ1f4JtZCZbjET2pyPXfVmyDmoRqOaRaWm9CsPAwRKvqnOaRmPUe5T5jbZn0ET2GODXSipOeIOWa/II83frEYLWgpol8da0Za+cg4fCIRQf4tzg7m16DFKxLy97yEuu/c9HnFvVbwn8vFCIfmYK3HTs/u5Lvi6jghRqo0gsBv0igSraCQEGgIHArEJAgDUptYa0bm1Z9ruOhNNlBoqiu8rASspIoXzkj37V0bIzrx5JZUKpZ+QlpmnXVYFPLW4aPd0rBQdKxDjzD+b5zabC1jUqZ7UNk6CHZRm77l4VYCyGVom7uhq6YCQN1RN8gZEiZKUO06wTAvAqmIflClhJrWHmTx/XeUHXTZ+89tzCKsLCrJbVkrUW2TY/p5CJ+qBcX5+PkJd1Yqpp2/folBfGRtK/GIfpsTUrDV4aM2JVxN3vyt1NCQaAgUBAoCOxnBHjThxwmeYXkm1/dIZlGmp2HfkKFC41KvHzUFGeJNpdTfc1dkJxk7j2FqiskpXob0pFI61SvOWTC0eHFkOMHXWNVjawvyZZkxXUmVMK5RslLNXSH9V23LjWVyKPbSMlYNMteUr7fI9mUe91PZtW6qmjKUI5iIRkHEUK8er3Cs0Z8okcVsepFq+MHibyHZfVBtiG5LWkbn9T2JU8gdkeTx5S/A1v6IW65T7RJ2yGFX5Gx7vG19Vwbs7fg9e+LBHx9XEpsQaAgUBDYdwgoIdYuJ4PNeOu7RpoJUxqROPyS1iRR1dQh1xpBNkmQm7jP5BcGW1FAS19lUsuZIQd4SK7MRZQ8qW97axOyxchpFneQo37e50t8gy1RDVXDqpwhw+gLEwOtpXMNOuWAtO2CeSF8ydE1YCXiNuu1tYGUvWux3jykHSXybIWMqlsyjR85OBM1lUUfNUpzSuCEoIfxlccSek5wHRyXY8kjqmPtCyl84nzj6HTOp8QvERtCSvfKs3U4MTDFPLYgyhm7/EzUC4ZCwC8IUclQECgIFARuPQKuvwYR8caXFPRYXNOJOl8lRsl2SqDc12SWe086BBuELKlYX0UdUFaQiWwSkh+1hGApuXATRMe9fptdx+0jAc8gherfWWKMtV2la9rs6kKSNVnrD8JjfXfIqYLtFj6xJHjaCCm2idcrSRdp2G1Fsb6LlXMtdYaDESTihActIqdjkyT1deUQhgMqrtKinGvMiP2NEXnYi+xZwh4aMcBDFxmrX6JXP7sTjXyiVMxacjzJrqeL0G6oy+fSdS2mO1moSd0x+5vJhL1bJrJc9VUI+CpAymNBoCBQENiPCPhil2h9vfuy9ydfIQCSQlLjGq9/yQ9iygTNt/EW98t47yNQF+cLRwTE5p7baIf0TD60Yjx5rUOV7hhy297cJB5pFBKdIAG7Z5jdReGiMiRPO8QeXKlpDCGOx5JZHoEVe4iC/fdIw61t8pF/vjM/VUFL+BPI1G1IDbYseeCCEqfxdDb+OQFRGuYYhuhfSPIQNjbWOALZok8NyLcdbSgFj+hvYOL4+cnjCxBi+FZrGwYnLjZSny6VI4nJTcej+YGmTuJao12Nc2/enO2a70LA10BSIgoCBYGCwP5EoHq10zne/JoP85KvvoJQ8r5g3/yZgE2VI2riUOiFl6pgYUlGeXIYkmmujzJULeHGumnkhlwkYiVJpMottvnAiWlWd5KTVhCvBym0MMSS+CIvbfUp06VxibbfZ02X/cNy82hzJ437+G+GGCXmQ8fvoF8aPGkFjVRNvbFfmbJQb0ijkqeqZcsM6ceo2pZkOb1cuSys56tRizbZY6yjD9iZ+iFf141px6sGWfbB4CRATLOhleAEIhHnvU/iFwne+RB5uAJQTGyIC10E8aq/oy4S7GouS+QNQiHgGwBTogsCBYGCwH5CQKJQzZzZNLNopg9e/xWrKpGRI/OEDEDwEtbRPkzJ14dMDxKURARzULYmHKXdnBI1TqVHJVkkTtmOdFvQlrkHKc+yfutabjRB+sDzfSHLAWbP7v2dQZU8RHq2P/p7nkFCdhvT3NxCHBnYh5DDYhrHG6qlJcoItsO4mzNIzRwEsYXry53tnVCDb6MKZ0Nwml1ehLiRdse2ibV4e5Z653BTCaHToCpviVpXmFpRS/B1yJOMevwMKwCrU+trHmvGOdBiHKKV8a1zefV34CCnSGaY92aZ3hcCnkJRbgoCBYGCwD5HQMmKLtbfQYKQU3CGkmck5je+xGI84mMQgrGZOnjkIY4hJA5FcqSYtQ7mi/23RESZikQGfdaAaW/EAQiaO/nRMUdb4kUkdluTa8MjnGVsqaZGZSwxooHO0i/qZN1JzrLm28VIKqHyxvwqpNn+kMMcdqiHvO3qdKToD50NiZx4TzrqI+WuI4Hv8FnnEIYNt0LhlevI8WO4tgQL6m51ZqNPErfUKQGLh57BmlSGvE9/Wfemv7GeTj/hZ2Lpv2OusbMDQabK4ZFCRMZrN7eZcrl8Yz5S4/dSARcx134VAr4WkxJTECgIFAT2HQJBiupUoQJf9/5oVDWDpBhEGz2uSDfIImQ92SRIxExBIhCkqt5RRebWK035HYRej5xikrAEpW9my8xy2MIcRwTqLCOcZkAyrrlqdOXBC/bJtWHLDSA93UB2MYLymMGlAwfT/OKB2J8rKWtFvcVxhpcvXkrb9Kk96iA195GKOScYlXWwLl3SbaWS9HjM0YOqnumXRlMcs5ASxNvH7eSpJ76aLl2+kI6fuBPPlD2OMISAkbobELp0KAGLmuwuKjM8B4Y8myDhkkBylox38SSb7fllOSqDzq0oYriZBnNYv5JxlAGHwHSa49qbQsDXYlJiCgIFgYLAvkPA97p7aYNJWP+FGmEDxTZZgQ+humQS4DloQynQZL7CiCnESZ4hi0gPguaZJ2+NrJTSkI0P0AgEOUGl/NmHPpWOHjmSWmRssO6qu8sOfZJ8pV9JOQyoKKerSNW+bQyhlg8cSIcOHY6Tj3qoqukSEnEnzUOWc/iTPs8pRivnz6cRhy60yN+FgIccb6gbyRkkbIXOEX0YDDl+cHsDCRYTLBx89BbweoW3qwMn8P986UJa39qKYxBbq2tp9iBkz+EMefsSBl8ahY2YOMix4KYqPSMQEfA9xKoqP0AUsPwJwlUKnz7HNIP0KkvUEkhWZaukCsv8dP3vQsDXx6XEFgQKAgWBfYaAhMArW32u/5S2JEKjDVyzj+NMHFVUZmGJVL1zMGzO2+A+0wqVkaRkaQjXjvk2+GjE1qM51LpfeODD6Ysf+VA6eOhoWl3FzzKE1qXxLpbQqnqVVN3iNILcGkiYqqVn2ZI0x17cLmrnwdZGmtFICtWxZGffNzlXeIR02+M4wiHrupcunGd91q1MSM602fAgBaRrfUZvom6+vLrCPCJL/R532MLtpJ1cOLCcDh4/yhGJl9L6xnraRkU+B5Fqka1EqswaYw9JviLQgAP8HDeQeXFtuz7oISRZy1E+IyoFmysTdkxTmNTI15GDGyXpmOwYYz/F/CahEPBNwClJBYGCQEFg/yAgDQTzxqUp0cmdvPQlgWAJ0uO+6jQckEkhkoOGyJdVxZk2csGcQj3U5U4f65A6svEWBlBuF3ru2dS7vJ4OHT2eEGXTcAsJF2qzNsnWPbcaVQ0xlNJCegMJGd1v6kO8Z9fWsFxOqKXH6eLKCvVnw6wTRw9DwpuphSTcg3jHrAOvctbwPG4kWwdZy9X3c7PLSUgb6fy5M7FWPGKmsLq+zkELnbSAhNuCqGcXllIPj1sd+taA7Cf0pWFfODJRy2g9cinVO7CgRL8YqDJwTGCEIQIyMVL9lHzJDSQxsahKxpglX4k/UzOSddSbQYt5jnXVIOaKr/tdCPi6sJTIgkBBoCCwDxGQUXnth+FQdE9JSzap1nd96ROCZLxm0Y88uZxp5sjqVOVf7iXwiJdiuIeRYk2UOEOkQVbzrKvOYnG8fuliai8uYmU8i7EVVshIwBoVN7HAanEWsCcV9bdbaQfi3cZA6uLGRtpQ8sUyedyeS6cub6Ja7qW7Dh5Jd33bO9KTn3s4DXa2MZ7iLGC2Kg37nOG7sZnGSwdoXZVxK22sb8W68Nr6Rjp34VLagcjXIOEtJOjF5QPprhN3pWN3Hk89zyOen0dJwDGHYDFG2t6A0A/P340KmrEZh5SrBy4lVVGZEqUDlVhjX7T3hkCoumaU9KHtj6hJ3lFMbQTxEyYHXOI+SDwSqSOuUeEVX9H+FTHloSBQECgIFAT2HQK+w1WP5pe+r38C5Buq6IjMb3m/g265kWTytppMwN4r96kCjhrMHHHGW7CihCkpRxOZUKh1aWGZ04YWE2ZYsb9X4yx6EF6slFa7vTZ2UbOcE8wZvqifh6ii+1hOb23tpCZS86HXnEhNpNVzm/20hWes7sFDaXZpKauwSW8jCdt51d4D1MjbbDna2FiBaNl33FtMFzZ20h1v+uY0OfKadGbYTJdaC6l59M50HpX4ww9/GlJeC1X4LIZinsw0ofxkkKVVh+dwDaEqDgyg3Oo6jQ8b6Zi5RN4sDU9LRh2xZzmiIHSAqy3Gww2nZGwumfgFQpGAXwCgklwQKAgUBPYFAvFOl3B9t/OKR7yNva3xut992UukPgUJ2HGl34io8ijkcesWoRCMg3khK6yScxm+JeWqovCwRcqBQ4fSWcqOUS3PLbBmiwes8QbbiFT5ooVVFR3HDqL+RSucuhDxLEZVGlHNLVIfBNvCkOstb3hDunjxYrrnxIl0+tFHkXbX0xIGU/2drdTRwpotTIP+VtreWEV1zKGFVOaEYYgf6hbn+447+J+GxJ9f24bwe+mNb//21NlaTR/+vX+LxL2VDh9DDY3UHAZhEPkSEvFeid5xxZCBJuLrh8DMyEjgkqXZDB5xEfIEJdLQs6t8UE2fj2kkg7wdkQAcmok9lecKrvguBHwFHOWhIFAQKAjsXwSCeF37hRw86cjXe5bQ7LNEKwMEPVQEIGFAJBWpyLiSdqiwYaKQgqOWXD5vO9qNr+tXzj1y12vSM0scQQjxZwvnBucA0wnUwRMca0yQdsc7LPRijGWby8vL4Txjp8uxgMS7XUrnGqqp77z7BN6w1tMOJDrHFiXraEBk0GY489BRR39zO222NlKXiYKSuyruI4eW0+bKpXQco613ven1aX75YFpgzXZlbT297e3vxBlIj+Ztoxtbj+YXDzIRQCUdzEivqlkFvRY4PnAm4GiQ5nM9cmcfce8MJUDwS8m2Cj6aR42EhnHekzjBH6eITx2f1PlvcC0EfANgSnRBoCBQENhvCARn8OU6rV6xJAS5IELlyNjYTKzGZuLIhBLiWZCOfBOq6ShoLUq9fJMlDn0wymBG2tF4qnfkcJrjiL9VjKg8KMEjCSVdJwNhOc09i8KQcK7Lvb76hx7x6bBdKLxkQf4S1bjBEYbzGEpBXuNxP84VnmVi4eYgPUjajxF7god4xwoJvNFJHbYtuR84TWh3Zz19w4mjIV1vnn4mHZhj6xJ7gB1HeL3ibhtJur24HCcsuWY8o2WYwbH5IUjIcSumPudY0vMYfBQXC2Sr5t1ckYf4KGN+cJqGCurp8w1uCgHfAJgSXRAoCBQE9g8CvuZ5wWsgFIHniMrEESShmCu7VTRS04GSXETjylESkXKiqF8Gq5VoUfPqbMNb46KmIGCddiDY4jJymf22F9gqNNhG/aw7SYydPMM3nG9ImjjKGG4jUSKtzjTZisSkYKaD5KhbSeLaSL+eIaxaeqiUu+Ma7YD1WtpVCqZVzK5C3dyfDFAx61bSCcAgPGl1kK4nuJt0PBp7eXyh+4zxveUgGB+dQO0cEjl9HsHmwxBixcmBOjCv/vOrembIPNGy4ybO7wDVXFmqVUUfinaTXed1LSBKmd3IHKzHUF/z0/W/qynB9RNLbEGgIFAQKAjsBwSqFzwEo1Y0pK0qKl7iQSp7X+dBLxUJSAUSCsRnPsuZtSofo4u4WpojBjKzVCYR7ik3Qnpd4tCEEWnDPlIr+3Z1cqFKewyRGT/GgnmkuhkybaIjn4UkPZFI95VtCMvpg/6c+xtrqJ8v49BjzD5itjAxqFlU0Quoiz1QYoL0OsZy2k9Yckd9ia1KON9g72/DSOppt6Fr3Flq8TxDmRETAxanmUtgSe02KImdtBhNjF16FYs9g3esfK4EhEdj6Iv5c/mIMZZ/uUxgxOMuVpEUZWxD8r5ZKBLwzdApaQWBgkBBYN8gwOscIlMQC7rgBR+vd6UxCQUSMUYyNEcmjnxPht1RUDieopLImpODMDKBmGSuTNi0CeEMILb55UOohJFekVr7O33WWvOhCVJNnMRkGbixiaSOlpknVcrG6R96hHEVNfPs+cE99vpqZKXnrAZlor8hBUuq5MPoakAbE4jUuseQfq+3gHON2bTFBEJf01vrnnw0G+0oQSsVawhmbcMw3No1LKvHk4nRpxxCDT0FpIrcc3EMhpDNlXqDsMUmZ8pnCeffSZUxKje9biPnvPa7EPC1mJSYgkBBoCCwvxCQkKo3utuIQgy2hxUL+KJX0pMkjFJdWh8yr3pYD1WygVSi8Gt1wQ6RlwerN4J/uQKu8cAFQlel7JF/PdaAOwtzaePSSuqy59YzdnM+CB8PXUHYkGsc0mAVWlpzCYcaSsuu8+KjWbW1E4XoPnm21jbSJVxRtthTrNOMPuSL7KpWPA5goGiosftsR5rvHkpHjtyZ1nQ9iSQ9Ya+xjXQg4rZkzKRgyHj1sDVUMqd9hwvNR18k3Ey69mw3+JTzTUceicZFSepyy5JjDBJnUhL3VRVX1OZyQIT6Wj1edfF3UUJBoCBQECgI3BYI+PL3te3rvnrlcwmyhSbC21OkEOk/pWM+pgfpwAdBejk5pFUzkhzMLG/Ex+cqqH6VOMdYGzfx23zvN7w5DeRz1nI9XzfKUkf4Wq7JCaKSYIfswR31sZpmzbeL5DqHinlubhHVMQ4z2FI0150LF5QrZ89i1NWHeAe4kcT4ivK6oeyS3sGKutebx51lJ+2srqeV08+HYdbi0nI6sHQIFXcvLS4sclDE3FT6dZA63nCLlAZjhjykijQdf9XXXeOqPOCMT5Z797rlDHo20YpyZVHgRhS7J0uu+DrfRQK+DiglqiBQECgI7DcE4r3PV3BAXJFMvUK83kiysWCKDtjbpmKjhBoElAmFTDGsLAtyG+Ul8PzxJhMuCXUgTTnXhgeQ2pLONNh/u7XKvl3IT9eQnHFAH+wHdszUMcQQyvVe65Pgmki27s1tttwm1I527dvqxbPpzNPPoE7m4AX26+JHEomV/iPBt9u9tMTe48PH7mAMM0jJl9M2BLx+cYWtSKtp+fDBGG6c7cuar20p6XNEBP20K9n95DiMp/JAyWKnyFo/R4SRhDxmeiyidi+uu0iYQhyJgVGVn6gIdb6rr3X69a6FgK+HSokrCBQECgL7EQEIRgcTDayLJTqtcoMmglB89Uu0rMeyqKqE53MQAl9BNcSFA46IDA0xecjFcy35umqa664ymUGC1xQaUlvHxeQQUnNbUTQrI1E4SB+jqKYNoZoeS8KU80hC+6yv6HyMoe01Yg13DTL1uMLtLRx6UN8ckqzku+PkgTItCZ5uxLGG+H0+cBSJGreVGxxjuHwIdbgSLurxEerxERJ6uIlU7Q0+Q6Rpty7lgdMn9dn2NUKNHw/gGF3mNjsdyTlqEs5Pfld4mLkGq4o1JaK5GvYglyNu8F0I+AbAlOiCQEGgILCvEIAlg05504eMVj2HU41IQQIM1vD1r/Sb80vJcFJmBcu6NYiyCo01UYSKmnxmk5BCbS1hVSF7e1KVPUHlOwdZNjmPF0lVssMKmQIQZS6vRDoz5F7jKQ5SaEPAcf4vZGzbLBGHq8ltfDnPqjpeaKQNJOAtPGJ5GtIAy+fFZdxdHjuKodc2HrHWMcYyfRN19RZ+pjfT6HLCuUc/CF31uM49FNN1fTmG1byuszZ8GIKGVumffVNjkEcsMkIV2gGixMgQceap8kUkqZbSEA3ULMQTMU6A9uQzj7zMMCNUufLDDb7NU0JBoCBQECgI7HcEfN/74WfqRAMyIAoegByCDDQ1kihymPKDEWaMIJFapn6ursTVkm+cjVtFq/51bdnrAKn20PE701u+87tTlzVYjw50u8+ILUFh9CRpWy/98lQi1cDu+W3yiSvkLK0PKdOAiTsLC6lDPQtHDkHoM3HIwiZrwGcxyDp18mS6eP5susQpSGdOPp3OnjrJRGKclo8eCTX2jscaxg8N0p7jDyyYHGxD3DJhC4MvyThSKBtdq/KZN8bpDSmZZr3fEwKkyAn2YpxzWpHtWV8Ur4sQ8VJItUjANXDlWhAoCBQE9jsCvN2VxFzr1E44goQCCwRXeF8Rg2m6liRrTuc5yMIviCLkVdJ9jPI5+kpCIS5nJh+ZxhDoJmR771u/NW2gin7wzz6YFhbbWEijNob0ZpFExxzKQLaQBBvooxv2F8kXDg7XjXY0rKch6BZWy2u4kdxgWxPHGHHsIHI1pL7ECUduRTp15gx7ikcchzhOR+++O80dOpw69LC5foltTeRlQqBbzLz+nQmyQUNOFDruKWa9eYRDD51cOo48fvLxpLpaBOsjFwOd2Ctdr5BfRcnkj75TqCZ7ite/hajT+qINEwh773PMld/mL6EgUBAoCBQE9jMCMoYh3ug8qPr1pyLbfCShEl7OaLZwKQnxKXFOicDkui5uvZd8DdM8+XEaV0vDYS0cmTCIQv3bQ308QsrsQ4593EZuba8jCbP1h+fQM6trJl3JObYRyTaK8Kzxmk+fk6trK+nsc89x6tFOWsc39DqHKWC6jEHWXHjdasxi7IU7ylXI/gLrxRc4CnGEnr3LYRCq2+2b+4hDcmcs9tE2dpCi25wPrO9pkYppBliZL4ZgvyI+9zGP3pjopB2douBdEK5YScJWEJXszTXNPr2pskyfr3dTJODroVLiCgIFgYLAfkIg3uZ8oUZtemC8PBHWvVn1Kklkua7+3tt54jKLBHEE4eavvDZMVpN3wx7qqAnL/FGJF0mumWY5bGEdqXdmdSYdmuuFFLy+thaS68zMfFrEUrqN60i3K41x3qFVtvwrQaOwTpdZ27149gJbj0ZpG4lVIfUY676eonT4OFdOPZptd9Iqa8iXzp1NK5fPp87zXSTfrXQUv9Sqv/ucyNRDAoZPw8ZqjEHWNscYrqGePnQHBlxI6zlIvqiicRASHOoQ7YyfYNO9CDhlEWBSSNa4zDV0tQ4S8Y1CVHXj5OsWKwR8XVhKZEGgIFAQ2GcI8PIPL084vJBFQiLdQ503evdfEc9DJgqdSig5QkqQI7HcSzze7Qm0k9eFJaMsPUpCAyyM25w41Fs8gEvJ1TSBNFEypzVItetZvKRPZoyjn0jCSuMj2pLIVjjN6BLn965cXkVyxpoaom2x5ejQ8vG0oGSL2vgghyj0sI4eHRyxv3c2LR9cTueeezZdWjmXLl06C8nek07ceSK4s9XlQAhMpWkRWudkJOoeIh6rgnZvslKrSuUgzxhPTa+MU3b1E+N3jH4Ys4ZqxHpCU4xBSOqs3pp4dbhe3NV5rnouBHwVIOWxIFAQKAjsLwTym93vLIHFnZQSJPFCfTU3vBIh7v0iqBrWe1UOdY7q0QtslFvKcXHovGSGRDvYGXDG74F01333pUcf/jQnDw1SA9JtsviretlPX+kT6bYNITdYFx6xP7nPOb/nLp5Pq6sbaQbfzwePHg/nHA3V1ny2Vi6nyTbrwa2LaeHAElfOFqaf80eOpWPsPz5/5jk8Zl1Ia+tr6RzGWYcpr8ONCUw2Qore3NgJAm7MLzI+9hTHGDQiQ3OA1B5AMKjpaPWb6UcsiY/DHIJdJV5+HG8efqxfi4fB8vW9Exrvo5iJdYhGTJm2VqdMr4WAp1CUm4JAQaAgsN8RgBTjTX+VJbNxim9XhSAGokPII21vlkzgEs2V8XUVul005Pa4qQtX1xYq5sNHj6YN1L0bfTxWIeH2IFWPLpyw51ePVjroaLM+PHItFufQ62w9as/PpiOqr3GqcRnV8kX8Q+9c3ojtRvOLi+nEXXenLbYQXbp4CZJfTGeePR0q5YMnjqXj992NE5Aue4db6eLqxdTBn3SHU5q2d7bSzrAfFtnrrCf3jtzBOjRjq6R6x6Hhl2SaNQfG5LE5PjHIVClY3EeEMeZBbW2q4rtRNSNHao6qbq+6RKmr4q58LAR8JR7lqSBQECgI7FMEfPtnUoANMinUzzU5XtVzZdiafE26lqdlGkNdL/wTxLvnuSKxrIqW+CmDindtYzUd4HSkCSrmZ5FM7zyCNOsBClgta/o1wB3VDJIvhwPCWe7/xbiqt8SZwr0g3ycfeSA98qmHWe+9h89dqK7n09akkzbYyDvgyMEd2HtjY5DOr/fTySeeTF/59+9J3/RX35G+7pvelO65717cYs6mTfYELwy30w6E7Zm/28wZBgz4+IFDIb2y+DwlzCDVijwrZXqMPLjWMQU4IpEJGXmZfotDTtNaOurIMVG2/rJolbOOIiK3shtx7V0h4GsxKTEFgYJAQWD/IcALXUcWyHJZGNW0eC+77umxZBDOM7juZrEs8Up8+daHuJeow8kECbHWizQbxCMFSS5RITSKFLi1vY1xVTP1WPe9+97XpmN33Jm++sVH0g5q6C3yLc9juby5wRoze3YXkU6RhLu4mdSvcxPL5G3U1/p9ftOb35q6jSWsn/tpfoE1X3w5s5k4nX3imTDYsh87g1XWhHuoqk+kd/7A4fSGt745nXjd3RyFuI6xNH1HslbNrAp8h75d7uP8g61NGkx5epNGYHk8SOVKsg7csTh+rgEDcTrkMNpjJIJkY8DVs5MdJiGTMOUmU0XL3kWw4HUDmN4wLRcoBHxd4EpkQaAgUBDYzwi8wJs96OSF+x9q5rDuhYqCjbhIUnx0lCExe+CC5+sqGEtoy6iPz559Pj3+8JfTxz/0ofTMY19Krzl+LF3EPWTv4KG0urGNByu8WbGVaAAx6s1KD1RD68ABx5B14DnIu4N/6Htf93Xp7LNnsWxmjRZvV4tLC2n2wHKQt2Ss8O0y9exr707beNxaOnEkHTxwMK1dZL0ZFbP7iPt0TGcgSsCXLl9OR77uDWkJxx5619qmTqcWsVeYyYtr0xyUKIcyNkYXY85YehtxPtZYKDE7gwkmzdOUwOeFmJVitvtCoRDwCyFU0gsCBYGCwD5BwFVZPy8Y9pDI1XmDaIJkK2EwfFJWkjCJDff0wFBaOkugLQyhehCd4Tweqn73d343ffgjH0unnnkq7axcTD/4gz+A8dUknTnzZGohZUrciz2OFRyw9WhHssPDFevAC51WqIw9A9ize9tdjiY8vsy2o04abWKgBXF77u8s0nWnNQtpZiVwSLnNcTq4PJ+W7jiMFE1HWBte43CGthKw6m6IdX1jK51nr/DHPvu+dO+bH0tve9d3pKNHjzGXGGGcRd0QdreLQRhtBNU68ZDhxaIKYxl5Rltq2xaT6lhESJjekl8yzpmrS/1Yc3ZdFc9IzXvqnibsuSkEvAeMclsQKAgUBPY3Avm1XxsO3bCv9Ys/stdUcW3umozN4bF97tHtozKWoHoYWc0iqa5hsfzxj388fekrSLwf/Xj68pceS7MYUsGf6diRI+no4SMYEm+n5/BidZEtRp0e3qeGnTTLQQodSEjr6AFEto7TjQF7dLvLh1IfhxsTCFCSXT6AxfKBdhpvY6yFOtqtP9Kfbie11G5D0HOHD+AFawE1szuIx5zCxP7gZ1eQihMEPh9+n89zpvDjT59MD3z6s+nP7n8o/cH/96H09m97W/qO73hXetOb3hTldjDQ6urog7Ep1Tp+aFKBOEIgJckauCjFmktvXqr/se/m2d7tBuuoSkRusTPkzU9Ol/JzRF71VQj4KkDKY0GgIFAQ2N8ISBe88nHI8cLBl/9eiqAkjxr0amylJlWSG7Fe2lddCwlLuiOMqb74xS+nBx98ID0EoT3ypS+FClqJeJF1XbfnDLfZ/9uEkLBuPrh0MM3NLuAha5DWsGgeNjfSIdxGzqAG3mnupFOnT6cJ68K6j3ztGzpZUqbtBluAdAk5nmxxhVzbeslK4Zqyx1pyF+m7uzDLui6uN5VGHTZ9v3jxAn1MTBZG7P/dSOfYU3zq+YvpiZPPpTUOguiwDensmQvpve/5o/TBD3w4vetdb0s//CM/nL7+G94EcpM48MEJRxsi94QmMYo5C180UWEmTp5YoaQcNBxY7V3YDYFZDKNW89hHqRcHJFbEmG4WCgHfDJ2SVhAoCBQEbjkCFYF6IeS1xeohR72o72yMZLlscOR65xBCHLPW6nF/vdkl1k030wMPfCr98R+/Pz340KdD+rWEa79NVMcDWG9L71eomnGfAW9BOkrMMPoRzu09+cwzqII30gR18xqWyS0OW/B0o+FFji8a7KQ+7iYX2cd7mLXiHgZZEl/sw4UDRxyheAkfz9a1xWSgtQ35kudYZyYtjtpSGgZZLU5MOpueeOKrYSU95xGESNpnL66lp587k56/tMJ+Y1xcst2pS7zS8YBjFD/4gT9PD3764fQ93/e96fu+//vSN7zp66mNE5WQyJX6e2xtipORiAsmDvaM3hmTyVSGVjq2oIFHJwTSt1J0nTuTcf1kxhuHQsA3xqakFAQKAgWB/YNAvPgRDxG7fN3vlcSCGGAG+cG0PRyRJTti5RRV10q6npXrQQWdLm4cm7Pp9HPPpwc++UD65H/8JMT7mSDADgTW5uMpR5tYLdfE1Gi4CGs7UE8fCXaHk41o9Ajn866urKQVpNNWa44yO2merUJK15cuXcKjFVbQkOMpPFrpPOOuE69hrbeLS2hWXOlLWtDvRi/qiK1MEGdnaTbNY5Sle0qb06vWyupKeu7sudRv9FIPAXWbNeyVDRxzrK6xHxmJnHVhZgXw+DDG2nDtl7OEt5Hq3/u+P0h//rGPpe/57u/JRPz1r2f7U4eDJHaQznFriWo6jM9C4nWQ4F2zbAAYQ89f4hk4XIW3cSb4eYFQCPgFACrJBYGCQEFgXyAAybkNKGxxebkHCV/VMVWihkwMPEAecV6wlsKQqGpcnWXMY6G8traZPv/ZL6SPfvwT6ZP3fyo98/QzwTctXEx6kIEWxFpAS9oSp2rnmlf0itVgW85OfyOt4hry+NHDEGkrLaGKvszpRps4xlhH/Twa4OsZ1bMkuEPhDlJuFyKWYF1KbSIpaw0dKl66e1DJGBeUXq2/CyEuoU5u4njD84aH9H+WLUszvUWOKryUJoxpywkC5Hr6zDkGzvoz/qEFRyLVOExV+xbOQtpIz6EmZ535fe/74/SRj34svfUt35i+/du/Pf3V7/mr9H05b5+ibw3OMW6yPq10G5hS/6TlmnRe/xVm07waxMWQ1313n3Psjb8LAd8Ym5JSECgIFAT2DwIV+9Uv+xt2TFWpxAtZ6At5h9OEpAuJrY2ryKeefCp98pP3p/s/9WB6hP27ly9votrFapl9ugOkQM/StQrXhlt6sOJeoqnbre91sDEgz+lTJ9M9r30tKmUNrzppaWGOtdlGOofF9NHDh2N/MGbK6fzlS+kYBltzXfYLs5f4wvlzEPdxVMUcMKikCckN8Q3dod+LELANu293sLWJ6ROSKWS9DrmfO3shbZF3nc/a5mpaPHAknXzu6bSC2nmmMwu5qxBmXZvJSh5Inji45UpJ17XfLucEb6xjXPaxTyL1fzp94IMfSj/2Y/9J+s7v+ishBSu1D1Cte8pUF2x0a2kIXPYAwfADGzExuHFL47KYyeSom34XAr4pPCWxIFAQKAjsEwR8y1ecYo8kA4OaUYPPcEtIfqqNg2yQAhcWlkL6/eIjn09//pGPp498+COonM9gw6UVMmurEKDEt7kJUSvlwiq1JD1tIzcx/Q4jLPf1Iimefu5sOo8K+3WvfyPbfo5wtOBW+GqW/LdYY3V/7hrblbaQiies5DbxTjVmXbiFnrbT7KWF1yxxmALW15BjW7U46mb9NkvK7hseS4ZbO6ir2xh4rafTp5/DDeVG2oJQ55awqMbo6plnTkPSDB5/0EPilX4ZCGSoVy5U8wwEigcfjMe4GzABaCER91CxS88PP/yF9Mgjj6Z3vOvD6bu+67vSW775zemee+4K7fPm5hYnUHG+cGU5LQhCrpMttORT/I3LiwP+YqpfCnc3C4WAb4ZOSSsIFAQKAvsMgXpv6ZgtOZKHKuKG66iSC6Q3YDuPa7fz+ElevXQ5CPfDH/5Y+uwjj2A9vMLe2Q5qYIyjICvP9fUQg7qOIJGKrBx2/Xw1pbjG6SH3O7Da5riTPv+Zz6Xjd96BcdXhdOjAgbSxdgl1t16zNtEzt1IDIydJ7wISrOusHfbjnqMvbgmaQzJfRC09pB8eQdhCAtZf8xhSljSVPq1r5fJaevb08+nUuXNxfOEsdUjWX3jkK0j5jIF2Bhodw4o91nUdU8xIJGQnFTzX/q199qjCTXxXanzVpl0l149+/JPpEw88yElLd6Z3vO1b0/d///ekt7zlm8Iae4utU9A6kxb6Q51Rf40R1wgAZV9JrWNuem3OvPsf/PxNc5TEgkBBoCBQEHjFEQjyo1WMj7HUnUn3LI7Sf/nabdY8oT4SJUW/suMMjIyxaJZM5lABX7hwPv3+7/9++o3f+JfpvVwff+IppMAmRIPBESy1g5pZr1ASnFJbXCEOCcZ6JRGvcc81AgRWx8XZuBIlCRLfDmribRxj3HPPvayz9tIGzyscpiARdSA3F3y3UG/bx22k39nZxTh6cANCXmEtd4iUO8aAaof14hbrxQYnE/ZCY64Lq2wzQmo/jVr7FKrrEROMBdTUT7Bu/fhTT7PP2PyNUDu7ragDsSuBG6KPcWWiQtp0+1VIyErKbsPKJzg1UaNL2uvrm7EN64H7H0hPPX0q1q3vufvuwGfIGrGnPgERknquv24nN6bEndN+9YvjdGGLe5aOlZbh/StCkYCvgKM8FAQKAgWBfYwAL3Gl3lgzRQyVbAYQqiS8iHeo586cTb/3nvel//DBD6THHn+Mlz7SHarbJlt5JF3PAJZ4ld4mpEmpen3KxEDlQbHBSUEiErIhjvWjzN6gFykNvAawzQz+mr988nQaf/BP0w+8+93p7ntem86eu4gqGp/NIV1CQpAiFBROM7741ceRVu9JLfqyhAQ8gPSOYqncgjSdDCxxmILsphvLFcjwHG4uT547nzZgsS5GWEOspZ+mvUe/ijcu1pfdapQ3A+mkQ2mWvjJWpWmnGU4o7L3LwnGPVG0J15glS/FwvXcA2dMViLodW6/WNjbT+//0A+mBT306/eD3f2/6yb/xE+nOE3fGuroewpSEnYbYnPUZwl13tHclXjn1yu8iAV+JR3kqCBQECgL7AgFf377Ur5aAN1CzdiEnSUaJch7i2sFg6Pfe+970z/7Zr6b3/8kH0nn2w7YxSJqwhiqpKGGqMtaKOiRfiIMK8kf2CHqqKcR2s8q2phDPAA6SqbJI2E3iPOJPC2YJegRzXUbqXTl/Jt11z93pXk4sunDuOc7tPc8EoJsWlg6w7tpF7YsUz3rw82fO4Oe5DSFvpIt4yVJa3sJPdEjKSKfbqIhXcS95ii1HX3zicQj4HMSLBM/i65N4vPryo4+Rvx/aAaVanWboWEMVsVbWkqoGV4KoJG3Xs8QvsNWdELjWLPHHhIJxgZH16YpTtbjj9PrYVx5li9an0n2vvQ9J/24MzfKateWdiOwNjsW2X0gCnmn84sld1PfWUO4LAgWBgkBB4JYh4Ctdwa7X5LQffCp/1wm2z3w3BDdsJTbbpD5rpAsLi0k16W/91m+nhx78DDyKNbMHFGD57Pm4DcgkbIKDPVGbRp3E1ZJfKFXrIWZSkriUqMNwifL1s9JzHTSS8nhB11GVIl1/HrP9p4cU2RpspUNL8+k7vv0doZJ+9LHH05NPPZUa7DnG3DqIbY41322cfniC0hxkC4Wno+z3PXboQFrmfN8e67tOGZxgPH/hIqSNZDo7n/ozrfSVx5+AsNdjS9JYgy7inFg0qV+HIpZxQiABqi0IBvbbMVcDcBLiurkh4knz2dxNxi+Bmrfm1Qb9ds25gdevI2y5+l//0T9K38LasBJ6F0M2jd4CYsvw8ffWBpO3/u4oPXqR/cxottGwh8q67gPZWDIoBCwOJRQECgIFgX2FQP0izwTcTN95x3b6w++9nM5sjNI8jpgHrOn+5r/6l+k97/k99vQijbF3VwtgLZr1UjmGUODuIGEHpiqW5WMIxye/kGAhjt1gXH5uxRonUi3p3l8dlJDjUANYRykbEZIslEcKdRtRY8h2n+FWej1S8Bu/+S2R9/y55zlDeD32F6u+tbxk17IO2p3ttNI8RlU9LbOROreRlLcZi1bOm573y5jOrWyms+7/ZWxwf74igbaRjCXfLMnGAGM9PLxbOQmp1oPrcUjQEcSjnlhwr/rYyYSK+SBx1A/2U+cj7omem8dxCJOMY8eOpH/6T/9Jcl1Yb2Ju79KjmJMVQxAwywNv/d1hevTCjQm4rAEHXOWrIFAQKAjsVwR8qUMJvNCHkJ0epTZR2f6TX/zl9NGPfBwXkvOom+fC2YTi1wzkFipWiAmaDO9RYbXrPfX4o2SoCtu9wqpQlQIlj7A+hkyzRGc6Zap41bJRGpJyvVRSy2k2inFT1KHBGCTG9qIxE4JHnj6XvvTUf0gHMJg6cGABomTigPesrdXL1MXZwQvzqQPhLuIxq8Xe3BFq8u1JC+cdHiU4TJeQdE+f1up5lIY0o8raVdcxDCcq9sG1ZbcUiU3IuNG/LPu6Put2ob3BdkM1TfwE9bmj0h1m5s6c2XGpVs4+oMGKbUhOGraZCCzOzXHy07n0S7/8S+kXfuEX6D9SN9jo0UucQ7KmyixZ72352vtCwNdiUmIKAgWBgsC+QSBIBaJUtdrE4vizn/tC+vVf/X84IOGrqTe/FPtuJ+NmrK+6jsk/yCRvS5Js3JmjC0el4bAADrWzSl9Jh9olTsijRZkgVrxVhQUxkuAM0qFkLFGHWG1dUh+SrnkpbGNRf8P7qJsy0Q8soHvzQWTnVjdRJV+QDoMwm5S1zQv4cG7TtznWbePEIWpQ+tRz1Zg2+9SpYw3XjpEj49xFJrBLAAArsklEQVTgGfoXZEk3JL8GmDhuQ/QtEp1suP7LOCFFRhA1ezRhTBokS+oNY7YKg2nfKTmpJhcxhamIWhJuICLrRGQBS/OHcNn5K7/yK+kf/uw/DGLWT7WTGgldX9nAxzVbYkfnrvNVCPg6oJSogkBBoCCwLxCA00Jag3wXONjgC498Mv3cz/58GusxCslXZxtKXGOIJog0+FDpNhOZ31JClugckZIqkiPXpjdhsivxSlDBVxaJIIEFlxGhllaJ0LVhpUIqpQ4JLKYHPvLRKtt1ZlTg5Fcd7h7jMerZNhJuZ06/0px2xMdykrzqZbclrbPHll5TqWuxeMZCykUYjvokap1sKF3GeCBb9zLPQL7Wo+rX4Bijw1SjMxGD/QhSjnTrVp0enY/E3H8Jk1xRRBwtabL563qcqBirOrrB2m8/NBF/9sEPp2N48/rpv/PTqc+kIdcj4kHDFrhpKAR8U3hKYkGgIFAQuDUI5Pc9zjUkGAyATp06mf6vP/il2HYzi1Wx66IaQg0gLckrCCyIRDKFdJWEsZZWijMg+8kfYTSltDtyodL8SJQTJVIzwTJjJeEgZiMiS6SZLikp+UrCsQvYTkrewU7RY9rUYhojLSRMPVmRSOODKBvrvqTHMX9coTOEaaRijMckr1FmQUpIePQ86m/TvuRPv1iTbeF9yzCG3DUAC1HTCMtGfr8cNfWFZJwnF/ZfQzKqmWYNdTHxMbFgHJK87eYjCiXl/CFLlLEJJzsNDL+2trBAxwjuve/9A/ZB99Pf/Xt/J3ALTYA42Q0/NwmFgG8CTkkqCBQECgK3DoEssY04xm9mbjk9/djTqf1VPvN34DZyDYNi1kwl34q0JEHXifO6Jb2WWKvO13kkoCztIolCJmFgJNnJSqTJGJKSvKVxUqwJWy+EFlttKlKBpqE3c0s0SqY+wbNMFjx4AYoKyb3h4QiQWnSRsrVc6KEGxs14nCAzBdXPCrjUFmrcBqpb9zA3kYbdyztBEtWwzL3L1qGfZtXputIMeqUunw32WcHV9WG7G2p166adkJi5V1J3PKarYYhhMc48wSCeCCEJ0idfEDPldDrS4hOTItI3cThyaPlA+hOOb3Sf9X/3P/yMg6DNjIHTnpuF6PvNMpS0gkBBoCBQELg1CEgIvM4hBC19cTCBcVPscYUERkhiEpZEpsTmeb0hjEJmSrR1qMm3JhelrgZlNRqiKKFN/cE2mXWotU39EpMk1Q6yco22kkQpVBOHNBM9JN+EPkiBE6yeotvcu/YcJGY/uW/xcTyxRooM7YQhSJQ1XvcKd9zHizGWzjt6HA7RYG14AqEHo1JOyXmEVO2YmpCvg9eF5Nj+W6+sifStij2oj47k9WHJNUvRtTcsChCX17hrjNQMILtTLfVQp2Xq/ma1tk4/OFVK5Gnbz5qnPXFgwyc+cT8GY8/jWxu3m2gXRk4aAh1bun6w1yUUBAoCBYGCwD5EIBOkHcvGRB4e70s/ts5MOTbnknyghBhFSJJIsNMse8amS0pVqFAqauqaJKQC1kchnqAciEkFsTyuIVYmiizJmh71SlL0RZKOAxxI0GGHomPeZ0wupWqIaKxIKgFCakq0EnEjJgwQXpShDiVn65NE7QX3fiR163OtNyyxqcex5slJ7ov9iXVjyZOR2WwE64ggHRPpo10KcvTKGGmurotZDP3I+EzXiymUydbugKzds4wXx0Zj+qJeX99Kz556lrHhuIOJQp40kOkmwapKKAgUBAoCBYF9jkDmIxhEHuGh/thtCUQ1aVhB54yQXiaJeljmN6jyVS3s2bpybvAdttJa+VpP1MvVoBQ8ppxbeVQDK8WO+Qwpp4TnXmPJNVw/VqQZ66m2TTyVBUFL60FcSrN+IuQrKfnRJmm3JkOvuRtUlgtTF+RNvRKXe4iVUM0TQ4McGRkPUrYqaOPNWbXDJSYLXJ2g5HgJH9IlX8ZHtXXG0jqdWGQkrFGVuFu8qLPa2yT5ZswmaWNzPX3owx9KfQzmHK8d2C1r+WuDvSuhIFAQKAgUBG4HBCSdup9ySBWMC0mRq/cSjGremnSrbEE70tQEj06uiSries0kLPnm8sEvRKpWViKs+co2JCjkV36QoSEjCdSuRFvyjj2gbfshnRkv0Uh+VpQJ0/7lj/VNQ+SZPuUbydEfOxllpEJrsrwqbiVWxhqDyAZeebuR0nCWlKdt2TXbyMxOOv1ksO4rDjV8qJyV9B1pxtpeO6nQ4C3yR68iFo6lLHVuDbbZj91NT+Iy89zZs9GnQaUqj+w3+CoEfANgSnRBoCBQENh3CEAcwVFBItfrXSY5yckwfYpCRhDDP1WvflQzR8RUArQU/GTBYAfJlo+qV4yaJC6f3ceLopU6XG01xqScbnmeMtFxp2Qe66e0HVQbnZKIJb0sbVqvH5+vDI4kx0V+iFLCkx4dSwwnrlZKm6ZUdTAk8tIn4rNaGyInMtZ1ye66udbenmykty/5W3V4xEfFtuv0wLFUY6T+poRPWUPur30iDwT93LPPpy+wT7utYxCstPOk4+oxRdH4yrXsPpe7gkBBoCBQENinCIT0JiX5wpckIiChEnKcvGSahAChSCyofDMB5fxNE6JAllaDrKlPi2hDLS3qbCNIVVJTnSzpcKFmc+V7+qBKOx7reqOW/GVd4ZwCDtJblD8GVeBBqLRbX0Oda32k71LWbrrMGxbWlDGDcrEfQ9BkYMJ0IFTcYmRrZKTOPCbrUtoXDyRf6zEHcd4CWe4d44g1ZuslcgJJ+6Ea+s1mriif166jXvLlU5XoOw5R9M2txyx3ctlCgBPXa7+q38S1CSWmIFAQKAgUBG4tAvkFbh+8q4iPe+8ygZgGZZEcZOf6pGu7Bu7hOXhLMspR5pG0JBNJK1NUTrS+LCGSFoyUyTOk4Vw8fxsBSeV13yxNm2BZP1cHa5cIo357TuPG6WvZuJASET9jvVXSrMg5Z43e2tlpubiFBLV+NkHidIBZSqW8dTphsALSMi6MFSMu713XNtVEdQCZPHM/Ip7xBUqOJ2fLZI+0H9p4G2TSERiR7sTBtvpsjZqbn09f+tKX05e/8hWsuzvhJ9rJC126brgWretmK5EFgYJAQaAg8EojkInCVn2JS1hSmU/5Y0pmmXwnscb6a7CmEhmpfElquQ4MqKKuKj/3dRuWVWrL9Gh6RfRxmwlKw6fIR5z32RBql7yUvLPaldIV60SXqry5Vr9zsFcqiSVj7/O2n1Bu40lLb1l5imC6np4jD3V5Vb3sMMkV5BttK53aQWJ1G6lRWqjAidJntJoACZqGINVM+u7tdQtX7IWmpD2yrPQrQXbC8IsnpWHqsw5T8gEP9W9DLYQHODTTytpmevizn+MxW67n35T5rg3FEce1mJSYgkBBoCCwLxGoX+NBavRQ8toNtaRlLskiS3yZCOsSJpHGz/VC7B8mSQ4Lapao4gHKId5SPquunhIsJKljDZ/DM5UVQ1Supdo/W46gxMpDXS7HVanRJ2N8tmUJUJKtGq1SclnWbRVFkV4jYFBmfvtmcNqgACyZZ4mVGkNa9hoJYdkd91X8tF2TKZ/74AN9aeUpiUZakq9W0wbHZ39qiV0Sd923x6lMX/ziI5xQtc5aMOcQgkW0FaWu/CoS8JV4lKeCQEGgILB/EZDkruqdz1JRpqBapvSqetTvLJ15l4NSrCQiwdS0VVNQnYU0VacQVqiaJVyerc5ntzD5CStnSIlbEqQT83Mxb5Bn7m9IzlOKJJ3gflmPIoz+82UvpToPMJipjKfcL1yTV2xvoh+Sr3GWM380ruQdW4S0vrZtpVTWvxmnVwNFIrhX2TryurhRYpCpUMnWjyr2rDYnVRL2mdmEJGzbesKK9WDurUctg+vKY85IlJiffeZkeuqrX8WDKG4zK9V3NH7VVyHgqwApjwWBgkBB4HZEQEqqOGbafUlHwshrojnauCAdCZIH6ccoOTTWZX02DVKppdUgtczm07iaGMkOX2Xjp+xDuq43Go/6c720BZnVnG/dtqtEXffcvtSEZ6/MG2ruqi/w4O5YWIf12VMb3HKVZwGUYSBRD9+Wz24vM1Ha59plpSUzFvU1q6xtVxLOfWNcUbfStISOWtlTlMyTG6cWy+Xpj+1Z6RbHKT722OOUYaKDKj1jZeKVoRDwlXiUp4JAQaAgsG8RqNdLfZVLmL7AJUvPVfDp2le8hKaadDdF2a6BhGnuKF/XY12QR02IQYsVQ1UXG6mISXrKIfqCBCotQYlZYqZNjZEjF1/WWYcgIx7tV90rpWodfuQI+6Cql7oo5Edrbsfnj0MJkiZdqbONS8ogQ5uA4KVO2wjXl5w/nEm7Hmmuz7XcrDpWPSxHUimTCDNbV71tSunWCYClPLQiIZ2HF7I8suij9YQUrKcufkacXWwdTz7xZBhmMZgYa4UGde0Ge1VCQaAgUBAoCOxzBGoyspuhGpaaII5MaBCOGSryiTuIQ2KQSK8Ika+WyjI57s1hso44JPjdYCyRVcbpWm+OjWjJJzvDyP2T2SQYtz15jb3ESq32myCvSbSSlQToOLKhFOmkOcbgRK6qkd1/Gwl0TOKdwTe1vFlLtB5MMZlh761q65wz0msJNAjfAxpCRBYvehLPTGssAFHah8CM5yBxniXY+An1Mul2I+vcuea+aFlNgYgfDvvsK26lUydPpdXVy7jabkcd1pdHTvkqFAKukSjXgkBBoCCwXxGQEHh9t2Ac6SWTDupQXupDWSgIRBKDhHyehpDJeDItR2a5V6Op/Cz5hfRZZzC6SpM0vM8SJ8wThAkp5aJBhMaZKdZ5qcsy7SYuGyPWr9ynkFKncQ5IKVfiMqdE5nNW9dqs0VJ4SKQxu7BV61cVTF8gXAm705tD2m2nXo/DHDCAcvzZSAuVOtKoAzcuxmKdtuk1uoCKmLrC+QZxDjsmN45JIys+Q6TeYeXVKmvhM1Fbh2vB/l6CgAMn2qRfM5xUtb6xyalVW9QD1ort1wnZnOs6CSWqIFAQKAgUBPYRArzDdZmoRCY5+Ur3GkwiyQUtSi5Kh9JsTXzkRWLT8EoiyuQp++RagpyimqhtSlYSllkydZiWH1Q15wTqktginlojv3kkO1uXqOkHUeaJdsgW69GQHtmylTTpeqKyPeMMtmup+BgXHYmWINAslbY7zbTJEYD9tW1OUeIEop0N9t7OpNm5JYgXKVQy7yp9qhK2PkJYMNs/T0zKhC4fZ4KG1FEzZ4RyXzJpW1gsxSNLyErA4XebvrnOq5Tv8oC/mSHOOMZsR+oPyROMLUVfPxQCvj4uJbYgUBAoCOw/BOAC6UBpM9PHLnlIIobwfMW15pyaPOp083gfxAj7ZJIwNodMvJkwXTuupUlTgyRtGEqxfuuQhKPuIMqcJ44MJI/aWtkvkxUE5glI/lButz/WVFOUdeU6LCqlmdkc6tjDWxcPHQh7bXuSDr/2ren7fujH09KBI+ni2WfSZz72J+nJR7+UFubmU397PY2RgNscaTgcDaLv9rcOcRwjdYd0iqTLzKBS47vOay7izG/7Thh8gGhjAuICNwcqB7WSHnEWUdJlW9QQOnZPcD0qk64XCgFfD5USVxAoCBQE9iMCvOwzKwQ98OKXFDJ9xd7cSIXEJC4TCBKkoboEEcUzuer105ye82Wpzxg5SYnamqQa0mGmiIl+WDfUQ3QYLcVN1Q73QfDki7XZqBpCVrUbdfHNffZ+ZaKEn1vKo/E+IqprHstwOEhdVM6bep26+y3pv/3H/3dqHDyGtDtKr0NCfcf3/Uj67V/++fTZT340HT92JHXmZtPZs8+n+dl5SBhMKu2B3fewhGYczZjJ1Z4FcmRzctCEZOMn1PokmoFP3Sv7XAcdhri9SX/ZrniH/E9Gy98sWGUJBYGCQEGgILDPEfDF73YebW3zuq0d9hWvVKlaFdLjje4rn1s+mSpuRgKZbDNJVJwaJFRLp1Mypq6aSnKtfku+NgQvVZJhveXHOPvq2rJ11Ou7ZradsEImvW7nClqzjEODUP04vrgGYbNey/rq5jClv/LXfiIdOnEsTfor6e7lnXT4wHba6h5IP/G3fia1UEPPzB5IJ+57fVpd38YpxmZaWbmMj+atkFafu3Apfctb35W+4S1vTzvUNT87h+trxgP5tthP3G52YrKg9fZEE3P+xeTBMUGyOtxwLjHCMGvIs4OKiU5WK7BUEL12FASxun4oEvD1cSmxBYGCQEFg3yGgNyqDkpPmP5mqJDLVoEhe4f2KxIrEJLhMckFpFt1DevEUBCm9ms96gyRVyQap532vJJNPuS7Ew2hXYyXjVeGOss7WR+ohjzkkpVgDtWwm4eBUU+1ffMxPRJT0mkNW93JPgXrLkXW7fjzgOtNdTsfvuCd1G8P0bV83Czl2Uq85TsvtSTrXel265w3fkk6feT4d6xxJ3/2j/1Wam22m9bVL6eTTz6SFTiN1j+yk/twh8rfTdn/EdqFtiHSYup1e7pCNOVpI2SHo5So6yljjnGNwUOrVPZjew+L4RrCPLUuBiSroqMTeWtl1QyHg68JSIgsCBYGCwP5DQK4KAuDlLoGFChlirA4AIlFJLBtpSYO7Eub1xyL5UU3+SJpEWE5BzrScbltWlus1scma6IicStokhISb+6MkrgW0xK9ZknVnAlJy9x+KWuIy1Vt/zrubz5gcZ6Id4d8oe8AyZQa18WAwk545ez69A8OyJ89spHsPpzSHJfTaxgiDLrxPzXQxwDqQ3vSu70/PX95OSwfn0zwE23vjxXTv0aX09OnLaWP1fLrrjoPp8GNPpeUWpxedO512dnYw5MJYDXKNSYnth1oh4y0Re6qT/Y4tVExUSInxx2Qh0sCQsY/CM5g9jkF6c03IKFwTXSIKAgWBgkBBYL8hAK2FqlQzH+1ukU/5cC8h8IGS+VSq6iARHjJ7cgO1hnQKcf7/7Z3Nj2bHVYdvf06PTURiEIKNF0FCQexAbBBbWLHlv+JPYAVIrGABEgskhBCSZRIgCpKDkE2wYydjJ45nPO7umf56m+f5nVvve6c/JhOB5Fdwaqb73lt16tSp09J97qmqW9dPCC7AYB2HUH2lyag1uz2hb0TQgTpQ8dqFWQ67BqxUdB53vE4kmIaMR2XG8LPR4T7g1Ryj5EDOCrGYwwvJfE3naBscS54es7r4dV45+tZbb08ffXI6Pb78+em9n1xN3350MT06OZx+8OjT6UefPpme0Y8fP/rh9BOGm//jvUfTux8+xUkPps/Oj6Z3qPeN3/jN6d3LB9Pv/MEfTr/1u783nbB62VeGjIRt3ag+DKV/egt1/BiRi02/IXwIhF1mxsgDnUpXWBF97ZeSqOFkQflY796dGsB3+6Vz2wPtgfbAFnhgefMGCwGoACtgamBu/t7wBQbX/lgrEakQnK+NamueeKlTXQVVxJJ8p9WVw6ZIUi78nNPNjlZeU2Y9DVEmcHQFcPKDq5zn/VobRsrhXCkWnQKrlEcuAFcfSb05LcH0Q87t7FHOO7lXrGg+BHInH31v+rM//tPphx98ND0BvJ8fH0xPfvR4+os//8vp2Qnv3558Mb31N389ffDNf5w+/Ne3pve/8y/TO//2zvQrD4+m3/61N6d/f/eD6Vvf/ZBFXQ+B9OfUP+P8dSxwqH2TNCMrpWOP/pbTyGCkDyYOA1zxPjBS5XOy0ofZHxtNt896CPq2TzqnPdAeaA9snQeEgsHXCvjs5ubusChkokD0Gv1GxhCT5HCywAw0BR55RlzikYpSwrNKcx3LhceF2ylawrlAdo5zxzYBqK/vWN9IOPoV49rdqgTSrqBMS4qpkSPUGkPRXCXPg7UKVsoaTca65Cnlphn1ICHo7Iu6icAvnjHn+3j6+NtvTX/y/nvTr37969MRi7M+ev/70/EnH0wPVyfoeDbtPns6PX/6iBr70zOGpZ8cHE3ff/Or099/853p8WefT7/4y78wvXb+5vR3//yd6Y2vfIUhaMAt5O0rQ90+8Nj/9Ii+ZKOQ2KxxNRTP2TrlnWPKGTCnK3M/16W3TxrAt33SOe2B9kB7YOs84O18l7DRRUm7kHjFkXVHAUFYKgT5QQAEkIzO4J/R6Rp+lqeoQOe5EA3XvBiJPKM661klK3yFsRcmiTTDEyrFprGyWVAbIc5CClZSF2cC15TAGEVuK3nt0C7/LK82575wPRZyqc+yfcbaHUJfXTydHpI3PT6e/uuf/hO9vPNL+d7qjC2qTtB/nj4caidzxUe7FwwKn01v/+1fTa8zFH0JbL/6jKHrt/9hevrZJ9Prh5f1UOE2lzwI5KHBM+3GMOHrQ8faRjtBgfZpl71a4TNXadvF0U/F7ksN4Ps80/ntgfZAe+BL90DBSjPElyDMUDDXuwDW+cjc6AWAFOV/LaQqIBDKBRwhgkokgzRZJHUKEJNteCZohlyGji1DJts4CiHa3fXjBEhXBMuSLCJYh5Izb0tJiOQv8nwYUHNsXdtQba7tB2QRpYqbf5hfH72f5dCVd53t9+o8ezLHtsvjRL/OuV5dMBQMiFfTOQYQveZBxQeRczblOGPkADhesDsWTyY/R38e/+DJ9PnH35teO3RumSHoAx9s9tHkWmvd5QMC7WOToNX0zGnri/is/KWsHlfU/mu3Ube5qazAHakBfIdTOqs90B5oD2ybB7j3514uFBItEgELksxPcud34NModNzyM/wrDKwoGEaHpMichErxZR4qJr/EK9JLnJy6BRz1u/AoFqjHH2HEP1pf117DSVuNECnJphtCy7yF7NypwLVaZ4jZ92xnwM2mpg3bcX9n7artM2yT/Zp5jcjFT4GlbZFtHHvNcLJtB3S+vyu8gatRqg8nDxgp3mVl87WbchhZs1XlNYu8yg5roitOsJv0UT/bX88tpG+Rtk9zv/Lg4N8BG7RunVT3QsZs11qgT9oD7YH2QHtgKz3g/bvmXI0kmW8FhEZdWZzEzV9QGAV743eINpgLFKhHnqClBCFkwIfLhpzf9KtAkqF+KxOpDSvUF/DAGzal2GHc2yoBE/kJlqGRQBK1eQigjUTW6idfKJn8HYBFrvKSq9FVmmHuseDLd23HVpjWc45Z0DoUzn8aJFJlyNi2bD+bZnDM+WxDYG/Ubp0YYD/Ysco5Z6C8uthPNE01RhfKvr0MieMh533nBVe2WV5SElsWYC7oVhu2vkMEn/07sLcMtc7t1BHwbZ90TnugPdAe2BIPSJlKQuaCG/olFCFO4zYvZIEOtMm6pznSFHm1eVPFmdGAoLwQIVlxvEIKkGUHK+GFEHhCmRo9L/lceD6DUPAGuAoESBxo37r+K9wam1peSA2ApOWsu1qwukoqu05d1IQOftIOEWqg6fWwiyqxnzz74rzvKq8Nca1ifqwfo8Y52QG3fZ8XhWmLQ9aBu68f5YHFfiKDj11odsl5tVtgFb5aHPs10KeaXKjfYWci6gfMOOOP2C+hZ7vXgtRfpgbw0ht93h5oD7QHttwDzvFeX/OuKuAQeLnHjxs99/yV0apk4H/AOkMiIJz7ZtRs/GwyulVJxcxck5dIdtAlUsLJfY5nlMwRZcHV6iP6E5oOhauFPR7VJohI2TkrZ/Urw99GyMJ0/lG+olB0GOlSPuAbHc49Iys+Z0s41upkAVzvC5c9DhcvAVqt1u9qmyjVSBg5F7eF2ykGvoDd94B3+dxhuQHl9NFu+ZghfMe/9FH/0U8XlFnBv0yVL1u9fd4Avu2TzmkPtAfaA9vnAW7+GXSWPQJw35O88AIDjM+8Ll4IE2GJ2Bp8wiwJWEBvThEiBZ45q7pqqrPKFM1Cx2oV7XINibL95AxDkb+7X+AX1AOutWq6NMxN5DCiX49ZPT2Ajp7MM2OroB16Rl37Jdgq0R/7mW7lUSQgD/uFpQbfSOkrSmqueJYBtu6uZdqljtFsvv8r/G1Ad9DxPEdwzoeYAus8VtgE+vwusLoz3z1sR+/aVMX4uZnmv8jN7L5uD7QH2gPtgW3xQG7ewgEKCAju9jXkmoHlQqYgqPdmsZpzAeGPQDK6vbwwanbRkCuphXPBZgMG4TeuNmgQqyNlX2YpTNRobiCHrgFLTRNu+8yB1opodIbaBbtNpKtcRb+iKflCncVQI+ULQ0XXamcUzEfbimXpJL/oc/nA4yhUIlLr2gXm0fbwA17hIcAh6AFpLGeK+Dy7fmV3K/vMT3yZJxtV10OCAE7z1HFbULTMf591s3eedAR8p1s6sz3QHmgPbJcHQEpu7Im0oI8xX0Jc5yJJWWVMvlfiM3OYItjVVmYyp+q62wzrrrlENEhZ1aJYikTY40ibc9t2O0aHendYnOTWkolYgaePAQUh5nKpKkrHRxoKgkhElaD3vPQGvtR1f2kN1xbL99nW0TLPyybtGbZgNzZYkteuBCevEFV7IBIxfRAOc5L3d+f21FIPGg6Xq98PK8z2GLSqVMxykr002HmLM75BrHG0wcrqzDPnYcW/A9l5MOITh6zG3ntwhLyyOv7lqQH8cv90aXugPdAe+NI9ENAAiwErDQp+AI2v5fidXIFxcMAiIMB4CRDOiXglkHOy1jv0FRvyxYIrewWyZV4Xm4SaOBE+HOZUkBrgo13KshCK8izi4iiLsM6znN+Fnqrj8K/DuUTi/Ki7jlSluucm80eqc0GPbqC2az+AZu2+JfhLninjGBe/2AZhvr1RYKnPLDqPa2K0hTStbqsXiNMWUuq23OeY83NeXyKyzxy88+Hk+4lC3/i1T9dEwccnp/wNHnDtMHb1RRX3pQbwfZ7p/PZAe6A9sE0ekAZSght+sUZYCC22jQAOY8jWwMvXeJR1EZGgEDZBVWUX9NK3ivLU6uBq4CJQrE898wtKEa4a0e3CJ9dhF0Q3pRhEpeyRLFFJ2ph3kjlXl/bWxx4EF3YF+j4P3IXtqMgv65VswdKGatgYEDr/DLxdDb7SLtrZYSzYo/2vHcTsTSX1OIqcWV4NxNZ87zfFDIVrC5BXZyJkPY4PlZ9Y/LZy2ICIO32jroA/u7jIKIRRuP0rX84N3nNoAN/jmM5uD7QH2gPb5oF1ZMZNfmxW4YKhCzau8BUYERP4cBSQYnePoVyoRxkAcYISgGRo1l/CdE7ZwUpwAZORm/NZxrbXyXP+q9//Rp3C0DZTwO9l1DnqelQmcuqwraXeuYFlXbMqSlZ3WrRazh2G9stQ2RFMkM+6LE73IqXsMllaYFZbruKrAmopRy8Q5W2telfaBrOrFoP4nO7z4JCKaHI0Qfv8GxzxlSb748NMfY5x4bOlCfN5A/gOp3RWe6A90B7YPg8UHI3ojIEZ5ORGz/dpmaN0h6c9bvwOMZuywQZQyZFrN4YYK5IFrbGm0Zx4EECiLcPPXGRxFm0YnQrVDYSBldwRMHPU6oYWKI4O5fyp+VZngW/Ah8triearOp4nqqwIuiBc1ng+oByYzXqFtlGrPdTmJMqyg5V9IvTPhiEUCF9b0ArPx9aZiJOdOFYBkr5EwOFiljc752v0vuNSZ7Kd9t3nPG0zpG31PUcVAmBq5lWp/ens+VkeiPbcnRpVjvBnnjl2rK1Ni8tf+r1Te6A90B5oD2y9B4wWRQaJ4VBZ6xCpw8WCJkcI4wpkIeGH5SWm0BFk9TlABM0rLfmduVD0KuN8ZoZtlQg8Kt8m1RPIQpfMwTpMS6Z6Y5dQ4gQ81RC2ldZphn0ZX9BDtoagk4lkHW1jpCWIfWe3rjW25pDVugPQR/6i6lAxH6kjXfFb6uTUAfR6mHCofvQvDyLaxoOFLoif3X6Tk+dnZ9OTJ0+m09PTlDm6cHZ+Nj17zuIr+u/mJka/Rs+XbGlZvb5hyuKyAbxwRp+2B9oD7YHt9kDd0o2yjLAupAMpKIGY+8DRYdk9QeBkMFs1ri7P+cIei7SQFQz+GH0SMzPEynC0Eewgl8TJucDyYpGAkmgUUL7udG2Y53/AY1QeIiFDHArnNmgpONoGqvmAQw3NCu8aRq+5XTVv2rPO8icRpxJAP3PI9K0eF/SDO3pZv3Tk4YD66+QpP2aNXHuPJ2ofaOwf2kb0GwiTfy1UqSVc93igOXrwYLq4OJ8ePXo0HR8fx29nZ+fkzQu0bIqGnA8+x+8/LW289NMku7w90B5oD7QHvkQPCDE+IgA4BcMVu2FlbhREBD2ASDwLWoeGr5iTlDqWSb9Er9QrEkWSc+M1y/1Vh9JFOSdLQKS+QoNiOTf6Vrf5M+UQqDlbm612FbWicBqw97zeuzXKBMh3pCFblqEffZcMBduUea509mHEqF27/KyhMpt6EcvQtBuFpFNkKb9PVKvt1nO2fCRHEgJdcg/4jKHtOBTvcP7h4eH0xtfeSN7JF8fTGZHw8dOnaTPz2rRtpG5ymH42M9d3/eo54Lu80nntgfZAe2DrPCB4jC+JXbnRXxPJGmgKygO+7rO/yyIsaer7tNz5Nx8xQAgZsBQQGTlnwZRLhomWBaFJBFU8ner8Mr/qOO/rtTmJcY2clTePCDoAozAfss8XiBzK1riqIRRtV8lkqYeivNaTspFPn3K9ATWiAXoYbaNEztpVqvUFrQPe690aomYMwCrrpAU8jqSaUES9vaqol402Es37yhJlDt3HN8rNGnbG+8j2Hn/tHuBf+mzU+/RzIMz874H+sBjlPkz4EKQG816WGsAv806XtQfaA+2BrfJADR9rkuCFcvwSJ64hYrEQw8JCTkxCtxwElSDIu7+BjxE0GRRkBBtoGBiLtfXrQ1KK8sCKX0hHl3lBE0dfdSrgaJNzpIJOCBldapGQJJNz/40o1SFv842S9zKfrG4l1CmArTJD1IcFSkwOQ1fkSl8Rcvh9h4eNKvXhwIr2C+HKTD1/ZZV0JKrf1hOSEaZN7XGxlWx3o41ryoWq5et56jih7MsQNTLPgC9uiMwe9ff2Dthx7Jx+UFUb4geO96QXHxXuEers9kB7oD3QHviyPVDAM0IzajV69N1fz73fJ/oMJGY7kUsEBlwqWWhdMVnwMZqecc1Z6Rc7YQe/U0PCpA0RV2RzmNWo2LlXQSp9/RSiYBRcSmpXMajqqMM2HB43Gs7rUZHQJl8lYiMRhny1uVRSL//LbunoHDc189xRq7pn3XbQhxF+jEDrQWKul35VfxVTKU3BRpeLEYMSqftpQvthH/RHVnrPsjph9MUs3WkPWZPNQisiaPL2s4jLqLj6JnhjmQ29JHUE/BLndFF7oD3QHtgeD0gjf5xb5AZPROjwqTQxmnOBEuPBRKFEadz3V4DWeUmRJUBWCZmpj6xwcB7ZFG5x9Co/tBEIRajylviSKcEK5ebHHuqov4aPiW5n8ESf59odO5DjlCC4oEZ+ot3soOHnFgFYJNXHiaAXionmK0/5SxaV+cWhPTsaa8tOtMUmH1JW6tZH6ZU2qFh/cZgj7LiEbO1TPsPX8/C6mhPhY38eNCCvDxdnJye8+oWvE5HzAIOPjai1Y0T5NuIyL3UkrU9GRh0bwC/6o6/aA+2B9sCWeSAo4J7OLZ3hzenAxVcX0+6lQ8zCF2gFCKKWCDLkogtUc1HStRAGLtfzazGOPssiyzz6am6d2W30mRtCel2QFbTKCiqPPgJEt+DHBmemIyHU+TFCFEaC0DrKWEuq+nrPcmcuYZhXmWZd1ZDyVJWXzHWbSgeQdPW1fSYi9lFCbEba0JS2tNjftrdj50iC1LyYYUZkLaOOdqawyg8PGYpONaNy6/HPispdsePV6RfTrrYyB6xYHocoS5/5uyi7ioIaAbC5+1ID+D7PdH57oD3QHtgKD4gAIUHkx0Kr1Q4/e4DDxUFEjleAwEVGV7wmc7X/oCgy2y2YBPCL3+JVGzqBjmgTkuMDDYmkaceFVcuknElLZKx6s92leYGepegzGgSQ2UXKSFs9UUWbwhfiGGlmuNwKlsk2gWUQOaeKpGuYXWsdNFfYB4kLQeh87bJf0UN+OkzvKFNv7NYE6jnMnE6jSbGbybpG57aTDUywKZGyBbbFUPUVx7NLVmIz0uCHIA+Y890/Opx2jx5OV/w9fEgwYrc/eWDQNzYWvTdbZOj6dlbntAfaA+2B9sBWeCA3bm7o3MF3VpfTwfPH3Py5n18d103d+Utu+nvsBZ19ny+PMJtK+T/f9T0IAZMgYhhVkI1Uc6mWIQYkhddKylZW8uu1IuoiZNSnOiO+FPp7Vjdg7Mpk4ZJ51UiBUeEkF7Wfug7dep58ZWgz4MUGo2d1Zgg9crZFMp9D7CFfQI42U2xkGt1Yp/IgWIt5GAiANxtuKG/K6ECdlv7zg7wf7FtLRtulh7EFVpqfnp5Mpz/+EP/jc+Z998g73HmIL86wC98Y3VOP3vF3Af9OC2hwzF+fjNbo8x99OPdsndcn7YH2QHugPbAVHvBuzo3caPf08XT48Xdz7vyut3OTN3BZEwAApU1a3vA358r5z//W3gAguYvrWdOoOqrM2Zt6lVG158KFzKL63NosmfZLMPbfuK5ngMoMBEe5DXs+G7AB8NKiuR5Cy2rlpZFTehZXZQwE9UFj+Cf6Ue0Dgl9E8vUjIatU5n81tKjLoeqNh4rnv/Tr0+rgIbYaw1N2I3UEfMMhfdkeaA+0B7bHA975uXET/V6/9rXp2Td+P7StW3nd7Gf6xuQEfa9k/BJWr1Thf19oaYIdetXrIVtOeLHeT7Ny1L0lt2z8RqFFo94cpQ+Jio7HFccbanYvTslzIHwYu5DltAH8oj/6qj3QHmgPbKEHuIG78vfk0zttG4y4s/DOzLuBcKfo//fM2VUeBO6Lvn65H68ZubgPvrq1AawXOrUH2gPtgW33AHOY18w5Jt1x30/wdSMCu79LQ3CpaOTdX+v/YsnP0ut4ixGJdZ2crK9uuyfR7+3skdMAHp7oY3ugPdAe2GoPcKNnw4qkl9zzt7oLW2jc8hHklcz7mXz/cu0N4FfyeAu1B9oD7YFt8MDLb+jbYGHb8OoeWC6Ze/VaLdkeaA+0B9oD7YH2wP/IA/8Nv7sHLOtOiewAAAAASUVORK5CYII=",
    "activeThemeId" : "e59eeb42-ccf0-4a36-bdf9-e630fdab686d",
    "audiateSessionId" : "",
    "firstMedia" : true,
    "hasNotifiedAboutHFRMedia" : true,
    "projectDuration" : "04:26"
  }
}
