{
  "title" : "",
  "description" : "",
  "author" : "",
  "targetLoudness" : -18.0,
  "shouldApplyLoudnessNormalization" : true,
  "videoFormatFrameRate" : 30,
  "audioFormatSampleRate" : 44100,
  "width" : 1280.0,
  "height" : 720.0,
  "version" : "5.0",
  "editRate" : 30,
  "authoringClientName" :  {
    "name" : "Camtasia",
    "platform" : "Mac",
    "version" : "2021.0.12"
  },
  "sourceBin" : [
    {
      "id" : 1,
      "src" : "./media/1657044461.881172/00-TalkingHead.mp4",
      "rect" : [0, 0, 400, 474],
      "lastMod" : "20220705T175111",
      "loudnessNormalization" : true,
      "sourceTracks" : [
        {
          "range" : [0, 10248840],
          "type" : 0,
          "editRate" : 44100,
          "trackRect" : [0, 0, 400, 474],
          "sampleRate" : 30,
          "bitDepth" : 0,
          "numChannels" : 0,
          "integratedLUFS" : 100.0,
          "peakLevel" : -1.0,
          "metaData" : ""
        },
        {
          "range" : [0, 10248840],
          "type" : 2,
          "editRate" : 44100,
          "trackRect" : [0, 0, 0, 0],
          "sampleRate" : 44100,
          "bitDepth" : 0,
          "numChannels" : 2,
          "integratedLUFS" : -18.0058314123235,
          "peakLevel" : 0.892061829566956,
          "metaData" : ""
        }
      ],
      "metadata" : {
        "timeAdded" : "20220705T175236.847891"
      }
    },
    {
      "id" : 2,
      "src" : "./media/nFqpPmF7/Pasted Image.pdf",
      "rect" : [0, 0, 960, 540],
      "lastMod" : "20220705T175410",
      "loudnessNormalization" : true,
      "sourceTracks" : [
        {
          "range" : [0, 1],
          "type" : 1,
          "editRate" : 600,
          "trackRect" : [0, 0, 960, 540],
          "sampleRate" : 0,
          "bitDepth" : 0,
          "numChannels" : 0,
          "integratedLUFS" : 100.0,
          "peakLevel" : -1.0,
          "metaData" : ""
        }
      ],
      "metadata" : {
        "timeAdded" : "20220705T175410.844262"
      }
    },
    {
      "id" : 3,
      "src" : "./media/1EHa25MM/Pasted Image.pdf",
      "rect" : [0, 0, 433, 540],
      "lastMod" : "20220705T175719",
      "loudnessNormalization" : true,
      "sourceTracks" : [
        {
          "range" : [0, 1],
          "type" : 1,
          "editRate" : 600,
          "trackRect" : [0, 0, 433, 540],
          "sampleRate" : 0,
          "bitDepth" : 0,
          "numChannels" : 0,
          "integratedLUFS" : 100.0,
          "peakLevel" : -1.0,
          "metaData" : ""
        }
      ],
      "metadata" : {
        "timeAdded" : "20220705T175719.499771"
      }
    },
    {
      "id" : 4,
      "src" : "./media/J1LtH93c/Pasted Image.pdf",
      "rect" : [0, 0, 433, 540],
      "lastMod" : "20220705T180151",
      "loudnessNormalization" : true,
      "sourceTracks" : [
        {
          "range" : [0, 1],
          "type" : 1,
          "editRate" : 600,
          "trackRect" : [0, 0, 433, 540],
          "sampleRate" : 0,
          "bitDepth" : 0,
          "numChannels" : 0,
          "integratedLUFS" : 100.0,
          "peakLevel" : -1.0,
          "metaData" : ""
        }
      ],
      "metadata" : {
        "timeAdded" : "20220705T180151.787716"
      }
    },
    {
      "id" : 5,
      "src" : "./media/F9OJUMLo/Pasted Image.pdf",
      "rect" : [0, 0, 960, 540],
      "lastMod" : "20220705T180332",
      "loudnessNormalization" : true,
      "sourceTracks" : [
        {
          "range" : [0, 1],
          "type" : 1,
          "editRate" : 600,
          "trackRect" : [0, 0, 960, 540],
          "sampleRate" : 0,
          "bitDepth" : 0,
          "numChannels" : 0,
          "integratedLUFS" : 100.0,
          "peakLevel" : -1.0,
          "metaData" : ""
        }
      ],
      "metadata" : {
        "timeAdded" : "20220705T180332.857994"
      }
    },
    {
      "id" : 6,
      "src" : "./media/jCAg46ni/MSQE delivers ingestions that are:\r\n.pdf",
      "rect" : [0, 0, 725, 102],
      "lastMod" : "20220705T191349",
      "loudnessNormalization" : true,
      "sourceTracks" : [
        {
          "range" : [0, 1],
          "type" : 1,
          "editRate" : 600,
          "trackRect" : [0, 0, 725, 102],
          "sampleRate" : 0,
          "bitDepth" : 0,
          "numChannels" : 0,
          "integratedLUFS" : 100.0,
          "peakLevel" : -1.0,
          "metaData" : ""
        }
      ],
      "metadata" : {
        "timeAdded" : "20220705T191349.704483"
      }
    },
    {
      "id" : 7,
      "src" : "./media/ZAhVs1QL/MSQE delivers ingestions that are:\r\nFaster\r\n.pdf",
      "rect" : [0, 0, 725, 160],
      "lastMod" : "20220705T191427",
      "loudnessNormalization" : true,
      "sourceTracks" : [
        {
          "range" : [0, 1],
          "type" : 1,
          "editRate" : 600,
          "trackRect" : [0, 0, 725, 160],
          "sampleRate" : 0,
          "bitDepth" : 0,
          "numChannels" : 0,
          "integratedLUFS" : 100.0,
          "peakLevel" : -1.0,
          "metaData" : ""
        }
      ],
      "metadata" : {
        "timeAdded" : "20220705T191427.599908"
      }
    },
    {
      "id" : 8,
      "src" : "./media/XcCaMnXu/MSQE delivers ingestions that are:\r\nFaster\r\nMore reliable\r\n.pdf",
      "rect" : [0, 0, 725, 217],
      "lastMod" : "20220705T191513",
      "loudnessNormalization" : true,
      "sourceTracks" : [
        {
          "range" : [0, 1],
          "type" : 1,
          "editRate" : 600,
          "trackRect" : [0, 0, 725, 217],
          "sampleRate" : 0,
          "bitDepth" : 0,
          "numChannels" : 0,
          "integratedLUFS" : 100.0,
          "peakLevel" : -1.0,
          "metaData" : ""
        }
      ],
      "metadata" : {
        "timeAdded" : "20220705T191513.326632"
      }
    },
    {
      "id" : 9,
      "src" : "./media/b76FeeDe/MSQE delivers ingestions that are:\r\nFaster\r\nMore reliable\r\nEasier\r\n.pdf",
      "rect" : [0, 0, 725, 275],
      "lastMod" : "20220705T191542",
      "loudnessNormalization" : true,
      "sourceTracks" : [
        {
          "range" : [0, 1],
          "type" : 1,
          "editRate" : 600,
          "trackRect" : [0, 0, 725, 275],
          "sampleRate" : 0,
          "bitDepth" : 0,
          "numChannels" : 0,
          "integratedLUFS" : 100.0,
          "peakLevel" : -1.0,
          "metaData" : ""
        }
      ],
      "metadata" : {
        "timeAdded" : "20220705T191542.726430"
      }
    },
    {
      "id" : 10,
      "src" : "./media/cyugU4Tf/Pasted Image.tiff",
      "rect" : [0, 0, 3375, 2254],
      "lastMod" : "20220705T192332",
      "loudnessNormalization" : true,
      "sourceTracks" : [
        {
          "range" : [0, 1],
          "type" : 1,
          "editRate" : 600,
          "trackRect" : [0, 0, 3375, 2254],
          "sampleRate" : 0,
          "bitDepth" : 0,
          "numChannels" : 0,
          "integratedLUFS" : 100.0,
          "peakLevel" : -1.0,
          "metaData" : ""
        }
      ],
      "metadata" : {
        "timeAdded" : "20220705T192332.900700"
      }
    },
    {
      "id" : 11,
      "src" : "./media/cs0LGbqV/Pasted Image.tiff",
      "rect" : [0, 0, 3375, 2250],
      "lastMod" : "20220705T193822",
      "loudnessNormalization" : true,
      "sourceTracks" : [
        {
          "range" : [0, 1],
          "type" : 1,
          "editRate" : 600,
          "trackRect" : [0, 0, 3375, 2250],
          "sampleRate" : 0,
          "bitDepth" : 0,
          "numChannels" : 0,
          "integratedLUFS" : 100.0,
          "peakLevel" : -1.0,
          "metaData" : ""
        }
      ],
      "metadata" : {
        "timeAdded" : "20220705T193822.090661"
      }
    },
    {
      "id" : 12,
      "src" : "./media/NJPY1TXt/Pasted Image.tiff",
      "rect" : [0, 0, 1622, 1126],
      "lastMod" : "20220705T194450",
      "loudnessNormalization" : true,
      "sourceTracks" : [
        {
          "range" : [0, 1],
          "type" : 1,
          "editRate" : 600,
          "trackRect" : [0, 0, 1622, 1126],
          "sampleRate" : 0,
          "bitDepth" : 0,
          "numChannels" : 0,
          "integratedLUFS" : 100.0,
          "peakLevel" : -1.0,
          "metaData" : ""
        }
      ],
      "metadata" : {
        "timeAdded" : "20220705T194450.359020"
      }
    },
    {
      "id" : 13,
      "src" : "./media/pnKHKBrr/Pasted Image.tiff",
      "rect" : [0, 0, 851, 1280],
      "lastMod" : "20220705T195228",
      "loudnessNormalization" : true,
      "sourceTracks" : [
        {
          "range" : [0, 1],
          "type" : 1,
          "editRate" : 600,
          "trackRect" : [0, 0, 851, 1280],
          "sampleRate" : 0,
          "bitDepth" : 0,
          "numChannels" : 0,
          "integratedLUFS" : 100.0,
          "peakLevel" : -1.0,
          "metaData" : ""
        }
      ],
      "metadata" : {
        "timeAdded" : "20220705T195228.019237"
      }
    },
    {
      "id" : 14,
      "src" : "./media/6DmPyVMy/Pasted Image.pdf",
      "rect" : [0, 0, 72, 72],
      "lastMod" : "20220705T195734",
      "loudnessNormalization" : true,
      "sourceTracks" : [
        {
          "range" : [0, 1],
          "type" : 1,
          "editRate" : 600,
          "trackRect" : [0, 0, 72, 72],
          "sampleRate" : 0,
          "bitDepth" : 0,
          "numChannels" : 0,
          "integratedLUFS" : 100.0,
          "peakLevel" : -1.0,
          "metaData" : ""
        }
      ],
      "metadata" : {
        "timeAdded" : "20220705T195734.072551"
      }
    },
    {
      "id" : 15,
      "src" : "./media/1Z5GI6Fh/Pasted Image.pdf",
      "rect" : [0, 0, 519, 206],
      "lastMod" : "20220705T201115",
      "loudnessNormalization" : true,
      "sourceTracks" : [
        {
          "range" : [0, 1],
          "type" : 1,
          "editRate" : 600,
          "trackRect" : [0, 0, 519, 206],
          "sampleRate" : 0,
          "bitDepth" : 0,
          "numChannels" : 0,
          "integratedLUFS" : 100.0,
          "peakLevel" : -1.0,
          "metaData" : ""
        }
      ],
      "metadata" : {
        "timeAdded" : "20220705T201115.348274"
      }
    },
    {
      "id" : 16,
      "src" : "./media/d8WL6sTE/Pasted Image.pdf",
      "rect" : [0, 0, 519, 206],
      "lastMod" : "20220705T201202",
      "loudnessNormalization" : true,
      "sourceTracks" : [
        {
          "range" : [0, 1],
          "type" : 1,
          "editRate" : 600,
          "trackRect" : [0, 0, 519, 206],
          "sampleRate" : 0,
          "bitDepth" : 0,
          "numChannels" : 0,
          "integratedLUFS" : 100.0,
          "peakLevel" : -1.0,
          "metaData" : ""
        }
      ],
      "metadata" : {
        "timeAdded" : "20220705T201202.493759"
      }
    },
    {
      "id" : 17,
      "src" : "./media/pc6cLgl6/Pasted Image.pdf",
      "rect" : [0, 0, 761, 207],
      "lastMod" : "20220705T201313",
      "loudnessNormalization" : true,
      "sourceTracks" : [
        {
          "range" : [0, 1],
          "type" : 1,
          "editRate" : 600,
          "trackRect" : [0, 0, 761, 207],
          "sampleRate" : 0,
          "bitDepth" : 0,
          "numChannels" : 0,
          "integratedLUFS" : 100.0,
          "peakLevel" : -1.0,
          "metaData" : ""
        }
      ],
      "metadata" : {
        "timeAdded" : "20220705T201313.300090"
      }
    },
    {
      "id" : 18,
      "src" : "./media/sNdfvJGG/Pasted Image.pdf",
      "rect" : [0, 0, 761, 207],
      "lastMod" : "20220705T201424",
      "loudnessNormalization" : true,
      "sourceTracks" : [
        {
          "range" : [0, 1],
          "type" : 1,
          "editRate" : 600,
          "trackRect" : [0, 0, 761, 207],
          "sampleRate" : 0,
          "bitDepth" : 0,
          "numChannels" : 0,
          "integratedLUFS" : 100.0,
          "peakLevel" : -1.0,
          "metaData" : ""
        }
      ],
      "metadata" : {
        "timeAdded" : "20220705T201424.459729"
      }
    },
    {
      "id" : 19,
      "src" : "./media/5ecYUYdU/Pasted Image.pdf",
      "rect" : [0, 0, 245, 296],
      "lastMod" : "20220705T202426",
      "loudnessNormalization" : true,
      "sourceTracks" : [
        {
          "range" : [0, 1],
          "type" : 1,
          "editRate" : 600,
          "trackRect" : [0, 0, 245, 296],
          "sampleRate" : 0,
          "bitDepth" : 0,
          "numChannels" : 0,
          "integratedLUFS" : 100.0,
          "peakLevel" : -1.0,
          "metaData" : ""
        }
      ],
      "metadata" : {
        "timeAdded" : "20220705T202426.323709"
      }
    },
    {
      "id" : 20,
      "src" : "./media/aRzzboZM/Pasted Image.pdf",
      "rect" : [0, 0, 394, 366],
      "lastMod" : "20220705T202516",
      "loudnessNormalization" : true,
      "sourceTracks" : [
        {
          "range" : [0, 1],
          "type" : 1,
          "editRate" : 600,
          "trackRect" : [0, 0, 394, 366],
          "sampleRate" : 0,
          "bitDepth" : 0,
          "numChannels" : 0,
          "integratedLUFS" : 100.0,
          "peakLevel" : -1.0,
          "metaData" : ""
        }
      ],
      "metadata" : {
        "timeAdded" : "20220705T202516.901465"
      }
    },
    {
      "id" : 21,
      "src" : "./media/dt2czd31/Pasted Image.pdf",
      "rect" : [0, 0, 214, 119],
      "lastMod" : "20220705T202549",
      "loudnessNormalization" : true,
      "sourceTracks" : [
        {
          "range" : [0, 1],
          "type" : 1,
          "editRate" : 600,
          "trackRect" : [0, 0, 214, 119],
          "sampleRate" : 0,
          "bitDepth" : 0,
          "numChannels" : 0,
          "integratedLUFS" : 100.0,
          "peakLevel" : -1.0,
          "metaData" : ""
        }
      ],
      "metadata" : {
        "timeAdded" : "20220705T202549.714518"
      }
    },
    {
      "id" : 22,
      "src" : "./media/vqRpEKK2/Pasted Image.pdf",
      "rect" : [0, 0, 394, 263],
      "lastMod" : "20220705T202843",
      "loudnessNormalization" : true,
      "sourceTracks" : [
        {
          "range" : [0, 1],
          "type" : 1,
          "editRate" : 600,
          "trackRect" : [0, 0, 394, 263],
          "sampleRate" : 0,
          "bitDepth" : 0,
          "numChannels" : 0,
          "integratedLUFS" : 100.0,
          "peakLevel" : -1.0,
          "metaData" : ""
        }
      ],
      "metadata" : {
        "timeAdded" : "20220705T202843.207405"
      }
    },
    {
      "id" : 23,
      "src" : "./media/9S9lEaUt/Pasted Image.pdf",
      "rect" : [0, 0, 214, 147],
      "lastMod" : "20220705T202928",
      "loudnessNormalization" : true,
      "sourceTracks" : [
        {
          "range" : [0, 1],
          "type" : 1,
          "editRate" : 600,
          "trackRect" : [0, 0, 214, 147],
          "sampleRate" : 0,
          "bitDepth" : 0,
          "numChannels" : 0,
          "integratedLUFS" : 100.0,
          "peakLevel" : -1.0,
          "metaData" : ""
        }
      ],
      "metadata" : {
        "timeAdded" : "20220705T202928.372801"
      }
    },
    {
      "id" : 24,
      "src" : "./media/DrDPttYX/Pasted Image.pdf",
      "rect" : [0, 0, 214, 134],
      "lastMod" : "20220705T203012",
      "loudnessNormalization" : true,
      "sourceTracks" : [
        {
          "range" : [0, 1],
          "type" : 1,
          "editRate" : 600,
          "trackRect" : [0, 0, 214, 134],
          "sampleRate" : 0,
          "bitDepth" : 0,
          "numChannels" : 0,
          "integratedLUFS" : 100.0,
          "peakLevel" : -1.0,
          "metaData" : ""
        }
      ],
      "metadata" : {
        "timeAdded" : "20220705T203012.359567"
      }
    },
    {
      "id" : 25,
      "src" : "./media/xKt3x8yP/Pasted Image.pdf",
      "rect" : [0, 0, 178, 61],
      "lastMod" : "20220705T203221",
      "loudnessNormalization" : true,
      "sourceTracks" : [
        {
          "range" : [0, 1],
          "type" : 1,
          "editRate" : 600,
          "trackRect" : [0, 0, 178, 61],
          "sampleRate" : 0,
          "bitDepth" : 0,
          "numChannels" : 0,
          "integratedLUFS" : 100.0,
          "peakLevel" : -1.0,
          "metaData" : ""
        }
      ],
      "metadata" : {
        "timeAdded" : "20220705T203221.500781"
      }
    },
    {
      "id" : 26,
      "src" : "./media/VlYP2cfT/Pasted Image.pdf",
      "rect" : [0, 0, 773, 206],
      "lastMod" : "20220705T203454",
      "loudnessNormalization" : true,
      "sourceTracks" : [
        {
          "range" : [0, 1],
          "type" : 1,
          "editRate" : 600,
          "trackRect" : [0, 0, 773, 206],
          "sampleRate" : 0,
          "bitDepth" : 0,
          "numChannels" : 0,
          "integratedLUFS" : 100.0,
          "peakLevel" : -1.0,
          "metaData" : ""
        }
      ],
      "metadata" : {
        "timeAdded" : "20220705T203454.206140"
      }
    },
    {
      "id" : 27,
      "src" : "./media/ZPNah1dp/Pasted Image.pdf",
      "rect" : [0, 0, 773, 206],
      "lastMod" : "20220705T203542",
      "loudnessNormalization" : true,
      "sourceTracks" : [
        {
          "range" : [0, 1],
          "type" : 1,
          "editRate" : 600,
          "trackRect" : [0, 0, 773, 206],
          "sampleRate" : 0,
          "bitDepth" : 0,
          "numChannels" : 0,
          "integratedLUFS" : 100.0,
          "peakLevel" : -1.0,
          "metaData" : ""
        }
      ],
      "metadata" : {
        "timeAdded" : "20220705T203542.972418"
      }
    },
    {
      "id" : 28,
      "src" : "./media/abgMxlvh/Pasted Image.pdf",
      "rect" : [0, 0, 569, 67],
      "lastMod" : "20220705T203825",
      "loudnessNormalization" : true,
      "sourceTracks" : [
        {
          "range" : [0, 1],
          "type" : 1,
          "editRate" : 600,
          "trackRect" : [0, 0, 569, 67],
          "sampleRate" : 0,
          "bitDepth" : 0,
          "numChannels" : 0,
          "integratedLUFS" : 100.0,
          "peakLevel" : -1.0,
          "metaData" : ""
        }
      ],
      "metadata" : {
        "timeAdded" : "20220705T203825.655619"
      }
    },
    {
      "id" : 29,
      "src" : "./media/anfvvTzV/Pasted Image.pdf",
      "rect" : [0, 0, 134, 67],
      "lastMod" : "20220705T203925",
      "loudnessNormalization" : true,
      "sourceTracks" : [
        {
          "range" : [0, 1],
          "type" : 1,
          "editRate" : 600,
          "trackRect" : [0, 0, 134, 67],
          "sampleRate" : 0,
          "bitDepth" : 0,
          "numChannels" : 0,
          "integratedLUFS" : 100.0,
          "peakLevel" : -1.0,
          "metaData" : ""
        }
      ],
      "metadata" : {
        "timeAdded" : "20220705T203925.569026"
      }
    },
    {
      "id" : 30,
      "src" : "./media/QMNECBYi/Pasted Image.pdf",
      "rect" : [0, 0, 114, 57],
      "lastMod" : "20220705T203953",
      "loudnessNormalization" : true,
      "sourceTracks" : [
        {
          "range" : [0, 1],
          "type" : 1,
          "editRate" : 600,
          "trackRect" : [0, 0, 114, 57],
          "sampleRate" : 0,
          "bitDepth" : 0,
          "numChannels" : 0,
          "integratedLUFS" : 100.0,
          "peakLevel" : -1.0,
          "metaData" : ""
        }
      ],
      "metadata" : {
        "timeAdded" : "20220705T203953.771347"
      }
    },
    {
      "id" : 31,
      "src" : "./media/0CHj526P/Pasted Image.pdf",
      "rect" : [0, 0, 73, 73],
      "lastMod" : "20220705T204019",
      "loudnessNormalization" : true,
      "sourceTracks" : [
        {
          "range" : [0, 1],
          "type" : 1,
          "editRate" : 600,
          "trackRect" : [0, 0, 73, 73],
          "sampleRate" : 0,
          "bitDepth" : 0,
          "numChannels" : 0,
          "integratedLUFS" : 100.0,
          "peakLevel" : -1.0,
          "metaData" : ""
        }
      ],
      "metadata" : {
        "timeAdded" : "20220705T204019.619675"
      }
    },
    {
      "id" : 32,
      "src" : "./media/UCMc984X/Pasted Image.pdf",
      "rect" : [0, 0, 170, 85],
      "lastMod" : "20220705T204303",
      "loudnessNormalization" : true,
      "sourceTracks" : [
        {
          "range" : [0, 1],
          "type" : 1,
          "editRate" : 600,
          "trackRect" : [0, 0, 170, 85],
          "sampleRate" : 0,
          "bitDepth" : 0,
          "numChannels" : 0,
          "integratedLUFS" : 100.0,
          "peakLevel" : -1.0,
          "metaData" : ""
        }
      ],
      "metadata" : {
        "timeAdded" : "20220705T204303.874639"
      }
    },
    {
      "id" : 33,
      "src" : "./media/2UjmLDWv/Pasted Image.pdf",
      "rect" : [0, 0, 230, 413],
      "lastMod" : "20220705T204551",
      "loudnessNormalization" : true,
      "sourceTracks" : [
        {
          "range" : [0, 1],
          "type" : 1,
          "editRate" : 600,
          "trackRect" : [0, 0, 230, 413],
          "sampleRate" : 0,
          "bitDepth" : 0,
          "numChannels" : 0,
          "integratedLUFS" : 100.0,
          "peakLevel" : -1.0,
          "metaData" : ""
        }
      ],
      "metadata" : {
        "timeAdded" : "20220705T204551.223468"
      }
    },
    {
      "id" : 34,
      "src" : "./media/XVQvQrbg/Pasted Image.pdf",
      "rect" : [0, 0, 229, 113],
      "lastMod" : "20220705T204605",
      "loudnessNormalization" : true,
      "sourceTracks" : [
        {
          "range" : [0, 1],
          "type" : 1,
          "editRate" : 600,
          "trackRect" : [0, 0, 229, 113],
          "sampleRate" : 0,
          "bitDepth" : 0,
          "numChannels" : 0,
          "integratedLUFS" : 100.0,
          "peakLevel" : -1.0,
          "metaData" : ""
        }
      ],
      "metadata" : {
        "timeAdded" : "20220705T204605.774079"
      }
    },
    {
      "id" : 35,
      "src" : "./media/uoJfroi2/Pasted Image.pdf",
      "rect" : [0, 0, 228, 112],
      "lastMod" : "20220705T204624",
      "loudnessNormalization" : true,
      "sourceTracks" : [
        {
          "range" : [0, 1],
          "type" : 1,
          "editRate" : 600,
          "trackRect" : [0, 0, 228, 112],
          "sampleRate" : 0,
          "bitDepth" : 0,
          "numChannels" : 0,
          "integratedLUFS" : 100.0,
          "peakLevel" : -1.0,
          "metaData" : ""
        }
      ],
      "metadata" : {
        "timeAdded" : "20220705T204624.927939"
      }
    },
    {
      "id" : 36,
      "src" : "./media/0mgguqxt/Pasted Image.pdf",
      "rect" : [0, 0, 286, 526],
      "lastMod" : "20220705T204839",
      "loudnessNormalization" : true,
      "sourceTracks" : [
        {
          "range" : [0, 1],
          "type" : 1,
          "editRate" : 600,
          "trackRect" : [0, 0, 286, 526],
          "sampleRate" : 0,
          "bitDepth" : 0,
          "numChannels" : 0,
          "integratedLUFS" : 100.0,
          "peakLevel" : -1.0,
          "metaData" : ""
        }
      ],
      "metadata" : {
        "timeAdded" : "20220705T204839.644740"
      }
    },
    {
      "id" : 37,
      "src" : "./media/O3FeLNC4/Pasted Image.pdf",
      "rect" : [0, 0, 226, 113],
      "lastMod" : "20220705T205123",
      "loudnessNormalization" : true,
      "sourceTracks" : [
        {
          "range" : [0, 1],
          "type" : 1,
          "editRate" : 600,
          "trackRect" : [0, 0, 226, 113],
          "sampleRate" : 0,
          "bitDepth" : 0,
          "numChannels" : 0,
          "integratedLUFS" : 100.0,
          "peakLevel" : -1.0,
          "metaData" : ""
        }
      ],
      "metadata" : {
        "timeAdded" : "20220705T205123.974116"
      }
    },
    {
      "id" : 38,
      "src" : "./media/BbU35je9/Pasted Image.pdf",
      "rect" : [0, 0, 497, 96],
      "lastMod" : "20220705T205232",
      "loudnessNormalization" : true,
      "sourceTracks" : [
        {
          "range" : [0, 1],
          "type" : 1,
          "editRate" : 600,
          "trackRect" : [0, 0, 497, 96],
          "sampleRate" : 0,
          "bitDepth" : 0,
          "numChannels" : 0,
          "integratedLUFS" : 100.0,
          "peakLevel" : -1.0,
          "metaData" : ""
        }
      ],
      "metadata" : {
        "timeAdded" : "20220705T205232.904457"
      }
    },
    {
      "id" : 39,
      "src" : "./media/UTr2qbXf/Pasted Image.pdf",
      "rect" : [0, 0, 498, 96],
      "lastMod" : "20220705T205312",
      "loudnessNormalization" : true,
      "sourceTracks" : [
        {
          "range" : [0, 1],
          "type" : 1,
          "editRate" : 600,
          "trackRect" : [0, 0, 498, 96],
          "sampleRate" : 0,
          "bitDepth" : 0,
          "numChannels" : 0,
          "integratedLUFS" : 100.0,
          "peakLevel" : -1.0,
          "metaData" : ""
        }
      ],
      "metadata" : {
        "timeAdded" : "20220705T205312.138557"
      }
    },
    {
      "id" : 40,
      "src" : "./media/eodrkks4/Pasted Image.pdf",
      "rect" : [0, 0, 113, 39],
      "lastMod" : "20220705T205632",
      "loudnessNormalization" : true,
      "sourceTracks" : [
        {
          "range" : [0, 1],
          "type" : 1,
          "editRate" : 600,
          "trackRect" : [0, 0, 113, 39],
          "sampleRate" : 0,
          "bitDepth" : 0,
          "numChannels" : 0,
          "integratedLUFS" : 100.0,
          "peakLevel" : -1.0,
          "metaData" : ""
        }
      ],
      "metadata" : {
        "timeAdded" : "20220705T205632.367216"
      }
    },
    {
      "id" : 41,
      "src" : "./media/coPgYtG5/Pasted Image.pdf",
      "rect" : [0, 0, 148, 39],
      "lastMod" : "20220705T205653",
      "loudnessNormalization" : true,
      "sourceTracks" : [
        {
          "range" : [0, 1],
          "type" : 1,
          "editRate" : 600,
          "trackRect" : [0, 0, 148, 39],
          "sampleRate" : 0,
          "bitDepth" : 0,
          "numChannels" : 0,
          "integratedLUFS" : 100.0,
          "peakLevel" : -1.0,
          "metaData" : ""
        }
      ],
      "metadata" : {
        "timeAdded" : "20220705T205653.185958"
      }
    },
    {
      "id" : 42,
      "src" : "./media/zmVRl7IF/Pasted Image.pdf",
      "rect" : [0, 0, 162, 105],
      "lastMod" : "20220705T210044",
      "loudnessNormalization" : true,
      "sourceTracks" : [
        {
          "range" : [0, 1],
          "type" : 1,
          "editRate" : 600,
          "trackRect" : [0, 0, 162, 105],
          "sampleRate" : 0,
          "bitDepth" : 0,
          "numChannels" : 0,
          "integratedLUFS" : 100.0,
          "peakLevel" : -1.0,
          "metaData" : ""
        }
      ],
      "metadata" : {
        "timeAdded" : "20220705T210044.076845"
      }
    },
    {
      "id" : 43,
      "src" : "./media/2jzTyRvW/Pasted Image.pdf",
      "rect" : [0, 0, 259, 97],
      "lastMod" : "20220705T210240",
      "loudnessNormalization" : true,
      "sourceTracks" : [
        {
          "range" : [0, 1],
          "type" : 1,
          "editRate" : 600,
          "trackRect" : [0, 0, 259, 97],
          "sampleRate" : 0,
          "bitDepth" : 0,
          "numChannels" : 0,
          "integratedLUFS" : 100.0,
          "peakLevel" : -1.0,
          "metaData" : ""
        }
      ],
      "metadata" : {
        "timeAdded" : "20220705T210240.398890"
      }
    },
    {
      "id" : 44,
      "src" : "./media/nBClXwaV/Pasted Image.pdf",
      "rect" : [0, 0, 498, 83],
      "lastMod" : "20220705T210559",
      "loudnessNormalization" : true,
      "sourceTracks" : [
        {
          "range" : [0, 1],
          "type" : 1,
          "editRate" : 600,
          "trackRect" : [0, 0, 498, 83],
          "sampleRate" : 0,
          "bitDepth" : 0,
          "numChannels" : 0,
          "integratedLUFS" : 100.0,
          "peakLevel" : -1.0,
          "metaData" : ""
        }
      ],
      "metadata" : {
        "timeAdded" : "20220705T210559.683917"
      }
    },
    {
      "id" : 45,
      "src" : "./media/Ht5sLT1j/Pasted Image.pdf",
      "rect" : [0, 0, 137, 104],
      "lastMod" : "20220705T210842",
      "loudnessNormalization" : true,
      "sourceTracks" : [
        {
          "range" : [0, 1],
          "type" : 1,
          "editRate" : 600,
          "trackRect" : [0, 0, 137, 104],
          "sampleRate" : 0,
          "bitDepth" : 0,
          "numChannels" : 0,
          "integratedLUFS" : 100.0,
          "peakLevel" : -1.0,
          "metaData" : ""
        }
      ],
      "metadata" : {
        "timeAdded" : "20220705T210842.441962"
      }
    },
    {
      "id" : 46,
      "src" : "./media/JOFovoP0/Pasted Image.pdf",
      "rect" : [0, 0, 275, 188],
      "lastMod" : "20220705T211036",
      "loudnessNormalization" : true,
      "sourceTracks" : [
        {
          "range" : [0, 1],
          "type" : 1,
          "editRate" : 600,
          "trackRect" : [0, 0, 275, 188],
          "sampleRate" : 0,
          "bitDepth" : 0,
          "numChannels" : 0,
          "integratedLUFS" : 100.0,
          "peakLevel" : -1.0,
          "metaData" : ""
        }
      ],
      "metadata" : {
        "timeAdded" : "20220705T211036.422222"
      }
    },
    {
      "id" : 47,
      "src" : "./media/PxSFiTpT/Pasted Image.pdf",
      "rect" : [0, 0, 328, 83],
      "lastMod" : "20220705T211319",
      "loudnessNormalization" : true,
      "sourceTracks" : [
        {
          "range" : [0, 1],
          "type" : 1,
          "editRate" : 600,
          "trackRect" : [0, 0, 328, 83],
          "sampleRate" : 0,
          "bitDepth" : 0,
          "numChannels" : 0,
          "integratedLUFS" : 100.0,
          "peakLevel" : -1.0,
          "metaData" : ""
        }
      ],
      "metadata" : {
        "timeAdded" : "20220705T211319.332004"
      }
    },
    {
      "id" : 48,
      "src" : "./media/b1DxUpP0/Pasted Image.tiff",
      "rect" : [0, 0, 762, 1280],
      "lastMod" : "20220705T211448",
      "loudnessNormalization" : true,
      "sourceTracks" : [
        {
          "range" : [0, 1],
          "type" : 1,
          "editRate" : 600,
          "trackRect" : [0, 0, 762, 1280],
          "sampleRate" : 0,
          "bitDepth" : 0,
          "numChannels" : 0,
          "integratedLUFS" : 100.0,
          "peakLevel" : -1.0,
          "metaData" : ""
        }
      ],
      "metadata" : {
        "timeAdded" : "20220705T211449.009063"
      }
    },
    {
      "id" : 49,
      "src" : "./media/5tI172hS/Pasted Image.tiff",
      "rect" : [0, 0, 1280, 1198],
      "lastMod" : "20220705T211646",
      "loudnessNormalization" : true,
      "sourceTracks" : [
        {
          "range" : [0, 1],
          "type" : 1,
          "editRate" : 600,
          "trackRect" : [0, 0, 1280, 1198],
          "sampleRate" : 0,
          "bitDepth" : 0,
          "numChannels" : 0,
          "integratedLUFS" : 100.0,
          "peakLevel" : -1.0,
          "metaData" : ""
        }
      ],
      "metadata" : {
        "timeAdded" : "20220705T211646.391776"
      }
    },
    {
      "id" : 50,
      "src" : "./media/r1HfCP1p/Pasted Image.tiff",
      "rect" : [0, 0, 1280, 898],
      "lastMod" : "20220705T211822",
      "loudnessNormalization" : true,
      "sourceTracks" : [
        {
          "range" : [0, 1],
          "type" : 1,
          "editRate" : 600,
          "trackRect" : [0, 0, 1280, 898],
          "sampleRate" : 0,
          "bitDepth" : 0,
          "numChannels" : 0,
          "integratedLUFS" : 100.0,
          "peakLevel" : -1.0,
          "metaData" : ""
        }
      ],
      "metadata" : {
        "timeAdded" : "20220705T211822.730372"
      }
    },
    {
      "id" : 51,
      "src" : "./media/dW9PHucp/Pasted Image.pdf",
      "rect" : [0, 0, 119, 39],
      "lastMod" : "20220705T211952",
      "loudnessNormalization" : true,
      "sourceTracks" : [
        {
          "range" : [0, 1],
          "type" : 1,
          "editRate" : 600,
          "trackRect" : [0, 0, 119, 39],
          "sampleRate" : 0,
          "bitDepth" : 0,
          "numChannels" : 0,
          "integratedLUFS" : 100.0,
          "peakLevel" : -1.0,
          "metaData" : ""
        }
      ],
      "metadata" : {
        "timeAdded" : "20220705T211952.340013"
      }
    },
    {
      "id" : 52,
      "src" : "./media/7gCVigGy/Pasted Image.pdf",
      "rect" : [0, 0, 419, 332],
      "lastMod" : "20220705T212122",
      "loudnessNormalization" : true,
      "sourceTracks" : [
        {
          "range" : [0, 1],
          "type" : 1,
          "editRate" : 600,
          "trackRect" : [0, 0, 419, 332],
          "sampleRate" : 0,
          "bitDepth" : 0,
          "numChannels" : 0,
          "integratedLUFS" : 100.0,
          "peakLevel" : -1.0,
          "metaData" : ""
        }
      ],
      "metadata" : {
        "timeAdded" : "20220705T212122.846475"
      }
    },
    {
      "id" : 53,
      "src" : "./media/9Xe576g2/Pasted Image.pdf",
      "rect" : [0, 0, 531, 540],
      "lastMod" : "20220705T212202",
      "loudnessNormalization" : true,
      "sourceTracks" : [
        {
          "range" : [0, 1],
          "type" : 1,
          "editRate" : 600,
          "trackRect" : [0, 0, 531, 540],
          "sampleRate" : 0,
          "bitDepth" : 0,
          "numChannels" : 0,
          "integratedLUFS" : 100.0,
          "peakLevel" : -1.0,
          "metaData" : ""
        }
      ],
      "metadata" : {
        "timeAdded" : "20220705T212202.995205"
      }
    },
    {
      "id" : 54,
      "src" : "./media/pEDxA0sr/Pasted Image.pdf",
      "rect" : [0, 0, 960, 540],
      "lastMod" : "20220720T200650",
      "loudnessNormalization" : true,
      "sourceTracks" : [
        {
          "range" : [0, 1],
          "type" : 1,
          "editRate" : 600,
          "trackRect" : [0, 0, 960, 540],
          "sampleRate" : 0,
          "bitDepth" : 0,
          "numChannels" : 0,
          "integratedLUFS" : 100.0,
          "peakLevel" : -1.0,
          "metaData" : ""
        }
      ],
      "metadata" : {
        "timeAdded" : "20220720T200650.076004"
      }
    },
    {
      "id" : 55,
      "src" : "./media/YkyYihPP/MSQ =.pdf",
      "rect" : [0, 0, 143, 76],
      "lastMod" : "20220720T201105",
      "loudnessNormalization" : true,
      "sourceTracks" : [
        {
          "range" : [0, 1],
          "type" : 1,
          "editRate" : 600,
          "trackRect" : [0, 0, 143, 76],
          "sampleRate" : 0,
          "bitDepth" : 0,
          "numChannels" : 0,
          "integratedLUFS" : 100.0,
          "peakLevel" : -1.0,
          "metaData" : ""
        }
      ],
      "metadata" : {
        "timeAdded" : "20220720T201105.217680"
      }
    },
    {
      "id" : 56,
      "src" : "./media/z7D7Ce1u/MSQ = Immediate benefits .pdf",
      "rect" : [0, 0, 452, 76],
      "lastMod" : "20220720T201136",
      "loudnessNormalization" : true,
      "sourceTracks" : [
        {
          "range" : [0, 1],
          "type" : 1,
          "editRate" : 600,
          "trackRect" : [0, 0, 452, 76],
          "sampleRate" : 0,
          "bitDepth" : 0,
          "numChannels" : 0,
          "integratedLUFS" : 100.0,
          "peakLevel" : -1.0,
          "metaData" : ""
        }
      ],
      "metadata" : {
        "timeAdded" : "20220720T201137.009830"
      }
    },
    {
      "id" : 57,
      "src" : "./media/0TvK9ZE1/MSQ = Immediate benefits + future foundation\r\n.pdf",
      "rect" : [0, 0, 745, 76],
      "lastMod" : "20220720T201238",
      "loudnessNormalization" : true,
      "sourceTracks" : [
        {
          "range" : [0, 1],
          "type" : 1,
          "editRate" : 600,
          "trackRect" : [0, 0, 745, 76],
          "sampleRate" : 0,
          "bitDepth" : 0,
          "numChannels" : 0,
          "integratedLUFS" : 100.0,
          "peakLevel" : -1.0,
          "metaData" : ""
        }
      ],
      "metadata" : {
        "timeAdded" : "20220720T201238.920463"
      }
    },
    {
      "id" : 58,
      "src" : "./media/BOqIiyKn/Pasted Image.pdf",
      "rect" : [0, 0, 519, 206],
      "lastMod" : "20220720T201950",
      "loudnessNormalization" : true,
      "sourceTracks" : [
        {
          "range" : [0, 1],
          "type" : 1,
          "editRate" : 600,
          "trackRect" : [0, 0, 519, 206],
          "sampleRate" : 0,
          "bitDepth" : 0,
          "numChannels" : 0,
          "integratedLUFS" : 100.0,
          "peakLevel" : -1.0,
          "metaData" : ""
        }
      ],
      "metadata" : {
        "timeAdded" : "20220720T201950.469679"
      }
    },
    {
      "id" : 59,
      "src" : "./media/TzbOopF7/Pasted Image.pdf",
      "rect" : [0, 0, 519, 285],
      "lastMod" : "20220720T202030",
      "loudnessNormalization" : true,
      "sourceTracks" : [
        {
          "range" : [0, 1],
          "type" : 1,
          "editRate" : 600,
          "trackRect" : [0, 0, 519, 285],
          "sampleRate" : 0,
          "bitDepth" : 0,
          "numChannels" : 0,
          "integratedLUFS" : 100.0,
          "peakLevel" : -1.0,
          "metaData" : ""
        }
      ],
      "metadata" : {
        "timeAdded" : "20220720T202030.741259"
      }
    },
    {
      "id" : 60,
      "src" : "./media/EOlMSaqM/Pasted Image.pdf",
      "rect" : [0, 0, 519, 285],
      "lastMod" : "20220720T202426",
      "loudnessNormalization" : true,
      "sourceTracks" : [
        {
          "range" : [0, 1],
          "type" : 1,
          "editRate" : 600,
          "trackRect" : [0, 0, 519, 285],
          "sampleRate" : 0,
          "bitDepth" : 0,
          "numChannels" : 0,
          "integratedLUFS" : 100.0,
          "peakLevel" : -1.0,
          "metaData" : ""
        }
      ],
      "metadata" : {
        "timeAdded" : "20220720T202426.354370"
      }
    },
    {
      "id" : 61,
      "src" : "./media/tN8f9EUv/Pasted Image.pdf",
      "rect" : [0, 0, 761, 286],
      "lastMod" : "20220720T202542",
      "loudnessNormalization" : true,
      "sourceTracks" : [
        {
          "range" : [0, 1],
          "type" : 1,
          "editRate" : 600,
          "trackRect" : [0, 0, 761, 286],
          "sampleRate" : 0,
          "bitDepth" : 0,
          "numChannels" : 0,
          "integratedLUFS" : 100.0,
          "peakLevel" : -1.0,
          "metaData" : ""
        }
      ],
      "metadata" : {
        "timeAdded" : "20220720T202542.725860"
      }
    },
    {
      "id" : 62,
      "src" : "./media/xcEZI8Ly/Pasted Image.pdf",
      "rect" : [0, 0, 761, 286],
      "lastMod" : "20220720T202727",
      "loudnessNormalization" : true,
      "sourceTracks" : [
        {
          "range" : [0, 1],
          "type" : 1,
          "editRate" : 600,
          "trackRect" : [0, 0, 761, 286],
          "sampleRate" : 0,
          "bitDepth" : 0,
          "numChannels" : 0,
          "integratedLUFS" : 100.0,
          "peakLevel" : -1.0,
          "metaData" : ""
        }
      ],
      "metadata" : {
        "timeAdded" : "20220720T202727.629834"
      }
    },
    {
      "id" : 63,
      "src" : "./media/PNA0PMPc/Pasted Image.pdf",
      "rect" : [0, 0, 761, 286],
      "lastMod" : "20220720T202829",
      "loudnessNormalization" : true,
      "sourceTracks" : [
        {
          "range" : [0, 1],
          "type" : 1,
          "editRate" : 600,
          "trackRect" : [0, 0, 761, 286],
          "sampleRate" : 0,
          "bitDepth" : 0,
          "numChannels" : 0,
          "integratedLUFS" : 100.0,
          "peakLevel" : -1.0,
          "metaData" : ""
        }
      ],
      "metadata" : {
        "timeAdded" : "20220720T202829.796739"
      }
    },
    {
      "id" : 64,
      "src" : "./media/NfkIuGbb/Pasted Image.pdf",
      "rect" : [0, 0, 761, 286],
      "lastMod" : "20220720T202942",
      "loudnessNormalization" : true,
      "sourceTracks" : [
        {
          "range" : [0, 1],
          "type" : 1,
          "editRate" : 600,
          "trackRect" : [0, 0, 761, 286],
          "sampleRate" : 0,
          "bitDepth" : 0,
          "numChannels" : 0,
          "integratedLUFS" : 100.0,
          "peakLevel" : -1.0,
          "metaData" : ""
        }
      ],
      "metadata" : {
        "timeAdded" : "20220720T202942.954939"
      }
    },
    {
      "id" : 65,
      "src" : "./media/zLlMtUTu/Pasted Image.pdf",
      "rect" : [0, 0, 519, 285],
      "lastMod" : "20220720T203057",
      "loudnessNormalization" : true,
      "sourceTracks" : [
        {
          "range" : [0, 1],
          "type" : 1,
          "editRate" : 600,
          "trackRect" : [0, 0, 519, 285],
          "sampleRate" : 0,
          "bitDepth" : 0,
          "numChannels" : 0,
          "integratedLUFS" : 100.0,
          "peakLevel" : -1.0,
          "metaData" : ""
        }
      ],
      "metadata" : {
        "timeAdded" : "20220720T203057.483941"
      }
    },
    {
      "id" : 66,
      "src" : "./media/jYQKITyp/Pasted Image.pdf",
      "rect" : [0, 0, 519, 285],
      "lastMod" : "20220720T203300",
      "loudnessNormalization" : true,
      "sourceTracks" : [
        {
          "range" : [0, 1],
          "type" : 1,
          "editRate" : 600,
          "trackRect" : [0, 0, 519, 285],
          "sampleRate" : 0,
          "bitDepth" : 0,
          "numChannels" : 0,
          "integratedLUFS" : 100.0,
          "peakLevel" : -1.0,
          "metaData" : ""
        }
      ],
      "metadata" : {
        "timeAdded" : "20220720T203300.523327"
      }
    },
    {
      "id" : 67,
      "src" : "./media/Ic2NsyeU/Pasted Image.pdf",
      "rect" : [0, 0, 519, 206],
      "lastMod" : "20220720T203344",
      "loudnessNormalization" : true,
      "sourceTracks" : [
        {
          "range" : [0, 1],
          "type" : 1,
          "editRate" : 600,
          "trackRect" : [0, 0, 519, 206],
          "sampleRate" : 0,
          "bitDepth" : 0,
          "numChannels" : 0,
          "integratedLUFS" : 100.0,
          "peakLevel" : -1.0,
          "metaData" : ""
        }
      ],
      "metadata" : {
        "timeAdded" : "20220720T203344.147788"
      }
    },
    {
      "id" : 68,
      "src" : "./media/Dsip4NJ9/Pasted Image.pdf",
      "rect" : [0, 0, 773, 206],
      "lastMod" : "20220720T203820",
      "loudnessNormalization" : true,
      "sourceTracks" : [
        {
          "range" : [0, 1],
          "type" : 1,
          "editRate" : 600,
          "trackRect" : [0, 0, 773, 206],
          "sampleRate" : 0,
          "bitDepth" : 0,
          "numChannels" : 0,
          "integratedLUFS" : 100.0,
          "peakLevel" : -1.0,
          "metaData" : ""
        }
      ],
      "metadata" : {
        "timeAdded" : "20220720T203820.649109"
      }
    },
    {
      "id" : 69,
      "src" : "./media/88YE9OBr/Pasted Image.pdf",
      "rect" : [0, 0, 703, 67],
      "lastMod" : "20220720T203952",
      "loudnessNormalization" : true,
      "sourceTracks" : [
        {
          "range" : [0, 1],
          "type" : 1,
          "editRate" : 600,
          "trackRect" : [0, 0, 703, 67],
          "sampleRate" : 0,
          "bitDepth" : 0,
          "numChannels" : 0,
          "integratedLUFS" : 100.0,
          "peakLevel" : -1.0,
          "metaData" : ""
        }
      ],
      "metadata" : {
        "timeAdded" : "20220720T203952.595445"
      }
    },
    {
      "id" : 70,
      "src" : "./media/ffWa9msc/Pasted Image.pdf",
      "rect" : [0, 0, 229, 113],
      "lastMod" : "20220720T204141",
      "loudnessNormalization" : true,
      "sourceTracks" : [
        {
          "range" : [0, 1],
          "type" : 1,
          "editRate" : 600,
          "trackRect" : [0, 0, 229, 113],
          "sampleRate" : 0,
          "bitDepth" : 0,
          "numChannels" : 0,
          "integratedLUFS" : 100.0,
          "peakLevel" : -1.0,
          "metaData" : ""
        }
      ],
      "metadata" : {
        "timeAdded" : "20220720T204141.906768"
      }
    },
    {
      "id" : 71,
      "src" : "./media/7s03kkcZ/Pasted Image.pdf",
      "rect" : [0, 0, 542, 51],
      "lastMod" : "20220720T205159",
      "loudnessNormalization" : true,
      "sourceTracks" : [
        {
          "range" : [0, 1],
          "type" : 1,
          "editRate" : 600,
          "trackRect" : [0, 0, 542, 51],
          "sampleRate" : 0,
          "bitDepth" : 0,
          "numChannels" : 0,
          "integratedLUFS" : 100.0,
          "peakLevel" : -1.0,
          "metaData" : ""
        }
      ],
      "metadata" : {
        "timeAdded" : "20220720T205159.339393"
      }
    },
    {
      "id" : 72,
      "src" : "./media/Tul8mlwx/Pasted Image.pdf",
      "rect" : [0, 0, 355, 51],
      "lastMod" : "20220720T205241",
      "loudnessNormalization" : true,
      "sourceTracks" : [
        {
          "range" : [0, 1],
          "type" : 1,
          "editRate" : 600,
          "trackRect" : [0, 0, 355, 51],
          "sampleRate" : 0,
          "bitDepth" : 0,
          "numChannels" : 0,
          "integratedLUFS" : 100.0,
          "peakLevel" : -1.0,
          "metaData" : ""
        }
      ],
      "metadata" : {
        "timeAdded" : "20220720T205241.272261"
      }
    },
    {
      "id" : 73,
      "src" : "./media/Ymg6MUla/Pasted Image.pdf",
      "rect" : [0, 0, 787, 50],
      "lastMod" : "20220720T205325",
      "loudnessNormalization" : true,
      "sourceTracks" : [
        {
          "range" : [0, 1],
          "type" : 1,
          "editRate" : 600,
          "trackRect" : [0, 0, 787, 50],
          "sampleRate" : 0,
          "bitDepth" : 0,
          "numChannels" : 0,
          "integratedLUFS" : 100.0,
          "peakLevel" : -1.0,
          "metaData" : ""
        }
      ],
      "metadata" : {
        "timeAdded" : "20220720T205325.968214"
      }
    },
    {
      "id" : 74,
      "src" : "./media/wgRgq4Z1/Pasted Image.pdf",
      "rect" : [0, 0, 259, 97],
      "lastMod" : "20220720T205732",
      "loudnessNormalization" : true,
      "sourceTracks" : [
        {
          "range" : [0, 1],
          "type" : 1,
          "editRate" : 600,
          "trackRect" : [0, 0, 259, 97],
          "sampleRate" : 0,
          "bitDepth" : 0,
          "numChannels" : 0,
          "integratedLUFS" : 100.0,
          "peakLevel" : -1.0,
          "metaData" : ""
        }
      ],
      "metadata" : {
        "timeAdded" : "20220720T205732.760802"
      }
    },
    {
      "id" : 75,
      "src" : "./media/lzShvS1j/Pasted Image.pdf",
      "rect" : [0, 0, 275, 188],
      "lastMod" : "20220720T205926",
      "loudnessNormalization" : true,
      "sourceTracks" : [
        {
          "range" : [0, 1],
          "type" : 1,
          "editRate" : 600,
          "trackRect" : [0, 0, 275, 188],
          "sampleRate" : 0,
          "bitDepth" : 0,
          "numChannels" : 0,
          "integratedLUFS" : 100.0,
          "peakLevel" : -1.0,
          "metaData" : ""
        }
      ],
      "metadata" : {
        "timeAdded" : "20220720T205926.220131"
      }
    },
    {
      "id" : 76,
      "src" : "./media/us5fQdsZ/Pasted Image.pdf",
      "rect" : [0, 0, 299, 51],
      "lastMod" : "20220720T210217",
      "loudnessNormalization" : true,
      "sourceTracks" : [
        {
          "range" : [0, 1],
          "type" : 1,
          "editRate" : 600,
          "trackRect" : [0, 0, 299, 51],
          "sampleRate" : 0,
          "bitDepth" : 0,
          "numChannels" : 0,
          "integratedLUFS" : 100.0,
          "peakLevel" : -1.0,
          "metaData" : ""
        }
      ],
      "metadata" : {
        "timeAdded" : "20220720T210217.564482"
      }
    }
  ],
  "timeline" : {
    "id" : 77,
    "sceneTrack" : {
      "scenes" : [
        {
          "csml" : {
            "tracks" : [
              {
                "trackIndex" : 0,
                "medias" : [
                  {
                    "id" : 78,
                    "_type" : "IMFile",
                    "src" : 54,
                    "trackNumber" : 0,
                    "trimStartSum" : 0,
                    "attributes" : {
                      "ident" : "Pasted Image"
                    },
                    "parameters" : {
                      "translation1" : {
                        "type" : "double",
                        "defaultValue" : -0.00251493707698813,
                        "interp" : "eioe"
                      },
                      "scale0" : {
                        "type" : "double",
                        "defaultValue" : 1.33327981928583,
                        "interp" : "eioe"
                      },
                      "scale1" : {
                        "type" : "double",
                        "defaultValue" : 1.33327981928583,
                        "interp" : "eioe"
                      },
                      "sourceCrop0" : {
                        "type" : "double",
                        "defaultValue" : 0.0,
                        "interp" : "eioe"
                      },
                      "sourceCrop1" : {
                        "type" : "double",
                        "defaultValue" : 0.0,
                        "interp" : "eioe"
                      },
                      "sourceCrop2" : {
                        "type" : "double",
                        "defaultValue" : 0.0,
                        "interp" : "eioe"
                      },
                      "sourceCrop3" : {
                        "type" : "double",
                        "defaultValue" : 0.0,
                        "interp" : "eioe"
                      },
                      "geometryCrop0" : {
                        "type" : "double",
                        "defaultValue" : 0.0,
                        "interp" : "eioe"
                      },
                      "geometryCrop1" : {
                        "type" : "double",
                        "defaultValue" : 0.0,
                        "interp" : "eioe"
                      },
                      "geometryCrop2" : {
                        "type" : "double",
                        "defaultValue" : 0.0,
                        "interp" : "eioe"
                      },
                      "geometryCrop3" : {
                        "type" : "double",
                        "defaultValue" : 0.0,
                        "interp" : "eioe"
                      }
                    },
                    "effects" : [

                    ],
                    "start" : 0,
                    "duration" : 6972,
                    "mediaStart" : 0,
                    "mediaDuration" : 1,
                    "scalar" : 1,
                    "metadata" : {
                      "clipSpeedAttribute" : false,
                      "default-scale" : "1",
                      "effectApplied" : "none",
                      "lockAspectRatio" : true
                    },
                    "animationTracks" : {

                    }
                  }
                ],
                "transitions" : [
                  {
                    "name" : "Fade",
                    "duration" : 30,
                    "rightMedia" : 78,
                    "attributes" : {
                      "bypass" : false,
                      "reverse" : false,
                      "trivial" : false,
                      "useAudioPreRoll" : true,
                      "useVisualPreRoll" : true
                    }

                  },
                  {
                    "name" : "Fade",
                    "duration" : 30,
                    "leftMedia" : 78,
                    "attributes" : {
                      "bypass" : false,
                      "reverse" : false,
                      "trivial" : false,
                      "useAudioPreRoll" : true,
                      "useVisualPreRoll" : true
                    }

                  }
                ]
              },
              {
                "trackIndex" : 1,
                "medias" : [
                  {
                    "id" : 79,
                    "_type" : "UnifiedMedia",
                    "video" : 
                        {
                          "id" : 80,
                          "_type" : "VMFile",
                          "src" : 1,
                          "trackNumber" : 0,
                          "attributes" : {
                            "ident" : "00-TalkingHead"
                          },
                          "parameters" : {
                            "translation0" : 482.857994414762,
                            "translation1" : -188.966723381493,
                            "scale0" : 0.645710027926189,
                            "scale1" : 0.645710027926189,
                            "sourceCrop0" : 0.0,
                            "sourceCrop1" : 0.0,
                            "sourceCrop2" : 0.0,
                            "sourceCrop3" : 0.0,
                            "geometryCrop0" : 0.0,
                            "geometryCrop1" : 0.0,
                            "geometryCrop2" : 0.0,
                            "geometryCrop3" : 0.0
                          },
                          "effects" : [

                          ],
                          "start" : 0,
                          "duration" : 6972,
                          "mediaStart" : 0,
                          "mediaDuration" : 6972,
                          "scalar" : 1,
                          "animationTracks" : {

                          }
                        },
                    "audio" : 
                        {
                          "id" : 81,
                          "_type" : "AMFile",
                          "src" : 1,
                          "trackNumber" : 1,
                          "attributes" : {
                            "ident" : "",
                            "gain" : 1.0,
                            "mixToMono" : false,
                            "loudnessNormalization" : true,
                            "sourceFileOffset" : 0
                          },
                            "channelNumber" : "0,1",
                          "effects" : [

                          ],
                          "start" : 0,
                          "duration" : 6972,
                          "mediaStart" : 0,
                          "mediaDuration" : 6972,
                          "scalar" : 1,
                          "animationTracks" : {

                          }
                        }
,
                    "start" : 0,
                    "duration" : 6972,
                    "mediaStart" : 0,
                    "mediaDuration" : 6972,
                    "scalar" : 1,
                    "metadata" : {
                      "clipSpeedAttribute" : false,
                      "default-scale" : "1",
                      "effectApplied" : "none",
                      "lockAspectRatio" : true
                    }
                  }
                ],
                "transitions" : [
                  {
                    "name" : "Fade",
                    "duration" : 30,
                    "rightMedia" : 79,
                    "attributes" : {
                      "bypass" : false,
                      "reverse" : false,
                      "trivial" : false,
                      "useAudioPreRoll" : true,
                      "useVisualPreRoll" : true
                    }

                  },
                  {
                    "name" : "Fade",
                    "duration" : 30,
                    "leftMedia" : 79,
                    "attributes" : {
                      "bypass" : false,
                      "reverse" : false,
                      "trivial" : false,
                      "useAudioPreRoll" : true,
                      "useVisualPreRoll" : true
                    }

                  }
                ]
              },
              {
                "trackIndex" : 2,
                "medias" : [
                  {
                    "id" : 82,
                    "_type" : "IMFile",
                    "src" : 55,
                    "trackNumber" : 0,
                    "trimStartSum" : 0,
                    "attributes" : {
                      "ident" : "MSQ ="
                    },
                    "parameters" : {
                      "translation0" : {
                        "type" : "double",
                        "defaultValue" : -443.0,
                        "interp" : "eioe"
                      },
                      "translation1" : {
                        "type" : "double",
                        "defaultValue" : 23.0,
                        "interp" : "eioe"
                      },
                      "sourceCrop0" : {
                        "type" : "double",
                        "defaultValue" : 0.0,
                        "interp" : "eioe"
                      },
                      "sourceCrop1" : {
                        "type" : "double",
                        "defaultValue" : 0.0,
                        "interp" : "eioe"
                      },
                      "sourceCrop2" : {
                        "type" : "double",
                        "defaultValue" : 0.0,
                        "interp" : "eioe"
                      },
                      "sourceCrop3" : {
                        "type" : "double",
                        "defaultValue" : 0.0,
                        "interp" : "eioe"
                      },
                      "geometryCrop0" : {
                        "type" : "double",
                        "defaultValue" : 0.0,
                        "interp" : "eioe"
                      },
                      "geometryCrop1" : {
                        "type" : "double",
                        "defaultValue" : 0.0,
                        "interp" : "eioe"
                      },
                      "geometryCrop2" : {
                        "type" : "double",
                        "defaultValue" : 0.0,
                        "interp" : "eioe"
                      },
                      "geometryCrop3" : {
                        "type" : "double",
                        "defaultValue" : 0.0,
                        "interp" : "eioe"
                      }
                    },
                    "effects" : [

                    ],
                    "start" : 303,
                    "duration" : 150,
                    "mediaStart" : 0,
                    "mediaDuration" : 1,
                    "scalar" : 1,
                    "metadata" : {
                      "clipSpeedAttribute" : false,
                      "default-scale" : "1",
                      "effectApplied" : "none",
                      "lockAspectRatio" : true
                    },
                    "animationTracks" : {

                    }
                  },
                  {
                    "id" : 83,
                    "_type" : "IMFile",
                    "src" : 57,
                    "trackNumber" : 0,
                    "trimStartSum" : 0,
                    "attributes" : {
                      "ident" : "MSQ = Immediate benefits + future foundation\r\n"
                    },
                    "parameters" : {
                      "translation0" : {
                        "type" : "double",
                        "defaultValue" : -142.0,
                        "interp" : "eioe"
                      },
                      "translation1" : {
                        "type" : "double",
                        "defaultValue" : 23.0,
                        "interp" : "eioe"
                      },
                      "sourceCrop0" : {
                        "type" : "double",
                        "defaultValue" : 0.0,
                        "interp" : "eioe"
                      },
                      "sourceCrop1" : {
                        "type" : "double",
                        "defaultValue" : 0.0,
                        "interp" : "eioe"
                      },
                      "sourceCrop2" : {
                        "type" : "double",
                        "defaultValue" : 0.0,
                        "interp" : "eioe"
                      },
                      "sourceCrop3" : {
                        "type" : "double",
                        "defaultValue" : 0.0,
                        "interp" : "eioe"
                      },
                      "geometryCrop0" : {
                        "type" : "double",
                        "defaultValue" : 0.0,
                        "interp" : "eioe"
                      },
                      "geometryCrop1" : {
                        "type" : "double",
                        "defaultValue" : 0.0,
                        "interp" : "eioe"
                      },
                      "geometryCrop2" : {
                        "type" : "double",
                        "defaultValue" : 0.0,
                        "interp" : "eioe"
                      },
                      "geometryCrop3" : {
                        "type" : "double",
                        "defaultValue" : 0.0,
                        "interp" : "eioe"
                      }
                    },
                    "effects" : [

                    ],
                    "start" : 493,
                    "duration" : 150,
                    "mediaStart" : 0,
                    "mediaDuration" : 1,
                    "scalar" : 1,
                    "metadata" : {
                      "clipSpeedAttribute" : false,
                      "default-scale" : "1",
                      "effectApplied" : "none",
                      "lockAspectRatio" : true
                    },
                    "animationTracks" : {

                    }
                  },
                  {
                    "id" : 84,
                    "_type" : "IMFile",
                    "src" : 6,
                    "trackNumber" : 0,
                    "trimStartSum" : 0,
                    "attributes" : {
                      "ident" : "MSQE delivers ingestions that are:\r\n"
                    },
                    "parameters" : {
                      "translation0" : -182.0,
                      "translation1" : 117.0,
                      "sourceCrop0" : 0.0,
                      "sourceCrop1" : 0.0,
                      "sourceCrop2" : 0.0,
                      "sourceCrop3" : 0.0,
                      "geometryCrop0" : 0.0,
                      "geometryCrop1" : 0.0,
                      "geometryCrop2" : 0.0,
                      "geometryCrop3" : 0.0
                    },
                    "effects" : [

                    ],
                    "start" : 680,
                    "duration" : 117,
                    "mediaStart" : 0,
                    "mediaDuration" : 1,
                    "scalar" : 1,
                    "metadata" : {
                      "clipSpeedAttribute" : false,
                      "default-scale" : "1",
                      "effectApplied" : "none",
                      "lockAspectRatio" : true
                    },
                    "animationTracks" : {

                    }
                  },
                  {
                    "id" : 85,
                    "_type" : "IMFile",
                    "src" : 10,
                    "trackNumber" : 0,
                    "trimStartSum" : 0,
                    "attributes" : {
                      "ident" : "Pasted Image"
                    },
                    "parameters" : {
                      "translation0" : -359.173953545182,
                      "translation1" : -119.661656678768,
                      "scale0" : 0.213254963017952,
                      "scale1" : 0.213254963017952,
                      "sourceCrop0" : 0.0,
                      "sourceCrop1" : 0.0,
                      "sourceCrop2" : 0.0,
                      "sourceCrop3" : 0.0,
                      "geometryCrop0" : 0.0,
                      "geometryCrop1" : 0.0,
                      "geometryCrop2" : 0.0,
                      "geometryCrop3" : 0.0
                    },
                    "effects" : [

                    ],
                    "start" : 967,
                    "duration" : 150,
                    "mediaStart" : 0,
                    "mediaDuration" : 1,
                    "scalar" : 1,
                    "metadata" : {
                      "clipSpeedAttribute" : false,
                      "default-scale" : "0.319432",
                      "effectApplied" : "none",
                      "lockAspectRatio" : true
                    },
                    "animationTracks" : {

                    }
                  },
                  {
                    "id" : 86,
                    "_type" : "IMFile",
                    "src" : 10,
                    "trackNumber" : 0,
                    "trimStartSum" : 0,
                    "attributes" : {
                      "ident" : "Pasted Image"
                    },
                    "parameters" : {
                      "translation0" : -359.173953545182,
                      "translation1" : -119.661656678768,
                      "scale0" : 0.213254963017952,
                      "scale1" : 0.213254963017952,
                      "sourceCrop0" : 0.0,
                      "sourceCrop1" : 0.0,
                      "sourceCrop2" : 0.0,
                      "sourceCrop3" : 0.0,
                      "geometryCrop0" : 0.0,
                      "geometryCrop1" : 0.0,
                      "geometryCrop2" : 0.0,
                      "geometryCrop3" : 0.0
                    },
                    "effects" : [

                    ],
                    "start" : 1198,
                    "duration" : 86,
                    "mediaStart" : 0,
                    "mediaDuration" : 1,
                    "scalar" : 1,
                    "metadata" : {
                      "clipSpeedAttribute" : false,
                      "default-scale" : "0.319432",
                      "effectApplied" : "none",
                      "lockAspectRatio" : true
                    },
                    "animationTracks" : {

                    }
                  },
                  {
                    "id" : 87,
                    "_type" : "IMFile",
                    "src" : 12,
                    "trackNumber" : 0,
                    "trimStartSum" : 0,
                    "attributes" : {
                      "ident" : "Pasted Image"
                    },
                    "parameters" : {
                      "translation0" : -118.987852780162,
                      "translation1" : -70.4818841249154,
                      "scale0" : 0.514241768872264,
                      "scale1" : 0.514241768872264,
                      "sourceCrop0" : 0.0,
                      "sourceCrop1" : 0.0,
                      "sourceCrop2" : 0.0,
                      "sourceCrop3" : 0.0,
                      "geometryCrop0" : 0.0,
                      "geometryCrop1" : 0.0,
                      "geometryCrop2" : 0.0,
                      "geometryCrop3" : 0.0
                    },
                    "effects" : [

                    ],
                    "start" : 1399,
                    "duration" : 150,
                    "mediaStart" : 0,
                    "mediaDuration" : 1,
                    "scalar" : 1,
                    "metadata" : {
                      "clipSpeedAttribute" : false,
                      "default-scale" : "0.639432",
                      "effectApplied" : "none",
                      "lockAspectRatio" : true
                    },
                    "animationTracks" : {

                    }
                  },
                  {
                    "id" : 88,
                    "_type" : "Callout",
                    "def" : {
                      "kind" : "remix",
                      "shape" : "text",
                      "style" : "basic",
                      "enable-ligatures" : 1.0,
                      "height" : 250.0,
                      "line-spacing" : 0.0,
                      "width" : 400.0,
                      "word-wrap" : 1.0,
                      "horizontal-alignment" : "center",
                      "resize-behavior" : "resizeText",
                      "text" : "What\nversus\nHow",
                      "vertical-alignment" : "center",
                      "font" : {
                        "color-blue" : 1.0,
                        "color-green" : 1.0,
                        "color-red" : 1.0,
                        "size" : 96.0,
                        "tracking" : 0.0,
                        "name" : "Montserrat",
                        "weight" : "Regular"
                      },
                      "textAttributes" : {
                        "type" : "textAttributeList",
                        "keyframes" : [
                          {
                            "endTime" : 0,
                            "time" : 0,
                            "value" : [{"name":"fontName","rangeEnd":15,"rangeStart":0,"value":"Helvetica Neue","valueType":"string"},{"name":"fgColor","rangeEnd":15,"rangeStart":0,"value":"(255,255,255,255)","valueType":"color"},{"name":"fontSize","rangeEnd":5,"rangeStart":0,"value":69,"valueType":"double"},{"name":"fontSize","rangeEnd":15,"rangeStart":11,"value":69,"valueType":"double"},{"name":"kerning","rangeEnd":15,"rangeStart":0,"value":0,"valueType":"double"},{"name":"strikethrough","rangeEnd":15,"rangeStart":0,"value":0,"valueType":"int"},{"name":"fontItalic","rangeEnd":15,"rangeStart":0,"value":0,"valueType":"int"},{"name":"fontWeight","rangeEnd":15,"rangeStart":0,"value":400,"valueType":"int"},{"name":"underline","rangeEnd":15,"rangeStart":0,"value":0,"valueType":"int"},{"name":"fontSize","rangeEnd":11,"rangeStart":5,"value":36,"valueType":"double"}],
                            "duration" : 0
                          }
                        ]
                      }
                    },
                    "attributes" : {
                      "ident" : "",
                      "autoRotateText" : true
                    },
                    "parameters" : {
                      "translation0" : -124.0,
                      "translation1" : -64.0,
                      "sourceCrop0" : 0.0,
                      "sourceCrop1" : 0.0,
                      "sourceCrop2" : 0.0,
                      "sourceCrop3" : 0.0,
                      "geometryCrop0" : 0.0,
                      "geometryCrop1" : 0.0,
                      "geometryCrop2" : 0.0,
                      "geometryCrop3" : 0.0
                    },
                    "effects" : [

                    ],
                    "start" : 1549,
                    "duration" : 188,
                    "mediaStart" : 0,
                    "mediaDuration" : 188,
                    "scalar" : 1,
                    "metadata" : {
                      "AppliedThemeId" : "",
                      "clipSpeedAttribute" : false,
                      "default-scale" : "1",
                      "default-text" : "{\\rtf1\\ansi\\ansicpg1252\\cocoartf2638\n\\cocoatextscaling0\\cocoaplatform0{\\fonttbl\\f0\\fnil\\fcharset0 Montserrat-Regular;}\n{\\colortbl;\\red255\\green255\\blue255;\\red255\\green255\\blue255;}\n{\\*\\expandedcolortbl;;\\cssrgb\\c100000\\c100000\\c100000;}\n\\pard\\tx560\\tx1120\\tx1680\\tx2240\\tx2800\\tx3360\\tx3920\\tx4480\\tx5040\\tx5600\\tx6160\\tx6720\\pardirnatural\\qc\\partightenfactor0\n\n\\f0\\fs192 \\cf2 \\expnd0\\expndtw0\\kerning0\n\\ulnone SQL}",
                      "effectApplied" : "none"
                    },
                    "animationTracks" : {

                    }
                  },
                  {
                    "id" : 89,
                    "_type" : "IMFile",
                    "src" : 67,
                    "trackNumber" : 0,
                    "trimStartSum" : 2,
                    "attributes" : {
                      "ident" : "Pasted Image"
                    },
                    "parameters" : {
                      "translation0" : {
                        "type" : "double",
                        "defaultValue" : 30.0,
                        "interp" : "eioe"
                      },
                      "translation1" : {
                        "type" : "double",
                        "defaultValue" : 7.0,
                        "interp" : "eioe"
                      },
                      "scale0" : {
                        "type" : "double",
                        "defaultValue" : 1.20000004768372,
                        "interp" : "eioe"
                      },
                      "scale1" : {
                        "type" : "double",
                        "defaultValue" : 1.20000004768372,
                        "interp" : "eioe"
                      },
                      "sourceCrop0" : {
                        "type" : "double",
                        "defaultValue" : 0.0,
                        "interp" : "eioe"
                      },
                      "sourceCrop1" : {
                        "type" : "double",
                        "defaultValue" : 0.0,
                        "interp" : "eioe"
                      },
                      "sourceCrop2" : {
                        "type" : "double",
                        "defaultValue" : 0.0,
                        "interp" : "eioe"
                      },
                      "sourceCrop3" : {
                        "type" : "double",
                        "defaultValue" : 0.0,
                        "interp" : "eioe"
                      },
                      "geometryCrop0" : {
                        "type" : "double",
                        "defaultValue" : 0.0,
                        "interp" : "eioe"
                      },
                      "geometryCrop1" : {
                        "type" : "double",
                        "defaultValue" : 0.0,
                        "interp" : "eioe"
                      },
                      "geometryCrop2" : {
                        "type" : "double",
                        "defaultValue" : 0.0,
                        "interp" : "eioe"
                      },
                      "geometryCrop3" : {
                        "type" : "double",
                        "defaultValue" : 0.0,
                        "interp" : "eioe"
                      }
                    },
                    "effects" : [

                    ],
                    "start" : 1739,
                    "duration" : 75,
                    "mediaStart" : 0,
                    "mediaDuration" : 1,
                    "scalar" : 1,
                    "metadata" : {
                      "clipSpeedAttribute" : false,
                      "default-scale" : "1",
                      "effectApplied" : "none",
                      "lockAspectRatio" : true
                    },
                    "animationTracks" : {

                    }
                  },
                  {
                    "id" : 90,
                    "_type" : "IMFile",
                    "src" : 19,
                    "trackNumber" : 0,
                    "trimStartSum" : 0,
                    "attributes" : {
                      "ident" : "Pasted Image"
                    },
                    "parameters" : {
                      "translation0" : -399.0,
                      "translation1" : -167.0,
                      "scale0" : 1.29999995231628,
                      "scale1" : 1.29999995231628,
                      "sourceCrop0" : 0.0,
                      "sourceCrop1" : 0.0,
                      "sourceCrop2" : 0.0,
                      "sourceCrop3" : 0.0,
                      "geometryCrop0" : 0.0,
                      "geometryCrop1" : 0.0,
                      "geometryCrop2" : 0.0,
                      "geometryCrop3" : 0.0
                    },
                    "effects" : [

                    ],
                    "start" : 2325,
                    "duration" : 541,
                    "mediaStart" : 0,
                    "mediaDuration" : 1,
                    "scalar" : 1,
                    "metadata" : {
                      "clipSpeedAttribute" : false,
                      "default-scale" : "1",
                      "effectApplied" : "none",
                      "lockAspectRatio" : true
                    },
                    "animationTracks" : {

                    }
                  },
                  {
                    "id" : 91,
                    "_type" : "IMFile",
                    "src" : 26,
                    "trackNumber" : 0,
                    "trimStartSum" : 0,
                    "attributes" : {
                      "ident" : "Pasted Image"
                    },
                    "parameters" : {
                      "translation0" : -119.0,
                      "translation1" : 59.0,
                      "sourceCrop0" : 0.0,
                      "sourceCrop1" : 0.0,
                      "sourceCrop2" : 0.0,
                      "sourceCrop3" : 0.0,
                      "geometryCrop0" : 0.0,
                      "geometryCrop1" : 0.0,
                      "geometryCrop2" : 0.0,
                      "geometryCrop3" : 0.0
                    },
                    "effects" : [

                    ],
                    "start" : 3269,
                    "duration" : 105,
                    "mediaStart" : 0,
                    "mediaDuration" : 1,
                    "scalar" : 1,
                    "metadata" : {
                      "clipSpeedAttribute" : false,
                      "default-scale" : "1",
                      "effectApplied" : "none",
                      "lockAspectRatio" : true
                    },
                    "animationTracks" : {

                    }
                  },
                  {
                    "id" : 92,
                    "_type" : "IMFile",
                    "src" : 71,
                    "trackNumber" : 0,
                    "trimStartSum" : 0,
                    "attributes" : {
                      "ident" : "Pasted Image"
                    },
                    "parameters" : {
                      "translation0" : {
                        "type" : "double",
                        "defaultValue" : -203.0,
                        "interp" : "eioe"
                      },
                      "translation1" : {
                        "type" : "double",
                        "defaultValue" : 155.0,
                        "interp" : "eioe"
                      },
                      "scale0" : {
                        "type" : "double",
                        "defaultValue" : 1.5,
                        "interp" : "eioe"
                      },
                      "scale1" : {
                        "type" : "double",
                        "defaultValue" : 1.5,
                        "interp" : "eioe"
                      },
                      "sourceCrop0" : {
                        "type" : "double",
                        "defaultValue" : 0.0,
                        "interp" : "eioe"
                      },
                      "sourceCrop1" : {
                        "type" : "double",
                        "defaultValue" : 0.0,
                        "interp" : "eioe"
                      },
                      "sourceCrop2" : {
                        "type" : "double",
                        "defaultValue" : 0.0,
                        "interp" : "eioe"
                      },
                      "sourceCrop3" : {
                        "type" : "double",
                        "defaultValue" : 0.0,
                        "interp" : "eioe"
                      },
                      "geometryCrop0" : {
                        "type" : "double",
                        "defaultValue" : 0.0,
                        "interp" : "eioe"
                      },
                      "geometryCrop1" : {
                        "type" : "double",
                        "defaultValue" : 0.0,
                        "interp" : "eioe"
                      },
                      "geometryCrop2" : {
                        "type" : "double",
                        "defaultValue" : 0.0,
                        "interp" : "eioe"
                      },
                      "geometryCrop3" : {
                        "type" : "double",
                        "defaultValue" : 0.0,
                        "interp" : "eioe"
                      }
                    },
                    "effects" : [

                    ],
                    "start" : 3925,
                    "duration" : 563,
                    "mediaStart" : 0,
                    "mediaDuration" : 1,
                    "scalar" : 1,
                    "metadata" : {
                      "clipSpeedAttribute" : false,
                      "default-scale" : "1",
                      "effectApplied" : "none",
                      "lockAspectRatio" : true
                    },
                    "animationTracks" : {

                    }
                  },
                  {
                    "id" : 93,
                    "_type" : "IMFile",
                    "src" : 74,
                    "trackNumber" : 0,
                    "trimStartSum" : 0,
                    "attributes" : {
                      "ident" : "Pasted Image"
                    },
                    "parameters" : {
                      "translation0" : {
                        "type" : "double",
                        "defaultValue" : -122.0,
                        "interp" : "eioe"
                      },
                      "translation1" : {
                        "type" : "double",
                        "defaultValue" : 113.0,
                        "interp" : "eioe"
                      },
                      "scale0" : {
                        "type" : "double",
                        "defaultValue" : 1.39999997615814,
                        "interp" : "eioe"
                      },
                      "scale1" : {
                        "type" : "double",
                        "defaultValue" : 1.39999997615814,
                        "interp" : "eioe"
                      },
                      "sourceCrop0" : {
                        "type" : "double",
                        "defaultValue" : 0.0,
                        "interp" : "eioe"
                      },
                      "sourceCrop1" : {
                        "type" : "double",
                        "defaultValue" : 0.0,
                        "interp" : "eioe"
                      },
                      "sourceCrop2" : {
                        "type" : "double",
                        "defaultValue" : 0.0,
                        "interp" : "eioe"
                      },
                      "sourceCrop3" : {
                        "type" : "double",
                        "defaultValue" : 0.0,
                        "interp" : "eioe"
                      },
                      "geometryCrop0" : {
                        "type" : "double",
                        "defaultValue" : 0.0,
                        "interp" : "eioe"
                      },
                      "geometryCrop1" : {
                        "type" : "double",
                        "defaultValue" : 0.0,
                        "interp" : "eioe"
                      },
                      "geometryCrop2" : {
                        "type" : "double",
                        "defaultValue" : 0.0,
                        "interp" : "eioe"
                      },
                      "geometryCrop3" : {
                        "type" : "double",
                        "defaultValue" : 0.0,
                        "interp" : "eioe"
                      }
                    },
                    "effects" : [

                    ],
                    "start" : 5498,
                    "duration" : 711,
                    "mediaStart" : 0,
                    "mediaDuration" : 1,
                    "scalar" : 1,
                    "metadata" : {
                      "clipSpeedAttribute" : false,
                      "default-scale" : "1",
                      "effectApplied" : "none",
                      "lockAspectRatio" : true
                    },
                    "animationTracks" : {

                    }
                  },
                  {
                    "id" : 94,
                    "_type" : "IMFile",
                    "src" : 50,
                    "trackNumber" : 0,
                    "trimStartSum" : 0,
                    "attributes" : {
                      "ident" : "Pasted Image"
                    },
                    "parameters" : {
                      "translation0" : -150.394561761788,
                      "translation1" : -109.653783614968,
                      "scale0" : 0.517474869454414,
                      "scale1" : 0.517474869454414,
                      "sourceCrop0" : 0.0,
                      "sourceCrop1" : 0.0,
                      "sourceCrop2" : 0.0,
                      "sourceCrop3" : 0.0,
                      "geometryCrop0" : 0.0,
                      "geometryCrop1" : 0.0,
                      "geometryCrop2" : 0.0,
                      "geometryCrop3" : 0.0
                    },
                    "effects" : [

                    ],
                    "start" : 6594,
                    "duration" : 219,
                    "mediaStart" : 0,
                    "mediaDuration" : 1,
                    "scalar" : 1,
                    "metadata" : {
                      "clipSpeedAttribute" : false,
                      "default-scale" : "0.801782",
                      "effectApplied" : "none",
                      "lockAspectRatio" : true
                    },
                    "animationTracks" : {

                    }
                  }
                ],
                "transitions" : [
                  {
                    "name" : "Fade",
                    "duration" : 30,
                    "rightMedia" : 82,
                    "attributes" : {
                      "bypass" : false,
                      "reverse" : false,
                      "trivial" : false,
                      "useAudioPreRoll" : true,
                      "useVisualPreRoll" : true
                    }

                  },
                  {
                    "name" : "Fade",
                    "duration" : 30,
                    "leftMedia" : 83,
                    "attributes" : {
                      "bypass" : false,
                      "reverse" : false,
                      "trivial" : false,
                      "useAudioPreRoll" : true,
                      "useVisualPreRoll" : true
                    }

                  },
                  {
                    "name" : "Fade",
                    "duration" : 30,
                    "rightMedia" : 84,
                    "attributes" : {
                      "bypass" : false,
                      "reverse" : false,
                      "trivial" : false,
                      "useAudioPreRoll" : true,
                      "useVisualPreRoll" : true
                    }

                  },
                  {
                    "name" : "Fade",
                    "duration" : 30,
                    "rightMedia" : 85,
                    "attributes" : {
                      "bypass" : false,
                      "reverse" : false,
                      "trivial" : false,
                      "useAudioPreRoll" : true,
                      "useVisualPreRoll" : true
                    }

                  },
                  {
                    "name" : "Fade",
                    "duration" : 30,
                    "leftMedia" : 85,
                    "attributes" : {
                      "bypass" : false,
                      "reverse" : false,
                      "trivial" : false,
                      "useAudioPreRoll" : true,
                      "useVisualPreRoll" : true
                    }

                  },
                  {
                    "name" : "Fade",
                    "duration" : 30,
                    "rightMedia" : 86,
                    "attributes" : {
                      "bypass" : false,
                      "reverse" : false,
                      "trivial" : false,
                      "useAudioPreRoll" : true,
                      "useVisualPreRoll" : true
                    }

                  },
                  {
                    "name" : "Fade",
                    "duration" : 30,
                    "leftMedia" : 86,
                    "attributes" : {
                      "bypass" : false,
                      "reverse" : false,
                      "trivial" : false,
                      "useAudioPreRoll" : true,
                      "useVisualPreRoll" : true
                    }

                  },
                  {
                    "name" : "Fade",
                    "duration" : 30,
                    "rightMedia" : 87,
                    "attributes" : {
                      "bypass" : false,
                      "reverse" : false,
                      "trivial" : false,
                      "useAudioPreRoll" : true,
                      "useVisualPreRoll" : true
                    }

                  },
                  {
                    "name" : "Fade",
                    "duration" : 30,
                    "leftMedia" : 87,
                    "rightMedia" : 88,
                    "attributes" : {
                      "bypass" : false,
                      "reverse" : false,
                      "trivial" : false,
                      "useAudioPreRoll" : true,
                      "useVisualPreRoll" : true
                    }

                  },
                  {
                    "name" : "Fade",
                    "duration" : 30,
                    "leftMedia" : 88,
                    "attributes" : {
                      "bypass" : false,
                      "reverse" : false,
                      "trivial" : false,
                      "useAudioPreRoll" : true,
                      "useVisualPreRoll" : true
                    }

                  },
                  {
                    "name" : "Fade",
                    "duration" : 30,
                    "rightMedia" : 89,
                    "attributes" : {
                      "bypass" : false,
                      "reverse" : false,
                      "trivial" : false,
                      "useAudioPreRoll" : true,
                      "useVisualPreRoll" : true
                    }

                  },
                  {
                    "name" : "Fade",
                    "duration" : 30,
                    "rightMedia" : 90,
                    "attributes" : {
                      "bypass" : false,
                      "reverse" : false,
                      "trivial" : false,
                      "useAudioPreRoll" : true,
                      "useVisualPreRoll" : true
                    }

                  },
                  {
                    "name" : "Fade",
                    "duration" : 30,
                    "leftMedia" : 90,
                    "attributes" : {
                      "bypass" : false,
                      "reverse" : false,
                      "trivial" : false,
                      "useAudioPreRoll" : true,
                      "useVisualPreRoll" : true
                    }

                  },
                  {
                    "name" : "Fade",
                    "duration" : 30,
                    "rightMedia" : 91,
                    "attributes" : {
                      "bypass" : false,
                      "reverse" : false,
                      "trivial" : false,
                      "useAudioPreRoll" : true,
                      "useVisualPreRoll" : true
                    }

                  },
                  {
                    "name" : "Fade",
                    "duration" : 30,
                    "leftMedia" : 91,
                    "attributes" : {
                      "bypass" : false,
                      "reverse" : false,
                      "trivial" : false,
                      "useAudioPreRoll" : true,
                      "useVisualPreRoll" : true
                    }

                  },
                  {
                    "name" : "Fade",
                    "duration" : 30,
                    "rightMedia" : 92,
                    "attributes" : {
                      "bypass" : false,
                      "reverse" : false,
                      "trivial" : false,
                      "useAudioPreRoll" : true,
                      "useVisualPreRoll" : true
                    }

                  },
                  {
                    "name" : "Fade",
                    "duration" : 30,
                    "leftMedia" : 92,
                    "attributes" : {
                      "bypass" : false,
                      "reverse" : false,
                      "trivial" : false,
                      "useAudioPreRoll" : true,
                      "useVisualPreRoll" : true
                    }

                  },
                  {
                    "name" : "Fade",
                    "duration" : 30,
                    "rightMedia" : 93,
                    "attributes" : {
                      "bypass" : false,
                      "reverse" : false,
                      "trivial" : false,
                      "useAudioPreRoll" : true,
                      "useVisualPreRoll" : true
                    }

                  },
                  {
                    "name" : "Fade",
                    "duration" : 30,
                    "leftMedia" : 93,
                    "attributes" : {
                      "bypass" : false,
                      "reverse" : false,
                      "trivial" : false,
                      "useAudioPreRoll" : true,
                      "useVisualPreRoll" : true
                    }

                  },
                  {
                    "name" : "Fade",
                    "duration" : 30,
                    "rightMedia" : 94,
                    "attributes" : {
                      "bypass" : false,
                      "reverse" : false,
                      "trivial" : false,
                      "useAudioPreRoll" : true,
                      "useVisualPreRoll" : true
                    }

                  },
                  {
                    "name" : "Fade",
                    "duration" : 30,
                    "leftMedia" : 94,
                    "attributes" : {
                      "bypass" : false,
                      "reverse" : false,
                      "trivial" : false,
                      "useAudioPreRoll" : true,
                      "useVisualPreRoll" : true
                    }

                  }
                ]
              },
              {
                "trackIndex" : 3,
                "medias" : [
                  {
                    "id" : 95,
                    "_type" : "IMFile",
                    "src" : 56,
                    "trackNumber" : 0,
                    "trimStartSum" : 0,
                    "attributes" : {
                      "ident" : "MSQ = Immediate benefits "
                    },
                    "parameters" : {
                      "translation0" : {
                        "type" : "double",
                        "defaultValue" : -288.0,
                        "interp" : "eioe"
                      },
                      "translation1" : {
                        "type" : "double",
                        "defaultValue" : 23.0,
                        "interp" : "eioe"
                      },
                      "sourceCrop0" : {
                        "type" : "double",
                        "defaultValue" : 0.0,
                        "interp" : "eioe"
                      },
                      "sourceCrop1" : {
                        "type" : "double",
                        "defaultValue" : 0.0,
                        "interp" : "eioe"
                      },
                      "sourceCrop2" : {
                        "type" : "double",
                        "defaultValue" : 0.0,
                        "interp" : "eioe"
                      },
                      "sourceCrop3" : {
                        "type" : "double",
                        "defaultValue" : 0.0,
                        "interp" : "eioe"
                      },
                      "geometryCrop0" : {
                        "type" : "double",
                        "defaultValue" : 0.0,
                        "interp" : "eioe"
                      },
                      "geometryCrop1" : {
                        "type" : "double",
                        "defaultValue" : 0.0,
                        "interp" : "eioe"
                      },
                      "geometryCrop2" : {
                        "type" : "double",
                        "defaultValue" : 0.0,
                        "interp" : "eioe"
                      },
                      "geometryCrop3" : {
                        "type" : "double",
                        "defaultValue" : 0.0,
                        "interp" : "eioe"
                      }
                    },
                    "effects" : [

                    ],
                    "start" : 423,
                    "duration" : 100,
                    "mediaStart" : 0,
                    "mediaDuration" : 1,
                    "scalar" : 1,
                    "metadata" : {
                      "clipSpeedAttribute" : false,
                      "default-scale" : "1",
                      "effectApplied" : "none",
                      "lockAspectRatio" : true
                    },
                    "animationTracks" : {

                    }
                  },
                  {
                    "id" : 96,
                    "_type" : "IMFile",
                    "src" : 13,
                    "trackNumber" : 0,
                    "trimStartSum" : 0,
                    "attributes" : {
                      "ident" : "Pasted Image"
                    },
                    "parameters" : {
                      "translation0" : -124.132069069393,
                      "translation1" : -122.031784264186,
                      "scale0" : 0.371825337087209,
                      "scale1" : 0.371825337087209,
                      "sourceCrop0" : 0.0,
                      "sourceCrop1" : 0.0,
                      "sourceCrop2" : 0.0,
                      "sourceCrop3" : 0.0,
                      "geometryCrop0" : 0.0,
                      "geometryCrop1" : 0.0,
                      "geometryCrop2" : 0.0,
                      "geometryCrop3" : 0.0
                    },
                    "effects" : [

                    ],
                    "start" : 1282,
                    "duration" : 267,
                    "mediaStart" : 0,
                    "mediaDuration" : 1,
                    "scalar" : 1,
                    "metadata" : {
                      "clipSpeedAttribute" : false,
                      "default-scale" : "0.5625",
                      "effectApplied" : "none",
                      "lockAspectRatio" : true
                    },
                    "animationTracks" : {

                    }
                  },
                  {
                    "id" : 97,
                    "_type" : "IMFile",
                    "src" : 14,
                    "trackNumber" : 0,
                    "trimStartSum" : 0,
                    "attributes" : {
                      "ident" : "Pasted Image"
                    },
                    "parameters" : {
                      "translation0" : -123.932782700079,
                      "translation1" : -133.067217299921,
                      "scale0" : 1.75186714722004,
                      "scale1" : 1.75186714722004,
                      "sourceCrop0" : 0.0,
                      "sourceCrop1" : 0.0,
                      "sourceCrop2" : 0.0,
                      "sourceCrop3" : 0.0,
                      "geometryCrop0" : 0.0,
                      "geometryCrop1" : 0.0,
                      "geometryCrop2" : 0.0,
                      "geometryCrop3" : 0.0
                    },
                    "effects" : [

                    ],
                    "start" : 1587,
                    "duration" : 150,
                    "mediaStart" : 0,
                    "mediaDuration" : 1,
                    "scalar" : 1,
                    "metadata" : {
                      "clipSpeedAttribute" : false,
                      "default-scale" : "1",
                      "effectApplied" : "none",
                      "lockAspectRatio" : true
                    },
                    "animationTracks" : {

                    }
                  },
                  {
                    "id" : 98,
                    "_type" : "IMFile",
                    "src" : 66,
                    "trackNumber" : 0,
                    "trimStartSum" : 4,
                    "attributes" : {
                      "ident" : "Pasted Image"
                    },
                    "parameters" : {
                      "translation0" : {
                        "type" : "double",
                        "defaultValue" : 30.0,
                        "interp" : "eioe"
                      },
                      "translation1" : {
                        "type" : "double",
                        "defaultValue" : 54.0,
                        "interp" : "eioe"
                      },
                      "scale0" : {
                        "type" : "double",
                        "defaultValue" : 1.20000004768372,
                        "interp" : "eioe"
                      },
                      "scale1" : {
                        "type" : "double",
                        "defaultValue" : 1.20000004768372,
                        "interp" : "eioe"
                      },
                      "sourceCrop0" : {
                        "type" : "double",
                        "defaultValue" : 0.0,
                        "interp" : "eioe"
                      },
                      "sourceCrop1" : {
                        "type" : "double",
                        "defaultValue" : 0.0,
                        "interp" : "eioe"
                      },
                      "sourceCrop2" : {
                        "type" : "double",
                        "defaultValue" : 0.0,
                        "interp" : "eioe"
                      },
                      "sourceCrop3" : {
                        "type" : "double",
                        "defaultValue" : 0.0,
                        "interp" : "eioe"
                      },
                      "geometryCrop0" : {
                        "type" : "double",
                        "defaultValue" : 0.0,
                        "interp" : "eioe"
                      },
                      "geometryCrop1" : {
                        "type" : "double",
                        "defaultValue" : 0.0,
                        "interp" : "eioe"
                      },
                      "geometryCrop2" : {
                        "type" : "double",
                        "defaultValue" : 0.0,
                        "interp" : "eioe"
                      },
                      "geometryCrop3" : {
                        "type" : "double",
                        "defaultValue" : 0.0,
                        "interp" : "eioe"
                      }
                    },
                    "effects" : [

                    ],
                    "start" : 1784,
                    "duration" : 124,
                    "mediaStart" : 0,
                    "mediaDuration" : 1,
                    "scalar" : 1,
                    "metadata" : {
                      "clipSpeedAttribute" : false,
                      "default-scale" : "1",
                      "effectApplied" : "none",
                      "lockAspectRatio" : true
                    },
                    "animationTracks" : {

                    }
                  },
                  {
                    "id" : 99,
                    "_type" : "IMFile",
                    "src" : 22,
                    "trackNumber" : 0,
                    "trimStartSum" : 0,
                    "attributes" : {
                      "ident" : "Pasted Image"
                    },
                    "parameters" : {
                      "translation0" : 98.0,
                      "translation1" : -189.0,
                      "scale0" : 1.29999995231628,
                      "scale1" : 1.29999995231628,
                      "sourceCrop0" : 0.0,
                      "sourceCrop1" : 0.0,
                      "sourceCrop2" : 0.0,
                      "sourceCrop3" : 0.0,
                      "geometryCrop0" : 0.0,
                      "geometryCrop1" : 0.0,
                      "geometryCrop2" : 0.0,
                      "geometryCrop3" : 0.0
                    },
                    "effects" : [

                    ],
                    "start" : 2540,
                    "duration" : 719,
                    "mediaStart" : 0,
                    "mediaDuration" : 1,
                    "scalar" : 1,
                    "metadata" : {
                      "clipSpeedAttribute" : false,
                      "default-scale" : "1",
                      "effectApplied" : "none",
                      "lockAspectRatio" : true
                    },
                    "animationTracks" : {

                    }
                  },
                  {
                    "id" : 100,
                    "_type" : "IMFile",
                    "src" : 68,
                    "trackNumber" : 0,
                    "trimStartSum" : 0,
                    "attributes" : {
                      "ident" : "Pasted Image"
                    },
                    "parameters" : {
                      "translation0" : {
                        "type" : "double",
                        "defaultValue" : -119.0,
                        "interp" : "eioe"
                      },
                      "translation1" : {
                        "type" : "double",
                        "defaultValue" : 59.0,
                        "interp" : "eioe"
                      },
                      "sourceCrop0" : {
                        "type" : "double",
                        "defaultValue" : 0.0,
                        "interp" : "eioe"
                      },
                      "sourceCrop1" : {
                        "type" : "double",
                        "defaultValue" : 0.0,
                        "interp" : "eioe"
                      },
                      "sourceCrop2" : {
                        "type" : "double",
                        "defaultValue" : 0.0,
                        "interp" : "eioe"
                      },
                      "sourceCrop3" : {
                        "type" : "double",
                        "defaultValue" : 0.0,
                        "interp" : "eioe"
                      },
                      "geometryCrop0" : {
                        "type" : "double",
                        "defaultValue" : 0.0,
                        "interp" : "eioe"
                      },
                      "geometryCrop1" : {
                        "type" : "double",
                        "defaultValue" : 0.0,
                        "interp" : "eioe"
                      },
                      "geometryCrop2" : {
                        "type" : "double",
                        "defaultValue" : 0.0,
                        "interp" : "eioe"
                      },
                      "geometryCrop3" : {
                        "type" : "double",
                        "defaultValue" : 0.0,
                        "interp" : "eioe"
                      }
                    },
                    "effects" : [

                    ],
                    "start" : 3344,
                    "duration" : 577,
                    "mediaStart" : 0,
                    "mediaDuration" : 1,
                    "scalar" : 1,
                    "metadata" : {
                      "clipSpeedAttribute" : false,
                      "default-scale" : "1",
                      "effectApplied" : "none",
                      "lockAspectRatio" : true
                    },
                    "animationTracks" : {

                    }
                  },
                  {
                    "id" : 101,
                    "_type" : "IMFile",
                    "src" : 72,
                    "trackNumber" : 0,
                    "trimStartSum" : 0,
                    "attributes" : {
                      "ident" : "Pasted Image"
                    },
                    "parameters" : {
                      "translation0" : {
                        "type" : "double",
                        "defaultValue" : -343.0,
                        "interp" : "eioe"
                      },
                      "translation1" : {
                        "type" : "double",
                        "defaultValue" : 99.0,
                        "interp" : "eioe"
                      },
                      "scale0" : {
                        "type" : "double",
                        "defaultValue" : 1.5,
                        "interp" : "eioe"
                      },
                      "scale1" : {
                        "type" : "double",
                        "defaultValue" : 1.5,
                        "interp" : "eioe"
                      },
                      "sourceCrop0" : {
                        "type" : "double",
                        "defaultValue" : 0.0,
                        "interp" : "eioe"
                      },
                      "sourceCrop1" : {
                        "type" : "double",
                        "defaultValue" : 0.0,
                        "interp" : "eioe"
                      },
                      "sourceCrop2" : {
                        "type" : "double",
                        "defaultValue" : 0.0,
                        "interp" : "eioe"
                      },
                      "sourceCrop3" : {
                        "type" : "double",
                        "defaultValue" : 0.0,
                        "interp" : "eioe"
                      },
                      "geometryCrop0" : {
                        "type" : "double",
                        "defaultValue" : 0.0,
                        "interp" : "eioe"
                      },
                      "geometryCrop1" : {
                        "type" : "double",
                        "defaultValue" : 0.0,
                        "interp" : "eioe"
                      },
                      "geometryCrop2" : {
                        "type" : "double",
                        "defaultValue" : 0.0,
                        "interp" : "eioe"
                      },
                      "geometryCrop3" : {
                        "type" : "double",
                        "defaultValue" : 0.0,
                        "interp" : "eioe"
                      }
                    },
                    "effects" : [

                    ],
                    "start" : 4002,
                    "duration" : 486,
                    "mediaStart" : 0,
                    "mediaDuration" : 1,
                    "scalar" : 1,
                    "metadata" : {
                      "clipSpeedAttribute" : false,
                      "default-scale" : "1",
                      "effectApplied" : "none",
                      "lockAspectRatio" : true
                    },
                    "animationTracks" : {

                    }
                  },
                  {
                    "id" : 102,
                    "_type" : "IMFile",
                    "src" : 44,
                    "trackNumber" : 0,
                    "trimStartSum" : 0,
                    "attributes" : {
                      "ident" : "Pasted Image"
                    },
                    "parameters" : {
                      "translation0" : -119.0,
                      "translation1" : 112.0,
                      "scale0" : 1.5,
                      "scale1" : 1.5,
                      "sourceCrop0" : 0.0,
                      "sourceCrop1" : 0.0,
                      "sourceCrop2" : 0.0,
                      "sourceCrop3" : 0.0,
                      "geometryCrop0" : 0.0,
                      "geometryCrop1" : 0.0,
                      "geometryCrop2" : 0.0,
                      "geometryCrop3" : 0.0
                    },
                    "effects" : [

                    ],
                    "start" : 5498,
                    "duration" : 1059,
                    "mediaStart" : 0,
                    "mediaDuration" : 1,
                    "scalar" : 1,
                    "metadata" : {
                      "clipSpeedAttribute" : false,
                      "default-scale" : "1",
                      "effectApplied" : "none",
                      "lockAspectRatio" : true
                    },
                    "animationTracks" : {

                    }
                  },
                  {
                    "id" : 103,
                    "_type" : "IMFile",
                    "src" : 76,
                    "trackNumber" : 0,
                    "trimStartSum" : 0,
                    "attributes" : {
                      "ident" : "Pasted Image"
                    },
                    "parameters" : {
                      "translation0" : {
                        "type" : "double",
                        "defaultValue" : -177.0,
                        "interp" : "eioe"
                      },
                      "translation1" : {
                        "type" : "double",
                        "defaultValue" : 130.0,
                        "interp" : "eioe"
                      },
                      "scale0" : {
                        "type" : "double",
                        "defaultValue" : 2.0,
                        "interp" : "eioe"
                      },
                      "scale1" : {
                        "type" : "double",
                        "defaultValue" : 2.0,
                        "interp" : "eioe"
                      },
                      "sourceCrop0" : {
                        "type" : "double",
                        "defaultValue" : 0.0,
                        "interp" : "eioe"
                      },
                      "sourceCrop1" : {
                        "type" : "double",
                        "defaultValue" : 0.0,
                        "interp" : "eioe"
                      },
                      "sourceCrop2" : {
                        "type" : "double",
                        "defaultValue" : 0.0,
                        "interp" : "eioe"
                      },
                      "sourceCrop3" : {
                        "type" : "double",
                        "defaultValue" : 0.0,
                        "interp" : "eioe"
                      },
                      "geometryCrop0" : {
                        "type" : "double",
                        "defaultValue" : 0.0,
                        "interp" : "eioe"
                      },
                      "geometryCrop1" : {
                        "type" : "double",
                        "defaultValue" : 0.0,
                        "interp" : "eioe"
                      },
                      "geometryCrop2" : {
                        "type" : "double",
                        "defaultValue" : 0.0,
                        "interp" : "eioe"
                      },
                      "geometryCrop3" : {
                        "type" : "double",
                        "defaultValue" : 0.0,
                        "interp" : "eioe"
                      }
                    },
                    "effects" : [

                    ],
                    "start" : 6594,
                    "duration" : 219,
                    "mediaStart" : 0,
                    "mediaDuration" : 1,
                    "scalar" : 1,
                    "metadata" : {
                      "clipSpeedAttribute" : false,
                      "default-scale" : "1",
                      "effectApplied" : "none",
                      "lockAspectRatio" : true
                    },
                    "animationTracks" : {

                    }
                  }
                ],
                "transitions" : [
                  {
                    "name" : "Fade",
                    "duration" : 30,
                    "rightMedia" : 95,
                    "attributes" : {
                      "bypass" : false,
                      "reverse" : false,
                      "trivial" : false,
                      "useAudioPreRoll" : true,
                      "useVisualPreRoll" : true
                    }

                  },
                  {
                    "name" : "Fade",
                    "duration" : 30,
                    "leftMedia" : 95,
                    "attributes" : {
                      "bypass" : false,
                      "reverse" : false,
                      "trivial" : false,
                      "useAudioPreRoll" : true,
                      "useVisualPreRoll" : true
                    }

                  },
                  {
                    "name" : "Fade",
                    "duration" : 30,
                    "rightMedia" : 96,
                    "attributes" : {
                      "bypass" : false,
                      "reverse" : false,
                      "trivial" : false,
                      "useAudioPreRoll" : true,
                      "useVisualPreRoll" : true
                    }

                  },
                  {
                    "name" : "Fade",
                    "duration" : 30,
                    "leftMedia" : 96,
                    "attributes" : {
                      "bypass" : false,
                      "reverse" : false,
                      "trivial" : false,
                      "useAudioPreRoll" : true,
                      "useVisualPreRoll" : true
                    }

                  },
                  {
                    "name" : "Fade",
                    "duration" : 30,
                    "rightMedia" : 97,
                    "attributes" : {
                      "bypass" : false,
                      "reverse" : false,
                      "trivial" : false,
                      "useAudioPreRoll" : true,
                      "useVisualPreRoll" : true
                    }

                  },
                  {
                    "name" : "Fade",
                    "duration" : 30,
                    "leftMedia" : 97,
                    "attributes" : {
                      "bypass" : false,
                      "reverse" : false,
                      "trivial" : false,
                      "useAudioPreRoll" : true,
                      "useVisualPreRoll" : true
                    }

                  },
                  {
                    "name" : "Fade",
                    "duration" : 30,
                    "rightMedia" : 98,
                    "attributes" : {
                      "bypass" : false,
                      "reverse" : false,
                      "trivial" : false,
                      "useAudioPreRoll" : true,
                      "useVisualPreRoll" : true
                    }

                  },
                  {
                    "name" : "Fade",
                    "duration" : 30,
                    "rightMedia" : 99,
                    "attributes" : {
                      "bypass" : false,
                      "reverse" : false,
                      "trivial" : false,
                      "useAudioPreRoll" : true,
                      "useVisualPreRoll" : true
                    }

                  },
                  {
                    "name" : "Fade",
                    "duration" : 30,
                    "leftMedia" : 99,
                    "attributes" : {
                      "bypass" : false,
                      "reverse" : false,
                      "trivial" : false,
                      "useAudioPreRoll" : true,
                      "useVisualPreRoll" : true
                    }

                  },
                  {
                    "name" : "Fade",
                    "duration" : 30,
                    "rightMedia" : 100,
                    "attributes" : {
                      "bypass" : false,
                      "reverse" : false,
                      "trivial" : false,
                      "useAudioPreRoll" : true,
                      "useVisualPreRoll" : true
                    }

                  },
                  {
                    "name" : "Fade",
                    "duration" : 30,
                    "leftMedia" : 100,
                    "attributes" : {
                      "bypass" : false,
                      "reverse" : false,
                      "trivial" : false,
                      "useAudioPreRoll" : true,
                      "useVisualPreRoll" : true
                    }

                  },
                  {
                    "name" : "Fade",
                    "duration" : 30,
                    "rightMedia" : 101,
                    "attributes" : {
                      "bypass" : false,
                      "reverse" : false,
                      "trivial" : false,
                      "useAudioPreRoll" : true,
                      "useVisualPreRoll" : true
                    }

                  },
                  {
                    "name" : "Fade",
                    "duration" : 30,
                    "leftMedia" : 101,
                    "attributes" : {
                      "bypass" : false,
                      "reverse" : false,
                      "trivial" : false,
                      "useAudioPreRoll" : true,
                      "useVisualPreRoll" : true
                    }

                  },
                  {
                    "name" : "Fade",
                    "duration" : 30,
                    "rightMedia" : 102,
                    "attributes" : {
                      "bypass" : false,
                      "reverse" : false,
                      "trivial" : false,
                      "useAudioPreRoll" : true,
                      "useVisualPreRoll" : true
                    }

                  },
                  {
                    "name" : "Fade",
                    "duration" : 30,
                    "leftMedia" : 102,
                    "attributes" : {
                      "bypass" : false,
                      "reverse" : false,
                      "trivial" : false,
                      "useAudioPreRoll" : true,
                      "useVisualPreRoll" : true
                    }

                  },
                  {
                    "name" : "Fade",
                    "duration" : 30,
                    "rightMedia" : 103,
                    "attributes" : {
                      "bypass" : false,
                      "reverse" : false,
                      "trivial" : false,
                      "useAudioPreRoll" : true,
                      "useVisualPreRoll" : true
                    }

                  },
                  {
                    "name" : "Fade",
                    "duration" : 30,
                    "leftMedia" : 103,
                    "attributes" : {
                      "bypass" : false,
                      "reverse" : false,
                      "trivial" : false,
                      "useAudioPreRoll" : true,
                      "useVisualPreRoll" : true
                    }

                  }
                ]
              },
              {
                "trackIndex" : 4,
                "medias" : [
                  {
                    "id" : 104,
                    "_type" : "IMFile",
                    "src" : 7,
                    "trackNumber" : 0,
                    "trimStartSum" : 0,
                    "attributes" : {
                      "ident" : "MSQE delivers ingestions that are:\r\nFaster\r\n"
                    },
                    "parameters" : {
                      "translation0" : -182.0,
                      "translation1" : 88.0,
                      "sourceCrop0" : 0.0,
                      "sourceCrop1" : 0.0,
                      "sourceCrop2" : 0.0,
                      "sourceCrop3" : 0.0,
                      "geometryCrop0" : 0.0,
                      "geometryCrop1" : 0.0,
                      "geometryCrop2" : 0.0,
                      "geometryCrop3" : 0.0
                    },
                    "effects" : [

                    ],
                    "start" : 767,
                    "duration" : 63,
                    "mediaStart" : 0,
                    "mediaDuration" : 1,
                    "scalar" : 1,
                    "metadata" : {
                      "clipSpeedAttribute" : false,
                      "default-scale" : "1",
                      "effectApplied" : "none",
                      "lockAspectRatio" : true
                    },
                    "animationTracks" : {

                    }
                  },
                  {
                    "id" : 105,
                    "_type" : "Callout",
                    "def" : {
                      "kind" : "remix",
                      "shape" : "text",
                      "style" : "basic",
                      "enable-ligatures" : 1.0,
                      "height" : 250.0,
                      "line-spacing" : 0.0,
                      "width" : 400.0,
                      "word-wrap" : 1.0,
                      "horizontal-alignment" : "center",
                      "resize-behavior" : "resizeText",
                      "text" : "SQL",
                      "vertical-alignment" : "center",
                      "font" : {
                        "color-blue" : 1.0,
                        "color-green" : 1.0,
                        "color-red" : 1.0,
                        "size" : 96.0,
                        "tracking" : 0.0,
                        "name" : "Montserrat",
                        "weight" : "Regular"
                      },
                      "textAttributes" : {
                        "type" : "textAttributeList",
                        "keyframes" : [
                          {
                            "endTime" : 0,
                            "time" : 0,
                            "value" : [{"name":"fontName","rangeEnd":3,"rangeStart":0,"value":"Helvetica Neue","valueType":"string"},{"name":"fontWeight","rangeEnd":3,"rangeStart":0,"value":400,"valueType":"int"},{"name":"kerning","rangeEnd":3,"rangeStart":0,"value":0,"valueType":"double"},{"name":"fontSize","rangeEnd":3,"rangeStart":0,"value":96,"valueType":"double"},{"name":"fgColor","rangeEnd":3,"rangeStart":0,"value":"(255,255,255,255)","valueType":"color"},{"name":"underline","rangeEnd":3,"rangeStart":0,"value":0,"valueType":"int"},{"name":"strikethrough","rangeEnd":3,"rangeStart":0,"value":0,"valueType":"int"},{"name":"fontItalic","rangeEnd":3,"rangeStart":0,"value":0,"valueType":"int"}],
                            "duration" : 0
                          }
                        ]
                      }
                    },
                    "attributes" : {
                      "ident" : "",
                      "autoRotateText" : true
                    },
                    "parameters" : {
                      "translation0" : 52.0,
                      "translation1" : -64.0,
                      "sourceCrop0" : 0.0,
                      "sourceCrop1" : 0.0,
                      "sourceCrop2" : 0.0,
                      "sourceCrop3" : 0.0,
                      "geometryCrop0" : 0.0,
                      "geometryCrop1" : 0.0,
                      "geometryCrop2" : 0.0,
                      "geometryCrop3" : 0.0
                    },
                    "effects" : [

                    ],
                    "start" : 967,
                    "duration" : 150,
                    "mediaStart" : 0,
                    "mediaDuration" : 150,
                    "scalar" : 1,
                    "metadata" : {
                      "AppliedThemeId" : "",
                      "clipSpeedAttribute" : false,
                      "default-scale" : "1",
                      "default-text" : "{\\rtf1\\ansi\\ansicpg1252\\cocoartf2638\n\\cocoatextscaling0\\cocoaplatform0{\\fonttbl\\f0\\fnil\\fcharset0 Montserrat-Regular;}\n{\\colortbl;\\red255\\green255\\blue255;\\red255\\green255\\blue255;}\n{\\*\\expandedcolortbl;;\\cssrgb\\c100000\\c100000\\c100000;}\n\\pard\\tx560\\tx1120\\tx1680\\tx2240\\tx2800\\tx3360\\tx3920\\tx4480\\tx5040\\tx5600\\tx6160\\tx6720\\pardirnatural\\qc\\partightenfactor0\n\n\\f0\\fs192 \\cf2 \\expnd0\\expndtw0\\kerning0\n\\ulnone SQL}",
                      "effectApplied" : "none"
                    },
                    "animationTracks" : {

                    }
                  },
                  {
                    "id" : 106,
                    "_type" : "Callout",
                    "def" : {
                      "kind" : "remix",
                      "shape" : "text",
                      "style" : "basic",
                      "enable-ligatures" : 1.0,
                      "height" : 250.0,
                      "line-spacing" : 0.0,
                      "width" : 400.0,
                      "word-wrap" : 1.0,
                      "horizontal-alignment" : "center",
                      "resize-behavior" : "resizeText",
                      "text" : "SQL",
                      "vertical-alignment" : "center",
                      "font" : {
                        "color-blue" : 1.0,
                        "color-green" : 1.0,
                        "color-red" : 1.0,
                        "size" : 96.0,
                        "tracking" : 0.0,
                        "name" : "Montserrat",
                        "weight" : "Regular"
                      },
                      "textAttributes" : {
                        "type" : "textAttributeList",
                        "keyframes" : [
                          {
                            "endTime" : 0,
                            "time" : 0,
                            "value" : [{"name":"fontName","rangeEnd":3,"rangeStart":0,"value":"Helvetica Neue","valueType":"string"},{"name":"fontWeight","rangeEnd":3,"rangeStart":0,"value":400,"valueType":"int"},{"name":"kerning","rangeEnd":3,"rangeStart":0,"value":0,"valueType":"double"},{"name":"fontSize","rangeEnd":3,"rangeStart":0,"value":96,"valueType":"double"},{"name":"fgColor","rangeEnd":3,"rangeStart":0,"value":"(255,255,255,255)","valueType":"color"},{"name":"underline","rangeEnd":3,"rangeStart":0,"value":0,"valueType":"int"},{"name":"strikethrough","rangeEnd":3,"rangeStart":0,"value":0,"valueType":"int"},{"name":"fontItalic","rangeEnd":3,"rangeStart":0,"value":0,"valueType":"int"}],
                            "duration" : 0
                          }
                        ]
                      }
                    },
                    "attributes" : {
                      "ident" : "",
                      "autoRotateText" : true
                    },
                    "parameters" : {
                      "translation0" : {
                        "type" : "double",
                        "defaultValue" : 52.0,
                        "keyframes" : [
                          {
                            "endTime" : 86,
                            "time" : 56,
                            "value" : -125.0,
                            "duration" : 30
                          }
                        ]
                      },
                      "translation1" : {
                        "type" : "double",
                        "defaultValue" : -64.0,
                        "keyframes" : [
                          {
                            "endTime" : 86,
                            "time" : 56,
                            "value" : -20.0,
                            "duration" : 30
                          }
                        ]
                      },
                      "sourceCrop0" : 0.0,
                      "sourceCrop1" : 0.0,
                      "sourceCrop2" : 0.0,
                      "sourceCrop3" : 0.0,
                      "geometryCrop0" : 0.0,
                      "geometryCrop1" : 0.0,
                      "geometryCrop2" : 0.0,
                      "geometryCrop3" : 0.0
                    },
                    "effects" : [

                    ],
                    "start" : 1198,
                    "duration" : 351,
                    "mediaStart" : 0,
                    "mediaDuration" : 351,
                    "scalar" : 1,
                    "metadata" : {
                      "AppliedThemeId" : "",
                      "clipSpeedAttribute" : false,
                      "default-scale" : "1",
                      "default-text" : "{\\rtf1\\ansi\\ansicpg1252\\cocoartf2638\n\\cocoatextscaling0\\cocoaplatform0{\\fonttbl\\f0\\fnil\\fcharset0 Montserrat-Regular;}\n{\\colortbl;\\red255\\green255\\blue255;\\red255\\green255\\blue255;}\n{\\*\\expandedcolortbl;;\\cssrgb\\c100000\\c100000\\c100000;}\n\\pard\\tx560\\tx1120\\tx1680\\tx2240\\tx2800\\tx3360\\tx3920\\tx4480\\tx5040\\tx5600\\tx6160\\tx6720\\pardirnatural\\qc\\partightenfactor0\n\n\\f0\\fs192 \\cf2 \\expnd0\\expndtw0\\kerning0\n\\ulnone SQL}",
                      "effectApplied" : "none"
                    },
                    "animationTracks" : {
                      "visual" : [
                        {
                          "endTime" : 86,
                          "duration" : 30,
                          "range" : [ 56, 30]
                        }
                      ]
                    }
                  },
                  {
                    "id" : 107,
                    "_type" : "IMFile",
                    "src" : 65,
                    "trackNumber" : 0,
                    "trimStartSum" : -1,
                    "attributes" : {
                      "ident" : "Pasted Image"
                    },
                    "parameters" : {
                      "translation0" : {
                        "type" : "double",
                        "defaultValue" : 30.0,
                        "interp" : "eioe"
                      },
                      "translation1" : {
                        "type" : "double",
                        "defaultValue" : 54.0,
                        "interp" : "eioe"
                      },
                      "scale0" : {
                        "type" : "double",
                        "defaultValue" : 1.20000004768372,
                        "interp" : "eioe"
                      },
                      "scale1" : {
                        "type" : "double",
                        "defaultValue" : 1.20000004768372,
                        "interp" : "eioe"
                      },
                      "sourceCrop0" : {
                        "type" : "double",
                        "defaultValue" : 0.0,
                        "interp" : "eioe"
                      },
                      "sourceCrop1" : {
                        "type" : "double",
                        "defaultValue" : 0.0,
                        "interp" : "eioe"
                      },
                      "sourceCrop2" : {
                        "type" : "double",
                        "defaultValue" : 0.0,
                        "interp" : "eioe"
                      },
                      "sourceCrop3" : {
                        "type" : "double",
                        "defaultValue" : 0.0,
                        "interp" : "eioe"
                      },
                      "geometryCrop0" : {
                        "type" : "double",
                        "defaultValue" : 0.0,
                        "interp" : "eioe"
                      },
                      "geometryCrop1" : {
                        "type" : "double",
                        "defaultValue" : 0.0,
                        "interp" : "eioe"
                      },
                      "geometryCrop2" : {
                        "type" : "double",
                        "defaultValue" : 0.0,
                        "interp" : "eioe"
                      },
                      "geometryCrop3" : {
                        "type" : "double",
                        "defaultValue" : 0.0,
                        "interp" : "eioe"
                      }
                    },
                    "effects" : [

                    ],
                    "start" : 1878,
                    "duration" : 110,
                    "mediaStart" : 0,
                    "mediaDuration" : 1,
                    "scalar" : 1,
                    "metadata" : {
                      "clipSpeedAttribute" : false,
                      "default-scale" : "1",
                      "effectApplied" : "none",
                      "lockAspectRatio" : true
                    },
                    "animationTracks" : {

                    }
                  },
                  {
                    "id" : 108,
                    "_type" : "IMFile",
                    "src" : 23,
                    "trackNumber" : 0,
                    "trimStartSum" : 0,
                    "attributes" : {
                      "ident" : "Pasted Image"
                    },
                    "parameters" : {
                      "translation0" : 201.0,
                      "translation1" : 22.0,
                      "scale0" : 1.29999995231628,
                      "scale1" : 1.29999995231628,
                      "sourceCrop0" : 0.0,
                      "sourceCrop1" : 0.0,
                      "sourceCrop2" : 0.0,
                      "sourceCrop3" : 0.0,
                      "geometryCrop0" : 0.0,
                      "geometryCrop1" : 0.0,
                      "geometryCrop2" : 0.0,
                      "geometryCrop3" : 0.0
                    },
                    "effects" : [

                    ],
                    "start" : 2541,
                    "duration" : 325,
                    "mediaStart" : 0,
                    "mediaDuration" : 1,
                    "scalar" : 1,
                    "metadata" : {
                      "clipSpeedAttribute" : false,
                      "default-scale" : "1",
                      "effectApplied" : "none",
                      "lockAspectRatio" : true
                    },
                    "animationTracks" : {

                    }
                  },
                  {
                    "id" : 109,
                    "_type" : "IMFile",
                    "src" : 24,
                    "trackNumber" : 0,
                    "trimStartSum" : 0,
                    "attributes" : {
                      "ident" : "Pasted Image"
                    },
                    "parameters" : {
                      "translation0" : -64.0,
                      "translation1" : 4.0,
                      "scale0" : 1.29999995231628,
                      "scale1" : 1.29999995231628,
                      "sourceCrop0" : 0.0,
                      "sourceCrop1" : 0.0,
                      "sourceCrop2" : 0.0,
                      "sourceCrop3" : 0.0,
                      "geometryCrop0" : 0.0,
                      "geometryCrop1" : 0.0,
                      "geometryCrop2" : 0.0,
                      "geometryCrop3" : 0.0
                    },
                    "effects" : [

                    ],
                    "start" : 2972,
                    "duration" : 287,
                    "mediaStart" : 0,
                    "mediaDuration" : 1,
                    "scalar" : 1,
                    "metadata" : {
                      "clipSpeedAttribute" : false,
                      "default-scale" : "1",
                      "effectApplied" : "none",
                      "lockAspectRatio" : true
                    },
                    "animationTracks" : {

                    }
                  },
                  {
                    "id" : 110,
                    "_type" : "IMFile",
                    "src" : 69,
                    "trackNumber" : 0,
                    "trimStartSum" : 0,
                    "attributes" : {
                      "ident" : "Pasted Image"
                    },
                    "parameters" : {
                      "translation0" : {
                        "type" : "double",
                        "defaultValue" : -158.0,
                        "interp" : "eioe"
                      },
                      "translation1" : {
                        "type" : "double",
                        "defaultValue" : -145.0,
                        "interp" : "eioe"
                      },
                      "sourceCrop0" : {
                        "type" : "double",
                        "defaultValue" : 0.0,
                        "interp" : "eioe"
                      },
                      "sourceCrop1" : {
                        "type" : "double",
                        "defaultValue" : 0.0,
                        "interp" : "eioe"
                      },
                      "sourceCrop2" : {
                        "type" : "double",
                        "defaultValue" : 0.0,
                        "interp" : "eioe"
                      },
                      "sourceCrop3" : {
                        "type" : "double",
                        "defaultValue" : 0.0,
                        "interp" : "eioe"
                      },
                      "geometryCrop0" : {
                        "type" : "double",
                        "defaultValue" : 0.0,
                        "interp" : "eioe"
                      },
                      "geometryCrop1" : {
                        "type" : "double",
                        "defaultValue" : 0.0,
                        "interp" : "eioe"
                      },
                      "geometryCrop2" : {
                        "type" : "double",
                        "defaultValue" : 0.0,
                        "interp" : "eioe"
                      },
                      "geometryCrop3" : {
                        "type" : "double",
                        "defaultValue" : 0.0,
                        "interp" : "eioe"
                      }
                    },
                    "effects" : [

                    ],
                    "start" : 3555,
                    "duration" : 366,
                    "mediaStart" : 0,
                    "mediaDuration" : 1,
                    "scalar" : 1,
                    "metadata" : {
                      "clipSpeedAttribute" : false,
                      "default-scale" : "1",
                      "effectApplied" : "none",
                      "lockAspectRatio" : true
                    },
                    "animationTracks" : {

                    }
                  },
                  {
                    "id" : 111,
                    "_type" : "IMFile",
                    "src" : 73,
                    "trackNumber" : 0,
                    "trimStartSum" : 0,
                    "attributes" : {
                      "ident" : "Pasted Image"
                    },
                    "parameters" : {
                      "translation0" : {
                        "type" : "double",
                        "defaultValue" : -19.0,
                        "interp" : "eioe"
                      },
                      "translation1" : {
                        "type" : "double",
                        "defaultValue" : 37.0,
                        "interp" : "eioe"
                      },
                      "scale0" : {
                        "type" : "double",
                        "defaultValue" : 1.5,
                        "interp" : "eioe"
                      },
                      "scale1" : {
                        "type" : "double",
                        "defaultValue" : 1.5,
                        "interp" : "eioe"
                      },
                      "sourceCrop0" : {
                        "type" : "double",
                        "defaultValue" : 0.0,
                        "interp" : "eioe"
                      },
                      "sourceCrop1" : {
                        "type" : "double",
                        "defaultValue" : 0.0,
                        "interp" : "eioe"
                      },
                      "sourceCrop2" : {
                        "type" : "double",
                        "defaultValue" : 0.0,
                        "interp" : "eioe"
                      },
                      "sourceCrop3" : {
                        "type" : "double",
                        "defaultValue" : 0.0,
                        "interp" : "eioe"
                      },
                      "geometryCrop0" : {
                        "type" : "double",
                        "defaultValue" : 0.0,
                        "interp" : "eioe"
                      },
                      "geometryCrop1" : {
                        "type" : "double",
                        "defaultValue" : 0.0,
                        "interp" : "eioe"
                      },
                      "geometryCrop2" : {
                        "type" : "double",
                        "defaultValue" : 0.0,
                        "interp" : "eioe"
                      },
                      "geometryCrop3" : {
                        "type" : "double",
                        "defaultValue" : 0.0,
                        "interp" : "eioe"
                      }
                    },
                    "effects" : [

                    ],
                    "start" : 4087,
                    "duration" : 401,
                    "mediaStart" : 0,
                    "mediaDuration" : 1,
                    "scalar" : 1,
                    "metadata" : {
                      "clipSpeedAttribute" : false,
                      "default-scale" : "1",
                      "effectApplied" : "none",
                      "lockAspectRatio" : true
                    },
                    "animationTracks" : {

                    }
                  },
                  {
                    "id" : 112,
                    "_type" : "IMFile",
                    "src" : 45,
                    "trackNumber" : 0,
                    "trimStartSum" : 0,
                    "attributes" : {
                      "ident" : "Pasted Image"
                    },
                    "parameters" : {
                      "translation0" : -119.568320900287,
                      "translation1" : -154.73645712679,
                      "scale0" : 2.86031648320749,
                      "scale1" : 2.86031648320749,
                      "sourceCrop0" : 0.0,
                      "sourceCrop1" : 0.0,
                      "sourceCrop2" : 0.0,
                      "sourceCrop3" : 0.0,
                      "geometryCrop0" : 0.0,
                      "geometryCrop1" : 0.0,
                      "geometryCrop2" : 0.0,
                      "geometryCrop3" : 0.0
                    },
                    "effects" : [

                    ],
                    "start" : 5884,
                    "duration" : 236,
                    "mediaStart" : 0,
                    "mediaDuration" : 1,
                    "scalar" : 1,
                    "metadata" : {
                      "clipSpeedAttribute" : false,
                      "default-scale" : "1",
                      "effectApplied" : "none",
                      "lockAspectRatio" : true
                    },
                    "animationTracks" : {

                    }
                  },
                  {
                    "id" : 113,
                    "_type" : "IMFile",
                    "src" : 75,
                    "trackNumber" : 0,
                    "trimStartSum" : 0,
                    "attributes" : {
                      "ident" : "Pasted Image"
                    },
                    "parameters" : {
                      "translation0" : {
                        "type" : "double",
                        "defaultValue" : -119.0,
                        "interp" : "eioe"
                      },
                      "translation1" : {
                        "type" : "double",
                        "defaultValue" : 95.0,
                        "interp" : "eioe"
                      },
                      "scale0" : {
                        "type" : "double",
                        "defaultValue" : 1.39999997615814,
                        "interp" : "eioe"
                      },
                      "scale1" : {
                        "type" : "double",
                        "defaultValue" : 1.39999997615814,
                        "interp" : "eioe"
                      },
                      "sourceCrop0" : {
                        "type" : "double",
                        "defaultValue" : 0.0,
                        "interp" : "eioe"
                      },
                      "sourceCrop1" : {
                        "type" : "double",
                        "defaultValue" : 0.0,
                        "interp" : "eioe"
                      },
                      "sourceCrop2" : {
                        "type" : "double",
                        "defaultValue" : 0.0,
                        "interp" : "eioe"
                      },
                      "sourceCrop3" : {
                        "type" : "double",
                        "defaultValue" : 0.0,
                        "interp" : "eioe"
                      },
                      "geometryCrop0" : {
                        "type" : "double",
                        "defaultValue" : 0.0,
                        "interp" : "eioe"
                      },
                      "geometryCrop1" : {
                        "type" : "double",
                        "defaultValue" : 0.0,
                        "interp" : "eioe"
                      },
                      "geometryCrop2" : {
                        "type" : "double",
                        "defaultValue" : 0.0,
                        "interp" : "eioe"
                      },
                      "geometryCrop3" : {
                        "type" : "double",
                        "defaultValue" : 0.0,
                        "interp" : "eioe"
                      }
                    },
                    "effects" : [

                    ],
                    "start" : 6179,
                    "duration" : 378,
                    "mediaStart" : 0,
                    "mediaDuration" : 1,
                    "scalar" : 1,
                    "metadata" : {
                      "clipSpeedAttribute" : false,
                      "default-scale" : "1",
                      "effectApplied" : "none",
                      "lockAspectRatio" : true
                    },
                    "animationTracks" : {

                    }
                  },
                  {
                    "id" : 114,
                    "_type" : "IMFile",
                    "src" : 52,
                    "trackNumber" : 0,
                    "trimStartSum" : -27,
                    "attributes" : {
                      "ident" : "Pasted Image"
                    },
                    "parameters" : {
                      "translation0" : -392.0,
                      "translation1" : -123.0,
                      "sourceCrop0" : 0.0,
                      "sourceCrop1" : 0.0,
                      "sourceCrop2" : 0.0,
                      "sourceCrop3" : 0.0,
                      "geometryCrop0" : 0.0,
                      "geometryCrop1" : 0.0,
                      "geometryCrop2" : 0.0,
                      "geometryCrop3" : 0.0
                    },
                    "effects" : [

                    ],
                    "start" : 6783,
                    "duration" : 189,
                    "mediaStart" : 0,
                    "mediaDuration" : 1,
                    "scalar" : 1,
                    "metadata" : {
                      "clipSpeedAttribute" : false,
                      "default-scale" : "1",
                      "effectApplied" : "none",
                      "lockAspectRatio" : true
                    },
                    "animationTracks" : {

                    }
                  }
                ],
                "transitions" : [
                  {
                    "name" : "Fade",
                    "duration" : 30,
                    "rightMedia" : 104,
                    "attributes" : {
                      "bypass" : false,
                      "reverse" : false,
                      "trivial" : false,
                      "useAudioPreRoll" : true,
                      "useVisualPreRoll" : true
                    }

                  },
                  {
                    "name" : "Fade",
                    "duration" : 30,
                    "rightMedia" : 105,
                    "attributes" : {
                      "bypass" : false,
                      "reverse" : false,
                      "trivial" : false,
                      "useAudioPreRoll" : true,
                      "useVisualPreRoll" : true
                    }

                  },
                  {
                    "name" : "Fade",
                    "duration" : 30,
                    "leftMedia" : 105,
                    "attributes" : {
                      "bypass" : false,
                      "reverse" : false,
                      "trivial" : false,
                      "useAudioPreRoll" : true,
                      "useVisualPreRoll" : true
                    }

                  },
                  {
                    "name" : "Fade",
                    "duration" : 30,
                    "rightMedia" : 106,
                    "attributes" : {
                      "bypass" : false,
                      "reverse" : false,
                      "trivial" : false,
                      "useAudioPreRoll" : true,
                      "useVisualPreRoll" : true
                    }

                  },
                  {
                    "name" : "Fade",
                    "duration" : 30,
                    "leftMedia" : 106,
                    "attributes" : {
                      "bypass" : false,
                      "reverse" : false,
                      "trivial" : false,
                      "useAudioPreRoll" : true,
                      "useVisualPreRoll" : true
                    }

                  },
                  {
                    "name" : "Fade",
                    "duration" : 30,
                    "rightMedia" : 107,
                    "attributes" : {
                      "bypass" : false,
                      "reverse" : false,
                      "trivial" : false,
                      "useAudioPreRoll" : true,
                      "useVisualPreRoll" : true
                    }

                  },
                  {
                    "name" : "Fade",
                    "duration" : 30,
                    "rightMedia" : 108,
                    "attributes" : {
                      "bypass" : false,
                      "reverse" : false,
                      "trivial" : false,
                      "useAudioPreRoll" : true,
                      "useVisualPreRoll" : true
                    }

                  },
                  {
                    "name" : "Fade",
                    "duration" : 30,
                    "leftMedia" : 108,
                    "attributes" : {
                      "bypass" : false,
                      "reverse" : false,
                      "trivial" : false,
                      "useAudioPreRoll" : true,
                      "useVisualPreRoll" : true
                    }

                  },
                  {
                    "name" : "Fade",
                    "duration" : 30,
                    "rightMedia" : 109,
                    "attributes" : {
                      "bypass" : false,
                      "reverse" : false,
                      "trivial" : false,
                      "useAudioPreRoll" : true,
                      "useVisualPreRoll" : true
                    }

                  },
                  {
                    "name" : "Fade",
                    "duration" : 30,
                    "leftMedia" : 109,
                    "attributes" : {
                      "bypass" : false,
                      "reverse" : false,
                      "trivial" : false,
                      "useAudioPreRoll" : true,
                      "useVisualPreRoll" : true
                    }

                  },
                  {
                    "name" : "Fade",
                    "duration" : 30,
                    "rightMedia" : 110,
                    "attributes" : {
                      "bypass" : false,
                      "reverse" : false,
                      "trivial" : false,
                      "useAudioPreRoll" : true,
                      "useVisualPreRoll" : true
                    }

                  },
                  {
                    "name" : "Fade",
                    "duration" : 30,
                    "leftMedia" : 110,
                    "attributes" : {
                      "bypass" : false,
                      "reverse" : false,
                      "trivial" : false,
                      "useAudioPreRoll" : true,
                      "useVisualPreRoll" : true
                    }

                  },
                  {
                    "name" : "Fade",
                    "duration" : 30,
                    "rightMedia" : 111,
                    "attributes" : {
                      "bypass" : false,
                      "reverse" : false,
                      "trivial" : false,
                      "useAudioPreRoll" : true,
                      "useVisualPreRoll" : true
                    }

                  },
                  {
                    "name" : "Fade",
                    "duration" : 30,
                    "leftMedia" : 111,
                    "attributes" : {
                      "bypass" : false,
                      "reverse" : false,
                      "trivial" : false,
                      "useAudioPreRoll" : true,
                      "useVisualPreRoll" : true
                    }

                  },
                  {
                    "name" : "Fade",
                    "duration" : 30,
                    "rightMedia" : 112,
                    "attributes" : {
                      "bypass" : false,
                      "reverse" : false,
                      "trivial" : false,
                      "useAudioPreRoll" : true,
                      "useVisualPreRoll" : true
                    }

                  },
                  {
                    "name" : "Fade",
                    "duration" : 30,
                    "leftMedia" : 112,
                    "attributes" : {
                      "bypass" : false,
                      "reverse" : false,
                      "trivial" : false,
                      "useAudioPreRoll" : true,
                      "useVisualPreRoll" : true
                    }

                  },
                  {
                    "name" : "Fade",
                    "duration" : 30,
                    "rightMedia" : 113,
                    "attributes" : {
                      "bypass" : false,
                      "reverse" : false,
                      "trivial" : false,
                      "useAudioPreRoll" : true,
                      "useVisualPreRoll" : true
                    }

                  },
                  {
                    "name" : "Fade",
                    "duration" : 30,
                    "leftMedia" : 113,
                    "attributes" : {
                      "bypass" : false,
                      "reverse" : false,
                      "trivial" : false,
                      "useAudioPreRoll" : true,
                      "useVisualPreRoll" : true
                    }

                  },
                  {
                    "name" : "Fade",
                    "duration" : 30,
                    "rightMedia" : 114,
                    "attributes" : {
                      "bypass" : false,
                      "reverse" : false,
                      "trivial" : false,
                      "useAudioPreRoll" : true,
                      "useVisualPreRoll" : true
                    }

                  },
                  {
                    "name" : "Fade",
                    "duration" : 30,
                    "leftMedia" : 114,
                    "attributes" : {
                      "bypass" : false,
                      "reverse" : false,
                      "trivial" : false,
                      "useAudioPreRoll" : true,
                      "useVisualPreRoll" : true
                    }

                  }
                ]
              },
              {
                "trackIndex" : 5,
                "medias" : [
                  {
                    "id" : 115,
                    "_type" : "IMFile",
                    "src" : 8,
                    "trackNumber" : 0,
                    "trimStartSum" : 0,
                    "attributes" : {
                      "ident" : "MSQE delivers ingestions that are:\r\nFaster\r\nMore reliable\r\n"
                    },
                    "parameters" : {
                      "translation0" : -183.0,
                      "translation1" : 59.0,
                      "sourceCrop0" : 0.0,
                      "sourceCrop1" : 0.0,
                      "sourceCrop2" : 0.0,
                      "sourceCrop3" : 0.0,
                      "geometryCrop0" : 0.0,
                      "geometryCrop1" : 0.0,
                      "geometryCrop2" : 0.0,
                      "geometryCrop3" : 0.0
                    },
                    "effects" : [

                    ],
                    "start" : 800,
                    "duration" : 74,
                    "mediaStart" : 0,
                    "mediaDuration" : 1,
                    "scalar" : 1,
                    "metadata" : {
                      "clipSpeedAttribute" : false,
                      "default-scale" : "1",
                      "effectApplied" : "none",
                      "lockAspectRatio" : true
                    },
                    "animationTracks" : {

                    }
                  },
                  {
                    "id" : 116,
                    "_type" : "IMFile",
                    "src" : 11,
                    "trackNumber" : 0,
                    "trimStartSum" : 0,
                    "attributes" : {
                      "ident" : "Pasted Image"
                    },
                    "parameters" : {
                      "translation0" : -359.173953545182,
                      "translation1" : -119.661656678768,
                      "scale0" : 0.213254963017952,
                      "scale1" : 0.213254963017952,
                      "sourceCrop0" : 0.0,
                      "sourceCrop1" : 0.0,
                      "sourceCrop2" : 0.0,
                      "sourceCrop3" : 0.0,
                      "geometryCrop0" : 0.0,
                      "geometryCrop1" : 0.0,
                      "geometryCrop2" : 0.0,
                      "geometryCrop3" : 0.0
                    },
                    "effects" : [

                    ],
                    "start" : 1078,
                    "duration" : 150,
                    "mediaStart" : 0,
                    "mediaDuration" : 1,
                    "scalar" : 1,
                    "metadata" : {
                      "clipSpeedAttribute" : false,
                      "default-scale" : "0.32",
                      "effectApplied" : "none",
                      "lockAspectRatio" : true
                    },
                    "animationTracks" : {

                    }
                  },
                  {
                    "id" : 117,
                    "_type" : "IMFile",
                    "src" : 64,
                    "trackNumber" : 0,
                    "trimStartSum" : -1,
                    "attributes" : {
                      "ident" : "Pasted Image"
                    },
                    "parameters" : {
                      "translation0" : {
                        "type" : "double",
                        "defaultValue" : -115.0,
                        "interp" : "eioe"
                      },
                      "translation1" : {
                        "type" : "double",
                        "defaultValue" : 53.0,
                        "interp" : "eioe"
                      },
                      "scale0" : {
                        "type" : "double",
                        "defaultValue" : 1.20000004768372,
                        "interp" : "eioe"
                      },
                      "scale1" : {
                        "type" : "double",
                        "defaultValue" : 1.20000004768372,
                        "interp" : "eioe"
                      },
                      "sourceCrop0" : {
                        "type" : "double",
                        "defaultValue" : 0.0,
                        "interp" : "eioe"
                      },
                      "sourceCrop1" : {
                        "type" : "double",
                        "defaultValue" : 0.0,
                        "interp" : "eioe"
                      },
                      "sourceCrop2" : {
                        "type" : "double",
                        "defaultValue" : 0.0,
                        "interp" : "eioe"
                      },
                      "sourceCrop3" : {
                        "type" : "double",
                        "defaultValue" : 0.0,
                        "interp" : "eioe"
                      },
                      "geometryCrop0" : {
                        "type" : "double",
                        "defaultValue" : 0.0,
                        "interp" : "eioe"
                      },
                      "geometryCrop1" : {
                        "type" : "double",
                        "defaultValue" : 0.0,
                        "interp" : "eioe"
                      },
                      "geometryCrop2" : {
                        "type" : "double",
                        "defaultValue" : 0.0,
                        "interp" : "eioe"
                      },
                      "geometryCrop3" : {
                        "type" : "double",
                        "defaultValue" : 0.0,
                        "interp" : "eioe"
                      }
                    },
                    "effects" : [

                    ],
                    "start" : 1958,
                    "duration" : 101,
                    "mediaStart" : 0,
                    "mediaDuration" : 1,
                    "scalar" : 1,
                    "metadata" : {
                      "clipSpeedAttribute" : false,
                      "default-scale" : "1",
                      "effectApplied" : "none",
                      "lockAspectRatio" : true
                    },
                    "animationTracks" : {

                    }
                  },
                  {
                    "id" : 118,
                    "_type" : "IMFile",
                    "src" : 25,
                    "trackNumber" : 0,
                    "trimStartSum" : 0,
                    "attributes" : {
                      "ident" : "Pasted Image"
                    },
                    "parameters" : {
                      "translation0" : -343.0,
                      "translation1" : -144.0,
                      "scale0" : 1.5,
                      "scale1" : 1.5,
                      "sourceCrop0" : 0.0,
                      "sourceCrop1" : 0.0,
                      "sourceCrop2" : 0.0,
                      "sourceCrop3" : 0.0,
                      "geometryCrop0" : 0.0,
                      "geometryCrop1" : 0.0,
                      "geometryCrop2" : 0.0,
                      "geometryCrop3" : 0.0
                    },
                    "effects" : [

                    ],
                    "start" : 2934,
                    "duration" : 325,
                    "mediaStart" : 0,
                    "mediaDuration" : 1,
                    "scalar" : 1,
                    "metadata" : {
                      "clipSpeedAttribute" : false,
                      "default-scale" : "1",
                      "effectApplied" : "none",
                      "lockAspectRatio" : true
                    },
                    "animationTracks" : {

                    }
                  },
                  {
                    "id" : 119,
                    "_type" : "IMFile",
                    "src" : 29,
                    "trackNumber" : 0,
                    "trimStartSum" : -65,
                    "attributes" : {
                      "ident" : "Pasted Image"
                    },
                    "parameters" : {
                      "translation0" : -182.0,
                      "translation1" : 27.0,
                      "sourceCrop0" : 0.0,
                      "sourceCrop1" : 0.0,
                      "sourceCrop2" : 0.0,
                      "sourceCrop3" : 0.0,
                      "geometryCrop0" : 0.0,
                      "geometryCrop1" : 0.0,
                      "geometryCrop2" : 0.0,
                      "geometryCrop3" : 0.0
                    },
                    "effects" : [

                    ],
                    "start" : 3693,
                    "duration" : 228,
                    "mediaStart" : 0,
                    "mediaDuration" : 1,
                    "scalar" : 1,
                    "metadata" : {
                      "clipSpeedAttribute" : false,
                      "default-scale" : "1",
                      "effectApplied" : "none",
                      "lockAspectRatio" : true
                    },
                    "animationTracks" : {

                    }
                  },
                  {
                    "id" : 120,
                    "_type" : "IMFile",
                    "src" : 47,
                    "trackNumber" : 0,
                    "trimStartSum" : 0,
                    "attributes" : {
                      "ident" : "Pasted Image"
                    },
                    "parameters" : {
                      "translation0" : -124.0,
                      "translation1" : -153.0,
                      "scale0" : 2.0,
                      "scale1" : 2.0,
                      "sourceCrop0" : 0.0,
                      "sourceCrop1" : 0.0,
                      "sourceCrop2" : 0.0,
                      "sourceCrop3" : 0.0,
                      "geometryCrop0" : 0.0,
                      "geometryCrop1" : 0.0,
                      "geometryCrop2" : 0.0,
                      "geometryCrop3" : 0.0
                    },
                    "effects" : [

                    ],
                    "start" : 6342,
                    "duration" : 215,
                    "mediaStart" : 0,
                    "mediaDuration" : 1,
                    "scalar" : 1,
                    "metadata" : {
                      "clipSpeedAttribute" : false,
                      "default-scale" : "1",
                      "effectApplied" : "none",
                      "lockAspectRatio" : true
                    },
                    "animationTracks" : {

                    }
                  },
                  {
                    "id" : 121,
                    "_type" : "IMFile",
                    "src" : 53,
                    "trackNumber" : 0,
                    "trimStartSum" : 0,
                    "attributes" : {
                      "ident" : "Pasted Image"
                    },
                    "parameters" : {
                      "translation0" : 98.0479951857812,
                      "translation1" : -109.50643578215,
                      "scale0" : 0.675902089695739,
                      "scale1" : 0.675902089695739,
                      "sourceCrop0" : 0.0,
                      "sourceCrop1" : 0.0,
                      "sourceCrop2" : 0.0,
                      "sourceCrop3" : 0.0,
                      "geometryCrop0" : 0.0,
                      "geometryCrop1" : 0.0,
                      "geometryCrop2" : 0.0,
                      "geometryCrop3" : 0.0
                    },
                    "effects" : [

                    ],
                    "start" : 6852,
                    "duration" : 120,
                    "mediaStart" : 0,
                    "mediaDuration" : 1,
                    "scalar" : 1,
                    "metadata" : {
                      "clipSpeedAttribute" : false,
                      "default-scale" : "1",
                      "effectApplied" : "none",
                      "lockAspectRatio" : true
                    },
                    "animationTracks" : {

                    }
                  }
                ],
                "transitions" : [
                  {
                    "name" : "Fade",
                    "duration" : 30,
                    "rightMedia" : 115,
                    "attributes" : {
                      "bypass" : false,
                      "reverse" : false,
                      "trivial" : false,
                      "useAudioPreRoll" : true,
                      "useVisualPreRoll" : true
                    }

                  },
                  {
                    "name" : "Fade",
                    "duration" : 30,
                    "rightMedia" : 116,
                    "attributes" : {
                      "bypass" : false,
                      "reverse" : false,
                      "trivial" : false,
                      "useAudioPreRoll" : true,
                      "useVisualPreRoll" : true
                    }

                  },
                  {
                    "name" : "Fade",
                    "duration" : 30,
                    "leftMedia" : 116,
                    "attributes" : {
                      "bypass" : false,
                      "reverse" : false,
                      "trivial" : false,
                      "useAudioPreRoll" : true,
                      "useVisualPreRoll" : true
                    }

                  },
                  {
                    "name" : "Fade",
                    "duration" : 30,
                    "rightMedia" : 117,
                    "attributes" : {
                      "bypass" : false,
                      "reverse" : false,
                      "trivial" : false,
                      "useAudioPreRoll" : true,
                      "useVisualPreRoll" : true
                    }

                  },
                  {
                    "name" : "Fade",
                    "duration" : 30,
                    "rightMedia" : 118,
                    "attributes" : {
                      "bypass" : false,
                      "reverse" : false,
                      "trivial" : false,
                      "useAudioPreRoll" : true,
                      "useVisualPreRoll" : true
                    }

                  },
                  {
                    "name" : "Fade",
                    "duration" : 30,
                    "leftMedia" : 118,
                    "attributes" : {
                      "bypass" : false,
                      "reverse" : false,
                      "trivial" : false,
                      "useAudioPreRoll" : true,
                      "useVisualPreRoll" : true
                    }

                  },
                  {
                    "name" : "Fade",
                    "duration" : 30,
                    "rightMedia" : 119,
                    "attributes" : {
                      "bypass" : false,
                      "reverse" : false,
                      "trivial" : false,
                      "useAudioPreRoll" : true,
                      "useVisualPreRoll" : true
                    }

                  },
                  {
                    "name" : "Fade",
                    "duration" : 30,
                    "leftMedia" : 119,
                    "attributes" : {
                      "bypass" : false,
                      "reverse" : false,
                      "trivial" : false,
                      "useAudioPreRoll" : true,
                      "useVisualPreRoll" : true
                    }

                  },
                  {
                    "name" : "Fade",
                    "duration" : 30,
                    "rightMedia" : 120,
                    "attributes" : {
                      "bypass" : false,
                      "reverse" : false,
                      "trivial" : false,
                      "useAudioPreRoll" : true,
                      "useVisualPreRoll" : true
                    }

                  },
                  {
                    "name" : "Fade",
                    "duration" : 30,
                    "leftMedia" : 120,
                    "attributes" : {
                      "bypass" : false,
                      "reverse" : false,
                      "trivial" : false,
                      "useAudioPreRoll" : true,
                      "useVisualPreRoll" : true
                    }

                  },
                  {
                    "name" : "Fade",
                    "duration" : 30,
                    "rightMedia" : 121,
                    "attributes" : {
                      "bypass" : false,
                      "reverse" : false,
                      "trivial" : false,
                      "useAudioPreRoll" : true,
                      "useVisualPreRoll" : true
                    }

                  },
                  {
                    "name" : "Fade",
                    "duration" : 30,
                    "leftMedia" : 121,
                    "attributes" : {
                      "bypass" : false,
                      "reverse" : false,
                      "trivial" : false,
                      "useAudioPreRoll" : true,
                      "useVisualPreRoll" : true
                    }

                  }
                ]
              },
              {
                "trackIndex" : 6,
                "medias" : [
                  {
                    "id" : 122,
                    "_type" : "IMFile",
                    "src" : 9,
                    "trackNumber" : 0,
                    "trimStartSum" : 0,
                    "attributes" : {
                      "ident" : "MSQE delivers ingestions that are:\r\nFaster\r\nMore reliable\r\nEasier\r\n"
                    },
                    "parameters" : {
                      "translation0" : -182.0,
                      "translation1" : 30.0,
                      "sourceCrop0" : 0.0,
                      "sourceCrop1" : 0.0,
                      "sourceCrop2" : 0.0,
                      "sourceCrop3" : 0.0,
                      "geometryCrop0" : 0.0,
                      "geometryCrop1" : 0.0,
                      "geometryCrop2" : 0.0,
                      "geometryCrop3" : 0.0
                    },
                    "effects" : [

                    ],
                    "start" : 844,
                    "duration" : 96,
                    "mediaStart" : 0,
                    "mediaDuration" : 1,
                    "scalar" : 1,
                    "metadata" : {
                      "clipSpeedAttribute" : false,
                      "default-scale" : "1",
                      "effectApplied" : "none",
                      "lockAspectRatio" : true
                    },
                    "animationTracks" : {

                    }
                  },
                  {
                    "id" : 123,
                    "_type" : "Callout",
                    "def" : {
                      "kind" : "remix",
                      "shape" : "text",
                      "style" : "basic",
                      "enable-ligatures" : 1.0,
                      "height" : 250.0,
                      "line-spacing" : 0.0,
                      "width" : 400.0,
                      "word-wrap" : 1.0,
                      "horizontal-alignment" : "center",
                      "resize-behavior" : "resizeText",
                      "text" : "JSON",
                      "vertical-alignment" : "center",
                      "font" : {
                        "color-blue" : 1.0,
                        "color-green" : 1.0,
                        "color-red" : 1.0,
                        "size" : 96.0,
                        "tracking" : 0.0,
                        "name" : "Montserrat",
                        "weight" : "Regular"
                      },
                      "textAttributes" : {
                        "type" : "textAttributeList",
                        "keyframes" : [
                          {
                            "endTime" : 0,
                            "time" : 0,
                            "value" : [{"name":"fgColor","rangeEnd":4,"rangeStart":0,"value":"(255,255,255,255)","valueType":"color"},{"name":"strikethrough","rangeEnd":4,"rangeStart":0,"value":0,"valueType":"int"},{"name":"underline","rangeEnd":4,"rangeStart":0,"value":0,"valueType":"int"},{"name":"fontName","rangeEnd":4,"rangeStart":0,"value":"Helvetica Neue","valueType":"string"},{"name":"fontSize","rangeEnd":4,"rangeStart":0,"value":96,"valueType":"double"},{"name":"fontWeight","rangeEnd":4,"rangeStart":0,"value":400,"valueType":"int"},{"name":"fontItalic","rangeEnd":4,"rangeStart":0,"value":0,"valueType":"int"},{"name":"kerning","rangeEnd":4,"rangeStart":0,"value":0,"valueType":"double"}],
                            "duration" : 0
                          }
                        ]
                      }
                    },
                    "attributes" : {
                      "ident" : "",
                      "autoRotateText" : true
                    },
                    "parameters" : {
                      "translation0" : 52.0,
                      "translation1" : -64.0,
                      "sourceCrop0" : 0.0,
                      "sourceCrop1" : 0.0,
                      "sourceCrop2" : 0.0,
                      "sourceCrop3" : 0.0,
                      "geometryCrop0" : 0.0,
                      "geometryCrop1" : 0.0,
                      "geometryCrop2" : 0.0,
                      "geometryCrop3" : 0.0
                    },
                    "effects" : [

                    ],
                    "start" : 1078,
                    "duration" : 150,
                    "mediaStart" : 0,
                    "mediaDuration" : 150,
                    "scalar" : 1,
                    "metadata" : {
                      "AppliedThemeId" : "",
                      "clipSpeedAttribute" : false,
                      "default-scale" : "1",
                      "default-text" : "{\\rtf1\\ansi\\ansicpg1252\\cocoartf2638\n\\cocoatextscaling0\\cocoaplatform0{\\fonttbl\\f0\\fnil\\fcharset0 Montserrat-Regular;}\n{\\colortbl;\\red255\\green255\\blue255;\\red255\\green255\\blue255;}\n{\\*\\expandedcolortbl;;\\cssrgb\\c100000\\c100000\\c100000;}\n\\pard\\tx560\\tx1120\\tx1680\\tx2240\\tx2800\\tx3360\\tx3920\\tx4480\\tx5040\\tx5600\\tx6160\\tx6720\\pardirnatural\\qc\\partightenfactor0\n\n\\f0\\fs192 \\cf2 \\expnd0\\expndtw0\\kerning0\n\\ulnone SQL}",
                      "effectApplied" : "none"
                    },
                    "animationTracks" : {

                    }
                  },
                  {
                    "id" : 124,
                    "_type" : "IMFile",
                    "src" : 62,
                    "trackNumber" : 0,
                    "trimStartSum" : 0,
                    "attributes" : {
                      "ident" : "Pasted Image"
                    },
                    "parameters" : {
                      "translation0" : {
                        "type" : "double",
                        "defaultValue" : -115.0,
                        "interp" : "eioe"
                      },
                      "translation1" : {
                        "type" : "double",
                        "defaultValue" : 53.0,
                        "interp" : "eioe"
                      },
                      "scale0" : {
                        "type" : "double",
                        "defaultValue" : 1.20000004768372,
                        "interp" : "eioe"
                      },
                      "scale1" : {
                        "type" : "double",
                        "defaultValue" : 1.20000004768372,
                        "interp" : "eioe"
                      },
                      "sourceCrop0" : {
                        "type" : "double",
                        "defaultValue" : 0.0,
                        "interp" : "eioe"
                      },
                      "sourceCrop1" : {
                        "type" : "double",
                        "defaultValue" : 0.0,
                        "interp" : "eioe"
                      },
                      "sourceCrop2" : {
                        "type" : "double",
                        "defaultValue" : 0.0,
                        "interp" : "eioe"
                      },
                      "sourceCrop3" : {
                        "type" : "double",
                        "defaultValue" : 0.0,
                        "interp" : "eioe"
                      },
                      "geometryCrop0" : {
                        "type" : "double",
                        "defaultValue" : 0.0,
                        "interp" : "eioe"
                      },
                      "geometryCrop1" : {
                        "type" : "double",
                        "defaultValue" : 0.0,
                        "interp" : "eioe"
                      },
                      "geometryCrop2" : {
                        "type" : "double",
                        "defaultValue" : 0.0,
                        "interp" : "eioe"
                      },
                      "geometryCrop3" : {
                        "type" : "double",
                        "defaultValue" : 0.0,
                        "interp" : "eioe"
                      }
                    },
                    "effects" : [

                    ],
                    "start" : 2029,
                    "duration" : 102,
                    "mediaStart" : 0,
                    "mediaDuration" : 1,
                    "scalar" : 1,
                    "metadata" : {
                      "clipSpeedAttribute" : false,
                      "default-scale" : "1",
                      "effectApplied" : "none",
                      "lockAspectRatio" : true
                    },
                    "animationTracks" : {

                    }
                  },
                  {
                    "id" : 125,
                    "_type" : "IMFile",
                    "src" : 30,
                    "trackNumber" : 0,
                    "trimStartSum" : -9,
                    "attributes" : {
                      "ident" : "Pasted Image"
                    },
                    "parameters" : {
                      "translation0" : -49.0,
                      "translation1" : 29.0,
                      "sourceCrop0" : 0.0,
                      "sourceCrop1" : 0.0,
                      "sourceCrop2" : 0.0,
                      "sourceCrop3" : 0.0,
                      "geometryCrop0" : 0.0,
                      "geometryCrop1" : 0.0,
                      "geometryCrop2" : 0.0,
                      "geometryCrop3" : 0.0
                    },
                    "effects" : [

                    ],
                    "start" : 3788,
                    "duration" : 133,
                    "mediaStart" : 0,
                    "mediaDuration" : 1,
                    "scalar" : 1,
                    "metadata" : {
                      "clipSpeedAttribute" : false,
                      "default-scale" : "1",
                      "effectApplied" : "none",
                      "lockAspectRatio" : true
                    },
                    "animationTracks" : {

                    }
                  },
                  {
                    "id" : 126,
                    "_type" : "IMFile",
                    "src" : 48,
                    "trackNumber" : 0,
                    "trimStartSum" : 0,
                    "attributes" : {
                      "ident" : "Pasted Image"
                    },
                    "parameters" : {
                      "translation0" : -544.711021593422,
                      "translation1" : -137.601191128058,
                      "scale0" : 0.14593563886241,
                      "scale1" : 0.14593563886241,
                      "sourceCrop0" : 0.0,
                      "sourceCrop1" : 0.0,
                      "sourceCrop2" : 0.0,
                      "sourceCrop3" : 0.0,
                      "geometryCrop0" : 0.0,
                      "geometryCrop1" : 0.0,
                      "geometryCrop2" : 0.0,
                      "geometryCrop3" : 0.0
                    },
                    "effects" : [

                    ],
                    "start" : 6387,
                    "duration" : 170,
                    "mediaStart" : 0,
                    "mediaDuration" : 1,
                    "scalar" : 1,
                    "metadata" : {
                      "clipSpeedAttribute" : false,
                      "default-scale" : "0.5625",
                      "effectApplied" : "none",
                      "lockAspectRatio" : true
                    },
                    "animationTracks" : {

                    }
                  }
                ],
                "transitions" : [
                  {
                    "name" : "Fade",
                    "duration" : 30,
                    "rightMedia" : 122,
                    "attributes" : {
                      "bypass" : false,
                      "reverse" : false,
                      "trivial" : false,
                      "useAudioPreRoll" : true,
                      "useVisualPreRoll" : true
                    }

                  },
                  {
                    "name" : "Fade",
                    "duration" : 30,
                    "leftMedia" : 122,
                    "attributes" : {
                      "bypass" : false,
                      "reverse" : false,
                      "trivial" : false,
                      "useAudioPreRoll" : true,
                      "useVisualPreRoll" : true
                    }

                  },
                  {
                    "name" : "Fade",
                    "duration" : 30,
                    "rightMedia" : 123,
                    "attributes" : {
                      "bypass" : false,
                      "reverse" : false,
                      "trivial" : false,
                      "useAudioPreRoll" : true,
                      "useVisualPreRoll" : true
                    }

                  },
                  {
                    "name" : "Fade",
                    "duration" : 30,
                    "leftMedia" : 123,
                    "attributes" : {
                      "bypass" : false,
                      "reverse" : false,
                      "trivial" : false,
                      "useAudioPreRoll" : true,
                      "useVisualPreRoll" : true
                    }

                  },
                  {
                    "name" : "Fade",
                    "duration" : 30,
                    "rightMedia" : 124,
                    "attributes" : {
                      "bypass" : false,
                      "reverse" : false,
                      "trivial" : false,
                      "useAudioPreRoll" : true,
                      "useVisualPreRoll" : true
                    }

                  },
                  {
                    "name" : "Fade",
                    "duration" : 30,
                    "rightMedia" : 125,
                    "attributes" : {
                      "bypass" : false,
                      "reverse" : false,
                      "trivial" : false,
                      "useAudioPreRoll" : true,
                      "useVisualPreRoll" : true
                    }

                  },
                  {
                    "name" : "Fade",
                    "duration" : 30,
                    "leftMedia" : 125,
                    "attributes" : {
                      "bypass" : false,
                      "reverse" : false,
                      "trivial" : false,
                      "useAudioPreRoll" : true,
                      "useVisualPreRoll" : true
                    }

                  },
                  {
                    "name" : "Fade",
                    "duration" : 30,
                    "rightMedia" : 126,
                    "attributes" : {
                      "bypass" : false,
                      "reverse" : false,
                      "trivial" : false,
                      "useAudioPreRoll" : true,
                      "useVisualPreRoll" : true
                    }

                  },
                  {
                    "name" : "Fade",
                    "duration" : 30,
                    "leftMedia" : 126,
                    "attributes" : {
                      "bypass" : false,
                      "reverse" : false,
                      "trivial" : false,
                      "useAudioPreRoll" : true,
                      "useVisualPreRoll" : true
                    }

                  }
                ]
              },
              {
                "trackIndex" : 7,
                "medias" : [
                  {
                    "id" : 127,
                    "_type" : "IMFile",
                    "src" : 63,
                    "trackNumber" : 0,
                    "trimStartSum" : 0,
                    "attributes" : {
                      "ident" : "Pasted Image"
                    },
                    "parameters" : {
                      "translation0" : {
                        "type" : "double",
                        "defaultValue" : -115.0,
                        "interp" : "eioe"
                      },
                      "translation1" : {
                        "type" : "double",
                        "defaultValue" : 53.0,
                        "interp" : "eioe"
                      },
                      "scale0" : {
                        "type" : "double",
                        "defaultValue" : 1.20000004768372,
                        "interp" : "eioe"
                      },
                      "scale1" : {
                        "type" : "double",
                        "defaultValue" : 1.20000004768372,
                        "interp" : "eioe"
                      },
                      "sourceCrop0" : {
                        "type" : "double",
                        "defaultValue" : 0.0,
                        "interp" : "eioe"
                      },
                      "sourceCrop1" : {
                        "type" : "double",
                        "defaultValue" : 0.0,
                        "interp" : "eioe"
                      },
                      "sourceCrop2" : {
                        "type" : "double",
                        "defaultValue" : 0.0,
                        "interp" : "eioe"
                      },
                      "sourceCrop3" : {
                        "type" : "double",
                        "defaultValue" : 0.0,
                        "interp" : "eioe"
                      },
                      "geometryCrop0" : {
                        "type" : "double",
                        "defaultValue" : 0.0,
                        "interp" : "eioe"
                      },
                      "geometryCrop1" : {
                        "type" : "double",
                        "defaultValue" : 0.0,
                        "interp" : "eioe"
                      },
                      "geometryCrop2" : {
                        "type" : "double",
                        "defaultValue" : 0.0,
                        "interp" : "eioe"
                      },
                      "geometryCrop3" : {
                        "type" : "double",
                        "defaultValue" : 0.0,
                        "interp" : "eioe"
                      }
                    },
                    "effects" : [

                    ],
                    "start" : 2101,
                    "duration" : 150,
                    "mediaStart" : 0,
                    "mediaDuration" : 1,
                    "scalar" : 1,
                    "metadata" : {
                      "clipSpeedAttribute" : false,
                      "default-scale" : "1",
                      "effectApplied" : "none",
                      "lockAspectRatio" : true
                    },
                    "animationTracks" : {

                    }
                  },
                  {
                    "id" : 128,
                    "_type" : "IMFile",
                    "src" : 31,
                    "trackNumber" : 0,
                    "trimStartSum" : 0,
                    "attributes" : {
                      "ident" : "Pasted Image"
                    },
                    "parameters" : {
                      "translation0" : -53.0,
                      "translation1" : 30.0,
                      "sourceCrop0" : 0.0,
                      "sourceCrop1" : 0.0,
                      "sourceCrop2" : 0.0,
                      "sourceCrop3" : 0.0,
                      "geometryCrop0" : 0.0,
                      "geometryCrop1" : 0.0,
                      "geometryCrop2" : 0.0,
                      "geometryCrop3" : 0.0
                    },
                    "effects" : [

                    ],
                    "start" : 3820,
                    "duration" : 101,
                    "mediaStart" : 0,
                    "mediaDuration" : 1,
                    "scalar" : 1,
                    "metadata" : {
                      "clipSpeedAttribute" : false,
                      "default-scale" : "1",
                      "effectApplied" : "none",
                      "lockAspectRatio" : true
                    },
                    "animationTracks" : {

                    }
                  },
                  {
                    "id" : 129,
                    "_type" : "IMFile",
                    "src" : 49,
                    "trackNumber" : 0,
                    "trimStartSum" : 0,
                    "attributes" : {
                      "ident" : "Pasted Image"
                    },
                    "parameters" : {
                      "translation0" : 249.925688759825,
                      "translation1" : -153.480449323649,
                      "scale0" : 0.151117780761855,
                      "scale1" : 0.151117780761855,
                      "sourceCrop0" : 0.0,
                      "sourceCrop1" : 0.0,
                      "sourceCrop2" : 0.0,
                      "sourceCrop3" : 0.0,
                      "geometryCrop0" : 0.0,
                      "geometryCrop1" : 0.0,
                      "geometryCrop2" : 0.0,
                      "geometryCrop3" : 0.0
                    },
                    "effects" : [

                    ],
                    "start" : 6442,
                    "duration" : 115,
                    "mediaStart" : 0,
                    "mediaDuration" : 1,
                    "scalar" : 1,
                    "metadata" : {
                      "clipSpeedAttribute" : false,
                      "default-scale" : "0.601002",
                      "effectApplied" : "none",
                      "lockAspectRatio" : true
                    },
                    "animationTracks" : {

                    }
                  }
                ],
                "transitions" : [
                  {
                    "name" : "Fade",
                    "duration" : 30,
                    "rightMedia" : 127,
                    "attributes" : {
                      "bypass" : false,
                      "reverse" : false,
                      "trivial" : false,
                      "useAudioPreRoll" : true,
                      "useVisualPreRoll" : true
                    }

                  },
                  {
                    "name" : "Fade",
                    "duration" : 30,
                    "leftMedia" : 127,
                    "attributes" : {
                      "bypass" : false,
                      "reverse" : false,
                      "trivial" : false,
                      "useAudioPreRoll" : true,
                      "useVisualPreRoll" : true
                    }

                  },
                  {
                    "name" : "Fade",
                    "duration" : 30,
                    "rightMedia" : 128,
                    "attributes" : {
                      "bypass" : false,
                      "reverse" : false,
                      "trivial" : false,
                      "useAudioPreRoll" : true,
                      "useVisualPreRoll" : true
                    }

                  },
                  {
                    "name" : "Fade",
                    "duration" : 30,
                    "leftMedia" : 128,
                    "attributes" : {
                      "bypass" : false,
                      "reverse" : false,
                      "trivial" : false,
                      "useAudioPreRoll" : true,
                      "useVisualPreRoll" : true
                    }

                  },
                  {
                    "name" : "Fade",
                    "duration" : 30,
                    "rightMedia" : 129,
                    "attributes" : {
                      "bypass" : false,
                      "reverse" : false,
                      "trivial" : false,
                      "useAudioPreRoll" : true,
                      "useVisualPreRoll" : true
                    }

                  },
                  {
                    "name" : "Fade",
                    "duration" : 30,
                    "leftMedia" : 129,
                    "attributes" : {
                      "bypass" : false,
                      "reverse" : false,
                      "trivial" : false,
                      "useAudioPreRoll" : true,
                      "useVisualPreRoll" : true
                    }

                  }
                ]
              },
              {
                "trackIndex" : 8,
                "medias" : [
                ]
              },
              {
                "trackIndex" : 9,
                "medias" : [
                ]
              }            ]
          }
        }
      ]
    },
    "trackAttributes" : [
      {
        "ident" : "",
        "audioMuted" : false,
        "videoHidden" : false,
        "magnetic" : false,
        "matte" : 0,
        "solo" : false,
        "metadata" : {
          "IsLocked" : "False",
          "trackHeight" : "54"
        }
      },
      {
        "ident" : "",
        "audioMuted" : false,
        "videoHidden" : false,
        "magnetic" : false,
        "matte" : 0,
        "solo" : false,
        "metadata" : {
          "IsLocked" : "False",
          "trackHeight" : "54"
        }
      },
      {
        "ident" : "",
        "audioMuted" : false,
        "videoHidden" : false,
        "magnetic" : false,
        "matte" : 0,
        "solo" : false,
        "metadata" : {
          "IsLocked" : "False",
          "trackHeight" : "54"
        }
      },
      {
        "ident" : "",
        "audioMuted" : false,
        "videoHidden" : false,
        "magnetic" : false,
        "matte" : 0,
        "solo" : false,
        "metadata" : {
          "IsLocked" : "False",
          "trackHeight" : "54"
        }
      },
      {
        "ident" : "",
        "audioMuted" : false,
        "videoHidden" : false,
        "magnetic" : false,
        "matte" : 0,
        "solo" : false,
        "metadata" : {
          "IsLocked" : "False",
          "trackHeight" : "54"
        }
      },
      {
        "ident" : "",
        "audioMuted" : false,
        "videoHidden" : false,
        "magnetic" : false,
        "matte" : 0,
        "solo" : false,
        "metadata" : {
          "IsLocked" : "False",
          "trackHeight" : "54"
        }
      },
      {
        "ident" : "",
        "audioMuted" : false,
        "videoHidden" : false,
        "magnetic" : false,
        "matte" : 0,
        "solo" : false,
        "metadata" : {
          "IsLocked" : "False",
          "trackHeight" : "54"
        }
      },
      {
        "ident" : "",
        "audioMuted" : false,
        "videoHidden" : false,
        "magnetic" : false,
        "matte" : 0,
        "solo" : false,
        "metadata" : {
          "IsLocked" : "False",
          "trackHeight" : "54"
        }
      },
      {
        "ident" : "",
        "audioMuted" : false,
        "videoHidden" : false,
        "magnetic" : false,
        "matte" : 0,
        "solo" : false,
        "metadata" : {
          "IsLocked" : "False",
          "trackHeight" : "54"
        }
      },
      {
        "ident" : "",
        "audioMuted" : false,
        "videoHidden" : false,
        "magnetic" : false,
        "matte" : 0,
        "solo" : false,
        "metadata" : {
          "IsLocked" : "False",
          "trackHeight" : "54"
        }
      }
    ],
    "captionAttributes" : {
      "enabled" : true,
      "fontName" : "Arial",
      "fontSize" : 32,
      "backgroundColor" : [ 0, 0, 0, 204],
      "foregroundColor" : [ 255, 255, 255, 255],
      "lang" : "en",
      "alignment" : 0,
      "defaultFontSize" : true,
      "opacity" : 0.5,
      "backgroundEnabled" : true,
      "backgroundOnlyAroundText" : true
    },
    "gain" : 1.0,
    "legacyAttenuateAudioMix" : false,
    "backgroundColor" : [ 0, 0, 0, 255]
  },
  "metadata" : {
    "ProjectThumbnail" : "iVBORw0KGgoAAAANSUhEUgAAAeAAAAEOCAYAAABRmsRnAAAAAXNSR0IArs4c6QAAAERlWElmTU0AKgAAAAgAAYdpAAQAAAABAAAAGgAAAAAAA6ABAAMAAAABAAEAAKACAAQAAAABAAAB4KADAAQAAAABAAABDgAAAAARszjOAABAAElEQVR4AeydB6BdRbX+16m33xQSEkJIQg8tNEGq9CodUZGHgIIUARV4KohKEQF5iGB5/G0PFZWmiDQFlN577yUJhBRIu/X0//db+8zNyfWmJxeS7EnO3efsPXXNzPpmlZmd2H77AyoWh5gCMQViCix3FEgudzWOK7wsKVBelpkvk7zjEbxMyBpnGlMgpkBMgZgCMQXmT4EYgOdPn/hpTIGYAjEFYgrEFFgmFIgBeJmQNc40pkBMgZgCMQViCsyfAjEAz58+8dOYAjEFYgrEFIgpsEwoEAPwMiFrnGlMgZgCMQViCsQUmD8FYgCeP33ipzEFYgrEFIgpEFNgmVAgBuBlQtY405gCMQViCsQUiCkwfwrEADx/+sRPYwrEFIgpEFMgpsAyoUAMwMuErHGmMQViCsQUiCkQU2D+FIgBeP70iZ/GFIgpEFMgpkBMgWVCgRiAlwlZ40xjCsQUiCkQUyCmwPwpEAPw/OkTP40pEFMgpkBMgZgCy4QCMQAvE7LGmcYUiCkQUyCmQEyB+VMgBuD50yd+GlMgpkBMgZgCMQWWCQXSyyTXONOYAjEFYgosTxRIJJZObSvx212XDiFXjlxiAF45+jluZUyBmALzogCYWS7N6+mi3QfIwycG40Wj3UoYOwbglbDT4ybHFIgpUEMBhN9MtubGYn4FcPmU9WL4YjEC4lQqureYWa7syYJiYkVdy8QAvLKP8Lj9MQViCliivX0JgVIonkxYBcDNZMzq6yMgLhQiIE7K3WZFRRGNn0QVKStLsY3kVS5HKn3yD2WsSMM1BuAVqTfjtsQUiCmw8BQANJBWs1nLb7qRGeC5uEFAkejqsuT0GZb8YLolZs0SICet0tykMgQiBUnE6f6RhgGu/gQryiuVyq55T7LQWMxQW2++k1fK+6Tia5eitAr92a7FbMYiJYsBeJHIFUeOKRBTYLmnAMArZl5paLDktA+t84SjrP2rR1oyn7eKwNi5fVWiW9S2JtuLlnp7omWeeMqy9z9s6edeErALlFSWKX8HeYHLsgwBBAGx/giUl82mRbaKyKqFxmIGwLasBRH58J28Oju7PDfKaGxs8HsrEggntt/+gP7ppcXslDhZTIGYAjEF+qbA4ktbDrLptCXE4Isbj7Xug/aLpFQkrsUBLkm35ZZmK60+wkqjV7NyXcKSXUWr+9dD1vh/V1vqrfFWGdC6zEAYUAK80mpTqVTS95JALALFvmm3dO5SLkCZy+VdOq2vr1sMKbWiemeUR65H6u3uzllra7ONGbOGNPppmzLlA5sw4T0HYdrXNwhLm7GchRiAl7MOi6sbUyCmQKDAfAB4XhJsLbgSR59Ed/eSgS/VUVaVZMoqktLKq69m+W23ttz+e1lx9FBLTZllzZf+wrJ33m3lAQMssRQlYZqA+hfgmy7190UXfceGDBlsJ510lsCq3gpSffcNVoGGi3cNKmKAvrW1xY4//kh766137LrrbpE0nPVFwPzKDemLxZINHTrIfvWrS+w3v7nWbrjhFmtqarTm5kbbaadtpTTIW3t7h9rSaO+997499dQL1tLSNI92LX8AHKugF2/8RY4VpK2d0PPLi5niuoZY4TA/MsXPVmIKMEcICzunoth9/xUoWaUPhuw2xWoZkqQIrnZGRbyk5QLmyjP92puWfulVq7/5dus68vPWddi+NvuCM625scnq/3aLlQcOFAjnFlsd/Z/AFkm/GXlyjxo1wtZdd00bMKBF6tvuHvAlDaBHqE1fey9890jz+BPSIoXW1WXtww/bbL/99rCDDtpLADzBbrnlX5JkC3OV0btM8iA9auVSKW+DBw+yYcOG2oYbruulsqDYcstx9vLLr9sqqwxywH355Tds7Ni1bNKkKfbBBzO87HlLwvOo/Mfw9ooDwGHyBiLPazItbLyQT19X8q5OXhwtNNr6ijXnHvFx9iDeguKGVCFeaAe/w/cQZ3m59m4L9V6e2xPoHtoVftdel9e+qm1Df36HXosypxZUN6ktK8zNXiGBjZKyeIa9l8BvPvPrzyjmPP5W0+NopYAUjEd0oq3Dmi65wpLvTrKOU4+19m+fbKn337fM409bRVLjotqEAS7UzACUSvGyVGk1BXClORlX23744UxDhZuS7RmQAlhJC+BF6aOFR7hHRsQLeVUz7vNS62yFdI1d9tFHn5bkeqs98shTklY7Ze6uk1o6UhNTBnUN9SDT0I6MvMWpD6pmwjTZ4/P5gg0fPtSv778/1bbaalNXqz/++LPG76FDhzgII92vCE5ZKwYAA25hAoVrH5PPe5kJGCYaYxgHiUUNWkVX6uo8lU9oyieEfPlOPUKgLrLNaBRGQBzuz+tKWuKSHx9+8yGfUEa4kkdtWfPK86O4H+oeaB7qXNse2vRxrf/8aIZnKxIW/KV3oJ2hrb2fxb/7psC85lTfsed/V7THtpsoyOmpth/0vcL2IKRgjUnfeuQ50V/zz3KBT1E/NyhvPJ0Ffp6heEtZ6uDGq6+VE1a9tX/tKAHxcdZ6ypmWkL3T5/NCjP0AWIAYoJXNptSsqMIVjUGAsKC2NkiKHzRokIBqsgMYamkCkirASTzsqfwmcC8C3gi8qUr47RF6/eE56SkagAXYcZbCPnvRRT/3OlFmBNLqA8UL+VFvFgSB0AAt6cln4MABXtLMmbN8EQGIkw9q6PfemywJuMUXD0OGrGKvvPKGAzLbkwINelVzufq5/AOwOrGizk0wqQBCGDrgFZh+bXcwgpiAtYF43F/YwKjCWWDGTB9LFdkmNCqjsmuBuDpBqqNVq+G2CLSDl+W8yqMutAGAD4DNbz61deVZCDz7uAXaX6UH3qYJvtfQh/2SvnihTWJe6oSPWwvmXx8xIl+8ebV71R1wru2f+ecUP53XnFqUeQkViQ8f0PwsbLKBFTcfF9l2yV9zJCEGX3fvA2ZSzZal2szvsO3iLcB79Viiq9tSsk+mX39TZcy0cmtrz3hnIVAWcDT88TqvU25X2Yb33d0a/nC96iBVtNL64nwebY2mEVt8kmJdWUm23dbW1l4FtkiqbW1tUvMyDlpNTQ2SJKeLVRR1r95BbtasNge2Bi0C8CqePVve3iqvTjwmgDF2VhgacSJw69VI/UTS7ujo1LeKgz3SK1J1RN6kS76ALwFwDAsGfnd2dvqigHJJwwf1MnkGCRjVMiANKKN+/tSntrEnnnjWqP8+++xir732ltuBqeOKIP1Cl+UbgBm0DAB1rq8omXwwPg0sX+nC8BkdIeh7YsaMaKJyX8krMviTh4cQt/dk8LhMbpWlCVNca03L77OnA2Ldrf+w5KT35wA7eVGuA4u+ayN+ZZXBVlxzTY+XnDQpmnC960YFKJc2KG1i1uyoDUjOckTAUQQgc7AnHkAe6ktZIX30bc6z8Lv383A/5BF+h2tfNAjPuPZ+XvuM77SPtihe8oMPvN5Ba0D7ktozKW8LtVELDVR3oR7hSh61ZYT7tfeIQwjPol9zp6t9TtoQt/f3kDZca+OFe+HKM8YczjRijJ5nbXz1mbcrlBHqXBuHvHxo1oxP7oW4fCfUpgnfoydz4tbe750+xK2Nw73aeLXP+rpfe4+0C4pPnBDmlTbc1xiJ5tSYueeUAM2Q1GrnSUgT8u595Tn8QCDQedwR1r3t5pZk/rFAhi+orIEnf2B1t99lXUccYm2nHD3nOWlr29U77wX8Tmi4p1+dYA3X3Wj1t/wzmrvwAvLlo0VZw59uMAfgvXeTffifGj86pKM6R/rKnuoAhkiZgBkS4qhRq9u4cRvY6qsPV7YVe/PN8fbssy/Z5MlT/R75zJgxS1MMFXCkct5++61s4sT33EaLnXWLLca5XfWxx55xiZI0m222kcoo20svvebATHlBwqQc6oCX8qabbuj3n3vuZVc/d2ker7rqEFtrrdFykHqerDwAzqjEAXY8szfeeAPZeNdxaXf27HavM05beE8PHbqKpwHcqUNLS53XlZvrrbe2l4cK+pVX3hT7i9TWoW6ecDn+s/wCMINaHcsKs7DpOMvvubuvfFEBZe+62zLPvxBNAiYeIzkazdb9+cOstOYYnxDJWTOt/rq/KF1VVRWAjIkTJqNPHgBVKhdtqqe8oiZA11EHOf9Mvfmm1b3xlhw5JIXPnK0JpbQarD37CVXHjjO+boVtt7DUGxOs5VtnW+LD6f8JwpSjdCwk8JTsPuLzVlp7TZXZbImODku99rrV/fOuKC3xZrf1MCdn9tQ31BumRbtrQ3hee4/voc18D23mO3mFQN1q8yOe6jAXEw9x9cgPHvC2aNGgxVD3Zw/VVo+NrDJooNqtuss2lhw/3ur+caelJkyMDisQfb1MyqG83vUN90MbQ3kLUzfyZrVFnUM+oa2kn1+eSOe0iUDcMOY221RjbjcfO1JsRs9ESzQi6aeesbp/3xuBMCCtNB4CDakHQczmP2gYnkUx5vRPbd15VtsHtX3Yuy0hn9Du8Jt4fAL9uC4szQM9a8sibe8yautIuaGsUI5og72U8V0UY59rTr35dmRL1XyIzETKn/LmF8hXYx/tSuMvr7bsY8/OWdwpLRJw5sVXrSyGX3fXfaqvMltQnvMrr/qsIqmzuPHGVth8XWv7/testN661vTjn0ULZqcLe47r3TEr++Qrlt9yrBU1tzPPvaixLwGgDyAGYACxAHwt2uJ0xhkn2AEH7OH3QrUAxy4JBRdccIW98867fvvDDyVkeKi49/BPf3q+XXvt3yVVvmHnnHOapnzRQfH44//Ljj76G/bqq2/aZZeda2+/PcG+9KXTRRKkUCRoHSRCn/kEqAhQs1I1n+US+GGHneDq6OnTu+3znz/QjjjiYH1OsTfeeNvj0WzAF2eqb3zjODlQreN50S7y5IqUe9pp5zmQU10WGAAsZWNbnjAhWjSEemD3DSdjefNWgD/LJwCrc53JS33BhOv+wiGW33UbS3bkrdyUtcKOW1vrl07xie2TXp3KyTS5PXe3jm+foJVnldmnE5bWhvnM08/KKUJ79MQocdxIcHycDzyVo8nsKm4NCl91aeCQPqmT65BMAWYYV3mVIdZ9wnFWHrm6Zf9xh9Xdc3+kchaTLa29mr6rqtqSAMNJThOTUBoPXAFMGIHyKw1b1douvdDK66zm9ysAOoxqr20FYIOs8dLLtZ9woHUfsqcVdt7RUq+/YfV/vNa9Lx1MQ16aLJSRUDv8ymHztZIm7aNsVPK6aEp43KhS+qv2Og3IT6AJkJJXdS5GbSdyaEdIiPpVNENiL40eZe3fP8tK649W+1SPVLXNyjJR3MZynz3Ymi7+ibZn/MsqsvM4PSX1sJ0Db1KvQ8iX9qCBgN48o1yuC1M3OYWoVpHEgXZE4wYpydtNWbSVT2gLjEfxSJQoVseCl6c01f7I77Or90Gyq2DlBklY1fzLWojVrTbEF0uVgdGY8rYQQdJ+RfTpGV+0ifHmfUSEah2jr14f13rouUvb1fjU2+vP+GPciLnTf/4fZk6fhbaQF/1Gu3WvZzyENpM+0BaacD+EcD/QPNynHdCQ8URZ5N+7jEDjUEfSMpc03nocodDo1OujeZfIieFX51SiQP9WC6Nt9BHj14E/VKKPK22mPuqDzIuvaF7Pkcg8tp4HLVJyyjRrvOpPc8rpI7uFuuUDS/mKVoXttraOk4+zzsP3teTkydbwu2usPHig+FKn+JLUxFIdZ554xnIAsAAp85T4jqRUn1e9CqsF39W1renHP/6esSf2nnsetptu+qfbRgEmvJ6POuowAfC37N57H/FcZrM4V8DOOmLEMHVN2XbZZTs7+OC97c4777Prr79VyqcGQzLGYWvQoAEuEc+UABGBoyf3P/yOALmkeAP1abXx4wF6zWe1nQUCTlMEpFniYydGCj/ssP3srLNOkcq7zX796z/bgw8+7uDdLEFmiy02sRNOOFLbjy52b23yQz1OFxKQwOtrzIXcL2hchOdRrOX/7/IJwAx6ZqgzezGQsmwKs2Un6dYpNLMlQcpTrrDN1lZ30y2R1AWj1qb0/J67SvWplLNld1FwKRUGRK+K8bBCTohxuF1XA8uDGEiSY+XEnCqy5XhQmooWromkVGTaQM4KHq/H/L67aouBAHbSRKv/8w1WGTnCJdqmC39mhS03t/Qrr1lSqjUvN4AIGTKSYUJaMXYdd7SV11rNElOlunnxZcs89KhVpOLpPuTAiHkoakL7/Yqf3MJyO4yz9KhVreH//hCprDn2jnqLMeJgkoA+qqszPIBNTMBBK5o5ui+6KC9n3NwLo1tXZ1T81uIFYEyKNtAwMHc/VCAw34gq0V/SiFmWBahtF3xPi47VRR8x16lTLfPAIw5o+a23UhvHeHkdZ2vFPfFd2c/e8DJRvXt9Va7XoZp3Yrbuw/BpB4y7ymjRXsy3bmpXQhKBaiWQlzZBNjpvN+1ScEcdTfQekwXjQWPB+9z7WR3tYwH6kIk+6mvTWEuq2xOzuiz7xEu+wOMZJo3MI49F/SmGi6aiIicTb9MMMRiBCfXwfpFfgNcFsKI9ZM9C0L8oM42RpOgB6LNAwY/AaYDzF+BIXC0WGQ/e12orGhPDPl3Nz/NibDG2AbGw4FA9g/qfOvqigDy1QPTxqIROc9GiUqdFmuyP3nbuy/+BRYX3g8DOFwGMM5l3vB6il7eX/Ggr/QbN6CvGm8rwRS1+FPhQaEtORXWsqOhEWuUQFzrrk+BYRy2yGIfeR4zTBQXooDHi432uuBoLLDDIQ/WuHV9zRVvUH9Ba7a+7424/jnL2/5xvXYcfrEM47nONVUXzxvtX7UqNn+C5l1dfXY1Tv8+zLM1B1RM77bnnnm6A73nn/cS9jQE4gI/w+utv2113PWAXXvht22uvnf3ezJltqk50QAbgiioaNfG1195s55zzYwdb9tfed9+jepawddYZ4+lmaawF1XMtmYnDggDvZtTJAHWk4qbZSd93jIMXQAtoYqPeZpstHXzfeOMd++Y3L/B64lhFvQiolB966Am74orzbKT4JB7Q3d3RYR5zQF99VQ3UJ6QN91aE6/IJwE55Zqe+MB81QCqtYgCzZe9BQhFPyO+4ndXdertWzwJngVFx7bWk5tpUTEASgtRaldYBYuYaxEoLwy1LuizuurMzr8yjj0eqXmVdXm24FbbaUiDSqWPlnrf0tGkqUmkkfDAokEzKa4y0wo7bOzNOZDTxhwyz/CEHmEk1lHn8CTHOdp2E805kf6Y8Qrh6JlEdUHGX1l7b80bCaTrvQktKXQ2jyN5+h09ymG5x040FcAMiiaGYsvxuOzujT0vtDoMrD1P543aw8ggkb0muqmNaq+30Cy864wZQOLe2rBVtQWlZpSdoC8xRjJWqpZ55XosaMX/ZOsvDh1nhoP1FM0mpCqm3x1vm3vsjYIIRVBkQdKSuyWkfWPfxnxHICnxndVtyyhRrOf07ltQWDM0iq7v6Guv40XlW3GADZ7y5zxxg6XMv9uP6CltuIYl5HUu9M8FVuQ5+olFe9C3rlKHUq69rYaLj/ZCkBEicPNRn3cQofFwIBPIH7OwglpEDTn4fHY6w8YaWefhRb0t5zChLIS0pT5fOkNylhSjst68WT+o/xoL6jwWSVQRgBPrMAUHfS81WrwUQ/eyLEjxgeSYmWdxoQyttNNYy9z3oeef33ctpUKf9oYTC1p+wkvwJyqKrSG5JqeOziksfeN0FuqQxjb3s3ff5orK46SZePmruzMOPqe/kTHTAp600ag3ve9Kz2OlZUFBXtSn/qe2ttK7GFv2lcZl94CEHA4C9sOVmVlpjDfXrOxHNRTP6NL/Tjhr/q/m4wQTiizH1X37v3VXuYEtLc5R6Z7zXFXDN77Gbaz3QSrAwSGsMZZ7UlhtOgMK0ssbqMsV80lIvveL+EPnDP+sLFl9AuuQuIuS10IU4WmRUBPp5nVDlav1XX/O+Z+ER6EO0eQYWoSxUeocqcLn6vxAtxHtHWeTfTBjRubzaMI2XJyz7r3ut68BdrTBuQ9mb/615w3nQEUgnZnd4X3NqVsQDmHj0fhQAO8ANsJqhBcoRslVvssnY6iEVtwpIVxFpxcOUS7CzooL+yU9+4/FGjBiufbLTHSh5zgEWBDyVr7rqOjk+DRSoi675rIPlLAkXHGxBwAlqTvBe8EUAdcI2i+RK4MAPQDJIu4A8oBwBKCwmayeeeKTHPeecS11iRkoOJ12R18iRA1wF/Ytf/E6LgtNdXR2eky8hAC4/a0jkz1aUP8sxAKsL1DGuCoPx6yf2RFbh+b12tJKYbGnN0WJ4UzRh5YIvibg8RCu4lyVtPfOs5ff/tBiRUFSb192uq8PYO77/deVn1nzOT6zu77c50y7IU7Lj9GMlXZes+Ts/dKkUCSMhHolaGam1++B9tb3gaEtPlWOO5lJhuy0sv/vWlpRNZsChX7bOU79sua3GWWbCJGs95uuunvUB1HtUqR1IIp63JkXuc5+x+t//Sav2goMazmbFDTewtsvPVR5aBhTEpFYbap1nnWRlMf3WY89QG4dY+6UXSSWuhYC2KxBcpWdHWuPPr7L6P13roFdcdx1r/8E5Vh41xMpglfgDIGzdUqk2Zazpsl9b4y9+a92H7m9dXztF+TYLVPRckzpR0tmv9+xmjT+8OFLr0g5miZgzEgZSYOGTn1AdFV92m4af/8qS770nSX5Vj5dUHzX84jfW9ovLFF9bEcYKiAUkgH3X8UdZ4RMbSlswXu35muKrjQ2N1nXqV6yw9giru/sxaz7rPF9AsMjqPOtbWkhIgs2oDqFud+9qjT+61CXjklbXHbJ7JQQQqT13FyCuJxt7Vu0eIU2JnOPWHy3bvPrluFOdMQJOuUMPlD3yYLWtYi3aMpJ5/EmBiBZsWshEkSI6GAt0tdc7PSkiSrp0pyxJePgDdB3zBctvv5llt/+kyhqm8ThEdZIa8vGnrOvLR2uMyKyQ1EBCKtUYhX75h/a2pvMv8kVLYbNx1n72yQLWNit8agcB4tYCI429ouIe/XlruPL38kfYyPK7aIGIlKlFQrfU+i2nnekA52Clfmk/77tW3HlbjZEqCBQq1n3k4dqjKvX/Xf+2zq9+SXQYo/kzzVpOOM1SU6dYcZ11RLdvilb1AtFXrOVr33aaFz6xpbWf+y2NfXnM/uo6a7r0Ci00NrDOU060wvZbaAHMOJBkRx0L8tz981+s4fd/9DmW320n6zjxCMu8/LbmpByLxq6hsZiIFjlaJLhLqPoQoE9oIeO+E59Sm4W5Db/8szU+/ZyVBSgurautEVKrD/oKLMSNT69QZe7eZ+SxNALjn3HP3NW/zLMvOgCzKIoqyfxQuwjhGv36j7+R9Bd5EAOehxyyt3s+X3fd33W4RrPbe5FSk4wZlYu0yclROGHhVHXQQXtLrTxDJJTGT4satvIQUP8CwoAt23yoMumRXDnJijB9ujQSNYE4BOIB5hzuQSAez7DHArbcJ29OxWJxsPnmG7uj2I03/sNeeOE1B308malTUeOCNlJv7NrsISYN6uuOji5fHAQP59BVXugK+qePEboct1SjIvPoY5rsUoEO1sp++21demEbQPGTW3nDUOsiXVVYzKFGq6pEAOnETKlA8LJ3plqlg1aj3EvOFINApcvI06XC4ASENahSb0paGz9d6ZSfbicmawX67FuaiK+LsWqyyO0/TR5yWPBAHmK2DlrRSI6Yjpg/UnaZxfHsdjHww63tiv+x3O67RPGRXKXuzjz8vOoq/SeldWrD/TNvycFjgqUmTZV0t64VV2tWPm9a/bW3iwHeJnuU1LddZXl+fsYlRuyzXSd9WdLXEEk9k635ov/VSv1+5a1tBVLPZ55/R5+XXarqOvUE0bJZ0tJkMexfW90tUqtJzZ/bY2vZ3j/rCxAc0FwqQbqAEUlKLw8brgUMtPjA0m+86fcAWD5INKn3JgkkJjv9kZCQCNxWKtVuApzrkCQJjSEoQb+T3JL9HQZcEph3nvZVgW/Df9Ztz0/21M1NBNOl+m0rWHHrjbXAkBpU5ookB+Y/8ozooiJWGWrFrQRikjgwX+AwxuIh/aJONHrtDa9vNCZUoVAf6uYfMafhq0ryG2mAfWnUSLVJDRczYoGUkvCM5FkeIVq/N1sLqXYtcBotv8Nm0m50WN1tD1rDr2+w1AvvSN3arcXbJpbba1dpDqR9AIjatNBSXXL7bKf4s9WvitemvNtz1nXiFx180y+OV94zBdodVhojSePg/RyQ0XJ0H3awFqTb+jipu+0B9eGvNP6naPw3WMc3T5GKuFXj6WnRW01rbNECZQPRYZZfK5l6HRyh+o4c5e1isekSeEnbX1RW+nk5EamtHd84yQo7baF65WXjfMXqb7hTz9tE27x1H3Oo5fbeU8+kik9l3ARUGTREC+RRMj184O3DCcl9IphP9WnRSOpIja3CLlurXnnL/vsJa/jtH6XK1/Yed8oSfRfEnXne18cHU/VPX8+X4F4C0Fd6t9erCDc1hfKcb0hqrNo1WUxHbZgzpqIokccxKmLst2uvPUbg+YRNnfqhlBdS0yt/QC8lfwo+OC0xELnP9hwC4IaKGtAcLO0W4fnnX9EU5XzopNZpKX+OOpkQ9uGiggZsIUF1cPv3iEWV3QbME+zGqJ4BXMoESIP6mjIBYMJ99z3i5SHRR2pz3m5EvalDdGY1V9qABA0QI/XSlpUlLKUl4EdILuaZBgO8EPsVai+2BZXWHulqy/rf/UkrdDk9rL+ux8E+h20IAE16R3tKjTdNHqlmTFKtg2NoEkCpexWeeVQGhz66nZAmCJtb/V9vcsm748LzpBoV33zsCWuUdFGRmo4RDEBhM+7xVtZEcHsq6jTqAHBp8OEpWS/1bHHs+gKEscpTQKNtAx1bfMtykkKafnCxwHSKNX/jW5Jev2+FPbeRd/RUazr3AjGydktqUmeeetFav3mhZe+4y+1xiQ8+lOPZ6dZ1whcllUjyE8Cg1i6NGKnfatpNt1jj//5anuSbSJqSant1OXr99vdK/y9rP+csMb1BzgQbL/6xvJbvko17gLX97MdiuJtbcYtNXS3t0hezVAFJDoBB+qJpSS0YfK8jD2lnCEiTSD0kg8ZSXWtGO+iYyAL4eCBf4vAbcikebc0dt5eVVx2qxUDeGi++bO667Tinbg6cSlNReYkuMalf/p8WRlrAACbrrmX2uQNVdkbS5Q5W97ebrSQVqUsu6vOUFmt4rLvt3+satdEr5PZ11UsLjs7TJakjwaoMQKLxp1cKVK9yTYBLdVKVZGRva/zZlT72WHw0/eAKecE+7+p8FkSFcZtY269+bhUtMsojR0Y0gS5ZMSTRE82NS8bqf+hfHr2G2iBwkoq86YJLrLjJhtZ+wTm+oCitOUYVU5WkSme7HOM08+iT1vzt77ltG1V3xw/OUV2bpW3Y1CXQ7iMPVop6z6fuhhutIA2SqUtsthYYQxvdszfz9DOuvqcffCEo9XJhx22stOk49YleBCB6NZ+pMmS6yO26iyTos9Q/JS0AdhOA/l5tEv2UZ6WrTuP2fWv6/g+8X1NSL+f32l3PlW+7aCFtVX63HUUI3ZLmpOmHl0RpmXof40D1GCGYdghJgUoUqhXXmKlIXcuvlMaV8wYlUA9X4wE+Whyq35FMhw8f4vff0oscAngCTtGH5NF3fdPUSvkpUaRnO08AYM6FJkzSYhcQDF7EEcjxvt2y78clDo5TlM2z6nTWXb4DthV31orizfT8AdZVVmEPctJBGdUy39dccw2i2bvvRmXyfU5dkaZZCLBAqLj0znOkduri1BA5ooVAoAsxVsyw/AMwg5fRwupZ9k68G9PPPCd130gH3aLsicXNN5OUo2fvznKvZ2dKxNdgYYB5AC1golKvarREHwaE31cMQLMaNUoQ/uqmVpSuQqw+5zt7/HxVTxkacDAT8kJ6K4sxdnzrdKGfuDxlaBWI9NV0wUWyw860FgFs7jMHW/eB+7nklJwqG/bWY8XQvm3N//1dZ3Du7EIVyBMpHeavhUXqrbdduszvunNkA5YtqahtEYku1QFHGlbgqoNpJUoAbEqy8RbHrqdfUqAJF2GU5IUKH7VzUtIj9j3sp74fGZueJMfy4CEODgmpl9w7WHVxzYCuPQHQpX/CvXDlPrShGtwDkIkXaBVoz9U/iqMm0A848GA7Bdyg5zzrhv2LvLH5N9fJjn63VPDXuWMei4aMJMSUtk2w3au4+aYO6NiHK5KqEzMEbg8+7H3r5de2ITSOuhOQJFCB8xshxNulH2hEdMEu33TZTyOJX/1BO+vln1DQuMxLS4NtnfOBrVtExXTAuKjmgWNhpUmnF2mh5DZ8JAaBbrfUt2g16q+62sEw/dIr7mdQ3HI9V9nTbvwXWHABwNhsO791mkvzaG0SnR2iiSTeUaN9K15y8iyZLQZozkhFr/FQWndd0Y3GKdCUDdbXOBnuY4KxnJbdPPn+ZCsdfIAkW/Wl/mdv+6c7jWGXz97/gHVrK1Fx3Lq+rc4d4NAsqS7ivjJB/FLS8tP+4oKknHe4RznMndxntCiCmU/vtObv/sDzdMfIgsYI8cIY8sp9TP6oT50HqH+KG67vQyE1YULUj0wHxo9CSQsnQnLCe/qjezzz2FyjpkVDreI2Wu5xtjKBZgNMIfCdD+DMnls8lFH1YhMGbAlBAkbCRPIEoHsH7MIE0gKg1Ur5NQJk8TMVO3de0d7kcIhGANBMJqV6a/wqoEoOYU69AfQqLVRvpGcC4A8AR4+cKCHpCn1dAQC4tn/UcRrUmQcfsfyn93GHLPbTlkeN8nGeQuKY+K5Lmm6/U2/3DGd63j/Kj0HIB8ZKIFI0Mvyn/5mT0JnFXEwhxHVGwWAib13Is6qiLWyzkW74jIqyaxfzTQvtJAXjEVp/1R8sK4ksp33L3Ud+XpKvTr8RSBY3XM+9LaPDBap5MqlgTJKksO12XHCOJrq2H2Q02PUP36HkDHFTxSEdEnDmkScsJ3tRbj85i+jNLZWmOjFpSVpvvm/Z+x4Sc5aOPqOJpKxxbOv+rMBXtkOTzQ7GD8Ol/thWHXy9FVF9XL2mBQhNdnBRXu7NG2gsunAfu6/bntl+IInUT8ciH3gAcaEXV/qBNnIfmuLkA7hqflfSfdSNeNA21M3TKPmHHzp9WYRU6jTZsZU98rgDcHlwq0vBpfXWUZ4q4p13JHW+6oDlUjR1YRHmodpv/BRNGy7/eRQXyV8LguRUOepJM+KqSJEQ9atLx9ja0LTIpt9+7ndF+93UZi2e6Bdl5SYKeBZt9rHDd8XnIYHFU7ivn24LRTMAs6V+RBSZoqDvbPGp0/M27V3fTFoVLeJMfYi9PCntSkVkxDuX+uJkVd7xE1qEyAFti820eBuuA1RmSuX9gk5u2sGBo6j7eHQDovhREMo6ZIaOxl5Ov7sTpBYSlayc/9gdQH3UVxXGNgtcppT6BSm5ItshWqEK/dnTLtUbOisue2RZEGEy8sFEgUsaoO3SDtSX+aeFHiaI/HZbSXU/Q6aXt1375Qs49Q9aNBYySfWxO6+p79wzPfS3rtHXaOtP2E40bJjMF5qDABRSJtIjIezV5R6nSq2xxgh3eEJ6BpABTxykCNhXsRsjdQKAkQTMEy0Gq2px8iFw5TlxyQunLdIEsEXFjRobG3O4F/Yes1aePn2W5wNg8wYj6k1ekXqZKRLVj/vrrDPG45I+ALPfWEn+MB2W81BlVsyrPNJCk1R78gaWxy1eszivMJmx9WXl+Rpt9yBNtdl+1W9GDnnwgRmwekOqDCCsATRX4GdgGswa0rGiJUjy8WfhebhqomIDSukQipb/vsBV5l4OE5FtIjBqDc5kXvYyeaeSW9OFl1hJ3pX5/XYRQ1P6wauorkx4MVwiMPkpT3UADLuP/aIcaIZJGvpAnrP3WFb7kQHY7qOO6KkXqvrSmNFKq2zelHOUVGaJGe1W9+zLVi9VYbStSvl3yU4lvpkQXVu/EjnhuFc1ZVIeJ1zV2uSgoejFtpbkFElHyrc8VFKVtmDVX/MXt5Wqxno21bq0QCprxU7A+zY5XapeGAFt8aDG0W/0Aap6pEIeQWvKRyWs0YskO1fdqIPA2ukpL2YHMPqO/qIvFT+ima5i/tl7HrDcIZK45IzX/cUjorKI+qTsw9iExdhchV6VKPRoTlBR1Cf9huz9AiR31JJU7Vf6h36nXBhmoJkc0HL77qkyd9MCIGdZqXGzt9zueXZ97atWapV3N/WlnYQwdrgyJgHakC8DgHz9N2VRWE0a9jDL5l0Z3GB1f/2n9otrX6o843E69G1A2h2AdI7pA+/dwqc+4RqNHFJtS1aOcK8aJ73l95ZHvaTi3P77Smsk8JaWJvPCS5pQWU9PNSquKtdBNdCX8cyCClUsw1R0jGy3+kEfKg/XPomBe3+H9tJ1al/djTdLq7GLTBl1Mp0c7Xtnk7NUz5ptcN7Oxfnj46NKp8VJ31cawFVtZp9v1+GHSuKvs4ZbZQdny6EWGd5GjWMWNbx7OP0KWqrqdkTGe5VvRKrfyOMYCZY3/3D05HbbbemSIs85jpL9sIAZQMyBFe/L0fQLXzhYwzvtnswAG3EBSaRb9tdyYlUkAUdtD0OFYYbkSxgyZJCOe6RbtVBQvQBEnLa6unK+1WirrTZT2QWXsAF3yhkokwsBCTsAO6dp8XakbbbZQkdJPuc25jYdvhPKxGmsqLEJeHOwCIHTsXgexamOfX+yYv/RjFjeg3qNUcREh9tp5cd2GhiK79WFgTfLaWHiJNlHn3EG43sBBSzOzKp97QxCjACHl/xeezgTZWsRzMglPjGpCKSrCViEVtW4ERCKe8B8dHFHHA1MP+YS8sI0SRaYqgZ39u57re7m26xO24u4ZrWtB2mi/cJzJZlq60V1VVr4hLblrL2mQE3MSodZuBQHI1K7kESQItneAbiU9UovtlPhRZ2aNk2n8fzU96Sy2d+ZZD1OXPKkHitHrc3kbFPSpvmHH5Hd7vvW/MMfWeMFF7vE4+0U405p+5BvtwKwVQds25knnnQ1vm8pCsyfNhKY+ACwysg8Js/hZpi1mNJJX/GtK77XU8+7Dz1IjPVLAgJJ5aJLRrRwkNLk9rK1WHJJQnZZJCTSuyoV5i3mgIdsT93kIT133Z501WgETF4r5a3201/MbvWBq0xVd9/e8pq2NQlMkAqhny9G2kUXqXmpUw8YKulcgb5k+QrzRWvRJC9xJD0tAL2/q2V5v5OQ9IwDBfZAu7OfaFF/9Z+1OLnB7dq+0FC2LkV6AkUGvEnmYzxK7999/Om3jy0l0n9fbHg7lQeAIBUxqmZs35gYAMWstimln3paKuSX3JwgjuqLmzR28VkaUzDHLTf1tiW1MOI+DlUVnNM230RxVaU33vS927Q1iZqVeSMTR+6AT/tiMSl1Ym5/fR8pP4OcJGwt1NhTXNEix9tCm6APdQ/gwz31L+p//DTq/naL16GsQ2c6v36CFoMaK0FSpq2LG0RzxtBS+eAXIjrTFuZl1xc/rx0Re2lsztSRlDe5xOs8gTmhhWpeB3WUxEay9z8ULVCoCwuCwBfUJoANlTL7f9/X23/uuON+HTG5mh1++AHufQwwAqQkId5E8TU8n4899nCnCPZfHLgAQ5ybVhFPwUGKtyNF6uRIAiZ9APwXdToYgfOWyb9LC2/S8x2PZ8rjBC2cwviNxzLPAeBgY6YMfiMt81YkAJfTsTbeeH330EY1TRoCkj15fOc7p9oGG6zr96Izpv2r4kXXleEvLGT5DvSWBqLblpAQYHSazKihuw87QBKAJu4qOhxBWz9cNYgkBVCK1zjz0XckwpSkmESHGE1js9twZv/2SoGZmKrUsonJUqUJ2J1pQC2Yh7YBebkqG8bCyxkSeSGH8i2tu47N/s2VYjwfWsupZ0TxKI/6VQdXtKdWP1j9a7WL1Ol7Mnfe0orbyyN30hHaDjLVGRpqv/IAvQXlrkfEEF8Qw1d9359kBaqkDDu+fYaDQPN3z5e0IUkSXiZ7HadQAQ75/XbSwR5yx0Vtq7JSWlkn35Un7JCh1n34YZY7/HMuUSK9JAXc2BWz/75H+xnvc49a0nQd9yXfL8qhF6hX8zttZ9l/3mXNZ//AgQupCgbpEqtUrXV/lRSjbSel9WSr1OKh/byzxazfdaZb0qECgCgHMqRfkJR1060R8Glipl55xR28TGDQedrJ8qI9Ump1qUPlQV4pqGGSCHxftA49yO2/t5c5V92kOcjvuK3qfrds6We6ChAJtpJTv8PsCPSB+hCggzFm0BJ8anMt3HRI/5AW1UFe5a+8Fi2gGCtV4PS0/od+U15arPlCiH7FPonECaDBlH1ccl9xvN+rHa+fbI0rqyuS09TGE45VfXfQ1qd9lE4MvUPjgbx18XGGhiGpujPmQuC5bnvZ3PNHyt/roaKR/NXXKdGbhVD3wbubydbfduUVvncXVWh5zTHaGz/GBhx1vMBN0tG770kb8pY7LCa1V7XSqC17r71RVU+/pj3LW1pKqsVi8xCNwed8wYAvA6YMDlEpbrKue3u3XX6JezGjOsZcwelnDqbQA81NoBn1rg20SbRy3wmN9waNwdx+e8lUMUBOWTo1bY9dre7Of0UqcDFvX5jUkKQ2q3l+Vx3wYfD5T32WNNAnGhtsZ+s8/hjr/tx+aqPWMJf90rVcFbfrq6PUL9j4uw/8tKVkvqm79yHnJ5H6WYuQmr4NoAiYIdH+/vfXuwR84olHuSR5zTU3CwRnqNiUjR69mg65OMBPuHrmmRf9POfIlqqxrTyxxXJ4xuTJ0zQso+MnKYpngDH3kKB54QFHSO69986SZGfZddfd7ABK+o0lsZ966jFylmqSGrvDpWnAFUmcfIIEjFqa3wAwJ2X96ld/1DGTX7FLLvmO/e///l6Hbjzl0jzSL8dTfv3rX5aT2ao6e/p1fw8wKmgkdvJYmcLyDcCaQy6hZOWeDxhJZQVTwn7JCj+ls01LG4zSBBBv08rfbYxa1SG5cuqOJfUH8NaKOMXRcb+5Wlszvqp7+r/2qmLI2pd2rVRwe0gSGyTmCKdj4mrwVlqQt0U+BowAihOW6m68TemP0/16bfdptXRBoKRBXqnPCAgUtZE/1eElCbMnUGflm5LHZ/b2By2/8/ZWGaOtGmvJy1d1YXtQ9q7HrOlHlztzhoHW3XanOx+Vhw+Qqhd7r+qitjVcfb28k7eUuksT/rN7qgithB/X+bdrDNNWn0jiAOyTUjsVVx/m18R07HFabAi8Squ0WMf3ThdDnuR2vsb/+al1nvgVf57f/ZNe5URJBFU7UtrK420PKkSQrWqPTkqd3nzmOQLRU93D2uqTcshZ09Mn2yUpa3KTT3n1kdp/faarqDk4v17AXfzk1trusraYtbzAhwy37H2yN2pxk9t9G+UveooZpF5+xRov+on2WH9V9W7QntpQNzpv7rpVpNatSPKYy9YIM6ZvBFSYJronaOGC9CqMB7SQ2NhTzVYecYaoq0Lfqc+xPVfwH0lrzAHQaCWQ4vgwRhgXWrT5uKTfuUc/i8YAfnbXna2ww6ZWHDhWktEmln57qrxm37e8zhPukXiVptIqG6nGdk+e5EPZYHILjVI5uuULOW3hKTMPGlSeaFmp7sFGK8JhMqU15Wy37l6eRq3XwRbvudnDzQpivNh1C/K+Lw/Xdh9JnBx6QnvSen9tfieNqWG6L9pmpJ53CVJzBxBp/OGP5eB1usBbDo/Mt41GaxGgpaG2tDXJI5xDT9wmrrhopSJPNSodEZRvPqdEfmOuyF7M0bGNP/9NtOe4UXb+Yz5vSI6YJXpo4Q0n8QICNEILIlMKuyFKa4zQd6E9fcWzxQmS3AFYfC4KUrUWRwwSD5llzT/Wlr477/ZnQiz1kbbwCVw6v3yE4o6whuv/IXv7m+4D4QuoPuoQpGBAbvz49wRW59jZZ58qKfggP3cZdS3gDLgS9/LLf6NDLd6wK6+8UPtxp+leJJ2yjxjgRD2MvRbwA+DwaiZEIJ/ybUvnnnuZn/PMuc6f+9z+ehbRBTU3Xtinn36+wPRsv486m/3F5BUkYMpA4kayZV/xNdf83eOedNKRdv7531T50T5f0hFvivYNH3fcN+2zn92/B4C5T52QlFcWIE5sv/0BizkCF2fULsU0TBwYn5gAZw5j02SLTvq1iGkwwVDNltZZy21QqBl94mo1itqWAy2wX7J1IjBZrniB+uodxiNv6tQbWt1vvZUDXPq5F6U60krP0491ZpB+Sek1IRyItLpmO4mfOCRGwclU2AdR+bK1JCGJNg1Tg4lCdec8VZrwncUBlw3kcao2AQ7YlVITJ0aSr4DX26z0SG7uvSz7qqsCdcQdtm/UvyXZ+Qqf2FwORzqVSjTJPPmUpJ21xUBXlWR4j+UOO8g6zzhOCwxt1D/re2KQj6l9Gal6j9PhH4eqXUV5ZF+srUj3iNGLIXJKmOjl2ytQAWuxwaEnnIjlbfFa1/yhb0Q/d0ISHTiogcPng2TINjE8RjvO/IaVVxukftCKXAdUNH/ru04z37e9uU5nkhcvqvSMGC9aAF66kXrrrahc0QJbMzZNvLw5EQpQ8LqNV904oYmgdrlnM6CtsQE9HFCpI1IXaaSabbv0h9qDy15W0eSbZ0Xng+OhWcuow5hDolHdSuusLRWvTkiTBzJjyfuGPBmXiuOnXEny7Ol36kPf6xn0KWhvOn2C7T792GNKl5IkuVEkeYq+7KcuaSygmvZxJtUuA4c0JQEJ27HSL7zs/QWQUB/okdQ2J9TE3k4BMYui0kYb+XhxJyqNU04rY66E/cYO2CqvuIHGtRYO2Pd9rFKizCH0IQ6CeOmntfjxdtBW+hmthOiMrwF1E4t3JyvOWI/soLITKo57V6uvkLh93umeq5VZCMle7HNS89nV4xrH3iapzjnZjfqyXYl7c0IEJHN+z++b0skxbMbVPxdYamEV+ml+SRbyWeoDqfbvflD77v9q6bfedq9v96PQ+IFeha02t9k/vkD93GUDjtfidsJ7vgD1xT/joY8QVLxIhXg14yi1rV7o8gltG1t11VX8HtIjx0m+9dYEPxN6331301nP9/uWI6RXVNSHHLKvv/HoaZ2LDSCHQy5CkQAdIEsZgwcPsJ122tY22mh9gWiT7Mkz7eGHn9ABH88KpHkloI7yFbjfcce9et4qVfJsP3JytPbA/+1v8oBnUaL86CLU1ryMgSM0d9hhKwdZ9gzzqkQO3+DQEE762nXXHWyYTD8333ynhivq9wiAQ/0W7arxuJyF5ReAA6EZv5ImndlrVYjK1UMVpAx1FaoNgVG4D7NxVZRWgh5fA9CZsdJHHrxIp8pYjA/1NIyeUcV3GA4MNOxt7bnHhCa9ANoZLBOL9Eh6ev8oZfK8p35Rbeb+SxrqrZWzr/T9qY9ml5wigK4yIDF594JlQz/pVC+3G1MHwEBMzuuqZwC5H6eIlCzVL8DH8Y/JqbOk6vuDpWTn0wy3riMPl1S2jcCxYC0nneGMFocirw/MsmpL9mpxKIDaNjdDrGmOz0IxSOopoPC6a4K6pOb01sJprTWt8+QT/HCHsraJNZ9xvt4idL9LBwk8lpEqFfw8YTETd+zBhEC50FtMH+DzBdS86qZ6uHqc+Erndlbq5vUTeIhObMXiwBPMAqnX39TpV6fPAVNo2ztwT+PK6az2eZ8CurVBcXyMAeC9+72apzvdVaWRiJYiMZ7EtI920mb6UdJIzzhTGd7vqPApmzEZ8qOPBGbQxesUQIY+aNcYls3f41ab5OMljH3qT3mYEqBNbZ2Vj4938qu9T7nVe6RBa+DB71NnzUXOkZb0w1j0OdpHvb1OvecU9VE+Xh8WLMxhvLrn6o5eNK+lf+132lNtH2YLjqX1vqPtPFucAE0ESimpW3kPMOp+9y2g72ijtHA4n5XWHGWzLz5HjpEjrFmHoDT8Ue8B1mLDTTBq04LKB9AAYSTS8Lo+qst2IiRZVMiALc5anHCFlIsDVwDCdvEjnKqIw72+QigD5y4ctkJAGiUv8gRcZ81q967iN8+QvgFuVNnhOMuQljyRaKkXR1SGsiOpO6345JlyezD3wjGXIf3iXTU+l7Ow/AMwBGciOSORBFmVItXjPmmdiauDHRRD5wAEVebu98PAJB5MHXUVY5XfACfMkAAjQDUjFXaf6cmH9FWG6OmdeQhIYAA85/f8Qu88iMs9mBh5hMA9fgOq+tqTN/cDPYjLb8okrtqBhMg2k7bLLtRvPVZb/DQomqj9SlJMyhP6Oh1Y8Vt/Xy+SCwsJz5P8Qgg0DW0N98PVmbDoR/mkD/FgoNBQv32xoxUvx1YWNtpADmnyHJXE21MecRW1p+3QViDhH8qhDjCx0JfcI9TWjTwEGs65Scsz6iKaAFJJnZvbefopfvQkSRt+dY01XvH/IqcvwI+0tKF3YIyIgXiAvn3GCeNSZdb2O3GpA+0JITyvbSNxvO6KVFsGfRnAI6QjH+LyrJZGXi+Vh32Z/HqC7gHWoS7cry2P+yHved33NPrjwK4r/VwbMFW4yUd08HlTrTdxatvD73nNSfqXRUptfYjvQfcXJSgPX0jUkqEnfZ839VR08NDHc+pEEN2jBRTjXb81J5F8OQCo/TunaWyvqXcE32vN5/1IY04LenwFqgsvTz/fP0iVgC3DRZqJnj6kPnKuEx0BTkCarUd4KQf1MdlyD6kSaXhegSzDNqE028WqgfsAJ+prrth3aTKAG1WDxYFOLtOYI07vEMCWuoUQJPuQJ4sD8iLPJQ+i/3IWVgwAZlTwIcCAQljU+9FIjJgFM4lJ4lJbtWND3rX5kiYajVGpMHivi+6Tlme18UMeoY59XT0PHlAHpSf0lY58YWwhXojT132/p7phX5OTDl6xub32sIpUhhwDiXMVp2ZxslJaXqg9zJTyQ5vIg8C98Inu9P2XOKHcatKorjBU1QWwUZ1dwyDG4XuPAZGeNCRSHr4g0nfu15bL94WpG3EItWnJS2UhYXYeo61bWgTgpFf/66ssPVHSTFUC9TRR6rn/kp4PIdA9+jXn74LihLrX5kGaUM/a9OEecWvv15Yd2lmbH+mIH57xHZrq/3/Uuzbf2jz4HtL3vs/vEGrbE+pL/bxMRarNv7bepK99FtJyf77l1sx14i5MCAvW3nFry699FurZ13NoSF0JzEPiSPrlTm7PXeRgd5QV1xiq88uftJbv/1ALFY3DanRPs5B/gk007NONktGPdKFeNqMPABpJpVrYhjrpeVDpIsEuKACyteCtBnle5E+eAcT5HQLxSYfKuXegGqFecxoejb/IkzvacjWv9L3zW/Dv6jxfcMSPTYwVA4AhZxh0TILasLj3Qx7k11cefd0jTbjP91CXvu7xfF6hNn6IE/IKv8O1Nm5tnN73w28YmqQnV21KjepbpZhQWkm7WkwTCUchzbZQQnQN6Wvv1pZXe7/3977SEicwbK2C/ThRtA0hz9o0tffC99oyauNyv3ec2ue9nyk6NlgctNyDG0nRmXSvcVRbXvge8u0jT48SnvOjrzh9PedebdwQp/Ye+fV1P9zrq7zaZzwn9M6Te7Xxap/P6z5pQqiNw73a9Pyufd77We3z2mfzTfOfTJ9s5hvmBYLMgRpg8TyoR5gH83rOGGbu6IMdnPf85g7VKXZ7bud+I/U6Y71JR6X6ayddSwcILxgM+2pDLbCG54BXCAGow2+uIU1tvNrnvb+H+LX3Q9rwLPwmTl/3atPWxqm93zuP2t+18RbtewzAi0avOPZHQwEmraS/yCu8qvoRU/DfMBSAcDGZxGI1KAAxTK4/yw2VDepcyofhUp+Poh6hPvF1ISmwGADcV7/qntunMfPUPtd3t5MzLjQn3G4cnnPVfZ6Xdd4yjpa8MjO/vU4Tk+c6HtENf7pB3v03VjU9Lg5GIF8DmgvZ0DjaQlFg+QNgjGNxQxYuTwAAQABJREFUWNkoAPNg1R4YDr/FFHp+w3D6MwCAhI+KMYUFh2jiDDgw2ahW8d8ViQK1Y4zvjD058hXXXVtvT9smsk3TXuy48tavu/dBd7jDUa+w0/a+OGP/ODbfig65KK2+uhXXGiUv/MjJM6VDSxpu/Zc16CCR1KtvRCdhIXWjokYNXFv+ikTXuC2LRYEYgBeLbCtAIkCWT2AIgE4AnnCvv5rZ3+X1bldYcDiD7P0w/r1CUoCxLm0Htv6U/B86Dv20dR68p46BlS+CHJcIydk60e1VvZJSh990nrSHdXzx4DnPGbPKgxddJKfMsLpnntd++2cs+8TT/lIM/Bb8KM6eRa4yVJI4xBSopUAMwLXUWJm+9wV6fd1bqWiyMjV2JW8rY10LL2y3ZXkmN/z5b9o7PX6OzVcScFJHQbJnvawXGtTfeKv2kMtDH/OEPKkSeTlbcXKbvOgT2qPMmdruQyE7sG+bIx7bAcPibiUnd9z8vimw4jhh9d2++G5MgZgCKywFlpKpxCVZibLs3w1aIGgm8PT91Nxj640/rxJTtzyutqL5CWt49KPOxocgmDIA35V9UVslV/9cYhtw/9A5LiWmQEyBmAJLiwICST+gxQ/rqdET8xUwBUSllnYwdj0y6Kt7POcZ0i7Ay15WzBjBqS8G36XVQytsPrEKeoXt2rhhMQViCiw0BQKA1iYAZ4MKeV7PiY+EzEdHKTogx8BbS8X4+3woEAPwfIgTP4opEFNgJaEAQNuXRjuAaQDYvsgR4oRrX3HiezEF+qBADMB9ECW+FVMgpsBKRoGFAc+FibOSkS1u7pJRoK8135LlGKeOKRBTIKZATIGYAjEFFkiBGIAXSKI4QkyBmAIxBWIKxBRY+hSIAXjp0zTOMaZATIGYAjEFYgoskAIxAC+QRHGEmAIxBWIKxBSIKbD0KRAD8NKnaZxjTIGYAjEFYgrEFFggBWIAXiCJ4ggxBWIKxBSIKRBTYOlTIAbgpU/TOMeYAjEFYgrEFIgpsEAKxAC8QBLFEWIKxBSIKRBTIKbA0qdAfBDH0qfp8p0jJ/58lGFxDztYXusNrZfnun+UYyUuO6bAck6BGICX8w5catUHBDhUng8g2N+gEMqk3EV5iwzxSctZvSGPpUaUhciIA/k5lZ86U5dQn4VI6nHDQf7EJ21/hkAvyl0UmvdnHeOyYgqswBSIAXgF7tyFaloAjKIALKNXq6U0JHQvAXPux1AJZfL2GeqiF5ovVAB4AQ+9WL0nj4VKuPQiebl+WL9eaad3xXrdF0Q/ngO+vD+Wt+cIxBP9S/I59FpUmi890sU5xRRYqSkQA/DK3P2ALyDAtaHOrLPLkl1toggSHaDQX0HgU1I99Cq3SmNjVJdcfsESYVn1FPBaPm+JmTOjPBy41Z7+CqKfL1ayWas0N4l0agevpQuvpOtdD2hNW3muuiY6Oi3Bi9u5z0Ki38Ji0rzf6reEBUHP3qF2gVP72O/XPuydMP4dU2DZUCAG4GVD149/rjAowBcgAEQ+nGGl0WtYYdNNrDxixJwXkfdHSyQNJjs6LDlhomWeec6Sk6dYZcAAgZmY4vwkyUzaEjNmWGXQIMtv9QkrrTXayi2tDuT9UW3KSBQKlvzgQ0u/9LI+rziI+iJC9/9Drevgi6YhE4FuR86K661nxY03tPKqq1qlLttf1Xa6JttraD5lIWnefzVcuJKgaQBQhgs/qmOG27U4O88MPZK0PkToC7jnmTB+EFNgySgQA/CS0W/5TF0DvglJj+WGeuv6+lct/6ntrTxwoFm9pMqF4lxLsflIs13dlvxwutXdfofVX/eXiBlWFwh9McZEZ6d1H3yA5Q45UAA2NJKeeSF6f9YdLi+JN9HebumXX7WGq/7g10pri+4DwlrgAAi14KvFRmnk6tb5pS9acbNxVmlRXL3wvV/rTdctBs2XYo8vflYOuoJa6MoiUiGhewn1fTKR8u/ReJnXQKDTCNFzz0eaC67Rd2A8iuOwTHlxiCmwDCiQ2H77A8JoXAbZx1l+LCkA4wLYAN8hQ6z9vLOttM5aEWAkkpacNcusW2rR/gpicJXGBgO0ErJHVurqLfPo49Z8wY+8jhEzrakMDFF24o7TT7b83ntaQsBdkQo40dYmlW5HBCw10Zfp13Ra0nqrypdUK9VyRfVv/tFllr37PrWnWfUXCENrbMRIvpI6C5uPs/bvnSmVtZ7D25XOaU7c/go9NG+VFC+aa9GVefQx0fySOTSHM3yssIfKCBoBXdU/JX+FRFVtX9a9kmhfEp0rZT4RoDJUCH7paYu+ONeLWB95JKt5JfU9kcQPIkoHwFcwK4RFVM+DKG01VnyJKbBYFIgBeLHItoIkEnjMvvQiK0t1C+Amp061uhtvtvSrr1tC9uD+DEiBhXEbW+6g/azS1OiglnngYWv5/vkCh/rIMQsmCNDObrOOM76muJ+25HSpoAVg9TffbuknnrLkTC0eiNdfQTQsrT7CcnvvboWttjQ0CpWGBms583uWeeJpSbcCWWy81FsLheKY0dZ22UUOyhUxe9TW9bfcbsnxEz1tf1Wbcpzmm4rmB1Zp3tpqmYcesZbvQXNpQXCGCwjWnxWbR1mAakIahVQ6JVysWD7XbeViQVVMSIGQsYbmFmvWIq6pdYA1tg60bFOzNTQ2W1rP0omyTO5a6AlAy6Wi5UsJy6t93Z0dNn3aB9Y2fZrlurQ46uqyYq5LY4q2o8DQoimtD2k1zvRH9/vTVj8PYsS3VwgKrLwA3J9Muq+h4ivssMzuK8IyuAczRUKQ4xLA1fGNky0nFW5CTCf93AvWfP5FkiIlQcq2GnnmLoM69JWl+iIh5mpyvCqPWM3aLvielYcPc4Bo/On/Wv31f+2xCaPqze+8o7V//yyXJhNt7db83fMt/cprkSc0Tlj9CBpeb5i1pK/uIz5nXUcd4S1MTJ1mA049PXLIYqxVNQ5tl1xgxQ3HStIvW93Nt1njL34ZUUQSWGVhPb/7ouGi3utN8x+I5iNEc4FY48+vtPpr/mLlwYMiWzV1/yjnS7XsVCYrMucFlF1WJ43D8JGjbOioMTZs9No2aNXVrGnQKgLhgZZgsZPSx6XjpAu7SLElQFufkgC4VKxYsfo9pwVSToujbpk0OtvbrHPmNGufNtnaprxrnR9MsvzsD61cyFtSQGxp2eklYc+RiBeV8HH8mAJzKLBy2oBh0B+HVSyqrf4MgJwkNmynpbXGWEE234QkiOT7k635PEllgLOYLmAShf6SJCVdiMnieJWUNNJ87oWSEi92KSy3716WvfPfkXSIulfSTLckNpfOVMmmCy91ib08fFVLoDbHBtyPYIFEBeBXVLeG/7vaVfrdB37aKkjFu+9q9X++3hcVOJbld9vZSmPXV60TrmJvvPwXVhkyOKqvwEBfIrL3y98+aP4TjYFsneX2Ec3vqNIcEOtHevbV9AhIE9Y5e6YNGLKqbbTVtrbW5lvbiLU3tHRDs8iftIJAscgiSAubSrdU+RWNBZGzpDmGerpYTui5rhrjJUmyRd0rcZ9db5JqSxVJxkktTFvrrKFlmGVX38ha9DDXMdu6pr1rbeNfto53X7Py7GmaQ9IOOF2Yv+r/OMQUWEwKrJwA7DYirWI/ilCVzlCbaZnefzWgPDEcJNukgKqItzOexrpf/9e/uxNRefBgv6Iu7Xemq3okZs+WE9gAS70zQQBwlyTKz7skXFp/Xcs89YyDdGnMKHlrj3aVLsCcefY5q8gBC7U0iwvr5zWNM2CNJ7f/avFS95e/WX6Hba282nDZeje1ev12WgrECp/Y3LUPtLP+2hu03aohslejoqbu/Q10tTQfL5r/QzQ/UjQftqoVNxhr2UcelR1bXuVSq7sE39/10+xgniCxYpvdco8DbNOd9rYBq43AbG757i7LSWIFaYlHnJTAOIGK2pIOumWpmUv65R89Ew4by0s+JQF0Qc+Ey/KXK1oBYFb8goC3qO8lRSiZ8lpljNUPHmOJtbe2rvEvWvH1R6ySl4mGPfO+iI5BWOSMw2JQYCUCYKQLTRRNmNwqW1qqcaiYn6ahS8I866+gssQsyoWcpT940lKlDrEPgLgf6gADdV4hxrLGSFfZJqdMtdSrUt+itsNrF/AlqI79GigPJyVEEoFR5vmXLCf7HPZUbKzYUxOSXtgiZey3FSikn3/Rq1jBDgiAfVTSmgN/tLhJaUtS6o03rTxyNQcyFjmJbjmJyRaMWt0yAgltt0q9O0mOW6oz7VW7HXw/Epqr30U/zA4Z0TMnJzFs8OVRGh8PPGQVaRT6+1CW2nGH6rhRttxdv/hVW3PcVtYtO21b+2yfMThhJcN41fxBiYBUWyoISAFTjReXepVHyaXf6H6BOP5camji+Hc9UwaRWlrSchkAJ31OfnQ4d8lubHVWHrO1lQaNssQzN2ux+qFAmL6LJeHaPou/LzwFViIAFoOXd2O5JFtOy+rWsvoW8qdAZdmf9i1ATXAr+1THzElWnCYAFiKy5aH/4E4liVHhdexcDNuW7Kg9Nl8H6f6rzVxDNSwQYPryaJZIIrDV6VzaJuWV5i/e0pLiObwCSRLQ9a0iH4F09h91l+Rls+XMJjs1HerOY4ArEq6ueHcT3M7OPfb94uj0kdWdgaAPlUVynCV6siDAHo10/hECC8Cbkr21IMDd9gvH2Zpbbmuz339XKucmy8oWy+lj7g2NVkdtQJp1iRUwFdgCxABtD7gGkK0CL97SqKGJi+Tr8atpozSAMXGkuRC+lkpJfbRQKWquNA2z1MZ7W+KJG6I69OPs9QEU/1lhKLCSALAYjKRdKaB0lTqtUpRHJNsZNGv9/D+YUP+EMpM41AMkjENEAYAACbBPkug+gWeusfBf84hbfdbfF+oW6h6u1KFada9O7Xe/8RH/cXr2UQfqiS39IwzYdUuSzOvkFDZ8rfWta8ZMy8ijGf/jkoDRg+qP7OmAGSRczem5wLUHjLkfALkq9QqAuVeQQ1YAYfLmd1GIntcHCRkbMiDvZqOsTmrLtVupdTVLDB5lNvlVaY20WJGE3O9ao4gK8d/lmAIrAQCLkcjJopzVNpfMAH3VNhFNuo5ZU6qThildyzGXbW9m6lssmZEk5EDy0TK5ZdvSJczdu6Svfunr3hKW1e/JaQPjst8LXvgCP+K6sR5LSbuRzxdtyox223j4cJs1U5qFOmkUFFzirUqvwbmqx7FKD12idVCOvs9RNUfgym/i5ANw63cBaRcbcBWoHXTVTwAvHxQCFRbyqYSltUCp1C4GF56yccyYAj0UWMEBWLNYkyQhqbNYP8wya++HCc4nUYUVa895x8sQCJm4WgAkpXbOdchmJK5b16CDG7TSRuCLwzwosMLT5iNGuHmQ/eNym7lRFgqntDXrmdcn2UBtMxremrWuvPbuCpTzBWmw9LwsVGR7UVA1s7c3qJULqJmrgFpAmgVsUSu7ZBupnVFbuyoayVnPhL0eUj45ZQumDOXDeikr0GX7U2M2abmEzEh6tsIP04/LgFhB67GCA7B6jVWqbL/Mp3ptschoQpcT/O6nqaNyAHv2MLKE5hCAmPWuoLMpbtZSpQAAm9YiWbhpz7z2nm08eogNG9hgDRnNXQFmR65onfp043Ql2zWArduaZppnurIFSbeQYeUqwMlZLH/10YKY+8ThU1ABBc1LQBpABtRJxcEdDVqxN+lFJS0NaWttyFpdfaMOAMnbu7L1xyGmwJJSYIUHYJd05WzFFbWT/I81CfvR8cWBXrMcnuH2334C/iUdGXH6mAIfAwq4g6KmTFIL5w9nduilXQLD+qSkUNM1K4k1I2lYJiUBcZv2/7Z36iPbcUd30aVlJGa8mFEto2529TK2XyFvGc2U2piR01mdHOha69PWpDwB2tb6lMrSfXmHZ/WsubHesjqR7YPZXTZpSgy+H4OhsUJUYQUFYK15NbmKmRYrrbK525IsVW/5tilW6Ff8U2GswjVUWoeuLalbp/Kw9I5DTIGYAgtJAWmQtHqtaANv2k8Ki7ySOwW0RTRLWkxnZZMdLPAc0dooIOVcZ5mdqhoul4qVgw6xVFzmIsCLpBtJv9E5WVqWa1qySEeF3ZXXVkV54HN4B+dCZ/Se7Aa9JhM1d1mfSPEMI+lXZrKQ9IqjLU8UWCEBGIhj/pV1uk3dsHE6F3aoJg7ez3hR9DcAVqztw/Gu9goDI562gRLL6Fplvp77sujvkP/SztsHbdUIGcrgujTLIa+Q9zIi/9LO1ueLditIceyOT0CyMNel2dm5gl5j3a2dXjk5IuutVJJu09rhgNRaL1V1nVTI9foA0vh/uDOV5N684nXLjtwtsO2STTmHhKzzobX5SdufJPlqi1ijVM9NkoRdeyX7cEX8hEV0z/zt+bK0Wxznt7JQYIUE4DmdJ2bDXt9ip3s++1tO5jzst29M2uU2wGT6e82yJMQCYNyTplrpcI7x0gQdxCcCB38szUC+7CV2cUz1p87cC+XUtiGA8vzuhTjUUYDj+UGP2vrXxlmabVlqeYkO1Tpiy2XXID3rqmld8emoz2pfuFTR3bLfdkndPF0nZHV25q1DLxTpEDh3deWsuztvnbrPlqJ62XEb6uVMpRdONGqPeVOTrk0N1qh92k0NALfUzpJ6kbh9+DvwOg4vV1NhqXVBnNEyo8AKDsCaPng6JzmtRl7PcVg0CgSmHZg816XJsMk/gMui1azv2NRNjjMSX3SCk8BR+XNgR88xiqE94RraRW7hHt+rab2tfdVP+fszDq1YmoFDOzj2ERBm3AKUlEUbqGsATr5TL9rLvdCOcA33Qt0Vz1+XCHKRvwDGA0D/MQ5qpYL+8kWfvmqLOhmvZvbz8t27X+CZbMgInCsCVb31SN9zSLl5nWSlf/Xat5uVNzMezVmdRsYVNbNvLVIhqJpT7ozVq8RqHSAziwHor7991ouaxyGmwIIosIIDsJqvSdKjeg4MakFUWdme1/KZQCPoJsbk0hjgRICxB6Ye4nGfuITe93r/jmJF8XkG4JAn6ck3lBPiLeqVPJVfYtaHltSxmry4gXf1+isCecaRkZQX2sV3QqhLKJ/7xOU+IMs1BH1PzJzp9yqyCy5RIFtIB2qobF6SUR6yir+20N9xLDVoQm+t8rcS6TkvfCAu7+/V4cVz6iD6eQ25Jzo62Eql6nGgraTeJEdM6thGXrbh9UdLwDGOS3sRsUQEmTsxpHHS86IEQFGNDLZdYvKc4HHoFz3nHoCMZzOg25Uraf1S8E+XvJc5fKdU0MsblF+Pl7RolpAjlv4riJZeDt+j/Jy20U/VQXVRHoA9EUMdqo/jS0yBRaKAD7lFShFHXvEoUMthAhjClMKrCQFKwImjE8XEPBCPALcCPPkNcPE73CeNx9M9d6DRA89f0h2MrkOmAfJELUrckNYzWNg/yps8Savyecdt19H/pZcJrG+Zx5/ylx4U1xjp7zdOTp/uL0DgyMUKUibSJelUdqJDABVAV8AEAHp+OhfZ6xaqI8DqOvwwB7KG3/0p3NUV+6Syq7kz/68hZrXuakPHaadYftut/a1QTRf+j9e/6/gvWeNvfheBqOgFYPr7kpt0HrbqndKbrFzaF31ZECQEvLzdyuOwQFDf8aKK/M47+OsnoTUvu2i66FJ/81SPdiBUZ/6V7tendE10GEZJzcg4qLLdCJUzL15I9h4vNUMSoOZ5WvFKok1Z7S5yTZalAEhKOkbiFS0Y54rXO6vQUH/GokcRosM99PYwScupJDsr9F33Y8fKQK34uqgUiAF4USm2HMUXpDkgCB7nv1KvMi5vGpwI6UgBEEMq44UNMOrETL2taJBeLiAJwMFKcXhBgktaYmSc2cwzD0hW3KtKnf6ihyr4JnT+dFn2t9IG63neSQARMCTNogaAA/AGaHRcYeeJx1ru03v5G54KW29pdbf/0zq+fZpekPCWNV16hcqQ9+zY9RxcUxPf1W/VX+dLF9dbx0EaaTk5ZZreuLSGA1rqrbejGrEI0UsVOs483XL77SoQm+zvzOVdyr4AWax6i1ZaCPAaxeLaa1r3YfsKGH+uFzW856DKm4m6/utQf5697wErbKMXAYxZwzJPPmOZBx7Wu3ubrVOLAV9ASMLNPPSI3twz2PL77KEXVbxk2bvv83x4wQXgXH/z7d7uzlOOtOJm4/Q+4ttdQ7BYdF/U9lbj0121w21e2QB4ZUmyAO3MaVO0/7bBRo5dRy+Qqldz9YKEPF7QOEaxhooAMrrye06ulEUcQDK61vxm0aR/RCcNYFqbF7nwEod8oijQTklhgK240TonTrLpk/QSE6V08K0tkERxiCmwkBSIAXghCbW8RYPxpGE6Yg5FfQBhPn2GGoblzyUptJ/9TQdgGHrzRZdZRq+m6zj5dGv+0WUeJSlghpMCnBXeTiRmmJr0fvRSBwfjBleVJnmjEXGQ2ATi2CBLeitQ+/fOtPKI4f7ShaYLJO299HIEwnDJRZAjqUNPUDtdhauXS2TvecCaLr7MOo89ykprjtHbfdawrlmzrLyqXrUnsEUNDUDVX3ejtf3ofAdR0mb/fZ/AdbzlPnOQA276pVes8af/T8/F7NWG+htusuSH0y2/o96lLKnZVdVe555aLNoXFjNIWLLzJqe1WfchB1ij3iucefRx6/7CZy05q0uvjtwIJLDC9ttY6q3x1vbDs2zAl78uwD5YC4VRTsPi+utZo4C269gvWvbBR63zpK9YWQDdoNceVgYNVLvuFbBPEqB/TgsmNYdFFYujxdY8LFozQ2wfi6LXAheFJPBxmbDm1oH27jvvWNuUSbbFlpvZOmNWs5aWJuvq7JZ/ZZeGHqdbcZAGV+zBoqkfwgG88i8KXP/joxvRtiSl02KsqLGbSmksp0tWpwN76nDW0gItJal5okD3yadetmnTplrD8DFWgH49uVcLiS8xBRaBAvPkyYuQRxx1KVLAV+PKb0muVEfvELJu1G4CpUYxJ/LjOwzI+RqRqsHvwYiRctnOIekvt9u21vjLq2zg4V+y5MSJkiyPs9yBe1nHqSc5MLd/8zSbfcUlDhKIFuWhQ6zt3LOt46wzrPPkE/Q6vtUFUnqDzRWXWtcXj3BJDGkYtXPu03tbefRIa/3KKW6HzB20nxkqX5yDHBBCzRbyKqYpzisAz1r99Xr/rraMzLz6cpt95eWWved+Swls0k8/K7D9q6THp63hqj9aUtJyYast/b3IpTVHW8Nvfq82DLSU2tr9+c9YYuo0S7/+pgBrfwH4Gv5KQaTVzGNPwLFdcnQbMGUvTgC0SSvQQBUO6Dd/93y9marNZl1ypnUfeqA1/P5PvihpPu8iq/vHXVoEPRG9BSonsND7hpGA06++7u9wzqh9vF+4wusP0Si0tkjK3ThaJEF32Y1ze+xi7d89w+ruuN/Szz7vb5YK2ov+wBHGXQMLNTV9XmMxkDKodblm9RKG9TcZZ80tjXb/vffZn6+9ye5+4El7+93Jsu0WZRmps2a1vVnScYM0K3UyIWTU5rTGMzZbtx2L1Ei4/NZ6x++ldU2zPUn9WidnrHodwtHUqK1HTfXqkjopBir23vsf2EOPP2vX/OU2u+uOf6t6JRu7ySbWMHAVDVWZLpRff9Au0CW+rlgUYAkXh48RBUqa0ADi4gbSpsS0OuRRsl7HbOvQQQKvN7XaKsW8Mz+5oTjz8/yrBcEYkZQBv4rSwcDTE6dZ56knCLT+YnU33uLMOtmm99pK2kXaKg8baikBVMc3j7PUa69bN3ZRSQqJDklse46zpACs86Tj9EL6mwTAh8shKm2Nv/ujq6lLI1ZzlTDv803KHlkeOKAKvqrQIjO0ahqBLk5F6RdetMH7fsa6PneodXz3awKxoVJNz5Lk+I6lX3lN977tki1tZTGARI4KuOvIwy171wNKL0n8v2QDFlCgfm/8w98FerzBiiAaIanKlpyQlJ16b5JL3F7nKMIi/I3ojRTK+4JLY0a7in/AkcfazBv+aIWNNxBtxjtI0yfdag8Lg8af/0oSrFTKpNOiJbfbTqLl29Z88Y8tt+tO/iw1XjbeS35iSd45jFmARZW0DR3//XXZlZ+1xksuj+gN+EPveYTwpDpM5hFr4W+L4jZbYAkIN8l+mtcCpKgtekmNV5YxfZVD9Uq8t1uvINxki81tW4HlpInv2ITxE+35Se96mrRebpLRKVVZmQkA2JL2KgGORTlhcbBG9HIFvKU1viUZIyUn9T0p9XIlIRVzRSdnyVkrafJJ0Dq0qLlSLHRrbaL3TOtGk2g4ds2RNnLUaMvr/b8TJn1oZZkeAF/WUf+xol14ksQxV3IKxAD8MRsAdWJOspwuVq1gmEHizSUbbJcP3rOjJ75uPxuzod0xbA17V/scW5V7o8roglGp95FGnIewV1lMC9UsNsiW084UKH1Baucj/b22rqqVDbJZzjtlOToh8bq0NVNn8EpNjSSX/GC6O/9k7ntQaWTTxTFIoEi9UDc7aFCGRBB/kwxup2JwUsD2zX0XlgpwQdTbYphtF54nFbFeeiEJxiRUYxcm+9zB+7vTUf5TW8gx6zYrDRjoiwh3VlJ7qFNS7xdOtLdFHsOtrVpgvGWldddylTNqdOy9XUcdYbl99vT2t8u23HDNX6L3Eoue7FFd6ABRaupdkoq8/YLvuYNUca1R1iTVeHqibMF6013bxedZ+rU3fUFQ3HB9OZrJHi36IvEnJ0+VmnqWdQmcUakD5vkdt/OFQd3fb7PMc887KHcftK9s36tbRuA96/o/WPa2f1rTj3/m6mm3AVOfXsHHhe4BkF5XR5tekRbwsyy6ZLU4agNAZ0+3PTQmf7fGevZ+nfbiasw0CogLGnuofnV+hrpqbiJSJHZgaNvdmbOhw4dIDT3O1t9gXWuXT8IseaS3ycmss6Pdj5zkBCvU9f6q0SrQpkFVJGAdLYlCmu1G0iirPEnjpS7LqvxUWY5ZaDgkCWdbZOutHyQ1d7O1DGixJqnAG5sbrVsLsQlT2jRNtCBgvnh9l2zoLoB88eMVnAIxAH8MOriW982QhABDqr23sFUkTQDgKXUNNiNT58zvlLdftGPefd3+KLvV38aMtWkCYhhxfVdR0oLDn7iImJRegJ7Qy+SLG451UG0+5wIx7XUlnY2yFJKhDqQvjRghSewQ6z5gH9lY5dR04L4OsjDo/A7bWurV16z58l+4ZMZe1vTzL1j65VcsKWkRRymTijWprTU4AZWkhi6PHm2ZJ55SxbVtSIwxIbXfojW+SikHB5189O97BJB7SOrLW8v3L/DFRP0fr7VubJ+ykTZ/50cOoMlJ71n2vvutvPoIB9D6v90qaf5UqW6bFedcl95z++5hKYGgBwBeeRKfBQpOThUWHhSvKrte078sZM9FyOKLBmzL0KBVNnaAGGk99cabyjNprSd8y7chZR953DLPPOu0rv/7rQ6qnV/9iqumE/mcdR59iOzTN1rr8adY4ZNbuXTvamYWIiqr/qZ/WPYJqalVPRZFyfenRCpoHN9UzlyB9ijQkoLGBx7EvsBxGvujhfpDesaXTnS0LjQr+n34e2/a3lPftVuGjbLrRqxt70i93KQ6YCYBrBm/HrhSHlcNTarECVVIthyw0dUlXY6k0cZBgy3T3GoDaIfGkPYYudSaFGKnJN1qDegAzosV0vKAToDkclevVNL+koeSyuDIScG27um+nxugeYAKG5OINEgAbyUhZzuheErHaemvvkfagyqp9DsOMQUWnQIxAC86zZZ6CvwwUwJAVHInvvOSrd3RJoYl8BJzWNQJTnzSkX5su6Q/BZjgoELOTp7wih0+/T27JjvIfit714cD0jZ4ksrQc6QcGCBH+ZUHDrT2H3xfquhZ7njU+Mv/c1BIdEuSOf9syz74sKTdGVb41HbKHODWMBJTT739jttWO04/1Rr+8GfLT5okW+ZB2rIz0J2dMs+96PnV3X6nFQTWs/58lW+RqfvbzQIDbaHRosDBYJEarcjOpFUPMcy6W/9pdTcJoKCcFjPYSbOy22bvf0j1FOOUJFYvydD3yspzuPPUE11qL2w+TirgNku99Kql33zbWv77bN8/DGqUBw2KypB2oOmnV7qmwKV5qa/Zo+v5CgCgY28Jzjtgfn+ou2hPGwD1NIsRLZBQ56ORyDwl0CRvSWNZ2SATSHe0S2rR7L/ujby3RbfGK6+RE9xkB/SGq6/1/Mo4x7HnWcDC1qTU+PHKU2Wx2BIwV6S2dRs0AKvbBNXGAZN2oJsYKHVsa1ebtCXyMqeeixDIi7GXATTTOVs136VcE9YioDxSC8IDpoy3vw5f025cbYyNb2j2ePWYEhQoi9LIAxJRQdTHCQFpRnUpykmqLPUyjlMcQ9ktM0K3XsbApysvLYAWS+z/zcvjviCP6YL6KscCSvlyzGRGbyfL6N3CqK2xGXOPK3bghvqS25IbAOs6zUMkY209UlFOukWjAnWPQ0yBvikQA3DfdOnXuxGjiYBwx+mTbcM2SYiSglGdBSa0JBWCqcH4ClrdD5KE+9VEux1z9KH2w8mX2fUHf84GYCOEwUqFCxCyzWXAfx0raW+4HLAmCWw/cGBs/fJJrnbGMzjzmIBCjKnxZ//PHYU6v3GypLE73Ubatc/28hy+0gYcf6oVNt0kspfKZuegwsLi9Tes5cSvu6MW9srEzFmRyhgpBinZW70YLRZzLcvjN0h0YYuUO0tJzYxDjy8wACaYuhyW6v98vaT7l9xLul7gnZI3NnlwiIfH0R/Uuh6UviTbdwT46hmJV9iPo6B4S8KZlXdFak4/OAROjzQn5AF42efrh4kI7MtoCQBR9VXzhTIHDJEUrvg4b3mdBSI4aBF865fAz4MABvoLi/VAYqFo7fSJ0C2KU/1LCkCzXWPimPffsmNef94+0DagBqVBQnU8nCvFgn9Amgz095Eo07vGYqvacMzEV21/AfGN0s7csepIV02Tm/skKH4EvEpHPaGH2s6bjHjE0+g1g1IbY0uhy/QgqXf1wth8waA5xCEeqLh9vzR1UNkpjV3egNTgzlcCYdGH07HqpabmGEreQ5yoagYAbSRvJGQaHzleiUrk5TXUnzjEFFgMCsQAvBhEW5ZJkIIJSA7wFK5M8sUJpAuSbSSJyLFI+c8UA7tt933tua23tTRSnEARZxM//hCGLUaUnPaBVK1yckGFKaYOs8EmaW+/41Js5tnnImlKcStKX/+HP1lxnMBWTLr5B9rL+t77yk/2P9klyReJzYFRdj/yTAp08U52KYwyKBcmuyQBWmkx4dyZfMgPeorRu7NVNf9oT3K1IDHbrKTOhCTkCl7EHLyhOnqcUBckxGpIaOuL509VQQAx8aje/FjCIEktUdFBJ9Q50AInMbLlntrWQyH9drD+/+y9aZCd15nf99x96dt7o9HYARIgSEoURYnahpI1lmbJJLamMonjSlJOPjiOk3LlSz6k8sGqsseuuJxUKpXElThOHM9MZjwjS+NZNRptMxpRo4WkSIoUKYIE2Ni3bvR+b9/95vd/zn0bFxCWBkiC3cQ5wL3vdt7znvO/fe//POuRIxl1PcxLE5jBvg+2w3knXbWlrvLZeJt8rjcrfCJWoU2ebKNIkvJPUO2NPtzsxlucF2XJSTCD/bWhvwsam0A783fQzuypV+2fHHnC8XUC9mchvUOGHlrERFLEOPBxBIGev11ltWpzXbHBWttXDldKT6nkGZKcveN0PkzCaNivkTELWOSQ5U53HYgXE4hcE9RHr9sfS5pJi0wk+uxbsgHrO6PDW4w1XooI3A6BSMC3Q+geXNcPmtS/Uh3/b4feb8P82Ikw9cN3J19wtaP7CvwQLWHP/fcun7H/4MKs25R1bo0fkT8+cNR+Nztiz/7dv2e9jz1mo6+edQL2HxyNVb8qIkPUub0i3sn64daL8561SkQqSVmOSyr0WdfL//evB8cr/ZjpR0/1dHkCCU2jcP0dW7Wv9vgB8zaS9kUWeu5bKeqLfp211XNUknPJfnLeL/ImaYqxSOp1FbhITBKivHQcfdpRG0kR4Q6WjWv95w1eu9P9hFk22qSBwXPJvtpVHU02kvFC1E6owlGvpE7YC3gk55Nzg89JzvW3IkD9PZ4pDtnxYsWWWMCgALHdzYRQyOg+qZ4PV5fd1KLJpf4mVZ4Zm7b/58DD9qNh7LkiS31G/b6JBBvEkk/OYJPlb1oJOGTPVUnCiiSR6oxvtb/xCud411XdcrV4HbUhW7G2yf2qKSma7x94ubTLfiD2cL6ECaCzPo8KnOUQuaY+xhIRuBsEIgHfDWpv8z36wksykMrsJX6E7lbNp5+YxAnrMk5Y719b9J7WmNL/0cwB+81dD9iJiR1Wnpuz3ZcXrLbMDyq/PO6XkoxJPyb8qDhJOhn5L1O4KrLUOf2QS6r0Hx6u04aSPSRSrP8cqZ6KSEJl8Mdf7Yts1Z7O6zh5bqh9d+9JO7rb+9Zv5mb7yVMkZRJb6/3wfrLvg/CGklphO9jWtVfe+tGN2h48N7ivpyXkO7h/fZ3BXt3qWr+ehi1ylCNgBYemL+5+wH5nfDcTEn4qNnH/4OP4VJ145QW9Anl+ZGnOfv3Fb/Ul4J49N7bDfm3vQ/b98WmxnjtjiahVRHxS+6aZ8KyvLtubr75iw48dtf0zk6Si7NlyY9UlXYUZuZQb7vL7rhKwyDh8rBtbbzs5N0jWV+sKgw59biEe46rlSThKqOALOGRduFK12WPHbAV/CKWzdOm632fvQnyLCNwBApGA7wCst6+qfmTCD43a1Bc+ORpCyhAh301RGyJghXe0IBI50Xxlep/974feZxeQYvKo+qZwUNHMfbE8ZC0WMZddrm/auvaR+lERGQ3+6A6ek8jgBsX+bSJaXU/qO5FxbZAkBp/gban+4Ml3aV99Hez7u9SNO35sgrVuHNy/44auu4GPRUWTQkmpGYi457O0O/uw1IwIVQQsiVqErvIsxPuv9xy2747PcD2ot/UFGPT+9+8E9/Qg4bGdu6y2WrPvP/2XdurEm/b+Rx6wqalJEmaUmRewHjBa+HaTZ1DXs2JBysqMJal140UfpJbuSlXNVmrnTHKdeOBMhmtkO+sy0ZD0W0ADpKQcJRziJKefOnPJjr0+a7Onz/Hckk3setBWTpMYRR2PJSJwlwhEAr5L4O72Nsm6+hG4GfOION9qWUN9mufH6A9mDtpv7jniP4DygpaNrJ4pugovBwlLANUP402dh270o56cu/63OCFa2ruGzJL6NxrU9W3cqM69Onerft6rPmyV5/Q/F00E5QzYxlbr/gF3gZFIXLZTtaPQuP/u0Y/Z16b2eqa2CippLKvW0N8OxeONNzC4+sehUKEDRx6y0uF9JOE4Y9/+9veQSgs2jtZljNzkWss3j8OYwpSI1saCgPocvbLiihM1Ncs3+N+53BrL+DTk8YAu4PEsz+cS2zzbHK8sbSil5Twe8WfIgrVMrPHS0qI1cbabnBi1Jz/0uLVyZZtdgPXpl+j3ak83Oh93IgKbQiAS8KZgevsqyZkji0pYW8yPP1Vki327ilqSg4ukEIUl6QdO7euHyYVXn7xz8HZM4gf7Pbj/dg0mtnPvEOj/PejvR38zwZtYfzQ6c6cl3CPNzjnsySfKI4Q24UzG6YR4k7/5wdYTs4g/spe2OrbfmelRe4wEHE3C9E6dPmUXL87ZwsXzdoEwLGRadzDspVAL00UtGdhCEm4x0VRGq6bCk/CtkBd1MdeAgPF2hoRzxBLnkHbdm5q4YS88lIhjSD1DMo6y7X/4Adu/f69VyNh2br5qp86RR1sP4Xs12Odwc3yPCGwegUjAm8fqbanZQgVcXZ0jTrHqJKxv8qC71dv9hXbipedyqNEP6M1l77dleLGR9xgCb9ffo9pRWN0odtVmX+K9EfEm8F19rr4f8n7GGouHcg19c4VczYcPH7EDBw4S97uOk9aaNdYb1mqQPhJy1ypKsh8HD2j93fMfRpdyRpaTFLNP97JmXw5dGRZdSCPly9s6i1e8lj7MIq0XSiy+ge03g6e/YoHXa8QSQ+YZpGufo/B90vZqX5Pex21EYHMIRALeHE53X8u/nVIrs5PJW+vM16zXYl1aZuyZLrmV3+GvsBOvnq5fn1giAu8iAvJJ0Nq8tyLe67un74c0RT3ClhS/K09oOT7Vic1ex3lOqSdb5FRtQbAdVldop0gwkiF0ijryqJaXs7986qke8M2DzLuQcEdEzEuTUvlOMEWwFhmyml3U2W3i5lnood1r4P1NPmjswSLnjEKnuMfVRi4BR/oFjFjuEoFIwHcJ3J3dxpdUsYP8IGRbizhDLRJ2BPSSSlGZsXNnzd1B7Xeu5TvoRKwaEQABJz/+5jf7N6n6cqzSDZI5te/ZsCA+2Xvl3CVVc4f5rWy78loWMddwCFzHZltFKlbKSp1Tpqz1OjHvUkGTAUwJN0ol2X9LLDdYJPczWbCIRy+VClZE2i1AtHkmC1JDS/qV6Kx7g/8G/dF3l+cHf4f48UYE7g6BSMB3h9um7/KfG+y9KZyfLNOCeHP8WMhOpUD+qBDeNJCx4nsCgc2Srw8Wog0ZqJCDIUC9RMUJETKfdUIWQ8tWrbhdJ2YuiLA1tS3gkNgknWSTxSvq5MwWgZfIkZ6VE5ZeqJvljKUsWLIFZ2jDfSSwOyNzU1+ky7dYhIvkK6cukS7BT8S7K9TOpwne3fgWEbhTBCIB3ylim64fvpgpJN1Os2rLp77LhBlbFpmO+FrTSvJSvVgiAhGBaxAQ4SGFdrHpdurkJO8d9PA5SaKy2yrWV98gEWD4JmkbiFLfszYOWIoRlopaawYrN3TNc0EjK3eRcEWctCH/i3QWlTV26Uw23H/VLCS5OlCsO01Czl2cybporXLNNVanWsTDW5osZgIi5lgiAneIQCTgOwTshtWTL5//IvRny6qI3YpvNUvBzFn67DdQZZFyUac31M7xS+uAxLeIwE0Q8NzdJ1+2zJFHCBkacTV0052soEkRqL8C/4mzvfTPezYr9kO+aEUfhMgDD1GCxHXeX0kbye3QLqd4hUxYalfxxAqHUvINSdq115+zbnXRUnkWzYCU/Yb+/XETEdgsAm896HSzT3qv1QvfUGbmmgBDtHrJUYQvb1CFKaG7XiHEIY0DlmUgYN0XS0RAElgsN0dA3xNJloQJ1S/N2pnnvmPnLpPZDbNNRSpjVMuyx2pFJP/66YvIPf61BFuhO4iwf0/1Xe2/kgcr3MnvCTf6TZzCgxrbskiXLYK4DWEvzqGmnluq2olnvmXrp3/MkoV8pxM7cNJg3EYE7gCBKAHfAVheVV9UvsUiXX3BPV9sWp6Z2Kb4QWiT7afbrsHFLBuH+kwqqg4JB3xRcLcZ3ekD7+f6gz+h2wWHzfRZdfTLv4XHtIX61mvVbe3lb9mPzs7auTcet8MPH7WZqR04U+EoRTY3EXUbr2U5RnVZ29dXLwJeuNNVyEGlzID03e1Ts86JaKF4SJatHKzk8MV/BGMn+BIrJOVwwKoSQzx75owdP/aanX/tBctdmWXhJWKKUV/HEhF4KwhEAt40esHGpBmvq7aQaPXlbTZq1qpdsE71snVrBOg3lknqv8a3GluvVrbhx4H1gnwmH34OttAv26bHfg8q6sdRP4A/Bc9PnRjojH5Ct0qhL+qqRKzBMng4uN8ngsGq93xf/dUf8Y3K9eO4UZ17dQ5VcI6+5hZP2Orz5+3ZY89abmKvDe/cY+OTO60yPIQTVRZEUSkTo+uqZm3hxwwibgapmbxvCM+8+D56XDEuWnLSUp0cIm5WL8UnS73c7Nry+pqtnr5gS3NXbPniOatenrXs2mUri3hlm8ZJ61Z/mfcKmvic7Y1AJODbfX4Qg8IfmFcHaRc1cpPsUs2l09ZefNN6qyctXWfpvs66Z8/xeTU/GLhs0nLyFUVi3jKz5UAUqdo6kwS6yMLkvcqwpa8s9NfATfp8O2DegeuuXaBdpJHeCKst4ZWqxR9S6/RVWKprWvVHRK0fS5YPdDFHXXHp5hqG09l7V/jhdlGKPvsSjoKZvm8sOEECh2Rd4R6EgUGTa/Kipfi4342+9zHVBBFi0vKGOCoEzPX34X/D70a/AiyD7+6JrIQZ3YaVVs9Zd+28rZ7N2zx24SzZtVLFMcsPj7pNNpMv8l0N8bqy27aJU0IHZW392vG306KdXpdzLeKJ201LVyXNkrgDL+kWSyK2q1VrsSZ3d33RMs1lwp2aNoprtJbt7BAnrEnWu/gtGYQl7m9zBPQn+R4v+pHpvzY70j4RiDYl8WaU3g5VsqTdxuIxa8+/apm105br4AnpbfOFxlalop+r65cnC1/WLfBD1h8XgFj6zFmkdRZmIJ9u++hhy7zxBkRcsdRa1dcD/ilJzkf3Dr9BUlofWMTVet+jLCBfthQ/hpmz510yUTKRzKU5CJkEJqPD1n7wAct/7c/4bJBGRHbk8g2fwDvcz+ub14RAEiPb7siIdQ7s826kmNSkV9esO1zx9ZXTrH/MYrLW2b/POnt2W/Y4EzjiTg3vXCe+d0PqVHrG4nDA/P1gXhkC81r4+0D9mpIeV383W6BoEuwJNPj7lbpZZFxug2ntEnOF8B1dh1h7TJJT+F70CP3r4fgoD2cl48i586OmyG1rYDKSmciUj7rDGs8QsSZEalNrFUtrFb7b2Jr5+2oKBrBIyWgc6XcL/DW8N7rwHidgvix8mWSvdUcpvqThp0SEfN0HqO8VJSFdXVbWm26a+MEGqe6uHLfu3EuWqZ21IjNiS2sherLu6B6pteTx3C9Xm766l1x717b6ceeHVAuPk3HAcj962dLLq05k9V/5nOX//GknNvL8uQTkDNLH5B3vs08MJPWOWHppyQms+Yuf9SUP0xcvWeYYkwMcYNT/9MlTlr50ybok4G/+7Kes+Ht/ZKmVFbxk6DcJF9yAd6/6LWD65KTJS+bsOav/R79iXQhWpJp97XVCVZjQkENYJffD5635C5+BdEtW/5u/YpW//6vWYxwpPg+X5O8lATvmfMoJ5vS5+Us/j4YBQrp82bKvvub9lAZCatl3ZULmqA2+SclMd8K3FDp2vZRXkEK4R1/R50CU/B2IMVXP/xb0pjsHt7ottBc+Q66DiSZ5ilLA0ToUGuAM6mpO6Jq3078WNxGBt4hAZv/+o//gLbaxxW4PXzJ9VToZftymH7d8aTTYbf1HR9JKX2LRtzN59b9acqpKI80quXtjfdXWL71srdN/YZm55yxHCklXbSn2T19Iamkbvsb6gl//4tRWKvohhYBFAJnzF627e8baSJqkA7L2ow9Z/unvWmoZG/aAROfqXh2/ky9+OFNS0a6sWndmp6396t+33hjrC9PP0m/9juWef8FIV+REkF5aNoPsWh/5MFIjP5RHWe3pm99ySZlMCkE1TbiJk4bG+06/9PmCTYY1lpsf/4hV/9v/xsk0RY7ioX/2fzmhyfaosWRmT1n7Qx+07o4psN9jvYlxy3/ne6xFzOIEmhjpb/GdxHmwbWGudZAd85mA+fh4wPxff8Fyzz4fNCIJAW+lv+N+X8K3LRCkT2D6BClzTw/1eU+qZibRBPryunYrjZau+SupvzHG0GagWz1FJdmGo/geEXg7EEg99dTnxCTvwcLsF+/k1vADlq7ss0xll2VLY0Q1lPg+5gJVJt8p8TAIdPmh7DRrrLYyZ+2lWUstnbBs/RLkDQEh8WrGLfLWF/O98IXsQVir//M/se6hA0iP2MKQLAu/94eWff04khs2QBHCvSj64URN237sfVb/9/86UuGQ2yNz3/2+DX/+H6EiRUIk3MQlFU2iICv1u403bAo1eubkaSv92m+5pOz9vhd9Tp6By2wX4mr+7Cet/h//DVeNdqYmbOh//T+t+IUv+TWpzGXzlS27feigrf4v/3RjYpB95SdW+OOvWPr0WSfipNl3fOuYo8Z3zP/aAOY/sMrnf5X+grkmBcJ725W7+bvdjuPcdh9M7PB1CLyHCVgjZSZL6I+kWUnDvTyqwOIEtkKcNvTKkh5SdEqdXmvVPZitRtKMxhUWSljnt4cvpYgXe5GUXYGm3wNfVBGrnJiUGWh6ytb+0eetc+iQS6E92csWSTBA7tx7Wbosrt4bxYmmbwfOPfOcDf3jf+pS2gYJqN+SZFQHklv9H/4h6ur91KGvSHfpU2ddhe1S5D3qvFTjPaT2zsyM91UTieJvf9HK//xfQmpI7YkEKTJjwiObduuJx23t8/+9S/JOFeq7MGdZvXtZEsyFJzE9lnvmWav84/8x2KTxIk6kynvZp/isiMD9hMB7nID5EYFEnTJd7cyPoGzCIt3+Sx92kGhdccUBakuprqTC4tdRIQuhvAeItz8SJzSpIyFbqSG7/PjW/7P/xJqf/qR1pfqVh+69lnzk7IMNN33lihX+5GtW/OK/DX3QREF9VX/0Eahef/LQG6nY+n/1X1jzqU+48xaJf5MR3tut5mZMZtILi1ZEfVv8wz/GgQyb9KAEqf4PkHBnzx5b/9t/y9offBwnLXl8y8Z9b7vtWCaYf1mY/26QzAcxv8ddio+LCNxPCLzHCVgfpcsYTrj6hXOptv8JJ793oUY4GUg3kXZ1LqnVv+m9shEh9ElY2xTeup2D+639+GPuoSs78T0bOqCn8b5Onz5juRdfsvSFiy4NX7XPD4A+0O+U1NLYWluQWOtnPubSsDyn7+nkQZ6zi0vutJT79newrV8IfZfkq74OlkESxu4r0m4//JC18T7uTk8ziZAX9z0qwnx1AHOc3TwMSV8AvWKJCEQE3nEE7gMCHsSw/8OijX4bk62qDO7fM+bRg9/FkpCZtpLAsFF6zK1rATh3HX+8Yz0V9q6hYCO1reyPive9nsCSDqhfkoTlYKVQmRUSnxBOwrI2bi++l2sfy3nKMUN97H1Hm3DrvtN5pV6i366BWKPvEHFwFrtXgAvvO8Q8wT5uIwIRgbcNgXdJZ/e29f8OG+r/wCW/c8lWrQzu32Gr27a6JB2RmLay+ZKUo1vGc1w/zu9CwdQe7KCSDtWvmxX1T+SsfkNeil31WGBJ9JLmReb3qtDPnlTI6q9sqcJRXtg3K445fZc6GilZmgaPv75Z/Xf4vEMpaf12mL/D/YjNRwTuRwTuMwK+Hz/i24xZhKAiiQwv8NS6VKfh1L1+98eKyGSDTPp1u06oLsTnkwbnPbVyLwcQiNT7q74Lx830XRMI1ZcELeere9nlAUz9sXeK+cD9cTciEBG4ewQiAd89du+tO0UaIgUlx303i/qxGQJL+qi6IuGk3Mm9yT1vadsnUrVxN33fjpi/JbzizRGBiECCQCTgBIm4DQjccwJ7G4B/t/v8Vp//Vu9/GyCMTUQEIgL3HoF3Wdy59wOOT4wIRAQiAhGBiMBWQCAS8Fb4FGIfIgIRgYhAROC+QyAS8H33kccBRwQiAhGBiMBWQCAS8Fb4FGIfIgIRgYhAROC+QyAS8H33kccBRwQiAhGBiMBWQCAS8Fb4FGIfIgIRgYhAROC+QyAS8H33kccBRwQiAhGBiMBWQCAS8Fb4FGIfIgIRgYhAROC+QyAS8H33kccBRwQiAhGBiMBWQCAS8Fb4FGIfIgIRgYhAROC+QyAS8H33kccBRwQiAhGBiMBWQCAS8Fb4FGIfIgIRgYhAROC+QyAS8H33kccBRwQiAhGBiMBWQCAS8Fb4FGIfIgIRgYhAROC+QyAS8H33kccBRwQiAhGBiMBWQCAS8Fb4FGIfIgIRgYhAROC+QyAS8H33kccBRwQiAhGBiMBWQCAS8Fb4FGIfIgIRgYhAROC+QyAS8H33kccBRwQiAhGBiMBWQCAS8Fb4FGIfIgIRgYhAROC+QyAS8H33kccBRwQiAhGBiMBWQCC7FToR+xARiAhEBCICbw8Cqbenma3VyuCgev2u3e7cuzSCXtK/TTw/EvAmQIpVIgIRgR6RiKsAAEAASURBVIjAdkBAv/3dbp8BbkRQ22EQ27yPqVTK+L+pEgl4UzDFShGBiEBEYOsjkOaXP5N7hy2LYpc7EfPeCmybYjJNODbJeG+lL5u8t9vtXp0E3eaeSMC3AShejghEBCIC2wEBUVCn07XqejvQUcJJd6ASvf04b9WYHnir69e2jpzoJxL67G3ce13Hkwqqff1+0mRyS3Kc1GOr3WvLT5+59vrdH2leUihkLZfNMke5/XMiAd891vHOiEBEICLwriOgn3lJvm3Id6RSsA/u32UdpLBAcLoKO4X/A2Q0eEI1A4OJBLXn784f7NF2OE8tSaR6QS667K33r1t3UA692l6/QWpTQuO+DQSlE9zoF/q9UPN+pmfpdJorSPSpcIbTLnx76/6mnvZ7TRXvnyqphM55d/3A+x3qJKPs0a6eKp1B8gTxZrjVH3C1qY290Fs/5F6vzEGXG7OZtM2embOLc8uWz2b4HIRfqHmj90jAN0IlnosIRAQiAtsEARFZmh/+Vr1jOyYq9jc+91GrrTeQwnKwQieQiziMf6I6r5/OOlk55aXSEHgGtamudiwF6fW6Ga/X63UCCrBINqN7RIihDW6ivUBgzkMdMVegMdXpsK8WRVAJCYWrOinC6pNhj1o9ekJ7mkgEwjfLpLoc0zf62kszRuro/i51RJh6qXh/tMP9qXTG7/ezPD88l/oZzqhv6j/19Dz1XI0IA7Ux8MZ1jVtPUF3dpz5ePezRjhddo476Wa83bWS4bL/+ha/b6bNzViwMMSlq+STCq4U7rnmPBHwNHPEgIhARiAhsLwScPOiyyEYSV7Vat1q9ZdmsSAOaEcFBEiJW51gnOchNrASriFJTIjknQpGNWmxDwtAru041Ii5ISFQVZN/AS+LctAiNovdAyTqCxHl2lzblFJbJ8CzquqxKWz0mBiLocKfqqw/0Rc/xCUAgz9AmBNcn1uQO9UNFz3DSZT9DPzKMudtt+xi8rl9X3722d9KfwaFQ0QVdE6WLSlV0HLDwIx34ff7GrsazgYEApb+ZLBOgJpghUbda4fne2MAIw/G175GAr8UjHkUEIgIRgW2FQEIc6rQkyEI+a912ly1SrOhVjNIX2LpdUZfYSASHtCgaEumZi4heV3wTyFfn/IrX7UpKvUYVHAha5CVy6su73nZPEqbqcyTVrLZqS89V+2b0UUTJlf5pusE9kJsIOJ0LlCgVtIrf0usPoi/BShr3QgM5CB4lAIURdRhPhrboq/ogYtat3gfV0LG3yLOdXHWRV+iYtyF61shdGvcJTOi33+n1NlrztqSByNLXcinPxEdtqS+3L5GAb49RrBERiAhEBLYRAkhzkGsHknNyE/UEIdgJWtwgiTJwhKRgkSSEI9LUP13gRpGPe/RCWE5Ufi2QaMLDoY3QuKTRpIR2eFdF2tE1XXaJVdKmV9UEgMvsS5XNHpKk+iWJl0PIuIOILW4MZOs3eZ/okTVbLX9csVj0/uvASV/30krXO9kFB04w8RBv+xW6G55P2068Oqsx+EP7++FZKN4ZAzeGQ1W8roR+67kdtNaa4GjfB3ZdzRsdRgK+ESrxXEQgIhAR2GYIOLlBKNlMDpUvsi+euIiUrtYdHEpCREFy5QocIh4KLCPivVo7jSQZSmCgDMTuBMlJSba6p09BYknnnVATOgvc7mTndbwpCAquE7knz3c7MxUkjXdhMSd9cRgNyI7dbrc5B9lSp4Vkn8vnIe0udu4615pcG7axsTGeg/3aO88z0pJg9RwGFgbnw9Cx+iJNQSgaeLKvK+q0VMjSCmiioNGqiremPYrqXS2CQc+VtC71dijX1rla+9q9SMDX4hGPIgIRgYjAtkRAJCDCEDGKDKQJ7Ur36gQRhiRaCNQQ9iT19hmGKyIPOR8lhISi2NXUoY7fAcG4Sles4zVFPFBnG/JLiElqZF3uk5ZvvHZ4kwpYEm+nIzszUq/UzdzTRqItVcqWK8p5zHBqqtvi8ryNT06j1s1ZjidcWVy0+YVLNj4+ztiadvHCKWtw38FDh21m1x5/gKhd5KmRBj6kM66+1rj66nbvaxiDHK6wUjNh0HWdk+qZPWFDUWvJvg+L41D61+WgdZclEvBdAhdviwhEBCICWwkBl9Ygtyz20GZKpCKCgDLYBOIIvQ0SG9IaXs3aDxJokPg2uIWqssUG8hGhQ2kieD/HTZJifV/3s4+0rdp6UqfdgoBx+PLG+8pl7lV9ib9yYhI9ZrhndXXNqkurVqkMWb22Zs+99KytrCzbpXOXrMq1xYU5m5yctLHxMV5TNjxcsVOnZtmO2kc//gkrlEr2+rHX7OLly/bpT/+cTU1NIRUjJUuVLScyl7bp34ZkGkhTSIik6S32YsiX0+6B7SOgr/RXavlA2KiXtct4/DxSerBNB7V6WvcLC5zIfIyDIHLbrUok4FuhE69FBCICEYFthIAI00lAhHdNv3UsGob8kPQykK+IowezdLsK9dFVCAupLwnTyUAqEgLFQyJ3Zym2IpsuZOOSMC2KmzI8T1KmyDyDiphGEab1TPUCOyyk1Wo1vQdJkoq5K5ds9sQb9tyz37crc3NQYdfmLs9bPl+kfgsihehSWbtwYc4yPFekqmcXS2U8qJv2oxefs499/CkbGxm1Y2+8YS8Mj9tnP/MLeCM3mIQUXYqVrTt4LWvkmpLoHXU2/c2IlAUJbabl4c2+JGGv6WQbphScACvG7doCiNnJnHZVRzMJsTf/1bcMzwv46S4VPUAY3LhEAr4xLvFsRCAiEBHYnggEPoAXJMVpCMFO62FHEI2cijJZqYEl1UpygyYhGKmjFVYkD2JJjJJi5fXcE6k4ErzDxm5HFVGLtLg3S3s9yNJDl7yKnsE1CLNFbKxiYfP5gg2VKq5WfvPNY/adv/gLmz3+hlVr65xrubSZLRZsfGracpBuhzAlFSUXSXEssmx3mtZstKzZxK6N9HxlYdn+5Mt/ZFNjEy7Nf/c737IjR47YwsK8PfnkJ/y5dMxyuYK18bgW/SaE6CpqZ08BpBdMyrG4VLOO4NHNsa5xLtQPVX1iwhmdY6S6E+LVpIQzYKc21KKaul2JBHw7hOL1iEBEICKwXRDgVz8NaYp84QQ4hTexgehApMo/CXI9yFX1nD0k1YqMRCA6pXtU35mEO7gOC/JfbSA1cyiJ1L2D1QDHPaTplCRpCE8q3ea64pDNRsZGPC72+ed/aMePvWxz5y/YyZOnrFqvQcpDli0N23AJj+12w5o4W62srMG62IMh4K6exQyiq+Mm0nNfxZvWxIBBpHNZq5QLdvrcvA2NVKy3uGr/4p//H/SvbseO/cT+y7/796y6tgZh14NDGqMKkxB2lGiDrqsdDStgw1aFY4KaeB47woaXFPoKNdJYu5Ls/R5VZcw+y9GERpBxTQ1sskQC3iRQsVpEICIQEdiqCAz+5It0xaciTHkSS/ILUqt0yahJRSReAVJBVazMUqEOdKJ7ID4V3Q/fiGX6byKifruc86teIZyDl3D8ytji3BW7dPGCO1Ct1epIh1l7+um/sAtnThLUgzNVoWh5skR1cMCShCzmkvdzU1KqiNXVuEi8OFd1nCDpUzFv7QZ9xUGZ3lO4CWm4DjGrJ5lG2wrFkp0/d5ltz771Z1+zy5cu2t/+O/81NuQdSNr0QzMCr63OS7rlWUjpngGMcYQJBjsieHGtYFJYkdARLvzzSQptuB3bm9HkhXoeB5xBG8C91N1siQS8WaRivYhARCAisBUR6JOguqaffjnzemIISEEpEzvOJm1XkzrRekWIRUQN2bptU1Sr44G2JOk6lfAWXLok7yWFk37d5T7fz6Ce7qIyXm+s2w9ffNZefO5ZnKxWaD9vJey6EyNT1uK6pN9mK3geK6zJJwyZAm3QFqprEaImDNlswbSwkyTjNlKmyB8+ZAsV9pBRmSe4upyOilw7zRZNQOq1npWGSvbDZ59BQq7Y537lP1RFm9ox7eQo+7fhpJaURPoXtSeJRqBVpHwehtSttJyCUFQsfDRhUZiXg0MdEbTo3L3BqafjzZareG72jlgvIhARiAhEBLYEAlDENUXSV5o44ESKDITLuT7RBQlXP/uck6OU9nSPyNf3/RTndF5EArmkc+5ZLeKSk5G8rL0+BB+kvSAh5gsFt/seOXrUJiem3La7c2qvjY9NEVpUtjqkK4m2WKgQbsQLZ6oCr/LQsFWKQ1amjuy/Gbolra6ITDbfBtJtp4ETFp0iQClMMLiuPuRx+KpAtmLIJt7XTeKCGxiylYrz4IGH7PTsKfvTP/x9eB0Ch8jleMaNG2PWaDUBkFIgA9kKGVfNu608EKmwcCS8T7pBEwWh1cdR7Ax6csqSal/7oVy/7Z8e2EQJeACMuBsRiAhEBLYTAoEi+j3WgcgisIhLjDoWSSb/Qn3RMkVEBGm4oxUUAw17PTkCI4O6c5WckNyhSoTTb0ds5PfTRAaS7iC51hoNW6uu+1rEP/ja0/bnX/+6DRVK7mTlxMQNynKF7Oj3trHrpvNpkmoUkTQx+zaQa+G1QraoLJUQOYSG5FnrrdvQEBHA3N+o1ugXNmH2tTBErpRlxaGC91pTiVS2Z4UyqSCZbIioVxaXWR1qmPCmun33O9+yT3/m37HK8Ign9sgRJC21t0KxNJaAixrhxZFvHEGQg2A1gQmpLZGymUSkkaBBCMGacUhSpvPyBHdpWk1sskQC3iRQsVpEICIQEdhqCASiGOyVSEA8wj8IVipZSb1BWpPkJ6oKKl4Ra6gpLoZknEiksoYmdczWw4ogIF1SG8GWrH0IFaKSFC1lco+kGsskyTh/8bw9+/3v8lyegeQsUhLR+e2qK9EWKTefyaPG5ZoWLuBUOZexsfKI22QzSPBZ0kvW1mqWJq53GeJdXl2yUgEilq0Vb2kt+5eF0IvYk/Ucya7NVtHWsQl3kXRTqLoVOrWysmRnz7Rtbb1mH/+ZhjTKTDrosY81TAbCaK6SsLBT8XfegpSvY+EhdXTA1NN38uQuffGpizQDvITRZksk4M0iFetFBCICEYGtjgASqatZU5AQRAdDssWuCuGImFUUv+uWS5eAxTAyprKljiTiHNfl1SypMN1RG/ovqTDUURu6Jsm5q8vc0ybGV9Lkaz/6sT3/3As2OjlhZQizTphRG9us2pZaXAtF5HI5YnmLNir1cz5npeFhyDRNmFLJ+6lEHlrab4F+Ky63iISd67C0H/3A0RqJu4e6ukhcMAs6KJsWYU6y6MqEXCT+F4sxfaFeu+YxyecuX7Sd+/fYQ48ctlVIXap0eXCHiYlG40MMO7y7Sp7+yANbRapwmJdpixJwgIImJsKCl7CWtsBDuTTpUAiXgKa+V/EWbv4WCfjm2MQrEYGIQERgeyEgzhCRQqoiGBGvKCTErvZpw5ceDPwgJy2X3sRYFJGppEk5IHVkAxahs6+QHOjGyUft6W5Jx1qrd2Vhwe22L/3wefvqn3zN8hBpBlXyOiRaXat6msopUkdOTkyils5DzCW33ZYgryKPzUmihYglhWtJvw7EK5tsYRR1Mf3JjI/a2FLZqpB8hrpVMmYFJ7McCTu6HhesczA9/cqglhatMSloZ2yNMCSphV94/gX76le+Yn/1sz/H/VXL50gWIilf4w4Q+VajlKqcgXo/RKQ+cpdsVVFN6wxj1xVOSY4Wvgk+/Vqh7m3eIwHfBqB4OSIQEYgIbBcEnEAggzwMJjuo0k+IJVwqgyJEqCoiO5GUSFoEFY4gbJfeVA8SVg13TJL8yz/ulRzIRd969iwIcJxEGFfmLtr3nv429tohK+JUpTtWV1ass96wXbt22/59u62EdCibbQEVc4EY3jxto3mGTFk6EfttFptwh3431zM2XEENnUUyJvyoTmrJUVJVLq5WXd09Q2yx1MsF4ojzELfW7l1GxbzOs86eP2+L1TVsy4Q7QcSpEpJzk/5C6r/xa/+SJB0LZM/6mKV48PjohBVQYbtXNKNScfUxY1ebwqWjSYZYlif7fES0C1hdkbcmN/RDanVZklVLxwFhHdy+RAK+PUaxRkQgIhAR2BYI+I+/MwWkI3UobCHZzDM2IRWLPEQUwU6p2lzVSWhjIw0lNTz1JFslvdANohf98+UFuU37YhoR+aXLl+z/+41/ZQ2IcmbPAZ6RIQ74nEu+O6Ym7IF905BtB+JFOsV5qYz9t0B8UYlXGYLNSmLVM+hfDk/q9HAuZJWiHfWbZq1ZKliZai08qZ38mCiMDU8i4cvW27WRoTJxxD2bRNJ+Y/a4L9og6TyVgUDxrk7p+Th8nSD71o7pSdv/wAM+Bnl169nKtOVYaWKiiQa2XpWgTtaOxqveaALC5ES4QsBa8jCk8RQW4MUEgpqbLpGANw1VrBgRiAhEBLYoAhCEZC8nDIisTa5kqVeVS1nckXOJV1wjIvGakIWkR9GF3KgoIm7IxXdpQ4Tj6RX9Lq5B6B6iw7FITwk2Ll+ZtwuXztnUzp1WGd1hc+RtPnf+HCJi26bHJ+zgnp1WQqUrosvzlArkO4T9tlhQOFIBSZ1mIeZsTmppnLbop4cFsfoRumAcq5r+9E67ZKNcbyTJNyC6cg46ZIJAZkoYukOYEmRIZqy9M9OiSFZNWvQ0lBmIuSv1NAbkEs88dOAQKyftRbpltD4m+icPbWEINkJJGAk4XZdDmUrQGggvCpcdOp4kpQFQ0D7PF58DoVrZTIkEvBmUYp2IQEQgIrAtEMAeCTmJHH1hAIgykXCdWCApkbQvQ4g0F671SRfikYwnEna1qzNJkPCcuEVQnPMaELTUs0puIaeusbFJe/mll+3N149bm0QbxULGpvFgzqsfTAJwl4Igseui+s3iGJaXpzPtKXNWLodDVV9lnJN6Wuv9Uk/PKeOw1VV8L05lhUyFa0jQeE73ONZawV1SVq4Q81sibEl3dGHVibFRvKQLVsPWW8cDW20ro4dSZJ58c5YMWZfs4UcfI4tWw8l/8GNNsJIzVVLkaOW8nJwY2DpOflEYJq+r9w5UveFuQP6Gl+LJiEBEICIQEdheCMjhCr6BQBQCJBuunJrcXMlxSDMpQhFJ9H/+fV8q10C8roXV4gyK2RFZq0EITnwc6qieMlGpDQixPGRT0zvslVdehsJb1mpUbRL18BCq5QL3DEGmRarKt6mHSjiLzVcSuRy+8qk8xAwJ07jOyW4rARTvKusRUtQhq1aLVw8STrUaSLqQphZY4N4WscdKV0nSSvrWNczILmUX6fP46LBN75hknG3SXmaD1zQSdTFfsm9/+1s2j9o8z7GeFUhXY9O+XsLp6kuVBo+1L/vw1fu47lZguWOFCYqGsJkSJeDNoBTrRAQiAhGBrYjAdb/0ieQqThWRdlC7ihZgi0AYkJSIIy1xVCKmCEOVPTUjJyBVaaI9C5bIl7rOz9RTM2nF0ErSpI47KWGTLeCZfIUViFYXr6CubdkoywNO4ChVQd2LnzL3dK1ULvEIFmiQ5AxpdgnzKeUrIZ6X5zjXU89JmmcwdfB+i+xcA9yP65UdWWFIsv12UU8rCQhVqKs+MylA0tYztD+BPfjK8hJhxyLeAtzdtJGJUfvFX/pr2IFnsCdD3go3oj2NReNTESx6fjjRP6KOk3ByXfU5p+KErDGoH8Ksf7dfvM1bJODbABQvRwQiAhGB7YSASFikpCJywBIMnWycEIs6qUpqFNmKtnSDSFUSnHNLn0j8Nqmt+ZdIzdAf9+McRfAtgiok2HZCFHkqS9XYSJm6NacwLZAgdTJ0BbnimcysoIDhd4gczSVIMSf7L6pk2YFznJcjU1vSLqprz1LFxCAnlbT+MZmoN+oe+9vBM6vMMoM9JPWmyBiWrovg6U8e8l1pkjWLfu2cnrJVxSin89YgKcdHPvpz9sQTHybOWFm7SOxB/WA3BxPn2qAFEAgoDhgnbwAjT+mAYKDmDX7uYyMgHfNk6+jf/i0S8O0xijUiAhGBiMA2QQCakCSI3VVErDSPYgbti9yUhcplPJfoAqnIk1ckBOXwTx6+8u4V0Yg2ISYnIu1pR/zNOr9KgEEbSpqRQ8XbItlGTiFGJRy7ILwihCdyE8EWINgsYUfwMN7Kw2zlnYxdOMsiDUjPyp2pPNJlJeLguSnihJUNq64lDbEla9XdJu1LGi+Wizhmta1FtqsO7N/C2UtSuWzB6Y6k9Y4nBUm1+qk0IXy1oLjfDiStpQ2FQ420mRVswx7LDF4iXEn2TvQcu3qZiYomMK4gYCsGdictMEi8n2Vn95WRUNO7qt4xpuImSyTgTQIVq0UEIgIRga2PgH78RcDQTgonJQgpg5pV+lGpguW97DQLMYlY9EqLaLjHJeD+OZd2dRsirTjcnbNc2mVPW5ydpOKmQSe1DuKwyE2qXnkva/GDEtJvXsQL0eZg35JLsiI62oM82811yxI3nEWSLRFmpBWN5AGdJ1xIPZLkqxClNmSbzWP35bgjB6zaKtIxKmVsxG0WaoB73Vtbamc9rwOhF/P0j3hgJerAfO0e0sOj46TKPEf/IWuIs60tz1HGKz3XvZypGwo4aXxcDy/1WnsBD43d1fMAGLiZ1Jg8X+5mahNgvP7t3iIB3w6heD0iEBGICGwDBIItE8kPO24NUpVKWEQh6VeEJvoIi8pL1hPp9MlF6lb+SfINxCFSoYZ0spCKpEtJm36VrUhN9Vwylk2YOiI1eSt3eGC7UUOiLXteZ4XwdFvrliuPQY7E+NJI4p29qixZSKpTMzP0M4udeEjMHJ5DRXlza8JQKpddfd0hlGhhbd1qq02e3rHq6pq1UREXuK+lWQHE38POCwOSYEOhTeSrUvgR7bSYIIjAV6tVW1haRFIXgbdctSxv7JQMzbSlfoQ82D63EGT818jFxn1SFjPTL42DjvjEBfqmr8JN9TZfIgFvHqtYMyIQEYgIbGEExBZIfhCwJDynDamcdVokwzknXidaXRVhOIf0xySpTS+XC/1+qWh9AQe24l2RsYhIfCepWQreHtJwEWlXxN9Yr6JyzpBuEqkX1bSIXKppPa3JNfUjB8kVkGxzqJqRz3GGYg1hqbAhz8pQBcKU9J4msQcezxCxliuUirtR46GQXAaJura+5iFGVxYue1rLMl7Pbe7pQcIKO8p3UjiCjftShnNLy9Zz+3KWBR6WbWlpyXYUdjJSnLDgyzbkHEiXA6RhaQVk43bipb/CTLhIQtakJGDGPnW8eH0mGhC4NA4hWYlGfPsSCfj2GMUaEYGIQERgyyOQUIV0pyIWxbJKsJPNU3QiYtFiC15EVk4xkKmf19lANCiY2UeSldRLfa2oJN5VykVfoECEQ40O7eq8HKtkB1WWqlyf+D2uF8lTau82bF2FfLO0o8UZlAxjcnKHVcrDxA+PekIOkbd7NHOPVjkSYxfSSMyQcQfnKpekaUfpKsspiJvQ3uLUOIHCrJpUXfVkHKvVZfrctWFyTotQy9h9R8knPb+8LJ05zy1ao7lmy0vzNr1rV1gfWCTKK6O1grFVK2OWHu64iWmFkm+1q7psKW4bFgj9IslXkwZfd9krDVxMKt1gGwn4BqDEUxGBiEBEYLshoJ98EQMcBhFICg4EIpEt/JOaddBC6XdAkslIVZ+bKZ7iEVKFt1zClXezqqldWZGlGlYcr5MSz1lbWYWg29heSTMJgeaLBCBx3OPVbHSRbIdxoCrZ4YeO2uSOHS5NdlhmEI8pV4tLUlbfW3g5+5oK6rHImPb8vOy9XhenLs0uihXWE85DtqPe5bWlFbt44YLNEQ6lJQgrEG8W428Fb+tR1gBeXq1BwCW8qNeRgBdpU0sjQug4lGki0mZfaTdTSkHJuEJYksZHPxwStmAgHK+WsC8YdOXa19Vat9qLBHwrdOK1iEBEICKwTRBwOnDOYM/ZQmcgE15BeINsIDrnCx9TuB6II5x1FSs1uoT5aCUlHbuE7O2ouSDViqCgeKRgKAR1bxnp0r2bqa+wIjlEaYlC1jiyYch3BNXyvgN7bd/+A9Jg+7VmM+NhRVVidSUVp2VHRlXs7bJP0JLXU/+arbo1UUlL7S0P6K7U7Ho0/Wwjriq0aZqQI7pn81cWfFWlPMsdVspp24EqWipu/KMIPSKUiX3mDy4BdyFxrfwkCV5e0srM1YOMXY3MA0T+AkxOWkkJqF1FMTkfcNTVzZdIwJvHKtaMCEQEIgJbG4HAF6GP4ggX3yTRiRjklSU1stSsKgmJhK0nt4CZUrCYaBoh0cOY2mIrqE/pKwOBcx2ilU1UC9/LU1nkJbWv1NHlSom0kXnU05yj3jCezrvIlDXCykRNpNOh4THUziVLSyJFKr5y4aItL5K3GXWzJ8vwVJIhDlhSqkiw0ayztOEK3tI4akm1LbEdkoYiGQYTBl451hoeYW1h5XhWzugs7WmIoyPEHCMBS52t0Cd5XWvEPhXhPgn9jEyAUDjr5xSKFMhUawcHyZc6fk1TBEhbMxM9f+Ne3X/9UTh3s/dIwDdDJp6PCEQEIgLbCIGEQqAdL7JLujwpO6fIV2QBq/YgsODJHOoNvotoxDGq66TEgZMct4qGXf2MtCjaEdW4lpu9NnbaPJJvGdXzCF7JaVTPUvOOQL4l5XmGxLp4R7d7rB9cb0C2eSRaxe9Sh0Ub5GS1cOWyrawuQaBNFnfYjYqZJxPbu7g0xzKCEDSrGmld4nVU1+uoqgss6qBJg57Nw3wlpSzXtTJSPcvawUjlNZ6VrYyghl61Bp1OryNNkyM6xDQHxBLcZN9WfzSREKcmkwzXAnDCs4M5KWsiEsaveqEEinbVfwAnuXDLbSTgW8ITL0YEIgIRge2DgGjAl+FDRnOlKYQkaS1Qpl9lMDAEJAwVw6i890lEDkQK75Fzle4V4SoMSSFGkirdTisVNNf9kr/TFKTU8QQXSL9IqDnijwta47c4bMOogXPUV97mZdTIIkpNBuSwpVSQein/8xBe1ApharCu7/zCFduxe49L2+uEMC1i322S+EM259NnL9jK8iqq5KzNzV2GuBtWqZStjOQ7OjFuQ5UKz8cGPTpGshAZsFnCkD4XyHqlsQ0NFVB7Q8C0FWy7qiKpl36F/3RRiPEvDNMlfWGkcz6P6ePlxyAVYqsZFvdJBe4NabOJEgl4EyDFKhGBiEBEYDsgILWpUy5kIEINUqvYQ6whotEodCzNqxyqJBmHayLkkE85EHCHhRM6pKuUCpasjoG0vAExk+qKbRS3i8c0kiac7rbcPE5YlSKSL7G2PQi0TfWF1UVUyOvWIJHG3MISjlJrJOoYssc/8iR9wEsags6XRzw2tw0514gRbkKgtVoNkm6SEQsPZo4vL6/Zkcc+ZK+dOG4Xce66fHnBdqVztgOJd/HUSdu7b5+VsDmPliQdm1VTpJwEhBLhSY06NmlWXqo127aKZ3QFyVhF9mwPQ5IHNy9hQ9ZLaetddS9EHSFnZE1ldEQl/eclVbzU25bWohDcyLnNFiEYS0QgIhARiAi8BxBwakDidPslZCCKlcTqawOLXMQPHCuC19WlYk1ewc4p7gjEIlVzIHPO4fAkrhVRSQUs1gkkr63iclltiHCgIlJpHrVxFmkzh0RbqQyRfCPnZLq0tmaz5y9Yp0Sc7+iErREbfEUER3aqRz/6CbuyhpMVUm4b1bXKAlLw4tw8scPr2JcJX4I019ZRJyNRj+3abUPTu+yV83N2gcWAP/Dpz9q+o4/YyZNnbHVlxXM8Z1F7ixRL1M+gpi7RtyxS7jDnWsQFz776E++vJGGG51hkGJ/GI6nfbebgJ1zCqavjFhiOzcB1TUhk/1Zb3sYm/5aiBLxJoGK1iEBEICKw1RFIlM1ZyEAZntxLGdJ0FSrkoBSV2hePKu7WSRg6JmCIf5x0Hao8p0XdfsYlX6iIfzgSB+Mn1XQGsmHbxB77+uuv4liFgxPH8mguI4GOjoxbCwKuLq/YwuXLSLcsoDA6ZeWZoh0/fZq4YBZSwA78xrHXcdyq4LSFFFzAUYtwozp23jbxSJLI5czVRSSVan0Eon/lhR9YCeJ++OAewp0KvtzhHA5ahx95xNZRYcPiPi55ZWvFJE9KghQ8xLEWVWg1lqyF53WWsSq8Ss/oyfsZUCQBe0yvJh2CA+lcmb6SyYjw8kkIg/dJDjiJxOXwJY/sHm3qeLMlEvBmkYr1IgIRgYjAlkcgSLuuSpU4Jj0sRWTiW5FsPxRJUqy4QtmuXEUtMReiUtXAIRJ7w4GW7eu01FbwOBZFy2EpR7KL9cUFO/mTV21sCDsu8bpau1exwJoM5OWAxSILGRy09syMWZW6I6lJ+4Wf+RRhREjMbSTfWgMJFQLERKxczkq64SFMELkE4jZtymNa+aOV6KOohRXqNfvZDz/uiTdWz521Il0b27mTCQBdpvNNVNiSzNtk15KntvoDW/skAdHcVc7KZ52COHuSaCFmjSkhYU1QhESwBwsEHYqgHZAAEneIvJnmsCe3Lt51OQHbb7r1WyTgW+MTr0YEIgIRgW2FgFbqcXkVaVUyrN4DY8AOpKbUsQjWU0yKPEQaOFF5HSceiEg2YxlCdda9g0W9kge1pU1IW1W7rP+bhzxnyD7VQRL25JSQeJvl/np4QLex+Q5hk92DbbbLg0rlUe7rWBH7sOy6GZZrSrPy0eL8AgRLbmYk5i7q5jrkmC8M+7PVVhl7sZYs1HKE6n+Z+xE5iRRGsh0e8uUFm3hZy+7dbqzh8YxUKtJWVg/E3BTjKxADXMJzutUaITRqxPuv0ciJTGMR6UoNHY45F1jYYVF6T6/FOSXsCDcLR9GuJGlu5rQrsdXYJksk4E0CFatFBCICEYGtiYDIc7BAUZCACFNcEOhFzkX6uYcdKbqeXHPCgQSV0MIvcF8oqkErnE/Lk0r7IhoXj3XMLiQou6/ib+tIqCLHFgkzOq2ChwupVhYid0eoIvmh6UKBFZMKstFCZi0k1BoOWqluA49pHLewHS8ivXaaHVvPrLlKu93ASQvb7tjklBWGRyHbmjVZVEFqa5FyFzG5JPM2EwF5W0vwb1sDFTaWbM4TqUz8b7DbFrm4Qj8npsjGJQmZ/qvPAsMnFn11sw+ON0m8iUrZnc4EjSYnkpZ9ghPulWpaYw2TGrW1uRIJeHM4xVoRgYhARGCLIqCf/sEiGyjHYh+Kc8bGXiBgXZaUK/JRrucg7WFnRfJU/aCCZs93qKemFNXDsV+nAXGx1LiyK8O6nllK7bYyLVcXr6+thkQdUhuj4m23yGSFBKoYYRgS2/GaE3CWicH45LQT8xohRg1U0lppqDDCsooQtZ5Zh1hX5q7YngcO2cjIqC3NE4IEUbfphBKBqFM5xpFjFSbdQ+881aTL6XhJ61iZseqyJzNhmEEi99SW3MsZCa8BCyR7SbSeipJzmiSEY9mBOeFFCITxpyFhycDegeSktpsskYA3CVSsFhGICEQEtiYCgRC8b06MQTqTk5BMwE4cqEpFFYPFyZcTuluq5YxUq4q9kSSsokNITdJyYkvWaT/0y1wjU1UWh6tJJMqFSxdtjPjbLGrlNmpkNaW1gJWaMiM1dkr24SbNs/oQntdadCHHggvyVC6SZOP8mTM4ajVoWU5NrGhEHHGZGN8MiyxI+mzS5vnZN+1hwpCG9+6z5eVFiF7Er/5KlS3VuZypxO+oihmH1gxudprUYYT0IY0IPrl7FyFPZVuDjJW4Y8PTmX1PtkFrCduK/CVlX1t4gKsQpBHg2Q6QUNHrzkok4DvDK9aOCEQEIgJbGAGRiNStIg0kObfVimJVku3Vo77iFNstRKL7+Kdl9ZxMIG1JuGonuBiF+xBrIetAOHonWZUd/sDjdubkSWy72HWxCys2tkDMrbyD5Y2NeIsjVJF1eIsQK3mjkXBr2HO1QMMw5HvyxKzNXTjnNtoOccBD02O2+8FDtmN6J9LunJ04doyY4Cu0nbLLp0/avgcO2sTEhEux7QYLPkjtDRnLzuwhVVIdiydRcUs9nEE9vUYazNLYiO0ijKmpevqnvgkrSfr6z8u9m33Wwsjd6ao/7o2NKvHyIgSSfZ3Q8eZLJODNYxVrRgQiAhGBLYyAiEAEAPNslEFy2Djp1RLq8Br+JmmuL+zCRK6ahohkAxYPexVvQnucZ5NFomxAcmMQ5QjSb5vVhnJ4L7eQLlVL+Z1TXdJCQrhygCrgGJUnF3MO6bc0XHbpeA3V8jwrGeVoa0QLJ+RxukLyHWGNX6nG8yVWPRpn2ULIuoc0u7Q4byNLI7YDr+dmM00KTBy62iyyUK+TSYtVkyT2I3XD1fB+HiLO2ppsxRzXSN5RJoSpo4mJxqZxaiD+HwlZEjH91rkkzMiH/A69DX5S79AjYrMRgYhARCAicO8QELXqdYsSOAdBTjvkZKaqJF+Rl/6JhuRQ5JKvqoiVkkI+50Dy1MS220SlnMfjeXx6hnV/SZzBo9vcIK/mHrZhljLCMEzKSeqKZEWKJci0TFgQXlBWX68TGVSxHTN7aTZj1VXW7+V+tbW6usJ6vzVPsFEnh3OXmUAWwtXygy1syjkl/UC6ztHWECsu5SF/SfJ0nGkIHemPT4swLJBFa5iJQmFo1GqK2eVZ0raHNJTSHKC25t7gUBVU2smQr90GfAcJOkE70ShcW//mR1ECvjk28UpEICIQEXhPIyAVrOg2jUoV52BUuIFpRcIiL12TW5JKeGfbZxtVFeF0+hJneWzCVpZWbYaVj7p4IauibK9QGqRbdmk2wxq92T5hdslv2YR8y6ztO7kjbedRQV84e9pXPUJQJfa3YOPkdz7z5knU27P0oOvhTPv27PPVl2ory+4ZrXSaGWzG6qAyYLF0kvdWz1USDnl3a23hOvePYf9tST2djKcvBTtRU19DEQHDxkKFjWRU1b5aXDqmDXdcEwgerhVA0V2BmMM91955tY1kLxJwgkTcRgQiAhGBbY2ASEA/+S7PQiLa6rjPmOxtFL/GUV/ikzNTT6Ir570VSAUZkH84OfESFas1b063qRJvXfS6KcivgYQ7c+AAXATRIakOEXKk0obV8wVij/O0RQhQFnWwwp6k1u4hhaZZuCFbZDEGJNTC0qKNz+yxXJ0MWpDzKbJlXZqbs9rKqud3Hhkft1379tvUjinPD12rsXISST+0zq/648sNQsCy97bUPtzZwnFrHSl8pUZIEyFOw6jJm0jOqqvEHm4JdrVzcLTC7A0OctYS+dKmJiHqr4+G5+if4px0kRIyXwkzaQxwAPOaVzEPtfo332ATVdA3ACWeighEBCIC2x4BSWdOpzcaSaAG8bA8eT2C10lF6lvuk5MRVZTtylWyXEv+hTZ1v15SCWMHxvY6vWuPTe6asStku8rnsdcideJt5QSoujlUzzkPEcJxi1AkOU0pFErhQSlU000eeYnwogYq8cqOnTZ16BDOWNPWJIb3InbfNYh9iTzOa+tVck0XcOYq23pNiTlo3X3ORI7KRZ2HhPvPYkJQZW3gttgYup0jJaak5R426o1xuROWRkc7kLHvIL2LTBMEg2papBzU1JKO1Z4mFRleyjymrVJdhgbYUHT/rUqUgG+FTrwWEYgIRAS2DQIbdEGPRRBiJQUY3YgGdI7rIlb0rhknYdWFdMVBXFaCC78fMpJqVgQl9bNvIWnxtVS0nqgDp6pVpMwa6l8teL9SW7WJypjXzZGFw+vJMQpCVH9SSJ91HLYkbV68dMHmF5dsltWMqtz/6Pveb8Xhig3jkFXEtnvu7BkbnUK9DQFXZ09IaLeJ8TFXT7eaJOXAMUtpJ9Ufta2wITTd1mV4dbJodZt1bNGES0HK6pvG4uKxk63ie0W2SMzaShr2gUG2YCgsVALx+g7zEzXQv+CTFYhYndLpjXLNwcbZ63ciAV+PSDyOCEQEIgLbEQH/zdcbrz4/XGWF5ESfGHoiZ159aTdRnYarQfoTBUkNDTV5MyLf0F5oy2+FuBXXmyXZhcKKVqtrVoZVangkDw91sP2W0EMT/8udUvmKrJWCUtmy1O4VFkV4c/Yka/4u2TIEfuDBBwlfytuOCRZtQDIuUPf9jzyGE9aS1bAXr0DUl65cQcqet13VaVTTOF+l2mTiGodYRfRIoYUMSw92fPnBBosx1Hn+Amrsw48/yTrDu62KU1iOyYA8u0XUwiqFatyZ3Q8DCavP4bJbg8OBV9bZq1e1J+297OXaD0V1bl80HYklIhARiAhEBLY7Av6brzdnAzbQgSQzl4b7531f1OrynVOGBEHlQO4zjO4O3tG+h11TEjBtiVw8/aKahegkKIakGqwEBKmN4oT1oY9/HFVxDZJj+UDIWDblNJmn0th4JSVKxSv1c6vdtivYfGdPzULWa9ZDVX306MP2viPvt107ZmwUyXeYe3KQdhEVdBki3jmz0w4cfchShCVVW3W7ePmiXbh4Hk/p1WCfRg2sxRWgYJyx8ramlJU8h+UYLFshH/WDh7EN94dJP8IYOCEAhAtqakGmiYZU4x29dMz9eqFT79cTEiL7gIOj6fvCMbTrExvdc5sSJeDbABQvRwQiAhGBbYGAeEElMAM//6IGCEY8sHFN+8mB6vLqFxGSrrmKlV1JqGFRBsnBqioS1h73y1upX4JXMMQKWb7/gx+2F5/5HiFEK7ZCC5Msep8vakUknK1YQKGFfRclsV0mucYbx49Dvg3Cgsp2dN8ha1VbduyVV1ixSAk8yBMNgaqnoyz0kEMaXoJwi4QrHTn6qC0vsRbwmZPWJEe02p+e2YfdmcUaWqicuUskqra7SOZV2lnBG1spKGXTzsiDmX+aECgjl08MqB/mIDqvq8IijFXkG6BR7DD3uhqd66rjpb/vuPdPbXITCXiTQMVqEYGIQERguyAQqMHltkATziCiTv27WgIXyxdYqmTOU89twJwJJKRzvOQVzVZxw064aoe6atYdtSClGmkfMxBegeUH22vrrP2QhfzWyI415p7JEi/TxPDKzqp8zWN4M09AtqPDI3bl8hya6o7t2LPDiiNj9uAj7yPLVcPmOT9Wrth3/vzP7eL5i9aETNO5lH3ir/4V273/oNVQYSvRxvLamscW41uFRzbOXX1nqAyS8ByS9q6HjlqZOOElpOUii0Goz/JmlhdzKIxFA2SC0WOs7unMWDU+hWiJnbUfwABHJhI69FvADm8zXrTlUjJXvC6nblMiAd8GoHg5IhARiAhsJwScGOiwaMFJU9u+fTQQbsIOgYpFvD08k5QFKjgocZ4bdTWoafst9uuJSMOdIl+ISW1zr4g5S8iRsmK98ubrNsoyhPPYbgtkwFqrN5FU85aHGJXwI4M0PLFrmnszdvKNN+y57z1jP/NXfsEuXpizM8+/ZD/+8U+IKV6EhHshPSXkLsLNQ+qnTx63P/nSF+3nf/lzEPXDNsv9svNmOoQfwcDrOF7VcbrSOr/zeGSnee6DEHDHPZ+VEUtkqsmDxsULL2j3XoY//QznfexcDWe4x4GTdKwJCGf79/aR8Zq65yoy4U6/cIu3SMC3ACdeighEBCIC2wkBEULO1/ztK6CR8NJylBJhQJbu1axKTs8iDCQ+pFepmuWRLAbWerdyaJKUpyJts26Bt6gvomXLm285I6trICU9ImNHH/2gvfzM95F+yVTF6kQLhA4ViMHN4Rw1hAo5S4KNYrdCuslhWyU71erCqv3sZ/9dpOMhSDJtjz28A6erZRuayJOOcoQUlEO+qIP6BsUTPywC7FmFdYDVj8oo1wlLUtjTwqXLjAWP7Gqd8KeOLZBJa3h8BBX1XldJy1tascs4bdMWRZDQlvAI+bM5RDLmQFddWpf9W7bdwSLJOTklMg540L/kpO4dvOEm+5GAbwJMPB0RiAhEBLYjAkosKRkuCxG1WDhBylJlhJIUDLPwCgvwKdWkVizSqY5Usuy6SlUSLffrWJws2tOBbKs6UiuhqIbyRLPlnjTxtfX1ju09dMgmyNO8BImO7q5YjrSTddJK1uslSLFuJZyrSvkhlyrHJop24MCDdvr4m7b7wBHbMzPDMoUtG0FdLG/orCYH/KtVG3bhwmW7TGKOc6eO20MffNQmccqqruN1PTpKLHHR+9Giw3K8EvnKyWtubt7e/+BR3J3BAik6j/ezPLE1QnGvS/zs+8ggc1dLc6wznhFLQ++TqkarerrJT22QrY6Z6MiZS1BsVFTlW5dIwLfGJ16NCEQEIgJbHgH95nsRKUhihUw8jhfGECG0CRUKhOIUIp6ATKSG5VhSr1NOOCdpWLHBuk/5nL0uUqPTNwdSV4tpROgd2lU7Injd0CLmtjhcssc+9FH7xh98kRzPBWJ0ScKBtFtDNSzPZAKR6BvVaUaPL7JAw8qVZTv+0ldsz/4DdvDIYRtjpaMWz0b0tcX5K3b+3CVyOS/T/ort2rPHpndMWk9LHooSmUUowUeK6powVAmBarE9O79gnWzJHn38w2GCgTe10l8qC5YerqmExibfZjGqxqcxa/wopf2aX+eaxhiqsRXG4dDPaRyDZeDS4Okb7kcCviEs8WREICIQEdh+COjHX569imsVaYhkkM2cNKQmdXZ24oFgnDjCNfe84mrgb86hhk0pzaO00JCvqoqylEFK9lB5Dqu9rsgbya+tRRcg5AKexlqD9wMfetKe/vOv29lzF60DG2p9YEsji+d6tm//MO3gKMW9KIM9icbOPXt5Qgbp9k27cO6UjY6MqzmScYzZ5YuXrDxSsXGybFm3yKINO2x6904Pncoxzktkt6rjwDUxMY3NmMSZTApqxBstrVRtgtSVSpW5jLOWlkHsiXxpV8k6NH5NSkS8wi0QZ1Dda6w6kxaOTsAceqHPjDc4bFGHm/zecHNSadPbSMCbhipWjAhEBCICWxMB0YXKhjQW+ANyEHlCqGKzPtXIRipRT5xBpKuTkK+HFBhZJ2knKJxlF00UtsqL3PEHkCGakKMuZKw2tXUSQgqWRFyrrdge1tz9ub/+y/av/tn/ZFOEES2RCCOf7dnuveR6RgUtj2f9Uw5qrYykRRfUyPTuPWSualh9jRWSUENXxoftoUeOEqo05Bmv1qqrNrVnyoZYqrCLvTijlJdMEi6cO4+ndYE0lm1bqK67tFxrNOyzT37cZmZ24/285KNfW61yT9mzW2fljCWX7w3QGE4YidOvjlxOhoAdK3BJVPZi7z7EXNPVuyuRgO8Ot3hXRCAiEBHYMggMUoCIQfmdnXidPBLrLcSLTThIwgl9QM4USbFwqhjHX16He11bK3U0xJY4ZrUhTSXgSJ7psbGQWRP7brFctInypJ1Bij1/4SLxu8M2B/mOVro23CySOOOKrSxDxrS9BzIWAWfzKZveOe2Su6TlUaTeyakpX2pQ45AX9cLiIjbkpu174ADOXEilaYgfElwn6UeT9JWl0gjt1mxpbZWsV0u2jsRdGhmxL37x39hXvvpVFmLI2Sc++Sl7/PEP4fi1YkXIWvHAHdnBfULCwBmDisbuUi77mpNsSLs6Bifn62TwnBO6rsZm/05LJOA7RSzWjwhEBCICWwwB8aYXEQMkgaHTicKTRohFINdQR17R2pPcJnVyuE0bkZ2vD+zkwhmYRtKvmFYkI2lZGazUkier4LzISupkScQjxO+eOnPKvv2dv2D5wFP2w+//0MrEBZcfHLYGBFqBnFOXL9kkxDiEWnh4pObSr1guU0z31crkdNY/+tKC0DOotButKt7QrDeM3TfD+r/yztY1ja0K4TYh216qaV0crJZWyEddw/u6NGRrl5bt2R88w3rFPVuot+wb3/imff7z/xD1+BOkqVxzW7CWKZRNOCTXkEq9AzFrYJAxG+kPXAHPvtuJ/RyX+1vhokt3WyIB3y1y8b6IQEQgIrAVEZAER7+0SpHUw1LRij6VblJCbmLllCOUyE8kLE7WC9k2EDcN6B4RbNfDkSQdirwD87RZfrBN27IF5/BWrlSGiN39sX3xS78LOeHshE24y1KDdWyyi0i8+/fMeFaqBs84d2meNJOy/abcAzoF6eUJUZJaut1rkXaytEGIrW7DbcplknHUqhA2z5EaOHh6Z2yWPNJNYoWHpvJ2hsUc1liVqYtE26EP03hUT7Gq0jrOXBVGtri4Yr/3+//W8uW8HTl8mIUZgr2ageGVjToaIs4wcZFDmezcwSFLSF5VMm+QMWfpxlsukYDfMoSxgYhARCAi8O4iIJq4WgJJioVFIhLoYDRnWJGX5NrgydynEEhV6lz31RJZu72YLZXd5omUqDClbrfl6/CqLa25WyE9ZAtnJ3knP/O1r9rLL7+KKrhiRWy3P37xR9ZcVxxwnnayECsZqggvqim9JHmj62XSU86nIN6y7WWBBGYK9BVahbBXVrHhXp73cKIx1gBu4wzWnerYMJ7UUl1L6pRjWZXFH6qopS8srViKDFeLhB0pJGpy524k5zx25TGbYTnD51951fIVQqGYNMih6g0Sd5yEuJ/65Cdt5/QMKSxzgXTJUd3AgUyEm1PaSlGscHsHSyTgdxDc2HREICIQEbjXCHjWJhffeLJziCRXEatUyWJjSchOL+zqjBaSR6qUREylLJKg2mhhW23hyKTzrojl1jLLBCrn8/yVeZYJPGcnZk/ZiRMn8HRus9g9KxI1IDFWLdLKRXkkY92czxbh1xTSMCSOurpJTG+ZxBzFyrhVseGmMjwTwlQnS7S/DnEP068WamNJ00OVURsf32FDJN7oQsYtSDrLPZ1628amdtgSCUbePHWKRB6qO2RF7L1pMm61WF1pF+kuy7kiRCrv5x6TgAbS+oidO3fOvvzHf2K7d8/Y3r177fADR2ySukXiiZWmskE4lZzF0kjpwk0IiJgHy7VHg1c2vx8JePNYxZoRgYhARGCLIhDoQO+etanvxexaZpGH+AMmkTI1KKiDjVMELInYFczcrExWbZbwU9rGLARUQE0rd6saa/GurzXs2Mmf2OvHjuFgNYfTFZIpD8jiiVweKqAqbjhH5SFXqb+VECOHzXYdMh7av4c8zivwccfWsNNmEa3n8WTeTbyvnKiGRstkuEL8RgodIeRocnKCrqWpuwpZF70fDQg1TUINOYN1EamVYWsFyXeNECOtLZzPVWwXHs856mRRf3fZDuM9XYJ7qxD38DArIhGWtFarWxl7tFTax4+fsDeOvW7PfP8Zjz1+4MEH7ENPPG4zSOU1koc0iSlW+JK8wWUjF5AiZM9+xVFCwuFKH2bOb7ZEAt4sUrFeRCAiEBHYsgiIYRMCgGJxUBI7uMlWaltYo4tjUQbiayMdy8dIGaEUeys1q/Iza5lAJe/IY4PNQl4XL1ywMzhVrUKYl0nxOMc6vFq3V7G/cvIqsxZvC6lWals5Z4l0FYerh05MTdpFQoNY+cCWlhaQgo+yLCEpKMsj1sPT+fyFs5aTfhsSn0DqHRsasQydarKoQnNlHdU1dXHqmlbsr0vNNWujwu70yGbFcoTqeRViX1qt2Vm8rRss3PDY4SdsCLU4jG5DrLC0iqS9rFzQxB43SU158MGHbPfOPValfTl5sVqE15PTVZv+K2vWhfPn7EcvvmDve+wD9lc+/SmbGBkltzSrKqF+zyBhpxmjoJUWIMmQJeRd4QDe2l5TwsdyzanBg0jAg2jE/YhARCAisK0RgHwhgaCGlq1Uymb3K4Znibx1jytleZKLleq14TfRWQqpsATRdFEtn7UXIKFXXn4FFXEdCbfgjlaSiEssfN9EzdzVQvfYX9Np1uzNoD7moXLYEnFLyt27b5+deP04/Cq7ccMuXpqzg/umcXxK205ifRfmyGw1v2Y7J3t2+uwZ2zExZZNIqHVU1R0It0z+Z3lNU53JAtIsfVCKyjYThAxjmFtc8r41IMI24z1y+CHbt2uXLc3PI0GjCmdImigsLlyxZSYQIzhjfexjH/eJg8YshzQ5kEkl7nWlKmcN4pHhMaTpuj377HN29ux5e+qpj7vD1jBqazme1Rm3ODaPDdwWoEuiAAAxRUlEQVSJV+Jw2OtvheVtWJcaSYkEnCARtxGBiEBEYJsjIHJAxoUkAqlKXSvGkNOVUy6Sq3s743EsKTCPijkP0YkoT5w8ac888wOI5wK5mxsIuXlsqgUIWFm1QuYrOTKJoAqIgTnCfggA4omKgtVD2FfjbPPE2X7gQx+0Z7/3fUKOsqxYdMIefeSwzV84bzP7dttDjz5ix195zU5dvGCFwn57E3ty6uB+WiMMCFYaYhGGHIQoMvdVmnh+DtV2FTX4eXJCL5DW8gwhTafOnLQd2IEPHzlql5Gqp8Yngkc3kqocrV79yetWGZuyT37mM1ZC5V2trtFT1OweTkXPmTBowqJuCwM9T05o47RTx2Hsy1/+Y9uzZ48dOnjIHnnkEbJwIZFTd3296v3yjFregJ92NABjo9D0LUsk4FvCEy9GBCICEYHtg4Dsu57pCsJyVmGDmMs5qaVl34WcIZDykKTdNurhJXvj+I8IIXrVzqHKVf7lEiroMirhdYi2jXq5ozAkbKAic4XoFLSeLjZV94yG6JWuUUVqb5EnN6CWbtsunJse//ATduzllz0E6NzpCxDlIZt98xhLCx6w3Q8+YOdPz9rs+QvYcldsfmHedqO6LkGQIt+dvCRVVyFbtVeHNM9dnrdFSHRudc0usjDDFFLvvv0H7QKq8t3ECVfwwk5livb8iy/an371aywGsc8+/KmncBCb8GUK00rTiao7hfq5xRh6InhJwmyDnoBwLcaxyiIPedTgOdYrvgTRn0U1/czzPySr1k771FOfxGnrsC/u0EQi1r3y9lY7CvG6ptyGgSMBX4NWPIgIRAQiAtsbgV6vnwca8nI7L8Sg0oRQS9hIu6htZ0/O2g+eedbenJ3F2aiB6jjniyJkeqRzRBIUEbdRTYvMM1kIF/LtyCPaWtQrG8pniF3vWowhqL2zeAznqVtvVl1FW61WcXo6QChTyl5/6UX75je/g5PUtO3DEer1Y68SA3yE/M0TdvzVH9ulS5cg4EWbX1q1g9hpc2y7mYtOimnITSsr6bWIM9iPiDdeZ1KxB6lUUvjlM6dtxzghRzN7CT8q2te//k378le+avsefcwe/ODjSMAkAmG9YIm67oSGzTeHp7d7htOOJOx1VNAhGxiSPseaTHQIsWqgKcjjVT2KPboB2Z4+ec5+88Rv2RNPfNCefPIjtmPHDvqAoxqTmVprvY9FwFuCsZQCtyqRgG+FTrwWEYgIRAS2AQLX/M7LwQgHJzkJeS5nkSe2zgoORbOzJ+zpb3/bzl+8jNdyC7tnAe9gCJZb5FDVITdyJi3VL6sGyeEIgpLDkcKMCng0d5QCEsWzbkhDUm2uK3uWp4ekDXkK53C86rAc4DAZrxSXu+/Bw6iZM/bGyz+23/zC79vf+pufIyXkE3Zq9rRn0Np/+Kit4NG8PHfRFt+cxdFrDSJeIEZ3mv7lsbu2bRV18Apey0srK9bDFj2JRFuHkBs8+zDLDT549KidQTX9B7/1RXvl9Z/YI099wh549P2QKUQrsmU8dNVJWMpi2b1l09UpxQHLW5uLTFi4ytgUNiVv6lweyR+JfhkJXermYkFhWE373veeQWvwij38yMO2f/9ee+jIEezHI327cnDQkvQuEr5ViQR8K3TitYhARCAisI0QEKG4J66TDWvgdtaJmU1boVSwv/zLb9vTT3/HSTOLpCrS7BDqI89lkazIWCrnNgSjfUmEIhGto9tldaQOhOQiHUwmaXcdZ6yEYdqQeVjsHgcniBkewwEaAocsl0iQMYMqWAsuvPbjl+z//e3ft5958gNIkI9bncUVViDSsbEKHsn7qbtsV1AvLx5btAkk4qFKhdzNy0i29M0gStTCGezWBSTfw0cetP0HH6AfTfvq175pf/qNb9jQxE77pf/0PyfGeARJnEQgmkSgAWhCwCJUhuPk64tKQM5a3UnJRHQelkZ9LXs2DloaA0Ss02Ju8WgLKVrJQqSSH0YibtP+Sy+9ZMde+4m98PwLSPQH7ed/7jNMNjShoS3Y19tVGzcpkYBvAkw8HRGICEQEthsCkrhS/Ph72klsnJLuqsTP/ukf/b69/trrSHRDEvRISBHChXzpQicKEmRAqLlcCYkRr2NIRy8RsCTILHWUhrIHu/OOSrdF3SxEnPd42ZZUuHCXyE6knENyVZwwrGVl1N6yG6cgww989BN24NAD9oIkyFdftwcP7UeNO87KR3l39pqanrTivj2EKmGbpW2asgkl18AuXSChhhzCxscmOM7bCuro3/ztL9nzZODq0OejH/6oHXn8SasRE1yHlKVW78jOixe10mUqo5Zsv0HVjAMWJKv+avLhoPAsEa5IW/Zy2bmVOSslDYJSYDPyNh7UVLM1wqVUtA4xIrldYe3hk+S/Xltb8lAtSctXJWCnca9//Vsk4OsRiccRgYhARGCbIqAffcW1yl45QnztJRyVvvS7X2I93FUkzHGkWUgI9SvUwwjljBQIyMOTnECRXVG/SgIUl0o69GUHXTcr6tV5rksYhopqPEdZpwok45CEWMWeLIrOotLNUkkJqKRGllSeJ8wpxXq+2emM/eIvf86WFpftjVdfs+Mv/IQkHE1INeOZrESIiuOtQNoiQym9sxCsPJZ1bX29ZWdYI1iOzKPTO+2hjzyFCvpBS3P/0jJJPggRKvIsdzijb0oqIocrTTY8rSUTiw42bvVLRKnrGQia02gEJOF2rQT5K8RJ6w13qSs8VZehe2ISOZ5JytU6x6sk7EjnFMY1bOeJfT516ry3rb7eTgqOBLxNv2ix2xGBiEBEIEHA5VIIRF7KStUoNeg8sbK/8Ru/7hmqcoUh9yTOyJsZEvFl9WAcEUmadXpz2H21MpBUyVA4HsCiBoiJcxlIrN6oOUFlCS8SIUuy1ioPHRY/kNiYkpc15C9Cl/StDFId7quMDDtpuhIXNTYPZG3finsfTyKNT87s8vSQSyTBWEFVvUKfu5DaxaUqz6+545ckzyLjkYNXHu/tMvHCH/r0Z7AR70a1DtHSjyZk1yM1ZYmQKhG24qAlufu6wxAl/xkz42RisLZWpU8QfrHgfVP7klFda4CqWp7R8m6WLbjZafiERkr1Dg5ZWo2JgYKB2tOdDF9iOhOTBnHRjaJU3jreXIkEvDmcYq2IQEQgIrBlEXBPZMQzJZbIIC3Wasv2b37r1zyvcgaSVUrHPCTcRIWqdI6ijpZYhFcaslLO5Sz10DVDPFI/y4apmFhYRsSO6lbxsQWkRkmPUu0qDKlcxKua8w3yNivhR6kMqSFha1Uh5WVWCJFUvXnUwVTwNtLu8EQmK9S4XHIV9cyB/Xbw6ENIwl1fU1jZp2A7FnSouiq3SAywCFF2Ztmn9UzZhleXakw2ikjMJbyVZcNGRcz4NGmQOlhpMN15inSSDWy2in3WQgtZbN+qkyGndJpxyutZ46Y7eEgz4cDurefleZ5KStjIkQswpLbucug0Sx1OgAnSMPfXSRaiCdBmOTi07o+IbxGBiEBEICKwnRGASyHPln3hC79jl7FLFspjTsJKuyi7bRHygtkgXGXDkoq5iW1V9kqRiHI7QzCQZYiLFSGR1gOOKWCDlfJ1HW9kSZGSdD3ZR9DJQlAp2kGNCxFxs6uLReJqp4d0mofU1LecnsWxGGpknPSTELVIrQVxriM1SyJvQ9o6loStyYIIsU1b7ixGKFTOw6lYzGG4bNM4W3mGLOzNPp8QyWN3liqeofhW41XRRGAdu7G0BLLdSu7N0uc0zlfqW5vxD+G5ndVEhv5pgqFsmQkuYXlHJjBc01KGWrlJxCsgnZR1H4daG7lPzwNb9eCnSyTgn8YknokIRAQiAtsKAdlsOxhFpVb9sz/7OlmgTrEW7oyt+mpDKRyxsFNCHBlSRyqnsdSsripu1yXTub1WatQ80qRsl4oVlopV6tzgqMUKRBCzpEY5JdWww0oKzXKsc8USW0ipgQNUm1zPctCS3VX9Uh2pvRXKpLbhP++HDMPZIi8mA0XyStMhbK1IqThNKRmIyE9EJjJVlqpMhj4Q5ysPaLWrCrJdryPZ0k0Wf2j4hEIEKCcq9VsOUgojUsiVbmlCsm0ctCYZpyTWLs5ezr6goCUWhaHaVIiSVlcqoHKvN+mIsACzDhhKks5D2iJyqZ+lWReBF8Deu8wbp0Ozt/kryuzff/Qf3KZOvBwRiAhEBCICWxgBSXNSI6dJlNFtLYpOXGpUl0UKBVTF7tkrEY0iT2A5CGUgsxbEBZeibkUahLRkT3bpk/YUR8sRL4XlyMYLObnUJwkRMvV2YFTakspWywu2INo8XsqSlAMBi6ggMO7rIDWqNRoOGx6s/ulaHck3SK6hbeWV1o3ysC5h61XRZEFFKmOdX1lbdbJsQKoKoVINqYDVuManvM9NlhZUuzr2SYSYmPHKqUvHkmSlltYEQeQdPLml1EepTj1J95zkmBSbaBAyMK7GJZy07KIuCzs5bymsaWW1jvpbyU3Ar0/G6vONSpSAb4RKPBcRiAhEBLYNAkFKdBUrhNBsakEEURWSrGgChpA0KYnNVaUQJ1QUSAkyybFer5YgVGrKXgdiEXFxd1Azy+NZKSZDQgqRLk3TPi0jMWpBBktDuBAYj/NY2zQkLYbTCkmySaO/dlVzSarrfCAvbrI2UiQd8b565i2k1BBDixQK2UG/SJty8iLmGFtwtgChw2gogS2DhOrjgghdmqeySFBLIEoSTSNVK/mIVNoFHMqKvJCXUWOjdiazlSYcctEONBvst1nsxG4PZ4xF8mCLPLUmsezdGSYUBdpXHmwtTyhvcnlUC/MUEn6W9lvYf9NgciclEvCdoBXrRgQiAhGBLY5AC7WqMmCFOFiWCdRqQpBqCtWwGK8n72XISRJx2p2sYCOxDceSIGW7leOSiiRHkaSISltlx0rBwJKcO9ias2UWZICwxGiSsqXGVZG9VCktMxCZyFBESjSuq63dKQvba4frXREYfVPPChCbVNRyDlMcsTtd0SeRpWoUZLelbquhaYX6IJU6kjl9lYq5WCJ3NM5bkoBdBuaa1MNBclfYEJMSTUY0Ni64xJqMiQ5IJS8VuuzSckaTRJ3lmVI9+zlhyDVXo3u/NU48xplYeNpOeqXUmIJssyUS8GaRivUiAhGBiMBWRMAJko5BEJJM23j4Sn70PM5Sl/KvCSnJOUuxr1oXWCQhr9//v71z65H0usrw111d567unhnb4zjB9jghdohQjBNxEyELJEPsJFxwhQTyBYj/we8BgQKIYIwE4gYchAJKbCdyPLZlhA9z6pk+1Lm6eJ61q2Ym4+meMhJWd1i73XX4vv3twxqr3/2u43QOk+RRWZ2g7PMbC/DVm1rvZ0FPCARzaAAeellZcZ17Y0AqZuC7ymSZd9iWLVnIfCAW9wEm7uvcZPnCUN8yJlZj+hgyBOALtAKmvwC1ttgAThjsGmFSJtAw85SALj/X09k1jQBcAVV77wDwNAVmALee0qiDdaDy+DAgREn1MRuKCk4N5OL+ndd4ZecaoAIPWXB44BxAk/W7BVbqIYI1dTqboS0YY6tWo1C8p5EZ6ymObPGgD6/UEoBXElN2SgmkBFICp1sCwSMBVhNiVACdaSZVRMt+I6wIcJON6iAlqxN0TFMp6KpXtkSfKuACkAVQwiYLGslCVVGP8U42Jnc+5TmeDY9f0HxNIy9zW4ZQ9ayMWUDSDiqAr8PCQwUOiDuWjlv4C0e/YNuMofo3Em/wfgRQGvbEkYIxyGKlipz1zQyjAhBVbwumwnvM5xqYx1hk1ecz1MGCYpmHCbkm4BrD6zo8bPBEgHTEOtO3uU62LtYcntx0FZw9CCyb4ysPNQvWJfZg0SAByXRC1SjG09krYqxF8RVbAvCKgspuKYGUQErgVEoAsAALAAfeBSUAwsIKgqoq16HMkA4tPH9BHZr1ek0ooYMTQMKzOkc1YLyRtcqBYMl6DAtCDdTFI0sTAsSG36hmNfxGPHN8AbWwZMOanInvPKcXcYv3gR7FeDBPsL8K/KaFHGGrlp1qr7W/3tayTVM9mkWr7VqLIjnAzs2treGFXZe9w7WZvIQ5wT6Zg4XEvlS9w7W5B2AHWMuquQZLVqVsqk0PIGPst4Jnn7Akx9Vp7Ahv54jhdSzn42DiPqyZHHmgmXdGljDlFR7lMGR5uJ7RNdXjHE5M2VlkEYLm7sktAfhk+eTdlEBKICVwZiQQ/k/87Vetu656F69ovXstsacTkiE+2jBlvbLUEWzV1JWCoGrlGSxOdii4BaoDQIJajRq7FnAwA5bFGQRjIUZHLfHK/noHW6RBkNKe67j9wz3GdkwcoLBBt9tdsI2ZBWIAWsV1ZK1iHtkqS4hwJg8Eji/Ae2DQntzhWeexGILs3XNCeCzTp8V8U8B/YFpIsZhnZLqyeh2j6rBo44nNc23sc7Bb9lmHsft5raQHC3m1UdMPDvFudhj2J5NWm9Bi78Yij4iFNiGIKTjDyczZOJAoL23kwbRDog5wcksAPlk+eTclkBJICZwNCYBVgpbQKkNTZTyF1enBLCteh+lNZXGAXzgggWCCixAXqSRjlz5XnKgcS1CdEMajMthsVqZwVA0sM6Qn7wAuzFa18Bz0r9WkwzBGAEnHKFXaIuKUnNKNDmptfmTPxVPaEcpc2lIFy6hMFLZeXLYaQKAACGjW1ye3qxsZb2zGLeHbbFr2MaZX+3Owz1AzC+YeDlS5L72enUP1eInddX3WD7ZPiWk2dIv9APZRNxk5KYvihMUzAK7OZO69xD/jtEVfzie6csfefA2Bhiwf/BIg/+Bu2SMlkBJICaQETqUERFCaPFaAE4QENAFDhqilVK9kyWQBW66oNhWguF+cmIpKWjurNlkgFTQXjEEgPkaYEcCmilbAUg3saKamNFuVHsle0u7bjBhgQnMITQLiAVVtzcVpSjW0Jf9a5HPudHuMa/IKZmOtMS8gKrh18WjWoArZrXqbvQBE16v6mu6MaRgQanMA3rEFdVl9lzzT2qjtxBZDFiYEAZ4Zv8jBecI72y2S63mNSbThKjfH8+ChrdgDTJcEIbJd9+qcsnflqlpedbzyVCUf8cQ86YFmydodJhZbPtz3NRnwfcWSF1MCKYGUwNmSQIDv7SXLSgEsCsqHzRQVsCASjbdQUQf4alOVlRoyBEjzjCxRIEKpDH4IOKpgA5ZChSso+4wq6zEJMOrcV8WLsjuAzvnCOQsnqzVVt9h5G/Q5QD1swotYF+Clw1V4UaOKltVGMQcBFRDzutivzbePR7VFINoApkcMhgyb9AaOZqq00XjHWDPWMiZVpWrxDUoXCrpmslLdzSXAG3suBwZTV8pcBU1BuoRksW9AuEmsMW8k0tgP9m6olYk8mjBl6wsL8trPzYA1YK6ibSApCFoBV3fEAQTRrNwSgFcWVXZMCaQEUgKnUAL+wRdJ+Msf6lHY2ZzKPQKCl2WyqlsryGMNoFR5HM5T3qOF2lY27C/qXu21ss3wCGZMczcLTt6XZVvmT8YLSaQVtAlPaj53u91wvjqi4pCxsTo3qYaW1W7CnGXLgncAJQApINexLQ+xy+p8Vaesn5WIHM/wH3n2OIAbNbFzyZDpr5q7diTzVrU+D2cqoJnxZc3uD8Sl/3y5bhB4yvUDSiBqP/YQoWpZFbo/2qyH/WFFUsuqRz7oDvuwyerRFURtY9NzyvgNs/J5NQERa+04IQzGpY82bccsklkIOUb75EsC8CdlkldSAimBlMAZk0D5cx9/9QFc42bBgcIqwQBV0F4TJ1RJq3r2CRS3vMJmF6CijVd77hgAD0wHoIyrLWpnczHLGoUN+DGsNVTcgN1GrRmezcKNYTzai2Wi2pr7xOrW1ombZV06hvEQQGZFIxgzi7y5txfgukm1JsG/NICez0vQn+Mcpqp8wvq0L6sW9lChB7KFFTYEXD2guR7zcwiJQgqqnxUE/6mmZgkR86w6WvtxeHZ7sOC3DQiPKAhhiJPw7UFjRszzZm+bA4LOXUoOGzF7ELhryEEQd9BSLYrnQgWtbAVhm1Iun+LrPS8JwPcIJL+mBFICKYEzKQH+zof61xhVwEjAkXmKxLI2vX3DpgsK66kbzFdwACNKCkgdp/CYBjT1KhZkdIwCiuM52Z62zzXUwhMSUcgkVTpr3R1M+gHU/b7hRiW+V2DU1hqFHQBK7c4Cqupv12HJP0FU8DMcKTJYLZ7VcQw4ZR4OBPwItOG8hV24BQuduQfYrgB4NK+FKlqGbE5o4c5fDw0zknjEN94sIqFDl+DPcJRL3Iy9e8CYAPbOKfMVwHXcslmVyft6OSsLWbqqd+VnRjHB3R+ZeLutF7gHHWdfrSUAryan7JUSSAmkBE6xBPijDxgEmKFmHmDn1HYra5RVCnyyvQJMBUDW9HCG5fFQ1YTF6eAkAKs+FWgDcAAx8AYmK+AAQthO7a8DlEFOqoIdX2ZsrmZB2bKEOm2pVg51Nggd74CTmS9RHgfvdm3tNs/R37Wr5rbF4YC1hRoZ9bWpL7VJj1UnuwMAUQbe6XboC0OHpY6wYQ8GFpWYEUPMIQH66/o9WEwEfPYJNAYjj3ArgZWfYM7avgHfqNbE4UU5KMc6YB2hRlxzfe4rHL4cj2cDaFmLxSnC+UrgVcDlxQ8PbAnADxRRdkgJpARSAqddAjI9cYKi8ACfzG1GoXmyQ4TjUbA4YCPSKgKEgo0MsQ5DRLsL+wRYARYuBWgPcDzS61cgEpCFvIjdNaYWRFZRXCOmWGCSKbcoH6iz0gjgFxgD/AmBAgbpgtWZcXiJcKQxDkuyTJmydYa1B4ejFwBrvueSOxqHJxmnoA2oWSnJ/NBir2xVXTpTh4PX3sGteL4FO13DMasOmIYTGOA8JStYG1Zbw6u6f3iAChwtAIeHsGkD8iPkxPJDrazsDNFSvV3SdZbMXCYrKYUXDFMq3tLa2t2S7Nx82jpyuZdlXLD/Fqu0BOBVpJR9UgIpgZTAaZVAsC4wiXdBxOIIMtaxXru81yOrlDf1QMZ2CrCqNlaBHACLs5QACOfku0ktyFQFIM+I3RVYBV5BqzhTATrYfmt8lx3adNgyj7JgF6pvGOutvQOAUJWsiS/ki4wBetYtzgBwm75RABfkw7nJ+rwAriE9nbYqYkKesENrS2ZZwV59voRDWTd4AEvHgYsDgYzWXM0RFsQ+9ETGC40xOHAglH5/Pw4kZszqdjpFRU6XoiGweALrQx2u7JRhqND50ADIPbgUjUApsuB6ZeM8zW9RgZec2RwoGCMOBp4SVmwJwCsKKrulBFICKYFTKQHJr5izWJz2yrD1AqZ6MtdVw8pm6VOnbN60T4iPNmF+LV6g/VW2GWkgo2yfxRMA6w5qZMrxtVEtt4iHFUZleCbecMyw5zIXw9JQ/XbwgAaMDU1yMTUcs2zzIxJ5YC81p3OEG7GQYmeVaRbg8rlWA6bKvOEYRd81GHwkyxCEaxwoYPZr7MOEH4KiNmSxbpNQpBEseh1G6yZj/9yPHNjsS1ut85gFzOZ6jRVuw4pv7e2zvhK/G+MD0ksW2wKsh6TMHOmFjQy0HXMWiDnjwOJA4LDe1+ENjSzCds0hYNWWALyqpLJfSiAlkBI4tRIADWBweiWbyWkyQk0LAMvWwp2J8B4dpmztVjtK/slg6/aXLcNyuzhemTxDx6YNmLIOUKae1CFJQDc39BiPZmNi56hpB/0+YKYHNGpYwE21rOknjaU137IxtzLQdruNihZGzRihGg+btPZnUkKCQLJjX0VGMU3KayiPxQ0CUHkTVF1LjXUJxkdm3xJsAU/Dh8zYZWpLY3MnPGcq7HXqDY+ZS4ey8yT+sHJSnzWbh1pwHgw9RCijFkBPGULGEEjHyM4DQan5W1TUOn5p33Y/de55CFDeS9bsqteQQ4e9ysS9vtyN945rCcDHSSavpwRSAimBMyABMIFW1KeRYGNdEEANDVttd3qAEDZWAFP17gRHJUFE0CzP6JBlqT5sp/zqTGTO5ineyeZJFhEFX52UmuZuhlHrCSxL1PNXmNG1y6pH5kp2bHCVe6q1BVFyJ5NIw6L1hvUEUwXAimMY8I1a3EQd8mhBTzW3NXnFL4s5YBEuc2BHDrtu6cmaDW+iyATslsdQUePINYF9Y9MVpFs8C/kNlqu99/qVq9X58xeqx774JUCyFQeQW7duVh99+GG1d/NGde7cOYpWwKgBeusazwxxAsitpWwuaU4XoZo3JrqGk5ehUENCltzPFt7UxgcfAuyCdjQFs0JLAF5BSNklJZASSAmcfgkU1a7gNMOGWwOEGvxC3ABUVMwwYwFUgDLEJ1gaTG6mYxGIVwM8taVCg7GvquI1hhZgBKxbrU1ACzspoOT4gu8GoHQICGojFswHc1gk17QJm0ayD5DqrUz3sO/qWS3Il/MCYM4HeCyHAdgl67CfgFZSTOqFDbjaWRu09wDwBmph1dSqsp3Lw0Wr7cGhqIf1yravrLrT7lT9wR5OYe3qOy/+XvW1r/1q1ett3f5n1PZ75cqV6vXXX6/+5bV/ZYJxpL086LsnDx6sDtnpCDaV/asR4LMqbVXwHnZiB8gnbO0cTGTskd0rFv5gFE4Avv3PkR9SAimBlMDZloB/8oErgGdQXTh/LkBWB+cWrE01sGpSMBUw1ZsXpysZH2DagBWKm3M66zRlPV6BREYqYOvQNVmAkM5MhgYFs2aMOgx2mS1qDbWvhlEL1ssWG6ijDdOJXM1zwBI7qgUhVF3PcNoS9Id4T29iP55hO9Xmuo26WNAXjI1dHsM068Ye85xAaKGEieDOGmXQA+zU3tcLOg4HjNPr7VS7N65VT33pUvXyH7xMhq4e6xLkBfMSv6u99uLFi/w+Wn3969+o/upv/rp6/Y03qg6OZ+udVjiW9Tm0dGt8Zy6WChsmUxjPDw+Je2Y9JQ91yRwmC0YcweRX/b+o9vjjT//pqp2zX0ogJZASSAmcPgkIDqptG1QQOne+FYC3g1pVOBQUtOPq4ayK2Oa7YG2QUbNl+kkA1Zq/AOsQW6nss90hrAZmqnp5JAADRgG+POO1sH8ypvGxslIQFzW3eZwp5QdTNC3lBvd1mWphd+5tdhb2YuyoAHGXa9pntdPqg90A+LTB+oRAKvsewTpVVweXlJ17TW9jNutBwxhimbXzqUZ3Laqyh5QMfOyxz1d//Ed/EnNoby6lEw0f4rjAev3uPmXwru/Xnn2WPU6rn11+m7W4J/vyy7tq8lBJM48HGcs4Cr6CvrZopRoqcsa+fm2v2t3dD+ZcbMRF5sr93pYM+F6J5PeUQEogJXBmJQAwAVABYLBcAQ2kAbB4E9pCbep31MjAb4OQHwEGCyul+QQZWavhSkAiIKcKdkJs70z1K6DluKpfRXWB0kpFsuPpFFsoOZS1+S7Dh7Q5DweGFqEulnkD7n0cpgTTZovEF7BWWW45HJSsV0A7BFobcfFe1tfJ4geCJVbeAoiAfB3GPoaFRoIP1w/oujadq3zWNX/npe+GbTZUx+wthBD/roxPXw8a2oM9jGjnVkX/7RdfDEct1dIdKivdvHmLsCT2tH8QsjRm2YQgHjSc88i18twRXl8tC0O4bva5auNslC0lkBJICaQEfhEkIOOSoan+DeAEGFQpjw0zAmRkyYKZoNwmYYblAGW2Mj+dq2R1MuUAHa4Lwjpc7WyfC7Yp43QO2Z7AfYiq23EFsKtXr1Y3b+3xvMA6xiMZWyqkdTDoMz7ABUjr0GQ40gBVs+FKYV9lHmOXHUt1tOFF8QvYuR5jl124Mbyq0teYa0AeZ8FedXJp2JxVCwt+/D733HPVE088HnuLrF7sYUrI1Zh9Gm/cPxxUr/7DP1bXrt2Ix91TOJcx9kvf+hZOWTth89Wj2TWUJCDF9qvMPDRogzbT5RgVuNWXrAjlgcXzTqHsi6Wd8JYAfIJw8lZKICWQEjgrEgi1MuDTbHZC9TwayxABVpirCStMplGSTGD3hcVaUk+wFi0EjVD9LpDDJBd6RM9BlBYs0XSPht4YC2xmKDBWP6sATq+bY7m33aOSEB7BsOqNJgwRNbVYtEHYEhSYZ2Gp8UuYkxMCVsYhg6MMto43cbdqEgoE/gNoxdFKD+YxSTuOmH8IiB+iWhakPVyYdUtVtqDrocG4XgFZwL906UkGvdNUnTum+1JOvV63euaZZ6p/+8G/RyftuiwnNASqzp//jecLqw3mXJg3WvpQPevQ5iGmpnc0T60hJ0OkBqzN8Clt3rHxGPHOGu73KVXQ95NKXksJpARSAmdMAlhOAUYADHQshRcMEOIHQAO/AD0UzaSBFFhV62r/tBpSqHcj/hd4BcxkfJYtNCTniP5rfNc+q1ew4NLr4knsZ8FTUAcYa9hfjTkewGJxCeY2Y4953mK9LMCSgiKrNl94I+OYXxkBuzjfAtENAdK7GNUugDgF2Odr9jNmeFId7O+HWrhJ3O7QcCqZNmpk5zJVpPvW83mdsKBHHnkkxl2+/OiNt2C7u+xddTbq4o4xyuvV5Xferb7/t39fvfTt3+EgoCxcz7z66ld/pXrttR9U/02YkuA6wj7uwYANcZZAZY0Kv07aS5m6jm3uA+wt6vQYo+xrOf9x78mAj5NMXk8JpARSAmdJAgIazTjawDP0vxZI0MlIOyhwCbCJITBfgHPOr4A64aLXdTISSPyN+yCK3s3GBB9S39esVKpY56i1LdvnuDo3GfKkLffWrQP6mE/atI2EA9GvDli1ATBVzQKbQGYIUcMiDKiT56CaVZO0F0fxB947pMIc9w95foJTVZvDhCroqtrZ2Ybl4nHNZx2kBHNZtupg1+wYpq4UZFuRflPmGiKpHnn4QnXx0Yerre1NgLtW3bp5WH384fXql7/8THVtd7f6i+99DwYLyHLPdejQ9cxXvsJ6VVlD0Rk/HNAA7bAXD6nkxKGApRBzbGgVhwUOAhuw4jKndx4MwsmAy79PvqYEUgIpgbMrAf7ehzMRLC4qFsEzN/VCBjBMWGFSDVllsGPYq6knxwBcDfAKAJPRck2VtSCk2jryRAM85jhe29DDGRsnbG9qjmlAKcoCky6y1MClH3NbF9fCDqZ6HI1QV2NzlVnKYEtCj43q4GCPfrDVzmZ4P5uRqwdrHQ1RU7NG3Jhw9CJmmMODqmmZdkkSYslC7NL8K3VxkHKtAr5gbLatcMTipmp2nayisX7boxcv8PtQfL77JdYEYv74jZ9Uf/bnf4n99wX6XYwun3/ssfDkNlwq5mSNSxmNj2DeHF7MAOaBQrD1kCEQq4Yu4Ov7yS0B+GT55N2UQEogJXD6JSBCyFgBE5NSWI5PemZokYULzNBkwout7S2AlLheQEVmNwN4O4CwDFZAM05XtbVOVg1V0YyLEhpwXw8nqCHM9AA23IB9tiN3sykdCV/ClmyBegF/6aSlqnh01A8v6TahToGJhElN9RhGpd007zSqXPNST2I9eGLHWqjmBIh2CIMaAPZMz7OESbEHDxd11jWtwcZdHwcCWbD3zUy1tdXjcDAPdXX1uc8F+Mugf/zm5erty+8G4PtMG4euOmp3DwrbO1vVR1euoz4fhRxku7at7W1U1YZ0Gd5U4xDBWlSgcxDZ2MT2zNrVKsh6PZCYxlNnMvG3jBDDnPiSAHyiePJmSiAlkBI4GxJY8q0RTkotbKHaY2WRR9h+B3gIb22R5xgGOUBtbF/BVayx1J9xsTopBUsGEGXFhtp4zcpIekIPGU/wNK2lz+mgZSk+Af0Iptrd2q6mhB0dEf40AECxlIZT1uGBYT44e8Gstdmq1h7O+9Xe3l710MMPR4Yr01Rqv56yNlmm8wu++4eHgKT2ZdI/AsBhK6afKvVuoxfxu9p/ZZ8Ri8y+gPTqvfffR738ZRZZoPDSk1+oHnrofMyvh3YfsPWg8Pbb71RvvfWT6umnn6pe/sPfxzlLlguYsvfSigaA7dO/qPChuKE295AwmvQB5xLKpUra59QeaI9fBYYTgBdizreUQEogJXCmJQCgGLIzncJIASXr6soYI/wIVXGzqRcyqmNYsiE8qpq10erVHODLXZNKWPIPDOJbiY9VtetYgwGqWAC5TtKKak7oEnOYFEN1tiE5I72AYYBmvbIgQw0nJXMm66QkKzVHV6fVDYA1dtbwoCFjqkIWr8z97DvuYnEy0PYcDJd1GHqk45jqXW24kXdaqIWF2mT8OpBZbKFGGcR33rkMY32+qNe5v9lp8os39qItVc/vXv5p9evfeLb67Rd+K9blbbYbzZjlCSpubc5qCjx4TCjaYC1llxqlEmdoDNwvnt4jwpFYGocTHbJiI2WgE14XU53QI2+lBFICKYGUwKmVwPJPvX/zBQ8ZozG2xgLL/yJtpGpiVc4CYgAthQpQw1oJSPupamduBpu1qtA6gDbEmcusVnpFC0DmjK4DprpUz8IzWZsvzk8AaRNQHumYBEM2K5U2XhnpgFAhYB3gxkEKkJJhbu3sEIO8GWzRMCjt0h4ArJS0BqOWzTqucbkm+mjgGa1TlEkz6g2KQuC0ZU5mFhLAzpbYrxRV1mo5xFn13nvvV2+++WaAoYzavtYrVs2uZsA5//NHr4d6/IUXfjPU28UDWjEUUL92/UZ4Oc/Zi57dhh/N2J8sVy/uSCKCyv4QGR2imjdJR5mL6VZsyYBXFFR2SwmkBFICp1ECRckKxABaMjtzNstexzMSXVBPyILxMlfBztSSNTyLW3gTzyNvM2ALqPpj0g1B+2iCkph+Js2YqHaVATKiNtM6wCw+jei3IXACzs4laxWkHR/KDVABjjgqNQFMyHd4PKuqpgMgjpd003jiAyEUJo0KnFuqws22Rd6QWJ/jR3pH9uVSr9/YRaPMXDDvLg5R69i6BdMm7HaDefpkq/L+BirhTQ4VP/zhf1RPPvEkNt7tAF5tt7YWWbhsX3zqUvX4L32BNZhus4RveX0JxG9fficOFxtsYIgjWJt5PJwcksQjDjseRNQ0sOYh6vLDw33Yfod7HnKW/yqOeHxLBny8bPJOSiAlkBI4UxIQGGraPUFJgU5vYP/It2FqGzg9tXGekj3qLDUmG9XAakaoh61yFEALeJrnWKYnlsoooyoQg2jXNJOUrTBQeSUADGu1nq4OTU0dlACkTQBSwDVUaIsEHV2SbJjMA002AKeqe2FnhtmiSQ51tsUMpPDh1MQa5sEyCVvimmpqiyeYbGNreydAT0DcOdcL+7Qq9R4OWFsUcrDPlIPDletXq1defSXqFsvGVcerGi4AaxrNbnX+3Da7EXwLo5bBysB12Lqxe7PawpPcQ8Fml/jlwFRimWHgSsOkJO5Pli5bd1xlptc3XxTTA1sWY3igiLJDSiAlkBI4vRIQJ/17L7ho5+11scdim22juhXxZJTaUNtUBApHJTqbFStYGs8cwUp1zmKAAGEB1wF1KrKBm2E3FlD1KDa0yFSVqq/nxBRbNcn6wmbXEvBdhzG8azDBKc5XezBD8y7LkCNUh7EHqGyHOFLJzmWUZrIyjlc27Rx1xhZw9Xi29KHe3DJV7caqv2W6cF1YaZdn9abmkIEaXAA1drdP/6n9WPuHH3xQPfroxTgUuDe1BIKkfeckGvHZ2DOdtfN+/PHV6vuv/FO1Sx7oQZ/YZtYZXuMcCA4pVahdus6hQDHpva0sG7DuPt7hHgRu3NBTvPS7A/ghyk+8JAB/QiR5ISWQEkgJnB0JyLXAI4BEe2yFnVVVNGBMQgvL/OkcdXCwD5cFMQCc6egQ72X4rGwTZisjFUBDRcxAUVUIO7KMT/ap85PvberuGrtrJaRSWakon/VeNuRIoJThFgcvbbn0YwydpqwzXIdJsrB4lpWgNm5EaJOOWzuwZJNksECA1beFI1d4FderbcKnTHlZI+52HXX6Os5jJeSHgwUHjQi7iv0ZmytLZf2Ab7uzBZDerH761s/igHDhwrlwzJJRLz2ndUbTJiz7fve/Pqj+7tV/hv3usnazXsH2W3h5w6iFfPNRGx4VxS74HpWQ6CTDN0xqHznv7h6gGi+2bcFdGRzX1r75zd9VFtlSAimBlEBK4IxLQByxJGFJEqHq1kQWqJQBPpsORIJNsN9ARz7xrko4moC5/Ax6+FQBRMA4ABVWKXgHavhSvi/tpnE9EId7fBHcvOf89IyfADsn48Dg+oIxSydtTgb4Oo7e2stxHUd7q9cFT3M3i7e+6Akd+6G/2aqcxYXH3jVYL/apl/QWuap7qKlNJxmNNdgcaogT1fUbN5nedZeDRLlXUnT62bULuktnK2ORbbFH2K8JR3RGC6/vxRTR4ZgXFd/ZUgIpgZRASuAXQALibL8v6LAZgcywIwBDda04NDYcKK4HehXkiX0vvvvYnY/xzFIsAuWnac4rmMUkTh4tFhafYrQY00PA4vbttzv9REdBdQnGBZ2XD9x5thwMHLVc83s8s1i3gP7xR1cAT8D7Pi08usO+qwxk4os5fm5x5fDhgSWA3nEW47sJ54sDznJ595nn7ksJwHdLIz+nBFICKYEzLoEFKVvsQmYraBQgrKlXjnbv++Iyb3fjjY/ZM2Bt+cidrit+Wo5wb/e7B3SG49qy37LPz48Xa1x2WYJmWTEDxsrjVaC0sIIq6jtt+bkAa2Hqd+6WT8t5/Vb6C77LJ+9IqGBxkfW9Y9z/ewLw/eWSV1MCKYGUwJmUQGDtYuWFBS63obq4fL4NKcsLyy4nvt9+6sRen/1NoXC1tZUY3+P73mbZ/+tN3GHkqwyRALyKlLJPSiAlkBI4gxK4m83evfzb7O32h7vvHvf5U3U+bpD/o+urrU3brqFVx7VPw16PG+PTXE8A/jTSyr4pgZRASiAlcGYlUAj/8Qz4s97Y8UeBz3olOV9KICWQEkgJpAT+H0ngfwB7JtoByLYC1QAAAABJRU5ErkJggg==",
    "activeThemeId" : "e59eeb42-ccf0-4a36-bdf9-e630fdab686d",
    "audiateSessionId" : "",
    "firstMedia" : true,
    "hasNotifiedAboutHFRMedia" : false,
    "projectDuration" : "03:52"
  }
}
