{
  "title" : "",
  "description" : "",
  "author" : "",
  "targetLoudness" : -18.0,
  "shouldApplyLoudnessNormalization" : true,
  "videoFormatFrameRate" : 30,
  "audioFormatSampleRate" : 44100,
  "width" : 400.0,
  "height" : 475.0,
  "version" : "5.0",
  "editRate" : 30,
  "authoringClientName" :  {
    "name" : "Camtasia",
    "platform" : "Mac",
    "version" : "2021.0.12"
  },
  "sourceBin" : [
    {
      "id" : 1,
      "src" : "./media/1671557564.048496/02 - Metrics Monitors - 20221219.mp4",
      "rect" : [0, 0, 1920, 1080],
      "lastMod" : "20221219T163431",
      "loudnessNormalization" : true,
      "sourceTracks" : [
        {
          "range" : [0, 6800220],
          "type" : 0,
          "editRate" : 44100,
          "trackRect" : [0, 0, 1920, 1080],
          "sampleRate" : 30,
          "bitDepth" : 0,
          "numChannels" : 0,
          "integratedLUFS" : 100.0,
          "peakLevel" : -1.0,
          "metaData" : ""
        },
        {
          "range" : [0, 6800220],
          "type" : 2,
          "editRate" : 44100,
          "trackRect" : [0, 0, 0, 0],
          "sampleRate" : 44100,
          "bitDepth" : 0,
          "numChannels" : 2,
          "integratedLUFS" : -21.1125837937697,
          "peakLevel" : 0.737657248973846,
          "metaData" : ""
        }
      ],
      "metadata" : {
        "timeAdded" : "20221220T173034.942236"
      }
    }
  ],
  "timeline" : {
    "id" : 2,
    "sceneTrack" : {
      "scenes" : [
        {
          "csml" : {
            "tracks" : [
              {
                "trackIndex" : 0,
                "medias" : [
                  {
                    "id" : 3,
                    "_type" : "VMFile",
                    "src" : 1,
                    "trackNumber" : 0,
                    "attributes" : {
                      "ident" : "02 - Metrics Monitors - 20221219"
                    },
                    "parameters" : {
                      "translation0" : {
                        "type" : "double",
                        "defaultValue" : 15.0,
                        "interp" : "eioe"
                      },
                      "translation1" : {
                        "type" : "double",
                        "defaultValue" : -0.319128696851294,
                        "interp" : "eioe"
                      },
                      "scale0" : {
                        "type" : "double",
                        "defaultValue" : 0.548229664266987,
                        "interp" : "eioe"
                      },
                      "scale1" : {
                        "type" : "double",
                        "defaultValue" : 0.548229664266987,
                        "interp" : "eioe"
                      },
                      "sourceCrop0" : {
                        "type" : "double",
                        "defaultValue" : 0.0,
                        "interp" : "eioe"
                      },
                      "sourceCrop1" : {
                        "type" : "double",
                        "defaultValue" : 0.0,
                        "interp" : "eioe"
                      },
                      "sourceCrop2" : {
                        "type" : "double",
                        "defaultValue" : 0.0,
                        "interp" : "eioe"
                      },
                      "sourceCrop3" : {
                        "type" : "double",
                        "defaultValue" : 0.0,
                        "interp" : "eioe"
                      },
                      "geometryCrop0" : {
                        "type" : "double",
                        "defaultValue" : 0.0,
                        "interp" : "eioe"
                      },
                      "geometryCrop1" : {
                        "type" : "double",
                        "defaultValue" : 0.0,
                        "interp" : "eioe"
                      },
                      "geometryCrop2" : {
                        "type" : "double",
                        "defaultValue" : 0.0,
                        "interp" : "eioe"
                      },
                      "geometryCrop3" : {
                        "type" : "double",
                        "defaultValue" : 0.0,
                        "interp" : "eioe"
                      }
                    },
                    "effects" : [

                    ],
                    "start" : 0,
                    "duration" : 3908,
                    "mediaStart" : 0,
                    "mediaDuration" : 3908,
                    "scalar" : 1,
                    "metadata" : {
                      "clipSpeedAttribute" : false,
                      "effectApplied" : "none",
                      "lockAspectRatio" : true
                    },
                    "animationTracks" : {

                    }
                  },
                  {
                    "id" : 4,
                    "_type" : "VMFile",
                    "src" : 1,
                    "trackNumber" : 0,
                    "attributes" : {
                      "ident" : "02 - Metrics Monitors - 20221219"
                    },
                    "parameters" : {
                      "translation0" : {
                        "type" : "double",
                        "defaultValue" : 15.0,
                        "interp" : "eioe"
                      },
                      "translation1" : {
                        "type" : "double",
                        "defaultValue" : -0.319128696851294,
                        "interp" : "eioe"
                      },
                      "scale0" : {
                        "type" : "double",
                        "defaultValue" : 0.548229664266987,
                        "interp" : "eioe"
                      },
                      "scale1" : {
                        "type" : "double",
                        "defaultValue" : 0.548229664266987,
                        "interp" : "eioe"
                      },
                      "sourceCrop0" : {
                        "type" : "double",
                        "defaultValue" : 0.0,
                        "interp" : "eioe"
                      },
                      "sourceCrop1" : {
                        "type" : "double",
                        "defaultValue" : 0.0,
                        "interp" : "eioe"
                      },
                      "sourceCrop2" : {
                        "type" : "double",
                        "defaultValue" : 0.0,
                        "interp" : "eioe"
                      },
                      "sourceCrop3" : {
                        "type" : "double",
                        "defaultValue" : 0.0,
                        "interp" : "eioe"
                      },
                      "geometryCrop0" : {
                        "type" : "double",
                        "defaultValue" : 0.0,
                        "interp" : "eioe"
                      },
                      "geometryCrop1" : {
                        "type" : "double",
                        "defaultValue" : 0.0,
                        "interp" : "eioe"
                      },
                      "geometryCrop2" : {
                        "type" : "double",
                        "defaultValue" : 0.0,
                        "interp" : "eioe"
                      },
                      "geometryCrop3" : {
                        "type" : "double",
                        "defaultValue" : 0.0,
                        "interp" : "eioe"
                      }
                    },
                    "effects" : [

                    ],
                    "start" : 3908,
                    "duration" : 540,
                    "mediaStart" : 3955,
                    "mediaDuration" : 540,
                    "scalar" : 1,
                    "metadata" : {
                      "clipSpeedAttribute" : false,
                      "effectApplied" : "none",
                      "lockAspectRatio" : true
                    },
                    "animationTracks" : {

                    }
                  }
                ]
              },
              {
                "trackIndex" : 1,
                "medias" : [
                  {
                    "id" : 5,
                    "_type" : "AMFile",
                    "src" : 1,
                    "trackNumber" : 1,
                    "attributes" : {
                      "ident" : "02 - Metrics Monitors - 20221219",
                      "gain" : 1.0,
                      "mixToMono" : false,
                      "loudnessNormalization" : true,
                      "sourceFileOffset" : 0
                    },
                      "channelNumber" : "0,1",
                    "effects" : [

                    ],
                    "start" : 0,
                    "duration" : 208,
                    "mediaStart" : 0,
                    "mediaDuration" : 208,
                    "scalar" : 1,
                    "metadata" : {
                      "clipSpeedAttribute" : false,
                      "effectApplied" : "none"
                    },
                    "animationTracks" : {

                    }
                  },
                  {
                    "id" : 6,
                    "_type" : "AMFile",
                    "src" : 1,
                    "trackNumber" : 1,
                    "attributes" : {
                      "ident" : "02 - Metrics Monitors - 20221219",
                      "gain" : 1.0,
                      "mixToMono" : false,
                      "loudnessNormalization" : true,
                      "sourceFileOffset" : 0
                    },
                      "channelNumber" : "0,1",
                    "effects" : [

                    ],
                    "start" : 235,
                    "duration" : 211,
                    "mediaStart" : 235,
                    "mediaDuration" : 211,
                    "scalar" : 1,
                    "metadata" : {
                      "clipSpeedAttribute" : false,
                      "effectApplied" : "none"
                    },
                    "animationTracks" : {

                    }
                  },
                  {
                    "id" : 7,
                    "_type" : "AMFile",
                    "src" : 1,
                    "trackNumber" : 1,
                    "attributes" : {
                      "ident" : "02 - Metrics Monitors - 20221219",
                      "gain" : 1.0,
                      "mixToMono" : false,
                      "loudnessNormalization" : true,
                      "sourceFileOffset" : 0
                    },
                      "channelNumber" : "0,1",
                    "effects" : [

                    ],
                    "start" : 478,
                    "duration" : 141,
                    "mediaStart" : 478,
                    "mediaDuration" : 141,
                    "scalar" : 1,
                    "metadata" : {
                      "clipSpeedAttribute" : false,
                      "effectApplied" : "none"
                    },
                    "animationTracks" : {

                    }
                  },
                  {
                    "id" : 8,
                    "_type" : "AMFile",
                    "src" : 1,
                    "trackNumber" : 1,
                    "attributes" : {
                      "ident" : "02 - Metrics Monitors - 20221219",
                      "gain" : 1.0,
                      "mixToMono" : false,
                      "loudnessNormalization" : true,
                      "sourceFileOffset" : 0
                    },
                      "channelNumber" : "0,1",
                    "effects" : [

                    ],
                    "start" : 629,
                    "duration" : 138,
                    "mediaStart" : 629,
                    "mediaDuration" : 138,
                    "scalar" : 1,
                    "metadata" : {
                      "clipSpeedAttribute" : false,
                      "effectApplied" : "none"
                    },
                    "animationTracks" : {

                    }
                  },
                  {
                    "id" : 9,
                    "_type" : "AMFile",
                    "src" : 1,
                    "trackNumber" : 1,
                    "attributes" : {
                      "ident" : "02 - Metrics Monitors - 20221219",
                      "gain" : 1.0,
                      "mixToMono" : false,
                      "loudnessNormalization" : true,
                      "sourceFileOffset" : 0
                    },
                      "channelNumber" : "0,1",
                    "effects" : [

                    ],
                    "start" : 780,
                    "duration" : 106,
                    "mediaStart" : 780,
                    "mediaDuration" : 106,
                    "scalar" : 1,
                    "metadata" : {
                      "clipSpeedAttribute" : false,
                      "effectApplied" : "none"
                    },
                    "animationTracks" : {

                    }
                  },
                  {
                    "id" : 10,
                    "_type" : "AMFile",
                    "src" : 1,
                    "trackNumber" : 1,
                    "attributes" : {
                      "ident" : "02 - Metrics Monitors - 20221219",
                      "gain" : 1.0,
                      "mixToMono" : false,
                      "loudnessNormalization" : true,
                      "sourceFileOffset" : 0
                    },
                      "channelNumber" : "0,1",
                    "effects" : [

                    ],
                    "start" : 893,
                    "duration" : 124,
                    "mediaStart" : 893,
                    "mediaDuration" : 124,
                    "scalar" : 1,
                    "metadata" : {
                      "clipSpeedAttribute" : false,
                      "effectApplied" : "none"
                    },
                    "animationTracks" : {

                    }
                  },
                  {
                    "id" : 11,
                    "_type" : "AMFile",
                    "src" : 1,
                    "trackNumber" : 1,
                    "attributes" : {
                      "ident" : "02 - Metrics Monitors - 20221219",
                      "gain" : 1.0,
                      "mixToMono" : false,
                      "loudnessNormalization" : true,
                      "sourceFileOffset" : 0
                    },
                      "channelNumber" : "0,1",
                    "effects" : [

                    ],
                    "start" : 1052,
                    "duration" : 141,
                    "mediaStart" : 1052,
                    "mediaDuration" : 141,
                    "scalar" : 1,
                    "metadata" : {
                      "clipSpeedAttribute" : false,
                      "effectApplied" : "none"
                    },
                    "animationTracks" : {

                    }
                  },
                  {
                    "id" : 12,
                    "_type" : "AMFile",
                    "src" : 1,
                    "trackNumber" : 1,
                    "attributes" : {
                      "ident" : "02 - Metrics Monitors - 20221219",
                      "gain" : 1.0,
                      "mixToMono" : false,
                      "loudnessNormalization" : true,
                      "sourceFileOffset" : 0
                    },
                      "channelNumber" : "0,1",
                    "effects" : [

                    ],
                    "start" : 1230,
                    "duration" : 138,
                    "mediaStart" : 1230,
                    "mediaDuration" : 138,
                    "scalar" : 1,
                    "metadata" : {
                      "clipSpeedAttribute" : false,
                      "effectApplied" : "none"
                    },
                    "animationTracks" : {

                    }
                  },
                  {
                    "id" : 13,
                    "_type" : "AMFile",
                    "src" : 1,
                    "trackNumber" : 1,
                    "attributes" : {
                      "ident" : "02 - Metrics Monitors - 20221219",
                      "gain" : 1.0,
                      "mixToMono" : false,
                      "loudnessNormalization" : true,
                      "sourceFileOffset" : 0
                    },
                      "channelNumber" : "0,1",
                    "effects" : [

                    ],
                    "start" : 1380,
                    "duration" : 80,
                    "mediaStart" : 1380,
                    "mediaDuration" : 80,
                    "scalar" : 1,
                    "metadata" : {
                      "clipSpeedAttribute" : false,
                      "effectApplied" : "none"
                    },
                    "animationTracks" : {

                    }
                  },
                  {
                    "id" : 14,
                    "_type" : "AMFile",
                    "src" : 1,
                    "trackNumber" : 1,
                    "attributes" : {
                      "ident" : "02 - Metrics Monitors - 20221219",
                      "gain" : 1.0,
                      "mixToMono" : false,
                      "loudnessNormalization" : true,
                      "sourceFileOffset" : 0
                    },
                      "channelNumber" : "0,1",
                    "effects" : [

                    ],
                    "start" : 1472,
                    "duration" : 118,
                    "mediaStart" : 1472,
                    "mediaDuration" : 118,
                    "scalar" : 1,
                    "metadata" : {
                      "clipSpeedAttribute" : false,
                      "effectApplied" : "none"
                    },
                    "animationTracks" : {

                    }
                  },
                  {
                    "id" : 15,
                    "_type" : "AMFile",
                    "src" : 1,
                    "trackNumber" : 1,
                    "attributes" : {
                      "ident" : "02 - Metrics Monitors - 20221219",
                      "gain" : 1.0,
                      "mixToMono" : false,
                      "loudnessNormalization" : true,
                      "sourceFileOffset" : 0
                    },
                      "channelNumber" : "0,1",
                    "effects" : [

                    ],
                    "start" : 1598,
                    "duration" : 91,
                    "mediaStart" : 1598,
                    "mediaDuration" : 91,
                    "scalar" : 1,
                    "metadata" : {
                      "clipSpeedAttribute" : false,
                      "effectApplied" : "none"
                    },
                    "animationTracks" : {

                    }
                  },
                  {
                    "id" : 16,
                    "_type" : "AMFile",
                    "src" : 1,
                    "trackNumber" : 1,
                    "attributes" : {
                      "ident" : "02 - Metrics Monitors - 20221219",
                      "gain" : 1.0,
                      "mixToMono" : false,
                      "loudnessNormalization" : true,
                      "sourceFileOffset" : 0
                    },
                      "channelNumber" : "0,1",
                    "effects" : [

                    ],
                    "start" : 1699,
                    "duration" : 54,
                    "mediaStart" : 1699,
                    "mediaDuration" : 54,
                    "scalar" : 1,
                    "metadata" : {
                      "clipSpeedAttribute" : false,
                      "effectApplied" : "none"
                    },
                    "animationTracks" : {

                    }
                  },
                  {
                    "id" : 17,
                    "_type" : "AMFile",
                    "src" : 1,
                    "trackNumber" : 1,
                    "attributes" : {
                      "ident" : "02 - Metrics Monitors - 20221219",
                      "gain" : 1.0,
                      "mixToMono" : false,
                      "loudnessNormalization" : true,
                      "sourceFileOffset" : 0
                    },
                      "channelNumber" : "0,1",
                    "effects" : [

                    ],
                    "start" : 1781,
                    "duration" : 140,
                    "mediaStart" : 1781,
                    "mediaDuration" : 140,
                    "scalar" : 1,
                    "metadata" : {
                      "clipSpeedAttribute" : false,
                      "effectApplied" : "none"
                    },
                    "animationTracks" : {

                    }
                  },
                  {
                    "id" : 18,
                    "_type" : "AMFile",
                    "src" : 1,
                    "trackNumber" : 1,
                    "attributes" : {
                      "ident" : "02 - Metrics Monitors - 20221219",
                      "gain" : 1.0,
                      "mixToMono" : false,
                      "loudnessNormalization" : true,
                      "sourceFileOffset" : 0
                    },
                      "channelNumber" : "0,1",
                    "effects" : [

                    ],
                    "start" : 1935,
                    "duration" : 146,
                    "mediaStart" : 1935,
                    "mediaDuration" : 146,
                    "scalar" : 1,
                    "metadata" : {
                      "clipSpeedAttribute" : false,
                      "effectApplied" : "none"
                    },
                    "animationTracks" : {

                    }
                  },
                  {
                    "id" : 19,
                    "_type" : "AMFile",
                    "src" : 1,
                    "trackNumber" : 1,
                    "attributes" : {
                      "ident" : "02 - Metrics Monitors - 20221219",
                      "gain" : 1.0,
                      "mixToMono" : false,
                      "loudnessNormalization" : true,
                      "sourceFileOffset" : 0
                    },
                      "channelNumber" : "0,1",
                    "effects" : [

                    ],
                    "start" : 2109,
                    "duration" : 112,
                    "mediaStart" : 2109,
                    "mediaDuration" : 112,
                    "scalar" : 1,
                    "metadata" : {
                      "clipSpeedAttribute" : false,
                      "effectApplied" : "none"
                    },
                    "animationTracks" : {

                    }
                  },
                  {
                    "id" : 20,
                    "_type" : "AMFile",
                    "src" : 1,
                    "trackNumber" : 1,
                    "attributes" : {
                      "ident" : "02 - Metrics Monitors - 20221219",
                      "gain" : 1.0,
                      "mixToMono" : false,
                      "loudnessNormalization" : true,
                      "sourceFileOffset" : 0
                    },
                      "channelNumber" : "0,1",
                    "effects" : [

                    ],
                    "start" : 2229,
                    "duration" : 54,
                    "mediaStart" : 2229,
                    "mediaDuration" : 54,
                    "scalar" : 1,
                    "metadata" : {
                      "clipSpeedAttribute" : false,
                      "effectApplied" : "none"
                    },
                    "animationTracks" : {

                    }
                  },
                  {
                    "id" : 21,
                    "_type" : "AMFile",
                    "src" : 1,
                    "trackNumber" : 1,
                    "attributes" : {
                      "ident" : "02 - Metrics Monitors - 20221219",
                      "gain" : 1.0,
                      "mixToMono" : false,
                      "loudnessNormalization" : true,
                      "sourceFileOffset" : 0
                    },
                      "channelNumber" : "0,1",
                    "effects" : [

                    ],
                    "start" : 2292,
                    "duration" : 141,
                    "mediaStart" : 2292,
                    "mediaDuration" : 141,
                    "scalar" : 1,
                    "metadata" : {
                      "clipSpeedAttribute" : false,
                      "effectApplied" : "none"
                    },
                    "animationTracks" : {

                    }
                  },
                  {
                    "id" : 22,
                    "_type" : "AMFile",
                    "src" : 1,
                    "trackNumber" : 1,
                    "attributes" : {
                      "ident" : "02 - Metrics Monitors - 20221219",
                      "gain" : 1.0,
                      "mixToMono" : false,
                      "loudnessNormalization" : true,
                      "sourceFileOffset" : 0
                    },
                      "channelNumber" : "0,1",
                    "effects" : [

                    ],
                    "start" : 2478,
                    "duration" : 130,
                    "mediaStart" : 2478,
                    "mediaDuration" : 130,
                    "scalar" : 1,
                    "metadata" : {
                      "clipSpeedAttribute" : false,
                      "effectApplied" : "none"
                    },
                    "animationTracks" : {

                    }
                  },
                  {
                    "id" : 23,
                    "_type" : "AMFile",
                    "src" : 1,
                    "trackNumber" : 1,
                    "attributes" : {
                      "ident" : "02 - Metrics Monitors - 20221219",
                      "gain" : 1.0,
                      "mixToMono" : false,
                      "loudnessNormalization" : true,
                      "sourceFileOffset" : 0
                    },
                      "channelNumber" : "0,1",
                    "effects" : [

                    ],
                    "start" : 2627,
                    "duration" : 70,
                    "mediaStart" : 2627,
                    "mediaDuration" : 70,
                    "scalar" : 1,
                    "metadata" : {
                      "clipSpeedAttribute" : false,
                      "effectApplied" : "none"
                    },
                    "animationTracks" : {

                    }
                  },
                  {
                    "id" : 24,
                    "_type" : "AMFile",
                    "src" : 1,
                    "trackNumber" : 1,
                    "attributes" : {
                      "ident" : "02 - Metrics Monitors - 20221219",
                      "gain" : 1.0,
                      "mixToMono" : false,
                      "loudnessNormalization" : true,
                      "sourceFileOffset" : 0
                    },
                      "channelNumber" : "0,1",
                    "effects" : [

                    ],
                    "start" : 2703,
                    "duration" : 64,
                    "mediaStart" : 2703,
                    "mediaDuration" : 64,
                    "scalar" : 1,
                    "metadata" : {
                      "clipSpeedAttribute" : false,
                      "effectApplied" : "none"
                    },
                    "animationTracks" : {

                    }
                  },
                  {
                    "id" : 25,
                    "_type" : "AMFile",
                    "src" : 1,
                    "trackNumber" : 1,
                    "attributes" : {
                      "ident" : "02 - Metrics Monitors - 20221219",
                      "gain" : 1.0,
                      "mixToMono" : false,
                      "loudnessNormalization" : true,
                      "sourceFileOffset" : 0
                    },
                      "channelNumber" : "0,1",
                    "effects" : [

                    ],
                    "start" : 2781,
                    "duration" : 72,
                    "mediaStart" : 2781,
                    "mediaDuration" : 72,
                    "scalar" : 1,
                    "metadata" : {
                      "clipSpeedAttribute" : false,
                      "effectApplied" : "none"
                    },
                    "animationTracks" : {

                    }
                  },
                  {
                    "id" : 26,
                    "_type" : "AMFile",
                    "src" : 1,
                    "trackNumber" : 1,
                    "attributes" : {
                      "ident" : "02 - Metrics Monitors - 20221219",
                      "gain" : 1.0,
                      "mixToMono" : false,
                      "loudnessNormalization" : true,
                      "sourceFileOffset" : 0
                    },
                      "channelNumber" : "0,1",
                    "effects" : [

                    ],
                    "start" : 2859,
                    "duration" : 81,
                    "mediaStart" : 2859,
                    "mediaDuration" : 81,
                    "scalar" : 1,
                    "metadata" : {
                      "clipSpeedAttribute" : false,
                      "effectApplied" : "none"
                    },
                    "animationTracks" : {

                    }
                  },
                  {
                    "id" : 27,
                    "_type" : "AMFile",
                    "src" : 1,
                    "trackNumber" : 1,
                    "attributes" : {
                      "ident" : "02 - Metrics Monitors - 20221219",
                      "gain" : 1.0,
                      "mixToMono" : false,
                      "loudnessNormalization" : true,
                      "sourceFileOffset" : 0
                    },
                      "channelNumber" : "0,1",
                    "effects" : [

                    ],
                    "start" : 2972,
                    "duration" : 118,
                    "mediaStart" : 2972,
                    "mediaDuration" : 118,
                    "scalar" : 1,
                    "metadata" : {
                      "clipSpeedAttribute" : false,
                      "effectApplied" : "none"
                    },
                    "animationTracks" : {

                    }
                  },
                  {
                    "id" : 28,
                    "_type" : "AMFile",
                    "src" : 1,
                    "trackNumber" : 1,
                    "attributes" : {
                      "ident" : "02 - Metrics Monitors - 20221219",
                      "gain" : 1.0,
                      "mixToMono" : false,
                      "loudnessNormalization" : true,
                      "sourceFileOffset" : 0
                    },
                      "channelNumber" : "0,1",
                    "effects" : [

                    ],
                    "start" : 3100,
                    "duration" : 67,
                    "mediaStart" : 3100,
                    "mediaDuration" : 67,
                    "scalar" : 1,
                    "metadata" : {
                      "clipSpeedAttribute" : false,
                      "effectApplied" : "none"
                    },
                    "animationTracks" : {

                    }
                  },
                  {
                    "id" : 29,
                    "_type" : "AMFile",
                    "src" : 1,
                    "trackNumber" : 1,
                    "attributes" : {
                      "ident" : "02 - Metrics Monitors - 20221219",
                      "gain" : 1.0,
                      "mixToMono" : false,
                      "loudnessNormalization" : true,
                      "sourceFileOffset" : 0
                    },
                      "channelNumber" : "0,1",
                    "effects" : [

                    ],
                    "start" : 3208,
                    "duration" : 115,
                    "mediaStart" : 3208,
                    "mediaDuration" : 115,
                    "scalar" : 1,
                    "metadata" : {
                      "clipSpeedAttribute" : false,
                      "effectApplied" : "none"
                    },
                    "animationTracks" : {

                    }
                  },
                  {
                    "id" : 30,
                    "_type" : "AMFile",
                    "src" : 1,
                    "trackNumber" : 1,
                    "attributes" : {
                      "ident" : "02 - Metrics Monitors - 20221219",
                      "gain" : 1.0,
                      "mixToMono" : false,
                      "loudnessNormalization" : true,
                      "sourceFileOffset" : 0
                    },
                      "channelNumber" : "0,1",
                    "effects" : [

                    ],
                    "start" : 3339,
                    "duration" : 160,
                    "mediaStart" : 3339,
                    "mediaDuration" : 160,
                    "scalar" : 1,
                    "metadata" : {
                      "clipSpeedAttribute" : false,
                      "effectApplied" : "none"
                    },
                    "animationTracks" : {

                    }
                  },
                  {
                    "id" : 31,
                    "_type" : "AMFile",
                    "src" : 1,
                    "trackNumber" : 1,
                    "attributes" : {
                      "ident" : "02 - Metrics Monitors - 20221219",
                      "gain" : 1.0,
                      "mixToMono" : false,
                      "loudnessNormalization" : true,
                      "sourceFileOffset" : 0
                    },
                      "channelNumber" : "0,1",
                    "effects" : [

                    ],
                    "start" : 3515,
                    "duration" : 67,
                    "mediaStart" : 3515,
                    "mediaDuration" : 67,
                    "scalar" : 1,
                    "metadata" : {
                      "clipSpeedAttribute" : false,
                      "effectApplied" : "none"
                    },
                    "animationTracks" : {

                    }
                  },
                  {
                    "id" : 32,
                    "_type" : "AMFile",
                    "src" : 1,
                    "trackNumber" : 1,
                    "attributes" : {
                      "ident" : "02 - Metrics Monitors - 20221219",
                      "gain" : 1.0,
                      "mixToMono" : false,
                      "loudnessNormalization" : true,
                      "sourceFileOffset" : 0
                    },
                      "channelNumber" : "0,1",
                    "effects" : [

                    ],
                    "start" : 3596,
                    "duration" : 107,
                    "mediaStart" : 3596,
                    "mediaDuration" : 107,
                    "scalar" : 1,
                    "metadata" : {
                      "clipSpeedAttribute" : false,
                      "effectApplied" : "none"
                    },
                    "animationTracks" : {

                    }
                  },
                  {
                    "id" : 33,
                    "_type" : "AMFile",
                    "src" : 1,
                    "trackNumber" : 1,
                    "attributes" : {
                      "ident" : "02 - Metrics Monitors - 20221219",
                      "gain" : 1.0,
                      "mixToMono" : false,
                      "loudnessNormalization" : true,
                      "sourceFileOffset" : 0
                    },
                      "channelNumber" : "0,1",
                    "effects" : [

                    ],
                    "start" : 3742,
                    "duration" : 166,
                    "mediaStart" : 3742,
                    "mediaDuration" : 166,
                    "scalar" : 1,
                    "metadata" : {
                      "clipSpeedAttribute" : false,
                      "effectApplied" : "none"
                    },
                    "animationTracks" : {

                    }
                  },
                  {
                    "id" : 34,
                    "_type" : "AMFile",
                    "src" : 1,
                    "trackNumber" : 1,
                    "attributes" : {
                      "ident" : "02 - Metrics Monitors - 20221219",
                      "gain" : 1.0,
                      "mixToMono" : false,
                      "loudnessNormalization" : true,
                      "sourceFileOffset" : 0
                    },
                      "channelNumber" : "0,1",
                    "effects" : [

                    ],
                    "start" : 3937,
                    "duration" : 123,
                    "mediaStart" : 3984,
                    "mediaDuration" : 123,
                    "scalar" : 1,
                    "metadata" : {
                      "clipSpeedAttribute" : false,
                      "effectApplied" : "none"
                    },
                    "animationTracks" : {

                    }
                  },
                  {
                    "id" : 35,
                    "_type" : "AMFile",
                    "src" : 1,
                    "trackNumber" : 1,
                    "attributes" : {
                      "ident" : "02 - Metrics Monitors - 20221219",
                      "gain" : 1.0,
                      "mixToMono" : false,
                      "loudnessNormalization" : true,
                      "sourceFileOffset" : 0
                    },
                      "channelNumber" : "0,1",
                    "effects" : [

                    ],
                    "start" : 4072,
                    "duration" : 90,
                    "mediaStart" : 4119,
                    "mediaDuration" : 90,
                    "scalar" : 1,
                    "metadata" : {
                      "clipSpeedAttribute" : false,
                      "effectApplied" : "none"
                    },
                    "animationTracks" : {

                    }
                  },
                  {
                    "id" : 36,
                    "_type" : "AMFile",
                    "src" : 1,
                    "trackNumber" : 1,
                    "attributes" : {
                      "ident" : "02 - Metrics Monitors - 20221219",
                      "gain" : 1.0,
                      "mixToMono" : false,
                      "loudnessNormalization" : true,
                      "sourceFileOffset" : 0
                    },
                      "channelNumber" : "0,1",
                    "effects" : [

                    ],
                    "start" : 4170,
                    "duration" : 73,
                    "mediaStart" : 4217,
                    "mediaDuration" : 73,
                    "scalar" : 1,
                    "metadata" : {
                      "clipSpeedAttribute" : false,
                      "effectApplied" : "none"
                    },
                    "animationTracks" : {

                    }
                  },
                  {
                    "id" : 37,
                    "_type" : "AMFile",
                    "src" : 1,
                    "trackNumber" : 1,
                    "attributes" : {
                      "ident" : "02 - Metrics Monitors - 20221219",
                      "gain" : 1.0,
                      "mixToMono" : false,
                      "loudnessNormalization" : true,
                      "sourceFileOffset" : 0
                    },
                      "channelNumber" : "0,1",
                    "effects" : [

                    ],
                    "start" : 4250,
                    "duration" : 68,
                    "mediaStart" : 4297,
                    "mediaDuration" : 68,
                    "scalar" : 1,
                    "metadata" : {
                      "clipSpeedAttribute" : false,
                      "effectApplied" : "none"
                    },
                    "animationTracks" : {

                    }
                  },
                  {
                    "id" : 38,
                    "_type" : "AMFile",
                    "src" : 1,
                    "trackNumber" : 1,
                    "attributes" : {
                      "ident" : "02 - Metrics Monitors - 20221219",
                      "gain" : 1.0,
                      "mixToMono" : false,
                      "loudnessNormalization" : true,
                      "sourceFileOffset" : 0
                    },
                      "channelNumber" : "0,1",
                    "effects" : [

                    ],
                    "start" : 4330,
                    "duration" : 41,
                    "mediaStart" : 4377,
                    "mediaDuration" : 41,
                    "scalar" : 1,
                    "metadata" : {
                      "clipSpeedAttribute" : false,
                      "effectApplied" : "none"
                    },
                    "animationTracks" : {

                    }
                  },
                  {
                    "id" : 39,
                    "_type" : "AMFile",
                    "src" : 1,
                    "trackNumber" : 1,
                    "attributes" : {
                      "ident" : "02 - Metrics Monitors - 20221219",
                      "gain" : 1.0,
                      "mixToMono" : false,
                      "loudnessNormalization" : true,
                      "sourceFileOffset" : 0
                    },
                      "channelNumber" : "0,1",
                    "effects" : [

                    ],
                    "start" : 4380,
                    "duration" : 31,
                    "mediaStart" : 4427,
                    "mediaDuration" : 31,
                    "scalar" : 1,
                    "metadata" : {
                      "clipSpeedAttribute" : false,
                      "effectApplied" : "none"
                    },
                    "animationTracks" : {

                    }
                  }
                ]
              }            ]
          }
        }
      ]
    },
    "trackAttributes" : [
      {
        "ident" : "",
        "audioMuted" : false,
        "videoHidden" : false,
        "magnetic" : false,
        "matte" : 0,
        "solo" : false,
        "metadata" : {
          "IsLocked" : "False",
          "trackHeight" : "54"
        }
      },
      {
        "ident" : "",
        "audioMuted" : false,
        "videoHidden" : false,
        "magnetic" : false,
        "matte" : 0,
        "solo" : false,
        "metadata" : {
          "IsLocked" : "False",
          "trackHeight" : "54"
        }
      }
    ],
    "captionAttributes" : {
      "enabled" : true,
      "fontName" : "Arial",
      "fontSize" : 32,
      "backgroundColor" : [ 0, 0, 0, 204],
      "foregroundColor" : [ 255, 255, 255, 255],
      "lang" : "en",
      "alignment" : 0,
      "defaultFontSize" : true,
      "opacity" : 0.5,
      "backgroundEnabled" : true,
      "backgroundOnlyAroundText" : true
    },
    "gain" : 1.0,
    "legacyAttenuateAudioMix" : false,
    "backgroundColor" : [ 0, 0, 0, 255]
  },
  "metadata" : {
    "ProjectThumbnail" : "iVBORw0KGgoAAAANSUhEUgAAAOMAAAENCAYAAAD9t9IKAAAAAXNSR0IArs4c6QAAAERlWElmTU0AKgAAAAgAAYdpAAQAAAABAAAAGgAAAAAAA6ABAAMAAAABAAEAAKACAAQAAAABAAAA46ADAAQAAAABAAABDQAAAADq2697AAAHcklEQVR4Ae3VCQ3DQBRDwaQpmvDn1wNFnuRZBNb4W3ve9/05PAIEHhc4fwmM8fEaBCBwHO/rujgQIBAQ8DMGShCBwF/ghYEAgYaAMTZ6kIKAn9ENEKgI+BkrTcgxL2CM8ycAoCJgjJUm5JgXMMb5EwBQETDGShNyzAsY4/wJAKgIGGOlCTnmBYxx/gQAVASMsdKEHPMCxjh/AgAqAsZYaUKOeQFjnD8BABUBY6w0Ice8gDHOnwCAioAxVpqQY17AGOdPAEBFwBgrTcgxL2CM8ycAoCJgjJUm5JgXMMb5EwBQETDGShNyzAsY4/wJAKgIGGOlCTnmBYxx/gQAVASMsdKEHPMCxjh/AgAqAsZYaUKOeQFjnD8BABUBY6w0Ice8gDHOnwCAioAxVpqQY17AGOdPAEBFwBgrTcgxL2CM8ycAoCJgjJUm5JgXMMb5EwBQETDGShNyzAsY4/wJAKgIGGOlCTnmBYxx/gQAVASMsdKEHPMCxjh/AgAqAsZYaUKOeQFjnD8BABUBY6w0Ice8gDHOnwCAioAxVpqQY17AGOdPAEBFwBgrTcgxL2CM8ycAoCJgjJUm5JgXMMb5EwBQETDGShNyzAsY4/wJAKgIGGOlCTnmBYxx/gQAVASMsdKEHPMCxjh/AgAqAsZYaUKOeQFjnD8BABUBY6w0Ice8gDHOnwCAioAxVpqQY17AGOdPAEBFwBgrTcgxL2CM8ycAoCJgjJUm5JgXMMb5EwBQETDGShNyzAsY4/wJAKgIGGOlCTnmBYxx/gQAVASMsdKEHPMCxjh/AgAqAsZYaUKOeQFjnD8BABUBY6w0Ice8gDHOnwCAioAxVpqQY17AGOdPAEBFwBgrTcgxL2CM8ycAoCJgjJUm5JgXMMb5EwBQETDGShNyzAsY4/wJAKgIGGOlCTnmBYxx/gQAVASMsdKEHPMCxjh/AgAqAsZYaUKOeQFjnD8BABUBY6w0Ice8gDHOnwCAioAxVpqQY17AGOdPAEBFwBgrTcgxL2CM8ycAoCJgjJUm5JgXMMb5EwBQETDGShNyzAsY4/wJAKgIGGOlCTnmBYxx/gQAVASMsdKEHPMCxjh/AgAqAsZYaUKOeQFjnD8BABUBY6w0Ice8gDHOnwCAioAxVpqQY17AGOdPAEBFwBgrTcgxL2CM8ycAoCJgjJUm5JgXMMb5EwBQETDGShNyzAsY4/wJAKgIGGOlCTnmBYxx/gQAVASMsdKEHPMCxjh/AgAqAsZYaUKOeQFjnD8BABUBY6w0Ice8gDHOnwCAioAxVpqQY17AGOdPAEBFwBgrTcgxL2CM8ycAoCJgjJUm5JgXMMb5EwBQETDGShNyzAsY4/wJAKgIGGOlCTnmBYxx/gQAVASMsdKEHPMCxjh/AgAqAsZYaUKOeQFjnD8BABUBY6w0Ice8gDHOnwCAioAxVpqQY17AGOdPAEBFwBgrTcgxL2CM8ycAoCJgjJUm5JgXMMb5EwBQETDGShNyzAsY4/wJAKgIGGOlCTnmBYxx/gQAVASMsdKEHPMCxjh/AgAqAsZYaUKOeQFjnD8BABUBY6w0Ice8gDHOnwCAioAxVpqQY17AGOdPAEBFwBgrTcgxL2CM8ycAoCJgjJUm5JgXMMb5EwBQETDGShNyzAsY4/wJAKgIGGOlCTnmBYxx/gQAVASMsdKEHPMCxjh/AgAqAsZYaUKOeQFjnD8BABUBY6w0Ice8gDHOnwCAioAxVpqQY17AGOdPAEBFwBgrTcgxL2CM8ycAoCJgjJUm5JgXMMb5EwBQETDGShNyzAsY4/wJAKgIGGOlCTnmBYxx/gQAVASMsdKEHPMCxjh/AgAqAsZYaUKOeQFjnD8BABUBY6w0Ice8gDHOnwCAioAxVpqQY17AGOdPAEBFwBgrTcgxL2CM8ycAoCJgjJUm5JgXMMb5EwBQETDGShNyzAsY4/wJAKgIGGOlCTnmBYxx/gQAVASMsdKEHPMCxjh/AgAqAsZYaUKOeQFjnD8BABUBY6w0Ice8gDHOnwCAioAxVpqQY17AGOdPAEBFwBgrTcgxL2CM8ycAoCJgjJUm5JgXMMb5EwBQETDGShNyzAsY4/wJAKgIGGOlCTnmBYxx/gQAVASMsdKEHPMCxjh/AgAqAsZYaUKOeQFjnD8BABUBY6w0Ice8gDHOnwCAioAxVpqQY17AGOdPAEBFwBgrTcgxL2CM8ycAoCJgjJUm5JgXMMb5EwBQETDGShNyzAsY4/wJAKgIGGOlCTnmBYxx/gQAVASMsdKEHPMCxjh/AgAqAsZYaUKOeQFjnD8BABUBY6w0Ice8gDHOnwCAioAxVpqQY17AGOdPAEBFwBgrTcgxL2CM8ycAoCJgjJUm5JgXMMb5EwBQETDGShNyzAsY4/wJAKgIGGOlCTnmBYxx/gQAVASMsdKEHPMCxjh/AgAqAsZYaUKOeQFjnD8BABUBY6w0Ice8gDHOnwCAioAxVpqQY17AGOdPAEBFwBgrTcgxL2CM8ycAoCJgjJUm5JgXMMb5EwBQETDGShNyzAsY4/wJAKgIfAHtmwWeBe1TbgAAAABJRU5ErkJggg==",
    "activeThemeId" : "e59eeb42-ccf0-4a36-bdf9-e630fdab686d",
    "audiateSessionId" : "",
    "firstMedia" : true,
    "hasNotifiedAboutHFRMedia" : false,
    "projectDuration" : "02:28"
  }
}
