{
  "title" : "",
  "description" : "",
  "author" : "",
  "targetLoudness" : -18.0,
  "shouldApplyLoudnessNormalization" : true,
  "videoFormatFrameRate" : 30,
  "audioFormatSampleRate" : 44100,
  "width" : 400.0,
  "height" : 475.0,
  "version" : "5.0",
  "editRate" : 30,
  "authoringClientName" :  {
    "name" : "Camtasia",
    "platform" : "Mac",
    "version" : "2021.0.11"
  },
  "sourceBin" : [
    {
      "id" : 1,
      "src" : "./media/1652124834.175143/03-CreatePolarisTable.mp4",
      "rect" : [0, 0, 1280, 720],
      "lastMod" : "20220504T154342",
      "loudnessNormalization" : true,
      "sourceTracks" : [
        {
          "range" : [0, 3857280],
          "type" : 0,
          "editRate" : 44100,
          "trackRect" : [0, 0, 1280, 720],
          "sampleRate" : 30,
          "bitDepth" : 0,
          "numChannels" : 0,
          "integratedLUFS" : 100.0,
          "peakLevel" : -1.0,
          "metaData" : ""
        },
        {
          "range" : [0, 3857280],
          "type" : 2,
          "editRate" : 44100,
          "trackRect" : [0, 0, 0, 0],
          "sampleRate" : 44100,
          "bitDepth" : 0,
          "numChannels" : 2,
          "integratedLUFS" : -18.0579508672009,
          "peakLevel" : 0.982641935348511,
          "metaData" : ""
        }
      ],
      "metadata" : {
        "timeAdded" : "20220509T191928.233951"
      }
    },
    {
      "id" : 2,
      "src" : "./media/QdkWpcYz/Pasted Image.pdf",
      "rect" : [0, 0, 177, 220],
      "lastMod" : "20220509T193521",
      "loudnessNormalization" : true,
      "sourceTracks" : [
        {
          "range" : [0, 1],
          "type" : 1,
          "editRate" : 600,
          "trackRect" : [0, 0, 177, 220],
          "sampleRate" : 0,
          "bitDepth" : 0,
          "numChannels" : 0,
          "integratedLUFS" : 100.0,
          "peakLevel" : -1.0,
          "metaData" : ""
        }
      ],
      "metadata" : {
        "timeAdded" : "20220509T193521.797389"
      }
    },
    {
      "id" : 3,
      "src" : "./media/EGfoh3gL/Pasted Image.pdf",
      "rect" : [0, 0, 177, 220],
      "lastMod" : "20220509T193615",
      "loudnessNormalization" : true,
      "sourceTracks" : [
        {
          "range" : [0, 1],
          "type" : 1,
          "editRate" : 600,
          "trackRect" : [0, 0, 177, 220],
          "sampleRate" : 0,
          "bitDepth" : 0,
          "numChannels" : 0,
          "integratedLUFS" : 100.0,
          "peakLevel" : -1.0,
          "metaData" : ""
        }
      ],
      "metadata" : {
        "timeAdded" : "20220509T193615.474386"
      }
    }
  ],
  "timeline" : {
    "id" : 4,
    "sceneTrack" : {
      "scenes" : [
        {
          "csml" : {
            "tracks" : [
              {
                "trackIndex" : 0,
                "medias" : [
                ]
              },
              {
                "trackIndex" : 1,
                "medias" : [
                  {
                    "id" : 5,
                    "_type" : "VMFile",
                    "src" : 1,
                    "trackNumber" : 0,
                    "attributes" : {
                      "ident" : "03-CreatePolarisTable"
                    },
                    "parameters" : {
                      "translation0" : {
                        "type" : "double",
                        "defaultValue" : 50.0,
                        "interp" : "eioe"
                      },
                      "translation1" : {
                        "type" : "double",
                        "defaultValue" : 11.2119594824284,
                        "interp" : "eioe"
                      },
                      "scale0" : {
                        "type" : "double",
                        "defaultValue" : 0.889689001437699,
                        "interp" : "eioe"
                      },
                      "scale1" : {
                        "type" : "double",
                        "defaultValue" : 0.889689001437699,
                        "interp" : "eioe"
                      },
                      "sourceCrop0" : {
                        "type" : "double",
                        "defaultValue" : 0.0,
                        "interp" : "eioe"
                      },
                      "sourceCrop1" : {
                        "type" : "double",
                        "defaultValue" : 0.0,
                        "interp" : "eioe"
                      },
                      "sourceCrop2" : {
                        "type" : "double",
                        "defaultValue" : 0.0,
                        "interp" : "eioe"
                      },
                      "sourceCrop3" : {
                        "type" : "double",
                        "defaultValue" : 0.0,
                        "interp" : "eioe"
                      },
                      "geometryCrop0" : {
                        "type" : "double",
                        "defaultValue" : 0.0,
                        "interp" : "eioe"
                      },
                      "geometryCrop1" : {
                        "type" : "double",
                        "defaultValue" : 0.0,
                        "interp" : "eioe"
                      },
                      "geometryCrop2" : {
                        "type" : "double",
                        "defaultValue" : 0.0,
                        "interp" : "eioe"
                      },
                      "geometryCrop3" : {
                        "type" : "double",
                        "defaultValue" : 0.0,
                        "interp" : "eioe"
                      }
                    },
                    "effects" : [

                    ],
                    "start" : 0,
                    "duration" : 2384,
                    "mediaStart" : 33,
                    "mediaDuration" : 2384,
                    "scalar" : 1,
                    "metadata" : {
                      "clipSpeedAttribute" : false,
                      "default-ChromaKey-color" : "(0,255,0,255)",
                      "effectApplied" : "ChromaKey",
                      "lockAspectRatio" : true
                    },
                    "animationTracks" : {

                    }
                  }
                ]
              },
              {
                "trackIndex" : 2,
                "medias" : [
                  {
                    "id" : 6,
                    "_type" : "AMFile",
                    "src" : 1,
                    "trackNumber" : 1,
                    "attributes" : {
                      "ident" : "03-CreatePolarisTable",
                      "gain" : 1.0,
                      "mixToMono" : false,
                      "loudnessNormalization" : true,
                      "sourceFileOffset" : 0
                    },
                      "channelNumber" : "0,1",
                    "effects" : [

                    ],
                    "start" : 14,
                    "duration" : 19,
                    "mediaStart" : 47,
                    "mediaDuration" : 19,
                    "scalar" : 1,
                    "metadata" : {
                      "clipSpeedAttribute" : false,
                      "effectApplied" : "none"
                    },
                    "animationTracks" : {

                    }
                  },
                  {
                    "id" : 7,
                    "_type" : "AMFile",
                    "src" : 1,
                    "trackNumber" : 1,
                    "attributes" : {
                      "ident" : "03-CreatePolarisTable",
                      "gain" : 1.0,
                      "mixToMono" : false,
                      "loudnessNormalization" : true,
                      "sourceFileOffset" : 0
                    },
                      "channelNumber" : "0,1",
                    "effects" : [

                    ],
                    "start" : 38,
                    "duration" : 30,
                    "mediaStart" : 71,
                    "mediaDuration" : 30,
                    "scalar" : 1,
                    "metadata" : {
                      "clipSpeedAttribute" : false,
                      "effectApplied" : "none"
                    },
                    "animationTracks" : {

                    }
                  },
                  {
                    "id" : 8,
                    "_type" : "AMFile",
                    "src" : 1,
                    "trackNumber" : 1,
                    "attributes" : {
                      "ident" : "03-CreatePolarisTable",
                      "gain" : 1.0,
                      "mixToMono" : false,
                      "loudnessNormalization" : true,
                      "sourceFileOffset" : 0
                    },
                      "channelNumber" : "0,1",
                    "effects" : [

                    ],
                    "start" : 75,
                    "duration" : 148,
                    "mediaStart" : 108,
                    "mediaDuration" : 148,
                    "scalar" : 1,
                    "metadata" : {
                      "clipSpeedAttribute" : false,
                      "effectApplied" : "none"
                    },
                    "animationTracks" : {

                    }
                  },
                  {
                    "id" : 9,
                    "_type" : "AMFile",
                    "src" : 1,
                    "trackNumber" : 1,
                    "attributes" : {
                      "ident" : "03-CreatePolarisTable",
                      "gain" : 1.0,
                      "mixToMono" : false,
                      "loudnessNormalization" : true,
                      "sourceFileOffset" : 0
                    },
                      "channelNumber" : "0,1",
                    "effects" : [

                    ],
                    "start" : 236,
                    "duration" : 47,
                    "mediaStart" : 269,
                    "mediaDuration" : 47,
                    "scalar" : 1,
                    "metadata" : {
                      "clipSpeedAttribute" : false,
                      "effectApplied" : "none"
                    },
                    "animationTracks" : {

                    }
                  },
                  {
                    "id" : 10,
                    "_type" : "AMFile",
                    "src" : 1,
                    "trackNumber" : 1,
                    "attributes" : {
                      "ident" : "03-CreatePolarisTable",
                      "gain" : 1.0,
                      "mixToMono" : false,
                      "loudnessNormalization" : true,
                      "sourceFileOffset" : 0
                    },
                      "channelNumber" : "0,1",
                    "effects" : [

                    ],
                    "start" : 296,
                    "duration" : 131,
                    "mediaStart" : 329,
                    "mediaDuration" : 131,
                    "scalar" : 1,
                    "metadata" : {
                      "clipSpeedAttribute" : false,
                      "effectApplied" : "none"
                    },
                    "animationTracks" : {

                    }
                  },
                  {
                    "id" : 11,
                    "_type" : "AMFile",
                    "src" : 1,
                    "trackNumber" : 1,
                    "attributes" : {
                      "ident" : "03-CreatePolarisTable",
                      "gain" : 1.0,
                      "mixToMono" : false,
                      "loudnessNormalization" : true,
                      "sourceFileOffset" : 0
                    },
                      "channelNumber" : "0,1",
                    "effects" : [

                    ],
                    "start" : 434,
                    "duration" : 23,
                    "mediaStart" : 467,
                    "mediaDuration" : 23,
                    "scalar" : 1,
                    "metadata" : {
                      "clipSpeedAttribute" : false,
                      "effectApplied" : "none"
                    },
                    "animationTracks" : {

                    }
                  },
                  {
                    "id" : 12,
                    "_type" : "AMFile",
                    "src" : 1,
                    "trackNumber" : 1,
                    "attributes" : {
                      "ident" : "03-CreatePolarisTable",
                      "gain" : 1.0,
                      "mixToMono" : false,
                      "loudnessNormalization" : true,
                      "sourceFileOffset" : 0
                    },
                      "channelNumber" : "0,1",
                    "effects" : [

                    ],
                    "start" : 468,
                    "duration" : 74,
                    "mediaStart" : 501,
                    "mediaDuration" : 74,
                    "scalar" : 1,
                    "metadata" : {
                      "clipSpeedAttribute" : false,
                      "effectApplied" : "none"
                    },
                    "animationTracks" : {

                    }
                  },
                  {
                    "id" : 13,
                    "_type" : "AMFile",
                    "src" : 1,
                    "trackNumber" : 1,
                    "attributes" : {
                      "ident" : "03-CreatePolarisTable",
                      "gain" : 1.0,
                      "mixToMono" : false,
                      "loudnessNormalization" : true,
                      "sourceFileOffset" : 0
                    },
                      "channelNumber" : "0,1",
                    "effects" : [

                    ],
                    "start" : 556,
                    "duration" : 156,
                    "mediaStart" : 589,
                    "mediaDuration" : 156,
                    "scalar" : 1,
                    "metadata" : {
                      "clipSpeedAttribute" : false,
                      "effectApplied" : "none"
                    },
                    "animationTracks" : {

                    }
                  },
                  {
                    "id" : 14,
                    "_type" : "AMFile",
                    "src" : 1,
                    "trackNumber" : 1,
                    "attributes" : {
                      "ident" : "03-CreatePolarisTable",
                      "gain" : 1.0,
                      "mixToMono" : false,
                      "loudnessNormalization" : true,
                      "sourceFileOffset" : 0
                    },
                      "channelNumber" : "0,1",
                    "effects" : [

                    ],
                    "start" : 718,
                    "duration" : 34,
                    "mediaStart" : 751,
                    "mediaDuration" : 34,
                    "scalar" : 1,
                    "metadata" : {
                      "clipSpeedAttribute" : false,
                      "effectApplied" : "none"
                    },
                    "animationTracks" : {

                    }
                  },
                  {
                    "id" : 15,
                    "_type" : "AMFile",
                    "src" : 1,
                    "trackNumber" : 1,
                    "attributes" : {
                      "ident" : "03-CreatePolarisTable",
                      "gain" : 1.0,
                      "mixToMono" : false,
                      "loudnessNormalization" : true,
                      "sourceFileOffset" : 0
                    },
                      "channelNumber" : "0,1",
                    "effects" : [

                    ],
                    "start" : 778,
                    "duration" : 114,
                    "mediaStart" : 811,
                    "mediaDuration" : 114,
                    "scalar" : 1,
                    "metadata" : {
                      "clipSpeedAttribute" : false,
                      "effectApplied" : "none"
                    },
                    "animationTracks" : {

                    }
                  },
                  {
                    "id" : 16,
                    "_type" : "AMFile",
                    "src" : 1,
                    "trackNumber" : 1,
                    "attributes" : {
                      "ident" : "03-CreatePolarisTable",
                      "gain" : 1.0,
                      "mixToMono" : false,
                      "loudnessNormalization" : true,
                      "sourceFileOffset" : 0
                    },
                      "channelNumber" : "0,1",
                    "effects" : [

                    ],
                    "start" : 901,
                    "duration" : 81,
                    "mediaStart" : 934,
                    "mediaDuration" : 81,
                    "scalar" : 1,
                    "metadata" : {
                      "clipSpeedAttribute" : false,
                      "effectApplied" : "none"
                    },
                    "animationTracks" : {

                    }
                  },
                  {
                    "id" : 17,
                    "_type" : "AMFile",
                    "src" : 1,
                    "trackNumber" : 1,
                    "attributes" : {
                      "ident" : "03-CreatePolarisTable",
                      "gain" : 1.0,
                      "mixToMono" : false,
                      "loudnessNormalization" : true,
                      "sourceFileOffset" : 0
                    },
                      "channelNumber" : "0,1",
                    "effects" : [

                    ],
                    "start" : 990,
                    "duration" : 108,
                    "mediaStart" : 1023,
                    "mediaDuration" : 108,
                    "scalar" : 1,
                    "metadata" : {
                      "clipSpeedAttribute" : false,
                      "effectApplied" : "none"
                    },
                    "animationTracks" : {

                    }
                  },
                  {
                    "id" : 18,
                    "_type" : "AMFile",
                    "src" : 1,
                    "trackNumber" : 1,
                    "attributes" : {
                      "ident" : "03-CreatePolarisTable",
                      "gain" : 1.0,
                      "mixToMono" : false,
                      "loudnessNormalization" : true,
                      "sourceFileOffset" : 0
                    },
                      "channelNumber" : "0,1",
                    "effects" : [

                    ],
                    "start" : 1116,
                    "duration" : 86,
                    "mediaStart" : 1149,
                    "mediaDuration" : 86,
                    "scalar" : 1,
                    "metadata" : {
                      "clipSpeedAttribute" : false,
                      "effectApplied" : "none"
                    },
                    "animationTracks" : {

                    }
                  },
                  {
                    "id" : 19,
                    "_type" : "AMFile",
                    "src" : 1,
                    "trackNumber" : 1,
                    "attributes" : {
                      "ident" : "03-CreatePolarisTable",
                      "gain" : 1.0,
                      "mixToMono" : false,
                      "loudnessNormalization" : true,
                      "sourceFileOffset" : 0
                    },
                      "channelNumber" : "0,1",
                    "effects" : [

                    ],
                    "start" : 1213,
                    "duration" : 39,
                    "mediaStart" : 1246,
                    "mediaDuration" : 39,
                    "scalar" : 1,
                    "metadata" : {
                      "clipSpeedAttribute" : false,
                      "effectApplied" : "none"
                    },
                    "animationTracks" : {

                    }
                  },
                  {
                    "id" : 20,
                    "_type" : "AMFile",
                    "src" : 1,
                    "trackNumber" : 1,
                    "attributes" : {
                      "ident" : "03-CreatePolarisTable",
                      "gain" : 1.0,
                      "mixToMono" : false,
                      "loudnessNormalization" : true,
                      "sourceFileOffset" : 0
                    },
                      "channelNumber" : "0,1",
                    "effects" : [

                    ],
                    "start" : 1258,
                    "duration" : 68,
                    "mediaStart" : 1291,
                    "mediaDuration" : 68,
                    "scalar" : 1,
                    "metadata" : {
                      "clipSpeedAttribute" : false,
                      "effectApplied" : "none"
                    },
                    "animationTracks" : {

                    }
                  },
                  {
                    "id" : 21,
                    "_type" : "AMFile",
                    "src" : 1,
                    "trackNumber" : 1,
                    "attributes" : {
                      "ident" : "03-CreatePolarisTable",
                      "gain" : 1.0,
                      "mixToMono" : false,
                      "loudnessNormalization" : true,
                      "sourceFileOffset" : 0
                    },
                      "channelNumber" : "0,1",
                    "effects" : [

                    ],
                    "start" : 1348,
                    "duration" : 107,
                    "mediaStart" : 1381,
                    "mediaDuration" : 107,
                    "scalar" : 1,
                    "metadata" : {
                      "clipSpeedAttribute" : false,
                      "effectApplied" : "none"
                    },
                    "animationTracks" : {

                    }
                  },
                  {
                    "id" : 22,
                    "_type" : "AMFile",
                    "src" : 1,
                    "trackNumber" : 1,
                    "attributes" : {
                      "ident" : "03-CreatePolarisTable",
                      "gain" : 1.0,
                      "mixToMono" : false,
                      "loudnessNormalization" : true,
                      "sourceFileOffset" : 0
                    },
                      "channelNumber" : "0,1",
                    "effects" : [

                    ],
                    "start" : 1483,
                    "duration" : 49,
                    "mediaStart" : 1516,
                    "mediaDuration" : 49,
                    "scalar" : 1,
                    "metadata" : {
                      "clipSpeedAttribute" : false,
                      "effectApplied" : "none"
                    },
                    "animationTracks" : {

                    }
                  },
                  {
                    "id" : 23,
                    "_type" : "AMFile",
                    "src" : 1,
                    "trackNumber" : 1,
                    "attributes" : {
                      "ident" : "03-CreatePolarisTable",
                      "gain" : 1.0,
                      "mixToMono" : false,
                      "loudnessNormalization" : true,
                      "sourceFileOffset" : 0
                    },
                      "channelNumber" : "0,1",
                    "effects" : [

                    ],
                    "start" : 1538,
                    "duration" : 117,
                    "mediaStart" : 1571,
                    "mediaDuration" : 117,
                    "scalar" : 1,
                    "metadata" : {
                      "clipSpeedAttribute" : false,
                      "effectApplied" : "none"
                    },
                    "animationTracks" : {

                    }
                  },
                  {
                    "id" : 24,
                    "_type" : "AMFile",
                    "src" : 1,
                    "trackNumber" : 1,
                    "attributes" : {
                      "ident" : "03-CreatePolarisTable",
                      "gain" : 1.0,
                      "mixToMono" : false,
                      "loudnessNormalization" : true,
                      "sourceFileOffset" : 0
                    },
                      "channelNumber" : "0,1",
                    "effects" : [

                    ],
                    "start" : 1679,
                    "duration" : 62,
                    "mediaStart" : 1712,
                    "mediaDuration" : 62,
                    "scalar" : 1,
                    "metadata" : {
                      "clipSpeedAttribute" : false,
                      "effectApplied" : "none"
                    },
                    "animationTracks" : {

                    }
                  },
                  {
                    "id" : 25,
                    "_type" : "AMFile",
                    "src" : 1,
                    "trackNumber" : 1,
                    "attributes" : {
                      "ident" : "03-CreatePolarisTable",
                      "gain" : 1.0,
                      "mixToMono" : false,
                      "loudnessNormalization" : true,
                      "sourceFileOffset" : 0
                    },
                      "channelNumber" : "0,1",
                    "effects" : [

                    ],
                    "start" : 1751,
                    "duration" : 44,
                    "mediaStart" : 1784,
                    "mediaDuration" : 44,
                    "scalar" : 1,
                    "metadata" : {
                      "clipSpeedAttribute" : false,
                      "effectApplied" : "none"
                    },
                    "animationTracks" : {

                    }
                  },
                  {
                    "id" : 26,
                    "_type" : "AMFile",
                    "src" : 1,
                    "trackNumber" : 1,
                    "attributes" : {
                      "ident" : "03-CreatePolarisTable",
                      "gain" : 1.0,
                      "mixToMono" : false,
                      "loudnessNormalization" : true,
                      "sourceFileOffset" : 0
                    },
                      "channelNumber" : "0,1",
                    "effects" : [

                    ],
                    "start" : 1809,
                    "duration" : 86,
                    "mediaStart" : 1842,
                    "mediaDuration" : 86,
                    "scalar" : 1,
                    "metadata" : {
                      "clipSpeedAttribute" : false,
                      "effectApplied" : "none"
                    },
                    "animationTracks" : {

                    }
                  },
                  {
                    "id" : 27,
                    "_type" : "AMFile",
                    "src" : 1,
                    "trackNumber" : 1,
                    "attributes" : {
                      "ident" : "03-CreatePolarisTable",
                      "gain" : 1.0,
                      "mixToMono" : false,
                      "loudnessNormalization" : true,
                      "sourceFileOffset" : 0
                    },
                      "channelNumber" : "0,1",
                    "effects" : [

                    ],
                    "start" : 1902,
                    "duration" : 88,
                    "mediaStart" : 1935,
                    "mediaDuration" : 88,
                    "scalar" : 1,
                    "metadata" : {
                      "clipSpeedAttribute" : false,
                      "effectApplied" : "none"
                    },
                    "animationTracks" : {

                    }
                  },
                  {
                    "id" : 28,
                    "_type" : "AMFile",
                    "src" : 1,
                    "trackNumber" : 1,
                    "attributes" : {
                      "ident" : "03-CreatePolarisTable",
                      "gain" : 1.0,
                      "mixToMono" : false,
                      "loudnessNormalization" : true,
                      "sourceFileOffset" : 0
                    },
                      "channelNumber" : "0,1",
                    "effects" : [

                    ],
                    "start" : 2024,
                    "duration" : 142,
                    "mediaStart" : 2057,
                    "mediaDuration" : 142,
                    "scalar" : 1,
                    "metadata" : {
                      "clipSpeedAttribute" : false,
                      "effectApplied" : "none"
                    },
                    "animationTracks" : {

                    }
                  },
                  {
                    "id" : 29,
                    "_type" : "AMFile",
                    "src" : 1,
                    "trackNumber" : 1,
                    "attributes" : {
                      "ident" : "03-CreatePolarisTable",
                      "gain" : 1.0,
                      "mixToMono" : false,
                      "loudnessNormalization" : true,
                      "sourceFileOffset" : 0
                    },
                      "channelNumber" : "0,1",
                    "effects" : [

                    ],
                    "start" : 2182,
                    "duration" : 37,
                    "mediaStart" : 2215,
                    "mediaDuration" : 37,
                    "scalar" : 1,
                    "metadata" : {
                      "clipSpeedAttribute" : false,
                      "effectApplied" : "none"
                    },
                    "animationTracks" : {

                    }
                  },
                  {
                    "id" : 30,
                    "_type" : "AMFile",
                    "src" : 1,
                    "trackNumber" : 1,
                    "attributes" : {
                      "ident" : "03-CreatePolarisTable",
                      "gain" : 1.0,
                      "mixToMono" : false,
                      "loudnessNormalization" : true,
                      "sourceFileOffset" : 0
                    },
                      "channelNumber" : "0,1",
                    "effects" : [

                    ],
                    "start" : 2228,
                    "duration" : 61,
                    "mediaStart" : 2261,
                    "mediaDuration" : 61,
                    "scalar" : 1,
                    "metadata" : {
                      "clipSpeedAttribute" : false,
                      "effectApplied" : "none"
                    },
                    "animationTracks" : {

                    }
                  },
                  {
                    "id" : 31,
                    "_type" : "AMFile",
                    "src" : 1,
                    "trackNumber" : 1,
                    "attributes" : {
                      "ident" : "03-CreatePolarisTable",
                      "gain" : 1.0,
                      "mixToMono" : false,
                      "loudnessNormalization" : true,
                      "sourceFileOffset" : 0
                    },
                      "channelNumber" : "0,1",
                    "effects" : [

                    ],
                    "start" : 2314,
                    "duration" : 60,
                    "mediaStart" : 2347,
                    "mediaDuration" : 60,
                    "scalar" : 1,
                    "metadata" : {
                      "clipSpeedAttribute" : false,
                      "effectApplied" : "none"
                    },
                    "animationTracks" : {

                    }
                  }
                ]
              },
              {
                "trackIndex" : 3,
                "medias" : [
                  {
                    "id" : 32,
                    "_type" : "IMFile",
                    "src" : 2,
                    "trackNumber" : 0,
                    "trimStartSum" : 0,
                    "attributes" : {
                      "ident" : "Pasted Image"
                    },
                    "parameters" : {
                      "translation0" : {
                        "type" : "double",
                        "defaultValue" : 200.113683486479,
                        "interp" : "eioe"
                      },
                      "translation1" : {
                        "type" : "double",
                        "defaultValue" : 11.4293199603086,
                        "interp" : "eioe"
                      },
                      "rotation2" : {
                        "type" : "double",
                        "defaultValue" : 0.980476278168983,
                        "interp" : "eioe"
                      },
                      "scale0" : {
                        "type" : "double",
                        "defaultValue" : 0.88572109054826,
                        "interp" : "eioe"
                      },
                      "scale1" : {
                        "type" : "double",
                        "defaultValue" : 0.88572109054826,
                        "interp" : "eioe"
                      },
                      "sourceCrop0" : {
                        "type" : "double",
                        "defaultValue" : 0.0,
                        "interp" : "eioe"
                      },
                      "sourceCrop1" : {
                        "type" : "double",
                        "defaultValue" : 0.0,
                        "interp" : "eioe"
                      },
                      "sourceCrop2" : {
                        "type" : "double",
                        "defaultValue" : 0.0,
                        "interp" : "eioe"
                      },
                      "sourceCrop3" : {
                        "type" : "double",
                        "defaultValue" : 0.0,
                        "interp" : "eioe"
                      },
                      "geometryCrop0" : {
                        "type" : "double",
                        "defaultValue" : 0.0,
                        "interp" : "eioe"
                      },
                      "geometryCrop1" : {
                        "type" : "double",
                        "defaultValue" : 0.0,
                        "interp" : "eioe"
                      },
                      "geometryCrop2" : {
                        "type" : "double",
                        "defaultValue" : 0.0,
                        "interp" : "eioe"
                      },
                      "geometryCrop3" : {
                        "type" : "double",
                        "defaultValue" : 0.0,
                        "interp" : "eioe"
                      }
                    },
                    "effects" : [

                    ],
                    "start" : 0,
                    "duration" : 2384,
                    "mediaStart" : 0,
                    "mediaDuration" : 1,
                    "scalar" : 1,
                    "metadata" : {
                      "clipSpeedAttribute" : false,
                      "default-scale" : "1",
                      "effectApplied" : "none",
                      "lockAspectRatio" : true
                    },
                    "animationTracks" : {

                    }
                  }
                ]
              },
              {
                "trackIndex" : 4,
                "medias" : [
                  {
                    "id" : 33,
                    "_type" : "IMFile",
                    "src" : 3,
                    "trackNumber" : 0,
                    "trimStartSum" : 0,
                    "attributes" : {
                      "ident" : "Pasted Image"
                    },
                    "parameters" : {
                      "translation0" : {
                        "type" : "double",
                        "defaultValue" : 178.0,
                        "interp" : "eioe"
                      },
                      "translation1" : {
                        "type" : "double",
                        "defaultValue" : 83.0,
                        "interp" : "eioe"
                      },
                      "rotation2" : {
                        "type" : "double",
                        "defaultValue" : 1.52655665885959e-15,
                        "interp" : "eioe"
                      },
                      "sourceCrop0" : {
                        "type" : "double",
                        "defaultValue" : 0.0,
                        "interp" : "eioe"
                      },
                      "sourceCrop1" : {
                        "type" : "double",
                        "defaultValue" : 0.0,
                        "interp" : "eioe"
                      },
                      "sourceCrop2" : {
                        "type" : "double",
                        "defaultValue" : 0.0,
                        "interp" : "eioe"
                      },
                      "sourceCrop3" : {
                        "type" : "double",
                        "defaultValue" : 0.0,
                        "interp" : "eioe"
                      },
                      "geometryCrop0" : {
                        "type" : "double",
                        "defaultValue" : 0.0,
                        "interp" : "eioe"
                      },
                      "geometryCrop1" : {
                        "type" : "double",
                        "defaultValue" : 0.0,
                        "interp" : "eioe"
                      },
                      "geometryCrop2" : {
                        "type" : "double",
                        "defaultValue" : 0.0,
                        "interp" : "eioe"
                      },
                      "geometryCrop3" : {
                        "type" : "double",
                        "defaultValue" : 0.0,
                        "interp" : "eioe"
                      }
                    },
                    "effects" : [

                    ],
                    "start" : 0,
                    "duration" : 2384,
                    "mediaStart" : 0,
                    "mediaDuration" : 1,
                    "scalar" : 1,
                    "metadata" : {
                      "clipSpeedAttribute" : false,
                      "default-scale" : "1",
                      "effectApplied" : "none",
                      "lockAspectRatio" : true
                    },
                    "animationTracks" : {

                    }
                  }
                ]
              },
              {
                "trackIndex" : 5,
                "medias" : [
                ]
              }            ]
          }
        }
      ]
    },
    "trackAttributes" : [
      {
        "ident" : "",
        "audioMuted" : false,
        "videoHidden" : false,
        "magnetic" : false,
        "matte" : 0,
        "solo" : false,
        "metadata" : {
          "IsLocked" : "False",
          "trackHeight" : "54"
        }
      },
      {
        "ident" : "",
        "audioMuted" : false,
        "videoHidden" : false,
        "magnetic" : false,
        "matte" : 0,
        "solo" : false,
        "metadata" : {
          "IsLocked" : "False",
          "trackHeight" : "54"
        }
      },
      {
        "ident" : "",
        "audioMuted" : false,
        "videoHidden" : false,
        "magnetic" : false,
        "matte" : 0,
        "solo" : false,
        "metadata" : {
          "IsLocked" : "False",
          "trackHeight" : "54"
        }
      },
      {
        "ident" : "",
        "audioMuted" : false,
        "videoHidden" : false,
        "magnetic" : false,
        "matte" : 0,
        "solo" : false,
        "metadata" : {
          "IsLocked" : "False",
          "trackHeight" : "54"
        }
      },
      {
        "ident" : "",
        "audioMuted" : false,
        "videoHidden" : false,
        "magnetic" : false,
        "matte" : 0,
        "solo" : false,
        "metadata" : {
          "IsLocked" : "False",
          "trackHeight" : "54"
        }
      },
      {
        "ident" : "",
        "audioMuted" : false,
        "videoHidden" : false,
        "magnetic" : false,
        "matte" : 0,
        "solo" : false,
        "metadata" : {
          "IsLocked" : "False",
          "trackHeight" : "54"
        }
      }
    ],
    "captionAttributes" : {
      "enabled" : true,
      "fontName" : "Arial",
      "fontSize" : 32,
      "backgroundColor" : [ 0, 0, 0, 204],
      "foregroundColor" : [ 255, 255, 255, 255],
      "lang" : "en",
      "alignment" : 0,
      "defaultFontSize" : true,
      "opacity" : 0.5,
      "backgroundEnabled" : true,
      "backgroundOnlyAroundText" : true
    },
    "gain" : 1.0,
    "legacyAttenuateAudioMix" : false,
    "backgroundColor" : [ 0, 0, 0, 255]
  },
  "metadata" : {
    "ProjectThumbnail" : "iVBORw0KGgoAAAANSUhEUgAAAOMAAAENCAYAAAD9t9IKAAAAAXNSR0IArs4c6QAAAERlWElmTU0AKgAAAAgAAYdpAAQAAAABAAAAGgAAAAAAA6ABAAMAAAABAAEAAKACAAQAAAABAAAA46ADAAQAAAABAAABDQAAAADq2697AABAAElEQVR4Acy9Z5NuyXHnd9r37WvGww5AAoMlF0tRCnJFSmRwVwwuyVAoFNrXCn0EReiVvpC0oQ1qJRoFubEkuKBZcGklkAQID8zAjcXY629b/X7/rDrnPKa7750ZQKru5zllMrMyszLLnTrn2fif/6f/8exsY3MYzs6GjYELnyGxRC7+AkGchbBROSv5DeiMeqqOBaxK9IJGYw1E8TmWdwQhGzPJWld7z7ug/i69+rgwnALZ696g5k77QqTLC0e5BO30G9pScpGYsk9crIAmw69ecg6/62jQXu89zGmcU/dSJZM0SwUmIaH+N2b62lxqg7NWjfb2wwqTDVxcw4Z6DxvFlN/ruNr+lV/8ueH0bJPCsyEmqCFuKto5VXUpz6lfBW1s8mnKWAY7Oz0bTvnMQ9fXiLNUx5yTTWnzMXRF23CIUEG5T3qi5eUijlKdLjTiHCKtbDnyV3yRz15+dnqcuqt0Y9gcGS9qhb9IeSGlwJ00bBmNTOh+UW09JbxQc03MKcovuOqeT9dLhwhW6myVLvGrXN2w+7VoWO9pJ5NrddkLWS0h7c7vUjl1d55sP0PjpAGaZytO+Vvn0RJSGhvYa6MlkcI2ViH0Q7DVtFjhcGrZEhcNtV0CsJg1S2lHXaZZ9hiNCbc6N5AfduGx26UFq/S3b925hzMWW5pCBJ0JOVLvEen4MdioMZJK1jd5q/XMAUb8s7GhO0Jn0nSvxL6hyhU+ht7B51QbuMZyVpqelxIXyc/pivMsAkqoK62VzOuLYemMjo4GzYC/5gReL3XGmWxSKBejkozIUpXenAeNedEpFvUug8Bbt22yFM5OxW0KWipLMjjn4F5Y7zpil+St4a8wlJfWa+Wb57FL/uaWvEbcsbIzMiK57TPmTpFlrZzqHWshJ5yLYmr0VHs8ByjUW3lgQJDDLt86R97e3dkpZwTRHj7e2wRbGqBm1XZxqab+KWsR6MyDqTDTMmU/DJHpKGlQsYaO6jVZKQBjoXOY0Z9FJyISmtcY0vkqcEeQrSlzHtsog98Yh9lWOPOL8Hi2I/O4tUGNUV8XIgaV7JRe9iW9teZjG4RmyTI1nlIEaUZamMkZJ9gG0hWbZGmhabgAGu/dUBpWQS/gkjWmO50ObXqu9x6v/E57wirtFbawsYyRxNaoz06/rlYvrTOcyWv9UTbCA+B/43Osd+S70UFdEy/kkVgws8XSQpp9i9vrmGWP0V7uVeni+0Q6x7b5YrtvDNsnThslAZbENzEyjV/AUV0KKtV8YXyjcQKbqlpJYIRbDPYghpDBUcTKf1Ngn7XKtCFsNsZNn56AAWwaYUmplifM8heFpLTx1Rumy9EwZ0qVA4CXRoONk+IsiiQKOwTkCP9V1uvwuqFTN9l6HQtXeO08qnN7dZhYABG/+C1ld3IZkTPSdXCd0I98l4HGSJbptXaKfFH+rD5g7YjTTkt4k84Ks3egrAU6A+2KDLLayTa19IyNPm9LvrwWfnilbuvXHes6DMdL1Mdk8OkIMRphM5vjulCv7bMkx3yVL610uCOPgtsis4xYfxdmrH0hMtfNQgEJ+Uud0JVqZkuQ0/rlWemlnrLEz4btGFiyKKBkg0aNoZCYWJNKoRUM2AkNhkx7lTDXa7CceGhBSd10xQdrIj6rp1FNXRX3ey70PD5BLMXkYRYWR9aSY1YM/TL4ylOQeak9Zs+o68ZmdVPjumZeH7Ch11EWSZ2fGutoIKGzjogjuzC9UhLpdgtvbLVleiNZ9geWDLUVldjn4AmTakeWuue1jIbXdT3VYbk6wUbGoQdDbT2waJaJF8hGZ8Lv3M2vOm6oFm7D6RDa3FhXU5O0u8YCh87M68GOdZ5u0vbiR77KkhRDc0a7dx5btIFWNNXJyGhKHUU4vopFU8mZMUHJktAWCqWnjQY9Ubek4ZgpcT7QWGQiYJd+rav7UqQGsIzL9vEC6nL5QiGJMze0IjvNjAibbRob2ZeBScc3ziuU3gyn132x8U0IYYMv+UjwmrhfGqltYcmijOa8H0F+w6uVpMrFerocXS7rFKJ4mjjQWWoknvLmMOVuU1mPSSvVxrGnurW/qhv5dezoBOAOQrpHpbUyUpr5foboZ/KZ6KMzTz2mN2nEzqbcbccR7SUAVIBq5FJFMd/BK6WvO1IsDCaNeMlScImP0aLPd9anBTd9b07z3mSua9CCpl6VPtKdaPRYNUKNXJ1OL+s0luvr5d2AgjdauxKrm64HE+TwmeV0EnWl15+rebEQ1JbR+UtamrNwLm1gFuFJLSlEPSvLIsUiLt2MaUY6gEYxl8+iJX4Ku75TJk7HN7vjJ29eQJnGIj+xM8qouxY46LDlxaZmdWbqPjJY9aaapvXNVnnkDO3FOkfeokhbo8p7u2DFk/wT+VlsrqBZ9sNG0Ycy9U2e1B5eJgLVRp2vgWlqlwFA4wK4JLHBwr9KD35zUGWwUGDK0jBrlBaU8ctKaAynd6HdKx0BFiIxozUgOmIpfwF8MQHextl25RGX99OFFYjU1xCfU4kiegbQpmfBlB9p+1ksZU2JfnrjU7wSsk8EYqcbDXdjXoFelxFToqCMTB46F+GFrz5dTNHsy3I7rI02TbRIw192xhnK+mjaf7kIwnpB9YgUhhuuxeEcOjkUnyd2l3COU/GJZvSXZM9bhZaF1DGCjJE1wPMs4Vb5nkNcFI//NAqdymrN5lQuXtecEcVOgKiBfeVRSSmblSbaDNoGWQrdwObZU0OvGrZwm5vn7G7OiRinutUal4GkV3kqQfiNs2X6RaXz1Xke00FfV5N59HiWN9nXQbkt3zetQmrpy/r89Pr0i95gi6DrqBdsh891BtbzZ1mLJEkJ0+EsHNvaxCMG65nT6uhZs6XXrpxp3U0apO6v6vIiXju95Wtvs7nlFswqtdJ1zZZ6acdfpjvROHlPellPt1FP269CbLvL043C4rKxYlklL08f3BVTECFqKiHWxaELbqMnPmsk6fTyTkV+5CPwZhZT5VgdaHZ1qjMFeBu7pco3OUHoBAW9XG9Pl/QznM4MhGpXcKrN2PIolP0dKpnqXITvqbG+Tr8VRLedyQ68QA2IrpNcO8cF3OmOqOsiM5Sqbx3Q+XnWMdYTWZUWShHafn4zttMpFLtdI3ZoFc/Y3miN9DrSBVfVs8CDtVcl52CVFayo9Rzo9yu7eJrmSZ1HWZ14sQVYM7qLH1uOQiYBVZUfwTpWJzTPNz4PwoxwU20BSZkUZ0qrxugUGrVUWh2BJTPwBrhYa18/VKHINRJ2vGW3aOQbrdVLl28BTmKt2sXaJ/wut0On06zULzB6OA9H7KzbQ0YozNR1whLCuEEGhJ3gWFe1ULAf+msBv7DGaatiUnfvoHs9XRey1eNiTnAaO2kZdwOFuXifapJKmV/GNM2Sp6jFLqKsEWwmX8/rNXs11HWqv3L7d9n0mIIlOAPFjjtmGXITXwW5SLtjn3ftujmvPINKCqueRXhnoJUffoDb7vfU+n0gT6+M28y9lrmiGv816HcAr0qKsvsckZyqvAk/A52rQJgs4teWd+VMhas58LuVDeMR6LLd0hjMCE2ka6Plzfkzaxz5rJzC8V5bg1+8aGgbw1abGee+oHrhY+Ms829dTmun0d0t73Lkcaqr/lvDWZc4iw1r7hS6gU45q7E5vjxtcKrFEAMi2lUyh7O8oCivm61mLQThZbdRy9VRcBwbKMw0PlgFu0BglpBGr2/KLg0yiSSr4lU2QRqrGqE/IZI3WW2V20gdwrI5vRniu4xGF63NV/SYaqs+9aW+maYas7apYLnuRULA9a2qLkcQTEjDz7xgWeGmZ+VEu4mO+cXKmB/y7UvMEW6WN8Es0Z8KZrFWQctJapY1Ot8MI9EZ28tF56cbP3pj2rtLO2FYtZ+JPLEpUYDdOyzgv5xmGWii+SixOZWu2xrnJjZm6rmcdCPY6a7gWrCS2clWoRPdbCyNgOarwEZ11EfHm66S7h9zG8ZIyTLl7LIKU6FD9vTF11X8VfiIeQ6vcBCEbhGMjETBcG3ooHaWHvgipig7rxga0pr72ip7stCbWjZqC7jg+lRn+XTHMpU5A8YnesuQ69MdP6oCxHSPr8dYyH0EcBtsHKnAGxtg1kCdm6qDFOK4qTM2tm3Udj/VbWjOGOr0R/hZ2XuNPoJWxqpiA8jQ+fG2kHS6nIlfbCTVGjMdTe1THHVavdLldKDALx68aiPuj3iaq2NNI6U5wpQuq44O9V6uXQdraTQ+uk1wa8Mcp4qKW/ELCayl+nCZne6oDKqTkWkjKM1EzvLu5xL9kUDPfzTldT4WzGOFZqe9em0qWyko2+kGMBUL79RZ7WZKDrtzjkv3EzdiCjuFKKqSEIuWZvxO8kwYP+zYtBzpksw4ZhZQqSqb2vdhuIp0zWFmNFdQlxxp7JALcLZaGjFLT/OOmzaZ6VFA070dR8RzIu92dmIdsYamus5DjsOV5ijuej2n8ofN7sSX4SufSjbq5GF6K400J1pQrrpP/PxGkMX3ymYUETpFaZXfy2roDVoSTk9UzPHmMlCjSb/YnHGcMNmhvfrpGLkGgUzDHLhymsEUyZb1o720Neyky6l62bXLGAc2MroIXi8Lq+2xitF1N5Y8DGGAF2mvR1L16TzXF49V6ox9VjJmroks1tkAoM1+8wJ0WzO2MdHK5WRuCAvglydshEX0JYlCPhXRQDATYNONsXGqcF5dS/QA6wbRMWpStJrfy0fltBbt8L1czB9VWDGqcype4Wgl4xzEH0K2VY/Vt8buJ5Qm3ZZkwsVggat2GjF/CJw9PMlw13qLkecRHU7DpqOkkL2VIs0I9V4j06adNXhQnFrnx8P6BGNdRctqXBUCLIbXeW8xHoEaCdokfRerC+eVTxuax3rGyIhcEed1s7DMRzX6DOCcaL8RrczyvOqU5yAuZdd6ZCnznGQ2h7L+Q4bUuQpo0/djVMZLW4syj/axip6ixUncBCQ9uz13NM8Lfdp8XnlspjnhCLOUtv6uXznvOlpuqxH/kSNL+liDvwwxFzmmtsTzGhLwHe7HovJfKemw3WnH4oXI3A8WCsReoFuctTXjBOrINoUSp6puBGYSrlfsMoOLwqw4ikxFwtmQHUYnLuYxqek0E0jlFAzx+h9RSnljMpEJt+VHQDhrol/mlMsyLMNPGizNyeFFocqVvzDlo2ujyuo79XTiZE2NDUcgyFd1KlVbYS3WbN6K/IsgpBof8/yOtE6hc7gW73WXjUhv3ma1L7oGzeZL6Nd1MOZ1ds4rHwmNAPAw4z2dA0QmHY6A50ailVRc3C36yiLaGg0uAqwyyH3GlVBjYxfWsxKObgYZr96uq8r8/gkIX5b1cvM0kcW0uWMQvVcWuKprLF8TGcFTJr9FX4MMuYX6MOElkr4IYM5RT/T7k5uzNwXoAHEC2eyAa3halzWvdl7fPF+83qhT5+YN8yrx+9TXfCD0XG7b4qQ95ylM1h+s4+R1vFtlwZpQcsw5mgFRiU8T9DafShp8LqXlqWw51vHncHBGUhnNjYpT3Pkw4WjqPWNCJY2dEzpeFXfddedSV85Cejrr+t7bWsMa+p3GSoUwbou0De0Ub3qbZWRhjIyoWuWaKsZy770WhLiFvzIyCj0xBRACKJiEa81ubF6NE5IiRmQh2OhWuVou/nqcOYGJjyl3xBS9Jfp0yOmVp3H6lChc5kHcxEYi6+iGXFgqjjtwTihdwmvJOZdIlwixkJliRXWUARh12x/nycmbBjzdyhCGh1GRo98iOHUTCAPZ4mSBca1ctDwjSESj13m3KRe35C1nKA5aJSS6sVZ+MuDdP9tVmYTtNIhOzFu8Jgjf9T3VswwoXWWvLy99LmBtLShIAtdZuVkjTAGM36O8nEkc48rDxuCCrJ30iLk+Io3oYwVeDsw8j5P19M7P9XnGNUGmuyAqTWamKqdYoU5KrPQi1+Lbb0/B8jnMMr2CtP4LAyRsq3QQHZR0tVll+G1NE6nKN29dWMQqiDx3N+8S1yGSV7hdslYzDNpRVEqdlh7s+09OT+hpcSps/rg99Z6Gb7q3mrnT6ai2i+v7rS0eQ4Wo8u/sbA4nx8ehpbChkTqpg5FT+FH+MDJJLz+1X6CxVn67wKHAfpbCcpYIYwU9ugy0RMPkDGe5VE7U1MTpWk6W0ca0pLVZu7keunw9HYpd2ClzJVZ4vQ1Xit91xqKGSuKHGBnbtOH9qDYc+KWqvc5ZkqFKx4DR6LKuSsmoGLCOnVFxTmZOE5JOVaZDBlRBGGehrYLFekSaE6yOqTDre23DNtNJs7Uby96Lc0R7cHSY9Wh3xhOmnac4o55o3vb21rC1sz0cPTgcDh/cSw+zxZMsh4dHcchXX3kVuA0cb3d4+eWXhysHe8Mbr/9g+MFrrw03Hnt8+OQnnxs+/JEPD7u7e4yG5azKJM7JyUk6rBo1y6iyOcR7gDYZOe3MOl9KV6Ir/8X3eqWd0K+Ves/f0g3l1ihVT6trgfq6vAYwmdICxkWJsd4OJB+RDWL5tz4jEr88pDM5j0VozOXqJDMyVsFiBR24qp4zcF4Nc/xleHAW0BYSDbHydK5+8Hsd1LyWxBvQqLgGcIoRpkiF1vx6BbXzNMqPVuJoCxWLP5OH5IbePMsqwqhffAuAd/15fHKcEXB7e5unuHG47Z3h/r27w/7+7vDaqy8P3/nOt4cnnniC+KvD9198cbh18/bw4MHdjHTbvChsf29/ePzJpyh/Zbhz59bw2I3Hhm9961s5jXN8fDQc4eSOkt/82peHn/z0p+OU4l29ehU6DwJ3/caNjJpOWW0EnXX/yvV4XdZnGh0lK+Is5Yw6WtCimD2sUuglF13X0ZWSxtx6hovQV8tA7pxIO9P4Vaix0xllr15pATJ80I62qd+u87wdUc5j6Vz+BVQShbOcm3TQJlz5NLUyMmq7i5VMSEoQtAIK3eWvGLNzrwRx+TQSVtoFawBV3gH6lZZIFV2rHbjRyWiYvFJIb9Biq0ZUR6UGDq2KVf0gus5K6BA9qXSt8l63IIE3ozcEUfM7jNH+giXqctoowM72HnUfD6+98srw9jtv41C3h7feeG24dfud4cv/8KXhVZzsypUrw823bw337t/LlFHj2XJ06894Et/dJs3xDJ3Hke7oiHtSOOEW+U6jX3nlpeG1114Znv/mN4cDHHEL2e/i9A8OD4drV68N24y6Ov2HP/zR4SMf/ehwgoEdXL0Bz+oBQeC5qajSfJeAiSx89c5qc+ENe9UOAvZefkE5CxQqofpiSw216pcPSyhLBzrRDb25vgNWsIFvZa4EQiLOhVOHjnx12GrD1A3i6ixHarMgWmiXc03VTrzOoBeiky4WskcZe27ZJW1qRldAL+zXqljj7oLoTIQx3SGXrgsNVWU1FbJ3IUwtb6J9LKjUFgpMPb3aKhq/544WnEav+KxWmU+9imogU5vG7vSxO9Nc/sIGdl534sVnOOtaJmvsJRv8KY5o3gkj1wvPf2v44z/6o+GbX/36cOvOHfKPmXoeMmIxaiPjDiPmg3uHwybT1KvXrqEWtk3CF47G6GpcPo+OXFs6pfStaEwgwT1h1JXXbdaMV69e5w16Z8O3vvGN4Sj1U0IbaYjSvnKwP2xhpfsHB8M/+kc/OXziuZ8YPsHUdndvF57cCNoeDijb3mH0jEAlqxrroetzoel64YKyUB3oHb6DlJ7Mb4oa20wjn+rrxdUODTZEJNqpVR29/ZI/VtCa1ZNcEBnrG9ePExFROlquFlXFU0XGKEzHJXwDQLMVOw8nkEWsapzVG5p0FMly9C5GFjZwOuOdwUwWOnPRkj1p3Ely6wMV9F5nDlBb5Y0tSUjX5NyxqaP4m0a1OQ3jgheVKuk8m6qG7KWd8Z4/XaXhKJNzolLrKNLgr+9kVg1+O8UretlldItcJTVU13+njIyOWntMLb+K833uP/zx8NUvf2V49eVXMt3cYvrowtEp6+amI2bjDxo65/HJUeid4FSqxyeUdBSNWtgjMhzxskPliIawVDfcw5lPTm7FsTZxzC13DcE/PmYEBWcbXKfGu3t7w/233xz++q//Ynjx5ZeG23dvD5/+9D8BcoC/PToJnxmANzqqmr5Oa8bScfEb/VCDltDDTH2RQciFPNPVOMSa3DRCzxK2w/crWSuhYVZ+dNOoUVCG3VFKbz3ldeocALaSCKAeC0peEm3pllsXiOcRw9lGnmDixDmJmF7gT8zRtuWnYJLtF+0iz+LU0INtzE/fNHYoTFURoBwTlBgf+RqRn7XB/NZjLJTLcjEUCSiraYgR/q0uofDrmQ3jYwHxKV1GCpcTYmGngcxPcvYlriLUNQbdSoWVjiW93HSeJWzwKQegYdOOxHx4FtxTRih3RR3ljo8Phz/9088Ov/M7v5MNlj2M/PqN6xnFsmMqPH/upMqibVV6UdIkYA399UbU+YQraHZdTRQX4huOGTUfHN4bNngzfO2cUuI/La3zeosDTpkGP4BfnXlj+M4L3xzeeed1psyvDj/+iU+y+fPR9LGHhxtsAu3iuPvNuOv2SXFQdI1bgTroPBRHYSdf53elBSNe7mWGQqPSbKrTrHfSTjQVuz/fKWhfqtg28mS5H5NpL1FJT6FTrqvdST2hJISA0pgj2Alap+W5i9s6b9NAUxYNWN7jKUkphdV2lQUQxDp1ObDdx2cyKZPnjc/+9m90GEBovLn303jVAwpiw0rUj+QqTLGeY/FibhcyFbaKAy3ZBdCqZ+rFJprzWFf6PO9h4xrpGdNopx3SsVHlr2YK1t/4J6/zbV6fpqhGXcr08dERU8T94datW2zGfGf467/8y+GPmJYq097uznCs00HYMeY0I3FrXPKkYmOmRusi3ZURx0z6vC8wm97Eqx4WLAUiv/S8iJsnJ5j6OsX1lYDy5UPZH/jAh4d//On/ZHjuueeGZz7wAZDO2OC5OlzZv5rdVh1aetVpg6e+gHKSvNB0s+p0xjqrOocoCSfGlcHOoUndNsmkb95p75AaXUWbt4dvHJd6qBrpIV7iiEfJPH8xAV4IgrUANEspZ9UR0jDQO4NeVSqX3x6ACf8yS6jvqqEObcxgE+0QRWBhmmqW0xSFjuAI1OfG4vox56IgM2FoBiSteX7nf5GVGcIl0Y5/Cdj6YirVeB0tJnURdTF2TihHlNsyRDdomFiSPhu+8pWvDJ/9wz8YvvD3X2Btd8TIwnqPtZfxBBxfR6+RljrRheNiZG+NJjdwNdNsKy8Kq9+S8Q8iXpnZEmyZ/peCGR4IGLtvpRPU9thlg8i3OjiNvnXr9vDd731n+Nmf/afDxz/+4+z2ugnlurYcMdTB0Xm61ryuC2l7bWDJmZaNHmKg6+TF02Kbnkc9KKUuK7chlVtxKwpJJeQiD4ld9FWdwQhxAULevlCkA57OZmy/oiAPNWKvqVvac/pheJ7hazcWQq+tXy3swhG1J2vK62iL5Bbr607Zp8I9PZchPNIBGGpUXqbYa1p/jdKDMuGlI1kPHgaVqPMimOn0XC1uXgVpUgrDOpQu4rRUZztk2vfvfvd3hz/8/X/HmuzBsMuO5RZTPMP9BzVuWIeSKZd16BD6fOKQHqejWqKZVtfjCy0n8iyEAGmu1YeYUc7oxs9J+K1pdKauogLiUlOyzg6Ot7j/yOaOu7K3b98dbn/9G8MrOOaPffzHh3/+y78yPPvsx4ZN3jl55hpXfIIbQrKYzswql0K1BTAAdZwlkDEpbD8xJM0geZ0bh+kE1ld47ci/Vkv9rqXFLcn5JpEZgBE7uDU8hly+gBHsoiAvwrTLAqjoqWdWiQ4GT+FH3FnRcl3zok53xRm7IbuIDyc2AIRtQE2LrYrqhTqF5Su19Pl8LyqmTclCo9sKaxOlEtYh8bXt0eDnF3dFl4N1XYavTS4Gpm8qvQWVOd2f0oHKibYw3rv37w4vfuu77JR+M47oyZhrVw9YB9IIjJiOHuru6JhaNlz9lkNGl8i24XRMI5+3RtYXNW22MYORhu4cLV+Ln5zgCZ2SyCYT228d3TpGsRo9W1FezXft6itm1eMGI+U9dny//KUvDm+++ebwK7/ya8NP/fRPZ6qa2yiRC8rWB62R7oy13s7VKvI0QYUXkj2np/u158ejUoX8W1kqrHgDaiw0WYHIaChxSoIDrvKORKtoxmqjO88RuOoaczt+I6VcHSLVBLABRSdVSu2U+O21Bdu+tYE5BdML6zo64xywihqyjDiXMDRBF3ZGq2T87vyPGWsi/d5PimDQN3fJXpQXI5LKTJAULBKa5Koap/Qi3LpU1WdJqyO2jIFCqswUVkhkekrdOqPb/y88//zwe7/7O8Pz3/oaAE42T9nsYOOGTRRJhWu677NTdjXLMySUzkvnyJ+VMF/U0KLzIMlK6dgkCvebkFRF8934DS1Lceo2xZWBjJJB6fiMD9ST3VFRi3hRgoY8Hx2ypbQl8+70srqFv7feenP4gz/4fUb4+8Mv/uIvsdP6gF3iPcCLbo7mNa6UQZEkXtdEgZx4KNCRgeijbCnVNT2ESIEWtehIuvnE0YSf4OKsJNVrhKEKxdLQC0q5WlnLGSsowKAlLwgddoRaiBTVGvl6lROAdZlSTgLx4quSldfKWvmsJFFuJVfoQva0QvhXfe4IFDspfYyQrbDR4TJtitf0vvcQGk9w43zCdxqzhgOgz7uL4qN9dzkuwuowXTXV18gLOfm3Ofkjbq4j0L3bt4YvfuGLw9//7d9yT47pKDJ4osZRRqD0U0Q0ED+1RgS5lXkApn5bwV1OPqVEHNf9VZ2qBStMMDImKtqA6lKmUZtdbVSFSrFDyzVUdW4QJ2onP9O7XClFeA8PCKFeRDs+OsYh3xr+4+f+bPjQhz4yPPepT2UN7FlXndLQ+bWtFjrXUIj2AueXNN00m7Ba5nRpMSErTDH5DXcUUGtvFFK9HUtW26xgI8WC85ZcRbl99wr6dSxcyRhLKjKVd38eAYoRkk07XUkjwFJkIpWCOnHc0C1LBZmSkoJYZo4jDQ2AfHru1LtUmUnNauQpaZGr1lJexc2tUEbQU+/m2hvlYXE72/1a1mLH0XO4p0djnnjv0OGG612Oo7340vNM28jnhr6KwYwxRKZ7lDv99MZ777zSa+uYEE/nAmnLHJV38Mx64oJtIPaBtK/6UjcmhDQ+01WAqjwzkxib9xXFcNdbPMMiXmsx8ilv5AIJvpt1O6x1sx5zQUa5M4CkwXjllReH3/jX/+vwc//Ffzk8wbE8DwZ88IMfHPb294cDbtl4Smh7YydO0dtg3I3XcFoI60t8mZwgOuTitToa7cNxVt1WXFnGUTFElAibrIqIKzVBQzRCsXa9EKKEVR7MbigLV3EbygqZVVeHQoDhcyS2BLXMD1S3u/GkDObLkWpkKIlmdWsAmUJJuGB6IwgVBc0GOfMW65RDFVq5whufpr3mzz9SWKcC888Pnf46CKnV2RUoKw8hfGA8bqdrQ1uclMl6iqs/Ga4xfObf/x7rqc8zLcXwWQo6sulqWStKhHQdQHfN2GWYeNdpVV2NQqzbmuFkVPHufUKH79eWvfZiC3TtLCo9I1/H0ckgV3pW145k7PBGdkZomFYS1+vymNNPwg9H7KoOw5tvvcJ52C8Pv/ihfzY89fRj4LPxQ8dzRoe0sSsHjusgOj2HdtXNBpHO0XkYIz1D12khuuqJ2RX91IhbyOHbn2kgaXvkNztH5zPTjq5gMwUgqksqGwgzR606Fm4DJqtwXdJnQOIamkn7NeN5xqYwKZxdgthsK6ANpmpIDl+LKXM5P0yfo1OY4usiQxZkTmQZVmWoj9VqCnP6bnDNsSu/Y3ntn46hZs4PY5s0kN4m52HYRAuhJWsEqw5CR/NUjKPBv/293x3+5LN/kAPYO9wQP2ZzxqmcdMpgqrFcY562H1bdYkeo8+VVUR1xbFSrD4/G0X9NX6lRMg1p1K0whs6yaeFCKCUUYbij0OpWzmqsLHSQY/2kKHNEDDp1dTqS956iLpTeHIf157o32U19+eUXc7Tvo88+iw6ucKzOe5A7wAINTj6Q1sGtT2uKrGGvOChOUzhGL4zI0DisQDceUvgWdXFjQikjl/r1AWsMjLIQzyDdEUgnLLFVGBPdEABwRJN8Qz33EgC/OgcFuR5vltuiHBQXYSroo1WR+eF81/Sj0251y0gzxCrpY3aHO/86Kux8kHNKet0oj/86I8gJGQ2Z4W8Hg/uTz/774TOf+X0eVboRo1M/jizudXRDlm9ns+5IOlXKrQxJ2iYEnUOnlU8/GocGe4Yl1SZRwYSJWVsUcr6n3OCSJ23ppSTUApjs9MrmGYqJcm7yKPPRqSt0Kg/YmPEtAhq9B7+Vy80ebVvZin+P090b/uI/fm64e/fO8C9+9deHp5/+4HCH2zkbHl6XA/lwZKWqdAFWqfN79RNGipvGVJyGkguCREEHPzI29PAFVncw08JldtXqEj7g+SIz+Y1Aamzl59Q+hxTkYugiog6spr6MFJXqDhoLrXikt1QRzti1JoHLwxL+GgSqkjNCb0zjPa8zaV6Ppwzg0hnsaw0/pNA4S91dUZqU674a2Vj/YbA3b74z/NEf/uHw5xjh8ckh9xH3cvYUS8aQuGG+6818PRADZGPjjPuPPvrVjaNkVwjyoKdrOFpoRI4o/X6YjrvJaGo76Oj5E564eomhq5i0tPRYozb1xN0SHzOsDYgJ2FGwmkOYgssTF2Tu88QItQ6nHONTB4yNMFe/x2zddjCnzAK26JRc437pH/4BHZwO//3/8EGO+T3Bps5hya8MjraSd/5XFVZ9jTUSUwh7E49TwVIMENtCyBhw0omRYz3Ui85L61wVQcWnzgmu2JGKoTG0jq8CeHff0KtqO+HiutfXc8crkbKRzieQf/pvf7NzeTkTEqCxegXLCDEeMmvK1KtdR76XzSmY1z/z/Pc/3o0ZaWL01lBPSLBhw8mZBxyi/t3/67eGv/zzP8vjR1kjcT5CZ40jbbJpka4ZChjiMWs+DwMc8TCwU1h3NPuT+ZFpCzwc0UPirsk0/Hq4mPUreD6R4Sjcw5nnXkmoOdeunoaZh8wZABDGr3Jirw2KSI/WiBzIVminwCYNFnpw7UpuwZy6IUXaqfUWZTolq2GFQJ7j8OjGjvybfoxZwi//i18bfpl7kXluVJnAr1tgxsHmY1DaeZCzFI3MzksX485UdLDAo7+ili4oslbHI07VmVjTh/zIQdXftVE6XeRIrCkUDukJZSy0ZsiORdIJPF9VVtid/nxM6XkjzqwKeTR/7X1GG3ddKJSJmTlMGkNOCcJNFFRizCcllvdQ4MCmvoarEiNFx+nQD3uVTtE6DyMKZSSc4DQRnow4PObA99bwJ3/82eGv/uLPh2vXH8P4MFSMUnk0yA2dZqPUJt8nvGvF+0PHxDdxOqepW46QiJ2dRcrE88BArnRm0nJtabn5Pi0RXqIHojirPDrynvCxrHRlGY1WAmQ6qbPputKUnzg55R59E8xOYN4eZAFYT3TwCGU9URJDh3+ujoAICRB06ShsV/Ok5eh9jUe97t69O/zm//4bPJ95Z/iv/5v/VkZzmsdfnhLPYJ0VS3L8Sm5orSsdwSKLbCmT5pAHzhuKnV0klinKM0W1NvUXmALM7qrZvayRV1c9LHOptVouhTmc8FZngTCtIpJQT8dsRQK0IqItVXmz757vNR1NCKddIacQBkuXOUiBZUUixS1uUZyww5jmM5EonM5+lQpcjTbW28XrmggVDeLdhomDFQqdJepIQ7eOwifjXfR85g9/f/jTP2aN+MSNupmvNBmp3NDAKHEmz4J2OTXQbHQwfSvH0jjaFM95HmGHx6eusOmRpyjQtSPdJq/QiJFBaGNzPyNM7jlSXutI4BhxzePuAbilD41HJ3VE6m2iExl8wNnbLUSgbedQ+a4Fwy9fdgAaj7xmVEMWb/arC0f9vra1Ug3NWzubTsujp+Jpf/8gHctv/9ZvwcvZ8N/9y38ZVmqqXWx1uxjbWDllEn3l2nRzXksFP3pstlICBlfzUw9lhnLZaSt6pfINQOpKveOXkXND56dfBRxpmKDAdjOv+EA3La0Z61xzXFEuDDPibWTsOXW1khCMYIukhMinNLFY2MqmzKI3pVvMuQeh1ikKVekVqRv48uUcqg3MxjkfQrmq+YwV5H2OuD322LUc+P6d//PfDE8+foNpnKMTMFxj5J6Xi8zgmE08HSJxG+MMwz/DaLf2YiaMUG6I4Bo4whVulO9wbrXUCYJduyOajgadbaaGp8ebwyFrMDnKB+At3mlzhCNn5xYVtUGStZq3XiIIIzDwsiYzDMdQjrMfnzmi48TtbQBkJ828NCOdzzeG00xNiYlokLCHAKhM/nd5+kR+/ZOALXXCLrMdi68P+U30dXBlf/jVX/91aCCL+pIV4LpDEY0+vUpHNW6Ms4vqsHJIQoAekD80WnqKS5wUlw6Q9hBOunCYWywNXxhBq1IjDxGmygJcnBBNfjl4aEJZG6mcRlcehBtDQY7JCyLcZxS7URAvuPmi8naVANHwwpcNMiuxdAw2QA/C90bsedbVe3INXqKBAS2YI/5EZ8R9yIiDxnlBqpuOLHys11HqCkfaXvj614Y//oPPDFd5dGh//xrvkLmPg9TIdOYaMcaD4WM7jCnooAxfFTmCOXZsxogZCduGxw6GvMMpHZ3NRrPZ6tEfhIaOT/37Soxdp4UuGXki38eu8uyjToFzbWDojo6uLQ3en9Q5j6+cDYfCkn/MjqijbzRJ+REj/BH8ubGkc+xSZlsY6uFmnEa+yFcfKZurW0POhlY5jlNuW6eMjjLayJFyH72dHG4Nv/1//Mbw5BOPDz/7T/9znN/1KPLgrNmZFZUwkW+xMSPEKW9O6YgpQx1MWomTGXv0Wtx0qy+ba+XC2kggBY0vSiqMkZ6x7hoCsXHbS+way4n73+zTkmTk2r4a/dGEk/0QlTaQnMBJDzaxnAqrfJFQzEkHMhQ3FT/n200CBeo31zuYqKGscCFECti1AnakR7iqjHF6tAbPNlVmdwodje6/c2v4N//6X/FOmpd4pu8jOYtpw0tDPqOfjDwtLtdJyzf/wDoC7vA0R4xRJ+LPl0D5Aij1sIVROW3U/J00ug7bvnZ92PXOuiMPBmTeEbcbfJscw2amkeYJY6fhiOgGyj1gNphaunFk/JBNp86jmyjq/Dbv2/GWhPW7Du6zDztC7x1uWD8dQc8HxX8FRC+OvE5J6aqjgNKn0QoYaJycB5GffGJ4/fXXhz//3OeGn/qpnx62rjIbUNZmJ7WZ1/HOv9q5JVghjPT2s85iIdxVvlFh4DX8FUDhW0R+N7DY7FjSI+ABkpmP7dyzvUq7u1+Iy1cy27fll4WCvwxqLA94ewdOBCdjqlJTakqoTFLm2cwKMmYmPRI1ooL4G0PSLUV2SszD0JuWR/hOtzZwFlQ0kisK55UVGPZGmPEwwzaa86QYv4aNrQ6/93u/PXz3u98ZnnriqeEBuxo6mhshNqQ+F4O1Sj+kq3kYHZnipfdnRMxOqUfJMHLfSH6Go+gYe6wNr+QVik5bcVCI+HEk0zEcnXbAq5dY4YN7OOQxZ1/t3NGRr3AUtu/O6pB3793hlRonwyGbS/uOxhtXM2g41medyajnqHx45SCj9fb2rr5NWe34ZqraHDHdje3BJyIqLzR3B2/l1Dt7HM11zATK08HirL7dwPZ+jNdFfvkrX8ptoF/9tV8PD9t9d5jyHozWjis07IBkymB+ay83ueyY0hFmhLYKK7VWYe1sWvvnAt84TaoRwJ42+UJFoqrAIpJFIwDkqDtlJ7o2zAvGWmeQnetZFtFOfTH3spS2sRJkoJjozjGBVKP19HpWeqnXxlaTyZQ3hjXmKNWMubzmJ6zN7IWPfp2R0wjshX0iwWcQP//5zw+f/5u/4sn8vdo5pczpXRqfVnLGY/N7plR5XTpmgqqjMAJodE4TM1Jk6odKGcVsYN9zuovB7vHAsedRd/D8bddo0DNfthyd9oHb2NhLB+BDyccn3NfDUX1Voxsth7xPVePUkE2fDE/l7W9v33ybd+A8yAh5JKMY6gZr01PgDlgTHl31toQbPRq4E0un5dxKARYOm+6V0V1YRkE7C2j4ygsHthxucCMHXH3edZ1wx3w8+A1aRt7r129kWv/Zz35m+Ml//Onhxz75ybS8I7LTauWMrUjXhEF6Ohbl/BPyZYQohY5K6tzyYMuvi6pQIq/i4knT3AV3sZ6QrAqtY6ybyFhba9fUe+FX0VkEaXmzoll0EfQhUryBYWSrhArHF5EsZVxOu3o9TV9V9TC9d4QcGt/qqjE6hEqbeGoabYXSmZdNOFNMglN9lV+8JE6Frrl8Ru/5b35r+N/+l3+FQd8druX9oqzLMDKD6z8NxdM401ROg9WVq8zOKjuRPELlu2MewyhPmDZu724OVzgkkPUZsjuyOIXVoHVCjyA64vouVfH2uFqXq1EysMUtRtS94SpH8VSQr3G0PHVjwMc40/4eO7R87ty+zS2Gu8MtTseoaqevDM84CgcZ6ByyBsUhTWvAeHOcUid1FLdaDyz4/h6NOa+chDne7BMeXW8GyNGbTueUdW6ttzFoaGxs7mYj5+lnns5Dyp//u78fnv3EJxixa2rcHwta7tiVx/u3Nqf19qdcogfkcKJfcabraCbOppMG2hTl6FBTCRx6UleZulKW/+gUFIJwgpjfvowkUHROsJYLAoVzXGFNp54L0M4rmu2mhswSXGelV9nTS2BrkwW7jGF6rjAVU8x3h5ljzONW0vlYW2HLBGbBmeew0KOBjk4ZfTCqz33uP3AQ+s3hA08/HuPznTAZYBwWDDDm6HCGAzpqOPpl/QerGrJTQTceruBATz3+xHCwu5+Nkz2MzNGv1mtMR6GTUdGRDd68ub7LaKizuq70yYsd6pGmHuCaboeppRtBvnVuh42d8AIdNXLIyGQnem1/b7iBwz5gbXgbZzw8Osl68z5rTg8LUAEj5V7l3XfE1Xn0WDoR6tnICLfBUxh78MRGkbQZme8c3h8OfUsdMMLaGek4J8cYO7TtDBxZddxj0g/g5TrrX5n78pf/bvj5X/j54VPP/WQ5iXokqL9wrwBUdAY9R1kd0c4tHbBl6LYO6dd46Awhr/CwTGjazz/zqs+VawqbbrwaxrqSMqPBCWuyLom//1/vjjj3j2sk6AzZmUyMKsA8dIHmeT1uo01MGK0RpSut4ITpcLW4t1FVPHyMCmvOgNIzWjQFFgXzlvmqkul7eTt14sudSkeq77/0Ik9hfIkRhiki1WWdF9JFv3Z84Q22zAnfXO2xN3lyYRfHuc4Lgk1f4QVO1/joVDd8aTDOntshGeHYtWSUEE6HPLiCE3J1raiUyr7LqHOwfyX1pEuCXf1gi2mZ51ettVizFE2xO7vD2wV0rgPobFy/zuh5d7jH1Nv7gvfv38cBeQaTDueI2xC7TDU3OR10n+m3fNtVMFul42F0hLerTIdzCwO96Ai7d7eHtzkOeAJOni4BxleKyPMZ01/Xj1nzxVnd3XVUZdOHuu5weskXdbnWjdadAlNqWytDtbnrV2ccNfVNPtBetQFnDJkKa4x8si6nVF25Tk/d6CT6i82olR4qJu15qH0IbW+e+0OIh36r5BHrwhkfBmMVJopDljLSqfJxSleqjbRNXyV5A1XPC1Un3y+UbeEYjM/TS3gj3EWRwpe3UwzGBv6HL3xheJtdwH2eQjjOXXx7auCYCm3Q8zsiamvV8Mwe6YYz3XSUgPFrOM8NbuR7D9GpnO6mM+5R5q0Ke3p1s4cR+5Iq3omZDQ/vyTkyKlPvjBwVa+pK3SqFT3TAVUiDN+hdJTkcaIRGw19okWQafHXvekZVX8t4yLr1LtPbWzwUjX8OTzJyucN6lymtBn8K8tb2PlWxycS0epeNI9/t6lR0l3O3+4z6N2+9g5PfT126sLz4omNnBMeuY7PJxSirk1LJPqPwbeh/+/kXhp/5mZ9jVBfBDavuBHZkJdERo3jWqbRFHakrxxTJaXDsCIWqj9Z6kb3GReUvOsRUZf8yMiuaYObgAXrIrxp9LwbWvq1J2LSf/BB/GFwpB4er22GmLwhSbtRbLM3SKq4mooC0ihayvgQwQTKZRMzq8eRXoh8MX+fIjZhkZiHmOEtPRI3VU+WzYhiStvfkdLg33nidjZv/G7/DkDCsk1Pe6k35hlM7meRlwJsYna8z9PEm5w5XcLC9fUYYNLzLfcfHMO59RzQcbZ9RYIdy/cJ1oVNAdaH4OuIORuqo6CaOr+qPYfBlnXFC6AhbX4yIaUVlJJf6/XMK606pBuxGBt0KHYZIlroWZZqJETt2buLwuzjjAWvKq4z8hw/ogIC6hsPdJp0TPD5x6JqS9fMJ68Ur/BTBHqO2G0n3OBa4jYy+bvLmzZscf2OH2SkCG0F7rqV5ptOKDn3dCB2JT4DkuJr8MCq+wo/z3Lx5a3jqqWcYWe1CkIMyZbQdct32Hi57XewIn/KaEjufDUbL8J9XmsgxH+TV6QUebQ0KlpWGjZmQasVTNiVTrA0GJKlLvsRdCCsZC6UK1Lioa5N1Eejy1Jrd1EUk+2Hn+2NtFPeKVUY3LNnVw8N2viY6i0oQx1YrKsFpSL2H6NeJwnJsqYLQmuXNojayjW6VGjOx4Wtf+9rw4osvMhrwCgks2mmcI1m9OBcnxHG8b6gjbmP4uoq3Jw4Y5fBTpprXss5yM+aq+Ri5u5COqOWIksXRycuoCJI7r+6q7mX6xkpT4/MPOHlLR0aejhJa5JNMfkaYqMBRxKdDwG04rgGnTsxbMvgDsL4l7pj322xQ5xV6Ce8dXt+7OjzFRtUJDXKIA9ZPB9QvXV1hpIdQnEHZN+KMHEiA/hswcDfndulYSG+z3jXIwwY6cF1n0M2c3jtNtePzvupmO2mT9rZdFIr/2BX+vZlzuY6KroMBwCFdG2TnVlh1REVqyw5I/Jw6Co0iZ93zIBlRU10rML4QhAlEwbXoAoiJFbwViPUZcv6o4VJnTCetdI0rL/mQ17Ieqc7uaJMBQU/6jxSWRb0MHyOmd7UeX670ra9/PRs4+9xMx+zY6XSCAE07YAS2D8YaUuYGyx4jl0e//JGaXQzsCsZ4wM+yXWeauoej7bhhAwubPn2BMcY2qSujoVNYaOTWBmsv12xym06Ca0ZQcXU+83H9rDCLSGkl7Dh1K917K0UiTg9z4z70+CLvlHucu8B7H/JkC6c45t4n03B3THVqT6+eIgM/RJA1pnEJ69SZoUDDjsNbCsfKIh1+/WrjLieS6JjwvBwYOGBtbH0+euaJG53HUX4PHfmDPofAK7e0dVA3oty4U0i+8yY9p6fKnf0CdC99R1hfX2Jb2ek4naYArtUZOgqyZI0YdFa/kZFC8zPKek1pgCytiiuZ75HELO+9RCee3h0VOuHq1c5Fh+M5RFTQpCjBwcSQVenEjGqokFhLWl6oUe0MvkM/zFUOekMIL/Gpvl6K2VTD5Irx2eOC55MZt7k/54+Mbjun1MAyxSTN8S4NwxsaGsIu0zidbIevHaZ8e0z/Dog7Gt7g156u4MzbOKKfTSydASXOppAaoM7ofUFvo3h/MY4Hq9kcigjN6NQLyJmyOiKDa7ETPD0oUzU2bbjpMZzSEZzwOhDsMzBpA70MUWA5+T7VkSdJgNd4N3iaBF/AUd1mQQfkHWHwV+iEvNeXnVfqK4OFl4xYOIXH+OiEHG7dOLnrWlSnIl/ZvR3iL13ZppkJMEpe40d4PHT/DutNR0x3XpWtWrzZCTz4dywiDumMxHIf1MzdC3lBlnRYikZ5bn0I75reNmuBnPSjMhH3kxdjXLMkEkAYcd9jeD9oXMQC2r6YSUvXMdHzCj1Qqcd0ethWa6jnSzqdFaeLaXrURsvzXR80T7Ahzg8a8EUAZfTSt3kMNf3kuBnG8eorLw+v/eDVTFGdtmriGpJvevMom1sxW0yTvDmODef85XY2NHaHx7mNcJX4VaarvivVQcVb8MwBiUNDp8Zot7a8LaET9jUhI6OOL0coIXpASNeMJhTHPI0uvJgHtBgxTkcPRwjNzDUbUz/NMevHXB35ud3A6Jeb5Fii76hxVIsj4xAQYI3IyCUVnBk2mUpKS0P3hI2jKLLAi28aV3suE6+xTo4n+6jYzsZwk1soJ8f89iMy7nMrx+c34SS875C3iX5u3X3AOvN+bt3kETQFwdGcfluBrR95aY9M1z0k0XSj7ehMOrE7yXE89aFM6Ez9obnUyReyQFHV+AkNLjEPMmZ20nGFevQQ4o+M1n3kYRFZ4lxe0Tqi6/OsFsXNlDBnZBFHZeU/OAVXvDwES3OyK3Hd3MY1ZFczBsaogLF+gymqv43hG840bqeejnw1krlGIo6ROjK6o+iU1I2MxxkJHwP2OsaZDRvsYQOjxuoZXP3hG9aHOJ/b8vYvrtmcvsa5gN3RmbRbg86lgbWPWtDZamTEAJ2maXIqQjzLm1IySpCnAeo0jnZ594y0MOD8vodV6eyUuS6UFqW5ujtcz0NKlXx4c9LALUTqEE8ngC4F1mEf4u2fE2Q7ZS14AN1TdlLvZ6bMjIEOzCloNqO8BUKntrFxOLzNi5C9j5ppO/n2bNmYwjbsMFzDGqgCxzNWrWaHppqotjobZPW2k6eKhLVzETbM2q7Krb21eHXxgBjIC1IS53913Z4P8Wgl75ZePyAR4RTWYC/SwzLhedrG68H8wptwLWsmkFjXTKZpk2W2slY6JyqBWeh8zXmwuOdXA03NUXXbu9Z6xt2/73/vu0zRjnlw+Mk0+HUcDAJlvPCEObHpwtQMK7xx7YDNGXYmMcQbjIR7OK0biZ4HLQPHsLANHc57hW7u+BuK9u4q1l7bMUzjy86shoNdbmQDRL6IqzdhoeiU1sxsAjU1ZoMmFmWN6ogdR+rx/p+O5jTvzF1I68CRdDThHJVxp/DT7Tdyhh9GMjJPuR9qfU7M3YlVDh1cXhz2j5ySwpznRblDMexQT04M4aineKNTX6fyOnPWnNSb877o6S//4s+Gf/Zf/fPhY899kumtoyTr0KwFkbHphH4hOnBpKf+WcMlXXfxWv0jSdrphNwFpQbbcDK65kMu1sIr2FNdpBfrRhHdT19r7jMuEelqjP0+e0SHmsgrMJ9OxhXx1h4JHepcpqat0TmSKd/7MEVJqwWi9cNwzDYfT4YgH9PQ+NmXL+/uFtHY1NsbidPM6J1K0+H2M6snr3kvkhjcUd31NIfJs8Kyghmvcncfcf8RgdRRFhlzypEU0QR1osOUgOqVlApeR9HLxHUGE7CF60gnJ0ChPGUryx1S0H+DW2R01omu925FN3wbHjZEzZMsfMvujrY5mum30RJ68Sl9+TkFkayjT9fvcD1T2fUdAikMP+t7ewH8zNabWOJHyeAh/n87MV5fcuXuLUfUKnR+dhBtX9E7WFz6RXznlbYMpsE7fObI9T7nlEp7grTbfZE042zau2BpaiuhKkUNdDrudoltSP+owt8dHqXvcTZ0TmDuWxtHDHKbnnXdNjz5D7mqZ05jiMQlIqcSCjGG0bHttVS25NIYNQmTCn7io5i6mhRXJtaE5b775xvDWmz/gnhoOBE3sgd7YkQv67rZivAcY2RWGAc+GOhpeI72LEcQZGRF3WTcxrMApfzIUfhlb5KdtvugQ7jCqA76oRzMtB8stE10N44tjGxcPGJksmaAN78al61MJ1pj7jBaYVwCRQTGzExn/FT7midEzykLf99EwxgHk6KNxwxswCuzlFHmGM27cQ1OXt16n6XZUG2xc+V6gbWhdcWcYeMZbaN/ntolycD6WH/rJulzHAsdbH2csdu/fuR86V3Z48RXKPnGqYMVs/BzDpD+NfsZ6Uef0x4SkYVyn2kLP7rae5ZBGui1UiWzwUdLFCaJcOQAAQABJREFUQoqeupiFrsNZ1vsSLbrvC6m1RJozdldR0QYFnkJSi1lT4TmxNDZ05mjnCVOwEtLhCkO7QvWh3m+DxOApznWBcsDGr05jpAAZb5q//fbbHBW7l51R1zM6IK0LPS9lBNhSdlmvMDp6G8LpnLfKNAd795xVdZ0InwwiGSHFMe0I6a5p4uVb6d3rxj6G69TRj7jQy+9xxFFhHVpqq97cpuQ4An+QzmijcE7XyoFrOmie07vwLp1SnQriB22YSmbtKZS0gPVDJGtkppfpUoDNm9BVQjZ8wI08DY+49dphya9PuuwCsHuEgOjQ/oaxeriLw1q/fLt59QAHff6bXx9+6Zd/hXU560jkdn3rlP2QBeoD1pXeBwUYJHe7oYKDqjvXwEiads4OFhtkziQ2ZB5wTzql6SIViZWwLm8FaCXDui8Kl5V33IeF6/D9Ok1TGx9r2Vmb2UmcdxXJpikjE0om06ObIBhPQy8poWAwTFp6GT7UhJ/x1GG8LirCxgUUg6GIpzN8+gHnYiS6wqh3hgGdcq7SJ/pjbOTrpK7dsn6D+zgNlTll0tkcwdzcSBoZIB1W3KnV6XSgOI3wfBwRQOLjSIklMRqZtExeiYYCuXG0JIHrMlnuQfXMDsQnRCamxadMm90G0UGF7yYYHNI6G/ZPYKQBxvmB9yHdMMnuLIDZhdWhBESuTabnrqnzPtVg4oTqT+cARnJ2PuosYlGPa1zXqNJQA3EspqZvv30LXpnyMqLKdKbNIGcUdLrNCJ23KUgdfDfOerC9fCODDqjO25iNbmUavXkViFDfHdNrNDBmdJto4GN+IAX9/0nIyGjjzsNyel6mUrsJRWYLuzZGOtUTl1IEAIOyZWeJMaLoiYCw2m0ZnT3+PJRSNbx5ru1cFfdyrSc7dk5PMxUrB3ETQUPZYr3ovT9Ny/OaWxiRZT4I3H/YhVriXI4GGphtb550c9AbtuXcDR93AH12Lw4JnA5Ya0p58wMtcH3SwsPfNW2Vnh/o42yBj7Oai0a6TMJgxU771FNE90sVAboNPxnxdKYWssOoITtmwTjdBPikgVUaURk0azpLnbanDnfCjmemsDjFsb8xKTxTQ2V0GuwTJ1bTd4o9zO2GkdNZz97awahf+XJX9rUfvJanSZ7kIedaaphPbcBusww4hlgOnZOnZJkBOZXlX33Lozr1CQ/XvHFAJzPkxwaB0dKaqpDK3KYj5AyhrhOQup20rIe+rOJRMWGq96FJXQioLh8pCD4yt4zb0jZ/V0uyluBG/NSMZsdQRhwpUZ5TMEOHryvqbvkj2iySRu0kEc6qBbch/VFTjeUa50r3uJl9/47P5mFsTL08ybLHfUTXdLs4Vh5xAsd1jes76ZTzYfrSI125Na11VHQQ7ArV8BMwOPsbxlM+/ImYoHHohEVX2vVsaRmTYF0MtQkLY33GtVkd40gnSImOhMMhs3gaqZS3mdM5jTzhPl9GdVLWFd9uV+HjZES0B537ypU9ppM+icFMEsfylZQ6saOxO8Ue6ztFn3Ysdkbb5Etni2N0p3aAnP65c/vm8NqrLw9PPsXPk1OBsqYxANzP+pMIG0SHnA1Wl+l6Ec7OyRNEWSN2J6Swn8hxdK8Avkg92XLfz0u3vTnNR/WZOe5F8bZmtBEmiebGPuVTXv+rwk+oUaoV9v7J1u0jorRmoCNf8zps0MAA6/oswQyMO3wJcFmwB0/LSkujL5qOgr6Iaf+AY23s+J0eca6U+4f26Hkin11T7y16mNveXuexakcHeZGOkhmUJA6E4YQ+ZX2amnLzieh8QQOo5Fcu49KlzI8w+RSM+L0NxHV0K0ezwFLh4Sdx11h4TAtdx67PPMNpp+AUXFkyVqaToCyE0ZMVQ0dujdtBuDamhozOuohvPth0gws41boDnPrLS5t1Ggikc6DMNa/y7eFs7lzf55C5WOlMwOt2YT05QL/Pqz2As37nKh48sO2ib2SQPWcTKJcpOVc6lehMXuhRjGsbEUKZCF7MEjdF5pGY7EyoRw/vFf+yGhedUWXJfZegYWdXsMcj6nlko4YUZsphKxO6ItYJI1ymH4ELeCnTNI2aELJ9CoRSRwgdtEDm344KokYUCoSv9SfTKtaEngo54T0zNnhNEW1rNiPgJdMt6WsRDHW6pK3qqIVNhyfhIhP4MVsqytIQXnQw0YVXbxFBEsl3FUeh/xgtHBLlo9Woe0cPp9hdbiAymlHstA/QMTjtIyd1HGOghq5f8XUOZwEeSMhiLdC6AlNW12ugdIcEk0TxIT9WI0XPljoKScPTM3lLAxaTx6yo4IhD6A/uupnlNJ9yp9McundaeeAGEiOrO9gqLvcJW+c6ioHMB0xhdUBfN8L4Gtk9D2BnspldXkblMGp3QuV2PLZFuzWj6hLi7eZXhjyhvfDWIMZL11Pv8MaCSyIPC9/pX0JupTgbOBpNGThyahRaVgs9f0yP0vec5eukDJ1BeoXS85uxUaZwc8MbKWnsMYqx2SCkodvgRVNLylvnpKPBzULnvislV+A+/vEfYyQ84Oeyb7MGKUPViJya+oyeAwI1RBcaszzoQxqiaxfL5Ew+YvAavSMUMFWnY48QrsGAh65wvlO11pB1zaiGUnS8mi8KT+XKqDMakQ89GHz/ttnSrVwFxejg/xQmNWTdWsVoh+GSq7B+nbkpYhugozimoxQFmxhzTSwFFERgSpBbDhxrrXfseOKYBbfDT8EdshPqOjtnbtlZdYNIXvMwtHF2Se8zxXzpe98dDtnBzhMy1E0JgUpacH19lTcZ3LrFy7I8PQAPmTmQ72+QiCFvqDP9ozLGbnINeCf10NeHdaqHIdht7GFgL4MZR0bVs6wokWnikYaNsyzI+cyowKI4EYBCz6NoGbc7WrmARjPVLQ13MW1n13le7QVtHCx4qqLFzE/nCGDVc8ba5SluQu8Ph3fe5LB05R/wunqnZb6hzdMkNjpUra30ARENpjZhMHVgM+Ihhw6UQ+DA6Dfh1nKZk5CyEte460MWQLKc2YbTLB1dHB02POmUQEjMKx8dWxyD3U6KdDv04HrNhZ0bI9kmhSdvyRy520n9jqjO8qYZADjAn/kG9QTXlEVTunnTmvyy05l8nNYR2+muO765RUGdnsbZ3OYHgRgdN7zPCG7Y3XLksttiTXl8b3jx298Y3njtpeExXkviw8u7nGctwFKYde7yLOXVg1M203jrnQfPIWbbla1hBfCQWziZHUifPGDgCmySfNLeXs1430PX/iJh5X0/w+iM7wfRuXMZl9maNqgiDbIUd15dkyKn2Bx2LnsgyDBvAXqW6FGvOrpGvYczHt8th5HHNDLGluGFa0Zbp2Y4iqNC7ztCi4QO4xDqgfCMkKTr2nwPmPwJZ+BqvV6jE0c+0llb6YA8AdHvQ0Z/WQepKXHbV7e0UA4nVGYH5A5n0fUGub8WFRrAubGibBX6tXRgytssvos1J3hSHZU1MB0retCplEP+KZOcH+XdZs24l8PluN2Ozghs8Ksr89sp/9tMU5//+leHp5758LDL0cMneB2msxN/5zL6iIwcsuBwAUcuhrfzCo8Qkgv+neIiaUZNOoZeBF7Ww+K3eolBc9ZRmy4lWgRuR07yob5Knw8FOgOKULOaZ0UL0cXhZs0jVHP2O6YN3uP2VD0+XUuxI1AKcpM3iBosNBYse8LtsegV4lNdveTi65yd4JoBsShfeiQ1TN8Zc4Ud03s3MWRg7OV7ncK6FnL55dvZvJWgTDVaKb/8g6Thmq9D8elr40qn2sCG4waXZQBx713W1NXOoPCL/oSXEdMRSM6iLxlqEkKjAgYauWCGYUTefOLEayhhvfLjiFbDjDQkc8ojT0fZJb3Pc50PfHVGoym+NH1aIutJ6bNtCpt84AdaHkuL00FOObx/uH+FaSZKO7lzL3jhH5quGx01j3nC452332T3+tpwcutm3mZ3ld1s38Z3jXf3eFA/OHQ4vi7TQwV3cXJtJVN8JOomqzi5RdLUoYryNAcQTQwASlax1CGp4EdfI1Bp8f3+ti6D7BnvafNWA/pcyrx0ZKwGnmMh4KyWXt6vHbJgCjaNCU4YpEB9rQtmq8Ku63Uwy3nLsF0RLjDSiGQYwxtz+8JbGDaMcI58xp32lObggKgHsPO6CKeAWiNBeSJHc5DuTFkbargYbJpd+UwXwcINvtIBY1XACJ/7gYyy5ciVJwyuFTwr7XoVOzuf0gqd6hSrSV2/Qc/W1JngP7/PAe+KpgasmL6I+3536ZQmM/Bgt9o4oiOSa+/9+adDZtOGvMKWCnEZIUQaHZIZwv7eWd7f6q6v1dm+mziqfRfFeRzN3zPxvqSj8X06gZus26/dvMob3D/AD9H68+R6/dlwgweZ7Th9dlKHN8iP3xWv79w6Iqvfv5RJ4WynKRSmafWYtp4KHznW2+IixM7lxPFF0Itl3jIiLEgwQsRoTFUNyVfRCqwNW1AMliEGYPyq0XBROxfVNiK+L5FSvPVpQhgXDGsIdcLGp+mVupxGZyiBbDBzDXyzVtHCdRrzdDBdJc/ZuRHf1nyZulLiaJARCau3A9AQHd1i2Dgd4NpMenOp5XcSWasmNKfPcbhGK7XF+cNNgTXdhx/KhAlVBcIR0xEgq697zG9y4ADW7zTP12GYv7np28jZMKHM2wq+OUC5PUETg7ZO/n1jOQj2Y3ROtnW1c9etvyFyxv3EfUZAfzjoHutQ16puDDmqbSGws6P79+6zaXYnj2l5YsiDeL5B7wGvhLzLO2s/+uyzTF+fyExlG1o3bvCAMgfF/THWyQGUuNqrj+YkCTAaruWv0n1jr5eZG70UgEnS+U78sq+Jh4shQ/JikAtLLxgZI5lyNnHrWtQwAYvteUcBG3yrLvmtzEvAF0EuZOy9FZZa7D11RUc6p2yuj3ZZq/iLvSe8pMmRMQICLoa9bDaP3CGNQWJQOKpT7Ox8hini5E1yzzmdnFaziWNj5BpzDFivoPd35Kp7l9ZfeaUqnUtnlxvy5YEP3wXWdd3olY4ZfZj+Sl8Z3V3N7jKynfp0NEF+TzB+b3U42iiPr+GwY/W1GY6UOo1P/Mur6y41YafTP3RL6ISpMHWVtmpkd/NpC3w3s3xaY3ODe4vQljefQdSZfRfrqU+KIP8Rj1Nl5KYzUMdu2AzfhyJ1u8Fmk/jayMcZLd+ww7ADgba7x/OghqrrgC8TpsO7ETXWMqO9Hheqgqosh+w5q9f1bbwK937l5NZGWnpGsQvX5RlFQYI05AzWaE3RpsxuM44iZUlceuYEdk5MIz6naE22al8IOl4joCm6m+io0POwhPDiE/PiOmJaXQyZR6NOHKkwEl+kFMPV2NxljVJiojUW6VCOdljv1BNrxDhv6i85EtVJNCbukeUoXBsNO25fG8lQ7AhdmZcOgUxH1FHHEoxaZ5KbFrH59tFhOVaOpiFdptSRw/uGcSt4V05fXcXUFAfW6D2Tqi5SLzyUI9Y1U2TWp9u8Pc4fzakOBYeXVz6eT5V0boWgm7x+0U5CB4e+zk6u6ud9rHQgjMZ2cFmHvu1Jn8NsZN3gV5Fdv7qWfPzxx8OXb7frJmFr2clGr3zlfmIS8qGD2f0qhN8dy4zV8PA2uYq7LgcOyC57Wld+Wd7KyCi5i8W4uNQKQyPKUCemWpjHe16uE81AX6zDEVNjtra+blAZtkvaZoQyYuPVKJG1GgDekqBvp0xHpQxj1mAcsfJjNZzG8Sn2vGw4PTMTLHt64DRc8R01qy64bmLW6yEwtuyUYrTca3Nr/gwHEdhOYW+fKSz4NlskNx9OMt0lQ7Fcb2HJgVOHaWiugYwsxAoZOGClxH91B46QOBYdQHYcyXV0zK9POU/EQexUdzgfGucIPrjQd3TMYQEcLgbNUOVP1zmt3QLemcMOj071dnWqvc1ix+cj5fuYzRd3eNP5kSE98amO2yVq2xNwvpmubukcM2V2JHcJ8cLp88NHPvqR4emnn2bNeSW/kiw99X2fN6IbFNlvnTDy23TmpMB8y5tARt+n0Ou9jJztVK15GeRqOWqUcdAb/5qHiu5TuMqGleJmqSLzWwFUjNb6qSrqDZZUgzNvHKWqgG81ajPJjd37RaF4q4dqqVDG0ypKYSh+SiGWFy0b3De6fZANg1e/9wK9spsLyIrB5NlGaOzQwG5I7PL+0GxAsAmB12E4cAVsTZSEJxaWnaoxpfXPauWD+moQVac6BedfwY/M8qqBnvC7GNYN7iZb+krt0/vSlI4P0YYW0zofvM20uMQQElpyAi1lk6ZIXE367KGjkg6np1X7AkLnwHYLTm4eIxy3QfY4/XJt6/GMkraLTui60vfKvv7GG9YEL45ujnSuHzfZWDkZ6EuY7vOMYqbznOlFlzu8B9VXjtguR4yeNqdcIm5+ZChzCvRjWj7tAE94fMQO7Uj97PiUx9s5YnfIfcunP8ytEPR/gx3XY86vvvIq9eOwSAJ+EVF0aU3BkZIUU4nSxlSS/Cm5EgvaSq4Ztm6Ffm3Jcy9zWhfhtK54pON+OIohu/uABkWejeMHnaLAQhuxZJAyQ78aP9cRH1kcqT1E0ABtkRbm8Z4XZcKrUB7+9g3fdjQ2tFMjpfC9N9usaXwpcaaR6cYxQnp95ff5OcNUEwkQu4PpSNndI9snGxzVjtjMOOFlTZ7PlEXXdXk/DrRzzIxMdxgdqX3HjsQ1oIz20LA9pA81q+aqg5qXi9HwrnFr+XEYjdqRjY2XTM1TNwaskBiot2asbydrP5oeeb1f6LquT4MdybwfuMM7gm7d4g3knC11FqAz4zo4WG0EeU8zbxKHIc1V2TbBuc/GCy/gS/0gRZ/SDH8yIsPy0+wnywj0pKTSucXtj9MX2d1Fpg9/+CPUvcX6kd9CoaPwZWI6Mf9LQYKGCBpalZ6+1VurcspciFn7+nBe/npouZho2TwXh+JZmExT5w6VOJagctr/ApOpyIaxEWbSzaJT/jwzHEH1cu4u5n2lVIKTusI3OdYTY24tpwM6TXOt4/0xn9TwZVKbnKW0wX0tr07hayI85uV6UAeaKK9UHMN31jeHse8+wxp9U5s8uCbK4z88ULvH1HeXX20CIjh2cvfZTTw72+O9rN4Er45P7YvsyNnXlfNK0gkAI77ylJ8axxFJO+VzmurtGUdl20wcYR2JXEP68mFL8ruQOfIyzYa8Wf80bwM/4LWLN3FID9j78daEN2Ktx8PnmQI34asW7xXyyg30ql50RlaF1THYUSCgfpSZQ8on33Q0P9rw58m3+TWrW8OD731fyOFDH/xQpupPcILHY3X+MKu6OcvheNteMK8yUva1bJsBWbLFYrucpmML934EbbBx9kjkamSco0KlxDqHTlP+siOOwrXy9dgIT3kZ03qIR89drVD6GrHGagP1oMHcePzJTLHOTnhtBLMANx6yZnRU5OOhgKyvMMgRNTynqdOx19qHMQIj0JiP89QshsUUjd0KPppckxMesotJB5aRBB50EKeDrlqdjh4yiuZ8LK/4wE0y+vhGNNd1klIe41GedMlMcyNanNWUxk5aoy6nrGvxIY0aPdVWYOykaAxHxJyLjdvYlRgkVE/sP859v7ox76iFQyJjZkDdIXGeshgdjfWwHdrpLo7LgQI6NMiwVuTLUuuzoycp/7pCbz3b6oxR1c2qTfR5nzf4vfzyK5mmHvCyaPG8/eED4u/wozyyr+76jCR2FWrQ7UQB6WHZQeVIsH7tcJdeZ7Rn0dDpuMr3bgKdYE2DRE6DzagsM5rKZ5JWtLGUhNNBlTFncyJo9nt3xLmkvZ4pL81rPRZFK0So+Jitfe35Kr29GxcPjnjqP6MXjoFx+0pBX3OoDnY4P+m0SzmUJ0FjcSMGo82dNOw2W+4U5x2f1gWuI6IW6CiUUQtkbwdI79QpIVNlj9LpBDqF+vcWiL9ILNMeqAa0VVl0wkcE6vmxxBFGneZNcXBnnU5V/d2QvoHjvb+jyMbARp0nKEKebA+6I+i0DqkoRkYl1zJ0MB+m9u3pD7gRLz7Mw6PdBjrwO/90HkR8Q7lnTXeQB9cKDXV6cgg/vNcmYjgyW3nwc8mIiQJQHfQ53C7cO++8Pbz00kvDxz72Y9GTu77+fN3GTXWmc4Or3qEVehWNPmUqmzzkGSxvVVbG7LuBzHLWR4tjueyxCW6isWz/U0kUNaGMse4TtsQUwLOarqhekLyWb+/WyZsf51PwAGskFUvy/6Mv22cK8ENGbhWQ71Gsq7yC8fbbr3HjGX5p1LwpbZMfb/F0DvJlwwQ0JbEBa9RhRABW69IQsoFuWtp254QYKp607aYMiD47uYvxOCLaE3ioW015m6Q2yNClowbOpx7F957cHg/omlMfKVvNJFS281tenK/xYTy7oTheeOnpNm2V7wjk6BTpdIpWk2XS1JntbhQNnkMTnjymdp1D9XZAdhz+NLkjZFlDXDK0Pejg7mo0ko6Jzo3MPV5ufGIHRN1sMMfJ1bBSqeceYnuNJ2caL7/yCkWlS1+0XCN/8RrORYYP1aMswnb7bUkzU08ia74mza4pJCt0uBZcTymDYRHb0p4zQQq3mDKnh85v7jP2hq77WjUiLCP3eb4kM2VqlKYqlnuEXlW/OrJANYrr7Pay9++qUafXnFVhNDMADR+Gt5ohuVZ0DeVIpmG5edM3eLqTyLT6cbRxJPUkigbnyLBFPPrg26tTLV977xsDdrkesBESC4G2Ru3zff7SUulbujZc0XfqyhibEfOY9aW3RlwLpWNoo2JvtNJW4fW2E9s6tASN+Iizp+5suoFUzwMKUUE5vSURps3GEbPB4joTx42ROcVksHYnuaTDoXzr2wG7n5yMEdmOy/V17kcijCL4VgRfQeIvNd/j7XDbPuPIrY2v/8MXhzd5J85VzqQ++4lPDleYcip76BRb43f04heKVj5/CcuDGvKpDvgHU0cGpukmsoSa+RWqdXq8Zb6LS6e3HtWW70GOpnThTekOdd41I+PUyEq5ilzCo2iptOKqiKotHIO58/RYcEnk3eBcRFJ6yyqsRvRmd46hweeuv7eRg9b+ZBu/KOUuIgaXzR7xWwesQeSkCMbuDBKzyyNGPhIkPTcdskPrbzY++fhwwOib5/ckAY6j1LEHCohLy48bLFaRtDA6qiORU2Fef+gmU9+tTBNrhBG5DFTkyqcO6fR6GMUO+dFUf+9irAPnq58XlwIfaGVUE48cx3k7Cu/nud5Mx3BMp0xHpVxRg44ArI62za8cy40dk3RcaeLD2Efpx5s1/oz4A0bR+0xtX3r+G8NdzqMy9RhuctvE9wx90h/TcYoOUek3VROTIz7kJ0a9hzi/zmgH5WaYZQqt7dkW8uJgIbxGanH/TtQveF201bHk0gioErgUbqXOh8CYg2znObjiPvlOgZaZDhvAqPQEFaFnkqcxGemnNgpg3XerpCSbAYCfvLj6SG8GsBSVjh/wuNgQrrkM/i6D/Dhyn9hoPZBHu6Uhr/LrSU8/+cTw5vfdsNF4XM85Iu6xUcGjPY5IBL8d+awjBsooA4EYXxwQJ9S4vAVwcMBPxOnE9OQ32PVz19RTORqOGzWORFue6CHviHOatT5UbvjlNoTTXPnOW9T4cR1fkszuB5/6tWBvhTgRdMMp8nJbIcsFnTvc2jbQxqHu8vLgW3weMDIq9A5TZX8rBObSMfgTBxvct/PXhqNCYNw5PvJ2CB6VDoNadDIdXE249nO8tG5nBVGmF4v1AsKxnRpXasFPmJoSv8J09f7x/ZxF/cgzbJztX4UWLsth9U3422UGcQismGlD6vRVGhoX2dQqD6z3mRbbwUSvMs0nywnbhrZ2UjxjK7jJCCzgLZSt9tTDX8sfrEOOLg7h2Xa9GGxtKQfzLyO/Bk8FeM/KBkutMPouyCxSlsC7EUGch8SlkV3HPfXU0zTswXB09y2eq2PDhNsbO05dNRuMwN/IsInDDwLmdkGmqR7Z0rh5EBnn9R6d73FxXZgdR3GEb6OcjZ9XMrpvSt0+vLzBRsj92+xK+hPdOEAeY8JBssMKXoI3+zFrGx+zpLNg00LaKHnT9aRTSOIbbO/npE1h0QHxC1v8cvBdD2XjPvLoiKjPOF3188CbgKjM1/VLz3bTEQ7lx80d5HQDqx82YE4/rvHs85Sp20w2cchT/26A1bTYI3NkQmcD+a76EmTqvY6enfK+89brw84BN/LdQYa/+p0Qu74QalfjZQuO/v64zn2cMT91Tjo8WEegubZ41sShU7gBaF8Rd57xSHGwrSZfVe96dODUj3Dhcz3Uebn0XQ8fqCdyo3euTtgq/XAUqqY+rSicYroUr7r8mGfjGH/0UIqQLzuKiUavyTVYvS6C0coHXK3C2QBVMnhkDZke0JFNxQJwxuLJ9+bEMTBOn9PTEH1Vhy9mipNBSXg/OmM/DheiyOI0OGddIbh1ld5+15M5jCAcnL7Nr/xisTiE08t7GDDrMn8Pkg0Tp2N5VpH7gvLq1A5C0GcUYaqSd7/G0XiRMPcC73CPzp1j37Vab73byVTRMjc/tnA0NDBs0YE4Xdf5FNLR+fSMqS2j+QmO6WwgqnEqrlPTAbsWtc/PKA99dam8Of4GDY8SeopU3Lz8mTIPj+/sXONN7Vd4m/tbGRW3HCHRp4fr0kJRcqpTwmqTVI58AXCZYMfFaIrOzbONLKo43Y0ymC6KYr9/ITxALhX0xCr5Xrc2XlDnw65it5v+6wrW5akzP4pcocRvifdw6fTeA4kZqlwtTLXDtOsfRhqM+DqbCP7W4iG3N8zztxp36Jbq58d0OQJfJWsRzoPBPnnsrICRSYfO9BGDdFpmQ2RjCwfbtAzPtlw+HBXr1A0P9+J89ayhmzRsdDClvXr9Bq+N9DlDnP7owXDvLj/PdniPUzyH4dV1rPR8q7ZzMDsOnRLWoW/9Z9C9x83y2xmFPMoHM6w5+WlxLOg29wdzLxND1sf8IZ+7Dxi54POYzZU33n4r7zd1FPch4F3f8s1DwU5dD29xO4Fp+AFTSvXilNYprLJmU4y4dfjvI2T4TGS2EyFJZ0J9MgwtR8wDnbs8DHnIz1QYOPCnYEJkr1Xgd154LL51QqPa2GtNU7NaES24ohauOf1+pPFHCaEAnW5P/bpII5WSJTTxxkjPXYQ9P7V4a0M46Kne80Jnps5HdiZR6gU4RavRRHG1PsjkKUpNujWQUH3r/jweHiZ/aoZSEZxiSWAyOlx/7Inc+L97+jpXRjeMXYPPbiR2qIy6l46qseh8wrDYCjEPTbu1XzewdUOOiOFIHhvTSBxB4jiMMsrjusnD0hTiaDWN1BDt5X1FpLxt+RRJdI+3UOcpv5j14PReRp1tpnj5hWKmqFLUsOS1do2pi0oOcXKnp3YM6Qig7QPD73C87B7rMx3fXU/vib7D7uSbb7zN7ubNvBbj7uHdwSf/H6eTepoTL/6I6vWrbGZlGllTxHRGdAg+cGxb56wrcPLiGArZ8OazjYecwFHdZuq0JZe3NyhDXsZS5GozK8ACoDnMG818A7Klk6MsmrY9woMIPQCkw3ihvsSLgeB3qNQzJh4xIv1zUaqkl7ueNT6/z9lR1YU2Emm8zAL3okWb5ZKkz5uBTNHQmMMmLv6jhFSwiACHxeBi9rtNNVFn6MWjUuV5PwD8fUbhSlaVRyfR2je3FUKkRjs3eDxNkt1FiAhdxVUeB2TIOUZBrrV8ia+9uJsoh+wmxslhQYfwQVvXeae8XU3HlLb38LDudKjuXwQeR5adu8IwxZRfRyUlKXqs0ajDTsA1mfcn3ZTJw8NOieksXI8ecbPduD/v5vRxn6nvIaPia4yWV594evjoBz8yfPvF7wxvvvba8Ni1J4cPffInhsPb7wyvvvz92O6TT3+AI3zwzZrNDss1N70UcjqlVw9oDrlLH3YoZYh1pNDRGYcFX4fKC6GZhZxgc9mAyegOpsgPGVJTGaJ922KIpVf9ElVXIwh1rSIsoq+kynNWsi/OmNcKLyaXQg1ocDYDNcppsOqhiu3CHAVYIWLGUqlDMl1SGbWqWipfojHHHx3wMpQVGhdnOG2rpzoaHL1pl0+H2GfK9cSTTw6vv+xuJedVGS011A2mZzEvNOjtCncu0h4Y0ykPzabrhVLdp8PwMDBJT6MUJ2k4BuaGgzRVui/AOmBk0wHv8au/24xY4jl6HeKsR6wTvSeY5wvRXUZl8OrHX2TBHdI7nBO9hjOwGeJIinz1jCCjI9NBb7s4TbV1N91ptTOlXXM/lachXC+e4QTPfuJTwzPPfmz4u7//0nDnG99m9Ls+3MOBbzOSP/OJn4jz3vjws8Onnv354cuf/6vhC3/7N8OdF783PPXEkxxL40gaBu2qUaV4dLCmyvCS9vOrGlKd2cn4CJpyOom0TdTTFg69mZdRAZ3hFJlh93yzaY4OiIfF8yBzBhAyloLOWd1kFRQ3fpNLYVn3EtJFSQn2EOIPR8FpdA+jjZMxo0aqOo0ZqJtqgnQwrxMhEpcH5wYJZUjzytcjd/j1pe81t8ujUY+8RKneoOZtZezmbTNKuCzStPIaRtc39tJ+EJ8xKtNDMmEHfr3yyYFvAXRCRyW23HOD/ahk9ykNH4SFanZpd9i8uMl67AGj2x1GIndlPVp27drVPKuX1xJCXo17dM0Nob0r14bj+/5UN7cgZiOhW/uHOLVOgFnmHp843hvUqd0Jda0qe06xH7BGu8eojIDDNZ6g32REe/JDHxmu3OCBXSgc0vl861vfZL34OmvH7eEDH/nY8Dqv4/d+4xZ832BEfIpR843XXh3u4Mzq5Iz9JA+Pq6cYd3RSGz226rxl1asHKrLWpSymR8ftFHOft7i706tfB2eGqC56SByBdHbPAyuj8tq2rsOXg7Jbj9cKEi64MasX/Yiu8prQHHsmatrdsg6TNWPNwQtHcbKGKwqVOVIwEok78NgA6XeoMCPkCD+CjZEUBY4Yc7JRSSjXBpZCBjKu6eFHzNTc4Mv4LRK+01BeU3ndvbsHjtr0vpk6MgJ88QtfHF742pd5wJ27XYxge96s5zaCp0Vc+aRG7pfBCc4oezQk5VrNRkYcRshMCxlJMQzvJVqfO5Lu9Cnbzt7V3JO7ffvu8IMffHt44RtfCQ9KllcpAvPcc58aPsamDcNkdi43oOUjXTrOPsb+ACc8ZaTL7iuW6M31e0w3t+F72D7mBownYDxM4AjMgWzqz4YK/MiDRu7mj/cBXetubnkmls0b9IF7DM88zbOC7KpuYeFP8+rE2/fuDK9++3mekPjg8IEnn2YEv5e3uHlz/kM8xnRMRwCptI8q8XB9/WSAWqOV6Ny2nVY70tF4joLqpUZPdMxf7l8yWrsHtsPMxPuz9GHo0C4RaH93D8MN/+Bnk4g6W46AWUZkFkId+emCbujKbBDZ5hojSZhRnccyfEp+RF+yEuHOr889RP7mvYxb1iVEbRBAIUKUowi9EEiOdaiwNMQCxEIiPPFVx79muCPUqH5yFuuynj4FqE0eeDJT/joTxFNHa1B7U16APbzBb8y/8NUv5Ub0Dvft7t1iU4POgMESY8IcMGg39/woftaNEtUKeexJ5+OOQO4N+su/1pGREdw7bIh4SmSHe4h3WQu+yhb+HX4UxmnVTUbKZz70oeGn/tOfYbp4d/gGncEdHPwDP/7c8GGM//mvfXV465WX8rImaWqYDGN8spMU2WwHO6gjbtb7gzI14te0z4eJ7QxsHXVTMfl3mlq7uI7Y99ikefF7rAPZYX324x8f/rOf+Znh83/zN3QidzP1c8r6i7/wS/xK8/7w0nde4HDC3eHAdbWdDxsv6sXbFD5k7NQ6x9PUjx/bXEdEXt9aXuYDArLY6/s5gXf8NaPudV441W+LlG0hM06p/FL06sfQr1NkauqCmH0HuFMwf4r30WcG/SOOqoeqUq7KcBdZYLfZqVlzogYdh0q8FJker+NBkNyeynVMEXGKlMoWIJYSlwIswS8lyxhn8pR0QM0J2ztzH48sfzbNt2hfY2p0lTWio9A17uPdeedNjIsRLTJxiwNduBmRqavWR9yNiA1/RxAjc63mmJR7cTjBEbdG7uc+4U2ml1fyVMNbN7mXxoj3iZ/89PAih5y3GSFvM6B97YVvZ7Nl4+DGwM9T8AAuv5D82JPDMx/9OA7B/UVOzfi2Nt+qbQcxGo+82T7I4tRV5/PUis0jT07b7HAMboogUPzY/jVTVzxjF342dcjbd4bvffObPDx8ffjQk08NP/3pf8K9vzeztnucR8sYm4dXvvttDiXcREh+bh19oRXq5M3hzB6cdvq2ctfMajqzA0ZuO9acbTUPFmTOt/AdRYekwXNjyif2d/YPoquc/QVO8B7mrZe8lYxqYduf/+ig407XGUX1Madh+t0EK3ufghz40eYqjBH7+mrsVpJLNwR7Lxv8UcJE+mKsdyNep1382SBS6bnqvRqXdieblKxbDJhrtUOerD99cDY8wy7iAedI9zae4Ib7mxgLUz+7c6ZbeRUGhr/F6RbldzveUy/W5e/MW+UZU8aTbJq4+cIOJnA6yc07N5nyHQ2f+PRP8y6Xjw+vvPYmqzuma6zXvv/aDwL3BE5wn5Y4ZORj22Z4hynhA6abetC2N+TZaGHRGFil8S0DmQVwzasLbRP4DLswE75oI68ZbYhvcktji9FcPTli+VPcOpDnePD8HJs7ZBr7AV6v+Bi/VemurBPOW6++lNHVl0UJqur83qEDq9+kZL2HU3o7xp//LtOAMZ1RxRjCL1gwaJbdiKO0u7A+dH3A9NxRVWMEi7+qpZCXvntRrnzlvw8cJJGJynN1VrBMTbTGVQjbmT5qEKP7A5HL0aljrOWC+ubdUIdfeGqjagKsVaqC06BdYWDlLWQznmbRoHfCl3P96BA2nCs6Q0SWT9dJtGz4cqqUQkV1M8NygU+ZYrFhgBH7tPh91n87PEblbxBunPCc3r2bvK2MdQ+wOqU/BupKJgbIyOiuoBSPNTCMVgPQGVMVOvKJ+lu8v+UWv/d48MQz2U19jVHxxz/5yeENRsrX33ozmxYuY++zmfPhTz43XH/8seGl738/nw3ek+PvHe5yEMHHuth7ae1e8uV0DPkbvrnbURCZcZc4QJ4m0QHhz9FJg/PHX32vj2u1M0a4M3eC6XeVgkKcFdlQo9PbDXTC2Jr1nSOfu6WHvJtmm/Wd52r9BWOl1u53PApIp+Ea16WM9dkm1hlnoF5Yg3fXia5ncVjSO1fgziGTjuaJD/B7J9euDHdYMNpBXNTV28Y1gqj9Cskj6rpUS+gzO0vLVqmQ/1Ig/DyMA4l8Tuj1Su+haAGXjgn+HiYEqsFmZLwMSVV0x3wo2GjjMsj3oVxFR/d8qQRIqrwo0CwzSDmNOuA3GZ/isZ13XmNaiiPdfvMBx814EgAIb0NvuIuIce44opCncdWrN1x3Ecdw6rEjzlgyQnooO9NGcNzgsB84YJf06We4L8epmgfU8fRHnx1+/ud+Yfh//l/q3ixKs+yq87sxR2RGzpVVqlJNkkqzVIBAgMTqpuV2A91GApvGuMHN8upuw4u9Fn5oP7p5sP3YptvNwiCkRiAZgyV1ywgklRgkECWppKrSUCrVPJdqyDky5siI8O/33/d83xeRkZlVJSGqT2Z8994z7rPP3mfvs8901x1ZBeOigOtecW332ptvZvfCc90yllYvIp1knOZUgIMqmU18Z24ubz2Bk3+qkxrxo+sbMW1jHfgXHPAj44sed+ab42aOqXBIEoUXQkbiET6Fui6RmU5C93Aop7s8f8qFC3Y9WpHFUx21AcPDQrVQA6YQWcCmYUhDk7kEfvOkbp6OJ9cw4cOYmnsxmaLJvYpCZdorOHMcjVbv5g205C+e4ijDTitXMMRjNJWoAq4XUmDltufvzhwvjiKsFAQchYcdgPfREzSSNHn2cGVN7+4Iw7iFUL9bRdpzGGfnm5X+m3KXwqUVqnJ9k1iq/3SsSwceP7cjHb/6mm6bYxumGT9ldQ3GCY0xdbSg0xQaR7AyOodGYWFI0vtUMmjocq5PZvM2qw2YUCvhLOMgrZOz+w9l+9QFIntN9hrjv8PMz/3oj/ydbuEc0hd1zfsIOUG5WzmzBCNC5EgLe/ecVCcjygwCTRhF8kfZfFq+fjof8ePH0+m8TNTr1HLtm3Wng9hmnGsk/wm/TKPU2+L0rBitiBcjGpllPyLfqrkekeGeS8fOSlIloQcd17oZ4LFw6lwAhc/CsMhA4JJBhI/yfdFRrnOsxpw/cIjFC3N0ZEr3vjo8L+eSj5Xtnbn6aeeYEvgRN7ZNEGa8ROoT9I8r0e3O2Jf4GoFjrxhCGZgMbMDtirgjzq4wJOPlgqs3sUElb93lKpUYAtwaYldh3/6nsJYTDo0AlgmUwGWL0MgFRMFJdHspx4HucJhhsbIHTk1zeK+nuLnE6wJGmHWmB4RZlax2/buImsa2HpTBRYE8Vfp4RVo4RzbHXJnxNf+7vnNLlY48N1bOd2NMb7hc7AKGkEUMMxozDs86GQ8fMofoFqkpOEK1GMjIE8MI8DtyIwawiG/qxKf19BkpYB1hhByUxSt9TZzbiHR2Pq7GgRfIE5WSAsIghCkpdWJsC0MKNcVoa6cjiyo7YV4SKmecNohAs3x8JtEWBsYbwlNsnx8RkjdFFr7EY+pBDcQhOre7NVjd1x1iSqPWwwbAHqiCneQvwbW09fR3lFZHMxTcFnvU/zv9PuAP6VP60VnwCL4IEFkJSrA8g8PQWJ4+0/C2/M6UfFVY5THMJDns+rEnd3tPy3dXcP8JAYbYhYkePcAUxAVWK8Mv8qPgil+hViT5E61NcQzShZDtx2lwPc2KMZM95/TUfj60CvILEarSuN9ve3OacZKm9yJ8z2sZ5zDQnARAeseRvlMYqimkhhFjk/HdFlbGDephv3+BTN1dofQb447CbXZAoKtG1Z3c4jQ6ZEsWfLu3kHddtleRv0/rJMF7+286BGCR+TMm4slIMsx3wYl8JJfjy0Z4k+6rxGI6NYH1k/Ge/yLNyZYsk69ML7M7N+lGZ9etjrO7wxVINYEOvoJP4tPhBL90YuXqzke1C1HqX6mkxIPRZD6wZxXYMUK1wUvu0gSeVdV4Ti7YhKHnD10N6IwT+0zUYXy1no2Fq1PF18zI2ZMDbHtJpK07VUU22HQB2lzM6DIuNJY8LxNpj6BkG/rcI/ASXgOGHA0fAdGapUJ9eAP9BY0Zq8LJwVz6vz6nix59d32R/4hH1bDgScuMhPFaTaQfSN8ZNPxqATRMOTx6vzQu4wcJRZLOocA07KFjR7vnH8eQc2E5yDA8y7WUnKhjqnyOjzZhXplKY4cuqqIvNKYMo1RzDGo5Xuiyht8sDZYd/3im42CuUMJSpVUypqMLUREP/8ZI1tB1pTIJPBA1dQKcWCvjWZ4FucDbnRfo0jGMKHWyGZl45i2jT01wUvcYozPqlc41YeSDBuCiNA02LBEgb+cN6eSQstkuZRk4GbihVUnadvILi+XZYC1cv9C2+KcDtzxz1lkXJ/fFqat9VpyzPHg0+xfp5sAzrKf0JQx2S77WwTzULsymJHnBVbma86izvB6G3tvvMIJl97AMUggsZXw3XWDZo8BL+e/JjLFOJhOB94+KWNNBBfOhx0XOkD4FbxUvjdb7784iJnCIZ+j2QBheLQ/jDWPzFmJoRDIMyTiJFjVES6vpvaXY68fW2KbEuq+odKqIGmqkDKW0++xqyZnE6sZWFmDDJcLpP0sIkzEBLsOqFmrIySJuGjuSjLgyZCI7foMyE05ix6rmY7kuZ/NEgtpRD+MDZ+AljswiIyYfvh0Hyoi8pC5utfIK76iCjuFQMZuWsAXMG0hQJV4WagOzq3mU3OPkUXsVHT+iPird2ffUGMGnsFl2poZkF6W9cONhN2INbGUlrf7Ben6q7VTRU5fAPxZJeZAxNgijQwB+8GQ3V10dT9IGsy52SH4wJXDYgbS4lpuKk27oLLTK1K9vHZ5Dv0Hc7zIjDsp9ES9RU0c5NVYyMrCaQxWyvof5BvPDz4veqsn0tnGrtfgQR4OkoC5hejTktcD2JCihLWGLV/6jvy1Gxe+LsQGcbXZcRIs73zfHrbnb51HnNigfhmwSZn2zFozXapYiE+GT0VRBJWbBhFQpoghQyaKau+Hib/9RXpiHGMYyfqYaeMZA47cIgCHCxDCjjGjcigcDUpbblDScaMiRuR2bSrptGkOiHGMBeM0h6s8f0ojsk795yZDr64ECq+kE9T6YcazM59jSHR7uP7ScKZjEaQjvtZBDVHlDEyQXhTKXeNLPvB1hZiE732LKCYoceUJfkfj+9M3qcSZLdDhTnpIHnpZh/Oy3JJ9oEKQGa8lFrDZG95DinVRAFB3pKvN87fgxrfitosXGf1ou84yCPGTIHot71GOUOfcIjlflIyIaKvdGnnm9eGeaQrICsSSJT8pII1XoaM7DBpbIJrtruMPhac7j3IBBJzeYe4PgHecIt8vXnJLIvfNaBClLQ+AGiwJ0GQ/KlDY45ckEkqOMppN5mqqnj3nGSCIhy1j8qXpuItXcSpVxHYxgvlmHSqWEx3nOjFFTL5mupKJP8Sbq3Bq1vVX7FBvOleiuf93Cfw3VkEuFuV5yMhuaZ2brUCd6pCws2MpxGKi+LG2bcO0qbouTzRVT5t/Wl4ru1AMYU+fRdiPMOtBVJY51Vr8c805LkCrDaln2To8jx49jKAPm4Eo8qQbb2RTOQGXaUFXdtt12ZXivkYjlSGpwb+ckaaW5JS3KaC7lE7eezbd/miBl7/J/GX1eJBl3wra7Wru/d8b+znxZxmg5IjtY77M3rDVA6wcrqKUKo8ar8so3DeEY8QBq6vyRw92ZEzADxpJIPqSI59HYsI53JHglqWFwENZSmRFpA8VMsM8l1ll8JChVP1eoKFFV76QNpyd0jhUnMfYMFiRAoB6UrFpoWhcVqAJGVVYSAqPEOOXTvHhf4XpuFULV22gSpA9M7EnMOazWizCJWinn0jcXNYSPMeZc4PYm79Q4y7H41v0g26G8Hhx9FXxQHwp0T6S7TyoR41PGsE4/EIuyimFUqXXKMPHZOoAoHgZQZ/1M43SNsBCLYzZqe5hbwGSqMBHP/ANNpOKfMZsbeROXhcoWuMez8FK5EFwFVDzgGf2+Yla7ch9Csivgb+gzY8Y9O41UyspQ8gCqHR+XBcmGkXjSQCJl4IqoB597vhi/oc730fSjCUbiDV4HL4loLpljwxvykwPYHnSsO3OWW5aY78v4Bl6T0cYhUteiCrdMaS+s8UcyHGfcZ13GJVqevvtU2o5jzHFZXE3YS7AVx+c2q2uEXzgiWSByJamWyTY2M1zLbsaI5m1s4MlOENMDh1Zc1VuJK+NHih/nSEfB0M9HmBkpPMdc3vq6B0m55QiLbjoR1EUWtKsq7j90gLwsjxukWEU/hbVXrUDVVuKvbU+e0VMMGFU5EtFaWG3rn2J5yp7gThgHcKjWAw8MaZ1XXPXEnOwsN0pZru0QiyiZyMzeAB0up4eqmigUtXqbt7ixVMv1q15y+p75JCF52AEmQsGYmJTdnG+q2C/amed3yfUGnIDaFwlCBkBbWRw/Ib4BUD12Bt/tZTSf5rf7aUOaniYZlDMaxzwul4/I8c84OJFlQ8RvxD+B5WvcSEekkAQ6fXAewtjfnVtfZBm0Rg6mHpAeW5j6i9BkI/4l2+rh+UyRMkKNn5Bcfam5q5HlLBtbbjWyrIIjY7xKRlwYGeLSoNLKq/ElhRBfYo7aap4wj7dY+WdOkVxM1LnCJI74qrwGlupLLWCsTImEKVSvlXaoguS1bb1Iu8kStMUsPuAsGpYDzlBvhCCMUITvTcOWp1FJRspC8KAZQ4+dDXkZI81mxNYGvgpP3w7iWiVfVXedzmR11XGq38QzHU8pK4xknfSTJszYKoq/xDGoJcJfZ9yX4F5ispdQ0ktPkl0bJi9mQyEC4Tud360BsG6JjVYz8dRcWoiPFqZ/iNKXwqwN4ruEGeTv1kHofY1iuDFrt8hohpTfl+NTaZa8bFB7bqMm+jCNhOGqEWbpCLN+qIPTLI277obu1MlTfDsBj4RBwo1BhHW2jWAKgTRGBj1MsAzvfhtW9WhVMF6MPBK/Yam7KZBAUTmVFk6LwIyWxXuY0eykUv9TB3vvlcXVbEY2H9VHNym7hOwCfykaMHKFgHOE5OWOfhdi5wApJTrv6Ir2d+QXuR7JJ3yqrSucRjfJCvRZpl08lFimE5a0PPBMOu4TLsOoT3Z/sGzOLWN2DBm3Bl4jVeeEDEx6W846EJJ8XYSesTYZpqOjnGQuLnk3pv5ZwSO+gdG2zPjbXGDSpDPD4tTk3fBLZPz9u7wzRrK4fLQdock1CN/h/Tf2oS25z7yeVnJH1WyVqv6wzgMAW9oR+AxLmlG/kXdfUwaktqOgYfaWV027K92uTxtdKRQIecoGupZvzO6BB3/5iIfnuWjJ3HfwCOra0e7siWfY8oRain8smFzaYofkbolxiZ/87BSixqqiQkAx8UvoEIoqZ8ZeZK7KGxg4h1Uik5mconBMSbQ4j2zM3Cb+SrPAjnqsSuiwTJVukRuYPDFABlHyyQzyK30FT256gtk83W7SuUU6lhmW44mzMRYvZEP02Ar5cd1cxwlzGIvKQq6qu8nhWCvkwziOvWWeq+N5r3YwkYYCKUDUo/CkhVWLM+FIWqW67eKKmkKyNUzRfPtSTlzxH1WZaR9exLseMr3MVcvvaBBh7tPkkfLx6/MyNIsHyLxWUelTzJnyjNh3UArW8hvNcPi+o5yh98vqLWpq9TI9XKGaEczuBa7SQecjmM7XpX96ShRfScS3eLQn7puzQuwF8ZHgmgRMQP8jVP5ZrM1S6uBIYAOLp+n9i+pHg8mqVSYNC5ErUTxa4uTzzzijTiY1l5axTHpsvKinJ1pnRYolK7n4F84QBiskU1oLCNTOIaenIVHia/kYSLLKBSYUV+6ZLKsncXp48SYfJuRRS1fZ/ygjuUg7eRKpVE4tqQW7d3nkiA7OHz1y1TWcLlBzeG5e3ua6NA1O4ywAkInsMCL14GSbTUaR0ddWp7L/Uliq/c27B4gy01ao9cJoZwDQAOkDPKn/DlrCV3FjaDBRcDLm80Auz/dZxvL78EMPda+99dYakxPTotJxAVSeevTFFxxk2HsF52Y/4owaKI3jh+X7vIS7QvAlUn13vfsx47DQ1KdnnvLVp/6qQrwnUoXql8aozx4z7eMSz1DfMJvk0aJSNmTTvq7wtJkafDvT6Js+Q3BhKEgtBcpsWhctY56jCceQLusri1FlVbUuMKfnzb66qMlkmzQQVyvJZyhA5iA84yFFgd4yOn8WJiNMYln06AuJXoNNHXWYHBJfqarUkQGXzy9FKuZofxmJfx4YrLFCK5ICSVmtccndGAfI13s9xlFjqVT6lCkkq3OpWkTXJ1jcYJiIyDrVSueRk5bpuTq18J2tZOA9y+KIavNEQwI2pThFpu6tM8hOCbUEHEEXOzLIP+JEowAfz7Gl7AhHeLzylTdkZ0i4MQVVcjEyKhSGGBrNHl8DzL+nE1Fj25a30LSU+BrHMnSj7+XzsvsdzDMWvACfurTq4duratYxjQU5pAOlcqJBIopZ/IVULWlMVgiqHHYmrHGlhNxChwgNqvE3xK5bNVK3jcUzWRKhfPi1lSQJaMY69TItvb/rvlW/XJHjToLnz51B9UONS/xisEhIG91cqKNF+W5j11wfZQKLDBKYeZexBE7Yo8IiRTxVQDU1UxgQ9hQqbCO6MKIWT+YFVzj0aXnpPPOPi6SZhwlkEOdG3X+vIURYlO5Wpp+H5Hud5XgTzukJB5bT3KK1ua9bmWb+cApmZPLc8mKQQaLVxaVoCvCYpwSswrzCpvROG8M4kcxEEGcaoZSGlm4nU8xZeyYZv24AAEAASURBVDmTb+pfOBDe6CDijTbRibucSUun4NGU4soWLFwSwUTNEVbtp5+S2KdMpa/tQirzNmTwzjdFNXU2+SVL22lQChEKHpK+bF3VfQQ869GTe/lC1OJLvzxT0UJTfPFsxDWSzQt7DUJHo44gL94FzWiMVrJ+NosEutMJD9VKA/IYwKsaqkQkDKKSJLxF6gjXZesvAW7AoHVhaqmEw3wlApKRp0QQPie+4NeYqDqkgp4SKNQOK6tpYEAJOOtM8c+EPhm4ayQjUrZwuXZTQtW4E2OSOIcJplF3PdEuS+N4SnWATrkwVeDgFDiuA9iAoTy6o7YqARflZOpEqQbM1jVL2kyMm/WUA1Rb200JmU7EKlohK6oDfqOXtBRu6qDhifxqLCuzVDzjNmfqaBT2DuRvmLBotEp7CXf+WVIxZZLz04rP9yDW8MvMKu5IZH0Ccg+3H76aWXpin7aVni9vF31sNzPt/Lb69RckimB9ePqWns42hidS3RdSZ/MQOe1JcpGVPA3i+2JHgNRhI/dOta8hWVhqjFX5yjBD/Atgny7ESVmqqkRy8fgYxLLGPkdl0CrMoZScVCNACm2h4tayNPMr1ndiPuWihgUdlkXP61jHjbkSsMRfC8cpW5B6HBpPiWM6l7m5/coJdeFVgnhL1voaYz6SyczOtbmlaSKGlCq32oF5RKyb/o2xQiinrLE1SoONRzeqpqoyywSur9VPZtBa7KT8FFMxYVDqrITMulXi2ym19pbpMpUj7Lw75eIhV85LrnHwVhZ1G90UVMg2KAZA84hErfFxg8MrAsRl1uOSzg7LrlRc2IG5eNw5Yf3jzDN/lX/5+UtiE1WJg0fC1RxEZsJaRnwlfmK8bH+KGQGvx+kA6FSjr3Aj6jSOlR3Etl4iDMphRUei05gvRiMQSVX2AILk08q0hIbzvO8ou3zabxi6fQSuUlUkk5a7mQufYzcJd25uf3eMTcdPPnxWIUI7utPPFSzWQ+ZDp2UMmW8lE8yWclJZck3G4kQ8wIhIEP+casgSrh6OYcehms80BQzoRL4rXexEPGuHgjK2dDlbzqUJro3v0fhKMVfw1HYwhwYejDWJZNskvtIwuzIwAnlYsqt8POfGi3A0DKmWH3Bz70FON4CxZlkr6ji2SSuZ1b2ZTsCnalWjSHQZTBXeAMeLWo3T4eAX4wv+whh1XrwR3+V6UXfJx/KPHb+mO8QYXddYpDGi5bX2Kaams9SjRTTR4LuPnLCBpzF6N+o3fB+2WYv38nvG5p42t+Z95a1CHIiVkEWWgcMK9RHxrd6tCJEI6S1rSiE58DPIrXkMn2mFGifYsw+cmUYyWT6OsEDSZyVM5htUSwSUm2h9fgntewQbtXWWvqeHJD+lE6tTYZzt7tobXpWzaFaWzmLyx3q57lQHBGcfwz83xmb3O4Soy5wY8EVVLADDyPb6qnOuK5XZw5hKSFVMnN/iUSJ0S9QG0sN9hdbEG7GcqhiDgSYZH25uc9gV4U6SqIKqynoIVPkhUfGfs9qkMdsL1FfDjkyopDt94tnu2W89HUaYYNXNHJfXbDFGnmCfppbYqJ1OrQhaNTAvfORdDIs4EQZ0QaLqd1gXBmW6hnoZy65LMHiNBNfPozYy/cG77eq852te+4ZukqMsN93BYueWJNWStkXyGPjR4aVckVswWQrdHAwOjtMMhgX5PEfdXn5Wa2//0ZR/2++TYcQ9AG3IEcBCmW/6Fhr90u34Ih/HVGGsnkGGsept929DUlDFDzRKnrCeMJF5C7ecFGYDBF7D47sjy9RHRkxYC/dZcFkXGVttbAuiWGenwjwnth04dLh7jlt1xyZnc1qbS6ddu+rmVm0RW0gDDfqbEgmJXSYnTSQcUDJOtBPJOwSo9IBqigELZA0/KKSkAhryUc3zn1e3yTCTLNjeZrLeQ5YdMy6jOi+cP9edeOZb3FKFtAPWKcZ7+w8dhKmmu8OccueZNd4TqXbiHYtLnDa3cv5s98yTj7Fw4DyMN8OJbvu6SSbtvZBGlTHTE3CwN2Clg7XX6Z34CYQ9bAVhsYsMEfwKM+nFo39K+eRDHqrqSkT/ua9ygZPU57hA1j2Vcn7S+IyBx3YpfPgwNzDHi6ltMWDh06YU7sRt0UMD+PTfBPaOyAK5y38oSFq8l99zhzU1qgYwNkkTcC+u7WVrIfNEsA2QAYoLs1fOl4jFhCbAkUdgsSHSIuXdfo07Cmu+IYC9XBqWgDQKz8xlyWj20qh5tr5H2zumsy2dOnAlSkzolBO4ZEriiZIqt1VSuIv5jCfh8Gtpidu/8UkG+FkVtzwZK2NLmDZWU9RGx5lrMOMKElJmXDx3LitrCg426zIudD6RY+7CiN4w5dVv0zCpTHAe4lfCuwdzCwZA4eXEOcagMMwF1VcXxGupBUYx5VgxLo0EpPy3/vksaBOvKtKHEynSkjykGSVljh0xpolNFyld94t4vYCqqyePl1kaPCRaj9ekqJ+0T8oX0WbEn8IxwT2z6g2AaiJDZ0TZ2Tz19Xvo0n7Dz5fl22DM+J0A1uoXCoZv1rqQU/VPeEUqj12/1Sf2npeJtyvZ8NPCGiUNfXkzM8PqtQhOg8ZEd/q5MxDxAlKJ80wh3OktGAKi1dzfZhdNpnywQ4fvzEka6ZlNAtDYosXWEBkOyQdz+BeigckTRkZKyEgZ4skUwlDzkK4vHeNcUQ64WubabCb1Ven2s8B6kbGfC7EXWeyNjphF18KzwMHE09PMjcKk5rmEOuuVdUpYBoFZ9aIhyhPPt9Y4/Zw7HPe5tI367QNW70sU1qBFvPlCvmVmGmmNVJh68i++xJMRPWIFlqT3siNDGvokHzuzZSy9XuiTtbgwvQpL3bhsGXu5wh0ZJNBfcTWGhhLmb1xptIEz1tAjb6bPy9A/eaZtBglfdi9upukJqGAbAT8eu7931qB6/h53IU6RLQEOXUoIcsRFmhIE83+XKwKulMNSbdiKPPTblfCiz92l21tXn0mI2Rgh+da3J7fJTC4r89anNn7VUuw1b864bTL9YUcs2HWwMB9yNJUyqzAaeaQk8+9dCL2KaT7Et/+2WuRNeg0qbnw2rQRumIWpulrEModmLXoAM/k4RptjKZxX1EnojhPXMM6sMEfpuNEjJDXcuJ+QATCFwCiMK+vi1K5bgkFmUF+dLlFKbrCQ2+1NcH3gEjfiioSU5BNnw+Ey90or23FcQMoJvyHGv0A+3r7lV6ysnnqnpKfjcCxsiCq+ePK9nGxdNGQ6y2wqahVZHZnvgck9jsazPW0MEZ9UlW8+Bj99fsk3Ofdvgwjf+ReLxPUtWB8v4rfXUSpF9eoXp97pXw01jEXRfWMJRO5cGAbWmxTVHK+JT8PoEsSrzFk9rnFbfJEvk+qFXyu6BeN9kesbqGWRpOZPxDZRnDwhpDCF2SJVXCUzxz7HFU50i9HBroVEziO6sWHafIsqqki+zdMKhIEUlwMngD28Az9fmj9k3sMZieo4kbxVwvxbhWGWOZ18g9uDnZRfhNFcs6ohZJK1pGOMAzUw5UgQjCWzWIQdu7qeNAcYTztuhDmxFntX5CJXEDgpnj2FAH2e/GZgdMtZ4a4NVeUYj4BBIm+dRaFAmAt0y7CTcLrEsaqWXdVnESUsS2yY3kSKKYUvENdbtMbRLqbZYtbOvDG6lljHjKZMcvMfuJ6xLKtnXtlXPFWbEp4XsT+EtToKsGey5FXhLdtGo+37xTxfdFrxeHHFrlhkxoy7E+a7J7bdYRfnWFXXvyfPHsHNP31aJQv1giyBBWsulSJRXJVZmIxX72+gYflsWVaSAUH3n4OHcXdFrbB4+mP5/DqHyKfyTEOHZ7itoA5agW0IGzoHPmuFbPRJ3AZWg1cWFO/yljnXR9+Dh5p5N6D9SaQUKmFvY+QJLpIexRB8rGqEcaE4Z9g4JeDUhxPzAuqJcFNOPwg832usMT1y9Jru+ptenTs/vALO8eQsC8DtXE4+/ywMMQbTleqqZN3mZLhViDwnCmDlnb3AwVow1zwX37gYINMxGmfsLJV8pA/++/pbvxB+EAccVK/yBR5gX91g8QHwrTLuXVyiE6CXlXl1YlI0+BSP/sUwynPUBbd4CEsc+QVPpG74Si5kMMB9GkDYSCFsOL74V+8GtHwT+BJ+kt4CL+VSOIGXi3OptPjvMODsiEeGlyl2R9TdH0k5AKgQaJwmDRKfzJuqYWNaVpVXkkbiV3VyotnGN9Bwcd3itUo7rqiQPryHvXBTqfJrOcLFM/mYP2/Hr7m2Wzh9qjt38pmopZZQ4zpGQzDsBVRXTDyZrphg6sOj73sgYs5PfHN065HzrZwqF2uqalUVF6hV/IIWicWtXJaPh2UJq9bQhTNnsjTOSXPPitlQPSXvOaYlxmEwLaGqfloqZ2f2dVdzQvksksd5QE9kyyKMzZnuEBbXFaZElrWowsQuAlji6reNjeVuP2e4urpnmn9wZnfq1AmYea07QBlzTMy7OsfpGHHkT+DzPbgroraNlYruoRRWzVGl0NOpUBlvXF6jI0HscrgzarAM5divsjS3OOtWDuBxwU+ehTg3Xas1GCDaKlwWq/ihKaM2YG0byYHOpHLOB+mEtZVlSebVcqnvy/5aXBV+6WhXCr90yoQM1NSqGpUyw11AXyqPVpXRKu5VwYYW5x91Lft8UV6a3WKD4MrV5WJpKMJ9Cl96axP1wNZD4ujzJI1lVA70qhcxqWXYOM4zkhFxvfnp4LGrute++a3dffdsdaeeY7wF0ThW9OYm76lwQ/LUmBPiEBNMtA2TOC5qMOX0udQLZoNixhhUhiEhxFbnglmiFToJmbwBwT8lon/nFs52Z1gnu4FI1hDiKeGOAd1rmXFXH3///EHU5xTY7ddI4zk2wLifc232M12x5O4N8rvq6qu7RRjRc268Pt2jRS4gJVVxs1dRvPFvE3VzaeUsuzi4WpyF556gZ+0yLRJJDMaUxjjhd7tXtY5YdH6T+U+mXZw7NaQ0ibFYg+cPX9Ud5s7HjC/TTnaAlluuOuhqMQNCG+DWRm4taWT9NXaVtHSCSKqpNkhcw804zvQ7XTqpnV75MuYg2R7hw0hDGAd+u+JfXOquCFf4HDCjGbWeujCyd0qRN5RwVqMHcjT6ECvxHVZWBINAwlOeqlqwbDRDGoESClHTKcbf9L6m7NCEecRj0MjVHeJnQyZdNY7k0mdD+lAwAWF//MmE91UMIHNcK37rO97Zfe2Oz3UL33qy28c4TkadgBknIT6ol8xJT8+rTQQOoadV0pn7yDapAix5C6J/9SMc/LPnxnlZTiAjvkYjx4TOKa4wjkMm5mCsc26Houw5duVPcX2AavM+Js6vYj2t4zLP2plDUroDzFuLPenclT9O0bgncn6fVxWw3G1tBuOUx+pvdGe4udmlcBqlCh7aL/VxLyXqbJbRuVCBcSHvqpgywVbmBUEDFTLlJsyXVULCD/6c31xHNS3c1qnrY+PLgScXwYLLnL1DWhqi2l1EBF/QgZ0beQe31Ctak8H8k0Q0dNW4kadAkE9wax6+E65P/IYBCfVnD69B2BVf+sSAges/LpehAL8EFzVVIpcR48woCLp0bgM4XkKZPbpSJXHasogqKggW7w//ab/AkoUEfgBXKZaVKr9yrHpuc8KezxE/s+EvxEf9mrQKLH5DyE4HzHNk/1VcbPrMw/dzJMVB1EJVSdMylnNlDITpcjh3yU9OA0ngcyE0Ch8SRDWqMayEoxSJa6DwVK0D21GZJHZx7zXd57jFyhuDPdPVVSYymzBpUd2HJIwFEwl05OgRlpWxbYq8XUmT+Uk7NXED57n6x1uLx1URgWBWuBibWnfnLklIT4D054QDlwNukOf4JucCeU2bEpk4SlDVbOHzDB0XFYjjMCV1cIpFxnOM6vjV09i36ZxmUH83CBNXUyzvswM4wmVDrrldJ70rlkQZhfuLEy47tLQ4/jxp50wFGcemxM/2EuzglzzCnXxLP2SQ8NBPaomfjrAe+/kk2uB71H/0PREv9WO5oS1z+ptxg+P9k72FXcGJuABlvGDjymmCsZbvaF1a/QiroktqqFIoxcKEffwaX6ZQflpjGuif3+3dZhOm3i8wtnC8cZGwRA/k/LSxhAdAvfKGG7r7IaIzXOP2ildcUwQAA3qgkmWYe3ZRAKonA8h0Eo+9suEW15jeStU/ghreHGNByGsQbBZ181xirnCVm44dZynKxiB+rzifVSoy3lLNc8wnMe7HckoPWrhhwn8dS6lEP++4jDqdOnmiW+A4EaWlquMY1kyNPs5XOp85h/REz6bOMDqdiwvknRO015lmflOrqMfzw02RsC5AGFfa2h6pIfkmDnVgjCtjLrOZWUbN2lziTDOlosXWse1+VF47Na8dqGsfZEHHb9UmYUNxZnuA3MaY4UUL5K/KlSZMm2rmV9zilb+8+aH6j38UFj4tJa2TtuCjd6Hj9vEyeXITGb1TMGGVcQIt4VixS7jEJ6xUiT7dpeLqP5pXix4siraGXlEm6kSePxK5jAJyoXAtnzaWPacxJPiKyXNPeEcLNcO9vqs8IbAuLuua4xiL2bl5DCmnss5zkh7eeVPHcJ4nswphaa1cgzlyZYaSyN4cK6XSJOeiBlYZlzKF3YoAoxBsc9eEV3evMK5TunjQk/k73+fO+LkDh3OhqGNWRArMuD/M5MS5x21Yj/MnT3LBDpZKYNLZIUyz8NtjLc6cOJHzScdgQBl1k3rZ2TgmnURyOQ7ch+V0zOkUOhMXn6+innphqwvF9x08THwgF9l0OI4DfbcdVEeVaqrOqtmOZ5dRr53G2ITBVTUdj9prpExhozOgyvHjK+kde5dTeoOX0J90WOkSSv42dcaqSkbbGPpIu6cpiwKSZ59be4R+yFNtIe8tgGe+zWtXmDCkI+ifI0nqNeUPfc1HMNpzGDL0a2HtaRzfmxtNr3/GjMNeQuDxTmUrySAxL8P39iaWL3YjydODW/HdDrzj+vQQo4VatigWHoM9zyXtxE+TXtV5VANmctlsCC9GJh0Jq5mSA0CT9wCgwUvKS+Z4WZrSTgunRDfNTvkx1onKLBqSWOsVRqV1M5YrKcktwxBtTvV2cj7/qI+DHrLKbniAsVaRKVXhqJ8LZ89l6sKyVpHGLgRfQipOI/UOHjlGqyAdocRpGEQiIRogwGgujUM1HIdpt+kM7EoMV2pqoFGb0No6SWexzBTNs089xTTJQphoGVV4AtV63/wh5v3YyoT0VR31YCvVbw9WvuqaazIlokosg7uI3XlW+pYwpCewL7GkTiLX3w5JxlRFTadJXTeQkku058lTpziF73B2xKxbD+KkhcFntY8NV/DbUrqsVwVPtlLmhI2Ztq0Y+c13oqdpfYs/P0U17Zt8JAZL7Zu9f1hoMkg5easfy9K1Z/nySz6t7BCYcfrA9hzE3SNsNM7ou2nat8/s2tAzDNkX2iql/6hL3fAYZd6+6oNoViSAN5+WqH33zzBXz4sSrta2IMmHCDQX/jNqSwqtkzGxB/q+hB55xpNJ7f11URvJL1HzW28J7KVv1GBaSQEgiI6XvKtRIruKqY7nnn6KXp+jEunFEYYYVYiDJHBcN4sxxbHaBeD2yu7tbRZcKwdlOPNjbs6M823ewQllUZBMIwMqaVUbl5luUD2dYpri0NFj3QzTFOtIII9/nOfP6Y5TLBRfQG3ewCqK7FVgsR0K6ca/SCDirXpYMThwvyKryWF2TgGgY1hiLtJDsA5yo/IMBh3x5HYqT4ib5ebmqzkH6BDjUMeyHsXvhT5uo8oyPm6PKsKkJKS+RixVWtGsmu2WrTFUUse2Np87SjSGLXBw8QmY8ZZrr+/mGe8usLQvR4MAt6psdcLpSngXP+WVNufdlvOfK53M2NPF1SjErV5pb358B7317Oms0XEfzUdFIpZUlfT6USjZDb/1u4SLVCZ+MfclIn0HvAcGnIYIBcQo/wyA7wtLmBjQ7Q7Ujwgt2M9yoz5USkQQz+QtCwlYZio48KURfBe5qj+SoIYNic9FyBe5vggfwpgYdonE19Uv+RtBpjEOal1ULz6mZKAYLdYxOhyDaCe7BQ46nuDee/bSplwXW7vZdhr1LzslIGzr4TgLgVR1x4/Z/DR0btGl4PTMMgGSaw2Gsv6O12q6gYXcSOE57o0UNjcbHzx0xB6le+app7vHHnqQDmCRy1bPsEbVy0ZhWuC76Xu+n3HmEvOCXoO+0j14772p4xb5rrMG1R0n8/uOkDdqN2tRneTXkOKdjRNcSzeBWnvwABcBsepobj/MyzjR3SPThOVQYRhSKesxkRqGqDn/UNXpZMSZhh/Hi+JZlTonzyEVV6njOSS485aBDdyAJPKCwW1DcE81bVkbgr+hEy+hAOLYHLadVKDUzXQKnUGYje/GGOYg3qQm/YJr89Uzrj3xSuTe20cfZxhjJGyP15S9h/+L8tpZ5R1JIxlD8L13xa3fPRHWozHRrcWuzLV8XVQ5kNqcb6284CIIB5EEJDt+wqg8lZY2kP/ioHPN2jFtI8kKvmJW2ifOmIMyZDpzJY9IThpzE3VP6ZdxFluLpuY8unEzG3IvwCibSK0Dh492N7z6td1XvvhcN4YknJ+b7PYhxeQzx41rGFs67CXoaKTF+omqp9Tw5uNNiNXtQpALfv2IGJx4StwGh/kqlWaYqnCsuI7667t3Xchk1vUs94CcPnUGyfxMd9837skicSf/t4gzyVh2lvGeY8llmGeeo/odN57PBDvjOd7F6SSSegbGu4pw0yr9PS3cy2683MZzVp0eUTLq7BQ8aTxWTLqRTGfwnJic490ze7QrgScW0NthblMH60oDBde20xq4WAP+dfCrlVUL6yTj7zlgXo+VGJxzIsEUY1UdUasdBU5n5wvTFrOJuuqsDRIvMr9t5pUIzVZh65YjLvkpSAbElwJaDAurd711foU88nWFnyQiRUt8meitxNEofZHx6sEYDR68c2LoAM7yJPZoDxCgGzMkhkgaKbK6okGGho4W3icZhBs2GiOshmf8XMEitH5TcfrDPeOGmYlnM7aetProQTGRLG5y9ahFG0JVyuMeomICsxPji+xgePDBB7u77/xS9+RTjK9ghGw3ouyjnDh+9OhBiBgFFZXPcZYWzm12Gmv+RyzAeMqLvtdGYkqoGy6DkWshGgk4uKpKg7Waf5siLy23jk1lkGXu0wC67nnU0W89/XT33BNPsyyPsSFnuO7bfyRjSReEb3NRzwawrCyd6b65eGeO6LigyotEmkM1nWUDsarmfqyinqsqDh3X2dmI30yrYG1UFT7A9IgSB45AIkLgWA9ydwewB792WLzLoDZJdlsYhmq+Sqe1BUOms8TPbGQWF6ovY1haZOfIJHDc9slPYtCZ7l7/preSv+YJ1XJ2clCYp9JJ2w4XdGo/oilMaYE6PLQLTPRc4xlFAJAVUOk4TEC4GYVBjZe05MWzaNG8eLcwn33WfCTc55Vc8UOlJ9EVnTEv5S4XhmQkWQCv5ClrJEX1UH3vZdRLldL772DUS8YdKaDlScaOsYIzSadeCDXuSKkjr2a/Myd9cHjGoJB21tiANMphvVvd4w8/1v3lX36mu/feb3bPPvds99gTT3BUI4wBsajKYdaIxDu4b6r7vu+/FaI5DC9C0EwfbCLdtEBq2t8EZ9nRAXFnaxMGknUIbc6DgQuEWCddLG1jtnsrXDO6jTqYa9Eg3jVU3jUk5nl2jii9jrDJeeY13Ip8oUkmlsDl3BpWAMHwWjw9osPzc2SMo8dgVsZhEts0Y0NPh4tVF1iVeO6mQGcNWia0ltLJTANjxAi4dIrDdTNx0kFPC44HLyDloqpaB/LexnCkcx7Rxeeu33XkJS4ybuR7BWb08GKZ5uFHH+2+/m//z+4Nb3xTd+PNN3dv/Z63dbe8+hZyYCyLtCQZarHbuEdc3779IwEhBUiw8EjzAK+XA8VKHQasTrwoxQ6csD5Ln/oXBnpPHhU+jDcMqbDR+JbfOiVDDWv5j6ZraeSW9m54i5t0fJifdU+9RjKoLVQjHsmkpcY/GYyEC8oweHcojTsSOpJs8Gp6+tL801N+SS5Clv9V2ZZA1WTImOW7NwpbCrMxI38rdwn4EcZen/jEJ7tP3/an3XMnnodBVV3Zz4cEOXz4EFJBSYv5n3Tj9Nbu619wFcs8R0VwAvfcylQ375gLf5U7z5/xaETHWM7FbbFyJodAkXJ8xhO7HUQCBsSWLVISs9+UI/OKw/Te+M8yfeGhUwcOH4ZHPNJwjVujThMHJoDATSjheXDVPvc6Uh/HcRpmvBl5hvctLLLZfU/cLSS2qjigZDzoyhd39cdySh0s2y1QSpUtLMiuc/U9a24Jk+ity2nmLB0zHjl+NfWxM0C2kV5j0xjhcKqCrIgLWO1MtUDbEZ5kakhjzznOgv3iF+/o/vr2L3af+OSfdm/7vrd1P/mT7+7e8IY3xoKsJdkOzja23DSd0g4osyonr7YMTmmNxmE5bteaUqIXIgODdSijWQ9Uz6gmLZdc8moLtDKlOL/NSmeRzcdnhk19limD8N0MZzpzMK2uPdt7D2bVr/ekyiaqyDzVHYZAUbMhSIZU3Hrb67eBv1fYt++XxiGb3cx4uZxbXJ9l6p/sPvLhD3fvf//7upMnz9KAbNZFTfRYRBtSw0O2IvHuCpGseoRQXaJ26uQZjByH2IyLegWROefF6C3jKzfOTtr4topbh5AU+1lgDY9mzKQUioa8SQQsjnYMOf3MBjMNz6jAMNkUUnuSTsGpklXu2di/HwnnNQMZmxUxKKHaVXJKRQ9anobJpknv8Y9ujJZw2rhrinHsuBKV6Qxv17LRi0AgSKR5juWBCXJWDWNBskn9VGmlfI1b7hpxPnQCWFTT3Ta16ml24g1Gy81VYOQ89T91hmkXJT3S0+mNZ54+2S2tAidjTuHYT+e0TtpPfOq27q6vfLV71997V/f9P/AD3Rvf8AasyUvpbELM6SQpX0oFgcIuc0+AG+sW7QnsOYQRVg1hwm7lirmoHgCKi1KBARZHagLqffAkjjF17ZmPfPtmeP0KDsWnnFGmM1ZzlVOimOEOlzDwGqZvYBhjJFGYMUS/ByPuyK3/GIK/V+iV/Uxf/VNBFKSZjM8G1/DlyvmNxqjGsNd0cppBP733r/3rf919/I8+ToONd0cPH4j0kAC1yFpe0O2Aya+s3uABLrTcLmAYOcd83czMEQwUxNxe7/YjCZ1IX0b9m8Po4XzgBRhRY45MBIdGejjFkKkSclbq6pSEEoKwKOn0tfePygq8NviUGh6MDxUrCCIBxJhSj2U2MahsE75J3VRLvXpAo5mdDCnTAYQ2/eEv2gFl+jR/mTpSNrAALnl4sHHrxEhVUpW8xI/q5zrq8xZ19LJTl9S5Wkhr6TLv2xOz+LldiikaplFQnimJTgWLruU5jr7A9IzjyWmk6zUsXj8L4/7+7/9+95GPfLj7qZ/66e7nf+HnI0WNL1gZi1K6WlEs7Hi2DeuePSQevUI9dGRbx6gjPgu/1sEeQ7xYBwGxA0y4Ppaj/15ujwAxYQdkXhWcXEdS75GoRb4oagsYSd6/DrZQmV2BXiBfHPVl7kMdmyQttWez+83f/L+6P/zox7pjXAEn0cYIAlYz+LeXtUoQYmPLwptMVw23AnGdw8gzf4CLZbawRGZcua9bRI10vkziyriR8ZVrQlXhJpRCOHtle+51VqjISJ46J8HLiG6FsgS/oaMiPuAI/DC7zjGgBDiNRGkEmiMsZB7HjBhzJDL/JNqYaPo8cj9IwmAiOpUx5+gAS7zE0EGGKuX6WWcv8vFNLUGJlI3CSCunKLxd+AjpvNF5GUmp5F9kfLzIdMuGq4lWl7DmYj21rjAGw0y+NUhJwOYOkzjUAA5VXwt1LtOjIpX8H/nIRyJhf+Gf/rfBjYYhK1xY1E5WmoHtJIwaklg2Rr3Ml+/gD5UVTUE8DRJaM6VpYCA/P/XTxa9eh7+txKGPb/ENLmkvynphjlR7ZTfwG7zsyG6EGfeOsCN2PozXV+riwL9dH1pD9UrG+43feG/3B3/44e4qLgbV/G+PXUw6BLFNnZSkVg2xuUpVdabQjb1n6MUPH9yPpYFJfm51GoNYxpnbm+QeC4+/kHZk7jmYZlXDBdThZS/QS4g68KgSM98niTlt4OLvGHS8gJV/NrJ3QzqPaf/u1IgEJyzyiRZFx2t8xU97zBjMrXUYj2JmIkQjAJZs1JIJHXOSI6+RiNbfv+hbMIiM7AoaOLTyADWq4l5FvgxDncWotO/goUi6JZbMLWGgWseafPLUaSb1TzBXeYCNxBPdWc7lWQOWdf4cf2a3CXUpA0vhVEaRn+wQS+I7DcM4mcULf/zHf5x5zn/+L/45ZbuwQKRWZ+V4zU5JcJ2j5JEOQ0z4fxx8i38t547T428Th5yDwWJS/QqJhPWxSG+8xqjpDPUbcUpEy6l4LbB5tojN3+8WxlMm3uFokwT3GSZjI1Qa+nEB251oRw47PiJVkniH946PdCRW/BLOMnVBVRBD+fwPoAkhXGomo1H1yaDAu6OSJqy0rluVkD/w/vd1H/rgB7tD7M1TwmSKgcwz4czT3lZGbBCmgYUHzNvzCouEL1NrHbSh7d3PMwWxCTFqRBlHBEyvME+IlMIzOyX2YXF1wn/MdaorSi7GUIwtp5AwRxg7ZdkZMG4jLXVkH/VngvwloxAbflKcq07qOnIr5zf+ACx4Bb/qGnVAPVbyKoXdYSGje0FpxlxYZKf5nuQ0ODZm9GWYfeUpDGYujq2vJwdoUNGYJP6dglkn7AQdkkdaTjEXunD+VFb1bJOnzLeh2kjdtL5u0kssoEmcOruY/IAanrJzEKF9W7IlzZ0vjtk1Mgn3QSy8t33qk0zj7Ot+/p/8k+owwB2pSogBTj588E5WfCa0Z1Skrp0KPOx9kyIp7GY1U7cqPxxdnDeSYdAqRoIHcxYnupCCn7pkQb6W34fr3cfET99i8uRVCYyCq3Q2obDrzCep++JMyzxjK83AK7umal0+poi/fIzR0AJ+1Edgq2JmlPc+w1Z5K2OPKTy+O33hBPVn/uIz3Qc++PuojO5U0ArX0pM/cRtzN/B8uuwqjQxCoC8j8ibRai107mwFIw4EDREtQfDnGC9RQDeJ2mbETdeKMmaDzPgoot9mumIbAvbIjEgYJIArXFxgvbWGWkvUjN8yXq26yGSWbTeRsRJxEanArJSkuZQWSBbVO5lGg47L+Gao6zJjNpfZTcDnsEUYyjQbm7OcAOfYEn86iuw06cdYaUs6GZlCXLlb49lnnwnzeJ7NBkixjEWmgDx/Z/7IJEYZTiq3F+Pbc2e3+dtiPL2+jWpKQ5xnPGkcVtLRFwkzcYE+uOctHRsdTUlpyqYuTpXYiX7qtk92P/Zj/6C7mjWyFygkpw3QxnZaZiF6fWbMa5bkb78RqYhYUaIqLFxU39jC4UJjSP2CYmHzxXxx8qc0xIMfXnr/fOulfxxv7aOPY2RbzPQ7XPIvT2NESzAC6Stun1FLh6ej/v9knL2HFRdZRbJWSAT7hxUT1eo/fOxjjGmWu0MQv0TmNh6lYBBs9D2capwuakpylowlanp2/p59jl0SEP8RVrRMsi51mS1PmxDQFj16t4nKSoM7RylRGX8cS+wMxKGfzGxHoQSwFTL9QC/uXKWGEy+2IVKpolYiUw5VvwJX2Kk5VB1DEEy1vsRibCSQlstpmELmXVxBVQTGVAXqdbmeC+2xucKEzMuxgsfT0yWEmOqpn/k7VaBqKlPYGbgQ/DyMvQgu15G640yJrHFU/wqawAKdEJo7Uoi1qY7/kLrpL0CgYAdrFGDbKH3lWdssDGMbUY5VpKABk4pzmWFa1ZhpkNv/+nPdz/7sf92tXFgGVq93r+kTx7UqqUGReZD5FuuV5VBL9LoD6+bYNcxIJ0YAeRNKooyLxbNw5LuHJVACO3nKh7p6FE31HxXQQhO5IlpX68iDnGwny+ijG89oIsBwv828FZTQ3ougl86M1rwvrM/zO/cIwAJdlRnN2MoLfkKIZ2OuoD4eY73mRz/y0e7OL9/Nmsz96Q3HPMcFzIQZRzPZ9W6T6uxB68U5QWQqzKycW4MQz5xbxKrKgU3759iV4IJxiAVKdO5v3nk/EH6OHRKx36AmHmXu0i1GUxhkJliN4pTABBJ2BgnrYcIXYBz3IY7NQUwSM2XJuFZdaR7La+CxsXtishHxyz2PdDKT05wKB9FlwTZMFVWWcBlLiTnJ6hdX17j2dD8qoNMAjmEBPHgLE5JnSS86BfKaZvna8pmzqJsc3YH6K5M4pbGC1F2VOVnp4/jQKw+27Hz4jnovnskr263EGh2BjVRrUfEXV9TE+tlm1tVw1wADOb4uVJ9iGuojLNW7qvvxn/iJWGg1JkWKqiGAoyK7JCR95aPUsaNKOwqbQwjwbmmZ1gEnVT7wC0f/XXlV6XgSJkhAKTji2pdkyndzCfTDtug9ea2Ww4t8Rl06Gwpq/oWB0RiVjR3kS2fGXYXuzP6lf1W2Iq8qFsQFRX0leQzM3DTCBmZ+b2761Kc/1f3mb/8WBSOlNFGGFszkyrAYRSLZ4SRS/ql6qjIqCc8wzaGBAfLPTVVZhULjOhacgXCXUE29OGcaNewCzKm00BCk6X+MXt+jNUT6ytkzIUAPwhqH2O3Vm/oIlQIG9QegTIH4pD4uVbNSEuQkf/uwEHtw1JpTDEhJl795dKLWSBnO+jjmLTLBKoukzDk6sZhqNSWIWMLjSh3kIx0HquiBg1mobt3OYMBxu9YY0zQud1uiDlNs86oT6uwEZDDqyu8adWSkDJyT2cC8jHqrIUj824ZZT2xdiBOCTPnCIPn7S1qkvMdH/s7vfSBGob/7d/5uNnh7EoKahHVo9JCOEJxI7BKLUifv5OXRIebpdI8y2iv0YtFWi0ArUdXP8j5CpTN/jGPekI3AhAfDd8neSL3z1TJTgq8yczx7v5G4+KQNE4O8R9IR1OdjK+AoeE9mrMyNsdtVxVW5ilCSze5IL+nbBmrliqBIJZ/BVmXpe9QMUZWwmrt633vf2733vb8d4ptDrWpqJzzzwtwQt4kvJDqLTn8OopybXIHANITY+wdaxlgCMg6xuE51FuKz+edm2P5EJzGlCghXOW5c9h4PwrZh6jWYeg4J6WS4RKwQ8RblfZwgLh6EX9VGYnAsNYGE07pqs/lPNWyWhQKuwvF7lbWgSjenCxYXPcqj4x6OY1h7mUJAS1AC1wIDJAMEoQQTljaOcceG481So4CZergEzx3+qqOuqnEcqHTUcLWP+U6nWeh6uKqO+jsgBV7VTA1ekzJhMAeeJBnphReFjHXaocrhZ6Qxx8V0bK4oct3whz70oe4v/vzPu3f9Z+/q/tE//Efx94SEnPFDJ5Btd0rXAXtbkHlRMv6OH8WDHZIw2OGp8rp7BGQytLA82oO4pTnZMUlftriMXdmZp+86s9/p+oDAYHgPQB+pOgfaX3jJxA5n4EYyk6HtffdkxkGCv+WXqtxOIFJBqDVHSlCJ33n/+7rf+u33wgCcewqyHfdYZRvikq7hpKkgxG1epmkolWTTEOZJWQfYmHuQJWvnMeWvsxnXdZ+bGlG05EFwW0inadRCV++cJs5+dkUcgBnc8+gBUZYh+6hGMWrslh5/vDvOfsKDXmdOQbK4d22w8LKYkAR1pTkvhJvePxdZG9+dHy71kwntHOeO7esOItEkuH0sGldiTxIew4+EJ5yDfKpjg5dIWwcPu8jb/iu3ALPqJhusV5hfRHJ6EsA2YziP83BXxiyrklx3KwqVsu76sAN1AbyayTT12AgiNcDYkfBBZNX5JnHwHDo8hXOCMiRKl++dR+J/CKZ84P4Huv/+l34pdgBPRJiio8gYkQ7BfFXpU1Sfm5hUQquGy1opH8SpzqeTpxzDglHexYmrr/w3xnRTpKTAkqn5Skvi3Z9R4WAbRMPY4W8KHXmSt+VZTtKbUXOkNeMYo/TjfeJ/+pX/8Vd976P7ehk3jCUg/l3KjQJ9qTiX9R8FvEWkOHt41RB3J/zhH/4hE/u/CUE62W6DO2ivBrjcODGbf8FLg3F3LfyOnwiyJ+V5AGPNrd/7vTDO4cwjbqmGoSa5EkQjSNv3p3RxnDjD9Ec20pI8p6jRyBegZNAP/EhHCHqFMaTqqCrYKmNQVe46Dh8msheHSYLnsDAwBd8SEe8SiG3Au4TlsrP9qJiHmBf0rg7vCUlDQy32/rpWX58ap/CJyu+E/sK589md79ask6dPd6eR3h5EvIpU54Y8Juy18FKWajqSzyfUllwu0DlqvfZ+krMYt1w+p5HGeVphLKkuk1NkmMCnH30dePVTeHveABd118lhDrR69LFHu6eefLJ7y1vfwm6Tg6mPcTPGJmGPkWLKHi+DvNUCaIPESiGEWPXA4gP4iGBnZjsbmCAT+YmTqXQGq24nG8IruMISof+xzjVEqCz65CNRTEM5xIsGxKd5UuLQVd9QRdhgu/8G0PVJWvgwBwGudKN+L+TdsgOcAPZ/piuwi5hEhCqRm2I/d/vnuvf+1ntDtCJ0k5a2h8zUgTCQcPDHGK7Brp+rUjJXZzqq6yqT9pe5PvwczGMyQEghZej1r+VwquMYFmawSh49eITzRdlbiPo3y9ybRLrqVAAEpOVS9S6HQDHGWYJpVxWc9tQQ7DpMuUre52QApMjz7OB3ZYvSyK1Hy/hLDuIxeLCJwnmFRfFhxYIv4kmUluWuFBtdxrNRZdD0/uQDcqIq25ENpoPMpzLLJuVFzmx1ntLdFIt0Etl9kbEVUliVjkq68DvTFdSlYLPz44+MlFZ2BHPU2WyVyBK4Kr0LLoyXi2aROHZYUYmFQZf29qX8HbnJ8J7P40kHR7hS7m7Ws/76r/9G9/xzJ2hzVjCRxmypXZ6NZnxab3qySEXb27jGo2vl1U5K/aTglgVKshIR/6j+0Fg6BjqcLJJIG0hl5AGS7WSjWlJOnglJQQGmcGMbCsvQP4AmriCRlvKGfiNqqo37YpxGDV1DQkv7UpmxgDKXgqNB0+ByUbK7FL7+ta91f/T/faz78pfuzPVnBw96olnp5FFDyCGQDZBQOaXj63OPhTWt1EqrPsmYaTbqZnuKyBmslvNz0yypO5x9dU7Eex32+spcJIdHZ2yxwXiFceMcTDiJeiYOHGf5lxIggCkQ75zdOY67WN1Yir+ScBamnqZz2SQfx0O0PkSPsYIF2L7LS7CV5ABs1bBWLXhWR4L5VMOmWXygcUl8ZRxkEInbJarGs94ygUdTSqyiOosFMNJogfWcHEwd3X6Y6nnGuCscl3GBuUmb2qvzUEuimgZOIJJhLENc8cKxkGwmhgk9DFkDiUSukkYxIf0UyJeqo4deaQFN+h5WCT3Nwrc1JUvBBm8X2FlzpPviHV/ubrrx5u6XfvmXMS6djXoe5rMucRpJeKcnlT7tDKIBoJ5K/I7fM76lc6NLKGzybpxIvB6/RK7yAcKOyDa30zZfQ/y1LpYl/KOuOoNefR0NaO+VNHzTvPLEX6X7RTkbu0AdJmsACci341q97IWja4sUKuxktBLriaee6P73/+1/7R584CHGbxzexJ9OM3qWhlF8QeCvDeRT1rSXvLSzacq1RigC0n+C8ZnjMg0pjsEcn3GWIpbFs90mqvI+zpXZ3Fxl6gIDBxPeam/LPMfGF1O8EtRxmM4pgSXUU1fIeOnpxNwBNhgfhOBpPMZ6HFoOAxO+jopK3WX0EL7t3bd5q5VbuJoFML0seNJAIdsqnVNzCZJ0HrNvzbIUzbEtO0kyB4nEd73oKmUvc7SiJ48vMX24SafgtEbGkMC2gXrtBTreydGkmuNPiceNzC6GsH1cKFDO0v0bugK/+feVGQaPvFUbGFO60hCjCm4Hc4hjH2+//fbuPT/1nu7a615JZ3wOPFMX4ognyW9LhpFzpAmYqFhH3EgJdgMjXVvotVjLdYcDGKmL+ZrCzgB+zK6RQSeXqpFzeotKL1/obIuiY0uKT34HP0QLn6TsgW/a50Uxo4Wb0aBgq4pf838xzNjyGIJDg9vT68jTXk21z+1CWqM8LftjH/uP3SMPP9JdffyqHOIkksRBqV68kx48pkdOAF7BG88dTkSo+vXFDeL0LyLTWnoStsxnMwU0CHSKjblOeMxBhK7cicXUlsZ52tr21nRWwzhdMENcb4i6AIEscqvUCgYJiXZimoXnbKvyGMhVVL9nTzzH2laWsc0694gKBnGtTCyGEDXE7J9hv+OgJjAVeXvDlHi3pxdOx6yu8HEMMs2xidbNKY41ytueQk1VMtJheNiVp9t56c74BZfO1RYytzGpuud+DhaBq55poBETtXgbkCH4OTpA51utq9LHKRUKhtins+hB6et4dc11ui/B2TSyC2InmokNGhojX20DJ5DYn/zUbd273/0e6s05sMyhZlVSOuzqmMsCLUMJgFIKZMCgClA1rAhSfrTq5mYt27tnPhNJBq1L8O4Uy5cmlZ7JK994NYYCt0lDHnqlXVJ0PsjM0KGrska++/A6dmPo/117s7I7GBKAHPRqvtagoeql+V539uxpVmb8FUvd/oI4zNvRk2dQLYHRcEHQDshBntQYFBkg0n2CTPCSuvtjY9jziVxD8VI1FTKJYQZrqGs7tzmBO6ZxkyQiDKC0JNom17ZpAfWwp8y/EcNVIJsQvCrijPsAgXGR4xnbBLZTFY6l3BXioVKTTIscx1AxQ++yyAIGpe5hVEWZYQ1r5tRxxoTkL75sdheEuy3Jzs/5SU8XUGpZz9YhpkaqfaYgnvsBlYarrKZxS9T586y5pTLmt47kcy5xi7pojFpDPVW6ZxuYvRArXZzqkBHn3QBNmqUF4vJvmn2TE0z8ew4rJpt0nmoTNCKhezto+pJhSdEntBxhb+0ro7uw/E/+5I+7L3z+892b3/Lm7s1vfkv3mte8prvxxutjZXbPpNLUM2PVZJw7jYoqo4Th5Es0Bdoc/SNSD8AtiXhaCcBFOiH8eqYDSTg7ehmSyIO/qp94FWQFiLC2Nkgo8Ju21dg4l3IOcIjX176P1YjzUom+Xf/GhCLA/5YXAwG9tFJOqaM0fOLJJ7s7vviF7lOf/ATm7Qdze+8+ekKRm+0+xDFdqKoHSkSEmYKe8rz4mzQg1qqHS33ihEtVRGk3i/rpomOH+pAia8FRl0Q6BO6iZI+3cKyxDFHLEIckUhGdhoQQHWMxVlyFmTwB3EtsHLCrskbiY9XxHFKqks3Oy6iHWwvsCWQp2jRluEVochIm24dK7Gqf/RC+6pp15l/KAm7JQAnl/H7UVfLPXJlMxF8RhgYW1TbS9rC400J1GTmGFHMukfTsTXS19RZGpg3nJeg0sgxt3LnF+SwIsA5pK3BwgIUHbtTO/lCE6Hnu8XA9LqUG+5YdHAe3RZK8Ek5ZvlzBybRUjvKID05kJulDqX2CUwg+fdunu8989rPd1eyRfOtb39q9/nWv6974ptfnex/qvx120YnSv8aQqrOxUhOmM29fxWfgAuCCmy+ZzziqvkZ2v1a20QADHlmoT8fLS8oyivHs0M1rUHlaiY9qC8JGXbVP+bwoNXU0k5fyPgAQgIRJIrK3cyzjagmtk5rDv/TlOzjM6BP0fl/snnj8icxdzSGlosJZMBmJg/61MFCf/FpKUNI/JV4QPYKDhoD00Db0aBjJbWxXt8yiRtpI7gfM1AOGjgNsyWItG6oYJ4ujPs7yPHmB8d4mi8AhROcenUcc50S5TcTuIqZ+mREKp21UdzmKggtZ3QvpGG8TqevhTWcWllnQjfGGBQNzPF0XeubMAj07kpVphTV3zc9zsQ1pLmx7q1SpiZG2dAyZaqCm9sxaTS2r5tX4Bs+LSDrPNVUNdd+h5HWW3STozOTl2IzxKhLD8WWWvjH+08KrOnv0CDdJcfSGy+lWkeYyvathDjKVoopMctqIc3xYWSShqxLGidf+tTz4xQ8af0GOKpC8J3zayS/bw/o5bNGZ14nnT7Lr49PdZz/7GW7eOt698vrru7d97/d0r3rVqzD43ITx5/BgblbJ6SIMRpHVtsAjLixLupDpky/vEUo8x8FfXPEUuCYuHnZKTpMJox1fwdqnN9x2N2NLMG+/L+PCjBZqxPZs75dJ96KCWr7Vm2hIUAJaQXtsjQhr3bPPPNvdd98D3R/90R91X+a0tpOcU2Mv5jhhDmum1UjPzptLoaxXsrCuEL36vBwnAlJ/EXAZKE1muM9R5/esZaL6QYdptAmUeRnN+w2PcM6oR9jnXBuenvDmSpcLLHXzTJblZVRImHVri10eLO1KfhMsSKAu7mFUxXadqqpiTu62BC4VdW+k5pdZWlpzi0dZuPB9bp+nE0yxaIDxJhV2bHnq2WfxQ41GVdZvfEkVk2VyqodUKvWiYMdHvoOx7hzrTT21YJ06bWqIAU/OI24iASenar3tWcJlPo/P8GBlj4W0U5rmyEV1BIcOKH2BfT/qolfHebiVZwE9dv8jTNKfR112DGeHpsz2X0h1gGLbLb67ET+IsfOlpgakafIBrrQzUZyGsbOR+bXizsxa0wtMfTzfPfXU092X7riDOeED3XUYel51803d61//hu7aa6/r3vTGN7IFDks4nZLO4YV5kzUw4wGA5lQbo33jT7VDLUOaQpWNk2doA9VWUrtzrgiS7z5C8jE/fezAyqNC92JMmLESt9+WVfPvc84jmY54DOOWZ9QjPMMGApu6MF6hliLShdMyoitIPOBWU/rdX/lKerTPfe6vYpxxx8Asqs8+el2Z1/Gji56TB98OuK1I7oCgdhJwFj8DQtAoUwJB7j/EJwN0w4TLIFzg3g18BSXvSQjQdZIi+QJjLaWNY0tvE4aUc/bMNmfLOGa0/bTqLqJySoAW5CqRLU4G8Hva08cjBUE1db+wfN4H4RIAL6zWGWOnvMcQzswcg5ym2C/IVAPS9hA74lcxYknka8xBrrHB1/sYV/l2LOveRdetrtkRMGbzXVVO/Nd8a+FCww69AdL3HGov43AISsvuMlu5XHM6MQPzw/iusnGc6DI9O4pZOogjzK16ZKQcJi49wc4SjiAtvbfDeOeee657+KGHsuXKOIVaWsMGlMoHjm8C90J9tQ2QWwb/NOKIf+d/Q0fmIeGPJLZz8NMLhKQJ+UQ8zGYIQWfDWuH76eDvu/fe7s///C9Qqee7t73tbd1//g/+fvf9HIzlOUGuF3aYoZYiU8p0ITypqacXB5YZL6Ki2sUIazoGSq800h7v4j4wUueqkEBHbSXCZZ3pML9ZRzIyahKIkP51JLnhAUKATZOw+h288ikSYYEQRczFYUKAI02porOs8DjZffHPbus+8Sef6u748l3sdjgFQiBcJNKx/cdAIoYNCLK295AQLKePh3AltAnURmGmn6SixSwDUO3BJILUSfhMUfiF9OMKYX0NrM+I8xZgj6L3ajM7AFeXjKPKjWNkOY96meMcaTwJ3+V3YzDUzGFWhUAQK2uM92hgL5ZxstrxpwyppXM6i7qxYvoPwnasIjPm8hrqd4Fjy51wn0QKOl0wMcv+SN7PnudyU+sJ8k+ePtOtcZJczt1BvZ3ZBwPD6OaxNedhUDCK+FD9pRynR7KOGMZTlVyC8DSKSXyeZeNicA0vM6TJOlSsvSuo4sLoqeOeiO46U48S2eYAYqWC6zdVESX4WZ7W87GHH42E5ZIPYMYMIQFViyUvW6BYlN+g2x9bpVys4aRResheNTVTbWiMJBlGb8SXxDKFS9Stq8MJujtU5sK7DOo4e5LDmGWsVRYzfPYzn+nuvuuu7od++Ac5pe6/6G5961vQZFDPaT+HAFqnpY/QMPDQSnmvQsmEjITRHUHR7uxQoQWHW3Yj1jTdD/WxrqKiOsiqieGXcpOV8NIRLpXTJvIUAABAAElEQVRwh39KpRhrnMJKOkiMsxChKpgD6EceeaS77dOf6v7yrz7b3ffN+7IyP7ciwQASvoaAdYjElQuOT8xOxIgIK2W/pCsJjB8R7CCq3BY3UV70T1+FjIGqzEJb5V2N4h2K7iM8cPwIw0bOtpF4UGFUQV/xyuu7xx5HOkDgWlplNlVb21PrnJa9cXaXHD12PKtTXMO5CnOoLeSCUvBz4kRNtF/Dap95zk+lT81OkXNoC6qHm8Q/fHiN7VlHYUSmTCQLrZbgxl33XtKzzSkDMqAEsh4gwClEeA6DjQYlJaLTK+6qML3j29Oodi6DO8MV5lpl1Uw8/t9OUKeV2+Mo1zFGyS7HrkIqOk9K3MceuL97/PFHsaiyEom2c4SuCymYtifOIuEEXfQj1VSq4fOiSC0CAbGuUkClo84wZLUTSJcezA8mCXtAU1HlMcbZitolPILzjz/+8Swg+Xs/+qPdT7773d2NN1zP8MH9mi4uqXpLv9WAjbZ7KWf+hGVFkWNGGZKOS7zGH0kaKIhTtFTCwPC4ELZvVakWJ2PGijH8NY3RbGRdHn0+mRoo7xQUJMBIoiYGA9QtpVx2JdCzn2FQf889X6BH+mz3Z3/6Z0zcP56eQn3++PGjjBdZ8kSaGD2g3EKqJVbP0hfFowegh2nQ2nBRq8ww7kt8owgH+LOMIyzPHl7J5rSGzyUmmR9/7JHuFde8PXOILhJXnXXMOAcBy5gP3H8vqh9koPSkDhqnVmAmx6AeK6HUnkG6OSY7wQ56T1rLsikIwCV9Z8+ySRgYJKQ5iH0DVX4DJtxmDHkMQ4SWXQnfqQh334+Vzos053YoYZYwJDyGAhoq7GTWIbJFpyvI9wKEuMEY9QTnsnpEhmNTOwGPzphA2rnfbxo8uL51H0v9pmDKlXVOX2e6ZZVNza9l7OUFOo4jvWnqm9+8hzEnY1YKigSgPOFQR7It9XMRdqioEeOu5jHUFP69EGd8K5Zc+VERGji+E46HNB8YQvzGdwEDBjNw435HTzX44Ic+2N15153du3/yJ7t3/f13sbDgcAyGnr6eMT1p4WdSltROnnxhcA7duUJHAGTC2DIsvwFgjfAvgGTkgjL0Skb+G6XdPZmxVazhTqYc5N8Hmm9EumoovaqZulVnBmOL0wDfRFf//F/f3t1xxxe6r3/1axAZ4xUI9Kqjx6NCuVg6y8VkQLXlrIAQuB7iBkRKLsRXc1E5K/kddplfBFtKKcdvs0EijJjyHcUobKa65zCeLGCFvOYVV2PKPyM6E0OCv4Zbj1cY2z380MOo5OyEWCGVahTSagUjywTWWTcXu0VpBYbQ8LAxU3iQSVWX1jEsLC1zk/HCGToFd31wVD8SbRpmxTbUbXGu6vjkQhh+YQGjDurVNONBN3NlpQrQCK1ywSq4usblXOdh6iUkl9bQ51B3v2VHQEexmBVBLGJAtVZldTOyp9x5lYHUs4hqfvrMCTqIte7mm17XHUUqOn+qMegrX70bo5YHObskEZXbdok0lextSyUj0EjQwKe8cAworUjUkTz41ZQMKYivvx1f3C6i2/VZca7waxmACw7QtmgT1fhoDhSmcWqOzd0aDh977Ne72z//he7Hf/zHu3f88A+DD1ZOaa8Ad45DHVJYJ9PLDZGz5BFmIo5ML+26dlfjmlRhWueTbQjjSUutjgU2NRJJvbssMyaOcfkzE2BJT2fBVsgNt5mct0eFWE5wieedd9zZ3X333exF+wusWk9BUGUGn5/nqjGwomqG7CRL5AaZenCvTbdNVxNLKMXUdhbh7Asnhv9szlil8s7nS3aSBuWRZY4ypCOQGQp5GDaQFo7xMu/moB0sCaOWwlXGhfd9817M/UeQhtxQZYOB7+AcnFyNGvrc098qyyL1U0WyHhK1ewv3HYXoGRxMo7rPbbF1CunnSWzGi1GHuK6EcSu9RhxXtmDOyTk2iCcMhqyggTCW6DTsKtzUvG8f48Zp9kiy2odqYO2ENWkjiXBp6Ry4JS8IY4Xnt55/vjvFpmHP5VkiL+ZVsAQyDUP97Eydm8t8KJLBO0DsXGzrm1/zuu76G29M+6ue3f3VO7snqaeMuIImoPq7zcofidWVLchgciy85QV4QGVoyWbjs2/fetevWlkZpJ9Itc3LicO0T/N4wU/hkhthQjoMjSyO982vToVnB5BtTfjtTKXdc883une+451hyltvvTXrkO3QdNK4TgihlvxLPTz+Q1BlRtpD5tNDPBTM1J13Jaf/jKdLnczAuKS/IjOarkR90kALqj51aO4MatcahPsNxn9/+Zef6T5/+xe6hx98MNdiK+IPY/p2vOHA2fGT1ZCo7TzNwyrpZFKrlrGA371/AkfeRWrmbiogMQevL+altXF7jqQFOuqIJKPT0Ao5jsUyl7KCNKGc5mj7E4yxnnzi8e61t7wWIrRe1kyEj7GNab571Wte2z14372cO3om0orKliVV9ROGcHycI/phRKsnk7oYWoZVMoqVNrmuyqqlT1VZ4pHZllk+d4JVSRot5lF/52HsZcacBw9hvlCyc+yjxGWahXOns5cSXmQ71Donf5/B3EHvzbztGKJW45LHLapau6tkGsPE+obTKgvk5Vk9m90tt7yOMdXNaL+o7/RMd335ju5pOlrPA3IaJDtgoDHLkKicglJbcmzvN//DAFFl9dD1j/rY+VtUoV97u0zknUkv8VUMGeLPeM61LtQXphS3Mo9DLIcb4vu2T/9pdxcCRcvrP+T4jx94+9uDa8f5qt2RfIBkmwtZdRx8kXcYDtyX1IdiMLmHvhNRlZ3iKNuOV2fHo0Yh/V+WGUMUEiGNauaqcl6hrc59hj1vn77ttu7jH/8TLpG5FzX0VHpQV+3PY5CJYWK9jiQszFOgQFBw1ASe6UnIV2dZMn5glngHLlBEcti7BQU0aOZ3+G5MYN5XclElZHziGr2YX8RRLj9BbojFc3U4A4a4M8e5q5GOJYABoJuatxhDffOer7O152B37NjRjDHkknR4IPlqJsilzPsZT2nwsQPTIrnGONGJ8RlWh0zBANmDiXqoerM+iXUU9dATvk+dOGH/GYZ07ajXh7tQe508tWauLDJ+Y5rDse0+xm7Om51AdZaxamUQiSUamH2B8hY9m4c283ubNC6s9oCqefPlKrtoN1xq6kbmbcrbwJp9+gR3fQDLDTfd0t386tcl77nZ+e6vML594xv3MC1AB0I+qp2elcoIKwS1RWegyioji7NBRz5oHLF8eWdLptXT3rYNeX3bzlzNi06N9ogtADhttwgFCtReII27hM6r+T7J8ZH3fP3r3Tt/5Ee6n/ixH+veiqT0ygPp1/TJsacbQS1BgQKLX4Zb4CY0r7YhdsCTVCYXbGOdz3twVJWb+JVf+R9+tV7rN0iwFDMUyRTszUmOS3x/6KEHuv/7Q7/f/fq/+3fdhz/8/zKPc1+ML+4x3I9hwl5Rc7fP6NcCtAP99S14IiFjNYor5PMUuPa96ylMShUbmEyJ2Ofi94hLeEo13H844+ctlcs72Q38Kg1xZXTzpRwQEAk2A8HbDdhzjdODSsxe4726stgdZdF6pgsgXHe3W5ANfuTo0SwVO/Es17sxBpTJNjdQR0lb57BaB+vDk/JsIKd+3DxrL63a6lyiuzhSVZfm0YuLV8egEoP4nWQ6yKkYe3RX2Hhlt+NHjWLuk1ygbMfmk6qgjH2yhpV4qozuOZQRZ5Bw+ziISjwtMFZd1KpKu93yujey9vNWbhU4kMUHX7n7ru5rX/0qeXhsJRIU+uA/zl0bPEijwcqO2O1hurIgmrOEWDTlUx+dbeB64wwTgoqiCTveapPEGsTNCz+mH/zZXrtowHjxawXpMXBAQLnplMFnG0okRwKsgycXHODcXfd1fpVte1/7+tfSOd+Iqu7JDNZvmL80g9048EMpPTypE2UGNOojcUuNoqrimoAPPXBjjz36TeGKX3z4MFxVzfkke9tnsDrdfvtfdZ9ngPtVGuOxx56gERmrcFJaDqN1vOAf6VTplKTUMKLdPq2kTv8U0KgKBAgRDdhK901rbQ8bXztd8knNdvq3LyWdcYLp3lOEkGu+0jMlXNbCNzXPK8TdmLAQJqLdfTDNIuhXXH0tjIKkQSrOkP0kB/F2a4zRJja7G2+6gavjfhAVp1bQTDj+BAeeErcBMzzx2CN0WN/kAtTTWXg+A2G75Uhp661TzqV6DmmNlzEqgPMzp85nGZ3Mt0APvQ811nBHLJssJshYkm+vsXMeTXy7GmeexeVKQFXhDRYhiAsls1ZVp1Y8fFlpv8JG4tzbSNppjEjbXHzjjn6PabTDVXN79S23dLe8/o057Murwr/8hS91X0dKADjwkgfSyqkR289y1NZFp2NT54g1aOnSlnRONjO/wXnGxFBZMRDM5xgOnEl4tlY6GspsdNG2imU+0kxxLrgYdZXXqM/l3tEw7GxHaMnsioJrTCnuJR3HiS5dzOIA3t/OZT3vec97une8850RHEpTjXUN+NrAYGZqYFXv0CR4UX9otoFYvS0R/8FU3aMwo2CLBJ0INaJrDl276NHrn+TSywcfvD8HBc1yaJINbwHusEiBYFrrUnptiMBq7eUkfiUh1R0GhxmH337unXqYpL21Bkhl8UxjWYGRHPZmxpLOLZ3xq20oHKLI+kpycSwgXg6zsfgA498ZpNMsLTSOZNpaPtvtZ5ncDO1w0803dz/0jh+BkZxq4HQ4BGRKABQPizrDkRauAnnqyUcYhxKHIxbd5jPOn8dzaESBW0hThLm6gnGMMaC04jjFRdql9rNoAPxeQP1XQzgAYzuvaTp3+tsuqljC70Zdz1H1BALrJ61rlPJwqBXGpiss7XOs6Dk32fQMjFoQX3n9jazvvJpT2V7BdeVHmZo6132V8dM3v/EADMPYEkZcgxFXWIChaipRZy0sHYpleEGQR4psakSKExOyYft1AQIRaWjxG00Hu0IStxTk6Y58saiTHqWdjEH1k4bo/PvgxHlxP9XeYZw+YY3bpMO+U7bDlCjiQ+dK+2RdMJ3WMbSen/rpn+5+jvNdxbnXOciQ0q7Ma3sojKrGwmvtgZdOspgRERXmdKxqT0xMvu3AjZYK+vBOea+XvvPOu7r3cvThF7/wxWTuHNmBA4eJzPgGK6qZ2uiylrLEzPgPnqqnNK/vvgMAG9pK4cJsgam+269w9rXuvRoWeBImfmyI0AwxFphjE9FeZLpBj+0u9XFWdaxu0QjMVz315BPMyc123/u2H4wxhdnvSCxXuqieTrOJ+OhV1zAHeZxpnju75YXTrPvkHnLo1c5sA6KcxjJrY0PhlA1j0jLu7tDDxeQy+hRlSh9ry3I7HSBSNEwL47nYXGnr+M3DnIR3lm+NLNZFS6Lbimw7r/p26ZsEfo5pDm+FuvbaG7q3vf0d3XEY0fXAtvejjz6erWsnT2CImuY6cAjRMayKjd2v7d7u+wBqxo+sfnGqBOON6m/hWNKUIYN0/HpcU7Yx/EuHCYxhODoLp2LGGFM5FaYriUgOZNGGNWbznaU14fNP+GwX6gkcDgWUkGoUiJ4w5QLrhP+fP/gDZgue7P7pL/xCd8trXh1NQ9jKAb8NRSPoo9RPiBkV4GwAQc1lxZBGuGiSaFQZM5pJOBZkO3n9Z3/2592/+lf/C4PXe6I32yuovogsB6abrq0iU9/Lz69CfhF6A6ovPKDYIABH5SpuCzPdiGtJR7wu9dokYwv3e3cDNb8gwdbEZXDdEvWwibbKz15T/b/g0l/qc9DvomitnIapTsdMjb/d0VkMJQuMtQ6zkHyeuUQlEC0YBmlWu6tZqHz06FXdaYxfJ7GItvGg13Ln/BzHojAJiQCXklGdXZvrBmfX87qYwrZSNTVP40gsEr7DhZxGwLhQOF0AbT3skGw/XgpG1F53WHjq+ikm7V3u94Y33dp939t/qLv+ppujtnoY85e+9CVM/bczj+gqoumMQW0/mVzqVLqJR4ccIUIIzuvMVdtEM6WmvVWviyZEuNisf75HFaQDsvNRirhowrQy5yTjUmnSnFp626cRvFLN96F2Y/4v3JEU9FmZcj1l8GGA84hW0w6ZWhOvNKxhfCX6k0881n2NtdXzLJq/+eabgdS41S7mmnR2sORpXoPyLMI8U5bvxibt44/dhwFNwkFTooE/+h8/1v3a//FrudbaXeq5mYkeL90hjbvFJQqqCwWo0pYehL8iXqskEYskEbnbtcpU1Q3Vh7oPnI098jnwH32xY7C3b5XzOdoohidjMjKsqRv6Nx29IgxztWEL4dRgJG9jBEbCHT87XTPvhTr6sztjWinYrXYH2Wc5A/G84qqj3Vvf/MbuumuuRu1DBaURJDZxpmblUf+nTp3kxLNHGE8+1j39radCbE4FeZT+LIaUTXZ5kCiS0ikC5/8kXBlctUh8OdYM0SM9Z1Bzc4Mxaqg7XSzDxQuO+53qUIPxvpDnnv0WPbjbr1BZkZjHr76mu+HmW7o3veXWSJ8TdBIPP/Jw9xDTMqdZCZSjLGBujY5pFxhPBmFmFSnhuBS8gwl7d1e2OC+5nos4lJrSgTRQY6d657N3Sg7x7Z8KHeyNddYOnzzhPp+eNaSLoAhjyiBinjGjY3yeNrV4eLGO4kXxwO3OIqyCqtxoTCqIoUmVmroBdoyaHrq8H3r4Z//dP+t+5h//DHDXyh3pX76sjsbc+Ui9wBxqtx011U7d6gR4eOihB7++baXdyPu7v/fB7qMf/nDw5kSoS9TM0MSKafV48zEX3+3NhkwnkI0BJZT2bvxLO1O9FGYcZbLdzChjtr/ReENm3I16UHUZZhT6lo+W06MwpOM4V7+M+be51B3aP9MdYqA/AYMe2T/V3XD9K7u3fu/3xfJmzy7BOJ5wDs+Tv1XnFjic6onHH+seefQRblXmanMbEGbCGA0jeAI4DCozIxWFXWknMzo4ELuQLvKHuU0MPE6LOCco3h1fLrEET9wqcb0Jy8l7tZh5YN9/4Ajzhq/ubnrVq2nD8e5x5kw9nlE4PLKx5kA93VubgAQFExJPptHSaD7rqFV0iYQDC9Ybz1Jd5xQBz9eJetY3ahlfhLbowbQyr52JZ/zIW45DPbby2FXHuh/7iR9nk/Abu//w0Y+ywudrEDprcOmQXMlim5pW9+0zo52kdODfxU5fFzcMtkzxLYNGI/FdnCCkcpQn79549ou/+IsZS8Ye0MMZdRVcmNYcxEeWjUIUTs85ZrSTtbPG+Dbdfe5zn+t++72/2d11190xc7s1R6QDbnop0uMsXEEMspOpflVAVaiQpO9oBXczSqXZGwGV9gq/wGALmu+oGy1n9D2tPRrx23rHKALRLFg0Y0fPsBlnF/wmF5curpeEQKHsTp5f687d93B3ltOdXnndtczVXc+EPONtMQrDTjG353SJhyJfxVjy5lfd0j2GpFxYPMdG2RPM4bLvEFXyAluAIvGpa4gAppyA4VbBgdZS6+m00xhttUzjeqixZ5dOYiF1Yb6nBpjOxfo33XxDdxAV+iArh8aRvHYG9zBfeJrFA88+w3I3GM/VQLPsn3S5Ww6hQqLbSfEJK8mKtGyIsCcq6MIOwIUKGbtaQ3BTrSuSbCuJ3jxU/5GG5GUHP+6eNJxGJZcVvu51r+3+5f/8Lxl3f382Az/66GPdnRiOSipCuGGcyntnyyebF/mTmlw2jcwjzHZ5TVOS+qs9qIP1AbdOJ2nZXWbe999/4APpCH/mZ/5xhg2Gy4xJE14hOyqf+osbaTkl0LmAS6Jv/uq//Tf/Bsn4VM6nVPI5TrHasfRQqMqICaX/St4jOlm1nwqpryG6JJhRd9E3gTti7PgYTdm/BwhhuZghR2O38KbWGFYQWpfRmFV+i2/I6HuLqV+lc/0qFk17MqSX60GdHM9Et50WhOcaT89Oe/7kKVTD57rnWYK2BnPM0nvun2dHBBLSc3Mc00mo7phXZbzm+CvYG3mouxoG9SQ0peABwlRplrCAbsJsMqnSbgNp544NVVC/JW3Hirk+DmmlauvRE9fdcFN3I5P2+7EIuzXtFAabJ596orv//vu6p2HCM0hnraTo4MCMuqmaSF1VFW15rYzax1UbfdcPsgnDeoeIpwTEABH/ahOHLI0AY+SznlCaKpvaQRE3REk8x15uPfvlX/4X3X/zcz9nScnv06yCuZfOQqu+rrWJpdsUMr2up+f6GPk1Tv0JU3sfPtuNXCNJeDXT+ovEFwfgXtfKzwf0E3oAG2ouJhEO99W6nE5N0wUCufOE+kW7AQdAQnIx2PDku+H483/y9373A9lW4sbLFQbrUUkBwEalylGdzCClUaKqqa7GiHnd44dCLDfO+EPq3408Q2jnEeeHZV/a2ZgvxBXChjGrGH75X8SS1x6x+Nnx0MqG7U6rn//8LzKXMHKA7W7+ldezmmWme+aps1hS50N0qi4u7B6bQ+UEl986ucjfXRD/8931113dXcN48rprX4FUcFWMy8+YSmKHhBLr1XPcXoXqu8iWJ6cMVGll5lPsrJgkvjdiqaHYTmovUDYdAw2JpHVZnQdVOWWiud36aEV98IH7uPD0DIdQLdBRlEGBF/Y9YmjiWythTo+j0TRQWUdnEVF6fc13Wt5GtbF4rkErSuKGp2pvcTfEd70Rn1zEWXO+l6SlbIxWszDczTfdFAZzQYVGrptvvAG8OmajOFUzO4yRPFpel3pKIg2mijMK2BCWnemH/mnvAR2YtvFEpVBix25Ckgxxkj0dF0as3/2d3w2k/+XP/FdMTyBZGW7YjYk61Wwt3jF+2Unh57s0Pan1z9UEWQqkBYyIMoOqSVohvyKzOd/aX/Pb62k+w1R7xdjb76Wk2ZlTI5DGcC1U/9ASHq2UPNtHH7Glb+kuehJfC6bboE5jjHnNqzmdjL9nnnqm22Kb0SYm6zkMJO6Lm8Eq6OT8OmtdH3z0adZ0fotx5H5OKL8qp5Rfd8ONMQjNuKBeIQCTuS55fJzT4WgEr54b57YqrxVQinpUhqfPecCVVlFPAlAlVV2ykd2xf55tUq5jPcdp5S7fWmNqxIn6bJFSQim5t2DGtHNNUdW5ERAFRO/mXo8WyeR8kUMxHchTWc00Fs+6KCZUCOANiRBOdNH6DkMUVxCnxe0xCsMoVRUuEqlTKq5CspO6DvXeBfAaDnO4cfpf8/RlZwff5/YdeITo+3wKfmkIdOOAE682htTfDiUhMhNtna6LSA4P3vf+90Vl/dmf/dmM/avmdlYOZ8R9pZUZzdO0kw6OPfBIztyioWVCCbYq7Usg0aMcmCM73nchtoX3T3vI1gZZva5HGuzy6XZl85I+dzNhy0Qms+EjAUfASK+dOreYl3+mgUCm+Z1AarllzHs4jtGj33/v19ioy4lxWF7dEWK1tRJ68LHzf471TpxlIcDpB1i7+kB3zXWvZDppJkvnbrj+RlbJsPAb49A085AO8KFQDjdmPhOp5wKANea41JwcGy47ReF6Vxp/BSm1wnamVY/wwIATWUSdJlgYMAnDOlfpdIy7CrYZ746hljL5EfgyCU/bZEqHMiWYMIAdszgTN/zAxqjGMD75BX3ES5jB/MWPt1hERTRu0/RCM2h/fWv86VhL6S4xOv0S6cDTudmrj3OLFvjyIK5iAEugfJO/JGf6vdwLy7E66GEejcb+//LeNNrO67zvewFczBNJAAQxUATBWRxEarC0XJkUNViiLNe149iN3ayVpO1adpW6H9MPXfnapElWVpuVfvFKI0tLsdwmtiTXshXZsiiJkiiRGiiS4oR5JgECIGbgAujv999nn/Pec8+5A3AvcKnue9/zTvvd+9nPtKdnPzvNVJJ1RkKbVGtM7bfP0idXIB3R/m2a38swFTUn0RB8IG9p+HPvc+9GbPKYYJlYlSAFrRIz+COan6c65aqHdpMYG8bWKL33FfBCONPtvRubwuzfFYGkvGqmCkYPx9MCwD61GvEYHgCcl3vs0Q81v/zxTzTf+vbXmzfZHm3l8tVYuWCq5sALNZ+jZqPUmvMQzIvWUEjVtt0HER6dBl9ubnjltQjl6pWM1jKtZL9PnBWZ0F/s6RDZ5qPWUSdZo6j7DA9hcVrBJVfzMOGTrhZwlKVpmt/5DJUchg9z67ZfGpMBQz9c02NUyoMUBNKyQXT7tzEEJz3tcR3okdGkYTyj5Ru4oiN8ZbAPYcsIIqkp2Pz1i1FQDogyL1mErWr3w7T1GO/A00kGtVQM0aLAG000LSrVyMmx3rTOlQlajwZe+n3BaZEBy1aEr0av9w6OzcdH0jkspf74C/8h00q/+/d+t7sW1Pji1y5KVFVao9SMNnfmqzI51GiZRiHTitxouZpbgElS3SftCxOW2QXKvxrGCml9OnvnifKrKE2cDn2Ed9qBT/I556yGII0nn/zb5pOffKL58MeeYIT6W81xTMmWzEcwEIiFTAVFrYU5+ZLml4uVR9CiNFBhygvNURj9+Lm3mn2H6Y/SzLTp5qCHvTd9tSrMITg5a8isoLo1ANVoJHbhQhmf5qW452VqI4iOTU6AVXHkIwtLFBUwOcgZPLAvaj7wAI8WwQjWovRqeEb/kL6PO0Rb6wKEqixJmb3hgnPRhMuMkppcjOm5T/rC2WE4skWxAz81Q771ewS38EuB2zJau+gUWhjTBPTD5NXJkNvpBSG+mmAL0bylIleUYRjfOE0B4Jm60YD/j//4P2QZ4R/8wf+Usqff3imGJ6d5xCkYoZYQKxzz0eJmUqxMeGZVilZSQ3IJKGLEY3xQEAuyeJdLn3BxHYJIqkfNvkDTg0ktXI+U2XK3jvrdsLPMU+MbR2NsR6G/+KUv4cbijeaOO+8CD+CNwRTdMjoJ70qKi2hDOkZZynQB4TgDjs5Tm11kAOYSNcF5J+2pxS7w7CwCfJY0Rh1oQeDmLWUx8hIOli9dwirmIptzjHKOEyjiX2baxFHRefRXrQnnu40A6y+ZR0G6OHjnCo+cyacsq0KoEXidJmtregnGeIvVKG/iSc7mqLA7B+icqAbgmWeEbWRt+5ROg3jIgOXgRcjujw0x/qIQiri1cSYDem+ajkZbY/uVg1M3YjyxZs0adRLJuMyLrRWofRdQo7sg/fqEsbwv7IOCCqTMacsXRZn8xV9+pfn2U09h1AFtWwNf8oh48FyGqzopqicvoxGTB8LpSoxe4CObItGivaf1KtYUhQr88mfTgqBQRFPUiNf4bP5BGuDU9r2cVFijwFebR9MFzfRSVhBmPhppi4I/QyBdxXHDDatxuoW7Ed4tp9mp6XPc8uv+gSObnvKBi4Htr1kT6n7EJVbwZmjk4A+fK/rgUaIBOYxZ8Mo1eLb+Ks9Vlx4yq31D4bIvY73ndzB+qiNeKyBOpnNvw0gFfIHm1Zmzp5p3PfhAVim8+MKLNLEXYxKHdwZZwfQ46V6y8oEg5VHnQrjq0Xkj8F3cV1oQS5CT5ije3M4zpyrjZV6Od1r/aHzgyHSG/o2bDziVhCf8TfqJaewOkBN+cfUvLXcCMmJzXfM+94pZOH9xujJ/8idfaN73nvdkyZ3N1OrakWIDIlTLcia0TQgYIpfmi+n2F9r7MF/r13mkzCWNi13gEvm+7wpCeXxNfyvMNVMVhYMEsY209g826tupn4N8kFKEJPhMOXU+5YqWo0eO0lTFvcXJMxhju2xptLn/wQfLYM/addQ2J+MMKmvjwJE1VKwiqeXmU6PNp8/InAcHQo7w6h5QAjoo4hFiQrN0uvieDgdCp4KAEbizMVnEpzzRPwuVM1MmTuqXQRj7fZn3VNFSI/23/+AfNb/3e/8Dc85rGIktNbr90WJJYjqWk5qMhDSBcxpGL+pao+SA+azZxEnBj+nbCiktrJJAoYjX4t5a5LhKi+RjxICCiLG6K1psztvET9ad/JNIvs73psH/2KMbZ5ggmlb76H7QvWin2X0YwR6Wprix3OCL80UHRlGKru91vvTZZ37QPMnibI3wDWKhK8BkRiMKGpCBTQ4bCUq0JCRZ4yd4Z7PEQkdLlcdX/HulzD/VDGsBPRdCSaxy1DSCNG4cxct8HAxkyHO+GxbasKt9NW2yZrXBEBtDmEd82ayy6S9RRkGqDKfr/L04tFp3803NhvXrm0fe9VAY9a/YykCP4faTTGPhCMRSMZJOulpShERj/cK1BBbmWs7SDBTikFdCIawOLtQy8Qo4rC/VyI5u23y2NnYvSLcEP7DvUPPBRx9tPvGJJ5p/8j//k+anL/yUFi5uKDSJtJksb8gFFjTBMovfqsyK2KcmTm1mbiU4aqpwijthHkGpkHte+uuXpzHX88qVLsZZxYjy+nXriMUzcCGcUQjE9U8e9QzqhwSpYKjwlrver+9rHJ8ar0f3Yirn87HBms7vNAdt80I7VuiG4rOU0k/hdEeykxdOsrfol5tf+qUPMlW1OjyhIqS4pAUvitAKlFceg0Ib7EHvr+WzyWpZ58naQWZVYNrIc9BFQZT5FagwSnAhYqZXWkUgjALyZKTCNEKgwEhkiQfX8O6HLE1bAHfqCcA1g7//+78fF/T/x//+r9NvWoYAuE/iQlzu10E0+1KpaWCYNClJz9HK0Ms8u4VVZOzLddbJ8cYmb2qlwMhb8OC9AmF/Bh0RHDhS+26mZ/4TtsnPoMH1dHcMQwGnQGzZ2kK0uVuEoOSp14CqEATBvDMY0bkuT4oQxqMBzyFFN0SJyYl86Ty3qVaBs4a8CZcmWVaWApI6iq7akyLSfFVw63cqgbFBaAz5uFzmtz5vv2s/a0W9qkuVYVnBIj+JN3fyev75F7O/6Ac+8P4oIHlH2lrz050pRA3QbUxdFSCz+3FvsADmhPH6DwtfDyGxhMZR6KyhFM433zzSHDhwIIMT3nsYFHRrjJy9HnrYSkD3cbSFV+VW0zIvjziJchCH5kqMupdghM0gyQvUPv/m3/zr5j3vfU/z6U//AcKB1zfmDA0Oj5fV4AX+yzQDS/OnsFdpokJIiKiwCL0jlq45NL+MvDpSLpGFEw3sWeZW1zjZriJyEOctPMU99ODDGLa/G+PsH6ep6JpEa2drJqIniEOZvt7LO1ZMOcR556/ihOxK4APzVPg0i4t8+AzgPITjhBZHCiYR1YnCpYcDcQtG8303Y/MJ3i1LOWJqRzOfBDqZVsjqfecx0Bq3Krr6dKbPkauOHrAM51Cw4kODjJdfeYX8KRc0CHXlTfhE6P9/ExSS0jQbje3gvffe23zta18LI9hEVGhlqDDLlLBSFNk8+mCFUQv2JbTN+SgJEC5h7Jv53JHJRYtdgTHCaOGNzb59e5s//MM/bP7xp//HuL34whe+gEHAsdimnkZgF+NZoeuNjDStotQblZkUUMtlzeV1Bt2MBuPbV1MI+4PsmW+ARwVgnLvvuZum8nFM7w4xj3gWFx4sfoZ5TDfxu4l4ZzO8nLu8z7M8smmuBkio3RrxAvNxikB2cBxhJL5vszt1t2Vi35FtDtzKQA6mucfkCV/ZoTLtenCZa1PoKUGfFiIaz++FrZxzwzcF/DZu2u9LrJn6jWBCM/22qnC+yTZ2H//4x1I+N0JKaVRUM5XhXExH7eMhAyRwLYMuoWb66Ec/2vzzf/bP8GfyawgB+x/yLobxRBRhtVab8IwQaAzsYIgDNjEWh7mtmZzKkNElhJSvf+ZvVabFxkm0pAL05Df+hgXdXwuxPvHJX2m2br0dDXoshuKaxKXvB8WqtpV9dX2Zphk1lfOD/sWPDG1Ja59YtMCAwQHlzxkoVB+FdTnznTXuww+/p7nr7nub7+HVwS34Vq1elW3RhdugCAQ3fhjWIb1OrdZJrPC+Ra2CmLg+sPjSgIE+a+XAQHTipTzc66FAsz9N9+qYhN/cwjYHOuVSI6hcgktBMFGhCvwFD6V/bKbJuBOn4IybUn7p0CmTaQQnnWdXcm26Uw2OHegyxW0Nf/r8c80rr74SvtSqStzKPz/XwlgRJQM4eupq+CUMl2sRs3fPzjSPHnrowRDaOTXpmKaSiJvKARLT5+Y7WUA6y0xhVO4Vimxp7YAFjJi+mmeeu1o/UxsIjCsxPve5P2p2bt/RfPjxDzf/3X//e83mzbelhqo7EgMQ/+YnExb44iqRe9MtEDAI58BMmL6UPnGtna11OoIhPsz7LUYw1+FW8nd+93eaD7z//dl7wnxcLVIHpsRHyZM0SilLwpP9ChLBk4LYlQHuhcklSMIk6At5b7NcgfIdos5HI4FtuSOPCJ3Cku9MSBwnZVMffFThKnm3a0A+uQ5BeGL6R4GPs2b0O9/+btc/kfi1FUU3gsLIST+nIdMqNgGsHTicv8oWYAiBG37ehNMlvYMrjLUGFXHWLIOOCFUESgYrgqezY+cYM4nOtYNDcYBsnh3GkZFkdCeE7a+Zn4bmGbig33OY5VYv0rnXB9HtW29r/sE//EfZpNR9Ku1ZQC9CMdCgUk06UDDpW8YaNPRu1y4yfPL2a+AJs6MM1MjCqSHznXfeFd+3L77A8h8WT6scUocx+CPYAmANLeMXR701t0HnjnCkVgYuzgbTKQIEHMFJ5xnXCtdR/PC474jvohCJvQL3nyswqrcVIdxpVVRmzWekmHxKP7A0Z82vg/e8M05AuO4/guEou12i737vO/H2YCspVk2BOiD+HEuj5YMatbZKEw9Nu2Xr1tRWq2mSrWWFuc3K1DAQXQGKTaX9mRyFoWWIIlwyVmFuGVzye98+uB0XxHIZ6WSwJQJJE9M5PwRQny+vvLa9+bf/9v9MJ/+BB+9vfv03f531j7gJxEX/CH1Om782Ty9iJFBrERlNmFxXmbWV3EduyavC2wNExrRZOD/eyx/BE4GCaB/xr1k/qONeC6GmJmK+L/kg/R0WSXlTE/dS9Sr45bmDRDlISHxUxRBF14E1X5K+cup73b1otXSc/IUt/WDKeQvTP671zE7DiW+daaoA08eyCmWBzRaIysl4cyNIB4kyn/l8z3pl2L1nd/P0008HZrszGc9Ix58YEok3k0IfZhQx0zxElBr8Wh+hmUyi0JC/trhup/bOBx7MSgdX6zuEDgfSdJOQokE4qd1yjIVZRtO2sH0g1d17uCn9IQXC1RD9R2n2OSzv/g7aXmLWhimaArka57g/w8fqZ/7o3/FutHn/LzzSfOKJXyYO28edOc6InP0qNruBUS1PrbkjCNKvEyoVZQIdaZFYERbO4l9rlwUso/oFmqabN29muuXZ5pvffjIeyu0jy8huFIPqSYoKgMmH5uDSFkaamUyN2BdygGkEXLlBjAM77aNCJbN5CFNogtApQF7btD5Bk/lNvNKbpTlfwpBgOVZMq2imjhBPNxvMovMuRntFAQpUYkM+0p3LIeUWRv5V314+Re14+PAbtKg0R6SZWgowtzTJTCJVcklH/jNAIivcyhrCe+6+G8uYU7F/vPeeu9KeH2FlxXyMrYuikfk86n05+zDMKEMOPIw3vATCEYZTk3eYMXatdOBPnjyBGeni5qmnvt186UtfplZY3fzar/1Xzcef+FTcY1xgaZYCYnPYPl/1kZPCtbKU8A4qaUtqc9jarSpDgfN+fXyjrqfcl5v/zDYNZ8CFqyQqT9ucrgxkORW0zPl18mkXMTi2WPXjFiwTXpKu8Nj8PM4qlP1793MLXkUQzOm6Rr13y6R1VLeoiGCxm/TYu+7jOXkhP4lXPTi8+uqrzfee/l5oqe9a+bTHPDHAbaN5bHlM6GpCZeyrSWM631YidcibgsqIt966qVmLEbKmXGswSL7hxtVp2qmd0txJOemn5Ol0cpxGXAgSfHJ2NM3OvUuTXBZlP+KLX/qz5oe4AVy/YUPzm7/5d3Gz/yDvT0NEbFztk1obA2emT/heAtdg7WZZdPi0HEsWnYsZjGv5NL+7fevW5vbbtzY7dmzHN+73Ygd6BnxYo9s0Nyj4oRnnCCYv64AOLxIjETtXPQjq0/Fn07FpGjtc0pUe9t3P4M18F35vFEQVpmmpcHRSpTIwfvr6vJdpr44Tx8N1TZ9YfmjjIN53v/OduNC0i8SkPwQCkoogz+0gcq61ELXzv6Lr/jJQJDd10azKgZa7774H7266obSvhU9Q+2xpI/AThWSuIIdDppgKk42HU2EDryJ5zGFzuRxj0iaujKo9qMtuXDT8+c9/rtm/f38GmT7xxCebtZiHuVhViKzxFLqeEBa62WRVUN0Ax116vc6gk7UQQdePOoG65557sfzZmP0z38Ldv9+ZnrQ2TYXZpvvY0vOcd74vuSXJq/rJABMpOHq7e/cOmuNsOBQ84HUPCmjHqVK0FVEC+VNNXhlNrgrUGflYyKWHo8cqmZdffYX9SzA9ZASb/U3QTmkDgGDKK5Jl0q4AzhTWZ6QoU0tEkGWulEMmszxoIuVsJU6aHn7o4TSDMrJKLeO6Q+gfIREBV0Nq8aaFh7WSza+xgug78uG582yxHxVYayJNaWC+DBjZbwOg117b1nz5z74YoXrfe3+hefhdjzDIchTDgVOp1R3Ice5KhartpoKS/JjGce4uQgg8MncRn8tMZ7xFP3Fj8yAG624t/r3vfjc1pYNDzplm8IQ0SzkUAL/nROgKIWmKp9iYwliWN+9S9qJoyheDf01OWNOsNS2gs3WwY+eO7Gspk9q3dyuEzXjW0/0as7eIJDU+nsb9c6LFULCWy7fHD2CLKxW9vpPcWOeZZ3+QhePUjDAqEfgthQE5ImPYEXVvzE70uYiB1DxhEhkDoYhRL3aorITfzN7tm3F2pCsMm0ey6Un6S9YBUUDBxNUXrjAwuLQP1HdUZuzwUweZJU+ZFD5k12M3bF3YfP1vv44LzR82Gxloeeyxx7Pd3FE8vMnAmf9LCeBXy6mQQ0/LbxPPppCESmuHdO0HqoHtM2+g+fvT555Lv0U47LNEOFQECIZtAr8Tfwr47IRwZjAuLfZjnuj+kbWWNt9NmzawcAVoYFKVWOG/HjxXozhnp0xTS1Uaof3A+TxWczzb7Ny5y7E/CKkA8mew9oh1BIgYdBZRHnM1RKA68Gm0bO0gwWRcV5ffduutmcpw2Y/WEDbbTjBwsojBG5cFwc0RSpn9akJhYvt144WxajJhNZSaq+TXeZI+5CVGQk+w2emf//mXcHJ0unmA2uyxDz2OkNnvKzWhzFmExnwUHn2pFgOHLBMjroRXWO2fraQPefvtt2OKxTYODNwc2n8oZll+F3gAQ+/mKmMhCmxFswTWYT9+a9yphlp2cWGt7frPAwfdhHYPShKjAw34OWxK30zz3D61xgyWVaUjXXtpTDXX6xdPWNvwit9s1Ue/cc++fVlAYDskyCjNGO8mFrRaY7bx3s7EFK53SDPAwgOIGpWGeK5t9txKrbgSRpQFlrOl3RE8ab9x6BBGyawdJEjsIhwT4yGRZ+nHlRbWjifwo6PPnOd+/FzzfUzV1t98S/PBDz6GMG1lwAO/qSoO/jLd0hEmBS/08L4DXwZ0mFu1BbCCUbz7H3iAvuiB+O2xWWpQjPwi2wyQRi9UASMvEozgo2BsmpZDdX4FQdilkUJPeR1FPoVS3MX8m8/lLyf7V2Cfqlfx9GE72cw1fruC0gfXGrk7juFAjjslz7+Exsw6OWtNJpahYcxyU2OSS/+5MCqEswnEkXVxaCrPU60xQwQJcYXHpIWHkHbDUis50QrBFzBlsXL1CjZ5ua9MCbAP+0KcBr155HV2mToeJuQDvuNDkJNmRJhPhp/dYHfR+ciyJTc9I5ono7hSPIuX8ovsnXjizKXmy3/+VWqNA2xd/s7mQ49/lMLVpiTCB93crt0aQyVjv8MVHxfYamCUEdLc08/iNXavW5p1jFD+5Ec/ZA3jATzTucs0XsipDS8TwcPhSifibTHVGp5EQEJbSAtOKg3FV3DWQVW9H3g2XQ9g1dVLkiXPS3iwexXHxdqp2ppxWzkV5k033DiGBlEzfG/epV9eFJD31zJEFqBbPQ/Ku13+iiuVox4FdXXpcj/NM/fs2hV8FKEAmepIp3zbR9WL7YwGPZMHrnUwy/GHZCwC5NkYNtEkoEy4Zcs7wpwOsMhwMplNvroDUpb/XOuCdPKTqPYZc9Cs9mxTRqXy3AsvNH/51a+mz/eL7AW5ZcsWhKiMjEpkhYZTaBnjdZrfNsUvsKbO5qlWHu4wdt+994QRnnzymxm11SQOyQUL1lSFiJXZiwD2kCGr125KZax67sWa/MpvDC5oDyNTVi4zIPTyyy/SImA5FU0Da3L3iNzMbsGxrc3cZ3/6Ja3K9DXt/lizcV/zrOep5hEO1d4WnMc+l1aGiwa6qk7CX2mwCZGROJB1TYMw9x0SN0yU517q6h4nTJxX4TL/RnYLjuPcMMS8aOFTNPlSixLdr4OLpMPNNQwRRnBpEDz7ufabXM2gvehX6eO5nfXWrVubT/3qr0UwhVhLoTA1MDuXqOa1iecqEjWwOMrGMlgavYsVGnv27m2exbVklBHZzbto+8daFXYgbqiYc4ElAPX9XIkQ9iWRW3MzLV2CjOBvZ9fuvWyXdzg1XgyriZWBtsAjZIGum1S33BFoUiPetQi1/PU8nTxVH4XM1u6lYSD/dYVxWGKSY1hNWRIt0j3s+9l4XhFQNdL4cxpryVrSuJ+D6+Ns7qxivwtYFqIV5nPRp7VPDaWGgEGpNcfVAn1NsfpN/7nCN9G5/5v2fRFK5cK+o57Dz6UZuRch+spffAWhmdd86EOPNw8+8BADOzg1pjxObThXp/mb9xEqGdP/Tr/w4Xe9Kx4Gnv7+D1g2dpJRSkeTGRihXOEKU5Y7JOxshsDVERpH82FEFbrb1B049Ebz6rZtGaxxukWv7OsYwCm0AE76UZ0vuxBWPHcfzPELBbFMISldBfe23rLSX9ini3/jz6Pj3RFxk5gbQeajhlbLOzhgB5meRXjNrQz0xZmRVZpnLk8qi2lZwYDwRUsntggq35tGYVSK12aiSUpbGWTYuSqQMH9fWkW7W2PApDTXtJg5c+50piq+9/2nm+d/9nw2KXqI+VLJ6QRyhM5yW8sAp7s2ycDWNrrUWEOt+Mi738tOxUeaH3z/uzQRMYQAFzZhsw4yxStsXnnBhk5WmXAhvFUgBsHcX86+InVvjSfMl4RTHHeYMWyJwjzHHiG7Geb3eVEs8/CydxPCSdwK2Dhx7CY/5QvhqDS4kvMgHEw58w6nlf1sVK32z60ZRQ7ILmSYenK0h9IkmsYXMxa1W2PBbOOvEaoyPwODWjyFDFLTH1rMvF0VugCDitLdgzKWFQ887MdDlA4/Y/IBZ/3M139/tYWtAulZLXoKh1UC6qT9//Mf/+/Ynb4Ht3/a2Np3NP8e7ABM2R0Zdacsr50i2LRpU/PiSy9kuZTvbLpSMHywSv8iyFOBu+BkLA6m8l07TvrFNql5GLgjHBhMc3PgwME0tS2vtaMrN+wTA2w7iTHXVyccY5K6JjexPLKwhKI8qRktsDXFdIIft4eap/PtVceFaFBmgqMQTOZyLqrEpWbkmwzb80zmvqhZGVHVvo5heE2xukHiOuIXIvfl57OJjm4iU7goQjc4Ynmn0qMsAZLlN9Rm33/6+/FYvuW2Lc2jjz6WCX7L4VxhgrBTTps+EDcmgA/QpF2zdm3z/R88k8EC3X7YrLXcna+6QIiHMoZQEVLP3ShXfWHZwkfAV7gPnMKOi6jJt23bjokiPoAgsz59tB9ehtvGMogzOOua3uC3c+9paNsZMHME39F/itsJM4/vmnL3bIYThsne87FgTnbUPMqcGAxJU9U5Ma1SRIIrFRzo0M5zF0PKhszVec7dAAblec23gum5Xnc+m9ZJgR42ed1jrpKD8TQkt/+oW8O/+quvYFR+qnn4kYexqLk1zKtHNQVyZATiYtKmJzWN4fXj+i76i8fwrfPjZ3+U2tL0U2YZwZJxjuLh7LWaSfFweZTNuBo6/FNvh54nUlb1XT/2FEZsBHGQdQxFUQamNJxfiiC6JbsDU0F4YB2btVgK/GMfz+pdLYfn/qbu1GAptBXIDOAkIdrj0+GqANGZZwSKMQUe867G6ZyzBpBr5yQZkRh/wHDZh2BMihPfVAExVsriA6/LKRcKpct/XGGtCwdbAjKtUxqnWS2wiPJbChlNPnTIqt3oy4oB0+gci2jaLeZYaG3LkTLzrp5r1hOdjWvw5CqMNsO3vytCWWxG/ebkydMZjHqFKYBvfOOvm3e8YzP7e3yMwQ/dd5wkPZZLEW+E8rnfhaOx99x3b+xRv/PUk81LL7EBKc11t5Gbj7NkZ5Lnz8PFf2dGOf1rn6G8LJtlZwqTdMGRSg3BbeOmDeuVXqMXA4emfNoLH8db3VssqXIU1f6yk/7ON2qPqgcFSVyVQhQu3/dod6VQTP+7qjDruZ2CtBpG08Inxu51DaIcw7V8eC2Cucj0HXkZl2V9P+7FRA/8aAD4Mk+WJkFM83TzFvuMCyFwXUrk3M7+vftAms056weoOgy4FgxDsmzFMLnSDBt2bkeeiHA1nt2C1GBCSdqWx9px2/bXmg99+MPNI4+8O1tZO9Cho11N5iyKq1Tu2LqV80jzraeeyviADnWjyQfgLfB2kGDNKGyzHczHdprCKGxH2PPy0MEDUVJuh7CYUVab50KC6uO3xcQ+Q1sUKAu8hdknv77acvXn059e+337nTg21LPXjtugWEpBLMygw4iTBb8bWz8O/0IwBvH7dNIYmjqFtDz2rzL6RonkJfuHmhzpNHgeOz+JBJnxDVZZv/H6GxB6aWcgAYuXoYlP/UUYmjwmO5uidLH5VWASC9ABoIXPcw2+14OYVNK3qnNwu3fvbr71zSdphi7F9d8T2dfRprfWNNb8WuGsXrUSN4z3NPv3HWxe+tlLMDv7BML06U+SfAamWvnIBIUjas6zew6OyNPKsTAkNTxLyI5RO6pQz9Ak11TRTXBEls11m9dt/Pht9TZXn4evKdd0zrNb0rGpW1ZpqJKtMEYYjaYwDTp67FASg47pbHqWcO3g7TBha8cbdO13InUmgoM1ul+3xgvxYMx1N69lDd/dJF8ZfwHa9yCOkN6kL6kVSjQT7wepisFQGbOiYcx5CkwwOMXxQmi8KpRVuCkO84pO7l/C4v8ZXDccxg/s/SxAfqAzHWBT0g8vN5s3bWJHrDuan/zkR0z274oBhIM9CuGgol5LQRREg7WdRvwOKGmOd/rcWWxn95WmKEyhV7+VK1eGccV4P4W8zwENr9vAYkoyvR9bONK0tnrGVWjOa2k6VY/+kda0zSm5Z8YHIsDRah2EFC4YDFQQxqswyoAovr9agZRxKV8K6eibZm+j2GjecsvG5haWDTFxB3MDA8f27TuyMY2rHATqsgWCGSYL2pJm+WEnoj2u9LpI1D4MryNAVeMNO/fnM5V4alSBj79Nctqxc2fzzA++z2T+mubxxz+C8+MbKC/0EwbKcicKyB6xm64sXsziaoqqHFpg8T29UCk9va8miq2ypKILzYxnP1X497OSwdaNI9/W8rZsNI4fda0l8eRLGbkdKv7az+bqtZB7yEeoIP5QSKI3zONLCtdfQB5PGNpMOWHE1kvZ3XzHorIV4SouhT9sZllgXP2kug3aXXfdlSab/mac4jDs3beXTT7x7k2/6jwDGpngD1Th1qFQ9MM9ceyhyVzFi2KZo1e3i6Pzm//8ta+ytOrDzc03r2+2bNmS7cdCR8q2Eouj13H36MJdR0ZjfyoTO28wrdBf6ml9PDByBoUQPkNqB2kXGJvmdfqNZ7GOmk/fVwa9FfvU+ITlJvZSKKRoVMsyIEyFjxXe6xEssfCpaBgAiAL3eqQWRbCiWUBG5nNmCUrzMc+a70xnU7Sj2h9Ng7c31yveuOaGNNWsKS6xTZc7BouMN1mkW0ZDgYZ7v7E/VdTTVUBIOrNBZmGO0TetFyqUlG3JkhWMkL6UvuOdd96T0UgFcAXrFh1Jffnll9MCV/pMggAALpRJREFUeOONA6lpMqgl0ltEUC/XUJn4WjBqkQXLVIAxT4XS2vLAvv3NYQRSY4xL1JRuFOR+jX7j0FStRCrkwj0dmAfFHfSs4mU2zpXTTNvrqKXKOBYsHWAEsoZa2Ho/6Jyqlk+YIurWeMO+E4keMxECpRn1ZybFOktz3GzmZvqL999/r+o3ikYvcDbzDrGOMRun0Ld0UECUQNMBCfpseKj96MAzPNq4NzJQPca9HPCgph8YgdNRYU3hTrHw+MtsNeZ+j+vX3xLnyLdt2ZImun3iZ555OishYn3Ed0xYZES2m3cHf96bpudeqLn2nszUVbc2hF61f69AWDvqw/UcNT8ES1+y9uvtJxvaEA6CJ+mY1pBj0DfX9BlwRbN0MlXuInYWzCLWM5gpfSdqkom0RRBCoknIxDgSX2KOIWivmH6T73qPxlylYiJfqqyBRwYeOl9kFx9Hozr3zomZuuvEbKouoN53sxEHNvT7cpG+o8E+yNmzbI3NiJ2al4x46Er4yGviDPwhfWF36U/7uMC9h2sSi+XKwK/HPWzjtgpGPY+L7IOUDxhZZTE6ao0xwsgjjy+PND/98Y+aV15+obn7zjuVtua++9/ZbL3jTvzcHEVYT1JL2p/FLhcEZ+AgtdHYXITHUda0FjqvwCa8UTE8Nv5M3IGyFKuLC+41XnCXsNcPvQ4NsVfFSdc6FlaPMMUxiuaHqkAErPBI74CGsxAqPYad21lahm452i/6ruUhD4MtnaqUIFt5USPUcwdDXQYwXn+oCVYg+gEZVIAIKRQY9E6gEmS6iY4KiJT0GBNkOgjjAdEchdty+230HVmhoNanuyycerA+yGhqlufImJ2kAteY9MbfmONEx/gvpv9EOCqR2rgqKRXF4cT9+fNlQEOrnFdffilGDDfRpHsAJ82bsEcVjRdoml/A/88l+omX8BxQuiGWYHgo4ufvxPGGpzDxG5uiDq6pGNvBsupMy5px564doY87Nd1887p4OpBhR/DhWgfKLGDhv3YqM3MtLLMRaqrtkqfcs5HZ9UizFqwMwiCLEFmiar3xjtvegWz2tJZOgHUA5P4Wi5YsppYpG3VaAUQHDCsAxKn5DIsy3eeFkQan6rv+UBikKLM0KdGs2m9aU//4uZ80b+G6wqmAz/3RH2G/+m2uF2cPixhBOFLeaeb1pzsX7i2vZUpzGqWxfdsOwNLfz/nmBtairl9/cxxnlb49LD0AP3OhHFOFwb5yFfg5J4wSowI3UYFkUY9BGqbWWfZBXDx7E0P9roczXEo/svgcdWBDIju6aMUYxlcrp++Y6HP2pyuQBfCUQwE8cvRIavsNGzaiYM4x6HEj3vBURNakpdVhs2h8a2J4USuuh8eY4TfQQhpIO7enO93ZPFZaL12xLA4ba5eqywAzDMK1TK7X+knv4lpmPbW8ZLZhQilzxDcLgqsfnqxO4NpnDiSVCf/Sl7CgN964Cu9iN8GMEtlmUdmCbdeunakR3VWJmeYIZAZiyPt6BJVB+5gYBmGsNX2pTdwzxOVVL+CewyIsXbIs5b0ZN/6raKpr4ylOnR/OeYIMTL3TYUgsa6JrEsi4KmRUJM3UnRmcUoGMMP10++1bomvL9IfEnl2o2vQYdD0TuVs7FkXpxug/RyFyhETFQZODSRBX/6BuLSZ3XabpY1/lLRwB72NS2aab+khEZ95NLpwjITANhcUWhJwI/JThMnaqF+k/2hfUp+oBvJBbJCfPN27awMY+a6KEkpxltrgy/tD0r88LVDAZUzY0p7aoTm28cfgQfd9NlO8C6zE3Yv3lyg2GlCjgZErl+pRi+rkqjBkEnf6n1+6LYbXjMAjCwB0O83opBF2f3W8ZvJEB+bP5egjXDgf2H0x/KjacJBjCSmATl2ER5mHHxIIyDLqZfF5rUUAEVsuktYoldB2g84uW9SxmZZbv1o2bdR2flRzRSrQQnNKJMCvQ447rJ6ZVyHTdeJw9G3/24osM9IxkYGrdurXZtkBhVdlEo3D6eQgK49uyZgwdhlBAJnRAZv6CpbHeWLtuDRY2DNK4qQs1hzWKnqvfxF+qk8giIc0EhTVVKwJpBh5Dgt/I+O0O+JCoV/RYAZpI4DMias0GjAGVC6cjHF46dZIt42gFLGZKwO3SHUV2k58aT5vd8lXUzhXBN7sflYLNQ8Ho4XzPrj1ROI6DOzKu39ez+oydiECzC+CspT6pMBa2k/WuT6g1Vs1dOJzPq8ErRxJLUNhodsKIoywgXoJrwvUbbuGVgqO1ZtqqzUGE8SgLbd2hyfQVLoXY1/NsAnGeLJhaEd7JYk79vU1og+kq6IOCQuqgk6Ztkcb5TtUsoBlnv9nlYQsYuFnLYuIHGQDZmdrfXbYa/MRexG1jcUnJt5R5PlJrLuNziugOyn5GnkWJ2PowYLInLAZr7yghyoPDEGBf1OzZsyebAC1jadVyFhmv4Dh7yhofmvktQml60w2O2BalJL5dPTEeC1NJcyIeqO8GKdb6zjx8n6bqVDK83nEEtH30M1C9VybtBy7EdYNmXwqiHsRdSiTLSbRLEPDQoYOZ+nCnpiCFF9Mhhd+0kTkT+BG2ephezaP/bDmsOak4iO+AjIJrfJlzXuYdN2/azManS3B6vDt9ZF3566w4TE9BdfNQhLoyf1/mM1GgCdJwyh6KMuOrMnD+s2i/OMYCPhtslmfJ4mXNK9u2IZB7Q3934XIO1VD6+4Vq05XFgucixF7PldBRT8PBEU3TYdThKV35mzbjeN1m0AqdmlJt53kRI28y6U0M7Tu8X4S0jKReYJJ8H8tzbOXY1yqMIId2CjqHiDMMY118UFZYimZcUSZ6VrPsa6gZXb3h6PHZM+cy16oAux7SWjSOmi0y33XT6lzzoGiFvszbOPd6uiGT9KQtfUR2FAnX2SKA57ZMXL0wimC6a5ietpctX9EcPXKseRbXkioa03DzVGuxUd6XkfPKAdOF6PrGb+O9QjKpMNaIc/dcGEoiK1zQKwyqmdvNTBKvYMtwq47SD2MCGVtV1//V2hLFHOJG6bwNBFE6FMEQ8DSuM4oageR+/foN9JEXNQdf34+B/Opm1Q2rmuWMJmvb6c5WuuOwZjK+ZU65TbNziEAZpT8Yv330v5/8XrVRhG6U1suFC8z3ntZBM3UjK0+cXip+ivTjw/6FLLi+BKy6Rtm2Y0csply1YS1/6bIDVOKh5iq8Y2EeVIYae66eJ+0zzlXA23DJOwqj5CgEwkfNkgXNZszBFmLPeHH0FG9ksvk47z3N/hpH4pwqaaipHbHhw8w5Oh8yh4O1gv1aG3MGaxikEUGhzAxIuTbzxptuYIDqfJqmd2CruoDacO2Na5pTb50GCzZnS5GDL38IY0o95qawebH77cXt9dPLs0G/3fSBTfNEeuPkgxAyIeyg2rlLZ6i5cRfJ1Ixv9HjgNzZFR1Ao7l+5iD7igYNv4NHuFB7illIzroZOuOdYtADHXHxn2i3oqxCaVqmF25AFovaD63bdbl1UmH8uhFFNapCHJM0iNCgUY3vwVdyVSXGbNMazv/jm0cPxq+KgjjWkyJBMErmPD3k690JsbJEoyyoz+ifgTm/YIrjllg2s3VzR7Ni+jZbBCgwfbmrW0N/avXtv+pDWLFWY/U5dZPkNM11+0zP9NEGTDzU0uX3kIx/DHQiG7MeOEcHdmGmaYtbnHOmzzz5LTfhms+ZGvL+zoej+Q4eZc2TfRkaCb6U/7FZ5DuJo5OFigegjatEoZX4U+IUsEDDfLCawjKQvrT2rf33SK7X31z/MqjC2pX9QUatGGPRuomf1O9Mv1z0WkhDnzp+GAVdjBofflAZC+9oaBftU/d6cOnUi+wG6H2MMx224SaEOYUveUDKhl3bnwRw4leapzCQjRrAQyhG9vXFWyWTQhhFId3S6ZdOtbJuOFQ61hbsAXzrPjlSM3KaW5GsHTqZS011pwUF9FnE7Cu7+w2fOjjZf+eY3mx+iLLSmGcET3WKmYFZjf3rb+lub3/iv72u+xcY8P/3JD7M4+hT7jOxkqziFdSOrb1bdsLpZTPfj0BG28qO2VCrP05y9pGJK03a0OXfhLOXDZYfuOTlbVrcElF8q39hCuF6h8nA7/ywujoZtP+1cOwZ5NWFQhleT3sTfinobQpQG4qzBDcV6HFAZNJlzIlySODKns6MVK29kOQ7U8DOo4ihraogugaI+eTkYC6Uu5vXQGOXd7PwCdOGwnIowsVKcpp0DUq4DvOHmNXFN6R4cDmYtxiDecjphbpNWIbboBlsEpZFf7hX1waUu76fz66DaBayDFi5a2vy93/47zbGTZ5vnX9ne3MuyNt37a6Z3imf6Rz118lzzpR/9dXP7bbc2j3/kw80ptiXYC71kUvuNF6Chmxg9/MhDzX04Zf5X/+pfZHpmdBRTMoTZJrz9TgX8/vvuj7vHA3iZ06HVyZNnaNaeQWGNxNWlTss0JphLYUS3L1LFkx30dmgzXH2etXD1ZsD5SgRwujWo8Wt/wPzKITAMh7MDrm411q67OVb+GajJKAUMhrZ86cXnGxdpzGcNoEw6j7k5HeY6us4QQqdEcewwoHTlUX8ZTUf8XU0giStaURGaCTzfixddcZw/d4YagX5Z3DVi18n1imXUmviPiSkZRFcA/ahS3JIHTT6VD/p4oV221DJ+OMmErLVtxJy0rNX27T3QXGT501sYf1+gtluzZl26C/PWK7Cj8ef66KMfbD7/J3/S/Gzb9uYDH3y0+dxnP9ssWzSv2Y3L/5279zQbsCa65/77m7Xr17PGcX36ly4U37t/D/DDF6z1PMFWCO+56RFqwvnNngN7ml17dzf33ntf80tsNPvMs880mzZsbp7+3vfAF8ob2MSb+J+gyO3id6/7+WAYH/u8P243ke4FCiWOfZwS6D7sXVRC9Z4AMDdXy3jt9K7kWqSJvDKVUVSGhfUo26M1zZ13bGXHqRUsxLVPaG2Aq3hGUtW0xIzFyigMKbNkQXAoIRZk1CuB6uq/GUbMYSkLpnIo9SBhnBbr+e0c1kbBDai5xOCILfCYBVKr2IR1eiNFbJWzK4idzHR9OIj+eR288XYCRJm09FBNuUDYDL/+t99qFjIaeoracOfOPc085kLns5DYBoojpaPUXL/9W3+n+dVfeaL5f//yK81vfepXmSve2Bx5Q0Fr6Osfo8a7r3n/B36xOcYejv/N3//7zaOPPUYf8xneX2w+85l/T5yjzS9//GPsSH2EFtDxtBY++alPNbdv2dI89ujjzQm6KO+k1nz11Vezz4prKjNwNLSwHYTM8knaj0yXAWYZpikmr+AVYofKsk2oz8JTRhMXQ+Q77rwLSxz8oZ5hE0r6STLEYQYF9jNA4IJijQJURLq4S3+RnBXwhJwl/1wNcg6jooCYWkxBFAHihPM8yqV53BLmHC8y96jn8+X0rVzL6NYGNklVO4OCKc9sKCnaLFwK41+mZlwyfxGjpMx34q/2soqBKAsRyhPA9YOnf9D8xq//l81C4SX+EhTq2f2jzTrciejf9gJleJ2F4SqCLVtuyyDVn/7pnzb/6z//F83f/M2TKKG9zW/8xt9laznccB47mj7nVhTzOQR9NXtzvvizl5uXX32Nmhj/ssAUU0gRFwaa2ZJPLzX6ztP7YO7ETkVWweloYPtCCthSCLl2bVnDaHPW/qCDBNtee63ZxaJiXcgbLyOs1ipJRzaWJOV8/YlTCzf8XGoezAMRShrdKB3Nqi6mz2i/Sa93KttFjCxqTrbQ/tIIritY+a8AXG2oust0xiTni+4Db7CyURHwzGb0uTPnGTASw6gFhPMytflC+nwXMAzf+O6HGZyh9sQtiv11B91M7CzN2oWL6efRBBih+W2zdxQaug3AW9SGpxmoWoKwnj/H8wt4/MPp2Lvf9e7UuP/u//pMWkb/9H/5pwzsrW2ef/75ZiXdGVsRBnmpq4jz5Hr8UDO6j5/2gaLMuaDBoYvZwa+v8qlM1Q5Tqa2hA4Ear7OCX/gdSXPYew3zVC67cf6qPPPtPHbF3Z31cctXrs5Ah4JqXmlKwZ2OxiXmnCCO5RsWCr6CJ5iTil8SwngjMPrZ5ihLxCyH28E5YuzAx2o2irUpSCl5oxHalQcHjOwnZ7yhlYxTDUJmba1SM9BBCF/ZFYiyQBAff/zR5m4GcNykdgEwOsp7juVeZxgRvf/ee5tvPPVtpjVuykjokSNvNkuwxHEx+A9/8lymbR568F25P/7WiWYx797Azvjg/gM0Qx+Lg66b2M/xGIK9fCndFBhl+dLlzb4D+5sTGNEvXrwkzWd5TsVV7IEDdeC9Hj/SUThVqARJZ6jncld+C1LbT+bGNSLUAtc1wg5mWLA1mMCtZTQxhsTppAvxRdYw7gnyHe6+gPbU2Nr4MpbNvtJ00xRrbpRwMiis3aLHYKpL3MQNI9ee7fFpdXP61Jk0T93FqQy4OMzRo/SVUbeIWrup2y/c1noFjcbymkkNp45QePtww3iOjqJmb5eY+3XKYQFGAPNovn7hz77UvH5wb/MPf+e3m22vvoJDrWPN6pXLmtMn32q+wMDOA/e+s3kHu279xV98pSgUCiA0n8XNyO/9/qebT3/6H9MEvYjgnWHrBn2vXmieeOJXsn71zjvuSv9UXC2wRqbycQVMAbRiYqbGkSej3tj3jgRPu5kqyG0itJNsE7n9fLauFaQIkxl0BMi97Ne47o1NbtR8eopTP1+g2SNxY0rFo0SHGRxVrD2oaHRHEyxkIpjwXAwCV4B0QXHEi6pxEbtJOUjlVnEqGr1wH6f2ceJbo3gaAgVfNNnVP5X9plvCip422waL4PJyd4RVEVEpFCN/GU2BdYR3N3OGL7OiZB0Lv9959z3NvoOHmlEEYzPzoXchaL/1iY/EOOObzDWu1MCd/t0yloMd2LsPD3g/a+66c2taOfYdR6Gx9sfbt29v/rd/+S+ThjXgeVyqaKfrKO0TT3yCaZ6lzWc/+/l4kLc/XbaOp5msAu/gcrp4mOn40xZGARjGp8OezzTQpidD2MyMOVSqBxubsATMuXnzJtxO0Pw5f4rROjQv6uONw69jgbLTTzN6lgt+6lSNzKQcmnCEszbda8Q5dk4zyyqctmKYyRYA+LBWPMM2dzbfFy/VCIAaiCkNHXO5fvPcGWJTO0Uah5RpSnRsSXLQFqUmY3tX1XVJyacOGkkmWy8LUZQaqy9h0Gbrltvp0zKqiuOsBxgpPXPmVPOTHz/XPPWtb9GHEkBqVTrF+ro9C00cgFvLpq8uAnht2zaMyZdlrnIZlkZn2C7vpRd/RlqwNUrhPM1zIfjMZz7LPf1OBnHsJ+rCQyOBCGKIXuA0t+sZUt6MyKEq61IWB0JKqOceiII926CLpGEh+fOTnZbo4iYujKj9pV85KbzhlpuhYdF6dvQdYX3zyGFG2A6FEBkYILYbikoL95cnpbBMt8TULENDCDj07Yy8CKOk+dxLzumKGtIi6MAY8NPkLouSbB0wb0DtWA7jOsK8eGQZzcPTUVAaA4iwQaXM/CvfjJneQNh6sUFaWhwFGt8ohEUQy11tpJY3nUas5cEgfJR+7WWshfaxUe3nP/+5NBkv0eH8+te+Rj8X2kLLxQjMfGo995hM1qTu/PE2BNAm3foNm5q3TnyD2o89N0n+LA5kF2iBRB7nMRYQNeLQlSojixmpRJiXMUjEik760QwgWWPzZ9r2gWuorSQZQ7xNJ0zEt8PS8Rvpl2Zq2vEdInczF5/d4M30gOp+OuDC1GrypnolKbvZqsuDsgwnhaFJRr9jhNpgE2sY77xrK6VzpyXEzqFGBHP3nr1l+zc6884JWDtc5CwA0iK1aoiCUAbACuX4Qii2sx26tBiTUSFc3yPwieKhLFq6LICBzqQGcGs4+kQ8c4Qx+KF5amWaBdQdJuivIVMy3/E3vpRVGShcfW/HMPTYd0mJR9r1LBD3KIlLKIMb2OBV1nOvSWnqMqkMyBHvIiZ7xdibrwH6AgKkS5GdO3bieOt48wg7MX/5i18O7WwZ21Q/fwlvDqbPXayKoLGDsWdOu4lsUQ/VWKQMYSFwgbsNb6eMhSnGoHq2booQd+YZOzw4JK82oEOitB7LwpVkrcdjLiubD0rZZ5J6WLAvVM25jFM0C01RVKrzac493bLhZkjDOB73ZfB6pNm3Z1+YcsVKvXCX0WMV0Rhow4Q8ugY1n7DPXACjGFFrSO1qfjeBdX+KYpepedzpNNvdhaoM4kgBm46FQUuNVqApb3hrkjMFIEStadmHd2DNfts8pzs4YkV0jmkMoeJHxVjWXKIS/Jam9wIuGPpHcDESZ3rkrjvubG7C/vgo7lOcsgnNSLPbqkvNhoKSltA16oNLrW7MoQRyqpedJ+VBhbY+nO1zya80y2cwb4VDYewv46DiDM12wuaBX5XmRacKs6Ij8Bw1uIFlUysY7kb1QoNO/wgC7ty5A5gcXpchEcaWwHXhBWg1qWZcU4F/UJlm+5lwtfEWbIBzIA8jWjOoZKxlFjGMb6vARce6GPFoLjFh3imfc5FyaX8tbB79+SgkhnHMWx5P+hsck6jTH1EBHRoHdGhRBy90vWFcFw8bAJ+PABJO1fn0BZqjbha7ds3aZiO2xwf3720Wr1hFXWpABVOLagJpH9X71DrkWylqUgazV+gLMjuF43nvKtFm/Ufc2wIwWFSAmrlg4lrny9CDjpieXWF2xfwNdAVgQXeFAhb7NHmybx+ac81aDKSZ9Pe5hsgK5OlTx7GL3A2iEUaat7pllEgSoyLfJNXYdUDnCkGclc8sKVCHWJnbCyOVrArtbKR58Au3uQmsK1Nq4SzTclbI38DAx3kMc92dqzbXBgFccTLo3ZU+k906cgBYGI5fBg6WTo1Qk4+A93mdg9EaaOD6Rpub0IMmbJQqdwtZw3gGQdy7exfTV6ubhx96oFnk6hOEeTHtXWw7aQYzd+kZXDiKYBNW/FmmHOCi9Il5hxVC/xHLBK0TCmKvtLjT/k65CW1nEvlhakCZ6DxtSDsfRMvlWmRxdKg7rwxDxeRr6x13gHVZF2GDSG7kcpgh8N27d2ChwYSv30Udl0STTARTrQ0zg5S5FvpxKXxdmgVcf6wNncppmoPsx3j6/Jn0w5z0t1G+hCkCjegxvqHPJn6uYTkFth7dS1WhAudZUS2H/UoP1vhzjCJIZXrKlRuLUK7zoc8JrG4c4Hnf+96HsflN9CexxYV2CtkItNSbQZQT+EgryPSsEuEHa3aP8I7niQ5eX8tQWwczlqc4T3U7LMWWIAyL0t9sUgjHfwZiQbpaczF9Bvs/K3Dlt3EjuxOHyJBXsyhMqKwpjrx5OM02bRLto8gG6b8QW5ilSfLhrsijT+ZGmBASgafs1Q9qJv9p9tj0We7UBox4nlUNKi/7U8UoehA+x5Y1yY59VHDU92xmbseWsPCQwmmw2coTajubrCfYVcsRVWm1adOmZiOG5AcPvs4ouZY1UD4yh2Lios1Hl+lPdwlNqrYi2qOoyar9Mxak9ptZubY8tdUzQQaDyDI8ehIl4TD2oPPwT7tvBn1bV/PXSCJeFSfCyQ0i6P+FZTXapNJnkHIVn7tYIXD06IlMcagsfe73NZ9KtJQ0Cddc3gZnNQf/MqFsWwXufGw5sUfFU577VVg2Nxw18nn6XSW+3/RCxZf9OpVVWh+91zwpNU2pWlovZvBSaoY+lKs0L21uWqMpZe66dT5e77Jomj7je9/33rR+uvyRApGGdLSZ0DlMUzrXP0s+0d8MFmlgUoFF2rUC9hDACyM7p1RDsWT3bmzkPEG7ThTMZKLVgOaS0bMhifjepkYNQmDfs8IUHNPMshki45mfzKPmdF+Jlatx1eC0Bp0F7W4vMSS+Y9cOhrdLLenckoMEzjOldMmrlgkigotB5a7wXI+zSiOjj53MK4QVS7EioggX6F+NiBvK4KS2BvHLWBFfJvkbVtJjn8q0gtM9pgl750jTzbRrghU3vQdcBVsdCCY/Jc8h0aRZT1X2Ryr5aL4fsqZbAWihk/PISxhBPdKcZpNYDeHf9/5faL745S81x48zfZFUFWd5qNDUvAzFEqtbwHRJJi6R3w+PEb4LryT5af/U8phOvZ4v4bJNWCvfqj1k+O4Bs3s9EYBCZDKTHcabbhDoggC/LMCKZ690buSyqFuYY1wKsS5FGO0vwqCYh2kgXkzjnHeT53hhevmTQJVInkvaXMyZ0OHDQFahqxBXIBUoy6MVjraZmsW5ttMpH/HEC/qMWuFQW7rqv5VA67ImxzlVbet+5i4tj3lOdNhItecY0D1TCHl/BTtRbd+xHWP4w7R0mube++5q7rn3LpQtfWQqlDJdFQojzo6OO01SD3gCRKV/KQxcDz98P7yFV6CfGZxYNoOVRNnzRWrO0RBBBDaZrehykajmsqHBKBoDNiuXr2y2br2DsRv7BsSEcvYj3zp+Ivv8hQH4XAQnnSB6jhZ4EFjSqXNQ6HEh9TzlE1cXmeR3iN+BrEU0U23huTpiHRuOihc/LzgYl8yceWBZSyhUl/IOUEn3s2wMewh3Ggu1qlm+vPnoR3+ZPmMZlFIgpXVaTZQ039WkUnIT7ibefXO9LqrAmz+DU1Iw/Hu94Jk03wBMLEWvINIBC6c1GD1DPWpvqI+X27fexnuEkHd24GXGN944xHEAjbqSFoCErdp20mznXIRa+kGA+U5aiiN9+7hbsU1bmfGifWgkci1+gXTl6DIzcZSXgxKbC8/kScvEUaaboF20kWsiz7AudTvG4/hQZU71ve95N7sa38yaR0ZVXSamNObruVCQqcEg7TKAY3RlcsJg+QwQtc4JTencR/EucskwiqCkOvTXbDNcDYLLGUGkkzgfLWmH16aoi1NvxGPYjfSJnKdKzZjqoGF+cV9z7M3jTPZrnZJhibcZmYaipvVCxVPwKSPqNV2/MHXvDgssrnXjqE2vzfpKTs+Tkb6V0TW7VNmmZ8mcMPIGvPYh6Umy9EmfRfvxp+O0lSOtLql6+JGH0xd29b6TIx25vSp4xdmwYzawRok7GVLAqVFF0k3hIF3T7k9U4ldGEFP9hfXZxAF4+VNbRu9rbYLmX3/zWmo/fd5YOziELwXnY3mzKw6KJJz5OjxeTKK4Ebyfl9BBrM3V+MFBGEW/Ahk/QDx3lXypNcARQttPizmFCheoKmrQMIYaXHtvH3g+0xSvbmcjVbYuWMDKj6V0Uf6LX/wllknRJKfQTnlJWsvnwmsPr6cTHDAsbkoGn22VzXQoUxsUIH9S720QHI3VDtNmC5eB/Va2y16JG3uXC/kwrMZc224Gbxx40k5TIc3zaZNm7iKlCpfG1HKguLFZ6oBGmNlSO1ABDqK8aDGMUnN2EFeYd84WjwJJSzRo5pS1VeR/ARZEh/F/ewIbXP2tyrvv/8AHMoDnKHKa4D4lrsrJc3+Yi5xuPQGcEmsAxP0lmAv3HU0ptGpNhVEPX5uY7HedWmo9GG4+faO3IFYmiB3ul1E9T1CGid5N8NmsvpqcKsFE8ND5iYC5UsOROWVUDlaT2zxVWG3CGsKo/I4PJU354rrixMGYUiEWoZTe0NBynmMj2DMM5CywD0wraCOLA257xzuykNq+cipS4rk8zjL0l3JyvI7Hymw+Ual2zBJAu33BTNj1wOwnhAJbmwBDAQv2eNtNRmyODUWbj302+Z0JWrNJC0yk7PvQZHGtostubKbKPPZpL1+iLwEjnj5xBt8nh7Dq10UhBMEO0tG2i6hK9zG0zKld+S7KiOfZ31GDxmmEfjxN49MpRZ1oXtZmmQwnA6bFQIrWkjazxLPTG5bGZr0GADr5bS7jbRsXFyUU+rStUcSFmHaAXXynfF16dj6b5CRcw8NE71pfEc2YRZy8gE4MylmGUyyLOod/WBWxrildZHzLhvXQXhM6BnacGIHWtibrOt1Wyrls82EBdzxcbRve2qXqT6d9X+L0+McKY7JQ4YAyFBhIHDYGenm5BAhppDZ43BKZn0GESUR+8s2gCJ10B56ML9AmUgEYFNH39BURvnnz1etGZ0fb1atifeO39gwvMs+md21tUvUettj9GhnkuRQhs0x6jKOsJKDu70JL2VLGQVkPeRYYhrybicdJf0KgOhBYFgqSshBfSxVL6uT3eaNIWJg5fUgENd7xfEwsdXCtAysu6rmWwST6n9V3g88duAa/nPwpCrfmKEdkJ2POKpr5DEQ5vfHm0Tdj5MCuG5g9Lm7uuOsOXEC6SEAlaxaW2bOKZSw843lbGTDu2KCir89V6BMrGXKki+DhN2mN2D3q0K+eB6XhO+1uk4FwyN4WvH2MBW2COwttpiSoWOXgemoEzMcTJO4rIfRQYehICAQjeufOXmC3qc3NBvypXLK/QA2hxQ49/WYbw9/HcOPnCJuPJGgZTzW9n78Qe8xOsS6wbKoUGoyBEzHnur8leEJQWUcYodfU6HM9cCXE5RBG6Zdazmc8cGT8FO5FVCSl5TAPU8g18VAuH8qKYX411FWE3kDNxOn0BA3lhgAVhVAqOa9rKBWfz8vRfq7MJFhsdVEVxIKG8m5iMEqc+msmLmzNmjqw59/koZ3bFGKDYDvpzim589KmzZtYaHojeWoGBxGkHPlux1ntWYR1PsPhrshIf5ICVogsVz16uU6ntL2vrvsVYIv7iBfEP38e1xbUhrTUOgHVlSZ9p3nOc1+Vhn+5rjHn1lkoPSrVCnT6U53nvJZBohM24J5TZWOZa/Mwr8Z+mrhT/QkrEblkMXlCHVDAfcmhCPPk3xm7K4zelCJ5RSC1Kr01KTOoz5JbeZC4uS9flt/O90Wd5cP2275rcx6Te+u9IFYwhYS6DUIEO+ZP2LBpIwtMWTgrJnikprzEIMX27dsAi94Dz5ybCuvxLjmlydqruX1bFIdXb7dQcGcfycK5yY9NJdGhfW76xiIG5k1F0cFBaaL6O9fLLHxWE4UnNWGz5ncQR88PKTeluHXz5mxjIB3zrMMfV0NNcWgoSXVuyiOeFXg6tzmJ61or+iC4T7zcQZOxaeSjzk/l8vazXFt8MxtbU2Jqhda11msf3fkY+mWxfGmnlrZF6aOYnqCML0QP2e1Px177ZTmyqSmfmI4bhN625XbeaQ5lh11CzMdw+DhmcNsY4GHwhs94LGfmLPMRk3tLx7vOr+voSvsgD95GP5JRJVMUjeVIHxmhjPLitcKZAS/nGrmXKeyWlFDPnds8F9cl3fr0+p+FCdpxskZ3J2ZrQF10WM6Vq1bSVF1LWY0zMyqmJzz9OCrYqLxcm6Lm7TODZ62+yrPajy3fDfq1FBMGk405UicDP6gkEjWVZO3ngxLsptP5pldIY+dt5+z9sEAujKYp/PBWBGsFc4vr8JOaNABGZaFTXDcGPcSOtytXrKam1D8M36YMBVHDcni7Pw8Top01DVOVdvHMAN18akkHv1JzEke0V2bqx4rqqkfpuYAVIVTI5DTh1vNbUaYZIWed6spVNzCiuiE8IPQzEapgdfHYl6jP62FchbJ9GN33ZVR2PFQV/8YrJfNqWJCB+w6TrEf9rP++Pp+Zc6cQnDKBDVMxJgNcl1jpjffwtZjB6YSP59YADt4c2L8vE8P2H/WQFoS1gCmkbT34ebm0RqBwp9jvUMb1sLWiFY4T5MvYllsLncowIaTIIHSwTJ/bkT0Zva6byOvr/COrltpOgw9rmzNn2duPUCb5L8Vp8XqM4ctyqbwqP7VgrUdTvRSXvTDmpve4dVVryNajKLxy36s12+/rtZNOKsguIeqL/rNxrCGhbhHO+o2agess5pQRvKOZaKBpX84+4qpzW+KWVwPzNZ5p9kL3yyDe6dEsDyLSBpB/o2sY9QMKA0Vx0jx74YUXmBQ+y3q+G0iL5yQm/LJYWwPVa3MoeraX61Su/N7vKoRT+Wa6cfoJ3J77ElP5gzkdpLqIJ22XkJ3GGbBTPM4/qqDOU3O4/m8RAimwKqcuNiiEc3GWoTyvEBbe8G4sPer72TybY6/WMafABg0VPo3h9+3ZlfJKc5UNOji7VS9fzgY4XSsjSnUFxDGvugKklrI+K/3C+pTkgam8U/mNx5TvVYCGGq/3de/7stdG4FWMTKhCPjZRn+YNCbeDzOiAiU9LE4LvHEjIg05M3puah4Bl6qG+4ux6sxr8zPc13SoiyZVo9BAQcvqHaG+Z1InelauW0fRiXo33HudZePr8c8+BTJz40mR1MMeJ8XhOEzD+k6PnJEymfluBmGNna4F2qOWsz9JHJIrKRh60JtS9hi5G9CLu5/ocvcwGsQsXsWUeLiqkmQbVBpVJFBUIEO8JcxQZQpymHUC75duFURYZQ+NapdhMXbp0cYRRpSXNxRcflXL5m2seTlBGhSbfdb6qAuezTKuFcQYnUOPWDMPz0MMgTB6m7/MavO7ivgeZGQzOpH446bmXR6KaUT0m/bYToS8JnqKpONRKOhkCo+GcW7e8AxeE7Mfgag1XumO36Fq33bjyX8RCYxGvcLuOr8N7UwVhSvHGwzmlz64yUjtX2dB7lQ1X6VNDP5SV87Dz2ZnZawcSFuBlXFf6IqKlHsVqnlwlULPyeT/fVM7U5eZZlO4oCqcsEI5KaVatXhHhdOxA2is85ahfiiofXjm4g2o/U+uHtT7z3PumwGTc/tASxvYriCNhBxztWNf8WgTKZEz6X7yA+0H8ZTqcHcxaG9Chn4ep1KuvvZoBHLf/crAnHuFa2G/TgeRMMux8zctzhRlaU5YRuk4C0skS8C+fucbTXbbc9MWmVqGjrg4XxwLHLbxTYAteLq4Qktn5TMatNUitRXxWD22MLd9Rtn07dfosg1IYMqR/cimjqTesXo1uLguRK4QqH/+GhQGyMSxqS7AGR6mCZ5pVhnoxlSuf957Uq54w8jZNFWqeYstn7MmOmkznnLKqdT2K8mmfa+z6zPsBMNVofecSM+11mgjnsLZZz262t912GwM05xEotL8mfeR8gL343jrBpjfWEhDlArVCgarA1M6z6NPpwNEH1nW4lcB1AGaU8nk4Qpry807/su5EdQ6TOOUt7hppJul3dAlNOFsKaShICELFx0TMWmJem1/LZ6jCV5m7mztwu6/G8WPHmlMnT/GYZVUakEP7G1avycY4GoAsRECThnOR3Y/LRS1z3+Mp346DiS+FuzxX4OSskkull2eLJu2szftDbFN9mFcdJCRSP/T1y24cCjggTp5FKHpynk/livyTUzIr9yWvAQnV/LrnEkeD5kt6BJ8/2mzcvJ59GNeFuWo6oxgP72CyP4VlHjHdZpjT4YlaETjvaCiwluu3229l2B7c0gOFBKHBUBxSuQGOW6ZZQ7q0TNyJ+iq0bazXbn4vvet7VRi3MLfXbeYX7gWsLHfPjfNM/MPeHDxFAJbghmM9vpCcwgmBwYnfuua1y7rEZuC98APXCX4evqwPpn+uNGnDbir1eeAwXys89oW01WKoZesKY562fmoCrUe5rB/2Px9/L4JaQS3VEcgy2W4PsADTijX0MoLDW79xS3AR79ZgSxigcKciR0z1jHbk8BF2tX0p/Qa1v94BrC8vtDTV1HMdCs51fWHTrdKn0sOzNWIp22X6U6czuCFOHE29SH/agbJF1I56zpMhynpQaxSDbYfC1t5VxV1J5rNrHSxjLV87b59rwH36zInmzWNHeKXiL/N7ixigcnrDQR3LlDfwgSrK+xosay1jjELqixk8t+Fv06s872XkfZrlvUezfdVDxJXkVAsmuylgepTesPGW+L4xZZtejhQePoL38F27I6ToHtBPk4CDdlyYrUIRQtSbaQLU/kxiS1jP9XqayU07ehW8ut2BGjbEVOFxraDpK/UcG8Sk9WZLhRpTRbySfRrFi2mUvwK/QFgu8WKtMVeCdG8fwi14Gv/b+inNVKH1qcK7IErafjM3lBRbXKTNo1cVzn4ByboDk+exwfIYQoMSMff/H72KFrkuA+VoAAAAAElFTkSuQmCC",
    "activeThemeId" : "e59eeb42-ccf0-4a36-bdf9-e630fdab686d",
    "audiateSessionId" : "",
    "firstMedia" : true,
    "hasNotifiedAboutHFRMedia" : false,
    "projectDuration" : "01:19"
  }
}
