{
  "title" : "",
  "description" : "",
  "author" : "",
  "targetLoudness" : -18.0,
  "shouldApplyLoudnessNormalization" : true,
  "videoFormatFrameRate" : 30,
  "audioFormatSampleRate" : 44100,
  "width" : 1280.0,
  "height" : 720.0,
  "version" : "5.0",
  "editRate" : 30,
  "authoringClientName" :  {
    "name" : "Camtasia",
    "platform" : "Mac",
    "version" : "2021.0.12"
  },
  "sourceBin" : [
    {
      "id" : 1,
      "src" : "./media/1658434146.838907/Pasted Image.pdf",
      "rect" : [0, 0, 960, 540],
      "lastMod" : "20220706T161002",
      "loudnessNormalization" : true,
      "sourceTracks" : [
        {
          "range" : [0, 1],
          "type" : 1,
          "editRate" : 600,
          "trackRect" : [0, 0, 960, 540],
          "sampleRate" : 0,
          "bitDepth" : 0,
          "numChannels" : 0,
          "integratedLUFS" : 100.0,
          "peakLevel" : -1.0,
          "metaData" : ""
        }
      ],
      "metadata" : {
        "timeAdded" : "20220706T161002.251400"
      }
    },
    {
      "id" : 2,
      "src" : "./media/1658434146.839710/01-TalkingHead.mp4",
      "rect" : [0, 0, 400, 474],
      "lastMod" : "20220706T160542",
      "loudnessNormalization" : true,
      "sourceTracks" : [
        {
          "range" : [0, 7429380],
          "type" : 0,
          "editRate" : 44100,
          "trackRect" : [0, 0, 400, 474],
          "sampleRate" : 30,
          "bitDepth" : 0,
          "numChannels" : 0,
          "integratedLUFS" : 100.0,
          "peakLevel" : -1.0,
          "metaData" : ""
        },
        {
          "range" : [0, 7429380],
          "type" : 2,
          "editRate" : 44100,
          "trackRect" : [0, 0, 0, 0],
          "sampleRate" : 44100,
          "bitDepth" : 0,
          "numChannels" : 2,
          "integratedLUFS" : -18.056830574846,
          "peakLevel" : 0.876455903053284,
          "metaData" : ""
        }
      ],
      "metadata" : {
        "timeAdded" : "20220706T161047.086765"
      }
    },
    {
      "id" : 3,
      "src" : "./media/1658434146.840422/In this lab, we will:\r\n.pdf",
      "rect" : [0, 0, 420, 102],
      "lastMod" : "20220706T161423",
      "loudnessNormalization" : true,
      "sourceTracks" : [
        {
          "range" : [0, 1],
          "type" : 1,
          "editRate" : 600,
          "trackRect" : [0, 0, 420, 102],
          "sampleRate" : 0,
          "bitDepth" : 0,
          "numChannels" : 0,
          "integratedLUFS" : 100.0,
          "peakLevel" : -1.0,
          "metaData" : ""
        }
      ],
      "metadata" : {
        "timeAdded" : "20220706T161423.737089"
      }
    },
    {
      "id" : 4,
      "src" : "./media/1658434146.841098/In this lab, we will:\r\nInstall Druid\r\n.pdf",
      "rect" : [0, 0, 420, 160],
      "lastMod" : "20220706T161607",
      "loudnessNormalization" : true,
      "sourceTracks" : [
        {
          "range" : [0, 1],
          "type" : 1,
          "editRate" : 600,
          "trackRect" : [0, 0, 420, 160],
          "sampleRate" : 0,
          "bitDepth" : 0,
          "numChannels" : 0,
          "integratedLUFS" : 100.0,
          "peakLevel" : -1.0,
          "metaData" : ""
        }
      ],
      "metadata" : {
        "timeAdded" : "20220706T161607.173080"
      }
    },
    {
      "id" : 5,
      "src" : "./media/1658434146.841726/In this lab, we will:\r\nInstall Druid\r\nConfigure MSQE\r\n.pdf",
      "rect" : [0, 0, 420, 217],
      "lastMod" : "20220706T170754",
      "loudnessNormalization" : true,
      "sourceTracks" : [
        {
          "range" : [0, 1],
          "type" : 1,
          "editRate" : 600,
          "trackRect" : [0, 0, 420, 217],
          "sampleRate" : 0,
          "bitDepth" : 0,
          "numChannels" : 0,
          "integratedLUFS" : 100.0,
          "peakLevel" : -1.0,
          "metaData" : ""
        }
      ],
      "metadata" : {
        "timeAdded" : "20220706T170754.714729"
      }
    },
    {
      "id" : 6,
      "src" : "./media/1658434146.842567/Screen Recording 2022-07-06 at 11.16.13 AM.mov",
      "rect" : [0, 0, 1504, 1402],
      "lastMod" : "20220706T171808",
      "loudnessNormalization" : true,
      "sourceTracks" : [
        {
          "range" : [0, 176600],
          "type" : 0,
          "editRate" : 6000,
          "trackRect" : [0, 0, 1504, 1402],
          "sampleRate" : "7411/125",
          "bitDepth" : 0,
          "numChannels" : 0,
          "integratedLUFS" : 100.0,
          "peakLevel" : -1.0,
          "metaData" : ""
        }
      ],
      "metadata" : {
        "timeAdded" : "20220706T172027.520329"
      }
    },
    {
      "id" : 7,
      "src" : "./media/1658434146.843221/Pasted Image.pdf",
      "rect" : [0, 0, 658, 540],
      "lastMod" : "20220706T172455",
      "loudnessNormalization" : true,
      "sourceTracks" : [
        {
          "range" : [0, 1],
          "type" : 1,
          "editRate" : 600,
          "trackRect" : [0, 0, 658, 540],
          "sampleRate" : 0,
          "bitDepth" : 0,
          "numChannels" : 0,
          "integratedLUFS" : 100.0,
          "peakLevel" : -1.0,
          "metaData" : ""
        }
      ],
      "metadata" : {
        "timeAdded" : "20220706T172455.070849"
      }
    },
    {
      "id" : 8,
      "src" : "./media/1658434146.843832/Pasted Image.tiff",
      "rect" : [0, 0, 460, 396],
      "lastMod" : "20220706T172708",
      "loudnessNormalization" : true,
      "sourceTracks" : [
        {
          "range" : [0, 1],
          "type" : 1,
          "editRate" : 600,
          "trackRect" : [0, 0, 460, 396],
          "sampleRate" : 0,
          "bitDepth" : 0,
          "numChannels" : 0,
          "integratedLUFS" : 100.0,
          "peakLevel" : -1.0,
          "metaData" : ""
        }
      ],
      "metadata" : {
        "timeAdded" : "20220706T172708.997743"
      }
    },
    {
      "id" : 9,
      "src" : "./media/1658434146.844543/Pasted Image.pdf",
      "rect" : [0, 0, 640, 480],
      "lastMod" : "20220706T174043",
      "loudnessNormalization" : true,
      "sourceTracks" : [
        {
          "range" : [0, 1],
          "type" : 1,
          "editRate" : 600,
          "trackRect" : [0, 0, 640, 480],
          "sampleRate" : 0,
          "bitDepth" : 0,
          "numChannels" : 0,
          "integratedLUFS" : 100.0,
          "peakLevel" : -1.0,
          "metaData" : ""
        }
      ],
      "metadata" : {
        "timeAdded" : "20220706T174043.162166"
      }
    },
    {
      "id" : 10,
      "src" : "./media/1658434146.845267/Pasted Image.pdf",
      "rect" : [0, 0, 404, 438],
      "lastMod" : "20220706T181310",
      "loudnessNormalization" : true,
      "sourceTracks" : [
        {
          "range" : [0, 1],
          "type" : 1,
          "editRate" : 600,
          "trackRect" : [0, 0, 404, 438],
          "sampleRate" : 0,
          "bitDepth" : 0,
          "numChannels" : 0,
          "integratedLUFS" : 100.0,
          "peakLevel" : -1.0,
          "metaData" : ""
        }
      ],
      "metadata" : {
        "timeAdded" : "20220706T181310.427629"
      }
    },
    {
      "id" : 11,
      "src" : "./media/1658434146.845864/Pasted Image.pdf",
      "rect" : [0, 0, 187, 175],
      "lastMod" : "20220706T181352",
      "loudnessNormalization" : true,
      "sourceTracks" : [
        {
          "range" : [0, 1],
          "type" : 1,
          "editRate" : 600,
          "trackRect" : [0, 0, 187, 175],
          "sampleRate" : 0,
          "bitDepth" : 0,
          "numChannels" : 0,
          "integratedLUFS" : 100.0,
          "peakLevel" : -1.0,
          "metaData" : ""
        }
      ],
      "metadata" : {
        "timeAdded" : "20220706T181352.919567"
      }
    },
    {
      "id" : 12,
      "src" : "./media/1658434146.846487/Pasted Image.pdf",
      "rect" : [0, 0, 120, 76],
      "lastMod" : "20220706T181432",
      "loudnessNormalization" : true,
      "sourceTracks" : [
        {
          "range" : [0, 1],
          "type" : 1,
          "editRate" : 600,
          "trackRect" : [0, 0, 120, 76],
          "sampleRate" : 0,
          "bitDepth" : 0,
          "numChannels" : 0,
          "integratedLUFS" : 100.0,
          "peakLevel" : -1.0,
          "metaData" : ""
        }
      ],
      "metadata" : {
        "timeAdded" : "20220706T181432.123573"
      }
    },
    {
      "id" : 13,
      "src" : "./media/1658434146.847157/Pasted Image.pdf",
      "rect" : [0, 0, 178, 61],
      "lastMod" : "20220706T181514",
      "loudnessNormalization" : true,
      "sourceTracks" : [
        {
          "range" : [0, 1],
          "type" : 1,
          "editRate" : 600,
          "trackRect" : [0, 0, 178, 61],
          "sampleRate" : 0,
          "bitDepth" : 0,
          "numChannels" : 0,
          "integratedLUFS" : 100.0,
          "peakLevel" : -1.0,
          "metaData" : ""
        }
      ],
      "metadata" : {
        "timeAdded" : "20220706T181514.941919"
      }
    },
    {
      "id" : 14,
      "src" : "./media/1658434146.847773/Pasted Image.pdf",
      "rect" : [0, 0, 321, 329],
      "lastMod" : "20220706T182150",
      "loudnessNormalization" : true,
      "sourceTracks" : [
        {
          "range" : [0, 1],
          "type" : 1,
          "editRate" : 600,
          "trackRect" : [0, 0, 321, 329],
          "sampleRate" : 0,
          "bitDepth" : 0,
          "numChannels" : 0,
          "integratedLUFS" : 100.0,
          "peakLevel" : -1.0,
          "metaData" : ""
        }
      ],
      "metadata" : {
        "timeAdded" : "20220706T182150.982456"
      }
    },
    {
      "id" : 15,
      "src" : "./media/1658434146.848405/Pasted Image.pdf",
      "rect" : [0, 0, 259, 97],
      "lastMod" : "20220706T192716",
      "loudnessNormalization" : true,
      "sourceTracks" : [
        {
          "range" : [0, 1],
          "type" : 1,
          "editRate" : 600,
          "trackRect" : [0, 0, 259, 97],
          "sampleRate" : 0,
          "bitDepth" : 0,
          "numChannels" : 0,
          "integratedLUFS" : 100.0,
          "peakLevel" : -1.0,
          "metaData" : ""
        }
      ],
      "metadata" : {
        "timeAdded" : "20220706T192716.071047"
      }
    },
    {
      "id" : 16,
      "src" : "./media/1658434146.848946/Pasted Image.pdf",
      "rect" : [0, 0, 83, 96],
      "lastMod" : "20220706T193203",
      "loudnessNormalization" : true,
      "sourceTracks" : [
        {
          "range" : [0, 1],
          "type" : 1,
          "editRate" : 600,
          "trackRect" : [0, 0, 83, 96],
          "sampleRate" : 0,
          "bitDepth" : 0,
          "numChannels" : 0,
          "integratedLUFS" : 100.0,
          "peakLevel" : -1.0,
          "metaData" : ""
        }
      ],
      "metadata" : {
        "timeAdded" : "20220706T193203.473720"
      }
    },
    {
      "id" : 17,
      "src" : "./media/1658434146.849473/Pasted Image.pdf",
      "rect" : [0, 0, 199, 91],
      "lastMod" : "20220706T193853",
      "loudnessNormalization" : true,
      "sourceTracks" : [
        {
          "range" : [0, 1],
          "type" : 1,
          "editRate" : 600,
          "trackRect" : [0, 0, 199, 91],
          "sampleRate" : 0,
          "bitDepth" : 0,
          "numChannels" : 0,
          "integratedLUFS" : 100.0,
          "peakLevel" : -1.0,
          "metaData" : ""
        }
      ],
      "metadata" : {
        "timeAdded" : "20220706T193853.733763"
      }
    },
    {
      "id" : 18,
      "src" : "./media/1658434146.850067/Pasted Image.pdf",
      "rect" : [0, 0, 199, 106],
      "lastMod" : "20220706T193954",
      "loudnessNormalization" : true,
      "sourceTracks" : [
        {
          "range" : [0, 1],
          "type" : 1,
          "editRate" : 600,
          "trackRect" : [0, 0, 199, 106],
          "sampleRate" : 0,
          "bitDepth" : 0,
          "numChannels" : 0,
          "integratedLUFS" : 100.0,
          "peakLevel" : -1.0,
          "metaData" : ""
        }
      ],
      "metadata" : {
        "timeAdded" : "20220706T193954.512059"
      }
    },
    {
      "id" : 19,
      "src" : "./media/1658434146.850660/Pasted Image.pdf",
      "rect" : [0, 0, 275, 188],
      "lastMod" : "20220706T194302",
      "loudnessNormalization" : true,
      "sourceTracks" : [
        {
          "range" : [0, 1],
          "type" : 1,
          "editRate" : 600,
          "trackRect" : [0, 0, 275, 188],
          "sampleRate" : 0,
          "bitDepth" : 0,
          "numChannels" : 0,
          "integratedLUFS" : 100.0,
          "peakLevel" : -1.0,
          "metaData" : ""
        }
      ],
      "metadata" : {
        "timeAdded" : "20220706T194302.341442"
      }
    },
    {
      "id" : 20,
      "src" : "./media/1658434146.851244/Pasted Image.pdf",
      "rect" : [0, 0, 91, 61],
      "lastMod" : "20220706T194611",
      "loudnessNormalization" : true,
      "sourceTracks" : [
        {
          "range" : [0, 1],
          "type" : 1,
          "editRate" : 600,
          "trackRect" : [0, 0, 91, 61],
          "sampleRate" : 0,
          "bitDepth" : 0,
          "numChannels" : 0,
          "integratedLUFS" : 100.0,
          "peakLevel" : -1.0,
          "metaData" : ""
        }
      ],
      "metadata" : {
        "timeAdded" : "20220706T194611.492413"
      }
    },
    {
      "id" : 21,
      "src" : "./media/1658434146.851860/Pasted Image.pdf",
      "rect" : [0, 0, 156, 185],
      "lastMod" : "20220706T194818",
      "loudnessNormalization" : true,
      "sourceTracks" : [
        {
          "range" : [0, 1],
          "type" : 1,
          "editRate" : 600,
          "trackRect" : [0, 0, 156, 185],
          "sampleRate" : 0,
          "bitDepth" : 0,
          "numChannels" : 0,
          "integratedLUFS" : 100.0,
          "peakLevel" : -1.0,
          "metaData" : ""
        }
      ],
      "metadata" : {
        "timeAdded" : "20220706T194818.575789"
      }
    },
    {
      "id" : 22,
      "src" : "./media/1658434146.852480/Pasted Image.tiff",
      "rect" : [0, 0, 1189, 1280],
      "lastMod" : "20220706T200935",
      "loudnessNormalization" : true,
      "sourceTracks" : [
        {
          "range" : [0, 1],
          "type" : 1,
          "editRate" : 600,
          "trackRect" : [0, 0, 1189, 1280],
          "sampleRate" : 0,
          "bitDepth" : 0,
          "numChannels" : 0,
          "integratedLUFS" : 100.0,
          "peakLevel" : -1.0,
          "metaData" : ""
        }
      ],
      "metadata" : {
        "timeAdded" : "20220706T200935.511770"
      }
    },
    {
      "id" : 23,
      "src" : "./media/1658434146.853141/\n\n\n\n\n\n\n\n\n\n\n\n\n\n\n\n\n\n\n\n\n\n\n\n\n.pdf",
      "rect" : [0, 0, 237, 146],
      "lastMod" : "20220706T201352",
      "loudnessNormalization" : true,
      "sourceTracks" : [
        {
          "range" : [0, 1],
          "type" : 1,
          "editRate" : 600,
          "trackRect" : [0, 0, 237, 146],
          "sampleRate" : 0,
          "bitDepth" : 0,
          "numChannels" : 0,
          "integratedLUFS" : 100.0,
          "peakLevel" : -1.0,
          "metaData" : ""
        }
      ],
      "metadata" : {
        "timeAdded" : "20220706T201352.356561"
      }
    },
    {
      "id" : 24,
      "src" : "./media/1658434146.853732/Pasted Image.pdf",
      "rect" : [0, 0, 92, 61],
      "lastMod" : "20220706T201811",
      "loudnessNormalization" : true,
      "sourceTracks" : [
        {
          "range" : [0, 1],
          "type" : 1,
          "editRate" : 600,
          "trackRect" : [0, 0, 92, 61],
          "sampleRate" : 0,
          "bitDepth" : 0,
          "numChannels" : 0,
          "integratedLUFS" : 100.0,
          "peakLevel" : -1.0,
          "metaData" : ""
        }
      ],
      "metadata" : {
        "timeAdded" : "20220706T201811.577999"
      }
    },
    {
      "id" : 25,
      "src" : "./media/1658434146.854314/Pasted Image.pdf",
      "rect" : [0, 0, 92, 61],
      "lastMod" : "20220706T203141",
      "loudnessNormalization" : true,
      "sourceTracks" : [
        {
          "range" : [0, 1],
          "type" : 1,
          "editRate" : 600,
          "trackRect" : [0, 0, 92, 61],
          "sampleRate" : 0,
          "bitDepth" : 0,
          "numChannels" : 0,
          "integratedLUFS" : 100.0,
          "peakLevel" : -1.0,
          "metaData" : ""
        }
      ],
      "metadata" : {
        "timeAdded" : "20220706T203141.528111"
      }
    },
    {
      "id" : 26,
      "src" : "./media/1658434146.854897/Pasted Image.pdf",
      "rect" : [0, 0, 91, 61],
      "lastMod" : "20220706T203239",
      "loudnessNormalization" : true,
      "sourceTracks" : [
        {
          "range" : [0, 1],
          "type" : 1,
          "editRate" : 600,
          "trackRect" : [0, 0, 91, 61],
          "sampleRate" : 0,
          "bitDepth" : 0,
          "numChannels" : 0,
          "integratedLUFS" : 100.0,
          "peakLevel" : -1.0,
          "metaData" : ""
        }
      ],
      "metadata" : {
        "timeAdded" : "20220706T203239.160473"
      }
    },
    {
      "id" : 27,
      "src" : "./media/1658434146.855489/Pasted Image.pdf",
      "rect" : [0, 0, 91, 61],
      "lastMod" : "20220706T203305",
      "loudnessNormalization" : true,
      "sourceTracks" : [
        {
          "range" : [0, 1],
          "type" : 1,
          "editRate" : 600,
          "trackRect" : [0, 0, 91, 61],
          "sampleRate" : 0,
          "bitDepth" : 0,
          "numChannels" : 0,
          "integratedLUFS" : 100.0,
          "peakLevel" : -1.0,
          "metaData" : ""
        }
      ],
      "metadata" : {
        "timeAdded" : "20220706T203305.018118"
      }
    },
    {
      "id" : 28,
      "src" : "./media/1658434146.856090/“Partitions”\r\n.pdf",
      "rect" : [0, 0, 286, 102],
      "lastMod" : "20220706T204437",
      "loudnessNormalization" : true,
      "sourceTracks" : [
        {
          "range" : [0, 1],
          "type" : 1,
          "editRate" : 600,
          "trackRect" : [0, 0, 286, 102],
          "sampleRate" : 0,
          "bitDepth" : 0,
          "numChannels" : 0,
          "integratedLUFS" : 100.0,
          "peakLevel" : -1.0,
          "metaData" : ""
        }
      ],
      "metadata" : {
        "timeAdded" : "20220706T204437.868148"
      }
    },
    {
      "id" : 29,
      "src" : "./media/1658434146.856760/Pasted Image.pdf",
      "rect" : [0, 0, 124, 140],
      "lastMod" : "20220706T205241",
      "loudnessNormalization" : true,
      "sourceTracks" : [
        {
          "range" : [0, 1],
          "type" : 1,
          "editRate" : 600,
          "trackRect" : [0, 0, 124, 140],
          "sampleRate" : 0,
          "bitDepth" : 0,
          "numChannels" : 0,
          "integratedLUFS" : 100.0,
          "peakLevel" : -1.0,
          "metaData" : ""
        }
      ],
      "metadata" : {
        "timeAdded" : "20220706T205241.825713"
      }
    },
    {
      "id" : 30,
      "src" : "./media/1658434146.857311/Pasted Image.pdf",
      "rect" : [0, 0, 378, 365],
      "lastMod" : "20220706T205536",
      "loudnessNormalization" : true,
      "sourceTracks" : [
        {
          "range" : [0, 1],
          "type" : 1,
          "editRate" : 600,
          "trackRect" : [0, 0, 378, 365],
          "sampleRate" : 0,
          "bitDepth" : 0,
          "numChannels" : 0,
          "integratedLUFS" : 100.0,
          "peakLevel" : -1.0,
          "metaData" : ""
        }
      ],
      "metadata" : {
        "timeAdded" : "20220706T205536.897629"
      }
    },
    {
      "id" : 31,
      "src" : "./media/1658434146.857888/Pasted Image.tiff",
      "rect" : [0, 0, 2670, 666],
      "lastMod" : "20220706T210151",
      "loudnessNormalization" : true,
      "sourceTracks" : [
        {
          "range" : [0, 1],
          "type" : 1,
          "editRate" : 600,
          "trackRect" : [0, 0, 2670, 666],
          "sampleRate" : 0,
          "bitDepth" : 0,
          "numChannels" : 0,
          "integratedLUFS" : 100.0,
          "peakLevel" : -1.0,
          "metaData" : ""
        }
      ],
      "metadata" : {
        "timeAdded" : "20220706T210151.441597"
      }
    },
    {
      "id" : 32,
      "src" : "./media/1658434146.858428/Pasted Image.tiff",
      "rect" : [0, 0, 1880, 354],
      "lastMod" : "20220706T210347",
      "loudnessNormalization" : true,
      "sourceTracks" : [
        {
          "range" : [0, 1],
          "type" : 1,
          "editRate" : 600,
          "trackRect" : [0, 0, 1880, 354],
          "sampleRate" : 0,
          "bitDepth" : 0,
          "numChannels" : 0,
          "integratedLUFS" : 100.0,
          "peakLevel" : -1.0,
          "metaData" : ""
        }
      ],
      "metadata" : {
        "timeAdded" : "20220706T210347.091671"
      }
    },
    {
      "id" : 33,
      "src" : "./media/1658434146.858980/Pasted Image.tiff",
      "rect" : [0, 0, 1280, 667],
      "lastMod" : "20220706T211106",
      "loudnessNormalization" : true,
      "sourceTracks" : [
        {
          "range" : [0, 1],
          "type" : 1,
          "editRate" : 600,
          "trackRect" : [0, 0, 1280, 667],
          "sampleRate" : 0,
          "bitDepth" : 0,
          "numChannels" : 0,
          "integratedLUFS" : 100.0,
          "peakLevel" : -1.0,
          "metaData" : ""
        }
      ],
      "metadata" : {
        "timeAdded" : "20220706T211106.419171"
      }
    },
    {
      "id" : 34,
      "src" : "./media/1658434146.859539/Pasted Image.tiff",
      "rect" : [0, 0, 1280, 1181],
      "lastMod" : "20220706T211232",
      "loudnessNormalization" : true,
      "sourceTracks" : [
        {
          "range" : [0, 1],
          "type" : 1,
          "editRate" : 600,
          "trackRect" : [0, 0, 1280, 1181],
          "sampleRate" : 0,
          "bitDepth" : 0,
          "numChannels" : 0,
          "integratedLUFS" : 100.0,
          "peakLevel" : -1.0,
          "metaData" : ""
        }
      ],
      "metadata" : {
        "timeAdded" : "20220706T211232.113638"
      }
    },
    {
      "id" : 35,
      "src" : "./media/1658434146.860244/Pasted Image.pdf",
      "rect" : [0, 0, 258, 123],
      "lastMod" : "20220706T211402",
      "loudnessNormalization" : true,
      "sourceTracks" : [
        {
          "range" : [0, 1],
          "type" : 1,
          "editRate" : 600,
          "trackRect" : [0, 0, 258, 123],
          "sampleRate" : 0,
          "bitDepth" : 0,
          "numChannels" : 0,
          "integratedLUFS" : 100.0,
          "peakLevel" : -1.0,
          "metaData" : ""
        }
      ],
      "metadata" : {
        "timeAdded" : "20220706T211402.392142"
      }
    },
    {
      "id" : 36,
      "src" : "./media/1658434146.860813/Pasted Image.tiff",
      "rect" : [0, 0, 1280, 1263],
      "lastMod" : "20220706T211756",
      "loudnessNormalization" : true,
      "sourceTracks" : [
        {
          "range" : [0, 1],
          "type" : 1,
          "editRate" : 600,
          "trackRect" : [0, 0, 1280, 1263],
          "sampleRate" : 0,
          "bitDepth" : 0,
          "numChannels" : 0,
          "integratedLUFS" : 100.0,
          "peakLevel" : -1.0,
          "metaData" : ""
        }
      ],
      "metadata" : {
        "timeAdded" : "20220706T211756.288886"
      }
    },
    {
      "id" : 37,
      "src" : "./media/1658434146.861370/Pasted Image.pdf",
      "rect" : [0, 0, 183, 231],
      "lastMod" : "20220706T212958",
      "loudnessNormalization" : true,
      "sourceTracks" : [
        {
          "range" : [0, 1],
          "type" : 1,
          "editRate" : 600,
          "trackRect" : [0, 0, 183, 231],
          "sampleRate" : 0,
          "bitDepth" : 0,
          "numChannels" : 0,
          "integratedLUFS" : 100.0,
          "peakLevel" : -1.0,
          "metaData" : ""
        }
      ],
      "metadata" : {
        "timeAdded" : "20220706T212958.389785"
      }
    },
    {
      "id" : 38,
      "src" : "./media/1658434146.861924/Pasted Image.pdf",
      "rect" : [0, 0, 347, 228],
      "lastMod" : "20220706T213101",
      "loudnessNormalization" : true,
      "sourceTracks" : [
        {
          "range" : [0, 1],
          "type" : 1,
          "editRate" : 600,
          "trackRect" : [0, 0, 347, 228],
          "sampleRate" : 0,
          "bitDepth" : 0,
          "numChannels" : 0,
          "integratedLUFS" : 100.0,
          "peakLevel" : -1.0,
          "metaData" : ""
        }
      ],
      "metadata" : {
        "timeAdded" : "20220706T213101.962084"
      }
    },
    {
      "id" : 39,
      "src" : "./media/1658434146.862488/Pasted Image.pdf",
      "rect" : [0, 0, 183, 229],
      "lastMod" : "20220706T213114",
      "loudnessNormalization" : true,
      "sourceTracks" : [
        {
          "range" : [0, 1],
          "type" : 1,
          "editRate" : 600,
          "trackRect" : [0, 0, 183, 229],
          "sampleRate" : 0,
          "bitDepth" : 0,
          "numChannels" : 0,
          "integratedLUFS" : 100.0,
          "peakLevel" : -1.0,
          "metaData" : ""
        }
      ],
      "metadata" : {
        "timeAdded" : "20220706T213114.771598"
      }
    },
    {
      "id" : 40,
      "src" : "./media/1658434146.863041/Pasted Image.pdf",
      "rect" : [0, 0, 900, 540],
      "lastMod" : "20220706T213921",
      "loudnessNormalization" : true,
      "sourceTracks" : [
        {
          "range" : [0, 1],
          "type" : 1,
          "editRate" : 600,
          "trackRect" : [0, 0, 900, 540],
          "sampleRate" : 0,
          "bitDepth" : 0,
          "numChannels" : 0,
          "integratedLUFS" : 100.0,
          "peakLevel" : -1.0,
          "metaData" : ""
        }
      ],
      "metadata" : {
        "timeAdded" : "20220706T213921.655872"
      }
    },
    {
      "id" : 41,
      "src" : "./media/1658434146.863717/Pasted Image.pdf",
      "rect" : [0, 0, 900, 540],
      "lastMod" : "20220706T214138",
      "loudnessNormalization" : true,
      "sourceTracks" : [
        {
          "range" : [0, 1],
          "type" : 1,
          "editRate" : 600,
          "trackRect" : [0, 0, 900, 540],
          "sampleRate" : 0,
          "bitDepth" : 0,
          "numChannels" : 0,
          "integratedLUFS" : 100.0,
          "peakLevel" : -1.0,
          "metaData" : ""
        }
      ],
      "metadata" : {
        "timeAdded" : "20220706T214138.913278"
      }
    },
    {
      "id" : 42,
      "src" : "./media/1658434146.864287/Pasted Image.pdf",
      "rect" : [0, 0, 221, 441],
      "lastMod" : "20220706T214425",
      "loudnessNormalization" : true,
      "sourceTracks" : [
        {
          "range" : [0, 1],
          "type" : 1,
          "editRate" : 600,
          "trackRect" : [0, 0, 221, 441],
          "sampleRate" : 0,
          "bitDepth" : 0,
          "numChannels" : 0,
          "integratedLUFS" : 100.0,
          "peakLevel" : -1.0,
          "metaData" : ""
        }
      ],
      "metadata" : {
        "timeAdded" : "20220706T214425.456211"
      }
    },
    {
      "id" : 43,
      "src" : "./media/1658434146.864844/Pasted Image.pdf",
      "rect" : [0, 0, 221, 441],
      "lastMod" : "20220706T214728",
      "loudnessNormalization" : true,
      "sourceTracks" : [
        {
          "range" : [0, 1],
          "type" : 1,
          "editRate" : 600,
          "trackRect" : [0, 0, 221, 441],
          "sampleRate" : 0,
          "bitDepth" : 0,
          "numChannels" : 0,
          "integratedLUFS" : 100.0,
          "peakLevel" : -1.0,
          "metaData" : ""
        }
      ],
      "metadata" : {
        "timeAdded" : "20220706T214728.224716"
      }
    },
    {
      "id" : 44,
      "src" : "./media/1658434146.865721/01-TalkingHead-2.mp4",
      "rect" : [0, 0, 400, 474],
      "lastMod" : "20220708T151940",
      "loudnessNormalization" : true,
      "sourceTracks" : [
        {
          "range" : [0, 7458780],
          "type" : 0,
          "editRate" : 44100,
          "trackRect" : [0, 0, 400, 474],
          "sampleRate" : 30,
          "bitDepth" : 0,
          "numChannels" : 0,
          "integratedLUFS" : 100.0,
          "peakLevel" : -1.0,
          "metaData" : ""
        },
        {
          "range" : [0, 7458780],
          "type" : 2,
          "editRate" : 44100,
          "trackRect" : [0, 0, 0, 0],
          "sampleRate" : 44100,
          "bitDepth" : 0,
          "numChannels" : 2,
          "integratedLUFS" : -17.6208457681398,
          "peakLevel" : 0.952000737190247,
          "metaData" : ""
        }
      ],
      "metadata" : {
        "timeAdded" : "20220708T152046.279089"
      }
    },
    {
      "id" : 45,
      "src" : "./media/1658434146.866269/Pasted Image.pdf",
      "rect" : [0, 0, 92, 189],
      "lastMod" : "20220708T161849",
      "loudnessNormalization" : true,
      "sourceTracks" : [
        {
          "range" : [0, 1],
          "type" : 1,
          "editRate" : 600,
          "trackRect" : [0, 0, 92, 189],
          "sampleRate" : 0,
          "bitDepth" : 0,
          "numChannels" : 0,
          "integratedLUFS" : 100.0,
          "peakLevel" : -1.0,
          "metaData" : ""
        }
      ],
      "metadata" : {
        "timeAdded" : "20220708T161849.310839"
      }
    },
    {
      "id" : 46,
      "src" : "./media/1658434146.866933/Pasted Image.pdf",
      "rect" : [0, 0, 91, 189],
      "lastMod" : "20220708T162011",
      "loudnessNormalization" : true,
      "sourceTracks" : [
        {
          "range" : [0, 1],
          "type" : 1,
          "editRate" : 600,
          "trackRect" : [0, 0, 91, 189],
          "sampleRate" : 0,
          "bitDepth" : 0,
          "numChannels" : 0,
          "integratedLUFS" : 100.0,
          "peakLevel" : -1.0,
          "metaData" : ""
        }
      ],
      "metadata" : {
        "timeAdded" : "20220708T162011.014078"
      }
    },
    {
      "id" : 47,
      "src" : "./media/1658434146.867500/Pasted Image.pdf",
      "rect" : [0, 0, 91, 189],
      "lastMod" : "20220708T162104",
      "loudnessNormalization" : true,
      "sourceTracks" : [
        {
          "range" : [0, 1],
          "type" : 1,
          "editRate" : 600,
          "trackRect" : [0, 0, 91, 189],
          "sampleRate" : 0,
          "bitDepth" : 0,
          "numChannels" : 0,
          "integratedLUFS" : 100.0,
          "peakLevel" : -1.0,
          "metaData" : ""
        }
      ],
      "metadata" : {
        "timeAdded" : "20220708T162104.169527"
      }
    },
    {
      "id" : 48,
      "src" : "./media/1658436460.329867/01-TalkingHead-3.mp4",
      "rect" : [0, 0, 400, 474],
      "lastMod" : "20220721T193415",
      "loudnessNormalization" : true,
      "sourceTracks" : [
        {
          "range" : [0, 7286790],
          "type" : 0,
          "editRate" : 44100,
          "trackRect" : [0, 0, 400, 474],
          "sampleRate" : 30,
          "bitDepth" : 0,
          "numChannels" : 0,
          "integratedLUFS" : 100.0,
          "peakLevel" : -1.0,
          "metaData" : ""
        },
        {
          "range" : [0, 7286790],
          "type" : 2,
          "editRate" : 44100,
          "trackRect" : [0, 0, 0, 0],
          "sampleRate" : 44100,
          "bitDepth" : 0,
          "numChannels" : 2,
          "integratedLUFS" : -18.0878783664371,
          "peakLevel" : 0.972781181335449,
          "metaData" : ""
        }
      ],
      "metadata" : {
        "timeAdded" : "20220721T201019.091884"
      }
    },
    {
      "id" : 49,
      "src" : "./media/r1yeahvs/Pasted Image.pdf",
      "rect" : [0, 0, 960, 540],
      "lastMod" : "20220721T201301",
      "loudnessNormalization" : true,
      "sourceTracks" : [
        {
          "range" : [0, 1],
          "type" : 1,
          "editRate" : 600,
          "trackRect" : [0, 0, 960, 540],
          "sampleRate" : 0,
          "bitDepth" : 0,
          "numChannels" : 0,
          "integratedLUFS" : 100.0,
          "peakLevel" : -1.0,
          "metaData" : ""
        }
      ],
      "metadata" : {
        "timeAdded" : "20220721T201301.922991"
      }
    },
    {
      "id" : 50,
      "src" : "./media/7WkTz51D/Pasted Image.pdf",
      "rect" : [0, 0, 421, 218],
      "lastMod" : "20220721T201429",
      "loudnessNormalization" : true,
      "sourceTracks" : [
        {
          "range" : [0, 1],
          "type" : 1,
          "editRate" : 600,
          "trackRect" : [0, 0, 421, 218],
          "sampleRate" : 0,
          "bitDepth" : 0,
          "numChannels" : 0,
          "integratedLUFS" : 100.0,
          "peakLevel" : -1.0,
          "metaData" : ""
        }
      ],
      "metadata" : {
        "timeAdded" : "20220721T201429.571555"
      }
    },
    {
      "id" : 51,
      "src" : "./media/aVwLunIM/Pasted Image.pdf",
      "rect" : [0, 0, 602, 218],
      "lastMod" : "20220721T201520",
      "loudnessNormalization" : true,
      "sourceTracks" : [
        {
          "range" : [0, 1],
          "type" : 1,
          "editRate" : 600,
          "trackRect" : [0, 0, 602, 218],
          "sampleRate" : 0,
          "bitDepth" : 0,
          "numChannels" : 0,
          "integratedLUFS" : 100.0,
          "peakLevel" : -1.0,
          "metaData" : ""
        }
      ],
      "metadata" : {
        "timeAdded" : "20220721T201520.719202"
      }
    },
    {
      "id" : 52,
      "src" : "./media/KgBf19up/Pasted Image.pdf",
      "rect" : [0, 0, 640, 480],
      "lastMod" : "20220721T201810",
      "loudnessNormalization" : true,
      "sourceTracks" : [
        {
          "range" : [0, 1],
          "type" : 1,
          "editRate" : 600,
          "trackRect" : [0, 0, 640, 480],
          "sampleRate" : 0,
          "bitDepth" : 0,
          "numChannels" : 0,
          "integratedLUFS" : 100.0,
          "peakLevel" : -1.0,
          "metaData" : ""
        }
      ],
      "metadata" : {
        "timeAdded" : "20220721T201810.438557"
      }
    },
    {
      "id" : 53,
      "src" : "./media/FfWKbM18/Pasted Image.pdf",
      "rect" : [0, 0, 202, 175],
      "lastMod" : "20220721T201954",
      "loudnessNormalization" : true,
      "sourceTracks" : [
        {
          "range" : [0, 1],
          "type" : 1,
          "editRate" : 600,
          "trackRect" : [0, 0, 202, 175],
          "sampleRate" : 0,
          "bitDepth" : 0,
          "numChannels" : 0,
          "integratedLUFS" : 100.0,
          "peakLevel" : -1.0,
          "metaData" : ""
        }
      ],
      "metadata" : {
        "timeAdded" : "20220721T201954.087527"
      }
    },
    {
      "id" : 54,
      "src" : "./media/OSizxRcA/Pasted Image.pdf",
      "rect" : [0, 0, 260, 96],
      "lastMod" : "20220721T202948",
      "loudnessNormalization" : true,
      "sourceTracks" : [
        {
          "range" : [0, 1],
          "type" : 1,
          "editRate" : 600,
          "trackRect" : [0, 0, 260, 96],
          "sampleRate" : 0,
          "bitDepth" : 0,
          "numChannels" : 0,
          "integratedLUFS" : 100.0,
          "peakLevel" : -1.0,
          "metaData" : ""
        }
      ],
      "metadata" : {
        "timeAdded" : "20220721T202948.687181"
      }
    },
    {
      "id" : 55,
      "src" : "./media/sEMVpsdS/Pasted Image.pdf",
      "rect" : [0, 0, 83, 96],
      "lastMod" : "20220721T203115",
      "loudnessNormalization" : true,
      "sourceTracks" : [
        {
          "range" : [0, 1],
          "type" : 1,
          "editRate" : 600,
          "trackRect" : [0, 0, 83, 96],
          "sampleRate" : 0,
          "bitDepth" : 0,
          "numChannels" : 0,
          "integratedLUFS" : 100.0,
          "peakLevel" : -1.0,
          "metaData" : ""
        }
      ],
      "metadata" : {
        "timeAdded" : "20220721T203115.832400"
      }
    },
    {
      "id" : 56,
      "src" : "./media/WWBap6E9/Pasted Image.pdf",
      "rect" : [0, 0, 275, 189],
      "lastMod" : "20220721T203613",
      "loudnessNormalization" : true,
      "sourceTracks" : [
        {
          "range" : [0, 1],
          "type" : 1,
          "editRate" : 600,
          "trackRect" : [0, 0, 275, 189],
          "sampleRate" : 0,
          "bitDepth" : 0,
          "numChannels" : 0,
          "integratedLUFS" : 100.0,
          "peakLevel" : -1.0,
          "metaData" : ""
        }
      ],
      "metadata" : {
        "timeAdded" : "20220721T203613.833478"
      }
    },
    {
      "id" : 57,
      "src" : "./media/EINOPwml/Pasted Image.pdf",
      "rect" : [0, 0, 91, 61],
      "lastMod" : "20220721T203753",
      "loudnessNormalization" : true,
      "sourceTracks" : [
        {
          "range" : [0, 1],
          "type" : 1,
          "editRate" : 600,
          "trackRect" : [0, 0, 91, 61],
          "sampleRate" : 0,
          "bitDepth" : 0,
          "numChannels" : 0,
          "integratedLUFS" : 100.0,
          "peakLevel" : -1.0,
          "metaData" : ""
        }
      ],
      "metadata" : {
        "timeAdded" : "20220721T203753.931846"
      }
    },
    {
      "id" : 58,
      "src" : "./media/1658509296.305515/01-TalkingHead-4.mp4",
      "rect" : [0, 0, 400, 474],
      "lastMod" : "20220722T164909",
      "loudnessNormalization" : true,
      "sourceTracks" : [
        {
          "range" : [0, 7327950],
          "type" : 0,
          "editRate" : 44100,
          "trackRect" : [0, 0, 400, 474],
          "sampleRate" : 30,
          "bitDepth" : 0,
          "numChannels" : 0,
          "integratedLUFS" : 100.0,
          "peakLevel" : -1.0,
          "metaData" : ""
        },
        {
          "range" : [0, 7327950],
          "type" : 2,
          "editRate" : 44100,
          "trackRect" : [0, 0, 0, 0],
          "sampleRate" : 44100,
          "bitDepth" : 0,
          "numChannels" : 2,
          "integratedLUFS" : -17.9725876330404,
          "peakLevel" : 0.956854462623596,
          "metaData" : ""
        }
      ],
      "metadata" : {
        "timeAdded" : "20220722T165325.782497"
      }
    },
    {
      "id" : 59,
      "src" : "./media/hdAx0kF6/Pasted Image.pdf",
      "rect" : [0, 0, 92, 189],
      "lastMod" : "20220722T190739",
      "loudnessNormalization" : true,
      "sourceTracks" : [
        {
          "range" : [0, 1],
          "type" : 1,
          "editRate" : 600,
          "trackRect" : [0, 0, 92, 189],
          "sampleRate" : 0,
          "bitDepth" : 0,
          "numChannels" : 0,
          "integratedLUFS" : 100.0,
          "peakLevel" : -1.0,
          "metaData" : ""
        }
      ],
      "metadata" : {
        "timeAdded" : "20220722T190739.602142"
      }
    },
    {
      "id" : 60,
      "src" : "./media/L7yhuUfX/Pasted Image.pdf",
      "rect" : [0, 0, 91, 189],
      "lastMod" : "20220722T190844",
      "loudnessNormalization" : true,
      "sourceTracks" : [
        {
          "range" : [0, 1],
          "type" : 1,
          "editRate" : 600,
          "trackRect" : [0, 0, 91, 189],
          "sampleRate" : 0,
          "bitDepth" : 0,
          "numChannels" : 0,
          "integratedLUFS" : 100.0,
          "peakLevel" : -1.0,
          "metaData" : ""
        }
      ],
      "metadata" : {
        "timeAdded" : "20220722T190844.707314"
      }
    },
    {
      "id" : 61,
      "src" : "./media/CkKTFgaO/Pasted Image.pdf",
      "rect" : [0, 0, 91, 189],
      "lastMod" : "20220722T190923",
      "loudnessNormalization" : true,
      "sourceTracks" : [
        {
          "range" : [0, 1],
          "type" : 1,
          "editRate" : 600,
          "trackRect" : [0, 0, 91, 189],
          "sampleRate" : 0,
          "bitDepth" : 0,
          "numChannels" : 0,
          "integratedLUFS" : 100.0,
          "peakLevel" : -1.0,
          "metaData" : ""
        }
      ],
      "metadata" : {
        "timeAdded" : "20220722T190923.243132"
      }
    },
    {
      "id" : 62,
      "src" : "./media/icsDaLOP/Pasted Image.pdf",
      "rect" : [0, 0, 91, 61],
      "lastMod" : "20220722T191858",
      "loudnessNormalization" : true,
      "sourceTracks" : [
        {
          "range" : [0, 1],
          "type" : 1,
          "editRate" : 600,
          "trackRect" : [0, 0, 91, 61],
          "sampleRate" : 0,
          "bitDepth" : 0,
          "numChannels" : 0,
          "integratedLUFS" : 100.0,
          "peakLevel" : -1.0,
          "metaData" : ""
        }
      ],
      "metadata" : {
        "timeAdded" : "20220722T191858.046821"
      }
    }
  ],
  "timeline" : {
    "id" : 63,
    "sceneTrack" : {
      "scenes" : [
        {
          "csml" : {
            "tracks" : [
              {
                "trackIndex" : 0,
                "medias" : [
                  {
                    "id" : 64,
                    "_type" : "IMFile",
                    "src" : 49,
                    "trackNumber" : 0,
                    "trimStartSum" : 0,
                    "attributes" : {
                      "ident" : "Pasted Image"
                    },
                    "parameters" : {
                      "translation1" : 0.00815116588213272,
                      "scale0" : 1.33336120349882,
                      "scale1" : 1.33336120349882,
                      "sourceCrop0" : 0.0,
                      "sourceCrop1" : 0.0,
                      "sourceCrop2" : 0.0,
                      "sourceCrop3" : 0.0,
                      "geometryCrop0" : 0.0,
                      "geometryCrop1" : 0.0,
                      "geometryCrop2" : 0.0,
                      "geometryCrop3" : 0.0
                    },
                    "effects" : [

                    ],
                    "start" : 0,
                    "duration" : 4985,
                    "mediaStart" : 0,
                    "mediaDuration" : 1,
                    "scalar" : 1,
                    "metadata" : {
                      "clipSpeedAttribute" : false,
                      "default-scale" : "1",
                      "effectApplied" : "none",
                      "lockAspectRatio" : true
                    },
                    "animationTracks" : {

                    }
                  }
                ],
                "transitions" : [
                  {
                    "name" : "Fade",
                    "duration" : 30,
                    "rightMedia" : 64,
                    "attributes" : {
                      "bypass" : false,
                      "reverse" : false,
                      "trivial" : false,
                      "useAudioPreRoll" : true,
                      "useVisualPreRoll" : true
                    }

                  },
                  {
                    "name" : "Fade",
                    "duration" : 30,
                    "leftMedia" : 64,
                    "attributes" : {
                      "bypass" : false,
                      "reverse" : false,
                      "trivial" : false,
                      "useAudioPreRoll" : true,
                      "useVisualPreRoll" : true
                    }

                  }
                ]
              },
              {
                "trackIndex" : 1,
                "medias" : [
                  {
                    "id" : 65,
                    "_type" : "UnifiedMedia",
                    "video" : 
                        {
                          "id" : 66,
                          "_type" : "VMFile",
                          "src" : 58,
                          "trackNumber" : 0,
                          "attributes" : {
                            "ident" : "01-TalkingHead-4"
                          },
                          "parameters" : {
                            "translation0" : {
                              "type" : "double",
                              "defaultValue" : 497.575760788125,
                              "interp" : "eioe"
                            },
                            "translation1" : {
                              "type" : "double",
                              "defaultValue" : -196.927276533928,
                              "interp" : "eioe"
                            },
                            "scale0" : {
                              "type" : "double",
                              "defaultValue" : 0.612121196059375,
                              "interp" : "eioe"
                            },
                            "scale1" : {
                              "type" : "double",
                              "defaultValue" : 0.612121196059375,
                              "interp" : "eioe"
                            },
                            "sourceCrop0" : {
                              "type" : "double",
                              "defaultValue" : 0.0,
                              "interp" : "eioe"
                            },
                            "sourceCrop1" : {
                              "type" : "double",
                              "defaultValue" : 0.0,
                              "interp" : "eioe"
                            },
                            "sourceCrop2" : {
                              "type" : "double",
                              "defaultValue" : 0.0,
                              "interp" : "eioe"
                            },
                            "sourceCrop3" : {
                              "type" : "double",
                              "defaultValue" : 0.0,
                              "interp" : "eioe"
                            },
                            "geometryCrop0" : {
                              "type" : "double",
                              "defaultValue" : 0.0,
                              "interp" : "eioe"
                            },
                            "geometryCrop1" : {
                              "type" : "double",
                              "defaultValue" : 0.0,
                              "interp" : "eioe"
                            },
                            "geometryCrop2" : {
                              "type" : "double",
                              "defaultValue" : 0.0,
                              "interp" : "eioe"
                            },
                            "geometryCrop3" : {
                              "type" : "double",
                              "defaultValue" : 0.0,
                              "interp" : "eioe"
                            }
                          },
                          "effects" : [

                          ],
                          "start" : 0,
                          "duration" : 4985,
                          "mediaStart" : 0,
                          "mediaDuration" : 4985,
                          "scalar" : 1,
                          "animationTracks" : {

                          }
                        },
                    "audio" : 
                        {
                          "id" : 67,
                          "_type" : "AMFile",
                          "src" : 58,
                          "trackNumber" : 1,
                          "attributes" : {
                            "ident" : "",
                            "gain" : 1.0,
                            "mixToMono" : false,
                            "loudnessNormalization" : true,
                            "sourceFileOffset" : 0
                          },
                            "channelNumber" : "0,1",
                          "effects" : [

                          ],
                          "start" : 0,
                          "duration" : 4985,
                          "mediaStart" : 0,
                          "mediaDuration" : 4985,
                          "scalar" : 1,
                          "animationTracks" : {

                          }
                        }
,
                    "start" : 0,
                    "duration" : 4985,
                    "mediaStart" : 0,
                    "mediaDuration" : 4985,
                    "scalar" : 1,
                    "metadata" : {
                      "clipSpeedAttribute" : false,
                      "default-scale" : "1",
                      "effectApplied" : "none",
                      "lockAspectRatio" : true
                    }
                  }
                ],
                "transitions" : [
                  {
                    "name" : "Fade",
                    "duration" : 30,
                    "rightMedia" : 65,
                    "attributes" : {
                      "bypass" : false,
                      "reverse" : false,
                      "trivial" : false,
                      "useAudioPreRoll" : true,
                      "useVisualPreRoll" : true
                    }

                  },
                  {
                    "name" : "Fade",
                    "duration" : 30,
                    "leftMedia" : 65,
                    "attributes" : {
                      "bypass" : false,
                      "reverse" : false,
                      "trivial" : false,
                      "useAudioPreRoll" : true,
                      "useVisualPreRoll" : true
                    }

                  }
                ]
              },
              {
                "trackIndex" : 2,
                "medias" : [
                  {
                    "id" : 68,
                    "_type" : "IMFile",
                    "src" : 3,
                    "trackNumber" : 0,
                    "trimStartSum" : 14,
                    "attributes" : {
                      "ident" : "In this lab, we will:\r\n"
                    },
                    "parameters" : {
                      "translation0" : -224.0,
                      "translation1" : 81.0,
                      "sourceCrop0" : 0.0,
                      "sourceCrop1" : 0.0,
                      "sourceCrop2" : 0.0,
                      "sourceCrop3" : 0.0,
                      "geometryCrop0" : 0.0,
                      "geometryCrop1" : 0.0,
                      "geometryCrop2" : 0.0,
                      "geometryCrop3" : 0.0
                    },
                    "effects" : [

                    ],
                    "start" : 73,
                    "duration" : 46,
                    "mediaStart" : 0,
                    "mediaDuration" : 1,
                    "scalar" : 1,
                    "metadata" : {
                      "clipSpeedAttribute" : false,
                      "default-scale" : "1",
                      "effectApplied" : "none",
                      "lockAspectRatio" : true
                    },
                    "animationTracks" : {

                    }
                  },
                  {
                    "id" : 69,
                    "_type" : "IMFile",
                    "src" : 7,
                    "trackNumber" : 0,
                    "trimStartSum" : 0,
                    "attributes" : {
                      "ident" : "Pasted Image"
                    },
                    "parameters" : {
                      "translation0" : -128.0,
                      "translation1" : -56.0,
                      "sourceCrop0" : 0.0,
                      "sourceCrop1" : 0.0,
                      "sourceCrop2" : 0.0,
                      "sourceCrop3" : 0.0,
                      "geometryCrop0" : 0.0,
                      "geometryCrop1" : 0.0,
                      "geometryCrop2" : 0.0,
                      "geometryCrop3" : 0.0
                    },
                    "effects" : [

                    ],
                    "start" : 246,
                    "duration" : 248,
                    "mediaStart" : 0,
                    "mediaDuration" : 1,
                    "scalar" : 1,
                    "metadata" : {
                      "clipSpeedAttribute" : false,
                      "default-scale" : "1",
                      "effectApplied" : "none",
                      "lockAspectRatio" : true
                    },
                    "animationTracks" : {

                    }
                  },
                  {
                    "id" : 70,
                    "_type" : "IMFile",
                    "src" : 10,
                    "trackNumber" : 0,
                    "trimStartSum" : 93,
                    "attributes" : {
                      "ident" : "Pasted Image"
                    },
                    "parameters" : {
                      "translation0" : -128.0,
                      "translation1" : -76.0,
                      "sourceCrop0" : 0.0,
                      "sourceCrop1" : 0.0,
                      "sourceCrop2" : 0.0,
                      "sourceCrop3" : 0.0,
                      "geometryCrop0" : 0.0,
                      "geometryCrop1" : 0.0,
                      "geometryCrop2" : 0.0,
                      "geometryCrop3" : 0.0
                    },
                    "effects" : [

                    ],
                    "start" : 701,
                    "duration" : 569,
                    "mediaStart" : 0,
                    "mediaDuration" : 1,
                    "scalar" : 1,
                    "metadata" : {
                      "clipSpeedAttribute" : false,
                      "default-scale" : "1",
                      "effectApplied" : "none",
                      "lockAspectRatio" : true
                    },
                    "animationTracks" : {

                    }
                  },
                  {
                    "id" : 71,
                    "_type" : "IMFile",
                    "src" : 56,
                    "trackNumber" : 0,
                    "trimStartSum" : 0,
                    "attributes" : {
                      "ident" : "Pasted Image"
                    },
                    "parameters" : {
                      "translation0" : {
                        "type" : "double",
                        "defaultValue" : -153.823823141448,
                        "interp" : "eioe"
                      },
                      "translation1" : {
                        "type" : "double",
                        "defaultValue" : -10.5968045433012,
                        "interp" : "eioe"
                      },
                      "scale0" : {
                        "type" : "double",
                        "defaultValue" : 2.0,
                        "interp" : "eioe"
                      },
                      "scale1" : {
                        "type" : "double",
                        "defaultValue" : 2.0,
                        "interp" : "eioe"
                      },
                      "sourceCrop0" : {
                        "type" : "double",
                        "defaultValue" : 0.0,
                        "interp" : "eioe"
                      },
                      "sourceCrop1" : {
                        "type" : "double",
                        "defaultValue" : 0.0,
                        "interp" : "eioe"
                      },
                      "sourceCrop2" : {
                        "type" : "double",
                        "defaultValue" : 0.0,
                        "interp" : "eioe"
                      },
                      "sourceCrop3" : {
                        "type" : "double",
                        "defaultValue" : 0.0,
                        "interp" : "eioe"
                      },
                      "geometryCrop0" : {
                        "type" : "double",
                        "defaultValue" : 0.0,
                        "interp" : "eioe"
                      },
                      "geometryCrop1" : {
                        "type" : "double",
                        "defaultValue" : 0.0,
                        "interp" : "eioe"
                      },
                      "geometryCrop2" : {
                        "type" : "double",
                        "defaultValue" : 0.0,
                        "interp" : "eioe"
                      },
                      "geometryCrop3" : {
                        "type" : "double",
                        "defaultValue" : 0.0,
                        "interp" : "eioe"
                      }
                    },
                    "effects" : [

                    ],
                    "start" : 2657,
                    "duration" : 303,
                    "mediaStart" : 0,
                    "mediaDuration" : 1,
                    "scalar" : 1,
                    "metadata" : {
                      "clipSpeedAttribute" : false,
                      "default-scale" : "1",
                      "effectApplied" : "none",
                      "lockAspectRatio" : true
                    },
                    "animationTracks" : {

                    }
                  },
                  {
                    "id" : 72,
                    "_type" : "IMFile",
                    "src" : 59,
                    "trackNumber" : 0,
                    "trimStartSum" : 0,
                    "attributes" : {
                      "ident" : "Pasted Image"
                    },
                    "parameters" : {
                      "translation0" : {
                        "type" : "double",
                        "defaultValue" : -337.0,
                        "interp" : "eioe",
                        "keyframes" : [
                          {
                            "endTime" : 54,
                            "time" : 24,
                            "value" : -537.0,
                            "duration" : 30
                          }
                        ]
                      },
                      "translation1" : {
                        "type" : "double",
                        "defaultValue" : -11.0,
                        "interp" : "eioe",
                        "keyframes" : [
                          {
                            "endTime" : 54,
                            "time" : 24,
                            "value" : -11.0,
                            "duration" : 30
                          }
                        ]
                      },
                      "scale0" : {
                        "type" : "double",
                        "defaultValue" : 2.0,
                        "interp" : "eioe",
                        "keyframes" : [
                          {
                            "endTime" : 54,
                            "time" : 24,
                            "value" : 2.0,
                            "duration" : 30
                          }
                        ]
                      },
                      "scale1" : {
                        "type" : "double",
                        "defaultValue" : 2.0,
                        "interp" : "eioe",
                        "keyframes" : [
                          {
                            "endTime" : 54,
                            "time" : 24,
                            "value" : 2.0,
                            "duration" : 30
                          }
                        ]
                      },
                      "sourceCrop0" : {
                        "type" : "double",
                        "defaultValue" : 0.0,
                        "interp" : "eioe"
                      },
                      "sourceCrop1" : {
                        "type" : "double",
                        "defaultValue" : 0.0,
                        "interp" : "eioe"
                      },
                      "sourceCrop2" : {
                        "type" : "double",
                        "defaultValue" : 0.0,
                        "interp" : "eioe"
                      },
                      "sourceCrop3" : {
                        "type" : "double",
                        "defaultValue" : 0.0,
                        "interp" : "eioe"
                      },
                      "geometryCrop0" : {
                        "type" : "double",
                        "defaultValue" : 0.0,
                        "interp" : "eioe"
                      },
                      "geometryCrop1" : {
                        "type" : "double",
                        "defaultValue" : 0.0,
                        "interp" : "eioe"
                      },
                      "geometryCrop2" : {
                        "type" : "double",
                        "defaultValue" : 0.0,
                        "interp" : "eioe"
                      },
                      "geometryCrop3" : {
                        "type" : "double",
                        "defaultValue" : 0.0,
                        "interp" : "eioe"
                      }
                    },
                    "effects" : [

                    ],
                    "start" : 2960,
                    "duration" : 641,
                    "mediaStart" : 0,
                    "mediaDuration" : 1,
                    "scalar" : 1,
                    "metadata" : {
                      "clipSpeedAttribute" : false,
                      "default-scale" : "1",
                      "effectApplied" : "none",
                      "lockAspectRatio" : true
                    },
                    "animationTracks" : {
                      "visual" : [
                        {
                          "endTime" : 54,
                          "duration" : 30,
                          "range" : [ 24, 30]
                        }
                      ]
                    }
                  },
                  {
                    "id" : 73,
                    "_type" : "IMFile",
                    "src" : 31,
                    "trackNumber" : 0,
                    "trimStartSum" : -55,
                    "attributes" : {
                      "ident" : "Pasted Image"
                    },
                    "parameters" : {
                      "translation0" : -146.560479942456,
                      "scale0" : 0.369617618020632,
                      "scale1" : 0.369617618020632,
                      "sourceCrop0" : 0.0,
                      "sourceCrop1" : 0.0,
                      "sourceCrop2" : 0.0,
                      "sourceCrop3" : 0.0,
                      "geometryCrop0" : 0.0,
                      "geometryCrop1" : 0.0,
                      "geometryCrop2" : 0.0,
                      "geometryCrop3" : 0.0
                    },
                    "effects" : [

                    ],
                    "start" : 3660,
                    "duration" : 461,
                    "mediaStart" : 0,
                    "mediaDuration" : 1,
                    "scalar" : 1,
                    "metadata" : {
                      "clipSpeedAttribute" : false,
                      "default-scale" : "0.479401",
                      "effectApplied" : "none",
                      "lockAspectRatio" : true
                    },
                    "animationTracks" : {

                    }
                  },
                  {
                    "id" : 74,
                    "_type" : "IMFile",
                    "src" : 33,
                    "trackNumber" : 0,
                    "trimStartSum" : -126,
                    "attributes" : {
                      "ident" : "Pasted Image"
                    },
                    "parameters" : {
                      "translation0" : -110.055737077007,
                      "translation1" : -56.399863083982,
                      "scale0" : 0.828037910817176,
                      "scale1" : 0.828037910817176,
                      "sourceCrop0" : 0.0,
                      "sourceCrop1" : 0.0,
                      "sourceCrop2" : 0.0,
                      "sourceCrop3" : 0.0,
                      "geometryCrop0" : 0.0,
                      "geometryCrop1" : 0.0,
                      "geometryCrop2" : 0.0,
                      "geometryCrop3" : 0.0
                    },
                    "effects" : [

                    ],
                    "start" : 4123,
                    "duration" : 85,
                    "mediaStart" : 0,
                    "mediaDuration" : 1,
                    "scalar" : 1,
                    "metadata" : {
                      "clipSpeedAttribute" : false,
                      "default-scale" : "1",
                      "effectApplied" : "none",
                      "lockAspectRatio" : true
                    },
                    "animationTracks" : {

                    }
                  },
                  {
                    "id" : 75,
                    "_type" : "IMFile",
                    "src" : 34,
                    "trackNumber" : 0,
                    "trimStartSum" : 0,
                    "attributes" : {
                      "ident" : "Pasted Image"
                    },
                    "parameters" : {
                      "translation0" : -213.029114410392,
                      "translation1" : -86.7565500927132,
                      "scale0" : 0.462732345312933,
                      "scale1" : 0.462732345312933,
                      "sourceCrop0" : 0.0,
                      "sourceCrop1" : 0.0,
                      "sourceCrop2" : 0.0,
                      "sourceCrop3" : 0.0,
                      "geometryCrop0" : 0.0,
                      "geometryCrop1" : 0.0,
                      "geometryCrop2" : 0.0,
                      "geometryCrop3" : 0.0
                    },
                    "effects" : [

                    ],
                    "start" : 4209,
                    "duration" : 88,
                    "mediaStart" : 0,
                    "mediaDuration" : 1,
                    "scalar" : 1,
                    "metadata" : {
                      "clipSpeedAttribute" : false,
                      "default-scale" : "0.609653",
                      "effectApplied" : "none",
                      "lockAspectRatio" : true
                    },
                    "animationTracks" : {

                    }
                  },
                  {
                    "id" : 76,
                    "_type" : "IMFile",
                    "src" : 36,
                    "trackNumber" : 0,
                    "trimStartSum" : 0,
                    "attributes" : {
                      "ident" : "Pasted Image"
                    },
                    "parameters" : {
                      "translation0" : -234.914506351031,
                      "translation1" : -44.7203293135565,
                      "scale0" : 0.429579842733877,
                      "scale1" : 0.429579842733877,
                      "sourceCrop0" : 0.0,
                      "sourceCrop1" : 0.0,
                      "sourceCrop2" : 0.0,
                      "sourceCrop3" : 0.0,
                      "geometryCrop0" : 0.0,
                      "geometryCrop1" : 0.0,
                      "geometryCrop2" : 0.0,
                      "geometryCrop3" : 0.0
                    },
                    "effects" : [

                    ],
                    "start" : 4298,
                    "duration" : 99,
                    "mediaStart" : 0,
                    "mediaDuration" : 1,
                    "scalar" : 1,
                    "metadata" : {
                      "clipSpeedAttribute" : false,
                      "default-scale" : "0.570071",
                      "effectApplied" : "none",
                      "lockAspectRatio" : true
                    },
                    "animationTracks" : {

                    }
                  },
                  {
                    "id" : 77,
                    "_type" : "IMFile",
                    "src" : 37,
                    "trackNumber" : 0,
                    "trimStartSum" : -43,
                    "attributes" : {
                      "ident" : "Pasted Image"
                    },
                    "parameters" : {
                      "translation0" : {
                        "type" : "double",
                        "defaultValue" : -499.0,
                        "keyframes" : [
                          {
                            "endTime" : 47,
                            "time" : 17,
                            "value" : -248.0,
                            "duration" : 30
                          }
                        ]
                      },
                      "translation1" : {
                        "type" : "double",
                        "defaultValue" : -35.0,
                        "keyframes" : [
                          {
                            "endTime" : 47,
                            "time" : 17,
                            "value" : -35.0,
                            "duration" : 30
                          }
                        ]
                      },
                      "sourceCrop0" : 0.0,
                      "sourceCrop1" : 0.0,
                      "sourceCrop2" : 0.0,
                      "sourceCrop3" : 0.0,
                      "geometryCrop0" : 0.0,
                      "geometryCrop1" : 0.0,
                      "geometryCrop2" : 0.0,
                      "geometryCrop3" : 0.0
                    },
                    "effects" : [

                    ],
                    "start" : 4403,
                    "duration" : 97,
                    "mediaStart" : 0,
                    "mediaDuration" : 1,
                    "scalar" : 1,
                    "metadata" : {
                      "clipSpeedAttribute" : false,
                      "default-scale" : "1",
                      "effectApplied" : "none",
                      "lockAspectRatio" : true
                    },
                    "animationTracks" : {
                      "visual" : [
                        {
                          "endTime" : 47,
                          "duration" : 30,
                          "range" : [ 17, 30]
                        }
                      ]
                    }
                  },
                  {
                    "id" : 78,
                    "_type" : "IMFile",
                    "src" : 39,
                    "trackNumber" : 0,
                    "trimStartSum" : 0,
                    "attributes" : {
                      "ident" : "Pasted Image"
                    },
                    "parameters" : {
                      "translation0" : {
                        "type" : "double",
                        "defaultValue" : -93.0,
                        "keyframes" : [
                          {
                            "endTime" : 30,
                            "time" : 0,
                            "value" : 166.0,
                            "duration" : 30
                          }
                        ]
                      },
                      "translation1" : {
                        "type" : "double",
                        "defaultValue" : -35.0,
                        "keyframes" : [
                          {
                            "endTime" : 30,
                            "time" : 0,
                            "value" : -35.0,
                            "duration" : 30
                          }
                        ]
                      },
                      "sourceCrop0" : 0.0,
                      "sourceCrop1" : 0.0,
                      "sourceCrop2" : 0.0,
                      "sourceCrop3" : 0.0,
                      "geometryCrop0" : 0.0,
                      "geometryCrop1" : 0.0,
                      "geometryCrop2" : 0.0,
                      "geometryCrop3" : 0.0
                    },
                    "effects" : [

                    ],
                    "start" : 4500,
                    "duration" : 90,
                    "mediaStart" : 0,
                    "mediaDuration" : 1,
                    "scalar" : 1,
                    "metadata" : {
                      "clipSpeedAttribute" : false,
                      "default-scale" : "1",
                      "effectApplied" : "none",
                      "lockAspectRatio" : true
                    },
                    "animationTracks" : {
                      "visual" : [
                        {
                          "endTime" : 30,
                          "duration" : 30,
                          "range" : [ 0, 30]
                        }
                      ]
                    }
                  },
                  {
                    "id" : 79,
                    "_type" : "IMFile",
                    "src" : 41,
                    "trackNumber" : 0,
                    "trimStartSum" : 0,
                    "attributes" : {
                      "ident" : "Pasted Image"
                    },
                    "parameters" : {
                      "translation0" : -128.0,
                      "translation1" : -76.0,
                      "sourceCrop0" : 0.0,
                      "sourceCrop1" : 0.0,
                      "sourceCrop2" : 0.0,
                      "sourceCrop3" : 0.0,
                      "geometryCrop0" : 0.0,
                      "geometryCrop1" : 0.0,
                      "geometryCrop2" : 0.0,
                      "geometryCrop3" : 0.0
                    },
                    "effects" : [

                    ],
                    "start" : 4607,
                    "duration" : 295,
                    "mediaStart" : 0,
                    "mediaDuration" : 1,
                    "scalar" : 1,
                    "metadata" : {
                      "clipSpeedAttribute" : false,
                      "default-scale" : "1",
                      "effectApplied" : "none",
                      "lockAspectRatio" : true
                    },
                    "animationTracks" : {

                    }
                  }
                ],
                "transitions" : [
                  {
                    "name" : "Fade",
                    "duration" : 16,
                    "rightMedia" : 68,
                    "attributes" : {
                      "bypass" : false,
                      "reverse" : false,
                      "trivial" : false,
                      "useAudioPreRoll" : true,
                      "useVisualPreRoll" : true
                    }

                  },
                  {
                    "name" : "Fade",
                    "duration" : 30,
                    "rightMedia" : 69,
                    "attributes" : {
                      "bypass" : false,
                      "reverse" : false,
                      "trivial" : false,
                      "useAudioPreRoll" : true,
                      "useVisualPreRoll" : true
                    }

                  },
                  {
                    "name" : "Fade",
                    "duration" : 30,
                    "leftMedia" : 69,
                    "attributes" : {
                      "bypass" : false,
                      "reverse" : false,
                      "trivial" : false,
                      "useAudioPreRoll" : true,
                      "useVisualPreRoll" : true
                    }

                  },
                  {
                    "name" : "Fade",
                    "duration" : 30,
                    "rightMedia" : 70,
                    "attributes" : {
                      "bypass" : false,
                      "reverse" : false,
                      "trivial" : false,
                      "useAudioPreRoll" : true,
                      "useVisualPreRoll" : true
                    }

                  },
                  {
                    "name" : "Fade",
                    "duration" : 30,
                    "leftMedia" : 70,
                    "attributes" : {
                      "bypass" : false,
                      "reverse" : false,
                      "trivial" : false,
                      "useAudioPreRoll" : true,
                      "useVisualPreRoll" : true
                    }

                  },
                  {
                    "name" : "Fade",
                    "duration" : 30,
                    "rightMedia" : 71,
                    "attributes" : {
                      "bypass" : false,
                      "reverse" : false,
                      "trivial" : false,
                      "useAudioPreRoll" : true,
                      "useVisualPreRoll" : true
                    }

                  },
                  {
                    "name" : "Fade",
                    "duration" : 30,
                    "leftMedia" : 72,
                    "attributes" : {
                      "bypass" : false,
                      "reverse" : false,
                      "trivial" : false,
                      "useAudioPreRoll" : true,
                      "useVisualPreRoll" : true
                    }

                  },
                  {
                    "name" : "Fade",
                    "duration" : 30,
                    "rightMedia" : 73,
                    "attributes" : {
                      "bypass" : false,
                      "reverse" : false,
                      "trivial" : false,
                      "useAudioPreRoll" : true,
                      "useVisualPreRoll" : true
                    }

                  },
                  {
                    "name" : "Fade",
                    "duration" : 30,
                    "leftMedia" : 73,
                    "attributes" : {
                      "bypass" : false,
                      "reverse" : false,
                      "trivial" : false,
                      "useAudioPreRoll" : true,
                      "useVisualPreRoll" : true
                    }

                  },
                  {
                    "name" : "Fade",
                    "duration" : 30,
                    "rightMedia" : 74,
                    "attributes" : {
                      "bypass" : false,
                      "reverse" : false,
                      "trivial" : false,
                      "useAudioPreRoll" : true,
                      "useVisualPreRoll" : true
                    }

                  },
                  {
                    "name" : "Fade",
                    "duration" : 30,
                    "leftMedia" : 74,
                    "attributes" : {
                      "bypass" : false,
                      "reverse" : false,
                      "trivial" : false,
                      "useAudioPreRoll" : true,
                      "useVisualPreRoll" : true
                    }

                  },
                  {
                    "name" : "Fade",
                    "duration" : 30,
                    "rightMedia" : 75,
                    "attributes" : {
                      "bypass" : false,
                      "reverse" : false,
                      "trivial" : false,
                      "useAudioPreRoll" : true,
                      "useVisualPreRoll" : true
                    }

                  },
                  {
                    "name" : "Fade",
                    "duration" : 15,
                    "leftMedia" : 75,
                    "attributes" : {
                      "bypass" : false,
                      "reverse" : false,
                      "trivial" : false,
                      "useAudioPreRoll" : true,
                      "useVisualPreRoll" : true
                    }

                  },
                  {
                    "name" : "Fade",
                    "duration" : 30,
                    "rightMedia" : 76,
                    "attributes" : {
                      "bypass" : false,
                      "reverse" : false,
                      "trivial" : false,
                      "useAudioPreRoll" : true,
                      "useVisualPreRoll" : true
                    }

                  },
                  {
                    "name" : "Fade",
                    "duration" : 30,
                    "leftMedia" : 76,
                    "attributes" : {
                      "bypass" : false,
                      "reverse" : false,
                      "trivial" : false,
                      "useAudioPreRoll" : true,
                      "useVisualPreRoll" : true
                    }

                  },
                  {
                    "name" : "Fade",
                    "duration" : 30,
                    "rightMedia" : 77,
                    "attributes" : {
                      "bypass" : false,
                      "reverse" : false,
                      "trivial" : false,
                      "useAudioPreRoll" : true,
                      "useVisualPreRoll" : true
                    }

                  },
                  {
                    "name" : "Fade",
                    "duration" : 30,
                    "leftMedia" : 78,
                    "attributes" : {
                      "bypass" : false,
                      "reverse" : false,
                      "trivial" : false,
                      "useAudioPreRoll" : true,
                      "useVisualPreRoll" : true
                    }

                  },
                  {
                    "name" : "Fade",
                    "duration" : 30,
                    "rightMedia" : 79,
                    "attributes" : {
                      "bypass" : false,
                      "reverse" : false,
                      "trivial" : false,
                      "useAudioPreRoll" : true,
                      "useVisualPreRoll" : true
                    }

                  },
                  {
                    "name" : "Fade",
                    "duration" : 30,
                    "leftMedia" : 79,
                    "attributes" : {
                      "bypass" : false,
                      "reverse" : false,
                      "trivial" : false,
                      "useAudioPreRoll" : true,
                      "useVisualPreRoll" : true
                    }

                  }
                ]
              },
              {
                "trackIndex" : 3,
                "medias" : [
                  {
                    "id" : 80,
                    "_type" : "IMFile",
                    "src" : 52,
                    "trackNumber" : 0,
                    "trimStartSum" : -115,
                    "attributes" : {
                      "ident" : "Pasted Image"
                    },
                    "parameters" : {
                      "translation0" : -128.0,
                      "translation1" : -26.0,
                      "sourceCrop0" : 0.0,
                      "sourceCrop1" : 0.0,
                      "sourceCrop2" : 0.0,
                      "sourceCrop3" : 0.0,
                      "geometryCrop0" : 0.0,
                      "geometryCrop1" : 0.0,
                      "geometryCrop2" : 0.0,
                      "geometryCrop3" : 0.0
                    },
                    "effects" : [

                    ],
                    "start" : 507,
                    "duration" : 177,
                    "mediaStart" : 0,
                    "mediaDuration" : 1,
                    "scalar" : 1,
                    "metadata" : {
                      "clipSpeedAttribute" : false,
                      "default-scale" : "1",
                      "effectApplied" : "none",
                      "lockAspectRatio" : true
                    },
                    "animationTracks" : {

                    }
                  },
                  {
                    "id" : 81,
                    "_type" : "IMFile",
                    "src" : 53,
                    "trackNumber" : 0,
                    "trimStartSum" : 83,
                    "attributes" : {
                      "ident" : "Pasted Image"
                    },
                    "parameters" : {
                      "translation0" : {
                        "type" : "double",
                        "defaultValue" : -130.0,
                        "keyframes" : [
                          {
                            "endTime" : 611,
                            "time" : 581,
                            "value" : -154.4,
                            "duration" : 30
                          }
                        ]
                      },
                      "translation1" : {
                        "type" : "double",
                        "defaultValue" : -88.0,
                        "keyframes" : [
                          {
                            "endTime" : 611,
                            "time" : 581,
                            "value" : -65.1656,
                            "duration" : 30
                          }
                        ]
                      },
                      "scale0" : {
                        "type" : "double",
                        "defaultValue" : 1.0,
                        "keyframes" : [
                          {
                            "endTime" : 611,
                            "time" : 581,
                            "value" : 2.98201,
                            "duration" : 30
                          }
                        ]
                      },
                      "scale1" : {
                        "type" : "double",
                        "defaultValue" : 1.0,
                        "keyframes" : [
                          {
                            "endTime" : 611,
                            "time" : 581,
                            "value" : 2.98201,
                            "duration" : 30
                          }
                        ]
                      },
                      "sourceCrop0" : 0.0,
                      "sourceCrop1" : 0.0,
                      "sourceCrop2" : 0.0,
                      "sourceCrop3" : 0.0,
                      "geometryCrop0" : 0.0,
                      "geometryCrop1" : 0.0,
                      "geometryCrop2" : 0.0,
                      "geometryCrop3" : 0.0
                    },
                    "effects" : [

                    ],
                    "start" : 742,
                    "duration" : 1416,
                    "mediaStart" : 0,
                    "mediaDuration" : 1,
                    "scalar" : 1,
                    "metadata" : {
                      "clipSpeedAttribute" : false,
                      "default-scale" : "1",
                      "effectApplied" : "none",
                      "lockAspectRatio" : true
                    },
                    "animationTracks" : {
                      "visual" : [
                        {
                          "endTime" : 611,
                          "duration" : 30,
                          "range" : [ 581, 30]
                        }
                      ]
                    }
                  },
                  {
                    "id" : 82,
                    "_type" : "IMFile",
                    "src" : 60,
                    "trackNumber" : 0,
                    "trimStartSum" : 0,
                    "attributes" : {
                      "ident" : "Pasted Image"
                    },
                    "parameters" : {
                      "translation0" : {
                        "type" : "double",
                        "defaultValue" : -154.0,
                        "interp" : "eioe"
                      },
                      "translation1" : {
                        "type" : "double",
                        "defaultValue" : -10.0,
                        "interp" : "eioe"
                      },
                      "scale0" : {
                        "type" : "double",
                        "defaultValue" : 2.0,
                        "interp" : "eioe"
                      },
                      "scale1" : {
                        "type" : "double",
                        "defaultValue" : 2.0,
                        "interp" : "eioe"
                      },
                      "sourceCrop0" : {
                        "type" : "double",
                        "defaultValue" : 0.0,
                        "interp" : "eioe"
                      },
                      "sourceCrop1" : {
                        "type" : "double",
                        "defaultValue" : 0.0,
                        "interp" : "eioe"
                      },
                      "sourceCrop2" : {
                        "type" : "double",
                        "defaultValue" : 0.0,
                        "interp" : "eioe"
                      },
                      "sourceCrop3" : {
                        "type" : "double",
                        "defaultValue" : 0.0,
                        "interp" : "eioe"
                      },
                      "geometryCrop0" : {
                        "type" : "double",
                        "defaultValue" : 0.0,
                        "interp" : "eioe"
                      },
                      "geometryCrop1" : {
                        "type" : "double",
                        "defaultValue" : 0.0,
                        "interp" : "eioe"
                      },
                      "geometryCrop2" : {
                        "type" : "double",
                        "defaultValue" : 0.0,
                        "interp" : "eioe"
                      },
                      "geometryCrop3" : {
                        "type" : "double",
                        "defaultValue" : 0.0,
                        "interp" : "eioe"
                      }
                    },
                    "effects" : [

                    ],
                    "start" : 2960,
                    "duration" : 641,
                    "mediaStart" : 0,
                    "mediaDuration" : 1,
                    "scalar" : 1,
                    "metadata" : {
                      "clipSpeedAttribute" : false,
                      "default-scale" : "1",
                      "effectApplied" : "none",
                      "lockAspectRatio" : true
                    },
                    "animationTracks" : {

                    }
                  },
                  {
                    "id" : 83,
                    "_type" : "IMFile",
                    "src" : 35,
                    "trackNumber" : 0,
                    "trimStartSum" : -11,
                    "attributes" : {
                      "ident" : "Pasted Image"
                    },
                    "parameters" : {
                      "translation0" : -108.0,
                      "translation1" : 142.0,
                      "sourceCrop0" : 0.0,
                      "sourceCrop1" : 0.0,
                      "sourceCrop2" : 0.0,
                      "sourceCrop3" : 0.0,
                      "geometryCrop0" : 0.0,
                      "geometryCrop1" : 0.0,
                      "geometryCrop2" : 0.0,
                      "geometryCrop3" : 0.0
                    },
                    "effects" : [

                    ],
                    "start" : 4228,
                    "duration" : 69,
                    "mediaStart" : 0,
                    "mediaDuration" : 1,
                    "scalar" : 1,
                    "metadata" : {
                      "clipSpeedAttribute" : false,
                      "default-scale" : "1",
                      "effectApplied" : "none",
                      "lockAspectRatio" : true
                    },
                    "animationTracks" : {

                    }
                  },
                  {
                    "id" : 84,
                    "_type" : "IMFile",
                    "src" : 56,
                    "trackNumber" : 0,
                    "trimStartSum" : 0,
                    "attributes" : {
                      "ident" : "Pasted Image"
                    },
                    "parameters" : {
                      "translation0" : {
                        "type" : "double",
                        "defaultValue" : -153.823823141448,
                        "interp" : "eioe"
                      },
                      "translation1" : {
                        "type" : "double",
                        "defaultValue" : -10.5968045433012,
                        "interp" : "eioe"
                      },
                      "scale0" : {
                        "type" : "double",
                        "defaultValue" : 2.0,
                        "interp" : "eioe"
                      },
                      "scale1" : {
                        "type" : "double",
                        "defaultValue" : 2.0,
                        "interp" : "eioe"
                      },
                      "sourceCrop0" : {
                        "type" : "double",
                        "defaultValue" : 0.0,
                        "interp" : "eioe"
                      },
                      "sourceCrop1" : {
                        "type" : "double",
                        "defaultValue" : 0.0,
                        "interp" : "eioe"
                      },
                      "sourceCrop2" : {
                        "type" : "double",
                        "defaultValue" : 0.0,
                        "interp" : "eioe"
                      },
                      "sourceCrop3" : {
                        "type" : "double",
                        "defaultValue" : 0.0,
                        "interp" : "eioe"
                      },
                      "geometryCrop0" : {
                        "type" : "double",
                        "defaultValue" : 0.0,
                        "interp" : "eioe"
                      },
                      "geometryCrop1" : {
                        "type" : "double",
                        "defaultValue" : 0.0,
                        "interp" : "eioe"
                      },
                      "geometryCrop2" : {
                        "type" : "double",
                        "defaultValue" : 0.0,
                        "interp" : "eioe"
                      },
                      "geometryCrop3" : {
                        "type" : "double",
                        "defaultValue" : 0.0,
                        "interp" : "eioe"
                      }
                    },
                    "effects" : [

                    ],
                    "start" : 4607,
                    "duration" : 294,
                    "mediaStart" : 0,
                    "mediaDuration" : 1,
                    "scalar" : 1,
                    "metadata" : {
                      "clipSpeedAttribute" : false,
                      "default-scale" : "1",
                      "effectApplied" : "none",
                      "lockAspectRatio" : true
                    },
                    "animationTracks" : {

                    }
                  }
                ],
                "transitions" : [
                  {
                    "name" : "Fade",
                    "duration" : 30,
                    "rightMedia" : 80,
                    "attributes" : {
                      "bypass" : false,
                      "reverse" : false,
                      "trivial" : false,
                      "useAudioPreRoll" : true,
                      "useVisualPreRoll" : true
                    }

                  },
                  {
                    "name" : "Fade",
                    "duration" : 30,
                    "leftMedia" : 80,
                    "attributes" : {
                      "bypass" : false,
                      "reverse" : false,
                      "trivial" : false,
                      "useAudioPreRoll" : true,
                      "useVisualPreRoll" : true
                    }

                  },
                  {
                    "name" : "Fade",
                    "duration" : 30,
                    "rightMedia" : 81,
                    "attributes" : {
                      "bypass" : false,
                      "reverse" : false,
                      "trivial" : false,
                      "useAudioPreRoll" : true,
                      "useVisualPreRoll" : true
                    }

                  },
                  {
                    "name" : "Fade",
                    "duration" : 30,
                    "leftMedia" : 81,
                    "attributes" : {
                      "bypass" : false,
                      "reverse" : false,
                      "trivial" : false,
                      "useAudioPreRoll" : true,
                      "useVisualPreRoll" : true
                    }

                  },
                  {
                    "name" : "Fade",
                    "duration" : 30,
                    "leftMedia" : 82,
                    "attributes" : {
                      "bypass" : false,
                      "reverse" : false,
                      "trivial" : false,
                      "useAudioPreRoll" : true,
                      "useVisualPreRoll" : true
                    }

                  },
                  {
                    "name" : "Fade",
                    "duration" : 19,
                    "rightMedia" : 83,
                    "attributes" : {
                      "bypass" : false,
                      "reverse" : false,
                      "trivial" : false,
                      "useAudioPreRoll" : true,
                      "useVisualPreRoll" : true
                    }

                  },
                  {
                    "name" : "Fade",
                    "duration" : 15,
                    "leftMedia" : 83,
                    "attributes" : {
                      "bypass" : false,
                      "reverse" : false,
                      "trivial" : false,
                      "useAudioPreRoll" : true,
                      "useVisualPreRoll" : true
                    }

                  },
                  {
                    "name" : "Fade",
                    "duration" : 30,
                    "rightMedia" : 84,
                    "attributes" : {
                      "bypass" : false,
                      "reverse" : false,
                      "trivial" : false,
                      "useAudioPreRoll" : true,
                      "useVisualPreRoll" : true
                    }

                  },
                  {
                    "name" : "Fade",
                    "duration" : 30,
                    "leftMedia" : 84,
                    "attributes" : {
                      "bypass" : false,
                      "reverse" : false,
                      "trivial" : false,
                      "useAudioPreRoll" : true,
                      "useVisualPreRoll" : true
                    }

                  }
                ]
              },
              {
                "trackIndex" : 4,
                "medias" : [
                  {
                    "id" : 85,
                    "_type" : "IMFile",
                    "src" : 54,
                    "trackNumber" : 0,
                    "trimStartSum" : 36,
                    "attributes" : {
                      "ident" : "Pasted Image"
                    },
                    "parameters" : {
                      "translation0" : {
                        "type" : "double",
                        "defaultValue" : -148.835512607032,
                        "keyframes" : [
                          {
                            "endTime" : 500,
                            "time" : 470,
                            "value" : -202.836,
                            "duration" : 30
                          },
                          {
                            "endTime" : 625,
                            "time" : 595,
                            "value" : -148.836,
                            "duration" : 30
                          }
                        ]
                      },
                      "translation1" : {
                        "type" : "double",
                        "defaultValue" : -160.640753965706,
                        "keyframes" : [
                          {
                            "endTime" : 500,
                            "time" : 470,
                            "value" : -160.641,
                            "duration" : 30
                          }
                        ]
                      },
                      "scale0" : {
                        "type" : "double",
                        "defaultValue" : 1.7348609065094,
                        "keyframes" : [
                          {
                            "endTime" : 500,
                            "time" : 470,
                            "value" : 1.1583,
                            "duration" : 30
                          },
                          {
                            "endTime" : 625,
                            "time" : 595,
                            "value" : 1.73486,
                            "duration" : 30
                          }
                        ]
                      },
                      "scale1" : {
                        "type" : "double",
                        "defaultValue" : 1.7348609065094,
                        "keyframes" : [
                          {
                            "endTime" : 500,
                            "time" : 470,
                            "value" : 1.73486,
                            "duration" : 30
                          }
                        ]
                      },
                      "sourceCrop0" : 0.0,
                      "sourceCrop1" : 0.0,
                      "sourceCrop2" : 0.0,
                      "sourceCrop3" : 0.0,
                      "geometryCrop0" : 0.0,
                      "geometryCrop1" : 0.0,
                      "geometryCrop2" : 0.0,
                      "geometryCrop3" : 0.0
                    },
                    "effects" : [

                    ],
                    "start" : 1312,
                    "duration" : 634,
                    "mediaStart" : 0,
                    "mediaDuration" : 1,
                    "scalar" : 1,
                    "metadata" : {
                      "clipSpeedAttribute" : false,
                      "default-scale" : "1",
                      "effectApplied" : "none",
                      "lockAspectRatio" : true
                    },
                    "animationTracks" : {
                      "visual" : [
                        {
                          "endTime" : 500,
                          "duration" : 30,
                          "range" : [ 470, 30]
                        },
                        {
                          "endTime" : 625,
                          "duration" : 30,
                          "range" : [ 595, 30]
                        }
                      ]
                    }
                  },
                  {
                    "id" : 86,
                    "_type" : "IMFile",
                    "src" : 61,
                    "trackNumber" : 0,
                    "trimStartSum" : 0,
                    "attributes" : {
                      "ident" : "Pasted Image"
                    },
                    "parameters" : {
                      "translation0" : {
                        "type" : "double",
                        "defaultValue" : 30.0,
                        "interp" : "eioe",
                        "keyframes" : [
                          {
                            "endTime" : 54,
                            "time" : 24,
                            "value" : 230.0,
                            "duration" : 30
                          }
                        ]
                      },
                      "translation1" : {
                        "type" : "double",
                        "defaultValue" : -10.0,
                        "interp" : "eioe"
                      },
                      "scale0" : {
                        "type" : "double",
                        "defaultValue" : 2.0,
                        "interp" : "eioe"
                      },
                      "scale1" : {
                        "type" : "double",
                        "defaultValue" : 2.0,
                        "interp" : "eioe"
                      },
                      "sourceCrop0" : {
                        "type" : "double",
                        "defaultValue" : 0.0,
                        "interp" : "eioe"
                      },
                      "sourceCrop1" : {
                        "type" : "double",
                        "defaultValue" : 0.0,
                        "interp" : "eioe"
                      },
                      "sourceCrop2" : {
                        "type" : "double",
                        "defaultValue" : 0.0,
                        "interp" : "eioe"
                      },
                      "sourceCrop3" : {
                        "type" : "double",
                        "defaultValue" : 0.0,
                        "interp" : "eioe"
                      },
                      "geometryCrop0" : {
                        "type" : "double",
                        "defaultValue" : 0.0,
                        "interp" : "eioe"
                      },
                      "geometryCrop1" : {
                        "type" : "double",
                        "defaultValue" : 0.0,
                        "interp" : "eioe"
                      },
                      "geometryCrop2" : {
                        "type" : "double",
                        "defaultValue" : 0.0,
                        "interp" : "eioe"
                      },
                      "geometryCrop3" : {
                        "type" : "double",
                        "defaultValue" : 0.0,
                        "interp" : "eioe"
                      }
                    },
                    "effects" : [

                    ],
                    "start" : 2960,
                    "duration" : 641,
                    "mediaStart" : 0,
                    "mediaDuration" : 1,
                    "scalar" : 1,
                    "metadata" : {
                      "clipSpeedAttribute" : false,
                      "default-scale" : "1",
                      "effectApplied" : "none",
                      "lockAspectRatio" : true
                    },
                    "animationTracks" : {
                      "visual" : [
                        {
                          "endTime" : 54,
                          "duration" : 30,
                          "range" : [ 24, 30]
                        }
                      ]
                    }
                  }
                ],
                "transitions" : [
                  {
                    "name" : "Fade",
                    "duration" : 30,
                    "rightMedia" : 85,
                    "attributes" : {
                      "bypass" : false,
                      "reverse" : false,
                      "trivial" : false,
                      "useAudioPreRoll" : true,
                      "useVisualPreRoll" : true
                    }

                  },
                  {
                    "name" : "Fade",
                    "duration" : 30,
                    "leftMedia" : 85,
                    "attributes" : {
                      "bypass" : false,
                      "reverse" : false,
                      "trivial" : false,
                      "useAudioPreRoll" : true,
                      "useVisualPreRoll" : true
                    }

                  },
                  {
                    "name" : "Fade",
                    "duration" : 30,
                    "leftMedia" : 86,
                    "attributes" : {
                      "bypass" : false,
                      "reverse" : false,
                      "trivial" : false,
                      "useAudioPreRoll" : true,
                      "useVisualPreRoll" : true
                    }

                  }
                ]
              },
              {
                "trackIndex" : 5,
                "medias" : [
                  {
                    "id" : 87,
                    "_type" : "IMFile",
                    "src" : 55,
                    "trackNumber" : 0,
                    "trimStartSum" : 0,
                    "attributes" : {
                      "ident" : "Pasted Image"
                    },
                    "parameters" : {
                      "translation0" : {
                        "type" : "double",
                        "defaultValue" : 287.0,
                        "keyframes" : [
                          {
                            "endTime" : 124,
                            "time" : 94,
                            "value" : 4.0,
                            "duration" : 30
                          }
                        ]
                      },
                      "translation1" : {
                        "type" : "double",
                        "defaultValue" : -159.391683395492,
                        "keyframes" : [
                          {
                            "endTime" : 124,
                            "time" : 94,
                            "value" : -161.392,
                            "duration" : 30
                          }
                        ]
                      },
                      "scale0" : {
                        "type" : "double",
                        "defaultValue" : 1.1566265060241,
                        "keyframes" : [
                          {
                            "endTime" : 124,
                            "time" : 94,
                            "value" : 1.15663,
                            "duration" : 30
                          }
                        ]
                      },
                      "scale1" : {
                        "type" : "double",
                        "defaultValue" : 1.73500001430511,
                        "keyframes" : [
                          {
                            "endTime" : 124,
                            "time" : 94,
                            "value" : 1.735,
                            "duration" : 30
                          }
                        ]
                      },
                      "sourceCrop0" : 0.0,
                      "sourceCrop1" : 0.0,
                      "sourceCrop2" : 0.0,
                      "sourceCrop3" : 0.0,
                      "geometryCrop0" : 0.0,
                      "geometryCrop1" : 0.0,
                      "geometryCrop2" : 0.0,
                      "geometryCrop3" : 0.0
                    },
                    "effects" : [

                    ],
                    "start" : 1716,
                    "duration" : 185,
                    "mediaStart" : 0,
                    "mediaDuration" : 1,
                    "scalar" : 1,
                    "metadata" : {
                      "clipSpeedAttribute" : false,
                      "default-scale" : "1",
                      "effectApplied" : "none",
                      "lockAspectRatio" : true
                    },
                    "animationTracks" : {
                      "visual" : [
                        {
                          "endTime" : 124,
                          "duration" : 30,
                          "range" : [ 94, 30]
                        }
                      ]
                    }
                  },
                  {
                    "id" : 88,
                    "_type" : "IMFile",
                    "src" : 56,
                    "trackNumber" : 0,
                    "trimStartSum" : 0,
                    "attributes" : {
                      "ident" : "Pasted Image"
                    },
                    "parameters" : {
                      "translation0" : -148.823823141448,
                      "translation1" : -198.596804543301,
                      "scale0" : 1.63400855897129,
                      "scale1" : 1.63400855897129,
                      "sourceCrop0" : 0.0,
                      "sourceCrop1" : 0.0,
                      "sourceCrop2" : 0.0,
                      "sourceCrop3" : 0.0,
                      "geometryCrop0" : 0.0,
                      "geometryCrop1" : 0.0,
                      "geometryCrop2" : 0.0,
                      "geometryCrop3" : 0.0
                    },
                    "effects" : [

                    ],
                    "start" : 1916,
                    "duration" : 242,
                    "mediaStart" : 0,
                    "mediaDuration" : 1,
                    "scalar" : 1,
                    "metadata" : {
                      "clipSpeedAttribute" : false,
                      "default-scale" : "1",
                      "effectApplied" : "none",
                      "lockAspectRatio" : true
                    },
                    "animationTracks" : {

                    }
                  },
                  {
                    "id" : 89,
                    "_type" : "IMFile",
                    "src" : 32,
                    "trackNumber" : 0,
                    "trimStartSum" : -75,
                    "attributes" : {
                      "ident" : "Pasted Image"
                    },
                    "parameters" : {
                      "translation0" : {
                        "type" : "double",
                        "defaultValue" : -59.4551449559493,
                        "keyframes" : [
                          {
                            "endTime" : -45,
                            "time" : -75,
                            "value" : 5.51248518856391,
                            "duration" : 30
                          },
                          {
                            "endTime" : 199,
                            "time" : 169,
                            "value" : -59.4551449559493,
                            "duration" : 30
                          }
                        ]
                      },
                      "translation1" : {
                        "type" : "double",
                        "defaultValue" : -16.2536965712762,
                        "keyframes" : [
                          {
                            "endTime" : -45,
                            "time" : -75,
                            "value" : 78.7660902149365,
                            "duration" : 30
                          },
                          {
                            "endTime" : 199,
                            "time" : 169,
                            "value" : -16.2536965712762,
                            "duration" : 30
                          }
                        ]
                      },
                      "scale0" : {
                        "type" : "double",
                        "defaultValue" : 0.370000004768372,
                        "keyframes" : [
                          {
                            "endTime" : -45,
                            "time" : -75,
                            "value" : 0.674972960778469,
                            "duration" : 30
                          },
                          {
                            "endTime" : 199,
                            "time" : 169,
                            "value" : 0.370000004768372,
                            "duration" : 30
                          }
                        ]
                      },
                      "scale1" : {
                        "type" : "double",
                        "defaultValue" : 0.370000004768372,
                        "keyframes" : [
                          {
                            "endTime" : -45,
                            "time" : -75,
                            "value" : 0.674972960778469,
                            "duration" : 30
                          },
                          {
                            "endTime" : 199,
                            "time" : 169,
                            "value" : 0.370000004768372,
                            "duration" : 30
                          }
                        ]
                      },
                      "sourceCrop0" : 0.0,
                      "sourceCrop1" : 0.0,
                      "sourceCrop2" : 0.0,
                      "sourceCrop3" : 0.0,
                      "geometryCrop0" : 0.0,
                      "geometryCrop1" : 0.0,
                      "geometryCrop2" : 0.0,
                      "geometryCrop3" : 0.0
                    },
                    "effects" : [

                    ],
                    "start" : 3817,
                    "duration" : 274,
                    "mediaStart" : 0,
                    "mediaDuration" : 1,
                    "scalar" : 1,
                    "metadata" : {
                      "clipSpeedAttribute" : false,
                      "default-scale" : "0.680851",
                      "effectApplied" : "none",
                      "lockAspectRatio" : true
                    },
                    "animationTracks" : {
                      "visual" : [
                        {
                          "endTime" : -45,
                          "duration" : 30,
                          "range" : [ -75, 30]
                        },
                        {
                          "endTime" : 199,
                          "duration" : 30,
                          "range" : [ 169, 30]
                        }
                      ]
                    }
                  },
                  {
                    "id" : 90,
                    "_type" : "IMFile",
                    "src" : 38,
                    "trackNumber" : 0,
                    "trimStartSum" : -54,
                    "attributes" : {
                      "ident" : "Pasted Image"
                    },
                    "parameters" : {
                      "translation0" : -173.0,
                      "translation1" : -44.0,
                      "sourceCrop0" : 0.0,
                      "sourceCrop1" : 0.0,
                      "sourceCrop2" : 0.0,
                      "sourceCrop3" : 0.0,
                      "geometryCrop0" : 0.0,
                      "geometryCrop1" : 0.0,
                      "geometryCrop2" : 0.0,
                      "geometryCrop3" : 0.0
                    },
                    "effects" : [

                    ],
                    "start" : 4433,
                    "duration" : 157,
                    "mediaStart" : 0,
                    "mediaDuration" : 1,
                    "scalar" : 1,
                    "metadata" : {
                      "clipSpeedAttribute" : false,
                      "default-scale" : "1",
                      "effectApplied" : "none",
                      "lockAspectRatio" : true
                    },
                    "animationTracks" : {

                    }
                  }
                ],
                "transitions" : [
                  {
                    "name" : "Fade",
                    "duration" : 30,
                    "rightMedia" : 87,
                    "attributes" : {
                      "bypass" : false,
                      "reverse" : false,
                      "trivial" : false,
                      "useAudioPreRoll" : true,
                      "useVisualPreRoll" : true
                    }

                  },
                  {
                    "name" : "Fade",
                    "duration" : 30,
                    "leftMedia" : 87,
                    "attributes" : {
                      "bypass" : false,
                      "reverse" : false,
                      "trivial" : false,
                      "useAudioPreRoll" : true,
                      "useVisualPreRoll" : true
                    }

                  },
                  {
                    "name" : "Fade",
                    "duration" : 30,
                    "rightMedia" : 88,
                    "attributes" : {
                      "bypass" : false,
                      "reverse" : false,
                      "trivial" : false,
                      "useAudioPreRoll" : true,
                      "useVisualPreRoll" : true
                    }

                  },
                  {
                    "name" : "Fade",
                    "duration" : 30,
                    "leftMedia" : 88,
                    "attributes" : {
                      "bypass" : false,
                      "reverse" : false,
                      "trivial" : false,
                      "useAudioPreRoll" : true,
                      "useVisualPreRoll" : true
                    }

                  },
                  {
                    "name" : "Fade",
                    "duration" : 30,
                    "rightMedia" : 90,
                    "attributes" : {
                      "bypass" : false,
                      "reverse" : false,
                      "trivial" : false,
                      "useAudioPreRoll" : true,
                      "useVisualPreRoll" : true
                    }

                  },
                  {
                    "name" : "Fade",
                    "duration" : 30,
                    "leftMedia" : 90,
                    "attributes" : {
                      "bypass" : false,
                      "reverse" : false,
                      "trivial" : false,
                      "useAudioPreRoll" : true,
                      "useVisualPreRoll" : true
                    }

                  }
                ]
              },
              {
                "trackIndex" : 6,
                "medias" : [
                  {
                    "id" : 91,
                    "_type" : "IMFile",
                    "src" : 8,
                    "trackNumber" : 0,
                    "trimStartSum" : 0,
                    "attributes" : {
                      "ident" : "Pasted Image"
                    },
                    "parameters" : {
                      "translation0" : -44.0,
                      "translation1" : -0.14924795991901,
                      "scale0" : 0.955486641566427,
                      "scale1" : 0.955486641566427,
                      "sourceCrop0" : 0.0,
                      "sourceCrop1" : 0.0,
                      "sourceCrop2" : 0.0,
                      "sourceCrop3" : 0.0,
                      "geometryCrop0" : 0.0,
                      "geometryCrop1" : 0.0,
                      "geometryCrop2" : 0.0,
                      "geometryCrop3" : 0.0
                    },
                    "effects" : [

                    ],
                    "start" : 246,
                    "duration" : 248,
                    "mediaStart" : 0,
                    "mediaDuration" : 1,
                    "scalar" : 1,
                    "metadata" : {
                      "clipSpeedAttribute" : false,
                      "default-scale" : "1",
                      "effectApplied" : "none",
                      "lockAspectRatio" : true
                    },
                    "animationTracks" : {

                    }
                  },
                  {
                    "id" : 92,
                    "_type" : "IMFile",
                    "src" : 21,
                    "trackNumber" : 0,
                    "trimStartSum" : 34,
                    "attributes" : {
                      "ident" : "Pasted Image"
                    },
                    "parameters" : {
                      "translation0" : {
                        "type" : "double",
                        "defaultValue" : -448.0,
                        "keyframes" : [
                          {
                            "endTime" : 117,
                            "time" : 87,
                            "value" : -144.0,
                            "duration" : 30
                          },
                          {
                            "endTime" : 233,
                            "time" : 203,
                            "value" : 143.0,
                            "duration" : 30
                          }
                        ]
                      },
                      "translation1" : {
                        "type" : "double",
                        "defaultValue" : -12.0,
                        "keyframes" : [
                          {
                            "endTime" : 117,
                            "time" : 87,
                            "value" : -12.0,
                            "duration" : 30
                          },
                          {
                            "endTime" : 233,
                            "time" : 203,
                            "value" : -12.0,
                            "duration" : 30
                          }
                        ]
                      },
                      "sourceCrop0" : 0.0,
                      "sourceCrop1" : 0.0,
                      "sourceCrop2" : 0.0,
                      "sourceCrop3" : 0.0,
                      "geometryCrop0" : 0.0,
                      "geometryCrop1" : 0.0,
                      "geometryCrop2" : 0.0,
                      "geometryCrop3" : 0.0
                    },
                    "effects" : [

                    ],
                    "start" : 2165,
                    "duration" : 261,
                    "mediaStart" : 0,
                    "mediaDuration" : 1,
                    "scalar" : 1,
                    "metadata" : {
                      "clipSpeedAttribute" : false,
                      "default-scale" : "1",
                      "effectApplied" : "none",
                      "lockAspectRatio" : true
                    },
                    "animationTracks" : {
                      "visual" : [
                        {
                          "endTime" : 117,
                          "duration" : 30,
                          "range" : [ 87, 30]
                        },
                        {
                          "endTime" : 233,
                          "duration" : 30,
                          "range" : [ 203, 30]
                        }
                      ]
                    }
                  },
                  {
                    "id" : 93,
                    "_type" : "Callout",
                    "def" : {
                      "kind" : "remix",
                      "shape" : "arrow",
                      "style" : "basic",
                      "stroke-color-blue" : 0.56078431372549,
                      "stroke-color-green" : 0.686274509803922,
                      "stroke-color-opacity" : 1.0,
                      "stroke-color-red" : 0.0196078431372549,
                      "stroke-width" : 8.0,
                      "tail-x" : {
                        "type" : "double",
                        "defaultValue" : 84.6656989701374,
                        "interp" : "eioe"
                      },
                      "tail-y" : {
                        "type" : "double",
                        "defaultValue" : -76.3038697452053,
                        "interp" : "eioe"
                      },
                      "shape-anchor" : "none",
                      "shape-tail" : "arrow",
                      "stroke-style" : "solid"
                    },
                    "attributes" : {
                      "ident" : "",
                      "autoRotateText" : true
                    },
                    "parameters" : {
                      "translation0" : -289.511786382366,
                      "translation1" : 98.265042675873,
                      "sourceCrop0" : 0.0,
                      "sourceCrop1" : 0.0,
                      "sourceCrop2" : 0.0,
                      "sourceCrop3" : 0.0,
                      "geometryCrop0" : 0.0,
                      "geometryCrop1" : 0.0,
                      "geometryCrop2" : 0.0,
                      "geometryCrop3" : 0.0
                    },
                    "effects" : [

                    ],
                    "start" : 2707,
                    "duration" : 35,
                    "mediaStart" : 0,
                    "mediaDuration" : 35,
                    "scalar" : 1,
                    "metadata" : {
                      "AppliedThemeId" : "",
                      "clipSpeedAttribute" : false,
                      "default-scale" : "1",
                      "effectApplied" : "none",
                      "lockAspectRatio" : true
                    },
                    "animationTracks" : {

                    }
                  },
                  {
                    "id" : 94,
                    "_type" : "Callout",
                    "def" : {
                      "kind" : "remix",
                      "shape" : "arrow",
                      "style" : "basic",
                      "stroke-color-blue" : 0.56078431372549,
                      "stroke-color-green" : 0.686274509803922,
                      "stroke-color-opacity" : 1.0,
                      "stroke-color-red" : 0.0196078431372549,
                      "stroke-width" : 8.0,
                      "tail-x" : {
                        "type" : "double",
                        "defaultValue" : 84.6656989701374,
                        "interp" : "eioe"
                      },
                      "tail-y" : {
                        "type" : "double",
                        "defaultValue" : -76.3038697452053,
                        "interp" : "eioe"
                      },
                      "shape-anchor" : "none",
                      "shape-tail" : "arrow",
                      "stroke-style" : "solid"
                    },
                    "attributes" : {
                      "ident" : "",
                      "autoRotateText" : true
                    },
                    "parameters" : {
                      "translation0" : -108.511786382366,
                      "translation1" : 98.265042675873,
                      "sourceCrop0" : 0.0,
                      "sourceCrop1" : 0.0,
                      "sourceCrop2" : 0.0,
                      "sourceCrop3" : 0.0,
                      "geometryCrop0" : 0.0,
                      "geometryCrop1" : 0.0,
                      "geometryCrop2" : 0.0,
                      "geometryCrop3" : 0.0
                    },
                    "effects" : [

                    ],
                    "start" : 2749,
                    "duration" : 35,
                    "mediaStart" : 0,
                    "mediaDuration" : 35,
                    "scalar" : 1,
                    "metadata" : {
                      "AppliedThemeId" : "",
                      "clipSpeedAttribute" : false,
                      "default-scale" : "1",
                      "effectApplied" : "none",
                      "lockAspectRatio" : true
                    },
                    "animationTracks" : {

                    }
                  },
                  {
                    "id" : 95,
                    "_type" : "Callout",
                    "def" : {
                      "kind" : "remix",
                      "shape" : "arrow",
                      "style" : "basic",
                      "stroke-color-blue" : 0.56078431372549,
                      "stroke-color-green" : 0.686274509803922,
                      "stroke-color-opacity" : 1.0,
                      "stroke-color-red" : 0.0196078431372549,
                      "stroke-width" : 8.0,
                      "tail-x" : {
                        "type" : "double",
                        "defaultValue" : 66.0356673227337,
                        "interp" : "eioe"
                      },
                      "tail-y" : {
                        "type" : "double",
                        "defaultValue" : 66.6725087852927,
                        "interp" : "eioe"
                      },
                      "shape-anchor" : "none",
                      "shape-tail" : "arrow",
                      "stroke-style" : "solid"
                    },
                    "attributes" : {
                      "ident" : "",
                      "autoRotateText" : true
                    },
                    "parameters" : {
                      "translation0" : -89.5117863823656,
                      "translation1" : -99.734957324127,
                      "sourceCrop0" : 0.0,
                      "sourceCrop1" : 0.0,
                      "sourceCrop2" : 0.0,
                      "sourceCrop3" : 0.0,
                      "geometryCrop0" : 0.0,
                      "geometryCrop1" : 0.0,
                      "geometryCrop2" : 0.0,
                      "geometryCrop3" : 0.0
                    },
                    "effects" : [

                    ],
                    "start" : 2793,
                    "duration" : 35,
                    "mediaStart" : 0,
                    "mediaDuration" : 35,
                    "scalar" : 1,
                    "metadata" : {
                      "AppliedThemeId" : "",
                      "clipSpeedAttribute" : false,
                      "default-scale" : "1",
                      "effectApplied" : "none",
                      "lockAspectRatio" : true
                    },
                    "animationTracks" : {

                    }
                  },
                  {
                    "id" : 96,
                    "_type" : "Callout",
                    "def" : {
                      "kind" : "remix",
                      "shape" : "arrow",
                      "style" : "basic",
                      "stroke-color-blue" : 0.56078431372549,
                      "stroke-color-green" : 0.686274509803922,
                      "stroke-color-opacity" : 1.0,
                      "stroke-color-red" : 0.0196078431372549,
                      "stroke-width" : 8.0,
                      "tail-x" : {
                        "type" : "double",
                        "defaultValue" : 84.6656989701374,
                        "interp" : "eioe"
                      },
                      "tail-y" : {
                        "type" : "double",
                        "defaultValue" : -76.3038697452053,
                        "interp" : "eioe"
                      },
                      "shape-anchor" : "none",
                      "shape-tail" : "arrow",
                      "stroke-style" : "solid"
                    },
                    "attributes" : {
                      "ident" : "",
                      "autoRotateText" : true
                    },
                    "parameters" : {
                      "translation0" : -289.511786382366,
                      "translation1" : 98.265042675873,
                      "sourceCrop0" : 0.0,
                      "sourceCrop1" : 0.0,
                      "sourceCrop2" : 0.0,
                      "sourceCrop3" : 0.0,
                      "geometryCrop0" : 0.0,
                      "geometryCrop1" : 0.0,
                      "geometryCrop2" : 0.0,
                      "geometryCrop3" : 0.0
                    },
                    "effects" : [

                    ],
                    "start" : 2831,
                    "duration" : 35,
                    "mediaStart" : 0,
                    "mediaDuration" : 35,
                    "scalar" : 1,
                    "metadata" : {
                      "AppliedThemeId" : "",
                      "clipSpeedAttribute" : false,
                      "default-scale" : "1",
                      "effectApplied" : "none",
                      "lockAspectRatio" : true
                    },
                    "animationTracks" : {

                    }
                  },
                  {
                    "id" : 97,
                    "_type" : "Callout",
                    "def" : {
                      "kind" : "remix",
                      "shape" : "arrow",
                      "style" : "basic",
                      "stroke-color-blue" : 0.56078431372549,
                      "stroke-color-green" : 0.686274509803922,
                      "stroke-color-opacity" : 1.0,
                      "stroke-color-red" : 0.0196078431372549,
                      "stroke-width" : 8.0,
                      "tail-x" : {
                        "type" : "double",
                        "defaultValue" : 84.6656989701374,
                        "interp" : "eioe"
                      },
                      "tail-y" : {
                        "type" : "double",
                        "defaultValue" : -76.3038697452053,
                        "interp" : "eioe"
                      },
                      "shape-anchor" : "none",
                      "shape-tail" : "arrow",
                      "stroke-style" : "solid"
                    },
                    "attributes" : {
                      "ident" : "",
                      "autoRotateText" : true
                    },
                    "parameters" : {
                      "translation0" : -108.511786382366,
                      "translation1" : 98.265042675873,
                      "sourceCrop0" : 0.0,
                      "sourceCrop1" : 0.0,
                      "sourceCrop2" : 0.0,
                      "sourceCrop3" : 0.0,
                      "geometryCrop0" : 0.0,
                      "geometryCrop1" : 0.0,
                      "geometryCrop2" : 0.0,
                      "geometryCrop3" : 0.0
                    },
                    "effects" : [

                    ],
                    "start" : 2873,
                    "duration" : 35,
                    "mediaStart" : 0,
                    "mediaDuration" : 35,
                    "scalar" : 1,
                    "metadata" : {
                      "AppliedThemeId" : "",
                      "clipSpeedAttribute" : false,
                      "default-scale" : "1",
                      "effectApplied" : "none",
                      "lockAspectRatio" : true
                    },
                    "animationTracks" : {

                    }
                  },
                  {
                    "id" : 98,
                    "_type" : "Callout",
                    "def" : {
                      "kind" : "remix",
                      "shape" : "arrow",
                      "style" : "basic",
                      "stroke-color-blue" : 0.56078431372549,
                      "stroke-color-green" : 0.686274509803922,
                      "stroke-color-opacity" : 1.0,
                      "stroke-color-red" : 0.0196078431372549,
                      "stroke-width" : 8.0,
                      "tail-x" : {
                        "type" : "double",
                        "defaultValue" : 66.0356673227337,
                        "interp" : "eioe"
                      },
                      "tail-y" : {
                        "type" : "double",
                        "defaultValue" : 66.6725087852927,
                        "interp" : "eioe"
                      },
                      "shape-anchor" : "none",
                      "shape-tail" : "arrow",
                      "stroke-style" : "solid"
                    },
                    "attributes" : {
                      "ident" : "",
                      "autoRotateText" : true
                    },
                    "parameters" : {
                      "translation0" : -89.5117863823656,
                      "translation1" : -99.734957324127,
                      "sourceCrop0" : 0.0,
                      "sourceCrop1" : 0.0,
                      "sourceCrop2" : 0.0,
                      "sourceCrop3" : 0.0,
                      "geometryCrop0" : 0.0,
                      "geometryCrop1" : 0.0,
                      "geometryCrop2" : 0.0,
                      "geometryCrop3" : 0.0
                    },
                    "effects" : [

                    ],
                    "start" : 2917,
                    "duration" : 35,
                    "mediaStart" : 0,
                    "mediaDuration" : 35,
                    "scalar" : 1,
                    "metadata" : {
                      "AppliedThemeId" : "",
                      "clipSpeedAttribute" : false,
                      "default-scale" : "1",
                      "effectApplied" : "none",
                      "lockAspectRatio" : true
                    },
                    "animationTracks" : {

                    }
                  },
                  {
                    "id" : 99,
                    "_type" : "Callout",
                    "def" : {
                      "kind" : "TypeWinSVG",
                      "shape" : "",
                      "style" : "",
                      "DrawTime" : 1.0,
                      "borderColorBlue" : 0.0,
                      "borderColorGreen" : 1.0,
                      "borderColorRed" : 1.0,
                      "borderWidth" : 3.0,
                      "height" : 59.2505900481523,
                      "width" : 400.987,
                      "xmlContent" : "<?xml version=\"1.0\" encoding=\"utf-8\"?>\r\n<!-- Generator: Adobe Illustrator 15.0.2, SVG Export Plug-In . SVG Version: 6.00 Build 0)  -->\r\n<!DOCTYPE svg PUBLIC \"-//W3C//DTD SVG 1.1//EN\" \"http://www.w3.org/Graphics/SVG/1.1/DTD/svg11.dtd\">\r\n<svg version=\"1.1\" id=\"Layer_1\" xmlns=\"http://www.w3.org/2000/svg\" xmlns:xlink=\"http://www.w3.org/1999/xlink\" x=\"0px\" y=\"0px\"\r\n\t width=\"420px\" height=\"420px\" viewBox=\"0 0 420 420\" enable-background=\"new 0 0 420 420\" xml:space=\"preserve\">\r\n<path fill=\"none\" stroke=\"#000000\" stroke-miterlimit=\"10\" d=\"M60.383,184.37c-8.266,1.782-16.925,2.15-25.362,1.716\r\n\tc55.994-5.072,111.775-11.591,168.218-13.374c45.888-1.45,92.026-3.477,137.946-2.2c18.141,0.504,43.871-1.199,60.004,3.191\r\n\tc-45.926-1.45-92.748-3.568-139.053-3.176c-58.164,0.493-116.047,4.436-174.051,8.389c-24.45,1.666-51.165,0.241-75.268,5.663\r\n\tc50.304-12.151,104.897-12.959,156.303-14.475c64.87-1.914,147.716-11.813,210.706,9.323c-9.012,3.176-22.994,1.516-33.312,1.504\r\n\tc-36.834-0.048-73.586,0.138-110.407,1.222c-76.121,2.242-153.218,16.799-229.066,16.051c71.634-4.535,140.968-15.478,213.52-13.605\r\n\tc48.931,1.264,97.727,5.188,146.572,8.036c13.602,0.793,27.662,0.291,40.895,3.908c-124.527-9.618-246.63-5.8-370.181,12.505\r\n\tc50.926,4.547,108.248-5.809,160.446-5.81c62.115-0.004,124.245,5.786,186.069,6.639c-49.217-11.589-108.559-5.909-158.891-4.592\r\n\tc-53.609,1.4-107.208,9.18-160.684,10.133c63.294,1.356,126.319-7.266,190-3.632c38.305,2.188,76.697,6.343,115.064,7.123\r\n\tc-37.316-6.239-75.154-9.06-112.971-10.182c-56.831-1.684-117.409-5.038-173.903,3.298c90.708,0.773,187.308-10.865,276.505,13.346\"\r\n\t/>\r\n</svg>\r\n"
                    },
                    "attributes" : {
                      "ident" : "",
                      "autoRotateText" : true
                    },
                    "parameters" : {
                      "translation0" : -564.0,
                      "translation1" : 104.800386042881,
                      "scale0" : 0.338868018490114,
                      "scale1" : 0.338868018490114,
                      "sourceCrop0" : 0.0,
                      "sourceCrop1" : 0.0,
                      "sourceCrop2" : 0.0,
                      "sourceCrop3" : 0.0,
                      "geometryCrop0" : 0.0,
                      "geometryCrop1" : 0.0,
                      "geometryCrop2" : 0.0,
                      "geometryCrop3" : 0.0
                    },
                    "leftEdgeMods" : [
                      {
                        "group" : "DrawPercentageFade",
                        "duration" : 30,
                        "parameters" : [
                          {
                            "name" : "DrawTime",
                              "func" : "FadeInFunc"
                            }
                        ]
                      }
                    ],
                    "effects" : [

                    ],
                    "start" : 3954,
                    "duration" : 106,
                    "mediaStart" : 0,
                    "mediaDuration" : 106,
                    "scalar" : 1,
                    "metadata" : {
                      "clipSpeedAttribute" : false,
                      "default-scale" : "1",
                      "effectApplied" : "none",
                      "lockAspectRatio" : true
                    },
                    "animationTracks" : {

                    }
                  },
                  {
                    "id" : 100,
                    "_type" : "IMFile",
                    "src" : 43,
                    "trackNumber" : 0,
                    "trimStartSum" : 0,
                    "attributes" : {
                      "ident" : "Pasted Image"
                    },
                    "parameters" : {
                      "translation0" : 212.0,
                      "translation1" : -106.0,
                      "sourceCrop0" : 0.0,
                      "sourceCrop1" : 0.0,
                      "sourceCrop2" : 0.0,
                      "sourceCrop3" : 0.0,
                      "geometryCrop0" : 0.0,
                      "geometryCrop1" : 0.0,
                      "geometryCrop2" : 0.0,
                      "geometryCrop3" : 0.0
                    },
                    "effects" : [

                    ],
                    "start" : 4722,
                    "duration" : 180,
                    "mediaStart" : 0,
                    "mediaDuration" : 1,
                    "scalar" : 1,
                    "metadata" : {
                      "clipSpeedAttribute" : false,
                      "default-scale" : "1",
                      "effectApplied" : "none",
                      "lockAspectRatio" : true
                    },
                    "animationTracks" : {

                    }
                  }
                ],
                "transitions" : [
                  {
                    "name" : "Fade",
                    "duration" : 30,
                    "rightMedia" : 91,
                    "attributes" : {
                      "bypass" : false,
                      "reverse" : false,
                      "trivial" : false,
                      "useAudioPreRoll" : true,
                      "useVisualPreRoll" : true
                    }

                  },
                  {
                    "name" : "Fade",
                    "duration" : 30,
                    "leftMedia" : 91,
                    "attributes" : {
                      "bypass" : false,
                      "reverse" : false,
                      "trivial" : false,
                      "useAudioPreRoll" : true,
                      "useVisualPreRoll" : true
                    }

                  },
                  {
                    "name" : "Fade",
                    "duration" : 30,
                    "rightMedia" : 92,
                    "attributes" : {
                      "bypass" : false,
                      "reverse" : false,
                      "trivial" : false,
                      "useAudioPreRoll" : true,
                      "useVisualPreRoll" : true
                    }

                  },
                  {
                    "name" : "Fade",
                    "duration" : 30,
                    "leftMedia" : 92,
                    "attributes" : {
                      "bypass" : false,
                      "reverse" : false,
                      "trivial" : false,
                      "useAudioPreRoll" : true,
                      "useVisualPreRoll" : true
                    }

                  },
                  {
                    "name" : "Fade",
                    "duration" : 14,
                    "rightMedia" : 93,
                    "attributes" : {
                      "bypass" : false,
                      "reverse" : false,
                      "trivial" : false,
                      "useAudioPreRoll" : true,
                      "useVisualPreRoll" : true
                    }

                  },
                  {
                    "name" : "Fade",
                    "duration" : 14,
                    "leftMedia" : 93,
                    "attributes" : {
                      "bypass" : false,
                      "reverse" : false,
                      "trivial" : false,
                      "useAudioPreRoll" : true,
                      "useVisualPreRoll" : true
                    }

                  },
                  {
                    "name" : "Fade",
                    "duration" : 14,
                    "rightMedia" : 94,
                    "attributes" : {
                      "bypass" : false,
                      "reverse" : false,
                      "trivial" : false,
                      "useAudioPreRoll" : true,
                      "useVisualPreRoll" : true
                    }

                  },
                  {
                    "name" : "Fade",
                    "duration" : 14,
                    "leftMedia" : 94,
                    "attributes" : {
                      "bypass" : false,
                      "reverse" : false,
                      "trivial" : false,
                      "useAudioPreRoll" : true,
                      "useVisualPreRoll" : true
                    }

                  },
                  {
                    "name" : "Fade",
                    "duration" : 14,
                    "rightMedia" : 95,
                    "attributes" : {
                      "bypass" : false,
                      "reverse" : false,
                      "trivial" : false,
                      "useAudioPreRoll" : true,
                      "useVisualPreRoll" : true
                    }

                  },
                  {
                    "name" : "Fade",
                    "duration" : 14,
                    "leftMedia" : 95,
                    "attributes" : {
                      "bypass" : false,
                      "reverse" : false,
                      "trivial" : false,
                      "useAudioPreRoll" : true,
                      "useVisualPreRoll" : true
                    }

                  },
                  {
                    "name" : "Fade",
                    "duration" : 14,
                    "rightMedia" : 96,
                    "attributes" : {
                      "bypass" : false,
                      "reverse" : false,
                      "trivial" : false,
                      "useAudioPreRoll" : true,
                      "useVisualPreRoll" : true
                    }

                  },
                  {
                    "name" : "Fade",
                    "duration" : 14,
                    "leftMedia" : 96,
                    "attributes" : {
                      "bypass" : false,
                      "reverse" : false,
                      "trivial" : false,
                      "useAudioPreRoll" : true,
                      "useVisualPreRoll" : true
                    }

                  },
                  {
                    "name" : "Fade",
                    "duration" : 14,
                    "rightMedia" : 97,
                    "attributes" : {
                      "bypass" : false,
                      "reverse" : false,
                      "trivial" : false,
                      "useAudioPreRoll" : true,
                      "useVisualPreRoll" : true
                    }

                  },
                  {
                    "name" : "Fade",
                    "duration" : 14,
                    "leftMedia" : 97,
                    "attributes" : {
                      "bypass" : false,
                      "reverse" : false,
                      "trivial" : false,
                      "useAudioPreRoll" : true,
                      "useVisualPreRoll" : true
                    }

                  },
                  {
                    "name" : "Fade",
                    "duration" : 14,
                    "rightMedia" : 98,
                    "attributes" : {
                      "bypass" : false,
                      "reverse" : false,
                      "trivial" : false,
                      "useAudioPreRoll" : true,
                      "useVisualPreRoll" : true
                    }

                  },
                  {
                    "name" : "Fade",
                    "duration" : 14,
                    "leftMedia" : 98,
                    "attributes" : {
                      "bypass" : false,
                      "reverse" : false,
                      "trivial" : false,
                      "useAudioPreRoll" : true,
                      "useVisualPreRoll" : true
                    }

                  },
                  {
                    "name" : "Fade",
                    "duration" : 30,
                    "leftMedia" : 99,
                    "attributes" : {
                      "bypass" : false,
                      "reverse" : false,
                      "trivial" : false,
                      "useAudioPreRoll" : false,
                      "useVisualPreRoll" : true
                    }

                  },
                  {
                    "name" : "Fade",
                    "duration" : 30,
                    "rightMedia" : 100,
                    "attributes" : {
                      "bypass" : false,
                      "reverse" : false,
                      "trivial" : false,
                      "useAudioPreRoll" : true,
                      "useVisualPreRoll" : true
                    }

                  },
                  {
                    "name" : "Fade",
                    "duration" : 30,
                    "leftMedia" : 100,
                    "attributes" : {
                      "bypass" : false,
                      "reverse" : false,
                      "trivial" : false,
                      "useAudioPreRoll" : true,
                      "useVisualPreRoll" : true
                    }

                  }
                ]
              },
              {
                "trackIndex" : 7,
                "medias" : [
                  {
                    "id" : 101,
                    "_type" : "IMFile",
                    "src" : 4,
                    "trackNumber" : 0,
                    "trimStartSum" : 0,
                    "attributes" : {
                      "ident" : "In this lab, we will:\r\nInstall Druid\r\n"
                    },
                    "parameters" : {
                      "translation0" : -224.0,
                      "translation1" : 52.0,
                      "sourceCrop0" : 0.0,
                      "sourceCrop1" : 0.0,
                      "sourceCrop2" : 0.0,
                      "sourceCrop3" : 0.0,
                      "geometryCrop0" : 0.0,
                      "geometryCrop1" : 0.0,
                      "geometryCrop2" : 0.0,
                      "geometryCrop3" : 0.0
                    },
                    "effects" : [

                    ],
                    "start" : 89,
                    "duration" : 56,
                    "mediaStart" : 0,
                    "mediaDuration" : 1,
                    "scalar" : 1,
                    "metadata" : {
                      "clipSpeedAttribute" : false,
                      "default-scale" : "1",
                      "effectApplied" : "none",
                      "lockAspectRatio" : true
                    },
                    "animationTracks" : {

                    }
                  },
                  {
                    "id" : 102,
                    "_type" : "StitchedMedia",
                    "minMediaStart" : 0,
                    "attributes" : {
                      "ident" : "Screen Recording 2022-07-06 at 11.16.13 AM",
                      "gain" : 1.0,
                      "mixToMono" : false,
                      "loudnessNormalization" : true,
                      "sourceFileOffset" : 0
                    },
                    "parameters" : {
                      "translation0" : -227.25458821003,
                      "translation1" : -0.136184120456241,
                      "scale0" : 0.269840882596768,
                      "scale1" : 0.269840882596768,
                      "sourceCrop0" : 0.0,
                      "sourceCrop1" : 0.0,
                      "sourceCrop2" : 0.0,
                      "sourceCrop3" : 0.0,
                      "geometryCrop0" : 0.0,
                      "geometryCrop1" : 0.0,
                      "geometryCrop2" : 0.0,
                      "geometryCrop3" : 0.0,
                      "cursorOpacity" : 1.0,
                      "cursorScale" : 1.0
                    },
                    "medias" : [
                        {
                          "id" : 103,
                          "_type" : "VMFile",
                          "src" : 6,
                          "trackNumber" : 0,
                          "attributes" : {
                            "ident" : "Screen Recording 2022-07-06 at 11.16.13 AM"
                          },
                          "parameters" : {
                            "sourceCrop0" : 0.0,
                            "sourceCrop1" : 0.0,
                            "sourceCrop2" : 0.0,
                            "sourceCrop3" : 0.0,
                            "geometryCrop0" : 0.0,
                            "geometryCrop1" : 0.0,
                            "geometryCrop2" : 0.0,
                            "geometryCrop3" : 0.0
                          },
                          "effects" : [

                          ],
                          "start" : 0,
                          "duration" : 382,
                          "mediaStart" : 0,
                          "mediaDuration" : 382,
                          "scalar" : 1,
                          "metadata" : {
                            "clipSpeedAttribute" : false,
                            "default-scale" : "0.513552",
                            "effectApplied" : "none",
                            "lockAspectRatio" : true
                          },
                          "animationTracks" : {

                          }
                        },
                        {
                          "id" : 104,
                          "_type" : "VMFile",
                          "src" : 6,
                          "trackNumber" : 0,
                          "attributes" : {
                            "ident" : "Screen Recording 2022-07-06 at 11.16.13 AM"
                          },
                          "parameters" : {
                            "sourceCrop0" : 0.0,
                            "sourceCrop1" : 0.0,
                            "sourceCrop2" : 0.0,
                            "sourceCrop3" : 0.0,
                            "geometryCrop0" : 0.0,
                            "geometryCrop1" : 0.0,
                            "geometryCrop2" : 0.0,
                            "geometryCrop3" : 0.0
                          },
                          "effects" : [

                          ],
                          "start" : 382,
                          "duration" : 252,
                          "mediaStart" : 631,
                          "mediaDuration" : 252,
                          "scalar" : 1,
                          "metadata" : {
                            "clipSpeedAttribute" : false,
                            "default-scale" : "0.513552",
                            "effectApplied" : "none",
                            "lockAspectRatio" : true
                          },
                          "animationTracks" : {

                          }
                        }
                    ],
                    "effects" : [

                    ],
                    "start" : 246,
                    "duration" : 248,
                    "mediaStart" : 102,
                    "mediaDuration" : "2232/5",
                    "scalar" : "5/9",
                    "metadata" : {
                      "clipSpeedAttribute" : true,
                      "default-scale" : "0.513552",
                      "effectApplied" : "Clip Speed",
                      "lockAspectRatio" : true
                    },
                    "animationTracks" : {

                    }
                  },
                  {
                    "id" : 105,
                    "_type" : "IMFile",
                    "src" : 13,
                    "trackNumber" : 0,
                    "trimStartSum" : 0,
                    "attributes" : {
                      "ident" : "Pasted Image"
                    },
                    "parameters" : {
                      "translation0" : {
                        "type" : "double",
                        "defaultValue" : -484.188133984124,
                        "keyframes" : [
                          {
                            "endTime" : 62,
                            "time" : 32,
                            "value" : -131.270750679032,
                            "duration" : 30
                          }
                        ]
                      },
                      "translation1" : {
                        "type" : "double",
                        "defaultValue" : 0.216158275458298,
                        "keyframes" : [
                          {
                            "endTime" : 62,
                            "time" : 32,
                            "value" : -131.99754744583,
                            "duration" : 30
                          }
                        ]
                      },
                      "scale0" : {
                        "type" : "double",
                        "defaultValue" : 1.61586366309973,
                        "keyframes" : [
                          {
                            "endTime" : 62,
                            "time" : 32,
                            "value" : 0.592463475516492,
                            "duration" : 30
                          }
                        ]
                      },
                      "scale1" : {
                        "type" : "double",
                        "defaultValue" : 1.61586366309973,
                        "keyframes" : [
                          {
                            "endTime" : 62,
                            "time" : 32,
                            "value" : 0.592463475516492,
                            "duration" : 30
                          }
                        ]
                      },
                      "sourceCrop0" : 0.0,
                      "sourceCrop1" : 0.0,
                      "sourceCrop2" : 0.0,
                      "sourceCrop3" : 0.0,
                      "geometryCrop0" : 0.0,
                      "geometryCrop1" : 0.0,
                      "geometryCrop2" : 0.0,
                      "geometryCrop3" : 0.0
                    },
                    "effects" : [

                    ],
                    "start" : 886,
                    "duration" : 68,
                    "mediaStart" : 0,
                    "mediaDuration" : 1,
                    "scalar" : 1,
                    "metadata" : {
                      "clipSpeedAttribute" : false,
                      "default-scale" : "1",
                      "effectApplied" : "none",
                      "lockAspectRatio" : true
                    },
                    "animationTracks" : {
                      "visual" : [
                        {
                          "endTime" : 62,
                          "duration" : 30,
                          "range" : [ 32, 30]
                        }
                      ]
                    }
                  },
                  {
                    "id" : 106,
                    "_type" : "IMFile",
                    "src" : 14,
                    "trackNumber" : 0,
                    "trimStartSum" : 0,
                    "attributes" : {
                      "ident" : "Pasted Image"
                    },
                    "parameters" : {
                      "translation0" : {
                        "type" : "double",
                        "defaultValue" : -480.248730478384,
                        "keyframes" : [
                          {
                            "endTime" : 72,
                            "time" : 42,
                            "value" : -127.248730478384,
                            "duration" : 30
                          }
                        ]
                      },
                      "translation1" : {
                        "type" : "double",
                        "defaultValue" : -34.4958494473887,
                        "keyframes" : [
                          {
                            "endTime" : 72,
                            "time" : 42,
                            "value" : -132.173676777703,
                            "duration" : 30
                          }
                        ]
                      },
                      "scale0" : {
                        "type" : "double",
                        "defaultValue" : 0.936144981443093,
                        "keyframes" : [
                          {
                            "endTime" : 72,
                            "time" : 42,
                            "value" : 0.129592839617472,
                            "duration" : 30
                          }
                        ]
                      },
                      "scale1" : {
                        "type" : "double",
                        "defaultValue" : 0.936144981443093,
                        "keyframes" : [
                          {
                            "endTime" : 72,
                            "time" : 42,
                            "value" : 0.129592839617472,
                            "duration" : 30
                          }
                        ]
                      },
                      "sourceCrop0" : 0.0,
                      "sourceCrop1" : 0.0,
                      "sourceCrop2" : 0.0,
                      "sourceCrop3" : 0.0,
                      "geometryCrop0" : 0.0,
                      "geometryCrop1" : 0.0,
                      "geometryCrop2" : 0.0,
                      "geometryCrop3" : 0.0
                    },
                    "effects" : [

                    ],
                    "start" : 956,
                    "duration" : 73,
                    "mediaStart" : 0,
                    "mediaDuration" : 1,
                    "scalar" : 1,
                    "metadata" : {
                      "clipSpeedAttribute" : false,
                      "default-scale" : "1",
                      "effectApplied" : "none",
                      "lockAspectRatio" : true
                    },
                    "animationTracks" : {
                      "visual" : [
                        {
                          "endTime" : 72,
                          "duration" : 30,
                          "range" : [ 42, 30]
                        }
                      ]
                    }
                  },
                  {
                    "id" : 107,
                    "_type" : "IMFile",
                    "src" : 57,
                    "trackNumber" : 0,
                    "trimStartSum" : 35,
                    "attributes" : {
                      "ident" : "Pasted Image"
                    },
                    "parameters" : {
                      "translation0" : {
                        "type" : "double",
                        "defaultValue" : -148.823823141448,
                        "keyframes" : [
                          {
                            "endTime" : 65,
                            "time" : 35,
                            "value" : -150.0,
                            "duration" : 30
                          },
                          {
                            "endTime" : 593,
                            "time" : 563,
                            "value" : -153.781,
                            "duration" : 30
                          }
                        ]
                      },
                      "translation1" : {
                        "type" : "double",
                        "defaultValue" : -198.596804543301,
                        "keyframes" : [
                          {
                            "endTime" : 65,
                            "time" : 35,
                            "value" : -18.9154728558571,
                            "duration" : 30
                          },
                          {
                            "endTime" : 593,
                            "time" : 563,
                            "value" : -9.7436,
                            "duration" : 30
                          }
                        ]
                      },
                      "scale0" : {
                        "type" : "double",
                        "defaultValue" : 1.63400855897129,
                        "keyframes" : [
                          {
                            "endTime" : 65,
                            "time" : 35,
                            "value" : 4.06300083370511,
                            "duration" : 30
                          },
                          {
                            "endTime" : 593,
                            "time" : 563,
                            "value" : 2.0,
                            "duration" : 30
                          }
                        ]
                      },
                      "scale1" : {
                        "type" : "double",
                        "defaultValue" : 1.63400855897129,
                        "keyframes" : [
                          {
                            "endTime" : 65,
                            "time" : 35,
                            "value" : 4.06300083370511,
                            "duration" : 30
                          },
                          {
                            "endTime" : 593,
                            "time" : 563,
                            "value" : 2.0,
                            "duration" : 30
                          }
                        ]
                      },
                      "sourceCrop0" : 0.0,
                      "sourceCrop1" : 0.0,
                      "sourceCrop2" : 0.0,
                      "sourceCrop3" : 0.0,
                      "geometryCrop0" : 0.0,
                      "geometryCrop1" : 0.0,
                      "geometryCrop2" : 0.0,
                      "geometryCrop3" : 0.0
                    },
                    "effects" : [

                    ],
                    "start" : 2128,
                    "duration" : 559,
                    "mediaStart" : 0,
                    "mediaDuration" : 1,
                    "scalar" : 1,
                    "metadata" : {
                      "clipSpeedAttribute" : false,
                      "default-scale" : "1",
                      "effectApplied" : "none",
                      "lockAspectRatio" : true
                    },
                    "animationTracks" : {
                      "visual" : [
                        {
                          "endTime" : 65,
                          "duration" : 30,
                          "range" : [ 35, 30]
                        },
                        {
                          "endTime" : 593,
                          "duration" : 30,
                          "range" : [ 563, 30]
                        }
                      ]
                    }
                  },
                  {
                    "id" : 108,
                    "_type" : "Callout",
                    "def" : {
                      "kind" : "remix",
                      "shape" : "arrow",
                      "style" : "basic",
                      "stroke-color-blue" : 0.56078431372549,
                      "stroke-color-green" : 0.686274509803922,
                      "stroke-color-opacity" : 1.0,
                      "stroke-color-red" : 0.0196078431372549,
                      "stroke-width" : 8.0,
                      "tail-x" : {
                        "type" : "double",
                        "defaultValue" : 84.6656989701374,
                        "interp" : "eioe"
                      },
                      "tail-y" : {
                        "type" : "double",
                        "defaultValue" : -76.3038697452053,
                        "interp" : "eioe"
                      },
                      "shape-anchor" : "none",
                      "shape-tail" : "arrow",
                      "stroke-style" : "solid"
                    },
                    "attributes" : {
                      "ident" : "",
                      "autoRotateText" : true
                    },
                    "parameters" : {
                      "translation0" : -109.511786382366,
                      "translation1" : -28.734957324127,
                      "sourceCrop0" : 0.0,
                      "sourceCrop1" : 0.0,
                      "sourceCrop2" : 0.0,
                      "sourceCrop3" : 0.0,
                      "geometryCrop0" : 0.0,
                      "geometryCrop1" : 0.0,
                      "geometryCrop2" : 0.0,
                      "geometryCrop3" : 0.0
                    },
                    "effects" : [

                    ],
                    "start" : 2707,
                    "duration" : 35,
                    "mediaStart" : 0,
                    "mediaDuration" : 35,
                    "scalar" : 1,
                    "metadata" : {
                      "AppliedThemeId" : "",
                      "clipSpeedAttribute" : false,
                      "default-scale" : "1",
                      "effectApplied" : "none",
                      "lockAspectRatio" : true
                    },
                    "animationTracks" : {

                    }
                  },
                  {
                    "id" : 109,
                    "_type" : "Callout",
                    "def" : {
                      "kind" : "remix",
                      "shape" : "arrow",
                      "style" : "basic",
                      "stroke-color-blue" : 0.56078431372549,
                      "stroke-color-green" : 0.686274509803922,
                      "stroke-color-opacity" : 1.0,
                      "stroke-color-red" : 0.0196078431372549,
                      "stroke-width" : 8.0,
                      "tail-x" : {
                        "type" : "double",
                        "defaultValue" : 84.6656989701374,
                        "interp" : "eioe"
                      },
                      "tail-y" : {
                        "type" : "double",
                        "defaultValue" : -76.3038697452053,
                        "interp" : "eioe"
                      },
                      "shape-anchor" : "none",
                      "shape-tail" : "arrow",
                      "stroke-style" : "solid"
                    },
                    "attributes" : {
                      "ident" : "",
                      "autoRotateText" : true
                    },
                    "parameters" : {
                      "translation0" : -289.511786382366,
                      "translation1" : 98.265042675873,
                      "sourceCrop0" : 0.0,
                      "sourceCrop1" : 0.0,
                      "sourceCrop2" : 0.0,
                      "sourceCrop3" : 0.0,
                      "geometryCrop0" : 0.0,
                      "geometryCrop1" : 0.0,
                      "geometryCrop2" : 0.0,
                      "geometryCrop3" : 0.0
                    },
                    "effects" : [

                    ],
                    "start" : 2772,
                    "duration" : 35,
                    "mediaStart" : 0,
                    "mediaDuration" : 35,
                    "scalar" : 1,
                    "metadata" : {
                      "AppliedThemeId" : "",
                      "clipSpeedAttribute" : false,
                      "default-scale" : "1",
                      "effectApplied" : "none",
                      "lockAspectRatio" : true
                    },
                    "animationTracks" : {

                    }
                  },
                  {
                    "id" : 110,
                    "_type" : "Callout",
                    "def" : {
                      "kind" : "remix",
                      "shape" : "arrow",
                      "style" : "basic",
                      "stroke-color-blue" : 0.56078431372549,
                      "stroke-color-green" : 0.686274509803922,
                      "stroke-color-opacity" : 1.0,
                      "stroke-color-red" : 0.0196078431372549,
                      "stroke-width" : 8.0,
                      "tail-x" : {
                        "type" : "double",
                        "defaultValue" : 84.6656989701374,
                        "interp" : "eioe"
                      },
                      "tail-y" : {
                        "type" : "double",
                        "defaultValue" : -76.3038697452053,
                        "interp" : "eioe"
                      },
                      "shape-anchor" : "none",
                      "shape-tail" : "arrow",
                      "stroke-style" : "solid"
                    },
                    "attributes" : {
                      "ident" : "",
                      "autoRotateText" : true
                    },
                    "parameters" : {
                      "translation0" : -109.511786382366,
                      "translation1" : -28.734957324127,
                      "sourceCrop0" : 0.0,
                      "sourceCrop1" : 0.0,
                      "sourceCrop2" : 0.0,
                      "sourceCrop3" : 0.0,
                      "geometryCrop0" : 0.0,
                      "geometryCrop1" : 0.0,
                      "geometryCrop2" : 0.0,
                      "geometryCrop3" : 0.0
                    },
                    "effects" : [

                    ],
                    "start" : 2831,
                    "duration" : 35,
                    "mediaStart" : 0,
                    "mediaDuration" : 35,
                    "scalar" : 1,
                    "metadata" : {
                      "AppliedThemeId" : "",
                      "clipSpeedAttribute" : false,
                      "default-scale" : "1",
                      "effectApplied" : "none",
                      "lockAspectRatio" : true
                    },
                    "animationTracks" : {

                    }
                  },
                  {
                    "id" : 111,
                    "_type" : "Callout",
                    "def" : {
                      "kind" : "remix",
                      "shape" : "arrow",
                      "style" : "basic",
                      "stroke-color-blue" : 0.56078431372549,
                      "stroke-color-green" : 0.686274509803922,
                      "stroke-color-opacity" : 1.0,
                      "stroke-color-red" : 0.0196078431372549,
                      "stroke-width" : 8.0,
                      "tail-x" : {
                        "type" : "double",
                        "defaultValue" : 84.6656989701374,
                        "interp" : "eioe"
                      },
                      "tail-y" : {
                        "type" : "double",
                        "defaultValue" : -76.3038697452053,
                        "interp" : "eioe"
                      },
                      "shape-anchor" : "none",
                      "shape-tail" : "arrow",
                      "stroke-style" : "solid"
                    },
                    "attributes" : {
                      "ident" : "",
                      "autoRotateText" : true
                    },
                    "parameters" : {
                      "translation0" : -289.511786382366,
                      "translation1" : 98.265042675873,
                      "sourceCrop0" : 0.0,
                      "sourceCrop1" : 0.0,
                      "sourceCrop2" : 0.0,
                      "sourceCrop3" : 0.0,
                      "geometryCrop0" : 0.0,
                      "geometryCrop1" : 0.0,
                      "geometryCrop2" : 0.0,
                      "geometryCrop3" : 0.0
                    },
                    "effects" : [

                    ],
                    "start" : 2896,
                    "duration" : 35,
                    "mediaStart" : 0,
                    "mediaDuration" : 35,
                    "scalar" : 1,
                    "metadata" : {
                      "AppliedThemeId" : "",
                      "clipSpeedAttribute" : false,
                      "default-scale" : "1",
                      "effectApplied" : "none",
                      "lockAspectRatio" : true
                    },
                    "animationTracks" : {

                    }
                  }
                ],
                "transitions" : [
                  {
                    "name" : "Fade",
                    "duration" : 30,
                    "rightMedia" : 101,
                    "attributes" : {
                      "bypass" : false,
                      "reverse" : false,
                      "trivial" : false,
                      "useAudioPreRoll" : true,
                      "useVisualPreRoll" : true
                    }

                  },
                  {
                    "name" : "Fade",
                    "duration" : 30,
                    "rightMedia" : 102,
                    "attributes" : {
                      "bypass" : false,
                      "reverse" : false,
                      "trivial" : false,
                      "useAudioPreRoll" : true,
                      "useVisualPreRoll" : true
                    }

                  },
                  {
                    "name" : "Fade",
                    "duration" : 30,
                    "leftMedia" : 102,
                    "attributes" : {
                      "bypass" : false,
                      "reverse" : false,
                      "trivial" : false,
                      "useAudioPreRoll" : true,
                      "useVisualPreRoll" : true
                    }

                  },
                  {
                    "name" : "Fade",
                    "duration" : 30,
                    "rightMedia" : 105,
                    "attributes" : {
                      "bypass" : false,
                      "reverse" : false,
                      "trivial" : false,
                      "useAudioPreRoll" : true,
                      "useVisualPreRoll" : true
                    }

                  },
                  {
                    "name" : "Fade",
                    "duration" : 30,
                    "rightMedia" : 106,
                    "attributes" : {
                      "bypass" : false,
                      "reverse" : false,
                      "trivial" : false,
                      "useAudioPreRoll" : true,
                      "useVisualPreRoll" : true
                    }

                  },
                  {
                    "name" : "Fade",
                    "duration" : 14,
                    "rightMedia" : 108,
                    "attributes" : {
                      "bypass" : false,
                      "reverse" : false,
                      "trivial" : false,
                      "useAudioPreRoll" : true,
                      "useVisualPreRoll" : true
                    }

                  },
                  {
                    "name" : "Fade",
                    "duration" : 14,
                    "leftMedia" : 108,
                    "attributes" : {
                      "bypass" : false,
                      "reverse" : false,
                      "trivial" : false,
                      "useAudioPreRoll" : true,
                      "useVisualPreRoll" : true
                    }

                  },
                  {
                    "name" : "Fade",
                    "duration" : 14,
                    "rightMedia" : 109,
                    "attributes" : {
                      "bypass" : false,
                      "reverse" : false,
                      "trivial" : false,
                      "useAudioPreRoll" : true,
                      "useVisualPreRoll" : true
                    }

                  },
                  {
                    "name" : "Fade",
                    "duration" : 14,
                    "leftMedia" : 109,
                    "attributes" : {
                      "bypass" : false,
                      "reverse" : false,
                      "trivial" : false,
                      "useAudioPreRoll" : true,
                      "useVisualPreRoll" : true
                    }

                  },
                  {
                    "name" : "Fade",
                    "duration" : 14,
                    "rightMedia" : 110,
                    "attributes" : {
                      "bypass" : false,
                      "reverse" : false,
                      "trivial" : false,
                      "useAudioPreRoll" : true,
                      "useVisualPreRoll" : true
                    }

                  },
                  {
                    "name" : "Fade",
                    "duration" : 14,
                    "leftMedia" : 110,
                    "attributes" : {
                      "bypass" : false,
                      "reverse" : false,
                      "trivial" : false,
                      "useAudioPreRoll" : true,
                      "useVisualPreRoll" : true
                    }

                  },
                  {
                    "name" : "Fade",
                    "duration" : 14,
                    "rightMedia" : 111,
                    "attributes" : {
                      "bypass" : false,
                      "reverse" : false,
                      "trivial" : false,
                      "useAudioPreRoll" : true,
                      "useVisualPreRoll" : true
                    }

                  },
                  {
                    "name" : "Fade",
                    "duration" : 14,
                    "leftMedia" : 111,
                    "attributes" : {
                      "bypass" : false,
                      "reverse" : false,
                      "trivial" : false,
                      "useAudioPreRoll" : true,
                      "useVisualPreRoll" : true
                    }

                  }
                ]
              },
              {
                "trackIndex" : 8,
                "medias" : [
                  {
                    "id" : 112,
                    "_type" : "IMFile",
                    "src" : 51,
                    "trackNumber" : 0,
                    "trimStartSum" : 0,
                    "attributes" : {
                      "ident" : "Pasted Image"
                    },
                    "parameters" : {
                      "translation0" : -133.0,
                      "translation1" : 23.0,
                      "sourceCrop0" : 0.0,
                      "sourceCrop1" : 0.0,
                      "sourceCrop2" : 0.0,
                      "sourceCrop3" : 0.0,
                      "geometryCrop0" : 0.0,
                      "geometryCrop1" : 0.0,
                      "geometryCrop2" : 0.0,
                      "geometryCrop3" : 0.0
                    },
                    "effects" : [

                    ],
                    "start" : 116,
                    "duration" : 128,
                    "mediaStart" : 0,
                    "mediaDuration" : 1,
                    "scalar" : 1,
                    "metadata" : {
                      "clipSpeedAttribute" : false,
                      "default-scale" : "1",
                      "effectApplied" : "none",
                      "lockAspectRatio" : true
                    },
                    "animationTracks" : {

                    }
                  },
                  {
                    "id" : 113,
                    "_type" : "IMFile",
                    "src" : 12,
                    "trackNumber" : 0,
                    "trimStartSum" : 102,
                    "attributes" : {
                      "ident" : "Pasted Image"
                    },
                    "parameters" : {
                      "translation0" : -130.0,
                      "translation1" : -137.0,
                      "sourceCrop0" : 0.0,
                      "sourceCrop1" : 0.0,
                      "sourceCrop2" : 0.0,
                      "sourceCrop3" : 0.0,
                      "geometryCrop0" : 0.0,
                      "geometryCrop1" : 0.0,
                      "geometryCrop2" : 0.0,
                      "geometryCrop3" : 0.0
                    },
                    "effects" : [

                    ],
                    "start" : 809,
                    "duration" : 461,
                    "mediaStart" : 0,
                    "mediaDuration" : 1,
                    "scalar" : 1,
                    "metadata" : {
                      "clipSpeedAttribute" : false,
                      "default-scale" : "1",
                      "effectApplied" : "none",
                      "lockAspectRatio" : true
                    },
                    "animationTracks" : {

                    }
                  },
                  {
                    "id" : 114,
                    "_type" : "IMFile",
                    "src" : 22,
                    "trackNumber" : 0,
                    "trimStartSum" : 0,
                    "attributes" : {
                      "ident" : "Pasted Image"
                    },
                    "parameters" : {
                      "translation0" : -142.271515118036,
                      "translation1" : -6.65562603119054,
                      "scale0" : 0.136475584326265,
                      "scale1" : 0.136475584326265,
                      "sourceCrop0" : 0.0,
                      "sourceCrop1" : 0.0,
                      "sourceCrop2" : 0.0,
                      "sourceCrop3" : 0.0,
                      "geometryCrop0" : 0.0,
                      "geometryCrop1" : 0.0,
                      "geometryCrop2" : 0.0,
                      "geometryCrop3" : 0.0
                    },
                    "effects" : [

                    ],
                    "start" : 2240,
                    "duration" : 87,
                    "mediaStart" : 0,
                    "mediaDuration" : 1,
                    "scalar" : 1,
                    "metadata" : {
                      "clipSpeedAttribute" : false,
                      "default-scale" : "0.5625",
                      "effectApplied" : "none",
                      "lockAspectRatio" : true
                    },
                    "animationTracks" : {

                    }
                  },
                  {
                    "id" : 115,
                    "_type" : "Callout",
                    "def" : {
                      "kind" : "remix",
                      "shape" : "arrow",
                      "style" : "basic",
                      "stroke-color-blue" : 0.56078431372549,
                      "stroke-color-green" : 0.686274509803922,
                      "stroke-color-opacity" : 1.0,
                      "stroke-color-red" : 0.0196078431372549,
                      "stroke-width" : 8.0,
                      "tail-x" : {
                        "type" : "double",
                        "defaultValue" : 82.1878826731272,
                        "interp" : "eioe"
                      },
                      "tail-y" : {
                        "type" : "double",
                        "defaultValue" : 94.2199325908153,
                        "interp" : "eioe"
                      },
                      "shape-anchor" : "none",
                      "shape-tail" : "arrow",
                      "stroke-style" : "solid"
                    },
                    "attributes" : {
                      "ident" : "",
                      "autoRotateText" : true
                    },
                    "parameters" : {
                      "translation0" : -111.299684906501,
                      "translation1" : -4.88522523656286,
                      "sourceCrop0" : 0.0,
                      "sourceCrop1" : 0.0,
                      "sourceCrop2" : 0.0,
                      "sourceCrop3" : 0.0,
                      "geometryCrop0" : 0.0,
                      "geometryCrop1" : 0.0,
                      "geometryCrop2" : 0.0,
                      "geometryCrop3" : 0.0
                    },
                    "effects" : [

                    ],
                    "start" : 2721,
                    "duration" : 35,
                    "mediaStart" : 0,
                    "mediaDuration" : 35,
                    "scalar" : 1,
                    "metadata" : {
                      "AppliedThemeId" : "",
                      "clipSpeedAttribute" : false,
                      "default-scale" : "1",
                      "effectApplied" : "none",
                      "lockAspectRatio" : true
                    },
                    "animationTracks" : {

                    }
                  },
                  {
                    "id" : 116,
                    "_type" : "Callout",
                    "def" : {
                      "kind" : "remix",
                      "shape" : "arrow",
                      "style" : "basic",
                      "stroke-color-blue" : 0.56078431372549,
                      "stroke-color-green" : 0.686274509803922,
                      "stroke-color-opacity" : 1.0,
                      "stroke-color-red" : 0.0196078431372549,
                      "stroke-width" : 8.0,
                      "tail-x" : {
                        "type" : "double",
                        "defaultValue" : 84.6656989701374,
                        "interp" : "eioe"
                      },
                      "tail-y" : {
                        "type" : "double",
                        "defaultValue" : -76.3038697452053,
                        "interp" : "eioe"
                      },
                      "shape-anchor" : "none",
                      "shape-tail" : "arrow",
                      "stroke-style" : "solid"
                    },
                    "attributes" : {
                      "ident" : "",
                      "autoRotateText" : true
                    },
                    "parameters" : {
                      "translation0" : -289.511786382366,
                      "translation1" : -25.734957324127,
                      "sourceCrop0" : 0.0,
                      "sourceCrop1" : 0.0,
                      "sourceCrop2" : 0.0,
                      "sourceCrop3" : 0.0,
                      "geometryCrop0" : 0.0,
                      "geometryCrop1" : 0.0,
                      "geometryCrop2" : 0.0,
                      "geometryCrop3" : 0.0
                    },
                    "effects" : [

                    ],
                    "start" : 2772,
                    "duration" : 35,
                    "mediaStart" : 0,
                    "mediaDuration" : 35,
                    "scalar" : 1,
                    "metadata" : {
                      "AppliedThemeId" : "",
                      "clipSpeedAttribute" : false,
                      "default-scale" : "1",
                      "effectApplied" : "none",
                      "lockAspectRatio" : true
                    },
                    "animationTracks" : {

                    }
                  },
                  {
                    "id" : 117,
                    "_type" : "Callout",
                    "def" : {
                      "kind" : "remix",
                      "shape" : "arrow",
                      "style" : "basic",
                      "stroke-color-blue" : 0.56078431372549,
                      "stroke-color-green" : 0.686274509803922,
                      "stroke-color-opacity" : 1.0,
                      "stroke-color-red" : 0.0196078431372549,
                      "stroke-width" : 8.0,
                      "tail-x" : {
                        "type" : "double",
                        "defaultValue" : 82.1878826731272,
                        "interp" : "eioe"
                      },
                      "tail-y" : {
                        "type" : "double",
                        "defaultValue" : 94.2199325908153,
                        "interp" : "eioe"
                      },
                      "shape-anchor" : "none",
                      "shape-tail" : "arrow",
                      "stroke-style" : "solid"
                    },
                    "attributes" : {
                      "ident" : "",
                      "autoRotateText" : true
                    },
                    "parameters" : {
                      "translation0" : -111.299684906501,
                      "translation1" : -4.88522523656286,
                      "sourceCrop0" : 0.0,
                      "sourceCrop1" : 0.0,
                      "sourceCrop2" : 0.0,
                      "sourceCrop3" : 0.0,
                      "geometryCrop0" : 0.0,
                      "geometryCrop1" : 0.0,
                      "geometryCrop2" : 0.0,
                      "geometryCrop3" : 0.0
                    },
                    "effects" : [

                    ],
                    "start" : 2845,
                    "duration" : 35,
                    "mediaStart" : 0,
                    "mediaDuration" : 35,
                    "scalar" : 1,
                    "metadata" : {
                      "AppliedThemeId" : "",
                      "clipSpeedAttribute" : false,
                      "default-scale" : "1",
                      "effectApplied" : "none",
                      "lockAspectRatio" : true
                    },
                    "animationTracks" : {

                    }
                  },
                  {
                    "id" : 118,
                    "_type" : "Callout",
                    "def" : {
                      "kind" : "remix",
                      "shape" : "arrow",
                      "style" : "basic",
                      "stroke-color-blue" : 0.56078431372549,
                      "stroke-color-green" : 0.686274509803922,
                      "stroke-color-opacity" : 1.0,
                      "stroke-color-red" : 0.0196078431372549,
                      "stroke-width" : 8.0,
                      "tail-x" : {
                        "type" : "double",
                        "defaultValue" : 84.6656989701374,
                        "interp" : "eioe"
                      },
                      "tail-y" : {
                        "type" : "double",
                        "defaultValue" : -76.3038697452053,
                        "interp" : "eioe"
                      },
                      "shape-anchor" : "none",
                      "shape-tail" : "arrow",
                      "stroke-style" : "solid"
                    },
                    "attributes" : {
                      "ident" : "",
                      "autoRotateText" : true
                    },
                    "parameters" : {
                      "translation0" : -289.511786382366,
                      "translation1" : -25.734957324127,
                      "sourceCrop0" : 0.0,
                      "sourceCrop1" : 0.0,
                      "sourceCrop2" : 0.0,
                      "sourceCrop3" : 0.0,
                      "geometryCrop0" : 0.0,
                      "geometryCrop1" : 0.0,
                      "geometryCrop2" : 0.0,
                      "geometryCrop3" : 0.0
                    },
                    "effects" : [

                    ],
                    "start" : 2896,
                    "duration" : 35,
                    "mediaStart" : 0,
                    "mediaDuration" : 35,
                    "scalar" : 1,
                    "metadata" : {
                      "AppliedThemeId" : "",
                      "clipSpeedAttribute" : false,
                      "default-scale" : "1",
                      "effectApplied" : "none",
                      "lockAspectRatio" : true
                    },
                    "animationTracks" : {

                    }
                  },
                  {
                    "id" : 119,
                    "_type" : "IMFile",
                    "src" : 28,
                    "trackNumber" : 0,
                    "trimStartSum" : 0,
                    "attributes" : {
                      "ident" : "“Partitions”\r\n"
                    },
                    "parameters" : {
                      "translation0" : -157.0,
                      "translation1" : -291.0,
                      "sourceCrop0" : 0.0,
                      "sourceCrop1" : 0.0,
                      "sourceCrop2" : 0.0,
                      "sourceCrop3" : 0.0,
                      "geometryCrop0" : 0.0,
                      "geometryCrop1" : 0.0,
                      "geometryCrop2" : 0.0,
                      "geometryCrop3" : 0.0
                    },
                    "effects" : [

                    ],
                    "start" : 3182,
                    "duration" : 109,
                    "mediaStart" : 0,
                    "mediaDuration" : 1,
                    "scalar" : 1,
                    "metadata" : {
                      "clipSpeedAttribute" : false,
                      "default-scale" : "1",
                      "effectApplied" : "none",
                      "lockAspectRatio" : true
                    },
                    "animationTracks" : {

                    }
                  }
                ],
                "transitions" : [
                  {
                    "name" : "Fade",
                    "duration" : 30,
                    "rightMedia" : 112,
                    "attributes" : {
                      "bypass" : false,
                      "reverse" : false,
                      "trivial" : false,
                      "useAudioPreRoll" : true,
                      "useVisualPreRoll" : true
                    }

                  },
                  {
                    "name" : "Fade",
                    "duration" : 30,
                    "leftMedia" : 112,
                    "attributes" : {
                      "bypass" : false,
                      "reverse" : false,
                      "trivial" : false,
                      "useAudioPreRoll" : true,
                      "useVisualPreRoll" : true
                    }

                  },
                  {
                    "name" : "Fade",
                    "duration" : 30,
                    "rightMedia" : 113,
                    "attributes" : {
                      "bypass" : false,
                      "reverse" : false,
                      "trivial" : false,
                      "useAudioPreRoll" : true,
                      "useVisualPreRoll" : true
                    }

                  },
                  {
                    "name" : "Fade",
                    "duration" : 30,
                    "leftMedia" : 113,
                    "attributes" : {
                      "bypass" : false,
                      "reverse" : false,
                      "trivial" : false,
                      "useAudioPreRoll" : true,
                      "useVisualPreRoll" : true
                    }

                  },
                  {
                    "name" : "Fade",
                    "duration" : 30,
                    "rightMedia" : 114,
                    "attributes" : {
                      "bypass" : false,
                      "reverse" : false,
                      "trivial" : false,
                      "useAudioPreRoll" : true,
                      "useVisualPreRoll" : true
                    }

                  },
                  {
                    "name" : "Fade",
                    "duration" : 30,
                    "leftMedia" : 114,
                    "attributes" : {
                      "bypass" : false,
                      "reverse" : false,
                      "trivial" : false,
                      "useAudioPreRoll" : true,
                      "useVisualPreRoll" : true
                    }

                  },
                  {
                    "name" : "Fade",
                    "duration" : 14,
                    "rightMedia" : 115,
                    "attributes" : {
                      "bypass" : false,
                      "reverse" : false,
                      "trivial" : false,
                      "useAudioPreRoll" : true,
                      "useVisualPreRoll" : true
                    }

                  },
                  {
                    "name" : "Fade",
                    "duration" : 14,
                    "leftMedia" : 115,
                    "attributes" : {
                      "bypass" : false,
                      "reverse" : false,
                      "trivial" : false,
                      "useAudioPreRoll" : true,
                      "useVisualPreRoll" : true
                    }

                  },
                  {
                    "name" : "Fade",
                    "duration" : 14,
                    "rightMedia" : 116,
                    "attributes" : {
                      "bypass" : false,
                      "reverse" : false,
                      "trivial" : false,
                      "useAudioPreRoll" : true,
                      "useVisualPreRoll" : true
                    }

                  },
                  {
                    "name" : "Fade",
                    "duration" : 14,
                    "leftMedia" : 116,
                    "attributes" : {
                      "bypass" : false,
                      "reverse" : false,
                      "trivial" : false,
                      "useAudioPreRoll" : true,
                      "useVisualPreRoll" : true
                    }

                  },
                  {
                    "name" : "Fade",
                    "duration" : 14,
                    "rightMedia" : 117,
                    "attributes" : {
                      "bypass" : false,
                      "reverse" : false,
                      "trivial" : false,
                      "useAudioPreRoll" : true,
                      "useVisualPreRoll" : true
                    }

                  },
                  {
                    "name" : "Fade",
                    "duration" : 14,
                    "leftMedia" : 117,
                    "attributes" : {
                      "bypass" : false,
                      "reverse" : false,
                      "trivial" : false,
                      "useAudioPreRoll" : true,
                      "useVisualPreRoll" : true
                    }

                  },
                  {
                    "name" : "Fade",
                    "duration" : 14,
                    "rightMedia" : 118,
                    "attributes" : {
                      "bypass" : false,
                      "reverse" : false,
                      "trivial" : false,
                      "useAudioPreRoll" : true,
                      "useVisualPreRoll" : true
                    }

                  },
                  {
                    "name" : "Fade",
                    "duration" : 14,
                    "leftMedia" : 118,
                    "attributes" : {
                      "bypass" : false,
                      "reverse" : false,
                      "trivial" : false,
                      "useAudioPreRoll" : true,
                      "useVisualPreRoll" : true
                    }

                  },
                  {
                    "name" : "Fade",
                    "duration" : 30,
                    "rightMedia" : 119,
                    "attributes" : {
                      "bypass" : false,
                      "reverse" : false,
                      "trivial" : false,
                      "useAudioPreRoll" : true,
                      "useVisualPreRoll" : true
                    }

                  },
                  {
                    "name" : "Fade",
                    "duration" : 30,
                    "leftMedia" : 119,
                    "attributes" : {
                      "bypass" : false,
                      "reverse" : false,
                      "trivial" : false,
                      "useAudioPreRoll" : true,
                      "useVisualPreRoll" : true
                    }

                  }
                ]
              },
              {
                "trackIndex" : 9,
                "medias" : [
                  {
                    "id" : 120,
                    "_type" : "IMFile",
                    "src" : 17,
                    "trackNumber" : 0,
                    "trimStartSum" : 0,
                    "attributes" : {
                      "ident" : "Pasted Image"
                    },
                    "parameters" : {
                      "translation0" : -497.0,
                      "translation1" : -102.0,
                      "scale0" : 1.25,
                      "scale1" : 1.25,
                      "sourceCrop0" : 0.0,
                      "sourceCrop1" : 0.0,
                      "sourceCrop2" : 0.0,
                      "sourceCrop3" : 0.0,
                      "geometryCrop0" : 0.0,
                      "geometryCrop1" : 0.0,
                      "geometryCrop2" : 0.0,
                      "geometryCrop3" : 0.0
                    },
                    "effects" : [

                    ],
                    "start" : 1671,
                    "duration" : 230,
                    "mediaStart" : 0,
                    "mediaDuration" : 1,
                    "scalar" : 1,
                    "metadata" : {
                      "clipSpeedAttribute" : false,
                      "default-scale" : "1",
                      "effectApplied" : "none",
                      "lockAspectRatio" : true
                    },
                    "animationTracks" : {

                    }
                  },
                  {
                    "id" : 121,
                    "_type" : "IMFile",
                    "src" : 21,
                    "trackNumber" : 0,
                    "trimStartSum" : 0,
                    "attributes" : {
                      "ident" : "Pasted Image"
                    },
                    "parameters" : {
                      "translation0" : -432.864691243777,
                      "translation1" : 143.602358205761,
                      "scale0" : 0.604298830207984,
                      "scale1" : 0.604298830207984,
                      "sourceCrop0" : 0.0,
                      "sourceCrop1" : 0.0,
                      "sourceCrop2" : 0.0,
                      "sourceCrop3" : 0.0,
                      "geometryCrop0" : 0.0,
                      "geometryCrop1" : 0.0,
                      "geometryCrop2" : 0.0,
                      "geometryCrop3" : 0.0
                    },
                    "effects" : [

                    ],
                    "start" : 2444,
                    "duration" : 222,
                    "mediaStart" : 0,
                    "mediaDuration" : 1,
                    "scalar" : 1,
                    "metadata" : {
                      "clipSpeedAttribute" : false,
                      "default-scale" : "1",
                      "effectApplied" : "none",
                      "lockAspectRatio" : true
                    },
                    "animationTracks" : {

                    }
                  },
                  {
                    "id" : 122,
                    "_type" : "Callout",
                    "def" : {
                      "kind" : "remix",
                      "shape" : "arrow",
                      "style" : "basic",
                      "stroke-color-blue" : 0.56078431372549,
                      "stroke-color-green" : 0.686274509803922,
                      "stroke-color-opacity" : 1.0,
                      "stroke-color-red" : 0.0196078431372549,
                      "stroke-width" : 8.0,
                      "tail-x" : {
                        "type" : "double",
                        "defaultValue" : 84.6656989701374,
                        "interp" : "eioe"
                      },
                      "tail-y" : {
                        "type" : "double",
                        "defaultValue" : -76.3038697452053,
                        "interp" : "eioe"
                      },
                      "shape-anchor" : "none",
                      "shape-tail" : "arrow",
                      "stroke-style" : "solid"
                    },
                    "attributes" : {
                      "ident" : "",
                      "autoRotateText" : true
                    },
                    "parameters" : {
                      "translation0" : -289.511786382366,
                      "translation1" : -25.734957324127,
                      "sourceCrop0" : 0.0,
                      "sourceCrop1" : 0.0,
                      "sourceCrop2" : 0.0,
                      "sourceCrop3" : 0.0,
                      "geometryCrop0" : 0.0,
                      "geometryCrop1" : 0.0,
                      "geometryCrop2" : 0.0,
                      "geometryCrop3" : 0.0
                    },
                    "effects" : [

                    ],
                    "start" : 2728,
                    "duration" : 35,
                    "mediaStart" : 0,
                    "mediaDuration" : 35,
                    "scalar" : 1,
                    "metadata" : {
                      "AppliedThemeId" : "",
                      "clipSpeedAttribute" : false,
                      "default-scale" : "1",
                      "effectApplied" : "none",
                      "lockAspectRatio" : true
                    },
                    "animationTracks" : {

                    }
                  },
                  {
                    "id" : 123,
                    "_type" : "Callout",
                    "def" : {
                      "kind" : "remix",
                      "shape" : "arrow",
                      "style" : "basic",
                      "stroke-color-blue" : 0.56078431372549,
                      "stroke-color-green" : 0.686274509803922,
                      "stroke-color-opacity" : 1.0,
                      "stroke-color-red" : 0.0196078431372549,
                      "stroke-width" : 8.0,
                      "tail-x" : {
                        "type" : "double",
                        "defaultValue" : 84.6656989701374,
                        "interp" : "eioe"
                      },
                      "tail-y" : {
                        "type" : "double",
                        "defaultValue" : -76.3038697452053,
                        "interp" : "eioe"
                      },
                      "shape-anchor" : "none",
                      "shape-tail" : "arrow",
                      "stroke-style" : "solid"
                    },
                    "attributes" : {
                      "ident" : "",
                      "autoRotateText" : true
                    },
                    "parameters" : {
                      "translation0" : -109.511786382366,
                      "translation1" : -28.734957324127,
                      "sourceCrop0" : 0.0,
                      "sourceCrop1" : 0.0,
                      "sourceCrop2" : 0.0,
                      "sourceCrop3" : 0.0,
                      "geometryCrop0" : 0.0,
                      "geometryCrop1" : 0.0,
                      "geometryCrop2" : 0.0,
                      "geometryCrop3" : 0.0
                    },
                    "effects" : [

                    ],
                    "start" : 2784,
                    "duration" : 35,
                    "mediaStart" : 0,
                    "mediaDuration" : 35,
                    "scalar" : 1,
                    "metadata" : {
                      "AppliedThemeId" : "",
                      "clipSpeedAttribute" : false,
                      "default-scale" : "1",
                      "effectApplied" : "none",
                      "lockAspectRatio" : true
                    },
                    "animationTracks" : {

                    }
                  },
                  {
                    "id" : 124,
                    "_type" : "Callout",
                    "def" : {
                      "kind" : "remix",
                      "shape" : "arrow",
                      "style" : "basic",
                      "stroke-color-blue" : 0.56078431372549,
                      "stroke-color-green" : 0.686274509803922,
                      "stroke-color-opacity" : 1.0,
                      "stroke-color-red" : 0.0196078431372549,
                      "stroke-width" : 8.0,
                      "tail-x" : {
                        "type" : "double",
                        "defaultValue" : 84.6656989701374,
                        "interp" : "eioe"
                      },
                      "tail-y" : {
                        "type" : "double",
                        "defaultValue" : -76.3038697452053,
                        "interp" : "eioe"
                      },
                      "shape-anchor" : "none",
                      "shape-tail" : "arrow",
                      "stroke-style" : "solid"
                    },
                    "attributes" : {
                      "ident" : "",
                      "autoRotateText" : true
                    },
                    "parameters" : {
                      "translation0" : -289.511786382366,
                      "translation1" : -25.734957324127,
                      "sourceCrop0" : 0.0,
                      "sourceCrop1" : 0.0,
                      "sourceCrop2" : 0.0,
                      "sourceCrop3" : 0.0,
                      "geometryCrop0" : 0.0,
                      "geometryCrop1" : 0.0,
                      "geometryCrop2" : 0.0,
                      "geometryCrop3" : 0.0
                    },
                    "effects" : [

                    ],
                    "start" : 2852,
                    "duration" : 35,
                    "mediaStart" : 0,
                    "mediaDuration" : 35,
                    "scalar" : 1,
                    "metadata" : {
                      "AppliedThemeId" : "",
                      "clipSpeedAttribute" : false,
                      "default-scale" : "1",
                      "effectApplied" : "none",
                      "lockAspectRatio" : true
                    },
                    "animationTracks" : {

                    }
                  },
                  {
                    "id" : 125,
                    "_type" : "Callout",
                    "def" : {
                      "kind" : "remix",
                      "shape" : "arrow",
                      "style" : "basic",
                      "stroke-color-blue" : 0.56078431372549,
                      "stroke-color-green" : 0.686274509803922,
                      "stroke-color-opacity" : 1.0,
                      "stroke-color-red" : 0.0196078431372549,
                      "stroke-width" : 8.0,
                      "tail-x" : {
                        "type" : "double",
                        "defaultValue" : 84.6656989701374,
                        "interp" : "eioe"
                      },
                      "tail-y" : {
                        "type" : "double",
                        "defaultValue" : -76.3038697452053,
                        "interp" : "eioe"
                      },
                      "shape-anchor" : "none",
                      "shape-tail" : "arrow",
                      "stroke-style" : "solid"
                    },
                    "attributes" : {
                      "ident" : "",
                      "autoRotateText" : true
                    },
                    "parameters" : {
                      "translation0" : -109.511786382366,
                      "translation1" : -28.734957324127,
                      "sourceCrop0" : 0.0,
                      "sourceCrop1" : 0.0,
                      "sourceCrop2" : 0.0,
                      "sourceCrop3" : 0.0,
                      "geometryCrop0" : 0.0,
                      "geometryCrop1" : 0.0,
                      "geometryCrop2" : 0.0,
                      "geometryCrop3" : 0.0
                    },
                    "effects" : [

                    ],
                    "start" : 2908,
                    "duration" : 35,
                    "mediaStart" : 0,
                    "mediaDuration" : 35,
                    "scalar" : 1,
                    "metadata" : {
                      "AppliedThemeId" : "",
                      "clipSpeedAttribute" : false,
                      "default-scale" : "1",
                      "effectApplied" : "none",
                      "lockAspectRatio" : true
                    },
                    "animationTracks" : {

                    }
                  },
                  {
                    "id" : 126,
                    "_type" : "Callout",
                    "def" : {
                      "kind" : "remix",
                      "shape" : "arrow",
                      "style" : "basic",
                      "stroke-color-blue" : 1.0,
                      "stroke-color-green" : 1.0,
                      "stroke-color-opacity" : 1.0,
                      "stroke-color-red" : 1.0,
                      "stroke-width" : 8.0,
                      "tail-x" : {
                        "type" : "double",
                        "defaultValue" : 73.2359142563455,
                        "interp" : "eioe"
                      },
                      "tail-y" : {
                        "type" : "double",
                        "defaultValue" : 99.6148630203407,
                        "interp" : "eioe"
                      },
                      "shape-anchor" : "none",
                      "shape-tail" : "arrow",
                      "stroke-style" : "solid"
                    },
                    "attributes" : {
                      "ident" : "",
                      "autoRotateText" : true
                    },
                    "parameters" : {
                      "translation0" : -60.0,
                      "translation1" : -240.0,
                      "sourceCrop0" : 0.0,
                      "sourceCrop1" : 0.0,
                      "sourceCrop2" : 0.0,
                      "sourceCrop3" : 0.0,
                      "geometryCrop0" : 0.0,
                      "geometryCrop1" : 0.0,
                      "geometryCrop2" : 0.0,
                      "geometryCrop3" : 0.0
                    },
                    "effects" : [

                    ],
                    "start" : 3182,
                    "duration" : 109,
                    "mediaStart" : 0,
                    "mediaDuration" : 109,
                    "scalar" : 1,
                    "metadata" : {
                      "AppliedThemeId" : "",
                      "clipSpeedAttribute" : false,
                      "default-callout-stroke-color" : "(5,175,143,255)",
                      "default-scale" : "1",
                      "effectApplied" : "none",
                      "lockAspectRatio" : true
                    },
                    "animationTracks" : {

                    }
                  },
                  {
                    "id" : 127,
                    "_type" : "IMFile",
                    "src" : 30,
                    "trackNumber" : 0,
                    "trimStartSum" : -21,
                    "attributes" : {
                      "ident" : "Pasted Image"
                    },
                    "parameters" : {
                      "translation0" : {
                        "type" : "double",
                        "defaultValue" : 225.243931137617,
                        "keyframes" : [
                          {
                            "endTime" : 83,
                            "time" : 29,
                            "value" : 482.243931137617,
                            "duration" : 54
                          }
                        ]
                      },
                      "translation1" : {
                        "type" : "double",
                        "defaultValue" : -135.055226402146,
                        "keyframes" : [
                          {
                            "endTime" : 83,
                            "time" : 29,
                            "value" : 60.9447735978541,
                            "duration" : 54
                          }
                        ]
                      },
                      "scale0" : {
                        "type" : "double",
                        "defaultValue" : 0.330000013113022,
                        "keyframes" : [
                          {
                            "endTime" : 83,
                            "time" : 29,
                            "value" : 0.334571315846066,
                            "duration" : 54
                          }
                        ]
                      },
                      "scale1" : {
                        "type" : "double",
                        "defaultValue" : 0.330000013113022,
                        "keyframes" : [
                          {
                            "endTime" : 83,
                            "time" : 29,
                            "value" : 0.334571315846066,
                            "duration" : 54
                          }
                        ]
                      },
                      "sourceCrop0" : 0.0,
                      "sourceCrop1" : 0.0,
                      "sourceCrop2" : 0.0,
                      "sourceCrop3" : 0.0,
                      "geometryCrop0" : 0.0,
                      "geometryCrop1" : 0.0,
                      "geometryCrop2" : 0.0,
                      "geometryCrop3" : 0.0
                    },
                    "effects" : [

                    ],
                    "start" : 3407,
                    "duration" : 104,
                    "mediaStart" : 0,
                    "mediaDuration" : 1,
                    "scalar" : 1,
                    "metadata" : {
                      "clipSpeedAttribute" : false,
                      "default-scale" : "1",
                      "effectApplied" : "none",
                      "lockAspectRatio" : true
                    },
                    "animationTracks" : {
                      "visual" : [
                        {
                          "endTime" : 83,
                          "duration" : 54,
                          "range" : [ 29, 54]
                        }
                      ]
                    }
                  }
                ],
                "transitions" : [
                  {
                    "name" : "Fade",
                    "duration" : 30,
                    "rightMedia" : 120,
                    "attributes" : {
                      "bypass" : false,
                      "reverse" : false,
                      "trivial" : false,
                      "useAudioPreRoll" : true,
                      "useVisualPreRoll" : true
                    }

                  },
                  {
                    "name" : "Fade",
                    "duration" : 30,
                    "leftMedia" : 120,
                    "attributes" : {
                      "bypass" : false,
                      "reverse" : false,
                      "trivial" : false,
                      "useAudioPreRoll" : true,
                      "useVisualPreRoll" : true
                    }

                  },
                  {
                    "name" : "Fade",
                    "duration" : 30,
                    "rightMedia" : 121,
                    "attributes" : {
                      "bypass" : false,
                      "reverse" : false,
                      "trivial" : false,
                      "useAudioPreRoll" : true,
                      "useVisualPreRoll" : true
                    }

                  },
                  {
                    "name" : "Fade",
                    "duration" : 30,
                    "leftMedia" : 121,
                    "attributes" : {
                      "bypass" : false,
                      "reverse" : false,
                      "trivial" : false,
                      "useAudioPreRoll" : true,
                      "useVisualPreRoll" : true
                    }

                  },
                  {
                    "name" : "Fade",
                    "duration" : 14,
                    "rightMedia" : 122,
                    "attributes" : {
                      "bypass" : false,
                      "reverse" : false,
                      "trivial" : false,
                      "useAudioPreRoll" : true,
                      "useVisualPreRoll" : true
                    }

                  },
                  {
                    "name" : "Fade",
                    "duration" : 14,
                    "leftMedia" : 122,
                    "attributes" : {
                      "bypass" : false,
                      "reverse" : false,
                      "trivial" : false,
                      "useAudioPreRoll" : true,
                      "useVisualPreRoll" : true
                    }

                  },
                  {
                    "name" : "Fade",
                    "duration" : 14,
                    "rightMedia" : 123,
                    "attributes" : {
                      "bypass" : false,
                      "reverse" : false,
                      "trivial" : false,
                      "useAudioPreRoll" : true,
                      "useVisualPreRoll" : true
                    }

                  },
                  {
                    "name" : "Fade",
                    "duration" : 14,
                    "leftMedia" : 123,
                    "attributes" : {
                      "bypass" : false,
                      "reverse" : false,
                      "trivial" : false,
                      "useAudioPreRoll" : true,
                      "useVisualPreRoll" : true
                    }

                  },
                  {
                    "name" : "Fade",
                    "duration" : 14,
                    "rightMedia" : 124,
                    "attributes" : {
                      "bypass" : false,
                      "reverse" : false,
                      "trivial" : false,
                      "useAudioPreRoll" : true,
                      "useVisualPreRoll" : true
                    }

                  },
                  {
                    "name" : "Fade",
                    "duration" : 14,
                    "leftMedia" : 124,
                    "attributes" : {
                      "bypass" : false,
                      "reverse" : false,
                      "trivial" : false,
                      "useAudioPreRoll" : true,
                      "useVisualPreRoll" : true
                    }

                  },
                  {
                    "name" : "Fade",
                    "duration" : 14,
                    "rightMedia" : 125,
                    "attributes" : {
                      "bypass" : false,
                      "reverse" : false,
                      "trivial" : false,
                      "useAudioPreRoll" : true,
                      "useVisualPreRoll" : true
                    }

                  },
                  {
                    "name" : "Fade",
                    "duration" : 14,
                    "leftMedia" : 125,
                    "attributes" : {
                      "bypass" : false,
                      "reverse" : false,
                      "trivial" : false,
                      "useAudioPreRoll" : true,
                      "useVisualPreRoll" : true
                    }

                  },
                  {
                    "name" : "Fade",
                    "duration" : 30,
                    "rightMedia" : 126,
                    "attributes" : {
                      "bypass" : false,
                      "reverse" : false,
                      "trivial" : false,
                      "useAudioPreRoll" : true,
                      "useVisualPreRoll" : true
                    }

                  },
                  {
                    "name" : "Fade",
                    "duration" : 30,
                    "leftMedia" : 126,
                    "attributes" : {
                      "bypass" : false,
                      "reverse" : false,
                      "trivial" : false,
                      "useAudioPreRoll" : true,
                      "useVisualPreRoll" : true
                    }

                  },
                  {
                    "name" : "Fade",
                    "duration" : 30,
                    "rightMedia" : 127,
                    "attributes" : {
                      "bypass" : false,
                      "reverse" : false,
                      "trivial" : false,
                      "useAudioPreRoll" : true,
                      "useVisualPreRoll" : true
                    }

                  }
                ]
              },
              {
                "trackIndex" : 10,
                "medias" : [
                  {
                    "id" : 128,
                    "_type" : "IMFile",
                    "src" : 18,
                    "trackNumber" : 0,
                    "trimStartSum" : 0,
                    "attributes" : {
                      "ident" : "Pasted Image"
                    },
                    "parameters" : {
                      "translation0" : -497.0,
                      "translation1" : -260.0,
                      "scale0" : 1.25,
                      "scale1" : 1.25,
                      "sourceCrop0" : 0.0,
                      "sourceCrop1" : 0.0,
                      "sourceCrop2" : 0.0,
                      "sourceCrop3" : 0.0,
                      "geometryCrop0" : 0.0,
                      "geometryCrop1" : 0.0,
                      "geometryCrop2" : 0.0,
                      "geometryCrop3" : 0.0
                    },
                    "effects" : [

                    ],
                    "start" : 1716,
                    "duration" : 185,
                    "mediaStart" : 0,
                    "mediaDuration" : 1,
                    "scalar" : 1,
                    "metadata" : {
                      "clipSpeedAttribute" : false,
                      "default-scale" : "1",
                      "effectApplied" : "none",
                      "lockAspectRatio" : true
                    },
                    "animationTracks" : {

                    }
                  },
                  {
                    "id" : 129,
                    "_type" : "Callout",
                    "def" : {
                      "kind" : "remix",
                      "shape" : "arrow",
                      "style" : "basic",
                      "stroke-color-blue" : 0.56078431372549,
                      "stroke-color-green" : 0.686274509803922,
                      "stroke-color-opacity" : 1.0,
                      "stroke-color-red" : 0.0196078431372549,
                      "stroke-width" : 8.0,
                      "tail-x" : {
                        "type" : "double",
                        "defaultValue" : 112.237857920985,
                        "interp" : "eioe"
                      },
                      "tail-y" : {
                        "type" : "double",
                        "defaultValue" : -50.5621115484851,
                        "interp" : "eioe"
                      },
                      "shape-anchor" : "none",
                      "shape-tail" : "arrow",
                      "stroke-style" : "solid"
                    },
                    "attributes" : {
                      "ident" : "",
                      "autoRotateText" : true
                    },
                    "parameters" : {
                      "translation0" : -434.041527686531,
                      "translation1" : 140.906223773127,
                      "sourceCrop0" : 0.0,
                      "sourceCrop1" : 0.0,
                      "sourceCrop2" : 0.0,
                      "sourceCrop3" : 0.0,
                      "geometryCrop0" : 0.0,
                      "geometryCrop1" : 0.0,
                      "geometryCrop2" : 0.0,
                      "geometryCrop3" : 0.0
                    },
                    "effects" : [

                    ],
                    "start" : 2444,
                    "duration" : 222,
                    "mediaStart" : 0,
                    "mediaDuration" : 222,
                    "scalar" : 1,
                    "metadata" : {
                      "AppliedThemeId" : "",
                      "clipSpeedAttribute" : false,
                      "default-scale" : "1",
                      "effectApplied" : "none",
                      "lockAspectRatio" : true
                    },
                    "animationTracks" : {

                    }
                  },
                  {
                    "id" : 130,
                    "_type" : "Callout",
                    "def" : {
                      "kind" : "remix",
                      "shape" : "arrow",
                      "style" : "basic",
                      "stroke-color-blue" : 0.56078431372549,
                      "stroke-color-green" : 0.686274509803922,
                      "stroke-color-opacity" : 1.0,
                      "stroke-color-red" : 0.0196078431372549,
                      "stroke-width" : 8.0,
                      "tail-x" : {
                        "type" : "double",
                        "defaultValue" : 71.7256607363512,
                        "interp" : "eioe"
                      },
                      "tail-y" : {
                        "type" : "double",
                        "defaultValue" : 264.666427256912,
                        "interp" : "eioe"
                      },
                      "shape-anchor" : "none",
                      "shape-tail" : "arrow",
                      "stroke-style" : "solid"
                    },
                    "attributes" : {
                      "ident" : "",
                      "autoRotateText" : true
                    },
                    "parameters" : {
                      "translation0" : -294.109131637232,
                      "translation1" : -138.002073848652,
                      "sourceCrop0" : 0.0,
                      "sourceCrop1" : 0.0,
                      "sourceCrop2" : 0.0,
                      "sourceCrop3" : 0.0,
                      "geometryCrop0" : 0.0,
                      "geometryCrop1" : 0.0,
                      "geometryCrop2" : 0.0,
                      "geometryCrop3" : 0.0
                    },
                    "effects" : [

                    ],
                    "start" : 2728,
                    "duration" : 35,
                    "mediaStart" : 0,
                    "mediaDuration" : 35,
                    "scalar" : 1,
                    "metadata" : {
                      "AppliedThemeId" : "",
                      "clipSpeedAttribute" : false,
                      "default-scale" : "1",
                      "effectApplied" : "none",
                      "lockAspectRatio" : true
                    },
                    "animationTracks" : {

                    }
                  },
                  {
                    "id" : 131,
                    "_type" : "Callout",
                    "def" : {
                      "kind" : "remix",
                      "shape" : "arrow",
                      "style" : "basic",
                      "stroke-color-blue" : 0.56078431372549,
                      "stroke-color-green" : 0.686274509803922,
                      "stroke-color-opacity" : 1.0,
                      "stroke-color-red" : 0.0196078431372549,
                      "stroke-width" : 8.0,
                      "tail-x" : {
                        "type" : "double",
                        "defaultValue" : 71.7256607363512,
                        "interp" : "eioe"
                      },
                      "tail-y" : {
                        "type" : "double",
                        "defaultValue" : 264.666427256912,
                        "interp" : "eioe"
                      },
                      "shape-anchor" : "none",
                      "shape-tail" : "arrow",
                      "stroke-style" : "solid"
                    },
                    "attributes" : {
                      "ident" : "",
                      "autoRotateText" : true
                    },
                    "parameters" : {
                      "translation0" : -294.109131637232,
                      "translation1" : -138.002073848652,
                      "sourceCrop0" : 0.0,
                      "sourceCrop1" : 0.0,
                      "sourceCrop2" : 0.0,
                      "sourceCrop3" : 0.0,
                      "geometryCrop0" : 0.0,
                      "geometryCrop1" : 0.0,
                      "geometryCrop2" : 0.0,
                      "geometryCrop3" : 0.0
                    },
                    "effects" : [

                    ],
                    "start" : 2852,
                    "duration" : 35,
                    "mediaStart" : 0,
                    "mediaDuration" : 35,
                    "scalar" : 1,
                    "metadata" : {
                      "AppliedThemeId" : "",
                      "clipSpeedAttribute" : false,
                      "default-scale" : "1",
                      "effectApplied" : "none",
                      "lockAspectRatio" : true
                    },
                    "animationTracks" : {

                    }
                  },
                  {
                    "id" : 132,
                    "_type" : "Callout",
                    "def" : {
                      "kind" : "remix",
                      "shape" : "arrow",
                      "style" : "basic",
                      "stroke-color-blue" : 1.0,
                      "stroke-color-green" : 1.0,
                      "stroke-color-opacity" : 1.0,
                      "stroke-color-red" : 1.0,
                      "stroke-width" : 8.0,
                      "tail-x" : {
                        "type" : "double",
                        "defaultValue" : -85.1373598366521,
                        "interp" : "eioe"
                      },
                      "tail-y" : {
                        "type" : "double",
                        "defaultValue" : 95.2278839720044,
                        "interp" : "eioe"
                      },
                      "shape-anchor" : "none",
                      "shape-tail" : "arrow",
                      "stroke-style" : "solid"
                    },
                    "attributes" : {
                      "ident" : "",
                      "autoRotateText" : true
                    },
                    "parameters" : {
                      "translation0" : -249.818248447295,
                      "translation1" : -244.25541073066,
                      "sourceCrop0" : 0.0,
                      "sourceCrop1" : 0.0,
                      "sourceCrop2" : 0.0,
                      "sourceCrop3" : 0.0,
                      "geometryCrop0" : 0.0,
                      "geometryCrop1" : 0.0,
                      "geometryCrop2" : 0.0,
                      "geometryCrop3" : 0.0
                    },
                    "effects" : [

                    ],
                    "start" : 3182,
                    "duration" : 109,
                    "mediaStart" : 0,
                    "mediaDuration" : 109,
                    "scalar" : 1,
                    "metadata" : {
                      "AppliedThemeId" : "",
                      "clipSpeedAttribute" : false,
                      "default-callout-stroke-color" : "(5,175,143,255)",
                      "default-scale" : "1",
                      "effectApplied" : "none",
                      "lockAspectRatio" : true
                    },
                    "animationTracks" : {

                    }
                  },
                  {
                    "id" : 133,
                    "_type" : "IMFile",
                    "src" : 30,
                    "trackNumber" : 0,
                    "trimStartSum" : -19,
                    "attributes" : {
                      "ident" : "Pasted Image"
                    },
                    "parameters" : {
                      "translation0" : {
                        "type" : "double",
                        "defaultValue" : 225.243931137617,
                        "keyframes" : [
                          {
                            "endTime" : 85,
                            "time" : 31,
                            "value" : 482.243931137617,
                            "duration" : 54
                          }
                        ]
                      },
                      "translation1" : {
                        "type" : "double",
                        "defaultValue" : -6.055226402146,
                        "keyframes" : [
                          {
                            "endTime" : 85,
                            "time" : 31,
                            "value" : 60.9447735978541,
                            "duration" : 54
                          }
                        ]
                      },
                      "scale0" : {
                        "type" : "double",
                        "defaultValue" : 0.330000013113022,
                        "keyframes" : [
                          {
                            "endTime" : 85,
                            "time" : 31,
                            "value" : 0.334571315846066,
                            "duration" : 54
                          }
                        ]
                      },
                      "scale1" : {
                        "type" : "double",
                        "defaultValue" : 0.330000013113022,
                        "keyframes" : [
                          {
                            "endTime" : 85,
                            "time" : 31,
                            "value" : 0.334571315846066,
                            "duration" : 54
                          }
                        ]
                      },
                      "sourceCrop0" : 0.0,
                      "sourceCrop1" : 0.0,
                      "sourceCrop2" : 0.0,
                      "sourceCrop3" : 0.0,
                      "geometryCrop0" : 0.0,
                      "geometryCrop1" : 0.0,
                      "geometryCrop2" : 0.0,
                      "geometryCrop3" : 0.0
                    },
                    "effects" : [

                    ],
                    "start" : 3407,
                    "duration" : 104,
                    "mediaStart" : 0,
                    "mediaDuration" : 1,
                    "scalar" : 1,
                    "metadata" : {
                      "clipSpeedAttribute" : false,
                      "default-scale" : "1",
                      "effectApplied" : "none",
                      "lockAspectRatio" : true
                    },
                    "animationTracks" : {
                      "visual" : [
                        {
                          "endTime" : 85,
                          "duration" : 54,
                          "range" : [ 31, 54]
                        }
                      ]
                    }
                  }
                ],
                "transitions" : [
                  {
                    "name" : "Fade",
                    "duration" : 30,
                    "rightMedia" : 128,
                    "attributes" : {
                      "bypass" : false,
                      "reverse" : false,
                      "trivial" : false,
                      "useAudioPreRoll" : true,
                      "useVisualPreRoll" : true
                    }

                  },
                  {
                    "name" : "Fade",
                    "duration" : 30,
                    "leftMedia" : 128,
                    "attributes" : {
                      "bypass" : false,
                      "reverse" : false,
                      "trivial" : false,
                      "useAudioPreRoll" : true,
                      "useVisualPreRoll" : true
                    }

                  },
                  {
                    "name" : "Fade",
                    "duration" : 30,
                    "rightMedia" : 129,
                    "attributes" : {
                      "bypass" : false,
                      "reverse" : false,
                      "trivial" : false,
                      "useAudioPreRoll" : true,
                      "useVisualPreRoll" : true
                    }

                  },
                  {
                    "name" : "Fade",
                    "duration" : 30,
                    "leftMedia" : 129,
                    "attributes" : {
                      "bypass" : false,
                      "reverse" : false,
                      "trivial" : false,
                      "useAudioPreRoll" : true,
                      "useVisualPreRoll" : true
                    }

                  },
                  {
                    "name" : "Fade",
                    "duration" : 14,
                    "rightMedia" : 130,
                    "attributes" : {
                      "bypass" : false,
                      "reverse" : false,
                      "trivial" : false,
                      "useAudioPreRoll" : true,
                      "useVisualPreRoll" : true
                    }

                  },
                  {
                    "name" : "Fade",
                    "duration" : 14,
                    "leftMedia" : 130,
                    "attributes" : {
                      "bypass" : false,
                      "reverse" : false,
                      "trivial" : false,
                      "useAudioPreRoll" : true,
                      "useVisualPreRoll" : true
                    }

                  },
                  {
                    "name" : "Fade",
                    "duration" : 14,
                    "rightMedia" : 131,
                    "attributes" : {
                      "bypass" : false,
                      "reverse" : false,
                      "trivial" : false,
                      "useAudioPreRoll" : true,
                      "useVisualPreRoll" : true
                    }

                  },
                  {
                    "name" : "Fade",
                    "duration" : 14,
                    "leftMedia" : 131,
                    "attributes" : {
                      "bypass" : false,
                      "reverse" : false,
                      "trivial" : false,
                      "useAudioPreRoll" : true,
                      "useVisualPreRoll" : true
                    }

                  },
                  {
                    "name" : "Fade",
                    "duration" : 30,
                    "rightMedia" : 132,
                    "attributes" : {
                      "bypass" : false,
                      "reverse" : false,
                      "trivial" : false,
                      "useAudioPreRoll" : true,
                      "useVisualPreRoll" : true
                    }

                  },
                  {
                    "name" : "Fade",
                    "duration" : 30,
                    "leftMedia" : 132,
                    "attributes" : {
                      "bypass" : false,
                      "reverse" : false,
                      "trivial" : false,
                      "useAudioPreRoll" : true,
                      "useVisualPreRoll" : true
                    }

                  },
                  {
                    "name" : "Fade",
                    "duration" : 30,
                    "rightMedia" : 133,
                    "attributes" : {
                      "bypass" : false,
                      "reverse" : false,
                      "trivial" : false,
                      "useAudioPreRoll" : true,
                      "useVisualPreRoll" : true
                    }

                  }
                ]
              },
              {
                "trackIndex" : 11,
                "medias" : [
                  {
                    "id" : 134,
                    "_type" : "IMFile",
                    "src" : 23,
                    "trackNumber" : 0,
                    "trimStartSum" : 0,
                    "attributes" : {
                      "ident" : "\n\n\n\n\n\n\n\n\n\n\n\n\n\n\n\n\n\n\n\n\n\n\n\n\n"
                    },
                    "parameters" : {
                      "translation0" : -453.640327747557,
                      "translation1" : -224.196151270647,
                      "scale0" : 0.572655462045931,
                      "scale1" : 0.572655462045931,
                      "sourceCrop0" : 0.0,
                      "sourceCrop1" : 0.0,
                      "sourceCrop2" : 0.0,
                      "sourceCrop3" : 0.0,
                      "geometryCrop0" : 0.0,
                      "geometryCrop1" : 0.0,
                      "geometryCrop2" : 0.0,
                      "geometryCrop3" : 0.0
                    },
                    "effects" : [

                    ],
                    "start" : 2509,
                    "duration" : 157,
                    "mediaStart" : 0,
                    "mediaDuration" : 1,
                    "scalar" : 1,
                    "metadata" : {
                      "clipSpeedAttribute" : false,
                      "default-scale" : "1",
                      "effectApplied" : "none",
                      "lockAspectRatio" : true
                    },
                    "animationTracks" : {

                    }
                  },
                  {
                    "id" : 135,
                    "_type" : "Callout",
                    "def" : {
                      "kind" : "remix",
                      "shape" : "arrow",
                      "style" : "basic",
                      "stroke-color-blue" : 0.56078431372549,
                      "stroke-color-green" : 0.686274509803922,
                      "stroke-color-opacity" : 1.0,
                      "stroke-color-red" : 0.0196078431372549,
                      "stroke-width" : 8.0,
                      "tail-x" : {
                        "type" : "double",
                        "defaultValue" : 66.0356673227337,
                        "interp" : "eioe"
                      },
                      "tail-y" : {
                        "type" : "double",
                        "defaultValue" : 66.6725087852927,
                        "interp" : "eioe"
                      },
                      "shape-anchor" : "none",
                      "shape-tail" : "arrow",
                      "stroke-style" : "solid"
                    },
                    "attributes" : {
                      "ident" : "",
                      "autoRotateText" : true
                    },
                    "parameters" : {
                      "translation0" : -89.5117863823656,
                      "translation1" : -99.734957324127,
                      "sourceCrop0" : 0.0,
                      "sourceCrop1" : 0.0,
                      "sourceCrop2" : 0.0,
                      "sourceCrop3" : 0.0,
                      "geometryCrop0" : 0.0,
                      "geometryCrop1" : 0.0,
                      "geometryCrop2" : 0.0,
                      "geometryCrop3" : 0.0
                    },
                    "effects" : [

                    ],
                    "start" : 2735,
                    "duration" : 35,
                    "mediaStart" : 0,
                    "mediaDuration" : 35,
                    "scalar" : 1,
                    "metadata" : {
                      "AppliedThemeId" : "",
                      "clipSpeedAttribute" : false,
                      "default-scale" : "1",
                      "effectApplied" : "none",
                      "lockAspectRatio" : true
                    },
                    "animationTracks" : {

                    }
                  },
                  {
                    "id" : 136,
                    "_type" : "Callout",
                    "def" : {
                      "kind" : "remix",
                      "shape" : "arrow",
                      "style" : "basic",
                      "stroke-color-blue" : 0.56078431372549,
                      "stroke-color-green" : 0.686274509803922,
                      "stroke-color-opacity" : 1.0,
                      "stroke-color-red" : 0.0196078431372549,
                      "stroke-width" : 8.0,
                      "tail-x" : {
                        "type" : "double",
                        "defaultValue" : 66.0356673227337,
                        "interp" : "eioe"
                      },
                      "tail-y" : {
                        "type" : "double",
                        "defaultValue" : 66.6725087852927,
                        "interp" : "eioe"
                      },
                      "shape-anchor" : "none",
                      "shape-tail" : "arrow",
                      "stroke-style" : "solid"
                    },
                    "attributes" : {
                      "ident" : "",
                      "autoRotateText" : true
                    },
                    "parameters" : {
                      "translation0" : -89.5117863823656,
                      "translation1" : -99.734957324127,
                      "sourceCrop0" : 0.0,
                      "sourceCrop1" : 0.0,
                      "sourceCrop2" : 0.0,
                      "sourceCrop3" : 0.0,
                      "geometryCrop0" : 0.0,
                      "geometryCrop1" : 0.0,
                      "geometryCrop2" : 0.0,
                      "geometryCrop3" : 0.0
                    },
                    "effects" : [

                    ],
                    "start" : 2859,
                    "duration" : 35,
                    "mediaStart" : 0,
                    "mediaDuration" : 35,
                    "scalar" : 1,
                    "metadata" : {
                      "AppliedThemeId" : "",
                      "clipSpeedAttribute" : false,
                      "default-scale" : "1",
                      "effectApplied" : "none",
                      "lockAspectRatio" : true
                    },
                    "animationTracks" : {

                    }
                  },
                  {
                    "id" : 137,
                    "_type" : "Callout",
                    "def" : {
                      "kind" : "remix",
                      "shape" : "arrow",
                      "style" : "basic",
                      "stroke-color-blue" : 0.56078431372549,
                      "stroke-color-green" : 0.686274509803922,
                      "stroke-color-opacity" : 1.0,
                      "stroke-color-red" : 0.0196078431372549,
                      "stroke-width" : 8.0,
                      "tail-x" : {
                        "type" : "double",
                        "defaultValue" : 222.989730878801,
                        "interp" : "eioe"
                      },
                      "tail-y" : {
                        "type" : "double",
                        "defaultValue" : 0.0,
                        "interp" : "eioe"
                      },
                      "shape-anchor" : "none",
                      "shape-tail" : "arrow",
                      "stroke-style" : "solid"
                    },
                    "attributes" : {
                      "ident" : "",
                      "autoRotateText" : true
                    },
                    "parameters" : {
                      "translation0" : -457.190169995518,
                      "translation1" : 122.444979258604,
                      "sourceCrop0" : 0.0,
                      "sourceCrop1" : 0.0,
                      "sourceCrop2" : 0.0,
                      "sourceCrop3" : 0.0,
                      "geometryCrop0" : 0.0,
                      "geometryCrop1" : 0.0,
                      "geometryCrop2" : 0.0,
                      "geometryCrop3" : 0.0
                    },
                    "effects" : [

                    ],
                    "start" : 3051,
                    "duration" : 240,
                    "mediaStart" : 0,
                    "mediaDuration" : 240,
                    "scalar" : 1,
                    "metadata" : {
                      "AppliedThemeId" : "",
                      "clipSpeedAttribute" : false,
                      "default-scale" : "1",
                      "effectApplied" : "none"
                    },
                    "animationTracks" : {

                    }
                  },
                  {
                    "id" : 138,
                    "_type" : "IMFile",
                    "src" : 30,
                    "trackNumber" : 0,
                    "trimStartSum" : -19,
                    "attributes" : {
                      "ident" : "Pasted Image"
                    },
                    "parameters" : {
                      "translation0" : {
                        "type" : "double",
                        "defaultValue" : 225.243931137617,
                        "keyframes" : [
                          {
                            "endTime" : 85,
                            "time" : 31,
                            "value" : 482.243931137617,
                            "duration" : 54
                          }
                        ]
                      },
                      "translation1" : {
                        "type" : "double",
                        "defaultValue" : 120.944773597854,
                        "keyframes" : [
                          {
                            "endTime" : 85,
                            "time" : 31,
                            "value" : 60.9447735978541,
                            "duration" : 54
                          }
                        ]
                      },
                      "scale0" : {
                        "type" : "double",
                        "defaultValue" : 0.330000013113022,
                        "keyframes" : [
                          {
                            "endTime" : 85,
                            "time" : 31,
                            "value" : 0.334571315846066,
                            "duration" : 54
                          }
                        ]
                      },
                      "scale1" : {
                        "type" : "double",
                        "defaultValue" : 0.330000013113022,
                        "keyframes" : [
                          {
                            "endTime" : 85,
                            "time" : 31,
                            "value" : 0.334571315846066,
                            "duration" : 54
                          }
                        ]
                      },
                      "sourceCrop0" : 0.0,
                      "sourceCrop1" : 0.0,
                      "sourceCrop2" : 0.0,
                      "sourceCrop3" : 0.0,
                      "geometryCrop0" : 0.0,
                      "geometryCrop1" : 0.0,
                      "geometryCrop2" : 0.0,
                      "geometryCrop3" : 0.0
                    },
                    "effects" : [

                    ],
                    "start" : 3407,
                    "duration" : 104,
                    "mediaStart" : 0,
                    "mediaDuration" : 1,
                    "scalar" : 1,
                    "metadata" : {
                      "clipSpeedAttribute" : false,
                      "default-scale" : "1",
                      "effectApplied" : "none",
                      "lockAspectRatio" : true
                    },
                    "animationTracks" : {
                      "visual" : [
                        {
                          "endTime" : 85,
                          "duration" : 54,
                          "range" : [ 31, 54]
                        }
                      ]
                    }
                  }
                ],
                "transitions" : [
                  {
                    "name" : "Fade",
                    "duration" : 30,
                    "rightMedia" : 134,
                    "attributes" : {
                      "bypass" : false,
                      "reverse" : false,
                      "trivial" : false,
                      "useAudioPreRoll" : true,
                      "useVisualPreRoll" : true
                    }

                  },
                  {
                    "name" : "Fade",
                    "duration" : 30,
                    "leftMedia" : 134,
                    "attributes" : {
                      "bypass" : false,
                      "reverse" : false,
                      "trivial" : false,
                      "useAudioPreRoll" : true,
                      "useVisualPreRoll" : true
                    }

                  },
                  {
                    "name" : "Fade",
                    "duration" : 14,
                    "rightMedia" : 135,
                    "attributes" : {
                      "bypass" : false,
                      "reverse" : false,
                      "trivial" : false,
                      "useAudioPreRoll" : true,
                      "useVisualPreRoll" : true
                    }

                  },
                  {
                    "name" : "Fade",
                    "duration" : 14,
                    "leftMedia" : 135,
                    "attributes" : {
                      "bypass" : false,
                      "reverse" : false,
                      "trivial" : false,
                      "useAudioPreRoll" : true,
                      "useVisualPreRoll" : true
                    }

                  },
                  {
                    "name" : "Fade",
                    "duration" : 14,
                    "rightMedia" : 136,
                    "attributes" : {
                      "bypass" : false,
                      "reverse" : false,
                      "trivial" : false,
                      "useAudioPreRoll" : true,
                      "useVisualPreRoll" : true
                    }

                  },
                  {
                    "name" : "Fade",
                    "duration" : 14,
                    "leftMedia" : 136,
                    "attributes" : {
                      "bypass" : false,
                      "reverse" : false,
                      "trivial" : false,
                      "useAudioPreRoll" : true,
                      "useVisualPreRoll" : true
                    }

                  },
                  {
                    "name" : "Fade",
                    "duration" : 30,
                    "rightMedia" : 137,
                    "attributes" : {
                      "bypass" : false,
                      "reverse" : false,
                      "trivial" : false,
                      "useAudioPreRoll" : true,
                      "useVisualPreRoll" : true
                    }

                  },
                  {
                    "name" : "Fade",
                    "duration" : 30,
                    "leftMedia" : 137,
                    "attributes" : {
                      "bypass" : false,
                      "reverse" : false,
                      "trivial" : false,
                      "useAudioPreRoll" : true,
                      "useVisualPreRoll" : true
                    }

                  },
                  {
                    "name" : "Fade",
                    "duration" : 30,
                    "rightMedia" : 138,
                    "attributes" : {
                      "bypass" : false,
                      "reverse" : false,
                      "trivial" : false,
                      "useAudioPreRoll" : true,
                      "useVisualPreRoll" : true
                    }

                  }
                ]
              },
              {
                "trackIndex" : 12,
                "medias" : [
                  {
                    "id" : 139,
                    "_type" : "Callout",
                    "def" : {
                      "kind" : "remix",
                      "shape" : "arrow",
                      "style" : "basic",
                      "stroke-color-blue" : 0.56078431372549,
                      "stroke-color-green" : 0.686274509803922,
                      "stroke-color-opacity" : 1.0,
                      "stroke-color-red" : 0.0196078431372549,
                      "stroke-width" : 8.0,
                      "tail-x" : {
                        "type" : "double",
                        "defaultValue" : 92.8668473549004,
                        "interp" : "eioe"
                      },
                      "tail-y" : {
                        "type" : "double",
                        "defaultValue" : 89.4623052487606,
                        "interp" : "eioe"
                      },
                      "shape-anchor" : "none",
                      "shape-tail" : "arrow",
                      "stroke-style" : "solid"
                    },
                    "attributes" : {
                      "ident" : "",
                      "autoRotateText" : true
                    },
                    "parameters" : {
                      "translation0" : -414.670517120447,
                      "translation1" : -226.118193024119,
                      "sourceCrop0" : 0.0,
                      "sourceCrop1" : 0.0,
                      "sourceCrop2" : 0.0,
                      "sourceCrop3" : 0.0,
                      "geometryCrop0" : 0.0,
                      "geometryCrop1" : 0.0,
                      "geometryCrop2" : 0.0,
                      "geometryCrop3" : 0.0
                    },
                    "effects" : [

                    ],
                    "start" : 2509,
                    "duration" : 157,
                    "mediaStart" : 0,
                    "mediaDuration" : 157,
                    "scalar" : 1,
                    "metadata" : {
                      "AppliedThemeId" : "",
                      "clipSpeedAttribute" : false,
                      "default-scale" : "1",
                      "effectApplied" : "none",
                      "lockAspectRatio" : true
                    },
                    "animationTracks" : {

                    }
                  },
                  {
                    "id" : 140,
                    "_type" : "Callout",
                    "def" : {
                      "kind" : "remix",
                      "shape" : "arrow",
                      "style" : "basic",
                      "stroke-color-blue" : 0.56078431372549,
                      "stroke-color-green" : 0.686274509803922,
                      "stroke-color-opacity" : 1.0,
                      "stroke-color-red" : 0.0196078431372549,
                      "stroke-width" : 8.0,
                      "tail-x" : {
                        "type" : "double",
                        "defaultValue" : 216.296194289482,
                        "interp" : "eioe"
                      },
                      "tail-y" : {
                        "type" : "double",
                        "defaultValue" : -130.307750194659,
                        "interp" : "eioe"
                      },
                      "shape-anchor" : "none",
                      "shape-tail" : "arrow",
                      "stroke-style" : "solid"
                    },
                    "attributes" : {
                      "ident" : "",
                      "autoRotateText" : true
                    },
                    "parameters" : {
                      "translation0" : -457.190169995518,
                      "translation1" : 122.444979258604,
                      "sourceCrop0" : 0.0,
                      "sourceCrop1" : 0.0,
                      "sourceCrop2" : 0.0,
                      "sourceCrop3" : 0.0,
                      "geometryCrop0" : 0.0,
                      "geometryCrop1" : 0.0,
                      "geometryCrop2" : 0.0,
                      "geometryCrop3" : 0.0
                    },
                    "effects" : [

                    ],
                    "start" : 3051,
                    "duration" : 240,
                    "mediaStart" : 0,
                    "mediaDuration" : 240,
                    "scalar" : 1,
                    "metadata" : {
                      "AppliedThemeId" : "",
                      "clipSpeedAttribute" : false,
                      "default-scale" : "1",
                      "effectApplied" : "none"
                    },
                    "animationTracks" : {

                    }
                  },
                  {
                    "id" : 141,
                    "_type" : "IMFile",
                    "src" : 29,
                    "trackNumber" : 0,
                    "trimStartSum" : -6,
                    "attributes" : {
                      "ident" : "Pasted Image"
                    },
                    "parameters" : {
                      "translation0" : 483.053296867911,
                      "translation1" : 69.907568052359,
                      "scale0" : 1.3701081150337,
                      "scale1" : 1.3701081150337,
                      "sourceCrop0" : 0.0,
                      "sourceCrop1" : 0.0,
                      "sourceCrop2" : 0.0,
                      "sourceCrop3" : 0.0,
                      "geometryCrop0" : 0.0,
                      "geometryCrop1" : 0.0,
                      "geometryCrop2" : 0.0,
                      "geometryCrop3" : 0.0
                    },
                    "effects" : [

                    ],
                    "start" : 3377,
                    "duration" : 224,
                    "mediaStart" : 0,
                    "mediaDuration" : 1,
                    "scalar" : 1,
                    "metadata" : {
                      "clipSpeedAttribute" : false,
                      "default-scale" : "1",
                      "effectApplied" : "none",
                      "lockAspectRatio" : true
                    },
                    "animationTracks" : {

                    }
                  }
                ],
                "transitions" : [
                  {
                    "name" : "Fade",
                    "duration" : 30,
                    "rightMedia" : 139,
                    "attributes" : {
                      "bypass" : false,
                      "reverse" : false,
                      "trivial" : false,
                      "useAudioPreRoll" : true,
                      "useVisualPreRoll" : true
                    }

                  },
                  {
                    "name" : "Fade",
                    "duration" : 30,
                    "leftMedia" : 139,
                    "attributes" : {
                      "bypass" : false,
                      "reverse" : false,
                      "trivial" : false,
                      "useAudioPreRoll" : true,
                      "useVisualPreRoll" : true
                    }

                  },
                  {
                    "name" : "Fade",
                    "duration" : 30,
                    "rightMedia" : 140,
                    "attributes" : {
                      "bypass" : false,
                      "reverse" : false,
                      "trivial" : false,
                      "useAudioPreRoll" : true,
                      "useVisualPreRoll" : true
                    }

                  },
                  {
                    "name" : "Fade",
                    "duration" : 30,
                    "leftMedia" : 140,
                    "attributes" : {
                      "bypass" : false,
                      "reverse" : false,
                      "trivial" : false,
                      "useAudioPreRoll" : true,
                      "useVisualPreRoll" : true
                    }

                  },
                  {
                    "name" : "Fade",
                    "duration" : 30,
                    "rightMedia" : 141,
                    "attributes" : {
                      "bypass" : false,
                      "reverse" : false,
                      "trivial" : false,
                      "useAudioPreRoll" : true,
                      "useVisualPreRoll" : true
                    }

                  },
                  {
                    "name" : "Fade",
                    "duration" : 30,
                    "leftMedia" : 141,
                    "attributes" : {
                      "bypass" : false,
                      "reverse" : false,
                      "trivial" : false,
                      "useAudioPreRoll" : true,
                      "useVisualPreRoll" : true
                    }

                  }
                ]
              },
              {
                "trackIndex" : 13,
                "medias" : [
                  {
                    "id" : 142,
                    "_type" : "IMFile",
                    "src" : 62,
                    "trackNumber" : 0,
                    "trimStartSum" : 0,
                    "attributes" : {
                      "ident" : "Pasted Image"
                    },
                    "parameters" : {
                      "translation0" : {
                        "type" : "double",
                        "defaultValue" : -468.976905456987,
                        "interp" : "eioe"
                      },
                      "translation1" : {
                        "type" : "double",
                        "defaultValue" : -26.504443120911,
                        "interp" : "eioe"
                      },
                      "scale0" : {
                        "type" : "double",
                        "defaultValue" : 2.06571944658725,
                        "interp" : "eioe"
                      },
                      "scale1" : {
                        "type" : "double",
                        "defaultValue" : 2.06571944658725,
                        "interp" : "eioe"
                      },
                      "sourceCrop0" : {
                        "type" : "double",
                        "defaultValue" : 0.0,
                        "interp" : "eioe"
                      },
                      "sourceCrop1" : {
                        "type" : "double",
                        "defaultValue" : 0.0,
                        "interp" : "eioe"
                      },
                      "sourceCrop2" : {
                        "type" : "double",
                        "defaultValue" : 0.0,
                        "interp" : "eioe"
                      },
                      "sourceCrop3" : {
                        "type" : "double",
                        "defaultValue" : 0.0,
                        "interp" : "eioe"
                      },
                      "geometryCrop0" : {
                        "type" : "double",
                        "defaultValue" : 0.0,
                        "interp" : "eioe"
                      },
                      "geometryCrop1" : {
                        "type" : "double",
                        "defaultValue" : 0.0,
                        "interp" : "eioe"
                      },
                      "geometryCrop2" : {
                        "type" : "double",
                        "defaultValue" : 0.0,
                        "interp" : "eioe"
                      },
                      "geometryCrop3" : {
                        "type" : "double",
                        "defaultValue" : 0.0,
                        "interp" : "eioe"
                      }
                    },
                    "effects" : [

                    ],
                    "start" : 2583,
                    "duration" : 83,
                    "mediaStart" : 0,
                    "mediaDuration" : 1,
                    "scalar" : 1,
                    "metadata" : {
                      "clipSpeedAttribute" : false,
                      "default-scale" : "1",
                      "effectApplied" : "none",
                      "lockAspectRatio" : true
                    },
                    "animationTracks" : {

                    }
                  },
                  {
                    "id" : 143,
                    "_type" : "Callout",
                    "def" : {
                      "kind" : "remix",
                      "shape" : "arrow",
                      "style" : "basic",
                      "stroke-color-blue" : 0.56078431372549,
                      "stroke-color-green" : 0.686274509803922,
                      "stroke-color-opacity" : 1.0,
                      "stroke-color-red" : 0.0196078431372549,
                      "stroke-width" : 8.0,
                      "tail-x" : {
                        "type" : "double",
                        "defaultValue" : 216.561522705887,
                        "interp" : "eioe"
                      },
                      "tail-y" : {
                        "type" : "double",
                        "defaultValue" : -253.54092123016,
                        "interp" : "eioe"
                      },
                      "shape-anchor" : "none",
                      "shape-tail" : "arrow",
                      "stroke-style" : "solid"
                    },
                    "attributes" : {
                      "ident" : "",
                      "autoRotateText" : true
                    },
                    "parameters" : {
                      "translation0" : -457.190169995518,
                      "translation1" : 122.444979258604,
                      "sourceCrop0" : 0.0,
                      "sourceCrop1" : 0.0,
                      "sourceCrop2" : 0.0,
                      "sourceCrop3" : 0.0,
                      "geometryCrop0" : 0.0,
                      "geometryCrop1" : 0.0,
                      "geometryCrop2" : 0.0,
                      "geometryCrop3" : 0.0
                    },
                    "effects" : [

                    ],
                    "start" : 3051,
                    "duration" : 240,
                    "mediaStart" : 0,
                    "mediaDuration" : 240,
                    "scalar" : 1,
                    "metadata" : {
                      "AppliedThemeId" : "",
                      "clipSpeedAttribute" : false,
                      "default-scale" : "1",
                      "effectApplied" : "none"
                    },
                    "animationTracks" : {

                    }
                  }
                ],
                "transitions" : [
                  {
                    "name" : "Fade",
                    "duration" : 30,
                    "rightMedia" : 142,
                    "attributes" : {
                      "bypass" : false,
                      "reverse" : false,
                      "trivial" : false,
                      "useAudioPreRoll" : true,
                      "useVisualPreRoll" : true
                    }

                  },
                  {
                    "name" : "Fade",
                    "duration" : 30,
                    "leftMedia" : 142,
                    "attributes" : {
                      "bypass" : false,
                      "reverse" : false,
                      "trivial" : false,
                      "useAudioPreRoll" : true,
                      "useVisualPreRoll" : true
                    }

                  },
                  {
                    "name" : "Fade",
                    "duration" : 30,
                    "rightMedia" : 143,
                    "attributes" : {
                      "bypass" : false,
                      "reverse" : false,
                      "trivial" : false,
                      "useAudioPreRoll" : true,
                      "useVisualPreRoll" : true
                    }

                  },
                  {
                    "name" : "Fade",
                    "duration" : 30,
                    "leftMedia" : 143,
                    "attributes" : {
                      "bypass" : false,
                      "reverse" : false,
                      "trivial" : false,
                      "useAudioPreRoll" : true,
                      "useVisualPreRoll" : true
                    }

                  }
                ]
              },
              {
                "trackIndex" : 14,
                "medias" : [
                  {
                    "id" : 144,
                    "_type" : "Callout",
                    "def" : {
                      "kind" : "remix",
                      "shape" : "arrow",
                      "style" : "basic",
                      "stroke-color-blue" : 0.56078431372549,
                      "stroke-color-green" : 0.686274509803922,
                      "stroke-color-opacity" : 1.0,
                      "stroke-color-red" : 0.0196078431372549,
                      "stroke-width" : 8.0,
                      "tail-x" : {
                        "type" : "double",
                        "defaultValue" : 93.6855062115783,
                        "interp" : "eioe"
                      },
                      "tail-y" : {
                        "type" : "double",
                        "defaultValue" : 0.0,
                        "interp" : "eioe"
                      },
                      "shape-anchor" : "none",
                      "shape-tail" : "arrow",
                      "stroke-style" : "solid"
                    },
                    "attributes" : {
                      "ident" : "",
                      "autoRotateText" : true
                    },
                    "parameters" : {
                      "translation0" : -415.489175977125,
                      "translation1" : -20.6558877753581,
                      "sourceCrop0" : 0.0,
                      "sourceCrop1" : 0.0,
                      "sourceCrop2" : 0.0,
                      "sourceCrop3" : 0.0,
                      "geometryCrop0" : 0.0,
                      "geometryCrop1" : 0.0,
                      "geometryCrop2" : 0.0,
                      "geometryCrop3" : 0.0
                    },
                    "effects" : [

                    ],
                    "start" : 2583,
                    "duration" : 83,
                    "mediaStart" : -21,
                    "mediaDuration" : 83,
                    "scalar" : 1,
                    "metadata" : {
                      "AppliedThemeId" : "",
                      "clipSpeedAttribute" : false,
                      "default-scale" : "1",
                      "effectApplied" : "none",
                      "lockAspectRatio" : true
                    },
                    "animationTracks" : {

                    }
                  },
                  {
                    "id" : 145,
                    "_type" : "Callout",
                    "def" : {
                      "kind" : "remix",
                      "shape" : "arrow",
                      "style" : "basic",
                      "stroke-color-blue" : 0.56078431372549,
                      "stroke-color-green" : 0.686274509803922,
                      "stroke-color-opacity" : 1.0,
                      "stroke-color-red" : 0.0196078431372549,
                      "stroke-width" : 8.0,
                      "tail-x" : {
                        "type" : "double",
                        "defaultValue" : 222.989730878801,
                        "interp" : "eioe"
                      },
                      "tail-y" : {
                        "type" : "double",
                        "defaultValue" : 0.0,
                        "interp" : "eioe"
                      },
                      "shape-anchor" : "none",
                      "shape-tail" : "arrow",
                      "stroke-style" : "solid"
                    },
                    "attributes" : {
                      "ident" : "",
                      "autoRotateText" : true
                    },
                    "parameters" : {
                      "translation0" : -457.190169995518,
                      "translation1" : -0.55502074139649,
                      "sourceCrop0" : 0.0,
                      "sourceCrop1" : 0.0,
                      "sourceCrop2" : 0.0,
                      "sourceCrop3" : 0.0,
                      "geometryCrop0" : 0.0,
                      "geometryCrop1" : 0.0,
                      "geometryCrop2" : 0.0,
                      "geometryCrop3" : 0.0
                    },
                    "effects" : [

                    ],
                    "start" : 3051,
                    "duration" : 240,
                    "mediaStart" : 0,
                    "mediaDuration" : 240,
                    "scalar" : 1,
                    "metadata" : {
                      "AppliedThemeId" : "",
                      "clipSpeedAttribute" : false,
                      "default-scale" : "1",
                      "effectApplied" : "none"
                    },
                    "animationTracks" : {

                    }
                  }
                ],
                "transitions" : [
                  {
                    "name" : "Fade",
                    "duration" : 30,
                    "rightMedia" : 144,
                    "attributes" : {
                      "bypass" : false,
                      "reverse" : false,
                      "trivial" : false,
                      "useAudioPreRoll" : true,
                      "useVisualPreRoll" : true
                    }

                  },
                  {
                    "name" : "Fade",
                    "duration" : 30,
                    "leftMedia" : 144,
                    "attributes" : {
                      "bypass" : false,
                      "reverse" : false,
                      "trivial" : false,
                      "useAudioPreRoll" : true,
                      "useVisualPreRoll" : true
                    }

                  },
                  {
                    "name" : "Fade",
                    "duration" : 30,
                    "rightMedia" : 145,
                    "attributes" : {
                      "bypass" : false,
                      "reverse" : false,
                      "trivial" : false,
                      "useAudioPreRoll" : true,
                      "useVisualPreRoll" : true
                    }

                  },
                  {
                    "name" : "Fade",
                    "duration" : 30,
                    "leftMedia" : 145,
                    "attributes" : {
                      "bypass" : false,
                      "reverse" : false,
                      "trivial" : false,
                      "useAudioPreRoll" : true,
                      "useVisualPreRoll" : true
                    }

                  }
                ]
              },
              {
                "trackIndex" : 15,
                "medias" : [
                  {
                    "id" : 146,
                    "_type" : "Callout",
                    "def" : {
                      "kind" : "remix",
                      "shape" : "arrow",
                      "style" : "basic",
                      "stroke-color-blue" : 0.56078431372549,
                      "stroke-color-green" : 0.686274509803922,
                      "stroke-color-opacity" : 1.0,
                      "stroke-color-red" : 0.0196078431372549,
                      "stroke-width" : 8.0,
                      "tail-x" : {
                        "type" : "double",
                        "defaultValue" : 216.296194289482,
                        "interp" : "eioe"
                      },
                      "tail-y" : {
                        "type" : "double",
                        "defaultValue" : -130.307750194659,
                        "interp" : "eioe"
                      },
                      "shape-anchor" : "none",
                      "shape-tail" : "arrow",
                      "stroke-style" : "solid"
                    },
                    "attributes" : {
                      "ident" : "",
                      "autoRotateText" : true
                    },
                    "parameters" : {
                      "translation0" : -457.190169995518,
                      "translation1" : 0.44497925860351,
                      "sourceCrop0" : 0.0,
                      "sourceCrop1" : 0.0,
                      "sourceCrop2" : 0.0,
                      "sourceCrop3" : 0.0,
                      "geometryCrop0" : 0.0,
                      "geometryCrop1" : 0.0,
                      "geometryCrop2" : 0.0,
                      "geometryCrop3" : 0.0
                    },
                    "effects" : [

                    ],
                    "start" : 3051,
                    "duration" : 240,
                    "mediaStart" : 0,
                    "mediaDuration" : 240,
                    "scalar" : 1,
                    "metadata" : {
                      "AppliedThemeId" : "",
                      "clipSpeedAttribute" : false,
                      "default-scale" : "1",
                      "effectApplied" : "none"
                    },
                    "animationTracks" : {

                    }
                  }
                ],
                "transitions" : [
                  {
                    "name" : "Fade",
                    "duration" : 30,
                    "rightMedia" : 146,
                    "attributes" : {
                      "bypass" : false,
                      "reverse" : false,
                      "trivial" : false,
                      "useAudioPreRoll" : true,
                      "useVisualPreRoll" : true
                    }

                  },
                  {
                    "name" : "Fade",
                    "duration" : 30,
                    "leftMedia" : 146,
                    "attributes" : {
                      "bypass" : false,
                      "reverse" : false,
                      "trivial" : false,
                      "useAudioPreRoll" : true,
                      "useVisualPreRoll" : true
                    }

                  }
                ]
              },
              {
                "trackIndex" : 16,
                "medias" : [
                  {
                    "id" : 147,
                    "_type" : "Callout",
                    "def" : {
                      "kind" : "remix",
                      "shape" : "arrow",
                      "style" : "basic",
                      "stroke-color-blue" : 0.56078431372549,
                      "stroke-color-green" : 0.686274509803922,
                      "stroke-color-opacity" : 1.0,
                      "stroke-color-red" : 0.0196078431372549,
                      "stroke-width" : 8.0,
                      "tail-x" : {
                        "type" : "double",
                        "defaultValue" : 218.384120721196,
                        "interp" : "eioe"
                      },
                      "tail-y" : {
                        "type" : "double",
                        "defaultValue" : 121.565692714341,
                        "interp" : "eioe"
                      },
                      "shape-anchor" : "none",
                      "shape-tail" : "arrow",
                      "stroke-style" : "solid"
                    },
                    "attributes" : {
                      "ident" : "",
                      "autoRotateText" : true
                    },
                    "parameters" : {
                      "translation0" : -457.190169995518,
                      "translation1" : 0.44497925860351,
                      "sourceCrop0" : 0.0,
                      "sourceCrop1" : 0.0,
                      "sourceCrop2" : 0.0,
                      "sourceCrop3" : 0.0,
                      "geometryCrop0" : 0.0,
                      "geometryCrop1" : 0.0,
                      "geometryCrop2" : 0.0,
                      "geometryCrop3" : 0.0
                    },
                    "effects" : [

                    ],
                    "start" : 3051,
                    "duration" : 240,
                    "mediaStart" : 0,
                    "mediaDuration" : 240,
                    "scalar" : 1,
                    "metadata" : {
                      "AppliedThemeId" : "",
                      "clipSpeedAttribute" : false,
                      "default-scale" : "1",
                      "effectApplied" : "none"
                    },
                    "animationTracks" : {

                    }
                  }
                ],
                "transitions" : [
                  {
                    "name" : "Fade",
                    "duration" : 30,
                    "rightMedia" : 147,
                    "attributes" : {
                      "bypass" : false,
                      "reverse" : false,
                      "trivial" : false,
                      "useAudioPreRoll" : true,
                      "useVisualPreRoll" : true
                    }

                  },
                  {
                    "name" : "Fade",
                    "duration" : 30,
                    "leftMedia" : 147,
                    "attributes" : {
                      "bypass" : false,
                      "reverse" : false,
                      "trivial" : false,
                      "useAudioPreRoll" : true,
                      "useVisualPreRoll" : true
                    }

                  }
                ]
              },
              {
                "trackIndex" : 17,
                "medias" : [
                  {
                    "id" : 148,
                    "_type" : "Callout",
                    "def" : {
                      "kind" : "remix",
                      "shape" : "arrow",
                      "style" : "basic",
                      "stroke-color-blue" : 0.56078431372549,
                      "stroke-color-green" : 0.686274509803922,
                      "stroke-color-opacity" : 1.0,
                      "stroke-color-red" : 0.0196078431372549,
                      "stroke-width" : 8.0,
                      "tail-x" : {
                        "type" : "double",
                        "defaultValue" : 222.989730878801,
                        "interp" : "eioe"
                      },
                      "tail-y" : {
                        "type" : "double",
                        "defaultValue" : 0.0,
                        "interp" : "eioe"
                      },
                      "shape-anchor" : "none",
                      "shape-tail" : "arrow",
                      "stroke-style" : "solid"
                    },
                    "attributes" : {
                      "ident" : "",
                      "autoRotateText" : true
                    },
                    "parameters" : {
                      "translation0" : -457.190169995518,
                      "translation1" : -123.555020741396,
                      "sourceCrop0" : 0.0,
                      "sourceCrop1" : 0.0,
                      "sourceCrop2" : 0.0,
                      "sourceCrop3" : 0.0,
                      "geometryCrop0" : 0.0,
                      "geometryCrop1" : 0.0,
                      "geometryCrop2" : 0.0,
                      "geometryCrop3" : 0.0
                    },
                    "effects" : [

                    ],
                    "start" : 3051,
                    "duration" : 240,
                    "mediaStart" : 0,
                    "mediaDuration" : 240,
                    "scalar" : 1,
                    "metadata" : {
                      "AppliedThemeId" : "",
                      "clipSpeedAttribute" : false,
                      "default-scale" : "1",
                      "effectApplied" : "none"
                    },
                    "animationTracks" : {

                    }
                  }
                ],
                "transitions" : [
                  {
                    "name" : "Fade",
                    "duration" : 30,
                    "rightMedia" : 148,
                    "attributes" : {
                      "bypass" : false,
                      "reverse" : false,
                      "trivial" : false,
                      "useAudioPreRoll" : true,
                      "useVisualPreRoll" : true
                    }

                  },
                  {
                    "name" : "Fade",
                    "duration" : 30,
                    "leftMedia" : 148,
                    "attributes" : {
                      "bypass" : false,
                      "reverse" : false,
                      "trivial" : false,
                      "useAudioPreRoll" : true,
                      "useVisualPreRoll" : true
                    }

                  }
                ]
              },
              {
                "trackIndex" : 18,
                "medias" : [
                  {
                    "id" : 149,
                    "_type" : "Callout",
                    "def" : {
                      "kind" : "remix",
                      "shape" : "arrow",
                      "style" : "basic",
                      "stroke-color-blue" : 0.56078431372549,
                      "stroke-color-green" : 0.686274509803922,
                      "stroke-color-opacity" : 1.0,
                      "stroke-color-red" : 0.0196078431372549,
                      "stroke-width" : 8.0,
                      "tail-x" : {
                        "type" : "double",
                        "defaultValue" : 218.384120721196,
                        "interp" : "eioe"
                      },
                      "tail-y" : {
                        "type" : "double",
                        "defaultValue" : 121.565692714341,
                        "interp" : "eioe"
                      },
                      "shape-anchor" : "none",
                      "shape-tail" : "arrow",
                      "stroke-style" : "solid"
                    },
                    "attributes" : {
                      "ident" : "",
                      "autoRotateText" : true
                    },
                    "parameters" : {
                      "translation0" : -457.190169995518,
                      "translation1" : -121.555020741396,
                      "sourceCrop0" : 0.0,
                      "sourceCrop1" : 0.0,
                      "sourceCrop2" : 0.0,
                      "sourceCrop3" : 0.0,
                      "geometryCrop0" : 0.0,
                      "geometryCrop1" : 0.0,
                      "geometryCrop2" : 0.0,
                      "geometryCrop3" : 0.0
                    },
                    "effects" : [

                    ],
                    "start" : 3051,
                    "duration" : 240,
                    "mediaStart" : 0,
                    "mediaDuration" : 240,
                    "scalar" : 1,
                    "metadata" : {
                      "AppliedThemeId" : "",
                      "clipSpeedAttribute" : false,
                      "default-scale" : "1",
                      "effectApplied" : "none"
                    },
                    "animationTracks" : {

                    }
                  }
                ],
                "transitions" : [
                  {
                    "name" : "Fade",
                    "duration" : 30,
                    "rightMedia" : 149,
                    "attributes" : {
                      "bypass" : false,
                      "reverse" : false,
                      "trivial" : false,
                      "useAudioPreRoll" : true,
                      "useVisualPreRoll" : true
                    }

                  },
                  {
                    "name" : "Fade",
                    "duration" : 30,
                    "leftMedia" : 149,
                    "attributes" : {
                      "bypass" : false,
                      "reverse" : false,
                      "trivial" : false,
                      "useAudioPreRoll" : true,
                      "useVisualPreRoll" : true
                    }

                  }
                ]
              },
              {
                "trackIndex" : 19,
                "medias" : [
                  {
                    "id" : 150,
                    "_type" : "Callout",
                    "def" : {
                      "kind" : "remix",
                      "shape" : "arrow",
                      "style" : "basic",
                      "stroke-color-blue" : 0.56078431372549,
                      "stroke-color-green" : 0.686274509803922,
                      "stroke-color-opacity" : 1.0,
                      "stroke-color-red" : 0.0196078431372549,
                      "stroke-width" : 8.0,
                      "tail-x" : {
                        "type" : "double",
                        "defaultValue" : 211.908265543927,
                        "interp" : "eioe"
                      },
                      "tail-y" : {
                        "type" : "double",
                        "defaultValue" : 242.032267802323,
                        "interp" : "eioe"
                      },
                      "shape-anchor" : "none",
                      "shape-tail" : "arrow",
                      "stroke-style" : "solid"
                    },
                    "attributes" : {
                      "ident" : "",
                      "autoRotateText" : true
                    },
                    "parameters" : {
                      "translation0" : -457.190169995518,
                      "translation1" : -121.555020741396,
                      "sourceCrop0" : 0.0,
                      "sourceCrop1" : 0.0,
                      "sourceCrop2" : 0.0,
                      "sourceCrop3" : 0.0,
                      "geometryCrop0" : 0.0,
                      "geometryCrop1" : 0.0,
                      "geometryCrop2" : 0.0,
                      "geometryCrop3" : 0.0
                    },
                    "effects" : [

                    ],
                    "start" : 3051,
                    "duration" : 240,
                    "mediaStart" : 0,
                    "mediaDuration" : 240,
                    "scalar" : 1,
                    "metadata" : {
                      "AppliedThemeId" : "",
                      "clipSpeedAttribute" : false,
                      "default-scale" : "1",
                      "effectApplied" : "none"
                    },
                    "animationTracks" : {

                    }
                  }
                ],
                "transitions" : [
                  {
                    "name" : "Fade",
                    "duration" : 30,
                    "rightMedia" : 150,
                    "attributes" : {
                      "bypass" : false,
                      "reverse" : false,
                      "trivial" : false,
                      "useAudioPreRoll" : true,
                      "useVisualPreRoll" : true
                    }

                  },
                  {
                    "name" : "Fade",
                    "duration" : 30,
                    "leftMedia" : 150,
                    "attributes" : {
                      "bypass" : false,
                      "reverse" : false,
                      "trivial" : false,
                      "useAudioPreRoll" : true,
                      "useVisualPreRoll" : true
                    }

                  }
                ]
              },
              {
                "trackIndex" : 20,
                "medias" : [
                  {
                    "id" : 151,
                    "_type" : "Callout",
                    "def" : {
                      "kind" : "remix",
                      "shape" : "arrow",
                      "style" : "basic",
                      "stroke-color-blue" : 0.56078431372549,
                      "stroke-color-green" : 0.686274509803922,
                      "stroke-color-opacity" : 1.0,
                      "stroke-color-red" : 0.0196078431372549,
                      "stroke-width" : 8.0,
                      "tail-x" : {
                        "type" : "double",
                        "defaultValue" : 222.989730878801,
                        "interp" : "eioe"
                      },
                      "tail-y" : {
                        "type" : "double",
                        "defaultValue" : 0.0,
                        "interp" : "eioe"
                      },
                      "shape-anchor" : "none",
                      "shape-tail" : "arrow",
                      "stroke-style" : "solid"
                    },
                    "attributes" : {
                      "ident" : "",
                      "autoRotateText" : true
                    },
                    "parameters" : {
                      "translation0" : -73.1901699955177,
                      "translation1" : 122.444979258604,
                      "sourceCrop0" : 0.0,
                      "sourceCrop1" : 0.0,
                      "sourceCrop2" : 0.0,
                      "sourceCrop3" : 0.0,
                      "geometryCrop0" : 0.0,
                      "geometryCrop1" : 0.0,
                      "geometryCrop2" : 0.0,
                      "geometryCrop3" : 0.0
                    },
                    "effects" : [

                    ],
                    "start" : 3051,
                    "duration" : 240,
                    "mediaStart" : 0,
                    "mediaDuration" : 240,
                    "scalar" : 1,
                    "metadata" : {
                      "AppliedThemeId" : "",
                      "clipSpeedAttribute" : false,
                      "default-scale" : "1",
                      "effectApplied" : "none"
                    },
                    "animationTracks" : {

                    }
                  }
                ],
                "transitions" : [
                  {
                    "name" : "Fade",
                    "duration" : 30,
                    "rightMedia" : 151,
                    "attributes" : {
                      "bypass" : false,
                      "reverse" : false,
                      "trivial" : false,
                      "useAudioPreRoll" : true,
                      "useVisualPreRoll" : true
                    }

                  },
                  {
                    "name" : "Fade",
                    "duration" : 30,
                    "leftMedia" : 151,
                    "attributes" : {
                      "bypass" : false,
                      "reverse" : false,
                      "trivial" : false,
                      "useAudioPreRoll" : true,
                      "useVisualPreRoll" : true
                    }

                  }
                ]
              },
              {
                "trackIndex" : 21,
                "medias" : [
                  {
                    "id" : 152,
                    "_type" : "Callout",
                    "def" : {
                      "kind" : "remix",
                      "shape" : "arrow",
                      "style" : "basic",
                      "stroke-color-blue" : 0.56078431372549,
                      "stroke-color-green" : 0.686274509803922,
                      "stroke-color-opacity" : 1.0,
                      "stroke-color-red" : 0.0196078431372549,
                      "stroke-width" : 8.0,
                      "tail-x" : {
                        "type" : "double",
                        "defaultValue" : 216.296194289482,
                        "interp" : "eioe"
                      },
                      "tail-y" : {
                        "type" : "double",
                        "defaultValue" : -130.307750194659,
                        "interp" : "eioe"
                      },
                      "shape-anchor" : "none",
                      "shape-tail" : "arrow",
                      "stroke-style" : "solid"
                    },
                    "attributes" : {
                      "ident" : "",
                      "autoRotateText" : true
                    },
                    "parameters" : {
                      "translation0" : -73.1901699955177,
                      "translation1" : 122.444979258604,
                      "sourceCrop0" : 0.0,
                      "sourceCrop1" : 0.0,
                      "sourceCrop2" : 0.0,
                      "sourceCrop3" : 0.0,
                      "geometryCrop0" : 0.0,
                      "geometryCrop1" : 0.0,
                      "geometryCrop2" : 0.0,
                      "geometryCrop3" : 0.0
                    },
                    "effects" : [

                    ],
                    "start" : 3051,
                    "duration" : 240,
                    "mediaStart" : 0,
                    "mediaDuration" : 240,
                    "scalar" : 1,
                    "metadata" : {
                      "AppliedThemeId" : "",
                      "clipSpeedAttribute" : false,
                      "default-scale" : "1",
                      "effectApplied" : "none"
                    },
                    "animationTracks" : {

                    }
                  }
                ],
                "transitions" : [
                  {
                    "name" : "Fade",
                    "duration" : 30,
                    "rightMedia" : 152,
                    "attributes" : {
                      "bypass" : false,
                      "reverse" : false,
                      "trivial" : false,
                      "useAudioPreRoll" : true,
                      "useVisualPreRoll" : true
                    }

                  },
                  {
                    "name" : "Fade",
                    "duration" : 30,
                    "leftMedia" : 152,
                    "attributes" : {
                      "bypass" : false,
                      "reverse" : false,
                      "trivial" : false,
                      "useAudioPreRoll" : true,
                      "useVisualPreRoll" : true
                    }

                  }
                ]
              },
              {
                "trackIndex" : 22,
                "medias" : [
                  {
                    "id" : 153,
                    "_type" : "Callout",
                    "def" : {
                      "kind" : "remix",
                      "shape" : "arrow",
                      "style" : "basic",
                      "stroke-color-blue" : 0.56078431372549,
                      "stroke-color-green" : 0.686274509803922,
                      "stroke-color-opacity" : 1.0,
                      "stroke-color-red" : 0.0196078431372549,
                      "stroke-width" : 8.0,
                      "tail-x" : {
                        "type" : "double",
                        "defaultValue" : 216.561522705887,
                        "interp" : "eioe"
                      },
                      "tail-y" : {
                        "type" : "double",
                        "defaultValue" : -253.54092123016,
                        "interp" : "eioe"
                      },
                      "shape-anchor" : "none",
                      "shape-tail" : "arrow",
                      "stroke-style" : "solid"
                    },
                    "attributes" : {
                      "ident" : "",
                      "autoRotateText" : true
                    },
                    "parameters" : {
                      "translation0" : -73.1901699955177,
                      "translation1" : 122.444979258604,
                      "sourceCrop0" : 0.0,
                      "sourceCrop1" : 0.0,
                      "sourceCrop2" : 0.0,
                      "sourceCrop3" : 0.0,
                      "geometryCrop0" : 0.0,
                      "geometryCrop1" : 0.0,
                      "geometryCrop2" : 0.0,
                      "geometryCrop3" : 0.0
                    },
                    "effects" : [

                    ],
                    "start" : 3051,
                    "duration" : 240,
                    "mediaStart" : 0,
                    "mediaDuration" : 240,
                    "scalar" : 1,
                    "metadata" : {
                      "AppliedThemeId" : "",
                      "clipSpeedAttribute" : false,
                      "default-scale" : "1",
                      "effectApplied" : "none"
                    },
                    "animationTracks" : {

                    }
                  }
                ],
                "transitions" : [
                  {
                    "name" : "Fade",
                    "duration" : 30,
                    "rightMedia" : 153,
                    "attributes" : {
                      "bypass" : false,
                      "reverse" : false,
                      "trivial" : false,
                      "useAudioPreRoll" : true,
                      "useVisualPreRoll" : true
                    }

                  },
                  {
                    "name" : "Fade",
                    "duration" : 30,
                    "leftMedia" : 153,
                    "attributes" : {
                      "bypass" : false,
                      "reverse" : false,
                      "trivial" : false,
                      "useAudioPreRoll" : true,
                      "useVisualPreRoll" : true
                    }

                  }
                ]
              },
              {
                "trackIndex" : 23,
                "medias" : [
                  {
                    "id" : 154,
                    "_type" : "Callout",
                    "def" : {
                      "kind" : "remix",
                      "shape" : "arrow",
                      "style" : "basic",
                      "stroke-color-blue" : 0.56078431372549,
                      "stroke-color-green" : 0.686274509803922,
                      "stroke-color-opacity" : 1.0,
                      "stroke-color-red" : 0.0196078431372549,
                      "stroke-width" : 8.0,
                      "tail-x" : {
                        "type" : "double",
                        "defaultValue" : 222.989730878801,
                        "interp" : "eioe"
                      },
                      "tail-y" : {
                        "type" : "double",
                        "defaultValue" : 0.0,
                        "interp" : "eioe"
                      },
                      "shape-anchor" : "none",
                      "shape-tail" : "arrow",
                      "stroke-style" : "solid"
                    },
                    "attributes" : {
                      "ident" : "",
                      "autoRotateText" : true
                    },
                    "parameters" : {
                      "translation0" : -73.1901699955177,
                      "translation1" : -0.55502074139649,
                      "sourceCrop0" : 0.0,
                      "sourceCrop1" : 0.0,
                      "sourceCrop2" : 0.0,
                      "sourceCrop3" : 0.0,
                      "geometryCrop0" : 0.0,
                      "geometryCrop1" : 0.0,
                      "geometryCrop2" : 0.0,
                      "geometryCrop3" : 0.0
                    },
                    "effects" : [

                    ],
                    "start" : 3051,
                    "duration" : 240,
                    "mediaStart" : 0,
                    "mediaDuration" : 240,
                    "scalar" : 1,
                    "metadata" : {
                      "AppliedThemeId" : "",
                      "clipSpeedAttribute" : false,
                      "default-scale" : "1",
                      "effectApplied" : "none"
                    },
                    "animationTracks" : {

                    }
                  }
                ],
                "transitions" : [
                  {
                    "name" : "Fade",
                    "duration" : 30,
                    "rightMedia" : 154,
                    "attributes" : {
                      "bypass" : false,
                      "reverse" : false,
                      "trivial" : false,
                      "useAudioPreRoll" : true,
                      "useVisualPreRoll" : true
                    }

                  },
                  {
                    "name" : "Fade",
                    "duration" : 30,
                    "leftMedia" : 154,
                    "attributes" : {
                      "bypass" : false,
                      "reverse" : false,
                      "trivial" : false,
                      "useAudioPreRoll" : true,
                      "useVisualPreRoll" : true
                    }

                  }
                ]
              },
              {
                "trackIndex" : 24,
                "medias" : [
                  {
                    "id" : 155,
                    "_type" : "Callout",
                    "def" : {
                      "kind" : "remix",
                      "shape" : "arrow",
                      "style" : "basic",
                      "stroke-color-blue" : 0.56078431372549,
                      "stroke-color-green" : 0.686274509803922,
                      "stroke-color-opacity" : 1.0,
                      "stroke-color-red" : 0.0196078431372549,
                      "stroke-width" : 8.0,
                      "tail-x" : {
                        "type" : "double",
                        "defaultValue" : 216.296194289482,
                        "interp" : "eioe"
                      },
                      "tail-y" : {
                        "type" : "double",
                        "defaultValue" : -130.307750194659,
                        "interp" : "eioe"
                      },
                      "shape-anchor" : "none",
                      "shape-tail" : "arrow",
                      "stroke-style" : "solid"
                    },
                    "attributes" : {
                      "ident" : "",
                      "autoRotateText" : true
                    },
                    "parameters" : {
                      "translation0" : -73.1901699955177,
                      "translation1" : 0.44497925860351,
                      "sourceCrop0" : 0.0,
                      "sourceCrop1" : 0.0,
                      "sourceCrop2" : 0.0,
                      "sourceCrop3" : 0.0,
                      "geometryCrop0" : 0.0,
                      "geometryCrop1" : 0.0,
                      "geometryCrop2" : 0.0,
                      "geometryCrop3" : 0.0
                    },
                    "effects" : [

                    ],
                    "start" : 3051,
                    "duration" : 240,
                    "mediaStart" : 0,
                    "mediaDuration" : 240,
                    "scalar" : 1,
                    "metadata" : {
                      "AppliedThemeId" : "",
                      "clipSpeedAttribute" : false,
                      "default-scale" : "1",
                      "effectApplied" : "none"
                    },
                    "animationTracks" : {

                    }
                  }
                ],
                "transitions" : [
                  {
                    "name" : "Fade",
                    "duration" : 30,
                    "rightMedia" : 155,
                    "attributes" : {
                      "bypass" : false,
                      "reverse" : false,
                      "trivial" : false,
                      "useAudioPreRoll" : true,
                      "useVisualPreRoll" : true
                    }

                  },
                  {
                    "name" : "Fade",
                    "duration" : 30,
                    "leftMedia" : 155,
                    "attributes" : {
                      "bypass" : false,
                      "reverse" : false,
                      "trivial" : false,
                      "useAudioPreRoll" : true,
                      "useVisualPreRoll" : true
                    }

                  }
                ]
              },
              {
                "trackIndex" : 25,
                "medias" : [
                  {
                    "id" : 156,
                    "_type" : "Callout",
                    "def" : {
                      "kind" : "remix",
                      "shape" : "arrow",
                      "style" : "basic",
                      "stroke-color-blue" : 0.56078431372549,
                      "stroke-color-green" : 0.686274509803922,
                      "stroke-color-opacity" : 1.0,
                      "stroke-color-red" : 0.0196078431372549,
                      "stroke-width" : 8.0,
                      "tail-x" : {
                        "type" : "double",
                        "defaultValue" : 218.384120721196,
                        "interp" : "eioe"
                      },
                      "tail-y" : {
                        "type" : "double",
                        "defaultValue" : 121.565692714341,
                        "interp" : "eioe"
                      },
                      "shape-anchor" : "none",
                      "shape-tail" : "arrow",
                      "stroke-style" : "solid"
                    },
                    "attributes" : {
                      "ident" : "",
                      "autoRotateText" : true
                    },
                    "parameters" : {
                      "translation0" : -73.1901699955177,
                      "translation1" : 0.44497925860351,
                      "sourceCrop0" : 0.0,
                      "sourceCrop1" : 0.0,
                      "sourceCrop2" : 0.0,
                      "sourceCrop3" : 0.0,
                      "geometryCrop0" : 0.0,
                      "geometryCrop1" : 0.0,
                      "geometryCrop2" : 0.0,
                      "geometryCrop3" : 0.0
                    },
                    "effects" : [

                    ],
                    "start" : 3051,
                    "duration" : 240,
                    "mediaStart" : 0,
                    "mediaDuration" : 240,
                    "scalar" : 1,
                    "metadata" : {
                      "AppliedThemeId" : "",
                      "clipSpeedAttribute" : false,
                      "default-scale" : "1",
                      "effectApplied" : "none"
                    },
                    "animationTracks" : {

                    }
                  }
                ],
                "transitions" : [
                  {
                    "name" : "Fade",
                    "duration" : 30,
                    "rightMedia" : 156,
                    "attributes" : {
                      "bypass" : false,
                      "reverse" : false,
                      "trivial" : false,
                      "useAudioPreRoll" : true,
                      "useVisualPreRoll" : true
                    }

                  },
                  {
                    "name" : "Fade",
                    "duration" : 30,
                    "leftMedia" : 156,
                    "attributes" : {
                      "bypass" : false,
                      "reverse" : false,
                      "trivial" : false,
                      "useAudioPreRoll" : true,
                      "useVisualPreRoll" : true
                    }

                  }
                ]
              },
              {
                "trackIndex" : 26,
                "medias" : [
                  {
                    "id" : 157,
                    "_type" : "Callout",
                    "def" : {
                      "kind" : "remix",
                      "shape" : "arrow",
                      "style" : "basic",
                      "stroke-color-blue" : 0.56078431372549,
                      "stroke-color-green" : 0.686274509803922,
                      "stroke-color-opacity" : 1.0,
                      "stroke-color-red" : 0.0196078431372549,
                      "stroke-width" : 8.0,
                      "tail-x" : {
                        "type" : "double",
                        "defaultValue" : 222.989730878801,
                        "interp" : "eioe"
                      },
                      "tail-y" : {
                        "type" : "double",
                        "defaultValue" : 0.0,
                        "interp" : "eioe"
                      },
                      "shape-anchor" : "none",
                      "shape-tail" : "arrow",
                      "stroke-style" : "solid"
                    },
                    "attributes" : {
                      "ident" : "",
                      "autoRotateText" : true
                    },
                    "parameters" : {
                      "translation0" : -73.1901699955177,
                      "translation1" : -123.555020741396,
                      "sourceCrop0" : 0.0,
                      "sourceCrop1" : 0.0,
                      "sourceCrop2" : 0.0,
                      "sourceCrop3" : 0.0,
                      "geometryCrop0" : 0.0,
                      "geometryCrop1" : 0.0,
                      "geometryCrop2" : 0.0,
                      "geometryCrop3" : 0.0
                    },
                    "effects" : [

                    ],
                    "start" : 3051,
                    "duration" : 240,
                    "mediaStart" : 0,
                    "mediaDuration" : 240,
                    "scalar" : 1,
                    "metadata" : {
                      "AppliedThemeId" : "",
                      "clipSpeedAttribute" : false,
                      "default-scale" : "1",
                      "effectApplied" : "none"
                    },
                    "animationTracks" : {

                    }
                  }
                ],
                "transitions" : [
                  {
                    "name" : "Fade",
                    "duration" : 30,
                    "rightMedia" : 157,
                    "attributes" : {
                      "bypass" : false,
                      "reverse" : false,
                      "trivial" : false,
                      "useAudioPreRoll" : true,
                      "useVisualPreRoll" : true
                    }

                  },
                  {
                    "name" : "Fade",
                    "duration" : 30,
                    "leftMedia" : 157,
                    "attributes" : {
                      "bypass" : false,
                      "reverse" : false,
                      "trivial" : false,
                      "useAudioPreRoll" : true,
                      "useVisualPreRoll" : true
                    }

                  }
                ]
              },
              {
                "trackIndex" : 27,
                "medias" : [
                  {
                    "id" : 158,
                    "_type" : "Callout",
                    "def" : {
                      "kind" : "remix",
                      "shape" : "arrow",
                      "style" : "basic",
                      "stroke-color-blue" : 0.56078431372549,
                      "stroke-color-green" : 0.686274509803922,
                      "stroke-color-opacity" : 1.0,
                      "stroke-color-red" : 0.0196078431372549,
                      "stroke-width" : 8.0,
                      "tail-x" : {
                        "type" : "double",
                        "defaultValue" : 218.384120721196,
                        "interp" : "eioe"
                      },
                      "tail-y" : {
                        "type" : "double",
                        "defaultValue" : 121.565692714341,
                        "interp" : "eioe"
                      },
                      "shape-anchor" : "none",
                      "shape-tail" : "arrow",
                      "stroke-style" : "solid"
                    },
                    "attributes" : {
                      "ident" : "",
                      "autoRotateText" : true
                    },
                    "parameters" : {
                      "translation0" : -73.1901699955177,
                      "translation1" : -121.555020741396,
                      "sourceCrop0" : 0.0,
                      "sourceCrop1" : 0.0,
                      "sourceCrop2" : 0.0,
                      "sourceCrop3" : 0.0,
                      "geometryCrop0" : 0.0,
                      "geometryCrop1" : 0.0,
                      "geometryCrop2" : 0.0,
                      "geometryCrop3" : 0.0
                    },
                    "effects" : [

                    ],
                    "start" : 3051,
                    "duration" : 240,
                    "mediaStart" : 0,
                    "mediaDuration" : 240,
                    "scalar" : 1,
                    "metadata" : {
                      "AppliedThemeId" : "",
                      "clipSpeedAttribute" : false,
                      "default-scale" : "1",
                      "effectApplied" : "none"
                    },
                    "animationTracks" : {

                    }
                  }
                ],
                "transitions" : [
                  {
                    "name" : "Fade",
                    "duration" : 30,
                    "rightMedia" : 158,
                    "attributes" : {
                      "bypass" : false,
                      "reverse" : false,
                      "trivial" : false,
                      "useAudioPreRoll" : true,
                      "useVisualPreRoll" : true
                    }

                  },
                  {
                    "name" : "Fade",
                    "duration" : 30,
                    "leftMedia" : 158,
                    "attributes" : {
                      "bypass" : false,
                      "reverse" : false,
                      "trivial" : false,
                      "useAudioPreRoll" : true,
                      "useVisualPreRoll" : true
                    }

                  }
                ]
              },
              {
                "trackIndex" : 28,
                "medias" : [
                  {
                    "id" : 159,
                    "_type" : "Callout",
                    "def" : {
                      "kind" : "remix",
                      "shape" : "arrow",
                      "style" : "basic",
                      "stroke-color-blue" : 0.56078431372549,
                      "stroke-color-green" : 0.686274509803922,
                      "stroke-color-opacity" : 1.0,
                      "stroke-color-red" : 0.0196078431372549,
                      "stroke-width" : 8.0,
                      "tail-x" : {
                        "type" : "double",
                        "defaultValue" : 211.908265543927,
                        "interp" : "eioe"
                      },
                      "tail-y" : {
                        "type" : "double",
                        "defaultValue" : 242.032267802323,
                        "interp" : "eioe"
                      },
                      "shape-anchor" : "none",
                      "shape-tail" : "arrow",
                      "stroke-style" : "solid"
                    },
                    "attributes" : {
                      "ident" : "",
                      "autoRotateText" : true
                    },
                    "parameters" : {
                      "translation0" : -73.1901699955177,
                      "translation1" : -121.555020741396,
                      "sourceCrop0" : 0.0,
                      "sourceCrop1" : 0.0,
                      "sourceCrop2" : 0.0,
                      "sourceCrop3" : 0.0,
                      "geometryCrop0" : 0.0,
                      "geometryCrop1" : 0.0,
                      "geometryCrop2" : 0.0,
                      "geometryCrop3" : 0.0
                    },
                    "effects" : [

                    ],
                    "start" : 3051,
                    "duration" : 240,
                    "mediaStart" : 0,
                    "mediaDuration" : 240,
                    "scalar" : 1,
                    "metadata" : {
                      "AppliedThemeId" : "",
                      "clipSpeedAttribute" : false,
                      "default-scale" : "1",
                      "effectApplied" : "none"
                    },
                    "animationTracks" : {

                    }
                  }
                ],
                "transitions" : [
                  {
                    "name" : "Fade",
                    "duration" : 30,
                    "rightMedia" : 159,
                    "attributes" : {
                      "bypass" : false,
                      "reverse" : false,
                      "trivial" : false,
                      "useAudioPreRoll" : true,
                      "useVisualPreRoll" : true
                    }

                  },
                  {
                    "name" : "Fade",
                    "duration" : 30,
                    "leftMedia" : 159,
                    "attributes" : {
                      "bypass" : false,
                      "reverse" : false,
                      "trivial" : false,
                      "useAudioPreRoll" : true,
                      "useVisualPreRoll" : true
                    }

                  }
                ]
              }            ]
          }
        }
      ]
    },
    "trackAttributes" : [
      {
        "ident" : "",
        "audioMuted" : false,
        "videoHidden" : false,
        "magnetic" : false,
        "matte" : 0,
        "solo" : false,
        "metadata" : {
          "IsLocked" : "False",
          "trackHeight" : "54"
        }
      },
      {
        "ident" : "",
        "audioMuted" : false,
        "videoHidden" : false,
        "magnetic" : false,
        "matte" : 0,
        "solo" : false,
        "metadata" : {
          "IsLocked" : "False",
          "trackHeight" : "61"
        }
      },
      {
        "ident" : "",
        "audioMuted" : false,
        "videoHidden" : false,
        "magnetic" : false,
        "matte" : 0,
        "solo" : false,
        "metadata" : {
          "IsLocked" : "False",
          "trackHeight" : "54"
        }
      },
      {
        "ident" : "",
        "audioMuted" : false,
        "videoHidden" : false,
        "magnetic" : false,
        "matte" : 0,
        "solo" : false,
        "metadata" : {
          "IsLocked" : "False",
          "trackHeight" : "50"
        }
      },
      {
        "ident" : "",
        "audioMuted" : false,
        "videoHidden" : false,
        "magnetic" : false,
        "matte" : 0,
        "solo" : false,
        "metadata" : {
          "IsLocked" : "False",
          "trackHeight" : "50"
        }
      },
      {
        "ident" : "",
        "audioMuted" : false,
        "videoHidden" : false,
        "magnetic" : false,
        "matte" : 0,
        "solo" : false,
        "metadata" : {
          "IsLocked" : "False",
          "trackHeight" : "54"
        }
      },
      {
        "ident" : "",
        "audioMuted" : false,
        "videoHidden" : false,
        "magnetic" : false,
        "matte" : 0,
        "solo" : false,
        "metadata" : {
          "IsLocked" : "False",
          "trackHeight" : "54"
        }
      },
      {
        "ident" : "",
        "audioMuted" : false,
        "videoHidden" : false,
        "magnetic" : false,
        "matte" : 0,
        "solo" : false,
        "metadata" : {
          "IsLocked" : "False",
          "trackHeight" : "54"
        }
      },
      {
        "ident" : "",
        "audioMuted" : false,
        "videoHidden" : false,
        "magnetic" : false,
        "matte" : 0,
        "solo" : false,
        "metadata" : {
          "IsLocked" : "False",
          "trackHeight" : "54"
        }
      },
      {
        "ident" : "",
        "audioMuted" : false,
        "videoHidden" : false,
        "magnetic" : false,
        "matte" : 0,
        "solo" : false,
        "metadata" : {
          "IsLocked" : "False",
          "trackHeight" : "54"
        }
      },
      {
        "ident" : "",
        "audioMuted" : false,
        "videoHidden" : false,
        "magnetic" : false,
        "matte" : 0,
        "solo" : false,
        "metadata" : {
          "IsLocked" : "False",
          "trackHeight" : "22"
        }
      },
      {
        "ident" : "",
        "audioMuted" : false,
        "videoHidden" : false,
        "magnetic" : false,
        "matte" : 0,
        "solo" : false,
        "metadata" : {
          "IsLocked" : "False",
          "trackHeight" : "54"
        }
      },
      {
        "ident" : "",
        "audioMuted" : false,
        "videoHidden" : false,
        "magnetic" : false,
        "matte" : 0,
        "solo" : false,
        "metadata" : {
          "IsLocked" : "False",
          "trackHeight" : "54"
        }
      },
      {
        "ident" : "",
        "audioMuted" : false,
        "videoHidden" : false,
        "magnetic" : false,
        "matte" : 0,
        "solo" : false,
        "metadata" : {
          "IsLocked" : "False",
          "trackHeight" : "54"
        }
      },
      {
        "ident" : "",
        "audioMuted" : false,
        "videoHidden" : false,
        "magnetic" : false,
        "matte" : 0,
        "solo" : false,
        "metadata" : {
          "IsLocked" : "False",
          "trackHeight" : "54"
        }
      },
      {
        "ident" : "",
        "audioMuted" : false,
        "videoHidden" : false,
        "magnetic" : false,
        "matte" : 0,
        "solo" : false,
        "metadata" : {
          "IsLocked" : "False",
          "trackHeight" : "54"
        }
      },
      {
        "ident" : "",
        "audioMuted" : false,
        "videoHidden" : false,
        "magnetic" : false,
        "matte" : 0,
        "solo" : false,
        "metadata" : {
          "IsLocked" : "False",
          "trackHeight" : "54"
        }
      },
      {
        "ident" : "",
        "audioMuted" : false,
        "videoHidden" : false,
        "magnetic" : false,
        "matte" : 0,
        "solo" : false,
        "metadata" : {
          "IsLocked" : "False",
          "trackHeight" : "50"
        }
      },
      {
        "ident" : "",
        "audioMuted" : false,
        "videoHidden" : false,
        "magnetic" : false,
        "matte" : 0,
        "solo" : false,
        "metadata" : {
          "IsLocked" : "False",
          "trackHeight" : "50"
        }
      },
      {
        "ident" : "",
        "audioMuted" : false,
        "videoHidden" : false,
        "magnetic" : false,
        "matte" : 0,
        "solo" : false,
        "metadata" : {
          "IsLocked" : "False",
          "trackHeight" : "50"
        }
      },
      {
        "ident" : "",
        "audioMuted" : false,
        "videoHidden" : false,
        "magnetic" : false,
        "matte" : 0,
        "solo" : false,
        "metadata" : {
          "IsLocked" : "False",
          "trackHeight" : "50"
        }
      },
      {
        "ident" : "",
        "audioMuted" : false,
        "videoHidden" : false,
        "magnetic" : false,
        "matte" : 0,
        "solo" : false,
        "metadata" : {
          "IsLocked" : "False",
          "trackHeight" : "50"
        }
      },
      {
        "ident" : "",
        "audioMuted" : false,
        "videoHidden" : false,
        "magnetic" : false,
        "matte" : 0,
        "solo" : false,
        "metadata" : {
          "IsLocked" : "False",
          "trackHeight" : "50"
        }
      },
      {
        "ident" : "",
        "audioMuted" : false,
        "videoHidden" : false,
        "magnetic" : false,
        "matte" : 0,
        "solo" : false,
        "metadata" : {
          "IsLocked" : "False",
          "trackHeight" : "50"
        }
      },
      {
        "ident" : "",
        "audioMuted" : false,
        "videoHidden" : false,
        "magnetic" : false,
        "matte" : 0,
        "solo" : false,
        "metadata" : {
          "IsLocked" : "False",
          "trackHeight" : "50"
        }
      },
      {
        "ident" : "",
        "audioMuted" : false,
        "videoHidden" : false,
        "magnetic" : false,
        "matte" : 0,
        "solo" : false,
        "metadata" : {
          "IsLocked" : "False",
          "trackHeight" : "50"
        }
      },
      {
        "ident" : "",
        "audioMuted" : false,
        "videoHidden" : false,
        "magnetic" : false,
        "matte" : 0,
        "solo" : false,
        "metadata" : {
          "IsLocked" : "False",
          "trackHeight" : "50"
        }
      },
      {
        "ident" : "",
        "audioMuted" : false,
        "videoHidden" : false,
        "magnetic" : false,
        "matte" : 0,
        "solo" : false,
        "metadata" : {
          "IsLocked" : "False",
          "trackHeight" : "50"
        }
      },
      {
        "ident" : "",
        "audioMuted" : false,
        "videoHidden" : false,
        "magnetic" : false,
        "matte" : 0,
        "solo" : false,
        "metadata" : {
          "IsLocked" : "False",
          "trackHeight" : "50"
        }
      }
    ],
    "captionAttributes" : {
      "enabled" : true,
      "fontName" : "Arial",
      "fontSize" : 32,
      "backgroundColor" : [ 0, 0, 0, 204],
      "foregroundColor" : [ 255, 255, 255, 255],
      "lang" : "en",
      "alignment" : 0,
      "defaultFontSize" : true,
      "opacity" : 0.5,
      "backgroundEnabled" : true,
      "backgroundOnlyAroundText" : true
    },
    "gain" : 1.0,
    "legacyAttenuateAudioMix" : false,
    "backgroundColor" : [ 0, 0, 0, 255]
  },
  "metadata" : {
    "ProjectThumbnail" : "iVBORw0KGgoAAAANSUhEUgAAAeAAAAEOCAYAAABRmsRnAAAAAXNSR0IArs4c6QAAAERlWElmTU0AKgAAAAgAAYdpAAQAAAABAAAAGgAAAAAAA6ABAAMAAAABAAEAAKACAAQAAAABAAAB4KADAAQAAAABAAABDgAAAAARszjOAABAAElEQVR4AeydBYBdxfX/z5P1TQIRAiGEhOAOwYN7cdcCxYr8gCItxYo7BQotVICWtrQF2n+hLVKsuFPcCRYsaGT96f/7OffN5ma7G9/AhjvJ2/ve3NEzc8/3nDNn5qbGjt2xbElIKJBQIKFAn6NAqs+1OGlwb1Kg70FZujfJkZSdUCChQEKBhAIJBRIKdE+BBIC7p0sSm1AgoUBCgYQCCQV6lQIJAPcqeZPCEwokFEgokFAgoUD3FEgAuHu6JLEJBRIKJBRIKJBQoFcpkABwr5I3KTyhQEKBhAIJBRIKdE+BBIC7p0sSm1AgoUBCgYQCCQV6lQIJAPcqeZPCEwokFEgokFAgoUD3FEgAuHu6JLEJBRIKJBRIKJBQoFcpkABwr5I3KTyhQEKBhAIJBRIKdE+BBIC7p0sSm1AgoUBCgYQCCQV6lQIJAPcqeZPCEwokFEgokFAgoUD3FEgAuHu6JLEJBRIKJBRIKJBQoFcpkABwr5I3KTyhQEKBhAIJBRIKdE+BBIC7p0sSm1AgoUBCgYQCCQV6lQLZXi09KTyhQEKBhAJ9gQKpufRqw3LfeyVeXxie+bWNCQDPryOb9CuhQEKBmaMAmFkqzlzaGaUCyMMnAeMZUetbfz8B4G/9FEgIkFDgW04BlN+q6jknAoDLp1QyKxQiIM5korg5L/1bWUIwTMyvskwCwN/KaZ10OqFAQoE4BVLNzXMIlELxdMrKAG5VlVltbQTE+XwExGm528yvKCJCpipIWZ6LfaSsUiky6VN+qCM+bn39ewLAfX0Ek/YnFEgoMHsUADTQVqurLbfKCmaA5+wGAUWqrc3SX0209BdfWWryZAFy2sqNDapDIJKXRpydN9owwDUvwYr6isWSW97TCBqzGeLt5jtlZXxMyi67FGRVmJf9ms1uzFK2BIBniVxJ4oQCCQX6PAUAXjHzcl2dpT//0loPP8Ca/28/S+dyVhYYO7evaHSz2td0c8Ey735gVc88a9UPP27ZF18VsAuUVJepfAd5gUtvhgCCgNi8CNRXXZ0V2coiqwSN2QyAbUkCEeXwnbJaW9u8NOqor6/zuPkJhFNjx+44b0ZpNgclyZZQIKFAQoHuKcDi7WwGwCmbtZQYfGHFZa19p+0iLRWNa3aAS9ptqV+jFRcdZsXFF7FSTcrSbQWrue8xq//dDZZ5530rD+jfayAMKAFeWfWpWCzqe1EgFoHibFJoprJRL0DZ0ZFz7bS2tmY2tNSy2l2lMjo6td729g7r37/RRo5cTBb9rH366Rc2fvxHDsL0r3sQ7ntQlgDwTE2zJFFCgYQC3zwKTAeAe9Jg4+BKGn1S7e1zBr4QRkWV0xkrS0srLbqI5dZdyzq238oKiw+xzKeTrfHSq636nvutNGCApeaiJkwXMP8CfF/J/H3hhafa4MED7cgjTxFY1Vpepu/uwWrORjOYiAH6/v372WGH7WfvvPOe3XzzbdKGq10ImF69IX+hULQhQxa0a665xK677ib7299us4aGemtsrLeNNlpXRoOcNTe3qC/19tFHn9izz75s/fo19NCvvgfAiQl6dudheMDjD/T0yiK9z4++N0mm163kXkKBuUaBWX2mplexQMnK+nQNvqaoSJ5baVIENztjIp7ZZ9lzdfNH7U+pzOybb1v21Tes9l93Wtt+e1nb7tvYlPNOtsb6Bqu99TYrLbCAQLhjts3R/wtskfZbJU/uESOG2VJLjbIBA/rJfNveCb7kAfQI8fzxuPC9m551RoW8aKE1NdX25ZdNtt12W9hOO20lAB5vt912nzTZ/DR1dK2TMsiPWblYzNnAgQva0KFDbPnll/J6ECjGjFnZXnvtLRs0aEEH3NdeG2fLLruEffzxp/bFFxO97p414c7mfuO/zD8AHB7eQPKeHqaZTRfK6e4ae3hxtNBs6y7V1DjS4+xBuhmlDbk8nfJFz0yUr6c+hTzf1Gvoc7z9xMV/f1PbPr12hX51l6av9627PvVmHPSqAOJMPVMzaovMlmWezS4hxRoldXGP9V4Cv/lMbzyjlD38reTH0UoBLRiP6FRTizVccqWlP/zYWo45xJpPOsoyn3xiVU8/Z2VpjbO6JgxwYWYGoFSL16VGqyuAK92pcrPtl19OMky4Ga09A1IAK3kBvCh/JHiEOAoiXSirUnC3l7izFdo167JPPvmcNNfb7YknnpW22qrl7hqZpSMzMXXQ1tAOCg39qJK3OO3B1Ez4XOvxuVzeFl54iF8/+eQzW3PNVdys/vTTLxi/hwwZ7CCMdj8/OGXNHwAMuIUHKFy7efh8lHkAw4PGHMZBYlaDpOhyTY3n8gea+gmhXL7TjhBoi9ZmNAsjIA7xPV3JS1rK48NvPpQT6ghXyojX1VOZX0d8aHugeWhzvD/06Zva/unRDM9WNCz4S9dAP0Nfu95LfndPgZ6eqe5TTz9WtGdtN5WX01N8HPS9zPYgtGDNSd965CUxXtMvcoZ3MT/XqWw8nQV+XqB4S0nm4PobbpITVq01/+AAAfGh1v/oky2l9U5/nmdi7gfAAsQArerqjLoVNbisOQgQ5tXXOmnxCy64oIBqggMYZmkCmirASTrWU/lNIC4C3gi8aUr47Qm6/OE++akagAXYcZZiffbCC6/yNlFnBNIaA6UL5dFuBIJAaICW/JSzwAIDvKZJkya7EAGIUw5m6I8+miANuJ8LD4MHD7LXXx/ngMz2pECDLs3sUz/7PgBrEMsa3BQPFUAIQwe8AtOPDwcziAcwHkhH/MwGZhXOAhMn+Vwqa21CszKqOw7ElQekMlslDTdFoB28LHuqj7bQBwDeAZvfqpO4eFu5FwL3vmmB/lfogbdpiu8x+rBf0oUX+iTmpUH4pvVg+u0RI3LhzZvdpe2Ac3x8pl9ScrenZ2pWnkuoSHr4gJ7P/ErLWWG1laO1XcrXM5ISg6958BEzmWZLMm3m1l939gTwLiOWamu3jNYns2+9rTomWal//875jiBQEnDU/elmb1PHplob3mZzq/vjX9UGmaKV14XzHvoaPUZs8UmLdVVLs223pqbmCrBFWm3//g3qXpWDVkNDnTTJr8QqCoqrdZCbPLnJga1OQgBexVOmyNtb9dWIxwQwZp0VhkaaCNy6dFI/0bRbWlr1rexgj/aKVh2RN+2aL+BLAByDwMDv1tZWFwqolzx8MC9TZtCAMS0D0oAy5ucNN1zHnnnmBaP93/nOJvbmm+/4OjBtnB+0X+jStwGYScsE0OCm5IXnD19RDF0TyyVdGD6zIwR9T02cGPF64pW/rAV/yvAQ0lJuPFTSwnB5YApLjLLcd7ZwQKy5/S5Lf/yJgB1pM3rQHWgcWFSuNuKXNdEKo1b3dJ4Wbbhr26iPemEgypuaPCXqA2lz+i2pGiAzGD/pAPLQXuoK+aNvU++F313vh/hQRvgdrt3RINzj2vV+/B7f6R99Ubr0F1+4kBKsBvQvrT2T8rZQH0U3THehHeFKGfE6Qnw8jjSEcC/6NW2++H3yhrRdv4e84RpPF+LClXvMOUnxXh6/4+k1Zt6vUEdoczwNZSlb5Q9fohDSht/xPOF7uBfSxuNDXEgTrvE0xMXTxe91Fx+PI++M0pMmhJ7yhngEMX+mRk77TAnQDE0t/pyEPKHsrlfuww8EAq2H7mvt665maZ4/BGQEItW1wFFfWM2d91rbvrtY09Hfm3qfvPF+dS17Br9Tmu7ZN8Zb3c23WO1td0XPLnyFcvlIKKv789/MAXjrzbQ+fFc0fyrPSHfF0xzAEC0TMENDHDFiUVt55eVs0UUXVrFle/vt9+2FF161CRM+8zjKmThxsoMYoA1Ijh27pn3wwUe+Rss66+qrr+zrqk899bxrlORZddUVVEfJXn31TQdm6gsaJvXQBryUV1lleY9/8cXX3Pzcpud4oYUG2xJLLC4HqZcoygP1YhIH2PHMXnHF5bTGu6Rru1OmNHubcdrCe3rIkEGeB3CnDf361XhbiVx66dFeHybo119/2y0AlB3a5hn78J++C8BMag0sEmZ+lZUst+XmLvliAqq+9wGreunl6CHgwWMmR7PZ2vfa3YqjFvcHIj15ktXqgUFi9vsByHhwwsPoD4+eLkwu2lRPfQU9AG0H7OT8M/P221Yz7h05ckgLnzRFD7nyarJ27idUG1t+eKzl113dMuM+sH4/Ps1SX34VSb1dmYvyYZrCU7J9372sOHpUVGdLi2XeHGc1d90b5SXdlKZO5uTMnvaGdlOuJrKe/KlTM9yfGhN9C33mV+gz3ykrBGgAHUMgndowDRPvvKcvaIDel3Zp/bXWvscu2uqxopUXlKlJ48PaWPr98Vbz73ssM/6D6LAC0dfrpB7q69reEI81QIylM8xM2ygbWtDmUE7oK/kD3UKh8TLRzlWlB+LDnFt15c45J8Nm1GbREotI9tkXrOY/D0YgjMer8ngINKQdBMaIMjsDdI31jfgwPvG2Ex8fg9A/4uPt5XcIod/hN33mE/rKtUeaK12gF/lDfXG6cb9rHfE2ki/UFeoRbVgvTWl+F8TYp3mm3n43Wkvl2XSaqHzqm16gXM19rCv1v7nBqp96Yapwp7xowFWvvGElMfyaex9Se1XYjMqcXn2Ve2Vpnczv/GpLWdMZP7Di0ktZw2W/iARmpwt7jmvdMav6v69bbsyyVtCzXfXiK5r7UgAQ5Bjf2FwAYACaAHz9tMXphz883HbYYQuPC80CHNskwJx33pX23nsfevSXX0rJ8FB27+Gf//wcu+mmf0qrHGdnnnm8plTBQfGww75r3/vecfbGG2/b5ZefZe++O94OOugEkQQtFA1aB4l4m0RXzXG8my+88BTXwHff/XA3R3/1VbvttdeOtu++O+tztI0b966no9uAL85Uxx13qByolvSy6BdlckXLPf74sx3IaS4CBqZq6mZtefz4SGgI7WDdN5yM5d2bD/70TQBmPsDkYcaapO377GK5TdexdEvOSg3Vlt9gbet/0NH+YPuk1qByMk3HlptZy0mHSfKsMPtsyrLPPGdVz70gpwjt0ROjxHEjxfFx4WHQg+Embk0Kl7o0ccifblb9PDgFMVGaMWiQtR9+iJWGL2rVApaaBx6OTM5issXRi+i70iw+2JlK+nMxCWYogSuACSMQQyoOXciaLj3fSksu4vFlmA+Maqt1BWALWv2lV2g/oQB6lx0sv/EGlnlrnNXKvIX3pTPrUBYb42mr+uFXDpuPa5r0j7oxyeuiR8LTRo3SX/XXaUB5Ak20V8oiLXhDmzyEfkS/1GbdFM3Y2lFcfIQ1n3GyFZdZXP1TOzJkVoBkhXWsY4+drOGin2l7xn+srHUeL1NaD9s5OvsT5XCNH1qkYP70lXq5zkzb5BRCk11jxTqieYOW5P2mLvrKJ/QFxqN09L/TacfrU57KeOS+s6nGYAtp8nkr1UnDqpRfkiBWs8hgF5bKC0RzyvtCAmn7ZdGnc36Jofl88zEiQaWN0Vdvj1s9aAf0rqSn3d5+4pg33j8iK/kZs9AXymLc6LfiOudD6DP5KRfaQhPiQwjxgeYhnn5AQ+YTdVF+1zoCjUMbycuzpPnWSVMsOsw/hJoOMXydBskcSOVpf6UyAZfPB+avA38lvrsLfaY9GoOqV17Xcz1VI/Pkuh9Zkaos/ennVn/9n6fW0115MxPnE0vlilb59daylqMOtda9t7H0hAlW9/sbrTRwAfGlVvElmYllOq565nnrAIAFSFUS1MoSJv256lJXHHwX1bamyy473dgT+8ADj9s//nGXr40CTHg9H3DA7gLgH9uDDz7hpUxBOFdgnXXYsKEampJtssl6tvPOW9s99zxkf/3r7TI+1blmjMPWghKM2dozSQpEBI6e3f/wOwLkotItoE9/e/99gF7Ps/qOgIDTFAFtlvSsE6OF7777dnbKKUfL5N1k1177F3v00acdvBulyKy++kp2+OH7afvRRe6tTXmYxxlCAhp4bWy5kPh8Hq08uj+//O2bAMyk5wl1Zi8GUtKawhQxqXZtPpd5Awk3v86aVvOP2wVaC0SMWpvScwLgtCyfqSlad1F+tFYHcUZVjAcJOSXG4eu6mlgexBDSHCsn5lTWWo4HGHS9GFBaJjJtIE+xLqK43DabaouBTtf5+EOr/cvfrDx8mGu0DRdcZfkxq1n29TctLdOaa8cBRCiQmQwTksTYdugBVlpiEUt9JtPNK69Z1WNPWlkmnvZddnQpGiRJfTXJCmuvbh3rr2zZEQtZnTb6u8maY+9otwQIHExSLqQAWmKUAJuYgINW9OQoXkxNewedcRMXZreuzqj4jfkOGog2Jho6g+M+hwoE5htRJfpLHjHLkgC16byfSOhYVPQRc/3sM6t65AlvS26tNdTHkV5fy2mSuGUey0qQoE764e1Vvd6GStmpKYqH4QMkYsqB0Zoe+mnbJnJKQOlsm/qVkkagVgnkG32NzvtNvxTcUUcPeueSBYAkeqXVDubG1LkAfShEH8Vbu9Jo2Sw1ud2qn3lVVzE91cWSRtUTT0fjKYaLpaIsJxPv00QxGAE+7WC+4BfgbeE7tFThLgjqm88JzRFvh8ARAcXTQwPGSnPX0zLWGkMfa+pvVNksU3h5FKTA3GJuA2JB4FA7g/mfNrpQAODiwUv5Ck5z0QIrhmn90ftOvPwfECp8fPwZEs3oA/HUqzno/aU8+kqboRljxXxTHS7U4keBD4XmVxnhV1WnsqqHtDRB7UhxrKOELOahj1GlbbSvxwAdNJd8vk+TSOXxLFAG9EMAmBuBPqv/NXff78dRTvnpOda29846hOMht1iV9dw4XdSvjCw/hNKii6qz4iE91q+5p3ayTnvWWScY4Hv22T9zb2MADuAjvPXWu3bvvY/YBRecZFtttbHHTZrUpOZEB2QArpiiMRPfdNO/7MwzL3OwZX/tQw89qXspW3LJkZ5vsuZ8MD3HyUwaBAK8mzEnA9SRlzPdTvu+Yxy8AFpAkzXqddYZ4+A7btx7duKJ53k7cayiXQRMyo899oxdeeXZNlx8Eg/o9vboMI+poK+xqgTaE/KGuPnh2jcB2CmvEWEseVA1Qcr9NZlxLkBDATM2WM9qbv+3pGeBs8AIk09hlZXFBKS1yqxV7i8mXaNJjDlTD2VJ2mVh0438Qa968unI1KuiS4ssbPk1x7g2nX3xZct+/kXEh6R8MCnYz1dabLjlNxgrJiwGW6UHf/BClpOGKtuQthz8V4yzWSfhvBetP4cnTm324IXoO4xOAFocPVqNV7kC/IazL7S0zNUwiuo77/GHHKZbkMm91G9ApDEUMpbbbGNn9FmZ3WFwpaFDLbfyClYahuYtzVUPG2bR7MuvuLbjDFJtK0k4yW+2kaT0BV0KB9gBaJqWef5FCTUCFa11lhYeavmdthfNpKUqZN59z6pwZoEJ8KkwIO+D2poWjdoP21UgK/AVQKU//dT6nXCapbUFAwCoueFGa7n4bCsst6wz3o7dtrfsWRf7cX35MatLY17SMu+NV5ufj8oXjXKib0mnDGXeeNMFEzQnAImTh7ptmxiFzwuBQG4HjavaWfXgw1pn3FLmwuWt6vGn1BMxFjG2DIKOPq6dobnLCpHfbk0XnnwuaPwAMSsLwAiMmQOCvhe1t/N3f/RxdqEED1ju6VNYYVkrrrCcVT30qJed22Yrp0GN9ocS8hJEikuMjJx2NKvS4z+0aqV1IYk5LfAij0nAq77/IQmVa2nsV/Q5D23oA2OX22FbK45YzMee/Ag7nQIFbVWfchuOteJSmluMl0yW1Y885mBAHfkx61hxMdHh3Xd9nqARM6a5jdbX/F9E8+ZVLYG85f0SF7Tc1pt7vVlZjhgnnzAC19wWm7jVA6sEoJt9/iWr+q+23CCssbSy2KJailnbMq++LiH1Y8vtvYcLLHWin2v4yCA5CboQR+1GQMjphCo362vcM2+oDbQtLryStrug+lPT2weMtp9HEJ8LgQdG7S0tMtSqnnzGqu970Np23NTyKy+v9WZZd+QkFZ6R1JQWZ1ucmuV0o7eBF6gpgB3gBlhNlICyr9aqV1pp2cohFbcLSKVcSOhSSgdF1lkxQf/sZ9d5umHDFtY+2a8cKAFNDrAg4Kl8/fU3y/FpAYG6nolctYPlZCkXaL8EnKCmBh8FdUtCi9rE2iyaK4EDP4jngzAAyAPKEYAyRNV2xBH7edozz7zUNWa05HDSFWUNHz7ATdBXX/17CQUnuLk63KdcQgBcfsZI5Pfmlz99GIA1BBoYN4UBXvrJeiJSeG6r9a24opwKRo0Uw5ugB1Yu+GJepcGS4F77UIzhRcttv40YkZBOjNLXdVdZwVrOOFblmTWe+TOr+aeYpMA8v/461nLCIa5dN556QcT8NelS4sWYlVNymW/feRttLzjAsp/JMUfPYn691S23+VqW1prMgF0PsdZjDrKONVe2qvEfW/8Dj3PzrE+grrNK/UAT8bL1UHTsuZvV/uHPktrzDmo4mxWWX86arjhDZejBkKmuvMgQaz3lCCupH/0P+ZH6ONiaL71AJnEJAtquQEjJdGP2Xau/6nqr/fPNDnqFpZa05nPPsNKIwVYCq8SPUhCxXSbVhipruPxaq7/6d9a+6/bW9oOjVG6jQEX39VCnijr79YGnrP78i8U4xQzoB0+JmDMaBlpgfu011Eal17pN3VXXWvqjj6TJL+Tp0nKEq7v6Wmu6+nKl11aEZZezsoAEsG87bH/Lr7G8rAXj1Z8fKL36WFdvbdq+kR89zGruf8oaTznXNQ2ErNZTTpQgIQ22Sm0Ibbv/Sau/+DLXjIuSrlu07oWTXkYWkOIKS2uNvVr9HiZLyUArLLO41uY/sf6HHiOWpj6ImXXsumO0HpkrW7+jT6mAqwQ2CTLOPdUtZ6gI6Oqv91+CBf3379Lw8AdoO3Afy41d1arHau4NGar5OFhtkhny6Wet7eADNEe0rJDW2KCVAgiA22NbW8M5ErwktOS1ztx82v8JWJssLwDNbbSWwEhzj2WP7+1pdb/6g/wRVrDcJhIQ0TIlJLTLrN/v+FMix0DASuPSfPZPrLDxOpojUR2pfNna99tLe1SvkL/Ef6z1/w4UHUbq+fnC+h1+vGUE4IUlR4tuou2AWoHo69bvB9o6I6Etv8YYaz7rRM19ecxec7M1XPpzCRrLWevRh1t+7OoSgJkHEoZpY16eu3/5u9X94U/+jOU229BajtjXql57T8+k9qguu5jmYkqg9ZTmigQXuJHG0J9JCQ0tP/yB+q0+qxt1v7nR6p970UrQFgBygUjpewoI4sanS6gwdx8nypgbgfnPvOfZ1b+qF15xAEYo0gDow/OhfhHCNfr1P38BH4AHTRTw3GWXrd3z+eab/6nDNRodbLmXZs6oXrRNTo7CCQunqp122lqHY0x0YMQEzVYeAuZfQBiwZZsPTSY/misnWRG+QgCPBdIQSAeYc7gHgXTcYz0WsCWesjkVC+FgtdVWdEexW275t7388psO+ngyA9YFzQv6SLtZ12YPMXkwX7e0tLlwEDycw1B5pfPpn25maB/uqWaFP8ytMoEOlGQ/dh3XPtkGUFh7Le8YZl2k9jLCnCZy52Z9McDUJJlA8LLHNFuZfHwnLj1JaAJzYObpmSpzX8nKmlSZt6Wtvf+V5/PHbcJEy77wjh7EcWKselikmWcpQw4LHigDZs0Mi2ZyxHTE/LMvvmQlhGOZ0tsO3MuarrzEOjbfJEov7QWHlarHX1JbWTBT/lZtuH/+HTl4jLfMx2KcKy5lhUUaVc7bVnvTv8UA79R6lEyMbUV5fu7mGiPMru3Ig6V9DZbWM8EaL/ylJPVHVLa2Fcg8X/XSe/q8Lq1quIDvMKdl5v0JYtjXWs1tMqtN6bCOLdbS2vsebjZ3U7766doVjEhaemmo1rCFSakJX1h23NseB8DyQaNh20b64wkuQKEhoRH4WqlMuylwrkW0gsYQlNCirV/i0SlpSJiNiwLz1uOPFPjWSZPr0rYt1660TfVlJWB9JctEU94Ka0l7lJkrPUX95MD8J54XXVTFoMFWWHN1CW+TBZT6Lg0Z4SH7iuj65jhvbyfQhvYwbrRPVywExcUXs+LwRV0TZc0SMzwCUkbDhOZZGiZafzRZgpSWSLT+llt/VVk3Wqzmjket7tq/Webl92VubZfwtqJ1bLVpZNJGOGySoKW2dHxnPaWfonF9T3Equ1ljeMT+Dr7ZVzT2H00SaLdYcaQ0jZ23dUAGMNt330kC6To+T2rueMTHMPPep5r/ddZy4lHSsvtrPj0neosO9TrLWFo7Qiyae7mqVgdHqL3DR/hcYInENfCitr+oruxLr2r8MtZy3JGW30j0a8ppjfN1q/3bPbrPnMtZ+4G7WMfWW+ieTPEZrb1C7wUHSUAeoaWHL7x/ePm7TwTPU23WX5DQvs/ult9kLbUrZ9X/ecbqfvsnmfK1vUeM2ufZjLgz97v7+GSq/Onu/hzEpQB95XdtXlX4UlOoj/mie26ZUBzCtLfPwTlKFCWJPI4xEbN+O3r0SIHnM/bZZ1+q2zLTqwxALyN/Cj44LTERiWd7DgFww0QNaA7UGjThJZ5nPaNs88nKQsF9zMmEsA8XEzRgq6IUfHL7d9pFWawBE1g3xvQM4FInQBrM16QDgAkPPfSE14dGH5nNebsR7aYN0ZnVXOkDGjRAjPBBX74tYS6JgF8juXjONBmYLm6qktmLrT7F0cPdDF37+z+7KbAgsyZpqp54SsxH2px+pDsHWoUwy2SaMWm1Do6hSwCl4srci56Q6I6iUxLEMRvX/v2fbl5uueAsrZWpjqeesfpLfiatbqAS6KFjvUmCaKe3soOVSF/RUDQjpS1ou4Qmc6027ReWXUaAACPMW1HbBlpWP9E6pIU0nHuRwPRTazzuJNde8wKazJufWcNZ54uRNVtaD3WVzkrtf+KFVn33vdJqxQy++FKOZ8db2+H7SyuR5ieAwaxdHCbzsJQm1snrf3mde5KjTZUWlaPXb/+o/PdZ85kni+nJPC0mWH/R5fJavldr3AOs6ReXiuGuZgVtZ8As7doXtFFAkytJIvc1NpE1LYHB9zpyk36GgDYpLccHBRqzHoeAA0MRqf1KWsql6Eo8NKKvHYduZaWFhviyQ70cuaZp2wahbZJk0FBVdln1pdrEpH5zvQQjCTCAyVJLmO25o+5Xubm15tbbrKgzfF1z0ZhjmsZj3df+va1RH71Bvr6udqn81hOOEcqq7aoDkKj/+a8Eqr/XPJOUxxMmU0mV1tvqf/Frj8vIGtBw7s/lBfuSBCABr8rOr7yiNV1zlZUlZODI5+ugYkZWLYYkemK5aTiH8Z8g+l+mtfXF1AeBk0yeDeddbIWVlrfm885wgaI4apQqVZNkSsfkzjytevK/1njSGe7PkJalqOXcM9RWCalrrOJm0/b9dlYO7a9caQWr+dutlpcQYiyRaim8NKRenr1yGnrueRdOGB8XBGVezm8g87WWdlJNehGAHJ8aTz5dAs4UbbfZWBr0KRqfogSAzQSgf4yeK5VZbqvRvP3EGs44z8eVZYXcVpvrvsptFi3kv5HbbANVrChodf5PI3poPn2TA81jhrC0Q0gLVKJQabjmDDsB+JVhJwS8QRk0wpV0gI+EQz0PaKYLLzzY49/RixwCeAJO0Yfs0Xd906OV8VOiyM92ngDAnAtN+FjCLiAYvIgjkJPZXM8c+3EJOE5RN/cqj7Ni+Q7Ylt3UHKWb5OUDrIMGsQc57aCMaZnvo0YtRjL78MOoTr5PbSvaNIIAAkLZtXfuo7XTFqeGyBEJAoEupJg/Q98HYCYvswXpWSCJdyMm5uKo4TKrSRsU8BZWW1VajhwAPpzsXs/OlEivyRIF5WesYaIyjWm2RB8mBN+VFm3Z0/gjVskWLpIo3YRIGQp8xzTrUj11UA5zi4ktoC2JMbb8+Hihn7g89yQFonU0nHeRO1j1E8B27LaTte+4nWtO6c+0hr3WsmJoJ1njjyIGFzntVMpES4f5i+Gz1ox2mdt042gNWGtJBW2LQAN2RxqtnQL2JkmUgJZblAZXWHZp/ZIBTbgII6Ss4qiRbnZOS3vMbbFpxMwFFr6mJ02mNFBe3QIHd0CqSP9uGYBmIQC6jE+IC1fioQ3NIDmATLpAq0B7/w39po4D66usnQJu0HPatslUHNrG+hf1sebfWKN19PsjE7wYJEJDlTTEzLj3JKyN1BxZxQEd7bcsrTo1UeD26OOqQ+2kDfE+eN9UbkRCHz/DBM5vlBA0YNJjDdCFdfmGy38RafwaD+7V3n6ntq2sKhO1zNASYjgf2NrVcJYOcHpy2mg8ZBEoN+j0on/cFq3hozEIdNtlvk216RD+628QGLb6FhfeuFMYs3TkXKR+47+AwAUAlyQMtv74OBdS3QEKS0SjNN4RI7QV7+8Cdmn/gwb4M+Ma/VJLim50NOoX6/XFhRfWnFhchanLAluWd4o77xD5XajL1Xf8253GWJevfvhRa9dWosLKS/m2OtaaWUox/Rf31RLENdKWn5PAt4gAW74GPk9Um56djt0kFMHMv2q1xp+c52W6c5jPW1UU5hDN+6YEjanzAI1PYfllfCpkxo+PxlFTxeeDLlhKCOnxH+mPaMu9zokUdS2aamVfo+UuZysT6DbAFALf+QDOrAXjoYyplzVhwJYQNGA0TDRPALprYF2YQF4AtNIov0aALH6maqctK9qbHA7RCABaVZXx9WvKw5QcwtR2A+hRH2g32jMB8AeAo1tOlJB1vr7OBwDcZXw0qasefdJy237HGUP7vntqvW+Ez/PMiy9b5oMPXdM05oZGu1P6ZE4w+lyZhHz0MHkI96JfU+PCb4A7PrErEyxiFJXJFMqFKctEm19nBeX2J8pLSTWL+cpcypF1eITCWKulkXXstZuxXpeeIPOiQLKw/NLubYnpu3MfI3UDgAJH1nZbzjtTD/pCAk9Ndnoo7E1PFDcVk4P5ogFXPfGMdWi9qGM7OYtI6ys31IhJS9N6e4JVP/S4a/amw91htji2te+xlRi52qs1Oxg/5mXaH5kEeWgrQXRz85oEELrs4CIrgXvzOn0VK05CPOu+vvYsMEAj9dOxoAnFkZYx4Mo40Efi4UKAog62ZwzL2W7a5s1ROjdX6ofnUfYvv3T6ikMI5PSws1Ymj2UAuDSwv2vBaHplVZd9731pnW84YLkWTVsQwjyobJz3+AmYXHF1lBbNXyCR/uxzBzc3RYK3Mr+6dsxaG/3RHGg+6ydO+3JG7YAxqqj0Vxojn5f6QZsJ1ONflQ/hKcRzC0DSePqH9pFQZIqCvpO+RvebtHd9VVlVJMSZxpD18rSsK2WRESsJ7WWfeWmDMRJC5IC2+qoS3hbWASqTZPJ+WSc3yadCwFFYfRVpzRJwVG32+Re8Gk6UYqBTWi/Hl8KdICVIlKvl/Cfrh7dHglCZuc1zwiOlcUFLLmvtEKtQmfHs7JfaDZ2Vlj2yBR3g0OnoVenZHF2g/9wOtBcBQoIeAm1uvTVlutcylPbE+vIMApzGBwWhsNwyltYYZzS/GDf3TKdN9F/X6CvrwGn3KqapQ4dq+UJzBIBCy0R7JIS9usShxS622DB3eEJ7BpApAwcpAuurrBujdQKAkQbMHQmDzBMFyglX7pOWsnDaIk8AW0zcmLFZYw5xYe8xXf3qq8leDoDNG4xoN2VF5mUekah9xC+55EhPS/4AzB7xLfnD49DHQ5i86gZapzS3KjENPG7xms1vuL4/zKz1VT/+pCY8k4w8lW6HqyaII4Zu+cOA9IZWGUCY+/HAz8A0eGr4INESyMu9cD9k1YPKGlDm/fet34/OF3OXPY60PIhsE4FRa3Kmc1ovY9uJimq44FIrSpPJbbexGJryDxwkpqY+8BCSgIdfGjCMOtWhNb9D9pMDzULShL+Q5+wDVq39yHieth+wT5ROQIapvjhyceVVMW9/7Gax1MRmq3nhNauVqTDVooVLGLo0RDzKU1qj6//9kwS8HKwhxkqdqhvzNkzH20JfaZfoxbaW9KfSjqRploZIqxqzmtXe+P+0VrqQGqyiP/3M2rbdWqa6/v4bM2z6K5l6YQT0xYMqEENwzV7MxK0F3ILOMAoJG5EG3KVtMm9Bd6cnbQPAGDvGgLEUfSOa6SrmX/3AI9axyw7qZ421779P57pdVuZVrBIAjJvQKxqFNy388amkveTjdEKPAMm3P4lmfkUg8jmgxIwVbVbbKbNjmy1Vp9Z5v+yw6v8+b9W33aFEKTm7HWnF/gs5KHo/qadzDqkDzBXGBWGE/jAIjIX/po8eOfVKeq15lwfWWc3f79J+8ZvcKuJAyZzT7gCnu4Q+vL3zG45xi0bHzvJ471ft2+Y46S23tbyhZSXp2H5bX7NPi8FWyTOaJRTfVqRmlCumcl+O8LIlUGGKVXPps5997HRQs/WcuPVJz6uPtz97KoRuqX81t9wmq8bGWsqo0dLJ93zvLIfmsJ3H5xhzYHYDczTQaXbL6JpPbXbBVsDUtre8/wfUWN3tWgdnyyGOS8xp8RKEGt49nH39XbdS+Rox9yp8IzL9Rh7HaLC8+YejJ9dbb4xritznOEr2wwJmADEHVnzyyae2zz47a3pn3ZMZYCMtIIl2y/5aTqyKNOBojgQSQEo0X8LgwQvquEeGVYKC2gUg4rTV1tbhW43WXHNV1Z13DRtwp54FtORCQMMOwM5pWrwdaZ11VtdRki/6GnOTDt8JdeI0VpA1BPDmYBECp2NxP0ozB+PrpfWdP3o8+nrQqMFkedDhSmLW7IvETMe6q5uCG+W08IHeQvLs885gfC+geLozs8pYO4MQI8DhhfUomChbizpkYnONT0wqevgr9EIIrZhx4YPOYGHuer5ZQ2QtEEcXDzxgpAmMQ5O7+v4HreZfd1jNnXf7tVpbZEqDBlqz1pE72HpRkUrza6wmDW2UQE3MSodZuBYHI9MDjSaCFsn2DsClpFd6sZ0KL+rM55/7aTxoeG4KV/3lWpy4pA3pEIDCqsspnbYRPP6E1u3OtMbzL7F6rSWi8ThgiXFnBKJsiUJQoA2sbVc981+Z8Z+teJerovBU0VEefABYJtGqp/4rDUaa1ldiSkce6ltX0HS4377rTmKsB0ljAiCFfaKFgxQaHQxSuO+axEZj1WYx4SO/H5lSVR1MHyeyzrbJQ3qGbQMMGS/aqjFA0wa43Gfgzbd8mw0e3tAP0EjpkBUAiTb5/lrGTVmnCcQhvsJ8WWPGrwBNj3VfxYW6fNz5Q93EK5R0bJ87+4kWtTf8xYUTd1LCJ4CktNcr1A/ayk99Dfl9HtEf0vnc0k3u8xx4P5VbIJgWY061sgaPp/nSDrjV2qaUffY5mZBf9bVnF0gkVGVfeFlLCRpsmOOYVbxv6XffU7x8KuRQVR4iR0aca6TRZyRwsHebvrKezHxhiaNjB22HkrCYljmxQ7sMisOHC3hlStZRpOwppk3eF/oU6EH7FaIx0VXmf/w0am693dtQGiAAOfYIzQnNlaAph+fIc87iH9GcOTRXPviF0Cf1heeybf+9tCNiK83NSTqS8h+u8Tp9eSYkDOZ0UEdRbKT64cciiw9tYb7H+gOwYZpl/+8nevvP3Xc/rCMmF7G9997BvY8BRoCULKT74IOP3fP5kEP2dkKw/osDF2CIc9Mg8RQcpHg7EmUHkCd/+P6KTgcjcN4y5be1ySKlBHzH45n6OEELpzB+47HMfQA4rDFTB7/RlnkrEoDL6VgrrriMe2hjmiYPgf3ClHHqqcfYcsst5XHRGdP+Vemi67fhLyykbwdGSxPR15Zc81R39IBjhm7fXZoNmpLW1diP66ZB1l1h9OI1fhVoAjCZce8IOMRo5AnKGs6U3/5SYCamKrNsSuZfgN2ZBtSCeWgbkNerussy1fJyhlROyKFy8Xqdct0vxXi+tH7H/ChKR320rzK5MMH6D6R/SbuY69B68xuvbgVt50h9vI9vB4GhAealAXoLyr1PiiG+4gyf15rlaZIKbDnpBDerN/7kXGkb0iTF31iv4xQqwCG33YY62ENaLWuiqisjyTr94adyLhpi7XvvZh3ajwmd0F7SAu7a6/8kz9MHtJ/xYQkg2ylPRgeEHOSHiXDoBWuHuY3Wteq77rPG08514EKrgkG6xqq+1fxdWoz2GBeX1lqlhIfms0/tXPcqau+tbzsR3bMvv+Hrm5zyheacef11d/AygUHr8UfJi1Ya/VJi6vIgL+fVMTESHLGq735ATH5rr3OatmlNKbeB2nbfA9bvuFPcBOiae4fGHVoTGAONIUAHY6zCSrDhahLcdEj/4H5qg7yfX39TAINJWWNWAU7P639UAJq2ppYLQowrc8rXOHWFKXedlzGuAjCWVHT6c/Xx8IPV3vW19Ul9weTfojbClFk8Zp6hxafVdr6HwH1Fe93EhVveDlXdoYZprNmWV/XUswKFzcwkFDb96krLaisPptCS1nILo0fagAMOd0tH5sOPZA3Rmu0KMpFqr2q5XqD85riKefot7VnWUarSfAuNgzUHX3RHOASWqickkL01Ts5bS2neL6ktche7FzOmY5YrOP3MwZT+0+5As9CXcOWeSOcCs8zcddffIBP9llqqkCC8ztryut/Eau75T2QCF/N2wST0O5Qxo6vagMObj2lsPGaUrcf7jInmBtvZWg870Nr31LOibjRc/hu3cpV9XV8DpXFhjb99x20to+Wbmgcfc34SmZ8lNMXGNoAiYIZG+4c//NU14COOOMA1yRtv/JdAcKKqzdjiiy+iQy528BOunn/+FT/POVpL1dxWmewl5vCMCRM+1/SMjp+kKu4BxsShQfPCA46Q3HrrjaXJTrabb/6XAyj5V5TGfswxB8pZqkFm7BbXpgFXNHHKCRowZml+A8CclHXNNX/SMZPft0suOdV++cs/6NANzUPRHu2X4ymPPfZgOZktpLOn3/L3AGOCRmOnjG9T6NsArGfaNRTtd0WDYR0TpoRnMhJ+RmebFpcboQdAvO2hx1zK9pOHxHg5dcfS+gN4SyLOcHTcdX/S1owjFaf/o2UKlBNIzU0ywW0hTWxBMUc4HQ+upPZyP/RtkY8JA4DqLSg1t9yp/IcovlbbffpbNi9Q0iQvM1mVvVzPn8r0kobZGWizysU7tvrORy23seobOViORvLyVVvYHlR971PWcPEVzvhhoDV33OPOR6WFB8jUO1T9V1v0oNfd8Fet1Wktb5ge+D22VBWShJ9+U1ryQtrqE2lMgH1aZqfCokN11WlNYqzlARI2JAAUB/WzltO1F1TvMGWdr/6nv7DWIw7V/Qbf20ybU7zwQv3IaCuP9x1gc4YGaIgDSQBKy5zeePJZAtGj3cPaanW+7Mojya4DRKQp6+GmnNKiw7X/+hTXAjk4v1bAzZaxwiqjxazlBT54Yat+SOuNEm46Nl9H5UfLDJnXXrf6C3+mPdb/p3ZLyNC+a4Kbx0WzqG2RBlvurzVfaR6sF/t4eUKBL2MjoKrWgRbt4yW4oL0K49HeEQbYU81WHqwLHsLYacwpq4z/SFZzDoBGqwsfaMG8qM5G87K+AsiMs2hcJbN39aYba4/5KlZYYFlpRitZ9t3P5DUr5zmdJ9yp8aqccn+tkSq7a7fUr6IRdNiDXu5Hp6C94kR20xaeEs9BneaZaFn2PdjXuFcuh8kUR8nZbinNCeURFOlgi4992cOXFcR4Ge/8msvI3KztPtI4/eAL9Smrfcs5bTMqDVW8aFsls7lrkCwRlMTEz9c4yMGrsIIsK8stZrbCCAkBqkNb2hrkEV6lpR+ENgAHq5Qaqg+NjgjKN3+mRH6r1Y4B0ZsT0eqvuk5r5T9WHq3za0te9cOP68FURwN9vQwyzyBAIz3zbHfCMbO42DB9F9ozXtybnQAPEKjic5GXqbUwbEHxkMnWeJm29N1zv98TYmmMGuXxPNFaD95XaYdZ3V//rfX2t90HwgWobtoQtGBA7v33PxJYnWmnnXaMtOCd/NxlzLWAM+BK2iuuuM445/lXv7pA+3E/V1yknbKPGODEPMx6LeAHwOHVTIhAPuPbls4663I/55lznffcc3vdi+iCmRsv7BNOOEdgeprHY85mfzFlBQ2YOtC40WzZV3zjjf/0tEceuZ+dc86Jqj/a50s+0n2qfcOHHnqi7bHH9p0ATDxtQlP+tgBxauzYHWdzBs7OrJ2LeXhwYHwCUM4cLo4cIUelzyS1vxU9WJpwmGaLSy4hrVDS1cuvRQ+uQIrtQWi5OIOwLzgwWa6FZeToxBYMPbCc5JMZJ+l+rTUd4LIvvuJmPMy+heWXdWaQfVX59UA4EEnCy6+8UnTikNqVfekVrQ++I/OfPEGHa9uPnF2ynObjDES0cM5ToQnfZfIh4KhBnwAHgAzHMUyEAK/3WflxfipKgmR9FU0t/b60HZmPAdfiMK19y3SNQxfbljiNqDB6tBjoQq4Zduy+o7X+8FABrzbqn3K6GKTM1Jr8bUceosM/dlW/Cr61BS2zLCcetFMOAPHtFZj4xazRrli79b54q2N/GBs9uO6EJIbJQQ1oW67hqe2cgoTHaMvJx1tpEa0TillzQEXjj08XzV4W8GHuXMXNmZnPv7Aqmexw/uGlG5l3tH5GvaKFg6RO+8LLmxOhfPmBtokW7uRCk9QvtDFMxJzmBD0cUGkjWpeELxzAOH87v560YHl8N554anQ+OB6acUYd5hwajSwTxSVHy8SLB/LrFU1V85EymZdK46dcyQEw9ZnmJeNOYOx1D/rk117TxwQtPPuUTN7SatgG5Jqn6IuzXlFzgbVCn2eyshDQPIuap2zH4pQqFyLVNtrD6Wfpjz52M7H3U0CMUFRcYXn3dncnKs3TtI7+41kB6KCRA7bqw9vZ6SizcWgzyyGMIfOJ5R2c07wf9JVxVnlYgfLrrqG2SRhUG/Fs5oz1aB1U64RKgw9AcemlXeP2505xblZGEJLpv/OZwjwuUyrgiOMh85b2sl2JuKmBh2Zmg/LJMWziDVcJLCVYhXGa2ezTSZf5okVLSo9q3/3fLfvOu+717Q5omj+cLpdfczWbctl5embbbMBhJ+jZkfleAqiPG/OhmxBMvGiFeDXjKLWuXuiyhraNLbTQII9De+Q4yXfeGe9nQm+zzWY66/lh33KE9oqJepddtvE3Hj2nc7EB5HDIRagSoANkqWPgwAG2kSxbK8gKwisOv5AT3uOPP6MDPl4QSPNKwE0d3O+++0Hd7y9T8hQ/cnLxxYfbrbfe5fcojyHCbM3LGDhCc/3113SQZc8wr0rk8A0ODeGkr003XV9OZkPsX/+6R9MV83sEwKF9s3aNz41Zy/l1pe67ABwoxvyVNunMXlKhnxPMPU1sX9fFXIXGIFOsBya8mJKboiQJenpNQGecyh958KKdKp0YH+ZpGD2zyp2mSCsGGva2dsbxQJNfji3OYKmH/HoQUnr/KHVyv7N9UWum/Use2i0QdUnf7/psds0pAujKJBOTdy9YAYAzQ7XL141pA2ZLNDfaqvIAcpg1QgIm3JaTj9NWj+1lXpzspr6M1vn0hFvbfntLK1tb4Ji3fkf+SIz2dV8L9/Yon9ejJnrgUACYCE9bd8GfQgER7aRuhAvW+5Csnd4SnJYYZa1HHRYdraltYo0/PFdvEXrYtYMUHss43SigRcCs3FOaJQTqhd4Ah/rqAhRSfXdtUzvcPE565XPHF9rm7RN4iPGw3syBJywLZPRO135H/9Db7XUwJl0DcZpXTmf1z8cU0I0HxhGAAcC7jnulTHe6q2gjES3VBY2njyPCFn1mHEWzznmmOnzcGQ/q1vz0cSGe+gRm0MXbFECGMWBeirnFx9Dr8bFQPO2nPpYSoE28zSrH5zvlxePpRyWOPP6cQANIFtrMeEn7Ycz9Ge2m3d6mrs8U7YGGtAeBhWe4lr5SQQjT/AiR/3ulP5X+sWxRGC2hnGeEvnNvdgI0QTiWuZX3AGfGf+gWNp+b9FFWOJzPiqNG2JSLzpRj5DBrvOQavRdY7wHGz4A06tOM6gfQAGE00vC6PprLdiI0WUzIgC3mXU64QsvFgSsAYbPGHacq0hDXXQh14NyFw1YIaKOURZlo1ZOxlonk/OYe2jfAjSk7HGcZ8lImGi3t4ojKUHekdWeVnjIzvh5MXDjmMuSfvWv3/Zu9suZNrr4PwNCJB8kZiZh8RYvUiEcTPHhO8hCHABBUmLs/3GFiaiLAvNxcxVjyG4YGMyRQhgNID/kph/wVBuv5nXkISGAA3I+3Iyp12r9dy+AucTAxygiBOH4DqvraWTbxgR6k5Td1klbMEFM520yaLj9fv3Vba3R+GpS+s19Jhkl5Qv9VB1b81h1yAGxf/w70okwCtKHc0Ncodupf4klD/WIAnekU7TTUfRd2BAr5tcdYXhpWjc675hxpT08fSEvfQt+hrUDCP9RE+TCx6bWNMgQaXhh5yUPb1HZAKq1zc1tPONqPnqTIumtusvorfx05fQF+5KUPXQMmTTEQD9Ch2zRhXlZoFcogLW2gPyFQBiHeR9J42xUfr4OxhD6UE/KRl7Tci9MotCs+L0kLYZnboS1ExeuLl91TvOfRHznz+VgxzvHAUgXPoz+bSgPN+E6I94ffPT2TjC9CSrw9pPfA4M5CUBkuSHSbrdtIFa52e+jmPm0iiO6RAMV81289k/7CFJ0q1nzq8Zrbo/SO4Aet8eyLNeck0OMrUBG8PP90/2COBWyZGrI+8cUDVznXiY4AJyDN1iO8lIP5mGTEoVWiDfcUKDJsE8qyXawSiAc4MV9zZX2XLgO4UTMQDnRymeYcabqGALa0LYSg2YcyEQ4oizLnPISxmvOS5lUJ8wcAMyv4EGBAIcxqfDQTI4DgSeIhca1NDxYhlB0vlzzRbIzSOOhEXz0v91gXDXMjlFFJ0u2lswzaoPyE7vLRDgQCAslCms74Sn7iPU7t0AOGkw5esR1bbW5lmfc4BhLnKrYVcbJSVl6oDoJergr29qgsyghxXfsd3Zn2r/ddeTr7w23aRHvUFkBBbXPNSYyDtXsHkdBWr0/1w7j5zideL99npm2kIcTzUpaYBxpm64H7a915DVkEPrPaa6+3LB6+aG4wLfJ0F0J7uBfo3jXdjNKEtjN4zDNCvI/x/F3bzj1CvO7Qz3g8+Ugb7nk+xVFdPC954vXFy+B7yN81nt8heH/4ERsn6ghtjZc/vbrjfZ1uvRWahfpn5hoE1q5p422L3wvt7O4+1Yf5wXNIGgmsRHdsuYkc7A6wwmJDdH75f63fGRJ43QIRL3zmvoc10bBPN8qluhQAPz4AaKSVSrANbdL9YNJFg51RAGTj4M04Uhblcw0gzu8QSE8+TM5dA80I7YomHCloN1uoQpnyB+khf9fyZvw7osmM031zUswfAAw9w6TjIYiH2Y0PZVBed2V0F0eeEM/30Jbu4rjfU4inD2lCWeF3uMbTxtN0jQ+/YWjSQty0KTOqb5VCk5Mk7WYxPRg4Cjn4hDq4hvzxuHh98fiu37vLSxpn2KKvpGA/ThQzfSgzniceF77H64inJb5rmvj9rveUnPV0d/zRm618qwyCQTfp4lX691BuT2nDfRJ3l6a7+8TF04Y08TjK6y4+xHVXX/we9wldyyQuni5+v6d48oQQT0NcPD+/4/e73ovfj9+bbp4ZgwrFThN6AkFAJQYsnod2BM2xp/vMYZ4dfZg7bPHr2HVna99yPf3WNrM7H9Y7r3npSLAEKH28T9M0bvo/4sAaUgJeIXA//pv4kKdrfMjT9RrSx+ND3nAv/CZNd3HxvPE08fiuZcR/x9PN2veptJi1fF9f6vkHgL8+Gva9mnloMZsBxGIcHnh4+Q1DAQhnk0nMFjECEMPk5mW9obGYRaEJ9cNwac/X0Y7QnuQ6kxSYDQDublwV5+vTLHXE7+u7r5MzL/RM+LpxuM9V8dwvn6QXAwAAQABJREFU6bxlHC15ZWZurBzR5LmOR3Tdn/8m7/5bKpYepWdeUVYMNGeyo0mymaJA3wNgFseS8G2jAMwDqT0wHH6LKXT+hknMywAAEr4uxhQEDoQRaMEnCfMnBeJzjO/MPTlkFZYa7W9P47nwwDquXupS8+Cj7nDH4Tp5HQwDiLJ/nDXfsg65KC66qBWWGCEv/MjJM6NDS+puv8/qbr1NXtvj5MSINUnAi4kaM3C8/vmTwkmvZoECCQDPArHmq6SAbFwajwPPvGYS87q+rgMZBA5nkF1vJr/nSwow32XtYK0/I/+Hll23tdadt9QxsPJFkOMSIT1FJ7q98bZvAWw9cgtr2X/nqfeZsyqDF12kP51oNdqyWPW0jhV95jl/IQp+C34UZ6eQqwL7noLmdEj+9B4FEgDuPdp+s0vuDvS6i/tm92Luti5hkHOXnt/k0pjrErxYginJM7nuL7dq7/T7U9d8pQGndRQkrzYt6YUGtbfcrj3kn0dmZDkRpeQvgPNgRl70KXnucya2+1BoHdi3zWFuZqtTEO6+ybRI2va1USBZA/7aSJ9UnFAgocCcUWAuLRW4JitVli13aMYhCDx9PzVxbL3x+5WbJCNeDoz+Nicc9zBn40MQljIA32+7UBtoOU+ufU+CTjTgeTIxkkoSCiQU+MZSQCDpB7T4YT0xJs5XwBQQlVnawbiyjcbtydznHtouwMteVpYxglNfAr7f2CH/pjQsAeBvykgk7UgokFDg66NAANB4C9Bygwm5p/ukRxPmE84aT4A3TsXk+3QokADwdIiT3EookFDgW0IBgLY75/8ApgFguyNHSBOu3aVJ4hIKdEOBBIC7IUoSlVAgocC3jAIzA54zk+ZbRraku3NGge5kvjkrMcmdUCChQEKBhAIJBRIKzJACCQDPkERJgoQCCQUSCiQUSCgw9ymQAPDcp2lSYkKBhAIJBRIKJBSYIQUSAJ4hiZIECQUSCiQUSCiQUGDuUyAB4LlP06TEhAIJBRIKJBRIKDBDCiQAPEMSJQkSCiQUSCiQUCChwNynQALAc5+mSYkJBRIKJBRIKJBQYIYUSAB4hiRKEiQUSCiQUCChQEKBuU+BBIDnPk2TEhMKJBRIKJBQIKHADCmQnIQ1QxLNhQQcY9fXw9w+Baiv02Ru04P5kdCkrz8lSfsTCswSBRIAniVyzWJiGCpvSuHDm1P65Bu5OWheTeesXPozp8AzP9CEPsQ/c0KTQFPK8HniE2UWJ9rXnbwyR+hLeHnBnNDk6+5OUn9CgXlEgQSAe4PQ4kNWqjBUXk2mT5nXlDmS9UaFvVdmCqGBvvBatoJeuUY/YLSzGuYnmgSwhCaAZgCdWaUJ6XnLDvT0eaL3z6b64qpQ2VLMEfrCh3me0UdRSUgokFCgZwokANwzbWbvDswUJpQVaWGqHR2Wam2zFMy6T3Ik9acqa+WaGrNafegH/aNvM6vlzG80ASSrq/V+WNFDL2S3jlwEoiLVLAXAW+VAx1R7u1kuLyADwPpgyDBH1BfmSFH9Yp5Amz455/sg/ZMm90kKJAA8N4cNoAlMVQwVploaOtQKKy5mpQUXiEBrbtY3L8oSI01/+ZVl3htv6S++tHJDvb+cPHr5uIBoRiA8H9Ik1dZm6Y8nWOb9DzTGTVYe0F/jLuCcVY1P4JuaMsXKEtaKiw234qLDIvpCs74UNOfTk6dYevwHlhFdED7LjZonEijcOjCjOdKX+pq0NaHAXKRAAsBzi5hBy6uqcqZaGDHcOnbdyQprjbHikCHSDKQx9UHrYgqFrL3DMp9MsKpHn7CaW/5pGQfiBrO8GOz0NOH5lSb5kqWami379jtWfcfdVn3fA7ISVEVggwA2UwCaUhlNllt/PevYYRsrLLu0lfv3t3KVJkkfw98UgkcHgtqXln3uBav9f/+07Otvqj/9Ik14pugxOw/irEo8s1NHkiehQO9RIDV27I7JLJ5T+gagcY2myTo23cjajj7MSoMGmbW1Wrq5VWY5meT6IqUBA2k0pcZGCRG1lv7oY2v46RVW9ewLVu6nuJzMr92B8PxME62Dl2VqLTeo/5m0VT/4iNVf9nNpwx0RLWYGhKUVth55qHVsu7UDdqqlxVJtMkOTty+GrPwc6uv9Q1/qrv291UpYKzNvMEf3Ggj3RWIlbU4oEFEgAeA5nQnTAM0U69hyc2s55YRo3Vcm6HKVNN8B/ayMU0of02wgjWs3BWl8MjGyjl1ukOYr8Gg87Wyr+u/zAmH9xtQYB+FvA03acpaWBotMVR48yLLPPm/9RBNf/+xpTmGKhU7yC2g57UTLbb6RpT7/yh2Yyo0NAq9aOWFB9J4K+IbGq1spFP8pzZbqYM5XWXnBAVb3i2us7i9/jUz0PQlq39AuJc1KKDAvKJAA8JxSucJU0X4Kiy9mTVdcLE4kDpoXWPVvtFRzi1U9/Jhl33rbUphs+1hA0ysst6zl11/HGWtqSpOZNJ3UVxOt/w9+JKar34BKXOubz2lSGrig5dZZ04orLOdaL2NcWniI1cj02nDZL6y8gNaEccwKQkkQSOTIlpo40dr238faDj/I0hM+F+jW+Sfz9rtW9cjjlvn8Cxdw+tQ0kfZbWHyE5TccK6vPQJnWW7wP+Av0O/l0q3qmB0GtT3UyaWxCgblPgWQNeE5oCmMFeGSGtELe2vfaTRphP3daKi0wwDJaI2y46HLLvjkuYqpxkELLcfWJPwps76l8dQ0ofI/u9t5fb4cqo754G6gRIGWLjeLzY1azlh/+wMpDh7g2XJLDUPsuO1r9Vb8R011Q5lOZX7NKS5gbNIG2gUZcCfOKJlFtlQpD5ZVIaCLAqb3xb9a+757Wpo8JRFMTJ1tuy82s+p77req1190U645qzA2nh4QUOW8VRyxmHTtv79oiXsMIODW33Gb11/zOhTVP21m/vjgNVCd9j49PaNa8oIm3QfXT9/i4xNpZo34W/3qLtZx4rBVWXcXSkybJ5yFtbfvsadkXXo7aT17KSEJCgYQCToEEgOdkIsBYtT5q2mZURANYc3Ux0WZnqumJk6zxnIvcU7Y8eKCV2UMbNCLVmSpHa30wKZhrSmX5d+5RrphVGYbVy6GzXlXl9Yrjd9ZL/dpylFIfq558xhouvtyazz/LvXbx8M5JK6696f+5t7cLITBXB6jZpIk8iZ0Gqtf3lYow7ItNVcoN9OlVkjgdon70VF8Yn7pf/9ZN8u177mLpzz63osyu+Y03sKoXXpIgpnbnGFgVyNhK+8VTOD92XStKiMlI+y0NGWTV/3lQWvPP3Uxblqd8J+3Vyc5+A+JhjlCe0yc2f3qVIMwLzV2Ng9NDY9E5Z0K9xEk4QHtvPPsia7r8QisNW8Qd1QqyEhSWX1Y0eXn6PgOhrOSaUOBbRIEEgGd3sCuMFVBNaX2ruNRorXstKEb8mZUWGWo1/7jNMu++Z6WFpDHKTJuKgW8nSKnuVDjcolKONwdQF9N2Rg/4UFfXQDzqUTe3OjWVbvN0iVRdKa1JeqBemCltCuVSN2vZQxdyx6uqRx6z3FabRVq+tlgVZXbvZK6Y2GnX7NCEBtAWme4791ErKhX2HIvBQ2cP3dEEcriaOAs0cRpGRXb+rbQfzd+dqlzr9MIrSVQ+whP7d2Vqxiu8Y7ONrYwDXntO3sxL+VYi3/cd8gbArK4SGC2jPik/90T3WmmNvncWkGW/uIOt6ou3IzY+PicQ0LQ328cqFwFxZ/vjX0L/ups/pON+13shT7wcnxcSxBgb2h2fM6SjDI1TSV7caYEwc7/1hKMjLXjQAlZcdpnIXwA6xEkZryP5nlDgW0gBPfVJmG0KiFm5xiLmUxTQlrNiRDAYnQqUffWNChAJlGBgOqggusoUyVogYFJZJy7Lu9gPYoCRwRPlRepbfPgNcHPt+vEyNXxd4/nNPRilA3QsL/FdPnjeluu0DolHM+uWeKwKKLzekFZgVCZejcu+KvMqpmZ+6yCKkhyQ+O4nfVWY90zTJJRfuaZa5S0uACoPGOBD4jTSPa6pFt2DthyCAU0I8b4DXJTDNR4fvnMvfA9XyqnUHeXVb9HCgUl14hg1zX1PqzSAr/c561uysu+Pj0CXfd9DBouetboPyKotAeTQguWcVJIgkxKdWfvNfPKpZeRVzj5gd2QLdKdd1IEQxvhoLdW9iRkfwFcHXEAPFxAYY+qhT11pEvoW+jvNtUKvaeJURleaqAz2PTOny1pqYK5wsMw0dCEP2+9on66+5NIqj27iNWbFhReaSgcfxKipyd+EAt92CujJT8IcUQC+B5MV4+nUGhXlgApgBCYM44F5wpTE0PIrr2htB+/vhy/APKvlqFV/9TXuMZ1fcgnLyKSZ/vQzCo/MsPFyqA9tBLDJqF5CBfycEQPuqqdcHTFAeKxrla5tK09ohzRW1jDbd97ONZO0gKT+N7+17Lh3KiAiTTjUS10AgkDG+6n6fF9zVvV73RUAoC0zSxPyOaCobAkxbXvvYR3bf8fBCaZf99s/Ws2991th6aX8IJOsHJUcDKhbYOXaFGWE/qFZ9kQTtHONUSQokKVCQ8+vAio0YX9vcdjC1nbgflZYZSVtp7neav59b7SntUJX14Dpp9aCrVm0pmwEA8qCHtAsAE0on98aCLziPT/pEWLYusTcoX7S8iG/6sJ60nrogVZYeQUfz4zGBXM1yxv5Ncd43ux770d5KB8hj/wErpTPFSD2NlXimRDUx/2uNAl5Qjs0Lu1as27fabtIOJFAUP3Aw1b3p5u8TZ3jR3r39JeWqzRuPveBUZ0IFoEe+paEhAIJBSIKwCmSMMcUAAG6CR4dY4gVxoc203LCMWKsK1r1E09b9o03LTd2HTFEmfG0jjjlF2db+7ZbWfqTT5xv4dCC1zGnJvl2IHndOvMXCKfEjD1OwMHBDqlJkyPGKLNl+suJMgNOjvKKKTr4w2Axl2qtOrfJRtZ67PfcVJiR41B+/dWt9ejD3Zzq5z93dkkdoRuO5F37WulfZ9rwpWu6SnwnTfQFEBAAoPnm115DbTnYAaPmvgccMPJrrSEaTNBe2a1Ek3Nc2+Y0LkCFa2qy+uZ9Fl3CVqjuaKJ0tJ2lgLTo6PSEToAGfRLIAFKAe37VlW3yDb+23MbraSlBVg0503E/AHfUi0rfHKQq30O3Z+oay+M0VabQFq4SnjBhtx20v+W231Dz4y2rfvxJYz21tJA0aFlIms88RfQ6UuM9ycHajzvViWU+F5gn6qsHAS/07ZwnGnfmiGux1KO009CEM50JtEvjg2Wk9fD9XbCg7PLCQ639oH0r/g6ah4Ar9AuBroU+hbiepki4n1wTCnxLKZBowPNq4GGsMHmZDotLjNJ68QKW0dak+iuu0rrZl1YctbiVFl3E2g472DKftsiTdCVruuhcq/vDn/00LU5LKtc3OPDU3HanM+TiIgvLE3kHK664gqW09swaHcdG1v/yWl9rbN9tZ3ndDrfM+A+11vh3r8+1LQBFmlhODkOp5pI1XH6VZZ9/ySYPvNIKSy3pDmXZt8a5udG1pIAXzkjnEjelzAA6YvRF1WsoZA89IkeeC604cnHXctv220fgvKZlPpxorUd936oef8pq7rxHW3n2lgCzkpi98Or1N30tNTPhMy0FDLb23XbSFqHlI5oIyNKffeEHQ7RLu85tsamWAKrdqazm7//sXP8uA0bSRlm/r777QQfptgN393VZtGrXtgMd4nNmLpHDi4QeaKrSqFlPLS62qKwgzVZ7w42GUFK3kjRhjV3LCT/wfrN00fTTC9R3OcJp60/bfnu5CRxBovo/D1nNPfcJnAuWX20Va991B2nxAyz94YfuOIZlofq+Bz0eQYxDVqqefNqcJlg5RA8fH2nijWdcbFUvvuKCWdNF52hNVxYJaecO0ALbacgyN+kRp3PyPaHAfEiBRAOeV4MaNAppn5iW0UBx3Gq6+Dxt1djDQaIsxxqAGMZXGjxYptfR8phdyFp//APfX5kRyKIptpx8gjPotoP2s/b9dnVNsCgm27HTps6AAZGmC8/W1qFVLfPmW5bbYD1rPuvUSJtD60SdleZSkqnVtSG0QWmiWdYj+9eqbB0hiCY0DWftLULBsVMCho/E9IU9OhlqypU/Vd+XFOh+7EIJ3sJohIVlxPjZg7vRWJlm95Bm/5XTqv27O1rbAfu6Ztim06Xa997FNeOiTMjt0ERabG6bLazlrGOVXmZ0CSmtR31XefaJTOoCZMAXbY9TrfqddpbyN3t7fC0dczE0o6m9HdwqkPVDPtDyS4Olgf7oWGs56QQHZvYcF5ccpfGSKVvtLqwkrVgncrUeeZDl11rdMh98ZKXhw5VeFpbll/c+NZ9/phVHj3bwzm21hSwf63svOrbZ0ppPP+Z/acJabgWAsSzgAe/+ChwWgq+A5qef+YxgEjTm3qZLUn5CgfmQAokGPK8GtQLAVpXRGt5EaanXWethYpora5uG1vjy661tjT85xxrOutCmXH2JtBod6nDJz+T4MsgGHHS01hplOpRmVBb45jcY6xpicYklLPvauzZg34Ot+YyTBCjfVbnXCHB1IMKwAVZ/pY4DlJctnsQdWuctLLeMVT/0qEBWZw6LwbrnroDN11VVtq9lQg+BsWs/vYnAaHsweWntOBlV6xCKuj/dau0ChY6tNpE5fF2r1Rqw7zMW6Lbvsp31P+bHViWTfUma4YLbPeUet8XRo6zp0gtccwWc0eCzr74lmhwkcDnZShJu6m78m7Ucf5TSt1n9r3/nJlmsEAWto6Jp+gEprB2LFlgp3OEJTRRZhXVl1s4jOaH3Z4vPE9bXM1b3+z/59qTCckvLHP1dCR4baH6cb/1+fLpN+v2vJYBM8rFnrKpkscCJjvXhtt13FmgfKi11kOLarTi41vpd/gur/fPNNvE+vPPft+oHHrHJ1/5CQDrF6q/9gwscxSVGVmjSL6IJNFDZOMVhpm7fdUcrjVrEqu991E/+cjoxbxhHF+x6nzxJDQkF5icKJAA8L0cT5iqGjjdstUyAGa3t4XSERpfbbB3L/3tdnY6kt8nojW5oFhFQpq39O1tYh0zNHAPJmh1aGaCZffU1aXvb2qQ7/y6NcZS0Jq0HcyqTAColp2HM062HHyBzakukvAlc3GxIfhyKWLvTQRCYMtGI3RtXQONnEuNFDUjOiyC64NxV9/NfWdVjT1j7Dttaft01rX2f3a32jn9H7RSPx8EJsAY0275/oOXXWD0yIbMlB89yrQdntZbd8Z1NbOLtoslyS7hlwZVXWRQIUziprLKFJy2Tta9X0k/GhsAV4PGPfkMXPyJSbZwX5KjMEerNvvaGNQpsMZt3bLmZFcYs64d41P/qOm+X78eVRsqyRn4lOfUd+N3IqoFfgIa3XFfvb7FiSaP1qMOsfY+drbCEtpPppRp+ApcsA/RzyhUXdWq809AEemjOpL/4wlrllNa+zw5axvjQ6q77Q0SfeTU/aEcSEgrMhxRIAHheDSrMCqYujYH1X9Zm2arESVkAa3Hp4dE7dzHpyTGWU5Iyer0bWkfrEftY7Z068F9rta16yQNrdpyghAk7M+4TX9vNvvSq1dz6r8hzWg5YZSmxdToko/a2uwRYMhuKsaflmMOB+b4PVVodezYLw1aUaVqvSpQ3bUl7elOT9VKASROnMlgAobcYbYwmhVEjXTOtuete19CmLH1ZBBLVlS1bgJ8OhGDrTvNPfiyhZQ1rPP2nMrGPs6af/9Q9gjGPFkfLg/ztD+TJ/bZlX3nNT6zKCEDK1CXnpX6nnyet7xMHciwDvgeaceE+fRXt3LSN05rkEwQaNwXrYIneNAh0TkOnt7RuCRs4XfEaSKwAtLN5tWU93t+zq5PHmCOsb7O1qeW4/3MtdcB3D3HBpPnUI90kX5JWy3YqjkPF8arm9rv1tqJ/eP+t4pjX/8Sf6PWKMZognBEEvvS/ffddrF0AnH3hLWs883y9Berd6OUccI9AO8+Q/EkokFBgViiQAPCsUGt208JUZaJj6wynIeU2Hivz6ElyknlQQJmVw9XK0t6K2j/5lmuhvAKQtd4pMq1mBIxpYQHm4g4dgIHW5+Y+9u5mZUbGWUfgkJaJGo23TsyTNbu2/bWlZ7utI80GZi4zZv0vfm3sOy0pb1qewVXPPGu5DVe1Fjk34QiWl4ZVfdej0eld7IcN5sXeAOBOmghERJO27x/gZ05XP/iozOsj5Ai2iFU9/aIDg5s4hZGthx/sZnQ3GQujSvLIxZO8NKTRsu9o/zAasqwLaMm8W5c+cjxonUyv1U89Y60H7CSLwW7q93MObngQN8hhjb2tgC+af36N1azj1B9p7+pQF4T8lZKrrWq1v/ujLx14W3qLHpQLoEkwKOkFHmim2dfecqGqsOLyuqfhfOMN38bm5NMaftMl57pjWlpASR84jQ1t2QPmdOghYcz3H8tCwDJE2567uHDGiV3t+2wrH4TdRetnKzSZbA0cL6p3HPOyiYJM/K2HfU8FaFJqDrZ9/yDf81717PPaJvaHaGsSpvskJBRIKDDLFEgAeJZJNhsZKowVL2VMf9mXX7fqBx9zJyk0r8xHn1it9lVmPpCHqg5x4HSl3IbrOzDXylO3dOsd1rH5JmKGWvMV0yzp2EvX1OQ4xDUz4VMryDEnv836cpLpJy3lPO0X/ZV17LitGOweztR5PyvbUWDImJ/Rumv+eYeDGOutBQFW9b1P+F7kzjU9uHxvBWgC6GEGF2NHMysNXVia7frevpp/y+v3+j+6iZzjGgvS9nkpBEcc1t58i5zVRmoP8x6yALwjgUNnDQtsXaPFg1fA4zQZpeNBt93Ay6i7GlAZYIXVV/UP3aq9+e9Te0df1Sa0RfZo402effNt/a53j3LfX0xqSKKmz/VQoYcLVxojtpDV/vNOf7UljnlYL+ovu1b7oh9QE8p+BCh7c/NyNKu54y73lGZfeevBB+jEsuf18g9eCCFtXkJUqkPbtrR0kZrcJAFjVW3r2tTnWv2vr3OLSGH1VawgJz4C3vLxDmLmzr6jg0YQ9mQ9KWqPOgIcwo+bwHtzjniLkj8JBeZfCiQAPK/GtsLgozW1L/3VdaxlAna+v1cmYTQ3nJIarvyV1f3xxmgtVky0QQ40ddLAOPDft8QobW7sWlonXVFg/R9tZbra9xEXlz/ZPWNNZlvM0TW3/EsasjyaxYTRMv2EJoGTM3lpWgAxZZdUtoOh0qTUTrRtXx/ubeZa0fYwp3MQSdVjT7oAgcczNHHtTQIF+2D7nXSGAwDeySm9W7n/kcf5bzzK2avLOmhu/bV1eMYSEU3Ur9xYnbu8/EnuuQuANVwgUzUaoQDE9w/LaQmAdXpoHiAc0YYFH3rULREuiNAWCQlOE6ddxVTdm/MGMNYHi0Xt9TdoTHVSmsznrPv7O3e1Zl/7t1v9xQ/u1c0Rlmpj9f0P+bjhMFXWdiyctJrPPln91UEvd9xt1TpGlC1MHTtsFtFy0pSIJuqXL01I4/VTuiSEYPLGNwDTdL9jT/T5gTMaZ5hz0pnLIfgOoP2Gud2bNEnKTigwH1IgAeB5PagwVxgeTkOYeNnygSMULA1mhneyzNK+DQaGr3S8IxaAMTkDsf5XFnPMviXN75EX9U7ZjeWks4kSSMt5T/t9pR2iwZQb5ckqgA3nPJcHap1X4N651kk7BIDOeDlakCCG6mulaKW9Db5RjdFftYV2ENwjW1c0eQdG0cQFB62N+xGd1aJdWXRRHgckHY/oxyRqPfR/aCI6pN8XTW78f6K5gFcHoEAPP80LunJkJDSJB9GetVXfhgWN9D06WlM2b37PqyD6QwO3EHA0qby0WW7wOQK9cMhD20eIkcDkoMhcIh00wXtbWmv1/Y9qH7DeZKX3D7c4UBZlbdAe4CeeioQzpXFgFbj7XAs0CaCKh3P4XqO5R33UDx2YJ0lIKJBQYLYpkADwbJNuDjKyZQPmBTNDlZBm4aHC3Cyv32FrB0wfbufbZBRfjkAaE2U/bVviHcSu0eEVLYcdNzOj4QGq5AnME3M13/nEA0KAt0PxCACEkCZco9je/du1bgkP3i7aFqcP36EHbcNTG9Dhu+gV0eRsfzft/9AEgcfPmhagEKgP2lJ+PABcfEIIXwMtwjXc781rnAa0ib6H9oZxow/MpzBH+M451GqnWxZ4x7AOfCkNGyqQTkemdTn3sQ3Ny4J+8fHvShPKi4c46EKLQA/yJSGhQEKBWaJAAsCzRK5ZTAxPwqu5O+YUZ1wwQBgdH+ID+FKdMznKqdyrpHUtTUyYE4o8KB6G6w5FgAuaTWDOJCBfdyHUFRhvaGvI6/WrTXMreLnToQn3qZP28l3/O78HGoTm8Jt0pNf3iCaF7mkCcLgJWXlCHeTrGrqLC2m87bE6Q/ycXr1cdZQhitfPd6dBhSb8Zj4heDBu09xT3vAbwQu66YOWn/n8c8tw0Innk4aPlgvtSB8ff8qP10+/uv4mLh6gK2koKwkJBRIKzBIFEgCeJXLNYmLxJWf6MKk4gwII+B0Ahe/xOH4HwAz5AiPkN98rjK+kLU389tffAbx84gyxazlduxDKIz7URbtgzHwIMtv6Pfozp4FTpbQO26mBUh7l8iIB6o2HOGASH0A5pJkdmpAnTp9Q1oyu0AahhvbTTjTQuRVojzzkO0GRcuM0CeNCvEzk06TrjiZqamfQfEAw8ROsMOPT7jBHSBTGf1ZpEvLRbhpLuT6fvVD+JCGhQEKBGVAgAeAZEGiOboOVrK3pOD/XOiqM1E2hYpxsS3JNRZV4OjFBd/YhXQAjGGPXQBRMVuk4VcvXQOVA1KkNhvTknV45pAuMNOThtwOkvGfZJ0o7AR7XquhQaE+4howzeZXgwFpuGU3O+6+rzKvU5X0HUAiARbu8tkkTtL0Z9SXK2TNNaHuctv8DXiqA+/o/tZ+VQiUM+Jqr2uDmW2g0t4K2+PhRmDi/Be21O5qobfgCdEuT/+lLZezps+YfTngIeVhJpulbnCZ8D79D3xTlWjfxIUCjypi4b4IA2OcIa+esS7v0EBIn14QCCQV6okCF2/V0O4mfIwqIKfrLDfRigUg7iBgc5xwXRywWrTVWGF5B2zsKiw2fqhkSH5gqDC8E4lkPrGinLSf/0JrPPT0CzXg60gfz4P+UU2GmpOdeCBXG6ky+X3/fJsUL5mHK/rahUI6nj7Up5O/xSlrVqfLRxPJ6eUR5ATkUVQAVh6LCSorD8Yo2kE4OZ/kVl3PHqU5tuTuaEEegrIoVoUeakIby6Qcft0xE2R14EApoZ5wm3CZaa+qFJUZaXtuY2AoVnMW4PXtBhdJ21Um/C9BE26TC+nO3NJHp2GkiGnZq4LSVcuhLCPxGy4UeurKvesq1V1v7jnrtZOXwjWg+KkPIF/ocfoeymGvhHnHQj7knnwIcsvKrrKhTuHTmNB78olFw0kowOBAwuSYU6JkCMe7bc6LkzkxSQHzPGZQz1pK/1KDpvNOt6YIz/GUKeDZzoMKUn19qTeedYbzNCG24OHxRnf98ubUd+j0HEj8aEkYIYMDswnouzYAhwli5rzU9ACG31pipTjWkgUkS0KgqbfFyKqDt76PlPtpWMEcCPioXYMmvtrJe/3epDoI436ZcpbbqxQ6lQQNlvhRThxl78XR2JgLJ1A8cl/2gizXH2ORrLtSBGLtHfZHpksMyJv/2Umv73r7edsC+4ztb2uTrL9PrAVdy8I/WtmM08b6oIdCIwG/6oj71SBOnpRoCffigxbIuSghCDfHQFrrxnf5q2xPHPE759RU25bJz/QzlVr0q0EGw0zIQFTNTfys0oc1o1bzbd/Lv1H8dEuL9idPkgH3+lyba+8tpZm4xwPRLYKxDCPNGv/GELw0caLk1ltZbuEZ6P11bdRoogdNAfSQPfY5r9k6jCMS96EAP1VkaOsSazztT8+MSa7qS88t/pv3Vq/gYe/nMJ/qZhIQCCQV6pICevCTMNQqI53QCnsCMg/E5SpBTiHi9HqZXDk4AAMs6aai43DLa7xqdTlRu1Nm/OlDf3+uKOVaezGEPb6q1st1EDJK9qqzJsvfVD9XgAAqV4UEA5ODt4KSmaF8nAOJ5BGpuQlVCtkA5sKB96QUGznwBIoCytk4nTh2igxYWsoYrrtHJWP+x/AZ6nR0vZPdDLgQaYN4sMVclhjYCq/QHH+rUrrIfquHmULUFDSo1Oa8DL5aN+qykhVVW1hnWeeONSL7XVSc9oWW5liwAiPoieoS+QFPWwwUSvsd3GpqovwgtOa1lS8AgD2Zc39ZU0fjKDaIrSwWir6+XAmwCIwSkgsas7eB9/GCOhkv0AoPPPrf27+5phWWX9vHysoMgoLbPMEALCAigVWiSmphzmrAViG1p09AEy4CSRzQpOE1SeskC6/7MEZY3eLuWm4pVsm/pEvB6X9h6pe8pdR2PcQ7PoLBAt0ADnyPQji1PBM0hHx/l8TmCEEhehDTFte+5m16YsZJOGbtFB6b8xUoj9CrN/SUsQDPvX1TMrM2TSp7kklDgW0IBcaUkzFUKAExI/2g3bA3SecT59Vb2d+zCnIrLLOUMCu3FzbtKXpRJmpD97wt+RnTrcUc5c8fhJqPTmOr++GerfvhxgeD2eg3fAdrD+bS+b6u3B/3VmauJCVMX74PlHcD1v/6t1eo0rZajD7fc1ls4cPHih/prrveDJpovPseZKkCVX2dt63/Y0Trt6D1hpDTqpZfQGdNLWNVT/9XbeG7wQ/5zG+tULoENZtFoK4waG2ey3voe/pBO4J4qCuwFLtnX3tTe3A9cG3PwEJ042QuzN8dH+glLmHv1KkbeY5x5511/f3LrITqqUidUIThkxokmv/+zjmB80pr1OkeA1/uy3jrW/4gfREAhsAak2wSUgEXDlVeLvs9rP+yPBXQCToFSlQ7caLjil3rl3yCbcrGOdHzhRWmja/hZ0f2P/qGVABtp/fkxq6leKZn/utPq9YYmBKrCIXof8dJLWbVebODCDGCKBjmzwTVrHfAhmnACGud+c26zH84isOukyfBFjddLMr5OE9KOe8fat/uO+rWrW1HSAk2OH+XgjpIO4JgimlQ9+5zldRAJZ2XX/fEvqkfNE2AXJXA1XXCmCzL9fnSqFcau4++gLmmfeFonqnE6WN0NN/mbujq22Uo00XGVO26lN3NdpTOkb3VQ9mUEveoy/e4XesPSTX7CFm/gKiy+uF6fOUSCjECb+c9zkISEAgkFeqRAogH3SJo5uAEfhiGLyQLApq2WvMMVRo8ZMPXJJ65pFJdZWu+qXUDvuV3a0p9IW/7oI2s58Vi9GWktZ+yci1wYs4q1HHtUpM1oXbS02EK6v6GDE2+pAchT0oI7ttpcJux9dW7wp/7y9vadd5DZdBdpsPdaw/k/9ZcUtAnE0JY4kKIwZgUxdL2670Ud46imltDExKCztY0CAe2pFTNGG8bMmtbL3v0QCByi0JIdZ2aBuQJMQXsS6EOT0hAdZygTfFH7mEsLNOgFCu+ojlo/YrKol72Xhg/0tuG123L80TpwZD1/iw/v682LJq3HHOFWBDS3wprqyzKjo75Qj+rD3M+ZyG2HfdfpWvXUs3qP8g99CaDhwsusRi+paN9tS73YYkNPXxao5jfbSICbc9Av10iTQzsWGJZlfidk9H7e8oJ6Nd+XXzogu4WCvjHWqHqzQBLXDDtp0uw0KQ6qcbAtSiCJaPJuJ0187owYKKB92t8Z3Xzaj/w9x7W33qa5M8Ha9hIgY6VQG0JfTH3JSoAJWimm4Tadp51bazmr+fc9vubcfMaJbpVoPPVsafPtemvS4X62OPOquPQwy62/lk4iezfSjHUIDKZ6t84IyLHwpNibLOcrju401qZlufGxdmFkVgjiJE7+JBT4VlEg0YB7Y7hhPmLeMLHMu+/pjTVfudMV5xkXhw2yeh0jmJcGUVx+OQHjKJmnF3OtNgLG1XV6kbSZn17hGgTbjDhiEactzvI1jVj13Q9Y/c9/6ScXoaWQD3DNvKtjA0/5/+ydB6BdRbX+1+m3poeEkIQkICGhEwSkWFFABKUIAiKKz/aeih3bQxQb2P52ULFgQwX1IdKkiRQNPUAKCYSQQEIaSW49/f/91j5zcnJzA+kkYU9yT9l79pQ1c9Y3a82atb4oF4TPWeHIw8QUez1CDlIrgdqRYl3CRD2rRUHrN74nyfouKw8eYNnesq1SDOFnDhtlQ9FCwmx75eIQ+mgP1KU8Z6obSTB4sZ5HBZp5ZLpC4x3tki1O/xP5iuX+7+9yrXmAO/9H1V3V0hApnH4j+WZvv8daL/6OP89+dOEVB2vvfHSkZqcvF6svciNJEAPqARx7zjlL/V5i7R//rC8gSpMnKpjBYw4i0Ai1LPuv6QcfdtBIzZpjbZ+/MCpT0q8vNlDFcvRHOON7vjiuYL9Y/50mG0mOOmBDE82VtGhi9qaIJrjWdJpcI5rId7XmCKpzElJ8UXv+Jpun5st/56EB3Zf35G+7ipp4yVaS6n7W49b6pa9LXf20FhlHSkVdkSbmUB//5qv+oflziXV9UtoCjQuaBmiWWrDAivvLGFB0SipQBQutpiv+Kon4imgByPlhLYiqzWxhMJYiiqRdB1wWKyQk+zjFFIgpsF4UEGeJ02alQA1onEkLgAlll5YnopKsRQuSyEC0jBi+O/0/YooVJLki+aUfkiQq5lWVEIFka3LNWBVT8/1d2dcQq1c80pliap48XuleBV+8cFCOf7BHqr1D1LFVRTZyV4V6IH/CcS71clwpPX2mG8kYjFRSW1qLg6pCFabEOzt3arXZpx1kHe3d1vPI3218Tt60EgJhpDRJwomlS8RstS8Kg6WPG5poPAxb/cAzU3KlVLuHHmQV7W8iwWXuf0hS93NuDY20l+xQ+6Q+rQwfJuavauX5y9ifFfg5TYQBbkAlP8m0x/siH8ZOYAyjkNYBctxryrq4IlCjbqTZ7nMVqq+nW8CzUNLffD0vqa5de/aiG3SqSLqL6C7tAhKeWw4rG+UzRqIzKmnfd0X6Vde8Ef7O5/VI/pwe0DgSxclpoj47TeRyMiktSUSTFRFNhoomWhilpX4uKWITKbl0uWsR3OsZ5chNp49PG/NuqaU4ooZUiio4owazkNB4Qg/20quD1U8NLxGUCpL+CU+ZnvW0wHelNC1jvA4WkG7gprnsNgA6B82RKd8vZy/dva7paBSSL2CMBzYMuehfRBgvJ36JKRBTYG0KxAC8Nk02/YojpfY8kRLElNIPP+oSL9bFyUVSNQtAU+zrdZddmkl0yLfzTElmUgEnVmifbsJ4tUHMmT1jHSFJdMjoCKlVTC0ygNI9PsPwlC+hEIO52+5Q3OCztA98uiS+z3govrKkt/YLvy7VrSRD7Q0CQqirYfp+flPOL6qSblOlhC0/aBfrGNVqzUt7rOOZ6fZ4aqDtNXqkVfaYaKWdBlqzQheyD+l7285b1Yb1TeQXLVx9KWBETZ6WtFkeP873QDN3T/XoRQRdIAYuUn9q5ixfvFTk1zi5TPufSIHQRCCKijaxSgZFqxSYQWpWAMgXKNAPxq//TpNbbreuc8+2nrPPsOaf/crBB01A2yc+p/53RseJJNEC8kmV54sN6MlCQ+/uX1mAlVq02AEXlX1WZWI8Z8riBmI+1spO2xx0+LyeCZqwwBFNUgoqkXpM/R8/XqJtTnv1gSaPOU0AzZTmCMEnEj0CQCkl0GjkrrvRQ1dWW3NaPMggDwDsAVVloOWLHi1YMNpTVRntV1ek3s8fc5jlpCFhf7iqNUXTH66KpFwtMMojR6q/i9ySPAEZRG8kal880T+psRNdPZrHi11z4xoVzSm2Vti28AWM9vLd2Iv64xRTIKbAOikQA/A6SbMJNwAc8R4HA4EgwAKTrew6ylLTJIUKTDG6QZIo7z5WUpgYl5ge1zHqyR93hI66fN9BqzxupOWuvMHS86UelMFMBQEUCQwLZiQ6ScpIbLmrpcKVqjb/+kMs87aTtcd5vRVee7B1XHSBDJ8el7EOgN9tA97zIbegrgxt9QVCSsZRpZacjb5T+41irnOPepk1dRasO91tD7/nMBuz1/GWFjilb7o5sm7dUJCpk1EEYf9Qi4qkVOnEOSb+cEK4l5o7z9vGPjB7jiYBir1eFiSoUAHo/Amv8uM/AHl5/EgZC12vewscUCqDJH0FZo/KWMZiLDZy11ynI1Wy4D7h1VLJzlb0oNus962vt8ovf2xJhYBE8mu+5DLLyRirPFjBHJDi6B9SPuOnhQrahcydd1tSMXR7zzzN94zLu++iNk2T6nqa099V0zyzoYk2Q5Nm0WTJEknx86x3XxmICVxX02SuthNEExXfJBU7C47M1HstKSO8nneeLnodZtWRQ9VWNVVhCQHIygA0KUJWNwbUg6JJRVMGI6zmX/5W8+Iw6/r0uYqi9RMZxC2z7k9+0IN6QMOSFn+DzvovjUHaKgiy3i8tRrQl4eEHGT9J1tnb/mXdHzvHOr56gXqtI3cjBljL766MFn6Ey2Rhoe5tlLZEj8UppsBLgQKpsWP3vOCl0NHN3keYJ0xGDAlpkjizxFpNrpIqWMwvd+PNDh6uCl4uAxWpcxNLFeNVxj8pqT1dypKkhTSRu/5G7QHOcEZJsPjEKh07gtFpn7LpT38T2Fwl8BOjRuXXKrC9698uMcFY2f8lZFxOgAWoVZtlJKT9u6a/CaCe1BGepEBaR2wwksld9w9XhwPYyUXLjIg4SEocG6lIRTlk9lLLCXyXTBpuaSF9qdxrz9lyG/6766z91qlWapZLw7G7Wv51hzuIVrXfmv3nXa4q9qhKYvCexLzXpkmb5W64yVJSN7M3Tt8sI9X7wzP8OosRDzWo9qYef8rBM6V+AArEt12LJpLaAASshpNLBAiyiHbAFICy/5tEKyBgxYq62jbY623+3R8F9GqjaOsW2dp3bdI4YXxUGTpCWwMCVUmhLvXREZdOtY8POM6YFRkYqZ3Zu+6z1h/8RJJldBSooFjNldGS+hhPAWrub9cKKCU1Al6+YNFc4bPKyx93jLeP4llwOWhqHL0uSeXVtKRftSt3/U2+QEPNnUiIJorJ26RFVqKzW7Rb7tbJKsExLjVTls6yfM9OvU9jra2LNhlrybjO+0K9LNQGDNMzj6jt/9bY6ciSthXY/8/94xYtioTOzGONX+62233vvdqq40tp5dGCkPnEXPM2QxPNQ7YzkstUjj6zn978mz9b09+vi+rSnMwff6zTg/awACUUYn2OOKh7cfFLTIGXNAUShx/+ZuS1OG0oBQBgMSz2vtg7wwiq+30yhFrwrJ+hxfAnc48YolSHGNBwdjIAdnCG7ypdpCwYJNJXDdQT2s91EIDZAShIM9yTytldNiIBi/FRXlSGwJm9PrUnqIkBZi+HMmCeAIIDtsLYacHge49ijg4M9B0QTict25W3JXuPssdO2kvArDpRV2sPdOJNT9nQO6Zbx9vebD2f/bglFyyy8piR1valb7i0zb5t/Zyx9l3XSROBRAVLYqmPXbUpCHGJnj1G+qd9W+8zFtjs45LoZ6CJFiIu/ddo4m49tU/rnphqgLcWTYiC5KAbxdUNYEJ9frQKtSrnaMnj++pRtf4KgEI/xtDHSm2SFMoiwjjqpP3SDh1hKh50oOiqmL0C4QHv/WBEY56D/oyd/qqSFFd97xtWHjXS6c0iof0TMhBT/Q7UGiPUxamCnqH8ddGE8jQmvgXBvq4WUUisTgMWAb4Pq++hL4xhoIHmmd9XH7Az8HrZ41bf3dgOzYoWMNFYSHWtfXe/5wuJBrroo88jb7u+SE1dlUU/19zzlhzLMGZsfeSuvtbjDleGKUYx2xia717vmsXF32IKvOQooF9CnDaJAuKFzk37KyQwLQEDoIO84oZVSIpiokhvCUADJs018uu7x3MNyyLKF1P1PC4BC4zJW2PsfjwIhgzAimEjZVQBLH13Rso+o8piPxrgql/nmVAnbdfXlMIgFtpyNvxRGQB1F2zGaftJdSnJSIY3j56+v03qXGEDZC3dpSanaKue6Tf59dCBvjnUBtqDJW1GjJ5yaAfgpvZXAIjQNvpIeh6auGOOkN/bJBoP0KKHNvSliepopC3qVZdUVU9VRk71cfBKay+UTdugaxirNgFXGJPGvHxeF008n8acurAqVwKQoyNd/tUXVSwIqgUtpPIaz3XRBLpgkOYGVvoc9pIBYhZzHJsiD3Ql+TX1j/J0jee87+E+57tFO98zVnYHdo0Dizgvg7L6Se5OlGGGRuSB/kw2/+vngfhSTIGYAmtQIAbgNcixEV+cAYmRI5HU+RQgUDsOI8bEXrBLwLzDrGDkSs78YVoN15yJSc3p1xw5lRFJKjA5pBWsfPlOAgjIF6QtSZD1OgCgWvm+H01+8oXroVyuK1VTOopSA+GBTy63fS6/z6affoAVmlKW6ewVIO9vo4sjbaCaUMlIahQYO7MWANTL94L0grVsfzQRQvkCAeviivpJ+6BHDdxQg3rie+gj/VsXTfrriyTbddKkXo6KD3VTD5I377WxiRpRe+V6aBeXimpP7Vm3skZKBNx4lvHhc2g777W8CQFrOi/r76zyS31dxYIbKRSpkFQDSCvoeZC8NqZr0YQyAXH6HsrnPbS9b1+ov/Ganqv3nXpr91RC1FbqpS3Mrca5xv3GxCLBH9JFABgpWlVh2e6OOKhXiXmwOqNfil9iCsQUEAXEMeK00RQQ03NrT6nh2Ic1gVdggqgkOX/rakSYY0gwJZg5fzUG5e/hGoyPxL2If63O74xd9wKjdlCoZeJz47ON5WOME1LjdT73+auq3lR33krZpLU+vcL2+dnd1rIib4X2JsukWmx+2zJbPOtWSzajpsxrL3mxJCwYrxhwrZ/PSxPaiGq1kSahP42SFp/rbXsemgQa1vOqT4FwXOtLE+jAM4Emoe5wvbGcxs8+HnoOUuqzH78RcFXG7OJOTpIcAxMQYwnMvn59C4F+8qyAjMUKaueEpMuUwLg6ahcP8IDa3bcgaEugC58B2NB+2tdIk9B+yibxHtrb93soI+QJz3A90JzywvVAN6YteUK5fd8hRniGJkjlzb54SYZv1qQxVtm0LhliEZM39I82ximmwEucArEEvLETIDATMSg36Hlsjh+v8X0wHcvA+UFGhlFYi1Z19IPkYewaGJZf3AZfUIviOrI4uMmyksb2+cVUm3n8y2zF7jtZrpy1JXPvslKyYmPyOrLy5JNWwcgLQJEE7Q4qdkCaNA4TDijYU0WS737n2wWeAh6+S9Wbmfao73NW2B9GEkeaBKckKrKHjHFU4Vi5BwWXy0V5sDrFUjNk0KQ543u40hxUZYhmJcCqsdZt9bN3RBK1gFYGdsV99pLV+RtlYCaDMhYkCoPo3uC06PKFWViQbKvdidsVU2ArUiAG4E0hNio/DIDEgGE+HJ3pOeNUWc3KRaSudX3qo26Elb39DpeKEmK4240EIEaZLsnKWO4vE5msTbA9bM6IEbbymUct1zzIlj/zkNni+2xPcIJ8kvCSHKlBZSlJaYekSZgrUh1zrKv7vefIu9Qhbr3txnhyupK95TYHHlcbMz9YcCH9Spqttrf6WdzkE0/qbLWiS8nwC9/g3Z89Tx6tfmXJp56KpGSpqbGm3i6S9w8jwiYrvOoIubJ8n+a8LNNx5qF99exNt7rlPRbzBIOIFiSiSZxiCsQUsNgKenNMAlb1qNu04u/4f7Jy3XknP2JistStCrxwsICnJrdW3Rz1ba0y6Jf29YoTFb94wjhL9RTt2Rn/sKVLdUzGxHBzVRswf5VN+sODlu4tWjkrVXxRdMAoiCTmvCPSBMt2JD2MkNw6G2vqEcOs5XuXWtPvr3RvZCZr5jrYQEdUuUiB8oXdc9QrrfO8j/nxHrQiyYGyHmafdNo0P2KUknjsFugRFbf9V/UBt6ClvfZUu7VwkB9uc3V03to/cp58cT/jWiKnAbSIU0yBmAJOgRiAN3UiOHMV0+Hsq9SQBFYg1q9LAXidApgxSpGEsH2oFPsQRF3j2ArSGirmhLxGLZ16rS1+7lH5y8hZKVO15uU9Nvm391tuhTxWNcmrk/bC3bpXKtkdkibSenjIQxkpVbMKoDBkgDVdebUiLv1YCw4ZVbFX2hdoaiBcbtU8kBvMntNOUfi+0y2tM8hJGTMBxKjycbSSTAuog0FVn+HYJr8i0GrBkcRbmya5W1lr3rdd8FXjrLlbqtfV8bH0u02OYdyoF4UCMQBvDrLXmCvSogOOYv92f+R/FERgLy8d5wmc72w0WNkc1W6VMiTNus9pzgwLeNJTp9qA719mz+6SscffsrelO/O6r1jGOrY0+bcPWNszK63YKqlfZ1mrbAwGEN6BaOLndkUP9v4T2uNsukKuHK/4U3SeGdVxX/BloESKijQEFW0JE+iCeVI86ijLaw8ZV5hYHHOOuNIrRxs4bWEf2E2YeHgbT+ov8ZWDr2zCJbZoMUIoQz8q5dbU7IXH4LuNj2TcvK1MgRiANxfBYbpa9TvgSJ0Ik8bBPXFSywIfPzNJhKHtLem4S0I+honBm7v1X4b3pIqANSNRbcleI23WKfu5RW9F0nFShlt7/vFBGzxnmc4TC4RRRwMigHCgyWtFk1du5zSR1XLy2SUyqHrYstff5B6nXMpj/PtLgK88jfEXMDUpFUFquXwoy4o6f+wb5Ht5P6sqPKMvdjSX/ChZf2Vti9ekdsboKin3qkSkysq7VhKNCeeL0QaEvfBtse1xm2IKvIgUiAF4cxKf7S2BEP544bS4GmQPuCovUUE62JzVbZWytHeJi0iiOuGQ3x1/SJJBVZqV28rndhtqM9+2v+/7YjnNPvDEPz9swx9aqKNLjSAcSUD90QS5aLvaGZQ6FfeLGBpViUSFdgAprz/Jl5kgI6yyjnU5+KqjSVk4J2VohdTIESS8Q1XbB8hoaXAkVa+jnK0y3htTCZKtJHqiSSUUwtIXI1h/c4xqe1Klb0zf42diCmwCBWIA3gTi9ftokISBFHmR8rCEUj8n8FIUxJ9+H9xGL6o/BFBw15f0jb08JbTLZTnjyMgwq2tEu00/Uw475EUr3VMS8OZs92um26h/K+CC1NFuHY10CDPGvSRq2u2ZJuqHu6LkPDP9WhfQiEbsm7MoiYgmummRksLRBrTEMEvaAf8D1KEt17bDxBEsnyO80w/OFWMRH6udt8PRjJu8tSgQA/CWoHQAYdRvMCQxaj8DLJ673SXx0QRelzhCEgDDpRpJ+AITPGKlZAGdH9jsINw9XAEa5DWrd1CL7XrzY7brLXMUxEGSnnCK87O44lybJhBGFW0vSeDiXsyQemm3e4Bau/24diznauBL35QF8K17DWOeMEcAKeYIfp23R4lRzfczvgAvixGkX/5i8N1eZnTczheJAjEAb27CN0g2HqMWFSMGWEjA2yNDoj84+sc3sEDCgQcQrTHYhMCIIA5JWT6Xm9I289T9bcWEodYki+ieIS026u55ttvfpztQO/ACMEi/HLsJ4OPgux2tTpDsAExowhlfxhenco1dAFuzAtSGa+m86IZkGK4hPUuFzbRI4o4yLHI295zc0uXRHy00PVoXx4/qWgEWH+pcnGIKxBTolwIxAPdLlo28CFjBfJCIAF79VUbs5AHkK4MHR6C1kUW/aI8pyg2hDFNPPuX7wO6tCTUyCwrAVOiBROfO/dV32O3sE/exxfuO0vEkHbcZ2mLDpz1je/wl8hCFD+OqHHqUdh3jcYwdlJ1H62W74NXqrxYPuB5NzZvvY8yRsyhg/epRQvL189C1Prnki31AAF+yCrQSq1a5B63KmNFWViB7N1xiHm1PSZoNPF5hhJV6ZlEExiFgRW2ObE/didsaU2BrUUBL9DhtFgoEyZejSGKqpbGjLX/yW6x08BQrD5crSvnGrQqvtrdEoEP9DbMAAEAASURBVHcCIRDHN6PYsLm/XG0pGWQ5UNTUjWAMUk9wwDHxTw9pL7hozxy6qzUv67Kle4/UfnHSXvbvZVZ847FWUNzk6vCddGxH0Y8qJVs4+xbbacLhlmlpFY4J4LZxAErIuhvDtPTjT1j22hste/Nt0aILyVj72+WcpEGckdTAF+ckaAocfJ1YzAJZOsspR+GIwywv142lPfdwA7cqltLbGf5iD2AyKksuW2bpBx6ypquutvTMx6KAJGg5tvHxZDTiFFPgxaBALAFvDqoH8EVFK8vnvI7a9Hzofe6KD6cLSZ0D9ug1NYa8OarcamUABpLUKoSmk3qRYAKt3/yuZe5/qHbGU/t+QR2NJCxaAD4YY8173e721Gt3t2x32YrJsuVahtqY/U+0XLLZSiuWWjbVbCuWz7H50/9uu+13moof4oBM+MM6em21jm5AReofMYwJWo+hES5IW779famRe63crEUF4EvSW1LnoZNy1bkWqIpW3f/9Hssfd4wDlMcSRi2PBmV7TLL891CYckRCX5p/9itr0mKtHtIwBuHtcVTjNm9hCsQAvKkEXgN8V1n+DUdZlwLWu/coqaD9GJL84Hqggu1MsoE0Lt0IQHA4gX9jl3wFHm2f/5Jl7nswOl4VDG90HalP8KR9YVlIdxXsmUPG2uOvGy+vWRkJh0UFTmqyMZNPsNyIsQKqqj1975+tY/kTNvaQ0611xBgrY6TkgL6pA7Plnnea9CiykSRYUkXHzNKiResXv+J9qku+koYB4Dr4Qh/6pj3jrs9/ygpHvcoSS5a7dMwxtar8brsHse1tnjDmdFNngYmGhNV8VfGvm3/wU2v+vRyUoKLHQKu2UNtyIxOXHFNg+6JADMCbOl41ppqQmpZ9zY7vXixOJA6qPdLqgDb3FZyR84r07McjA6ZNrW8rP4+kV5q0pxWPONQZKxI+MWw5Bzvg3E+6xO+MFcmNfgMeAp6EmHBFZ0KTY8bZ/M+/2xbMvc1dLHJelqAEu/eMNXtqns0ZJz/KUkOPezJhOy2qWkEne1JSezsQbeW+rm91lSGDrXDoy6281yTfD2axVR4+xNJ/lTvKH/3EKgQjUEhH+hGtSEQUDNfwnPXcc3JBeYb1vP8chS5c4r6y8ZedenyuZe642wN5bHfGelpslXYda0U5WKkMVZCJji51W9oQnY9u/8z5lrlXCzWNuZ+VjkF4fadZnO8lQIF4D3hTBhnAAXjY+5OxUq9Cy+GEAKOlyqCBYqpPWOtF35GnpDnOkDwvz5B4k+RQZ7aoLflOCveib1v21etSxdTd2AZqZXGBEY2uF6ccYF2fOFcGVMNdGq7IYKj3pDdbyw8FOHIgkeiRJbCsoUNCFY3h0aozT7L2SVNs12TW5s+/3fd3q9IMzFvyb8uapN3yMHl/ypnNfNByN820hOIOp3BSEcqiXbSRxOetmhorr1UMTQQ4TVdcaT1nnma9+mMvu7psqRVf80or3fYvy8yYpcWG+qSFhc8N5oieMVk6l8eOsfyJx7u0iBMPFji5v1xjLT/9RRTYoa8Kel3jszVp4m1Q/+l7WGT1GYucfgPlP/1FEcA+YqX994sCTWju9JxxmqUfeiQaO56ljDjFFIgp4BSIAXhTJoIzVpEQCQgJ4OUHRkELxFSTz62wtgsvckvZ6rAhVpUf5UYVnEeNUd1YDwMskRFTBGB+jEPMChDb0qler6ryeoV29XqpX5JbQnvAmf/ca60Xf8c6v/pFt9rFwrsgqbjpD1e5JXDd6YIDFK4nFZhhnFTKU6ZYZfFyaxu7t42ztC2Y9lctTtqsJCDPy1I4s1IBLHR8KT9C+7/uMUzBDeQpCj/Sbl2t/WA/N6tynVZbnCDQQQPyPPWF8Wm99Ocu5XWffLzU0XIrOWiQFQ4TTe6dJhVsM6MbtVbzhCM6yRWrrHj4K6ysvqck/VaGK1zfLf+0Vu0fo6atDh60mvZ6st5vFnhhjjAm+ovGSpeZP1s4cX5bzqlrc1XjQn8a6xWtElqkEYaz7UsXWcd3vm6VUTu7oVpJWoLS5D3lF/qRtWwGtnCz4+JjCmzzFIgBeGOHCEYIAEulhgej8st2EwMdbMnFi62iWLG5/7vGUgpBWNlJEqPUttG+Zo0h10CKqhMAM5JnrRxvjgCPsp3Jkpe6+iauIxr2c6suqfT7TJ+Lqis6x6rr1AszpU2hXOpmL1vHqTC8ytxxlxWOfl0k5es4UVlq9zpzZS+YdqFmFE1Kokl5yCCBzWLLD6nYkH8+ZIOuutse+uhRVi2iopXhjsAFq+diTkCiehM6C5uQYw/jDK0SQey9PNHIPUVxsT+aOGk3kCZOQwpsSKH9Ahi2FSKtgBe+OhN5ZHCHliNzzTWWePVhfkY6WchbdeLEKCISzkvCuOndx1LHt0qTJ6pPmjeMufaCmyQ1GhoAQJaoUw62Kr+xHX7OWNUzVsw5/nDaoTwJ9pjXlSiDFNoRfVv9yv2+98Izq3PV5oXGxo+eqd2Nc4Z8lKFxqgyQ6l0gzNzv/viHIil46CAr7zkxsheADrUmNRYff44p8FKlwJZfPu/IlBWzcmlRzKcsoK2mxYhgMJKg0tNn1UBVYAKwpfTn7wIn9gIxSqntE1dxXiCQc0YGT5QVqXsUgrEBZrz3/fOyNHx9r/OdezB4B+iGZ7ne58+DJOBQol0WvTiC4NgI53ypN+QVGFW5rs6lp8+M1MN8b5a0KqmVZ6JjNxF3dZoITFl80I6E+p6zlHWufMrmvmEPnxFu6UxUIPaLZeRVahUIyYAHlXdFcXZJTiO1gfdElyzJKR4LadpGauw7wEV7eW+8Hj5zL3wO74199GdVrmjh4Kc63X831/v+aX+bPpfx8CV/0Kn5TzvoYnBV3UnHqwg96SCrtgSQE2hinMS5cBYZvu+78NkoVi7l41Ur0J12CeB9ESbLaPZS3ZqY8QF8oZvo4QsExhhplD71pUlod+jvGu81eq1xTWX0pYnKQJvBnK7iq1r0Yc97DZrwjPpGv3j3LReFWfSyNGblkTutpoMPYtTU+DWmwEudAvrlx2mTKADfg8nClGs8kPIcUAEMmKNLFfoC84RZiaEV993bet79Dne+APMkylDLj34qVWS7FXefYKnFSxRxZzGFC+QljTWWQ3lII4BNSvWSvA69w1ABd9VTxQexsnLJjYBc2tYzoR2SWH0f88Q3uWSSnPeUtfzk55ae80QEIiE/ZVOXnosWClF9fq45rfq97obO0wz9OVPWW77QYUsfuNtWHKB4t9ndtMcrsGFBoobRRtxZFlpS1nXWaZZ/83HaF2VB0mPNP/+19oVvtdIeL7OK1LNpGSo5GKg+D2SgZnndoX+A3rpognSuMQrnc1VzREPaDoFqNOF8b3nUSOt511lW2m8fHaf5peUU8ag6oL1OV+rEv3NFUmgSqbUoi2hi+Eqq971eFj9Ok9A+GhjVg1W8rM5Up+jJIgYpm7lD/TzDH2OtMWQB0/2ed0VhLTWehPlDXc32RvHlU/zZ9JPzomcoH5o21kv5fAeIKZPE99Bf7velSXgmtEOLy17tWfe+5U3R4kQLgqz2uZt/+wfVp/lFu8PclN9rymZR5+rz8INgYUH74hRTIKbAGhSo/SrXuBZ/2WAKwGD7SX65xngaGB/STNfHPyzGurcClt9j6VmPWeHwQ8WQJTXq+MaqH3zJeo872pILFzrfSq5Y4VbHOPjw40CdkpAx6hEIJ8SM/ZqAw4PESyJzxii1ZXJZFLEHi2V3/QjDhMFyXlnh4gqveZXiFr/TVYWpGTNl6XygdX/o/a5OdZeJ9S6pI3QDxh2Yav3e8zFW3dMMW/rUVOvsWGCty/M2YO5Sa13SZa3PdlrrolXWsqzH2uYts8zAEdb9gXO8jtzNtzqQFg8+SDRYpLOyR4smF7q07VGZREveEytX1vosuiBB0r/+aKJ8DgzaCkh6FCPRDDqFMUHNXZP0ivvvayt/c6kVpFau7CythtTMvnjxvqvT6hILBo6VuTpVJCF2b8JDTUILH/Q6dfr/0JCnXq6e5TNtUj848tVzzjuscPwrNT9mW/bu/xj7qRVJ2GhIOi/4rMbuv9WPFQ7WfuxNxn8+F5gn6qsngSOxh+vzRONO312KpR7lXYMm7H+TaIvAFc1I9/vfIfpIwtVRtOrIEdZ7zpk1ewfNQ8AV+oVE10KfwrVakeFr/B5TIKZARIFYAt5aMwHGCpOX6rA8Ybwb3KR0NKnluz/0MG7l8btaZZedred977bUs12yJN3HOi76sjVf/jv3poW3pKo8RQE8uWuuc4ZcVvzY3pNOsPLee1lCe8/s0WGB3fLjn/leY+8pJ8rqdrSlnlqgvcY/G/W5tCWGiSRWePWRAuKKtX7nh5Z+8GFbOeR72rfd3Q3K0rPnuLrRATvghTPS9eOmUS6XM23U+COleh1hred9XnuBD0id2h6pl6EJ6niBSO+73mE9snzO3PpPGfJ8PYqhLObec9YZVjzk5ZZa8Jx1f/C9lrl7quWu+4eO8pyuBcw+jnepmY/5Xip7zeWdhlnvKW/REaHJEU0EZMnFS90xRO/x8sL1+teqzqwbleX+fHV9/5tgGah02b/P3vhPX5T0vOutvi+LVE1/dGzZPXrh+xrQ4ahUSurzZEVBFwKNNmU+QQ+kSUnr7KcSKziphUrTb66w3M23WfM+e3m9XR8/1/uNpqDjm19T32UIp6M/PWe9TYZdw1xLkL3ldsv942aBc8mKB+xnvSefICl+oCUXLPCz3GgWsjf/06+zEMPJSuY/95jThO0QFjO0R5J42xcuVuzjR31h1nHRhdrTlUaC7QUAWmC7Rtf1SJxiCsQUWD8K6Ncep61CgSBRSPpEtYwEiuFWx8Vf0VGNUx0kiIYDEMP4KsOGSfUqIybtGXafd66fr0wJZIuHHGRdn/m4M+iec86y3rNOdkmwLCabf8trnQEDIh1f/5KODu1vqcdmW+HIw6zzi5+LpDlUhsCJwK0iVatLQ0iDUkWm5eWqOqBJZUvdiiS0BmfdFCpFQJyUm8mkjiYl1QYiKWFtjFGRO3FYtEhSpbBHnqFWfe+bvhBILXjGFyVYCyMRliaK8XMG91WHSzV7qrQCy51WvW9/s/WcfaZLhj3yLtV7+kkuGZelQu6FJpJiC298vXV98SPKr/q0SOn+4Nv1zBmRSl2ADPgi7eHVqv3zX/RjQtq2Fg1EBLYAGBNJvRVcRQJMuuz9kZtJp5MubZbE+KDa7pC0rsVWZZgk0E9+xLo+/XEH5oS0H+XdxyuPVNlqd2kfScXyyNX93+dY8eADfT+6Mnq08kvDMnmy96nzqxdYebfdHLwLR79emo8jvKn5N77BOs//8No0YS+3BsBoFrCAd3sFnIVgK6D+u89nLUzcYnyzdDwuJKbAS48CsQS8tca8BsAm9WVSzhhafnyZdb9PTHNfHdPYdy8rHnaItf3vhfKm9HVb9aNvSKqRU4dv/D8Zvgy1ged8yAzVoSSjqsC3eOThLiGWJ0yw9Iy5NvDMd1vnFz4tQHm7yv2pAFcOEUYNtJbvyR2grGyxJM5rn7c0aaJlb79TIKsjL2KwHt1IwOb7qirbDb+gB3uSgMzGIvBawC0pif6T6vdUPkxeUjtGRrnb77LKb/9qvQKF/NGvkTr8FdakPWA/ZyzQ7T3pTTbgw+dZRir7iiTDwW+a6ha35d3GW8e3vuaSK+CMBJ+ePls0OUfg8hmraHHTfMWV1vWxDyp/j7Vc+gtXyaKFKGkfFUnTIzyxdyxaoKVwgye++1pF7dR19o49rq+TRf3RUalko+o16t2mv/o80R63VNrNv/qtH08qTdpD6ui3a+FxpObHV639vPNtxa8u1QJkhY89Y5WRxgIjOvaHe956okD7PZJSh7phW3lYk7V/5wfW9Ls/2nM3Y50/z7K33WErf/YDAam2AX52uRYsWhBOGFejiTQUzIfa3m51oCRnqe57T36zVcbvbNmb7rT0/XhBExiTj3H0hd2mdz8uIabAS4kCMQBvzdGGucpQCGvYrFSAKe3t5VGLSqIrvO5QK17/CnlHUjQZGQQjWURAmbTeY19veamacQPJnp1bFsuQKz19hqS942zFdX+WtDxeUpP2NiUhAVAJGQ2jnu5+/9lSp3a5ChVwcbUhlskYagEgOgKDKhOJ2IOqC2B8v7jRkGhL0wi6SO3Z/P1LLHPXv633hOOs+IqXW+8Zb7Wma6+P2ikezz4kYA1o9rz3XVY86MBIhSyJ0VXZkhrT2svOH/sae+7vosmkCa5ZoPNVaRRIq/BURn6BVlIqa5dwWWzUFwhqC8Djf7oMIMtTFQEWCDjgSflxMiJn1tH3zflamyOMR1oOPdoEtqjN8294nZWm7OlOPFouuczHC+0BEinbGsV9ZNT3rrdHWg3sAjS81eYWj2LFlkb3B99nvaeeaKUJOk6moBr0yfe31c9V372oLvGuQRP6pf4nly61bhml9Z5xgrYxFljzZZfXwXlzdj0uK6bAS40C4ipx2ioUgMnD1CUx4HCBvVmOKuEpC2At7zHanTW46leGsXhJSj0136WO7g+cYU3XyeG/9mq7FeSBPTs8KKHCTs1RWDzt7aYfnm65v/4tspyWAVZVQmyznGQ0XXODAEuSihh7UoY5OMz3c6gy+OLMZmnU3mLEg8xkTVvRmd7Eyi6ppZ9bzWABBNq+JVIDTcrjx7lkmrvhJpfQVu3x7QgksrUjWzRBDiFSOrrT+b/nadFykLWd/02p2OdYx/e/6RbBgFF5N1mQPz5fltyiyaMz3GNVSgBSpS4ZL7Wf/xVJfQsdyNEM+BloxoX79FW0c9W2H71RnTJgqnRKRT+gRV8iWjj4biGSRAsCid5abGB0RRhItAC0s/OAPf06x5BMnseYI+xvc7Sp66P/41LqwLf/ly9MOj/3366Sr0wYJ0m11XCHiuFV7u83KlrR/3n/TdbKSK8DPvW/Hl6RxY3ThMUZSeDLgq73rSdpj/4sebSabW0XfNWt0T04B9wj0M4fiF9iCsQU2BAKxAC8IdTa2LwwdqQVSTXETS28+nCpRz8tI5l/CijTMrjaVyrAss5Pzo68TEm4Yq93lVSrKQFjUnwSdXH+6Nc5c3V1H2d301IjY6wjr0NJqaiReJvFPNmz63nHqZZ/0zGRZAMzlxqz5QeXWkr7vBU9m5RlcObe+63wyv2tS8ZNySUKFSgJK3vDnZH3Ls7DBvXilgDgOk0EIqJJz3vPVhtV/z/vlHp9rAzBdrbMPdMcGFzFKYzsfv+7XY3u6lFhVEUWuViSV4a3WfoJGUohIUu7AJAQW5c+4h60WarX7NR7rfvst0hjcIr6/YCDG8ZfrTJY42wrwMcRK1xu5j/3SS87Ibp3n3icJQ/Y24/dcM41JQ2G73tqSDdrgh5hQaKFQUXH0ZBM0zNm+6KqtPdkgZ2Gc9YsP8bm5NMefsc3vuyGaUks43URb2xIy56Q3qGHFmN+/lgaArYhek47yRdnmYcellR7nGwQ3ipa31+jyUprxb0o/qzJLxV/9/ve6YsfrOd73nuOn3nPSAXd/PPLo6NJqO7jFFMgpsAGUyAG4A0m2UY8UGOsWCmj+ks/MlNAc5eY/f7OdFNPL7QmnatMzZeFqpw4EHO38MojHJibZKlb+eu1lj/qNWKG2vMV06zI7aVLajIc4j216FkryTCn+MYjpJJsl5TyFZ0XvcTP1PZqDxQphfisHEeBIaN+RurOXX2tAw37rSUBVvamf/tZ5PqeHlx+S6WaxOmersTYkcwqI0ZKsj3C25e7Xla/v/y1q8hx14hXLQAaF4dNf/yLjNXG6QzzqX42NvMf+RoW2Lr0hgWvgMdpMl7uQY870sto9iAJA6104P7+R7ea/vjn1b1zRJPaX9JiUXvyHOFKzJylxYpU9DqHjMeudFESsx83Wv3YZvtUo4cvrjRG1N909XUe2hLDPLQXLd/+mc5F3yY5vOouQDmbW5ShWe7aG9xSmnPl3e8+Wx7LHlTwDzkzQZrXIiqRl7pdWxeJlR1awO2vY12v9bnWcullrhEpHbiflWTER8JaXpPSP/OCmjv9xFPRYk/ak7LOqLOAY/HjKvAtOUfqrYg/xBTYMSkQA/DWGlcYFUxW4IB1a7vC+bGXCdj5+V6phJHcMEpq/d4l1vzrK6K9WDHRVhnQNP/i1zrLKVWogABXkYXDD9Y+6d4C61t0lOlHfo64PPkzbhlrUtuijs795W+SkGXRLCaMlOkemlS/M3mBMkBM2RWV7RKg8mAshbTt+8NbmrmivpS0hzodRySZu/7jCwgsnqGJS29aUHAOtv3TX4jU55x3lpvHAf/9Uf+ORTl7meyDFo44RM4zJkQ0Ub8K+F2e/GnfJwXAWr8mVTUSoQDEz0xLoq22ieY1AyIWR7RhMFJ4k1xNykc1tK7qfjKhcUIEDUC5JecNdegPjUXTL3+jMZVjEqnPMZbzmLvas2+68q+W/cetyieJHGcgomP21tudnhhMVXUcCyOtzi99Rv2Vo5drb7Ss3IhyhCl/wusiWso3tdNEc8K3JiTxupcuLUJQeWMbkJS6vv0jn/L54a5CVV84euS2A0i/YW5vSZrEZccU2AEpEAPw1h7UGgjjnN9VqQIBN4RifxFmJkBGLY1VKmCNcRHnTQEYU7xY9v+qYo7p2U/IL/M0xZR9tYx0XqMMknKe1HlfSYfiygKW6Kxt8PNclU9mwL0OILRDAOiMVwzckxiu75WKmTtT3Vq0UVtoB8ktsvWOJO/AKJr4woEjS7jolI/oalV00TMOSHKP6G4StR+6Fk1Eh+Q80eSKq0RLAa+sdqGHe/OCrriMhCaNSTQvt8roCkcbqIKVz48b9WqcNA5bLbEQEg1cQ0C/tfBiu8HnCPTCIA9pn0WMFkwOiswl8kETvIJpiyJ76506B6xIVoo/3OVAWZa2QWeA/z01WpwpjwMre96NNAmgioVz+KzgGVHwENUPIZgncYopEFNgoykQA/BGk24THkTignnBPGHqkrI88R1glKqzrgbmO9xOjNXzVSOQRkXZrmNLxCB2iU4MNC2DHVczI+EBqjwTmCfqaj7z15jY5/V26DoLAFLfPNHVLfvat24MgWgXf4304TP0oI1YagM6fBZQRDT5ksemXYsmAhdo43SlJ9QHbSm/MWlsOBOcIBiEQDipc7CpPGOlOki1t+jLFn5tpAGASt9De8O40QfmU5gjfJZzEGjimgViDMtIrzJqhEA66Y5a0jLu4xialwX9KBMa9kcTymtMjaDLMyTeqD9OMQViCmwQBWIA3iBybWBmmJIkN2f0fR8NzCuAAIyOP67DHAPj4zsMLtyDWeozFrColvFQ5EnXYbhuUAQjRbIJzJkMgXFHuVe/hrpCO3gnUS9Mf3OHr/E2PQ9NuE/dtJfPNCd8DjSAHiS+c4/8dZqU+qcJwBHU76EOnuubdI0up+RgoyJn17w7+JKX55wm/TzXt5wN+U65zBN1xfsSng11NrbX86l+xo3r9Xt6KHxn4aVb/CHlp5YssdSCp6N+yF90pFFQv8jfOP7Ux19j6vu97z3GgDbFKaZATIENpkAMwBtMsg14AF4G04f5w+xC4hrfA6DwufEa3wNghucCI+Q7nylT7wQp4J19U5dgeOd+eK5vOaEN4T2Ux/fwDO+0jTbxPFLS5koEIdA+bF3aolzoRCAB6mxM1M+10C7aEj6Tj36SuMbn9aEJ+RrpE5Ww5quqwfNVCk1ESLWy605KoPPmSrRHFvJr9JWuBZo09pkzzC9EE5GjntROFmvuwUpA6dseYY6QKdDuhWhSL7DhAxI5Cz1AHIm8nhobUL8Yf4gpEFOgDwX0a47TFqMAuMDemtSYLnXUGKmrQgUmHEsKqjvPJyboBlDkC2AEY+ybuASPUz68avHuki8A1Zifz89XDuVSV+MzXKMcMVVvk5g2x502WxKQsZdbRWry/utdUqWHRcT4i7pJgEWvrLbJE6S9F+pL9OS6aUI/G2lLXXwPyemq76wDGmlCHhYNeudcLMZhdZV0eHZT3qGJ1N6u1QjSa380oX7ZAvRLk7X6Uht7+qH5hxEeCyq0JGv0rZEmfA7fQ3+gCWPF9b4JLYzU5L4XD03qqZ+89Xvxh5gCMQUCBWrcLnyN3zcrBcQUPbjBuF0jIKwxuNIeCngwdowDT2B4JR3vKI0ZvVoyJG9gqmuAhK6jBq2BYtdnPmGdX/5CHSDWaH+Q2tYqp8YgKReG3zfB6GU1XFK7i5Pl/IHnNympHsRclYskVlTwiOogGRTVABWDotI+uobhFW0inwzOintPcsOpurTcH00CMFBWTYsQ0eT8tWlCHsqnP/xBH5pGohyAhnaG/kIm8ofFiPIXFSQDH9q03eMe1wugkA1JKrdWJ5bq3n+5fPSxVTH90kTqZKeJaFiXOGkr5dCXkPiOlAs99M656lWX/ch636ywkzXnG057+heeC30O30NZzLVwL1yr0RBLdTQwRJDC61a9TO7HKaZATIEXpMCmctYXrOAllSEwbGes2kMUY+34yvnW8bUveDAFLJtxqLDq+9+yjq9+QQ40FAxBhkHl0bvI//N3rOc974wYu6yRnTHC/JD+wn4uxHTwhbGK4cowqKhzrQU5X6gb1ZAnMEAkylpbvBzK8vsqlwT4YgVMnpD0LGXh9KLje9+wrgvkT3nokEjFjSFSKDvkf6F3igas1GSYP3FsV/7063KI8daoL1Jd4hxj5S++ZT3vPNPLJwBA/tg32MpfftsBj+/R3rb6DIgGmgB+fCdxDdDRe0STKWvTxJ9TQ+gDf42SbKA11wEhp5s+Az6ynOYMdueX/1det75hPW8/zY9weZ0O2lET1vu1RhOed+cf0IT+iw7en0aanH3G2jTR2V+8mbm2JKh+faxrLQg00leOmlWGDLHClD3c1zPzxzUaTgNlcBqojzxDnxslWadRBOL1vnENmqjc3uPfaB3fuUi+uL/q/sxdi+GLoFpZ9YfiDzEFYgr0RwH9kuK02Sgg3lQHPDEiHOPjShAvRGVJk6hecZzA2U33YLXnxEjSlHeiapt8/8qhvp/p5LynLJmr8oaEpJPorh03EYPkrCqAwNlXd6qBAwpJq54EQH42E6BR4qwrzNKP+AjE/NiKrnMEypmowKOqAAYORgCJ2owqtOvzn7Sed8uBhwAzHDvxAn2zNvq0Ya8At54Q4CfnL5DXrqo71XB1qNpS1KIksaKo6D17RkdjlLW0377yYS0LZEVE8rOu8vTFOWmXkqEJkpzaU+8LNGU/XADhZ3wlnXlymqi/AENBluDQluM2Aiw/1lST+Ko6euRbBaKv+1cGzKGH9r8ru2iBdMm31OY95PKyZjUMEG1s8kehiT7UaJJ4ruA04SgQf2vRRNkjmpScJn6cir7paBJzhehademZI10CSPf3zNErfU6o6+zl4zyjkW6BBvVjYHjUImkO+fjoGZ8jLAJFKz8+J9r2nnqSImx9RPOoNrY+wJtAk6jW+DWmwEuKAuJKcdqsFBA/clUm0g1Hg6bPUKSjfT3GLtJFeeLL3MoWACgpriqpLJU0KX3fQ+4juvujH9Q9MXvlx9dx869/bziq6H3L8QrDd7bOcN6jz8fJPeKfIklMkjZ1EQ+WGMAtl/7cmuRNq+tDH7DCsUc5AKdmzbGWn/7CHU10XnyhM9XEqk458zjYBnzgXHd2UdGeXkKAgKvGpquuFgi/QzFpR0dnUV1K3ggGyyNi0oQfhHnjkSupYzBE3kH1irSNZy/2NnEf6R6WdISKUIzEMU49MdfjJ3f/l1xVyu0kC4fUnCc8UlBGQeo7Fc4R4AV0i4cfagPef24kzdXOySKt9r7trdYqZyVpxSLu+vx5DqQYI2XkcIPrlWFDbRUuHRUTGQk99cwz1n7ueQ6OVQE7i6qWH1wmX8vLpc34fE37sIlrV6TIGqDhAQ2/3/htducsArs6TUbvsiZNyKv+98rNaO9pJ0uLghvSLo/l2/LDSz2M5apvfMW9YUGPlBZ1zZf/XrRXNwTYZS24Or52gRYZA6z9k5+zkvL0SNuBKhmnJk3yH978mz94pK78cUc7TXrffLS1futHfp46bBOkFi+xAR+70BeUve94i4y7tGDBSxiLio2YJv4DiF9iCrzEKLCJXOQlRq317S4gDCMSk00/MkPSiHitXEXC6AGexMKFLn2VJ+6hWLWDFOd2D0sulLT89NPW9amPKDLSwZZVVCBi05am7GddH/mfSJrRvmhlzE66/0oHJ6LUuCQnKTh/9FHW819niok+68Hbe088QdFxTrTs9TdZ61e+qSAF43X/bElLcrYhqag0ZS/Vu5u7tgzdcteCAn1CGKYfnBapOJGysFzelAR4I3khUUpahyaV4XJnuPNILUzGiAatCqDwhAC5yV1MlhXsvTJ6iKWnPeJWu10f+5AcjhzmUXygSXHKvtb94Q94qD6kvNJBoS9ySQndVR+AjE/knve9XRLjfMtMvU9xlD+hLYBJ8v70Lcv97TotVhQb97Wv8vzVnSK6JiQlJ+V/2xdLAt+EHHgkFYeZRRCuHElYSOvVP2/0C48HmmhrgsAR5aE50WSEL9Yimsyt04SYyOWxQxxocU3ZKS0FcY6b5O0Mb1U9bzvW93hpT1Ual6LmiBULHjiBvnC0CtUzYFs4eJLlrr/R6df5hU9pQbTA2j77RV8EdX/w/VoI7exjX37ZKCsccbAWTU9EEjbjh2StxU1G45C77h+RylrYG+2H16ixiaSplRK/xRTY4SkQS8BbYogBHKQbSbmpuU+KgS93oyv8GZdHDbUWuRHED3R58iQHxvK4MS7VRsB4oLwX3Wst3/iuO/1HMsHFIkZbDgAaseyNt1nL93/sqsr8G492QAVcU0/KbSCMVK4IC0ceJqcLvR4hx6MIzX/apWqXMFFZa1HQevH3LHvn3ZEkKiYd9j6J/+rJ1ZX6hBTooLMJxHLMEjCqzMwj06XCPNolW5z+J/IVy/3f3yWNH+DO/wlNqCO4Dpr0G8k3e/s9au93/Hn2pAuS3MujJZ0LaE0nYLwvciNJeQAwqtmec86y1Pwl1v7xz/n30uSJCmYwx/uCm0bUsgQvSD8wzcEwPXO2tZ7/ZUvL5WdZi51Hzz7IBjyxzHa76XErqU6sth3IEPGgySaJepojgSaaK2nRxOxNPh8A1ogm14gm8l2txROqcxJSfPHgKfKKpjgIl//OQwO6L++9vu0qauIlsxdOP1u/dJEWH08retaRAtCKNDGHujTdfNU/NH8usa5PSlugNiCBowpPaY4U9498bicVqAIPbE1X/MXdouIj21XSaisJlTUuOn0RQT82xxzxkuOXmAIvHQrEALy5x7rGVH0/TgCM3+e0PBGV9tvbCpLIEJxQdbrT/yOmWEGSK5Jf+iFJb+zXysAVydZgcGJ2vr8rWypi9YLrMMXUPHm80r0KxlpwUI6DcDwGRxwC7KoiG7mrQj2QP+E4l3o5rpSePjPaO8UFI4x33jxvh5OAwkOSetYNjFQnUqufR5WqOEoN+UL+9XmnfIUTpDw8MyVXlqx46EFWkeVzcuEiqUwfUnze59waGE1BsqOq6FBzJCkPE7MXTeT5y9iflRGR00QqVd9/lJ9k+pJWkHlo6om2cnwJIMe9phYUaBqoGzeN3R9WqL6ebmkRFro6HPCotkc+ulMC5pLyTD9pknXv1G5dw2WhrVCEEy+/y8pIf+qGB2SALpuiGahJ6r5Qk5TtNFGfiYKFGjopLclaNNH2bHrOXEn8B3o3k0uXuxbBvZ5pPlTx3oVqW/YEzLsUR9SwmGZ/P8OKRjQRaEIPV/8PHqwFjRYhKg9NAOEp07Oe1t77CmlaRkekFF3dCBB6dkvUZRz15y4yBfQ+P1RtNF+YI7qv6uIUUyCmwAtTgJ9OnDY3BWBSYrBV9j7FtNMPP+oSb/EAGRYtkqpZAJoimky3jrVImkmskm9n7Y0iuSRWaJ9uwviI0YnJl9kf7ZDREVKryoRhRkiszyobhpeQoVJOKsHuD5ylfeDTJfF9xkPxlQVE7Rd+3fd9ATKXrKSuhum78Q0gQhkO5DUi1CVdlS8A87PAyk/borQR3JVHRAu3wBUjR02eloRWHj/O94Uzd0/16EUEXSAGLmCZmjnLQaQiMEwu054wUiB0DTRZJYMi7WEnpGYFgFCvehAH2g+doImCE3Sde7ZCM55hzT/7lYMPUl7bJz6n/nfqONHOkjRlZCXaJFeKDgCVqmB/uGlFr60an7SmZd327JRdRLIpNn6xDJp0v6r7vufJgkLfNzpBE6RI0SSl/VcWHE4TLZAICkFEp0ATQDPF/rnyJRQLGKkfo7DcdTdqDh2kBZd8VktydzDuAVXZOojK98AK+piRtqMi9X7+mMMsd8Rhbl9Q1Zol2ve9whcw5ZEjVe8ityRPqA4HWMZeC58w77y/tJuk+ZPoFr2xylednp964xRTIKbAC1IgBuAXJNFGZABwxIN8r1AgCBOFyVZ2HWWpaZJCBaap+fPd4ri8+1hZBj8rYF7k17N3/lvh4o7QUZ3vuzRTHjfCclfeYOn5C9zIqCJBxlWBWDALjFAFVmRYk7taKlypavOvP8QybzvZctdcL6nmYOu46IsCdzF2B/xuG/CeD7kFdWWIOK8DowokwVBlJAUwd2qvtHjEoZKoJGZKNbnql5co8MPd1v6pz6sfMtSC924wkxVBxMSx3E5qL5U4x8QfTgj3UpKyOI7FPjB7jiZhK3v7HZEqVSpUADp/wqtEkx84kJfHj1TQiesttWCBA0plUBTP1/sheiP9V3TOOHfNdQpEsJ/2Rl8tCXO2ogfdZr1vfb1VfnWJJQXQGFw1X6IQf7cr+tEQBXOQNXFY5Ez804OW6S3ZgsN2taalXbZ8r1HWu3e7jXl2mZVe82pb9qrDrf3i71rquhsi0AmA5I1YzxdoCE2aRRNJn+w9F/eTkR4KiLmRX+/U43O1nSCaaJiaBMosODJT77WkjPB6zj5d9DpMe75DJZFq+BSWEGm1MgBNisaXBYXGD+m04kZYZYV4/I1U0odZ16fPVRStnyhYxTLr/tQHtcf+Gp+zpQkTbNBZ73ZpuaJxcCt4TWbekXo9QpLU/j06Rtb7rrOcXpZOWOcXtOjTWA340Cdqc4PJpT91MU4xBWIK9E+BGID7p8smXoXxiPNIcsBqNDXrMWv6/ZVusZq75XYxN6lhF8ni9Ld/1NGbica+nUu4YpQtCqOX1L5xGQtpMdCmP/xZwHGLG2EBVLmbpkaGNQJ0JDVi5UbB0zvdyhkgq0otmxWotH3mIoH2IW7hipUtoMaiIHPnfxyAXLpFZYnUSHt51/fUnMc9IpMHeRclMHTCGtnVjAFolHWDk6pwQy+pzAELmDntZR+afd3srf+SCn2w15298WZftHDeueV7P44spwNN/vgXy97A/axl/nW3M37vi+iHdJ+9+TY/g52UcRMW4Yme0wUeFQWav9QNqrA6xyI7e7OiAt17v0tuuWv+ZZmHtQ0AgGujt9Satd2umW7ZVb029w17WFbq157yEps76xqbkB9rzR0a206F70MNHei3oQTx56CJ0FN9yV17vc8NpNjVNLk92lbQnIFmlQGShB9TeMbPfdF6jzvGqjLOSmiBR5+xXudsee7qf1rmUe0pI2FrXJPLllvT9QrKMHeua1pav/kjV3WnpOZuP+98LUreIqt47XErNf/xSmlhVmoxNNeaNNdS0lYwX13lDAgz/lr4pZ5ZZOl7tBCQFoI6PIIXR5jWmB+qP04xBWIKrJMCicMPf/PGsNJ1FviSuREAVlIT0gtGUN3vkyHUgmdl6LKT1MCftcw99/l+GwY0qDp9DzQjv7zswYpR1dW7SLJIX5TJdc506ppLMGLSLs1wD3WfyvKzvgKQ1WVIimKvDxU2xjqASJvUpc4QxdzxKSywjq4rjB3h7ZC8iD8MADcm1eOhEGv5vU2qlz1DzghzNKXz/E9Kgl+oI0o7W9uF35BF8fVu4V0/ZyxgXSdNZI1cGTwwYtwltUnJ+yMA8nOqeZ3vpc9NoocWGZ6ehyZr9UXPuhpWz9RpIpBn/5OFCapn6CBiOz2RlpEaI5orjxYb0F2QYuWMwvl15G3Ry8fa7BMmW7pAgIayZZavtEm/vtfaVVQxXbXuL1/gzlCgN05DBrz3g6pHdVKP2uE0BAy1mFj1w+/IwnuUd8slxv/5WJQPMBbNoTFNe16aMBd0Dtq3IASOrvrVu48n573pr/aVfZ4pK9G12PN2GshjVaJb48/4cl6YejlT7UZ4UiGr74y1zzX20MnDPfKReAeImWc8h4TNIgQ1NfnUDs6841gGelQUlzh39bUed7gyTDGKeY65HcqLSo1ftyIFmBI7fNqGOvl8U12/hDhtEgV8oGvMqW9BgfJiWICOoC0yrIJZiYlibJMAAGHSXKsxtyoWt6FIyhdT9TwCXQcM8tYYu8eIhSHDUAVibp0qoyL3HgUjhfGrLPajHViUr/5MqLOx3WqDG3LRLtpD2dSFxC2px7+vkb/xS+2zHlndgb73BW60p1kLiIzaRx20g31mScYVAWCCOkMfeVxtWRdN1uqLnnUrbtrQSBP1wVWoDbR1tSp5dK86dGjUT+rVs0BwqlC2QnvORt77lKW7CzbrZHmgSsjTlqTMaecdZ5P+NM2G3j3LOuQ8mj558r7XPocLfm+tG6szOY1FdxZVLIrI/3w0YTxEJ19g8NnHVu+1Pdg1+kJZgHOL+geNVS5amaqA0/exaQWLEMaddig5sGtByCJujXHwm8oDvbCKxrCN+j2pIgErzmeiDtQuP0+3aznit61IAX5uFV62Vgrj/3xVrk+erdXezVwPvKz2s+q35BiA+yXLBlxkYkkCwDOT7436owIBwE+U56gGal+XgHlnNAA3HoP582NouObfXQpiVuoe5SNJkQdmV5c6arMWcCZTkLYwnArlNZQfnV2tlRWuh3J1eY2EpB1+pJSl/NWypHblrw4QU6ZN9BmskleuCOS5WEvhfn80YRECTTDaqehZ6oEe/Pl1FUriO3V7Up510aS/vqj966RJvRwVH+qmHtFtjXGgBMUDJhxhob3Jhs5YbHv/5gGb/rb91OReS8kj1vSTJ9vukoBbWgdab6WkJqvNlCPtQr3tdCHQUu+uwVA+xt6t1iVhulSobHXLYn1+XprQ3rLoRN/5TPm8Uz+pb1+433hNzyUKNbo35KepXhbzArBmbrmE63e4GyXqEtizyKsn8rtkq2F0gJdWgXppGnOWVU2cXnQKJLVYS4V5Um9N37HRoK01XlwLqW/+cH1D3kMdjeXy/AaWHbKH4jakCVshb0UapQp8ex0pBuB1EGa9LosRRXtiCgYvZwio+gIT5GhH2Kd0RhkKhCkh3ZBgZKTGa3znOtdCCvn5zj2YXUihjJAnPMv3cE+ToD6vG6+HZ0JZ4T08F76jHka9KGZcnHKgQFdlox6WqjOpvWzuOR1qdW8wTUJ/Gutl0jbSoFZ2aNJaNGzsSygnXAvPhr5TLuSF/I119x0H3UYqTGn/t9SU0pngJbbvZf+x6WceaL1D2iwjlfTsN020kZllNqwwzkqS4NPPyKCOaE9YllMfzI6+IHF2Fiz59DNmOpKWkDV6ZdQoK79sN7cBcH/bbD0AfrSjsV2h0400CX0MNGpse2N/w7ON18Kz1BE+950jPMe90I5QTngPz4V88oKFxJxctdBKMnyzJs0ZtRcyo2qvL9Ianwtlxe9bhQKQvqSFb1dBiyd9Dj+B/irnHomfSGNqvP58zzc+84KfqSQU/IKZ1y+DFxd+G+v3yGbPVVX9WfHJLBqodbQlBuCNJTsEZRaLQbmLxcfm+PEa1HIw18JrXunegrK3/cuqOvpB8oAJ6xiIjW3Gln7ODYTUVRYYvW89UQB8gJisouBozxlDHY5UOdgEZr4D0sTP/sqVZnFIszV3Fm2f3zxoM0+YaB0j2yxbzdjCp+62ck+HDT/oWEs98qikTUn2YX+1NkCotJFwMzrvXTjm9XVg7jn7DD0zXWdvV0ZqXdTJa7G9LT3Km1K+2qt9cVTwzJHiPpOtV2fPOSLGdghhEPHyxfZI4yJtU2qMn90wCsByUppXBYHvTlo47jZ6uD7LWYuuuWzGBCfprb6VUvuuR+spzMz6tdqHNb57UdJyqVL+aVZEz9eqWI20uuv1Kg/Z6vfrH8ReV3+OCqll1GVvp+7zz59lAclvh0dqH1k885UUPRm+Rde4GlVRe8gvN+ThpvpBO3jekxekF+fj4Tneo+ccaNWOsrRgWZ3LX/D0Upv/zFL/zLW+fYoBuEbXjXpDutGkxtgFZxLZ2+6wnjNPtZSMsrjW9amP+pEf3CdilJNAbRiN+EZVt9UfYpJhNKb9vp6zz7RegYWrSZHExFBzN97iBluc1fWzqTJm8rQj0kTjli7JCCunFe2Ksk26Y5jNeMfu1tH5tGWbB9niZx+y0j1Fmyj/0sTr5YeY5HcKQVDXo3LWoiUjF6McwSrL5SSGX6VJeyrK0vnW8sOfeOCOJKri1T93J+c2/cIckZEf873wqiOs+4Pv0x68nKtoQVHRvnr2pls9yIjvy7NdEST8bbpTO07jYDeoQVOie15BXXbdeZiddfwRtkL8KCsjw6LuYckfQYy0PT5h9YwQzoEHHudgo2lcew/fNcN9qoKjHt9bZAtZAPbocwRMqiLKGwXbds1SuRIBNeXSTqqOqhdw6gLXSP7Gdz7xn8+ArSpGpc4/WdlE95LSzKkUtoPcD4Nf9xKUS9siXiJZ+eTLDy+PHyt1p6hUH2i718NFXauEDvBVf951NDy0vbaQwBkcOp+k+GBeRreDtF131bV32Oy5z1izbF7QPni7IsJQisVW0E6GTXxh0BgMGa50fPfiiLniOANDFQEVbgHTc5+MVJKbWNVWf1ztdxeaE8ZFe3moV8VY8dPcft7/srSWFoDJ79NydfN2RJqoiwkxLAIalPeapDM7Lfb0jOtt5TOPaD3Sbvlk0YbOXWkT/ywf1qJJJa3oTwLtqt5ZqLFoIYZu/rWvti6dm03gqQpGIWBmnzQ97dHIC9pqKm4fn9QHgnZwpM6ZtI5/4dwF+4D2cz+lI0sLIwOzoCXZPnq1Q7SSn2FZ2huksVWdPXbIPhPstGMP8c8ZeUcrR0jji0WQBTsWgCcpwHZg9d+1QEb/CEziBly65m5Ig3RbBxTQSlDIm8MZbxHySvaLQLpmKKNvqltzH8BSRdTJxhp1OPDRGEBWKVoeANLKr7ocdGuAmNQ7YJzUdYwq+e7V00bBoS8kKD+URB/pky88Kt5PPaaLeuGeyiEv0jPdSrioTb2qh2v+HDe8QLH9imCdOlWXfvM8l9aWXF5asIEDWu2am/5j19481cE4L9uUlPgl5YYUS8CBEhv7zmACQNLzJ6V6bv3aNxUD+AK3EOU7R3oqcp6fF3MKg7axVb0ozzHhdC4V14ZIL+4m8qkFkV9m1O9INH3TDkwTfjsJjvVwnEl/o/c8xlIDh9rS+fdZUzFryyaNsEfOytnkKx6wdI9CLGZTbsjldNIPEKvt3C23CbB2Ufzns/04VlLuLzkKVTxkis+jvuTc5r9DFIEt6mYmOQsKGHTrRd/xKE8eQUl9j6XfF3kkNU5JGRbmNCezAt8mua4tAVxcZwyVkABdihMq4XI1kgt1wwGHTIIaPvtz/Pb5Iv5XS65WVjYHbOUFPvnGUXehmx7Tb4cy9K7aovJrkjDl+rl6nqIdqsPBFX6iorwt+pxy8CWvaqGd3Ocz72SkTf4GAPNZoI2goGvk8HxcA3NZHOs69QGefAHE/aKuU2fUpuge2oSoHmXx0vRd/6jOCck3XzhgnNksMFYfVZdnJY9/8Nz+LQZgJ8MmvEBcBhcVo/a88HrV/onPWrciGJX22cvpneiUsVKnAIy821vSZGKPF3eN7Hdn7poqD0o/tJScO/ixGaQaZnJj33ZwmnhAex3dqba1W0lnaif8Y461Pz3HnjxGUYZWdFvH6EE27V0H2+Tf3W/Ny7ut2CRXkwJtB+GaKrrl8t95oIzed73dz8piccxiDXea0a95O5ooMC+p3fHIxlwgXCLOUzIPyee5wJgzxTH4biPjKRaEvCCh2IGW361LeQ4aks50zI4JCKQ6+Agktex2EIF7IQlGQBk9H0FPlFMPe76I6UmSrbE7SnNw0zwBvIAsrwBpGUDzmsgvFbFuAbA86nvUuu9SrL4nOebmzyM9A+QCX8nNvLqkrbzU5ZKyykhI2g6qau4ka2r1SKploaFmSENFm9IAMcVo4VjWagFgB4Yp162Ykcx1zWlQX29AO7Wejup/RSchKCSViIyueA619POlGICfjzrre88BRxNXzNNBeN58j7WKg/vCKw93xwRVovT0Jy2ubx0vVj71iehKhPPL3na7ZRSXmH6sE3xDO3dkmmifFm9lGamM8cWcnD3bxqZycl1Ztjkn7GXproLl5R7z4XMiEG5bsNKK8qzFuWLO37rdgCyGm+Q+NPPAQ5Y/9g1uOVzR+WJ3ugIn2J6SGA1RqVJ45JK7TDy3JbW/7eeIOZvMvGc+xOlFo0A0owAMhUgVkGWkcUkLUMpJLaAddKMcSHOCOn8FGvmkJZUDG99VQO2elDYCuAh6ATOAqHZPQ+1QBYIJwBh7tmN8DtRAsFKOwBh4x4hP8KjomXpX+0riOSUhF+3kGaRqXbaqHPeU9AE1blp2B8mahI7q19EeVbT+AbqAItMuIYnf5L+X2edSvtqoq/pTefoDlP1ZbxfPqiLvB8/QHyqmnyCp7pOfhQZ3KQCSUARF+jzXm8oIkrlf1611pRiA10WZDb0Og2EVKYbjvpo1QPgixqUie6b9ep3a0DpejPyScPFolFwmCR6Vs1SoWupFe5r09/kY645KE0l0CUUMcstlnGcMGmwFMZGd71HcYYHvrLfu6+ec8aT18Nkvtz3/+KANeWyJFdpyDSCseaIAC0kFtm+55DI/N44Eic1AYHIvxnBvVJ2MM9sUmiPsZbsKGucekvbX0o5sVAXxQ5uDAo4X+smCa4CYjw3YBQiCJLXkIFZDDkGJ3wngSxlc4z9GVDzFNUApMnKKwNDzRJd9PgNY8Mcq6mZJquzjJpNpgW5B06TorDMlUO3VVkar5k4b6nEZrZZ0r5AvarGQsiacwwjtylzXUaqSfnOUg5q34tK39nQxBFUegDKh8r1XNWtIB03lBz6RXMM/z6+2ukzs/dZTmtMRbJOLLohePMlcJw8LC97ol+qCPrWcfj16JlzTo+tIMQCvgzAbdZmZyMRGLatBwq8xUjESZHLJEkZr+0tMMv1ikey9b1KVetJEXq+0I9JEfSeohHuC4gcppoF9ZaEta8OmK4LR5ffZjLftbxXtsyVlfDX9zCn2sr8+YiPuX+CetVwdzY8Y1awA149xidHgXznSWUH07WiyMBXQikAT1NCa8/4XS77r9RPZqpkYK+ae/nyfFdjQ5wg8mHZ8F3ySpXYViVIYU8Mc3XC9qn4DSIuap+5lT/cpmlfKcOtg/6bPXOZ5/nQ/LZCsSM2LUVKLPLqlyykryWp46dJFNmvmo7ZUC7merh7rlqZphba6ymWMl1K2y5hdbfzuu9tuu+1mo3YZrZ+Otj30++qQLUZWgWM4bysRQcAb9aZWM7X7WiMCSb1637ylUV8damk9fywdBOJoBvybYFgNd1Wztz4CXvAYgy3KjCyk9R2VM2VLo0B+d8xDZc+TYgB+HuJs1C1mGRMTEMb/M0dSWvX3AgOxUXVtrYeYgKE/1LmhjHVHpAlq1zrQ6EeKagzXlQLhgfOW2z6/vMemn36AFQYq1jNuLE/Zx4otGRt951ypoxU6EG0CcwIpkWM8DsSSpvWDDj/4rTW8m6Ue5giaERYVvNfUh5ul7LiQzUYB4KAOrPqMChiARBWLqtmxShKbAABAAElEQVSjrfFdIIs0qZF04MQgK9o1VQksQJU7ibCLGlrzGIBOpLAE5rPy1P4SKgf1tO/HSmqENfb2dsl3T9ra9Ht48MF77OFp02zRwqftmacX2MoVq6xLx6VwE48yKCXr7bSEGlTS02ZMN7sxoRDXbbbL6NE2afKets9++9gB+0+Rg8BeK1YLeiYr1iutndpOm0Ki3zRJDXHQ5DeGfEwWhV7Rq5wJJfhTv/VgxK+l6laG6DNaAnWY7+q/Hq0Zrkk57ZvilK3O6UZa0cFK5YxCcKMmj+Ro3eg3xQDcL1k28SIrIakm8alLZJlomBn97TTVALTa1iJpWJNUEp//kjakOzsUTfgVqvOS+Co6aubAIzDGOCuFaqw5ay2Lu2zfXwiEzzjAukbK8lnxhR8/brJHWdr1H4p73KSff1AD6mhXUnuo/Khd1aUfcrVm0LEhJH5x80Y0IZgFZ4Ld9SoN2p4Xni8uQbdM7ZpbSRkJse+LpIZVNPMOWQ5pjuFyydjBVQAosAFgeAeuASHAFyMuxxue0b20HiwD2vos2FKBKg/05jHy+rPKo9/JoMGDrLNrlV166SV2y823Wl4GivwU0gqWktNvKifXryxF3XKZ9miPl/PJzVnaV7XeQt5mPDrLpj0ww6752w128KEH2GlvO81G7TzauvPdliOQixJSKPUDtqtT9JlmYdwFQDrwqs3AJw/4c+oHCwnqc7roFSDmyFQ5WlLou8pS2WloqBRVozKVj/5QYHTHb/f7EgNwv2TZyIuMAIOu1X9SZzwrI3YynBOUJk2MrIiRCrazhAOJJIHh5c0ofd+D2vdcob1L7QNjXENfXyjtaDRhiAWYeABLPzDN0vJiBZAGNTKWzkkxlHIuZRm5ntznl/fazFP3s+d2H+YW0fNes7sVJAHvfs10qxa1XypVXEXOOPL772NVqdcKYjKVStFyrUMkTeAykF9yxDReiNQv2n0xSPZ/U4/Nscx9D+jo0QLf0/b2IA2vzzx50Rr/UqtYc4ltUoEGtlfsnToQC1bccEiogcFRCnBm3ABsZ1u6D6IwFXUdWIoAJ5KgoyNDEeqQD6CSUbNbFGPVzLEjJNOM5vfNN11vf7nqr/bU/KetbWCLtacyVpLoXdD9guZLpSzxV4VTix8JAgw1jSpCdFftagHRJE1TiwCwqN/KbXJ+8/Ajj9jHP/ZRO2DKQbZsxXJrbdZRuACeaq+vBWi7l1ubkqF/lK9b9BxNFr1AvKV/LDacy0EKJxyaHhYx0TM1gigviw89yXQnn6T9aDFNnRTYf9r+EKH/fmwbVxlQJZzr9556svWedEIUeo7rOGLYLpParr1M2k+Q+KY/XGm5G26KjMrc+jDq8zq7tiPShD6JJomObl+UNP/8V5Z+4sma1a+OowHCNQccCb1P/u39Nvste9uzB+xizcu6bOFBo3U+OGG7TV1m+dNOscIRr7Byq2I4Sy23cMatYkAVG7vXFCvIoCmVVgQsFyXWSeFt4wbbEiJLctESy153gzX//k9iPOI8XI9BeNsYI4BAczcCX/2msSTmGJDApgY7yiDrYZcKyatvAiQHW65xwb8BVg5TkhL1DtABuCrbHWkAXEiFDu4Mv34TmgspqWZ/ddlP7Nq/32iZliYbNGKQ9fYUpJIu+BRxpxpazFKyWyN7fQJPfm9C4IwWBUXVVdDvIS1JmjxYQg8dNsy6elbZ1y++2N7/gffZ615/jHXKCh+ZFnmd/5xvVnNUIpK/E8IB0+ukPr8f9cWr1Uu09+2tUQaowBvSbZQPetAvv85qRvVVMfjSnEcFnkINTl7PEV71tSHFANxAjM3yUQPS+ZmPW+ENr3P3k8TF1SjJQAXr1s1Sw9YtRPMpIZUPP9bKLjtb12c/YaXdxnuge7wd+V43P5DnSzsaTQSQiaKcakjVVTz8EJ33nmytX7nYsjqqFR29iUA4MsoQA9GPcI8rJS3LMcfTh+5qTd1lWzpxuPXsP8lGH3SkpfNa3CxZZiWtxDsfv89aB4216gqppUtyS5nM60fPT3zbTiGyF8eoes95u5XkKaztyxdF3tNiEN5mBs8lSLcOFnwINBIJWRKH328NmABTXfQ2+8zTfZdouYx0J0bG98hdpb5yfhcw4k8h0viMhy0HN5cky26p/POf/9juuvNfNnHvl1mPjDlXyT+CW1ILmJGOSZEnLAGZnueMsIpSPRGAsg9cCWeFNacyciiS0fEmrKKxnE6qrkt+9AN7Uq5eT33bGa4q9sVEVLAWHloY67dIz5DS/V19c6DVO93mjqug9Yn++CU+1/roF9S2cJ0+RhAcPctrPTlQR99C/vq92ocYgPtSZGO+s8KXsRXHdTrP+5jlj3mdpRbJH7QkGqLcsBmSlHEBQLzdJU0igqrrl+KOIpLqY+8Zp/geX8tPfxmpozG8gck29m8Hpgn7+5XhQ0QPgaQs3HFB2vmFz9qAT37e0jNnRRbjUt274w3RAb5Wbk7bbn+bblkdU5p36C6WLWWtZ+VCe+qOX9novY+35p1G2ZLH/206lGFNsm6p5nXWGH2WmIsIu41PGzFjtiX4DazsUFCSJVY6eIoWop+09vMvFE9bF/vZxru1wzQvzB8BhwBD4qDUyoJSAV+lBAAxRIxRyKfvQiO+OUzV75HHZUjedC+SMAGuAEIAdFWgntJF8KdbR4ia9Xv57W9/YXfccbeNGDXaCr0laxJvzA4cYh1pOapxZxic/y3oDyCOABhgRe3M/ME5BrAnZ676KhW0Fv9tOpmRk5FWWb+xvIywMKYatvMgu/6aq2348J3slFNOtWXLdMxPLmNRkSPNk3ilv65y9y5RclRn1EOAl/5DL/1+JWVXsU7zFuhZ0Y/FhxNB+eirbilFYMwRr6QvbqJyuLOuFAPwuiizPteZmFq5wZDZG81L6i0cc5Slnl0mJixjFJ1ly8gxQdNfr7GU9jvcQtQnc61wRjuk1XM/XNl67+tqB5NWBjXlcbt6JKTSfvLspeMBqaXPWe9pJ7sTCRxJuNQXQJhW70g06WdcqoMGWEFhGfOnnWSVQTrLKxeMxH/u+p/32ICPf1Y/Rj3EONff9dMUkynJGcfYW+ZY5eBX2PzmRZYpKoBBqcvmPXat7XrPEOvMP27Jodq7mvektV/8YWndapWva3y23gyJeE2or5Em9FHMtDxyhByKHG3Fo17lXrGSi5da8RUv922Y5l9f4V6y3Hiv70ItlBm/b3EKMGzAinRxMpoSVAJIkhqDStah1fcuNeE0fwV9Dj5sbDpA8cr12vi7EwuAWuVE8KQpr4dYe4O+RYUtbRX/uPKK39jtN91sI3bSHJG2py3XapnmjEdvzeDARgsBzgb3ausuIyOsjLZdCpwgUalF2Ul0dK6yMvVSCYCngAucEwbokMfLej7b0iog15lhqaZ33XV3+/vf/s+Gq74jj3yl1NFdllWZ2GP73q3aTJ8jtXQAVuihjvG7ZeUgOvHKgoU/VNmR9gDa6Ia/QE0lFtl8J69+Dw7AQtbIZ7VnJle/KQbgfsmynhdrDJYoR1WtsvJveVN0/lE0B7hyV11trXLJh0kcZ2kZoHpiXJiplEFi4MP9MGa1W1GGLfBKPdTvv5haG5h8DfVinZtSPNfM1Hut6zOfUJjFI/1cMxbAvSceb5n7H1qzYZtCEyr2X3etAf5DgC61KhratWalm/kb9YWxCW0IVah/+Phunj5LnrAesc4LPqvz3oNkxdxpZR2LKBx5mOWu1x65rnE+2DUDrN5Fr5QYQfeB+9qA155iY5951BY8frNK1eq+p9PmFhZaQkwEi89STj/4Qq9ldHyJxTXaB6fBizFHvN/9jAttCeMhrpvRVkvmnvutZ/4C65F7TUAZH+L5Nx6tqFk3SzvUXaOFHgrjGWgav281CkRTKFIjR7wHnhQBLO+ABnyIoRU262MEsA4wgK3mP3vGkcSsq/ru6mI9k+Q3o8cz2m4rSMXcLF/IDz041W656QbbaeddVCZAXbC2tjZN6aq1CYQHtrbJACvaZsmkhzlAcnzHklmXIleuek7nfAdZlwwfizLkgk+mBb4D2ttlhhEdT+rK9wiku3RP/RJK90oabtJxpF9ffpmNUsztceMnWFHX0hkJE/otRouOMH2Rc5UEvs6dXbLlnr6rT66ept3Bkxf08Qe8q9EzLCqhE913mgHCWiiI779QigH4hSi0rvswERijGCtWsaW9dcTkZbu7WrIiaQir4ZYf/1SSkXzhwsT7GmEBVJz9dAavgdPKLfpBqFyfyPwQqKQh8bU2+A1XN/4jbaAO9YEJFx2niSZ5KBTfr9YqJxwyCMIHNJGRqsOG1vtcHj1KKsfF0aG9AFpabGwwTUJb9CzGHL7vCU1I3OPPmUMDTcLHzUkT6mM/SloNVMj18ItcJ6lt+Iutaj8cX8fNP/mFdZ1/nkc5AmyLh77cwzTWx5JnaB+LMK3QK4doz1gGWO2Dxtmue73ZFj5wtRVZmw0a4vcTJXn6kSq31CajrG7lz0npRp3QhHZBY1J47/sj39xzhLqgfU7jAv3FYcN+7+r5KRWd6CWuaM2/+q2V99jNrf8J4FEZs4v7RM/e8s/IcYkfYRPDosw4bXUK8HsWPDi4pf04Er8x5Ftd1xxz9bR4EmAijsAtvwsQ+ZghPdbmgYOxQCqNdysmueaicum3q/IARwkm1//9bwJizQsJKB2KEDdQe7VDcL4BQClzTg4vctrCaZdf9az2dDEK45hURVIua/FBTZKCy/I0J1V2Xvygou2ZEgtatbVFc66pudW6inlbuarLlj+3zFZ0SmBQmwYPHmBLVyyzx2bNsD0mTrKe7g5508pxQEoNVB+8pfQNqV7X+H1qTvJbgwx46UJCjgBV+8w8p37yj0UxbddHJ0kk6eqz6mUPG5bprFD3I7rxcP8pBuD+6bIeV6G+/muiJXQkp6SIRybLPs79VnODFQf1Nr9eaRUT79bqXyDnoxVKhrkLuBM1YEZirjM0TqDDbAEgZgN/geHyPKANA+M6732ZWXim8V54JtTPPVZuKpeweEwsI3IHZ+ioOyTK0l4nZ4CJ2kNs496zT5e162KPjEQYOj92Qvt5TuVuME0a2yJ1Lof3aZsf7aHfMgCjbfJbpzr0PfSF50iN/V0XTXiGFOjY+Ex0Z/Wr6I9LxYRWzRiaefCF1XfVR1UpZlKRlJu99z7rnTvPj5wh8aGu9wAEjF1oJ79w2q2yihPG+DnqiiwkW5MDbcCSgi0eKz/R6puHL9QBy1JL2qVgHxMZwCXlmMCZI05dmEf0gTlC/3HkEfoS+kZbQ3/Jw/3Ge9wPz/A53AvXAl0b8mHfkEB6EFesu1VlvMMzCr9mkkw4gocv6MIrj4jKFWPDaI/fA4yrJmBQcpxeDApoAKSxFejwexDv8ncBj+Yo+5YaIU0rviMRAjYYWNXmEGNdS3wKUjCqYQy3op+mnFDIIU2LFu2zZ8+wZ2UPMHjIMFu+aKENHzLIRhIjWnXm1I7mpqyrqFsFzq0CUtTDeLdijxc3khyH6hrQLGm6bK2SeAH5FdI+Pdex3MP9MRcHaGHYmk3aQHnCGqBY3QuXZWy5tgPZP+YoFX6lI9/MsomuNd/VyuqSn+N1MkR9dKM0ZYqAV5nJr+/K6rQAdV1d7+SAThBBf0rRz4wvkeSbxAseC5La856P/H1SDMB9CLJhX30knNHgI5mVjycxUWKgknz4xJSigaqNFjckCZQm7mHl0bs4cKUfne6+hTXCkYpXko8DELOa0fUy9DyfA+OLRj26x2cS7+EPJswfDJa/8APiPuWpDVWtSAuvODiyEFQQidQTc1368zIoj2cAP5LKSD2t2K50Q+2qAthEu/EVqSYb5ZJ4RnlfmCa1/rAQAEgEUIX9941COUp6Ss+YGZUlg6REh9Sx7g5TeUNfeK5WV/0a92Q0oeVuRAfaQ7u4Tgp0rC0W6jThHvlUZkKLgLIWVKU9dlcbZrm/Zn8u1MsvmeJEWyIYYeleHitg1YKKvWBA0qVE2hdooneXqAcNs1Sm2boWz7TF86da7/CEZfKqV/dZeCSLrKDFxHRWmIVbeY9xVtp1nBZ1AunZj4v+z9TauNLrd5pQB+IC9Tnw6jMLO2gT6BP63dAebxvfw71AE58zuk4/uSZ6FvfbO1pkoMp76BFL0lcxS+e61BHmiJ5hcRY5a6H/+j9I6ngWVeviQtA+TluFAhqpiE9pnNwRjJhWtM9J9RosgaPvk/oEJzcpvEffeAUMI0agd/LyW3BA53JRQNomr1bPSVrV9pz+tUodPWb0GPcs1SQgy0mdPFTXmjWvAeCMQDSp88BNvpCnbbJwFrgOVUzdHi2Gi1qIFgWmI9pbbYCc2BS1YC3xp3Ka5cGqU4Zf8msZHf0RP6qwTm2u2JPz5spxh47zAZ5qadlBFFU77QX+/j97bwIoaVHd7dft7rtvsw8MO4pCWJRFRUQB0Rj1MyZGY6IxmqgxJsYlbsQtGqP5J5K/xiVf3CJu4IYbKAEJiLggSwRcgWEbdmafu3ff7v6e51S/d+4Ms7AqTN66t7vfpareqvNW1a/OqXNOwYAoUkcqIPBaV39ishi0MIb3vecAL4388Yp199D780OOH3bBcdl4W8YoYpcAXFDi3v4GXSFwDHydTLwWg7XnnMSg1wHCWBubTJMvfmGafskLGJRpvGjyVW+4PY2+5JWhrDL1ptfGtn+9//1dOE+c2psegAoxNc9xMI6BDy6KFh6cWnBIPs5B2BbkoCoXVihHyTnNH2DJr42G9vg73pIaR7G5PB6cuhqIdT78H6nvq98EWIc3p3VwLxqQXFBRZ3+dQXt7fiju74wm1ss4lEtucuJtb06Nxx4aLjzbGNr3f+Ybaeg97wsFsMaRj+b8tFRxYiMQWxfqFqY+0JQFnlxf60m9u7AtnKOJz5AeBunhc+UgO8/OPa5TFtJOoWA2/cfPTa0Vi9Pg+z+W+j7/paxEJJcnsBui7FTU9+xxEcwz6t+54L3o0XRKgGxmZkO65YrT0/hNP4sJRxcTmGawhXRnBsUqorbmwqE0AzPZeMIxadO73pS64AKii1Plkb9+fUwKJv72b2LC1ncq9ra2A9pQvG8A0sdHG7FYPl+aoNQiwM/RpABryzufJl633USZSU/asX94W2ocdzgFgq4zuAZkUjKIdnPs/2t8n+GzIjAw+W6KYGEE8jL8hijQob3v0yCXi3i3jXmbjjK6mgJubpucESG/yM6KaCSJZPHl/U77j/OAYa4wJnFLBqRCe+jCHaXbBXbTJlWW6oUTXL77ijRIH6zSBgfpr31dPXDCrQTuYt+LGJo8euB6WflNXaTrkk0PYMvrvJatxz5OPXq7ehOrxpjtVdM0pnp1QH6w27bNs5XgVXdPq5Hq1VnyGVu/AfH0+gD2hhNcJx5WIb54Fu0fMpA2bA7Inn5oNQ206ywHKOotbYRd+6pKW0IzMSQk1wzGF9pDe5pfj3cUOqPSjqKU93ZOgR0RuTMyOUg5eDPYNfdYkWb+4NlwVmvTILaSbtpQx55ULkHOa/rZJ/gmU89Fl0QjCHEna2lNgEexaOU2nPYrqkE02XIA33NFuL0UDLwf4kK4p9YivCmhsdu1aRw709VhLhPApYgVkeLU7z4j1Y8+KA187EvsY3x1mnjja9P0Hz0v9bDloM8MMLfcRefdghBFnTv12+KeJ8X9u9zgQidPwYt1HMvSeCYatE84FMW1c1P/576ARu1Towz6SK4//nFp5pnHpp7vX4THpXWsR0/FoN5C/O32fhU6WZgDSZ8J6o1JTNN1aoFFmsDpG8dO00JbVw5VU5nK1GRoq7sXr6ZEenNSkW7ypFek2pXXZ86Ne9Y/arN1laLqW13cDjmiozJAtHAs39M7kpY/4smI9jelnrO/QwemXTjJcXCAc23iynL4DiZpr/t9EHcwDb775NCi17GLddG0beZZTw/OXIUvOWWXPjQXcyIjAFZuu2NuQhKicesNdxEuIhkcNSdTo91nbkETxOixm1eAKgNMH+5HXdv9yOdCK3vmGb+dGoc+EjOjo1Lv18+IsnQ5MZnfRuYfS4/t0GRbLaO89gBSwPdAc411Tg5suRmQ5P9oB7yosAGOOzlyfpUCSk4X66CcRFz6VoiyOS9esc3Gh8zat/l1E4UFrO8OIR6uMb71AcL9jIP9LCsJvr3c15a3CphW6ZcCYi9KXFUd3fhQrg/QbidwelOn7avYNDXNzlvkM0vaGqCsY47uWdsyOhO0/QH6z+AMS0cAu8ZLm7Da6Nt9GQZ+7FDHeCLY6lozc7kk409b46j25h+O8sQiROLUK8TPpI3JMHfNx9AVieMwn3fW1rOZkxlvP5QAvH3a3L93Asho5nAXYbZDQwvOg5fYg2ep3m+cybrZE4ILrN6ACQd2lBu+/Jk09Ka3wY09L9VPfHxwfV3js7HN4eAH/j3pQWnyb/4ytfbeHbE1a6d2CPcifs2b0tSf/FGaetEfwsky6G6aTv2f/WLq+wLckpyfZaBRzz7qUIB5CqWhc1PtF7+KfWkbjzsqNVegYATQxXqj3NA2Q9Hltnnznl2kA4WYknFc0BdMBj/4H8G1Tbz1Dalx/LGU76Y0/p63pp7zf5B6v/zVNP7edzG5gBOmI1VvvCMNfOSjqQeJQf2E49Lkq16RWvtAkzWIaenEtatXpoF/+tc0cdLfoiR1RHS02rU3pYGT/y2U5WISINemZ6Cbb00jL3tTuA+deP1LMzfnu5obYu5Z1eJhvHu53xYz8v6R3dKeex8N3mIrueqmNHrOh5mY0Q19vgOOgfhN9Ak2osBXGWf9l0lKDYWvYTTRW7stS5v+/QO0nTwx2PC1T6fBd74Pu+Sl1PslvFskJczIu79/Cdz7h1LX2vVp4hV/nuporLcGMN24+fbYsUjlsZ5vnw1N35kaRx4Sk8PaykyTbhQInZCE1AVwH37dSamyCVMrBkgnQ117Lo9iRnnvx2aQMy2/H0gKCJV0MT70C8BMhSbhlxlgNNUQmwo2XHMNNi522r6QHfvrchW4jPYqGOkgI6QgXG+z/KaQTJ/P4SAD/84DcME+QTAeYPzBSyv8A79IbvqQ5vUielYBq9sywZ07Gai4sEy3sIyWpbeXLQkDqBkvWe9twvVOAcgTU3Dy9Bd7KKMfOtYzqc6YMOCSDe319jtvTzezbLNo2VK6xhT5ExPADA3vbsRM9Dn5VCfI9r4smvayz839Pu4V8eLXmH50YpIPs9MQTuzDcO6xjkycnXUPn1CGXwcFfPEBfP2xzlplkGs+Yg8GwLelsff/c2oc8zjE0KtSN0pOsU8sa619nz41AwANafC9H0qjr3hjquHlZeY5z0bZZ+80/UIAlkF6+JVZLNlcvCD1nnsewHpImnz1i1PP93+cFvzhy3AOcXWaevELAKW9O6BPI6EjtOC8g3tijcW1RLnLNlqHoWQTEwZb1wMUivydKVO/GuDStZFZ7u+ckDZ9/ENp4nWvwvPWbqn7Bxel6rXXh+Z1N+Db863/QjS8IiYMI698I96WPsD5bmnm2ZiAMRueeumfUpe+NPxX0ApRaWvRCKD9PZyHPC81TjgyDb3znwGUt6UmEgUnNnmWXbwbdi6CVj04DLBMSobtfDG47KwnbZdMJLRTduorCNenWWOuT7FMW489gt0nOD5MlursEDOziHXkSXaM+fElvKO+NPU3L08bP/FhJCPUEW6zGyWnWG+Ha+79/FdT9fobggb9nz09jf7Za5igfQebdLStf+sgtJBXpKmXPTcmecMnvSverdtjdl9yWZp6+UtS40mPSkPvfl8afu1mmkR5rU+nzTrKCL6No47AtSoTm9UbUhU62YZCMcv6leEhQAFApgAWXpmMW8AO7y8vTeSLIUTlnUdcfuVyq4iHXTPOIlpScSx3KhAJmBHsKrTJBpPJuhssAGC9rOMaC71mlL/wiKVLSUTM3aQXhGNjCAEU6ZAiZs2HerivMpYi6RrPV4lKsB7UtwJlnUTKtQFFq2kmh2FZMItAGpF1N2n6mET3oo+gJrTgNjLAWvT6ddgkA8wsobj3cItJQpOPftjtlvbxUNSSNnNtWVDu0EcgLejFxNmrVlmuPWrPb43nuiGF+dSYUIdSm/Si/DsKlrEMvy4K+HJ944TBD3wk9Z32rVhXaxzzmDT23neG6E8fuu0hjNHheAY+eUqqrrw+Db7rn0LEOvuw/XHgD+cjkOMAwnVbpoEhnpRrZEetAJvG4Y/iHo/ieW4GoXiztagnzT58f0TUsJnMRMOkxE6kkpcKO4WyV251vx6KdAZ4uS251CHqWbvkinBuMfXCPwivYj3fvTB1X/o/iJUH4OK/kHo5V6N2APvq1m67pebSJSHCju38VOCgkymaVzO7C3+wTuLlHmcPPRix7FiYUc0edjCiagAQ07GWa93SVLaAgUPJgCLXvLYrGXhnlvNeh04HLN49eenfuSK3zaDjFoZzHxwXVDFDqk1Msz7cn/q+9FVMvz6Vuu5Ym5qPfHiaeOsbk3bGA5/+fCjQqSymnXmNCcoA7an7RxcT7xGhtY0eTIBt7F5FW1DMX71mZXC2VSZxTvYaiJErq9ahbHZA0GcLmij5sK06EWHAkybTL3khnPZw6v3aGam28tqsFAe97xt97jVhy4T3hgKx3hut2pYdvB8vOsC2G+DQ3jWAlnYqkNQAwSptNbxBOW4EqPCr0hOhHYCEBEspVhszIfuQfhEYTzRHQpLMB+cfANEo5ki9gKT5ZtE3S0HY+7ZoQxNIesY2TTK0AdA8x+4SImlAkczQz2SJCE6ZgoTORKWnn6GvmVbfuS6tvvUW7ITHYomkh7z7WTYJjhpg1LlGfVqXl3RpPW1RNj+uUbdCTG65Mz0EUCe2mfON6sWXExB67dxERJB1RDCmYmgxVuCO65zEpJ37c2Ceh/zNGc47KkXQ84jxazn0bfOpMQAO/vP7U++3/ytNvkxO5Mg0C4cht+eUMYCAtRO5u7F3vz01D9iLe7f4VtmXi4bI7E8HGY0nPCptOO2TXOsnrwsyGLEGykQzbDDr++8TWr29512aqq4dq7BkIxOoWEtVdKnXrgAfFb6UbKLhGs+xrA90sD50BEXzvXD/OnPQm9jkS18cInJNWMKlo/0Qjl2gnPmdp6aJN+EpivXu6qpbc50ATjWS1RKuH3J80EROvu/Mc2LdNJTKqMvsEY8OwKgCINIvtJUFWOtKZwqzMCcpXrOXUbwAY8t5r8hhIjPpJObHwcpgR80TIe/z8RlFYNLkunX/pz4bSwRTL/rjNP3c/4MI/bFMSH6SJwwMNm3W+Z1AjCNerz/9WMTxa+J9W/bw0HbHHUg2xlBkezbr+78PzViD1ibXSYbKWwDsLJrn1ncLmlgOaUDeLpmMv+utqXHEganv1G8yATh1TkQdcYoyl78PCQoodM1/Fpc2z5+AKJgIGtEKbaedZmnTDdeLxbVOakW/Bp1qeBzntG27TQAwCQW0WaQ+gwAo801S8uUzAfIZmIdNGzFt5MboQnYLQ9+hV3NHOGF5gz60pAW1abjXHkTKOuPo6xpIS/tRwmIJRvthJdUbNzXTBEskk9N3pmFcUPb2DqD8xfNQzKqDvHky4C+cL2URUJVEtQHoFp8mex0GbHLdEkb9+VICYB+1X2rSFMcQRcAN2hDbIAUjUShj2belp5OIzVSOiNv4KgF4G0R5QC51RK1yZQ24sVm0enu+c36qIGoOBSEbp1wsM8guxv8w4WGANK7gO/Cxz6WBf/1Q2vShk2PQVXzceOwRbId3HZ6XvhNcit6qVLiq3InCFcxgcIof/c/gKAXycJmI2MegMk5l1S1p9sD9+TySgRbxzMEH4UZzNUB9R17/tcyCQqej3e90MX9ARDH49LOfGWDY898XhEg1GjS00MNUADQTbt0+tlhTqj/pGMrfSKMvexU025Q2fvHTrIFviPXRxlGHp+rPECOf992gSQ8ibEXrXa5horA2+J6TU/flV4TZUIjaXUsViKKOdDE5Yb1YOdPHfFuAamP64OAiKR6Q4DgWH758vqCH6Y5LDE5IqppCqf3dy+uAHrHPtApmrK21+LRZF2487jGp54LL0vArXoO4/Q/T7GGvDveoTjhay4aRtpxJHrcC0Dch2r406mx7E1y3pAmTMGniCGigPJOvfmVIC3rO/WHqO/0b2eQKRZhor4L0A9U+cgnK7/uRAh14iX6t+LfNTD2DBQAVa74CDcHXL8r475om7cEYsI75vrc7wCt4yaUqmeM2HpnhYuF65YR1GxmARz4BTTjecLevialm2AsPjo6mYXxCDw+zVMSOYBX6m2OCSlJhOkQ5+gBcFZq66fuzTZStnLBTpqERJtjDe6Y92numO1jrXbnyKpxxrE7DiwBhGA1LOouJk+ZKOs+Rk7cM7ltcc2xx/ZvPLF2Of6oqZ+8RcWNC4pXMjVt3OXoHgc0UoNrSgcsRKJMXNOPyIDjgnQwaJQB3aPeA/vgSHKT8dUYGkEy86kVp+g+fgy0lDWUYf6iXXAWY/jyAt2vDWKo/9Ump8ZgjUj8AWtkAQD3/OWkaDdT20sUgK42Cxq6Ytf5Elab+lLViGiWc9ACKN73nnIc277PS5N++LM0899kx09N/8ehL/5oBeBX2cXCLdA63FWwcdww7HL2OQZ21kdH+NPChUzKAyyE5yAtO9qr7OxQ0caBHlN7ARePMM56Uqi//cxx8DNHYUdD47JeT3pQqTkwI4//w+tSjQhb2wfUnH5XG/r93pxaz5vZiZsLL0Hp28sGEpnnwgWlKzp9JxtRf/Bnr5+9LfV/+ehr/xzelTad8ELrdmWZxiNF90WVp5A1vYbIB6NDBFdPWn3xcGn/7G5AOUHeqrkLX1ItfmEZe+drUhX2rg0NwxA8UPTpgpsb21Aufw7P/mHIhqViMo4JV61PPhT/Imu6s4zYPfkTa8NXPYDr2n4iEVyINQXHvDEym0AVwUHCSVsNVaBcSbTcIcc1OLWqVv4be/I7Ud8ZZvPvXpk2f/jDt4vZMkx9Dk9eeFE5W1CyfPfSgVH/ak5gU8I+9+MbHHMkEkPb6vcvTyOveTNvttJOdDDT3N7nK/O45BezFgkKVNqwWsb9tPEsJOBzE+CR0ZFSR+1PMTL/gYoV2adM0dsQB0ELHOPoxYmfPGSdkIs0yeD+UqnpQdOrH3/Mgtu8mnkYRyrFq4ehuab/DDsQj3Ag2voiGp5G6IX5uah6FKFvxc6sFdwrIywVbFHdMaqt8hXvcaSeJXqePaoe7iAnrwx95YLoZJcpuQFV3mMZV9G2d3Vs7FKyohDhpviqP1aJe1grwlXunAnrByiCaSSE9os5Sg0eqKW6emeMPqnJncwgaSZci0eZbdzkqAfguJHkALthyC84GsWj3JT9Jw69/T3DBPq2CKLT33O9m70soRA2+92QG08fD7WCm8r0fxPqvPph1+VjF61JTZSo6z+z++zIQXozLy0+GEtck2q7Tv/fMNHL+hWno7/6ePNC2RaPZztF9+ZWkh7PF2YWDsJxPz0UXE+9dpD2a8rHm89OfwzWfn5WwXAOM1vYA0MMspYn5w3krAh/48CcA1msQm+8ZHHHtyp/HRhYtzIl6AYrwNsYatspDPax1et6k/jU3g0AUFRMI3EOqJKTiVv/HTwlx7eRfQpPn/R5g8RbqPR1rnS1m3bUfX5x6oVNoelsWelk4u7juBkSsX2RSgBgiOpFlRLOYdVBpFOV+IEhiGXwe78p3W1m3DmWxtzPBOibsnruYiOiFzKUL17sHT/5gbHnpUkXPjy4KX93hi5wsui++LDUOOTg0vGcffUgMFAMfOyV1836nWMdVo77ORKb/K19nVqMPa5S1Fm6mSWiFy4Uj9qvcdmfq//dT4L7htB3MHPg4rtx0C2vNcCuW13KX4SFCAd6V/c6mxnuz5fv2wntdiGABKK56rcm5v7zhaEPGNYQHKU4ErEgbLKCAbVAz2Ks8gyDYhXIVylg4ZI7+vmDx0rT/vvvjgAMJDk4yNEWqwrFOTmxM9YlNiJYHUxWpUy9Wwe40FGu1AObM5Hhac/vtlEdumLVjnm/ba7KsUm82gNBqWrp4edj/6mkOJEYnuplmiDczM4kzEJb0yMc/Qz6OQ+pCmaPc3KUv2tZd6c2U8Js/6GbNIlr8ekYwvnlKP46zByxLk+PnSNv+LgF423R5gK+ivYoyUe9/n587g1wxHqmCu+LJPeyg1HPhD6MMiknVylUZSfG0a726jqyfeDxazUtCrDwLp6z9cDKLq6+j4TG7vfX2VPv4KXEc6RC/hMg1GgoNx9kkeQlmofXbaVXZs5Vd7tcQfCYNVi7b3aRUsorWbceisYe5FvedMPSd+qVcIDqrdqr9n/oc56SlQ6HZwWQFqcGJJyCGRky9Zjnr6YcHQAdNrrk+ntH9Q+qK2D/WwVU8U+EKMIkykI1avbXrrscGGCcZDlIRvMGQhPg6rlneogd2YtyvP3M0QVP0Z79I3ZddnoGf8oZeAHW3vFHOf/tILqGTKq9halUEwVp3mm6Y0R5ikDrwAMYHfp3gTMFVCORMwnq/RztDYhITxGhfHZo4AWMi4JJJ/ymfd7SKwSe0ZaWBIj7Sez3o4m8ZHvwUEDP4CCjRskXIOPM1boYbb6qU5DZ+il5D/GxUz/nTwxU/cR6vHg5aj8nejTbS0XauYezbj2Y/ul2pSl+TMx0ZZDcxFKNAX+ZyLIkhprYYvbTtiU0zaTWTvsEpvVrthvh5iHJU0/jkxnTDNVfTTLvhmkeT2w9Gi8OL3ITKlj4ACY98Th+bLszA8fah7DiAUmMTcO7twWQxV5UqCLLUyDat6JyyC6DFFoO55wekQhNry33idShGpbcK0jP6LSWKY3Lg18ftLJQAvDMKPUD3Y0BnxpRnTrxk1iliMONF5sG+87rlRFyDpHEZtPWd2+zh5I+n+lNOSFOIsitwaP0fxdYXG9nYeQnxTwvbt5yIb4AqFI7yFVtMBmGBxeMINBk5nLnzIvID/OuALrDiK9ZWGxNqO3pRFsAwHEzYqK0H4NBetDB3dItmelyB1uDyB/71EzE52YImaBNLE7n/PAkhDXU0n5icFNWzY8rpCSxbdB/iKo73Ob+u4EydCRJbx8RzHdTmystxlJPJGRXJ9OAoJnHGc3LFpKarD/vvz5waADl70IFJ7XgV8QZQ7NJES04ab/hZIcu6Fc9wcsJx1Jf30lqCopfnjioFXRy8kEJE+HXSJT+x/L4vFLCdk15OtSWXGyDsWrDjEUDaaQu+7oq2Sp3Xnp1rkND7+T/u0eIyGEY810wBKxSbums9gGA3JkQCMFwruNQPKDbpS9Ms98zSJ6cqOPyx6aFNhVAYS0LuI4K+A83mfuzWu9FoZtU4rV67BiWrRlqyfFFag74HIwBc7UwaRyeiAZDXyHxkZFG4R3W3JSVYkzA2Or4B3lH4wnUq68E1OWeuC9Y+OLh4wZg/QVSa6M2rCLlm0Mj4Em17wTqQ1vFJ+kRejME7CyUA74xC9/m+DXirF+G54BIvigfYoH3pcl0ex2AfbdteAkjoXAEAMJA2bECJ33/aV1L/F08PxaHQ3mXWF76BadhoK2QAK3qPaec1LE/jeZ1n5Widcswvr8fzzyPhffxSVBMPnJeP9UYr0stRP59peb3OJ8ynTMXlKDedL+IVWXgD+mnG1f/Fr2yTJjkP8itoYjmk7/wAeG0xUSnuFbS7v2lR5G++fqyvwWI5QWACFqdet334MUQ5OwDYqcNcucmnC85A+umneujd/5w5VjKNiR55zPmQVrxuG5ijCQ8unuFzBFo46bsEy1rQxJudYt8lXnnhN06BLV5NnCgaFWzoVzQnwUXXidHE/LIZAnp6ePK+gpEcn4lwJ7PQmAa4QoxrHtSyq43EhNmzUZqAnPbAPXjA0uZXhxv9ONBAB4uc22kje/xuUqEQkJrEI11fPxuTjOLFrTWZRodHSVtPmzZtTANcm2LdeO261WhFD6SNKGzWa31pZLc90i8vvijddNON6cCDD07rN6xOE831abmmiXDyvWhBoyqdJtGXmUbT+scXnJuGFy9LRz0eBU5A3r5G7akPS2/4klbdyoK3QgpghQVdJyhOSayRNDIZNGCNORMrCEVa7weEd9I5qYG+0DVPary/7VAC8Lbpcv9cle623mjBNlGC13yBBtcpimAcg4PfFgMbCeYPiDlWNABNSVy7iaDY1m7ggB2diGOBeH7w+vzg+fxnec9rlsWoUWS+GITz8fzE9/LYHiywRHmLsnPN6wLJXH068Ty35c+n1bbKbXG4vkOazM+jKL55zQ/xrK3oVtyXDkGLIExx9b7/mqc0L+pqjpZrRzQxbod8Edc023rfXGsvgPN3QImZvqI48radWNf5zzQPw3yabI8exvE9en8uzbz2nK+W3w8mCtjUeV+uZdrtZepyV6f9eY/gunAASoidfbfc4EdACUaZNiTIglPcydAU4lzag5y0fwadVCxGojWI1EkQkrMcYO/fSYB3EouECezwleI0ET9fc+uaNDzSSk89+pi09vrr8DQ7k3pxDDSNmeSdt2El4kYflKEOgzGDwmb/4pE0gKXCarjoBnbFux9wQFqzqpZuu/6qtGz5MlxfjoSXLNs4T8d0CSceAPKk7min8KjFcXCqofFsHamTkxH7COU0hOg5DjO8dqlZRr3jj3HK4Us7fi5RVyNyzf7lpMXCzn3MbfthOyPN9hOUd+4BBXwxNMAIDlh+vIYYJo4dwIpQrEUGOBGv0xDi13RF8Lrn/tLAKsG9cElxotftWUX8Il6Rtvgt8p4fr7jnNQdyPwKDAzTP6BIMeOR9DuYrTcyveL5lVknD0cCPwedaJ+lhOeaHggZeK+pSHFPWiuBC2IImcYFnGoo0xfOLa55v6573LQPrnixM5eMO3b11n4M00fzCZxT1vzs0Kcrqr2Uv6lOcF7+sl0mTWJqQrl73t4g/vwLFNeMYivPiN1/N375HrxvXss/F6dB5ftzy+DdKgc7bjNfuPFSwCSNaX190bA86XBx+qxS9Ckp8AzLyrByRhH/es81HDWXzMXUGXhWpGyxL9OCVat2dt6VV110Vnqn0EiUHPDDgVgtDaT3KpOsBwyV77pdGl++Wpq9elRYjNp5iL9+uFjspIWCeBWg1GprBI1wX675Ndglr8RnAs9UUmyusvrErHfLIh6W1a9alydVrEx7L0z54yAMSyQOhNeXQKQjTzzTAeNujOJx8bKNUh35sNSy5daIOHsTEIk8WoqYCMpelkBMOQdnEVSva6R8m835wvGQqB60SVlZEi1sRY3tf9PwyPCAU8M0pBkZhSgALcw2v0ShUGPIFhhjQF2mjwORDLdtYx4uB2FYSb33uZccA5z3T+Gt2e+5Bu0GAcudqrtMwXL+zofixdTigF4Okg67Ba+ZRHDvYF8E4iMfnNmMwLuVqMdjOiYaLuPfk17LwzNhjl00POAnt56g7AJH4tLHzU6EqyqaIGcWsWAcViK2voL01TYq6FIM/z9g+Tahb0JY6GQow8rjIp0PXuOf1IjhBQvzVNYVJFGUM7eni3n359T1Q99CyhsbFRghBJ2kiyFl/421NE8scdKUA3vdj2Lou5DG7z15hM13ptL2Y2BTvPfIhI9MXbUQ6FO3G+/NpZTzuhx2wx0F7BmGUYzYXKEpSfj3IKBA9iHcW898YI+TifIcWVIZAUOK8CLxb4Icz3q8oRRq5P4/l/nJCjz0hX8BvgMn0Tb/8RbrpuqvT8tGFABZNGLFvBSDsx+SyB92GRYsR6dKG2nitOw7/4v2Iitt4dnOzhmh25txmIo1pk2vD4XIS95YNtaaJ29UYSytGh9Nu6LDokhK7jhAZ64pyRtG2wyMzhG7MGQcwK1LXqot+pCeusF92yJObt15R9wyiUVcrxif+HFPNm2/rZ+QoH3SIa6SNyYyxAsXNx/h8oEknVqTe1lcJwNuiyn265tvk1dDCVfiZ+tMXhGeiPjxehckNykJ6NRLg+s46O1+jYUy94vmxXtf7La7hAYb3F6rw2szNifocMP3IFToow9WM/8Nbw3Z45MWvCOUbNtiMhhdxHDRVKrIhOIiazo5iWh9gL/S44DKNz3Frd1T52RhCL1lqIPecf0FozcazC4C6uzSyldpiVUgA2GcPfESaeu7vYQL0vaxtTHl0NlI/4UmpG23v7it/GkVrHvCw8Hilk5HqVddsVkay4c+nyfy6yEWifDHO9nlOeEZe0qGJmsOW23rawQN46CAqEXm9Q6cALo8NxjVEb+OZzNijnE97Mvbav0CD/XvZntr79yaYjmepaDaL3fLMiceH2VU3ZlVe30wTTIyCJmhzHvBwaPKUcLxSvXplwnsBAwsTOgfS+XURtOXQ1ZhXTIf51qaP/3Pq/09dW/47tuRLou1E3WwXrM2FiVFBo3hfDA1MvIIm3MeFUD6WPqRxojjz2ydmTXOq0v0/l4cpVNDy3tLk3tCxTHOPKSCkZVZWmJC75RygqbIWKiihI8+YoUYzR9wyNB03OHcZI8Y3jm0/3s4ATTtEJKvpDfCYFjCZHuvFkxX3Gw328qXNzNImu2lLy5bvnsYZ/2r0VznjHpSj1KB22KzXGQ/owz1Im6bG0Alpc4yZYhfgq+bzCA476LSphRZ1AzeuKlUN9lCCJuu4Xf2YJDXSTGftWg9Yer+qwv2qKT24YCni5940TVk0e7JGhgDKOKGf25eC26edxzXqy6/idjXCHR1CVB019zhy8KsTpAgfrkdWxeXt/JYAvB3C3KvL8TI6KX0PyHq0zXStw0G0+ydXpukTj8M5BAC8YQaToWtSD16JYlejv3oBAyuehthsoM1gKkCHw3M0CDU/icFSznQa7lluLDZElzOCaxaQABXBUrtOj4OTBkTkIp1pCrTBTdKI9KYUjctFIL3EqG3rwGrnGxhMY//6j9gY4zlr0nzZYeSpT05Db3tX2JcKYDHRy63z7pHJfG3PPKuJre7UHz0dreXhADIH82m2Zpx5xrFsvoANL5tUyP3pbnLqT54Fza5gq8Rrwge23qzcqJueO0eTzXXhAdS9kCpoYrAlTQBe3NypUJS3z6Po1LutZzDc0oXf6GIyQq8KmhTgDM0m//KlYU/cXoTd7X8twYnJf3do5ou+h8F2Eu+MMgdN2DDhRb/LhGdJ+AB3UrAlTX7RoclTMk3Q9nbTCNuAXsRiuYABr83s3kmZoBtr5hyn4pjxLUoqqLK2Fp7BmAwGjbA3Dw3rwlTNiQGergLUlUjQ5qIN2kZsZzxz/B1v5h09Ae17Mub6DOZOgyd/IPV95RtZOiDt5veHe0iiMvoDQQFbgC9FWORd8hFCBYoMFt7negdkBdQwXcPkiC5ASv5EnJDH0kd4xXMe4kwaH+7jYWtkZCHRUHAivyZKVE041/o47YpdjdwTGN9WKOC7BzCiZjldrtUBXjndQfppL+A8hX/n+iRbiVbdtIExanYyTW3cmFbstRdg2EpTtMOGbZlxTM63h+daMz1dzfJsHW3MoMzV55aaiMVHli9lIgG8MoC5W1FUymJbuaCL0Mv46Bnjqr+GfKxYOd/LV+MOX6adHyK1ieI5mSuef3/L4xKAt6THfTuL98gLUMkKD1cV1ie6f/TjALDm3nhewkGCO9RU7tgUL0huUPve2Uc8HPAkCfa/Dp6zj9ovNffdJ4BbR/s60Te0UDAwjRsXNHAxWLvm2szpYJKj16cm+8S6E5I2nrVf4dQC8xF3WdJsqbryOoCMfGzojzkixMnuEzv7yANiA4cA7047rF16BVv1fZh+ijemv3xZuB7UsUPYJguAdLy51hkl28mXjdnOCsDVfoHHr5swI0AkGoM6GbWgTe2WDYDzithf1v2OpUmNbRmr1EOwau6OdiMbSyj6DZqspO5w8JvrgiN3XGqGvbSDP2Ckdm+mCdsu4sCk9qurgn5yknK4btJQxbuV+wfr8KJ2/Q2Ua2/ACO1NnHm0kGAospXm08/9Xbi8K8NjV4C1BNi67+2EDHO3TSeYCcIFTa5bjYMVaZInQ3M0YV3L/X/d37cJTao3rsVhyi94N7XUwIdzk31+nbDoRMVliBagqvTCtiENdXMaQOrIJHgyiWs8Bm9W1Dm8ZDGIucWgbUtHLd04QIl2gQSiiftSHX/Y1pwI6Xkt1tXllm7Em9Z7PhJSjMm/enn4MW8ccXgA8BZtoxjF5ipfHvxGKQAwhcavQBvvBlDhV8WsAFlEr4KQocZ7bmIeFJwfHHHYBHPNrTRDf8lo2Nn6V3CRetdyt6EeQE//yeqOdPFMtyecwcd6280WQPt++nEL6w4sjsgPjpaP4uEFwwvCdeRGxk79Nde4NkT7b5sHALh23R1pw5o16cBDDmVHpPWYF7FMw1+ryZIVANxi0un+wCqTNeCam4wFs9SvqstLnHQ0LK+zDSrrvZrjEvGdsOvKOeoyrwFn8A1CUVl/53f6+cfcuhehBOB7QbSdJvG90FDl7gS+9u9nUZ3c2ayDv9woIpAm4OexIOh7rf78F2majdYnTnodAx2vxgETn8d97OXrrjczz35mmnjjKxHJ3ojf5n1S/5fODOCVY9Kb1MTb35zqj/utNPyWf0GcvTZt+rd/AchxvEAebcwBBj722TTw0U+wZd+LU/Nh+8MNbkqzeyxOC268McBF+2O5m6F/eb8ViPXIKTqOs0c3aFCTdssGuFNK5Oj28A7YuOm9GybMHsZORG4kIB0AHoFCr10tQNj1UEXQ2qoa13pPvurlqcXM2KA4qv+UU8NNZ67Lfp26LEkL2OknxK88T3pPvO1NqX70wWnkje9NM4DZ+Lv/Lpvd0LHdQ3nk1W+iXjCK7zqJiQvlOpCtDq+6HjeVl4S4TXG1tFzwor+ISUD9yY+NwSrEs3ej+tuNEjRBzMf7lyYVafKYRwG2C6EJSicFTfTuJU2cmLFrkU5C1CEYp14zJz4xso8B9I61afgNb43z8Xe9mY07bmaytyeA+svYUSmaJOnqRx2RNn34n1L1ZhzXv+ak8PM888zj4IgZHAdZn7vgYlxRQjPty1/8B0z+bkqNg/ZKQx86Be9inwspgm1Wz1pOhipIHSr4D2/jBEauOoIPK8L84+Ja+fsbpADrntrpIvLV9Cj4vFjv5P3RkNpwt4qdgc3oF8ZFnhbnWbGIO4BWiLTiqodcYNIaji241QBYFy1fnhaywcIMWs96rVJqpv2tz1RkXUWzWcB3v1+3HuymTXUj2etHbL3q6qvTRjy/qdA0smBx2nu/fYnfl67Gk9b09HgaQ69mzeo70jL6s24pW9r8IrAxv0YAPn2fJZNuHXwMdmG6NJV6YFJ6GSMnGSu7kHq5LGetrGnW4uYwzjMd8nGH4/cWQcbfsWJz2HxCTFJbN/6I50fahv/ozQnucuSIWob7mwKOiLxoRYM1Rars1tHcb99wk6jHqhrb61XwVCXwynnI2dSuvh7gmUI8/ecBmCOvfwfuE9+KS0L2vXz+c0J0G+JWOGVf8tD7P5V6zzovi1WZWU6+4s/giH4LgP1C6vvambH23Hz4nri8fHta+IznAirXpZmnnRjruhVmkG12VKr99Ko08taT8f3MOeLyaMGUW45LTtl1STnxGp6k3B5Rz1FyU0xGc/u8u3Sznbre7ISCzlBjM4QWWNrac0VqPvxhDOQY6X/vBwA+HnZYr1QU3VpIhwQENSua/PMX2avTyN++fTNN/vA54bZS95xttCu7r6Qub///AYM7Y1LTxex58mUvZrP5g9Pghz5LXhcDNq+Ao7s5LXz6c9MQdGktGcX38xNjfbxrIxMMAH7gk1/BLeanYmIQCm1wmu4apY/pEP0zY3fdNdZG7fH3NkQbmU+TK1F0kyZ7xOTjLjRxcrIAMduFPwwf4dPPelLq+d5FacELXw4wfja19mWwQ5TvReRGwAAAQABJREFUWn/XBkTQ1KX/019n28b/hK4MgEj5dGEqDbrG62n4jeywRVuc/t3jmMicmhYd93Tazdm4L31smj3okVkpkCZcAfiH3/t/2cDhf9BeJx8nUrYRN6xgyGkcfhgThyNoQ5OxfzEjLJfvA13uLT3LdHeLAsGpIrLV2UT4RkY3w1/hQtD1vtq+br7gOOOqZyz7MPn2rTqsBXPBa67CMqoRrHrHHDiTfpY2WAHslu+9dwBsTS1mpIL6dK75XMcDxpc+AHcAic8wUpsh9BmGsf+t09fGmIyPLlyUFixcijh6GBBDDYv9s/tZZlnAxg2L8XG+7s47oi0OAO59APgQ0iqX2oqNF3LdrCfrv6wX97jfOcCr+Dnse4mr6Fn/0tZd0bTt2Y80iFD85rM8IQlYNUWmlTRCOB0pQ7IgLahg0BmaRV476A4lB9wh7v32I7F9cbzY8C2Mc/DqTbdkMe6hh4Qje8WkOravn3AcyjZwgohXewFNWhGDJDt5nHFeeHVSnb52xc/SzDNPYEP6JSE+lNPoOftcOJBPxZqhgNjaYwHen46DY7wu9eOysYVj8qabEWyYTlOA15ROzndbwrNHQtwaEE45zcN1aOOHGYxrhoBsBbFs47BD2Mj9xVxnfeXzXwwFMdeyg5ONadsOWtX2iOnADG1qv7w6Zoh6Z1I8XmEvUJWtXEeUM8+9nEdf/lPEoADPCvxBnwlNEIO6iUTQ5OnHw0FTbgcKBoV+64LYNSYP0F6AaJz4JOq3CiD6fNTHdfE2ovpNHzw5BoA21Zl9JMsAZ30Hkewgk4CLAKz/2KzlHAMTmTNoxJq69bLaXpcWcX97ld3ZdWlhfpkm3XD7ngp+ipEr41ObacKkJOjOfSd06gwYer9zXmwhqMP5qRc+P5TnQjt7GF+6rBMPfug/Ys17BgW3rkmUYA4/NDyI9X3+y+FTe/oPfhdXpmyEgc/wjUchlh7B6xATo+ZeezAJhCNm+bf3y19Lfd/8NpOVxcHxhnIaA14FHYUW7XXyr5AM7LsUBa+vIEVhYsVAGg5BoFnQKkpafj1YKBAASx/sQCvdkbYMaxecHYBqcwzO0HYOWOme0rmzQNwiUsXOhgjaazZY9J1irddT8wg3j2gd1+mDw8uWpOY1iqEZxxRNRws3PsAHx1yD29U8qKdjJtQmnh6y9IZlXmv0hoVUbpjNRVqMYTfdcH0aw6nGwoWL0yJ2AJtBT6GftljrU/eBtspEvMF6dZMx0U0VaMmUj3YI8I4sWMTaMHVQ0Qye3mCdnE8qDwggDLrwYP4NlDwf8O2Q7o0A1JC/c9ahgQOQFI0oPKOL+nexth1r6DlhvjeX2+aDEoA30+L+O5LoThUV0aFa73ZyKjLN/J+nMyAyiKJAo/i1DbDOPBslrW4awE9/lp/vW3SKaHp7g4M8PzbOOOBbJSLX8MJEhWeoWCSHVmjT9n31mzFYOnOs/eJXIVbWYb9iZLfm04xGjtLWF2Jgy6vWLGKgEHWyUf3Eu98G6AzEVnVuQacYVAUfAc/y3ONgnZyUUF43hK+w5uvetm0GcfdAVqu3wnrj7GFsvwgXWL1lI+uMNzK472sPCRBEhpVp0aFJcKEeOxoIuoBE0Mx6SBMmPrOH/1Zw8q5ZauKjmLT7sp8QHxEVfrD1t+x7in7C+mhojUNbFZzmAs/VV7VmQPi1iwGli/fa5Xot1YpQ/M4l2smBNPSh0oRBJGhy66YOTYa2pAkTN9fHq7eOQZNVKT3l+Jh0KB4PD2gONuQVyiTk5/gSAOokgU9owPfBDVyFI3sGspmnnhC+tRX1t/tRXGHtW8mB7ar3rBbKcb8MbWtrIJi2WT8L2hE/FL5YlmgxMOY9gg/GL/fpafD9H8mTFLWl4/3cm0ayE5qVt+8XCmTRK23P9gfABoerYkeshQZvF89x+Mntm7ZFu1IEG4u/AThGoe3yCWAjrd6vov+RraLgHjSWWy4xYWqkX+ZC2cl8a0rcALJeRMvVTvttMDkeXrAwjSEJXINUrgX3Okabu+G66zE1mk7r2KCkBpj20faWoFDlcaxHUw/tkl1/rvE8l6jkQmcpT4MZgktnY3DWi3gwRcvl4CAmHbRV17atmuULgOU4c/QZVANcVViNPsaZmZhT/HrZfOmDXjUPmQKer5evGMvjzra/cqpt3yuv3kcK+FIFUrkWG2YLziL2/0XJqHrDDZgnsVfHw/ZDzIxK/nWco51cuW1jarBO1zj6Man+hMdzfDjXWDeFK20jDrWfRBAMBE3y10Sm/9QvMujiY5W9YAXV2spr+cUMAGDr/9Tnk0pF7hPM7tb0GzIhrh1OjdgAewdNB1Y4x4nX/TWc8igbv18egDz9/OfGXsGhTW3ri4p1Wl+nODv8Mb7pnFQAjm4xWL2a8i2Fq5JbQ8nMiUFw44iKFEG7/uv2ggJm9fY1QYegybFHx0YL1VtXZ3GzD9aFJfQt6hIbcCO6VxrQNcOs+kV/HKBQ5bmuc/ecex4bP3wRsfw1sdOUAN6eoWyCF6LrANqiQmSrpnQdLlGOvWscGkGbmScdm6UJ0jJoEkQpUt2934ImTtSkiRw8mtCZJtd2aLIScT3bLSIlqV51dZS3cvsd0Q7qAKmSCs2B2otQcFt5fUw8VGwJ8bngCTdgO2nRdNxbuPfMs5jUZHF16CcwF3My0Xfql1Pvt88G5G+jjmjJO7pQtXjXKHlFftI4QH82Tb7ypUyWDqFtXxN6Dm6VOcM+zWHiZbwi3INmUiQpfx9ICsD38U4y0GTOTSTSTpZO0rneeT7tM1xN+j5tDpyHva/vVPavA7gIcyOBeXqkKJZ5XiiRLly2giGH3YpoTE2VtyItcAUo6qayAhBHs/IB3KwySV68xx6heLVwz73Skv0PwOsVoujFu6fFK/ZNC5YsTX2MEYJc1mQG6MyA4asXE6cuxsg2UjuVMOu0fYsJJKeN6zfmoZMyhx2waeCWVTmTq49yzVXbevBnnbnmNMP1XWuWzZSiqJEmp+N5lr/4BL2sD4WSIPnLg7uEkgO+C0nupwu8GdfL5G7keEMjF1FqzznfD06jetOtMcA2H4bpzSW/yOAIGPZ/9jTEei9NYye/I15gZc2mNPDxU2Lgjd1wfKfM8ljcCG7E/Ftownazj2vfV7+RJl72PMTOf8IG7F9hrfCoNPGuv02TJ70Gjd4q29Fdm3q+98NY62yPyL2RGYN/7gFwUzzfCUHzgP1pdWgYP/FxbFuHaBKFsO7Lrw6RZ4h8bVS2t3sSbKkCnbNDtXbZ07fxxCPhzhEpq+lsR/k5+/w+5cmphV2fYmaDYONOSJN//RfQ5O8zTdaOse756dAyD+5smMVTJxDMgMM1Jx07THoAnL4vfTVoUmM/3P5PfjaNv+U1aeNpiGYnGqk52hPrmz0Xsv48QnolA518YnIjZ9xkksSa+KYPvod7nNdZ9zz6KNbTH5+G3/K+kDAEVygXPr8X3x3azNFE2kMTpBWNxx/OMeI5aUKo/QKRMwpRLaQkfYiV9WbVw3p548gjWMI4OtWPewyDDGtrl16NBvLXeLdDoRClUl68X0dbReg0FycftqU6tJh8xZ+koZP+EfHyBShb/R4mVs/KUgYmZQv/zwt5MGkgSdCTZ2bRG3kxSVFTu3nwb8W7bO6/H4ptb4yydk3MpO5nX857pt3b/ncw8ESC8uvXTwH7rW0iPr5g2i3vXC1o+zRnna84pbsrpvWq7dubHJHGS/J9ZBTnxojbBfhwJrgNjg4FyGa/yAp1nQCwasrzzVvTHoVqlkPRc51J40aUrKbZOrQbl5GjrPe6jWCD65MoXK2+47a0Yf06gDalRVh5DLJk5nOzKB0vVbTVbtaK60w6BdAJzJB6YSr22n//yMNy6iEruO4QFUXqXHrarPUSsEPkzlVLHOvJ0bejhtEXOkfEI0HcIzIhcov6WUdv5Zj57l2/SwC+K03uhyudlyJHxaCn2HDo794ZnoKqK68NjeUKjWzoXf+UsqnHjVm8y8AmiNauuJI1471D1Fm95rpUxR9qCy2+nosvZQP598AprswiQbjgwX/9UIh1bQSCruYo2hDLyYz89d+i5LQ/a7yjwUlGOgB74D8+mddeFavaSgwOmogrFdUOv/6tGZi5FiJI8o6diRRpqu1om7Il35Ngx+RZsZMRa7F9Xz8z1mwVlVaZoLRY0+nBOYe79QjSrhOHmRIdSqUytX+3poli+IGPfCzqV9mAh6pO/oPv+7d5NPkyNMGOlrpqYywXqaKTikkV1uflGtXEHnnNOzOgOyGRC3YNU5pwXkU8O/JXJ0W8AFtn/kgLqu6vzGw81kWlo3W8J8H4TkjUNEcUHzTpTNaCJijo9ZwHTVDYC5pgwqVSWtfGsTT0j/+cZr/GPr68W9djq4B3hQmULvhGXk1dXGpwZKNcmmCNvu4fQvHPyc/QSe/MynWkcTtKueJYiqDetZXX0VY2JrczHKEtdBNHXYa5Olo/BsPBf/yX7PmKsisGV5PUNljBdWATTe7gSmI4uicEKeM+oBSguTkxatEmFMv6G8s6gRHepL/zl/t3Hhds0YKIXG1u3l6RU86/3OW/zjfLWXwrui3SeG/jxvXM2WbZo7eeqvQn0DHaSgXRcwXrCr1cuSMT1ut0u9l0J9YA44id+1gfXoz+x8AIW2YiimZKij2vE8FmmhjbkMZo83Vs6BegBzJCHBW9ZqlPF5NvFoFZYcPpxwDOQOB899n7kYDwCGvG7pqUGQ7r4n7Hrv9qq+t6raZOljn8psvgEKcCR+1HUbtU8H6uO4f5LBS4goTEMt8svs73d/ZdAvDOKHS37tvkthGKhs2tbkA17DGZsYWiDG9KQNSrUgxwgpvcBQN67dobuHdtzhDADNtQ7ilqVvEmzuWCeWx4TiIv0zm49lzwQwZeGhGckKJE1zmjVdgx9JCECDhE4p1n0Zq2LDjXI087i/cEIjqGACEI5LxMUtR5q/RzuRX35y7YdunwcsGsRyJa7rngQi5QLrk1gWiKWS+20OYddSxAkPt3pQl1AQgVVbueG0BoeflsSRM86QAmwQVShxpglLSftqcA7uH6EUDpueAHAbBBI6fB5mUcf7nf/bOf5/N59/K2kfNpEtXha3uBvLYVfA511bwoysozt0sTB033PiVoV14E4zuBijZwIXWxbnAC0tK1fyc3KqNI1+pNN8fkJ57BgBRr4hTB+oaiHe1Es6je667P74G85mjRKavLBdIluGzbhXSxTfq7dZCGZXiQUMB3wYd3EhhqqUTceEW0Ow5ClOx7JvjqCvtfQTavkwrgKjrFFfLxN4NyeMxyMkY7rcN/7L7v/mls3VrMhdaCvfgVABj7GYNickg7btnHyaeCeHoMk6VJvGbVemtpWN8GlGEjk2QnwnKtU4I4XrOG0ZAexFpvBu3m9UxGK4Du0FAv0SgH5eWxmienumMYQFqjPc8wuQynIpSUizA3uf58Uyf9WsOJY39lrc1DlbGwYyZ9vsoNgvQIyvBbhNCBnrsIVFv/oKQX40YR9S6/9Jgy3CcKFIT3ZRfBaw6U0Yh5U7y17AuaYzgGG5QhBkA4ZAEk1lN8u4IdM7cQMRuJhhdpvMcA116MotH8PNA6jVYRgyHPWYg/Xp/rOWUIZS2LYJnMC4UiwTQGTuNsI8yVNe6RkMapqDv8Q3dmhmSQ21ZwPltl4rO8vy2aeIfyxSQETniurKZhIM/+hDm2jkE/jrdJE+oiXbUNZiYb9SWqYa78czRBW9q8ULIqPDrFmCNY+BzEYW3NaiyvNNo6SEcmNBF8DwbTeui5n6Ks5mFdijB3jzJ6IzqnN01PumgnnbbDYBTl8LZlN59t0cRn8WnjCzcK4bn1sOzmoVb7/LpEvoxYXjMeQB1a3dDVNNIr1vbMLeKQz1wcy2FB5gWfLedv2SPk8ugcJDxsOagWwaTmWYYHCQWy4Dj6oM0WMIp2aOnivHPggBH/crVcs4+ErQ7glb1nRDpvESPiZIUozu0CcJRyvoPYAz/ycUeni79zdvhrnmGzBRZRYg03xLOMJ67n6tUKrZQ0ig5EPxPFO1iiu/mGm9Jue+1DlwF8kazMYu+78lc48kFbf68DH56Ws1a8mOUhxdjAJ2AO+KF97Kims42ZyUbqH1oIJzxME8z7HSu8yspg1NxjltpgqqM/ez0+RGrj1MOmG4vj9h8GjCzVCTJx3ZtFKE6cvEiqnE+T/MiJSFJp26EE4G3T5W5ehbAOTgxE4TqyGGfgQBUtA1mZ/AWYdOLOZe4gqyKVb82PwdbuwKh7NsPcIM1znNbh1m2L+Cg4RGsoBkMVZgwOgg58nHdyjnLGPRxzbJEmLs77Qiw8F3y+2sFdgCXPaO6xWwZz69yAK0dxzMlC+Ig1rnXcIU24TbzYg9byzaeJx0X5i/pYkB3RxLLNz8P426JJQccAtjwIGTUDIL8+1zh+tg7m7zssAqcBpMzk5YLVvlYBLrxvrV4TYvucrxE7wXwBuwqu9Jr774t0Ag1kgFKltxAXd+7PPaeo//ZoYrYq1BXB+Ba98863qEuRh88wnnWRDpGGa7xvk0YwjhOa+XGKe/N/O3ScS2ObRYHGiYm27cGNIyY047xpA3nuZDCan315/EBRQG6VoOKRJjMqRs17lByhQWDOoxcnAXD0GdpGW7eU3BF0hb1o4fZPZ7TmZ+60H4FHhahxfDP3YsvbzQR2bCOeAQFf139HlKgp9vVjbnCpfYqH0d76CVKw63+5Mi1csVfaHQWsKkjZZolpBqlZu280bUQb+qqvfi0djfLhox/3eMTPlIfhrsJSiJs1zADUet6aok0OLkYSCEurVnY3/gacJFjmriZLMzIj9I3iT87XqWOuFd/W2/4QCag7h1uEmMVLHp4vbZhcOy9XFG+6mNw4wYkMtkg5d1IC8Bwp7ukBlOaFBMcAZxqiTVTl5RQTAFc/8QTsec/K9zVXkTvxBfoydxYEz+JlF/FtCBF8ofPCVqcxqBa3TVMMzF4r8to6TRG/+DWNoVPe9mh/iDYFizravwEeiDwdWLVxDveETi07ZbxbNJGD2hZNimfnEmz+3iFNNkeLo63rNz/PbeVjovlxtsou51nQBKLQ0doDI6zN3pqmn/bUAFQ3vm8tW5Z0A+qkxLXamFx1JkKK7ysAnSZXKnF1rZ0O5bn6scekgc+ciukV3q4wv4jJhoA5P2yvbF7vvKO56J5vK/78a5ZpflDEbDrD3KO3ipPvbvvb987gqYKYE1G1syM/B2YG1Nq110W9GM82P2fbOZVXHzAKFC84+FXes+pFvBDfnZ+t3o3gHCDdaRhyoTYhNaErDWFWQKbPe4326t649nsxKbSlbcOdfCtoJ6vZfOOa21kLFgzhaFFu7JrpTkvYXrAKMDZYz+2m/Vzzy5+llSwrLdlz79SNuPnma1cCqNNwv4qQ22kQC48BwHwISd/iJbiWZCJYZY1Yj1pNQLUFU0D2aZwxmK1/07IFWBXw15TzhoN3rddCq5Hdws2m90Ir2rKDnnr9i+5H2QXS4JytBx9JtEXgMjeoO0SIQycmwq5/KJKSxjt3SZdjx3cJwPOIcY8OpaotkplWrKthSqMZSfPAA7L/4EMOwqvVn+FV6WN5Pc5BzgHpoRZolBWUIvSUNfmGV2fvU8xAVdrp/sGPUvUWAJgOMQc21m9Xpom90wGHNdKG7/jlL8ncfAdouy++lBHIydaW7zr2U0ZS4Lrt9O89K3OIrM1Ov+B5AVCaibWko21kq7QP+iZDG9HZgl7Opl78gqSjEE2bbBfSKfQcnITSLqJuMcI96Gu1CxZQXhMuT45NqKCdhSkPv7FpgE3bP37dgD5+BSYhxDjgbbuZ97yNPYKZUQX3B+sYnGRIwsiZtuCTFNgJyNNI+fbYe790y9VYObAG7Hrx1CS+DMh7GPenvVXaCSA6yxrvInZie/iBh6U1KE9VcNQ8zQYMNUBxENO/WSZzjWmU/Mh3xd6PSKOMQRW4XycAXmtQwGkA2U0YxmiLTRSzdIPp7kp9akszqbCcmlbJhSsidu03fjmWFzf47XpynrNKMerERetSBOnndYM09Khl/lHznE/OKaJs96sE4O2S5m7cgPC8qZj566ih7xtnpolD3uSbCIWi6ef+PqLoFWi3npGqKhOEuPlu5PtgiWKjQ6yoO8ppXD/OPurQUOgJ8TaDad/XzrhrSXd1mtDVXFevH3l4mvmjPwgvYiqUxYYXmFZpItR2lyHftT2Yjh2/nMsV6y1KkG4cewymZesi7vjf/13qRfu95/vYaqNoFyPdXSn74Lxi/WpooOqZ6BlPSw1MptSKdqvHJhKTAWyL9aymj+su7bWZyAVNHpy12eVLlSEjV1PuLKASZJlTqOJabFZAO6elgzEOAjZhwct0iqAJcpIoYgnMOabQk8XWgpzAJmNYZZmmPjWJR6sFeMZakW742WWs1PQFCHYBrBOYG7UBymo46gCQaTOLV7DBCAxLHxrTff1OSis46EMvBi53cmocbWg2bdhtNDVreY21AXc7PgMw0+50gzkLGk/T/haSz/LlS9LGsQm28sYFLulrtNWqJnZWi7Jb6vAFbZUov2u9PDDqaD2tiyFE0XE1Tue+ijjSoNAAzzmRCwRwONxRKAF4R9TZ2T1fDo0jvA4x6Paee3440Zh55lNxHrE61tkaTzyaHYkeiyclzGRolA+5QKNV9CwoqGCjVyXdWvZ/6rRw7CAYzXG/nca6q9PESUl7wUiI4l3TDY1tRGSaREVbULzuq5abLWjSmZgIQAMf/c+06SBdTuKGM9a1+tL0S/80zTzvOYAUYuiHWjOhmrrP1I46PIQx2WgtW4pt+qVJL2q2kVgjpy3N0eMh1xEewgW2PdkUowoABWuzVdwl+lG0HMpQeeUyIrmCm9k9AE4ul3YsRygYyzk6jmWwFcLllOUqTcNOa4wPcr8qxLsH8LSOa7jOXmXpqGNPSLevWpVWw91WFzEZRe1ist6XBjEjEsxnAVJBa/mKpWkJ3K3PkeuVyXHbJLnuQZZ+BhahjwJ4z7TYZxhdmRbAW28Ius00DkCvpU+53vs1GJ/Tvnl2etUrX5GWopPj+u8kyl5TM5M0VdoqbinNU3G0dYiuWvRXaUA91GiuINBSxJ45YK9bbz9B1qivcgLgnTwZJyGRX3enG5cAHGS8j19yOjY8ZmmDH8AlH+vAjaccnwdoPBz55sLU6D4+5jeSnFbkbkDOPhUpthDl9H3h6wDw50IBaU6ZZ67hdkq5K9OEDu9mGr7vFo4CNPMZeu/7MFX65WaaKJKeTxPpQbqwtcZt6NDfvydNvOPvQmFJ8yPzCzMhTTQegkFb5KxhTxthfa522eXQ5GRoQGXm0+EhWLddqciCg4CbQXfLmoUiUYfjzSji/Q4wCdCAb4V11ABl0SgjUmQigOV8WV9FUWt6Bo4TP88LsFOvw+VqD/zf3z0/rUNSuAC3qBtVQgSyKj14/2Ns6av1hY2uzaVvgL7DGKpoeWainibHx6IZ9fTjNxrut4ZjIGA3zITGNmxChxDrBnQQxgDXDehfTNVn0wRrzQcfeGC6+LKfpre/5R3p6OOekB52wAHpMLbwXLJkSdrAxHkKJUZ9VNf68X/Ar9xvAG7UKFCUI0XcfFuwCPTjANd8IfP/xvK6TT2ni+vQKxyEmE7CRy0ik7mvEoDnSHE/HASN22n4Pf+SplAkmPn9300txCAhi3H9a+4l3g/P+nVlYaNahGkTE4wqZgF9Xzw99Z51TviJjplpNKwdFGZXo4n1AUzb2DB2sWGCuyz1f/IzsY7bdiavdvDW4Ct5BCE5QOwR9bHt5gvDbPs39ed/mvdsRrtchaU8298BPR+Mt2wj1tkBmq0Je09ngoZry1gLlxWap6D3YCz+/6YyzR+CCsD0V1A1ZCEyr472WlGrmcuBtXGb9strbsJtwjfSpLMGdZW1X8FnClHzDFrPfUiIFg4tSnfeeWc695xz0uWXXprW3bYqLWcc2X+/vTDyaKSxmTYmQkOsBTfSulncxgKCg70DiJzRFdA3PhxsNxyqHHEDAG/MYs+Pve+w0hSalFxvvjebNo3BX3Nx4xj7A9PW7Eau544ikXnGbx+fzj3v++lrXz4DJx2VtMfue6bfQwfjcbiWXbIMV7igq2Jtq9CD6Z27QLk2rYJW7BJF5cNLWBABAjneOQbEYO6BtNCrF8d8NGsyQuwjrITB+Jm0JrpLKAH4LiS5DxdiqsRLwIVa/2lfxvnBhbFR+SyKWYrkYmC+D9n/RpICKDrq13lH96U/YY1yfYgUQ6Emt8QdF2sXpIkcr97Naj+5MnseY5AIpxyaRG0LfAsKCcL2dGiqHW0Vb1Xh0eqgg9j0/lGhTR0gfnfoWuT5YPhlwNKUSr/j3Zf+T6quugl6oAWOqLME3wfDC9pcBjkzQSS4WSaS7nYkAAu9cYsmGl7NlNhkKew8rBFqjK8aFcdwovUZzH1QcprF+1QfEqGhoZF0y603p3NOPzedDfiuxYtfFcA9YJ8907FYUMzgxWpqYpy5WQauWZ49LWiRzwz7kw9gzrfb7lgTYK5Uo69UezAXYo14mjXe3gEAkqJmm143W0BE3a6lacTjGyfG0pp16+GOe/EYi7ET3PcMwDq5oZH2QPx8A+WoDAymO9mK9YMf/ve0zxlnpqc89cnpxKecmA54BIqzAO84Vgh9OK8ZQPtaIDZk0yIfyoQk1r3jYgeEM2nE1yZ9wH2UY6ItlTwOAvIjebcTSgDeDmHu1eVoyKRUCxjRpOt7vWd8O/V+izfAIL2jF3GvnvfrSBSNip7Ib2znp5MHbV6d8d2dsKvSRE1nAMaNE5xFh630jsC3oFVwwh0QVjOeWXcN95i1n+H72vQFvYr4D4XfaCN8MQiFv3LafkgCrKvtfkcswEOhfrtIGe2x8aqU4NB/XbeE0QtQzYMT4mYnk/wpUpXpc/021kdJqwtGtY67uwA3TIOm4Xh9xYsQM6t5/EuUEM/81pnp+xeen25mA5newf60FFOh1gSbfcAV62rSzUF6BFTSb0AvpmthFXExWsr0hVHshdVk1p64BhesWVOTsaYbvYm+vgX0s2Y8t856cA1XstOkG5scT5smx9LtazeA4e20AK3qbiYIfUio2rizbPay49J6RNbY+VvfHsoxiO7F6jvXpVM++en0zW+ekY459gnp+c9/XjryMY8D1GfTOB4Eexq1NMiEokK55PDzJEXqbQ6ezdGU4ypljwkOzzEoYo9Rcstkca/4KgG4oMT9+esgqjMLBlR9OOeXsIO3cH8++4HIi/pEY1O8GvWi197T6uxqNHECwgCRnZRw7Iw5T3t3/gYKEDa9ugOIpNuYYoSp0s5TPzhjQALFbWo/RxuRg5JGd5cmD85a7VKlKrqsYuXgZO3EAl5Mkqwq72uuY3PdY96pmybYfeU8ZwDEBkp2bvu3mLVUxb8/+NEP0zfOPCP96Ic/SpvYz3cY5zRLli5DCQvxLr4RqrSJNWvWhzb0ADoOs6y9tmgbbrig04wGY8r68bWpi9W6ShpJq1kn3p28MRjG7xAb1AwOpW42Qqn2oAlNeafYP7xZb6X1Y7iuxHRpEtDcOLkpLVy8LICyG43q/h59LwDCg30A+AZqgkibdeYpy9/AZS/gPAwQ1zn++te/mc4++9z09Gf8TnrhC1+QjjyCDWjgweXUZ9GezhMAtk10OQWS6OFLUmWwlW45OG2JALFU7pLGRN9hKAF4h+S5DzflZmiwXTSy3LDvQ14PgqTRtBxU7w6Xt73y7mI0iWpaJ7vZznra1jQRmAQoBga5xS7mNg/1ENM0B/OijdxTmjzUCfAQKH+nxQFUvCdDAHCnDecrwfFqUlNFwuM7DZDEUYY7Gg3gwaqnNpruYJeyb5x5Zvom4PVzNoDROGkUHYilS3ZHJF1nO+0p0qMwRZpe1mIn4CrHsA1fuOdumAtlcfUEQFxnwbbKkt04oLvq9lsD5NyisA+wHWBdV87TPYO7ES1PA5ZhasQa9Hq8ak2gNT0DyN96x+1p4dLF2BQPp1n0MoZH8PkOp17BTW0v5k9r1lwJZ61jjLyu2+aeGznMAN5y3kuX7hGgevpXvp7OPuvcdPxxT0rPfs6z07FPfGLabenuGHlMsfnDRGqzmYPr0D06W6K+rY5uQ5YYZIlCjJMd8bVx4rxD1239lAC8LarcH9ccYJ02shC/ywTrdF84ml2VJvf2BQdA8RUgfm8zeZClu69t5EFWnV2yOB3sFdz0DOUwpfauoubYJhBQ0pXjtLtrASGDeL1b1LcIb60z6YorL0/nnPVf6bzzLkjXsLFJN0sow/hj1iFHHe3jaThGxdTa2yrybcMtzgKolVY1/RSdiYc/fP/UgitO2PDKjY6hHb2Yva5Hsde9/aZVqXXzqrTXbiuCW14EoGoLXINbZauFUPKanp5KE+ha3L5pQ1qP1vO6sY1pMe4qhxcMp3Ws7y4ZwUGQAMja9sjIgrR2bCZd+dOfsbUhWxSqCGudKWtgJIAcplJw0j2sZ++GC9U6O0h8+6yz07fPOTsdgqngk44/Pv32bz81Pfqww2LyUceEaRwN7tDcZr242C9ZoLU7B1es8CDWizuE3kEj2oXQYQe1/E3eui+A9Zss9wP57JImW1K3pMeW9CjPHjgKiBQhXY7ZXzyn4NMqTASbeKqqIxLugWtdiPOUWUDrmquvSd+/4AfpBz+4MP3kyiuDkx0YHE1LcayhZ6sJTI66ME8KpSnA1kl6mCWRexMgnOZ5w2g8X3XTzeknl1+RTsAJzZ033Zh2w3XrTXjSW4+Z49K99wpve+vgrH9+zVVp2choGsUJx4qluJuUWw/XkWhaA763rluTVpLeLQyHlyzEbGkg3SkXTJrFmMC1tdhg0rBsrz3SKR/4WFqHA5jBhQOUE9E5dYyax6wDbWfooQmSSlYTY9jgc33ZskWcdqVrr70uXQF3/4lPfDIdefhh6Sm/89R04vEnpANRmrTLbsKUSTMmJQU50/zaCsGzzyGbHYYSgHdInvJmSYGSAiUFdi0KBDAgPg0PUAAP+sR8Kmkal7Oa4ixl/Xbt6tXpv753djrjjG+mi358cVq7HucWiIWHUJQaXereujPY3GL7DfLoWcrllFlRqTOZDNwR5ABf+UDXaftHFqcLL/xhWji6AO7yEWkCr2977bV3uu76q9MtN9bhhPdIe+1/QBpfvy5tWLs2rb7t5nTr2jVpkDVguXXXXvUzzQpy6kPbegFruNOIh2+Da168eEFaAefcQpu6Ave9x977pK9846x08RU/TwNsXzhZgG9RPvKRDswPog6oVEY91GYeY11bT9n9mEUtpMwNnnvp5T9NP7r4kvTR//hYOubxx6Q//7M/S8ccc0xw5fqjnvOCJeKqoGnu5t15HkfbDCUAb5Ms5cWSAiUFSgrsehQQGMObVShWKYJWaApSAMTLli1nPfW29PnPfy5968xvpauuvZa10tk0MLwoLV6+BxsiYHLEnt2zrMGaLpxXkF8Lxxuc3iWYb+gBi0UA8RRg1KwNpq9+/VtsmlBPRx31aBxcIeSuHpiuv+GadNv116dFcMUDKCWOYMZWh3Ot61UNQJNpt5g9KHF187CpqYm0bu0d4V5yrxV7pGVLlmEb3A5TqEW4Rf3S6Wekr3zz3DTE9q2TeMjqlrufB753KSwXBF9DrH3zLBXOnGjo+GMYwO+uLordls4A2M8/7/z0tKc9Jb3h9W9Ke+y1e8RTWxoyBhcdmuPQxNMdhRKAd0Sd8l5JgZICJQV2IQoICKE0BIjJ+7ZhAfX+VMVs56Mf/XeA6yvpuutWwe0OALwLUw+IIhDVp/F3TrzYDQmxqwDcKrZM7dAnxM4dJPY5ro9qT+s+uloOi0aoMbGz6cL0tTP/O92K97fjjj8m7fuwvdOS3Relq37xy7T6lptxpIHLSRxyCMR97paky0jS6hxkAq9Yk6xNVzC6XYy522742te3dH8foI071PV4xvrUKael8y/+CVsRLkpTeuVgsmHaIljOHYUATyMA2s4r1LVqoN2NGhouLnsA+8XcaqfTv/hV9idemb701S8bleDEhHpKm6hu1Jpz7207lAC8bbqUV0sKlBQoKbDrUUAbJJwbK36W0xvHjlZzone8/V3pE588JS1FGWpoAZwerhwn4UDl6ITPmp7fWDDVFAnI3kKyWgCaoDw/ZJAW5jMGBZjxfFSY0tDo0nTh5b9Iv7r+unTs445MT8Az1ZOOfzIAO5FuWnVjuhmx8oa1mBndihMgnGq0WNcV2AbRwl6+fHlavHQpYuclcMoANPVYt2E8nXPBj9K3zjkPm+D1qR/FrEnWizWxml8qj3cMv5tr4MTB4LdibSs9iw3yJN67Wu162m+//dMVV/wsffELX0yvfs2r0y2sZw8ODqa6ImhpcTceVAJwkLj8KilQUqCkwP8GCsD1wtHVutleVPBFRHvW2eekz33utLTXPvukcUSudbSUu7DeENh0yyEHKAfpDkdA0RygFcpGAu3W4DufkgG85GMcVaC6KMAYpkj9owvT7Y2Z9KX/ujD96JIrWRc+KB3KFp/7779fevgjDsbWF5eVrDM3ATS3R+xGI3oURSv3AxaQ3XJw1apb0o8uvTxdePGl6eY71rHr0mAawB5Y/9By3zrZmg/AdwMT5xcdxTJ9W+uaEiIQxOQKG0FU4ORX4xVwFD8P//bBf0uPZz34IMo/hWZ271A/InbAn3XxeN4OHloC8BbkLk9KCpQUKCmwC1MABHEXpBnWVheyo5cc3Nve+g7MeBZjXoNLSWxra9jvCjRqQOt2Uh42GGd3BAI8t8aTHYFviHPhQuOXTIttDwXvyWkUprQT5tk3IVa+5oIfpzMvvDSN4nJyD+x6d8M8afGSRSh+IV7GB7S2veNjV6W16zam226/jc+adPOda9ImvFz1EWfhCsyI8BGtwpW6UAH8PHPr8lqWHZU5v33BM4vnc3onGZvbhaJmPeA5kdmwcUN685vfmD772c9zjv9qwDpPU0wwL9Hm5HNHJQDPkaI8KClQUqCkwK5NAYFDjrKbddwxON03v/kkbHdnUqVvODjcCuAb66XghpsRaCdsfFjAuwDZjigVEliQS74xILyDQ5r9BPiRXxfgq4hYwOyBux1YMhJAPQGI/vK2demKG29DA3kmQN9N78NaCO9WbnyvyVQNt5I9g+wzPNgGeBtp0wTayK7bwvnOtuo8h7g8vzAFyhrPOyr15nttZhyCqM8SiDmiHNLEiqCRTca9PGsGLlznIz+98ufpwx/+YHrzSSeFGL272oOGtdCd4XtzzlselQC8JT3Ks5ICJQVKCuySFJDzE1TruH8cRIz71re9M117zQ1p8bI9cAU5DvcGcAFkmdUTeEAZdzySY9SWSDQLjm7HoGKcwJ6CikQ3RWBwiGW5D6CqleyOSu5qVEdTuVWfCFtiAbSKbe8QSlVubSgAyjn7Zz7GbyKClkOv41M6i4fxHx1ayLivJJLONtzwwYK7SYLpiu+dc78mc6ZApamzz3VnqOCqLT9SAOsySxnaPHMSEF60cEn6wmlfSE898SnpyCOPSGM46zD5zsLdiLKzLMr7JQVKCpQUKCnwYKaA4KvTCD1JLWLd98wzzkpf+8rpiHh3j310e/Bz3A6RcwY6Vzk3o2hAUOByAV5yuNsO3iB+oI/wks/lHL2kj+RZQFWbYbf5q6rcZGZ8ujnuUp0YtGzo45ndkaYQTU9Pccza9CaAboydyDaqCY3YWftck0beyshBy5gjCOzBv/LMAN9cBmJ2ysbPNkIRy19Y33DogQ40NYD75UFuVKHGOA+MSYAa4U4W5L7dI3GScn7s4x8L4Nc22M0jdhYsURlKCpQUKClQUmAXpoDAqe9iFZPWrl6TPvyhD4V3qhlAV6DVx7KCVgFTt5RgDEpPrGdW3Ky+lzi6rARwiCFz6P0dhxx3cxzBSGUm0/IMAE7RthywIm/B2BIors5rtIBzdz9uKHVFyUYMbjGoH2bOewDqKmuvgl9wtoJj5C5uxhXKq8jY44DTAMxA9oiZrxVli/JwKUA2KkfZnS1EJc3bD+eWUxcdQR8U1GJGgW0yymoTkxNp0eii9N3zv5fO/975sb/xOBOG4KTjmcXTtvzdKRm3jF6elRQoKVBSoKTAQ4kC8oNVOMtpXEwuXrQYRxunpqtXXoud7ygiXNZNEaPKKbL7LtXimD9teJvY0Dbg7hqgptsNxg4/AFSVnYmy7+htU0HwUkwba8iCF3m3cFXZjA/iW9aVa3jPEiAVJWdE51xcFAD51+a40dIMKgO0msj42UC8jCmQQM597YXlpAVu12wFb5+pL2o0tuI3c+zysPLGArI4mn/jhK/sxYpy+nxC3M3FiHPwHbDnKs/wzxhN1pjNR9oFG072bUXeAPWpp50WgFxnu8RYPw8aeK/zgMg1f5UAPI8Y5WFJgZICJQV2KQoIEgCie/EO4B/5+htXpdPZwWhweASRKZsiqOUsWyqwVP2VKwXiAJgWIt4sN1arF+6PdVDBud2F6FeNpjk8kWMGuOMciAIcI4g5nYPYGQlOsQo4Gs84gnw46wA05YRdb46PQOd2fpTdsulpy/JFOYmTn5OB0yfNAnyuysqfGi9AN9IxWUA0HJwqzxIc/WRQ5jDOcaHpHIBnxVp3kbkzEj55LZh8kR547EehdLuzU5PPo/CAfSWNQ89hNoO46EcXp0suuTScg7iBhZOf7YUSgLdHmfJ6SYGSAiUFHuIUCNhxnRLXj8O4d7zooovSDTi66MNzlG4mA4wEO5deA6Qy8Mgx6iWLhWEoIDcLRxk45BYIYi9ayXKanTPJBJ8NdywQC4t8utC27pHbzWumlQDgXlJwjWPXpHOQ4+Z5AregCytqnFTBAQeAGOJgihKMraZQRSoeH9hGHDdPsATWR+ysUtislJW5YndnEohzPXyuoOjEgUmBXKziZtIW3DG1tTZz8aqJ9G08gDEJaSm2x1zLuPxH8Lly5QavfYNJjhMYd5XyXpFvRJj3VVBg3qXysKRASYGSAiUFdhUKZGjKUBlOJeRkASzXS9v6TARoIw7nSInjurEzJ5sBsAnfVwHZKsRtKAsmHrg+F1Ta0lSIXINLVKwr4PGE4ADDnAlxczZtkqtFSgwAuyZt0OlHAYokBcXIx/LxMW0bMDdNl1ypCeYFuU85aNPFhMIykKYCl9pAu1rEtmRirLxyS1sojiyfYG0ZQ/kL4XaFtW5F2RGH+0oIrJt7FIdSFbQjYVwPzjoKSx6UM8T8KIfpnesyHINcf+31qZe9g2cBYuu9rVAC8LaoUl4rKVBSoKTALkIBMCaCv3KTAll2R4lkFWADO0QhgEfwjW+OPJYxLICYE8CpEuu/cMQAT0NOECwKIAuwyhkJb3rSUmNYRWAxqkbuVUXNwhvR8jqx8Y29OXjPOE0AtQbXSe6UQy5SMDQhl0zWCQHHcrCULW50uGfr6NqwXHCIrmWfmWwI6nq3An6jfAJ2JVxsAsM8ogU9DMFQEytKyHOti+Bf8b5cMOWBMuSymbsVZBtIGirV/rR2w53psksuAYD7Q8EtTwzmFTyeYu3KUFKgpEBJgZICuz4FAmkBD0SrcniFxrCY5kdYklOsAZ4V0LcG+Gb7W4AIRJOrBHngdBXlwvGCHhWuKU4WHyMTflTSEg5rAFaIgpETVxBDB6jNRcxgFFx4lIsEPp38BNse/D/LlSoiFvS9FkBvNOcInYdZ4iw6FzStBUGwFBxxGelT2pS1CWjGE6mTkwy5XDKOrPDtQaFNy/NIGYf8esU66Dqzolg90nGRkMXPTl64b52KR3sPjJ5lQnDxZZfF/Uiwna+SA94OYcrLJQVKCpQU2BUoIDYIPuKTv6GZi3g2n/EDesR1kEPocv212WIFVO5QqCIdlq6AiTylqQAdZNWZk/Ss7s24X62yxks6HWj46zaA4mvgE18VMpPHDAw1L64pDjd4LdaVFQMHm565Ue8JdAZL13bd1sVfr6GAFfjHsyKOgAnvrK50iNs5N+cQSccaN2doNJuPtZOrFkAtgROTDLjSgfpEXjyHm6awfNJOTp6YJM3r4yo/h1KZ0gLiTaM53s22iVezU9Ieex4W5lxRH8poTvNDCcDzqVEelxQoKVBSYBemQAFkAoGAIgx5rDmQ0CBXK04V2srBKxJRTrgJDAtVHqsoFXgGZ6hGcDdsoxZFhuAKyaMQz8rlVuVs+fMY/IrjAF7yEpfcXCFKApcZBTN1KHPlPLMINx/Lp8YzSBBLxxGXEwGZvA2Vdm88K1xSGp9rocXsw4KT9WmWI+eVj82C51vGuK1tcg7mIFA7KSECUSgvmfrINhtFWAn3LZaAM/x09/WlO9fcwWYRN6Hw1hv0zXTrZNj5KQF4S3qUZyUFSgqUFPhfRQFBRDNXwcu1TTWfw9mEoOJFgDAgLMAnc3mZcwRUXX8lzGKmI/eXz8hKsbHgFFcFLGMRI7hEjuR6A4nJWYccIilxMlgL8p4KwlwD6U0uCGfFLNObH1k4Y+jk3UHwfIPvufXmnFnOwzTkqRh9FnG6+ZtXPIfaqk0tKHsun9tNGeV6w22meRLXeloWH1vUKx8w0TAVLHGFPYwnxmbSbTffEhs0yAHPn0SQNEIJwAUlyt+SAiUFSgrs0hQAVYCNDDgeGwRYoIQ1WpAuPp7K6YUYFkCK3ZEAnbDHVVNJpMMWOHho7rs+HEALl5t/yQbeUY5RkDLEkzsnwb36XIKONkIELDADtAGyFEAgVpRsTnKbYWZEHJliwTG0p60I53Gh85MBkROCHLiian8tV1GWAH/ygO/njlytwJvLaLnNrxsA9Tmmcr27yDeoQp2Nr61yFlNbT+NRvig3CmRuagFXf+fq1amnfznHbg7h9KQoRRQxapiPyu+SAiUFSgqUFNiFKVAM/sDFZkSBfQVzBBngSIUj9951LRi1JwDGdU7WZNX85VMDmPBRxTXQSaQ2jVyzYBSUA+4EZY75IYiQAi1X+MhJqpgl89sOsXQBj9lNJrkRVxDkeQAYUXGzjCIWXrnMtckzBemqIBjQmiFNMM2gHQ+dq18368URcuFyOYiSnYxIB+9afsrkBIIL2fzKGzkvv1XMylfgnI0TZ9zgYgZyY+W6dFH+No5MqrVm+N7uHcj5RHbxPKJ2QskBF5Qof0sKlBQoKbDLUwAYCxDIQNbCoYQA28ZWVWBRt0lcbQF4s4BqFdl0s63TCaIJwtyXg6wCxP6qHRzcboC1qJqF0PkRgK8o3MEfQU4RdNjEdp5rxuH1ChjTFjjAvCHYK4DOnLWAKGCbTzU4cCGPP7nhfBm3ldjaCsyhgCWIZogMMLfoUSAg0jKYj8phwT1zk2A+TUTvQiix40pw6kQuonkndliKu1bN2HLo3CGez8gTFycRTmjYkpC/uYd3ykDyuVAC8BwpyoOSAiUFSgrs6hRQVCoSKOaFuwUo8uYIACMIEpq9gIleq7R5FQLlQrP9LyAj6pFcL1mxxgoEydXKQQtQWXEqHwdnSdwArrgnYKtJrIlTN5rCbPIA11klL51VNHGaEba2mg+5OYQgr1jccsiZK6KONWfuWwPyylyvz3XmIABy3WcKiD5Yzp61Xk2SNK3KIEle3PNZRSgkAgUfbwTBOipLxpkzJr2XCJlTlwa5Tvmq39KVa9JDxjpmDpvvbn1UAvDWFCnPSwqUFCgpsEtSQCCBXw3PTHKAs4hJe+JXjk3QCt/MoEIWQsvPCWgdQIn7QlwIp8XuHLgvQMn7BhCDPOYtWsnVNpsNfhFdC6Z4lOoBeOtTjTTDtoKB56ByX28tDQ2OpEYdTnx2mnJpigQPzDPbiKLdqlAzoSYbHLg+LXTyE/goGAbgBvJ6w+vEEWAVWQPaU2zD6DJ3Tzfa0XjyirREK4LpO9lFXUwqvPoffq+J6LpvBngnJfiQJgGXks41jVsAv5OM2O1JN5Q6Aikeso3fgoTbuFVeKilQUqCkQEmBXYsCDvkAJAAFGsYmDbMAkpvLCycCXwCs7FtAUoYIgVtw1iVjFwuieqPMeQDO5INlLugkP2d6+ULzN6BKxRquHqZ6+3rYw7cr3b5uMlVHl6WHPfb4dNiJz0q/dfST09DSfdNtqzeGz+renoEwacqgivgZ7rXO/rozepmSs6Rsof0M0lmeWKD1WI1oHms6Jb/NusDdy/7BM+m1b3xbOvTIx6fx8XG2CuwLs6CItxUSW2rLruMOLH4D9J2cZOqYdyd/4llbqRPcM/Qwrbx/5Mtx5OTFHYSSA94BccpbJQVKCpQU2HUoIOcnN+taK9wu7KfcXXCvcKih7YvJjeu0LR11KPbt8G9yr3Gfa4JxALXKUrB9FdZTtfIVdgOhAq46VAPoQ3kLW9h1mOWMLH9E+uO/fFE64LHHptGly9nXF49XdbYd3HRnWnnZD9M3P/PxNH7njXDDgygwzcCxdqfxsam05977ApptzHpuZJehXjhly+kqMeXisW6y4Jwi/DXLqnJcg9utdbPpxNTGtNe+j0yPPmo6/eC872auVHaV0ELU7d7C1iM4WC+CqtZRFj9oA61CQ5skMW8xLn86IgkA5Tw446AVDzaYBjbavx2FEoB3RJ3yXkmBkgIlBXYZCgRCwckiEgY8sgg5i5671HYOuasAogUs4KoGMeunofDEdzeAq+g11pA5FnQMFYEYrjRr/8o1ZmAUhOo8q4cNCTZN1NPuhx6T/uIdJ6eupXumtdOzaT0AOz02AUfanYb6l6SDfucP0yMPPyK9/02vSptuXwX3CrADoOsnN6R/fMNJqZf8XvHSl6QlK3ZHfD2R147lOUPknRXF6o0WZj+AOoA8BnD34xCja2AorbzxlrRg6TJhk7VnOOzqVOph4tALd94QbBWPB7BSIYHW2nWA3B9DiLRBYNeOA6C55sRk805MZqFKmqZN5EBCaZEnMR1gjpw2f5UAvJkW5VFJgZICJQV2aQqIJeFSMtg9uWD4Vo6F0/DDHICxmYsriAH2BS+XsQhIKcCKCIFTAE+Nm00jyg9zXwWpak9fmpphK8TdD0yvfc/70/qBJWktwDg4MJCW9c6k3ZeMpF+txscW2tNXj42lfZftm/7mbe9J//C6lwNcjTRZb6WBJbul//vJT6cN69anvoXL0s233JHaDdeJcTkJ0CKhjrI5Oejt7UtrN45zXkmjCxalDZsmUxugv33jxv/X3pnG2H2dZfy929zZZ7zFcZw4Tho7TpOmiRNXsZoP9YdGVYRaCQEFPtAioSqlUEBC4hMKqoQCAomlghQQEipQliYFS6AoBLWuk7SJXDtJaYizeMlijz27Zzxz9zs8v/f878zYmZlWol96/Z7x/S9n+5/zyNJznve85xw7sPtuV/aT+k5eW0Xq1GNbWFi0Yk9e634xna8EN6FnMLiJOX3BM3DQhJDTs7BDfmOfVkhxzF0zR0xqInVSUgs92xWXwq5d+37viph4CQQCgUAgEOgaBDA3QyKYnivVOZl0J92EDC1ANFBJUrZSa5pHRVHmZIIm3edVRSWcTuTbSRKpQJ3p7F8paUhX/1jXy05aeCx3dqgq9w3aVKVtv/DFR23rBw/YO7M1K4t8q3WRcmPeHthZtH4p4Lcn61YeHLbLcwu2Z9dNNn/hnP3gpeM2snmzzc3N29ZtW23PB26zU29fsE/94mfsjgMP2s989nNW6d9hH3v4k/b5L/ymnZtdtLGLc/YbX/p926355Z//5S/YoYcethdfecOG+/ps1/6DtvXWvbb/9lvs+eeet01bt9jnPv9rdvatU/rurA6AKK3MDauPYOYEm/VZaKS+y2zPWmkwoOtYCXynK1gXotYNDJmS7h/YpEHBkA96iLs6vD/m6hzxHggEAoFAIPATjYC4xMmCZT14QWM2Ral5vHrGvam1vzz46UJ6x8mKeO7M8jInDMxsuSQAABPJSURBVL+shETW4iOREMSruwpA6ng3Q74LC1Xbue9+u/Pgx+y8zM3bRop2U2/N9l/Xsv03DtqgFOyD2wr2U3eUbbjQsEahx2akhu9+4EHVkpeJuGSNxardddd99ohItlYctE//yq/brkOftudm+u23Hv2Sndt8h/3bySl75HcetZ7rb7N7Dx6y/ps/ZF98/Ov26lTDfvuxP7ULzT7rH9lux8/O2yc/84jduPd+u/n2/Xb/oYdserEhBzGZpYUNm4Tw8/XKPhiBZOkRnUPq6q6OYrHWEmh5aKO19QM34cO8dHIUS+VUYMMQBLwhPJEYCAQCgcBPPgIoNcgUFdeWt3ILN2YFV3D+xEUkIj0Mz+qf0qSCeRAB4+cMsaBs/S7ipCyaj3lONqVAAROTl2lY21dJTZdtXmt19t7zgEzHI9ojuWIHr1+yh24t2D2bc7ZzIGcLMg+fGZu1ze1F+7l9JbtrR87mZbK+7qZdvmSoUZGpeWDIpi/NeV1WGrUZmZiPPf2cPfWXf2uN+Tl76+gxe/prT1qpr1/m6ltt4sJFO/aNw9b+3g/sH7/yNzY0PGilnXutr7Rk515/x/7uiW/aZ3/3D+3gT/+SHfnOcZueveQOW6wB9kMo1AuCD0TSo/WqT6WMiB1HDThaUr4cRAFurFUmQNaY3vnzzToBc4MQBLwBOJEUCAQCgUA3IQB5QjJXh0TEihepYCld8qP2dPqR1CDOUL7UJ2XKiibFB9H4sYVU6V6/lBXpqDxqO6852aFt29jt0on73cmWvXx20d4Yr9qp6YZNLZifHuQeYSrWrMuZim/2DViOZUsyfaPAq1LFhf5RuTYPSW3mbHuvGnl5yuTibFuKDWvKUct3werdokMWSnbwIx82mx+3G7YM2ZbNgzY3MaXtq2t2x+4Re+KrX7OWTPEH7t9vTz9zxIYH+7UcS0cIuok4wwZOVTsYpkjnu2ma0UYeRzViMyycpBUPKftWlsz/Zpj4IRNk3yCEE9YG4ERSIBAIBALdhQCKjPlLGVRZhtQhEpEagWMJ2X7S53FzOkYPEloWcSxBSvkgHC8qV2pi4Bl+vJGGUxenCLVtyC7LkQpuQyPu3JqzD4gQcyJn+T75FpjDvUM2UW3ZN9+8ZGfmRa4jAzY+NWO1Sl3k2Ge9PS2p3jnbtnnU+uQ81dCmGls2ibomxq1Pnszbh0tWH7+ovJpP7u+xV9+bsHs+/rD96nU7bf+em+25EyftjeMnrFV5yLYOqhVjb9p7r33fdmwZlSJ+3Ua0GUlDSrxHg5PUVbSw+ud9wcsZk7O2qZQ5XA1Wir6tDI4RloBlfJSUBcpCyB18O/FX34OAr0Yk3gOBQCAQ6FIEmLtkzw3xlgLUKRb0uzhFTIvqYy7UHbH0LDdpJxtXg77Ps+Z4pQJRxpimlTMjLVEOREVdqGwRFCbsHingt9877ztcFbSm9/Ss2TtTl6VWZcquV+327Tlb3FK2/36jYrOFEau2KzL3mr0owqxWpcCXZPpWu6qVmj377WfVvrodPfItGx+7YLZ1yJ785yft9Jm3TSxtf/WVr9rpN//XPvHx++w7x16yo989Zidfftm+e/RZKzYv2Z889pg285Dk7s9L/d5r33vhBZmwZ6wwpKVI9JM5X32LXvhuW3rueFhr7ZJ6xpIsbTmSDVpyDD7UZ7bWTHtgq++gCSFz4ecT4x695iUIeE1YIjIQCAQCge5EAP5ApXbu9JLnNuZnN7FC0CJmnI2k+FBxHeWb8kLaEEwiHNK8LvKLdHCegtgrMuuWNc97+uTrduatM3bD7Xvs1EzNt5xkyRLqtd5fsJfH2zaeG7C6tqEcZv54atqe/a9nbHTzJltY1NaTqnFxfMy+/Md/oOVHLXvqG/8qL+qabRnN2X88+U+m/bFsuGfJvnX4sNUuztpI/Wfl3FW2s/9+2BZuGLT+y5NqbdMmz03Z/MKC3Xnvh+yWW3fbn/3Rl62PXbZkmvYBBZ1z7auu6Y4JOac20jecylrZgMOVLb2UJzRA4iHuXdbFVbHXoyThwZ+yrhtAKkIgEAgEAoHANYYAJAzhsLEGa4OTkRi2kKqVd6/P5eqtjTqUDRlSwuM5TYNCi4lkWIKDOZvqUM7pxCCVVzzbchTri/YvTxy2uraBHB0s21ytaZebDbukudqjZ8y+P75kc9qYo0flrx/I29//9eN2aeKs9RdVXsf69ZSqVps7b+X6jJUbE1ZqTtnI0pzlK1pO1Z6xvtaE5asXbKC4KCJs2OT4ORGwnLdsxoZbM5arzdpSRWuI1fjF2Xm7T3O/r5z4H7tw9i0bGOixqs7qZY67qfaK37XNpvoP62ow4HtR67mI6tfgooyjmZQx5nVY1w+DENH6AAREZCXwZVmglQB2nJQZWN8XYh3w+yCJiEAgEAgEugeBpGAhWq0DrsxpXe24P/s6V5hDIc1VQqEoPtd/ok5M0ahbNpeAqglpmRHLbTDVSiJ6bMqnvIpXAVfQxXI6jq+kpUXTl+p2emLO9t6220Y3DZhp+0cO/2tpDrWnpE0zBrQrVXXR/uHxv7DXvv2fNpyral5WpmqZut3IDek1pFS1Y1dbd3lNwZnWqFU1QpCpWq2pyXuaNcbTY+d9DXF1fsKWavNqDs5kZKtbr3bFunBx0o69+LwV9L1Wc0G90KEU9E6Eyde8LyJr7pAmN5L9TrqeObkJhzG282xhaiYoHiXNmmpqYkAzyDrgvtGkpt3Jy3MuX8IEvQxFPAQCgUAgcG0gkMjEOcc7nEzMydxKhJOzCMVZxe/uxywWwlFJ+aQS0cSkt3VecHI4oryIXjlYmtRuNMWzdWsvTtuo5k7fPf6C/fnYmN19YL998M59tn2bPJbloDVfWbAzr71qLx15xmZOvmSj7Zq1RKaljOSTmVYH3CM+1RbMuqjMlkiYViRtrlbl5TGtOeTpsbNS5DXrzUnZqiVJuatNWirEkYbzU+el5LVMSLtp5ZfkfMWpUMxpq+1wpAtXzOoqrbMjPGjVER9W0JacGsgUlKmqOWz2oBYAKqevqB52yWJQAn6+FaXKZFX43avwGtMlCHgVGPEYCAQCgUA3IwDxOsF4JztmZihCBCLS6dAFSo554ETULDXSto8Ze/g8sTsrifBMnsGiQA9KpwoEIfOj6Y/lPVKatUnbJDN3692KnTh31l55qt9GRrQ2WJUuaC3vwuyYDTTnpHwX5bA1pyP+KJ0+CBVCaHyfZVQ+NysHKNedWu6Uw+yrBkC6EK4WMlEiaxO1pPdkNiaFJVKKY+0uc9wiUdQ8vSeQP+t4ivCr+ghBK8m37dTZhukwCA5lSCUxv+dXqVza2mm715s1aVWl+FNHCAQCgUAgELgWEIDEVkgYRyIRGfZlqAJ1q2fIDgJmXjgRMYoOskLdyUidVdLUPSe2le6FssSOTje6qz5JRvZyLkFOOg8YuuTkofzlWbtOa3mbi1Kw05ivW9YvBT2kMg0RcLM6b0XNr6JWcW7KqE3flkrVC57HlKmTpvamYxA5JEJZRMRy/VIeXsistsnJqikZSw+TsVyq2ZlbzVSj2TrT1b7SVcj/qaTivKvKlJ6VMfVREUss3xKJp1opR5somoYc8gFfxhhlvFEIAt4InUgLBAKBQKCLEFghX6dM7xlznRAOJMt6V6gn7fsMIaMeUYkdNaw35UcJJnZCYaIGKYVKhXD0o0JKas4W7sbkm2NzDuVtVGbl36TjD2WqbZIoNd3UnCrK1LWsk2cic2icylnSRJ1eO+98XfmWIFmRnLdBjmPOfKSJXaFJXyKUWqTyWTJ8qX619F1vuPI5CTPXrT9ajpJVjoysQYD2U2faeISWuLL2fKpGZQoyPws5/wimabb2TGutlaiwgn165xoEvIJFPAUCgUAg0PUIQDZpH+hEkomAkYUoX8gNYkMvitwKmJ7lyaw7gR2yllDCzlIQLmymMnp3sQtJio18TTHkxLcUUURBqmxepluWE7fccQoCUnnl0Wep3Z2a0LHuCKUtM50ERX98A5pjWRRzrKwN9qC6OSeYfFmEi19203Izc9Yu91ZGmRNEvjQ/SWBRKjysmCUmmd00rfaoTvhcCcKKe1aGckhxtvJUu+ks5FuUx3Q+x2EOTZmkwYq+k8Jv/RAEvD42kRIIBAKBQFchAGe4p64IqqGzcyE+TLmdAF2Q7oyqZz/lRyTTkEOV3kTIydGKs3ET9UCb+lPFyqY4lKNCpgwTSUnb4gAFibK2lgxwF3PMqjPNzSY+ZOOLFkQt8vIdqHQvYCuW0sW72B2b2JVKXOkEp3TI2o2/YsqSEvxdRJhkearHT3tSXr7FV/Xo7Ux4YJ5WG7XkCQJGmdMG9rdm68m8L1FKvOucqwsOYE7k6heDkGZTbVKdBDDzgQyA/JAQBPxDAIrkQCAQCAS6CQFIBMJcMyjaSVdcmUhVhtxMyYrRMsJ2Sah0OEgKUulQTTrfgXp5g7hk0tUrhKs3jy5IVnYIf4nTl0RSzCE7G+riypdXVZ6TV3OO+VtlK6CcYU0PIldvPyysNmTlOB4RZqUFeRQ7ShdFq3e40Pem1jPE7qZuiBaCpY1qH3obB6+2Inyu2UcKFPR/3jaGF22RO4QrUU+v/Bv+QF98RAM+tAJVzn39EAS8PjaREggEAoFAVyGQRFlHsUIumKOhsBSS45MIFdZT6JAlxAhNkc+TRLwFDmlwnhHR6BmyVYxbaFGkqFjMyZBpU8t9vA6RnjSvasqUNPSIWVmxfKuJg5NIzHeR4pveRNoopemEqigpZ2+vtxvS5seIASUMoap//Pn3vQJ3nKIy1jSjar08efVlZVP7iFM7JGO97T7n7ByuHFq2rHhlUx65X8mZjBYnTHjgWfPlUs3k8qMbvT9K8y9Rcu0QBLw2LhEbCAQCgUBXIgBZMLfry3ZEck4PEJB+hDR/CzWkd4/0BNFb5g3MXCdLkDC1UhfmXtRwJ7iZF4cuxVO/r7P1RH0HM7QIDTLjH9/jt+wApshkBk+14UhF07x5rkoVzzvPNFEMmuaA+RZDANqhn75NMnOyTq9sgu3BeyyV65Uon0pL9aKLcb6iWo0DfD9rGgjRUhMDDDbe8AGLyhJPTZA4DUkDDJVXHThhLTVl0qYBG4Qg4A3AiaRAIBAIBLoLgTQnujxPKVbxAwXgQhSnExhkQq9FbM56HQQwB8MopKNW5bUsR6kSu1ohI9GOurn5eLmuRGBiXfiQj6hWHLtEwlKjnhcKU+KS5mApljyXRYeZ0xRNYH4Vfy/M3S5ZXWGqjNcLqdMv5l5FpnCv16l2Si0zn+tezKoc0s5LOUPRnOfL9zCB57RsyuecM8Z0j2eYmHp0o3vkJTCPvNxHIjUIATt3xFJdLczTwqlXJzf1lOgr9aiOdPPnziUIuINE3AOBQCAQ6HoEMLvqJ8JIhmfYpUO7Ipes/x2C5nU1gcA3RZFcW4yESsX8W5dHs+fTJS9TNETjXKOHjkp0het2W5Gl6oCgWEPsORWB/kwDABGdyuE57VPEpKgyPJL5ljhWQRXonyrhJbVP+ekTAbWdzOQ4VuE8pnhVggD2dbk+z0v/UbtU7PpWuVJ91MGTqHf5mgYKitfAAXN49inPwVfZtITvFzkBCo9okW9tYcbq2u4yN6qaNEHuYwcHxov5JQh4BYt4CgQCgUCg+xEQE0CeBa0Hgvqc4dRruMGdqnTvePGiV0kRfXRyOHEhSSFMX94jAmZdL45LzNNCeJCRP6Ei9UMxE5PmfyFJiBVzMdndDUsPqSyfUvUKKT3Rs7I56ykPpEkmkR5FiE6KVGrT54XVNiW1xeCksQc2IVeUchULJ5qljUonHkLWQ2qjZ/Xvk4a7tRNzppqhauJR6XhHF6T+OTKRddN5VVKViscyUJ+esg/vucF27Npt703WrNwjhy93QEv1d65BwB0k4h4IBAKBQLciAGcpuJoV4bBBBGpOPKg45mBJTaq2IQJZVsBiMCcpLsqTyE4UpueOWs6LCNsuL5NaTRSlAtSdqs3UJEQM/UFpkHqiQmry3auU1sbODGGnbJTOgmg4yV8nWRiWtqiASDK1X3pXcYokjrSsEuar8Vxm0OH9p1E+H0wbUiioPnfyymKIpx+5zEHMzc6qs6z57l6RaVFKv65lXDnVw5rkgtrdK6IfLhfslht32N137bNPHPqIHTlxzk6dP2n9vX1pqZK3IfuobrmPfvRTnTasxMZTIBAIBAKBQBchAPmxXrVu9ZqO7UMiduhnmQF4QG8S0rOTnLMZKQq6OInx7DFZPj37PCnRivJY8mZ5vKyefR9pZUF7prhUnmI/cqCIfyFr0+qCqcEe49myfNzSO2VSH1ebnJ24NQrp5FmpMmul0lD1rINmIMDcbkuqmFORPIcGDSWZngcHB23TyLCVdRJUQ4dMTF6q6KjFlnuGv79umfNXPhRPgUAgEAgEAt2JQFJ/xWKPnKZ61+4i5JWksNKhlbUoY+2i10psGnxgetcMsnYNKZQSQdN/0mYuN218dtwtAoVSSfPBeFavj2QQ8LXyPyf6GQgEAtc8ApBEWu6zGgqItkO4nTvpK+SyOve1/NxBxIV2ssSvwKHEHpFyb0/ZTeEo5c4SqpVMVz4FAV+JR7wFAoFAINDVCGCKXjOs5t41M0Rk0rIZUKvM3QkZeVprLMNGHW48ULbkTEb+tUMQ8Nq4RGwgEAgEAl2KwDqm5XWiuxSE/0e3OkB17itVQbU+n7w+565k1tM6Q6Er8sRLIBAIBAKBQCAQCPyYEQgC/jEDGtUFAoFAIBAIBAI/CgL/Bw9JO3Oy6kL3AAAAAElFTkSuQmCC",
    "activeThemeId" : "e59eeb42-ccf0-4a36-bdf9-e630fdab686d",
    "audiateSessionId" : "",
    "firstMedia" : true,
    "hasNotifiedAboutHFRMedia" : true,
    "projectDuration" : "02:46"
  }
}
