{
  "title" : "",
  "description" : "",
  "author" : "",
  "targetLoudness" : -18.0,
  "shouldApplyLoudnessNormalization" : true,
  "videoFormatFrameRate" : 30,
  "audioFormatSampleRate" : 44100,
  "width" : 400.0,
  "height" : 475.0,
  "version" : "5.0",
  "editRate" : 30,
  "authoringClientName" :  {
    "name" : "Camtasia",
    "platform" : "Mac",
    "version" : "2021.0.12"
  },
  "sourceBin" : [
    {
      "id" : 1,
      "src" : "./media/1671646520.132751/06 - Visualizing Metrics with Clarity - 20221219.mp4",
      "rect" : [0, 0, 1920, 1080],
      "lastMod" : "20221219T163500",
      "loudnessNormalization" : true,
      "sourceTracks" : [
        {
          "range" : [0, 7056000],
          "type" : 0,
          "editRate" : 44100,
          "trackRect" : [0, 0, 1920, 1080],
          "sampleRate" : 30,
          "bitDepth" : 0,
          "numChannels" : 0,
          "integratedLUFS" : 100.0,
          "peakLevel" : -1.0,
          "metaData" : ""
        },
        {
          "range" : [0, 7056000],
          "type" : 2,
          "editRate" : 44100,
          "trackRect" : [0, 0, 0, 0],
          "sampleRate" : 44100,
          "bitDepth" : 0,
          "numChannels" : 2,
          "integratedLUFS" : -18.9897658672223,
          "peakLevel" : 0.950642228126526,
          "metaData" : ""
        }
      ],
      "metadata" : {
        "timeAdded" : "20221221T181453.565069"
      }
    }
  ],
  "timeline" : {
    "id" : 2,
    "sceneTrack" : {
      "scenes" : [
        {
          "csml" : {
            "tracks" : [
              {
                "trackIndex" : 0,
                "medias" : [
                  {
                    "id" : 3,
                    "_type" : "VMFile",
                    "src" : 1,
                    "trackNumber" : 0,
                    "attributes" : {
                      "ident" : "06 - Visualizing Metrics with Clarity - 20221219"
                    },
                    "parameters" : {
                      "translation1" : {
                        "type" : "double",
                        "defaultValue" : -6.19767483149913,
                        "interp" : "eioe"
                      },
                      "scale0" : {
                        "type" : "double",
                        "defaultValue" : 0.552988438490541,
                        "interp" : "eioe"
                      },
                      "scale1" : {
                        "type" : "double",
                        "defaultValue" : 0.552988438490541,
                        "interp" : "eioe"
                      },
                      "sourceCrop0" : {
                        "type" : "double",
                        "defaultValue" : 0.0,
                        "interp" : "eioe"
                      },
                      "sourceCrop1" : {
                        "type" : "double",
                        "defaultValue" : 0.0,
                        "interp" : "eioe"
                      },
                      "sourceCrop2" : {
                        "type" : "double",
                        "defaultValue" : 0.0,
                        "interp" : "eioe"
                      },
                      "sourceCrop3" : {
                        "type" : "double",
                        "defaultValue" : 0.0,
                        "interp" : "eioe"
                      },
                      "geometryCrop0" : {
                        "type" : "double",
                        "defaultValue" : 0.0,
                        "interp" : "eioe"
                      },
                      "geometryCrop1" : {
                        "type" : "double",
                        "defaultValue" : 0.0,
                        "interp" : "eioe"
                      },
                      "geometryCrop2" : {
                        "type" : "double",
                        "defaultValue" : 0.0,
                        "interp" : "eioe"
                      },
                      "geometryCrop3" : {
                        "type" : "double",
                        "defaultValue" : 0.0,
                        "interp" : "eioe"
                      }
                    },
                    "effects" : [

                    ],
                    "start" : 0,
                    "duration" : 4656,
                    "mediaStart" : 53,
                    "mediaDuration" : 4656,
                    "scalar" : 1,
                    "metadata" : {
                      "clipSpeedAttribute" : false,
                      "effectApplied" : "none"
                    },
                    "animationTracks" : {

                    }
                  }
                ]
              },
              {
                "trackIndex" : 1,
                "medias" : [
                  {
                    "id" : 4,
                    "_type" : "AMFile",
                    "src" : 1,
                    "trackNumber" : 1,
                    "attributes" : {
                      "ident" : "06 - Visualizing Metrics with Clarity - 20221219",
                      "gain" : 0.610053416749007,
                      "mixToMono" : false,
                      "loudnessNormalization" : true,
                      "sourceFileOffset" : 0
                    },
                      "channelNumber" : "0,1",
                    "effects" : [

                    ],
                    "start" : 22,
                    "duration" : 14,
                    "mediaStart" : 75,
                    "mediaDuration" : 14,
                    "scalar" : 1,
                    "metadata" : {
                      "clipSpeedAttribute" : false,
                      "effectApplied" : "none"
                    },
                    "animationTracks" : {

                    }
                  },
                  {
                    "id" : 5,
                    "_type" : "AMFile",
                    "src" : 1,
                    "trackNumber" : 1,
                    "attributes" : {
                      "ident" : "06 - Visualizing Metrics with Clarity - 20221219",
                      "gain" : 1.0,
                      "mixToMono" : false,
                      "loudnessNormalization" : true,
                      "sourceFileOffset" : 0
                    },
                      "channelNumber" : "0,1",
                    "effects" : [

                    ],
                    "start" : 52,
                    "duration" : 98,
                    "mediaStart" : 105,
                    "mediaDuration" : 98,
                    "scalar" : 1,
                    "metadata" : {
                      "clipSpeedAttribute" : false,
                      "effectApplied" : "none"
                    },
                    "animationTracks" : {

                    }
                  },
                  {
                    "id" : 6,
                    "_type" : "AMFile",
                    "src" : 1,
                    "trackNumber" : 1,
                    "attributes" : {
                      "ident" : "06 - Visualizing Metrics with Clarity - 20221219",
                      "gain" : 1.0,
                      "mixToMono" : false,
                      "loudnessNormalization" : true,
                      "sourceFileOffset" : 0
                    },
                      "channelNumber" : "0,1",
                    "effects" : [

                    ],
                    "start" : 158,
                    "duration" : 64,
                    "mediaStart" : 211,
                    "mediaDuration" : 64,
                    "scalar" : 1,
                    "metadata" : {
                      "clipSpeedAttribute" : false,
                      "effectApplied" : "none"
                    },
                    "animationTracks" : {

                    }
                  },
                  {
                    "id" : 7,
                    "_type" : "AMFile",
                    "src" : 1,
                    "trackNumber" : 1,
                    "attributes" : {
                      "ident" : "06 - Visualizing Metrics with Clarity - 20221219",
                      "gain" : 1.0,
                      "mixToMono" : false,
                      "loudnessNormalization" : true,
                      "sourceFileOffset" : 0
                    },
                      "channelNumber" : "0,1",
                    "effects" : [

                    ],
                    "start" : 244,
                    "duration" : 163,
                    "mediaStart" : 297,
                    "mediaDuration" : 163,
                    "scalar" : 1,
                    "metadata" : {
                      "clipSpeedAttribute" : false,
                      "effectApplied" : "none"
                    },
                    "animationTracks" : {

                    }
                  },
                  {
                    "id" : 8,
                    "_type" : "AMFile",
                    "src" : 1,
                    "trackNumber" : 1,
                    "attributes" : {
                      "ident" : "06 - Visualizing Metrics with Clarity - 20221219",
                      "gain" : 1.0,
                      "mixToMono" : false,
                      "loudnessNormalization" : true,
                      "sourceFileOffset" : 0
                    },
                      "channelNumber" : "0,1",
                    "effects" : [

                    ],
                    "start" : 421,
                    "duration" : 102,
                    "mediaStart" : 474,
                    "mediaDuration" : 102,
                    "scalar" : 1,
                    "metadata" : {
                      "clipSpeedAttribute" : false,
                      "effectApplied" : "none"
                    },
                    "animationTracks" : {

                    }
                  },
                  {
                    "id" : 9,
                    "_type" : "AMFile",
                    "src" : 1,
                    "trackNumber" : 1,
                    "attributes" : {
                      "ident" : "06 - Visualizing Metrics with Clarity - 20221219",
                      "gain" : 1.0,
                      "mixToMono" : false,
                      "loudnessNormalization" : true,
                      "sourceFileOffset" : 0
                    },
                      "channelNumber" : "0,1",
                    "effects" : [

                    ],
                    "start" : 532,
                    "duration" : 71,
                    "mediaStart" : 585,
                    "mediaDuration" : 71,
                    "scalar" : 1,
                    "metadata" : {
                      "clipSpeedAttribute" : false,
                      "effectApplied" : "none"
                    },
                    "animationTracks" : {

                    }
                  },
                  {
                    "id" : 10,
                    "_type" : "AMFile",
                    "src" : 1,
                    "trackNumber" : 1,
                    "attributes" : {
                      "ident" : "06 - Visualizing Metrics with Clarity - 20221219",
                      "gain" : 1.0,
                      "mixToMono" : false,
                      "loudnessNormalization" : true,
                      "sourceFileOffset" : 0
                    },
                      "channelNumber" : "0,1",
                    "effects" : [

                    ],
                    "start" : 616,
                    "duration" : 93,
                    "mediaStart" : 669,
                    "mediaDuration" : 93,
                    "scalar" : 1,
                    "metadata" : {
                      "clipSpeedAttribute" : false,
                      "effectApplied" : "none"
                    },
                    "animationTracks" : {

                    }
                  },
                  {
                    "id" : 11,
                    "_type" : "AMFile",
                    "src" : 1,
                    "trackNumber" : 1,
                    "attributes" : {
                      "ident" : "06 - Visualizing Metrics with Clarity - 20221219",
                      "gain" : 1.0,
                      "mixToMono" : false,
                      "loudnessNormalization" : true,
                      "sourceFileOffset" : 0
                    },
                      "channelNumber" : "0,1",
                    "effects" : [

                    ],
                    "start" : 718,
                    "duration" : 84,
                    "mediaStart" : 771,
                    "mediaDuration" : 84,
                    "scalar" : 1,
                    "metadata" : {
                      "clipSpeedAttribute" : false,
                      "effectApplied" : "none"
                    },
                    "animationTracks" : {

                    }
                  },
                  {
                    "id" : 12,
                    "_type" : "AMFile",
                    "src" : 1,
                    "trackNumber" : 1,
                    "attributes" : {
                      "ident" : "06 - Visualizing Metrics with Clarity - 20221219",
                      "gain" : 1.0,
                      "mixToMono" : false,
                      "loudnessNormalization" : true,
                      "sourceFileOffset" : 0
                    },
                      "channelNumber" : "0,1",
                    "effects" : [

                    ],
                    "start" : 820,
                    "duration" : 103,
                    "mediaStart" : 873,
                    "mediaDuration" : 103,
                    "scalar" : 1,
                    "metadata" : {
                      "clipSpeedAttribute" : false,
                      "effectApplied" : "none"
                    },
                    "animationTracks" : {

                    }
                  },
                  {
                    "id" : 13,
                    "_type" : "AMFile",
                    "src" : 1,
                    "trackNumber" : 1,
                    "attributes" : {
                      "ident" : "06 - Visualizing Metrics with Clarity - 20221219",
                      "gain" : 1.0,
                      "mixToMono" : false,
                      "loudnessNormalization" : true,
                      "sourceFileOffset" : 0
                    },
                      "channelNumber" : "0,1",
                    "effects" : [

                    ],
                    "start" : 930,
                    "duration" : 60,
                    "mediaStart" : 983,
                    "mediaDuration" : 60,
                    "scalar" : 1,
                    "metadata" : {
                      "clipSpeedAttribute" : false,
                      "effectApplied" : "none"
                    },
                    "animationTracks" : {

                    }
                  },
                  {
                    "id" : 14,
                    "_type" : "AMFile",
                    "src" : 1,
                    "trackNumber" : 1,
                    "attributes" : {
                      "ident" : "06 - Visualizing Metrics with Clarity - 20221219",
                      "gain" : 1.0,
                      "mixToMono" : false,
                      "loudnessNormalization" : true,
                      "sourceFileOffset" : 0
                    },
                      "channelNumber" : "0,1",
                    "effects" : [

                    ],
                    "start" : 999,
                    "duration" : 19,
                    "mediaStart" : 1052,
                    "mediaDuration" : 19,
                    "scalar" : 1,
                    "metadata" : {
                      "clipSpeedAttribute" : false,
                      "effectApplied" : "none"
                    },
                    "animationTracks" : {

                    }
                  },
                  {
                    "id" : 15,
                    "_type" : "AMFile",
                    "src" : 1,
                    "trackNumber" : 1,
                    "attributes" : {
                      "ident" : "06 - Visualizing Metrics with Clarity - 20221219",
                      "gain" : 1.0,
                      "mixToMono" : false,
                      "loudnessNormalization" : true,
                      "sourceFileOffset" : 0
                    },
                      "channelNumber" : "0,1",
                    "effects" : [

                    ],
                    "start" : 1027,
                    "duration" : 75,
                    "mediaStart" : 1080,
                    "mediaDuration" : 75,
                    "scalar" : 1,
                    "metadata" : {
                      "clipSpeedAttribute" : false,
                      "effectApplied" : "none"
                    },
                    "animationTracks" : {

                    }
                  },
                  {
                    "id" : 16,
                    "_type" : "AMFile",
                    "src" : 1,
                    "trackNumber" : 1,
                    "attributes" : {
                      "ident" : "06 - Visualizing Metrics with Clarity - 20221219",
                      "gain" : 1.0,
                      "mixToMono" : false,
                      "loudnessNormalization" : true,
                      "sourceFileOffset" : 0
                    },
                      "channelNumber" : "0,1",
                    "effects" : [

                    ],
                    "start" : 1123,
                    "duration" : 105,
                    "mediaStart" : 1176,
                    "mediaDuration" : 105,
                    "scalar" : 1,
                    "metadata" : {
                      "clipSpeedAttribute" : false,
                      "effectApplied" : "none"
                    },
                    "animationTracks" : {

                    }
                  },
                  {
                    "id" : 17,
                    "_type" : "AMFile",
                    "src" : 1,
                    "trackNumber" : 1,
                    "attributes" : {
                      "ident" : "06 - Visualizing Metrics with Clarity - 20221219",
                      "gain" : 1.0,
                      "mixToMono" : false,
                      "loudnessNormalization" : true,
                      "sourceFileOffset" : 0
                    },
                      "channelNumber" : "0,1",
                    "effects" : [

                    ],
                    "start" : 1235,
                    "duration" : 85,
                    "mediaStart" : 1288,
                    "mediaDuration" : 85,
                    "scalar" : 1,
                    "metadata" : {
                      "clipSpeedAttribute" : false,
                      "effectApplied" : "none"
                    },
                    "animationTracks" : {

                    }
                  },
                  {
                    "id" : 18,
                    "_type" : "AMFile",
                    "src" : 1,
                    "trackNumber" : 1,
                    "attributes" : {
                      "ident" : "06 - Visualizing Metrics with Clarity - 20221219",
                      "gain" : 1.0,
                      "mixToMono" : false,
                      "loudnessNormalization" : true,
                      "sourceFileOffset" : 0
                    },
                      "channelNumber" : "0,1",
                    "effects" : [

                    ],
                    "start" : 1329,
                    "duration" : 54,
                    "mediaStart" : 1382,
                    "mediaDuration" : 54,
                    "scalar" : 1,
                    "metadata" : {
                      "clipSpeedAttribute" : false,
                      "effectApplied" : "none"
                    },
                    "animationTracks" : {

                    }
                  },
                  {
                    "id" : 19,
                    "_type" : "AMFile",
                    "src" : 1,
                    "trackNumber" : 1,
                    "attributes" : {
                      "ident" : "06 - Visualizing Metrics with Clarity - 20221219",
                      "gain" : 1.0,
                      "mixToMono" : false,
                      "loudnessNormalization" : true,
                      "sourceFileOffset" : 0
                    },
                      "channelNumber" : "0,1",
                    "effects" : [

                    ],
                    "start" : 1397,
                    "duration" : 57,
                    "mediaStart" : 1450,
                    "mediaDuration" : 57,
                    "scalar" : 1,
                    "metadata" : {
                      "clipSpeedAttribute" : false,
                      "effectApplied" : "none"
                    },
                    "animationTracks" : {

                    }
                  },
                  {
                    "id" : 20,
                    "_type" : "AMFile",
                    "src" : 1,
                    "trackNumber" : 1,
                    "attributes" : {
                      "ident" : "06 - Visualizing Metrics with Clarity - 20221219",
                      "gain" : 1.0,
                      "mixToMono" : false,
                      "loudnessNormalization" : true,
                      "sourceFileOffset" : 0
                    },
                      "channelNumber" : "0,1",
                    "effects" : [

                    ],
                    "start" : 1462,
                    "duration" : 40,
                    "mediaStart" : 1515,
                    "mediaDuration" : 40,
                    "scalar" : 1,
                    "metadata" : {
                      "clipSpeedAttribute" : false,
                      "effectApplied" : "none"
                    },
                    "animationTracks" : {

                    }
                  },
                  {
                    "id" : 21,
                    "_type" : "AMFile",
                    "src" : 1,
                    "trackNumber" : 1,
                    "attributes" : {
                      "ident" : "06 - Visualizing Metrics with Clarity - 20221219",
                      "gain" : 1.0,
                      "mixToMono" : false,
                      "loudnessNormalization" : true,
                      "sourceFileOffset" : 0
                    },
                      "channelNumber" : "0,1",
                    "effects" : [

                    ],
                    "start" : 1535,
                    "duration" : 25,
                    "mediaStart" : 1588,
                    "mediaDuration" : 25,
                    "scalar" : 1,
                    "metadata" : {
                      "clipSpeedAttribute" : false,
                      "effectApplied" : "none"
                    },
                    "animationTracks" : {

                    }
                  },
                  {
                    "id" : 22,
                    "_type" : "AMFile",
                    "src" : 1,
                    "trackNumber" : 1,
                    "attributes" : {
                      "ident" : "06 - Visualizing Metrics with Clarity - 20221219",
                      "gain" : 1.0,
                      "mixToMono" : false,
                      "loudnessNormalization" : true,
                      "sourceFileOffset" : 0
                    },
                      "channelNumber" : "0,1",
                    "effects" : [

                    ],
                    "start" : 1567,
                    "duration" : 50,
                    "mediaStart" : 1620,
                    "mediaDuration" : 50,
                    "scalar" : 1,
                    "metadata" : {
                      "clipSpeedAttribute" : false,
                      "effectApplied" : "none"
                    },
                    "animationTracks" : {

                    }
                  },
                  {
                    "id" : 23,
                    "_type" : "AMFile",
                    "src" : 1,
                    "trackNumber" : 1,
                    "attributes" : {
                      "ident" : "06 - Visualizing Metrics with Clarity - 20221219",
                      "gain" : 1.0,
                      "mixToMono" : false,
                      "loudnessNormalization" : true,
                      "sourceFileOffset" : 0
                    },
                      "channelNumber" : "0,1",
                    "effects" : [

                    ],
                    "start" : 1634,
                    "duration" : 118,
                    "mediaStart" : 1687,
                    "mediaDuration" : 118,
                    "scalar" : 1,
                    "metadata" : {
                      "clipSpeedAttribute" : false,
                      "effectApplied" : "none"
                    },
                    "animationTracks" : {

                    }
                  },
                  {
                    "id" : 24,
                    "_type" : "AMFile",
                    "src" : 1,
                    "trackNumber" : 1,
                    "attributes" : {
                      "ident" : "06 - Visualizing Metrics with Clarity - 20221219",
                      "gain" : 1.0,
                      "mixToMono" : false,
                      "loudnessNormalization" : true,
                      "sourceFileOffset" : 0
                    },
                      "channelNumber" : "0,1",
                    "effects" : [

                    ],
                    "start" : 1774,
                    "duration" : 87,
                    "mediaStart" : 1827,
                    "mediaDuration" : 87,
                    "scalar" : 1,
                    "metadata" : {
                      "clipSpeedAttribute" : false,
                      "effectApplied" : "none"
                    },
                    "animationTracks" : {

                    }
                  },
                  {
                    "id" : 25,
                    "_type" : "AMFile",
                    "src" : 1,
                    "trackNumber" : 1,
                    "attributes" : {
                      "ident" : "06 - Visualizing Metrics with Clarity - 20221219",
                      "gain" : 1.0,
                      "mixToMono" : false,
                      "loudnessNormalization" : true,
                      "sourceFileOffset" : 0
                    },
                      "channelNumber" : "0,1",
                    "effects" : [

                    ],
                    "start" : 1873,
                    "duration" : 66,
                    "mediaStart" : 1926,
                    "mediaDuration" : 66,
                    "scalar" : 1,
                    "metadata" : {
                      "clipSpeedAttribute" : false,
                      "effectApplied" : "none"
                    },
                    "animationTracks" : {

                    }
                  },
                  {
                    "id" : 26,
                    "_type" : "AMFile",
                    "src" : 1,
                    "trackNumber" : 1,
                    "attributes" : {
                      "ident" : "06 - Visualizing Metrics with Clarity - 20221219",
                      "gain" : 1.0,
                      "mixToMono" : false,
                      "loudnessNormalization" : true,
                      "sourceFileOffset" : 0
                    },
                      "channelNumber" : "0,1",
                    "effects" : [

                    ],
                    "start" : 1963,
                    "duration" : 96,
                    "mediaStart" : 2016,
                    "mediaDuration" : 96,
                    "scalar" : 1,
                    "metadata" : {
                      "clipSpeedAttribute" : false,
                      "effectApplied" : "none"
                    },
                    "animationTracks" : {

                    }
                  },
                  {
                    "id" : 27,
                    "_type" : "AMFile",
                    "src" : 1,
                    "trackNumber" : 1,
                    "attributes" : {
                      "ident" : "06 - Visualizing Metrics with Clarity - 20221219",
                      "gain" : 1.0,
                      "mixToMono" : false,
                      "loudnessNormalization" : true,
                      "sourceFileOffset" : 0
                    },
                      "channelNumber" : "0,1",
                    "effects" : [

                    ],
                    "start" : 2072,
                    "duration" : 66,
                    "mediaStart" : 2125,
                    "mediaDuration" : 66,
                    "scalar" : 1,
                    "metadata" : {
                      "clipSpeedAttribute" : false,
                      "effectApplied" : "none"
                    },
                    "animationTracks" : {

                    }
                  },
                  {
                    "id" : 28,
                    "_type" : "AMFile",
                    "src" : 1,
                    "trackNumber" : 1,
                    "attributes" : {
                      "ident" : "06 - Visualizing Metrics with Clarity - 20221219",
                      "gain" : 1.0,
                      "mixToMono" : false,
                      "loudnessNormalization" : true,
                      "sourceFileOffset" : 0
                    },
                      "channelNumber" : "0,1",
                    "effects" : [

                    ],
                    "start" : 2144,
                    "duration" : 58,
                    "mediaStart" : 2197,
                    "mediaDuration" : 58,
                    "scalar" : 1,
                    "metadata" : {
                      "clipSpeedAttribute" : false,
                      "effectApplied" : "none"
                    },
                    "animationTracks" : {

                    }
                  },
                  {
                    "id" : 29,
                    "_type" : "AMFile",
                    "src" : 1,
                    "trackNumber" : 1,
                    "attributes" : {
                      "ident" : "06 - Visualizing Metrics with Clarity - 20221219",
                      "gain" : 1.0,
                      "mixToMono" : false,
                      "loudnessNormalization" : true,
                      "sourceFileOffset" : 0
                    },
                      "channelNumber" : "0,1",
                    "effects" : [

                    ],
                    "start" : 2231,
                    "duration" : 24,
                    "mediaStart" : 2284,
                    "mediaDuration" : 24,
                    "scalar" : 1,
                    "metadata" : {
                      "clipSpeedAttribute" : false,
                      "effectApplied" : "none"
                    },
                    "animationTracks" : {

                    }
                  },
                  {
                    "id" : 30,
                    "_type" : "AMFile",
                    "src" : 1,
                    "trackNumber" : 1,
                    "attributes" : {
                      "ident" : "06 - Visualizing Metrics with Clarity - 20221219",
                      "gain" : 1.0,
                      "mixToMono" : false,
                      "loudnessNormalization" : true,
                      "sourceFileOffset" : 0
                    },
                      "channelNumber" : "0,1",
                    "effects" : [

                    ],
                    "start" : 2270,
                    "duration" : 74,
                    "mediaStart" : 2323,
                    "mediaDuration" : 74,
                    "scalar" : 1,
                    "metadata" : {
                      "clipSpeedAttribute" : false,
                      "effectApplied" : "none"
                    },
                    "animationTracks" : {

                    }
                  },
                  {
                    "id" : 31,
                    "_type" : "AMFile",
                    "src" : 1,
                    "trackNumber" : 1,
                    "attributes" : {
                      "ident" : "06 - Visualizing Metrics with Clarity - 20221219",
                      "gain" : 1.0,
                      "mixToMono" : false,
                      "loudnessNormalization" : true,
                      "sourceFileOffset" : 0
                    },
                      "channelNumber" : "0,1",
                    "effects" : [

                    ],
                    "start" : 2353,
                    "duration" : 141,
                    "mediaStart" : 2406,
                    "mediaDuration" : 141,
                    "scalar" : 1,
                    "metadata" : {
                      "clipSpeedAttribute" : false,
                      "effectApplied" : "none"
                    },
                    "animationTracks" : {

                    }
                  },
                  {
                    "id" : 32,
                    "_type" : "AMFile",
                    "src" : 1,
                    "trackNumber" : 1,
                    "attributes" : {
                      "ident" : "06 - Visualizing Metrics with Clarity - 20221219",
                      "gain" : 1.0,
                      "mixToMono" : false,
                      "loudnessNormalization" : true,
                      "sourceFileOffset" : 0
                    },
                      "channelNumber" : "0,1",
                    "effects" : [

                    ],
                    "start" : 2508,
                    "duration" : 129,
                    "mediaStart" : 2561,
                    "mediaDuration" : 129,
                    "scalar" : 1,
                    "metadata" : {
                      "clipSpeedAttribute" : false,
                      "effectApplied" : "none"
                    },
                    "animationTracks" : {

                    }
                  },
                  {
                    "id" : 33,
                    "_type" : "AMFile",
                    "src" : 1,
                    "trackNumber" : 1,
                    "attributes" : {
                      "ident" : "06 - Visualizing Metrics with Clarity - 20221219",
                      "gain" : 1.0,
                      "mixToMono" : false,
                      "loudnessNormalization" : true,
                      "sourceFileOffset" : 0
                    },
                      "channelNumber" : "0,1",
                    "effects" : [

                    ],
                    "start" : 2652,
                    "duration" : 106,
                    "mediaStart" : 2705,
                    "mediaDuration" : 106,
                    "scalar" : 1,
                    "metadata" : {
                      "clipSpeedAttribute" : false,
                      "effectApplied" : "none"
                    },
                    "animationTracks" : {

                    }
                  },
                  {
                    "id" : 34,
                    "_type" : "AMFile",
                    "src" : 1,
                    "trackNumber" : 1,
                    "attributes" : {
                      "ident" : "06 - Visualizing Metrics with Clarity - 20221219",
                      "gain" : 1.0,
                      "mixToMono" : false,
                      "loudnessNormalization" : true,
                      "sourceFileOffset" : 0
                    },
                      "channelNumber" : "0,1",
                    "effects" : [

                    ],
                    "start" : 2764,
                    "duration" : 108,
                    "mediaStart" : 2817,
                    "mediaDuration" : 108,
                    "scalar" : 1,
                    "metadata" : {
                      "clipSpeedAttribute" : false,
                      "effectApplied" : "none"
                    },
                    "animationTracks" : {

                    }
                  },
                  {
                    "id" : 35,
                    "_type" : "AMFile",
                    "src" : 1,
                    "trackNumber" : 1,
                    "attributes" : {
                      "ident" : "06 - Visualizing Metrics with Clarity - 20221219",
                      "gain" : 1.0,
                      "mixToMono" : false,
                      "loudnessNormalization" : true,
                      "sourceFileOffset" : 0
                    },
                      "channelNumber" : "0,1",
                    "effects" : [

                    ],
                    "start" : 2910,
                    "duration" : 132,
                    "mediaStart" : 2963,
                    "mediaDuration" : 132,
                    "scalar" : 1,
                    "metadata" : {
                      "clipSpeedAttribute" : false,
                      "effectApplied" : "none"
                    },
                    "animationTracks" : {

                    }
                  },
                  {
                    "id" : 36,
                    "_type" : "AMFile",
                    "src" : 1,
                    "trackNumber" : 1,
                    "attributes" : {
                      "ident" : "06 - Visualizing Metrics with Clarity - 20221219",
                      "gain" : 1.0,
                      "mixToMono" : false,
                      "loudnessNormalization" : true,
                      "sourceFileOffset" : 0
                    },
                      "channelNumber" : "0,1",
                    "effects" : [

                    ],
                    "start" : 3054,
                    "duration" : 59,
                    "mediaStart" : 3107,
                    "mediaDuration" : 59,
                    "scalar" : 1,
                    "metadata" : {
                      "clipSpeedAttribute" : false,
                      "effectApplied" : "none"
                    },
                    "animationTracks" : {

                    }
                  },
                  {
                    "id" : 37,
                    "_type" : "AMFile",
                    "src" : 1,
                    "trackNumber" : 1,
                    "attributes" : {
                      "ident" : "06 - Visualizing Metrics with Clarity - 20221219",
                      "gain" : 1.0,
                      "mixToMono" : false,
                      "loudnessNormalization" : true,
                      "sourceFileOffset" : 0
                    },
                      "channelNumber" : "0,1",
                    "effects" : [

                    ],
                    "start" : 3124,
                    "duration" : 95,
                    "mediaStart" : 3177,
                    "mediaDuration" : 95,
                    "scalar" : 1,
                    "metadata" : {
                      "clipSpeedAttribute" : false,
                      "effectApplied" : "none"
                    },
                    "animationTracks" : {

                    }
                  },
                  {
                    "id" : 38,
                    "_type" : "AMFile",
                    "src" : 1,
                    "trackNumber" : 1,
                    "attributes" : {
                      "ident" : "06 - Visualizing Metrics with Clarity - 20221219",
                      "gain" : 1.0,
                      "mixToMono" : false,
                      "loudnessNormalization" : true,
                      "sourceFileOffset" : 0
                    },
                      "channelNumber" : "0,1",
                    "effects" : [

                    ],
                    "start" : 3226,
                    "duration" : 24,
                    "mediaStart" : 3279,
                    "mediaDuration" : 24,
                    "scalar" : 1,
                    "metadata" : {
                      "clipSpeedAttribute" : false,
                      "effectApplied" : "none"
                    },
                    "animationTracks" : {

                    }
                  },
                  {
                    "id" : 39,
                    "_type" : "AMFile",
                    "src" : 1,
                    "trackNumber" : 1,
                    "attributes" : {
                      "ident" : "06 - Visualizing Metrics with Clarity - 20221219",
                      "gain" : 1.0,
                      "mixToMono" : false,
                      "loudnessNormalization" : true,
                      "sourceFileOffset" : 0
                    },
                      "channelNumber" : "0,1",
                    "effects" : [

                    ],
                    "start" : 3262,
                    "duration" : 85,
                    "mediaStart" : 3315,
                    "mediaDuration" : 85,
                    "scalar" : 1,
                    "metadata" : {
                      "clipSpeedAttribute" : false,
                      "effectApplied" : "none"
                    },
                    "animationTracks" : {

                    }
                  },
                  {
                    "id" : 40,
                    "_type" : "AMFile",
                    "src" : 1,
                    "trackNumber" : 1,
                    "attributes" : {
                      "ident" : "06 - Visualizing Metrics with Clarity - 20221219",
                      "gain" : 1.0,
                      "mixToMono" : false,
                      "loudnessNormalization" : true,
                      "sourceFileOffset" : 0
                    },
                      "channelNumber" : "0,1",
                    "effects" : [

                    ],
                    "start" : 3359,
                    "duration" : 87,
                    "mediaStart" : 3412,
                    "mediaDuration" : 87,
                    "scalar" : 1,
                    "metadata" : {
                      "clipSpeedAttribute" : false,
                      "effectApplied" : "none"
                    },
                    "animationTracks" : {

                    }
                  },
                  {
                    "id" : 41,
                    "_type" : "AMFile",
                    "src" : 1,
                    "trackNumber" : 1,
                    "attributes" : {
                      "ident" : "06 - Visualizing Metrics with Clarity - 20221219",
                      "gain" : 1.0,
                      "mixToMono" : false,
                      "loudnessNormalization" : true,
                      "sourceFileOffset" : 0
                    },
                      "channelNumber" : "0,1",
                    "effects" : [

                    ],
                    "start" : 3457,
                    "duration" : 51,
                    "mediaStart" : 3510,
                    "mediaDuration" : 51,
                    "scalar" : 1,
                    "metadata" : {
                      "clipSpeedAttribute" : false,
                      "effectApplied" : "none"
                    },
                    "animationTracks" : {

                    }
                  },
                  {
                    "id" : 42,
                    "_type" : "AMFile",
                    "src" : 1,
                    "trackNumber" : 1,
                    "attributes" : {
                      "ident" : "06 - Visualizing Metrics with Clarity - 20221219",
                      "gain" : 1.0,
                      "mixToMono" : false,
                      "loudnessNormalization" : true,
                      "sourceFileOffset" : 0
                    },
                      "channelNumber" : "0,1",
                    "effects" : [

                    ],
                    "start" : 3514,
                    "duration" : 51,
                    "mediaStart" : 3567,
                    "mediaDuration" : 51,
                    "scalar" : 1,
                    "metadata" : {
                      "clipSpeedAttribute" : false,
                      "effectApplied" : "none"
                    },
                    "animationTracks" : {

                    }
                  },
                  {
                    "id" : 43,
                    "_type" : "AMFile",
                    "src" : 1,
                    "trackNumber" : 1,
                    "attributes" : {
                      "ident" : "06 - Visualizing Metrics with Clarity - 20221219",
                      "gain" : 1.0,
                      "mixToMono" : false,
                      "loudnessNormalization" : true,
                      "sourceFileOffset" : 0
                    },
                      "channelNumber" : "0,1",
                    "effects" : [

                    ],
                    "start" : 3592,
                    "duration" : 131,
                    "mediaStart" : 3645,
                    "mediaDuration" : 131,
                    "scalar" : 1,
                    "metadata" : {
                      "clipSpeedAttribute" : false,
                      "effectApplied" : "none"
                    },
                    "animationTracks" : {

                    }
                  },
                  {
                    "id" : 44,
                    "_type" : "AMFile",
                    "src" : 1,
                    "trackNumber" : 1,
                    "attributes" : {
                      "ident" : "06 - Visualizing Metrics with Clarity - 20221219",
                      "gain" : 1.0,
                      "mixToMono" : false,
                      "loudnessNormalization" : true,
                      "sourceFileOffset" : 0
                    },
                      "channelNumber" : "0,1",
                    "effects" : [

                    ],
                    "start" : 3731,
                    "duration" : 36,
                    "mediaStart" : 3784,
                    "mediaDuration" : 36,
                    "scalar" : 1,
                    "metadata" : {
                      "clipSpeedAttribute" : false,
                      "effectApplied" : "none"
                    },
                    "animationTracks" : {

                    }
                  },
                  {
                    "id" : 45,
                    "_type" : "AMFile",
                    "src" : 1,
                    "trackNumber" : 1,
                    "attributes" : {
                      "ident" : "06 - Visualizing Metrics with Clarity - 20221219",
                      "gain" : 1.0,
                      "mixToMono" : false,
                      "loudnessNormalization" : true,
                      "sourceFileOffset" : 0
                    },
                      "channelNumber" : "0,1",
                    "effects" : [

                    ],
                    "start" : 3775,
                    "duration" : 150,
                    "mediaStart" : 3828,
                    "mediaDuration" : 150,
                    "scalar" : 1,
                    "metadata" : {
                      "clipSpeedAttribute" : false,
                      "effectApplied" : "none"
                    },
                    "animationTracks" : {

                    }
                  },
                  {
                    "id" : 46,
                    "_type" : "AMFile",
                    "src" : 1,
                    "trackNumber" : 1,
                    "attributes" : {
                      "ident" : "06 - Visualizing Metrics with Clarity - 20221219",
                      "gain" : 1.0,
                      "mixToMono" : false,
                      "loudnessNormalization" : true,
                      "sourceFileOffset" : 0
                    },
                      "channelNumber" : "0,1",
                    "effects" : [

                    ],
                    "start" : 3933,
                    "duration" : 67,
                    "mediaStart" : 3986,
                    "mediaDuration" : 67,
                    "scalar" : 1,
                    "metadata" : {
                      "clipSpeedAttribute" : false,
                      "effectApplied" : "none"
                    },
                    "animationTracks" : {

                    }
                  },
                  {
                    "id" : 47,
                    "_type" : "AMFile",
                    "src" : 1,
                    "trackNumber" : 1,
                    "attributes" : {
                      "ident" : "06 - Visualizing Metrics with Clarity - 20221219",
                      "gain" : 1.0,
                      "mixToMono" : false,
                      "loudnessNormalization" : true,
                      "sourceFileOffset" : 0
                    },
                      "channelNumber" : "0,1",
                    "effects" : [

                    ],
                    "start" : 4025,
                    "duration" : 169,
                    "mediaStart" : 4078,
                    "mediaDuration" : 169,
                    "scalar" : 1,
                    "metadata" : {
                      "clipSpeedAttribute" : false,
                      "effectApplied" : "none"
                    },
                    "animationTracks" : {

                    }
                  },
                  {
                    "id" : 48,
                    "_type" : "AMFile",
                    "src" : 1,
                    "trackNumber" : 1,
                    "attributes" : {
                      "ident" : "06 - Visualizing Metrics with Clarity - 20221219",
                      "gain" : 1.0,
                      "mixToMono" : false,
                      "loudnessNormalization" : true,
                      "sourceFileOffset" : 0
                    },
                      "channelNumber" : "0,1",
                    "effects" : [

                    ],
                    "start" : 4211,
                    "duration" : 87,
                    "mediaStart" : 4264,
                    "mediaDuration" : 87,
                    "scalar" : 1,
                    "metadata" : {
                      "clipSpeedAttribute" : false,
                      "effectApplied" : "none"
                    },
                    "animationTracks" : {

                    }
                  },
                  {
                    "id" : 49,
                    "_type" : "AMFile",
                    "src" : 1,
                    "trackNumber" : 1,
                    "attributes" : {
                      "ident" : "06 - Visualizing Metrics with Clarity - 20221219",
                      "gain" : 1.0,
                      "mixToMono" : false,
                      "loudnessNormalization" : true,
                      "sourceFileOffset" : 0
                    },
                      "channelNumber" : "0,1",
                    "effects" : [

                    ],
                    "start" : 4305,
                    "duration" : 59,
                    "mediaStart" : 4358,
                    "mediaDuration" : 59,
                    "scalar" : 1,
                    "metadata" : {
                      "clipSpeedAttribute" : false,
                      "effectApplied" : "none"
                    },
                    "animationTracks" : {

                    }
                  },
                  {
                    "id" : 50,
                    "_type" : "AMFile",
                    "src" : 1,
                    "trackNumber" : 1,
                    "attributes" : {
                      "ident" : "06 - Visualizing Metrics with Clarity - 20221219",
                      "gain" : 0.510601194642411,
                      "mixToMono" : false,
                      "loudnessNormalization" : true,
                      "sourceFileOffset" : 0
                    },
                      "channelNumber" : "0,1",
                    "effects" : [

                    ],
                    "start" : 4364,
                    "duration" : 12,
                    "mediaStart" : 4417,
                    "mediaDuration" : 12,
                    "scalar" : 1,
                    "metadata" : {
                      "clipSpeedAttribute" : false,
                      "effectApplied" : "NoiseReduction"
                    },
                    "animationTracks" : {

                    }
                  },
                  {
                    "id" : 51,
                    "_type" : "AMFile",
                    "src" : 1,
                    "trackNumber" : 1,
                    "attributes" : {
                      "ident" : "06 - Visualizing Metrics with Clarity - 20221219",
                      "gain" : 1.0,
                      "mixToMono" : false,
                      "loudnessNormalization" : true,
                      "sourceFileOffset" : 0
                    },
                      "channelNumber" : "0,1",
                    "effects" : [

                    ],
                    "start" : 4390,
                    "duration" : 41,
                    "mediaStart" : 4443,
                    "mediaDuration" : 41,
                    "scalar" : 1,
                    "metadata" : {
                      "clipSpeedAttribute" : false,
                      "effectApplied" : "none"
                    },
                    "animationTracks" : {

                    }
                  },
                  {
                    "id" : 52,
                    "_type" : "AMFile",
                    "src" : 1,
                    "trackNumber" : 1,
                    "attributes" : {
                      "ident" : "06 - Visualizing Metrics with Clarity - 20221219",
                      "gain" : 1.0,
                      "mixToMono" : false,
                      "loudnessNormalization" : true,
                      "sourceFileOffset" : 0
                    },
                      "channelNumber" : "0,1",
                    "effects" : [

                    ],
                    "start" : 4438,
                    "duration" : 67,
                    "mediaStart" : 4491,
                    "mediaDuration" : 67,
                    "scalar" : 1,
                    "metadata" : {
                      "clipSpeedAttribute" : false,
                      "effectApplied" : "none"
                    },
                    "animationTracks" : {

                    }
                  },
                  {
                    "id" : 53,
                    "_type" : "AMFile",
                    "src" : 1,
                    "trackNumber" : 1,
                    "attributes" : {
                      "ident" : "06 - Visualizing Metrics with Clarity - 20221219",
                      "gain" : 1.0,
                      "mixToMono" : false,
                      "loudnessNormalization" : true,
                      "sourceFileOffset" : 0
                    },
                      "channelNumber" : "0,1",
                    "effects" : [

                    ],
                    "start" : 4534,
                    "duration" : 85,
                    "mediaStart" : 4587,
                    "mediaDuration" : 85,
                    "scalar" : 1,
                    "metadata" : {
                      "clipSpeedAttribute" : false,
                      "effectApplied" : "none"
                    },
                    "animationTracks" : {

                    }
                  }
                ]
              }            ]
          }
        }
      ]
    },
    "trackAttributes" : [
      {
        "ident" : "",
        "audioMuted" : false,
        "videoHidden" : false,
        "magnetic" : false,
        "matte" : 0,
        "solo" : false,
        "metadata" : {
          "IsLocked" : "False",
          "trackHeight" : "54"
        }
      },
      {
        "ident" : "",
        "audioMuted" : false,
        "videoHidden" : false,
        "magnetic" : false,
        "matte" : 0,
        "solo" : false,
        "metadata" : {
          "IsLocked" : "False",
          "trackHeight" : "54"
        }
      }
    ],
    "captionAttributes" : {
      "enabled" : true,
      "fontName" : "Arial",
      "fontSize" : 32,
      "backgroundColor" : [ 0, 0, 0, 204],
      "foregroundColor" : [ 255, 255, 255, 255],
      "lang" : "en",
      "alignment" : 0,
      "defaultFontSize" : true,
      "opacity" : 0.5,
      "backgroundEnabled" : true,
      "backgroundOnlyAroundText" : true
    },
    "gain" : 1.0,
    "legacyAttenuateAudioMix" : false,
    "backgroundColor" : [ 0, 0, 0, 255]
  },
  "metadata" : {
    "ProjectThumbnail" : "iVBORw0KGgoAAAANSUhEUgAAAOMAAAENCAYAAAD9t9IKAAAAAXNSR0IArs4c6QAAAERlWElmTU0AKgAAAAgAAYdpAAQAAAABAAAAGgAAAAAAA6ABAAMAAAABAAEAAKACAAQAAAABAAAA46ADAAQAAAABAAABDQAAAADq2697AABAAElEQVR4AYS92Y+t2Xmf91XVrumcOqdPj2xJlhIbkEFbEmVJiBEjjmPBiGEEBowggw3HMQwDyUVymX/ITuDAvjA8JEJsCYEvBLEZskWKikWKFEWKbDbJVs9nrHFXnuf3W2vvfbolZVXt/a1vrXde77umb9h7/8v//D/e3i783S7L/t5Cbr0sy96yt7fP0WwKm0/5gAnWKN4cIJIEjgncfYqknTRJ7d1Szsk834ERdA9BBoWB6GEPOspmGgRDYxJpqeKKe7vLNDgWrpfbAVAOk07hq3/ze8IlhdpzOWmv4RI5I/ugMzB2D9oWiv3calPzta08MAUlfG34UZ0Syqa6Fo2EFWZ2Jzdl3QBtYGqNnqrfp1MLN1SRY3/ajsKaeGuDT+M/X1JfQq/ok7PoOM+38sjRNi3nqi8fNZQxuYj2CfkCMepKogIAtvWP4mx8OBDl02/ryUW5lniaVKbJ7pOveLNywOwcymmnYGSjQ/IDl3jS56a+E2NStm71V//in1/WOiml+7SWeYXcPzhIcO7t4zgKjbQlZF4v8XwKy+meeBxnAkxj7E8HHEa/HtIfJtgb+styAK3KYLVOXoeVoB/4IMft+oo8adASZi8ylI5iasC4fOiFWlD28Prb9TAR9OscN8Ff36jLWimWm53GMNuAuUUCpdhbbviDDN8HMova6zWhKcBOmiIqk9KFM7ZAEzDhpJwiaTbwb6UF/jShtt7js7ELsNKkhfIRTjmih3RklKSsWMBTPhuHlB/UY9oBV27oQVqHOHlwVkGkljJ5HBzoA7b5p9OwKBW1+w05ceLIWMl620i928lWzk3gyNeUYlvODGUWq5cHPqoXC7UImqMmqkId/9N3a0XsjL/sWjSk0vPtLdep0bbSUL7y2NhyMFQa69W8/MwMAayBgDDVlcxI6pw2xxD+GVdaNfFFW5fbAE4cIPftwbJ6/OxZG0IQKhQwzbmPo2LM8lZqG4bjGhX3bEAZaHpTpG9251tj7O0XVoeTeHwGcE0FyZ4jiELPFCOGMaXyNB+h4QeBCSvXA+rXUbq0Aop8otWM0tBg+8vNzTqGq0Pq1tfU6eR+NAgyHjRIpjTBzUlL5G3ZGh6GWNpXwaNTNdB+0ZdT+yL1EQesHpElDUSZjhq7FqAExvd+TLZebrDdvp0i/BL9Hkk3dCIHdJoJsxYpHbYF1gAaNix/AWxTpLOd03aWiR+Lp10t0SlDziZSBnWjTAmeT+oFACmdFsdyUQa857ZubzulvdOGQniGpBgvIooX/wCSgiENtNVG3aWgL9KGYlIeuwfcOtD4JDj0N8vlAdDt+jq14k69MFtSTd6Aakn9JHloyL1JI5BzQMAY4cWp7bbiWN4czZAEtc7O39SBjYEk8qjzAGxtvv1aHR/puCLBxEaSAI5W8CoU8uEYE1LX4OmxtKRfOj0PPeB2Uw0o/eFYYatxd4UbGBQF3lOJ8ykcuMBrKJv0YI/el4bUJSTTpsRE5ONwt6PD2FslaB1trDNFbZ1ReXQqHSJtKX3x/baKXIFTIrp9sJSnpYTbtfFoh0HBWut1UAKSylVGGwqJ1klbmOQjI5ogu1n61Pa+nGycinLrDnC+diaDf0WOLXYF0jnskLR8Rw0tNvTUwXaE1xQ3KLki0OGSP3XW3s8pRFkMlqPUtIsl8CKA1nTcJtuEPi7yKsCQAp6EFnDyM+huM4sasoiqggPfnLQPlZPyzBis47zdRFsrs43oIh3hJKQfF9Zzwjv41syP9JMPoPJYgr0VODWFaHmqAqEF7TRNWQJxrtibfGhAJcSt+6OC0Up8wt41AEJPD0JcVdwm8sNQ4WTFFBrGQnZKtYNBoZOUSWUe63zAZchAC3jGdlvU5BwxdPbIoXJqmBZFfbLWODLVEevQt1glDiNmLBJSfE2DDudLL6zglkulqqdhM/IX7yYNWeMJo47RA4FDHtvpbza68kRGUVWoQpKtJcXUgQxecZwaS8y+HmDqZlCaT5GU0sOmXheXP3AbitC2yQxwKlIONsfSgnzSlMtWnR2tHWnMIq+ED1ywS0a6BK1CUha6gMD7Rv6xWchGfnPSD5lRTEn6tUikgNAwuD0/QPlrzQ7xfeVe58RKajmn64m8OwSjk3aM/oNX4KUjoB9xq72yqnv0TR1LC0rSFtCRb7HSBQCpRbHZ4CH+rK/n1G8ABI4aK4ENHLA3diiUVRPy0bXco1XowUNb+K9wpuRt/6YMIfZO+4wcOmenHRpdDD9VcN+p6WiktaNNGEAthFXUluN8Jx3YcJbl33oqVViYfOFYA6SVAlQlZtDkOd8Aa2zr+KSM7AxXzg1e5gNUIXv4mZs48NTZo1N1k9MNeqSBp2E5OnpIPpJAyN5dGLBhku/YJs194Lf0sBEw01HjTOoJIdX3GJqjFTLeWLZbnzzuiMiBlxdOE72CbTn6MaWvBctXKxSeY7vfyiwOzMu/QhwcsBpUBv81PLJXJApgXGd1r2DXBuRBN2YcXesXcpVMaRnE5JKkeztmI9LJ4KqAcVjwIdRJwQ0jCkShbeqh9Kpfy3e/J+/Jy7pZlvwkFqRJRehBFzkmrtq7PzD/hNltN0mlw1L25IEkmz2QQSSdIHQSxJRNWfSJ6JMv8GSGB+3bC7eGI1CeMjuYaaXBKB+EZNgeOIUD0V5DoSXkQrnOJ8QkjpGlqLQ7yfo0DMVzOjIFDliUJCeaH0fLkQyk4HMuWasNLT2jfCdSSgPgskrnWwsD0u0Y9a08sLPYSXLSGBtqsZjW8yNtD2jOdrAduPn+mQeGf8+7nhHAqRm2o/e7dS0qjTIgL7wyBW3QAiVp8At9GozRXTjlXxN4chFrLx7s5g9tgaxuGg2L4Oci+C8t/b52lG825KhzUmF99S2cJf5JX4dKCHqUngkw27p0LQ/F0B9St12B1yTSM9kGKpHAHPTS/rag5wSmgb22TXZwIwHnwQ+JmQ9xSW9T9NmehvfQO3lliRztKJyaJ9hAiQ+mPSRSmRNkMVvP1dS/6I5y7v5bczAuD6Qm9tjK0A5ZKGHtuNUPIShKzJBRt1IyU9gAAL2yeWeAiJCKAJH31AABR8LpMalrDymxaUyZ2JRtasVrszEdQHgbNzwkJX9SDpCwTjZJKOxIbsokFXmqlm4nDa01FShUyjRKtATKHjgD94ZQ5Y5sA46qW2lp4Agy5JPkkMbi6RTp2oacUq2e6l6Y2k/ZsAHMD5hlOJZmmHNKNPmAHLpjBAOBJEUFAtdgHnhsdCM3mw+SJWkHyCTndzd0Si/TXkdR6/nKLIfz9ZrRB5qpiDLwiA3tjZEfHuI4FXVdqvHjQGFa2+hUJjthWyMCyYOcuHP9lyrKsqMJz+kraV15UJcv+IcLyOsVsqGUXU4TPKetigGP2mbSn5AebfNNgCFJ7TMhoEXHZr2S651aK35sHv62W9wbFs78lFGdTM6G1iGYsIv/2R+K2g4XaHQJVW1skoBJGHvwEBeicNqZitanHajyVBBgWKOrhEaw1AYSdiIBJRKHGl0jGxYaoXh0GZwD4HQudAAH3cSEJArpe5KP4Q0WuQemwSO+DZSGAMsqd0mdRlqOR426Uo1AwgO7uOsLveiODPa6NmA7DPDS+EpP4xvp6oLMzcIrelcCocIPNoDlk6miJ0lyVFbkxm5OuTJaaDeDSVtpT4TJ6DJ6YxtPhaOjuoeGBC03UTbKYwnywyKY37w45TxtG6zo3TZLcMJ3I6GqZqpQ3DgO8skmdpDD4BP6iuDwGVkVqfzkaxvblvJ206Uce26QNg0pY2/lqMS2/dw7UFvLtYPlBmxsMiqe0004YOITAotoWdrLU9ozM7wIFXsbdPXGlgUKHk1ghAZtZqcHnUo8SA+6ARKORe5BZonop50UIfhwyRFLU6D2bSNky8lkV/vlkhXwjqyqea1PSMs/8fHZqk+HmJEEKm2YreDAkhA4RyI/DWsJMBTq8DWmZGnDoBY+TolyOuG+6xT+RE8agqRlDWjrkMbqNCv1lpp39DLobVpF7iWVkok6yBG5hXNLy/PgOTQK4SFUCWz4rKBDuY1mUv4toDz4Aym9GlIoV3rHIbt1pdtGQLRsxqSMvOvS2aFJP0mkrMwF1lnkbUOVWGgGMBoPlNalOW/Ak6yy2jnVE4CzQ9mxN/S0ZeDkoANbMnptfW1aJNcNAy/GLB/VkU1bWi4SH/KdHntGD24VKZ0v5w2CiJk2cxsNQYNXvxJaWYdM4mIr9xTmyNVLG1YICzSwaZ+NHC2P49uWAM7LPbJa21g2LifVyhHXEUtZxFUna+hE9tEAOGn4P1tlRlPICJtOyLYWT0Ag1aFsEoTp/GNrSKWdaAfaOcNIyANMJ3dr0IEfiZQHWJnv7x/l6NlKhweHVMNsnSOF0SObM2JTKR2FDbwHdOypI1Q4NEBkVEB5Dh4izGRhXVKqmldj3Hhhn3IvVth4uVOH+hhhoFKcIGhQyUdF+VQRaOmUlStTxIG3tvEV2ES97beRbOBakmQHBcHpQDChWATxyefUZtTW2k5YdbBsS6xgo0FT7BcOUQIbeunxQ42inWTrhOPQcbQAENLRarWNugvbALGKguBITG5IJQoCK9+8QK7M1YJKZE/jAmgM60DhF8SOdqWh1uVnQLhLaFtkNiCG1QJKMpCD8SiWv38mR28niDfSSGfVds/mnwDYfcIOYsWkXN8wYEGDP1ZyvV2GUq49FAZYacdPkKvXN6EaEWOZwEffIfehJRlB5KOFJOylKfWTF6eUqUX9z7OeW6jMK4LQwTttq7zRjwLqQw266RwkQgGLG4VqENXxqPhUqoE7BURxt+VDKFylDYN8D0yYcG4vlgSsO0/iq3AQlGYklRFSZ7IHtmoaLj1hDFTcyDhIBHDSAHeSFMZ8adoXjRMOMReVoaMHWyV9ahpQNJpTTSMg9Y5AmQ9RQLmtzf+cduRk0GjglKYwpdpjNJwF1FRjEGdSZuy0m5Rr/xCqyEE3FULaZUu4uhkK4ZqvSlTnMQ9+cJA99K/QB7q0efWG3LBDbEMbWR58+5YhkPIOMMqGIhRIc9MJAWzzQhzE4fycFqbCKUp8jkNohhrtjjz77E6Ll5qRjYYJCsurlfycFRgU6QghKtl8h7cnwlKaduRUH+c0ukGqox1wJss5qJ+f5FscHoJs5ILqAWtddZK//tlBQRBuIyE2vMgffUadnUU6/iGn0dZZzWxzJAd2lemM3BVBLPM2RrJ+aQ4KJShxjjE2hyRhyaisqOb9ykiGQRKQ1Hl9SWEhEfwYToUC36M4qebbaa9CwxSYcBi0lEUXK48DcJJCuPjX8CmKeOEARTcrxOo61EbJR46SkA7KKe+0iR2HI4g7bZ2CqmunwFkHQS9sKc2upYJoOJK0myFf8acoFOsh0YBjmBd04uSsNTa6lk0QwsyZcFXSnuprMAxeAy+HiGFAGKitl+saWOF11KL1KERu61OuCDyFLtHAR2bPq2McOtkGU1R3IbfZEfaaoZRnZyaunYBHEscpm7noaXmNag78rW3bXuqgBMrtiKpWlgHHJx27dhKXOuEcNWfQHuBPseVop2iJQLJU7eGRYMlbyqQIbCX0V20AYetPyueJ9f4jD9OKtAl49i841SDBhlq0FNxRHPlhrN6CZTUzGzMNDQEFsTPSkNmNA0l+oavQg7hwdiVRwHJO/Xiuwr02KT0rNQl/t5e2FfK5lmxyV01d1KMbAvIFBqbRcTSOhm2ax8o0CjkUYupjwxdFeTQQasOD/0DOxq2lKFTMQVp903uleFR4sJdAqHY2tZWIGtS/1cEhtNnkSK8FnI5hHjQq8pF2h16OSRaYJr2eVUrlRf5MbYFABqG1esdDOY8OhtxMhRGYnHJbwddsz57CbygcW2v0UK+FmhdSaugSwec55EI3lCHctqolgKHY1kgtdm8nWDk2sknqE6md96BpHUxym6JZqfEvtXSatOkVs5aNHHY8G98soDgNlsoirO40O35ZhLJ8aNfOEoYfxe+wNALbAkHERnsGOafquuaWP6ts48iRa0jSUkrLmOtBQJ11aqXY95Kbm0gUHcTxLXVHW8EoldCKABHNqkBysDwlHgcg2cIIDTHZGnxhSH7D1F6RdpWG/ugkdO/ABatlYKGsdemp7Dwdy71hFsgbtvVvMO6BO5ahIX2VEa6BMhmGrwGCfLqRNEIzwBaQ5K+xmYLatfrn1r+NImz6UMqHLSEhsr0eB3U0iilKR28ROA1mG1snEB4ZMypAJwNoBcjmgvygJ5i8I3Mw+DLZqVk5KtQjPK3zRNmpjBMBZ1O0DBRww91goiLNFFhxQjpkIZHOKBIAVHYSz3hPs1WuOLT4g5bwwRFBaBlQ5noxdhbOCqqRoG3AMTvN0MyU/nb6luWAQktqpdVzqWTGQY2saidLheRc4uTLjbZJexZOkLm1VDGLY/nKjlhU8dUx9oLKBFEf5eEo7uQXAM5jlRKlT6EVyQcFSIlGrLFRJhsxypCsviHF8CzsPr4lD/WwVjGkucr6iDOHU/0tVCKbQCJQIvQn0uzBdLEoIclNo5D3FHoaPdMKnNNg8MZmW0uSlptJYOopIMy1jCOnt4pFUYCUo9ZDBU+GJSURImFWuoNolM00BhmcbBvKcb3AQplye7S1PRaE9GUbfDqIdOSc+0grgXsvSbhYSuQ/mgNcqItvL0m5NE2jCwFeZJUvkcCoB727cqVXRjmdLIEQWGSIqLWBgW8jqn9laEdgo26SJIWRjnTrxUBYMWgjY2w9HENslxGJlNFrhxftlk00ZNBXil9efs9OSI6hoa2TsbL11Qs/hn5u9QamwehOLDwjZMBrB/FsjKQS83vDqztvsZF+aB2VqCuOxEyDRxdr5Sdd4ewNkmqf6DSmu7NGfDv/uXkzRAyW/i7TGVCdQcqPMqvMmDjeErwju/EDlwoBlMcWdKwZgwcxwQ0K0y73lmyYlBmiSNSPNx6CUOEoGiSmUOEXoyUHHAKCV3NTZjHn4Z8Tz9u48cTwj5bhEUXQWvpBpcpm7q5vcUWJYXAgbR+ZhhG9nhaHYdR1L8pgyp02kduvGjAOr35hIkVSYDhu5B+0LUojq93WjlKawSCy082pU9n5DYNr8G6vlus4hbacPTB5yjJaYTAvS+ioFYNvWtN8WbcNFNdAg9kmqfpM1ougvNti7Bki1lpKPYd84Be+iB7ngljw5E1+trNms6Y3GhSmbSRtrCo9ZyWyiBDmJw0AoGU3FZwAKYrdDJ4BfGkBL07EHO1UaWuDEm4JTA2caANO8akaKaM68NpaStkrADg6aR9pgZ+UAyUKQj5yixOYytHRj8LYhaMy96vHQUrRIeA3+C0UjuVoC1OTDptz621ImaaC7BRKsulpxVQIlB2wAbXnDh6YIg+mCj9T85xPvGFTBRIqrKCh0b0cIViUR0n/sjUtb2nSwjaMeCXokTOIdKQb+QHhHH0atLeeYY7wgB6Muk4Mx2V1CH89aPSuUt4kDZ4TmZs3wKHhekJekOBbJeKETtmyShCcP13E797nCzhBlrtceOTn6eOnkfH4+HC5c+eUukMel7perq4ul+vry8i0z8xhteo1qt4apxjKCwMFg593P8Wi8qSu62a4YhtlSzCqX3QEcmNIYRQd29t3iK8N+A8OcCmTOmWm3PeqziCOsbu8bYf4i3Q6ipeQ2pMg5IBsctqrXUpcCckP56om8m15OwHgFZRkuX8z5Uy+CJg1IxXFmTDzKDJ0mBrW/tgwgSiqZcDNaa6gGxuhs7JrZ8WkrsFNhtTpNqYNPnXCDLhyHvzBn3Jnb0hkCzZTnSnnPFKfdRXUptL2zvLReDlaZ6NCxzKPVkxGAaI0ljdKzAoiHJ/kQfPMZLlhmBld7tG0UNrW2HpOcTjTcLJLKnZkBNYpaqrIKz//uZ4VqwDvIrpTG8stkGqTeHJz982GaprSUY6TRHeqvFRgjXwrn7gDY2Qsn4LqrianNzbQ5eXF8uTZo+Xxo0fLu+/84fL0ydPQ/vDDHy1375wtP/YTP7EcHx8vL7300vKZ118H/hKm+wTmtbGfBtcO6nh04gVtZUI6WfJ3fXO1XBLIjkoGjTwPhad7iHgDTjwxvNHCCu2V9uIYp6c+9tbmVNbuQQod4f1YovMFfxRoK503a3bZwF2bSDfTejsOnV4Y+ZqgcQAvO2SL9C/rUZRzNxkM9AGvsmm9ygM0sObROZA7RIXkNO0XuOoLt5CoZMJYDo3+h1aplEe/AVEGaneTcsXQo0JYtXCqbtuscnlEDOXU6xgZN1OoKLWDOcjLJkzp1SRWtiKjik4IngZ169gW0MBSiZGtI/9cUkiS32bjMH4B2IYgw393YsWmrotZyjUr3icyX9ppZJOxL5BmGowTpx2DXezS9hoNOyWLsZFau/sFkGsnOSdJL43smfrVIYZkVqJ2z24JkIzmYlOmJWKBOEXQQzJyBKRheXF1vnz47gfL+fnF8uzxs+Wjjz9aHj/+cPngg/eWp08fLW+++QZBd7Pcv3d/+aW/+JcJyB9bXn/9x5cbgvHZs3NGzOtcj7zm6EjulFLHV38vpqvP2dnZcvfsXs5zoV5JvLXthj48Q1Onovt7h7k4PddsmRIicOwaX1WjGDkK2a3oeLa3nbl1tpLweQRtdIilZy186OA6WmEEbB54cDaNJf1xbs7A1vbxMfBtwQSTdodRoClIM0zcYAx/DEDbDgRbhw+ypL31ZWi4bvEOJ+w1myud/eAB0EjFFie+6NEG1Ufjn5aTOO8EewcevQ/0L1EirHaVf9O4s2kUSEfcMBKwhKNuslZKSZimGqAObsMJduCuLA2cbecdWDFmb6WoVomZ6YG94iAfHjmxYH4sNd+igsItcglFSdRAhlSOCsDNzdmbJ9Kp3HUOLrbWOdTXQHRkAECjCa0dbHxHoTQipdZ5HhsJBwzhn8b0SRXrLdbRzPgEidMeRxYrM7UUAH7PmJYq/rvv/HD54P33yXLx+Hq9vPjKa8vJs7OMaufPHi/vffho+Te/9m8zW3jtlc8sp8d3lksC+OLiIscbAla63STrlv/qkOBCtgcvPlhefe31LO9/8k/91PJzn/u5jJiwWk5OTsDjhSJMkTXd6uA08lCF6LQQ+GqnuOrJfxOZBgoFOrG65X/Yl3p9InfKOMMI9ZaFpp2AxKzT3tbL1ETxTM2KN4rTvspFhv/K51g5kbeY7gWYbG+1MG108rFBznIpCtyEuY80KbcIlahYQQ0RSWSUToYvugm+5a0DVi6x4zNI5RjuCJ9OD5ApRyNA/iYvbVg1jDgLU/fcV40bx0u5Vin0BNNQpuxO0rBTETWxMbR5TYXg4Pa5PKGmAelHaBQNZaMo8JaDxC3naE+SRph4ciXJA4TIKPhIZiNbGpt6aViGI2RrPnSLF/tTFwgFpsBDMTyVQc/llalIqFGGMypwL6rrXOgjMqkNS4YOJ7pR7vVIRwenkAbe0/Ony/e++93l7R+9nSmp95QeEEiPnzwD54Zpzf5y796L5G6XJ8D+4O0fZDPF6bVyHAF7mDXkslxdG5zn0O5uNGItb//gh8vB17+5rE6Ol68cfnn56m99ebl3/97y+mufWV595dXlRabApyd3luMT5N27gCadIyOsgUI2supysRH81CzmSM8uB9I0FNmMvtFfBxW+f4I1qrBEXSF2Cj17TJkIwqfktNhIKdj6RUZkGsJZAF1P6A6QIJiPz3CcbVH/0M8snH5moAhTz5OhcNOnbeuZ1MIOxl7I9WOqAqAyQoncNsk5syWJx1eMM/LBgob9ROebldLbUqivULGEvdUnkjxy03bKgY3QWwkjw3Bq1clDl9BtOUhmNsMxEGq+SRpGBWv05KnL/lYYC+sqkZ5DWXVHinYpSEply7G0diFChvq6RWucKoGwC1a9dglLk49Jnpn2pb6cUjG+lH7qJU64qTMXhVvuBo/ydzt/fXOZ6eQNzz6+/9H7yxfe+A2mpe+na3rGmpAZ6PL04iMCDHhGrBVrvaPD4+WKke8aL95fnS573ipHJ+DmkO18cHwUG6yvCM47XHUjGA34qUNgoOcI+nvf/EaC+Zi1yzF0Tu+eLT//S//R8su//NeWI0bcx6xbrxl1j4xOpHZ16Ro7O46UqKHBpLfw4My2XJUd6SwDJkkbYrecxZ7msJezBYUqUFzEzsakvQWFo5xSJkUjJE1HnVNyp3naVHmyybSBnXSLqg3sIHKnFHJLMZiNCIlRBidsKabtd+ugonwJCTCcMUVeymYggt8J+uRXaTMdBWW2TZSLXSQ29UFm5JqYuejviR8R+c5JAjSGo4g0EZKzV7BQ8FHhEK9YWipHKoz69D4okZ5WFJ2T4omYLK2qCj64mUZAUQ2rQbzmZvLCbRoCAEv6nUxJhSjCKLMGHXjiiiB9zaC40g0FYRzBUkpRAKtQTbo1Vnm6HpK25ZVVrCSdAhnSiXDMxf/AortKkTJ1ZxS0QzllhLq+vlp+59//9vJrv/qrBOKHCc4YwLt4WLv1KRVsQxDYwZ1fMfV3bkzqG+2uIsuRO4Ha/dyNHTej+OKaZ6fC6ohOyCDmFQFqR3TIKOh68ZrAv7m6WR6+/97yxTfeWN763veXz/2FX1p+5md/Hr77y8XVs+V4JSydIWbTL1THaVctpd+Qy3/LnKbPzZiYmhGvQRPRyXPEfn1zYMv8ttiNMZNBMVPby3p8aviX1WHLeQRCO3lIY4u5paC/GPhu2Cn/DAJncsLrn9pH7vJJgBl4VMZ8lHmaziP4AgqnPyhD/cidWDhgr8J2RSyHelSIkDdFB/XRpp7/2j//x5KO4RWspRwAqNNRJ9OhpYIaKN1Otw4qIUawmN18K7kKqJ507b9c1AuA2tRVpNHxcJZGBc7ZSrDIi6rjq2LI8LXFG4bYsKAxUtnZuJwEtok0tKwRnbw50ijsmX0y9DipaeRj6GlVifJRNmHUKwYZBhYGLo5C6XnFc93IHwVssFxFhsNDbCQtWur7b313+d2vf235jS/8+vLkyflydHQ31xgdUVj1hYebLxhbzpBXWG0s1Upsz60VXfN2hKFG0+p0ekOCErk4OqI5vZKK9PaZ3zoNtQN0kifFq2cXwHp+u/yFX/iF5Zf/+n/OtPU4I7LTaqfK+oU7snkRFoQyUoIslsnv+I38ImZljcOGi41lsqvWbcVVquJmh9lGKCUOUlZ2Ldw/5ZNKdKHcTk5T2VvIUxmbwAWwQTroUKd/SbMd9rApGy7ZkKS8/uIMj2k+pGxdGY6W2EAolDgHbP4kdmyfIZht15mQUsIb2zdoOdNII9kh6Su+AoSZn8JENFCYGw1AfcakwH2KAanMj0iehnRTQiR7BKgGx3P/bCjpaAYbWbGUNYHFMZjCNGdFJBXGT88xesjyVWKFHvlMw4TnPEEbMSQ0EjIJmkaBoO3sJw0mjpaxgNEnniyz6KEETssi0pCQ5sBwlb+OWZcYvLKjBn4CGAe5bkCseI7y+Ohwefj44+XLv/WV5Q9+7xsE4jeWK0al4zt3mCISiJg+mNHLmQJWUSSoJdgQs5dfBCTo/FiL3JRQSUChi9ct7f0Padc4Icdb5pEuM3RC8aTNfYaUE4bAH+w7Cu8jy+FyeufucsWa9Ktf/QrT5w+WX/jFX1x+7MdfX+6c3sm68saRdc3UlkstbtRhvPwrQlPP7QDCRxtHCzUxaT+TcMJEnZQoWRse2IyQ4IJvJ2LACW9g5A1x0kSXjq40ErbKNT0pxzYch/+FFbYJX9mGJ7y1daxoJyUvcS1psjaFHGJvCrKjG5+hTHgFFiHA4wAh/WqzIx1/ULUgpB0CCZ6c5WGLY80t68hGocc22iAemSQkAwPLfJ1cCM5CLIaLcoJKxxohRi/B6exdgqcwGlGYrRjhnSkzCqXPDjuD2xGnjijd9Cp0XZZFtskPGecoG/2MRGHk4XGkBDCwyuK0cu1im/9qJI51xe0dLYwk6J4FvDZMfUKiFNMAZJWRekk/OX+8fPvb31q++73vskHzneUPvvs9esD95eT47nJ0ei+yXxu0sZIBZx58kRHV9eKVIitX5C+MkqmzYLlxWYYWCUMg+DRAXrUombSXlndcF0Cbo4ejIwjt1RkJOL98/Ji2XCPb2fL9739/+f4P3lp+9ud/fvlFpq6uGe+/cB8mq+XZxdVy99QghpgySA/SOY+Nyye2HO0SxoIPJNstHTagsWmE7+inyNpcKoagbEp/MEG/2gO+toXwwnC85ZZLSoNToNZLg1x8o3YQwxL9E0eMVUaZ9Oh0ogUMtrjCCcNHpv4jWB6OBtrJCBL06Q5pAOPypfipEoCkHnyHgecJxg0YtDFEDFDtNOSeq3OFRNhseuhwlmCJiZlrgjVFysNI8gBkaIZxDElZNoIcQaDphWup+YoN05TLBtq8SQt5ZCSvBjs54M3nNZM2irijTDphvHMUIlCiYq3yoUQ+uJ697rVBoNFgF+MB64aR18o6egYZ6+osuDU6ZF0TYpEgbA0mZfvg3R8u/+/Xfnt5663vsfP5/eXjjx8lOF556XUYQJdrglc4v+u7KyTK0yDI7CxEfrEXHcQB60FHf6cH2lJ26uIdOb1w7BTNttBBVB0IxMmUGf1M0djpqLrgYF5TW4Of51KhyBOOosTlWZ1G79wXfGjQPV3e/NKXlh+9/fbykz/5k8t/8Kf/zPKn/8M/s/ypn/opDZWdYIOZwT80dPI2WXnLvRJXPvP1F2r0IYBzZw54hAQGcHxgejj0yE4Q5xKNf6oQpNNuktQuopFNf0SmgU0hbeSywfbIZSWO2q8dnXJ5ZtIHte1QYpRJVC1COw3CTEk4GNavoRCm8MhAUTuGYnzc2FHu2qJ+BM2ehri0zVjEjeIIbftxlvl6BKSSc6ekq3ktRhgas/IatKGSrzIrWQ0wU8qFi84aXqZ1NE1fcjTOmPpOPIlrNh1KPlVxNmrJKd8BHhBuysaf/6aOlM1XHQEwikXSVp7I0qOI+8wJI8+gJX/tP3tM5RUnT3NYDo6j9lxnT4Nfsz58i/Xgb3/5N5dvf+f32XRhR/LohCneyXJzyZMofNxFrOcoEZ0c67H9vSNeu4DzIJwjtG28zgupgMfh4rgxum7IlPPZU+zDdJQ/aqEDzXzXwbNzqCOkWDupd9tAu1rsdTn11DaejxYk70qZGu6XPTw+5RLJenmLUfK9995dfufrX19euHdv+at/7a8vn/u5zy33uJnAmxXCSJvSlr1HGN3CW6HaMNNG0teZN527QqattW9l8U3gdXTXZAYobUQncoAtbIcb8E19WxtF0NQ8spSd9hIuyzA72uRHew55bF8xp5+S24isxK0XZugkSSGgDTl4FEaXF74BSt3wZ3IiJ23r44JbPluQZe/f/et/im0oSaGjA7ieKjza6XRbmgIBjhM8n1SIMnC7NRxihd0BtDQzJmmMWkwcJ5lMBntK6c+1RqYPg4geGtJ8IbMG6T3qKUzjzQbXm6U1U3pLcCQZ5w0+DSgnCl1rVSrp8hGRcmlkikpBHrkaVA1S14Q+z6azCvvOuz9a3v3DHy1f/cqXlj/41h+wY3mCmI57K9aHV9m1dMoYJ6MndaOGgQo7H3MzDLxwmjiZMiYA1Vc9CCbqcj1t6gDvyEbDOzdKp6DQyh5HZYMEpzHcXFboyCLcsuaLfsBkc0o14W1bQzpJvPqy+iMDo6qzhDXXRG/UGVnO+VmIv/SX/uPl7/29/z78Dg0YkbRc+OsjjgzaRns6mkgeWRxZkCdgyqRgScIoP1y1h3+c6258I4beArxRN2V1ZPSP80mlVf2O7WgjvAy+6IC9Es/Qsd2DJXI8obIoQ2pST9WnkhyHHMKoHwV0pYEMPm1iO2QqbqU0Aa1dwxVo5gL6A9XWuVsdQiHGVwgoioiyjIE5KRvOndYprGVASIDj3IoGY9RZ/nyq3BVZ44iX0U/jmtSF7NCP/ChPZbiQgzOtE4U31ZXPsiQP5DuPjxaoUY4+W6j88nGkyJYA+ajBtz2qpRsYHQNgjWrokhE1DWpQWXrJJYWPHz1cvvY7v7O8+YUvLOdPHnKT+RFOa2Mw4dOJmZZe4wVO07Owd13DrCPTSsjGjvQs3fiAZ+TUkaMKIwB6xPFShMDQUaYhTx71Uf/YQEkjLZICM+0LrKlyS8K2FEXHsU3VrPUd3bQZlBAjjz/RaXjzvDfYH7Ne/M0vfmF5/TOvLX/5r/xny+HZ/eiVZUBkgrBGha6zjkRUOECTsuibHWJAlFHdaBc56p3eb6AGtbB0sJfC8R14AkyILPP9stSOCdzA5UuNoEJ9fEO+flSImpqlVNMulMpR4ZDI3EgDJnjAhI4QoSLL8JkbSJ7JJ5s98afiKy/FVJc3TRz5M0BBhGkqdbOrkEgYoAJEMiKEpWyt6LFToJmPJPVOQAZkwMu52XwLWsnnaZxp8rEHNJWGkjyfprPUiioMPaEFneCeUqHdchM4NLuILi3BlL+NgpPRg4WE3gEe5uBcFwDSttWxoKlM+djwVN2M26auL665U+Zg+d2v/fvljd/49YhxdMoFeR+ixoGuuIZ3wU3atwRagoKdS22ex4zIKH/eXMcxTwvAL48pwSNb4wawMmwCShy1UEa7CfMqrXTm/dY2yDnqu6vndULq6QB8TX9dSWjwJu24n3itlZo2BpyMxmjBDddHj9gdPuMOnn/3f//q8ujRx8t/8Tf/Fhs6d+mkus6NK2NnZxArp9Lgqoep94HCQ7/zXCbK7KnsZcS/xRnNyFdE7EBh9h0ATBsKo94hAbLHnaR9vYSz7VwBgVhdOcwCHd8L21CjjIAZdqE4/g2l8hzlW1ZysetoifBZF+eUL+0dIuDLkryqJ6iVDxCLuYl0KEAJ/TIyeFQUvwUZ/YMjIhrEABIYhgUgkOFFmVhJm8wsGHAoEthR7JJVUI2lUErqMYGU8kJb5hQuxo1GRQyua7DZoQhulyMNja4KAlmPo6TvhZfFeb27I5TgVkd+5SjtaA5uXFMYheC1z24chSSBfP/Bg+Vb3/m95YtffIML6BfLXdZTq9WK+0Vvck+pZtpjTejIdoOt95jOrXj1mOslp2D5/Qq6gH2mfk4DFxxd2ENGVl+G7LVJp5FX60tuc2Pax3V9g8GNIhvT6332DzqoOpkUM0l7wd91VttNuLYqUAFRR6edCWsRIWLbS0s7WORjZ7ZPtGYU3adD8cVLBwTZarVe3vzi50Prb/2X/xW6HS+X2OUQJR347IAc5XVsO0hHZXnakm5aSV9+ZuwKE7AWkvx2xM8RjI6SwqUV0Y0a2y3UgJeBtcEXy5YbZWwMWeKZaDnh0GQBiUN8wDZD3lEqi+iRbpATZTdZvuWV6EnZrAzeBsbS+v5QDwJea1XHthwTfYmqnIaxSVoiy6RpGE7LuMU6QpIcSTHRKJtBq/E+mVoirg7C2WjkSU5KpTZ7E+EocTTLPFwHGbwjOTQySslJwMJKv6dtnLmgT9PSIlkvAOvoM9CKn2WzUlLud6JJGk43XQM5Y3A6ebu8wDb/73PZ4p/8r/9oefTwEdv+L7BjKix9HLoZTG6EHPgODkZIN17kf0iwHrBAuORuHJRaDt3AoUGO+PHKI5zm6LTX8Ny4kJ4iXPEc48NHTzgyKnnbG4EZ0f0a68AIrNzayvXasK8e6EadMs/RKPaJNuaqq52DbZIzePbGBcqQwdmL027rfCok7yqC79HhSd6W9kVu57vgftj/+m//d8vdu/cIVu+0kqc2I4Gvo2dZEpvaPsM5qe4opN0pnm0XBfHMTRsoB3L5GXAGmxLbeXeGVQrKqTcbqP6Z1M9cRslgWSpk+eYsPFsqBfFTnu+ITNmEl/ugOesDLM1dquhHUZYV0BO7nUyCKrBokB3pNqqMHRFQvKSsLsFOeYIzvgoxqOTQ4GzvIKIQVWOgjMMmiFVpGjk9mjgaz76rAneqPKRAgzlt2Ko5ZMX5ynFrpJgIw7a5qY3IfNGS9s2ZqgLe4sFDKtrHnkpQ5bOzcDRQqgD7UD5OyJrpm9/8+vJP/rd/tDz86GMC80F3+xgRvIBvh2FDXbIruHFILs97jXHFJYN0Ai6MIOroZuDuseGjQ2mjasJIESpMMdmRvffCIY7OpQdGpkt2aS/On2WEurg815roRCcAfOzjLYZRuvLT+pwbTMPuwKmfHHIXDnXdElJ/SMzWQ2ekhSRyMdQ5Yii7jrXHKGgb6eRHd/Z41OvN5dn59fJ3/u7fzxTW9a9PkChb71eGvzLYXuJTrp0pjCzRwQL+sVJp2wYmQa3ylIx7yiZbOHdDSSNlAjRADaStBwR804iWSzNJk+2mVPnFR7hPpQjRUsE4DR9BJ031Q6aJnePOOcYc9CWj5l5njE6eiNyhfCMAyLNNytlvyeqak405JZg0Ko/EhfpkqqwVxPVFAi5AUNHS/CekabQYo9aPwrs8y0VEFajSStAk9+fLVIUhBFDkyvQLaHeyEvvqPlDF4yQjqY0aVUs3lx4A837OJ08fLv/23/yfPPL0Lg///lRk9VqTzxZeXJ/nWUOncnlekNFhjzdHO/3cJxClnwDkJm07BTc9PNpA2e53NPFSC7y6vqWOkXS1gg4OYmdxxM3d2X3l+UdN5CsEfVfPjaOtCVnSswC/z8jMNlPLnQshlzHbDQbOkSczDyFwovi/zCWMXbRkfvDTUR9KunhL/Za5+qyWl165u3zzW99Y/vX/8S+X/+a//TvcgO4Oq3phB8CcGdR1gpW8vECnqeHhSXjqAdvW3DQN1W1Z+UIrFcokfDvwUQTgqAcnCfrJAkAW/e1YwBk6xtfkL5D2EJ9P6ksh7EolXATUjOFsiajGr3l5DI6cmaBHUqvIHihLhDbRfiI5UhQAcsEZAAiqotsUSYO4LZMBMMBmXRCFhJtpF38K0zrbyZbIGo1sIMU36TAIJ+24F5W9H7TVfgtv0EwOPfrtp7Ju5a/ZUqfj0xhqnsYnt01bEzoKpNESAN6kjVhcR/SZwzc+/+vLd7/9+zwn+BKO2NvJfOLfN6JnOovsXi5xlHM08E1vBwdMP1kLWrbPWlC9ldJplKbwYeFLLpN4GSIX/2F/wJTWO2n2+Bzj22uDTTnQYe+uZcfLoyeP4Mu4QDCGEkTT6K6d4+DKcMSIbaCxfzymvtpXe/ht0vFSMgraLpbRa9txOHOa9oauv3PYaa1rYpvsenn5pZe5+f3Ly4svvrD8jb/xN+mMLnJ/a1tSLuTADevI2TK/3Q3NOtAT4Az6hiQKk1eryGe1Fhu6eVYttKZpdET1nBbxHVxAbA+DplSxWNq5+ncaD7X0ENV9QyCt5ZmUlGabq2SetzSdLPKlHVKKNvqCef1powgQCkI53bQq+9cCEZor0fwuAbU2ospbPefcAdx84ViDSfso4aSxmzotskRj4GFDKKUZ/Ghsk7TCk3ymRMqZuklTAuTtwQYumZ289bt1hU9pSFAHvcpRCkEf/M3HHXAQ71a5umADhRHrhPXcV7/65vLm//P5PNx75859Nll4tIlA8vlBX29BDMaiTuf2j1jfESja7fjoOBfR97gv1GDzWloaiOBYEyjiewnkgFHxkAv+qBwZnLpWrOpuQzsfODljWnufZxB5V45rSR80viV4vec1I423xcRp1YQ1Kh2C68A8rcHGi/nc1IBwuel8OE/oG3jgULMwpmca7ai9ZqoaKfCHW+ySa5KU2KHbKV2xrjw5fbD8Ns9LfvbP/fnlp3/6s8hzTqfBo1g2ByIZcL6GU0J6XjagqMpPwltO2dyNtL7XtWsrKsN/eqy2UZ74mkaWYtRWp57rS5g4H6mbcp24UQAGKXTQoiiWkDypzXMaqwc6pwGFRr2MGzC8UUEc7ORH38oNHpTKr8ss194qju8B4BJGH1B+50zpqcUsW7+bn4tiewkHknkrWSEqnt85V9s4Tacx20CkVqn7Nb4HDnTtpeyjJldHP3uT3OlCK0lnKsFJyQg8Uhtrls8KGRq8UAYn7Dec0cVajDG0DCV57qbiVE5te85Oqbui3/jdry2/9eU3lyMe5D3kgV6N7IjmaHjOrWPz1RfiH/Is4CkvlHI6qJw+j+j1R9eg1zzP6DVO13lrAtA1lZ2ODn/KBs3KLVcaLWtMppwrX4dBfOQHXtHNO1TiiMCccZfMDYF+jUzeX/p0eZLd1v6KF/eZHt7Jg8eHyGk7+vAxvUvbSyOpOsQz7SWoj1mfHiOrb6oz4LwhwVFXmXzJlZ2kGq3ZYDrgjXbuCPs8uyO+nYp6OkP9lX/xz5d/+D/8T8urr3+Ga69PwT8RCzgtjVHpDHRYbWPqN0dl0llnieekwkbYDbT6jGq9JuWdHTRI04FLrr1ZIPQjfdouqlzIY/fSqi+mA3QG4R9km6MBEsCcWQbjyAqitAzA+BTl3d2GD7yLX1/mLGVSjNzGVtVzJTIZqMJUv45cATAYo49GdO6fQxy5CnjziXA6tzuDMlM0/03KXoUpUjCf00tFqlsH6uTsHTVQzp/6dY0EbJCUUR6epMBVYLLpXaDSZB0UcaD+rIASWNT61orGyMxfaytBv20QPoDrYNcIdYizP3n6ZPmVf/Uvlw959u/s/ouZOuo0VwRG7jHlVjc9xind8clp3uzmZQ5pqHyectCj4HnIdchbRq6sEbkkGT4EiwF4fAQONA4NVJ0cpzc4dJgb7uSJ5OQl5Sh3Qpm6Oqo+ffI4t9VdO1127QmdO+xuup59wus95Mel0eWIX7fyOca0GHCu31e+aBiPuMuDxt7C5wuvnj19Gv26ZkyDYBcspj5esqE/z0YNgUUtoygzBEbCe3deZGPr/eWf/e//ePm7f/8fcAvdg+D5pjsEQwU5ozefESdktA3+mKPtQpZPoZrXcX1wV191NFYOdZOOCPqBwe6VgZRBLwMDMuuX+rGBmfYFTh62ud2J40Iutww/kZCeX86Fk40l4qRdLXBtGWHLMb9lYrmQ6sJ/2iolABY4EDTHoIP9G8uSHwEQkKqvgOZUbiMfvUVulh2KR7Fo5BdJUqroESS3xTfb6TiMQ7MCjupwlcc0vVQczVxNhZTkZkbJPQ2rFpqfNzynlwoEX5TbYDaWjpZGtnAn9a4LOKeeOlrDG4Z1K2+f9rqVa7UbRrFjRqvP/8avZ734woOXEqAnPG4kztXFeZ5iIC4yZb3Dxe+797jwT2DpCGrrho3iH/J1jNVvmYraE4t/wk0CJzyS5AwAFOqcSto4bNQw6hncFMYuPj50TFk2XDCBul1zB5APKj96+JDO53o5zXqUwY8gO6AT8Sl+ffwxU2zfRHd6vVoufW8O02UiCukc1ZniQk8LnZwcZZ13A5wdiFNvn2X0DhHd+JZ7+BJKOhq5lcEFA9sweiKTnYTr6R987y1uMv/B8urnXuMJlmcJYPnIKGvpNil5CtO+owAQwUzzWEtaYOfvAY7iiMs/KpKA8pRPFDLCaujwcERse9MqRdO0TRTEBhylVY1GJTyduRgRuyn2iDKWSlApd9I4MU5meSl6zh8MIweV7q0ZbpU+UTcJ2YMgDsC+qdBbfdKzhJIEhpCAy0TnUCYV06ks64Bve9dMlrnE0z4mYc3fMLUR1y8NkIb2lGQjRVjK05sJKqEBlemEsokkIERzECRSbI1QxtaHAPVbTjVK8S1XA9dO9vqHzLk+/OCD5Stf/hJvaHuQTRg3WrIpgqNeMzKtL29w4LvU3+MpfqZj8GjToRNKHjLaWXKHuns8v+jOqq/S8Hqc1xOd8h7zcSS1A6EHyNTXi+eWdVrFyMPM4ogAc7Mk94mi7+0RO7isaQ+JZOcdBvIBu616rDcZHBJcjuyX9x05n3Bj9zMuQdCB8DCxAeAG0TOC9Cm6OOU+pAO1yWxH18PrW6e/dlFqgHXIe4+rU2XLtWYeOEDuPfCdprqkuWbkPWGG8OwpgQ6iU+gEAnlH8jhu/MhWt/X9bqslE24Ni56nkZulzruY3Ixq2zUsttjQGu1sO24T8GWTjs/ynFeAtFuEBScDB/XxU2XjP5IqOn8dcUs5PjXopu119Mjf+n5rPe0qAeXmYPuR0X+5poyJg2cQUBKCg6osQZpqbgmWqFAGoeNIt6VhPzRVWNoyyUMw/NJBKEjfI18TDrOxDPUH9KzOiJMUetCscFTMOgGoc+RVB49OEWzU4pRz16U4j0EWeiJKxykM7Ol0GuAU8chY1q0W8K/T3eEB4F/9v35lefLRw+WlBy8vl+AQWwkY7zdwvXXMqHOf+zMNXHXx6e8VGyt5uh9eZ7wm8cSAY0PnEE8/BOeIEcyfF3Mt5kRrTmeVTsm1azZWUC6bKk67+bPltPua0crpsR3lCedMfJdjja58J6zvhl57BLMB7Yzj6u7p8pip5zOmtE9Yx13w2UOGU+Q/o2Pw0ojPV17ZSSCFNxsYrLleqJ0h79Mil+ALd5nf02TEh3Y6ZP0hv6vBzAId91nHvvHGF5af/uyfWx689IBO4yrr11wyoM3iesP4mUWouCnOY6N67bSF8rahe6cNhrcAXVMdwepbKZeGlYDUh5W77W99NlY45s9jbheiHFnm/cERzjrbOLxDdMNTffW2bMiovzABBIRpcoJ1oFju3yYBr+iBI+fbM7i0IQCOynHqVYSeOfLosXFiiEUhDKWB/Mu1KhByx4fHQSc0tAXn4TGE7TAPTdliHJOCSI+Cfg+HSqcZ+QK2/drRKYXygL7I9uhRk/Ns/FDsCD2qy6OEgbcT4YCOOmowyWcXjs2jG25B04kfcVH/7be+x1TyNLR9QkFHdVRYs55cEdR7BKGjn+Of0zmD4ezsDi8h5g4V5LvLO2fu8bS8I502zDXHOAfTQoIhI7wSEFxuiPhEyJGBykg6N3i8DmXQIjByoBX6OvK5zvbdNsKeIodyNfjoWAiGA+4jNXkPrLt3Z0cEJFPru8jyBFltBQPr5oDdQHZZ85wlpfja8vDhx4xsT5aTO/eGjHbaJKavOpJvo8pLhg0S/uw07FQcneXlGwLee/cP84qR/+Sv/Ke0tTMBbBd7S6iNWf9q+xui9Rlq8YWZV2+T9tTSSfFFcpQJG5hBO76bImWbyZFW3fQKu7uilGcDRJ+W1OTnptVM7vJuB62WR6whmz5k0hZzYEpBZHJA2KbKBC+hDcYii0qhcUfvp7BJYVDD2JNZk95OfYC3YEAiN+ekMNMAZGpgCoegMs+A4piMEzgimXSsScfzTDuQyP+mmZlQ81xclQ6z4HWNJhHLlUkIe0Qd0gYgPwkrrKQMSo7qkN4MJ/PRpksc1NdLvPvwHdZY3D3DTqibIvaeXu5zneaOpcF1l9vCTgnGY/ViBDvk3TEvsKb0wvc91oTHGQ33llN7C/VGNG9p0zGPCHiv2dle3hTg9EtZvN4Y24ATEwJwe8MoPpwuapO/YIrszucxI+0JgWaQKoOBm5ukOc+tcNBUXW/Fe/T0ePkYOe4zjbzmJcpPmbKecw1VPlmSkDliFH+F64bvv/8B09oLptR9l4+bSsc4Ty7b8O6eI3eI6w7LM98ql00m7WInD08cyxdu+axnnxRpGyhL2gJe8m3Hr2+MThntHSgKQ5akXfSr6QkqJB3TPjetiNIbNlqmX2sngXT7tm/pWDKTNJTBUTejlW0Ani0QvwigBcouwR1c5U+pHZCSSciBSqpNRk/0sI4khZQBY166GRldqQkTR04lLkCL5qe0QlCDgqK3yGcQstHNm0KQo7td5hW1dYNZegb51LhQnIRAUMyNecGkSjkGUY1h6sI7Wb7KSMdMzzmLJ5LCDQkQHiNJEzrQbFPjlCErHxmVmWthu4auQwCAzPtc5Pc1iq4FMQwB6EjkZQJ3T9fLCVO/e/fO2JiBMms5HxnyiflTRp67OPQJwXZkcEBrhYNGd+RxBzrrSSWCrhLM2+UcYSwh9rvrai04fTsajsK5NxJ4sX9vTIdVx1vtGsTS72UXg8CfKHCHNrbGZium3sfsQtrAmwAAQABJREFUbPrG8qsjXwNyQp6XKSMnkCC7eeQllhUB+SJrysvlI3ZHnzx6vDwlHyNwXdHWzO19jMAr1qXXd+8zEr7LhhD30HKjwTGB+viWHV7o2LE9fcY1UNsbW2iHtEW83g7HQECJmL36JhhtN8rd9BKj9xljHUDa4es/UrMtLYMG+Xz3hCycyDt66tumXAFIbueL9qwvKuOgEVrm9VEu9WxoylHKMyED9rPs+XJ5KduWpj6nP/vGiOzN4DG5zqhBpO/I6MCYxohQg6qUZcmxctjHVLS5M5U6QeLYAy9SlrZDtn9M0NJT2hM0CMDR8XLlV2VnKl7PQmhUKEwEyqHyTByKKFBpQ8rvPK5DThdLQzCnm52OyvinblNsJaj+UQa8/eXLv/klAs9p4xGj0DklTheZahHhp4x691940V4N2xE56HF2drqcsUlzj2uMR4xCR0ThCdNJbZaAjNAEYkZAuBmgOEnl0hexEhGfXWUbZcD7k+IZgiiL1Ojpm1IPheUY6xpw6mD7QZ/xifXpUX8CwCBklPUVI/5oTl58zHTt8TNG+qvHy32n1E6jQwn9HPl5OZUbTS8QSC/wkwLnD86zK/rwY6avjKZH7Byv6HDSKYB7y4zgis2gm/fP09mdMb11s8iOT32yvlfE0YRa25M4OPKmPk5rMXVWI7edoziBxh4eoyOB2ja0f6AUPptLDqmhYPAgk9RnNUOYcwWZfoefaO+USXfiGiFNTibRIiTTLKPcgzCWpW8hL4dtsqIwLYcmwJm9KDd6EIx1WqcIBorsS5VDtj5rqOms6brkagoR6g2mGALxcdDkoa8jZ84v6IDpNENkiUxCwMYZw93KT2qSgvZIE0bcho7gz9NDjkE+hrNa+h7s+R1NPLNDaC6klFunYY7HJs0Vlxx4me/jJ8sP3/kRb067m5u+fW8pgw+GQ7u9k+wcelHcqRt9/vIST3K8yNTu7NQL51yopyzrQ1rIp04cM23vuJBl8HQ0tBXVT0dy3YlbAoT0bixYDpK288kJrxXG5rYY+WscNZsOoTGDEdrUeWGeDJ0C1yel7VSbHU83sK9Yv91jXZvOIptJLiLAwXZX6ORa8eLCAMJHnLITaPdeuLc84FUbr95/YXn3w48IbPSDRwKYkfgafbTBNTdAXPBqEDsc18le6/R1j3v7/AAP9A0gbWCbRFXyTvdRJPKm854BaFMNHMHFzsfCWJijbZdz603WidjrsvFl+QG3O9oGSj6W2x5GUnBpE4toiWTyra9bVh+iqPKbeS5JdfDfKd8tsS3lpN9IxY6US1n2nroszqVvyy2mddoQl6BMIQ2tT7AYysdQUo6idSohc5cLZZocU9HINoGsBQ7ZTktyxvnGmEIAmcYorEaPEcVVRuqkqRKGQpMOS06DTrSRmUXhHdITRt0wOQ5lnX/KbVC4Lf+Fz3+eYPwhu6gvZV2V6SPsDAJHGa8FhiZOdMK07lV+0+LBXRzczRfo2JReGsLTooHBrtNo2dgTGu04Krs3e6feXV3llD6frLUMROkSUGlMRtRcv5I+u44ZSbFN66pXNlqo32NDyXW6MAb/gfNfF74E/CHy+nsbjmg+keKmj21/yvTXx6IumQ04dffRL+0ImeXs3l02i1h3cqnE65A+4+nzoZeQXNGJvfziy8sHbOKowylTYu/nfcYlFaer0wsAxwaMwIpPIMb22MO2Va/YOj41fcPOgqQQfDrXIGtZjGXmk0kjUiYzZGuHpy8zG9A3KbYt5Z/OQHTKrDdj8AY9XyUjQfHqvM5gtuwFC6jtkBwFSdCBlm2OGIO6eeBKjCXM5kkNSDCHslwXSg9SebYkrQNMY8ZwYcKZ1CNBuZhtAaxDr6eSiygqKCMLgqeIxVIwbW19NmYCJB4GiIlKJXEa4rp7y6StbBqnatdITnFuJDp4CO/lC+fr5sVuD6VezuMpoYGcmuqgPrPnlO96fZFRiy9MhY2gqeMzR0PmdUaEV7jQfYRjOJpECklB0+Dzgr+3i+ayB/SitVNbZcCZ1UmnykjqTeWUuybWKXP3DlNe78bJBg+gbgTZHjrR3J3MdE6N1Fcbaotmw8cTOToTctyGQWAPVr5tjh+8ATedMzgrX/vP6H5xwUwhmy/YDDnzNj+EdePppftnXP7gbefcNIAZmB3s5bKJm1bXZzz5D8UHR/d4V+w3l7e+/Z3lz/7Mz9CpnefSDqTiiLEh9lH95iuF3wlIK1KX77Si7VcnFmomCJqit3lq1I/k0iU/gpM6WwQPsZ2t48xsTEanlttAnUFR6MbXHvscsSH0dBmx6r/aVzqy5It86KqXUgq4m/QVUviM8rx9wTI+BGONoEjJCZmEIBx19VnS8lkqgS23oddzsJPyIJeDPawiqZwKRYcJYJlGc2EFgDCbNAE3R2qo77gUisERfjZS8n4B1f5XeYGVBmn7bQDKbPD1aKXG5dOt7u0Py9wwhbUhiQUSDUXQep3ulRdfxMHRT7kcPjgahEo314p2/I58JW8QA5T/jqJev8wvRxm4tLJ/3r+62bY3MKGRc6moCzvF1wSkKddI6Qh2ncWW7bUz6n1VI/y8+V3Hzw8QIfCVt/zxqJV1GY2h5UbH+pARnw0eL3f4ZnRvx9MmrhHdzGCLNSa95cYCL494Tc5RcsWm1sXV3eXjhx8hPzcuMEV9+63vL5/92Z+jfWk15sJpJ22Rj+0SU1QnZO56vyPMtk31Kq1n2uY2NsQ+qbbtnG8PWKX1k3hIOSczJbDlY70zwoHHITmRJAtcHrsLs1EpLht3dVZlMzjpNENDgoMJcHZyOU2d0lAdgZpn36GZVIAwzJHjjqpWp6pzaHlMLrNKZXSILQ1zgVLWgCloPJijLiIAlJh+8Y+jIKyCqqBOupNiqhAzWAGhur3bND402G1rACFHYAuXE/mEnt+abNLvcdbOpp6N/5BbzITPpQKiQCcXI9cUGRnuMv3zMaaX7t9fzpiOZUR0hoGATqoyEsLSo35iI1V3OxvWCcDYnzoK+lS/AZhfV6bp9nkBlKNklNVeEPC0HiUd+Kg+5baLNpmdk7GiDtGO4MzlCvjZQl5+2SfqfaTKlN6frCOsd9fII9fTyDj19O0D3iRo4Ok82t1OyJGtra4etH6c0Oksz3UizDHPfPl+Vwme3jlevvvWd5Z33nlnefHllwlmdp2xZ+0OQ/hwMhpstILtid7qUacVYKbK3jPtgG/FDljAjgk/cyTMBAWgYIJi1WzjGEyLILf+0J3QCBE76ZTTD3a5yrnlwPLv7YsmVdAefd2kdKyTG4mv6uoJSeAc+ZIgPo8vjMJU2FQmamMcpVcgy2BisbmdAA4hjD0fcxFAgXAVIP2QKOumCUrndgZpOG8fleCbVwl5t8Ezmw6E+PLJdaihhAdHm4gifTJeq8MjAMRhsE/khbaOqjNmgqZKpTr0Ks+0kuXIZXIN6S1mP3j77TiXd9Ks1457Pgq1YiTktjSmkmest+6wVnzBHyLV8XAwN6l1WQNNB8nNB8oB6XRY6fSQyjJtimwdaalF6I7G5h1lK49CO31yRIze0au26k6jlLEBHKIfZpitqaJe1vDF0JKLgyDM0ZHt5ijn6O4vIdd22k1athnixzR2obnBA/0MJAPYu4iavGuHn7aDjtb22uoNlz/cYX6JDZ9HrBV9fGyFDb2R4oCRJNc9N7JoA6VWevXVga0kC41tQESzsrRq5MQVvufC21ZRYgPTJU8RMF2xzYDrbGxB9316zPhMqpWDag0AnLZIwPJoW23smfXYHVsCwV8lUPC82YBzSwLnMbqQMW1UIeNGIvRznTE1CGTj+Z1AAdF1iORsGA2ShS5dTaZIkVplQIKQz7nFIBvuVUy+0nBqMvmkDDhJWOYaRHtkg2eMnOkJBVDWeLEy1EBimdIDKoAwHh1f8A/12Nw1gdwxEjLG9oLHS6OpkOPDgSQVU6YZ8H+ZXvz9P3yHGFN/Hg9yNOTGa95YyO1t/CgMo8YJUzA3aVz3aRuftpCuQYPvhq8jo86ZTS1tyYTWEdCn8LnSH/sawGl86h3+08AGZHp5Ghz+MQFmEMQkjCnyet7T4dKpikxCetO7yhvsxacMeAMyzQNPbSWJuQ5Np8ZoSfHAGfxCj44GxD12LH3ZVm8xrh9JyZsB1swWPuI1lj6Uvb86i87yMu7tjHIZKu07dBgdVdRDSI91e/mmtEqN7/rEqHN6pWNzqi/aKBuMsT9g3YYeI29eNUOJMRecAadd6ndQGL2atGw5iUpDf0qDiGNeMTyogzp5DF3LQjAggk4aEdZTnGUlTGrEx2HjzUDq6DZL6ArBeZRASsTQcrbYcOxdZ5AVRoBwmHoGeAlpXE8KEzgMnh/NoTTFw5tqGCAQQBG9NtROIWcBjhyDiaVuuKhcJn3TWynXmgbJ5K1TCx+Gw0iO0y2ThKMFzwEy4r3y6mvLd771+9Ry4Z7paG7cZtPLi9lHp9wC58Vup3EY384qfoWKCURkc5vGsPITbwbGwDEuDM6sUaiNVS3n4wjvjQOaWDqieneJOojraKuwWRdS2VFFXEHbPtahZuDU3M7UNvXxV+lJdpNhxPQ5RFetXorIZBa7r71BA1toolumqAbUmssiukm8jGP1xh70NnY0Tk+9IeKYTqsd8LpvHQcvDz3TRH1dJDekY6xJKvLobDMpb/JKP1NzmSGNonmXld7WwLRzmPBQ2JmJzdIazzpwwgReMZ424mNsQUN6Vk965nPukfrut1CSijKd38WxI9XfhdU+0BM25341RkKTervwEBY504FQs2GaYhIqc6TUavMGQqLdluE/a2KcBR8LhI1o8PQMgWRAaonfCmmXA+3pXNQ2cK0vJTIkeEF77U3JWAq1IGev1kWxEFEyPOBTJhaPNLlWhsoiFfhZNCwE1TjiFp0bpZlu+fa2Iz7e2+nTFTrR3GRxoya7mwairJHPi/8+6uSfNLUFLUE9ZwPO39DotVXL060E31HDUdg1GdxwaIJQPD7lhc0iYAQHrnS9MO8SIE9UpE2gKR52dCOmASt0U1RmuukxOBRnXQxsHAfJD7zpVYtIDxnbGbB6jNHs+NjFBUad7CRWTuE46iWX/FqPN9kfsiPrLySvCGZ/1eoxl0LckEpHDp5rbGcESirfbdtJx7ZWhvkxa3m9R75uiogU3zU708yLmjRoqId/o9zDcOFBQzn0bxKVIxcKlgUtGXIQiXzxyZ4HHoLSj0wDU7tIlO/QhkVw9WPX3pLMUxvz9qIQiDvWibDyQJiBU0VKf1DWyaQkMnnQk3J5oNnBvSc61chxmHmyoEYx6DQ2JGqiNBdAS340w6hBdafN4LQxHH/cdMBR4kCq/selOms2LcCJCoBmipGziq1x/XPEcsdSFfv6RN/SxqhIn5F3weDYvqIk6zpZQjBrQupd0yXgQHbkcRx06qnJDH/tnFE19LG900UFAt4OT7h0bZS15yZQM4LJG3ek/OrmvEyHLk5zu05S5vLKzEK5lA+KiSnp23lYSEPqNFpR9ukk8RRHH2lpA8u9Dc+pbmHAgVemh2pGoTKZXDdp30tuSvfdP7bNe++9t3xWI/JvG3mwvH7RM53InHYpEyFMcmzSzTLyF5AzM62PvYpQ4M33Fn8WWeInPqRcjAYuH2L0+LJ6TmIckSnbEmaVz9oGQHSPLnSmoctXghC6gmibT6YW2Qb4VfgMXioBOgRkglOM8ukQYSxR6q3aRr41Voj/fMqUCuitIIMoYLv4GyxoPFceRUt4Kq9s/XCgd2wSsY6T8Vm8BKS48i+NAZxDdl+j79jESKnmBBb4rmmgScDL0imqMtibRcZsZLArifOtiUo3QvwxHmHt4LKEwajdLpeGdUhn2RBEW2rv+Ge+nAE0gPKQMfe67nFzuI8t+Skt4BVRfaFjUE31EkDSJwh8i7nyWOZTFKY5xTV4mJtRgONDxAv3jpB2CgZjr8HCh8DQDvbee15PhYYjfRw2MlSXdN/Q1M59MwSdjr0+GF4jVW695uGHHzDlbQdqoPamCUSBR3YlVSh2UlY3YrClX6T0F8BFBs7TuQBrsBgQooE80T2hTixLR1I+rSZw8mRZM6iZbKZegoikBaITp25gCVda6iB9U32w/EGjMOUC+hnnuqMnU07PTAlYjtnAyW6fQGmwuCLGo1bkQSwnULFhc72FqnKxDEUwrEIIPriRLxF0/v9NCRboC6qzPp963i1k89v69u5Cl3l0odApj6NJZQEeR7PRmnYFalltMOWtkyu/P1jjaOZuYB4EJi/GITrbOLqY+az/VBSL+3r+A3YUYyutoAPR4AlkWBhEKbMjAYcZplChK46bQUoYm+gwOHmCP6KOYCZv4+qwdfTCC2cASNF8NmuMJJM+PdZG5hGLNmOqpxzk5edaOQEKbuqVhIHOW/mEEbQWcOSVwOCL/Nk55tw3mDuN9w4kHwXzrptYH4JP+cEcbyBQNkAT5I60dhwp8CBd2DYIlEPITXXqESN+wv515Kgo6qmzF74YQlpcGxj0Tq+FAzAsEyQUizVx8xidZSEsjj7hzKHo6dSsn0KHxZaH7DxzHW1DZYecpY46gUYKcjqatBGGTTCGoEDZUpObBnBtUEQDEzGUXeniNrYN7YgjUAY/GyhyK60f6nNXiBJZMY4JN/OkjWDU+5e7TYQljUPyKmbqKNt8p5PDMUSZ9MNqKDymC1HWDjJ0MCnHrOMcHeQbBg0GTlOmU9rJiIS/EzCuT7isgWPZQI4W3jh+zJrohDrXkcLLxgbwFYtuwjA4ZFrrjo0X5DVXrq9hfPWRQ9d2W52l78fORAfw2/XtfkY6gtXdHzDFrk3SQBAaulkOr9iUjiHvTNWgjpaonBsDoKCRewkAezH30untaO1iQI4DJRC0BXhHTMvPeQVJDQmONJOQDd5ZSzo7ANkHqK99zw5/GSGZPRw5sxCbDR47ONtQm/lXMhx13rSlIkBXHnEyIbQFbWG7gOs1ULOmgdK2tcegTevkYpi0PKSEt60slnQKtTJ/6JkpuZxtQ3EmTOwZ1JDaqC5+qWzs0bZLRb+gsZlSb3SzihNkUQc/6ZNVrAbxGwHUBdBdhqlHAe2SKUwcwpgbAauCIvBf5JCBtAWlFbP4pQwW+5U8R5QvpNDPp0GijSeKwu2k0kKwPyJJs3T5zr9NXAHatGgmAHLp2E6JDM4euevEO07cpeVe0awPmfZ5ecOL8/tMIZmfYkiaDf81OHKJA1v0KXvOnSYawLBwxJ+BF6ZDHkc25ojRK+sPbRkvU7ZQBR/nID8vEXW6nP036qpDV2o6cMwZHeQbnxo2d1OFie9GVxtAmb1fNb89Ql0aGZ+wA0idt+Gxm+u1sAOe0HBa/pR14DovtHLMo+3QQUkTLY50/BlIU+cLHtUyiB5+9OHywXvvL6/9xI9z2xw2hQ/CIGQk5aigaaGdEspaQx0dSGQEUlTKxdR7+rHcEhq0aOS3yVjvnT1CAycNCPGiTEhzFNfIYY2hPg440sE8SVIWRB8Mmxa3bqcgtGddkMTpngOopHpfYkJ6lDAyTnUCkUJxW92yzTeg7szpUFOSOAKnfT/kBrIZhCutnsop1stpRRLCKVtGul3gonzq+5NG+GRgfgqBAjlp6C35lKQiDUAAuqbKCAnBOBfAnvtxp1I4f4zGO2/s9R1B8k4XN4tuuQk70wR7Y0dUG5LGhkZ+CNUZB45cXWkQ11BUJjCxpXLVGpXTAssQK3A6q7R8a7g0rAvWUAMhg28QznIb2RFKh61GBbaTMcxCBIc1WNZ0GBkFbuhYyIkbJwFMGVeMcF7Yls4+t97ZBfiiq8ePHvEKS7sAaGdXQ3jsgiDdtMIOyO46NA8WY7cnPMnx8OGHy4/7y8e8ugPLSzXiaBOllo9a7vqENakf9uI0ONNuns/krId/2gEqodm2kGrSRApR6UpL70wmR/tH1RKkNtzJj3KqkiQXOBGS46AAOStNdZJRStNeyobmFhRUu8p1JpugiswSjxom/7b2n5ikuoVRyTKPHOSto/FSoTCcApA5+3OYnog8pBRM0YT/RAqNT5R9EjBog0/hq3Ofa9PpIS47jhpNrnZSsvfMN6PZqOa97GAw+atRvvLCSw9O9W4YOQ1CW87nANcEru+2aZlOqqPDxzYnOLVpHUXGUwHqzccTOEhPgfl407Yy8h+HVxofbhbGAFK20py04BeZdXdXkQSdjU8QKYajm52M+HvqAuHkdRR0sE18XKyeyDEpHDIrcA1859Sn+bev6UgbwccAVtfcEIBsPlTsG/P83RFfouXTG8qb5oWPrwnJWx8UgnIkyZIpU0lL1Fs9o0/DRiiTklmvRSUoCQeGzhxEFEpbB8KTcFCTmZQlRCjYQm39Ul4TWrvMMIjFsWlkGMSkZYDpYZbbhDNJQ3zlrRTQdahWPr4JRk+aYot5snNsjyRi0cSIIXdgRqUAFVymz9VbbgMgpkYrFIXPQYGhWBoTaBnqEJZa/CekKc8fB5dRLkGndeSJBGSdto3TlFWxjnA2fuqwvo5rcmSwYfeZvzm1s2GycwlJZ7OONL7IeOEBCB+xUg/19p0r0kuAQccGseGsU7mqhyskuHrWHcItToXhW2UhYINnlqIuUqNciqbIZT4yUi/vIOD8POfkExvenua1RZ9vdK3k7q8dktdJcwMIdHzMyI+8pa8zOSPwMg8ouelhfcvb36Dn7XDaVViDNJtLlPnOoCPeJHDJ5o1T3cc8mBwoeKkvovFR9ibrZkqpAEk9CmcuRzLxEBQ2kBTVYIjPqk9rJ/QOlWTHeawH9uTTOvUzjQPEnFVMKG1KJZ/sNAdyWD9kBhbtFDgEm7jzKPLs/t2hZyGg5KrFgdYKnZ6GkdkYK8e4Dsray4qRWo7D0SizJB9kcbqggWzkFHrAUlM5GzdkZiVnTi0slUYtK0TONod5KkgTGPJGLtWpU065By0bJXo6HSXLuU4lrVAfeNNQGoetxdxU7UaNd9lIyWA7wFm9hc9NixXdtxK6AeJPijtFO7vD7XKMplKOc+PwmQ5yLqxv0ttOURVcLWoVR5dM3Ajk0Ypalz91jJIAQBdPEc11SOGkYeJcSV3Pyg0420BUeWIib4BJnWs4eXV92nWv96j6hjjpurZSL18LqU39UZ9nTDNdJYqXp/uVk47JUczOyZ3frEnJZ8ZBwNkJeYvgKSPkA151ecP7hAwYhVLajT9Ac5O3bZIQOPqos/VAJHAptyH5z860UOomTojUXnYetmlrwlSIpPgfSKkNMvLTtibLvFY+p/oOClCs/TgOK1vCRMdeTtp+xgFczLtNqZ5lo4KydKboYdv6mhsISrIpxx0iymgKrRyLmMJ8UcN6Scd0SHYHNTT4yi1cwW/jmZWeSpkCh8TphT2J/3nu1GqbJnyxKN9khIGpuDolyaohwWgrsKnqzq69fsA4ApV8qZu1LNvxIbXHL/LyciWmVSc8zxiHYiNG34t7g6Cxde64SOYjfQ2Ht9HlThxGBX+jsPY1JHzqHHg7M5ytahg46gwsBXnvECOWo8p8+VVCBvpeZyQE0hXbeD7Fod7qqy5emjKfQDeQCAgrdClH6eSg67RV2srgrnEvvQALzdzypsQGlvXOHID18SnfLu7N83au19S5ibPPm+d8L6vphsCtg4cU+qAjsHbePsnhXTna70OuNfru1mwaebMEdo0NbKhG0mh/JNbObagEd9aBWm6UeW7b6FdJ42h7mjxNJ4b2TR4LlM4phTKxTB/WZvxjF6hGkUCPetsI1ctTXFFDQ6h+8kKrdPyp2HDeyGhJiHoAe+RzacMTcSfw0DOUKA7j0eQxLnIWXyLiRVBcBkndlUJcC4NfSIwKAxm7I1j6cSEjALghABVOkTKdA3ZAlMmg9kcfhvDgS60fvrVczhHYOotyHHD2/silZIrhFIpXN2XEdNR4ymsn/EEZn1X0SXgDxW4l60ZIzsed8pQGXuZdLKe8HcCL3D6x7ysb3byIPDhduXKuWPA1EIgZuBMEnAubyx6Mqk7RA49MrlFzR5MOUiUwsY9YQRk+9kM+NWFwGViuY7PNYjt795IOJhfq4mQ2NHQuCCaD7pCbuRGWa4KdLXhURJ9L9GfQwxI5vPZ2iB0uuEXQmwSe8ZDwJb+A1Wuo8Pa2QV5JqawXvG+1a3Gn6rwXCB6EP2+le9wfEeKFVb7eco/LHNrDgMk0k4B01FeABAMqZsqr05J2856ruwPKH5fSIe1UStP2MGmGnkfb2DvPdwqjPBYniQFkyrAD8qVTCKFJbYBuqM/zP+GoAEk9MmEhAz1Pd2kL57mGQt+k4FLoRdpiaDSh3CDQWO2VcbE2ulgS1sw4hDtsJm1dpxCfvDuRYS5dMxhDDxj5NIpn4dXiUiIPTALMHDgxGEenGzZUk44UBkKNjwdgAgA/ruFlNEPbSy5n3L3jb1M8yg3SpzzNXj7cMUL0HBIA2sIL/YanvmDIZQoFwaz70Nfrgco5b7LPxNHgwn43zBUzCqOTU2IDzrtR7Jmd7vqMpxsgWWLbt/GJ5ASklvZumXOmjL6m35u4D4/oEnBug/lwjzeO81iEb6fMU+sI4ejq1EMzSMeR1ynpHhtDvspD58oGC78XMm1rc6XJ1JPfBtnn9yG7VhSXDsSRE2rnT3gqw0ejeP7yiCDd52mWBiiMaoF8e1O9nbEB4kgrnzQRv7V34LtqkMEOKba2Fls7evnol3OlXJJAZpc6He2AtJGdMSCjes2Uy0DQ2pTFn6yFbv9bZ0OaQ1HbwdkA3pI2rLsqj6nOZGdYFLplqpzGp4MUJBXzIGdpN+nzGaeE2RbP6hxp/woTWTeAJaR6k3F7CqcT1imYwlPPn9fZto4/6QM3mJaDKhdeCI3pWfK6c9og2qUsBgJGqNpRvk3BcnhG9tZRbgZP05TeG+kOp38mA1GJbdAELsXRg/KsDQNDLTSdBvraeul5jVGyBkjwIBK6HBP0lBtodkQ6mHeauCGS0Unrg6usuoQSCOu1PIBTnovWPIul/Yw6xCHohMX5OIFqAkW5fIbQNdvV9bOut+g8DMa+i5SA4pemxI+ig8c1I5zTwiN41N7Uy54/R093OXVs136O0I6ucTaQcm2VMneEb+JJPL/IU/9XF/w4K/IabFcE7hWvIslP2Tmb5SXIV/7wzjEX9dlN9o4l36fjm+jS7aGH9K54/+oV72rFazQuQQctZLCvVfu4Aifq35J+6/jKWwtZt5PELXjazBlBrTzgtMlI29woAHdjH6inXmGaG0BKZULRdL+ILgjwEVxug8eUw9omYEIOGp9iLkQIpXPnpO4SbQQWN8LIhwLyVQwFQyzmkkpTIqKIVYXv0YAhNmg2313JEAqe8uHdyuN56JOfipnNqQFhsJiEo5QeMU5jEY3paGvQXAlXQGtSZiA2xjgyMjnd0a5xCPR3k4IhBpJIA/INDnPkNUVGDmkSYmGprE4MiLlcEHeK6nTVO3N89aGjm7fHGcDpbpRr2DLyIo8jqU9YON3xVfghbFCA4Y5k3ndj4HpRnY+/DelPyF3r/Iw8l0wPQQ4P16d3eNfMvjdiS4+oUvd0KNgo61No5YZy5YjdsBE6ZONFM6L3mtdxZNfU6AXGak2Y3+fU/3iTnKPoPg9YuwN96gupzk+Xy4/Okc3wsDPyJwUYMekELi5ZXzKdvXvvPmqjI/bYx0bHvDXvil1VA5jBlo6A6TbtlkSw+ba5fX+QBxv6ki0dnCLQ0UX5Uc6OCnbDbtQPnSiIejkln2m7Jwb8TqJk+NFOoX4O7dk579T88VkNnfTJeJCDH9M8mp35iTfhWr7S8RStQZTsIOBcX/nSp6H7JEB18p7HImlMLxpnh09PdegWxq5jokWQhrQUKuMQbhdmk29GjMqhjCSDSJljvBFUCULY2kgjCe1ZRiTLgbfEJwkatAafDY0MBgZ/kQ7HcpmlDk4FE6D08DZSL/bjVLiqN3Z55dC7cg7ZTbTOaWvlY0RRQWkDazBHfcuQxc7AW+aoYebCqIZ4BqCjX37xiYvvXo+79ZWK7Dz6GFder4gcKJDgdEp6yrtZfXHwHp2A09OMsNCu3m6WOL105IMLqsQCOrmiaUOOOjlWhL5OTvBTxvwHWv7OhiMylrFjUFrWlYe8mNhWvwP/OzzF/9HHHyzv8NLijz76iMA1kO0gkZFpqIHlW8qPeXj64EQPYorPFPYAvc7pVI5Oz0Lb9/F462BeS4lFbrgxPh0LwniLXUatbF6pGbIji5tCdnfWIWbknSG3GaECLXxU7Zkn2mA3QSMuZdkmcHUCk0fh/TxHaee8wSiNJjIZjDikI7b71btKJ7YftNRz4vkO7ElhS8gyiNQITmFK5HnAWSYF4WWMgZBDmZzre39Ff1AEYacBqKzocVPR/siU4JAWcih87vAREafSYXRKtYhL0+hhyrmdi+KmxiClzoa+pvf3QrdrAt0PjBy9P9mUEAPXBk7HYwO5jhxOHPEpk7ZO7WNHrvPcJXSUdERQ/15IJxThKensrBEM/iZH7AmMMmYjQiGso+yao6OEu5mXrL8c0VwLes3Sqag/UOOGTzZXqLt774Xl7tkLbC7x5jruoFED3cYggnw+BkXXNQQTHU74C4MyYri2Fda8v8XotFI6vjP1mtHYUXg+CW/ACJzNNYJOG6j7a699Znn51dd5NOrdvEn8Q36bAyR4GZR0Lrxdz+a5c3g/o/Yp7159Qtn5E37r44yOhk7ATgSxtSoshv2VPT6IfHFoBRZCX6J1qdd8YqmA/Myoi8k62zK5KDlrrP1Esp6kPWoQ5W+2lCZu9dpiD/uFt/C2gLSEtyNXtqGbeXVDhw5vUins1M95gKVBzOvVA8C55TDJIcZoI28IiDONhBLpnTC+5jLBF2OoXHuWzeYNEP3TcNYJqyGbxFbEuZCWXEcW+NtA1qmjUaJ+nMwRMXSRKcFrY6XBHA3p1xnlnI7pRKmXBsoFRziJmoy60MWcBIeN70aM78RRn7wqQ73UD1inox6PGCmcMnq7nB2RRKo6TsntZHKyG9AzfRreDRNf4+HMQ/xbp6R0FCEdp+hIkd3VK9aHbtRQLd4RlxJOffkwgehvgkA17WRHaJMY6L3P1Om39crC+pGpZs9ESgVi+iAwU192N+M/BO0N0+Gnz57EDk5PwR4jM7Iy1bQCNRjRoQ+Dfeabn/nM69lBduTzAeLlkjqAfIuD8lzD45Tf5bDzy033dDAKZzuvefVIVEa/+A84cS1nJ+SzYQg/O+b4IxoxpWv74QbO+xEbv29nobwJRHhJT8vXG6GrPJz9SUm/SEMEMtbdgEs7SQcPdUe9puKVn1CRVcVsoYI/x1v44hSf126U+Cw0REwe/z/CzjTWtuS66/vO07v33Tf3ZHe347Yz2Alx4gQIURAIPiAUPoEUwVcEURQFkPgGUr6AkJkUFIJIiCBICREhKMQZSOKQ2E6M5AhiO3aSdqe73Xa7hzfe+d5zR36//6o657zXz6LuPefsXbVq1apVa1WtWlW7dq7R7FoIFQ5hpDIyOTAgi2B7A3GJJbu9Z6WLx3GmpXGV4ioZkPFF4P0qzC3Jm3w0VyqlfmCvjWFiIipNYOmZpZEd+2JekZSGNT4zRJvCRiMBSa41rIprhZFOU8JDPYSOqN5rwumckU966vwIlHviPeB3iTW3rF1RlhSFFq+sJkV4YJXOGPPoLY0QgaMLh6OrNNjL+25D54oKrMckrnD63AYfFXCR0SVex7SNZckLtrcxUttmsiTt0n4ZYFEUoCgoTjeFvQkJ+oQyMirSm7p4LX2HLHn4mFPhKeq8VzEswQ82ebUJl9ZLduoQeoJXhmu2nm7hxMGMHpHm6+cceeUXKPI4msdbpvOBduVJFbHe6eAgytmOsTLOupxryyNjmviOy44ukM5VKmkTUT/bXRh5mFbkN1IcTNUQZEogX4sNcIudXFu2JbQAeOGqOHMbLEc6lXLLrtLELJWSDHwBSWDqb/9RbQZ0gIJJllKkHCJrL1qlr8a0whYjQjMYD3yroDCGCLsM4M+YwNjY5JGoDuddRKcx3/QKXiRnuy+87WbyQz7NPiQmOMP4cU7SLJiPDauSOVpLm/GWYBNqIsYEDFYFzY8CbJn+mhsTjLsajUiHiRFke2B6a3tX8ckvmel8WSWUg97rkZRr5bgRFpwqoqOAjgsnmvBH4TlzVNBdD6HyNe9HzDIBL83BDF30dW6aw4yGa7y7QzqdP3rSd5w95MmICC3Zxua9dCDQUmTIWZ9cuklg3j2ymk6kGnwK/3QETRIO7hOcQ76JWQVztIzpBWuyl5WRX7Ds1IqjCL5WEdSL9y6C/xgl2/CNzpTgmal2MG4Q8IR1VN3Bt4TOtqAMiKE5MVdRcT260mCcrUBO+M099GZqAk+VIMt3PNLisR5IWP4kRlOeXgU8ooLfXBYfxCP+VICL3PDbQ93HSmGKIQJ9WVoUSkixCxjlut8SqawoG1KSjiOp0O82J+iJRUjR0pPOnMtestHBlrk2fMlm3pbaGw82AeaHqpImC+ouOImTWVzLOH/5ZDSEaSpKIpyQk8veZBK8Jp24jLbJ39MrzagSgIr3PvNAc4Lb5+OCIxQUrLRJS+CAD80SRVnB56Uc45PmlMaEasRGVZRI1p9hmjl/8mClHEcPvamfKOgM6uBfeBISSUurgYvCjLK9IQa4+tWz6evUci9zwhOApBlaxGl/7xqmI5bOoCu8JmD98rWYx6JxJ0yeEiG/tPjqbjekO+eM51RvKHiUFed5FqFC2obi9OkRDxL2yQ8Fzk7SeaqbGpynOtLYUexu77DZ4ci78K7YrHmKA4u84vUsovnm6bQdM5elHvaTirGvRLct9nmq4wTYFZS4+AjtCJ7mvB1S5tOM/NEdTVL+bDxHE3mlBzh859ck+ZrjJikjvgR+leYoHSB2NsqbHXGXO+nLea6AZr1XJZGhPYCzQs9TdZRvdqhWmKK9zfU4K/GJMqIatgFVnpr7RtWIN8kOOl2JVRyTIK3+2eew7hxsgffKkGLkupnzmzqn8A7Tf5MhmSzILORGGDLxbwVZhAUGwSQDV+ZIrsRmVIJ5vW7jfKTauKqS7aKMTappzZrgBBfMs2Gdj0QrLJcGyfyvF2fdjC+G5pIYq2pKcIPT+ywea2oAruLoobQuClX2qSIAbriu0UawppDgMQRaE81qUgdNMenKK/aIcmnEHnOOjdQrvIZc/CuMgAs8Nygfcp6bnQf/kuFBz5qLHhBsr58dMqoAfIkpCN054xXcHiuyyAaAJXDnDcq4iSXj3NERyrKnMgoLTpR7+8GD4cG9u5jIrAdqCqO8jkK+hm5GRwvK6sjqAyR2Do7siipJjd8gh2eaoCPeXuXccIlXkOugUtltT8s0/yHrkb69y8O+NMXtxzN/5MI6+mcH5X+UQsr9Fz8p2SjS24X4OEGgyfXPBAqrlqj2ytmmwonECabB/ONASvD0iKLBu8gFX/4VTiKBFaLSC4+1rBIKl3R6n3/pDrhfTe64ahiC2bGUqB5MKmBZMMlS6ZWxw5IzBPa0wpM44mXaHF8qkVLlTx85KofwU8wIgL0r8fwX4ZPfXqqMKSZU3igoiWVOIDBk9MkQlzA0EZw/hG6LazlDXEc4/SvdBZ3yD3BEZD3SeEegwNZTG172utpaeeg3tIX8QEqroxmyqWZU0xCXDpB7F8ZVkiW2mC2w/3WZ91N4XMc8TiCdIy6O1/ZClBXBLlvD+jnPQpmIu+DhZkdw1y7y6JZzO7wknjRAX0s0jzppFoc2R84aNeWvSmYvrdE6wsO5jSI6T11cxEOLUlgGBTBystjP3Nm55fwi81js4kgHOOw0PGJD/uv1ZSwDDlq4Vol8/CzrgI7ajp60h5vG9x9sD2+A79mve194nWM9xnqEEINbRc/ong7Ma3kHF+QlsHHogNPqpQ264MBzKho6bQMHFGlRkeAc160gCzFOvOLjzr4p7UO9S06wQmCSahWApnDeRlrAXQcWy8eGj7RagRCGbERnhDfTVDBNuv0VP3t1JUYkhAgulQatPf04vlLH3zEByGOumiuVoElt0kRtI5IujBiTxreh7vpVotrXJMWIXn79Ul56TImHY5Rf/XzBFTUdl1WjZCqaUYg76ZIWSzD0Hk5s5u1pcZHT+HaaZAmTQhVlK7kKrx/xWXdHtQTz+EmtK6/5HJHtmJxDxGlESTaMCuAGgXhqHXlA6kK4yGdPCo8Cms0DlCE393iduR5e52B6Xw3Zz8piu4Qqf46Wx5iePlUSJxBKsc7r2Hy+30mZYpi2hYYTPLQx/Sn3zptvDgcsn/gavCgy6ZqfzoUizO6k0bwk3mFYk9aO9uTAHTls+mZEkifHdAwjPEZlblNn5QD6ozgyDkLl0zm7m+6/+dbwzNPP8dYqzFoVFUVz3kutFUXi5JuKzw1Z00aROxO5T6cAShPz4Ue5UJFsC67FY+dhPYRyfj+BN6ZulYDQRR7n4LZAlxJl5WH5EmnR429XtCqhsNfzmcBYr2ngoG3SF16aWLhw4FBMKDZKEppwUV4UC+IM9Q0EDA1hIBU65kFghUqxgU45SKH2fAm86QTxTRPBfVflSisQwbIgL9f5xAkRBKQb1YKHH1UDwMS0no3YGVDC1/E3PtBOlBm6VIkKMtRrhdXTsVWUlSUeSkT4bVS3j+W1ceSzc3DRWe9lNoNzneMayRt8UUzxoWzaZOy7dH3Q+Yuslm85xyZCaj3raRE3GPisYQQYRM5xjng/5D4b1t36dsCm7BznQXnBg4I7qvrORHEqxKqoO2nOUUg3L6jfe+S/tL6O1QEUnWwcUCoE+HXSOHrv80TGMebiMg4jNyKckNGdNfM4juaJW6QcX+0mr7NxAoXT0SNdo7xiXE+xfGIuquK70M/oHIsFpuYcWRQaLoQv4ln0QWfaIo4tOyQlIXpkW0prQZ+zGu5rDjJKwj/Ii8zIX+UPVKl9yZWMC0DJieKsvKhh1TjciMSPrR10gc2J7QAJZqq8apkoW1mGdvGYmCBskI7vvagYOmHyTIf0RYW5RUeTci0kyzX2Ylwlo4VXSbLBu671eTRKJQKjTEtQML1ImSKZDkZ2rREqQAUv93rgWnd1Vavg/O4QNqYk18OuXDemCJHljSgHEkdRzlUMrd9Jw0/uLJ9SbLxA2PikNoYp+AnQ43zoHNNslXmTDHQdzsOU9FCY33nPIt2YbyVWncus0UTD6Q8bPJwqKeT1fRyag0fnOEUQbgFyQhmjlCOlrxvzrVYnKmEaYo6nKZz/4dFEoTT9/OgAuXTpCqMetGE+psdFQJ3fbfPS0lXe+eF8CcdoBAv0GVXnWfc7QeFO2S+6iGNFflQojvsdcYQPKiUFoYg8HsUI59GUF3RCx4AcsBn8S69/ebh39/6ws7eTE9XXwCfJeaIFk5vKgMMN3/CONxa7JzWjqnV25JSZ8CDLQvB5nvyauSP4XXTID6mjhdLO8oaOC8WM76LJijJpZ5o6kjNGC3Lsu1ocXa2StYS9SQvutC/55HkSLccAsGWCxPbJykJoUMozJkePlZbsnGpZ1JeA2TMkdKTGKmFFQylgxRW8NFSO/i2sITu4IkxB3aNtnsoxiQEaZgSTv4biXF03xZvAS2wR3JVDQNPLApehEm2qf5UiRMxSW1kGyWm5F3L4EoxgdJFhfqht6fHImRYov4upVRtvxdEoyiXX4I9pBlKVkn6dXOfDJZVRFCg5Y2U6J3fY+HiUQuTTG5qGrr36kWuO1P3ZTpvplM4kVYCi6mn5BWl5AFVut51hLlJf4TRBNQ89SYBIPszBmAPex0TVKZXHnaBkiYmSVYkZzDk0Jye7bI9j5ELo7Ug0Jz0WRCB30ujcWeTlp/LbKjXmQTIKjeK5fS1zUOo/cq4Kbt/ErIC7de2PvvB53t68OjzN2TUrOF9eevFF3aaYmU8Pd3iz1Ckj+Aajb3lWeenNvGu0vHAVmjQndTpJr81q0DKYz2RPXjt3tZ0ASOBX2YBQ80ROvMk+RVqGPsOOx+5TdF16qk7Vhqklhem38LpkCmAr/5A2EpE44g2dhOQpCyvnPoV+pcK4olfQ4E7G/iUyP/XtkFayHYoSX/ly+dAX1pjTTtlAFmbFXtuQ9tqFsuAVGhkjtTk6w8s2mKQGngFjOhKlUEmKONPTBM584nT06tWQq+ZxxDMTezLt4RAI+QUmmG4aYEpH8PJDQbVDh/ziRFjNE4qDB1RTwSJ6SDniBs7RNkILo7d5s+4u3sTICmmXNzey+XuJRkeScbDg4eRab6fmXeYloYeyLQCTRpeJSqnSubtGT6S7R+SHfJZhcbWj3I5sjsALmJrW85A5VEawNt/a4hS122/fxcQ8IA8KSfosI9U3f/g7Karu0SLMZLelFQ2W56vLz1ACRTVLGPIKAtwpA9nFV8oN302zdOgfUUcdSG6F00M7AmCZudzXf9uHh8/9wecGZobDu971/LDE68P3gD3B4eTnfR/68HALvr2Esr755ddZC3W/rAruJgDoYKR1Z0yUEb6ewRutrEwl6AhkoQqatqMMBV+qQqhyA+2+ByMjWvgcpjPCEkd+aVdWaz4uXJMp6uYcsPCSx3/KHS/CU4px/ii4/rwzlPySDXr5gtcl5Cply8qvMiMqPz1YbtlNPYYBA9lIsbbFQ9AFM18jj4hEZRH+WliR9w4iU2KLHSeqeMkWYtPxtNvCFjFMPaJkfKX6JCrIiSMmNFBzcckAOwAFMVvZiIwwEWdizWe9rBKMtsfS7H5ssFGDWDzkVwDIqgNki32Vr730Er1oKdMJwraHcs4wQqy56C61mJO63GWRQuC8CZXSMK3WkFZJ416TUstCc2yG3j8eTLKOWL8rRZZGRi93zCBUmoAHewcIMSYt+d5+8/bwyquvDbs7B8Oz7/uG4enn3z3sMfK88tLLw8aNW8M3fehDwwN2uXzlpS8O+9DpcsMSc7tlHuyVppklRwR2wECPc98LzF03nZeDQnIlFIJSHUdyPK6Mej7xoQS4A+f6u54dnv66F4bLvIXryI6DJYhXvvI6Zurn4vH1BIMdNggcIVhXnnhyuIUj5/WvvDXs3b7LCLkcM/bSZdY17ZzoPOpZRNqAjkhzz3niBmb34rxPcXj8v098lPIoB7QkCpauMe2VNcnM4SRbLvOhbHYa0mhVnaRQLzec10hbnYANY92VOWqeehPRL5oMmSAe8JKkLDkQ1IMEMKqBR+4KdPxN6iNB4FaWLaq8t7ooxFFK2W8bNEgdXnhTYQCRYRoJOkpSsD2M99rgPSRvo6rH5TesQb5IC0wVIsvSusDYKaSixpnccSng1J5YPtBig6h1gkgs/7IxCpRfGG1aIMhFA6GvwFaso6bKXfgCxBdCxktZKtBYAOiA0SR1/ezw/gPPj2JOxqNI5Hdrm0x7cP8eu1PqIdg8oiSfyFeHU4GTe+VDDmkO6anTDe7HXtF65VphBPb0ZIRCukSiyvGBzv3t/WGLYyjmWQs8YRS8z6L763fuDkc8Gbx47fpwD0G9/YcvYiKuDLuwZYdRbePGjWEZ5dEb+iUW1t2lc8qTHUcsTyywNOLonOM7wqXikc8q+vSHnUN4KZ8xT93N4wL85atXhl0UXt7oFHJr24MH94bb9zmO34V7TjAAdLhx62Zgbr91Z7hy/VpefLp1f4s6bDH66ri5GA5YYzzxSX/+HBl98NklJpvaEVpTdo65rPNceWhrl5lvW1fbZpCI6Clb5OPbR7ecIkRe0udSAnWtJSxlyFYvWVCdxZWYyFczhYkoCaqykqGAKCESmFx2uCk4d4W3IUuW6a9e7iROeKm2ZtCPbE6U2HvqwscQqrW+CNhIkhx2kMCveCBeW7cQEtFoKQRqeYsAoodShh5fBY1rA1BPQRqI1lyzTOIFRZArh9/SExIQFFlaeVOtwPYqCuNCgnkb3fyAii/VdzqAhwh7ZVF0R0J6TwT4+HBvOOU4iH16dz2GG9euZO1sGcE7YduZC+GOLBe8994zUnVbp1QY6lKDI5AFGutHa8aKuWkcDw5rbgg8o+DxKTw9ZIRCkOLEgN6Dvb0ox/7OHo6R/WEOM+89X/+B4cWXXgWUc2cYQZb06s4uu6g3XEERfSzp3u07wwOcKXp4NZ3XPAQrDpouatCA0EuRZoDOiZMj1gjDYvijsMG3bEXDAvDJD/d/6h2+cnkT6T8eRrv4RcF/7cr6sPhN7x/u3dnOuxb3mDNe4ZXp38CovXPvAfF3qNPZ8PQzT/M0xt5wfLSXHTtOHAzL8EEPr6sxFz6ADP3u6HFOe6yG0zgFKXRdOSf0KqLW+KviRmG8p+PP1AQg47RR0ggIgINQyQudUl3UYEM+LZMMQEEBrLjI70VkB/jItzwzXgkT4Tgkw/iuLipuOqXVonBNQ7cKCZvLAgyEZwKlwUyI6DeM1YjARGmMtBLm4doR8JHQFdXoFMJvU/6CbIXWzM6bCRVeyejgnooXRl72ILNUXskQetK7tAgKzoAurkdINJ/MLeUveE24LNgi9McohetyB4wG8zyF/sTTz8Sd//x73hNP6havM7PQahh7eRGieDBFZbTp8jwenQ2lRMBc1GeYRRDo81DIBRbMZ1nk9zgP1/qWWLfTrHZ9ceseIxBPP6wsXRpuXr01zH9gffjMZz4TuHXW/lw++MAL7x8ugfNLL/7xsMup3I6Ma4zm8xfHeWjX9vHpe2mim4AKua3AQStXOopIzPJD5k6Yc45Izr8dCedZAnHUcsI3wxx1jhHXTltr4yrOmSs8tuVIur29l6nDGZ3Yay/eHUY4eNDl4Qob2Y8YCU+YK7oJwqMZz/TyzvKhDApKm7kn1RE89YcvKqb0VaOBiPKyvhrtINpadEEgOTHUKUpDOygHypxNEjypru3hJ0NMyQrxwgnoGKS8e1tTQQpw6E7nJZyck66iKhfv+BK+EfRIWk+hJFtgkgoPqF0jhGiFOXWnO9GFbMV7hEmldXZjoIrigbpqSprFPBxkRho/TLTHIp2KxemSS/G0fBRlFWNliIY89mt9LKMDJ0oXuS58evnQVnGhOXm4Ty0A7nQZ38JU1ccxeiuLdsqjECf84nc+6l7KVZ+GWKHh2IFyvLs97N5jNwwOjQHB2uSp9oO9LYh2FIRSBYOv1NtqGecfvKzHraCOOZDmLs5QKuyBUujlGQdb8STD0QHeU4Rwi/NDjxit3NmyusH8ifL0WM4wcjx98/pw+v5vYOTgZaOMVJfWLw1XNi8Pu4xCmoBuCHAsiAOHsk9HB5BBYYzUREKLo6JCChyjnSO2fJEc+9eLeGvhg2muIyIkoRez3HXOcyyGbOTW9ERxxOHGBZX3ytoy81wUjRPeFlVm/qyPlocW/jKvVLdcebGMB/eE3UtZSwROTklD3yPrmmSN0tBU45kXMUmlNlYM8IaufBnCoLGmUGKTBr+bJaCsIUPzzTx0V1aQBiLIo4BZLiElpi5p5tFMTwh+5a9LU//tvUKDayVXpsm3VFWwvuRVRxQc5XAcGg7jwZORsYTU++kCuFdROjEmmS7BHYwog0xyQVaTrdJseHpn60d6sjYa+n0yPu4LBDFhYUaY/ziYx8SJt0ZXLqCnSu2AvXdqRPDjyQ5Z0mHUWrvE0RAb+4yICBPm3skxjxDhxHATwdyxO2cyA2TOhDkHaps+JajMjiI+w0jvrjDrvPEpfLe1Kbg5kh8lOSKvo47zzWXmX5ytNiyes+4HwqUlFIERcQYniU4ctWWEyfrMU08yOq/F/LSnPmPOOcsI44t2FP4oAKOifHZzgR1nHBXwMJ0G5eNCQfCcL+kgcGlDmFJKRy/7aV9f7fJH+Q2qbtZPM9eR0EY9x1ue5wqhw2cJ16kfz0Jlc0AWTKi3c1ZWBiN8KuLqmh5oOlY6FztZBUHvtWmc2pj2muVlOh6MZaelSEq/NEkF1UwILWYXB/mlPzXgQhYx/CkAAEAASURBVLMzvmMSzdWnDFEAwQglR8qksisvgM0viKybiCk38mAUypFlqF5wMAMSbCEiV6lQi20R9RN0EN/ymyM3lFG1TEQl68QDTlDWGbuJIHwNy5XUCq2ak2gJTbMZIbydLswK2+hhGEmmWYD3YyXx3j8YOA4ABAbo8B48LvTCMmKENojJvPZU4jSPd5VahQGjAjvBd9gFh7krZ+X226DwygE7GjdD+3rwlWWU8JS36sICF7vrlW6Yl0jROY80ua54gql4jmAZ5twc7ghLCYuYl/pPFTQqCxmUy6W8d+SJsjiykM9dJ/MLjConC8Pm5bXQ6yK+LPW5vswBgTFfaHQNknwq4zJCPOtaocrKPM9nBa1jaFGIKSAckQb4YBcifeKKQIJSL6XX6WSpv6PrIk66QzIqoFkyop098zZb7Uhj0IwnWY9y1vp4YiMb1plXztlhQcchiqh5uxDmQivz3JihVMyRz47NZRNHSM3C0BTeqCBEkM85PFSEZn+tTPYaS2/SSCYU1/kln9HZ+UNdLFoMMdPhl/Jh/Y0zKA1ey7PIikt50CYOal6ZvUkGcwpXZQgBStIKPiDiy4UJU8Fb229azgEMz6cUcpIrpdsWYivUFtwvLfydAThgBEtov/5kLmWBViDBa8TIyiQ2ULkfg5iPjyk9lzFxJ5tPfHyypgdMVFgS/JvKBEiCv8LL4MAoCI8poWcVn/NGw7k9FJ8lenwMp9CZh3Uj1CzyY3ZiTyJMPmQbLQu/Q41SIEEogWxD7kogrIMPJxuNsGhqepq2a4vHazy5j2AeY3K6JqeXUK9mzojhWn7a57u9bJ5dPFE0X6POxzNtWJPiXBmWM+gUPELYhRYSZEApEnHOXh395Ib4XLrIezUg8IIRSbNafskBRCfK4CYCR1Prnlf0yUuqp2iKO+uA1EdRV7HoVTD7qSOdlJava4yudy7juNJUto4zOL1cW8zJ5OAp5aPAlCwuKCCvoeZq1WoKf3AEjvINwvnxlt/QxYWuuVZTKcu1ANUWIZ0sSqeUM91o11HXoJZ3HZscEb+ya97KyU/yO5eMvHMn58eh0SSfQpwJufYXWK+DpOH3VhQt2DGOg/IkElGNkXg9HWyZMGcSGfjEiWCCPaAmTqImmbyiwIxwpAtitQRXMByxbRjndT3U2pF3Qk3iJ/ciKoaHkYDJXgWhmvdhQtQpTWu1qh741TRCFLFhfWLCsMAo5SNIe7jr95gnqZTSJcE+rZC9mIxeeWyJsrsnNXgZaWawxzICQ0F2+TASLzGSHgy7MYXPsc8yp4EYG939qTkvxzqiiB7OpMfTOlquJpbb7ZahydPoPH7k3CULR9WGw3m25hp6WKMb16qctMkJR25Nxxm9u+ZhZFY4FRGr5hEilk0xqZ/mtZ2JvJSjLsKf0Tu4OdwBQDpWcTI531KBc0QjaW6i1yryk1HMJrMtwOv80l1BMzq5oCrpSbb9JmYi5Mhqmpu6W6nUobenCUn1ItRlzhcZMAk4y5yScrEXZOUMT6QR3rtsxf8jwYiKrJK8npT5MDBpAS34gmvXXytLuF6JRSbEFJNUA6+ninhoqIWLEB3b+iEg4c00nZG7hgpWk9ZGK6/BIdPUg7rmB6bZ22TPJdH9CIjCKOAkFEkKp3GKEMKFcHj8fZk6GigilMmUTkOmEQrZGJH0adYuYYLmiAhGPs8mZaKEkjI3w7Gh189tWx7baIgzxHLFayMCN8KryWqaco0S8IWCWQ99+edu4ZJnfBRoeeHoWi/cYbO0Z4oyH7NOKpH7Q/WuWo+Yipx5qtDPYTovMt8MemGpH9XKBnQZXSM85eSv6HNzu7SraFY9c3qZDn5UV2KphrSpeyowHy0EYCE1dCsRWQqwrqGpOo3seKHRzE9K1Y+yRJbjR6iLZVoXDz7WpKdXFBt/KqqdbdFl+ba92wQd1RKItH7yOVCkm2IHIw/1gqfzcvyn3a2lZfvXywik68s+bwWehPw2GH5swxBKYjoEcaTyoqFMYfizIzKXQbiCTZEVWQntGpxO+chfwfuW2/IeCq2+xJWECSisJpXhoe5BYntlHkVU4F/rOyhbYvGgmJ8oUbVirWZhLsJCr9qZSLE8EsaIaTBazB0zRT8JrbHCZLPZmAoGQthLCWLqbI+9iPDN41BxO1rmhbjj9VTaGWQDNIrqE/GyJnNCTV/yuItEj+8cJ3e7zmcv74tR5xhtFFA8NPT6lM+1uCRQc5RWDB0u1NvANjRjndFRVhUi9SfWtTa3wLnhWhyOoK7XuaXOidyF54qAtJw1lECdpNFlCzF7juk8c0w7T89gPT3mvFKWbdKZMjovRmDAC7l2Cqvs4Dli9PeJD3HpiHILoL2M81mPj7RD0Ty1efKcn/HwK36BdsSi5qqOq1J5KfHakZY6Aa/igIH4au+IOeXZrMYmWE9juM0v3+lwBDIoUOQxRw+RI7M/HD0NkhKtb+WCT1EYedrixFmJQaQ6ifLRkDjbOf8F4XdImsqQDsMygEu7BWZcwENoER+rHzQkNE0ew06TUpF58mBC7UPIxOWYFHxhZk+mjBBTzO+0duzZ9ycoCV5bARugzMEOLYD5jVdgMXGAU+wQp+IYZRqTxWCubPDMaxAFoSaYpNB5Rf3O8dS8gr/A8sYxO1rsDh0prI+Sar/rVjPnJCOU9mKxyj3heA6FPyOXimMVENQLt1EhuC6nZASoobw1HPAIt8sJdAMR8ii7ig0GFUhAH2aOqQ5eOe/cKeaenQEdS432dBAIva9cCwy0KPChHPpVplo2wKxkJ48ntLnZXGUUn57POY/PkB5+V3iH4tLiHsduqJCcGDC3hpJSK9sDfMeOpDRB2R1yEz7gRXU0jdtersK78B8+yLu0EY3vqwziWAGPloFlSqd1sp37X3+CxwZ1hKrlh4LVE2qnYIfgaJhOT7iM8BSnzMFzkiFSjMTZDxJvHYyuVg23BJKxlAMPOgxJaV0VKBjMV3UlIvmLVouIfRHcPSWFC54sllPt0fOIo4cJ1ophZDRDCxCcAFSUR7Ko1DiURqUC47h20Yd4C6evJDa1ivlVIA2Ple7B8ri3kzO2ZJZ7emzVrsXmqr5I46/YXNXTQaEolukgXxQyGek1X/rMU2TFeZkrpSq4+BUHbvpjRo4FjkA8ZVE+HkoEUZp0WuhYUZgOD0cxGcMpkElrmcigA1/M4mRCGdk4qSr1LXpZ6kAILVmTdGaR+nhmxTFCrFBAsOZrailr+HPNT+GqDgi+KozgzF5Pld3rlMw1FRMv/1EIib8Af95eRefgOaxZY7VsOw3+Or0K1jzzNw9G3uHs0wto8jiR1XWWJ1C4epsWeKFPb5IHZ0FM/iBCSq0+RYI15cMLQSpSgLHyBJq6AkYIN4iy85Ii62B95Yep1FC+eEOiaunauHHERolKfpQ5R3m5BwLoOG9KKgn8S0Bw9pLHMiuCBlRxArc8lFF0CmNku4O30iBFjeDIoDSGdqnQ8kAaoYQ0M08HOnxhSbVulltm6jTMVKZUYDrN6074o/Hci7DCY3M+JodR5JH7Kj3ZYjbUJfFE6EZsQSamBOEYMWx4VS/eUxP42Jw1NSkh1YR0/S0jpPkAqw9xXPmtPszxONA5g+ICa2Ou5ylmmohCH+G8cb3NZnDepbNHxXJ0c33Ra51EPlvoQ7TyyLmi/HDuqBOUIZQvlCASCiaFiQY177mjX/gKPHmqMelixGUHCA+Mt3E9tEqBEFtfIhLON0Cp5vIPampUYe57igNJ/XF30dEerwWAP0s4pcw/o2OIUVX+l4pjeupgouM5xinkrp9jOh+32eV16OaiEzvHIph147zNBj9i2Tg3hkanZ45eGTXkA/V1kCRJzSK/9aNTY7PDERssFtggkNEuCk16WlDeRExl2TikRSVB4hOEMaQ2sEpFLMG3kxRX0tqPkD1q6oJLAAJTyL2dlJFcU9lMVDThs71fUDJCEmd3ULSYnzYBlFlMxgObN/QLEeR1VzpTHSjPUFsBchCADy7vLMY0e7lJAFYCaABDPZhbeb0Xj0I8jdP4h4NQBWEJ6fH5tZEUo6LBRuQKriiY4RWCK7xVdjwQg3mqVEjKJfkBdqSUbONs6MCFAda1amZ/lTkg9fEY+hXmhkscNz862EmdPcfF5/kghO1emKbg82l337IUuhhFdJBkFEAqo4zwZR4hskzNsnQWCK99ykweT4M3sktkhsQzY+TeDkTa1VV7d83PAJDBLApnLX9U7UoRa9Rw251m3wk7YmwbeeZRjiP223qOzeISu3r481lJO4MRDy67+WBhhUIRKrXK/bbWYRFcns+6h7muQl7wrOTSHO+nhE/nfjS/0WFHTRVT/HZ0VilOOUdf6l/jiVpoOyAVNiKdjtd6XI9ODnPuzuLsRuKUXGGUKXlQbasZSH2hL4+cIVuu51qWPBHMAqxv+qgoQNQRWm0D6yasjObbT67lrVnFRAiDkYzISEUYFeJJzGFWlKP0oAABr6y9E6V+EJ2OMDgohXrodfYv3vKgzR31hEfKMza0y0A9uKVwHEITd5KounkfvvDbQ2BgjpXTjzCuUANI8RI0nbFzbwrGy8aKxJrPEnszxvMIQOao4gtw5RCmhNHfZB9/FcMLXIzFCBpaekXSMpitZo02Aikw0ycjRuy3rA7CdwzyVB9MzdPrNKxLE0sc1qRGeRRF1h7t9inIcqNM4HeiLmtibDuyI3xQAC66G+CkK42l0EJIeIagmkO+Kk45mY3GVEDtpOwEdeJkfiMGhCJLGMS539Vrh0AV0v2pvqrbnUSe9u02tjhiIPUE5YJ8LAHqzVxpgfznjO6O8HYks7OXKA9rwd00WAPHKLVbBj08WcE+7W0PLus065EijpbQlPlyRkjwWzdMWTvVKCK1S2Wpj+JsbVVir+O9bHwQqxyBQXya4oVJ0GY8194mnR9hvU18OoHKZ1Thql+5GpmBfq+TBq+t06PB6OlQt49GUo608Gd7VR5hvPeXb+ugHoRC4swSTpFmD/1IiJkqPcAFRU/vNBZ6hdqUYAOwEMmGRJt3HCfTZDWNbm/BlXOBChIoZmKjyT2W26BE8ARNJuKsCBW2F0l6HueSmQAhjDXEU05aR1yNHhux4Uk+8akIxCnaJmGQGhnW2MOfkKgDZ4GRYZS8iCQmnksDngXj3M2Hf33od+3SJUxUBRmFHNcHOrm29lQYlH64ly/k11y25sqq7VA0tIqG2ZgqKFzmfETnCENGr3hiESBZEZOW37jyVU46h+iglS2EKf8Y8+9UR5Nb5lxm4dGFc/ilgrN4Y8sgDOTXicQDxLN0MCqjaGZHbEjATCcR+NGwz/zxgM/65cu0AfXQ2cG6Yn85qw8U2lmdOTdHmhTFM3cNMUL6SJVWR+ZExsPDGiVxBqHgEUiYYX1sl0hu5Ig47v1Ovay8rPKWdNMsJzDcx2TkTjmo1xqQGpnB6007OGqGRXZgCITKE2Ti0rQhhoYKzigXfIjVRIrBvAGxjLpMnMomNkc4Q3XIuQyvLCUZrVtkw9wVur70e3/jTfUClCnIa4Mk+q24VgqIqkYw9J3wRYgw5oLoVJRbEbdQl1WSqKxIV2fAkzd4uLY3rQeF0+eGPhlmLpkehsIM8VhmmGg5XIfV4mjYGwh5Kn+A6DCY5YXOwkZ5JC+4ORwhV5h8hbgOA/MdOX9CyA94ROgMQXc0WFxm29ziSjW8jRzBCokhIuaWm2Bp8FlGyJxaID55I+2AprsS0LopOIyQWfZAcDL6ZdTTWymIjWodxVWjYXCxXW/kgVKsdx5D5wjPad75Bl6fJLFTdPnngv2rM5w851rmLJ5Wlx/mfHbRvbmihZkX1H2FjnKVF9P4ONQpOA92dzJSLnqiubRDtQbBHKZ36lwcD7/taeSbu20yKqYNKJ+6ZVmGezeOuzne9jH4cLRWCurZ2tZKlpIoIf6nVOpfrWG6n4q341OnanzWcwtd1kV8tLPmd7ys5I6l4b29WMorLOF/4C0pTDaB0MoqMtIORXWlWt8JPFdFVhLT/tzHK97AH/0Z6w0JUlRf/FpI/yjQnVlcVggVRahVfUdohJiWhgVAqBK+UPW4XFPphVE09ekVbYgreeq7cKYG9q7RfPPQDHDFhuOChvFjNtOs2SSIWXqdF9hoPqlxiuPGYyhyDik9rKNT3hBM3hygxLxxnxfD+H57zcccmEwP5Xk3CnrVv5QAlGNe2IlpKmVZQnr4xKtJHkdRTbbl7NBh/6oOGUYrA1gRHmjXJGW0VJHiTVUAwXd8xIFT0OLzin4OdlEi5nvyxRqnHO5yqjd4nS/GFCdJUzvntuLAmmF7neao+0Z1FLmO6Oi5t7PL6eA7jNZskGDdco75tcsp8yp3ZBrayZPOwjqRL3zPD61hHNcGH27OW4u510x1bisO5eXxwfzhaH4LTUNmu5Gt8noB/oYkisi9U4V4WMVhGX4CxG8PGeHqxqSOoyc/7rfvHU6hFvxQ8L40KLL/UNrXvmFKRYVauny1+aeJsTl7f6RNZM8YiM7dKTpseAs3ffyLkpQygAfYlJcuA7AWVJR8uB+XbQT/jlZ+qsvoFPrrJyUljx1dL79GOvKZH5joaKCJeGygwZEIlzD0qi5zzqjODp9k8ChCFchR2mf+NjevsObI67LZXG7P7yvbJDTHQlCvuPatXwptHQTXcVxYEXDVjLwRYj0RXnkj74t28Fmf1JsvKue2u7z6LUpZdc2cjlHwDEUcsTZ44SZ2OpEjzj+18kENojk3DbBxe4EnQNzCN8Pox+AVszsjhfhVIGiQh7aRZprKtcC2O2KwBjB9MdMl332rc+yXzTxVuoCLY6/JxALrtm54DzCuZEeuvlndUXobxT5gbntpw0etqlxLngRpkE8G26ysI3ou7oi3YkmpPHZ/msDKph9zqr6sGxGvK5uYTIvM18vpv8ZMrgGYgORm8hUemQy/srZJ5/T4IL5qwEcwvwM8HQSx8iHYJL5/dDwYOpKqmJU0ksooDPSaEkR3qI3Bb4dOVhB3DBVvZVVqWdELL8j+3eFIl6EChgJymuQnccGQmzA75JPY8xSaagw7Ge+lza4XmKLAGhnE1TL0e25VsDWeX9Rz6kndI16b7fzIIyIs0xHgEg/ZrqCwc8wZs4guL0AXXlkWQexx6zvqwTdLUpCUiXPWUnz3hhsXrGspIrkBcnT2qEQ7hmzUxkx1K5yOm2oDsYtHryY4nK9hSo5YgrB+mtd6M+W4fYLOHY9o9BRvNwEssdvIebFkuqPGnTnuUz0h/zkfTzYwo5sPwrE4Yc6GQ8xglyJ8tIzZ31h5nQvr+c1CPPTbXpralmEHlAOXlRv+NR11xPt6dkdH99c6MmfZyWqFa7ngSg6aSZx8TQeTCMbqAa1kJKzBaa7GRKYsl4PSWUiXmaBBnlenWDiMHodHy5okcGVZfFTG3NVMdwwydWG5Oci4qDTnVOrjL+nctLGbzFoQn1bXqew2rmlUrDOJCntdRFE3e1YrYn5/JDiC2YWz4Gszc+uJG03C58O9Aluh9Ya9hDFMRD5w0kl09C2N4j2cNk6l97doVCG4kcbE8jMdQJQ8fJ+gLYusNS7yBH0pBW/fde8pPb2np7nPUhpPcVLE22r1msLr3EgzsZvF8umv+VTjox/Ms4jhoznrYnzWD7mvnSlQwH88se6+IW/x0wKsBXmUIvJ6FKOHTLn39cIRiyc/6CPYQeMSBvjgfc7scQSjzVR6RwgVN09tgHLepypQVLfIHXtUBk/5n9DxHLEcosId8LCyHaM7bGbpdPSMOldWr3SKEJnRL/tngaGHpmwFH0JoTOeNzgPVep0qcd6QuW+m8BRAD0p2Yd5Dpc5Is2Vth/oisgsGUfKxJfBbMmCbuskjREkYH7OII9YY5WvxuHMnH3AokvXYlLRZRMtAnuC1fflUEJPlUl2qVeVxb49q+9rbmZ2E+oA/9+YBpuU1vzEPfQBUQv2jtZJYb762TILrMgpL5jUBa70JaWZMZolo8Mk09RXe5R5YCYTWsFh4KFFhQJ8KFJIiB4zJVYzkusHUFivhweLwIcNj6glgkFbKgaYUwW93owtBFZOW1QVhzRJIc1YljCvPmfVT0PjCrFvj6fqt22+Tv47Bd3RawYt6xuFRHiwVM9UN5Xx43UXyaqLmHRgqp3WH3jMcKL66LWYa9FWgARDmOBYsEKWxo8g6nYvpgDmq+tAuCGlgVNy8ZifeR5ZcbJeOE58jpOFd9/MlqrNsLI/H0tpjuagIWV+kx82LTjk5brQ9ymi/wOh/uI8oAOdo4nOkHlp1goLuclCxB0tJi5aAZucpSjqcXyIvnQX0Zg4rH9POKBb1r1GIspFeu1PPubFNdNrEyCTfieucjIg6ynQs+eSG5VcFFU7Z0aTfOldT5UehryC8AWhhgoHy+HO8imQ1ectD0YkHjOzp1GJek4t7SlJQ/CaUfNsWPSpzTsvtERboPT/jJqV89caOy0JK2jrOgKaGKSIQUAoO2zUdAqB2aQUpGQ2z7CDWmHx7nSsztrgkfM0voM1gmzj5iYLLYjHZciqNmceYvWmhlEJaFFgbKU+wg7A8YZ2q+i2K+A7OgokQWFEZRhmW3MsqNhEvY0ND1cga27yOSY4eG1evDtuczjbiBS3z7EWFGITPuVaZXjpaxOkIgDsEhUbwkVx7+3k8qHo7s6BLGW4ot85gJosloaR2nJKnAqNcKmt22JAuTGiGIHtk86az1qylPOuaJQMjHe0ZWlwjnWVL3ypLEAv3VaSjHCVy6luI9zinhmMi93hfoiPTGufZYB+ifHXUxiGjokdPgBaTFWVE6XZ3djjwihPg6JSWceqIH42k/jxLyVLN/IwniEsa7RPOyT05z+gH3BLPNfIyguCU3nTO1s1rxN81znRI4EtnmrYCBcHLtJPto1JYUGtFcaVd03Mb78dgu9lGfKaj5VEUu+VrsBBCPLLRsotzjDswhbnM4OJNZaWc5LGcug6Z0kE54mgAocy0HlpRuVUKYhE5yoYWlFH2PRqqsgoFqhApmIJ4J3hLrGLDxDSOPZs9FDjIYxMYzF70VkMlcvorYLK/MJmjLwNUZjCoyY0OmeW1Zp+MsIEdzdLbpCzneSqZAUDSzS/+Ep8kcIcyQaOOkphU7OBwRBjtchwHHkBZppvfJxQUJuc+Lm2IyZEiPbkmHcKjqZsHkxttqb1CJAV8ZccKMPLZBrE890y59CGN6YSER/HNkHU0CvSh4rDHrzCRukgN5a5wqpwlaDau8hDz4du3WaCHDzzC/6VXXx5uv/nGcII5qjJu3rg2XOes08u3buXh5rMDWolyNLvOMX3ffvvN4d7bb6FUTGHwmOrNBTH1ReHjQXVZSHHSFHUZo0YFupXQD/NhsY4TLGnMaXcXzbIuq8l4yEYEgx2VHdh5GzkdUZUV+QMzilGal/6Bz2ZLSL29CiC/4UhLkgNKtB2bskAaYGXKdkhx9bxAc22/nNExWOqrsBacRba+gAtvNMcrLZaYvGsoe7xYCodXda3MGfLLZcxhkNveFqDxEoDpL4U/2ckQYW9Yo/WgkkGPD5M0ibISBdvLqHSZo0kzYegj2IK+hFciY67aPq0y09CpnoyRVhWRRBVRsQ6jICJPEnAvWOoF/lwa98inmlMTi+P9ObJxm0X+U14NJ+U1gnHlDl9xhM6ITmiUvjheqJt4rL+qWyZd8UC68nSBdPGpB2aNLXyanzFprQvEqfy4SVEWRRUYvvIGqDba2nks4NklE3hZGkFhNq9ey5LBHifOOZIvca7PM1/3wrDKJni9wvd549Sbb3yVU8OpE0qQglQMynJt8dWXXgTufHjmuedZ81yOoJ1SvssStSzSnDtKIHXInx1KevlqY+uj4mNLo+QlcC7073IKn17gedZn83wlKKyiT5vwHVJqa5n2huiJ68pjRDWioAllFgOXJFuABG40yBrHSDG1ZMNMabee3yThpR/cNbI19AHUwikY8zr6TSuc5MSkjR6J7PFBrgSRQtHKTl0yapsHa8O+py79HkO1yxKqHu0IlwQJJ7KUs0CrCToxAtJ4qVxlUemFD/Ffk3DymQcmAAnTxNdxwoRcyzRTDbIbWEFsMJJMSaqRfKTUOhauZOHLYBlFuzA9yHeZzwARz+MM88fT8/1sJ7MDo8+NgLvrxLVHF+idT4mDQSn181pBsyPTZNPbyHdKDB3EKYHFJS4hxBeROnLYIhEphNCRQ/tUYe27mHTwtFYJ8dnMDj5l2V5+AXNyjXXAq0At4q3U+TSzu0xHQi5GtSXMhJs4evY5Ac8zaR5waLLCD5F5gemdr341a4pXr21ypORevKKX2Tiua8pdSAx1zD0dXbQkrGnEP23t8zNuxHF91o8Wisp7Rg9iBykNen31SywzT4wjC9pVHFuJGlRbKiTWMr+TllI3LFMj3pEvVlvnE7zqLSqv8tR+IMlPWue12OzRMghRn9ns6jJOGvLlBfjN0xWY9BZKukoSg7PRWNepCPmUt5RU8h70yi8BeH9z7S9tFvpQLh5cpwoyOeVNDdZkijwnobKOe4RoZTEvDdkKqLKmizLGAP7ASJXE1FywFUq6uKJCUscHEw4my9woG6lVhWosSxBas6h+G6ZeQ+HJL0cKNpfANjxEprrc9xADC9rCspiQ0AFQduFgUll3HR3r7FbRXE1jWQYC5vLBHGVFUJxLAusnbFJR6P0UEBtICpKeKxuCC+KdVyp88xesX3LPw/8R4ggdIHndHXnP7HRsGGhxK1dMrnhz4TJ0a8hm8wGFLaxz6jjgy7TvEUpwgLMHh6iD6LDGfHiOLW97zC237t3JBoYz5orHmPvzjIZLPNvojqMdlPX6rSeyjOKoTSofaqrIUJ51tvPMiIHzyMOMLf9IL6+V06OLE+uEOJeJRjidfH/kFdZqw74mG/IgrDESPmgRRBSIVHWIjZQIJKjdQFjBnezwpqQFugpFcpkmP9N+waFUFUC2xpEmfMmo2E0rFqeO9HKWY1wpqIniy09okhaioEPcAYVLFQofcoVjx5okPcANAN5E6WkTbAG1H8wir6EPKJguYuKAIXAhotS63YYdE6xePRoejuNONCAVjULkbpWxgjcarJb0dFs81OersPktxf6Wwkn4JC001O3DlxEYMEtDC1Wf1D4xIQ/MVWfwQ6PzMV+L5m6UzBFpoW0ONNbU9GyaegUaC+AohKa3SpXj7HUF2Zoe/ETeuMHhmf26ihv6U2oRWx5TOA9OJ7gZZd1uRtmOjrIn9ebaZkrdJdQK8Y8hyw/zV/Ir8HpZj9gldMjiuk9fHKII/dgMt/KpkUucf7q4scaZrZwLyzri9t27GdFPyePxk64FLqL0OqXcDXSIl9WRe8V5o4oPLXHgUJ+sPVN+FJa0zEGtJzQ6ItpJeBK6eE73wYsy+gzpiDkk6kpF5AOfNFDUJdxJtNWsu0e+je0pJTfe2tQ24niQAWfixB12yykBOzrjpaHJVcNqsvkCZj50JV59kNgWjws9NsUAUHJcv7axIUexJD80A2isc28eobIwUIPljB0L1YNYVNfjQutc6HHB0cKUmgM+AoHAaqrp8Gisgjj7EeIatZabkTLxj+Tvtw02jFQJgs0KUAUU4GHKLI8MjK4ZMFjzE9L6KDzp7cQ3ztScDinLnI7afIDRPeP2sBEPGy8urGbnjdu3YnKR7hjhep3zNmlxczLOwWzGnsEDm4V6H8LlgQfL11iNgIw7PcsDkfSgHNlvCkOswWlOgiMJOuWVpwOg01kj08zKlrowz2sSuD5lj2q8oSgTQ3rmlpqph8x5HfGsS06gY4eM81JHqDVGz3kcUQsez4FkONKxQYZj/Wd4kJr3UqJYx4yI5yg4D2gMs8fMG1FUl4Pkp3zMPl4u3Y3k2qx1SbyEB45dQayNOtqpmL5jUmtCRXUd1BMPygxXLmgBZMpKg7o6Mq6Nt6U03UsVMJMpKqwMb+Bf6+irY1Pmindz0NnfGeMorpWhAymdJDAV4Lv8JFPm8mqINxKRq0ipmkI6dIY4JWsM0kHH8JXP7yDjt8kadQlukwjKmhA+NUORJso3xcB7iiS+7gSo9AA98iVND1Exla7wmLdwFtmZqBOh3T9+90WqVBllekxff78W4l4GRNo0oTQMr0Yr71TRbJciSKCAt3PSvJMBGYJMSSW4zWUScuPumk1egbbPK8/iBaQhPbBKCNcIHR3VtTgZiOv5dbD48lPPxNE009T0AV3jqzAwYJ7YgWn6OM/yiYwF5p8zjDxqnfwxSFocIcSlI0FJXDusZAWIYiHimFHHxXq3rJ2iRJDGEoU7c9hBhDKp6J5WrqB7uJZK6hY3N4Ufkc+j/z1+RMWcH7n/FHObPDt0RFssc5xxds7NJ24SxxyQuLW1S1RXmnyZq5sKalnHtlNBPM5SxfbxLZ962fX5SObZe+T1BPdrOJmsf55KgdZuIZXDUGG3U6Ju4HNOlaP65QUfK20bWHdY2/guvO1fbZzMACiD5eQpXnHXkoBOuSI0yG+B+SdBxU4LiJ9g/1LlFkyUMSkpPvRIO6kJZXUlS57U0U9TQanuUKbbiRQhPgNbwZpRfIGN1XOchgiE+AY99UMOia+fqfipSwoJXgU35XSmOVIYV0RYasw5b4HLYjwNVj0wDeKTD9BYcOLn3lOfQGK/GS+w1zKS2peZkiYCRiZUJ+MoloJDFfjCWeK4l9LQyOjjuuEiR+rfPHvXcOeNN4YdTD+FbIYNAB597yYaX7/tk/NL9vTis6IIXRTPevBRkJbA52HH9uxZwqBDMBlRg25UD/PNvaeuk6UzQemsQ9YqUSCVqHjDaGzdpA/eyD+XVtyP6gK6u2RcuK9N2D6TCF+ot6aqe20vsY1PU/IQeJUvrxGn6jPMaXQ0ra7xsC+dRl4nDr5t3tD19u03s0F8cYsN9Ci9J4W7IcA3UzmyQQZLFFbV2sBdytG+sDOSxrzBmGFMs9eR0c7F4y9zDIja4giLmsl9g4Ls7F1cykF14CUPJeS2t6wmR9rbjk1+CQ5/bX8BUKCIVmRO+krlyJZ84q6QVq84Iow2JR+RJhR100rYEloqP0U+P0VdMIAsm/zHGJXBBpg4sgFjKezA6YWNcU2XUdeA5LkvBKCHMKzlVSAy5MPo6SDmGt2srM1DkHl2nTKchrTUIp7UzljQOKes/A0nXAjzhbb1zS+35Y6A3IcHKbEaQxot0yQTPSpCesxeKm28mdMH5rpogW4YdkrDuj65fv3qsMJCuWfkOHDp4n/jlZcwXaGfe0ceDybOHk3ocWHcjkRB9AAr3R4Z7XmXR04rJ62cAZQjcdyfg9gtYUpPzVXtTEjXgWD+VhdZntHUco4PgtcnNDwqxFHQvaZ2Qgco2yH3dsuOPqe8X3wWk9rF+wNeHbDCdr8F5mzyNKafIxkjrB7YRZYdTlhOcceOj0IdHHIeyczqsMPoljnoyUb2ro5WRrzXkbdf4b1lgI2SZ84ozXQm55yjc8qp4wbNZ/fASps7heR6+NQ2T6SzJ1YRUuzn4KdTGo/GJCp8qU7SdifGSJlRjcsNLc29UbLRttdBU3GWRiBeRSi5QRIifz0h0hl4rRKojwWixZJi/Pr/hi49thGdC/KjKQ7S0GMHU/oWqUx8oYQw+NWdPqlb6lepD3+bQJhWXO+tsMH4CRmJyldSqUM6PkQy3JAVVFB7v+4b8uSwwlZ+Oi4J7YtSClkrTzhHDIXVXtm7VD3CK31ZLkiK9IqGxjDeS4K/xeZJXO5pSNvS2COAZhhFLth14uNDizxt4KvaZtnd4vTmdBWvIveLEW6AOfgkz/SdMTLRKC6Ku3EgzxSCdMHRDxMQ/ttMUb4IiWXyBwMiW3mCnlu7rOpAitZjnB7Ov9xl48jnCONcVkXxWUbN6xEKeoQiZB0S4V9HsXzpTuZD4F/L26GqS/KwLYohL8rtPJK0I8xrRzI3xLs8cUE9jiHC91BqDaxwWp4jsJ7Tzc2rUcR0OuDRpjPPPObrNmbpHp5cFfkUHsiL2qy+BI+YhMrklO6vQWWxxgq0o4jtIHUEQTpYIrynAeRXArCyTyEwS66NA2eDCSbAlcFcV0a+lbuKK0moDjP0TdCPoR+9EKQXKx7QV9UC2Evy1880tADkRB94h0kHLBCTHheqMkVVV4hpOKrCX69GpaRovooPmiGtsowk48lsiBPSngpY7QsVDu9WlMkkE5RG4r2cLr+efLABHfns0Qwqp/O6YlBqZguJIvM2e4KC7QwkKcFfeVL1pT5cs7IWFO4pwfJi7oNZhFnnnEpniq/4dseNBx6HVKmxLIjQnDw/90Q5Rk7W1i58UY2w4NJ8cf+AvWgW09OClk/HMiaI0Zz7nLcDcik/YMRzjVPz1HnXOb97+7soE8sXOGsWeFzqhHhPrVvlPJs1H1VCERRA1W9j4xLlYV7CIOd6npruvWfs+Lo66++G/hUeubp8+dqwD24V85TRMgcsqewc69FPYY9nlLqn3aiLzHKrnR89u9KUB5Mp+2yfjglnkfVwzNeR1E9Qv8ByyYTTNkbJHeLs5Oy1lCwNs8zLHN0YOauNiHP4scHTxDKerODIFAA8tUWulE35EJvgtq3t6Zy9GkwZakpI/YMkZZkjBBec7USo71y2eyW8QFz0Ea2jrLQrbXI/iMBpBxN9gIaOR6srQRMgQtju+0+Qt5ueScI6I6xQD5pXVsqoDtvT/IUF7XaSx4gqo+JkBuyzALk5Lsf7lCnxlJNJL71qeXkRVsAfxiriYkQKJTENnJu0Wy+4xUxupcePCPMbJYedCKwM3eCZRt9zIUPzqBCAzmsPURC0Ix9XlUrQMHdQlrk53qHIxmw5kKUFBNXR0qbQxLWw4iW/4LBe6GzrXcHPkxl5rIk0n+Y/8DlGn8KAH46K7mw5YsRiMBpWLvNE/gIbzVkr3OSNxL7ZypFXhZNeNyp4JH86AOLcpeMoF4FBSn3fom3oPHWHdzGqINI+e1amo49/uW3O16xfoKDOdTevXWuKgmmP4u6hgLs8Y7nAmuX8IksZ1POQkVc8N9mK54CoCWg51jt/XsMJzXXnzSWbAAqk8KqsORm64GybiLjtjDk+iTXBlLReQfVL7izEchQxf+00S/fMYQxqTJ0dGAqmZ06uQjDGze34ehqutSdRoQNE6RwEJ3TaItNmo7L6uFsiAFb6keD0Dj5AYqmS+TpJgsaON0IYfwldaRKZDH71oIZxrfZwmYaggJiTHYGUWahBpjpSWBk+0mFLZotcR0s+szqCiNwaeQ147kzLKEU+acvISg9e8BYyHSy3miT0p7YhlHjPbmGbHJuxl9jFcoCX1bctufPFEcqjJFx/c2zwSREdCc4VjZ9FYYTNaALAiXtpWRNcQik0144RdJUjAlqMofjqT+WX7HAD+z5zQY+OdG5me+lF3WU0O3I5A+W5gsm4xt5Ue/5zRp05PJeLmNY5vh/K9lnE32JkNa/sc0+rE+Ht23fxdLoPlxGHuaWHFmP9YobiDELQ5aGdkY4h/6ykPD1hnungZYT9vxvAXQM5YSnDHTkqkA4yO3qdSEvMRzevXCNOQfcQZ7La3MhhBFTCaaPIYtqPdKPgRUZAynYgtJsl1gSuRMJ1skZCuCfGZL7s4HswV2Qa4HAgMLZY+TQ6vFIUmePXh6PjEUqnXPLTO3+7DP8mofjqKJ7lk9SlpzY6+JGOkN9IN0LOdchcBWgcU5mESCUKRVXSOCILFwTAoTItOsbKJYP7iFiK0OIhMgoFkmJf0UG7EagetdGYtQwxyk8FPG1FqWKtJJ0yXHPjSJUGA4mNHc8lcebhTkTE27s6B4KBQZDYSst3vydRDSBYUim3a2tu5Vrm3fZPDK9sbfFaNuZACJI7Y3RWxNSgI4iVEcGseu2z51NzcJ3HsDqH4ob39Dbnk5jPjoaOWIq19KezjyBhzqIcPoakIrqwXzYbysLjSBrS65eZ2zHqra5vMKLxSBLVXETRll1Y56mMnS3M2D12o6IkxyhuzFx22KDNEVgP2HIud4bHeLSLMqkgKKWKOMt8WeV3Q8MJDh2RqwwzmKY+Q3mJV4rPsD/W9tddc+h8ldFbqD1NatjotfNoFRawzDX183qQVdZnc7gsOOHlIk4drV3bOGKu9jlt0Zvem80tSqTLQztX55mqQXHbJNuuFHGch5jajKCEmeqXecARPovRWGpnObS/NJjUlU8CPBRaKOWisJSccDO+j5VoIQaAhfWv8vHdyvO+B+2jcVBZphNNqAKryELU8KiFFBaBIVcIhpEK0TsDxFOx6TSJjSlA5axoggoIXhUyHleJ9zqckSHgkEYA7I2kTTJkfBhq0Y0/tdZYtxOSxAfC4EzOFFtfRI6D170eAld5mk9ZRsAxs3ntBgL4JzEXlxc3mB/RJaD155iTKo4VkexlnCPLrMl5qNM+ZtqqytgIyvmiFgVNCpTmrEch2nmozKc8GoWeZr54lkVzlZAxKB5IOyFezrMGfk79dgtbocKUZoQ9d/cOo9r2HZYmvvzVzE33t1EMHqXSy7eHWbvGuuMSp8OpRC9+9vPDHd6K7Ku/rz95c7j27Lvx8MJhBWqFd0li7lqATijNbNdEfRRrZXWdZz8x21HGE0zn0Wg/u3k8FcBlkB3O45lFyX164z6WxLu+7r3wQEcSnl06HtdMtRb03MoPTVw90Ecek0kTZcSEhnleK5d3h1A3FSSdI/CZCkBiOcMmrUZUBfiY4z4FINR3JdV1ExjT0g5KlfKkfNGFZA5ceDsGxvkpTMaKo2gpT7dMa/Jl+SZTvoOGoYlgrqe/HlJGRx6DqFq+EGgNFHbJU1IkVU7ZPzj5VQijDMlGL6U2ERq6lK4i+omLXzjzSJXX/iGMBmPilLCc1MIKKKzAYy7YFNYmami6GRJFureC86m8JkF3aKQ3ThrA/oZZNVq2iEI0xWhpEtSlAen10KdVPJKLIPRB21VOw97nGcGTmIzgx1nhRoblvI2XnhshV1jcUqa5KJ26872oJQAcOa7JQXROQIBO54GeTC5PNHPO2UGEMZc5qXM1X+K6gPC60O5JA46Gmqc6iDzEKmMQzqUHd+8PX3n1tWGG90GeHhwPu6wXbt2BVsxKabyN4qkMq1c2hjs8t/jaK18aRg5Z8PQpFvmXWJSfY8eOZurBg62cw7qMUs5j8m6gmBtXLw/rbIhYWuL4ERTEw6pO+dgpeR6O7/Xw/CBHJU3b+/fuDts4fXa/8PnhpVdfgXZPVRiGXebZa5jv13is6+bNG8O73/3u4YmbT+E4uspaJ5vJHY0Zad1soaL6u8Ao7ktn82gUNQ5j8zv5KtGBi/DcZSY7dKXGZx4latp0neSqqxJfYKcSlCM7B78y6k2l9cuIVyQmUmMOkrhuP3PQkM6tZ3jk9yFlrMwNolOiEiSKb5VHAaU+ymwKb3BNr6qySTFTzxnRSnZHLBUlH4Sw90ZmcTQIZC+KOEs3rkoTnx9jC7fXMSEAEZd/NkSUV0lISDcyvp7galHjn47T/ERSV72YI0w3z2vZvLI5vP3W28MnP/7bw4uf+8zw/LPPxiz17NR19nkeshfUZYsVj3vEjPJIfZcYVMicFIDzwndWqLx68U5pWM05ldy9nZ4H46HCPqrlIVLLa5prCo91sp/W9KaGwDinck7mURl2UnaAO8z5dhh9dlC8g519lIE5LDvFDx/sDm+8/Orw4P4WyrvEkxp3hx3MZoOmoiPpxsbm8L6nnkHQFxkFrw5PPPnswDSW5ZO94eJgF2U7Z4D09LjV4YlbTw7z0LawsJKjSPTSSqNPqsTMRFHcY6sH9gQ63YHj3PYKCv75P/qj4XNf/CojIScOoKRuZJ+j31Ix52HKOqPmc88+N/zp7/pO3oq1Mjz55K3h8ubmcI258PXrV7BMwEWn5NKLnYBvR55rz4HG7I+sUDH5xEcDNqOr90aTXhLt3cNBHhsqpb6NeRhSmYpwVDyJkVrbg85Mfprqs5Tma+NSYjOAtOkSSe8IsLsTZ6G92CJK6B6TnJ3YJFdPo5hncZO4wCJUqZQw2XzbSkDxavQzARZl+FejKTXarXCF/FSmCAc3aRngGyFhZoE16tx4XUyPY0H0pNsAXnqjoE5qme6NeH8NIpMOPlzaIUhx8ruthGh3i9i4v/TRXxx++Rd/cbjHqOIbg9cx89ZYRLfnvphFUDit+4T9vcsInr1gOq6UzMI7Qj6/4vvr7alROGDy8hgU65h57Az2/iKKMsMGanfjLLHWF++p5k0ECT7Qq2esFrWmHfQdOwLt4dRx9GPk2Wc974AHopcWGcE51t+F/atXbw03ULRtTi3YunNvWLmzMbybcmw3R/cVPsvU49Imu29oJ72tKqV7Vz05fW1+HWXlXCDmkAvk09R2VNbjsIBS5YkT5ny2mV2GSy9oPYdBX+BVxcMLY6k2Sxq8Whyz9jLeXh9Nc2mF3gc6mMNjeWT5BF7+4Rf+MB9H1DV2+yxxQNgTPGXyvve/MHz3d3/X8NxzzzFnv4kXuc6xtW3cSLDkvDWtx7fNyqdkWhnlnmB6tX1ZRRQby8TYWGota5dVHVDyqdL5demNAMb8elUKn8jE9vVRb4QW0nIcNaSjMHBvEF8jro2MldzRF1R9l0epI1SJFG7SRCqeypoIO8hMq1UwkbW0YggRRMaBQmbT3cKkZZT0KK59vxkNxjYmGGc0hPeeRj9MoqNoLd1rLnUMRQEdxRuO1o+QqROseIi0l1jXSYU493nqULmGy/5Tv/s7wy9/9BeGP0ZInNts4rBYoBe/jXn3HKPjIQqxxRxsRQUhj55SFUrz0fNYdbjMMc8czp2fIbw0n/PDmMEoo50JshvTyeWOeUYfpwzufSUVOG74n6f+cVdJqozPqFkOhTXeE+Jblxc8v4f1wRk2KCzguXREn51FwW/dGJ564QWU9jAmo0+UyN9VlMPN3XMqBWW7dU+euDZoaW64t656el2/dKQ+QglAmjrUA9ea133jwRFHMTKaAqcL55gm9KFidxjdvnt7uHv/Xik6HYnzT90uOWiZutplrqJUa6ssAdlgrYmk40tfeXX4oz/+4+FXf+1/Ds8//57hL/+lvzi894X3Dh/61g/FS5tnKBkxZ1n6sB90qWmeC1lkR9z+w+NC3KcoVDdyAIg00BbOR3Ugyuawg4s4Bo0AUXTAyx7IV1sXHTjAxleXLs3hjrfkXID24UduG8yT7XB9eK7oR79FUVlUDfF0BNOQHX/MJzFPwXV4MaX3kcB0Ffy66q1C8tPhvAk+vqxU2sUvOav2GjkdBAafwh0FFjbIio5p0Mm1aVWjczyE6VSI0pmRZ+lQohvXrg4f/+Qnh3/zLz+SpxbWcVRYgutwR0c4Mjg8+Mknn2IHCkffU6bn0ji/dPlDAZZUVgOoHHM8Rk3f6KRQp34UGA8leVwO0IyVHL2R7nvNUYxMB/XUWqb7PFW0BfK5UD+iszhj/uRmg03OqXH7mIrhWaQnbBQ/PMAritJYl5z5yii0tr48bOBMWqEsd+vYHnY4q5iVl3mY2D2jR3YsKIw+WgXJtzrbRbq/dJW82uU5CZC6eWDy7sWDmNc+qHzoyXJ4TLMvlpHfZnCf6y7Kec6odQ/zeXsH8xgLwKCjS75l/mwd4ZM+BTsq28/8EJGOahNT9eoVTnan3i+/8srwr3/kRehZHf7W3/y+4S/8+e8ertNWzmGzPINCavbre+A79chUkfrY4kqxqB8vHSpbwQSAm8plzpZL2lpmfybKGbUP5o7bOpguvGIrBgetHqYuh7l/+A/+3g/XzpVHJbzAJUUEQeJXgoSVYoUQBEYIB2wFrZMUu9muhU+8qTSr+KKQRGdkIOek1yk8mZhTi7itLU9Ngerko7FUGCvRS0ouOdg5RCp6yW1KE/CRQDoAjtJxnujJg0MKhoLmnG+P5YCPYpL+p5/4CXryWeYrtxCE2mydeRs4dbq453KNec4q5psvnBGv5qfrdQqlC+2W777ReQRZ54v01uNEOnPwuGLueuiTI4UVJRuKpInIaW/EOP9aYORy87ZPdbjed+r6niMaAu12NuQOBVUBFB1GV8r3jVJ08JmQnbHO6bs2fd1blIxfFc05l3PV7GRCmVXyA1/+A29c85RmcS0j6Kt4TzV7Zb51U/l9MsR10hEfW0UH0d1794YHOIF80uUOR3/s8jZkW34PT+7dLU4WIL87hKQ5nTL3Lk3QwAiDLLAD8kcrwjkiHRl1O8FT7aYFt+KtrWJGU/anP/1/h49//BPDZ//g88PTTz01PP/8e6F/P3XMlkN4pZUZOeUiMpRClMmSxcRxDTnhp2SElAbvnL86emBIK/kWunAATTqkWxbp0yHwU5Emqws9OJYmjog8z1gJAhDdkXErDgU0eU0KUnvTytFBQwm9mmhVFImcDsL1NUVhNEFEpQLEnLSAxJXglilLJmFERDKgNBC4NR/4WHlTk+6lwRsS/HPuIyPcSylswNt38kFA1uMQdN+0VAvj83H3f+pTvzv8+L//8eHNt95gXshaHTtZDpwXUoAvpBG3TFQZbt++zRofG6fBp3DTD2fOtIKzRi/qCAXV/POp+dAMnBvIFTCfovBwYc0iXydwgjPHGrlso+NnhY+GtvUwZC0SfT1mPVPlWVxmroWXxWWgVdYCVco9lECFULiXEseRG4coyx4PF1PuoXtXe2cG3nRK0HJxTLswb7VcEISPKqOHOc/ymaeDci55agcmP8mreeu6p224wugsj3d3H7B3dT8KKpd07rgDyC2Fzps1544w42senGo1+ZIYWhgnULQHZMqIG86rremUyHfUthba/69gzq6tclwIdfrU//40ZuwXhx/6oR8c/tr3/tXhAR5gTWwJdcpgp5jO1nZXNsLUkoqiQqlItaHZ1lVG7RmcBlR7F0SHrl8xmC9fQVDx+SbRYpLeosfw4/uSYWEwfsgQcHpsuCzBciGKJ7IQ1YVeVCZXjlSOdEk3dKb14oPL+KT6ZRUrhBkyij/3JE6YI7NwcOAISRhnoAwaK2Vp3qCX6r0lB2srXEq9t/e3W7B0BUKGjnthlNmRyR0xP/df//vwqU9+YrjMYnkOKSbf57/whTxi9AQm6Ake0SMXxsWBMOcwqTCNRmKOZsd0994Wzz3iwOGdgxfLjAGUtcO64jojSTiFgOmi33MLG9eOrFoRvkLN+xFmZfZgolSOGHOMMu5W8X0eMzM8XYErX17qec3mceZGmqfWTaFW0DxrZ36WOZ0KN8NhxLy4xk3cHla1sslIghPkGKXUBI5rnjTNQk1/p+s6axxt41SRqwokZqsbB+bYS+pT+cpC+AjdNoDzyrfe/Gr4fJMlmEO8zlvbPNkBvw59eoQR5Rzz2e1yms232eVjN2GHHVytfVRmZnngrMamSmlYR1DN6OinCkS0I7JyqmmfGPIsQ9/y8gad4Gj4yD/7F3iSd4a//n1/I/h8hZ+eXI8BcUOFOJQ1R13lXMXPI07GWR78y4hJuuT0AUiWhMxg4GYqFNVQA0+UvgT1uMmn95CfkCLrMpjAyl/ligNHAHflR7mgQIGP8CnxySImgHo5DbG9Rg86HKIUIiP4HScLsNn8bQTcVXislYRLrBVUIc3gCFGhVckaCE5kemNuLMOdGGZBP0KzeYThli9hglEQiiDFC37Sw8F8n6K3Le4zN/rEJ35rePmlL+Ih3ETxMDNRVM0xjzM8cj9YiGSehnCJJBzBMTCPBLuzRETbvBjm7vaDYZM1yAW9rHgb93iNmvOWS7jn3XniOpznwCCpzP80V0uJ7IV18LDFE72ooy70zvr409KyyuJrBTTWNFeZjwHoY1g6Znxiwz2iMCEHWtmTrzCPcoRcXOAtUoxQbsU7jcHhXBOBhz/W5Zz4c4QUjSQeDyhzSL2d2KTsJkKooMvDrfTq6kH18atDRiWf6tD5o/Ntmzo+YBfSKssVhJSKAABAAElEQVQid7bugoOteeyPffuuSkcbsLa6jYk6y46lPRxHd/DkXtCBVdPTjrSBMpd2lDcE69DNuC7ciSONgTHwmnPiiHMLX63KNaI+K6yDumn/X/3Ijw6f/j+/Pzz77qeG7/yObx8+9OEPs01wI+ucee+lNMhayrL9Sm7AGQLS4sQpo9KmquhmSssLYUpgo7TcJx+/mZ/TAZlXmOn0lJHMpjwS7GioA+emqnwWABG58IoPhBQBPeMERb9qeido8te3xD8uEJv/LtAWA9ECkz/V876uHkKQWAGBs+85z1YoVa4o8buhgRZqJFwUuyCi08Q5Qjo6ytwzTD2f3fvmb/nW4fWvfnW4fIXHgMCjM8e5kPMRX80tg03IAnzKqdJsKACJH4Y95kbiWHz++WEJj+mRW8owO5dYcB/Na9Y5GvFuRMtGCKTtwlezZX2MxkOfXCyfnWXEszU0BVEKF/J1ZrikccD+U19YE1q0Z5oVk3N20pjOexEwlH6BJRQtAw8b4zGM1Cmb05FiR8sdToZzR9C5807+/PZVeJ4AMOu8FTyrnBl7+eomOOEhuOSrHaL5ncOqeD4W5RKLD1y7FnsCzD7rf248d78umgEvmKvi3PE9H/vOg5n7uj7YO37brUJdRRHtoVsIn/sN7a0YaMpCekKsNCId9XL+EL/rG/PDbzOPVC1+/r//wvDBD37j8P0/8P3Dt3/o2zhSBE9vFAa6+ZujU8nIOC7DC9uYAF6LUf4sF7ZMBWMfCdQ/SqScgcJ0MTVsQTCdp6d3LJy6J8lICB/Xxpz8VwZRVIHTCJIRyuSXhIYnGbYyBpGlehoVIFQAp9ZLp/i6qlo5ew4b2n2dmiT8B8Z8Cn/ycS0q5db9JcqX80B/Df6IUw+jAm0xlvWOxhY5wDYespN0d3z82T/3XZmLeTyGW7YOdRSIhFHKOYrmY70uDuVBaU4ZlS/cagavrINPrqMl5D3DabEdOjz+0D2ZfjRX9TQ6trnYL+p4HinrgJHpkLgRI84xzoljOgFHbWvhaKTgH9ApaGI5ajti6vF0F47lOtK6cYDK8A9u4uRZWgWeupjvC2AtMw4j6u3LfHaP2LLGg9LnnObG4hy/JGgKo+QHlO8Zqeq9z2e67c2RvF4bXp2G5uiDrXsZveXTPnNuRybNaOdqbhmUDL3Kto/KeczcOXWncRzh6JdQKhIF5FoRikmoEhu4tw3Trtxql/Tgux6PaIcjtguO6KiOGebgGPlpB447Eeetm5vs6LnC0s3y8Pu//7nhB3/g7w+/8iu/irfZua0jnqNdlRH+JdYYZb7RwJ2Wi/JisDYZDFp6riegDV/htD4BI93synfKE1EL3k8HWC62Hs2vKu09kuaamT1qygtIvib5k2AWeyyKREPM7pxJSHtnrypXAaeiXOZJcOFIjOIIH8wFbbwFm8t5g5t2HTHGL7l0lCnQoo8b8Tj0oJqVmStBCj+N5FxRjSJyFQ/mv/3RHxt+4399bLiEN9R3P/iuCT2VEhVc3OsxtfxaFwSFvR4CLR12AlwxZ2OpgK1wb7711nDriSdwnCzFK7m1t42Z6DWL4Dh5VhBuR46MdlQsb2FirnVMSykayyhFuO3og3If7NXpc+7QsaPR8/kMppejlKO6zx+iy1angvkYZj1V3HlmvJHgiJUAc3V0bG2jLGxxcz6YjdDOGWm7EUq4yEYBl1jcK+o8z3fS204um9gB+HbnHdZTXap44LlAjPwqt7P7czYeqME+2rWPSXqNEwDcXxonmXVkhNyAz6duVHD0hXe2bX57BeS77Qo9XKV9lQlbUxA7v3Q23KjHzr3t/FVYl4JUGo9EcUvh3jYOMDq0ZZTx5vVl9sXeH/7JP/3I8PQzzw/f+u3fSvoO/UiVUzjtpC0tJYe2yJwq2OlrFPtjXNFPlhbi+JEmQmht8UV8v0nq+KZKq1tem6BIYYKQ28lrhJCY/CF4mX2pBAhAGNLQFCuLyk5rjWSavY2Z1o1Qgl3XfofQlskd+1YrdRjX2grZKAiEDKbHt2cRzh61CCGC9ORHSOrxGsu2F3J0VvnoWe1+yT+LaevI5B7FJ598cvjJ//CTw3/+qZ8annj6BpP/Ohq/FJUCQB1SyA+CKGPRwz3/znvt3RGHkHLm5nBG8i12uNzFSeH6pC9SdSF6ny1qSyi4Hb5m74IXCjAflyIOEe6NS5fjhFHBLuzdEaa8HRnzdhRvJV5K9sDKR9cMb9y4wa6aa3ki3xfdIH0S1SwC6gtPVW8PG/YgLL3BJygDm9uGHfDIHU+uOwa/bx/WOrEzusRc2ZHDY/2zCwflr1a3Y8X8hX5PqRsxWu8y4h/YsdhRkV/P6uwSozW/aC4fllV8isApBTDmySsI4NsWO4S0OErp5GML4BE2ysGlt4YSI+Kl2zhw2O6xcojTO9w7R9sNSiDBQ5KHLEcp2+7YefutO8NH/vlHhh//8X8Xz7cjtp2tCK1ntTncAQf/+TIu5RjX6DHdIEUVpFk6+aMs4UImcaHXez/cJwcXpvdPyuUeSqA4hABGw+RjtB8wWKBCECQFmW/zdGQ2lAB68sxZE1cUUsFraUSPiRSrQYdKnndrZSQyX5YmVPsTDX/uR5mEoikjMuCOhwrZhE71CEVCsBUKF+RdY3MU+IX/8QvDz//cfxuu39jA44mDBDpUcpUxfYOyrcmnYMmeYK3ayjhxWI5eYNsya3TELOGoGOE1dJ1Rk1PTNXsuWRe7QEDvb+HwYJ41It63VflUg04id/A4t3IJIKcBwDeFw+UP1keGRTyh54xgmqwuaptvF09mlimos4KvIrulbcm1RVve5qMT8An7NTYlrOAtvvbEreGp555lqUJBdW1wNOyf4gFGOJZdvsAkXWfTgNvdljBvsxtILy1lu8zhSJTDt1iiWFxZZ3rBPBheaCq64fs+zhzrbJs7gvr0hUqvl9NoFVyGOuoWT2n/yJYyFoZSa9qQa6tgHXINr2zbRKRiwECzPMocll/bKVYCl0ph8JDDdrUTPGHTxc3rN4ff+73PDL/8S7/M2jDvI+G1d1pLSk3Wfy2CoDxoiYgDgJBaV16DMIEy1DpHC4L01oBVdRGsJDQYCibfJAjMv8GfusTCIof/la4XTQhCOgwyxQSIhFZKRqtGUC8sGVoB4qoShJewgqJ9Uo+KrTIDG2CqTULcykFWKCo9aDrFQS5slinE3XtSgANPo4QppqGMEUxyreHp/OxnPzf89E//zPCFz39+2OD5v6WlNeY5SIkOBXtqKp39oq1ge1xND2/Fk4eEKTuHJPHLf5Vp5bg7wHu5vLo0vOeF9wwv/8kZm7a3cSywQA//3K/pJvIzRyIQLiLkyDibrykbgUBWOCbRNyKzDueIgzLrkvdJjQMWyw8ZaRfwzCroWdw/ZwkBp841BMxjE88wuVYY3eIMojOwJSmCBnat0P2k1BUadLbYIrssxntCgLPYyzyMfBlv42VGxhUU1XqZma6pRt0wAJrBv+rZN9Dl25td5L7HAr+joYpNFeAX8Zirpygiw21M+H1MWFHII60KdxLJg7z1mfvuYU+5ag9xkTOuqxNOCvntGfu17VxYI2MoeO+KHZ0chSxEGXCnkt7q2QW222G+/8zP/Ozwvd/7V9jwfivvUnFqc37kMhBtIh7uYVPRIRr+HP0dW8YKahmkFT1AUF7Oe023YY5GG4T4F2gyWK/QltyVEjR88ep2mAEmq4mllaCgxw3vnaUgAFMsKCCTcuV3SweXIcM0l/ChKiRewFSSIp4fMFo5y87pZPZEzHqz/EAqA1Pw93LN6SchBfeK+EuagCmD+6QjjDDXuZf0qQw/9mM/Nrz25ddisljHjHDp3cxcpuQM816dI1pYmR+SkspTt+ywKL2T8OJZcvL4Ej1kFBo4n064ev1BNm4rWCrWaARCTMYotSPGMqYdDg+f9rARHRl38Xy6LLKLUss81yZ9NZu7YlSE6+B1+WGHNcSLk13MSnbuMD+bR0nnfFICR8Yc9FOTzPetmkzRGYaNiW6gKHxW2EA+PPVs6qc1kPN5VBwUMR0NDePqkY4y5DLtaX2FPWZEdRP56cn2MGJ0dmRzDnyMUwejj9FPJXVHD3KFRMezzHw629yAdU10lSUIl1+cv4I2whnRqYaTZeSX0dSDnzSRHaPtm9YmJW1s/dIUlZb6tjh+gscRFO+v7x49QQb0Fbz44p8M/+gf//Dwd/7u3x6eZW+xp+GtYkEc0h7HzIPP2Ueck/7szfjIE00mZTO7uorYVgA/EDkD78uzq/wpx2SFj9VhKOt2FVZM+qaIL3LzzRRAAHtslIH5iDVIoS1D6f9ULacy12VBVMPDJNFRVia/MCDENCZHF+VxQmeruCfEVUmT8hTecU9gNDJdOSnXCjbcovRahU+dyHSG4Hhs/VNPv3v4tV//9eG1L30JB8gz8U6WI4gekXmT802ZJ6M1ud2JUuaTBfKRN/wt2DiEzFGmys0mBUYHBXEDc9Cj9dcwG1dZLnCetcbvhRsCwHOEYi7xzJAm2z5zp0s8laDHz106d1mfc1eOywQeo+FI5m4Wt7U5Oz1XM3SSYAIeY+66he6IXp9XmSIQOC6gvUzK4ns8rNQr9FG2wq0pPbPqjJI7OgG7Kg+0cj6dc1hdR4QPemLtjOKU4DfLGdBzj83xtmM8pMAuI8j2My7VpBOnfm67c9cLl+TnFXUowA4vX1W2/JPHKqUjkCO/a7DjIMvlrR/bV/5HcIyfiILwAS2ImlLgjhRUus2rlnuvXLAYEqXR2Xad5zF/7dd+Y/j07/3e8E3f+MHhA9/0DcP3fM/3DM+8613Dk2ypk1/y304wozcd4QL8cH4Zn3ATdjsch6HIqARJtr8Ei69r6xCxDb0VK+XvDFoxBBGCVuIpoLI3tMQXM7hPCWYwrSMsuIYmQl0pMh1I8mRXB7hra5PYFYHCYYOoQFEs4wpdfqJcoU1EqkMFRSkjm3F6SG24XgcK1bxzmcLn4W7x7N2XGQ0/yjzRx3FUJAdLnRTWOQ8Oh6UadmJRMOgFweO95YSokGCHJY/stMrcNG3WOSlK4fa3mzeuZ6TwGbwnOZpj5/79OhCYOu9s846OOeaFOGkOePDWeckh8ymygoNFdTdvQ5fVuc/jUB7LL43rOFXcH/oG701U4Z0XXqBAB2wgWOVTR56gp+xE0YkAU2gHaGQul+NLUDQ9qp427s6e4qXtjYBRO2u9QH2OGRGO2QBvRzSDY8hdN1kkhyZHxewWYnP4sWs/wEubypJdMTwl4nOGS8xx5Wl3BroIr7NGx5SiRK+TfHYA+o6NqtazfW2Tkj4uJIxAWbYBt1o/iJGXzbSdyATayCYG5Yg29YPySEPNCSuvvDCHaU/g0PHxrk98/JPDp37nd4f/8rM/OzzzzNPDn/mu7x6+5U99y/AtH/zm3MfRRHk+7SIPPHE9FpON5L8dN3wucomA3BAorVwa/M21xBvMS0x9JyZftTcVTH1upPAphmNekKO2dxfjFNkwjPhCVygtTDr8hOdGUKjlhnjwpgx7lRDMvUolE1seqbNsa9nZ7LxFWhJjpUnNFilyqRgG009pKecGCpIu7Ssrm8PrX/ny8Ou/8bHhN3/zY2xZu81beK8wAoBPYUE4gw3hELujhHVHZLkzqiiwjFAknVybz/sII1eWZ1w6FIR+BRNOPHZEKuYsAqpn1SWDeBzPj5j76eJ3eYTN3ay/Ga9HNnjc0E0P7AK6I122jjGKek7rHUbOG9duYu2yq4c0nThug7t506M0mBsyCs0Aa9kqpA1Ru3YYF1BCj/23zRRG9+IuoODWTueWSnzBS1Oz6Zuj/E/32RRBZ+ZZq74Xw61yJ9iuPkZ1fJ8Hl1HsA+p1hIDuM2L6xilHUzsVn6xwpHeTwtaD26y3snbK6Qe2s3xDW4cZ6HFEtPNR4OW3c0enAtPmqI1hdXpnrTzbwVs9A9kAIb/3jv6Jt41p1xRIO0aDYYaMAblOn+MDTFfa5BaPltmuLrd85fU3hy/+x58Cx+zwwnufZ/fOdwzf9p3fMXzzBz4YxdQK2GMq4fGTi857QWdepJg8NShEmiJjJashUoV4KITIh2K8Ia8JIMuHO24Vw4lSCGY9bC4YN5VWKYVYDF75kQc0RTC61SreVuIMphd2sFGYDaDTwZQxDuOoab8PPcTZi3cGyF8bXleFjhV73FXmX2s4GF555WV2YPzW8LGPfWx47fUv56iMdZ5BPK6Wo1y4kzkJlFpOJ1rpNYA7Vp2UAhvPnQ3IkBqhx2wRFSShLMAyx/RIiMs4SS7hGMr8wOEXoAXMVb2enqnqXlXNTkdG31GhB9R9n5745hqiOH1yQ2WzPhdnnAIHDb6nQgHaR/mubrK4TlkeMjVHBh/f2ttnNw2mrWb0Oufx2FnJ/7QEOF2Du4BHWYsDxhequiOmJBlYqu0oOY9Xdnb2KCOLi+eHx+xWsd2pr6PePUb5N958C8fULlsJH2SRfw8LxCf5lQuXR2wTldRHtXzUzCMk5+bZugf9sly58t0gnqCwxuv19j1gCxOejPzTmtq21QThtT4NvcLxN3Se20D8B06m5YIvG0T8RJWvwKhJnCN45as82ThBxyPNWgC22/Xrl7Jp4ZWXXx1e/n+cnQm0ZldV52+9qno1z0OqUhmqKkFUpgBRkIwkDIqNQmuAloWiooi22EjLcrlE6aWC0L3aYSE4gAK6BFQ0TAlDABNIIBCSAIFMlVRSVUmqKjW/mt6rqX+//77n+75XCdLdp+q+795zz9lnnz2dfcZ7z73dRz/6sW4ZU1VPfdoF3cXPuai74sor2M/KOlh4FsMB3npm+XalePD8/xsyyNwqpkVw5EKCWQUFTWbkBrGA5kZQQ9IkHkElXgKUCnJPfKFjYhmt4OnWmaZCrBwVSN6emGUAgEIy89vhLrYUAT1awkEFy7djrAvilhqF1VPNxrFym1DCr33tq901n7wWoXmYtYpzu5WssrGlQR7JKqNsBcANWCqRaEVArKwCieVOy4LmB0PKcU4xB2SBk7XK9yMQJqCl7ySucJCRzeX5lsUxVricxOJ7XKHzivM59MlVKfPZNBwjZdn20XiSpntxSZdzpIdTC7rXc5ivc5qj9hzSIm7niAme60yZ6t87MDKf6Qg3+u7cub1bSf6ZuJa2rnoAwd5q2h/WVeSydZ6PAtgq+kkC+SovMtBAPc0jrezPMqALkixOR+ld8ubyvuO02hOsMprAxdY4ZCH4CYSZumbkFIPiiXHjwNT72I5bLa1chOC5O5QUATavTHYQZy7FurrIQaAa5HCghLINpDkh/sqIfOIny+x4xWPxEnxLhKgP0mDaGYxYpxGQkbG0/KCIlArd+cOd4wqyTf7rKSjPLpb3k+ri4dzsXOrtSLgeybWfvKa75hOf7C545jO63//9N9PX/EHW5h4ADzwSjJByqAgpM0Gu/pQwW6TBeon4SBAdo7xKGfuXAdTf91JaAExqJUHYwq2MgljpGzgzlovhXaWCAFV7owhigwqKNaEm/EECy5fJeeN8YTLuvFdhtYo1OeuialwuFjrryizhtGxbiYceeqj77Gc/gzv6ue4RPlDjkfRnrFmHAnAsA9ZdrD2SISGMTSmBm34F72vQhzpacl7DKcrVDVXW5KlEtw+UBdYRgqTGcuNWgtPC+WylQgiP4U6HsFp0FGYObvMRBpI8kc2RyxIu5hlx72YpqCithkK3zg3IR3S3geMUhluU7LvNYLRVl9MVL6d0C3UPgSl+p06yjpQWedfuRynnCIsI2PWvOwi/rJ/9WX/nuQAAV0uq2oq6M8aRXluquIrAzP5OFD+DKwinGqBR8JNufrlKXI5z7OMErbFbuhxQ0uDOplVVIW0lHZ1E67p97F3UXRVvKk0c9VQewFl+x9uSRkRVX11viWT8CY2IjSj41+xgbnzFhZv5U60fShmFN2nxUbjFX3kKfYHtFQD8+i7dEPKptxolgzKm8h6xD8pUyEx2fixnXtUjLm/49y91v7ztV7o3vOH13Ytf/OOZdz3IQJzw3RdqAcp3MLcwkE2ZwC3oKWLwZzRucLy/FTy9kuaW2e4flJaVwgpwFyhGNnD12wpufc8iYUtWGVWzalGFSb4AtBzivTfw663DxvaL3GkwqUuBFVvEvJgvt23b2v3TR/6p+/KXv9I9uvNR+mLzu1WcVm3t9ett+WbOxBWkCI8GlPjBUpNoEbRN+VoU6dPHwKXWwvGH+pURENMIQdKLj9izNrQXsMBGaBXiVfQ/3N4zh5bFptgzVvUTqAL92HlMdXB0vk0hSGQfI5lVHgXUchVIGUrRuLaslbVVYMDnKJOQLvHyZLq9CLjMWMbyujGUZozBHOf1DrE7whPF562dHxyrfw4a/kOwFHBbH7+zOFNLjgI6yGNf0j6t/HLENPgxkGN9jtAS0tThanLGDkr7MNulJhBILA7L+phegRezZnmeTfVTrdoRjKNb0SSx58RqZFJlla6oL4XVuIiGHs08phV0weWI/8ODPm0iKkf/18yGcLJuB++Lr31kksgtQ8mVfFbGfEXaNBTlZWWsgGflzTIdUbUSejSORXiwlvmWr1zK9Ni27k3//be76z792e6//vrrumc+40LcVuivsYK2LrMThunTfIECt7ls3Qeom2AQkCqRzCiVkSPvBkoBaaBnL8gjkAKoEYSCkxkpoiRT1bOWzmfSNTo1hTCVgIETS2T5BqJCQFobv3Nvf1BX32MFly1ajqs22d3/wKbuYx+7uvviF6/PGsn5i5Z2y1AEfXfdPM+ZsR9gmc7/ZMhe0CnPMqugnHNCXKw0EqMAqY6OKgMkv0Chr6liQieZB7NSJzTGaQSsGX1ejmdklG05p5c5rWFL7teL57Dxdwwh1i08Ikj6kTQOuHdSByNDq4Edzpyu86C2/raimGWmZFipQ5/LKRgn/J1odzH02MyD+bahH9TZTx4HWVz+t3ffXlrVo90qFgHs3rU7k/J+A/EYX+05gDs1F/rNFA4upgsAdL11F3W8NQaO7NoKOo94mA3CU7i/rlCZZDJ8J8csHsIjeOTRnd0MXO1Me9DHSoB+1kNaMKqEQWTR3eED3Q62SzlYpvHMFIqru5QZ0ks/VACBx+NBSRcu5nR2ytIwpvujEBBKBslTDIuc1n0TpiR7zB/pn2mHnlfDBNaVy84rl1zgEeOnEsJH8CmvzXhxwTCSudbA5iZ1X7l6ZU70++g1n+q+fPPXul989au7V73qlUyLrM0KKRfMe9JdRuqlS6sPvxGtaGRh1WoiLpnPDJF4ZwUeE4zzPwT8j0K9rQpGmUhvRRshe3r2IEztlQQVB6OKSSgHAqxFMjgZ60DHYazzjV/6UvcJ/PZvfet25q32R+CXcWCUi5HdbaGypD9JvgxagDtQU1KANXz4tfL5h6XU9cmmXlLqrsKKJK96wAzguAJjBFve80y8ZbpqxmVvO1kovuEsNiQj0Fpe3W/7VX45dwknsO1isMazQ2fTh3Tu0LzWVWPgMjL3FMrAObQsHtXo4E+WxIGTR0mYTia7sF2Fwk6BF6OX3BxCGe2P7tqDh0DLfMK+5EN+VxHa8Om4E8edK+MbG1iDqQMImgMWCIp92rQSGCN3zyinuzhzNR/RoR6OlHr48ATK6EKQE1j/nK1IXl1ZWziXPYq/q4gcjRUHTxUfo9WzpQndFEDoQWHaSPKWGAIyo7ppuUlCcuhqjpKo+g2E8GQY3z8Ofkwzmg7uBs4gAc/eV7pSWNIgpLbcGkmQigwOyjApaCSbWdPE03hg1NzRsnr1as6j3d+94x3/q7uWHSGv/oWfZWXPizmPZwX9yb3wy03gdUyJtW4S7wYMZa+FukN5f+uNv/GWKk5ExKdXioZYaCJGw8zTFXMY34DnVxcrdlfqwiXzc/mvnEFqb9bAt0zqimX0TBUt7Tz6PU4W7929t/u3j/xr9773/V33oQ//U/fAgw/gZjESxxpK13EecWoAFxa7T2kwG5hOcwQrKq3LlwcEZjQogrom1QcBVxAgOXjoMpKF5/Q3AMROHXAOxB6E4usz1gw4fgPDpW772ax8DosKVrKQ2/2QTh2ocF4LF3rGqN84PFDHfNB/M5RXUCORGg5bcUdDHbnNcRU82+dz+mGcvov4OnLrcRguRF/CF6Xse6vUUsDlfKbza1J76EMexdX0LB0JPIVL7ES2q2WELV4eB+LcowvXrbOjvdsffihTK1lBQ+vskSOHyOPa2FkMijmg43pa3XAHnaSlgzC6lwcxkm469ihGrBDlksbWQS2DtplrhhcuBtAVtM6ONOum5vscejQJ0/lFZmKHV4kTXKEIlW6owMM0GePolX6YlztwKmUs74dqJwir0pmGWpE3cKGvEuWza4o1IKkvPFnMKqildJu2Mm7xmc98tvv2d+6Az+PdE55wfjwd+/YOEAmnYFrCCI6De8j1pje+4S0iM1SwYcJCkb9V48Hj97opwlCR6bXss5XLZ+ddt0zQCoeC5TKrZU5BYIXvufvu7qP/9q/de//u77rPfPrT7B7fTYuxgMEZ5r3I59C1rp5uXJSwL0vmYpJDOKdHXLwe4iMA1lHcisAoAkYiRFLbiFdf0zIqQ0CX6LyJkqoEUgYg6RN45o1WdRaZPAPVASJxf2Trtm4N/dYlGAsVMt/7MB1zdYsYcJrPkYq79u7OImoB2rpofOLSYMB0s2UgTRf/61k3VTmxPyJMcdlHC3uIVS26okGQFB5shUplWZ2nCzjA4pEhHtEBCkmm6+tUi9MVThkc4fApP8DjiJNuqxuP7Sva9/OAYb8kNeGpbxBin4YEj+Uwg0lT+Ll2b2z9pjCGKqZI7u+XuDmlj3hJUO7kh3O70o9nWmVxyoAJPJLufqFKvqd7QbLpgQShfv2mKA18qCJQ6aiCo9x5NB1vedANNpRimka8Su4azCb7gEieGvQpedFglcdIPhJYqiHywLMj1d4vZpGHPL7zrrsZzb+mOwitLr/s8pRnYyEe4mYZpYwFp2pUmKCM/+0tdWu0gmoikyeXD8PgO5PlT276d6P3QlGUTWzpASj2SStRRN71giqgCumyLleW7ELhnBv8hw/8Q/ePH/pgd/OXb8YdZW/cqtW0Mozi6Uph+Q3NqoqvfcSmYDZrlmS7p/UT1Uz6Uo6E8G2ILV5kljXmVfHE1dZR/IOjFpFMuUieNKTNVIZMRRrrM9q4x/QvVoKnXwV+iA7++o0bmOZgTx+Cq4LrLqbF50wZJ8WdIrCkrATiznsvj8V3t75uqhPiIpQpDm7deeDAi5Vy0h2p5j+npeHKe0zhIdxc13seps+im+hKJMk+h72F0kFBlP4uZXM+09FmBx08RHkSgXGQxmmWQwzyTIDjEd7vpYXdtXcX975nUIcW0JPAhafF9xDlvexGce5UJXevo8qm0jkirKE85eCZCkAmpzkyr8cgh/1JwEBGFtIz+KQBAcvwo5SGx8cN0kB6mdurQmTA2/6VRrgpd/GeMuHFIF2fz596XxHey15laxiUaS7eZQ43RZeeZBCPtA6MLaKxEIEbb/oKJ7jvyTI7XVqNrGULoJS/gHvvnZcLBkaComlQlXhd6SuzJUI0EUQESVP3Ek8nrhIHQ7KJJP0ShNn+REYmIQw9HgQKpMiuAM2jT+Q+t/vvf4D+4I3dF77whW7Tpk2U4U4Dvy24FqFksTErR/zwiyY054uChHvxLOXUSatghSgVIdGhOOlhVr3yy1Rxng3+RmXYOasMzF2CreMcktAyMcRCVUjI5VsfZ6N01qyP4YY3GAAjnfdCPem7sRidFmUe83gH2TN4PXV5wQueT2vF5DeDMVgd+ly4nuCxhsEml8bpslbZCCmCaX/LZXKWs1g3lDuPRrRFzMQ3MSdO0f9TUkDsAK3WXZvuBw4flDmHqRxaUOcC3eY0dXQfE+/z2fc4u9u+b0+3CBf5JLTWc3Tz89zjLMnjw6Xq9iQtqC2eLqet3j6mLQ4zeuv3Mfbiek+B9wQLqOFcVg8p4DR0kIi5OVbXOD0jsdwqpZGUWk6tHIOPSADyYy35hWYaGL0ivZIZ8FDZMc6DoY9P7cqAXTOAvKQMEB4JrtiqKGlgmP6+4nwn94prxplHPFT4UgZjHxvau0oPbwflA4B7ZT8j6giTBtuFF/alPYlihqcZcO/7FQzm/e37/j7G6g/+4H/AX+YsmQ2YzQIIZTDn71C82LcaTFPGQsRXVsKyW7KKSWecwoxOoTEnLU3lSUb/8Cg8FUDmufzL+cFF9HEU5gfp+33rG9/qbr/9G91Xv/JVtuLsyYDF/AUse6avpU/uqg9bHzu81UpQYwFC1FSB+Ao8+18rA341Kkcey+fZd/ZHrU/1FcwlMQWHIeGXxIWzcPp6S0Ar62ste8r1wXsumSv4uECkVZFdcDaXlTYP802OT197bXf5FVewE2MJRuhwDMkMdvMvW7Gy23D+SY6wvwOFOMhgDmeu0grJRJFya5NHbOj6yf6FLD6fwH1cuJgTCRil3UtL5VTJpKtk+BbGlq0H2Mmxj0UOfGmYFTkujtASHwAHbdgKPu7q6ppJht9dqePRHQtQTlcETcGXtKQIyuF9npl6NK7qdhRxx+4dKCnfVMT91S09gWu5nDJs4V1s4FYvvYzD3B9nJ4mDOFkWJ5ugjf80wGkhoa/L6toHWlUqlTaL3+HjvHlMk9B3zPRA39eW0qMhvAw35HsYMfp6eB9j63v7asNo+dqUbRjrnfEVc3r66ekqrf16Q1YHkdFa1ql11FHjjJeEtDPXvbx73/s/3G3ccF73pt/+re6hh7cx2FfyJX1Sf2A1L2DGow9vHkG3Eqak/k8TzPw6KIOCzPArS7FQtojWAur3xBGYu78ZxwdZ7rk83Hcu23acNL/znrtYtP2x7sYvfjGnhdk/mcu+Qo+Zx2AiiJwdyo3dOEGLsKtf7J+dhMhEUXbsbQhbDFIheEPh4ukJapJoQOHk8U+5nWJrYtQJIUNJ0Sjz51KpSCcXm/FxcEjkjtHySDiFMSeUkUaSOn+3BDdx1Qq+UwhdjtO6jNOazEDAly1Z0P0wp5OdycZeW0ZduDmMquq2bt2ytbv161+Nu27ZKp99K42ALarn4EiBOkPGvmK5+PtRTHE+wIl0Du54Xus4h/q6m8MF5eLi6QjHGIyZz7uVy1d1Z6w6g+kN+o54D37daQ7bpaSB868uNvBT4X6uwNHeA+TbzTEVxxEsVxI5Ab4Ag+L5qfbbXUbmRmlGM1KnI3gu9k9VOvkjXDlFu5G5SIhGNfAf6F/O5bJldxBKltm6aKRns3poF3PFBxk1r/7VNLEMVGlRcvd47/ok/EQWKN2Qvmr42+ILw7wc+VPu6zBC3JRDgzLllTlIacJ9C2koqKeDVObxlY7CCWRwDkO0e/Yc6M4/73z2UL6vW8n+SQfMXHkkjQrPKkN4fZ+xgf5evyJCGwExFcKUPMjSI8hPWgvKsH/jFpnFuG4HOM7wH/7+77s/+7M/6W668UaUTiFi0yvMtelWwcq6KPgwU+WjZo4sEoG6W8sqwyF+4+qqOCumk1od9nJlxDO4hni+rSzNssXdICqvBceN0FqDK0wbK4YalJrgYx9XxhGTtP6xJba/sHAhriD1cORT+rgB9yCK4+ikJ6+t4lRy5xwdqHC1iEfW25/wy1G6T5QAVIwBQu4aTU8LsOH2GI7UBS5rUd2VrxGKIQJHz7PJEjNxdODFloqWUbw8Bd0vG3v8h+tJ99CPGQOHQ8zrbWcqRsV7lAGlbY880m1/dAdHTu5hqgT8UawxuhIzWCcrX9zYrFvqwgW/duVcWk4q0DVGOdMnpOWMREq0MdbvqpxKKM8eBarYZeop9AlH4XMZQjct79vLGlvoNxB+84bK4kMZ8r3YTfzpwbReFCfuXBUKhnnFJfj0b6b/VN7RuAEe8hzY6maTGVHLlTKtGe/9q/ECRwff3JmygG9n3n//Q3yCYUF3xZXPq1VYvEuXD4CVSz/reyijyqDaWdBoEEAGRXpCSaGWqpSGkUostv27lUxC33Tjl7u3vu2t3ceu/mgmsv0ehF+8rRYIWMJPTUrZZYhwJEaoT63LrSmCWlvdSxU4I6YQSz219UzlQo0ArPy+47JlIUul4a/1U8DMU/9C7dxbIS1jRkOJiTVsZJByxBl0jR2uV43ytaq4qwqnLZ3rPGuR9OZN96dlPXPtOuKYR0SB7Au7PWoOgngQhXFHgMvhhOWJcC4gt1XUIOWof/qV9rEzN6migiMvYbyDIvY4wDctO31Npn1U7KP09TJVwkCLZbhiRyXfTivoSKmKuHPXjgz46I3YNx1j1ZKKlL6pgkM5U7rEuLAqt1IhTEcJdVOjiPYV5ZOKyL31j7QCR5wUztowUP1HUTco0P5RChwMsn6lOEbnJQkqderb0903jw3DdJU3jAocQbWW7vR8TUHbr+8HihjchrhEHqh7Kby0EXPlSNnsDQHPkUfQcbGFZ80+wgL7515xeQb5juExFb+od18RMZ/WMpbwi0pVX6GQtqDinwrJrdAXAgNC8TbEIukxjmBYxCS3w+ofeN/7uz9++x93mx/YwgqVlZnA1xrCQxBxiRr9LJ5dPaMKWqaXFaw7KwkDI3z1NqLOYJKpctRkFEosiwjClkgiJOsNKmFb1DBgsiASapAn9RSv5FW0JZZuq4IPHECWocBUQAfnJvGgU4JZNDAuTTNeM+q9C7Uzuc7o6J4dfIWJftwMGLSEKYk5tDwKs6fELWHDqy2Oi6v96OosvIUx9gjKLZcBKqDOqzoAJi6OKlsfdxvYKmcZFkKv4LtIQsF3VY+u4zjKPpNWepyWey6LBSZplcXRQScHwvCxcqTjGG6suzeyHY3yDBory84pcPQ5KD388nV4iCGkouSTWnDGZ0dT5YFGMsrNL+W1K/QhgQJri6+Au/DdKR27LS41VD2HypOn1CWNAHw1ZhhG741VNuttU7D2O8wzvPOdsi8uLbT01RKKi2VgFDFwykfmSYnRi/GVl1NzpsvaaaRY2fGryX4i4oEHtsLbhxjU+9HeYEIm6WOBEoJ8A2UUd+NG6+hjU0YLAQWQVggGUkyKontaORBw/m/F0pXdZgZo3vpHf9B94APvT/9nGYMI7mAvqydzQBSOKoyD+Uhr1MMrRfRJQvhr5cwnDj2iVkDi8K+U13SGVhF+C2QsecVXivzt3w0I35c/eAexqqwhHPtLhnKDegA8m24mgytRBIhW7iwtFvGhGWlmMlq5H7fw3k2bOr/j4eoiXdX0pXADl0CjM9edlUXlO3fuoBYqAoJHMbbMfslKt9/BHgeknJt00MNWJ8pPGfZFF9EtUK7c5uPuA8/A0bX2kCkkAeShGaPU6Bn5GVllCka66upCZZQUgfKeuuYQLHD2+x1+3MadDZ5bKhU8ulEKSL8opoMEwPalceMYIxekK3K9aufez8VZpyb64qYxcV2uy/5cfVXyKfTpIXwesqN/eXq6eraMxtvpUOppVPmMGX1u9/4OYaAByh//NMJ6byWnyigGja6IfMoAoqk0xFYS4zKXVVd33X1nd/a6td0PPetZWZPMZGvkxhFoqTFQRtEHDthz9cFHnxV2QzUYxCahMckVwpY1Y6QQi3/7bbd2v/Hrv97dwhHraxEuBdRBDislo80QF9HRHcA11VagcxHpKp3R/oNlZauLlRuUT2YaLPEyKEoSKgqUppDIIF3Ck3iiGnE1DIb27L1pjPeK5YL48e8Dl/em53KyX2csqJBG5XCJm2fYWD+ZFrpZV+7FzDWuWZAOh1xL+sCDmzN5b/kLGNn0W5CrOR1g9ZlMU8BAWwkXvDsg5EltaY1RRkVbl9tWz1U+KpKeg4Nfc8fns6Dcb3zgNTBym+MtFHbyawxcxKyASX+tulvk/BS5brFdC1vGo5z8fQh30aP67VtStQwuaYc0EJlmUaFpEXNEIvhLlGy3A55fcraV8FhHCaSiKrwmCk3AJ0JuPP+Ms0V3yuUQg1DSMg2DWfrglrOiaZBo0f1vgA/imgJJV/lTDYhyMUiSm3pXkZW2ZCf5o0WyUlyF70Vd+JW2LhxvuJumrxkVEp64IltMsSlDGtSFCz2Ueqr79p13dVdeeSWLNVbTTTkUQ+wUoDI2UMag5J+ReuWR57htvPKdCjIkVGUQEQXFIfprP/nxtIiPYtlX8212qhK3w9X/NfkLHCqi15eKAdPZJtWiXbG3uk+AFx0vXTKKqLwWS7CSSVMv8q7liUlKPPkgZlNy8zXCq3ADxvmiDzJd1zJE7ssUZ2+rPF0Ma13W1F0L3rt/cg6DKwZdx/AQxwYEyCcT+UGonAJxx4U1c6HD3fduyl5M9wy6ZG4RRzOeu/EJ3foNGzjFbnFwP0Lr5DGNh1gs4IIJ5zldxtb6WBbmgIG7MBQ+hXeKU8O1uPEopBVo2L+VJ9bHFsh+oC9cjuZIqlMWezjVzn6lfTgNicODupYqn46adZG+mfrxPbGCVMGd/NdAiE/ozKtigxRKyrTIZgh9ibPbIn/2c9SjewRjFEybjOYyFDzxfmwo2C1+WjZxC+V9a97RZySQR2XAYHlNEUchWqSy4m+2dyXx4A91rtTUSCD8V7L7ATny6MF4Or1z6w9ueRglPNw9/wUvyKCdRas78iRTG4ISTbVanhVMwPEg4GhJIn1fyijxzKfFdxWKBwG/+13v7N797ncxL8YHOREqzwctJmmJKQNQbN/klwdaRS2MQSU0CM/LCp3CisTyYFKtq+VFqHndWkzT6qbKePtQxlvxRtweVMqrfmpZPuOFl9YPixyhsMyUYWEkwOL4KEJ6dmn5QdSRQxPM6RUwQoeQepDUAlqkZcuWhMgzmdfzIzgG/0YVyeo8X1ZjEDc75WmVWCNqXwnlWM3ZLOv4jv1MRg9Xr17Dzn6Pox/LyhqnG3bSp1RoPcXMlTzSxKmWcQ+9sqUDVr5W7KBSP3fpwJI01111tG+SlTq6g64WchBHemnYsmLHOso06ic9bdHKNeuVmrTS3YGamSwBjOPRC6p01HuJMRuhp8aQWporht08ThMogsZlixdpXGnkShyNzBTHU54ehK+RCZ9Of5nn6veFb5YVHKoM71soNtezsKx/+x2VHY1LBWRBIQWGdZMmJQUxa4xbyF3qTnymP6wti8Rjs/hjnzhySVdaz2Tnzt3dn73zz7tXXPVyNi7vjAHPXsxd/TyjwKnnIIi7rdEp5+x4sHVU8UznEQP2EYMYTPTjlX/17r/q/vJd7+oWL2eOi8pp/hyGd27QIwTTPySvR1/EpybOylHAsExhe1lhyg3hgR+lbEQgeTbUkk6LD+TYoExXgFMOUCoLwHsTo0g2vd73RUn4YmzVyPJMSNIcaS9aBmHW9hkVF8eZ/MhdGOd2l+z1RIicyLaFchJ97do1CBR9Y6YHGN2H0VUf5/9sSVQ4d5SYF60EnjhTjoC5JnFJPSLD+crZfAdjERPuHm41h0EAj2kUt/3M8bmczkXfTjsozE6X+G6cwRNX7dQHfFg0QcgHbkB+PouaNSqHPMcFl/bgxGGmLNoRImRWQVBCVwMJTNxOQDd7fU5kz8CdtT5SSlGJXIRqlmKrwhvoohSaN4NKvlcO+vQCUA0V3kg45QhH+XA/pWSRP24SnwJHF4A0GRnwLJphmdND8Akvh/HCEqa08f3jhRavIjbFFF/btmEO70QuBOBOE9nXmQarlFHlVJZ4hn/GOR8dRaRsB7/82vKuRx/tzjl3XffBf/wgCwPWxgjpTVDT/ygAzrLFYVqyKlLrupQ+4vve+7dRRL8zoZI6AayFdLDBIXArposqSxRCjH5gSpswCSZK3xrooJohWjHJutWXjUlM3hCH9yYhGwAqXvcBsx8CmE4htRCTcHN6BUjCO+H4j1+f42YhTCodjxUKQDEJmNLCPPYF7I/p6kmHDN+DUObkEGjMZRTC+T7XfiLy9KXEsVqPTM3YZ4bAroKZaYvL/cy5C5lcp25Si5ZtHy3E7glcGxTP2jhfqcDbGjpY5uR57bzwWxmWgqLsqR36jk6OO9GPAmaXwe6irV8jVmxOIQCugHHROBHwzUkKl3XLdGpJfRSt/M1WIPqIpGuj0jKtDF55FypqEpBDQylPXGdbc6C804CBofxV+Qxtr6CeS0bUqZPHXWq4ZK0CGhlJav80xgwiBjeWOQyUk6QAUa1AvCndMM30Ow1IZEEBIBtojoQqN14dt47qZhrH+1w+wzMFhFBZieNeajdQns6wbMWS7o477u3e+9730KV7a7wB00UZvRGGVUnTnJwtO5EEnwq0v6w7RFAWM0d29b99BNf0nXxSbQXIuFgYawYh/QKRilidfnICPwaNG1miFZWxobSVJ0gIm3SV0lIcofK3bBS/pIuAcNvXOZUfsID8YTYREiaFplaA+A9CY5LEFxVbGoPCJN7uepcALhBXQCI4NLdu93Lww4GbfBIN98r6OtKqsjjI4ojZDBRW2xkXH0DqYA8QMeGBM0ctEROWNY4687aMTovwAQtgMUpKixdXGRyso6ObDqHbF6FtpY/aj4DaggMMNKCVcEkPP+a60J7K6CSEj9IaHTzBR2myJI34MT6XrqJnDyZ5DP4VXeEI05E/82vtB/IALA2j1LduDvtrdK2bI4oaCA+Hlr7SU/PcaK68xRBDeA2iUzee5JCN2KRUljyWMkEE/i+DiiW8ms+jTCvxXUIzzP5qXG0dG36PyWK3zbrKB4Hy6+CLIpLBLOorf6RFGgQAZP0yaf0MhFmUn6Ur5ncf+tCHuxf/pxd1T3sGn6qb8BsoI0F8rS845bJUEWzBWwXNUSGPx//UZ67t3va2P4rL40iaRw9kAjxZhIYzQyanA4TjvyAK9dUVL/1sy6l/ffk8VVBEA4yfYniYTo0qRb1TaXzOoUMoiQMZIZA1/x5BvBy9M0jgjOQJz7z8L2EBb4Q/fRstPS2+/a01fEDHNaMu+I7QWMcIAYKgRkBeD79VWf0VG1sr1+kaxlCQXIwiOqDjoI8uppuDba38PocfZJ1CUF10TfvJRevkYmPmID3+cAaLCmY7v8lCgpO4kn5NeYxpklkMJHl2y0n45cZnd1y4btRRwGMo1AwG28Zwe2ea1rLp/7lMy5HvmWzXd3GAh2DlHXCcMy13Hp5BAwewHORy8YI8l1jFDenmBT8SIS29x2hgKFq8cYEBHHN6gJTu/hHO/Fm/fn13JrSdwhuQJ00GS4KAFep99z8tfSlUkyEK/C6hKZ6/8XBETkQfJ0u6YL5KWmgi/tybxZrkVyFVFpDzyJey4LPlE+cqqWVuNn90b/fnf/FO5oM9ckRpIVimrVQtXi0LJlDtoW8lall1hAlBt49405dZVfPWP4TAM7pFS1dEaN1hkbQUaz8vbSBWMqNuAwqSRqG3TItIBVRaXQlypd+gdW9KLCL0V+yzMFJnhc0p9NzyVAsGwBEilDXmlckkSh8awSVOY1brHzRlVIE0fNq2puBpgSGOOEtOt3odZQTyORf9CB9Q+UT3J3/6vzOK6vIwhdMj+p2W8BJH6WZ5WbFBa+lcWk5LA56tsGWlXgiirakncVdaFZR+BEo1C3r7MdO2Sdi+rHmtf1ohBotmoUTjzCnOYb/krNn0LVlFAwDgzYuizkBZx1nvunjxclqeZYza8nEbXOK51MejPuZywLN1s2+bc3gUDYUiIlL9YvuACqv46WqqnIgvv7qpilIJo/UtPimEXIARkmnDNvImPXCEr8wAjfLdJodS4uavYIGIrrV8bPwyb/KTuvGTmD5YQoVBeh7rvlp570fftfT+jsJTLoJUuiVVaMYHkkH9EFsRk7dcYcYQmnKUefe+hdWj0VWXJtFL0rteewXu6qeu/Vx2+CxlPXGUcQDG+oSmUqeuuIoULkpHmfPyqPp7N93X/e7vvpmh9qPdgiUrKBjlIv0kJekKqRwZ/OkFLpLT06oqnRm6pKPLXhXC5nuWqBtdraDlynR/ZWIuOWPgVzNhEC8VO0PvvkchZK0MHg2nM6LKwLKTvpSyGKISSrF8USuKKRSZ75yegx3F0GdyZN9SBqte+cqf6S6//LIs2tZlOciwNaSHjuWmKIsJIsT/oqS89o6ydWu4eJE62b/MyQJE2SfRkHmygYqQ1SzMHarm7oBwdNRTxPPBHAZ45jAlMocVNrM5P3Y2AwVzmMyfiwX2tDwVcS6/i/gi8ULmQj2b1VHXLLODzjE+/oKstBEfSVGWX5LIE+OoF78OTyiDkUPqonJpVGJIxlCifF1aYdU8Wg/eh5/emx4glJb+p3kx2iqhYvcoAxzPvPDCkM3yRSblQ0PNcWFp/PRQijY9vvBp5U1PP/oUBSRCGJZV5RFBBV10rzzkI73gXbs1bDBq/W+EcACsN8DWmnpKK2WzxkFMZK8c7wpPywUaWv8//9N30krurD7jAM7j3GQpWiguSS1gZvfP//whTl/eyocn17MA/CBCyhA37yA9xCzps0WIUj4OzNGoMJ+8Iunn4YKsTEtcEdbOsszTmwxz0lLBNYJuZFLxWzHG9nHejgRhSOwSBBlseZREvHnMNZqmmFsAvG+M0p1ayyjYJC3kCVqys9YxSZ8+MqOhTFFMTaIATL6zliRwFTAA04cABowuhPu6+YqSdYG1pqal+mF+WlUTB2e6nypkR4s529U30It/6ePbR7NuwLY/kk+Lww3h2rrxH+o6cGadyUVej7owEMObEsDUF4VyQYPBZ+ntr3IQN1VYMC39ag0J70091u/v1AiZoPIWjuiamJTm8to8tib2Cy079LfuwRiFBs/zz9tIBhQ3uOJqp5UsXMzz2GAd3BkiNsPQ8Kg6TH/XUvluNPh8enplI4M2wZKq8CvlpGvhXXQIrOTneQQsuSmiLvFHjTI9tXrliu5rX/9W9zfv+TtgjYQSSoBEOOuFAmQT7XpJ5w43b97cXfe5TzMkuwqQAEWzx7SEfR6FI0upFI4R2NNuR2mSfEaMpkY4ifEq1W4V0dISaZ7+stzRKxYOZptvFCKPgyDBtHzNPTVPw99E3oeogxzAUliI94iQhbRC68/dwK7uhVmDe9ElFzPPiouFcNmCBjaddacXeIBZ1c/KSDIcoq1LWy+zUg4JxFebl0EAbKQDJvE4yO1hWe5LzEoe4Nu/cxG+a0ldzqZxcIWNfVOPPvQYSA+fyooluJ6+nWn0AkIvCovwo+Dkc1i9eQiu9VXR0yIrMcEeN5V0caN55/pMR5Jd6pYPqALb1q4+p6ZQCs+TDexaAKspX5iH1MQoKT3SSy7REkEru0B+ls1jKf061Lp1ZzLSyCFdwE+fnJSjYZTvlmOaxlPTVWst9acHad6u9kaetSDcJhPDMpBHZYaWPgYQGNMgw6MYWmHzxoEs5Te14z6DZzy4eYAxt/w64DmLPv7SxfO6D37wX6Yro8iAx7RQ1hlhoFly684nPvkJVqA/nHsrnj13EFTrW51bBbkXsmmQhg9WcHpQyUTbeAklc8rd9dd3Q2L5nJ5hQISoPbDAMD1wvPxn8G+797nKqt92b3wLFSc+FWSMl1MHCswCVlIsZ2G3lvEg58NcfMlFHED0hOyycB5J4bPVTWuHgrogQKOWuCisZTfo3uu6IdjMK8qAiAXleU/J/KsaqKwZALIVJXvqyasIDO/kgUntdzo/55EcKlAT5ixcd3RXV95LJemvcoHJw/raKGJf5yaYApffuehKqEPhoxXhv+XmR+VDedy7qlKXO2saLnEjTvZbvRr4qcxyDFRYTDGLbV4c7IUyPvlJPxjalZKVURtSzTsyDK72xjgpCMdtkgmPx2PjR+XQNKPpQlMQHf21DqZRJuXFaLDUokDFWkf54RWjS/1Kl+xkmLK46gIMvx3q8ZrB9jS4BY1Ih2a15q4YcQPr9u2PdNdeew0d/nkwReEqAlWlEY1wyEpSGAol8HR8gWEYrXw9Tmmj7wAAQABJREFUF2N4A3MQgvQpaPh1pcjjImt/tTgFwkEPLt43ogiZ4qaFYnbFaiA81dpumUEcFIh2P8qAocKLf5Lkj8pV7ppHR3pIMAKOsI3nOxl8sHTZ6u7ii57THWXwZiF9at0sTGjhr4SRPi0r97WoW1rBktCLe4aVeUPfhLTFqTx7UneGm1Gchk5oxFsHZDXmGeiC1hSX+6SzTATRujvA4+UihQz20FrNpDXNGTtRzGFaD1Ryo3G1ivIGnNol7lyZ0iBLmbxSLt3XwcBOT7ahwBYOTgE5OJTWNS0pNJQ3XJbr587VRg+iPsAJ3bbWl1/23AiwsOVphBv41lH+SKqmor73TfHKMuv5dJkztkIo1R6+568yKI+qjy//RrNQmLIrvyL1PMte5DSh5y81hp39IKTMk4pUSr3xpIOSysrCC1+SBLXXAqZPRQpXhSxg+82nPnVtt+nee7vlK1ZlnkuLW8JcfYRMZNMiWM0agIFJPezRnyqHVOIaZsv4ypNR0wiOjJeoxTDdqGQI8kncly1jxLuI628EyHpYKAzO0RrW3WCxKbMUuuWrlwWrvU9y0kdJyeNibNefelraQw89jAB6DH71vS6//IoskPYsFHcr2MnXZbRiCnGKj4IURcpoDxwZ9BJGQy3zuIrIuspLB7jSs+Lelrgq4F+NoXzS3a43wZc/4qsVtrUpz8J6AUBh4p9l6V04TymM9AfBsd6aqkJcX4ywimGrqgHKihiUI/O4CJEnqI+5goi+Wg00yUu8AQy4J3EjIUE5E/2UodmxXnEr4bOurrSyDAvOhmwWi7uQ/tLLL+ezBUvBUa+McQlxdMSe9FpX57HNJN4VevoY6ysp1stFvf/uf5sSn668PgtDOnovrs43F3zhWRDl942ELWboKD+JSz+bvK1xch7dKT2XhcVoQwNJNI9dHYmXsflnobpXMNPhWMtxmZVWdeLAIQ6M+nw+3uJAQg0WwExMsitBPGrjFKdGg2ZIEzUUY03UEHPe8o9nL9OWlLZKVdXynneNkD7XfVVK7M1bo1qpi/XJJaQIqXVA4CRCQW2wRafg+WsIsUnfyktk/8ckWaNL/aynwmi6O+/8TlLouluJpzztad0KPrKzj8OoFDDpoyFpwtZgtrKlcaxij3Xi+0TxBLg3bixTOjWglSV1GifivQziErz5HQ2+VeDlnQKAeiZducvmkU7E2qQmFDypCHWKmPzkxADShW/AsmV38MePjromGf3AaGrwKk/iMCon6Rh5EJkK2uqWeqn8lkfykpRgCj9jJmKArc8ePk/uiPULXvhCDkXejRdSX32WpjXyO4J1Q72iCvd2/11+pU2jY9FyKJej8aGtNJEXPe15CA5Or5YMKk/oCzoTZ4f4eGSks2GDfCWTzoE7lhDel455AoKq5vQQyghVQnytqf5sL8ASF2BOvGqd/MTabbfdxjrJ5cyRKOCcCcNcSY78o8PtmTdOS8/g3A9hepryKQovZehLATGtfCw9DPQLP7YNtYZVLBQDiJLm/vGoKMHoh1hvrI5DITOYB9AdaJc9Zwdlx1h+N8a7IiawNECUecplalCsXDgYC4EN04idmOEfIKa8YwiugxNOjt922+2ZoJ7PIM4hTn/7/ic+sXvKU57KzgcWAGCsjjvT7ghj1uAqkLaIVT/rn7pLb2kCN1rf3MOE7ReSRErEmOmuDgZYMAZpeW1RqE8TECksDOFVnckrawm+U0kidEoLz5gyYLrWVEXv8bOlga7uKnHj8STD70fcQ0l8Bh0QIpfMeSRIBprAgSEg3tWghFvEMr9mGZKVH3Fpgp95ScrTXdZ4u6ncRemW5a84+TfGHcPHbfea17yGBQDrslE6X+mitQUowJsiiINFySOFnns8NnxfDEd5LUkw8id0GHn29gRyU96D8OxWtGeVFhqBc8X1Rk2+UZ6DlRr9mutuPFA/xMWGDXzMb91cUgi9PAhZDzAbt9Gd8I6/kUStWoDJTO4jGChinU49h20tE93HPvrRCLBCrAubPh5pJHRZbwlC3vz1Tk6IFET13iCvJVi7eI4i8sqUKduXJFIQq68gUYBmRoLuhMQcuGfG+6pdJhKv/Ao3dynT1igtg3EVbaqE0TJa3PAXRoOXwuRyrfnsULnzzju7b9x+O31pPsvmjnreXfHcy7Ic0B0V1t+Jfw+hqkUAdTaOiha3F+BW1RHYnIcKbsGBeM9SNcgTF0OIa5SOOGtm66Ry2ko7qtkMSlNEhSaKSe1bWcITJ+OLvpSjpSc+cTJAXhInb0MryndfYvEh4k4ScNLG8C7zZxo489kP5N4gLTz0ykEcS83lD3yxSipMC8lBnL8aS+dOXW/rViq/+nQh843Pe+ELOAVhInWPXAFHJNJC9oCKdsAXUoBWWfU6EXUrAo8JypR18hK509PYhld5ZhWaiuOlLMYr4N5cuuDqgEFcYUWClJY/zi+Kt0B872qsY1wqNXsgydhfmfsBlzSjqLRzZvMZxr/55pu7W269ldUbS8IEFVJQIpJjEHqGpF8gijDDNGGfFoaSRaoQowAFjEr3b6piwT85KEOLwhXBLeFtyuJopn03cQyepxG3WT3BSQfLMORXPLkXVt7yKyFTD2LcTVKZemIVgORRYB39m+AUNQ/d3c1nB2644QZykYW6etTIcy66KDu6D7G8yUEQj6oInrYmuvIQvcqWkX2rhlKlvyItxUVqca9SON/nZwPqQ5ytNrBQ/KFxasF7B7maQAQh3pgmfUl+W5mFLEJRN5SV0vL+JEpmPeKVUFTDjyjKAh95ioVvA0IqnC6agpVpDVvqGAaMKHEO9DimYD7jx31HvHXL4Jz1Iq4F+9X2ofxs3X7Obb3r7rtyTKTY/tyrXtWddfa67I7PskJxIX9RC372QMJ74Fdo9aaVs5603jH20oMEuVrGZCiF9E3Ry19lJTHgapl6F/ZtKVscuMIn73uoTnNSlXJXydsGIUlMpKQs/mbNLvX1nww5iQEfy7yJQm+bS8k2rbohJ06w6BlX0yP8rr/+euZ7DrFiYG40mOxhaB3gSyvlP90bzILNst6ZLV5cENgatTMTwuyCYTAEKZXJFQy4uLoI6gGvZEqUI7jYWohWiY9kMTQihLE98SVgLg3LSFAwDE3g2yuJYPqm1LYSLgNr7oZWWnx1x06A63G2dOFpUFM25HIGqnlvvOmr2c60gGMm3WO4YePG7twN5+K2cmQi0xRuHwPZ4Jtvv7MMwEXnDe8ILX0qyxKP8AvG9lYrz4M694hreTOPC01SU35zx0ODq4BINy1x3hUJSCA06sSvK6Z8F3pHKeSdFlo3kKqiSLa6urfBE7ycg8yZQ7haCmdoGrcTwpiH+xq1VVDlNfGMZCNMvNdVLuMyDmx3k9gHDk4iyzv5PMk5sO72v2/zfZw9+zAf3jncXXTxc7rnX3klBo1PQACvjWcoFV6pU0y6ykJ5xERm6CIol67bCY2Np5woJfTmqadqcgTnICQEiOQpf17OHBxDQO1a+N7R/qJtXx6rjaQmb9TT/Fp+yK48kj/9ZetJLGYdKYLePGYQh1jHJYZ9RgClJcJFUM+PsON7IUupbr319u6z113XrVp9Rnx58a8Di6ywisal9vFC+W2CpLCiabGCvpM5sJU0vVvFs7CGSHIfZP0FToI3WEyYXKEsUXNf+8ikHyhWCNbepIhhXnEIkkRFKYBHXMubYkN8BBxKSYcQmORaeHFxgt06jLOczEOYv8NAjkvLPPzJZWZOVrtrPh13hDCtBlkVbIWvH9gunHrFE3YzN76Ie4tB9JTvOk+FklEwlUyaSctRnH1WMfhJvDQV8yiEAHvgRVbEBhop0CplRibJaFpqaerKx2Py+07YlF3P/qroKBjIiIfzqF4KdwwlCfLZAkFSaHk4Ghvj4b+tDPdlILkHflpNEJ2kG8BTt+ORHbh0NAgooFi9/GWvYBHAOmBxbCSKnK6SKUWmx1sFsO759iR8LHyU6zq6khpVuZbtRc5BAM+h3BErWK6A508NxGhUIKay48tWni2QrVyfzqwFAMzkGf+lV+HHLzim9QHD1lpb0JjMroJgEAIgRlrHDH3TdF533We6w/QZF/NV3uN+ybUX5kKmmKExEhEJn0oiXEEMROxXaBycs5Q4g8BtMXgaSUDaFhO7QT4ZG6CDTAqAqzZ0Gc0PUfLLs5WJlT4dHswITMrvqT0QZInZw7bcvFcwwFtB8Vmy24VjSagUTZyCoGLtozW8/obrA8HtVKZeyjGUx4+7S509jgCfiXWueVGym0K4ASWsxGTENYuzwzgKUlgR2rhiagzc9PDjbPrlyfz2M6ZYFXUMGDgW4ZsvqrUyvX1KjQ8mkBZflzDzjPxyk8tsEC4L7E+S3gOV0lpNF1PwNGHxQ9qkpaR1GMQrmFwqSvWPpTn1tX7SENhJAoLywhqkbP4OjIj5eaeRUNlccD/FAKE00iu7/LLLuue/8HnU1VPp+RS685JUpQKGE7yUl5IpWkJEhaqxZPEgk+rjzALw1S0iNQZ6QWUU7OfauplXEoIrV+HGrzwHiBsgolTiCBftptTSOO6BaY6wqWETWbT+pbzCk+SRgPAcPZNZWsn+ZYyYtHFdpX0xclMYHzdhA+QCVpLce9+mfJB0yTKOgWcZmADcpZ7fAAWWGMuYEJlXpgGOZYigrmxZVptlkfd9CaGpm3J7PwzmJn9PnHYv8sZpZWzs5bEET0W5l6CjwerWpUEoQofYSSheEJn7GBJ+26CF2NWAVg9BvHsDlYrx3jyeiXrjl25i2udABjrcxb9+wwY2AtfpCH6hSQRcYJzJYukETuaVuQpujltoeBNvJaxTuXy6cb0xAzZViBBZf789osDLt2aI0vLScmdwB/gY8CE8lTGKWIKjsmsosWeZH7V/WnCkC9mqoilTmkq3BFsFYDsHaf/HeLd8qRzmJya0rrQKuXD5RcFNK++zBxNw5ZrLg6EyOJLqoJFuP4mtPq7qBJ7F7O7lL39FPkjqCqPF7nmUAKmkZC7aWZ4KPIslg379eTGfk/iV1/5KNizzIoZP3CK3qWPx33yWlfyVIDyKcWu04P1gOVw4aW2LLryq+lFGHGMNoQBVuD6tj+OscJK3lY3cJjGYL74vNxnpUctDLC3/nO6GL94AIRjEwf3ycCKtQVo50vjhEq1E4voCawDHCgGcPyKVLqIMhECRHsrKLoWeEHJeArQwet8q0d75W0KCgAJON9lSHPrXDbSCo/l7NEhROYN7kyle5n0vtAplw9EvEWPm46qmwlDMsjQ6PouD/WpPEL/zO3d2X7n5q3HpjzL695KXvKRbvmw5rSb9RhQj61MhgmKaZpw7sc50hS25bxpOoCmuiCcCWvjFcpNXQyFvlD1zee6Kk8/2v2K1rYdW3l/z8kewXjFE3CkDnthmv69oUu+kQ2JIrMKQJC1rlNuTBfACMrVSgMHYKQMNDZ6PyEMX8eUFAgh8VtRYgB5FjQyTpk8gXnGTmaLIB21lpFmBk/IwYOPI3tYHt3Z7WCLmIU4qzuGjE90lF1/KZtyfzOfSsx7XKR/gWX+7H5YXulGcC8aPsVjlxT/x491Fz7mIVT0TmSMXSavRRqxLnqQXea14H4wnimqAL78aaP83wzFM1+5MYxINOfPzLKhwkIfVEsTyqwvHb+RIJEXWQpUrLsmIMkaqBUEEnwbjYyaer3nXPXxn7pqPszLAj3HWwmVXPNix9TsCWggm9yofroOI034AkUoknRaCR62bFgzhtmeUVQmwPsuCHJmivymDzG9oyqR1a6HuwZZQLSmQEAB1xkrYwY6l64E0GKQOszIfxztfe4lXShyU64wlDORNWkrfWpx4q8E+K8AQ13iIBqP9gMyMTPJ/+tOfSprDHJHx9Kdf2F111X/O+l2FC1LwdW1c//CCkiMtKA3/xtnFP4tVPEg7Jfe4glNcSwWDssW1PVu2rYGK6ECGCwp87w7y9AEdAUDjnEt1jWm2R5EOyaMM4sg/W3eUZzHwi8sKtTKjsvkrPR2gUFicQlFAs9YV1zFpUlMTWrL9YLZw9fDGwNf8KqjcUzCja8Cg94u7imDLAMoFndDXUWYbAhePS+NDnBQxZwF7Rtkf+qEP/wvdA6dW2DQtIAjwq7/8uu4J5z+BT9ftywdzpfFs6qxSapzEyv2ZRxgEWsXXvn76ZVdxfOjKbt055+TwZqxX7QsFZ1fzhCji0gflKBf0KU+OltyGRxz5V4hrfCiPelXrV5kFo9nVq3KAJntgqZM8kbj5HB68zoh15KAMMaCLP1LPiqbFhyDHODPTiewHOIR4J/vKJLSDE6aP8IfM5OVfC94rNpnDA5aElonmsWXwRO4Qs2XgTdweFY609sFMa5iezhigU6EaJZPUMq1SW46XsOyvqIRxhXiuEPIFduGkoGtJ6yLroNyWw3zCEf8GWxpZw9YH8oXut3NGS+i/XHfddVkQsZADqY7gUr3+9a/vzuT77vtY0uVcm+XUOavATkHAEoa4W4i/4uKfCAPvInzqLvUHFw2BrmGz3gqM/R5x0fgZpL94ZgQU/GKggGl/PZbdspLCsijD8iCptPMjqlPUx/N80go7fGA+0/BH9zET3N6HX0VvUAveLq2T9rrQx+3r4T7XQMpQ2aKkGmdra0bwkR+iJadUdhVAD2MJn4j753/6CItNbuA7FSyJA7Y74tdvWN/92q/+KnsxPeqSWoGLZQoBIiWdxsuT5r7/id/XrV+/gemmeTnPVxnyONF0HzAkGRgUDxlg/tMCmCXGX3EcDUUWm7DHhqQnuk3DOQIvP5UrGxN5Wi3sEL5FMQ3SKwYVMoMnVE9wpMRn+SRykKc/oPVw2NsT20yvRcwFQxUuL63zSY7jkLgmSeHBU9TK2vgYhESKRFpqIRligUOYuo8ghUDiV622xFc44lpHSnxXMCO8BWr632To68gbH7NTnhtuByGCBDDJU0KFoRA4IScI8CLD4/w6LeBgin1tpwD8gMx1n/9c+k5+UXjjxvO7V//izzMXuUto1j40sC+tq+mzNlxacMtvCeaAF5YJ7Ka4cU+hjUakWixaUgQXEGk1s3BdS8/rBH7T2kRUinat9fT7GIFHK6VQmMkBCT+u41GNfotRT8QzeCTWTO5ncTnQVyfbKVRmk6Y11uCWJw2VdW0CpyJ7NaOm4cjSPFvuYlrWu6oQaZ0dJKGVc6nlFH1u1wDb5/u93/u9btu2bYxYszYV2jnC+uIXv7j7mZ95ZfCgOYQPjsBSf4lJEKZlrD1zXUa4/RjvGXwBqrpHKLznBmG4WuuuASRTDGNBKMNbMtUrjnAHBJY0DnQqj/CXeFvIdrV0NWgGn9ET7aX4C9Pq69NgXoVKnO94jpWDaMY4lO4ZKPcw4XrLzV/jc2bLrRt44m5FLkXVfpDIAoDfXMQWgyQMBIulMqfM8ZcKWVnzKZAFrBjXvxPJQtQ0MlaYCliRRxjCUwAQl57suqqVz/QNrveDIN6RE/ILogdntMwr41CKYVGtPuZvAzyi28CQIfckjFJPuhgaA/bxj32CaaBb6V8v4psK27tf+PlXdz/wA9/f7eAw55zoRnqXc6V1CxJABJYntekGulB6Lju/HekT3ZRNXMyVSW3J6oVUiLLWvkAj0+4VksiVIXWpinMfAhibd/6ZjWKXm6WrhRJw2d9zL6TGopHKu4y2I7yhjYqpogJbuPKjBrdKyITdjIz31aK7hNCRWvZaQgNHjuPyalCoOwVXidRTt1WXwWWBy5Yv775+y23dX/zFu6ALeEErxyj8ctdrX/ua7lWvfFW6UYtpOeexRngg/H17tZRvVTrIptt6xmq+fs0uGyvmdBNkDu4Srbo+Q9rkDlzyKUKpDe9CD/Nyee9vBr2sJO/DE37VDWlS3onQK2hYk0rdkJZczl6U/FWLjjIaSasIgR1KVi9v+uKNuASHIR7f/DviWkmLpyLsMq/elQW0YsTFkhRsCOutliC/da9gDIPIDvOmZsOXhRyRIt7/H3mLPaGMTCzLwB6uFWru20ji4S3p3F1gciHrQPtrRGDAmCwxU/iNgJgDFHlOmuS1PqMtg3Tj24Vsut6xfScn5V0NzfgiMBtilyEgv/RLv4SryncOFTDByiSkwCMz0h/r3YLg43vxSYtnawWGxomnnOeyrxGXVDqjOBpE1dD+c3A2rfil5qS3tSBdfdYbYQaGyq8F1yvxRIC0aNxTAP/sexWNpVBcad6oyrX1yXdaeuIoXKNZrnDRSD5kyF96omTpk4FTlBMY1l93d2BsiQtthYfgHWOqxhZQ4+ap4rYktmrvfc/fdjd/5cvdfL7x6WncfsB1zZrV3Zvf/DvdT9BK+o3NHGFhDVD4Jl+6q+6CsXzd2uyI0eDYz9XjI74MvggX1SRFGhoqqcLayoUHwZ8/0kma5rfoIcXrSFLTkolLHPTADIEsi7i3NXXqMOYMelhH4eeYlxO4lg7IuOBbK+xhvN/8xh341n7KjPks4mWMTXqO5wc5mTMt8Nq4KGMqBfggYh4vUz8m1wBEU6bmqsYFE3WQ7TOTViBWFCbzT8vqZUuTTnz2y0EcBbeqz28F4aO7kigCWMcgIhS63yQpwadeKoocSFDYyqXLo2AJ1kUDpuuc+U5gu8jYVTif+9y/8xXmmxlNXYbrurN7yU++pHvOjzyr24+7Ogf8XPKUepDHVklG2z8LXOCLi61kRkr51bXzVPI657SyRpl1SW1lsPgKvfUVjEwF61Q/ddZdQ1Elo62NVlteKwqeHkA1YoidqzQIaiZCWCPk8lPl4jd0RojTuoETuGcQCBc95ZAx/S9ZRhm2lFVPItIqa9xKedtvvCBw8FkRViSxGjEOemiWOwkcv9voxtt3vvNdfNJ8LyOpnIbO5gXnWN1P+qbf+k12dzy9283BzmnBgTmbg7UMbeDLgZ2lnP3j0jRdYn5GQj2Ig0Fpd8BNmUj/Duw0OOKplkozGyQN3ag8SnQNWVYokR4zF4iAKeUVBvfWVtjRdNI7pmIXQnAMDDpFgdKx8kHr8q1vfrPbsmVL1qHqn0fBogRi0YQTYKPBeoxcedsnkVmG6QSwgqfBSKrRP499bwtuv0XXVHgFU1hOrNtnlbkpLYBaGcYP+okkqLwlHHG5k494JNo8Q4VEWIkzjfXzne6kgqTwp2/AO90NBWPXo7u6D3MWpu89on4+O7ivetnL+MT3gaSxSZHWDlJkpE4dGKGDNc6KGwyKSifzdWd0GzUmCozVM4vvvRwgyogmv3YnTFXMgC7cZcIaZTJvBmFscWhJ3FHjqJ8trS2lwb/WETSz9MvpK+8TTJv39SdGgbS6fLrhLlpvbn2QNH2B7XlSYPybMnhpbUo5NQS0YrRWNgYq1Wy8MltjTCbGbWn30auv5otm70sZApwHvY9yrOM555zd/emf/GmWzDkfKQ810gYHULw0JmsYUJMf0qvWNg/xS+L+T+rIfY96qpJX0CE2C36oM3oUUdDUwhQSSqOivMhlg3ENUiIqn3nAU0/BJOWN2NaaBeF236JCfs/d92T1g6vnT2LxmxtSRanFCofN8/RiYEW6o4qDlt35xQoNoapmMYK8WIoiii3MEOEIuk1ysvXlA6j1DUt5yuoI3xZKOO29+I1ephF8tRAIQD8kD4eIrHILM1MKz/x1L47J2xNeAsoE11WqlKENhHA14NSJyTD7c5+7vruaj8LOY4H9Xiaun3v5FVlKuGcvrSOjehpB6QrKCAoFgU/czCpy8LeRpEYwra/WGiWyn2aqaEnRbjbLg2brfoKLOLmvtNI0pTXeWup6USdah+yyIEpFlHfaeYZhuChHl554aaoxqpzahjJqnueia+gOFGllOt5GebKYwNIjIJRleeDUpAVwBLFrykAZwLFVlL42CrqpwqNAaOMueCfwJ7uPf/zjnM17KH1G53nFfeLgAQZqzuje/va3dRc8/YJ0r9xJY/DzB/LTYH9c46l8qeTCbjj5HmxiIKXzaNAYqB+JthoSCoLIBd8pD9LFYvQOapQ0akUyDQ71Mx3/lNXmKWQwlDeuTsppgABIrmNYcY/tO8jczM24WX7AhXQBPIoYMQCjVK6ya00wCkGozjsFflihUj4ZYi0KyaoZFYIwEvv0UAQJ1wIrfVoIolBI0AiUVQ1xywKWQAwhNYVsMSWMgychcQmxYZPb/BF+ax3F8TgCorXWbbSK5htgLf4wxFbH9wrTe97z3u7euzflfNUz157ZXfXSn8LF2p2v2DqAofsjPnG1EdS4eD0uhUXBt6zUl5uGfzG32Fv4kyjI9HBQRClV3YQGx7JqkMhBDsut6R1/LQMZszWJAsnCmse0xcu36lPlgmU+W1vTqmT29ZzWcBuYNBCZudQxtJJSSWdsKZZ1qjEF6UY9oG/eoVzOLTqNpltecdSE98I2PP/K53E2znnZYiXiR9lVpFI+/NCWrBpzxFRSzHcwh1/76nZhjFx75pkZyBGuuDkvK21BB3ysDrTIs7JqbB9Es5dnU/vPtAm+46ZdynJyGtGHDLLZmnIdd2OErarTRxogE/eXCq0bHSK68PmWW77W3Xf/vWybmpvvAsYKY42dJ3QHByTHMlNgDIV+M9bYShQKqVWa3iAi8bV6uo890SksihUFBE5fqTCEd8NKVwWzyse84ixTEZg0ZlRAi6SrBxD4UsLV1z/EnEbQ9qL/ldaht/nBUdKWdSscmiILI4pP+rgVpLXvFe6Rt9yVqptx7or3C1z33Xd/d/XH/jVLCCc4yvKnr7qKA2vPYAH5UfY/umMd74HWLILOPVUj5E//C1OAl/IVfF71Zo/3Unto3EoQrEEJijDtj1b9Syq8t8xYbmtLtDT1avlMKdysX4Uv4YX5iE8Z4GOoPMCiHOGaLgsOoIdp43LR2nt0o0I7E3qJse+8aDwoQ3xUOEO5/r6zjvW9EMq0IOA4IKPXNp+BnEsuvcwM5GcoEYWfh5zOx9tYwacl3vPXf8PC/Tu6ZWx+zzyp6VA6l+lpwM4/7zy6XouK1uCUuoJ/c7eVq9CbX/GdFoq8JFA+6v1oiryWwBqXQpzsVbsYLxCehTuf41QoyDZQXlQDZT7xASOFzLKPMZBzw43XZ6TKOaQTJ/mSUoaurYr2RPCiwJ0Y2XK6m17Cu5sdJGy486L/LWZBZMowSxNyEiUu1rNnqGm8DFUWVYRhujmmg8vBU6LV0YVYZAWAZBL0e4UIF4maAKUsjIKjiuYelA2io3hKNI8jTBr6W346wD6X83J+5kAlPsm0ALNxUId1vUxML+B07i+ylPD222/Lplj7NbqrDz3yUOBgJpNWt8W6glTw8rZqX3SM4eNdBpj6d1liZaXDC+gV5lf6LL3rB0wKUg+HcoovtoC2WrrYggBj0sewNVdM2ImXv4Dn3qSqmtzRjnrJB/ojwNJFnp3xBltMozX6+dAOrYEyI7bCQqygMw+DYCtduIiDqWeyLtV507a4XuNwhH5kvshMn+/UiSPI5hTCTR+dozk+ee213dW4r3d8m/2PLFjRQ/JjrxRFC80hzeCoXLpPciHrrV03PE5/1Cs7iOSbiZOj/VKv0Fi6UXMSeIJFPEIqWLJkTSu0Ftaq2Q/3X8GzTlw0aD4DNVcW/OMpFmWEEQS6MTu4yQCQg5zKZcIQWw0WcDgAHuY5Lfi+KVG1iBRIJRT49lvunuyoAn33eKHyDN+Ve6b1KMGLFVFIyNxAKCZxk9J3KfjiI16nw5teJvVKxSq2YNqfKBjGml84cSf6Zw2D+YznT5XhuwCAEQwiOdo3lyH4bdse7j5xzaeyN8/J9OdecQWCcCStpS1G0Y6MqXLRzHIrRHyB39e9RYd9vXAP4upGFKbJOZTSHUT9uITjL88Nb+pnizwQCJOmzgqfDwSAmrOqx99okqLGPf+td1ztjKYKL0DyXjplQzWGKwc8Q9vImS6b9BPAIEhrB3H4ajJroZ3WKFinaipjcqr70Re9iK83Le9279mFK3uUPaMHunvuuTeb3t///g/kZIB8fzLyV4DTN4QG4qln5bm/wo3rCqqWqfwM8Sn8KzeGgbS2AVLO+8IJ9xd5qxawpazf4V/lv2poQ2H5VLsCBJX/WbqXNL7ghv9jfunW/uK2Bx/stm3ZhovqFiBcN6x9mT8Ty1guCDrdsvUFCK4XnAhqCF2FyNja2yZbTSeiJejD1qjX+LK9YRokQrhtfRw0is0JDuBMS1hXALZK5mEIv38svMWdiHZZ85pEtn+lF2BpVnc6sMKd1n9ay4vSykUQSasobFoes2rNNWZ+JHYOx+l/6cYbIzBH2QL0pCf9QLdxw3n5OrCT1/YfdGHiUZya6tF14EI6qZy2GO0qlyYn51GwKaRD1Sg3eSZXxQanOEM8D2ldO1F8Np1QHOjh3vrJPwaUdC91NSW59cu/qi5pCr6FSBufq83VaKlkgCI6Agg889YgEL9QuGjc+AAepDVOeROcHpAKqyxpGH12o/brfu213f98x9szb3mYfiJJ8xXnnDJOmTt27qIlxsvA46gF4KawSsKxq8QeSFrcubi14u0YgFdfhcTZt4Mw5GqGvFEZWCak1IIKxrSSdW8pw5C6Q7soLimEUC2lua0Zg0c9Xby3jhFt0lkE3gMOFpW+nQOWDjD659o9E6G7QOr9+pTcoyIAmUQlS/EKmVIYK2OdKo2krjRlKXwXJo78GicBKs+AHnlWScJhi44AtfxGFD7mHg0Nfotrzy6/87IsL2VPQYggKoxSckTpwGiAa9WBfORP/7Qv2/g2fK6lTD8KZTxBS+h8064dj3Y33XQj7tQe1qqu6S78oWfmS7UOjGiRa41tTyvqlz6dK00yRaFC2rfwt1o369KeCyffWYkK7b64wIu886kSZcFAS5w4RaTSqcjJlz+0HsiENHLEN/38QT7BFbz85r5gyCKza2Qy/wstaiG6I5WhOovrMW40N7UmlwKwYpajq+vKnIaEI6oH+brX+g3ru9984xu6Vav4WA/9RLdE2Rr7SfXND2zuPv+FL+Q+Z+bQojr63FowWyBpqCvsIV6eAC/mtUJMnKEnV3wGH8Eb8ebSRCP+SIgdCXFXVirWbCYmooXyZhWPpDGd4xlJQqTPwov8iBO3wisZ404a8E9qxAJtfXALv/SNYHwsvjsxNPcGqKyVKcQBTgG+8cq9BfaXbyqed9SiLBNV4r2V99drmN4CRK8XLNL4z+SxsBBIeOZ9vPBdoqcljRBHuPTThSP8/g4A6WQTJ5lMmytpKBlEtKxZh0jO1FfFNb2M1kVzMEM8VSiwPYKr6gLy1Rzd+E1OA9jFpLWHLF38nIspi29X4nbVOaG0BJSX+uVvf8dPGE4p0qrhxGMfbDUclXVVVLWe/trSmbb6Oz0MUBWqisKrhPCi7qjFMK5aNJ5tYUg8C6Pgx1tMZLrAVg6KUqENAsQ7XTruUIS4cIKEHnoASrr0dToobqPv+vplUI7cKpdpxC9HQ9qSRTFPds+97JJuw7nn8E2XfXzAZ142FjugsxUv7itf/kr36M49lNvzkkq6d9QRVoODQbaUrr5RKl336mHKLl5w+Zz1Cf1DdmWjZFyep8liPMRBJPFKlEQ8PZgUPSm5Vj5K1uMpQpP2L8+UoIKLi41X+GrZfcM2yzkZt/586467sFrjA0sQl5RR1GYN8uVhMFIhtZQCggZBUoadOqF9IaRiddvEzEgrI8GPUbAtlPUyqQqgUBe7sRK+Iw629HH8kNC0ttenk0M2JIetmoX0obnA4mlOjwP0rcuWUlzS9UaCFz320L4Qi8EQV/MHROFcz4VzQItT33IJUtiuq3z6hc/sljCyet1nP9Pde++9HOP4pKxVnYd1Psr2q7msLDmOsSprPBSCqj1/IwQWbLVKIYvh2tSipWtKNRRWbMinmvR2cMmVLPaPAlPEQh9tfQmvcKyDrQHmEYWSv5btG99RN4wYjKuBLhKbvgyZrQg80iPgn6PDJ1hh5OHFcnPUtbcWkQUBS3+BZyKasgYG38EvpioqCbsuPC2h6170Yz8GLPY40qKOz+H7lBg1T5z4zrfvZvrovqxs2js5wfdPOOkdesbRpWtjkKfOvx6bwjguWZIpO1FQisQziFg+ldI9j7dCZMmtBgZjBAwVSApVGP01b7IP3lVdMQosH5WmhoEMhkvSl3y8coB0TCUCB1OOeVy957hs3ryZoWK+nASSMkEe+2FN8zl07dYaryYYtpQWUgWlzHqOJRUlg0IkMrKHAhFumWd1VMC4uqDRkCWlmfowel9Rus+upGmXz7ZUprQEQwmsJYwEHu0TpHxxOC2YepDDtKl3xXifVgKFy0Zp0spk61WhcGhPtiaund2xfUdoOYGrdT+03c9ujiVLF3fr15+LW3U4NHE1URvNbUJaNKW1HRbQQPe/FowiUI8yOPCIf5VPvHjSiPBPGF7hFUamXFz5NgSZlp6q2lrYwjvH54oeRzQNUkH+KZbiWoSaXiavEjTK/hMv2JzoeoV4p1WpJ2WKiMTFdY5AVv/O6SL3ah6ZYD8iX2iyr31s6mCMpEp0kA/yTtAHv+WWrzNItp2JfZQKeKlHKlb1FKEYBA0WMqa77IFqGRmlniXHTWoKV/PEMRX5cLnqGXx9+f8QzGnwt04HeKzcpUUKSaQa+Np0P/DAA7gHDB8z3GsnvoyVQiiSMhTbF2YWsYvxBSBQLFdoXpbp2LbEzmPZGW7z3OfKe33zNiolcQp1QMCQxws2Wqdfrn7RDnqKl2UOQi9xget9bwHjdpEoq1UguIMkiD4xIq9AFIQ27aILZXMnZLfqNHyTivJqmR34kj0jr/xqbrZu3dI94fueQF9ndVzVLbhVq/gA6A9d+Aw8kcP0YWoNqgLjgEnJkbQuV7PVpK/GoGo+e7aN7lBO12MgKCs7CqEeLSoBAAep7CooxCIozEwl5LlKCC8lqilQmJg2HhNDYW6kzmS0EQopVrrkw2fqGhqwyUBDDQ8iJ3Fze0KmVOD13kMzGn3plKNxUL7gA5cl6zVMTh7unvrUJ3dnn3VW7l0LqycxRb/wnns2dVsf2oaQ05qyIGA2o9fBg66VAyPODxg8s1Z4cheTyR/mzPnR0Djy6juDqbMXojUwKK4MMV64lYKfBPMoxRhnWj+9gunvK1VhonxQIHQRinzwNDjXzOoRjeaTLmOuBfzGN25j9I8lRFV6UGwEb3NdRTD7k4gaCOYgK9P3QWBxbR32BZBpUg1/uYoJIEA6C/DtbNxiq5VRMAgRa+/I2gjcBt/ffNeBl6WQth5lJISXMkcSE5UyExUceOY3SIlCf4lMGQhzEJKmxz/5MEoqpBiLVy9jDcXKlVpUPUkygVV/IieM/9yrfpZd6ed3O3fs6L797e8w/3WkexqfAShXHyGnzkVfMg1CQQ49U37VoxQOhlH5UpnCsSpUiMXwKBxRaB0209eA0MycYI1wwB/rUSO1paapXfgKFREc51I1iNIrl3W3tRNH6caNXkIESB4YTVo9CN3J9KONTABfiW3IL9iTtlxCI60HsLmyQAS4VY+uu/TSS7qFS5bhbtcSuSlkdYJVYnfceWf3wNatuK0u+sa9rgpEcbII2woSjqLQMswF/dLM0/vERAXzq2pZQ2pS0wMjLnMEo+5N21Dntg+JBY71Ior6G8RZOU5dpJTPwjWQMIpI2uIe8cQVXSqNsMb27N2bPXe6q1lJEeKoULobupLBMgrQBCRKQ0FWKpZDeLl6wOQ9PYhY3CRxa+/DBGCQuYaAIRlZ7TdLHYVJ92bo4vDCyucyjYn5y08qxk1h4LsKwdlklB+B0lKRyBbNsnzIL/cRQIS9yjWPrqCwVXoHapzcd1lTtdxat5q2KfhawRro8QM5fJ6bUdNzzj0rx/9//es3Z9P2xo3nZRWO29Wy3ScumngEGW96JuU2f8Sj0ay6CzKd9NaXuqRuWP0SPChHfL7s5AAGbic1DExXpFhZp60ytdMramuVbDGse4kuUwDWhwL8dXTQIkXXtav+inJcYWmTlk8sHdRyUKkXNtOFKbbQKDG0dEfQPD51PlujIZ95r5i6cmgRLdYhXPozzljd/cRPvpTVYXyQFno7YDXJ+tS97M7Y8sBW1qhydi0tk6xw4YLIyLkYOgES6vA0eEd9KZlVUCtJoazV0kWXy1m3LGxIFpAF7yDcwyi4xAyehWwK5TaSW8/AyfdFRtNxn0EqDai8Sh51xnylD4WbIMBzK19T2rP/IN+DZ0DBOJkHPrqokionm1nhvqk1SfD1BgSAXO/49UXrS/ra4LPxKptCbFVlCpkgFmwHRhYexwVEyJCXEvUevLojQj3TrGvVtyrl/Bb1KpwAHLeV5Lod7cqgjGWKOJfGJNugdKcdsopwiYeahzAhtLpzbo2S2XFtYKgKqTW1LuLvJZFrAMqsCumpbjEbjCdZiWPYsGF9WostW7Z2WzY/2G3k+Yw1Z2SSWnjwU/TLAME0HgM/ZYRQRCho0NEd9Q7YlCJWJlu4wElOc9MPpdmaycVx8RFQx/CsZ+qvC0b9NKJWQ/dReO5Z9ZsQZKYslMkVKnRh8qEfoJwkz3Hqqgt4XNqCqyceZMkINDsOfpTMgklLQjCltSGFKJTiA3jpG+VF/SjfdhWvO6PLGr2FfDrhEIu/L774ku6CC56Gl3GgW8JaaQ3dUVrGQywvvPuuu+iPU0dxBYjvTlDeseBF+QImTBzYLwIZxPL5jNVrSO8cLzQEGZdbKlrG1VV01iBFccBdxalTAUiYII19q0H0kojFKGOFQ0RSlohIZ3GUKlJLHeC9ckQXI+VCb/OMbeGsm0OcnOUOfzPoBqWAKEABLU2mAlQifZWUIiUBK9FNVkmDRN0XQdK6kN5fh6TT+pgW+A7AmDFZubW1ooA8i0OrZ+nzaCG+gwGkDYTgUUVnwrUJQkUFTt2auuBL7hY0NOKhexXUVBCiMvkt+XDbWutk6yEBo5TQo1rJInjqFGU5xVGDB6L0y9jb6EdQDzEvdsuttzCqt6x7xgUXdAex/rp2p9hfmF8wEI3UW2HhX9uPFxrzXqXL+aq9sAVnlMTzTm3d3I2hcjmPp3Z7rxJn2Vf75V2jZ4PrTviFCxdEUYyLNae82rOo2yksYHJppFSoGqSBltDKjbGiZD1smUxa/LN+QVzkk0+cfRfhhIcFFgEmnZ9ldyLfuj/5KU8mIwaA1mucPqTTQVP0Dzfde1+3aRODjXwj1G1gkUe2+rkdRjdRAxm8kQlPNhSwOBvWuo0KD9BjPZRlDVsMaapWspxGJ3IuFrrA4E39FQzP9GlHlQrPqlWou8iPFRoJvXQnf2iTd70RB7altBxjW1FGP/KpcKqp2eOj1ndsOo6FIyojOaX9dvJbARg7yKV109kYuWjeZnA1hlh+Ck2puiU98jj72QEgDBUK5FRQk2Vgoyk7uSvUb8BwW4xMPfPat1HQHn6fKT858FiaphzK0FJzL7HFLsc99FQJG2CsRi7Mhg6nMpRauNnvslFtbroKmf2JWjusnwvay/CcysFKzgdqvb9+K2tVOWP1hS94nkTLDgUVTMG0TczR/+AlHaSxdVE0o5pFFCtAvTUaCAnlqCT2vzISimKKu2e85IQ3uRKFlBcyXloJiL/kkw/S0NbHc3yc4zMoC7rf2uMYqiJ7KZrvA8iX0s7UlENczrjpcROOIUpsObwvMNQHWhgvboM0gHNHS21M7rpVK1bwqmTSOvlxoQNsn/rqV78e2nMEXk4fD+DQi3lFcHHs1DN7ZvOFrUlW5ShPdgcMHsOxdDnfi6GsRq/QAfjBx19gOZXitIauvHTWwGdEXWPNexsna65ytSCXWg3zy6vApu6ms+7iEtnnway+N1dcfn7HHnnkEfoXtIq4e+44ztIuy0hqf/t7E4NIO64gKyiIEzgy3TNKVsOYZJOZRf7EUjFXWaTlDcgSCNMOAg8iWMH3VBkQ5aYKq97ZOlGvWDejIlSDt332034y+BMFLCWM8qe8KlMlTVmk0dUsd9l51lJK6VELtgsHCqcELlvC8EF8YSaxMvoQw+8ev7F+w4YM0TsSK56PPLKN4fondxs3bqC13E//0c+yObVAi+bCax9EhbSaRH/5H8Wve8uof3CX/1p4WwXwIJ3lx+qDU+3dlIbwwmeI1gyI+Vwls5cxA3c9XHrJJQi3nzvXnRWQdFLhddm5NAKNpryzf+d0gcYkYwG8JwcpKlUwhGbyU5Y6COZ9eSHKjAvMK3+MGy1gWkvwMvgFNP6mTq5ycs7Udan33HNPt4hd+3GzqY98BT1ga8xoyUDdfOPMe06xJUsDE8NC3NIli7lQRniW83gof1gp6MMDqpc6lQcE4shF4ilEelkHRcVaWlSK409GqeVdAm+Jg3P9c0uvobRO8gpDq8dFCqvsNfYoBybNwyI5Oaq1OU6nS0EPSfjt+RIkggEvQmiFBAjlrsR2p4D40eaWmeYXHe/5iUvgsxgQyr+WyXnLX1tNX49Uiidd27iJEkEFFQD3Cn1sq8IWiJBNhB8niEfwzm+yVypBKTCNkBIbavusRY3xoJ5ZuwiQEipxECL4Rkgts1hpBXQld3HM5dat27qVuKmefu35Lm5wPcCnElZg9S+79FJW6hwl7ZwInq6TeyFHW3bPIbU6Uqg8EotRoVBArvRnUnPwcB+jXpoC7xWGyx9b8WHacEoY1EmBdFnZy1/x0+yWf0f3vOddmX7ZPNzC9JMw2Q6c5MOopLWlqHnUWskyS/c4CgXNEFaPDEmgxTRPUzb5qwtrADUC9ZKE8M8b4eZDOCh3a8WkoR9F0jjpZbi5+K7v3Nk9QgvuKW/yMvIEjuGGdQJk9ee5Id8B+oyeMCcutrjLOeDq7LPOjuSjWqlbwcHQSjwgiJc4Fp5BlnhgQ8MssKBcW025XRLA6wSfKn2MpnyBecKTTwlElTESBXhiAwhcIpN2bN+ePfjfHAKk8LlmEiwcUMnaOi0P6frdI+KUoPVJPweA6S+ovQQVsSkO4CBWESrzVKSNRUkttfYgCu5pbRl2n4UhcGRJRayW0KoVkhLJws1jJcrXlxkKKeksn3eyo77yFHQGf0K23qUS6mgI5qNRgUMK8UNYPMwp0wFAr2Ql6OmTYbiCg9Lg8IUVxDAoQEc5h3QHX1FyOH3Z0mXgKcNdouUhX4e7Zz/72SjDHASNYTME2S94udA8bjr1UumFp8A5J1rzoj0lLIfLM3tCeuhW0q1RKgMR+mMNVUo7drYcqooGMrSiftarjFfV7NJLL86Cal7F5awDp6UY7h8upVvJnCJB1eLWOy2mdScysiMzPH5kDkvN/L7HHBYSVB8TRQWm2JWwBwkGgcAfpHazJnoHR5ZYp5n0r1XsxcsXZzufSmUZu3btYi3qg6xe8iM7rPKBmMpCRuxwY1SlDCxRioNRfkzXT/O5sFyPTBjyZS2DZ56rk21/cZOpHdWv1URaM82VdAFfkFWCM/cbHiuvyKhyKgukpwlPC+lXAse6Svsmv3pfMzlEGaA23vnN9iqIk9U4ntWidfc3zIewETARIbOF5lJIc/VWGULYMppWVyWEEX6PnM+ml+HSLAjwU0qooKl0vq909s3CWBL6L1ZfQeLeFrDB5bEqISzu4zaAJxSMpSl3m5cjQTUN+/njey9D1dP6lsCbyDqDWoKC3Frz7GKnQN9bZiBabgvWu8dHQdQo7djJIdCz5nKy9VqMm0JyrFuMqzTJfOM5Z5+T+4N8cm+cDcfiYkviAm35kNUsKStVSyniYpGtH6chgohGhBc+lgKLp0wvOg9cSehoH92BBl1P6e1m59CUvItZT7sQN66drWodHVBxAEsswloQcBG3BwM7iJIBpSBVeE0cnMjRGElLnsgHBVT/sIxpkxfrs5s9ieedt7F7GiOnmzffFyPvkf6L+BboMVw65UjZtBV5gNFo+/Z+ryLuM4wqDjRDqbIXb1wYcYD5Xo/pYGh4IJ/nnHMWdVe+GBXxsGX1GYsWMoJv3F9JaoT4Ay9eUx9nvN+IrME9Uxjqb27908tPRYthj6UwFWkDafIGXCzcenFUI5EAP8p3Cby3tU7nH8tSCtX7uBDFyWB3JBhEUGLGZSJTJjwbakG8StXCN9dOeNW/gGAiQL7qZ0lAkaMvInDS2drlyAI+x51NzNp1QLaWOL8wyLnQfJIOXLTCWcpVkiAk3jHiSUWtvMJlP7aMi+BEVBcOBbWJgS4n4+5h+TTZrLfFliW99QzxgCmDpKuGpMUJSsGzDJdzTeFW7di5Mzicu35jd9a56+mHqiAMwUPD5cuXdatZnTPFp/dyTAV9xlrIPNqaWA4Qc9GyQUuP7HcO0SpaVuivMmKB45lAE9OnJcTiqpNF8zJ+Ch/mJgZOWvkpByEZdOfmYkjsv85kasNpjfG5LKzGvQZI5Ei90/17+OGHcu3i5DsHV0CkO8CR+w7i+IHdXRgiDYLPsIaGQAJxTx28R82QJU5541Cp173utd3f/s1fd8961rOZR9wbb2LhogWZ7FfOVBaXF3pQWmgEbulnQn+cifIqlFdlV77Ac1fxqIi64RWqjmvWrKH1nsPqHPuS0hG6kEADkZYQwsaASGBC6QA0o+KhNTpwjNFbxQWXIPKhR2frqYJm5Bo6CistqpWPdpLfASUbHzK3BuYUg20KkQZylmdQzg9nqYycSnOjkFdRaQVIT0wErw3cUBpJYTyAXZalF2gTbqDYan0oRMFNaXkjsRQUhazcTaMVounBAkHYSLIHLUnmTbCYnroQ401vKVVwiWXJGgy9kfS5iFcQDaIlk4UI4PytHJZDBuNIb5m65OFNXxXxj3ghCRkkybP4KjjSifk2LNuDjFQb/GbjS3/qp7oFHP+v4dNwudF19eqV3YMKGMybNcYqExgifQw1QAEsiwKiuMY9o1VScCSFLnkLgzvKdw7Nbgd3wUfmlAEp+CrzSYycsOWfHo4hwoigz0DgwDJCfVCB5rLFnoOiOkWzbt3a7oefeCEDKQu7+2mtvnPnt9lJPz+wfvd3fodlgN/XveGNb+wmmKCfz77OzC8jG8GB8tzZAeWiwNQCmBNxIX/koos47vIL3TJc+yUckRHZIu0+polu+8Y3GcDZjTKO07dmmoOpDmnNvD9yiMmkLvXhUeLkFyw8yjEnnqvT6ubv2evOjkcycXA7sFBElMF85SxJbOmCwej5YB7j8uhrypJeKqd8MditCi1zX+Ub4T+rSW7ecF/JyU+csgiM8FtSkAaPo/WJYi+JcpheK0oOCOWl1U2zDEYi1UZJUyBAARvhV6lK0ar44EAGLU0QA5pCJlSR8IqLACrmU2EGQSWKVak88JCgVvFDvkFIFp57wRRrQ7X+wG8EoD7iKYMNuoHejYJKPGU6qimf08EGpzr9AFjAkEoSsRRCCKXc1s8StPrZcYA7uIv++HFGqBcgtDOxxsvYUuWxEqfs86BQy1gIfYiWIZ8bB6b9nPQtyZN+KriGbtDGssXd0qpfbp0pXQPEbZhqBGl5igW2hdaldGRSl9RvVbiLfj6T6OPkW7hoXrYZlXFx7a2j6dAF27iAlmXL1ge7C57x1O4V/+UV3V+++920hI/kJO8X/egLMTDnlDJQ3lv+8I+6z3/+C9186rlq1cpuI4vhL7ro4u6aT34iBzafYrovrISmaTHEj8v+MxXLtIq0PwslX05fcQl9bDNII3do7Gei/05OLTwwweHQy9n1cmgy0yA1pcQ8bVEpCi0/ha2c6d66OdnQ6rgS/NZwcNWO7bvhFaf6scInLRgDIbWcrXC1zVM2DYqlNNbYaqfzSxmRHd5Zm7JnMgJsqCcOQOocviR/wSrukJfCZVW8KV8BAK+nFsxaAcHWwExELox3cN93AWLmIFeIqLAKP3xNyRJgIN02LgS3LBnqb9RpIDiNQNmmA2auFFHgjD9lKyu2ZgRRj26Y3SunlS+YpgM7KNUE0lo4YDQTF63OytEKC22wx6wAAEAASURBVAbXwTo2RALh9D/CdTE4RE/a3gLCAfNqPQODVI4y5rPbuMBxd2yJxBcl9yMyDtPvZtrgENMbq9es7e7m+P9NWx7snvyDT6ILQ31mHO+e9LQnd7d881vdfhaO+7lyVtAVfaGBFjvWOXVT0YEd3KWxKg+uVpYwA4sjx+IFQ3e7GThN3eThyRz1YV9VpVyxfAWDK/PAiVO5aTH27t2d9bKuETZE4VFI4TrCOYkLveHc9d1zL7mI1Sz7MvVx1UtfmgEoRzX37T/QnbnuLFr4teyiX8yRIxPdjh3lmi/DDR9nIEe8dQn9fEAG5uCNAijDZtrKQy93tBhcSL+I1Us2OogWLSC8Y77QLWf30QLPYrufrm88MmUle25Ni/GiHMtSUt0KZh/1+OQJ5lALtkZZU7mUnTNnnXUm85W3dbPATxnWk/J40QyiCaGnq3gYIpMaKWjiAceuGssAJ++gOgn6DCP5Iv6BbRrykkZTWgNm4lLBIlIM5eMhYakV/PS/qBQFtX6SwucXcqNP5hZLBJWGIwoSywEQlScFEq9CVgFqqIVCgvQNTWHBEA3F0nzoJ4vV/2nszIM8u676fmd6umdfNfsizaLNliVbsiyDbcBG2Aa7KnaMjVkSMGGLISGVSgVSqfyTqqRSRf5JpVIJFFChEgLYZkthsAWWMViypFibLcmSRrPv+0zPPtPdM/l8vufd7pYXktv9fu+9++4995xzzzn33OXdx13oqZaRHJbVA9dWXi1xmv2ABAIEQGeeAzMSqz9ui4EzRjGYILIZX5h1wN/uDG6mJd+0RYOMm1hnS9YWpGXlwmtbVwc3tPaxhOS0Qn24hLkwBfbY0WNRxgsM1Ox96cV29oc/2tauXkWL2drq9Rvbj7KY/GXeQviLz3+urUKA+Dw8O3ar0woVlSiNpHU0VWG29XKwSyzz3Mez+D9Gfdr6nTh5lCmUle193/tw9hN19cltt27NbmrjCOgZdh94hWVlf/RHf0IfyAEahcZX5xA0KqToQpFUTsID99+fl6X3HzjYHvnil+gTnma0krdPmJo5dOQIixtWxy2sVS+tbdqwPnWgERVy1Sl1oHz1vhp06XYePnw4ZaxcsSLLMsfPjreTx0+3TfBHD+Eo/cVzGDaNhnOq1rv9dUcg4Uryhk0YRu+sF0dOrTX3yzFUS2e/eF4+R+6CdrfiuM5o61yNG2ia13qP+8uNHkhN11iK5q/KShnWzSDrGTtRvpC/uPwgEw9DWBaugFbWfjL2dcHH9K/ZCg83RpfM+RstRVxUCSaBn/bK3AZk6/OreKqeQlL9ENLImBgIkAEBFSFlK6FKdxQCuOQVpsZEpTbk5AALOchKGKyHBAllsC5+qCWDOtZEoCexGRLMWy4wAkuZMsEWYhSLLDNMLeYqkUak3ONS3nKHwRlBEf+utKGVjA46DMgJJJbbytZ4ZF0rOMbFtEI5hDfKQmi3ady9a1fbvm0bn2Hng7MIxmX6R1MqI72yCZRvhP7Rx378x9sJhvcff/yxto7RzBGYInxb3BlvI9Wa1kreu+QLdoKLfBQXK9OtKi5nLvMH3vfe9qM/8sPt/je/JXCkX8G8hvDdguKsZ53mW+67D3fynWwFcpKnLdtMSqBum3WlJXeHNcMGPhxzmdb0Tz77F7zl8xIu5oK0sJbtqOf1q7jBeAFnTvHmPWHN6jXZW+kKc4QLGXn1jYsYFCvfugS6hmUZLvM3Xn4FHE7x8u9i+Abci8cxJqdobRe2c8fO0vc+BO58N5R+qf3magSski4LXPOXr2SDt295LOG7osrent17go91ohHTY9i+bWveUvIzALwpORgNjBz1bx7BVlcErlmhmdtL1fM84OR40tWdJGHCRQfaqs5sPX2qjHU8E9Gz5Ky89TDPFRe6AzgN9RBkBGjRVnA6mRAiwBkxteWRGTDAEkneJ6uTlZQKrzqI+Q4DnGdSyIMWgHWJeh8sBENlKUWlU8i0irpk7gVq2RUUPiEFINdC5JeT2/L5TJ66JCylhRFDmsCo64JQLmxBnClBGIYeE+NT6h0+SKM8zIiYOxxQYLblpyyhe0whEJdYZrhn754Mhbtv5xNPPpn5sk1MPDuQc4oXZXeyi9z2u+9pP/nTn2jjDJS8/OILbQvupAMUC/Q7oT+8tzwVFNfOvo3WP8ZAXClft/IKu8+dZLHBL/3iJ9vP/swnGFGc306cPtu+9oKvHB3JetkJdj53m8KFjJJu4GOi73rn29sDKKxh/fo1bQVb6Z85wagoYwnz+BjsJC63wZHV555/tj391a8zh4qbfd75PgdRUCoUZKEjsFB+4PChpN9Ay+hXpC4fPZ6BqclJjR24QpJ9QYVDZXIQ6CSvmJ09W2XKaxm4a9duRkIv0O/zFb+vM1J7ETd7cQ0GAeZbA/n4t15liXJrOHrsaCXlNkrC3S301TV2GkcblOzoToWGz9ybU7Gx/h0HEZRvekyvaCqIpCud8FZdSB7zKbYDDInJH/FVPhffJtgAztONs5Ltn+hOBgjZA46TlVy0+yupPqvpDZETgejjgIyFc5lg5diZ7cjEepiOpwWHa+4zIDTkCVE891YmmLpUJryuB0K34ARqIMGUHsTzPxiw4VlPkUdDnGkdktYptSAtpBlTBQWxExJsipk4krSGpDOOvL4dYVmZi8LIyC8FVEU1yU4WNhvsr9kvtAXQyCmMExicR7/6NH3H+9vd27e273nPu9n+5KV2FU/D1olfQCgE4l18dc2l0wKaZcGoiGnRR24wZ3ey/ezPfaL90i/9QlqQLz/5bPvrL3+lncQlvcTuAr71oCJkcQXdjwUo5O4Dh9pPfOzDtHyrGflcyJsNq9vhg4d5xjQHG1vbEvVw4OBBBlEu8SkDaHbKicpVwFTYCaaY5MT+/YcxQvST165L63gAWK71nBaKIC3rwF86cRWvMNCiF7FkOW9nKMmE/fSvVdBrlO+UhrLm6pwJ+oG2SjK313wyEIWKUw/II01UH2l25zmDOVRAQxbvY9TGL56DjSWJmZfF+KdFlNf5Iz3Pfbsj/IbWNMaBMvNjnHUuTQmevNb4EHw+I52VRvizg/Izb4pKd9F0LJUd4nkmgq0UbMuFwxVCBlXIMxUmfjIChSykXJVKMHltiQufZzdpraAgQxdiT4agY5HkyTOfg3zcYyJ0zzQOaR1JXP2OiCPpbEFltkIIg+V+qsG+jZD7M8gV/qzgXaxz4ryreSHfCNeltQUuQyMsDY1TAVWZZknrj9CPyTMdbp5l0EO1IStjl0UbaEibc2Inj7vP55V2++3bs5Guc3EKivO1axnk2H34VPvcV57IvON9KOV99z/QXnjm6bZ5NXOQDLxkuF5eUL5unr6QA1SSZn0rePZ9zpw+wWtH390++Qs/H54++X+ebX/2+UfbITZskn9T9COvMiDjyKoj6GDeRlmOd/bJ52jVFrSf++kfo7Xko6KMNkqLBsfW9zJ5lCmLPo1yaLBGEFqFKSurgOOAiS6gn7o7zzTEJV4AXrt4DbD4QKl8paswiRwAglx2BTzkqA0AA21MvjsCvYANpybx0uwWpu8L3uPnL+EGI8ootPWZfJFZifelrZBL+WQiqmRGGajy5AvmAl7hzckwwlpc7pW33MKrg+dpackHUI3UFK23SVzvqpTenKqGyKV0kSUeVn0HTH6EKE4Z5JFnRnCWvC7fXQ6VscKjnsnDHqznuSqP4iZAz44IaptMpjbPpK8Y1XzkJowBcASfmguTSFhWhjOAVFKFQOTFUNeq79rVUfCR11qj+tP9Fa5BhhhAkjgFJHfAilVNXvsdbpKLkAmMIIHdZU7E3/UzkKeFlonmExctqB/CdHyplqEVc8XRfkWt8pEm0osPfyHkm8qSLwcPH8wLsesRgI1MbVxCAGxDWEHRVvA6z9LRRe35F3a2PUeOtTWMur7tobfz9WCoGPjgah5bWZdYZdBCwwHc1FfwpvSY3hvtYx/9KAM0i9orO19rn/vcFxDkK/Qhr7BV5Hnm6M63K8y7+YKu31RxpPQGgn8RYX/6q8+izGelIjuwuRLI7fOdOsjCcQqT5jNM1cT9I2EWbFAnLml2ftQtGG1pnUo4OfQbdVOzfA2XPYvAxZtqcjWT3Zt0j2KcbzIyO94cuLEF95UlP2Wvl3GEwaEjR46n/2krLY4aEhXLwxbFOldOrASaAAdCwqP5LM07evhoNkZW2SKLpJK+ZQywLVlIH5V47bmDirUEESiCIpQSgTDlxHOU6YQ8tu55lEUNREcGeOBZvLKWeVZ68+iBimPhYToNRKJSBvm8g7z4ThCRFSg+08rjcmFxdOQihGqY6cxCiGsG8GqpLKge13pWbYudYlsZDwKuhjY1bz+Y3H6PrZHChjXKy6oQcB2Llz6YbgNMssWVcEcPQw7X1cd1uFy4/GMc8jKw7tLABIv8zmFgGmlTodCmwDsQ4yqcKaYzPLsrniyyXPkAYmGBApERXh44OggUKUua4jkbGePq7d9/sL3Mlhu+MXDbls2ZSrDCHPFcyjukK5l/HD8z3l7atZdh87nNtzmWMohziZZCDyEtOfQJWUWIIooLSGl5VRr7Vus3bGz3venekPsV3NN9hw6jgGd5b5J5NoT4Jq4gviXwPGPpMWA3XElCn8wPujoHaXByf94YLYQEU2bmJjPaKn+nItgKrsrkB2/cBHsSGBdZejYy13W3V9orr+00c7v77jvbikzewzP+nKx3MbwtY9x4ZMlW3aVtblUyDq7nx8/ycvaSbERlxR6nzznO4Jbb+0u7cPxDQuKFOXWmCjpF4tpZ6yo8op7EN8/VLkWXlIasZMKAOFJseo2v9XkDolOPkS9KCb9JQM54BMWUwDCfgpBGgOsYqTyxYbT7Ak5a8/CxHnTPzztXSImUotpxBg3/dCWwKR6gYwOvAghHJGuSv6xxCYFAdE8kRKwGBngmbxAdrrWgGYq38Ci87S4qiUuMpnEAy7bY5ykUsVPAZbKYeuBazYGxhrKCPOdaoh2q1u1yJX2UJ8O69h7+XwHVQchUilQe5ahM/PBPpaTlnwXDAkkTaybXNCSDSy8LkCcTQKvuErBQbgdJrjH871aNbva1hlHUK0xx+DYC2tCWMcq4FAFqjES+/Oqedo5+0/oNm9rG9ZvbRUYuFeHrWabo15Q0DEX3wPEgp7W9SGu0Y8eOuF/nWSHz8quv8o2Py5R9hWJYvsUbIRpTB1qKZhZ4+8FRFxygSH6SwEXfBifihW8rZN1mXWg8ACLB+TrramnmaN14ywQYE+TT5XabxQXMYdr3enVnKeOb731j23HnDvC7xEDN0rjtfgLcT+MtZsncLbjp4yx/8y2Whx56MH1aly5+6EMfam/FXXebyTM8d2BKlz8rtZCTiHHqCfkUWeqias8a5AGHLzsoSNLna1Q+cbbA4Ny6X1rTmCQ56eZhFLvgOl1TnFaaSYIMy3zlJK2e12Kh7NrUkyguqWk5Mj2IbKahM+LbBNHzqEA5wMDtR3hslZRD3SMgxyJ4RQIVNEphiWR2JYdLvQykTJzCyL8YzS6B/Eqo1sbQn5mSnPEFNAOxa6RFwEliTI2qVvqUjXCLk65ChyXx4ueROJWZifS0wl4LlzxaKEucIZybBOnE+DCpl74iQKrc6ceiGdjmj7UzvTRRATfyUT0UKS2x8G2psNhO1tNquFuaC64Vvq+/+PUAve9Nb6RludhOnzwBvBsIKF9QWjq/jaBwF86ca+doIRey7YSLpOV7WXrbY1y6eAsYjgG9QgzMwEmhW82aS4Mt6nnc0CsozRWURUGc4vUtjzkYAd9vyMu3MHshgxg1Qa5QFeCF4JsF2kRo2bNPDHVuMb57Kb9GF2D4wmvlwHrwy80L88lvl7E997WvtQO0zItxwz/KIoHVuKtnGLiyLhVUp3cOHjrQ9uzbSys80v7JL/9i27HtNqYzTjCiu6596O99AHd5Afy73g4fOkSDrnCqDCgUsqC8lVoZTV0A0/1nsgYZOqx3xzD8mprva/qdTI1WyXE9n49bbT32OpffDOcZFTxOnzqR0fDzF86pxpRZdY9EoYPAj1QVFpEPOAFqxPLDv42QjUjqqVg7Xb63oOfvcHiNVwINEaI8E1qlqqf8SngJ2tCJFQ1aIeTNEqtQrmmfgMM9MAIrEGScTHCFhOlBXpd0sFA1Ee8D4ySZwHsw1RLXIIFRVnaUNgnKZbAQm3q3rQgLwLuafmDBvpgBNVX1Dg3AjwEQUq+E6v/ppsxhVFRaZRCQvIC2GUriP6CICpPf17OP5BpPWy83ZnZgxFfLDHbGfdXIdxXn0Cnfs4d9U1nBsnnTZp7ezNeT1m7YQj+IzXnHwGaSFTi2ZGyyNLoeuDSztmYavVqMrmvMYf+GZ7G44OLGu77O46tYuoiG2rSYVUAopa5gxAVmVHdByhSsOqyPG7ittlq+BV/5y327xqDKyAgT+kw7HGZ64K7bd7TVjLQ62DJ/vkvZkAH4oBIY9BQusneN/bTde/e2v3jkr9o//plPtHd+10Nt8b/51+33P/2ptnPXLhYKXAn+92y7s93/lre297/3B9ob7rq77WHEdM/+PbxT+R428drCIvujjA6fagfY6d6Nvaxb6dbgjWAIlBdLtm/vckX7bobUD3wb4fkC6ucKXoOrh1rbSl7eTKLGVNbwg3qTn1MaTfIvoL99/PSF9i52pfOlgwff9rb2hS8+ytfEnm+rWKJ3hTqiYOpCGSMgJtp9S+6jsl19AO3jHNVqFp80CKk/IJhWHTCoI/Ns5CTQXLpWBk8Sm1HN3KMYNp0JZi6F0/rEQpg3MAvwkLDS+QChdmRuJrw+XVpnHtuGZUmZpBbAZBEXsI4QiWgqpewVyRBmBZXn9inFzdeVcgUY+w2W5iS5ujWJMCk4JjDeYqTb/LPNSAqe9ZPKJ48Vab8623hoYsgvP2ePcIqG83JWggpxhgXOe3fvavfQMrqqxHstst9/WLlsMaPO9J2kkRYo3QXyQExahqz3pZDAlwBqXpo1HLZUvpTrXN1p5hcvosxrUKq1rLx5EVi6gtdwd+39azDEVeX082aOBzh9cez4OF94ei/rNdeEWvtvekju9+KKl3Pnz7BZ8OEo46YNG1KXLgTJdAZnhZ6qIKjYkuC3FBe1//1nn21bUar3P/xwe+CB+9sb3/iGvMVia6fB8MOmvoIlj77y1NPt0S99kT7jufZdDz4ImoxYQ5sbcDlvaguXioKxGdmE4XEXocLpGscXZI2ttzS7sitjHSiYL3VbpqEUmIQE69ElghrcURYw3EP/1m93jJ87lZ0Y3sSCiF10L3Zs29Gee+Z5jJ1pS04CwJ8CNX0rrB6V1tkk4KzRcnS3MlSKUkiz9hzgkykClRFlo6EnE80xlWWSOU51yGgKmclcAKp9KRfQmCTUFVAyqaBqTYlXcLToqTDKiR3xbERHpC4Tk+aF6qBFKSuisGuJLKvwCMnApY1KZZICABxqQa5gAMBSptGJrbOLwDstEWqlOnlCJrRbLtcynvjwgUou0OABbVppR4pr71H1Bj7x16kxrzxwSdkCBPoEr1Lt2r2PZWkPMo+3rp1niuA6/aAltEi3bd6CwjzGipiVbT2fPLvOa0U3GWhRyaxQXfMZAkpJMEsMXjCEYRkcvpP46qu72quv7Wlvfcub2oc/+EN8yOhZBkUusXib9ydxVxeTxnfm5uNmao2vsajgwMEDbduObYzC/n0UVDW1pXHuldFRWgYFXLrOgK/BKYHFSxB2FNbWaC6umC8dZ3QZZhFLBtw9yrjAKO1//59/0I6fOte++21v5W2J9SzHuxUelQE/w+juy6/saa8xcPXEU0+xqP502793d7sfJdA4usjdHcBVJDeRcj73Zvp4nJHXSxieCdx7FzYsZnDMs5DPAcddE9bRH50/NtVOnTuZ1Tzi70d/WQSH1NzMi8enUbxFrKnVvX1l56txy//5r/5qe/f3fF/W8P77//Br9KevtkVLVpCXjY8Z+bb+lVNbWWmxzuP1cSZJDDOXyJ/MQyZwISMbNBhy8+8K8/pok8LuoQjqDtlxz+5kWOmsARQwfxFkBCSdaSC7vZ+F0fTBRJ5HSUAWYdVttoXQ2lrV5i3ERSqqV7gNrmyGfKFB2yA82zSXhmEezAwDFHqVoFpJGaGFzGgo5eqilMqaf0Y5LKRcBS2iCsVj5WYYpBGTFCkZKqOaLB5mNHhhObkZ4kkiv0ke62o+I0yaF5EtBz5aeQ6cnD55Orm3bt/W/MiQayKtps28ZKz7bEuwiH7SWVqHc2zNETx5Popy2ArLB8svo+SZP0ZFJ/m+xdiCJaH9ySefbvfe8wZ2LX9z+2dM/P+XX/8N3og4Ch5z04pOIrxnMALWxRKWnr3jXW9vv/jJTzY/OXBu/EJbyaT7fCb6/USgy93ozFImAs6rUIZlGA8/A2B/eAmt3zWmIDJdNde+OnUCvVQ21ygTb+yfZYT0U3/8p1nIcOe2bbSECDNP5cc5Rk4PsPrIAafr9mdxs4+fPM+SOgwRhuPEyeNsW3IwhkQ1T53BS43EVQbdRpgT/bGf/qm2fcf2vJ+oB6A3YQH/63/8btvHF7hXr1zerp85QdfNGmZQihaUPQiAda1913c/hFu6uP3xn/55++AHfxDaFrVNmzenBX/+ha+1j3z4I7jla/M9D7/j4ZpYRIC86bAMHhxwiSzoXiI7VUnVKIkM99WYSLmHCYZE0zmJIsBOASA4WEt3dDNDua009Tzzefopns3Bjy2KfrbyV99ft0CQAkaK48d2S4G3eZIXfbu/NJzkF5r9TpUpBIUiYiUIoZavFpZSTeKt0i9QhFPlMm0m5gdmm6oYY+rkENngpDWNG0t2cRO1TLEIUtgEqbUMi0mCxM78RAFMLMeFg3DEApoEgYcJkAsGPLe1cKWco4B+v+S5rz0bQJs338q82TEE0JdUJ1m0vJHJbrZJpCZ8X/AkfaqLjEwqkM6Hjd6kLwi9c1E8+6WdP1xQXimArrgDRV/+yuP0t25tP/je72vve+/D7TaUzC/7fuPlV9nV/ASKtLytovXdduvW9v3v+b4s/racLz32eKZeVt57b7bMcBBqzlzfPKFvBh372DTY4IhrjJr1jxcl/fLEKnF1jAvidMsgBgUgDa3vfPrNJ06cwgC58ZkbO7PnT9xKMilA5L9MS+aVSnOBJYHy3x0GbNmvMtI8fwGGGZyyKzrKOAEf5N1Xn/la+yofbHKX8SkajSvMnd7zhjvaP/z5X2j/6T/+WjvNQNHchW5eJXSMJEYWbGPoNBof4/Puz/PF43Us3Xvfu9/DIvWx9pk//HT7jd/4bxi0B9st9BOfZu5zGXOeVxkVV+7FN2dAemfjY3MkZASqZEC5hDbrqlxXSgWHnr8PGimTBYUT+efpFRqVNgfF0bWT0chBMvtuo9sWDEWLSv6mjCOjLZ2V4pYBPjFYqLLp+SbNuesS5wDQvz4SFStKWbp0LjzoFj91iVAjf8GrfgqWBNnGyhM/e+4ImETLbAm3zBp0QSjMaMKuqDKHChC+rDPdjcwhEkEwXvQVwFznXiQkJEkAZ2sPbiRQ6RXMKDj3JkkWfsTFcQ1bEBmvS3uEtzcU5kW4eQqjE+rO4dlX27B5Uz4HsJz5tccPHWpnGQhZxkCIvLmBu4aYFl1YqDL+lB8kKQQaHLnzDXn7QH/56BeZeL/UPvC+h9tdd9zO8U8zaOKqGPtqSynDrTIMrqj5m7/6QnvkLx9tP/D9vN2BMjoSK23X7WfRGixhgfuzz36t/dbv/G47gkK7AZXfp892FqZUyDxpLOSCfNaowxuNx+XxS+zLy9el4M4CFJGPu0QpHcTXzZSXl6+yiTau7eULZzHytceNSruQVtpFCmO0YDorIM4skPUzL59qP8eyu/vvua+tXrOmLV+zClij7Xd+93fajtvvah/80Efab//mb9N/XQK+Nbil4RaMOD/22FfoMmziex73hb4HOK9kG8d3vetd7VOf+VS2dPyed7y9PfLZP2/zmX66rMrh4U1OMl3EH2SWgiFHioh6A2DiuFYmFQZojsekbsikkpBcKyMeimgCAObp2qmIYWqeFIDq+5EscQAzMwh5n2HbnL32RVmfWbpw+AUjs8US4Fpawo0b9EFcDRDlxho6sICVG0WDTFfIq0JYOPo48600BxMENB1ocRC8WGeK8qzSpp83pJFJgUftgTIM9IcyVACOMCcwiQczXWmR1i209U5fVSL4LxfYMuu+xyUHUckPvknnrcF4Kkcl1d29bH+ND3z6OtW+/XtxhdaHVlezLF+1OgMOd9xxGy/rbgmeL3zj5eyEtprXiW7yrYjCMpDrBwIdrZVGuaUg+ONc6xXeX7xy5Xr70t/QBzs53u59091R9vXrV+OGucETryOdPMNw/3jbu9ephX24iodQvDntS48/2Y6fudRefO45+l8Lwo8JXGm7AM45/sFn/qgtWbYiC9jtx8UASqg81Egxma/RtlsSwWOkVjmYYrR7Ls/nohAOpsxBad1+Qj5dohV0HjVeAQK/ENf2njfeBTxb+vmsCjodA7YcJrgQZIRle7r36xgEe/gDH2wLaLkWs2/P8VNn26N//Vh2IP/4x3+iPfLII+0nf+Qj7bbtt7PoYncbZV7TapGWbO2PUusN+o7kD73//RlsuovBtWdYJ3zbrbe13/z136bP68olFiAsZ9G+tBWE/CorVC5xVLUCR4hceeawZpBo+OAT0iqI1JlP+xLLkuskMFHCvKpU7ZY9s8EfRmEEl9UFKGuaU1srO9EA1ipnSDaFWLgtRUyDxQ0Fl4Br3TN/iUC7ymbAKS1D4EBYGEW2kiu/xcASMGETbFkkKnhyIfHppQ50pDzTJXUyAA9BAFfjMlKKMQhDvFdJU9KQQaG2lYS+3of0iWXK4MDtZQWXorNMIUqRBLbEFsEN/5AceE6ZWJFL6Y9kEGfna+2uO+/Olhu+n2cL6YDSg2++h5Uqi9sBhvNf3rW7reAF2z6yLSJRugDm2oZSXCk4I7qUaauhm+iO28eOneK7kMvbCy/xpgbupStXVuOaOg1zFaVyEbetzWlaUndOk9eXrjJqefYoxuKIrkH6r/YFfZdVY+0bHPb7LzO072hpRjQp3xYyIiDxHFnBRHrrTC5lgQQJxN8pherbu0aWdwzFmQofHUNRMdLnL15paxjc2oZr7eCWH0c9fOQQ5AvJcoCAMdGtdrndo1/6G4zHuSg0QKLwz2FQfvlf/Uv6qwtIc5a3Uja0/S+9SIt+JrS7a8CchcgqcJYtXdU+/ek/br/yK/+ifeIn/0H7q0e+0L782GNZG/v2hx5qn//8I9lpf+Pmze0kq4Ayh6kO8hfXU7mGCGm0avhP8GyamaAhUj/gg4KRZ6XIlatyzGGJKS84Q6itFSHWXKYmAwLN2UYhAICjwoX5xPRm1qcGUTNdtuewM+idEs1RVmOIE3GOxfjh9qX8voWMFgNh2uq6H+cc/LyqiDwJPPMVAVG3KjHC2uM9k0+B8HIIlqw1M04FEC24mKe2nFkoT6QCmGueWFa5vNyYnnv5Hu3zeojuz6TVllweXWdQBS3Duvu2Aml1JXl+mG0rDH4mTjfPFmWMVTx37djOetTWvswrVsf49Ph6BlImeQGYN5jAoSpdXliGi+8t3bWrrh6iOCqb1ggFFcELFy5kOmNiYhVL1K6Gl6fOnodurDs4TVA3vkfoDgTuRWrrd/XqpUxzLGZQBkZl0bZL3CzbAjTKWZuJMXWqZspXqCQE4bDYkpcqP3ekJyE89ImqWDSIq62erNeIOWpPZQWmHoSLIBwVdYDHEdtTvNNoGKVM5zevQa90urrGb5csxGitumUN2/1qkFDonfsxNHhVTJnMY8XTfBYgtOs3eXl7N2+GlBvt+60Hjvs62Tk8hAvt3/67X2MrzaVtz649GDO280Cxn3rqedxbRmlpUS8wmCbHfRkZCjEpdgvki8EnxlIfnhLkQ7/2PDzAL48+GJOombxlxDFuueBhsQ1mkSavUsG0mdavChAJQaSZ5ux1EENyq+kmLpaiBIfHRuSUnyBBSWBTI1woQpCtKjM+MLHOup9VQqUvRRWueBVBSZJUKrF3HP2h97ZsCJfBaEtT2Eg8HZ88SMYMozQOYkGy/IJT3VZScSSiFjNwbZFDufJCRtt3y0dkiEf3EX5e7MWFfO213YG4jtUyzz7zNEJ3tbEgri1BaZ94/uvtq4yGLnGAA8GxAbQ/H7wQ2Lw3SpzwbVLccMqhg2wsxZV4ON8meW45Mj7u2xqkoFXTGNpC5uNG8MVVVC4Fm0AZXeW5CAVQ2S+zVC/rNO03K3Acjh/oRrpGN4vGibHfOEJ/kCbGksMfjY18qH48SOhdqZQ+F2kMQDwkDbUMlQ5kJXUifTcYDaUrE5mD8+6Y5xxi8pOuZBL+0u9bSGs+hlJdpIWcunooHs1N4t727u9td951Z/vbp57EpWVRgswA1328jjWOkZrnqiHWNhzFKO7HRXVO8jgrg06yk91y3Pj5o1ciRwuWLQRdlvhhsDQWI+Ayh7MKL756kHp1RR0oQoskWlfTy0PDGZ8pPMpwP8MnaAhd/EZsgSmMeZN0HFVA1SHMGyRPwYo/bClD6EJa3X+VloORMOeE/GpRFWphFlyhkCjlyvaKwLPSJEb49j0kIvvOxA+nPLILoUoWLzvtVJwSZzzp0+Sr+DDGtL0SvdelijQTX8RyBtnudpaAKzhmJy3wZLSY1Xtwllk4kGI6pHR+0vJStutXSQktwEZBrBwzqqhe25oUHQxeUPF+SsGW2Yn/p+h3eb98Bf05JrWfeuyJdnjfYaYpFrarCM5SFCBGAwJuos2SrmxFILiJb4DSzWFXuawjpU8mfvbhdcfmsipHnK7zCW2rw6VwLurODuCkmwtMnpoj9IRP5LXVs2IVPltup0VujjhmQFl4LcqUfBS9KBL3KmoWJQAto4Yo3BxHaKxjDnEPjyhEnodrWZdMa4OCKC8L6C9eZSDnDFv4u13IKXYf8AOztvouWOgLOyzHlwcmrl9qWzdtaXfde3e7deuOtpT3RW/dvrU9gvvqoo8VDOqcQNGYw2E+lUXzDFatWlq7FqhkF2nxrl67yQvcDJTxWtz4udPwo+TAVUXujYoeh+dWou9Vuq4X5oCvymSwHmiVvfTFdvLp2WVEGZqUIYPn7JwIf42SJ57lnxJs/1VYmqIMcjhVUa1c4sOgDoyYBAWJImNtApRL1y8qeC7X8qEFRNhNRwG9tZiDrprHIAHCtjXTEnehNX+e86ynDcQhvp4VTK+1QjNCbyJHfVWqoMLvrDAwh1M4XMaGwXgVBwaGdpPbHH2HYN6bSGH6s1S4xkUXzsoZ9SEHoAp5rsN0zq71HMO6nkfJxt2+kD6ke7+4umTrtsvZmnDKTZkYitclu+ESP0ag0ZLhACZwMtKryKg5SLiGQx46ulitkEX7hxVHcFTYUaRf4XDgYoo+pcsNhVuDUrrs5IeP/KN4lAfMwBIudZN+IfBi7FB+9CL5VdQoGvlSmZSRy9QIOHqTR+TNn3ktj24IBtC+su6PU2MaZTcuPnkM15GBLd9wceTZj8tKo296FAyMPmkFbd2/4+Hvbbfw2tlhBqV279zZ/vBzn8+Lz//op34CBTzadu871OazAdW+V3eyxpU9ge65PTi5NUj2U+UdSUdIXeZWvLQBgmdjlAGLXcWjR5IVPnAT5sRAFWl1LzKQHq5LxxQvXQdBrmeCCUxP4OxfNVimRQWtG+LYqYKhdyuE9OCRypXhAjZDF9JSKsCQ7rpCQonRbzJldBNF1c8XkVTwIOSlmEQGQ8/mBb65HXGzUoUXikSTaxEmfy9fGNOuMem8jsBIn/QINsEIGcaJnyp7yEuc0H1lx1bT/ir2FkPngAT0C8i8AyoBN/0jtlWu1rMGKsiDRZ2jK4hQ1cdVhGHlpbC4enNwE1Uu3b5Dhw9nn9T7739Ltgs8n1UkfL598Rj9E0b4Jq4wr8jXdTEItq2+qVIQC5FUoLyQx8CzGBfCVxNfPKUgMOU5eYML9Bic1lH4NRZxN22ZKCXKx5WT2f3tBBIz8i1PVGSVTh5aX8RpI6gvDUOxjFTgZKHianDlVskAz5Qh04NsXuQFb+t4xLdrbGX8ZW7LPp5zi2cYlNm2zakVWnLqKPQ5Iis/gBUl8cy4wmdY77qUT+zdsmFTO4vBe8fbHmxvZz3pCZTz9//wT0PbIqZHTrPh8p5du9rWzevajY3uBXSZep7MCLR0jGGw0nLR4gZH7vWksilXeKTI6CVAIZ+hiDEEcw2UNHtUN4k4dWCIy8XwY0qecudhDs8G69hnqR4ewaz09YYECncXZJN7HX77gMNqdG7QD2Y6kCBoQ1k+k4honbtSV4qgbcrcmqbntQDLkQk+zrUVN8R77nDN7PV3Cj7RggY6BQSGBJPHlth1hm4c7GCT1j+wBkS+Feo0hgglT7nVxVagDLW7t60WXMHCKbgqZvUdVCpxVWHYOhHh8kvRhvUM4rhm0Y+qzqNF2rJxPfd8F4Lt4UaFI3yKK/ccYaHcUMQZVkQZwwIVhDItorvquqrZWBpDE6W0RdLo4KbedHrBgSp4q+JqXDSIZMAdRgDxkFx25nOpjLHhKtc5W7dVvyqvr2ilbuCjc8dV35EQpMszrbzdDN1iy4EIvQmnKhzdlSfXGD2FoLyIvHfvXgZRFtAqXqOfzcASI6MufgC8blx6H8rZGG74dVb4rFt9S/voRz7cHmKe0Kmyz/35I+zx+ls847MJGBinfFyd89ILL2RryWu0sm7FoctpPVl21kYzbz3FO55eZwc+6bf/JsoaXevchfXSTjnTjQMUUh05bJT6NVHTIfXEXUw6ILtMm0C+yhOfzXMgxX5I9yuqI85TEsm7Clb4cKN7ZokDUCAXMKQh2+ihqraQpTwIPoSYRMuh0bAPWcgJZLqAFBNlwdJH2CSMI4piSnC0VdatLPevFFdxB2LyBxGugr1AeqBAmSfhzjVqjcIDEopLKRdl8cQyQp93RtSP3Mhfbq0kLuSPuRQU6UteHgU/2RIUiEd4xPsCS912vrazPfz972HVzRLeaj/PyKurbebxUvFmRjYv0/WALgDnbXVHCTFOTsf4qpM9lrRQFgzinTfT9JNGq+0aTOdAVLLMDztaPuAirsUZBFseS0meo4AxAtoNeIWghoUkyLYXwJpeReIDq05D7DX5xHHgIHgZZxqeayW49MfR+nhRQ/6wV4bKR+IcyXyRFTGSd+rEGVYNncp+NZNZoVOpzQplKJNTRovbzhe/0f7rkf/c3JDRFTiW5cIKHNCMys7RHSbs2buHVTRXMkXhdJN9UF1k5UGDBHGpw/DVuuSveKBRAqxyJykZATaCf2U5kcqTHgv0WlgPImsE+YSRndUVOCI1KFV/5abbJ6c/XJVvVXuU0imwMtcMIAMCgREgpNOyYunQ4lS+RYlUVtWQ076lgwrBRQkVEnl0Vby2zDq0qorY7DBLyKrQQpprKxLjVAf39jUtoyi2HKopTOMaQfHPcgwOo9uma/2mGLnjjUPQ1n0quu3L5L0/8J3wIIX7tlhVxQvSkkaj4BvrcesQYgXUEFTFj+f2x+LKcu9gju6XCueKk1fYltCwji04tP5ObIMYE9lr84Uip1d0Da1W53UpjQNrTZzxtW0ggqIQEKTOj9xKVyy6km2wVWKzZOvOlwFMDgeDZ9wr3cwIBGk1kjyTPoXCL0H5tST7dXo+4TsF6dbrAWjASzq8pqXBLbV/VQNtYgRf4J2sV7FypgSfGGIgOKtUbh6ceiKd62JPnT2TLoQ0uQqo8gikylaJUh/wCWbnpeArTM3MxZAtZy5o5UK2DLmBh8ExRj3PwRPwta6DB/a1g/v2YuSkpybxrasFLC6wBqVL95qrwJdv8vuGtBEjX1y0gpR7B4mMT+Bd6d7GhdZYASitKPVmVyN4ype47cUzE6mE3ZBanp6CPEYZrfiAJ2K44NRDhFmB4xm4E0xEAOB0ci60yBFomOTGR6VsJbxZ1W+BEFzBEgVBpXEYrDCZU2nqeR7M/rEcjyGDQ+5OqHpvH8oWKC0U90Dmh2dkcJI3+8eECcIwXiDFBAl3/kz3gyRKbdFHBeR6iKoyiAJlaZJfMhHSUk5lplgNgYA47JOYz2Vgi5iMP3KUxdEXzrMoexVD64vaoYOHsu+Lu8c5t3UNoYrlRxhVaFsvKztzoCKdSgKhbwpxGaFf2sTJoOUvNCg/CqdRNA3CwgPVQ0UIkdznbY1hQMV+YLm/wqhy5W3RZRZ5SFnERUaEBGOGogummFsvYVCEh3gDNJE/SwnJkNYct9FleheZ/B9n0bo4peUBBtKcckuA5atsEC4uPbxx33LPczSSDPqM0JKOIIe+lnYTg7dg/kg7cexE28+KI+eCLd/gmytee6eS1xU30CsdGnuNaRoZZWaW/PvcI/SZBbAZCCvLVp6CCaDTP2HLxsgQ8dIyTY9YQBPTVbpCALXVsqKtm1khHlnuBeCFP1gpWkVtRoDqWsJ0CfPZ6ChExBSXHXH1gnm7n02iIRTR5qvnVsAMsyS0K+s342UGiasiUQyKlxbf2i8GFUzn/ExLijDI5+mHw5BpQUpl+9oQI3fwQEoCmytZQhsRGOE+kOxzWnS1zAPuKbfotrTef5JPLmy4wJb60n+INaq+NOvytJWsjNm7+zVWm5xpGzasQ0GXZT5swdgyRj4VtgFHiC9+Fr9SvTKMkDRW+sAg66EqWiNXLrSKlUEHkoUPJocmQdjqCiNRGDYjs0DAtAolzFDo85xcGbYXMunEwB3h6qG4wQv+Bmjck4AQ+FxbXhaWKLAE6zbGl/N1+qlj9BUPMpl/lIX0h3ijw3LhQjwRF8KnVUwZVb4DZ/owVAR4SQ8HfziEGGCudL9p3cZo4c+zGOAwm1upxC44ERfXwaZ+ZRU4xbBSXikNNCsoKABcJL1wKYey0lXgrjjMmXKjPvLeVCEcpfLGe3loQV4H/4EZQBBvFdEy6VObyIechsxm6kHBNIWPqpBccU0lxsoOBUR6sXYKO0KXCgS5ykP+MOv1BaikKk6FGeUI3ZZJHitL4UgVQ1Wv4OQhYbCHhlgcyxPT4DLAJU29zoXxwPo6zSDxBkmvsszPjcCGkCT9nhsteSpEZg4tX/UNySte4hBGDwAGRK04aXRHbfvmbgPhl6cM69mOUevsih23ptjEC7eTpBvD/ZGGLGxHSHxbwaEL5zU9KzihM+KAoMDvDFjlbOXKFw0mXQPx8J6zf4a6RliIk78xpLKN/DFQYQz3pE23xWe5hhb45y4C2TlOeMK1jKTAUDHV5ZhBpTe/TzQKQxeCJiSf7WNaQXHOK3YYN8XAxQi6po6iHtizn+fFAxuEFMG9+EaBoS/1LN9TgjiUZ5Ule9But8u+pe+GTrG65hsvvZQVSpsYLPP7jRpfp35Co3orzylLlXZwp/hj9wqFx8OBs+GVxk1FtCZM2/nKbQiOLIowIAx5nmvhIysBbaw4zwQ+ACtg55Nw0RCcgmDleRWbkOcWm5hUrIIc7EmnIHLvnjAiRrw7NGsp9MNVBIt0Lq6sCzeiQQEz98XsCAnx4mTweSqTvOKTH4UHmOqbzLFOPBVpVgYVIEKEgX6YKR4Oj7uDWNq5XPfnSZubyuNlKayMrmLlReE7k9A4EexfHDZth1C8rJgFuKiWrZLpbr6IUBhuyR6l8xjYGc8HX7Zv38aKGjcX5mVaFCOGDXwV2PTJw0P5DE+hMQM1YOjIrQNENdpIncGstMgaO2j3OgqX/lDhFMLCPDGBjjAYAXMBR+TAeLBWsQZDWgMUwKYOYslMAjirS6imw2qRn/oa6kxFkUfhHefsIWRx+Ss5S789ra/rYMf4PiMv/A742HpFwChAfueNeSrH0V6/XiwfXASQ1l8szKfQcJ3RW57bOLj7wDEW6zvX65eVlUsNRLoR4QPeG2dHw+0v8hN6YkTgQyRKsDxPCwpcaahxhFAZHOLeW3rk0gwGMfdk3ZUshzx/cvgQNzWbw3JhBTiMzWOESyK5ggizV3qeh8FaJtIwt5FKC3KM9okwDK1ieyGxJQGgklAcsIJlCCUioSxdR7zKz5wlT2tCW6y4phIysoiAiIQsUCkd0cmghAwCfAZABnCwjgomryM/Bi0pBIlnyRwwHeAIa2GulVDFkbhExtFWXU2Dfcs8tsKAowLonAiRR7DMgoGuBdQY0aqlpcJCuwLmMitiDg4to9+YdyvDs7ydLk6rVzOogzulNU8ZrmwBpjwT9hxaEBWwW17zuMB9bgzhgLS0eYgGmU2jwKiqFUo46xr6GFyIEingQ958fNYEwFCJstIoMJWLlu9vSKY0mygc8QGtiYMRsqo8HvkCfibjebiM6+cUivHUDIbCDYz9jgbL35j/W7ZsUd4rPMeWjQaNCeYgShwbbX7LIN6y5YvuaqbagCW+rp5RYTyUUVs2v/fhy8puguW3RkTJgTyngMQtSg1OWV0Dj93QuBRHdxPMIU9eOhgGVhz+UveU6YdzsjOCDQWx6kIaH/JIcwUpBgZyW3Gde8oRDzAMpDQRfwCtFokCIUBrkgoNJFMbOEsglBR/qwAF2yKyOS3Po8ykLotaFr5KJP1AeMBN/witguV2Rexx/dxdKssLzloFggqi315lcK8AgaotZITJRAobaSw/gSILF2kCf/Eu8ur59C8JKaYMj8xX2DwKjr9iHwUOTJ4pLHksg8XNshEpWh1fKvZ1Kj8fvoyFzkt4v/AcXwLWXd28aUtauCsMOtgvVQilU/iFK+KBIfK9RKc+bD0Nse4pU8WqurMFScWHrqGeNDQRDoQYGPI6MeINkXYbfLHYkXAXRcStB1+H/21dlQ/73PGi5Dc0dqWzZU7rpPdL2rjIuJ3yAgbAP+qVNGXoq97APDjqrSxgMYZuqoNOLmJ3vWi+CAzPXJI3ARzptE4VeaosjBdef8G716f9Omk3yHsbgvmMmmrkXnzhpbxWpuFz6w4SEg/fBoDpbqQ7ULzPMknotjoL5lAwnHQFVh6EfyTwET+petN7C5uoino2JJfXQkwLaxpwNHWMmkys1D6pYKV+ayCO/ygt0gc6WAVbqaqUjFLKHCvOiVWsji1E9ZuwXliojPpRXinFtyvjW0tNjEmpFDcOdtv7UKosIhzFR3BJy22Fm6MU1GwKla5Vlekzspe2eJX7xJFR10bT8roj1ljXjJaO568PChoH/FIhc1YwvUfIVKq5uO4Re/IvYfBg567dvK60n4GuhWxJyJYODF5co3XwS8bzWRZmn0clifUHZiptUCorQD2IUmpNLWdWXSn84pjBDuiJQoKw6Ujo6qsYrwzY5Z5yUpcaWWjLMLyLBlBAhLgGb4BnCyrh5LE1Fg9dOD/+OsLidlY/pFUsAav69RoA4IDggYuHaPQ6i4vHrfDkqm9uzKOFdITcd0sdLR9h4MbpFbDhbX7SMW8to1XsCgXbOnYulo/HDGVZXeLBWeBBvrHvzsusfV3V1vOJvKu8++nL84gqOLB5FWdfBHcQj5qW06AKj5Gx8FiyCfI3BhfZcS5So6YcVeOj5hks1DZwkCn5EDOiItbTws1yCNzQvSgBi0Ab+XcEwamI3QKFQssUOhDDaC+5sCCL1EI6z1b39WxGeAbqTEqYiQ9uAVtP+E0ZCh6Wkj/dRvulEbw8lCEcptODASHNhQJRTPJBVZxPK4TdCKp5Yar5CabsQUZ15vskfZb+MGdSm0jizTgtJNyqDJSfnbcRFleCuCOck/+HDx1M7rXMN7qFxPj583zEkw+P3rI6GwJbZRMIRpQrhm2gVfcslZXCqoWzzCAtIoWOt1aNIcaWetNoGCfVIBcliQVRoBB8SdDtkt6CpxIHQIqMcg1AUzqt1lzmT+cyQHITgTUofLrlum3lIhYNlirakQMy2+JodIInkbZu1xhkWcKEvTidgUej9O1MYKvaeRzRFdFZQbmxtjOoGLnwmgRqIS6nRiAvDxC1e9cuBnTG2h237+BlaxbOo2yCE9fUF3gkIvBLdpSPMrhVaEBzKT1iEn7mUd1VquFXeOGZfAAvjJx0qxfh80CLxhdlpIJMbKZZoYP1bIA/EVVdFBc5Z+tyHgagCRzyIgjPYBkO5nRX1ftYZ4kPA2QfaZK6ziJrJZUVpY8JYyVUZmt9dM1cSO0ggJY7ZZM+gxsKk/JAOamcAIeZPHc4vT6cIm4z5VphIT1x3AyVXqmKXq97CNzucvTI6TOK7nUniEvTG7SsupZ6DH4T0N3LfB/PsJS350nIpk9n+fjNirwC5IhrtWgqnv8CLUMSuq0r+Gxs5g19SgVVKhVuFtbDpbhFQElUrRcRPLtJZyvvJ9I6C0scDY5Eaqid1Ne9k49Og6TPKiDz+qfDgLGYxM0Wo2oNwQB8UnQhRWKx8nkyUCe8p6i7bStIxelyu0566aKl+eLyOG9Z6L4iEBnLsM9mo+gm7tV/C5qUM8gYypSpjLiYVSjiHxnpLbOtru8xgkHbtGULhpG5XzyRGFjlRAMCPsqRh0JfgzlSYmQoIr1lVvleFOeHe+4qmKDqqD9XHlJ1UVDSafR6oCxIULrKl+/x4uHKiH44Oqd/7KICm219nWzVRxoLqJbS/phKogUoSJ77dVVyWeYgRBKTOWoWAYvFNxLUTZBQlVojWqWQlJhKjkBRVgjK4BBpw0SIgippSAUSmb4VeOuK6DhMUmF1IFz8+ckvh+pd5SIL5YiH9AunOOSTEiZfQJ52XYg1pK+BgkwxUJTphFBHTujRCGVEFEjXeKv+Mu8R7uMbHIYVK1YxKb2Il1j9IM7cdsdddwUXa6ZcIXtIik8pg8qR/hgVKfn59DXw/U6EA02eMwgvusIgTgjkor/KL6ydwM2fcCXSwOvCHb6rMKTnP0IpA7XkMVmsWsmAVFoaFI/VPXYZ4AjX5GG+Ubc8skOs+6myrQ0bUNnz1QAoF3YVQJr6tW5Ugrh4JND4uAOBgy/Xfc8SXqYfJy7ASR12fDlPw6MspUU5nserQZkGUn7Am2QArjqwxdeYu9WHA0Z33HEHu/EtYlDNrpSyZR1Z0+YRnnxQWeCzBsQAIjH8wIkB4b767VJoVcvDwkYjUV5U1WOQlJ+u4pEm4EJ0RoRTIAmi4lkJ0YF5nn0I3AjjZBr3ZOKVIX8pKE8KmemEiauf6At5ytUQAOLPvVbLIITALAzDGCJBGqFByfThkx7EHVkLsQpMEiGmqWTg+Ux4eRbQ+RlQNzXPKt6TCpLWXUhE6MYMjwccZJe4KUSFo2fTRHipcP9mB5+VkejxxIgPLWNo5JztG4DjfjgX+ZjqUvqQV1l1o4vmGwNb2bpxGR++6cYr9ALOshSA7m7FKyA+790hHKEbHhYbCzN0hTx6EzWKLSwXSMfz4Jm46ImAXMhQgAzFQ2mlTAA6xcKVT0hLrMpk/cs4PSKOLLoHDHfFLwERxMGQ01BO3cNfeKvCuUO7OLk9qFtIOsGP9c9rZz1vsgrcwDnL02zFyRcl9zz89USFi+kxvtDtTn2nGbk+fuJEe9M9b2x+Wv08RlCvxXWxvrAdJWIONF5cAEXSCmRRwbWEFq+q8YGvwWMg1hTymsOzuIub+Ag//BSEf1ZY4FJ3ZpeMHlL5w00qjWuVUEgZuKFQtw10GsRK6OpoFisna/UQjrySYmHkE5nCSJQEheJEmJMLTSir3rGoPCofzhLlOfhSL5gWQQLRosbPV0k5AliGcIhncM+1z8kgbhEgLuGjI5tiryD0IHamMXQmlsBBahoI0segSRdpw0hbE/CKrIofCQiZa7X1cbAJeqVZvECbF40X5dPZRw4facuX8x17hOQMX4zyHb6tW7fGfRPlfHmJPBInHhlFdc6Sa/9iHFOed2UcueBfHDhAVkObkVeUSXQ9jDM1zAq/qoJkF7K8AAAgVklEQVRkkfVXfDWFvFD5+U2+8Ac3zo2OHTmPDFBHUyjRBP1hJ+yzBSWGMYIIFgZKIr+/HlLTafJGnrBBMO97KqS6jiqwcS6Ps3XR8Ds4E8pIXyPadR8yjJtuwYnnvt46GcqCTpcvOjp7iX1a3bl848aN7VYMn7IzykhrWmxoL69KfoszvJjGG6zhp0eF4n8fQxkiv8NphnZxKx0DT8ugQvzzhikShFXmTRcCAVxrSSwoSQcBNYsscJQtH0cZBK9ifVLEU950gRFq0nm2FaugCtvKeagspXBcBa2sScTdc7dqGZI2D6b08hXCrCPF4hscus4iZy3lUNF50H8KoYzKUeNwwGH/Yq60yIgwWbz5s7LDnv6TSlKDi3EKSiWAPyphgvR7QCt/Vr6HrqH81TOwDBeHOxLqLt/jzKUpbCtZl+pucVrpVbzlvoRdAUxrn8rtI+yjZ1QPGDAspWRBBQJoC2qLCtbBO/Uof0xFct1veWPr6OIDtx1UmbIsMIIAytLFEW+BdDkDQzxVTkv05WmLL4VF3ZUbFNIRX8/SLbtcXG4+ZUdcDSV8uawfo3kGuDrDzyg3cW4leZRlaypNXFhkI0oRyyOVYENc3GeNoJTCK/nh2xgOjgSPlDSUbxpjkSWV1jf9lzJQdDuDOOKpxyHfpNP6MJfGyF8P8Q89WjL4UAF6wUnPIfySOd8SKDXph2dktQx5p+uX8RplzXjpxLxVmQFUAu+lhkgiVRgukpgLChacrDefiM0gHUA87K1Sr4QwbCDIZjqlBBkSAyPMtlDzki4VK2wOYXjUbREVDGAqBRGvNhBPNvtH0Y4hn/JgsCICg/TpqwgPmiyr8pOGayI4S6vxYCkc4sS336fPYCefMklKRsuWDz3wLPcuNpibrxWXUCHc3E/aX8PQ+ab5i7z+Y1i3dj37z1xGSC63xWzK5OGn16Q2hiG0YgBpOTWSMWqDXUvJA50Z8SNPWhW24RhjNYvcJgOxupz0dVBwWzsFITUhz3wKzc4n+g2NGJLhPlNCMjc8MJ9pvZXv8MephMiEtSLGCHYShJ3h77Tx4mkCRYbfpuNavC3TL20tX7mCjYwvYMT85HkZMNMkHafICunNH4+IB/bf81nAGElbt6Kxy1q6YdSjSiNujmqL6ZbNmzActPLwVxbVPLmKkn9SeMGCCRWOY0CDOGgdlBcCIxvimnomVw+liD43BjlyccqghMaIDyUodgQ8Dl/JcYDGwgb5Jp7cFm7lMPxrDqNi3QVCwfXKjKVIVqAFID+EQVLqJr/FfPo4/Gmtq99BbgRDzff7g4JRkQMfxDNPxHBEKY7EukYTlyUVgTJyN8UKF5VBxchKF20HCl+fBq8RMuG5EjIhCpyiqICC6Wa7zm1ZeZbPaWAQ6VTGwQBJZeFmZfDMiJRLGvhlSAXALHop3JEg0SU8KmfeaKEMR1T9br1hMa2BfaCJyWusFFmQDXqP6X0gCL5wLPNt/RTEvD8GXNNj0qlgC+jIcE1aed2tNleFa8ynfTvSpL4tuSuXvJwdihfGxBiTxRUu5KZkW+I8IAJegYOjnK7xsQ/qwqRsqWG5oGhSNxfOFhbWJX+orxTwXDnSSDFHSQvhaO5CDJEvABumaChUdFc55T3U0GXOEvyM3AcvWxnS4dZGzkghtkqm9MboqoxEZ2oBRTfcvmMHo6mLg7drVK870Qic4Cw8rhzcs64dqAnWKgnBX++rjCrf+Bhw8hoKFxAMPmJEbShPxHjEsFCnwrdq52a+DrBqqcI4wCGpwIZsVqCgAORzO7pupGusrJkJs69nYr2KgAjDZtkILarIcaMg9/ITIRgKivUhQX1ybZh09pH5hZWzOAFJilSqgdhSdlk1hNDANeUlHz/aAfYdyfC67glURYiz6zmmMiPIKhl8SYsI3dNBIgTkmRDeULYtmbjY/5GWwnFI4w1883Pefodj3/59bIp0JW9w6Oo5pbGQ/stG9nWxBYRBMVa2Zlr+tM4aSeBG6Xkuj2whqnwiuPdaAYwQWnRoxm22BUDgs6qkIw6GJTSiO8C14AFOyQMCbTnk9chKHVqxvLc5yEjempA/NpgDkwMPnjodUn06wcofkiSf/BIf33+lv4kSugNDBrkEQxqT2k1xIl4DS24fcPhMBnhdoXtxMk6eWFaek6Q7MFPMedciF76s/IY3ZG7Xhe8jrhumDDgefliOt7UrXjVU3YVVnZTX9L3Vov+voAEBZ/DNYR5xV7yAxY+N4tC3gSkSUaTrhBKPVcrqCIGYYcgcAJgZ0MZ6FP+tA4wLcQgi1xruHizDAkEjlsZ5xnztSGZbPocT3FaKFkjBr/QUSWFaZHf8sqWkiAQZE7crT20tIVYUTcCP7oc7oZVAKATQwiEJCcFVyOTl8FuHFALioYQkMEd3h0NjIV7iCpA6TCFfOCv0PYSx3GYJmcJj+qQiPWVmt26mARxG/8YrL7bjx4+1W9g6Yhk7Y+fjLW2sbbmNz427qxs5Uzb9xnxuG9zEIaV5Br7KJV8sRQHyz6F4jygqsYqwh7/56CrPUhvi7SFis0OigaSB47+Wl5nUG5PbPaAuyAsKIhn+u32/22T0vqYEqIi26pZvqLlMM1kfwlIGaIFQkiVLljOwsjmvUCWx9Y6BnZiyJbMvaAboCv7UiY1HJSROOS5Vtf6RoMjCBNU5aZOIcdSJ8MM9S5zSwNitYYFFJv8pu75vWS21Eq3TOJALHDIy+JOvWSNnNlK6m0ixkjNgIH86NtNRsy5Kz0oejOYeBkQ+wc28iliEmDuYg9WYrUWpo7KWETKQsgLErfZ+8bqObFokzhTjMYOiBc8Erc2E35KHUgVN62rczOCOaY1TGFTwsiiWX3uTIEhhjkqqMqnYDjRYqZ0h0gQWROTciw/MEoqKUiQ9CCSPqwriLr/CREd8xK14I/D8c2uuIRDn9berCEXCGo0QFxgSQweCsAh39Oy5ixlm93sQbll/ki/3wokIiZ+/rsElCxhwFAYIZdCEaOPFT7rz4xlsShSNgseJ02DYWtCq2aKhwKVYqu4MLV4bAi5XdZ26sNzwz/pO0RaV1KGdTMkvMqbjWS7hYgyhxtZWkHPmlTVU4GPLaHln2efVb11s4NNxJ08cBzaKkUXceDsk0GCmmyR4cOkyMKAZVIKOEeTVy9Mo1Bsk8A9JdyXYqtWreVtmLdfVJfAzdy5ZHMOIONoKOhgACvEbnNwzlkvJGkFlVRorKEXSHVs7XPvk28mB8T3oMYV/REhDX+RiPmRYcSaB3FN4clRCE0sUT6OEVThWzEGEdBx6EVZ2VVby6P8liLqVrVIUEppa01hRBq13zCvCksnsCEtVHFiAoExl9A8FEUYpbymrCmxVZrLbs+oDXEFbhnlTBhHlHokjz01AUHi6okRqjY90y2oCCcvt1IpZEgmAWwePIxRhok9ymE0jY8ufkTYFArwNlqWA6I7ZX7rExsavvrIzzxSK1/bsacdOHstHcFzYrEJq/CYZeXVjY8vX6CiUPahsgq+VI4VbjBy8i2Of9NajOcxnKz/0FYGX6A4MWNZx1Xs96cIlzIo38fCMK2lyQl3qdS8dnEoeJdcATLJaAYnP+47xPojkmXVoehfKL+WbJFdwGU/x8rVCW66tOOJ/hQBwQFqLYMsOwikmz0ljXCSBszKZxoazNCsDftZuGW/K2D/3u48b+QKVgzRXL/sJRMYWSGeXwBeLlSf75tLuXdxgSQJe9hcC92q8wCOhn4fb6TjilX/u4xUyuDaXT+D1lWgADH3gWm6Z82JWVo0uljLJxHzzHSJi1WQ8Qqky9j6A5ZlTNGJxSRsBgTEuuoalw/MSJtNLTPoRvqWdBci+JiNPGNhgKiALynFvdE0E5nyTnXw6eIxf8CWgQLXlqldl4gZZqQopgyQJlg9i0smTKE6QFFlixFrFNq9Md2vCKU0w+WIsYsVthU3Kj7AFOFzrMmV/GXxzyzBEOFIIgxnw0x29FQCFQq8jhod88xewYS8joxfYkOqZ55/LRkluU3+V1TlPPP44ysgHa9h13FU5egbZxj9Fi4wo1DmwgS+DM3hFfFob1HAS/l1j1YyH+8lQuDkjlEP2gsVvSQCs40FWHUFnV8g6y9PiaxQfPhmfnfCoH8cPIJA+dh3Tmy5DdzAVRWFThwtZWO68qnQZp8woSy6AcDWSvuTZ0+dYucOnBmiVlJ4bfhiWP4gAEHVC+bI8uMUwSTd1ifzY0qS1Aa/0pfHCXLM635FsWsY1tIzLsy8rO9IR1q9bm1U4vkd6g31lbTEjYbrWjEbdYC+hm45Qufws5dJ0AhvUg47GCEc8f0ys1J95wacf0hBOwKcMwoGzI8yqZ/dMB6OhxpM8XAt+M9dEJrnC5IHw2q2aEbpKH8bUZZgkE8joP8cswCQMxMAtZUjrMuS1Q+yf8mXIgBJlCj99QCxqUgSHwru7MulnpmLkUSmf+EpXxyAWTQhKVKXKr8rqf82XWRpBXMw8BK8se3bIyhoiwg8fySM8hmzYJU8hJDyLS6YDCv8QGLpcbEvPF3F54XX3rr1sSXi5bWDQxi1CPsv3FBcvXto++EMfoOXkM24uJ6M1LZ6DAzR62Oo72GEeLSyWKKiBgWjETVSAo7CU2fPrtvdrM6ReySD6XifIc+NSVvEhno1pFHholC55lkDmko3iu3xLt4GHunxpOcNPIoArurZ8iqP3wnMJ3OaNm5hfvMii+bO1ZjTAyU/LJV3KlX5a1YRlaEaqVoKfhti6BSb/FVJuxU9ev4ybekt41xuTq3oppFRxHCiTp4pveAGtaPYMnUNpM12fYEWZ4iATSACc4qMc7UG+SEPxSfghPY+lx2ArPitYAf0wWtcVJQeCRSEQJncQASbYllUVFoBOe93xS0QvXGGPFcOiuJ3BKAJGXRBHiqE1Ku7NJgAY3Gbei8GMm6xmQQzIQ4UEax7ChNx0obFYy7XgIdSlDCqLaQlmM8TKD0y0VU6YlbeUER6AvwMQdXgNn8yfH1BAJrRsGWUG+E2GyG0FtXyajxH4qLvpq1IeeVcQeL7R7xb2p0+f4ZPii/mU+Pr2Cq/4PPblv20/8vGPo6BrmY+kdWSRZ75NYv1oqShXYVcRdWe7O14clzkQGDqKUNMaIQ/KPxnqmTh5ldFR4OqmGVEyxQMfFrQ0nxloowUJ/rRoBX0og5NXOlgeGddJ7uKrvCiXv8AK2kZAnin9lu3n2NxO0YEs2xKNY0SEO6ff5KWkyIMc5OMuwq/hyIod+vo21BncIp2DkHYxfHvDoJvqtx8zlcb9Nbd3BOHruMkO+LnQQqpLD4TOY+Bk1HfgjXyIwlFOBhEVKP/TH9RQchMOKAPESyswTFSSQ4QMmg6mJ99s61+d67KmXgOBRCiSnEsVeSsi3FkAt96HMV56P4Su1BYTuyGC/LsaJH1OsHFrvAwAmZNnmTsb0hcYc/MIZpaPrlIriL4FkaqBAM5kt+LKfdYpIJH/JhY/nmfVCVojjuGLcC3WNMSmNc8VP0OQhoDgPvSSvrtBJhGWue2voWYRAOPtY+hCmNbCe4WkJH5UIvuOVuTxo+x2vW8PaUb4yOftWOb57fd+//f4jNva9s53vItBHfpPWA3f1zOIU1w74IePKEUGdawfpRCMpDfBW+/zm1qADvLTErmRr4d5TZARWa7lnmUkXVxI0idPDfzItMgaMGtqo/hrObODMKTRrRBdxqcy6hFUHxMlob4cIzBIn/3rNetW55PlKqPlX6clkJfOK4t9ys21FIm3ZQ/XxoBbcWD4lfE8Nu9i1rz6cKFf2oLX3YBdYXcB16V67/5DDnCFEvPlguQBYvmlTBqbJErRlBmckEuep+7NYhrKF4aX8qK6cUTbHxZmnvjUEINjZA8qH8lQwhzcRVhBNMO53nNEuDgHF85VoojI8gqyxX6MTBWhzFkiLFa+lsah4Tl+Ipvt0vPxGyrEgZiEDoQSLP+mw8qpTuFwDALEFcmNoFJyZW2r4DKGiAFRr6tDbroZxTOTzMsUSMe840eeoON5gC5Il4UxNRnGS22EDFpsWRXOajXof8DD9F2IU2CySoRXeEZZg+nnwmNc4IP9mFdfeRXIfCqOt89XrFjenv368+3o8aPtIb4T6MizNGZqJTjBZxGRDvJbTgQc4fYjpOmvUaYOxzzwcgF33DnrkD+zRmcDAspSP56ZQmApWd61EybPY3iQB+90Q8u6a/l1D5UJYEXB6nn4FNzETgVXnhRE8mCwPKpiireObprGz9gtZWrHlnGvc6+sdbVegoWGyLeBOHzd6yZbjDj4lcID3R/ggswILnG8EBhUsqgAMOZgayeyhA2sSa1QiF7GLXZzKuUsS/JkrmgqyxwyWxdYmq2D1DmgNOSG0Ckvwlmz1p8PTONzD0PxumTH0iOjPM0fjGSYqpKmYm2BSJX+AIl939xvBJqCwcGstICjWCzYZOeRJ56qWa50KlQKlfEw0Pk2hSLNMqekJU+9X2hNqv6mVbC5x3xqRWwxJ3FNnd/JPjIIQ5Ajrekl3wAGOQIoMd5HRRJledZD6JvrSB8MRUBd7KATqQdDTZPWeFs4rLWguZYXClgOgMhm+7V57NKmekK+myjYgriSk/mcm89In3IUYluJwtontunSe4XXeSz+5ZdfzleOHN1bjlDu43NlB9gnZ9v2bZlf1IWSTgd47D/CvMCPSwg3yoUr9tgfjiA7MAeiCpL10YVRPoiPEKSPCyBQ77JhUCyiCAi/hKpPanboIY9CqWUHf2l046moDS2KwlUDgDwhs8rkAJkpLc85a8+u5vHsi9Y+O8ZA1eqVq9jpYG2MkDCsI4QMGI6k5p97jQ83upzZiFg0ix/ZoQFcrW95GvkAh5zxwBwgkh+r+CJ0gpoifixPNI8bYYVe5M8BxK6IaYwsz/T8Uzowc5kb87j6yHgc/sRFbuSbPMgDfsifL3dzSampI3PMRYHUGXlnPQ7BCrP/IAwIgqK4M1gurW86yMK02OSpjOQaWgBYb+EcOQ+VrlLVkHDF1+gZggkYK2t6uFiFIJQv77VpSERImVxXP4E8PKsWgWvKiQ8fdvgMxMEhLhzEiIu+fFyIpIkIhYbkQxsjoMMzHySFKKT4UkLpN0ifIVjAF/FPGYmVqaQL3ghf3DxHNsEKq+1oX0ZYacV0qTLMj3C/hDL60utKBHLDho18FekSreUrfHJ8U1vBxsdnedE2HoV14UEdqTidP9a7tTmHAQxfCxOf/pcWGjwSZzzoR9DMIykhR0LBHT6V++wEt/WKK2lBPoUmV6mUcicqWeWriuPCc91NyykZALSCluoobKoOhFV17xSC8C/wzYxNvM7kpw727NqTfqQKPx9DPKqRjLAj8Bh4d4ZXcK0b9QNi+MlFlQ08HxvfBwDFp7fS9dqcWUyFJ8PovVNNoc+WEFDxNKJMScKPAf4OZYmzdM6Efp2SK1rkxNEyUG7d33CBOM/yILnCP8HLR2MTZLYEDBU2RFsm8hZB0l2UyLRcFBMhJkEqAAS952aAh3zYrNukhpChFMqL5aaWdO2KJ4VcGOtKGJUNk+IuZQHJ0PxNLaz02aJp2bnWksQdI4eleO1o5nVa1Aksp3Ne9ktUWMuU1sJZjDgCsOJlmsYBKHVwKd0KkziUtyAHSekBDlGQ0D9UjvhI88DTuDpcl90suArzJIdfDtPdmMdk88GDh2kN97F36mqEcjPWfi4faeHTcYvYbBeLfZkd49jbggwoiZ4CoBS54AAPM7+H4Gs2FLxq50hO2RZDVPD3HFcxdcvNgCcpSAV0lE0DUXcQDX9s92STweRdXjxnsQVAHfW3V6jX4NSIdZRFICiP8ivvUo/A4DLw0/KhxMq8c4t33HEn3sV8pnPGg2MJuwUqIzUFZhuUl3NpDA0aGluN+loXZZDcOhRmWqS4lXAfhc4YCPGLFtJ3JFQLfhNDwAJ9BnHqkw3iae7ZYSAeuNV1g6fQqNya0jP/CfaJXcnln56FBxzIGzPi0Ca4myQ+Ml55CueChbyYsTNZsGSwAJnqwZ+FSkwNHGhlcSWxwiqvoQtdbr7pJ9ZQ5FMJRZjCqYgmXxAfyKGgVIJUGTj1V1SiOFajj6hRBUTlm8aV6y6cDltnu0b5AXP9Cq1uad6Glyc8105FTQYaLbcOBVojAM4oou6rgq8QyfnQ0dOKD9fpT/mcEGEVqR76pTw1bvixdXLEzw/NXmA7+xe+/gKDHWPZIW7ZspWsWz0UQ7YB5fRDnQ58ZW0mhCswLra3b2WcPQI2cYcnhU/WTOK+Oa/n+4E1YCQChb99oxgocemaxmU2oAqhUEz8GLi50qq3aKJfPCpZ0PuYoJ+alhAuyX/dQr0FVdoWLEXwY8ukC5+yNcIFLPzTPfdF30t8dcrRVF1xvQlfLnexvHyqitfMpFIoowyP1rIGGCmXcvJtEM5ph6jzMpymxUDgFi8f3FSNoi3cVUdR3SQ6jYaynBZK7IJ89EO+QVuMSgSPe+JUpKHaSVxXpjNj6Y+Gma4efIweWT8891QBmNyUAZBfAI0AkVxGO/VQB8pma9LzpSIH1yXul60ZiCNUnm0tHTXz3OMsdLpc4AgtlRmYld84W62khFDTa5xicWJZySMeHKqP7p1/WcWfbAq1AL3hEB/+XKuqNeqEpxzi42YpOMArt6xgWwniUPyQSfZXSEd5GbQBoSxCB6Al+P/NwTIAAJiiugS3eOZopW6/C5U1FjFjlGHLfYnF4o8/8URWoeiuuUnVK7ipl+nnPPjAA6kwwYqfb+r7eTcHarTAY7SY7ksUoaFY68y+mC6jrVMpm5yjPoEgDaPwqF6lKmGpJ9VHDC+RMgcs4pYBItQUAiEt9Uqkb9xolE1hCVaaVTHq/Cc4mV9+1wDSUH/hkfUiX3x7hUXa4LxyhV8rPk1LdQncUUYMaKYkkDUFQuNRXRO9JhRQGjis7yhGsOy1zBn4hTf1FY+P1htcXZeaIF3wYoJW0Reb/TARpeSRrXYZf9KkLoHViRb/IUh5b2zCmNDWn3oWhyEvdZEd76B1BoJp4DW8NW6eWukRdy41YUWoYPIAZMHPhCIzwZFrQdB6lRKbDqsjY0KM+e17KthUP/ljlYIEq1KAURVHtQHMO75SHeaaz1YsH1FljxUl1pUkqsUosNxAttgVEqkEl5xVxzvLqhAAB43ES95xQYsCbowYuMwJRJM/uEo3AzrSEzx8hnLEvZBm8sYN4qGfaVNZrbze34K8hM4Pb4QuW7MSSPcJQaxEKjf8UljJYIc9b4QgJFpGhdrvB/ol4y2bt7BEa0P728cea8eOn2zuMi4czAuGLlaHawWxFMG8tDmUaaUrHN7TmvjHvfVmy2JdjugecZ91xfBKanVCHB0unkm4hBFhPq7Et0dVPUqRGCgjYEW5gAeDcE4m0AKhIKQRgpgYXP9p/lJeX1diiR9dCVvD+QvG2sYtG3il7CDfa3RZmvUmRIIDUQbqJ+IEOLkgr4VcA2rWjTIorT4VL3DUIMO7bAKGK6xb7eofgEaBldFrtNaQCGx4xEDPDVbgQBb1TBrwDR3gIkU2EPJF+IZQxr0GJzMBZIQbCDG5BDIEr70b1XCRKSD6Q85iDLqU8bpApgiQAzgqKAjkrxJZsQqPIZU8XPeKtO+iNeudZVOaX1RMWu4MZ1qIYhgKJrAB7zTXIusfcNKnpKJrR2sSFcC6R0rS2oCn+cyTBIFV1zIzjOUny9HEH5pM7+HW8fYV/GhpOtigFZLkATXfGVqwiZJj3xSkJPNwlbGecp2008nrwsqsahFT0hAhjm43f5YRxTNnT+fl2u3bt+dF46eefLLde889+VqV61THUF4VJ4MlLATQvuhLBzokexZe3hflOrTqEsqOaFQJziBVEWj5o2JnLjCASOqZw3PqWWwDxDiNbQm5gOWjRlRzUVxHdlB8omN4U+eR4sJBmLIxxomo63mFbGkWPJzHXbc+RlAYW+tpY0a6qjNKGOgMgpRfyqexLFFOnckDjGHqLTQwbYM7PTp/MZtQ8e6ohpK/wOTafnKMOUiDeXCjSAKZB7o0XNZ1xeVi1o+Ui9pwDq/rcbm3ylvNg3ec6mnlktGWxBhIabEDLRktC1EC5fAZVzmGStAN7cG8xaQSbhPKHBlBjNIQGCpWJjxVDmFqtbA8uUbwbaYNIq6PX68tUSHgVO4SLhTg4m4EP5DnHCyB57pVt5XQbXGrjoLWsayzFasAyAxEjzRUADDRzZwplScDHqYT15hiEXs9LO9MGUEVMXDwqJFV7nlaAwSm7MHn4Yq8D0iVJjiR1+80vvTSS1GKW2+9lReOF/FGx/F22223Msq6nG9EMB8G76WjFjyEevhP6wNcOe5h39h+5NSwJtOmT0F1YnuUec4R5qpsRVUYMofnIiQcIXYD5Ln+itaiTxrqsBpymI6jroVRz9NvFz74KBPJB0SNvEVbr/ZpnapYuGAhNExlZ3X5poubBQEItdwMXsiMA3rYe9GGF7Z4LLambHEzBGfgSq+toHVUo8/KpF8qHsmkv3y3DKc7Llzk83MkVAYFE/7CY01LyhUGd3oIVUqlFbbBOA1O8PCeCPFTL6Q5lifxpSuW1dMKw8PWnYT8DaFo6kzjkczCQsWlGVqEEJvslalXTAq1XI7pKrRylXQIr1jzJEGYJdG2KMSIXT0rTPkty6tBtc9mPitQ2mRSdbLNSCCNrIvSUgmFYz3Kbwrgysw5SC+zrWXJp+xijpVhgdMqmeyxAnX1ul/BZohbzoeKXpDJLMvzTAiPvKUIy0vlc62w+I7j5WuX29PPPBPerGPxsguaTzDx73I3v1B1afik3ACgwEsHdVNFWaY8pw6H1p8LCoQe+JKWQ42R1/A0nCc9qRH82kE8sEWwH1yKp8KSsYAYA/gVeNJQcAVZ9FFWkLEMiR2Cz6lAxcgqyKbW8M3tPhFFpnC2tGUsdlAxXKit8mpaChT0CYtCLMdIYfhshqc+qFC81SgTl+hqAb0cy2ogXyK2bAbOLp3PbnFT9MXmsfhkHi5xjfIim5QgZy0jo/doo38alzQsvUDOwSX3wxWn7i2ZP2ME8Ezvw8Th/ZA/+A55/y/gJFAka+xpFQAAAABJRU5ErkJggg==",
    "activeThemeId" : "e59eeb42-ccf0-4a36-bdf9-e630fdab686d",
    "audiateSessionId" : "",
    "firstMedia" : true,
    "hasNotifiedAboutHFRMedia" : false,
    "projectDuration" : "02:35"
  }
}
