{
  "title" : "",
  "description" : "",
  "author" : "",
  "targetLoudness" : -18.0,
  "shouldApplyLoudnessNormalization" : true,
  "videoFormatFrameRate" : 30,
  "audioFormatSampleRate" : 44100,
  "width" : 400.0,
  "height" : 475.0,
  "version" : "5.0",
  "editRate" : 30,
  "authoringClientName" :  {
    "name" : "Camtasia",
    "platform" : "Mac",
    "version" : "2021.0.12"
  },
  "sourceBin" : [
    {
      "id" : 1,
      "src" : "./media/1666129177.334328/05 - Tactics and Tools - Case Study 2.mp4",
      "rect" : [0, 0, 1920, 1080],
      "lastMod" : "20221010T212759",
      "loudnessNormalization" : true,
      "sourceTracks" : [
        {
          "range" : [0, 7532280],
          "type" : 0,
          "editRate" : 44100,
          "trackRect" : [0, 0, 1920, 1080],
          "sampleRate" : 30,
          "bitDepth" : 0,
          "numChannels" : 0,
          "integratedLUFS" : 100.0,
          "peakLevel" : -1.0,
          "metaData" : ""
        },
        {
          "range" : [0, 7532280],
          "type" : 2,
          "editRate" : 44100,
          "trackRect" : [0, 0, 0, 0],
          "sampleRate" : 44100,
          "bitDepth" : 0,
          "numChannels" : 2,
          "integratedLUFS" : -18.0604059172363,
          "peakLevel" : 0.976219594478607,
          "metaData" : ""
        }
      ],
      "metadata" : {
        "timeAdded" : "20221018T212737.114396"
      }
    }
  ],
  "timeline" : {
    "id" : 2,
    "sceneTrack" : {
      "scenes" : [
        {
          "csml" : {
            "tracks" : [
              {
                "trackIndex" : 0,
                "medias" : [
                  {
                    "id" : 3,
                    "_type" : "StitchedMedia",
                    "minMediaStart" : 0,
                    "attributes" : {
                      "ident" : "05 - Tactics and Tools - Case Study 2",
                      "gain" : 1.0,
                      "mixToMono" : false,
                      "loudnessNormalization" : true,
                      "sourceFileOffset" : 0
                    },
                    "parameters" : {
                      "translation0" : 63.0,
                      "translation1" : 42.9076554026722,
                      "scale0" : 0.808042161239505,
                      "scale1" : 0.808042161239505,
                      "sourceCrop0" : 0.0,
                      "sourceCrop1" : 0.0,
                      "sourceCrop2" : 0.0,
                      "sourceCrop3" : 0.0,
                      "geometryCrop0" : 0.0,
                      "geometryCrop1" : 0.0,
                      "geometryCrop2" : 0.0,
                      "geometryCrop3" : 0.0,
                      "cursorOpacity" : 1.0,
                      "cursorScale" : 1.0
                    },
                    "medias" : [
                        {
                          "id" : 4,
                          "_type" : "VMFile",
                          "src" : 1,
                          "trackNumber" : 0,
                          "attributes" : {
                            "ident" : "05 - Tactics and Tools - Case Study 2"
                          },
                          "parameters" : {
                            "sourceCrop0" : {
                              "type" : "double",
                              "defaultValue" : 0.0,
                              "interp" : "eioe"
                            },
                            "sourceCrop1" : {
                              "type" : "double",
                              "defaultValue" : 0.0,
                              "interp" : "eioe"
                            },
                            "sourceCrop2" : {
                              "type" : "double",
                              "defaultValue" : 0.0,
                              "interp" : "eioe"
                            },
                            "sourceCrop3" : {
                              "type" : "double",
                              "defaultValue" : 0.0,
                              "interp" : "eioe"
                            },
                            "geometryCrop0" : {
                              "type" : "double",
                              "defaultValue" : 0.0,
                              "interp" : "eioe"
                            },
                            "geometryCrop1" : {
                              "type" : "double",
                              "defaultValue" : 0.0,
                              "interp" : "eioe"
                            },
                            "geometryCrop2" : {
                              "type" : "double",
                              "defaultValue" : 0.0,
                              "interp" : "eioe"
                            },
                            "geometryCrop3" : {
                              "type" : "double",
                              "defaultValue" : 0.0,
                              "interp" : "eioe"
                            }
                          },
                          "effects" : [

                          ],
                          "start" : 0,
                          "duration" : 3851,
                          "mediaStart" : 0,
                          "mediaDuration" : 3851,
                          "scalar" : 1,
                          "animationTracks" : {

                          }
                        },
                        {
                          "id" : 5,
                          "_type" : "VMFile",
                          "src" : 1,
                          "trackNumber" : 0,
                          "attributes" : {
                            "ident" : "05 - Tactics and Tools - Case Study 2"
                          },
                          "parameters" : {
                            "sourceCrop0" : {
                              "type" : "double",
                              "defaultValue" : 0.0,
                              "interp" : "eioe"
                            },
                            "sourceCrop1" : {
                              "type" : "double",
                              "defaultValue" : 0.0,
                              "interp" : "eioe"
                            },
                            "sourceCrop2" : {
                              "type" : "double",
                              "defaultValue" : 0.0,
                              "interp" : "eioe"
                            },
                            "sourceCrop3" : {
                              "type" : "double",
                              "defaultValue" : 0.0,
                              "interp" : "eioe"
                            },
                            "geometryCrop0" : {
                              "type" : "double",
                              "defaultValue" : 0.0,
                              "interp" : "eioe"
                            },
                            "geometryCrop1" : {
                              "type" : "double",
                              "defaultValue" : 0.0,
                              "interp" : "eioe"
                            },
                            "geometryCrop2" : {
                              "type" : "double",
                              "defaultValue" : 0.0,
                              "interp" : "eioe"
                            },
                            "geometryCrop3" : {
                              "type" : "double",
                              "defaultValue" : 0.0,
                              "interp" : "eioe"
                            }
                          },
                          "effects" : [

                          ],
                          "start" : 3851,
                          "duration" : 1266,
                          "mediaStart" : 3858,
                          "mediaDuration" : 1266,
                          "scalar" : 1,
                          "animationTracks" : {

                          }
                        }
                    ],
                    "effects" : [

                    ],
                    "start" : 0,
                    "duration" : 3026,
                    "mediaStart" : 92,
                    "mediaDuration" : 3026,
                    "scalar" : 1,
                    "metadata" : {
                      "clipSpeedAttribute" : false,
                      "effectApplied" : "none",
                      "lockAspectRatio" : true
                    },
                    "animationTracks" : {

                    }
                  },
                  {
                    "id" : 6,
                    "_type" : "StitchedMedia",
                    "minMediaStart" : 0,
                    "attributes" : {
                      "ident" : "05 - Tactics and Tools - Case Study 2",
                      "gain" : 1.0,
                      "mixToMono" : false,
                      "loudnessNormalization" : true,
                      "sourceFileOffset" : 0
                    },
                    "parameters" : {
                      "translation0" : {
                        "type" : "double",
                        "defaultValue" : 63.0,
                        "interp" : "eioe"
                      },
                      "translation1" : {
                        "type" : "double",
                        "defaultValue" : 42.9076554026722,
                        "interp" : "eioe"
                      },
                      "scale0" : {
                        "type" : "double",
                        "defaultValue" : 0.808042161239505,
                        "interp" : "eioe"
                      },
                      "scale1" : {
                        "type" : "double",
                        "defaultValue" : 0.808042161239505,
                        "interp" : "eioe"
                      },
                      "sourceCrop0" : {
                        "type" : "double",
                        "defaultValue" : 0.0,
                        "interp" : "eioe"
                      },
                      "sourceCrop1" : {
                        "type" : "double",
                        "defaultValue" : 0.0,
                        "interp" : "eioe"
                      },
                      "sourceCrop2" : {
                        "type" : "double",
                        "defaultValue" : 0.0,
                        "interp" : "eioe"
                      },
                      "sourceCrop3" : {
                        "type" : "double",
                        "defaultValue" : 0.0,
                        "interp" : "eioe"
                      },
                      "geometryCrop0" : {
                        "type" : "double",
                        "defaultValue" : 0.0,
                        "interp" : "eioe"
                      },
                      "geometryCrop1" : {
                        "type" : "double",
                        "defaultValue" : 0.0,
                        "interp" : "eioe"
                      },
                      "geometryCrop2" : {
                        "type" : "double",
                        "defaultValue" : 0.0,
                        "interp" : "eioe"
                      },
                      "geometryCrop3" : {
                        "type" : "double",
                        "defaultValue" : 0.0,
                        "interp" : "eioe"
                      },
                      "cursorOpacity" : {
                        "type" : "double",
                        "defaultValue" : 1.0,
                        "interp" : "linr"
                      },
                      "cursorScale" : {
                        "type" : "double",
                        "defaultValue" : 1.0,
                        "interp" : "linr"
                      }
                    },
                    "medias" : [
                        {
                          "id" : 7,
                          "_type" : "VMFile",
                          "src" : 1,
                          "trackNumber" : 0,
                          "attributes" : {
                            "ident" : "05 - Tactics and Tools - Case Study 2"
                          },
                          "parameters" : {
                            "sourceCrop0" : {
                              "type" : "double",
                              "defaultValue" : 0.0,
                              "interp" : "eioe"
                            },
                            "sourceCrop1" : {
                              "type" : "double",
                              "defaultValue" : 0.0,
                              "interp" : "eioe"
                            },
                            "sourceCrop2" : {
                              "type" : "double",
                              "defaultValue" : 0.0,
                              "interp" : "eioe"
                            },
                            "sourceCrop3" : {
                              "type" : "double",
                              "defaultValue" : 0.0,
                              "interp" : "eioe"
                            },
                            "geometryCrop0" : {
                              "type" : "double",
                              "defaultValue" : 0.0,
                              "interp" : "eioe"
                            },
                            "geometryCrop1" : {
                              "type" : "double",
                              "defaultValue" : 0.0,
                              "interp" : "eioe"
                            },
                            "geometryCrop2" : {
                              "type" : "double",
                              "defaultValue" : 0.0,
                              "interp" : "eioe"
                            },
                            "geometryCrop3" : {
                              "type" : "double",
                              "defaultValue" : 0.0,
                              "interp" : "eioe"
                            }
                          },
                          "effects" : [

                          ],
                          "start" : 0,
                          "duration" : 3851,
                          "mediaStart" : 0,
                          "mediaDuration" : 3851,
                          "scalar" : 1,
                          "animationTracks" : {

                          }
                        },
                        {
                          "id" : 8,
                          "_type" : "VMFile",
                          "src" : 1,
                          "trackNumber" : 0,
                          "attributes" : {
                            "ident" : "05 - Tactics and Tools - Case Study 2"
                          },
                          "parameters" : {
                            "sourceCrop0" : {
                              "type" : "double",
                              "defaultValue" : 0.0,
                              "interp" : "eioe"
                            },
                            "sourceCrop1" : {
                              "type" : "double",
                              "defaultValue" : 0.0,
                              "interp" : "eioe"
                            },
                            "sourceCrop2" : {
                              "type" : "double",
                              "defaultValue" : 0.0,
                              "interp" : "eioe"
                            },
                            "sourceCrop3" : {
                              "type" : "double",
                              "defaultValue" : 0.0,
                              "interp" : "eioe"
                            },
                            "geometryCrop0" : {
                              "type" : "double",
                              "defaultValue" : 0.0,
                              "interp" : "eioe"
                            },
                            "geometryCrop1" : {
                              "type" : "double",
                              "defaultValue" : 0.0,
                              "interp" : "eioe"
                            },
                            "geometryCrop2" : {
                              "type" : "double",
                              "defaultValue" : 0.0,
                              "interp" : "eioe"
                            },
                            "geometryCrop3" : {
                              "type" : "double",
                              "defaultValue" : 0.0,
                              "interp" : "eioe"
                            }
                          },
                          "effects" : [

                          ],
                          "start" : 3851,
                          "duration" : 1266,
                          "mediaStart" : 3858,
                          "mediaDuration" : 1266,
                          "scalar" : 1,
                          "animationTracks" : {

                          }
                        }
                    ],
                    "effects" : [

                    ],
                    "start" : 3026,
                    "duration" : 17,
                    "mediaStart" : 3118,
                    "mediaDuration" : 42,
                    "scalar" : "17/42",
                    "metadata" : {
                      "clipSpeedAttribute" : true,
                      "effectApplied" : "Clip Speed",
                      "lockAspectRatio" : true
                    },
                    "animationTracks" : {

                    }
                  },
                  {
                    "id" : 9,
                    "_type" : "StitchedMedia",
                    "minMediaStart" : 0,
                    "attributes" : {
                      "ident" : "05 - Tactics and Tools - Case Study 2",
                      "gain" : 1.0,
                      "mixToMono" : false,
                      "loudnessNormalization" : true,
                      "sourceFileOffset" : 0
                    },
                    "parameters" : {
                      "translation0" : {
                        "type" : "double",
                        "defaultValue" : 63.0,
                        "interp" : "eioe"
                      },
                      "translation1" : {
                        "type" : "double",
                        "defaultValue" : 42.9076554026722,
                        "interp" : "eioe"
                      },
                      "scale0" : {
                        "type" : "double",
                        "defaultValue" : 0.808042161239505,
                        "interp" : "eioe"
                      },
                      "scale1" : {
                        "type" : "double",
                        "defaultValue" : 0.808042161239505,
                        "interp" : "eioe"
                      },
                      "sourceCrop0" : {
                        "type" : "double",
                        "defaultValue" : 0.0,
                        "interp" : "eioe"
                      },
                      "sourceCrop1" : {
                        "type" : "double",
                        "defaultValue" : 0.0,
                        "interp" : "eioe"
                      },
                      "sourceCrop2" : {
                        "type" : "double",
                        "defaultValue" : 0.0,
                        "interp" : "eioe"
                      },
                      "sourceCrop3" : {
                        "type" : "double",
                        "defaultValue" : 0.0,
                        "interp" : "eioe"
                      },
                      "geometryCrop0" : {
                        "type" : "double",
                        "defaultValue" : 0.0,
                        "interp" : "eioe"
                      },
                      "geometryCrop1" : {
                        "type" : "double",
                        "defaultValue" : 0.0,
                        "interp" : "eioe"
                      },
                      "geometryCrop2" : {
                        "type" : "double",
                        "defaultValue" : 0.0,
                        "interp" : "eioe"
                      },
                      "geometryCrop3" : {
                        "type" : "double",
                        "defaultValue" : 0.0,
                        "interp" : "eioe"
                      },
                      "cursorOpacity" : {
                        "type" : "double",
                        "defaultValue" : 1.0,
                        "interp" : "linr"
                      },
                      "cursorScale" : {
                        "type" : "double",
                        "defaultValue" : 1.0,
                        "interp" : "linr"
                      }
                    },
                    "medias" : [
                        {
                          "id" : 10,
                          "_type" : "VMFile",
                          "src" : 1,
                          "trackNumber" : 0,
                          "attributes" : {
                            "ident" : "05 - Tactics and Tools - Case Study 2"
                          },
                          "parameters" : {
                            "sourceCrop0" : {
                              "type" : "double",
                              "defaultValue" : 0.0,
                              "interp" : "eioe"
                            },
                            "sourceCrop1" : {
                              "type" : "double",
                              "defaultValue" : 0.0,
                              "interp" : "eioe"
                            },
                            "sourceCrop2" : {
                              "type" : "double",
                              "defaultValue" : 0.0,
                              "interp" : "eioe"
                            },
                            "sourceCrop3" : {
                              "type" : "double",
                              "defaultValue" : 0.0,
                              "interp" : "eioe"
                            },
                            "geometryCrop0" : {
                              "type" : "double",
                              "defaultValue" : 0.0,
                              "interp" : "eioe"
                            },
                            "geometryCrop1" : {
                              "type" : "double",
                              "defaultValue" : 0.0,
                              "interp" : "eioe"
                            },
                            "geometryCrop2" : {
                              "type" : "double",
                              "defaultValue" : 0.0,
                              "interp" : "eioe"
                            },
                            "geometryCrop3" : {
                              "type" : "double",
                              "defaultValue" : 0.0,
                              "interp" : "eioe"
                            }
                          },
                          "effects" : [

                          ],
                          "start" : 0,
                          "duration" : 3851,
                          "mediaStart" : 0,
                          "mediaDuration" : 3851,
                          "scalar" : 1,
                          "animationTracks" : {

                          }
                        },
                        {
                          "id" : 11,
                          "_type" : "VMFile",
                          "src" : 1,
                          "trackNumber" : 0,
                          "attributes" : {
                            "ident" : "05 - Tactics and Tools - Case Study 2"
                          },
                          "parameters" : {
                            "sourceCrop0" : {
                              "type" : "double",
                              "defaultValue" : 0.0,
                              "interp" : "eioe"
                            },
                            "sourceCrop1" : {
                              "type" : "double",
                              "defaultValue" : 0.0,
                              "interp" : "eioe"
                            },
                            "sourceCrop2" : {
                              "type" : "double",
                              "defaultValue" : 0.0,
                              "interp" : "eioe"
                            },
                            "sourceCrop3" : {
                              "type" : "double",
                              "defaultValue" : 0.0,
                              "interp" : "eioe"
                            },
                            "geometryCrop0" : {
                              "type" : "double",
                              "defaultValue" : 0.0,
                              "interp" : "eioe"
                            },
                            "geometryCrop1" : {
                              "type" : "double",
                              "defaultValue" : 0.0,
                              "interp" : "eioe"
                            },
                            "geometryCrop2" : {
                              "type" : "double",
                              "defaultValue" : 0.0,
                              "interp" : "eioe"
                            },
                            "geometryCrop3" : {
                              "type" : "double",
                              "defaultValue" : 0.0,
                              "interp" : "eioe"
                            }
                          },
                          "effects" : [

                          ],
                          "start" : 3851,
                          "duration" : 1266,
                          "mediaStart" : 3858,
                          "mediaDuration" : 1266,
                          "scalar" : 1,
                          "animationTracks" : {

                          }
                        }
                    ],
                    "effects" : [

                    ],
                    "start" : 3043,
                    "duration" : 1559,
                    "mediaStart" : 3160,
                    "mediaDuration" : 1559,
                    "scalar" : 1,
                    "metadata" : {
                      "clipSpeedAttribute" : false,
                      "effectApplied" : "none",
                      "lockAspectRatio" : true
                    },
                    "animationTracks" : {

                    }
                  }
                ]
              },
              {
                "trackIndex" : 1,
                "medias" : [
                  {
                    "id" : 12,
                    "_type" : "StitchedMedia",
                    "minMediaStart" : 0,
                    "attributes" : {
                      "ident" : "05 - Tactics and Tools - Case Study 2",
                      "gain" : 1.0,
                      "mixToMono" : false,
                      "loudnessNormalization" : true,
                      "sourceFileOffset" : 0
                    },
                    "parameters" : {
                      "volume" : {
                        "type" : "double",
                        "keyframes" : [
                          {
                            "endTime" : 0,
                            "time" : 0,
                            "value" : 1.0,
                            "duration" : 0
                          },
                          {
                            "endTime" : 92,
                            "time" : 92,
                            "value" : 1.0,
                            "duration" : 0
                          }
                        ]
                      },
                      "cursorOpacity" : {
                        "type" : "double",
                        "defaultValue" : 1.0,
                        "interp" : "linr"
                      },
                      "cursorScale" : {
                        "type" : "double",
                        "defaultValue" : 1.0,
                        "interp" : "linr"
                      }
                    },
                    "medias" : [
                        {
                          "id" : 13,
                          "_type" : "AMFile",
                          "src" : 1,
                          "trackNumber" : 1,
                          "attributes" : {
                            "ident" : "",
                            "gain" : 1.0,
                            "mixToMono" : false,
                            "loudnessNormalization" : true,
                            "sourceFileOffset" : 0
                          },
                            "channelNumber" : "0,1",
                          "effects" : [

                          ],
                          "start" : 0,
                          "duration" : 3851,
                          "mediaStart" : 0,
                          "mediaDuration" : 3851,
                          "scalar" : 1,
                          "animationTracks" : {

                          }
                        },
                        {
                          "id" : 14,
                          "_type" : "AMFile",
                          "src" : 1,
                          "trackNumber" : 1,
                          "attributes" : {
                            "ident" : "",
                            "gain" : 1.0,
                            "mixToMono" : false,
                            "loudnessNormalization" : true,
                            "sourceFileOffset" : 0
                          },
                            "channelNumber" : "0,1",
                          "effects" : [

                          ],
                          "start" : 3851,
                          "duration" : 1266,
                          "mediaStart" : 3858,
                          "mediaDuration" : 1266,
                          "scalar" : 1,
                          "animationTracks" : {

                          }
                        }
                    ],
                    "effects" : [

                    ],
                    "start" : 27,
                    "duration" : 474,
                    "mediaStart" : 119,
                    "mediaDuration" : 474,
                    "scalar" : 1,
                    "metadata" : {
                      "clipSpeedAttribute" : false,
                      "effectApplied" : "none"
                    },
                    "animationTracks" : {

                    }
                  },
                  {
                    "id" : 15,
                    "_type" : "StitchedMedia",
                    "minMediaStart" : 0,
                    "attributes" : {
                      "ident" : "05 - Tactics and Tools - Case Study 2",
                      "gain" : 1.0,
                      "mixToMono" : false,
                      "loudnessNormalization" : true,
                      "sourceFileOffset" : 0
                    },
                    "parameters" : {
                      "volume" : {
                        "type" : "double",
                        "keyframes" : [
                          {
                            "endTime" : 0,
                            "time" : 0,
                            "value" : 1.0,
                            "duration" : 0
                          },
                          {
                            "endTime" : 92,
                            "time" : 92,
                            "value" : 1.0,
                            "duration" : 0
                          }
                        ]
                      },
                      "cursorOpacity" : {
                        "type" : "double",
                        "defaultValue" : 1.0,
                        "interp" : "linr"
                      },
                      "cursorScale" : {
                        "type" : "double",
                        "defaultValue" : 1.0,
                        "interp" : "linr"
                      }
                    },
                    "medias" : [
                        {
                          "id" : 16,
                          "_type" : "AMFile",
                          "src" : 1,
                          "trackNumber" : 1,
                          "attributes" : {
                            "ident" : "",
                            "gain" : 1.0,
                            "mixToMono" : false,
                            "loudnessNormalization" : true,
                            "sourceFileOffset" : 0
                          },
                            "channelNumber" : "0,1",
                          "effects" : [

                          ],
                          "start" : 0,
                          "duration" : 3851,
                          "mediaStart" : 0,
                          "mediaDuration" : 3851,
                          "scalar" : 1,
                          "animationTracks" : {

                          }
                        },
                        {
                          "id" : 17,
                          "_type" : "AMFile",
                          "src" : 1,
                          "trackNumber" : 1,
                          "attributes" : {
                            "ident" : "",
                            "gain" : 1.0,
                            "mixToMono" : false,
                            "loudnessNormalization" : true,
                            "sourceFileOffset" : 0
                          },
                            "channelNumber" : "0,1",
                          "effects" : [

                          ],
                          "start" : 3851,
                          "duration" : 1266,
                          "mediaStart" : 3858,
                          "mediaDuration" : 1266,
                          "scalar" : 1,
                          "animationTracks" : {

                          }
                        }
                    ],
                    "effects" : [

                    ],
                    "start" : 540,
                    "duration" : 119,
                    "mediaStart" : 632,
                    "mediaDuration" : 119,
                    "scalar" : 1,
                    "metadata" : {
                      "clipSpeedAttribute" : false,
                      "effectApplied" : "none"
                    },
                    "animationTracks" : {

                    }
                  },
                  {
                    "id" : 18,
                    "_type" : "StitchedMedia",
                    "minMediaStart" : 0,
                    "attributes" : {
                      "ident" : "05 - Tactics and Tools - Case Study 2",
                      "gain" : 1.0,
                      "mixToMono" : false,
                      "loudnessNormalization" : true,
                      "sourceFileOffset" : 0
                    },
                    "parameters" : {
                      "volume" : {
                        "type" : "double",
                        "keyframes" : [
                          {
                            "endTime" : 0,
                            "time" : 0,
                            "value" : 1.0,
                            "duration" : 0
                          },
                          {
                            "endTime" : 92,
                            "time" : 92,
                            "value" : 1.0,
                            "duration" : 0
                          }
                        ]
                      },
                      "cursorOpacity" : {
                        "type" : "double",
                        "defaultValue" : 1.0,
                        "interp" : "linr"
                      },
                      "cursorScale" : {
                        "type" : "double",
                        "defaultValue" : 1.0,
                        "interp" : "linr"
                      }
                    },
                    "medias" : [
                        {
                          "id" : 19,
                          "_type" : "AMFile",
                          "src" : 1,
                          "trackNumber" : 1,
                          "attributes" : {
                            "ident" : "",
                            "gain" : 1.0,
                            "mixToMono" : false,
                            "loudnessNormalization" : true,
                            "sourceFileOffset" : 0
                          },
                            "channelNumber" : "0,1",
                          "effects" : [

                          ],
                          "start" : 0,
                          "duration" : 3851,
                          "mediaStart" : 0,
                          "mediaDuration" : 3851,
                          "scalar" : 1,
                          "animationTracks" : {

                          }
                        },
                        {
                          "id" : 20,
                          "_type" : "AMFile",
                          "src" : 1,
                          "trackNumber" : 1,
                          "attributes" : {
                            "ident" : "",
                            "gain" : 1.0,
                            "mixToMono" : false,
                            "loudnessNormalization" : true,
                            "sourceFileOffset" : 0
                          },
                            "channelNumber" : "0,1",
                          "effects" : [

                          ],
                          "start" : 3851,
                          "duration" : 1266,
                          "mediaStart" : 3858,
                          "mediaDuration" : 1266,
                          "scalar" : 1,
                          "animationTracks" : {

                          }
                        }
                    ],
                    "effects" : [

                    ],
                    "start" : 678,
                    "duration" : 186,
                    "mediaStart" : 770,
                    "mediaDuration" : 186,
                    "scalar" : 1,
                    "metadata" : {
                      "clipSpeedAttribute" : false,
                      "effectApplied" : "none"
                    },
                    "animationTracks" : {

                    }
                  },
                  {
                    "id" : 21,
                    "_type" : "StitchedMedia",
                    "minMediaStart" : 0,
                    "attributes" : {
                      "ident" : "05 - Tactics and Tools - Case Study 2",
                      "gain" : 1.0,
                      "mixToMono" : false,
                      "loudnessNormalization" : true,
                      "sourceFileOffset" : 0
                    },
                    "parameters" : {
                      "volume" : {
                        "type" : "double",
                        "keyframes" : [
                          {
                            "endTime" : 0,
                            "time" : 0,
                            "value" : 1.0,
                            "duration" : 0
                          },
                          {
                            "endTime" : 92,
                            "time" : 92,
                            "value" : 1.0,
                            "duration" : 0
                          }
                        ]
                      },
                      "cursorOpacity" : {
                        "type" : "double",
                        "defaultValue" : 1.0,
                        "interp" : "linr"
                      },
                      "cursorScale" : {
                        "type" : "double",
                        "defaultValue" : 1.0,
                        "interp" : "linr"
                      }
                    },
                    "medias" : [
                        {
                          "id" : 22,
                          "_type" : "AMFile",
                          "src" : 1,
                          "trackNumber" : 1,
                          "attributes" : {
                            "ident" : "",
                            "gain" : 1.0,
                            "mixToMono" : false,
                            "loudnessNormalization" : true,
                            "sourceFileOffset" : 0
                          },
                            "channelNumber" : "0,1",
                          "effects" : [

                          ],
                          "start" : 0,
                          "duration" : 3851,
                          "mediaStart" : 0,
                          "mediaDuration" : 3851,
                          "scalar" : 1,
                          "animationTracks" : {

                          }
                        },
                        {
                          "id" : 23,
                          "_type" : "AMFile",
                          "src" : 1,
                          "trackNumber" : 1,
                          "attributes" : {
                            "ident" : "",
                            "gain" : 1.0,
                            "mixToMono" : false,
                            "loudnessNormalization" : true,
                            "sourceFileOffset" : 0
                          },
                            "channelNumber" : "0,1",
                          "effects" : [

                          ],
                          "start" : 3851,
                          "duration" : 1266,
                          "mediaStart" : 3858,
                          "mediaDuration" : 1266,
                          "scalar" : 1,
                          "animationTracks" : {

                          }
                        }
                    ],
                    "effects" : [

                    ],
                    "start" : 877,
                    "duration" : 727,
                    "mediaStart" : 969,
                    "mediaDuration" : 727,
                    "scalar" : 1,
                    "metadata" : {
                      "clipSpeedAttribute" : false,
                      "effectApplied" : "none"
                    },
                    "animationTracks" : {

                    }
                  },
                  {
                    "id" : 24,
                    "_type" : "StitchedMedia",
                    "minMediaStart" : 0,
                    "attributes" : {
                      "ident" : "05 - Tactics and Tools - Case Study 2",
                      "gain" : 1.0,
                      "mixToMono" : false,
                      "loudnessNormalization" : true,
                      "sourceFileOffset" : 0
                    },
                    "parameters" : {
                      "volume" : {
                        "type" : "double",
                        "keyframes" : [
                          {
                            "endTime" : 0,
                            "time" : 0,
                            "value" : 1.0,
                            "duration" : 0
                          },
                          {
                            "endTime" : 92,
                            "time" : 92,
                            "value" : 1.0,
                            "duration" : 0
                          }
                        ]
                      },
                      "cursorOpacity" : {
                        "type" : "double",
                        "defaultValue" : 1.0,
                        "interp" : "linr"
                      },
                      "cursorScale" : {
                        "type" : "double",
                        "defaultValue" : 1.0,
                        "interp" : "linr"
                      }
                    },
                    "medias" : [
                        {
                          "id" : 25,
                          "_type" : "AMFile",
                          "src" : 1,
                          "trackNumber" : 1,
                          "attributes" : {
                            "ident" : "",
                            "gain" : 1.0,
                            "mixToMono" : false,
                            "loudnessNormalization" : true,
                            "sourceFileOffset" : 0
                          },
                            "channelNumber" : "0,1",
                          "effects" : [

                          ],
                          "start" : 0,
                          "duration" : 3851,
                          "mediaStart" : 0,
                          "mediaDuration" : 3851,
                          "scalar" : 1,
                          "animationTracks" : {

                          }
                        },
                        {
                          "id" : 26,
                          "_type" : "AMFile",
                          "src" : 1,
                          "trackNumber" : 1,
                          "attributes" : {
                            "ident" : "",
                            "gain" : 1.0,
                            "mixToMono" : false,
                            "loudnessNormalization" : true,
                            "sourceFileOffset" : 0
                          },
                            "channelNumber" : "0,1",
                          "effects" : [

                          ],
                          "start" : 3851,
                          "duration" : 1266,
                          "mediaStart" : 3858,
                          "mediaDuration" : 1266,
                          "scalar" : 1,
                          "animationTracks" : {

                          }
                        }
                    ],
                    "effects" : [

                    ],
                    "start" : 1611,
                    "duration" : 117,
                    "mediaStart" : 1703,
                    "mediaDuration" : 117,
                    "scalar" : 1,
                    "metadata" : {
                      "clipSpeedAttribute" : false,
                      "effectApplied" : "none"
                    },
                    "animationTracks" : {

                    }
                  },
                  {
                    "id" : 27,
                    "_type" : "StitchedMedia",
                    "minMediaStart" : 0,
                    "attributes" : {
                      "ident" : "05 - Tactics and Tools - Case Study 2",
                      "gain" : 1.0,
                      "mixToMono" : false,
                      "loudnessNormalization" : true,
                      "sourceFileOffset" : 0
                    },
                    "parameters" : {
                      "volume" : {
                        "type" : "double",
                        "keyframes" : [
                          {
                            "endTime" : 0,
                            "time" : 0,
                            "value" : 1.0,
                            "duration" : 0
                          },
                          {
                            "endTime" : 92,
                            "time" : 92,
                            "value" : 1.0,
                            "duration" : 0
                          }
                        ]
                      },
                      "cursorOpacity" : {
                        "type" : "double",
                        "defaultValue" : 1.0,
                        "interp" : "linr"
                      },
                      "cursorScale" : {
                        "type" : "double",
                        "defaultValue" : 1.0,
                        "interp" : "linr"
                      }
                    },
                    "medias" : [
                        {
                          "id" : 28,
                          "_type" : "AMFile",
                          "src" : 1,
                          "trackNumber" : 1,
                          "attributes" : {
                            "ident" : "",
                            "gain" : 1.0,
                            "mixToMono" : false,
                            "loudnessNormalization" : true,
                            "sourceFileOffset" : 0
                          },
                            "channelNumber" : "0,1",
                          "effects" : [

                          ],
                          "start" : 0,
                          "duration" : 3851,
                          "mediaStart" : 0,
                          "mediaDuration" : 3851,
                          "scalar" : 1,
                          "animationTracks" : {

                          }
                        },
                        {
                          "id" : 29,
                          "_type" : "AMFile",
                          "src" : 1,
                          "trackNumber" : 1,
                          "attributes" : {
                            "ident" : "",
                            "gain" : 1.0,
                            "mixToMono" : false,
                            "loudnessNormalization" : true,
                            "sourceFileOffset" : 0
                          },
                            "channelNumber" : "0,1",
                          "effects" : [

                          ],
                          "start" : 3851,
                          "duration" : 1266,
                          "mediaStart" : 3858,
                          "mediaDuration" : 1266,
                          "scalar" : 1,
                          "animationTracks" : {

                          }
                        }
                    ],
                    "effects" : [

                    ],
                    "start" : 1738,
                    "duration" : 225,
                    "mediaStart" : 1830,
                    "mediaDuration" : 225,
                    "scalar" : 1,
                    "metadata" : {
                      "clipSpeedAttribute" : false,
                      "effectApplied" : "none"
                    },
                    "animationTracks" : {

                    }
                  },
                  {
                    "id" : 30,
                    "_type" : "StitchedMedia",
                    "minMediaStart" : 0,
                    "attributes" : {
                      "ident" : "05 - Tactics and Tools - Case Study 2",
                      "gain" : 1.0,
                      "mixToMono" : false,
                      "loudnessNormalization" : true,
                      "sourceFileOffset" : 0
                    },
                    "parameters" : {
                      "volume" : {
                        "type" : "double",
                        "keyframes" : [
                          {
                            "endTime" : 0,
                            "time" : 0,
                            "value" : 1.0,
                            "duration" : 0
                          },
                          {
                            "endTime" : 92,
                            "time" : 92,
                            "value" : 1.0,
                            "duration" : 0
                          }
                        ]
                      },
                      "cursorOpacity" : {
                        "type" : "double",
                        "defaultValue" : 1.0,
                        "interp" : "linr"
                      },
                      "cursorScale" : {
                        "type" : "double",
                        "defaultValue" : 1.0,
                        "interp" : "linr"
                      }
                    },
                    "medias" : [
                        {
                          "id" : 31,
                          "_type" : "AMFile",
                          "src" : 1,
                          "trackNumber" : 1,
                          "attributes" : {
                            "ident" : "",
                            "gain" : 1.0,
                            "mixToMono" : false,
                            "loudnessNormalization" : true,
                            "sourceFileOffset" : 0
                          },
                            "channelNumber" : "0,1",
                          "effects" : [

                          ],
                          "start" : 0,
                          "duration" : 3851,
                          "mediaStart" : 0,
                          "mediaDuration" : 3851,
                          "scalar" : 1,
                          "animationTracks" : {

                          }
                        },
                        {
                          "id" : 32,
                          "_type" : "AMFile",
                          "src" : 1,
                          "trackNumber" : 1,
                          "attributes" : {
                            "ident" : "",
                            "gain" : 1.0,
                            "mixToMono" : false,
                            "loudnessNormalization" : true,
                            "sourceFileOffset" : 0
                          },
                            "channelNumber" : "0,1",
                          "effects" : [

                          ],
                          "start" : 3851,
                          "duration" : 1266,
                          "mediaStart" : 3858,
                          "mediaDuration" : 1266,
                          "scalar" : 1,
                          "animationTracks" : {

                          }
                        }
                    ],
                    "effects" : [

                    ],
                    "start" : 1969,
                    "duration" : 605,
                    "mediaStart" : 2061,
                    "mediaDuration" : 605,
                    "scalar" : 1,
                    "metadata" : {
                      "clipSpeedAttribute" : false,
                      "effectApplied" : "none"
                    },
                    "animationTracks" : {

                    }
                  },
                  {
                    "id" : 33,
                    "_type" : "StitchedMedia",
                    "minMediaStart" : 0,
                    "attributes" : {
                      "ident" : "05 - Tactics and Tools - Case Study 2",
                      "gain" : 1.0,
                      "mixToMono" : false,
                      "loudnessNormalization" : true,
                      "sourceFileOffset" : 0
                    },
                    "parameters" : {
                      "volume" : {
                        "type" : "double",
                        "keyframes" : [
                          {
                            "endTime" : 0,
                            "time" : 0,
                            "value" : 1.0,
                            "duration" : 0
                          },
                          {
                            "endTime" : 92,
                            "time" : 92,
                            "value" : 1.0,
                            "duration" : 0
                          }
                        ]
                      },
                      "cursorOpacity" : {
                        "type" : "double",
                        "defaultValue" : 1.0,
                        "interp" : "linr"
                      },
                      "cursorScale" : {
                        "type" : "double",
                        "defaultValue" : 1.0,
                        "interp" : "linr"
                      }
                    },
                    "medias" : [
                        {
                          "id" : 34,
                          "_type" : "AMFile",
                          "src" : 1,
                          "trackNumber" : 1,
                          "attributes" : {
                            "ident" : "",
                            "gain" : 1.0,
                            "mixToMono" : false,
                            "loudnessNormalization" : true,
                            "sourceFileOffset" : 0
                          },
                            "channelNumber" : "0,1",
                          "effects" : [

                          ],
                          "start" : 0,
                          "duration" : 3851,
                          "mediaStart" : 0,
                          "mediaDuration" : 3851,
                          "scalar" : 1,
                          "animationTracks" : {

                          }
                        },
                        {
                          "id" : 35,
                          "_type" : "AMFile",
                          "src" : 1,
                          "trackNumber" : 1,
                          "attributes" : {
                            "ident" : "",
                            "gain" : 1.0,
                            "mixToMono" : false,
                            "loudnessNormalization" : true,
                            "sourceFileOffset" : 0
                          },
                            "channelNumber" : "0,1",
                          "effects" : [

                          ],
                          "start" : 3851,
                          "duration" : 1266,
                          "mediaStart" : 3858,
                          "mediaDuration" : 1266,
                          "scalar" : 1,
                          "animationTracks" : {

                          }
                        }
                    ],
                    "effects" : [

                    ],
                    "start" : 2583,
                    "duration" : 141,
                    "mediaStart" : 2675,
                    "mediaDuration" : 141,
                    "scalar" : 1,
                    "metadata" : {
                      "clipSpeedAttribute" : false,
                      "effectApplied" : "none"
                    },
                    "animationTracks" : {

                    }
                  },
                  {
                    "id" : 36,
                    "_type" : "StitchedMedia",
                    "minMediaStart" : 0,
                    "attributes" : {
                      "ident" : "05 - Tactics and Tools - Case Study 2",
                      "gain" : 1.0,
                      "mixToMono" : false,
                      "loudnessNormalization" : true,
                      "sourceFileOffset" : 0
                    },
                    "parameters" : {
                      "volume" : {
                        "type" : "double",
                        "keyframes" : [
                          {
                            "endTime" : 0,
                            "time" : 0,
                            "value" : 1.0,
                            "duration" : 0
                          },
                          {
                            "endTime" : 92,
                            "time" : 92,
                            "value" : 1.0,
                            "duration" : 0
                          }
                        ]
                      },
                      "cursorOpacity" : {
                        "type" : "double",
                        "defaultValue" : 1.0,
                        "interp" : "linr"
                      },
                      "cursorScale" : {
                        "type" : "double",
                        "defaultValue" : 1.0,
                        "interp" : "linr"
                      }
                    },
                    "medias" : [
                        {
                          "id" : 37,
                          "_type" : "AMFile",
                          "src" : 1,
                          "trackNumber" : 1,
                          "attributes" : {
                            "ident" : "",
                            "gain" : 1.0,
                            "mixToMono" : false,
                            "loudnessNormalization" : true,
                            "sourceFileOffset" : 0
                          },
                            "channelNumber" : "0,1",
                          "effects" : [

                          ],
                          "start" : 0,
                          "duration" : 3851,
                          "mediaStart" : 0,
                          "mediaDuration" : 3851,
                          "scalar" : 1,
                          "animationTracks" : {

                          }
                        },
                        {
                          "id" : 38,
                          "_type" : "AMFile",
                          "src" : 1,
                          "trackNumber" : 1,
                          "attributes" : {
                            "ident" : "",
                            "gain" : 1.0,
                            "mixToMono" : false,
                            "loudnessNormalization" : true,
                            "sourceFileOffset" : 0
                          },
                            "channelNumber" : "0,1",
                          "effects" : [

                          ],
                          "start" : 3851,
                          "duration" : 1266,
                          "mediaStart" : 3858,
                          "mediaDuration" : 1266,
                          "scalar" : 1,
                          "animationTracks" : {

                          }
                        }
                    ],
                    "effects" : [

                    ],
                    "start" : 2737,
                    "duration" : 289,
                    "mediaStart" : 2829,
                    "mediaDuration" : 289,
                    "scalar" : 1,
                    "metadata" : {
                      "clipSpeedAttribute" : false,
                      "effectApplied" : "none"
                    },
                    "animationTracks" : {

                    }
                  },
                  {
                    "id" : 39,
                    "_type" : "StitchedMedia",
                    "minMediaStart" : 0,
                    "attributes" : {
                      "ident" : "05 - Tactics and Tools - Case Study 2",
                      "gain" : 1.0,
                      "mixToMono" : false,
                      "loudnessNormalization" : true,
                      "sourceFileOffset" : 0
                    },
                    "parameters" : {
                      "volume" : {
                        "type" : "double",
                        "keyframes" : [
                          {
                            "endTime" : 0,
                            "time" : 0,
                            "value" : 1.0,
                            "duration" : 0
                          },
                          {
                            "endTime" : 92,
                            "time" : 92,
                            "value" : 1.0,
                            "duration" : 0
                          }
                        ]
                      },
                      "cursorOpacity" : {
                        "type" : "double",
                        "defaultValue" : 1.0,
                        "interp" : "linr"
                      },
                      "cursorScale" : {
                        "type" : "double",
                        "defaultValue" : 1.0,
                        "interp" : "linr"
                      }
                    },
                    "medias" : [
                        {
                          "id" : 40,
                          "_type" : "AMFile",
                          "src" : 1,
                          "trackNumber" : 1,
                          "attributes" : {
                            "ident" : "",
                            "gain" : 1.0,
                            "mixToMono" : false,
                            "loudnessNormalization" : true,
                            "sourceFileOffset" : 0
                          },
                            "channelNumber" : "0,1",
                          "effects" : [

                          ],
                          "start" : 0,
                          "duration" : 3851,
                          "mediaStart" : 0,
                          "mediaDuration" : 3851,
                          "scalar" : 1,
                          "animationTracks" : {

                          }
                        },
                        {
                          "id" : 41,
                          "_type" : "AMFile",
                          "src" : 1,
                          "trackNumber" : 1,
                          "attributes" : {
                            "ident" : "",
                            "gain" : 1.0,
                            "mixToMono" : false,
                            "loudnessNormalization" : true,
                            "sourceFileOffset" : 0
                          },
                            "channelNumber" : "0,1",
                          "effects" : [

                          ],
                          "start" : 3851,
                          "duration" : 1266,
                          "mediaStart" : 3858,
                          "mediaDuration" : 1266,
                          "scalar" : 1,
                          "animationTracks" : {

                          }
                        }
                    ],
                    "effects" : [

                    ],
                    "start" : 3043,
                    "duration" : 883,
                    "mediaStart" : 3160,
                    "mediaDuration" : 883,
                    "scalar" : 1,
                    "metadata" : {
                      "clipSpeedAttribute" : false,
                      "effectApplied" : "none"
                    },
                    "animationTracks" : {

                    }
                  },
                  {
                    "id" : 42,
                    "_type" : "StitchedMedia",
                    "minMediaStart" : 0,
                    "attributes" : {
                      "ident" : "05 - Tactics and Tools - Case Study 2",
                      "gain" : 1.0,
                      "mixToMono" : false,
                      "loudnessNormalization" : true,
                      "sourceFileOffset" : 0
                    },
                    "parameters" : {
                      "volume" : {
                        "type" : "double",
                        "keyframes" : [
                          {
                            "endTime" : 0,
                            "time" : 0,
                            "value" : 1.0,
                            "duration" : 0
                          },
                          {
                            "endTime" : 92,
                            "time" : 92,
                            "value" : 1.0,
                            "duration" : 0
                          }
                        ]
                      },
                      "cursorOpacity" : {
                        "type" : "double",
                        "defaultValue" : 1.0,
                        "interp" : "linr"
                      },
                      "cursorScale" : {
                        "type" : "double",
                        "defaultValue" : 1.0,
                        "interp" : "linr"
                      }
                    },
                    "medias" : [
                        {
                          "id" : 43,
                          "_type" : "AMFile",
                          "src" : 1,
                          "trackNumber" : 1,
                          "attributes" : {
                            "ident" : "",
                            "gain" : 1.0,
                            "mixToMono" : false,
                            "loudnessNormalization" : true,
                            "sourceFileOffset" : 0
                          },
                            "channelNumber" : "0,1",
                          "effects" : [

                          ],
                          "start" : 0,
                          "duration" : 3851,
                          "mediaStart" : 0,
                          "mediaDuration" : 3851,
                          "scalar" : 1,
                          "animationTracks" : {

                          }
                        },
                        {
                          "id" : 44,
                          "_type" : "AMFile",
                          "src" : 1,
                          "trackNumber" : 1,
                          "attributes" : {
                            "ident" : "",
                            "gain" : 1.0,
                            "mixToMono" : false,
                            "loudnessNormalization" : true,
                            "sourceFileOffset" : 0
                          },
                            "channelNumber" : "0,1",
                          "effects" : [

                          ],
                          "start" : 3851,
                          "duration" : 1266,
                          "mediaStart" : 3858,
                          "mediaDuration" : 1266,
                          "scalar" : 1,
                          "animationTracks" : {

                          }
                        }
                    ],
                    "effects" : [

                    ],
                    "start" : 3936,
                    "duration" : 207,
                    "mediaStart" : 4053,
                    "mediaDuration" : 207,
                    "scalar" : 1,
                    "metadata" : {
                      "clipSpeedAttribute" : false,
                      "effectApplied" : "none"
                    },
                    "animationTracks" : {

                    }
                  },
                  {
                    "id" : 45,
                    "_type" : "StitchedMedia",
                    "minMediaStart" : 0,
                    "attributes" : {
                      "ident" : "05 - Tactics and Tools - Case Study 2",
                      "gain" : 1.0,
                      "mixToMono" : false,
                      "loudnessNormalization" : true,
                      "sourceFileOffset" : 0
                    },
                    "parameters" : {
                      "volume" : {
                        "type" : "double",
                        "keyframes" : [
                          {
                            "endTime" : 0,
                            "time" : 0,
                            "value" : 1.0,
                            "duration" : 0
                          },
                          {
                            "endTime" : 92,
                            "time" : 92,
                            "value" : 1.0,
                            "duration" : 0
                          }
                        ]
                      },
                      "cursorOpacity" : {
                        "type" : "double",
                        "defaultValue" : 1.0,
                        "interp" : "linr"
                      },
                      "cursorScale" : {
                        "type" : "double",
                        "defaultValue" : 1.0,
                        "interp" : "linr"
                      }
                    },
                    "medias" : [
                        {
                          "id" : 46,
                          "_type" : "AMFile",
                          "src" : 1,
                          "trackNumber" : 1,
                          "attributes" : {
                            "ident" : "",
                            "gain" : 1.0,
                            "mixToMono" : false,
                            "loudnessNormalization" : true,
                            "sourceFileOffset" : 0
                          },
                            "channelNumber" : "0,1",
                          "effects" : [

                          ],
                          "start" : 0,
                          "duration" : 3851,
                          "mediaStart" : 0,
                          "mediaDuration" : 3851,
                          "scalar" : 1,
                          "animationTracks" : {

                          }
                        },
                        {
                          "id" : 47,
                          "_type" : "AMFile",
                          "src" : 1,
                          "trackNumber" : 1,
                          "attributes" : {
                            "ident" : "",
                            "gain" : 1.0,
                            "mixToMono" : false,
                            "loudnessNormalization" : true,
                            "sourceFileOffset" : 0
                          },
                            "channelNumber" : "0,1",
                          "effects" : [

                          ],
                          "start" : 3851,
                          "duration" : 1266,
                          "mediaStart" : 3858,
                          "mediaDuration" : 1266,
                          "scalar" : 1,
                          "animationTracks" : {

                          }
                        }
                    ],
                    "effects" : [

                    ],
                    "start" : 4186,
                    "duration" : 370,
                    "mediaStart" : 4303,
                    "mediaDuration" : 370,
                    "scalar" : 1,
                    "metadata" : {
                      "clipSpeedAttribute" : false,
                      "effectApplied" : "none"
                    },
                    "animationTracks" : {

                    }
                  }
                ]
              }            ]
          }
        }
      ]
    },
    "trackAttributes" : [
      {
        "ident" : "",
        "audioMuted" : false,
        "videoHidden" : false,
        "magnetic" : false,
        "matte" : 0,
        "solo" : false,
        "metadata" : {
          "IsLocked" : "False",
          "trackHeight" : "54"
        }
      },
      {
        "ident" : "",
        "audioMuted" : false,
        "videoHidden" : false,
        "magnetic" : false,
        "matte" : 0,
        "solo" : false,
        "metadata" : {
          "IsLocked" : "False",
          "trackHeight" : "54"
        }
      }
    ],
    "captionAttributes" : {
      "enabled" : true,
      "fontName" : "Arial",
      "fontSize" : 32,
      "backgroundColor" : [ 0, 0, 0, 204],
      "foregroundColor" : [ 255, 255, 255, 255],
      "lang" : "en",
      "alignment" : 0,
      "defaultFontSize" : true,
      "opacity" : 0.5,
      "backgroundEnabled" : true,
      "backgroundOnlyAroundText" : true
    },
    "gain" : 1.0,
    "legacyAttenuateAudioMix" : false,
    "backgroundColor" : [ 0, 0, 0, 255]
  },
  "metadata" : {
    "ProjectThumbnail" : "iVBORw0KGgoAAAANSUhEUgAAAOMAAAENCAYAAAD9t9IKAAAAAXNSR0IArs4c6QAAAERlWElmTU0AKgAAAAgAAYdpAAQAAAABAAAAGgAAAAAAA6ABAAMAAAABAAEAAKACAAQAAAABAAAA46ADAAQAAAABAAABDQAAAADq2697AABAAElEQVR4AZy9WZNtyXXft2se7r19ewQogKIgAQQnyTZtK2yGKYcUctiP1oP4CewIPThCD3rQl7EfJBk2IkzKwSAVDlHWQIkUJ5AQMVEYGlMb6kY30H2771hz+ff7r1x771O3GrSZVefszJVrzlyZuXMPZ+vv/72/e721NSVdX19z3Jq2AGxtXU8WU3e9NV0HLtpAno8hvfEln9vT9kwHf1A2MZE711OJDqbAFiWHUlWz3fDmRFmqaEleW5ZUNQ0qWdSvUMr2FWAhbgkzRKzW/zaKTdk3MQZlKxPfz6zxPR7vOo+Uq30WHHO2yzptliQrPxfOVR2GrNZ9ph8AD5E/VyyZ7a3tpWAOgaUmfr+GP33lymO3QssaxxBDs7Tb0Dh8braX/IGhEGxVKuTrr1g3zBqNPvSRdPCWzUxUuYWTHKonFErVRJRfC+HgAKD+U96abvhDbtsLrFVYq956Kal9J7Pd/+5v/EIpLfagkNnOtk6FcXTD0TRCOVDtKjhl8Hwa2ntY2zLKO61dVafJFh4asW6Qy1Sp/PYudfC7urqMvltbO8HdRs94Z3DasrMAcoTZjh2E/0pm8pJIFTh4gyacgG2FZ+Osh4+oEP5rnsHUT0NO2JPf3kbHuRXCvZjyfT1VDypV/I6jo1MCSN83P4529Murq4E1s6F91nzXgTdw4HM100EPH1WqLlgyozd8tqIS+INm0V3TqoPp09artUgbqCt06n55eZV2UoZl0xWwSnbWif41+O3sFj/Qdnbgje8Hq8C7beRTQQ6XsNQnZPjXPonUS13UURT5ULI75FPyLVA/9JJGezup88xzAOWTRKb+5G2ujqN24BAnO02w2HmJjKVfla4SxJfy4rP78OHjRdEAQeBvB4WjpIoCx8LAZRCFpRoNpGGL+CU3OEmSZE0Jh4c0su46ZNCEceIADfblYFVIR6KyBgWDLsA6DqI0KPkEoxqLw6dGK/OFHrCjGmW/XAnMlQUc39ZLE8T5KG75YV1f/AamXFE21CpfiOO7S4UrcBPSnWWBG1Tls8ZsholHCuF1o1Id5eUH8pWcJS9Y87dlxL9ylJtOTi6dO7Md1d3mPZjo2/GRRjONjWsHgMitIHQgKROxARnyzMcAjG9HO6efqduwp7LRJZNDZMHKwWNyQC6ZMV71qY/LrUF+SsBN41AFShFrCZ3hkr8URzl6kS+8gW9ZToMZxc4GcUt7ZELyuL3jgIxP+LoaFfbf8ACmP1vO7sGeBoGvRJFG5Y6IShp1zozhGggmWh7Mr+0kGdEAQJPlCpU6jLGBTykYFYanbCxry1AzKmzSKZUMEPWp4Cu4I18CC942vIYsIw6SKNvIJvnLK4EZfYU4AktjjrIKRM/KVlNSL18wZl1SGnZLSopzwzJfYMhXfqOeDhzHo8/1dc3y1kTvQmlUSmtp2CrSc2m0yaqqvRUQX0tXqBp17KC4tJ2iqvYBr+icdcjwAg87/Xbk62NpJKrgKt/Km/YD3uVWtQKRgXwORjVbAls+stvZZkYcASn3+I1M+p/lyCyuqnI1/LedFRH8gG1t7ZZtsUM9A6wgl17RI6lx2qcB1C+2DR8NAvFMRWNuQIZO0W3kFRFsdTcvX0lI3Rfjf8odjK4Kyr6SY9542k0DgVhNB4PtMugSo0OAJ3RGKVbTv2Kvt+hcfNJ57dkg2RDRSAJxHL2SLR52FF1SdVaQK9QiE2CwiZUKKpFh2BYUg5DhHCovl2gxp+VCLrvLSzt+G4rO8LqKrkM2dZkFwJLCDmDS3tbQWTqw1bfZK3H4lKSSYSwb8PlDgZgPhmiXKgSrhlG6NYl7E8dGBLrCR4IwPjUg4VdVANSz2MXAFqwLmtolXjqFCkV/6bq22kd8Z0WDdPHgYBhOHVTKL38ptwc/6SxfXelP+Pg3lqdLx1czWhA9GqsdpU3XrJXVSl9Kb+rObDs5UGS5iuHb0VLcYGU2tm0yEIw2TRVf8S/H9mnxFz6oEVWS1wNaUTfOzAs9MTrFmpvJ0sYVbDXJWGmfUBfpdfUV/VBf6eOOpFgqHnbvliplkET5aJ4M5MhRTpmlLE6MRoFXZ7V+OW9rmIrCC8FbGZpV3jlSoVLLLxhpkBJnXRmwZeAEr0aQcmDpltEcYs8ZRZkdFd/AIGkcaRB1K4nGuU5BdjQBUSUoOSq1PkVfunV+Pqpf6AtSswdOTsOUftaE7eooLHpAy39S+azyftcqojVd4M/lhs3FD1mU04kQGquH6TPdEJiVjJ5wsB3JzlLVwAhWW89lvm2kn/VXmFo9L1MLVlX6tvjpl+TUI22nEOpBpxWKz8AVsre3m46put1ZldXtKTctir/hGV2qt5AnBKJfGl1BpGiPov7zpR6Bln4uWJZknQDrpKt+xveAqW4RJB7gpR6mzNyurLqrm5cKfUBLfRDFNRM9wEFlJw9lhGeQFhkWd6uRJOKfTlVCETwLtyK258hYLztB4O/y7WjFIamMsk5kwd3YwsynoVBwx7W0sEEcFiBJpVGGLrVDn+aItAQXWDG+4GKrR31aGYUBgZmdVTqxbeLETpcAKs+6dUqZiu4MXRd/WYkxV7awOF3JUV5JADv4BQYsPo3YDTswc9g2APwbzDxUx4TGWS1YcqlcLfNrAJP/DvYXX3tJ6S3J3LlhvO5YhSVGJJXi4IQHIHVXmh+/erwPj3KgNakvnYdu0LYP4jtxM2V072VzcJwnhtfgUac5aAObsiOZ1i6y+ktJKIhbLiugGUwdzKTzL9UJsupFlq+vq2+mUpxukwDCsVwR+vJVTf8DLD5o7U/lwzRSpFbvJGDtZ4+xJQjlUz2WP5ndSPPMOCun0IE0C5bc2cMGjyGwzKBUmAtFiVrLKJnS+5HOL9rH5cuAbeBn5Nah8vaDEdKQ8i2T1QijU/wzyMptJUdHFZViRkOMjiKLJUk9EpnwgjbKAl58YJ0SqEs1PIdeJbfqB1JznPmUnoCxz4ljazVDieyyGXAa9cqWVYdO8T2SAWVDwLU6yZmt9bQcH5shXWZ9XHnh1cHBAZQltf5ZwcWs4W/QiFfZfJfPtHkFvJldE1CnrP5Olv6zww6zO/WdJPGTXfYSMiBAKf8ocbWiiUXN7rnj87VKs4/oE9HzNegqn1nYQWTWZ1TDLHWjmFYY7XTTl/pb2S5L2/eSZVK4yXfwc2qLYhJ2t5R4jvQg4pQwEMOAvESAFNLWmljq2jbX0DrflMZdNCnMF0XIygUq3HxHpbatHdUzmsTNITTQpVPBbnHnIqFhcYqylbNUDyrtUp/C7o2nOcjULwjS8lE37R68QurX7IuZFV5nwBn2xXfOfCmDE0LZLEEic9kqI7NkCpQFQZfzb+v5bLGqcGYEmPrYlpygYjKfx4V2+Jl8zbHDH5S7s8ipuKlXMRuHktlKt5xlOVR0t+gix1r5KG8nS9MiL1vLHw6UJTt2RInWpEMR/MiHH38JQhnNCrZSw84Um0fVZQ5bgVQ//teP9lfQtjNjG4SD3y0HWXR1xUTpri0m+dplqs0b0yO6GZjksorvKolGSjAmD5aGVkuMxmosj+EyADS4xunEBF4qyXtdDVXbdWI7CvbSrlQqHi5VTHMHTYmGGbxyiNbiVVOIYk7+lV++rUkpPakaRWcbzJlBbtSL20297syRAF18q1fDT+zyjaOhoBksnxItaXimn8ZfVZGgTOvLp2DZfIJJLleEtwQ309rpS51QY24lYql8LmdbDj8P2YUC9TBCPjiK86BeDg/+OEFtHZC6XUafKxZ+w6NxtM18aWbH9GyRc1F2laotapZIEMgIWu2IGkMXedRHLr04DtOZb5fWx/DMtF32ejplim0cu407aCJFmfTZteiwGERNE0b/H7961peFMmZ5FqrFsHkdIaWbeEswgjwLR6M2QhamdrMMy/BxsZa62nvjBDQXO22A6uZ2Qht5TsqYOUe7RWaQ0tVhOOpQT7kuMzvFjFQXTsPLUCSD2vi9JKiOK2+wVAl+betsFy3iaGbMJHiG3uWHRVdzNp70i1ZhDaywKziDGWvN2a3KFnWolYKV3XgV/YN39Cxe2uUpV+urJOmrLOcfneaZb1waUIcMuhzXSX7XzgwCEe2upnk3KuwN5tVI251MtrNfIIDPKoXPLItqOzu9rAZfkFmex7I4SUESlyer42obNmPjvFJRaEm/KW4tuZQTA3rbeU6CevBHeaXFf+kHRSa+YpSUzMApnQQuqXy/KpuNjh7CYalMlTD8S+eKfxb0DbzdubECHo28MqQ66w0BFBeho5NJ70myQsvDwzAdU3ylqfo+buhSGiiK6JltmjOFW5rc0GewCf9R1YGoE0aLR3aKAydaqJMyhHG0jxiQrbMVqUrncaY12rGJDllusrZz1ZkttX9Si/3pAML5KKc7S8pA8ZA1Iw1+A1S8pGk4Fcne6HRQN25zUpBsAm+hlIvTjDWkt8DGl7Bwuk1lEXdV/CwMVrm2vcXtuDNBx+/LRbpyeDXMxC/cGjCrtjX06EdFWpmhTRRZBMu3fNS0xSlkQ3HPWeWnTP+asziByXOQyyvZNiQ0Ja/bopajiw6961yQsjIOk5PqM7r1ZNBsm9d8zpjZQ0VM84FMYOFSdatv18Dpo2OnqjvUIA9mN0yRiVEucHmrnMyezVPC2TvkU4bGAACeHUQEBqxefuItcdlRBK9np5ILbuMNGWt9rErqI4VmN2oCiUpDVhpILxqMqqA+ztwE6Na4viZtWVnclNkOjx0L8znXs3kBnJW6+88oZUsXlY0C8q07ZrpifZRH6aDKbaZHP7mUZF79NxRrGmeRW6IujAoHwo1kZ3TA0n43qcSq7wq0UbO0i05Mal27j6iXFS0H+GiwtAE1JYfMgGtVXYeFqslkQbIoO6V4VL9OC2rlCqNqgzX4t3xrKi+3seahH6SNNwSX5cWjaVrq88c5GEu3RcHaqKiG8Na4bjDVjWGJQgRQaCUX6haEyQ30WLZW5YBLG/AwojZsqOR/7sBSUK5ZqQilqyAtpj0wxMmFEtnZgFFHWQy4FOKlgw6YItapbXIJJZ34ueAfXtDiGkdF3VB82awaDHKeGv5DN+DdcRQntGo2bVzqYK5jB17DA1h/fWhFI4lQKYNUC0W3Tpu5RsBagiRtDsh2aBszLjZamHRh4dS8vR6Y7sqyNVg6fPQbj/5VGzcPKeXTHwN4Xace1SfFyPn2aAPRwppyxXfxju6RVFz9fl5TmJFUby1tQOvQ3+UIeBRm0ZgffGEubE7iPydwjVCYQnaXTiewHJScDNIgLs2Aj86huhk5rB9CMtoNJZ8XI+1A5DByikjqgGsc6Wf0zgzcxmk95WUQFlpKABYNksMzTVeyWx9L1OU8d66J8MVWBRe+NtsNPPk2abPb8c07MCZ7G0JYsFTMsn+jExa1sEp9dNbPOQV4dqb4eNWqM94KNliUvFvg1rd+dmJvyXPmmHXoDHiO8EuqQUYrg40dWY6JB71mrZOiy2fDV8yOs1wQ61wcOtpKv5nqWwWwe9bDjDV+GljBB6DO5de81cUKUROBxVV/O2h4C13znvVB+Ujg2H1PFj8qLfYirxmuCZSfE+myP6smYMpcTyBN0lciutzHZQMHSJmibRpJqQGzYwYIeFylMzTOgIBeWI63KTwkhm4la+2kDZEDv+tHcTQyUvyPsUo0efRTEvLEBPl2uJ1R/Lkzhaxpij76A9Ke2YQaZmFb1nVQSdGpeBavOJ+KsOcbkRUAw1dNc/PYfKOvdjkDEPjeTrVObYOw5MFpWYutBely0/dNy3Yo2fZcPiwbaOWj2RcaMNe0dxvisWzcgIxLBcLkkw0x8BJW+mODp3aKOLRI3e36p08GVdyRWtHQN7Dk1ixafbRr2hp9kw/yGtbHxu1jaVal2pknD7L4WUF6tL3C0/bSJ/UhU8oALQqKEo7l/FrtjWDUaY5i/rW5jo1hIofwXepkv046O3QqMKfmNAAJXOsLJ0o3rvzRoRprzUPsEfiO8Pxl2bchRybDAeZSB4/6j7RYpoym46iUdFoyGf27TnZRXbljhgAkjg4MzZjtSlYTDJ4hlrtJvSr34d/g6MDEXiN7fJ62a294NqyV42fdyIvMppSrXvRYH6wk5zdwsptDQOHIp21dONmpm5sYC27n49dR05e5Uhyw8EJpudQewm2WLRQfnlMXeaB936YG8qLrQqmE8oCwBaN80vILPpp58WkpPJg1rUf7ZV3eixPTEANNKZZzFJPUYoTx2U2UCicjsgqOMQwoRsFciI0jweA3MwYUB8QIKiNw1RMc8UsFMZVfEoZaK1lV2/xL00iMzBp5iiq7UdEoUunEwGMIWg4dWkoFz7AatARWsSld0WBziaWdzKJtAzNPGsPRHt51Gxq6KseD66GRtp1u7AjUqWPpIJIIyhmIqGPdOrn6zSCBMH1tyyuvl3Z0sfg5NMA3d+2Kk/zj/5Bv8le+EHGU7aWLChLybB/PAyk4ZRH44NbmEJQSSj8+6tiQtsVAqLYRvWqLhrz/5cjYJtykF8XU3fLZ3q5lawa71Ki3PXDGDJ36iJPTDLe/ScuytPCFZTIBLxBo4lNx+aSdV3qKb2rZPjRhf0nfAy5q26XP2p9F49J8+CkVgfqV1CumLsfmLnCU7zwzlpKiKJHDkFRLjBaiMSsOH5Jtha3ePP+SdTEIH2UoaIgcJQ8jDedRH2N0Pn/m66mRIkyjmB3KkSW/BEkHTDq7lSPJrVLZ5aaM/PWphhafZGd+eZrBulUQDiYzLPoAlE1MDAK5pdAk4dtybF4fQlVzbbkFvTjNFePcTLuhU/vbiUYdGCG1g2WHf4QUAoORSlmNDPjuFyQqHQxKwvxNZkNc29Hw0FqYUzCqNGTkbq65Hg8somdo7KKkmeZn/woQ1jQWB46YSSmTG/5J+4q3smZgzofuRzNgFjKYIcTuVaL4lncEu7NKSt+rYF14/Om5ORh7rJBplHEnbHimo1r4WtE5LxxZ3k5koqlTNpDDIxqmanzpPQ2o4Fpq0g1jZXbz7PDQloFgRQ5uFCCcTwJz5Wh5Ra+Nez/DgYpq7AQqxL18Uht5LQObTpV5NZldNoO6xzwsCgUya0liVg5aVEflt91KtlyDd9WLm+VaaCx1qk0hu730Q+vBt3zvjKiucFWFObVM6YQvM2dvYkhfujRRSQCZiviM+4XbluoPA1N50UcLyyfxD+DSURg18hHWA5X64Tj9vdYnnoqeNZNarlBXDp+Rou+Q0DCP0dVMDNWoAIXcmmQZ3dDDmV71AlthK+u21H258AeVhwjVaobnoULTzyutW3RvnLTvEKpuDlwJRlnmelJZr+awWbQrQ5ZyM+xjd2otFMsdx+jbCBx7pup7J6uxR/ClvvjrX3FVLnyHwrJKR1Nxpagjh5ZT1AGL+nwao1UUbOSBZXEGkYn18k8EzjVLCyp4ldQ1yzmVN3U9RSFx9hgIOgiDt/pqOxoUCSFebOzcIr2WwsLTL+lo3oBfz9B5d48X2g2EuuiSdmwBHLVvDvlyfGrln/YfghKgsQkog4FqDdUKX18hZxRou5EHoMzZtuGf6FrYg5dL89JksQ0ER90NwCDqQ/uZcvRt+HwsLWXRdkpS+sxahXomWclb+6CHoBlvzjTB4LfSqSUVauMNQvXAEfrHpE92vSuiysOh1JmrDmQBLDFXQtKolGVmwMiumc6ckyk+QagvB0qxb3yGCKA2ozOR3UfcZakjjS5FbsjlLSe/AlhUTBn0G6kHBMFrfZWjK4sLxzHDb5A3Qo5joBgI5R71cO0nL/2lLXLsdIOmwTeOJUZeg8+qPkFBecvzFWyUvyNzNj1Qwo2Ls9Nn08nJCX7bmXb39qZ9Pvrw8vKCQHWG1n/XCdR0BvlRrw39ALLq57lT8JRlcPkQuvNX+gW8MwxoZvTUtgrAPsdttTP42odGUo6n1eVxvqsQS2J0ekDVZlZaSKvdmxFyN4Ieu6ovFMIyAJVeXiM2pe9giZ7bTFUfLq6q8r/G6QGm8EJrdTmADNrqL/4qkR8yByA+Lhud/MCL36WptLvLC4Ei0kbCU0Eatc/NDNDcFNCCnjuiiH9tvCFWDtAoPwpRclpm2CQsVCmXLdAZLcGlzoa1RUPPYU5Fa7E4zBUjI83aWQVWv7mhALVmg+j5g2JmXVKI34IYPUv+TcL0x+hdNUVZnNbWrOHaYeqO42AiJEsjea0aO6cEbCA9fvRoevPNN6eXXnppunvv7nRyejUdHhxO+/uHBOBu3m2UgHH2Aj/zHKyyA0lTuDGxw8u/LplNfWOCz52enZ7RBhNPXezF9ZcXDADYmlOE+BS/anvrEyW1ytTHKt32nQBHgJgjNoed2j5SMmLMkK5BLDA/K1H6qgavTfwegDSo1Z0ZPZeBYTVc7C5a+2DxrBu+cQzlgsWC57g0YKaLGYteFr1HmYeLPTcsO9LIGCvaWtFm4rHzCjAfvhZGqlnBUaEAdbCLm/o4aNM5x+1T8rLFkR6jZZCPdOZTE12btzVLUpIfbLmpVDUzFeg/AqZbLtYW2RA3CuF0+5c0az/cjrVA47dRVDUVTBurizuwphtGrfXKQB2jCjUdCZv0k+DciYJted0IjPf3tqdvvf716e79u9PdF+5PZ2ens23OmrpDnXyL2eHh4XR0dDTdv//i9PTpEz5P4Xc5vf/++9PTJ0+m64uL6QPyBvBf+uSnp0/8xU+Cf2e6IGouqTMg97xxIm4rWy71c9uELPXs1HYtpyuQ4ofYwkDQfST+hS4c0TU+NFJhHH6Oos3X+hYwjrUKGoOv8dJRvoHXVIt+Vke2VeoeZ1lvzkHH1c98hlu4SA+NWK0T+c0kj5LXuNbrv5LHaze0Pyg0ogsfS1byPyfLHyoE4aXq4KPhcc643pJaWcmwlUYWxbpxGJijtDStL3VIzNPrkosrtXbO56eyHCmj4BzoIqMTzg/fBYlcjZZlvBIEITfci7/ZlBWq7NQpvepzB47Fdrp687HTbLEdG57miaD2WVD5kiyk4hdLAOVbPW9qcPMpaFVEbyW40TK4KUfpV2cXzGBPpwfv/mB65+03p69+9U+mRw8fMOJO08OHH0wnz55MZ8xo5wSQvM/Pzwimc8Tr+93pmAA7eXZK4J5NF8AvwPUOo2dPn8F/i8C+M7340v3pJ37iE9Mv/td/c/rEX/rJ6YV7L2QwOb86m/bwuTdhy/uaZ6YunFVtV2BbW3vtPGvxjYd8kTE540NpB5ABqf2UPHqU7dkC1mUDg7LOJTATKIJHsl8HBq76F33X3iyXUFkVb3UzFTxZKrrvraBgeImo8WsZH/xbv4pSn5cckfRH6cMadYnyeMnRWpShWHeATWOCUl/i+58A0OxOAlEyI5JKIBQc3+hV+assmTIbDs16hMx5KLCeqcnAF16LBRGis62R35LIq/wIslpKqJcGi8VxGO8dk4KUt+Ygon+m7XSaZLPkTtBRJ35jXesDZQa2/tJecEdd6kGVroMxqkbdatAsFx31NzUaskqnDAjS0NHPzvAjM9PZ5dn07g/fmf7ky1+YPv+Hvwf15XRCIOWcDH6XBMglM94FwZjlqcFGsJw8ezY9efJseueckXnvUBUjOnS8LWDvYI+g5Qz+9Ho6+eDJ9NUv/PH0ve98d/oLn/qZ6T/5+Z+fPvmpT02vfeQjIbo4J7iJ/nNm4vPzi+ngYD9vD9jiVKhS+ci8baAn2sz23rolytpgiQlq+bL7YuOWf/W1GMOPOY5WhHn1FXhVJ1CF51KqIrSkPYcQwGLDZr27HK3xZs1SghaUm295KCf0dcbR+TzRL2VlWobcVH7uWKEBi6MDoCnGRCEBesCuO5RPJXwtQmCcRvWR8VzFlJPyVEwshQrHYJHT4Bo8tYvrqcvoPvQNl/CECf+OuY64Y+wtGPVllxz8c9exmrYaFDWJkqjh4GvdKGtGdwLr2z/OIo6Sym+YmOZTxr7wi/YLTuPOfh1YatUwZapFlT3iD3x7dXE2HewfTI8fP5z+6HO/N335S5+fvvONr07vP3gwHR/fJUj38TMvfhpvBjiHZouNnFOC9HI6dUyftg/uTHd2OZ8E1w2oZ8+eTqfMjvrL1acyt/d3plOCy7c2vPiyy96L6Wtf+eL0vTden372535u+uSnf3r65E/+1PTaa69Ne9vwwQnOvAeHB7qAf1pPGzJgyzOMY1PVU2V9IZmJ3Nt8k6d9xPRBSwXJ3xGNlD5iWWbU60MYpU3CWgggkwfx4md9G6hwa6rU8kfVjYO8ir7wB+MbWCmqprjEV0tS5dalSXZdyskmQTCghVTCGtGjDJbdTfIRUJGoWpXamKLvDjUqY2Z15upUNpC0Nw0vQ4sqGLJtEWTL/wBU1kEks0mhFD4dbVhrgJmUo+PqiYQqQQyMd7NQNS4AFO+wLufpwNJPzksqO0oFJbSthTtsQtHuJDF+Id/MDV0FRgZ0xU8+yleOM9zldEZH147TkyfTt//k89Nv/da/mr76lS9P5+ykPnv0hI2A3enp42dsxEzTwdFeZieD7ZpAlPcOM6DL2sszXugExNXKBUtfX4p5zvLSnVOvGTu0lOecZ519z6fLRw+ng72D6e7RMfJOpy/98R9NX+f89Mc+/hPTpz75k9OnP/1T00c++mNMvvBipnTp6oxZRnkov7SvtNc65VhX70UNtCpaA/xRy7t4hzrbTc+SBPHpNppvd5RW+IyUTJWtwp9+bNVaQTSPwvN7rWfxFypdvi2AI12y+TIvTEHaZMpKYJRbz8BXhLuOUlEqRBqsQ1TOhqgZRdjo63RkmoiZZf0Kc82pZnOOiYjwqexQZp4Ba0RTroGt44LhF/lQ59gG43bwFnhyApFJymiDVO0AEm5BT21Y2oh2uoIoRlpHTugyglKDzFpMQWyRv0ryHIlMnx/Y2aK7umkD/tJvPQC4KChdyifxTxiphTQRUzgI9M8xI22h7ym4/LQd8rp8gsRzbHneOT6e3n3v+9M/+2f/ZPq/f+PXp7feejMbMHu7+9P23nGWndcEztYu54UE58uvvDLduXPArOXbGQgoRp2d3QMChnrs0CbEcOmDhTvPZO4QnOfO5BzTRtqmq/CQcXXK+ecJS9F7947hw7zHptD3vvPt6a3vfW96+MH70wvMnur8V//qf8kO7D4bPHulO23kcrma1zYrX+SgZQHpBP4ZDJz8rns9bxMA0B+1xLUOf+hzZ/400dLG5d2w4kvHF0bQ/Ir/HWIQmt0JADsOx/ZPz00rhTRZeZBQMvGAHjlflEPOlVW2UMoeRWjToJN0YfZcXi1wZSH73cgxWCNDTE39lxLg2TBJ+k2PhYeaOJZ6wl6BEp5uBVKfxoRfdWD0jjFgpFoBaJKDHVCwnbsEtV7KXPIGSWuvBBlxtBE5Vqky2pFRNdDKS5GkUATaKGYDH1UDoQ79PepqOU1hlIf06Nf3cxpQ2m1glkUZOyLHPiapfkitb3MjX5sgXlZgE4WZzA53cHg0HR6x5KP+CTucX/jC56df//Vfnv7oj34X/F1ed3LMtcWr6YOTx6zt4QqeOhCbbNqcsbFznl3T4zvHCQ751rOG+hpPR0EC9YoPAeNu6gV011uc9+17OSMLzeipx69ZzrrB8+DBwwTjvbtXbAAdTVssb1//xtenVz/yGruxD1jGvjH94n/116d9At9d20PsyA7u8RE600/oqLsEaq/OypXVn2o9EWnxqe1e79yNGnwRiPh26Q9FXbXxbLJ6d6MGmRn0CpFvBx2RaoAu7IWeFlvoC1GSGVb9xm9WEkPYHICW/5Sk/m2DPycD4+FsGiaVYQAnhY7IbgKrhsxoNOfFHcFjSMozTtbylIM++JWcQKCJjTS4ASi28AwE+GQtd52XqJamw9XwcRQPLzgkjFNl53L0h9ewpbSrcjZD1C+4pUsHSFRZf6FceBlh/pdpAwM5dloHV46p13b+dUvYz7zUwE3RYqBe9UY4EfyBG4KBWWqPpeXZ9cX0ZTZlvvXN19kYOZv+8HO/P73++lfYFT2rJSAr1ssLrgtyQf/60hNcNmJ2e2nqG9lcxezm4v851wsxIDOJM/nFKZc5UHRnl+C6YsZks+rimiOzl22o1u7d2Cr9Ts8KXmL+vNrL5e329IyyNxUwIHzwaPrhm+/EOa9/5SvTe2+9M/38f/4L0927d3MJ5aMf/eh0l2A85rqnKb/BAV1OJXAUwxdQ/NM70xSz604DMc4OP5ZucbMNl74jN+EmuICcfQibApy1/+1HmI9MoH6kMxvZ4qsDUAeqeAIfBk86Zdh+zMa079XYNc+phP1PRp1GtvttH7t6fZQrDxcPfSj0WluiMJ2ZUdn5zqw4yShviQNHNYsniqOsYR7jQi9mGbqco86MI2OtsNQDOKRGUpxY+hWt3x2Ia/qmdSgsOJhxmJz9hMvKbhh1KtYDo4F1LLqyb11T3JBKsNaOmfrSoBxkZ2md1EFnpdPgFsdgrxXWnTBX01e+8gVmvz+Yfu93f3N6443vEjR7zEjndGo7MueFz1gz5gFaKe2y2sluJgG3u8sSk4v0919+iUBk+cpMZDCecZ4n3gV0LkV3iTI3yrxp4JyAdFaMfCToM4PFwSG/AjaUV19tzWDCRHbBkxaOQnVv8tb0mB9TclA4QM/vcwPC7/72v5k+9vGPT5/4i5+cvvWNr0X/j338z0137t6bfuzHPp6NHwefSvAyytRyBIXwtC+wJDuYSYfStj5d4ext6Jh6Uqg8msIHtI3UAzPY1BflTIcvtD3sU1++MBArYMt+vZ7gHI0rF/86mFtg+gU4HktS16yPtgVzY40AJTBmonyNOiLDQEbDAYELRdOGaUTOZli+SL+zU5bbwNvb3I6lYQGVkfKsD4dV0rh1ym1ewBbjRoOB5gzVfPLumwRZ64TJcaiBD1d3Z0aKY9IdUWhlQ9f3cXbguuGpdNc051Ho5Z07cX+Ziz9a/ugn1lsHfKBEr5bhgCRcW3YZyR+xOaLeb3//zenXfvUfT5/73L9ld/PRdPfOvenH//xfQC44j59Mj7kw/+TZCQHP6Jz+WfbpJ6/EKNOA1PoLg4kZMB0SaS5Rlecljh3a6+rCTRtg0Cw/vVBeKhpsVk9nKoXxb2B60X+bGdUB/NJ3/wDfYql9RdtfoYcvUXZ+PT7e5qaBB7nc8ejhQ2bIo+yyvvnWdzn/PCUYf2L6qZ/+Gc4/X5g+9rGPE8DH0S/vE/JxKmzQDv2elzuTL+3IUFtBKCyOqDbQBxahSR9dml+iD02FJiffiEC/gV7OpgRdSvZSjUUvbSc/vBUcafyroLO/g4//JAg0HULViq+8kyiygaO5o3KFYNaaBhUrWRZ+iKznz5ZQqHtuudALkcFasxWKgCJWf5urYAGqnusUWonl0bLqaNERLTKjWNG34Qt/HSBTCGYepcEialgSpnCUrzyHyLncBIPccz1Rgip78yk3PZChYz/7KE6nbgTt9y93z8Dg6ZP6ab6Hjz6Y/rfP/M/Tl77wh3Tcl9is+RgCdhKEXoC3k1+ydPWc75JAUrq+NxlQBmRcQ976xx885PrhQa75uUFzduK5IDxYf2aGZEbzTppY4TrQhG6udOTVA520+bEaAtBBwWHXJapL00vItMvzJoP8AnoD/pxrn870e9A8ePDB9M4777KZdJ/d1tciY3dvK5dA3nn7bXaGT7l8cjZ9nF3ZO3fuVP/QvAykFWrtu+iYL22HlTObTuZTWoDPit3+E19UxUImbvY26AMSpqwNhaLtBe/Jo+HKG8iAHPh6Z95OQC3140O+zsWFV0o/tTBEpn8rVBr++mpsmNiJotjQysMcNPCQj4SjydJYcYSswpDOIA/ROGpnwQumGVVdTrAP2SFUJDTS+aGxpatxcaGVp4NMQcSJN6JjyQobhZJRS0ewtGgqymRkN9o4bhwgXTt0CMtBuv44aysln8iTi/KUUhJajjU3kzulBtYV52f62F3Hb7z+1elXfvkz05e++O9YshxOpywpn3CJ4oRLEE9z8zdLz9glZ32IrOHnmglsrxqp3c08Jxivr1jaEqXyQhirWlYXOtHZETgqsOta3cAlag0RthOSbIc5GGrGyyivj6Cjy6IHPOApD0tuzPg5ZTZ2uesdPc+eUQ8v69/94Q8JvKcqOh0dH2LnwXTMzP+JT3wCWbvT2wTmK+z+3rt3j2U59tp8qotffYtuggSQfk/nJoeWBfAAXlZio/eAdmsCLbjNLzyyBCx0ecir6pVWSRtMfY6bvhL54NgJR5r5R1Ppi0e0xXmapU1ClYWDDEY7tYXmYi3FwbcR55BB4Q4gm11CFTYu+vk+3WRSVP6aP3i1U009pGKVOoXfVDZzZLAMSwo6mCgVXS3LEw7RAOEpNnI49zmIXA0SjQpCllbmoluNDuFXPAtn5gdNSWp95VdazwyFDIL4InKQN/xQHOvbej+ebzl7uHniPaC//Vv/evr1X/vH3OT97elo/5jOfEYwcQ7nco/PHh2TWCHvj73oc/2NIIbnS+6eiVZjRM/5qq3NQGSgeN53fnaeDafDfZrcDZPMglDZJuqSIMbzyEkAYo99My+xIu9lETdxOthte5ejwYWfNsUf4vBxCatu+mWXdnTQOMcOqlgae2fPAbfpPZ6+9bWvTw8fvD894ZLIL/ziX5teJBC98UDbvd3ukJsa6n5Q2EFbdmq//UGJcvTjN/zRY24DEKom1csXwARyHi2Tjx/bq/gPKSmnXVdMGisg6UMLqgEjXw8zvvLnwipvSILL11KvnzLV6Hjc21y0mBQlBzPdGEcErpP5ONrR0PkJt5mtZoI5nBVG40t+tamzNtdKFZaKo3xjIJ2m7ciRWo42Qo18kpTl4sdJ4qVT2BNXKY5Sez6O9jIuFcNLH1RnWmiqQaWpET2qqSOgqDNQY1NkLtDuKAu3zknsjOj1LfG3mAW/NP3Wb/7z6d/8y3+aR55evPMKy7VTgoKdVK7lyd/fqBwnh6rtpEbZ9qAUU2lIZhUD3GDhP3KcoRqmHYpENOf0DHZjMHBZmQ0Z5Mh7G2LfFg57ym6+hSyDRn7N2sDOIDH4aBLX53IuLQ2+UOe6ZIGVtKcX/6Mr396Z89677013uIH9iEsd52fcjse10G9+/XUGoPPpE9xe97M/95enF6nPDu0++w7wzDaEjYwMU9yikiNZVrY22EjZUOzKW4/6CSIIOxALLb0QmLytl1e4prp6g3XCkEdWqdWesrNuSZulBR7WYwAoKBs4aTeVD6SEyjDBNsNGB44CYg5sewW0joLSdEOI5khYfEpUfy/UDVEDZ8CWWbNhny+WJL4TRDIOZmmADJdTc9IzEqycF2xhOsxAt1qH5b91rKMzlSl6VyYWB4idAZVkcCgNPxkdmTHkGVh17BDMX0Xvc4VnZyfc/XI2/c6//dfTZ/7R/8LtbB9wI/Z9guSADok/uaSxw6h7eLiXzutmyTWXLvxj9CTAvNm77PF8zVlKf2fDi2WlOtgWnruNoYT67NZR526rwV1B7TCWGzjQ3fNCk6/iV9srAjXBbOBuX067XJLY57rj5RMuf/An9zxWhdt0xw6/uXh8h9vwmAlzIzp0FwwoGR3aN+wIey30KffEesnlzjE3qBOs6vr2Oz9I3qXtX/kr/3Hd8yrj/qCUPjDBOqeTaUsB+t26qhZyaworv9JXxN8k6KrbiIs/GBntwBCZT11ik6L6Y05hrCPpx+oNAyBQmY5yG4n2aXThZWgFptfQSs+FKObSmHQN+l/NpAoyICLUzp6PPPgLg4VeGQkHQEJrJKt6r9tEg+GcjHHDYcEoAaHL0DCMUZ5VNE++qyzEMs5xx5GObSz1XUM1wKrfKpDBziohVFplF9c7xb06uD6RTiS+MixWPZCU/YUoUx7ZEWVUu4JwRpHpMx5V+pXP/qPpX/6Lf5qL6q+88hq/c4FMdiU5dWTZyczpkpOg02N73i2zY8Azq3oeCFjfWVcdo5a9cVfO5Co6tMF36rTOUrgcrZ/kxg4COzcZhNcVgcbzjgRIBjhtxHcnzNKObd4M7znlAbq8cP9eZlZ9k8syosLLyycuc71JvH4pi0spBJYzavRFdn5zAznOvifev3qxw4bNXYL+kvPJHzBbcg7JjOkOrLgvv/pqrr95CeaKmUy1aqAnM3w7ugyAkZ4DdIXNZpujt8dqyPAUI9xts2YcMn2cTPCVb8+q0zf7AhBpuqHt4dmnqDiSUnLpfnQiGFWtZhLRU4IxDHCuyslI5XAFBjgDSlCB6GmHNSpSDT6UA5YknyimHQPWRzmTNwgrCKwX5u1SpYc8uiPZOdVvcEFm6dBPdNNCopdTglS6FF6N/llSY5cGpkEdcaThU3wXuUIcdNSlVK58Y+Y4lPFQ9slbjqVHdUB9SFjgh4OD3emdt96a/o///TPT7/zuv0on3NryzhpGeSMp9iEVHe34viltD+GXBGp2J8c9nv7qr23kjmiW7ODEzsitQByqxU710Qh5iOfI7bJWG5xhyse2QzCjr3f2IHw6Iggd0LyDRl8ccyveHrOb/vP6pUHkTQYccmnmlI0mr3Em6F0Ss9x259UU+e7IUMylEWx+RrBeXDycXnjhBe4Y2p2++81vZCD7W7/0S5wfn0+PnjyaXtx/JZdovOdWX2WXPgxj1vjCy6MfRkAk8qWjsD1/HvmkPv4uUlo22GAGjxu2FRN+ibzu9/AqHPuEzqJd8Wf4hbJgAAIrES2zVElNiQvW8sWqZ+gxlBxVUX7MVAh0hC0lamSVJpsHwdOgEqidflSyFORYgBkyJKQ+qA67fHpdru+KXtIKhDgZDoNVWCiznB9WgfklTpwb5pZbNwCjt2UHGL9VwzTp6InSqVL+yAuWafs8+jXNzaNIphKu/nZ2O6EP7b791n+Yfvmz/4DLFp/LOZPX7rwQv5enG6oDZACgo9vh7Uj+uQHizeFnLBsNEi9r2FGrHfAROl6yKZKAJJ8dT/XEr8JMniOa93qmLjfVjqkmGpS1RE0FcjWZIYxTkDrH9aHk+rXpay7W38lS0yWqu8BeGrHOGXPnlRfDzxkxm0fMkg8fvDc9czcYprkdElw91IPwBSuAx1w/9aFob9l7/fWvTZ/9X//h9N//7V+izIPMDEL7+z4NojdM7d85W1D8FsVTGl8aQup+kAJREuioS4MDmWHAsxGUjiC82zXUQ4eiKsiHfZfsTaoPw/U2Dh002NvvNNbGMRmEqsKYybeNORrOTg1KGh28tcgQChA5xi6BLO9wE05BuQYGXSk1aX463mZCg+hIbfeiITHsRR6i5GSyTczXcqbs0440CEdnhsINFhAtH6mZWGwBA9YbHY2aI4E2442KCoAaNS9YVj5jK/+bX/v306/+8me5k+YbPKT7EjuLdHQUPeC8UD1z9xOdZI/Hldzkdhb3Gp8bLDk/gvcht5Cpuxe/9/LALp5DfJaK8nAOwn0OAglMju7E9oxhCOgDd2Y1zWV7fAtP94g61YV8bxpwVuQclX7gnT/O1t40QIYBgic9CLBDn95gE2afZxe99xSE3HAgji0JBTMey1ffv+O9dfJESe/WUQf1NKhtMQetC2S8yFsH3uHm91/57Gem/+Hv/E+8QuQVzpkxFIZ12gGXNBkNkyZ08IAZvDeTrV5tnVmqqz0GIMkAOmjZcdQjPK2yXfSfKwqrKYNT8JKkBGqqML4LBnywjo7URceWt0FRhcyMEkvnd9bCyVUQZRjF8igIjksoY1GCliWrRRDK49SUrSCZN47KIRUMoyLOTX71FXzK+sRUctbSCp4W0UskvzOTgp3OF8eiKPV1XhS0OFxOktV1nrJ91M4HdVg4A9aGubYzQvojbFDk4HkcnY/qb3/7G9Nv/F+/Ov3gnTfpsHcAEW5u/ZPz3Sf1hAI7n9lAgQB/2209Z8q5FbOM+ni3lOdN7sWmQYDt0DA5RyNvQipfhA86GMwuE7N7S33aBbhBmJWN+toJOUhdNrMHgHNcxqpbPdUBDQEsPwcD3xBwwCxGiHH15Gq6w1sC3Ln1rpV32YQ59b7ZBHydkxqw3sp3wl1DBrbCPP9V7riJr2Sj4ykB6zt37t27P33ve29Mv/Zr/+f0P/6dv4svOuA4quug1+YKBpgl4U99IVIJanDkFXyA0kfkJWoIqmLALSQe9J0dhhTWa9w1w2AMVrArTaFrfoNH+DTdEJv27Qo7iJKiV1rHzidHgosDLkyStpYX7RxRSlHJKueSK9RgC6REQ5YNSKKTOQoaPE0R5kNB+SkjQUWFis72m1EItJkBhsSiF84/CqunTk6AWg4N9jFT6BzttTut5TuGCvU/DZpaCUeKEnLuRN7zmFmH8pLLmrqkwK7h04fTb//mv5i++51vcr51SODYGZWuT+jALjndlGHTxo5OnEjNxou7lXRVAtqgdKfVIDA4vKFY/7GnAw0ae46mP9Fk+9rLFg6k6B11bFMHQGD6GyQHJ3UuH49Bd1c7/VT7IJLZjic24HXFOao0XhM1OVs7IOxxDnyN+Zece/c5+A4z5JaXbnr2ox29RGE7eN555oADb2dzzy13OZeOXejlI1vq6rXLR08fTYfHB9M3v/X16Q/+8Penv/aLf73VQ4PS0z4Qg6DJaoRG1gfpLyMAUB908AcJpaQU+cqqpKQWq0a4cez+EOUjRQSl3ZJoH/GNmzJWaSRgc0pWvIJoiT0JVWgYgQZN11LMRXaDAqFzcAdtPfM1Qx0iPXTQdLLbtc4OwnUDNVBworCOuplgIjRcyA99IRaqgKIJlg0wN8pgFILiYTYn2WQ8RxIaG4Pj/GOmnFeDzOAhLFrUd0M9bup9Q399kFmCTs7tYP/8N/5Jbm3z3MdOt0vHtpUudQbJWeD0mU/Wc+cKGxjFG1qnNng5Qx1Ck+UqfN20SQei3ksc3pLmPaDc2Iid6ua5JjYTxAYlXxQN6rI7AQ8fZ0Zx3J012HWDljhQuhRUxj4X5t0JdQBw0HGQM6DcrcnLqrxOx8e3yfmr1Z7XHXOr2wPeNKD+vnYj98a61CYIHV72aXcvaRiI1tuvvBXwgoedXQp769w+Ms5P6/x4h0es/uD3f2f69E/9NPex/rnqY6N/Le2g4XFn/GfWbuWxbjkzUwhp+4qSDZqiXr6DB4dBNiqqnyxYSy6y+Kq+WPCSWH5dMMUxnrq2jzThQmyAVEXFR81cAUGYcXdm0sEovk1YSsYAQC0oNdC0OIPeRsqFf+A9o7bhrbBBKE3xIxeF9K5QjslWuXirT8aVaqwh0w4VXI55ogASetnQB73SB9XDfNlfnZYKZOobdbQTrZN6lc5qSkq1wVD6aaPX2f79n3xx+sqX/nh65VVeVUHnumYayTmfMwfhJ8yNEfM7zDKa5yaNwewy1sCyg+vPp5dP6az12NSuDyqS7ODXLN+cnS5YynpHh5cX1Ac2uXZ37a7p8Id2POH81Wt7BuIZT2kc3xnvvUELzwM1RXkOTPUwMjOpbsQml7cHBN4ON/87QORRLQcIrrXUnTr4DLz7vCJSfxvk3jF0gm7aXSsd/O2dOMjIpgy8727fm854GZY89jMLI3/LV4HgE84nfVPdF7/4+enll/4baLgjhz/T0n8c2Ku9Audrvk6NnCR9wCc0HLuvV6UuqroekKMrpEt8NObNY9ky94chTkemW/BddWt9ta/6oTiSeMS1ReJs41iNToH0mj6zHMD89jyouBSsShmhyeqcFmiNGJbtqoEbTPybdzAlw5dH/3UCHaD6f6qal3xS6ZE0qIon5d6ksC7LFDDiTBjKI7xtpNJkYRBlKMYhOCXLthKVTSJoooh8Q92SlSSbLkfDmW+g8PS5Q3cYv/PNb3BN8dF0xAzw9NEzejV3yTAT5RyP5eQ5S9NtBhHPr9zlVC0HKpeE3i7meViWnMx+R3TCbTr6HhfdvbslyBLgUN/4dk6g2Hm97OEsen7Gy6ZOvW55wJH7RKE1OLY4vzuAt9c87zADOfP2nT7OWNUJnR31pTOo57fCbSOveXKpAj6Hd49T76zJGAE/Zlhs9waQXUYHPZOn+vG9g4dl28Q7adTFpP/lvcWN7Me8i+cZbxC49iZ47c7TJZnwkTPxWNZD3nb3cHqJ2+WQInGaqNqi+IXp+OoWsss7Rro/YFIHbfRTASl8qQvSwOu8x/LL0vLha4UDPqn67NBD/oGi51ynlMKNPLKrUvKumTDNmW8wsoOC5UaBHTGFsKRealuFVMLVpWaPANdf4OU8sZBnyaAvSVZxaqmlcyrXKCtXR+yKWD2GgwsbXHnJ0tYbaeG4cNZVjv5tQ2wavOoSixjl0Lq+2dxuHssXDZWfmyXuDr7z/fd5FOr7uYDtKLfP/aZnBICOkOfZCfeK0tl3fPg3slmSEmgH2ywNDQB42PkzLjBjeEvZwS5P/BuUcLFtnEW83/OEZe4lGyQGiR19H748+8tIKx/xryNbvc55ANlb115gx/KIZbHBfnribMrdMmO30ztp3HCpDSCuMR4cwbtma3U2yC6NQJfMzLBb6HfMi5JNWRozMBik+qMDuG/LczY/YhAw2BxE/OWu2M2bDByPTnjdZNqG9/RcnD8DD9t4i4G9cc/LG6bRlMIQ4rcOaXDRY0/gS7OLNRLeC9wvsQrJ7/SJEKbAV6W5r4xyFkEhkLroi6x7zkyIPtUfU4Nenja5+WUqysLlTINRqBVCwzDm6FMF/vWIUOhDWQrGQnWiBdbGrBWXd64tyU3+5YWZb5eHXRETBYNX0EFSflM2n8xqo6J4hCr8W2ePpuhp55iDFLvotM5CDgBumGir/52yPElZHsVHBFcM0s46hU67ijwyQVenu3dfmB4cHOclUda6UeNa0qDY2arrZs4CzoouAY/YdfQeCZ+sOGQ2NamzO6ZXBEfNJN5RpEo12O2xebIfnQwg2lI4ss/PDrikwqsayfvGgNxmt1eDgC+pevFFLrKzLtLEi0vkwvMMfK8POvN4buuMbTrg4v82tPJPx0L3Sy7NKCevcURHg8wVgbe2oXRm9TOeNsn5JHR76owwfWe6YkDyHFpbtxggXN7e5YYCdcrKAuSteg4Kuq3pO9/61vT2D77PS5ndjS4bhVdelDFwATOlrfFFxIo34KlrnAHXn3CUqFraLIhD5SUPvv1ZXwXIoTwo1wFc8RZp6UeUlOefqJ3EVwGS9yUNPmO26Gk30mRWTAqpOTRsKX9YLtfPrNS6oWiKN/JWi6OywfXLk6DglR6iWFnLi7VFA60I54Yo/PFNh20nhC24Bo6jVGTqzPqP05bCBpeqc6CTX5QmP47ys7P6Sgzf0P1zf/k/mn7w9lvTez94d3rCs4g+eb+3z83R3BCdW/SYVfYIOme7u7xDJtf/bGxmO9/y7QaK55RX3JJ2RYd1SZfZjQ6fzoXcK57G8A6d3cxM2GRwE0iX7GAesRvqPaWnXFJ4xOs0PK24w1vGnS259MfN2LyEmORslg9P5tf1RMosodUh590aCt82V8Ovx3mrw5idGOU4j9zP+agPK59fcE8qeM7CBwQyIsLLmVJZBosDzjN+jsBXTu46W9IW2cTSpdj+1FkR2w+x48G7P5y+zDtbf/zjH59279TyWbX0ue1X+ZhDgJCEB1iw9XfssK6T+pMM3fSFUQULrbNb5JjANz9ihOwcmG5u8R+5wk3S3ZYiupk2AkBe7w8RX0Z4IhfgokDNHIUvdJUsDlA6Ic7tmbKwqjLffGWEGORxkuTCB5PqXLW9v3Xt2wHc0XOk4k+vlIujY0ZX9eRTDlz4KEL8OAYnRyeV4NNL8Yxm2CzYCvpJnBgpLMPKG+XMxhHFFKrBryDLd+0+g8Mm7f37L0wvv/wyjwnxcC8d+c7xPQLpYHrE40IfvPcuyzqf47s73WeX1SXenktWAwmdd48ZIwkwzJ8OM9sxiyAzZeD7nGe6HHUZ6jOJbtJ4a5qd/JqZcse7Ytxoccbf5aI8Sz66b5aFR9zhRD4GSAAAQABJREFU4hLUc89XcnM6syXPOvoy4203i5Dn5YwLNqAuCXqXhglu5BhIDoS+ztGBwQYU1xvPE2CUQcv9sBeXXMY45IFhBgvPgX2LgPsOOwxI2Z2l5TyXdpnqbqq2ZZB1ZcAfrCJ3NHv653944zvTgx/8cLp35z7yMj6kD1Q/QB18Y7I9059tYeTOE0Jqu12r/wgKlcHrnwU7AikLSVkEWLC5/Sk2avXdqve74LYfRq1oG0PQmmfj+IhaiCVMHswYlwAo8ugmXIwchQyNB720lSpXwshn0Flw1wEbfk2Wozt1ZuRhk3jpoVJuvoWNasUYXDU0iiZKWHhXY9q4xUkewrCx1As8doZ9jXlVBw10IkSV1PfXIB7mNK+Vq0AUx80SO7XnYRd0aH54hun4A7b8Hz96QG9lKci54Ysv3JteICCdGX1K44AgUifmpcwouejOrHLN4HQJ3MGJMKXTMUjZyfjz3DI3d+s4fWMQkucixPTIQMWWO95ux5LQ884EPmVN2HX3kh1Ub0Hjyj1LRu0s3+2h/3v8VIBBf8Rg4WzXv2rlQFfnhMri/JQ6b9fL+1GRfIGe7qIeI8fnMs+IHO2KTzjmkSqjFjsPD/dZlsKDpztcJRhloOQ9OXvY8vjxI+z3DXmHvCH9CTvUX5o+9uN/nsGKwQDZMRqZtmB8r5/MOduNAKOYWo8fmhQayoFhUZY3k/CRhsSUzOuX9AWOsluhBiciBu1zBwi5tIHy/QkGSzcclaguFnC1gUp0CVHMEAU4YRzngkfjXzFC2VFqNlxUUk5pC42jhklYjuYNltJHHarKsggI4mjWckDJMwINGrHiQFj3UkI9Cihd8yzZmXGR6SycyJPP4FEylVOS5FJSm0cAt36BkXO373//rejq0u/s6Qlv+n4754R36fwvvfoKL4u6Px2wM0q8TccEVR7CDUdk2ilRM5cquLrP5DMSsx/VBrqzkzME0Zm8nV19nYnV1ZcW5zIS7XF5dsRycC+zcZ4swf9HBOIh8t2wUbY7q/rLWc7IPHj1tZxD6ieXjeqSa5AEe12qqLWGe7sMI8zQvh+VyzooeMluhGPaOctZ39vja3LcIc7Lr1iGZ5mOU/eZDnx2sd9EsM+s7Yx/zHKe9z/yaspHBDmBfadexvW9770Bvw+4XPQRzjmRgS7qlJYajWYfMoBts2o9Z6nKxS/a0w0crPTggQsRPJPEk8eMS8F+yUG58l8mAKuEBDpoWiZg0tKXxOlemaxC8L8oKj9gkiyKF4lxCNQvsWdMM2s9ra0lwTDG+mCXjMJf8jMxTMIHORU88m05o05ijRWXrB21MWIWhQS/R1HpFp0L88VA4OLaYDEsvAKEKtwX9Qs8f99gMsOXjDwdaBzp3/jud9LBPf96xo3iNrmz3au8Bv+1j76at3L74Aj3ubD0tFPRD1DbGVDtTV4K8M6ZLVpK+xMsqs3EYDAalJ6nmneGtBN6n2g2YrhM4I3c8tthFvbCenZInU3ht0fAHRIMudAOjdfwbHuD8YzLIRcuicHzSQx9uMuooRyD+YjNFpvI3WO99pilpktdaV1q5xoh9ef73HsKvi89vqYD7zujMbJcnrPugVZ/eKnF/u+rQujl2MDlGZfIBPddbot7j/NFZ1NfmPx17vH9wh//u+lv/M3/FttRK4Fjg3Xb2PpLqZeo1cOrZ1Rt4cEh+E2z9DsgGngjBWSbKG5VLZ3t21qYcfCfy+FTBKMHA9ms3XWUrcq11JZSyOK04HRgipnZBtyFlTzEtmHsEHaQUtBOlIrwyADV7BdwJqZcg4yg4lG+0NFFMM+mgSApL0ihQMpsMfQo/KLJLWcirGS2w2cbpIuwFZI0pJvuLOjmd+kpjNES2+Xi5GKnfP+994AaaGxYjGt8PvXAA0ncPE1wULeHU1ymeh2RrshCxOuOLEjpnBnfmfmoig1ezBYnF9yBX/KUvc9OHjC7ZRnOzHLAstKg8ZzP2dFNFJeYXli5JhB8OiKXTygfoKyXOAzIbbZybTfP75wFfeB3B/wdzi8Nhm2CJz++Cs09Zi11yI+wYuxdlqQGorOD108NznP0d/PmANlPuXxi39jiHPSIz6P8Mhbnmlwe2TncnY54E/oJ566+TdCNnJyHgn/nzgvw87opNzVwI4OD2je+9tXpP/tP/4s8kN3n6UaHPTB9VVeN9uz+ikVAhdtXgqk2A0ausimvv9J14T0nEYMba9I+yqrPjFWZgdpy7E1LkomfSEiexYShZDcqylJ+RaQg6jeSqAKjBMegi8foAKweaHW2r+XDrEMYrXhDmuAMwiJnsJZbxC41KW586YSYw1d0ojYwGwdG8l98KebgmQpZFX1Uszin1rPsKnDDZqRbMp4bIYN1mZ3LGdIZ54gZaodO6O1kx1y3OyDvjGEweuK+w8CiSlmqahNKewPCDkd3LK0zoA0id1QzQxE4mR7QwplTft7In0AjgLYI+hM6r8T+QM4l9efMePvKZYnqLKgevjU8j2wNJ7gSii7g+Tbzc3AvGBwMti2Cx9n8/NHjaYfZcd+Zks/2GAB0yCWDxCl2P2Gm1L9nBPIp584fEID7DEjuKhNhLJ25BY4/n8g44od6PF1wNe7lEm+jk9YZ3FdVfnDxAbM1y10Gl7d5JvQxr7U84r2ruVMJzAQb+mtCtz9ZSwzaSxta72qwJqEgQMsfNkmXTlPgze/uXCto0ClLF1qY2EOUET5zQcBmKnbVzl3jfkBS2Eh8I0UIsEz3CItgWyrcIlZzo0EpRWfQjwWVMnVCbkvN37riBr6eSaoj/SspzVNWFDIEPfIVhhwWA5u3JOVsaktI1CoavhUpJXWb1ZYaMmOvMq1ng0ajECTuUF7w+sF7dNgdbmu75NKCmyj36XT3vGxB597DMLoyndBA1IsqgpX0FM9InNGiAXi1FCXgCJ7c6QKs7NM5NZO5JLWdvAsnL7JCvptCXi/cJuCunS0pO0vWPbJcvuDm9exqSucSkb8rBpNrrvEZFL6KcZ86IhYfeveQl0iQjUN3mCkNZgcCN4rczNTPDhp7bEx5acaZ0mD02c1Dynv6g/NIH7+6hv9DNmUMPHdl1dtAd9m6deYbA5iNsc7B5y4Dyynb1I+w4fTJU37T4+H0au5Vbd8rW//XsaEOONUv9aR1CCAbzxYIW0amiW4eZXpLCiv4zxPYDTx9WS34PLG0aLNRUe9NhYlLqbQ81aXoCpGh0qVQlnU2V7QYCoJWYxh0jtRRyHlWJeGrN0kdNHYWY1nucmi4OGWL0EEkF4pjkKQTONOKB1CdyMdgy+gkr+IRtPmrOm1LFFy2eSeMdVUKS76sV/tkkheyWFkleTRGQ+TlyO2jUxds6bu8clTfxg/n1O2yc+hvZvjKfbv9Tmwo37o+cWYwOB3J3ZRwiZmO7SaLsxSd1FnWgHV5KMyL7S5h1cVZdcc7bnC658xuhhjQduZsuLAczQwEnZ1/n57vjK1ffWzKASFt7CxIEF6zbsoN6sgQXvZxvud5qps+Brk0fLJETjDoT/4INM4EGRywk6lf+Xu87e0C2bsE8MsvvshmFuesBKd9wlvyGCF4GZdLczd2mCGx0/Nlj3mEi11p36n6jBnyO1zm+NTP/ky7ftXu1QfSF0ftuv0NTts78Tc3vIh4EB3DyONI+rXoy8f5Fti4oz79UBpJscdUdCWv+tPCV0R1rP6v/+gfjgoGRyq7e+HAmSGwnAc5ZKXzRBMJghKBuYpegRihaZxSKIjBrbJOWKu0LvXI1jRIGDZv8lrqO1cdQocsSZoysmGzUwc7y4XVGGttGibP5+UXdBNuyXOguE/dAbg8PPE6Go1nnptZ6KIMNzam54no4HZNzYQuV5ktDRBwauBSRzZ43DxhxqqTimsuh7AMBYdI4vwKXvIhn/rB2/PIaz65uZp69fHGgnrWEFqCLBZzVJYB6s6ssCy1yRlwNoKdxgHCpaqDTe7OiVhnROSah84O5vtgi4dDDsM8ersf4O1vzqrOpnc457y4uJcA9Md8Tgl+Bykfx/IxKx8Ty2sake+dQfo1gz7B7APImTWVC55Jk0tnddUdA55av6rcResTCIJVd6QbxVAJy2fw1NemWJl89yPgVTUoGsvjZioW+msmcBe5OmwaY8A9ZG4iY16HOl5Jhy8BkBkGxAmO5EOpmp1wEnjW+XkuyZRkVZmxlPLMXdM4SpCX181URmBMFCqG8srIDnKNOEVVOg2hK0bdGBujKDxa/Ar1uWzpvYkZOeij2s5u97gd7uG779DJnK24psas6OZKNlRY09HNcxuYv45MP4SuziFZH2YmMbTyvlSc6FhowBrE2u6slw5FJ/a8cpuln51+i1lIS91G2nFTxSMzXWZb6OXnMjWzK7W5gUK+4hFs1scByqvGThvmfBG5zr7e5eO+gIKyfI53yr8uX6Vz2ZrBkbwvJ7bLuIxlkctyHZ2BOysyTea2vez4or9LedDBZXb23lVkeSeQNpzy+5Nu8HjjuQNCZnv1INn9NtqcASrnisD5pw6/mE9nYt0QshBJLYswUefuQwWMFdRtdkJl29D6rUgHD9k0v2IwvjcDT67itSzZsRBRBxUdQkNqeWE+QDloRDqbdEL4uoF5CyCk4VkXqwtFumpvmTimD05rwwMa8JYXBYT1Arn4r7/LpoKsbel8mYcxzur6WUeYZNv5GZDMxlf4jI6wrsgyCLiz0f0X70/f/tpJOpPvxPTie5Z2bskgw87vcrKCrNTw9y9UwPbIZg3rtQQpuG60dGfykkBsoJP5gLH3EtuwPgblwHkF/jYB6+6p534ebX6v33qPbDp6ZmZovFEgS1pmTejUzWVqPYaEQ8AzeP39i/LrmFWwM100/iKPQn5sY9sy+pG3jZW9zTJ9i2uD3r+qHi6f99ggMrAvr9+uAQg77GOeG5+jt/wdeLy9z5l5jzetHx1t55zRa5O+Tc4gtE7dHDSUZvC46osOQNLpo2fpIsrNFBzMtQssqWPhBjT+j/UL6nM5dVmnTR5V0zB2yON5vU9CLN8GJY0lSEswVCMdva1PJ2TNodNz2WDQlglV3w7oY3gPmY7wsnaktD7NaZ4WU0KNbiUTKSoRmS6VfcNadmjDKwrKeiP1kAJV+FsZnVdYNSo5g9lx6HjayF8SeWUuybJpDdMt0txIwrDD8zjfLwp3Oj7PIPL7iS7BvE5Hd8kSLLMZAZLlKaO/P/dt8Nlzs7HDLJE7XpgR4gW+fBpD/vpMffNN7NasWd7yiQpnE3dMc6salxmYRvABdsQ09S4/6hc3beJ7BoHaUZWzy1StQwI4VwShk5YOLV+qAbOq9gILYw76051hrkDknFhbYARm0SmevZ5ph4D0co6UXkbxHlpvhHD3OeeYCSJl1rLYzTDvXnIWPj700S1+hO4pDyS7mWTQKVu/xP9y1TNq1W2Etja0abihCn4XpqrGlKXiQ3JwhYd2l+2wFDBSWdUlndY+apj45hWI/fQBk3a4XzCUboeVtjpFYZqTiUgCPzFKITIIhJzczT+fWuHna4qm3dWjWOP30SCkCcNeWMNv8mu4HWJJje+xnVCdpmaYNe5C9WfNeV4kR4P70cP3udb2Aasweh+m5nwOJZzRDEnPidzAMSjVxRnRJWAFp7OVmy8VDGjv+cQcrDaknU9ZOcJL+w1CByyHNWdo9civUYFoB3CA8Hw0d+qExhnFSvRWR/hlB9e6cB+ecLaFQTo3Opmu7L2B+E1g8ieNrZV2gm8ChGMonVkRlWUtkb0f/USu89hjnlgRz6jf5pzTycBO7m123nrnjmx+2k4/iDP4w2FOkTv07jmprl3LrCEz+pxpXuugmis/NIPiI5nb8FdX5LjgPQe2fbWZpO65Hc5CHGGLkaop+IaPH6ePGoE8CqAhQM2vEtkogRVV5XV84baBQYmjpE+TgYNT+djQYZh6sklo5FXewOhgdNbqBzUDqK+cSh84UlBGly1Yr3xhbq0LiJbj2DiFGaH1FfzyRUPlHQYN4FjuGnjh6SsqGOnoLG/ydrP/541vR57PhhoEntMZYEmQ1bOS+soQBMBy0I0Rg8WOnJkSeIKHQIWxKuejD2MrUWRn8sbvdP7mD7YNfYfbyPSBPnaJbEAGj7Lni7GLozyUVyHeMsp/US1f2uoOZwWYdsSfCWPq4OEnAT1m3LS/y1xx8YMcjDRckV/t1oc+ZnXgParuRFO949Ic+mfssHrnjvb7eJkzoT70YU2XsdklJlDTfsOtsk9a3FzltN+o0mjkRrcBT76q+V6Q459V2X6k3ws+CFIo2CafmWEy0Z1cn3/Hd6O9pHMPYTNRKe9NYaIsCoZgA2GwCErcPQC3HQyibszbcVVMg0t5mIoW3qXDrVRVtSHQhq4IpnJFn05cgIHfHG3Bzm+w2gy8uapxq2PbSV2iytqO7Wxvh3fzIXfUwDt2Se9UZBmRteQHPz3UmVQ6BizPA22PyCMI6KwORY4rBnWCh46aa48uZ6H3lRb6z3x+VTdleGXmZcY1SOSofNeULGF90fRGICqPavl4rlniyfPnJYZ0Ru1LRbWm/LQ/Ayx1ZGqQJTi9tMM/A2YkZwnrGmAP+Tn9QD1vWPCdOM7kzu3a5MbNqUvR6STXGb37RrxT+Oy7YZW+Co/o4XdpZDG5pQiksKpOXaPiwNxAjH3i3ZZi+yb6bWg3YJsEmdhWunZ2MxiHgtiazucxHTd2YMCwJ+cfg4MgB0RT4NKkZI2dzw4+ECi7/DUJKYzKR05qKNtoNrYKmGQR7IXzzHUoVXfG2RngCm2PYFKGFjz51TK29Rmyg1MaOWebxI2mbXSBN76xJmWPyRN4zkA+KGsQ7rOLygkR2/iHyAUuPsslqbLTN+jMu0z1Q4jFz+IoulYNuQcnwWnn3eZ5qm1/+4KAywV8Om5bFH+n4LknEgk0B4j4Ur/S2R0ctFxXuXudTQ/0LT/HW9RpQ130l7lLYHk7S/GVwCpM9dRrNYOLm/PaoZB0nic6uBjWrmBcqvfsbEjnUTBg+1xPPdz3dY3MgOA5cHj+fM0y2RvVc+4LzB/MOfLc0TZy0AJnebAglvE1FECmqU6vRLXn2BaB5luKdep+52B0WxLc7PHijFLoS3muWOEIC62szazQaZUa4aqxQACpVZB5RlkpICwFpC4O0tQHkNBm3AxStlCAWUboG6mCJAzGV21JN7N1TYcKjQo4/Ea1y6ykoUTVFW+3tdVh7bhBNg7WF31hBr2/xrHqE3Rdgwk5S9IUOoUHn1x3xL7wAWLKR7z8qUbCXrqXv2sp57LQeYAEe+3OEcosVSkIk09FKHADlg4VH3mkkbynVXtryY8e6S3wdRYE7vldXcIYM2oJKX35zs0UEaIgU50FUpEBQHQDEGYEBrD0OjzRNES1OtVyuvqElza6teIz6QwcaKpPwdK8f/DNm8mvufDv2wHYkfIUxb3mPQaOq23vseXZTn8+HZtcxp74VgLu4jniemVWIwa8fRle0dfBRb1nW8dyFqxK4o76AenDHIQgiDKXG+HPeOzT1uqbMHE0LCWjd65KlQE6wHq+7LzpIYWbZRREpXxrUh2lla0RZ9QhxJGqZqE2Ht5xFA0aUDVamQtdo8VBLePmsZAyotu4Oqvxc+QrgALWrIwpFA3F2D0TNO/CXRQADTFK6prSzW4zsDAgM2BmudJJo9Jo2O0c8IQL/d5Vsu0FRBgZKKqsW/1k5gfgEk4E/4IjLgrn7I2jO4rxP0rZNkx0LO+cnerBYjc7xG5bjZ9W1KVquAO85FYycfIUBz6wDTy/1VaDViJXFeLT+/3HDuVVSKU9WTZnZtaHgtVHdOjCQlqSnpL/0umgAzGbdPjM+0nrDQvgRn+QIXA392if10D6xAjLU22/w7miu8Xa6J3iedKDpfI5O6z+UM49HuJ2oHGQyF2845wu/RG6uTEhtx9EcV4GloHGYpKIS2q9057Y2uUZI/qE2Qy6LbNJhw+wwj+tUa/KF6W4buolVQUeVuMVYhjSiDZkbJMFjrNjCQAceLWOrAZDs6mnLCFJGbCuRh5lGFMPMHKDFjwd0R1s4SlvP9UJZt2TEW5Cz9AqFHnUKbNpzK1TqlYAy2tYcw1KVwpM0DnalvrK9M+dv1xqQK6nZF6O0Mn9i1IS+C5QHw/ao3Pry3qyQm2d+SoQiaO4xLJ8ohX58h5yke9zi3WHDLTo1jqIlllR+/GrSzmD387t40/efJ1313h+mygpPOnSZUIDD3Srh4ir3lsSuk1qaQo2OMaJs+9MD099EYA6gKMeea8S97xekZf3Dq+K1D7iET3QhTWsDzLn1R8+lA1eHpZm9tvjstAzAvTM2wwZRLxqqm4m78jJ6EHefunGWAZLeKftsatWRzFQI1fJggqYNirgc6OcemCb4CKVegMf2Rtl61EuaTMQBenGmhktIKGXRL6+wOuKnbJoSUC6FtCxWjx0imKOSZUs2p1sY0/YYQXvYexg6a6aspJCQHkw3DDghjFDSxxe/KUXv2iKuUaVZmaQDKBNF2LHgECkkcTpvBSkdf2odGZoNHnKISMymcgAJqr9wxnJW77outjv7EcwUKeNCSBhyKidVc7hPOfzvRrgbXNTefvAHeRoJGPtJJjcbTW4fAWjd7DUjqxo4PBRL/0jfz8uAXO+R4PUkxpVR2XaDCqJU+dMaDkw6usnx51F4BGfa0EFmu0rori+SsOgEZQkPhkDxiSNgPyylXHjXUPYsec5aZwGknmjElQ3Z/TpPm+xOvPxKXTxepy3/W0fsHhl5rzkh3+cJQ1HefSAI51+yDH9FIZRg15Mti2AqjQDJoL45XcxRke16rlUNkXR5+oWwNIv17CmBRa5S506zBs4Y0EzlhOLcq2gZJ7Q28DJcyzDKWn0SIorRcDHQPxuW5ahHPNrsaAHb60RDr+pX0b7AVS/6molSLCf1kfXmurccc2pHJDv2eGFO3+rIHXrhAdKyQF2WdXJhq/gHDhdwVE663wzm/diXhNojuB1XbGsCA7y9I+dPNry5TJVZyWQCDwt7JHd39wQV5iBmFdUqLeQHM0XP2dFQm5MeraTS1sCJud96B5baXxmG+8j1UTnGm9bU4J3xGiD7Wog1907sncBPmxWJm2W66YEVhuRthdVpvpMmyKh9KzfGBHOBhSXe3wBsptv/kTclb+sBbo7pjz4mOXvDhs3l9y7us3dOL5hTt3P+E1HrEM9datz5OjL7Bof6jfUy0Ya8qs/oqtKDvUdTDKsqCfchist/Klp8bd2hkFoqn0+nDyTGNVrmsaWZ1ZApazKoV7pOxpYVKDxp3NfKw0ejRWlaJBgwcy/25NwR7eSETkaIc34zHSU05I5ztDnMnKcN22shV8Ze1OHm+XClaRT/AmamLo2zho+Nr92XpWbcjk2nrOdz+c95q1nkTzEOyN7h4WbFnUrW802sYGO6OaHtOXDIppdQafzHTAuc7wE4WUSr2+ke4FqOBnAtQzCyaTatS6YfLwkYWfxKYz4FxwDbZ8nIdTdHVXvUjHY1L82fKBHX2cynxIx5RIIvJRi3gDOE/p2j+hiu6hjDSbSCFdmXV+rPiTI5TIXKLjpm9dq8AZxXyl5QXCesWGzza8bnxGw8j7k/TwGqxOnF//DP/NI8Yzvbbn810DpRhesEY2m+Iqq4ROPUWgoxiEK9rflP2uS74cndTB5tN/bZqV7wGOZGuVg5NGA4VCNGRMy2iSQEpVFuP5WhepELc5SdTZr6lPfda5RCtlAnsDnbvvoUPJCApXnE86GKmx1gn8IzpIa9JAF5iJLGYyWjshJaLEgBOLIqkYmO3FajO+ehTMT2XH4BIOj8mdBDEIpWxucqkqedVBmTTruMzZwcr8nnTIecNkPc6UbRt44TgjBw07NnTF2Hgo1K4KbfHVqA9ZO79JO/dKQ8M3MAHPHwz4fiR1KNLCpcGmW80qWzgaapw7aFjkEQ++OZiAjKC599aPLP2cqOr5PS/jaDV8w5YaPM0+ehSTgfNNcXgwFT2f/+BP9fG2/j3v5mJWXVlCBpToBzK16Ozzs6tiemY2jp0SZ1RLe+t0zU2dn/OKHepvTJe7OHoMWeFy1zRLaHds8IULAEr0JMi/VuPrKb7rAy+bPppPnqqMvXBPkuSabAc12WfoLBaR/eCoWSx9ov0vhUrrK9tfyf3PClNGnCmIbCsu1WY5KzWs3rK4qO4m5+jOgKgFPp4plAaWTt3Ez/UCPmEEJzsIHOdLwXyP54Df4NHUd1YH6VaoAKdoVeCVtDTWvuaZNPjN0LReggWGqg4AqZJagU6y5FM4aYhezEVhyMfvYoZ0d9KfXy3bsIDYQ9RXE0sql/UM+7LS64M4AvjoxRwitNsCyOUM5QWrnA27SY3bzMBKfOl+ZAUnxpjqzis8ioptJn/qX2Y/re3YoufjCqDPuqzU4n3GO5iNLbvpolyJQbfrhuzwWxoX5e/dfCv+u9y6fiwvux6VuN78hokVOnSb7EnYRYQZZdnDR1YCpHdba8PL2BgcWl/cOKHvQXPm0ybDFX7pKHwLgQODN8ipWGzXaRdFBp2dF7URGgoW6zNLKQEj8Ey+onyIU8qMTapFu4BXwRxOOWvuAKiZBJyeGGEFkB1+LCRgAotcafFTbEVjKZBwBX2dUjZCZNflKCgxbvjISWIZH58VyRB4aDKpAk2esS9cqOUu1YqVpupgFzBlnmRVtCxsAHvacNjBsSleqRoqWVWOncJS3kn91bX2DLiqwaswiFzU4rVH84qYIswgznkumgEBvf7Y6gdMh3LxIk7ARMvMj48+pGXTOir7kdp+lXJa0Do4Emz0pLUUTyFvczADIjq+jon4hQ9vpCmfKzJbYYgCdck3UN7DVjAgiPdmYY5yfLpThea+vYsQ3J2f+boczwHXe6Hb9wcTrNU54QoWAJHlJ4pRX9OPF6ZAZZ/ea81uCcttLK2mh8qcDChIJuNrUunADC5npXQYN9PW7J27ocCljG/kE5A5vMq+24b5b5OrYS3TxNMDhxSC0v8ACDhrt7GoNPqZd9U81hg0pWJwK4m6jDpO0R5Dqq+sXkLQlQ1jag7J9IV0OK+aEnMa0fp3ST4HxzqRyzlItCY0vgQ1hKlDlBTdXINoWe6o236vqGdpLo1akj8ralC3J6JgzdWWC59dCUBVDIO6mPHSumlu/S99yWiPEVfCJY1yKUtE+C/vlKyRRgY5UeNhARip/jtvXS3iXiJ1bHmpkMBFxIKEjwJxzu5dNXt+0q+1A2UUF4M+95SFkOpMvZPKXmXxDONNaBrHWXWJXuZUqCAOLK8qX0Xc0VmZaekts9XyQR6qyGxkbiQmWk9WpvcUOcXz56o1Lbke7IACe8W6bc34Hw91dfwLcXy2wUQ65BOHS3MeznvIGdd8G58PUF8j1WU6XnRnE9Im6eEqBIJeiPnh9fXWKLs6J6IxPHFzFM3BzcZ/fFDnl16oufLqDuqe8fsM3KyQZfDSCJmeS1PFMqTRR+qdFU0zU3+C7hFbv+L/xhDSyBBtpMAFWfahx4Yee0jWpvnXAkn+SFU1UkOe+WaaiEBfGtrwQCq3RLWPTWikhHYSIjIg0ZtwS9ChS7hAbZvkfvISoYPQrWBTVAHnz53KEFuELP0Js4yUN9GrA0qurrFdPeVcqBxsCa8ekDj5D8xQXGsMIenhIbQNKHI58qXNhBBJaG119c6mkMKsTECs9s9rp9ae3efmmOH8gRhmes/DjGZkNQSbIkAsvb1PTRs/PfCUFv6AKDbPreJhW6ZeXdaN3Pb5m0xGY/tlmIKRDKlcT1NQlHG2c1QGG2bFjJ0Ho+brna6GnTp/HDwRR+c5Zi9kI3XeP7jLD3eOn6/h5gIcPpvOTxwQt9Ojqu2u8yZsX//CyLW7g3uaFwwwel8+e8vY5lpOXp/C7l6cuvN7qS5m9yTuPSOFIfRk5Tie8tydvIccnrih8W7rvWuXBx+mpv2OJYkfcVG7IauG1t87Fp2jOsYOCSmyhNbVr+BjjY/u6X6etxUVG4PAfLS+LkeJJ8n1EZ3kJKUclj7NzjB6gypPv4EqZYjA2vxqeSxsRwRdNVZ7ZxL0h0MoatVwOrRUvxYBomIrTQdLhy9JNrjEikhclo1XBQr9JUUEyYG3AJorQot+EW6JOz2c0sGS5sRKCFMoe62YuM07j1lEwfZTEl51yMDOY/OuloHe8eEuX8ad46eTue13yekZmvZZmx37iJRF+t9FBKY9YEchbV7y2A2EvvfKyAjkfoyM705L8Jl7AN4BoQfjlZm64RisEVmiKXcllZoJw2GZQ5HceWSp6zuXP1PULpmBaeYQcsKt576V7zF6vIQ/udHIvuPtKyPcfvJslr8tt3wTg5RflnD7lpViHPFD8+Ol0fYfXkBCELL7jPN8S7waSA4SLzL19nlfEN3lCR/7oIi87/slj7mhiRvSdsP6i8gnL6/yyMiZpd/qexziYL/KmmGj/w0fVPwOevwqrgqiAOnNu/RmvM2sekTsGwfQnhUTiSjYQud/GUVg+Q1cGbBmUoh3ta4Zr4UEUd7Bezwo598No/6xvuvXRUSvLIWeJ6snNcqarvbf4buGhPP7bZbODNUJHj1TZKtcSoSocEIQifSy/dIFWDlqjZKSccxIIC1tbMcgc5DD4A8qrJygXdYWjOP6G4UsvvTwHjLy8K0cD3JHM72FQzpu3KWdxQqezU+ddL+C58+hMuscrAvbw1Q6dOzMms8+pmzKXLiE9H1VXtGK3MM/5ETTbuX8MAc5+Q98chs9dllGJpr22xQZleEM2tns9Ups8VZFDuDhTga5Mf5xGan3lpQmvQ+5x36i/ZuyGjwOH4eWS/fQEGPlrrykye15ybdPlqYGaa6fqhD7dAs589ZgXz2pwLntOnW8vEH54SCCDf8a62DuYfIWJibEwL8CSlUp6CWlO1FU3IeMqwODppFz7ZHoWTvfcvutuOSb4cj6APfrJ4FP24FMk9v3KUTUycys0JHJUV+SW6QsXyhlYklnMGg3gS8dHUHMvWlmQWkALt0GLrcZ5Z0jfoB1pVMmrt8Ll0Eq00h4bZn2nLF8z5C21LcujI3SUDnVzEbdmCzueKRpT3fLyiFNKVR8M6xuhaTi25K7y6Ed48s4oNGx+1JsA8fcrvJMksyI4LhXV087qU/8mXnzIF+dcBGHOE21UK7pTwNNdQyPZC8L+qrG7nts7z/K0xiGzDEXks1FiW4ET3fkST3n6px4U1xcyR0YboV+Aqbd0Vyw3/SEaETNriUhFtAV+zSbONRsoBnPdilZtblAdssnjp3TA09lRvpgOzw5zA8QpG0S4A3HM5Tmpq/7mz905CaiSQeUPwUZP+uMes+wZ773xFCq7nvZ9Kp1JfdB4n+Vq3pIHvU+vGBy5OYMO4721musm0TUzfu52iuHaZJ2Gg0dQ6ZCUqfCv8vrKpPVxHK7QT+UzIcGNr6o+jKWPAQ5mRZu4ksuAk51TUwrg7XCw0IOkRlYIhQ1Y1QeUL7rEXDBwKwmLpaNcimU0EkWWa+mFHdzm0NV9HKrN+ojcdea7w7Uj7FTrZAOLXzRqyh9IrU7tvgqTyq8RwANHqCnVlV19N1dAZNOIIF7SYId5HykXsomiK17Wm+uP1F14bkVPcaTPOaFBynmP7vSOkXM6xxXnivaRI2YbzyNdmvl6w8xoue7Gk++ck5l8f029RIrObid3NkSONmaQgpFL2npzWkhu+YpXRr9Tr+qQesvg9E4iN3XkaR+hD5MfXdY8m0q1PHbqdMbmfJhNpkvvlCFwfBePG1CeGKMJftJ+/Awj/aDdcEmPyg3f8iQQL7gjx87v7ziaDBzvTWWZAC5vyOMRtWNWDI+YkR+898NcUnr5pVd5oPoubQB/fcXfZsIGOxX/yswnZYU2fE3xPP0gBilMVsjYMuJG4PDQBqyRb1IKd/7HsE0m6Sg3sW+WB1cF5il6ynJylM4U7mrEEQe6KCh9FKWXgWmyyTtfEEtlguW4ii9d6v2szpBlqzVNAd7oJABHvbTgOIqRxO6UQFwBKuu3/IqnOP+/knqFwFGWDI16zPtSXbqdnzwFZGAQaPwi0wXng4Rj9DSQvD3MpZfnXnktP7ies/2/rL1pt2ZHled37jzmrBSDJlBJgIoZunBNVLWpgRftqhe2l5f9efzCr+3l5dUfwW4vL7eBKoqGdlEMQhIggUAgQEIMkpBSyvHmnSf/fv994jznuXlTCFyReZ9zTgw7duzYO2LHjsmxpluGXBpWR3MUdWXMI5hdq+OuTMw8XhiaeNmFQf7mZRmMw1fGkAqjlkv5TWcRW6lT2uCNH3hUr8c8Iyqxi7ZDDtI7tjQvm1xqo/wJjGVYX4RllvSGOj/o0SEarlR33bOoEIi/h3UJQ75Lr2jLQzKvwROr8A91ZxwkEOOQPTJbq/iXxmF/h/tJ2FKFZvHKT3/UXXn1VeAyDiafrcv3dg898mi3fIZjIL3OHD/+T7mUNwSAr8TLOH2MiaC2JIldFRaK+UrsAkI6a7c53+7Mr4VW6drXnU+mrlLkIWQs2c3TvKcBmUYfnQStZ/mIHhVPYd25Hs1ghG6STH1XKiumoFQMvxxr+KwC8y7R+CthmZDAFEUG35prQt/iN3+fxOa/MSplwTqt7Inytn+EI2xb/hrDeTq3ZdvHJO/1aPZc9iyqVdnzB4Oq0tv7OYFu4CqWyxUO67UP8XhCV8LI8D3a6THmDpwrRCTwV3i8l0NnD+xUhH4H7IpQCCKsUlKrOf9SN3w66pHx7XHtdUxrb+SiBS983eeiUmkSIQRPZYUUVacpaqnCuVacHt9bptIbITiWTUHzzxU5c1z2qsC41M4eu1RjAJJ3hkMwSmkpKUZ6TWk0h2qcU+LgU2/symZpGonDvVvdi099N2PsC1z6usRWqrUL57ttGoOtGze6VfaRimjVCPnE+SUFeucnTn6VRv1neU79Fh9aFumta7wSbaXny0oyQK/P3+G3rKkDg/fg+Nb1j3r3m78Uh588DcHTRsa4ImahxqVV7TBdc8UI5SMM/9KJtgj9s/wrXkuvn64Rwu8WVpAS6k/5g4u4jV1LawSZr2I6Jim4FX+SSKYxTlS+MaA+Zct/kmISaZFrzQ6Yb1PqrcQYLfoEMrzjyVl6Ry9NXeLIwbV1njC0lliNQAyI0AiYaNdCiZqoQUN0xEVBWlwSpsvXMFnQIC6wrM7LU/WzkdXkL/UjRP275W+4qvw5l+mfUwQKYlbawNAKRqysQ3GKDjYcrYpj7ZQ5mR/M/N/+MkYWNlPTq5OYHtwGSVW1b7zNG9zz51QartaJQmHi2EEO9Si+xI86O+NERjU2Muwi+O5iXT1D7/eOhx7mavGz2Y712uuvcW4O6vRl4l66HCE/YEiQBfJCBlX5LzxqVhakr1tpotpc/KHA9hVlPJxiDWX73rsfi8ffeDYwdhbk5Z8JcL753uitXwvzfezMF22igttzHKG9jwHkXfUz2PvEB8LrDKu4ED2tkm3OtCtkZQhbm0K20kziNVyqB5wuzCSWnQhwpDDu5Li34gl5TIrybb+OZxSQhnXzn3qmnFM+w8cdeFOeMJ7CZ6W7NpMKPqBHyGYf3mvdpOppHQ51ntuDPTnb6Yh1jr9fRigZ8IS++nlmqBPiWlm9LHQbJtze3M77Eou8l1YQQHpV6eCWKrduWQkKkw1JxuvSSTpY14ZZgkYW0rmf0otqPP5Qlne5mi71YDh/CmqMR2lcSQzdUpfkIdupCRwwLtzjqWo6P8u2sMBGsBFIs1a4QSoCKuxWz5VZoaRfBBgYZSzBOk2jtU8POXuAemrjc7DN9QDr3cPve4wwemNwe/GZ73ZXOATM1UJnth/iHo53c6wji+AtaK8RiKkEsDxVNj6niFHh/t7hiBfthJatwRnHab4CnLyPY/z299y10QgjwXTgCnHr3d/Ra+9JhkTQEqvQqeIEgRaxB+RnCh4gfvlHGr9xfp0UVv2LWEaQifTIq29TznjNWQa/Rl58VQ4zTvIlzF6jWrV4kCLCQ0La6yJ2BQy/yYNwWznjjJ1hpbq0kAq3lXfLUgwZJDBOqgi1S3XSg5cUGgXPXtENyLFGwnQzmO1lcsdP3u40t8zqEy59sVw7TKIv3KjrAra4BWqLW333uSDmcJ1bh4kQ9Y/eIuefWh5wNm/HbrWFSjyKvqEDQu8qoR0WgnuVt0KJFIlxmFXh2yZPjUXpEU1rKD/RZhBal/wtMsWQU9Npcg6PiXugwMn01fs1IRaXLNCGkvJL/tmwh1/wCzOIM70EtNom39CYmMeMtWeYZ1R1P3d2vbv8zvvJ1+sS5ria/Q1U05vcAn2W6wFYFEB5HRY0/ooQYXCwXjKHKTwDcdLV11BLz/j3gfgXbkQyHnj6r7mK6i9/9T+h8S/fRG3fLd1pT8sZNdXAYuVKZo9T36cl0w/MbEOre6SAVl5foAYpBIawgWWaHqU86j2/UuMU13wTp5fYKb8+jYXQNUKlJezDgqMWxiHPipsKKBQqpu8N+JB2/GJgVcPJaDJ1w8G801vjt4igneGC0uuvc3sxDKIBRSurO9YVNPfuzXM6NkE11QGahmelDsJZFlCtoPYmjh1dhsZaTL5XGR85Prt1/UaWpe1z1ZrWSlVf70+cW1VI7I2KqT3GMXOIChp+oIf6i4FmfytXxO1sc9cFiw08kc0q1dDksRa3uXHYHmkeq+Uiy/vExfGfzncFZpd8txjTLtBzL3JGrIYWRpzgzzjR3s3IZOgcqfFn+yWAYZjwiDGKqtJOMVVCDLJaorsSLKRd1um6lezixXu6s2gRGpukv/DPcD2c2628WMeGI47GxnSekpcpjLBs0cAcA18120r4bW6IUrhOolfAAG8S8Du/Mb6veaNi5pb+ZIbNv55pVcABBSTMF5oSFBG2NntKNv15KAdxhAw5BgbmdXAp0ARYIpceX+mspDA+xEs7MKSs8HE++pSc0iumOPkBNZoZ4QTbCYBqfirOxHfyZgqduA8OWGGGwaNexMPYjv9EVFV4Gaup/Sf2RALrACZ54AhDCVv3Mr/GgC8GENcB2pts3bjGWGyHsSJqKcKScYkIwFwL86iuGDSOWGp2kDNjnHrgCgFUVXvBYxYLzCFANSajdBFEBZs/plPkRIVwe/sWgriRHtL5vDn+ttmLee3qVVRsej0PF9Z6C877e+DEJH7dFmw1M9494zI5pmCAv08Pu4kKfXh4m4tMD7tzly4VT8jwOOnu9W/Zjwns3MZsXaZLNI71qkDyDopZ5kZvbSOl5nxEwzDDGtfFNSb7VcPBNeNryuTKnjnOiN0iqUMD65m35Ck4+UW+tb7kectfjoA7nH59BHAWVGL1MCfRxdfwAdjU+yTe23tLzzjpve6WiMz6/OrhrwUWSZ4my0d9TYoyeZuGnKKV17ggAQM0/wtbngnwPjUf7fMOyHg0gTG2jNlchK//zjgKOIZXfCFaaS329LPyU0+oCI4Fx8SPgQo/Q4Uhvla4k/AuFhd27cuEsTle0MrLFiKMLXANcWFyDDMzhxh6EN7NPQWEC16Ao0qVZXVehcaf18zt7G3TG6FWIkQxssC1kCmrd24hvE6FyGw1NbJCr0xPASe7q76mhhA4mpSNDRZyk86eCLmPSpwGAPX3Jtd2w7IIGGtMaTt2ybPrUItRZX/9i1+Qjsl4BE9LrYL/7gce6j7w0Y915y5c4tq71e4a2sCt6ze7JQxS84x326YDy12CR359TUarGmpVnuIPqTEP1WFSpEd0t5ArcdaYMvIITIXL3tnx9g40lU4OCxwGeCHrMngJR7XWMkqjqksgW1GEWVetLpPv8F0xSXKHy/yqCeMKX18HOObC/+RBGSaupZn4nHwbrKkkPxk2+S6s891iWR6VfAU5afNdGaqbW80Tl8DJZ8hSDKxnQzPZmLR3aTDbB8+BBiHmW2I8SjX9mt6l9yqUrZzpOH2Jes+G3d3jmHwMwo7AeTYvRA1DAOI4QoGhBfW0bqViJwaq3SyWQg+o2maMc4MLQGVYJ/rFaeeIqRB6g10NOsBTwGZZMK3KiRjTA6EQbrOHyV6CcFfybNy6FUNQ1FsoO4cRKUKIahwkkXJp4KUxsxg/lrB+7tEY2Miokm5jJIqVedYbrOhFyXMRIxFTdt21a1e7hQsXuvsfek/35rU3updf/Hm3Qr5XmUp45qlvs3b2cveHH/5od+4d7+w23rjS7W9y9KLihJqcheAIDJ8RIq3INhox6vQcELr3vajUlhaOpS2nOK6iip4/exGa2rP1QyCeqqAZY0Njb69yD+c8f+alZoDcFfNIAugq5+kV1/fKzWrevO/2NH3x/ADhjqiI6MiPBCG8fsXcoITzx7ASaIWXXRtWdO/P43RXiVqYxDBD//kWsaocgD3OfEjRXiiI2SsAJaxRZYOcUYaXIf74JaDxkCB3umkcp8OnC3hq8j7BNPaWrFXcnamSI8gkDc/kIjNRNoVHpp5lSqIWXlMRMN8MPaJMaFzV100Y9haMZg+imWlnk0UBjP02WHh9/cZ1esDtbknVE6HYB9a5M+e7++57kJ6OXgnmO3v+MtMSO90u12rXomp7WowXLMdz4Xk1Ph5toQoMDuDnLVSeHCAOCyzNXkAI7RX3clEpDM085/Y247Ol1e6dDz/c3XPffd0VessfvvjLbuXihe5X1293r75yrTtzz/3dhz/xyfTGDzDZ/t1/+efumW8/0b3nPQ+kp9piwcMKQueuE3kl9ctDK7aNhXSZaCryRE9j4shO9U0jhEBqRfasHMfSqv9zNGSuo8W0yvpYp3Ww5tJ22LB59bnGHRdTFHM7crSnBQvrRVRSeWYC1fGjquxbkmfiFLb8jhz4qa00oWohxh+7VozqkAxrf8Yy/WmuZKnwPQEw81RkXGoEzEO4f1FpaWVt2RzPVatTZRZE9WYyZsWfRlO0GnMXQoVmH7fP43RUiwStWBO4fQWelqj3C16TBPHVTyfhJjALVpsmKaJajZM8xoSXWWxSBibi23fTmcJ9fapJjpHCfFEhNTBY+fRs9GQ3Ebgb1691m8xHvv7GG90rV64w7qFXReXTdrhEb/Pxv/1s9/G/+utu/eK93e2dve7i/fd19/3BI1gb2YXPms/185fYUXGGuii4m/RuTvr7pyVRQXOT8h6GmR3y8fLRIEn9ZRkb+Nl7biPE+wjqorv377nczQOTjYTdLGqfm4y3EYCbNA4vv/Y6q3/Qqtnh/9yLL3a3MMLe8+j7u//ir/4WjGe7X/3kJ91teuhdt0MR35u4ctAweaQx5hnWA9/Qs1WGvhDOv/SYEtI0alrSlblQL56thQzyQ6gf9TUWU+AsY2ld4yo+17hm2go/6dLysUEPDwJ37FKH5hdH/P5ZPvz6n/CC00eT+XsBMEVLlch9enOrDkeIvp/IGN+WbW4uToZm1OfhY8gYXwUwBTIgkcYxy8+dCMnMCMBKjyuiIYQJyzWEA1MvQQ3gSAd9Qxi9rbkTrqKLTwW0uC3aye/mbyaNDu0ZPIlglZbrofewx4RrcFvaGjvSIFlWEpskTyKkwcInIQSYVpVrkfWqB/RCql2wF70VAgLDutTvNRj8xuZG9+AHPtg98P7HuisI5d5rb3QrqIVPfecZ1rfud8sw2CF/+wjPOx54D7Sa6V56/lnGkpvdOj3BvL0BsLOtydzJ2823WePp2tIeeY0onspmJy6NtVDuA19L7BrTKNaR6i2mmNDMZJcuX+7uu/+B7sc/fo57L86Gqa5fu8YYbrX7yMc+hhC7PO+we/d730vBMPIgQKvAcgeG7/Zollmapnchb79dgyrlonnymnr1mV6d8TBPjx5xTLiJGv/aSy/lpLgzjEe9DEd3hIWWSRBUeG5EPn9Pt4ildc81vzQNqrCZeoNWM9kgS2F+i6sarTqtqNUZFaa9vx/QqTTBuwE0L/ggcSu6GqE0CG/pTxTD/aYYuBbZ996JkOyU2InUQorJZtQZ0g32cRJc9kIzGJzv1mbvGmJBBr+TWZvvEGcMmrhNTRWaKt3EJZPJ5ylvIxROCz3F76TXNDKtRCfxT6oEEsJ/GbtebFWZk2Zqg2m4CKhjNNd/asC5fnOze+ADj3VnMds7jeFm3W3UvMOrMhO93+p6mMquZYHdCq+98RssrJvdWaZPDrCKZloDVfd4F4MRzA/7kIcLq3di6dQimsaN9PYYaVwKxaiBiwjkMgLpnKT7BhXoWfK98ebrnLjPVAWq4vsefR8902b3+m9+QwFmu3Ok+cTH/k23RD438TvC6nvu0nmMJxeDs+tu3epkL+dJcLG/o0sezdQKIcfRg7NCwcc2PY2juNFaSAeHu85l3pQeSOsGY9c58kyvjgDSdbLqh3GiO2XYc+mi+m3SKMTWAKAkW5487urCk1RSCUdFixTA56aL5XQqtZB/B5eWJpDgBZggrRFwe6RKGIF3B5JEHveVQ3gwBYlA6JGBMHH4+c+KNjhjoyFhj7RUwdmzpBn0EZ9iWynRkGtI5XBb4jSYSZs0/ghvkskg5MLHFS6T8KgzoYKhTVQqrj66FrsapPpqVsCKYSQrucfc9+BNXLx8d7yS/Y4IAbziinyYkh6Hv1muNNumRzTuDk/XbK6fR82k99pHhdzkOIllGOsBeqKXXnqRI+/pXVD1PCz43ne9C+HbijHFpXLOr80gFG6+ZQUHu+IRPjIUh53c2uS8IXVBr+mhTcfMowRXVVjyt3T2sF5CuruxxVhxI0zs6QPLqNVHu1hRr7AxmBU1x+Dx8Q8/1m3e924Y02V89HzAvfbSC1iOmVd1LhJazGOUUjtwm1PWz9ILa7KVWlEtyS8LDKSFAiljgoxc5KZrB3D24hGmIlN4yXnRNU4amKE3dYvWHir3Miq0Pa+94+L6KtM5jK2RaNN7f5XTHNZTtAC+yTqFrlrlvXfDrhbrj0BxUVbiwM36jLoM3DgevjZ+K8/Tfi21afp0dCPSPbtKeMbSTnntxR35BYJJRDptKrmItH7NNVD17Vf761/z6GORPnpyRZ76lRF01QqlDvrwItiAcx9HiNZXJZMoFT349rB6AFOPRqTTohQ9iymnEvHRg89bE9WTcYbvnkB3y8teZqgwAMdwAdOoes3lJuP53BXhUY3omBIFwwQrTeCEOZj3McaFqwjgJuOvM4yFLjGOc9PyLOdQuDoHmyuMiAAy/xe1joT2fhptcmYO3LS/W+N+hcPldWF8CiCjhYb9Oymz0idjPHpsdGmPFIBF2JNJOndbuBhgF791GxjU7lkXsdN4rCIEZ+iN7P1ikBGm+anKUAHSVFF03lB6uIXMjdOUlnDxK0LKfz3BiEQPT75ZTUSZ5hBsJ/Md/7qIXTxnMAAd05Bl0zX5L9Ew0QLAu/Iv9WtmgiR9nI/+tTwmv2mgiG+wtJmKyseQDNqK7QBzAuKUt5bKJ2VOOW0c+JIxxZH3wCMKFvhe/vnIYJ+nBG2VNeSQgplMGIZOxLjQE2gRPkUiasaNQqpkSduEw9X9OsE2p6A1YdWvxmV4Gsl4wJnuFVvK058Kib3SGGbFtLE4XRiTEa1zQ7kJ2uk5VKwx/HF8z4axNXXMkq1EsSC64sZDm2qsdpa1qYf7MOr8KuoVjIl6qGo3i3p2hEr4MJbMw3e9I4y5glXVE9FsTd38q4A41jo6YNwJXycfmNHOxXWiy+SvUDreOrTO+JvLTvsqTVplXm31ZeoljrO4ePkiRqUb3cEtFgKw6NrNzXP0vIvAWsOwYzWQEThW2TKHyc7/JZbtaZSKoYYySPjUMQhmY7AUla6SjAUJMZLxYX/ogvNUbyO6OBkdwbNBU1VV5V5ZXmcLKHRBg8jcJ4W2fHvQwZPHnUI5hDY5QQHIymAJjfQScTPIix+VBxnJI6BevKLA2BMZbYjqd//BI1dfxKv8+pDAnP7pw5PWdxsjGymZUviUHlpmKlAesdBhIOKGcRs0ExAae+4AAEAASURBVLX39hwQqkyEpytS9plZAmEZl78wajKOd+VVycqjvQunx2XM3OP3RBWuSBvfQsXh17vWMEx8CPCjIetrY4ppb750QEg5JwnGsCa+FTspwEca+meDJl6WX0ZyvHTsToIAseJpzWEy1266KMBxyAGGhRnUwLYyxrHaDAIKZ1FZ7K2gN8I8GI5B1IK/DeYifh6hqLqqddtDrkRdeQstqUHz86DfQw8PJl8PwyqGAFcFhn/kTjH4I8tZFxiw3E4mdvXPLjruIT2Rh0+BUHaWZJ6TntH5UC3F9s6q1wWLMgYi+dHryeW1oZpvkMuhW9JLgbUxAY49nvWsimoPnXlOkREr8DiGFjv0hNlgTVmOEMhDmXWx/L3deB5aivsRG49lZMsWmgPGpyW05bKszv2GUPqNXHL0R+KNXeoXP4GQdoA3jjN6lwelxZ38GSxSMqkegKrUiU8Vh/EsGGQQwTZI9RnpNJMgMyQfVNgShcrAaAEOjLRIeg9BIJc8+jg+eifSE1dEkNF8S/1PAutNvOKmMuj9zLL5F1yZE+5PgYdIgd6+Kl77atCF5HuS8xzeh/wlyyR2S19PBeaYPXWrjGm4fdeW2/LDbDK0anfWkKJaKQ6bh2xAzvIL5+TcqeHkNYzrk97UVtGnVlh3gAgruzOEJlMD1zk36nUomajJyFoubSAyt+gxHwQojOZjnWQzMWrvMVMaqk4eD7IKUy9fwAiy6kni9kosEmBHxz5W0q3rnPhmT8lid5CCv8vS6Zxh4CKcMrNX1Qkzex3BMVNlxLc+tB5bbi2ptbQOPMCfaoLR7TVJT0TjZgoI+h2w4kd1mVNZI4wHlGv2PONg8tpzeufiORokrNXQpERBepOHRJG3VYlxrbGc1CyeZuQjPxLONMXdepVsGE2eEC9pOA6vWKf/mreQK4/ABbzTTnUglxDLoT2ZsUUo4GYY155+NK+81ke1MRWkZAM5BEz0QfD0BnmFy2x6l0LpoV8K3kLas0SqIjS/t/NsmQTwqQmKoH3ep8aYeFpSSSnywR+PNFLxanlVGY1WrlgBlsLqya4CGGgXRptX2mxd6J1cmXPMmNGqrUXcwoUTodUitPKqOBskaeOloZ5VWDvuvZmJcRSCoPqriqYwKbil6jHOAoks1mY3/OEBPQWVHkOKQk0hDulVFHKZUnyCLVUPCFMmvfN4Gj889sODi7XuLmmpPGatK2kcL5rApXZaNGfofT0vVdpmPpU0qqs2HvZyYBd8pYXxw0+VISiVmupTL8VUNTTsAR4y7SZL9I4QOM8U2ty7GmFcYUmcu/mzm0RLKrhGe+jhJo+qkP43NRkcDZP2/rboU1GnBLFCxGccd/JdcKbTt6+JIEob6Zs/3ktElDnqXYcf5gQjlAvYlmN7Jig11aKBaqWpsUutbayCTcdrCURcVyArTiGnbxGpwlVZFNxKMIkjH9kaVdoWbprB0aIGVKL4UzCM2/I3bqkYozyqZgLmNLg1RgUWeUu6WNSEA5P0xRrhJRiZ1Aimkd/B24gwW5g/MsE7njKsraMCpkXVcDxb1AiS+cnEMrkgljBkaPnL2Mwe19ZfIwhZECOHBh9yhs4RNwAfw8AK3wxTHrV4Q7Sgh1mRILcgS1Mb5MA3b8LJB3kNnxjf0+kUKbdbOV2hqkmU4FRwZSgZrF/QQFkyngUWPmCFkCKw2RVij0aZrEv/pKL0scb8bme56jOHUWtujjGiaj5xdhHu3a2NlO3Cux/sVtlUfPPqtSxmX8Sy64J7DTcAqo5BoKSzd0y5gWndGKUcgeYs8IlnCxyeFat+G94CrmT6TztyiYd5th60Or2WsRQBEZJGqdeb/OuujR5eizqF2AlE7eUSz58AA46t+F1dH9HISdlnxhfFGVK10MRp4My7dxKhufYeAidKX7g+ig8ruA+ayieeE1BElCmIO8qr5ePTqKry9mN57wOF7V8DNaBHbdtbCU8G1PS/ieBGLSGBp6HBj0ksRNWxRQwgtZTNnqavJCTCRdCusWwnpikMUbOQhAMsm/aATpXUGEvdRmZW0krVc9f+QgTSMSr4kJd4ZWSGwMxwkJTwY1CQYRUSUBPEDD2yuMwDyw3OGp22mFLxXB0PzMpibsozi7+Gnn2napIaOPT+9q6q4nK/1mI3SDt+jvAqtAxsJXlwpqzSstoisBN/GofGVqqyLvGTbEvsWVy8sNzd8677+jGtKiq7Q2ikUoWUUWj+QclyALd+UsdpvPToVeEWh6c4pAwCMkHvIjiWTWuZjDXEtAaNN4nb0vhsguh7bSr3rVzyIlkJN2XHOyN+hSK9nd3GW7pJxnkLIyj9Qr1bwqGIRBgVMgXGqxWa7ypmxb8btGl/85728UvRnIYy+Tot/p0QJj4Ki8yRdMmrzxAP31r2YYQhmQKCSsmcl+faON+YsTlCSnsfrrOixNMF1E5YH3uLEvGUxcy9EU/10iMjVFU16acUxNnjZO0IooylL7hkzCYLMg7T3iO+sHM6PceTxwgmXSw+MLsGEHoZYapQzGJFdRxqPZqLjYWCIWxZIr3g/kLwcSOyi8mTM1JrnygKmHSDv+U28SyT9K4FtSwLjDE19Ch4UWkpk0Lq9RoRavBwkYH0cLG7qnFqEJykCf+jCczScLz7sQ92a1hVpd+1N69QJoYCjM2PpCd/CoxW/NwxSULrr7kmnJZRwSb3FlRPy3EXNwhkqDFON34fJ9bfHAVKacClOKaP05K1J97Z6R9moxUfI94nmXq0HmnwlEoC4++OsEmkeutb3cFbwln5Vl5cw6p9DzF/jxfZSBbCCTYgIQXvaR31ttnF36Cq8LfIl4QJ5WdUtwFN8jBLD6l9JF8rfY35QY0lMmgYwEoRDvhpUbSCYpwBTnodJMnVTTJvJsaJEweDyszJB78wFoBsRjXEiKECqXooTMSQdzEgM5FPQytTiCK+9IxeRrPPeFDPWQRGdc6xauViY1FUNKlnvR7TaETtRGBcxWOdK3zGzBUACItlmeP25abOzzO+zc3GxI311VVCfd1LyzQytAjmWY2eTBsChYY51U48aBAPOSXOw5wtw5VXfp2G4My586jhlJv0Tt84yU/m4FSu6huI+gs5bMGTT8lihRqiE5/4it9dXKNnla+lPC2y0JPDaYHxazJjvvJGbHgZBA8oNUR6QIUhUccZg5IV2vuVqfj0PIfkiSsMqcGTAL9sOWuqYYJ4Q7IIeTrc8hWC6XxOnF/BKV6NoUbxGlLW6ttwgUcaY7cU7Tmd8zQw43gZqb2bDIvCFqHUYhh2MX/+YhQqLqFFh8m1NioYgjOcTGqcJfX44L+0USDg0Rg2fIl6rKCSIG2N+mbGon1Pg3BaAEU14ko+6QtRZXew6LoExE260i7yArqqtnHmaWJ6a/ZopQcr9MCDfCyr9zZqvV1QGASgmouAWgDxV7CiugmzwaUcsaoCIDQijtRyqo8gnMderrE6yGNBNFaVwO1RziUu2llic/MM+R4A/5i8S5StqyQmdYrM7ySM5gLPhkPjd/NqzrSmnLiCdtJ3En7n2zh9S31KrFE0VPsemSp50QhCVWEAQmTJY+VNQPKVOBKs4hjfVMIbC1HpzeZoamIRv9WDMHW27Ipoxj4JhxmI5Bjp7s6KJceeicfxgmdaQvHzz5/+CSoaMMoVXimt+eoJzGGxQYuVfGA6YPAaJ8iK7ycfcZanGpkjVMvMHYZ2BrbELU+EB9ydVJd2roEQtscsZgmXvR5C6zjL8VplxgP10k208vreHvRmrac9rb2NFtdBMBjneUSGmEmiauCkq/UJvVENJX/UWyMhzAc5TpJ5RelOvHXnGzHYWDflNKqwoZeLbfatM8edEOIIHF2yKFz/SQHnDN0MHARSzVLZ9r9wkcb22/Z4LlawjhrfNBpnixTxvcFqlUX2Hlt5QOWpF6xd5go6NI5FFqOrX5B94BUXSg/+gBl+BIYNFa0B5RUDYCjt0EzU5OX8A0Ya8SxUKDyNDaDQJxqIjUEKlZC8BWQ+fZPGzWdCuSYX7dniCLpFT88onJqP4cm6wgAUTSKWK+AtC/IzShUgEUSAlzFBCR0jnQQBaPEFPEALBH9EsCE5UV+H4FNfWvwW2Cq0fbenhY6LWjydt3iKvxVSItkit9STZ1p8PjMmoYKTLoXvS1U6KMAoJy31nj2TtCSO7DcUG4Ts2XJAMTEsRyymIurAkW8tp1Fx9eM79HG8BRDPe/FVnD0BwEOjXCzumk0Fi62JGEHoqRDKPQWYc1Y9oyYNIIIkBdK48FO3YiEQxHMyPcveuGNRQXMvpes923GHcrMbp+cYEx7OaVCid0YSnN+XAlKO4PxF5eVd9AfHe6ujJjiGWd8Kp1FTXFonx9mpE8rqKeF+77KFbJ4LclRXF9i14cob1VPzTFrTD28NmKU1Y4UjREt8PuJsDtOEGK3/8yGn6qS7sJXfaByC4s849ePLW7jA5GeKEHfG79VUA4gc6C3ShHEYDhM0yG1UhRTOqFSeRiadCPtjCxIXD4G2YhE25DG8JGq+CGy+d/Z4hkzgJFHlWK9v8Ssa1Ur6PBmxxK98Rd7/DYvpuJn7671SKSnMBGBNg8CofeVpQXU3vz0HXVrGcPJs9QbkATLiZW55ks5jM5QymV/hJAQGcDEAfhEiGINmf9aeF4Z1r6DHYeQoQ9K7mYbqQp2s8bjCF7WTp51h4AjXFh6JdeuUzJapCITRPEE70yIbb3JkPnN5S6iJC4x9nRONIBHftsYLcGa4cMeGodE1WoWNlAQyD1BpzrSWXZlQsFrvFeOW8fG3hqWHUxT2dsLxsCz3MboKaOPmRsfNdIxfKR/nxrLbkgbE8aLFVpxLsymEyB84zRWNzVy8jFn8JI7iogu+/OSJXxrAviwyb05tJ1QBNr3TQ9NOQJM8DWv5RKit7xFO47TMM9Y/amzsH3DFlPoX8OksClGDqiUitjXUHBlW+pFfC3sbz4b4OOrJQjQGqDjT+E+l8wOCJn50unFoT3i8TpZvHGuSd+UTeiZBpTJ8SE8U84o6iW9OLXMMKCMqUIbDWMZvqVRfnApRDcyqFAJVWQtuxdXyOsu6VZto12A6heA9Ewdsk1LFLwuigutud6yZxHdub4XTtT2ZLSUlnXlFUFBrdWFSMPEwY2GoXroZ+RiDiQ2AuR8zFSEuCmvwbuVQlY5wV+kDi0nMMDdeFDOEtXGNgarp4zK4pZdu/PETvCKs4kTCTAeRuz3/FifVzS+x6IB1uO5bXFhYxaq8m7N45hboNaVphB9chcyPYPORnxJMF0c0jhQ30dGVoPYf5XXiN1BJ2+NraDI4ES15GVf3VvAMb/F8p76lWphU1SjdOL5kIphihJL8FBY/57XEIWmidlVcAVvMgE9NVJHrm7Ax4uN3YE47cz4RfzpC/2Uc8aClizNd4exT4jaX1pFvfQY8JsG/lWQDHGBU+krcxs0NZvhLmjjkghscCbtsLXNrIBuBAF+3MuXMFlHnz/RaGrMBFyYXrovMcycFQF2fannqHBlvCyY+5J1PjwQAywpcH47xXC0z5yod8vbkNqcWhCfW5qGAOd6z7g+ZqhC2qKjSOuak3YjhZ4+1qU4ZzJPe+AfMJboVyzzqhiV7CFyR3reUJatseK/eB3KIXnI3T3vlXqBbfMrLf8pZsezfFEQF01uKa6UR42viaBBaWHLsRxmA61SIC6wNUwCTzYAQRCKg6sWw6jWjYeAfsuGXtPkmfz1x+umi7eBlncS1Dqd9h3J9WGVOtPqetpe0OAVGRLMcDtjm6eLzie4pUw8ZmIDEhVd7DME9vg1qxTU+6UMQERZWSst7MqxodaDwBDEZsc+GCL5NvtpgF0/AAQc3yVtiWqDyT2DCJahftGGFTJrnRmTD4t0SDBXXe6QhmeDQoiV90JZtfRGQ7WTvAFy7VJqHcnbcnWWnvkyO3ke+0gKc+Sc8/6xkezCZW2h+K3QRvDR8+NNDGickhUEzZIATXUuaeTnGiQqZvaP0rPgYWhREBHIJ44eHJessmQ2Y6umR61FRKZMOAYX7McxYH+ZZuJqpx0TWJD1GGXtYV+hlc3lPB+LrTFNCMqGf0NpiA8venHj61/wGOhJfumhEUiA1Sm2iono1u2e32rBaVqdLjtUS+HZ9qv+ak76BjUfBFYv2bkzKXYuBQwvrRbqnSZKGlCMwWhoTK/m0UmnYe2R9TPDmo3cW06JJbZ/BDprLqw2v+AoXF38gTYSx/PktZvHTuC3DPp3ep7rKhEpJvTQUW6r+2QAOkE8FNXiWoMn8IgyxpgSl5dGeJ/IK5iJjesIkBI+A8LtFF/ipJE3A9I9pisqTNBPKT8U1V8cVMo1HWBxieIjKhzUw9Ro4AExtpbqCRZaogXbRXZbgPUwug9EbkFi2ccG4RzrKzIb7TJl6kAqNCw4WOZ7CQ49htwJKJFeDOPZxp8c815K3OVcbD4/KZ2EO844YbTit3MUAbuJteyFVgYWtaloNRKM/acBPNTskb9SwfPylp2NMGhz7sDRwLV7/VKXX2UPvO2dK/sbL4nR66AMq0eM8PCXvEBzS01t2XbIqfPSJeAHOnnEiBImZb+EqXHUlHRH7eOqCQbuiFo0JjMZgHCO+pbMujNhXhsiks5Mfx66wjA/Rp4WxL5RRqvug1empZy+jf2bI0noGq6BVBU2qInbDlcopjz5MuBYl/vkY6qaStIQVlrQSK599I8F3q8SxQaXVh/An3FD5ppXH13S2eU4ZVMaUyYQloX2mfT49ZrJGoPR4tLKWtbcvV5+5lRVwpJCJVc9U67RIeoQGnEU4+BGGElZ1Za4kst4szxxAXErmuat+y/BZjC1sMTGemSBMHvi0vIRp310XlMu5SZnokKVyuUEYOJ5Nc5tTAFR5nerwGjpVYsedx+lYUFvD1Ki/NhT0mC5tUxWddx4PlXeWhgRAHOnBcRxaaM2LcriaxvyqkaQcwAQt/MSDuu/5xPm/bCDu6z09WU8z6Z9pDser9oQIoQISgwx+buOSbkeME/c9/sOrBDiVICZFGwboe4TqWzv6xaWkDwx5h05Q5ggLjza00BzYyZN8RD5jWfAGWbLh23+SWdmUnvxrTmh+Ba4F9510/hrimxDKlV8bRkkP69jqrxCfBSPzzMCbCKMqVIXxFCTMIvC8m1AC48P/WMx8xzXAk8Tx7n/MHbhjZke9MaUFMq15vZU7Gdq+o1IAIDp9D2dCuBYrAUOxWuVYLX2SED4fox9Tt3I1SKkk/YN0RW5xRkmT0mqxRa+WHUYhkRfLOHmtINpjyrWqRlaSwlcqXuUWP5heequ+WlnCMNSaqaVszrY5tGMhN+efyowuKfP2W0+d20uvSQTeZVwNF0fiBGOGcYkL6Kif9i6qtkc7pboesgggjS4CvMThU1ov9zhl3LNWiw/Ad6XUYplY9dxeMQiKp1wXCvLAeYZP8B/qekTEihK4IS6FbHWqBmGDM+/SOsaKB+yt3KVRm6FxWeHkujXOBTpGIDVD1QJxEoSERakC3eMiDyas573gCTUNRuh8VP7QD0lMeUgzoFzA8pu4vPXgpt6GaC2QyCFNS9RHaILop0HSZyKMkoPMgwTZKNES2YjpgUaFEcDYlfQ3xMWiYaLfCIuUzElkwgf/UfgAVL8Gp4WbpocL4sEv8Su8tSuTlgj8lTnLMIDwvX30tCfKxCcAe58+L0ILE8rSBw+C0eMzhpkGS1qZTkEaxWkkDLNJfMLsAWIlRVBsmTN+dHzou825kAKv6kRBP3TDMWlVGfeyptV1oZWnsLXCeoK41kt3bCjMvu9xto6CxxE8CBZLy2KWP86xilvsV9zheI86AJjTx5GtZZidTILH4hq91qYNARuJWUI3Q95O2eXqupy6Jp5QUjTc5Fyop8pSV1RG0aL4JDQc04a0SQ8I42u8AUGEcL7buUkjwSU/S6tnu3WOHVk6g4EKC/HBsjv7ya6vIRs3+ru4pE8dmF/fUPRh4mFjmWePg/UlH8iWDU+j62vNl5/fRrKQ9d4aDr8DT1xaeINF3RiPKh1covDTymyaQRhTmSCtikC7F4BBL7mbU8FpSA1QE2Ck9mdUI1fhJkJXOGZdYhJXnAmct/eWXEhKf0KCKqR5Uax825gUJv5mFMTT9ypCveXz1J+GlU9de9bX7/ZbaWeyO/4GNZG8e4C+t2952DGYq21UJb0cx1qoGMUImQqxBvmTuTyC0QUBKxhnXEiukcVpiTqgmN6CEwA26UHcfiUcVUB7YCf0ldu9/pybHQ6husG9GtsYSRynncHgdO5eLpaB6Rc8icBGAfxk+gUWg2c7E9i5s1+hmVsvtVVNxd5XaVAkLK1TNX6lQSZvyyuzW94wruXBtekMosZwI+NGM4MeWW9KnNuoq7Pn39Gdfff9III/fntyd+rbPCylPwIXqrmd7hSAWI2hua54H4ztivHq0To1sVDTjySPU6P0nkZI7ODY137CIkM9jkUH+VlhLMokhxCN9O72NlCnCb65lrB9k6hHfNQMEkjV8ysz9Wl5JG3C+PmtbpJnwbByLFj7FUB9N8JFTdFXD1vVvlxCih/frTVOZUj4OMlUvZif1aKKb4W236Tlo3mHoHzr3+AaGlh9IuO6XnOdG3XNzfHbIoBnGAvZMoeX+M6aTtLaK4q2C7y9SIaYPSQgK8zgrAoVYwhdz1FfN3OsRNllHm6Tc2s8ttGFAx4B6U1Yuy4Xw9jjGPQAXJz71AJ7k4OTj4hjj7nP5TmOEc9dvKc7d/meTIt47k3GiwiEFk3Hmtbr3iwnxUk7ONKbtDwHdr4tDBdd/S0EXasrc3L0CEOVCBj+No/KrPT1Ke00JumfMSP4SBjroRY+YGCCLqToVlh44DGXTv57kY/ZJSvybKwsYP3HLnWSTCe+rf70yTDAYQNlNW1Lr9CJpy69O4If6L2fjww1EsMf6x9f0lVCX3TtWd4JlkcptWnMw/Xh81VQEwjawAkTpHs36BQ3KXIgjWKYlcQbu2Q/Qmkc9vbexa6gvHX8tNYQLTShpqzs1NipyYSo6yuWt2pwIKrpTjh9ivgldAafFi/+hiW8ngrEwTy3FYfOCr8oIoAKJX9uG5rl762cTJVpCNKpbnqZqKt7cr8jKuVNLptxLbiX0uzsvNbtAW8b5l7VqooFtFRO7sZ47bXss1xlEt0zUV0657KyY7ZSLWC0cUzrPkWvHFAwPAbE7nFphsEjuO6xr1FJsmHYyzmQ4gMjQ3eHNJYtqiZtsvhJrZ4aPA3HxwrF3x5KQQ0sjEd1jIh9K+owNLO3nwUPFzZ4+LKLJtQghBNqCQvwirnahPUx2SRgHr/dCaeEUzyBZUMAfjGeGaafATpxILAZBctz8tvipXgT7zveFFrxLeiVQ+7aMGYFVCH9FmhtXCVZCFzgg3SMMjKUhJBFRH46e5nWDBuzGqsyDgnN4ndywrK/jQO2nYItV3Pm44Jji1feVUmV55CyRQ/TWIk6NYLWI/qdht8Xy5ZiWZZyMk4raio+HxVaZbWk9W1JtRye4QQ4Ed6F2RQK8dYiKmwXbJt37qOQmUmTllprH63/2CW/pCU9cedYEmbJDjHKuNN9iaVrHsm/y/hqa+sGBwv/qruFOnnh4sVuBSOIt0Jt3bzJDoiNbg2/HfZFemCxltZdjDczy6xvFR9w84QA5/dUmz0V3DNnXPXjLVOy0SG9qpbPnNxm74hp1rgEJTwU4F1j0xRv2FASQ4b3KQxdrYdlAYINkz0uOOwQZ18tArX0gEXxMVLhnwZR2vHv2F43kICGn6Sf1Eu9K0CoBlP+5tlcDZ2sY8pF5WfHDGhahoKd0qRequ77MSByoTO03vKZH9BMuW2UZlyRpC+RhgYjKVoqnuTbjxmJ0iImGUkhis6CB4rAeUsmZDBx8a2A5qlXcy19+/69nla/xZBgKVagiEuQ6v2s9BIq8EtYQ6TSpPEY8gcerX3GOUhFi9mC8w28JmAnw8u/YgePAS/oVokzDoTr0svMylBbHKbk+k4rWlxJXmfCkD+9nJPPwZ8w/mesFpzJwPyqB5ECMA3xPV3bMdNtLr1xfBhrKcadLdarHtFzLjHtsUNXeY31nItL7MRHjfUkORegX+WofA+M8sjFVf7McA2jjEIgLK2/3qy8a7gremhMQlIaiAUE33NbFfpcH4CKt6iaF8MTPbZTRxIhBcxPzx+UQdqQlwddObEfmQSwY9ycYg7fOSW0T4DqMZ1jcHIYYp45YZw4qvnC8V+IxbPqoa/6qhpwhlrAM8xO5TRnY1wNBpEGeJOY8Q2Aor15Wh/O19rYBmpwMY2xywlzMB7Zwut4hAT1Nfxavl4YG4C+ZyFAZkkifwCUDE0qbfuvpKKSErOBGCNDzMHbZL+XE4ItS49PD0N85MWxUIhXEdV8TXdK7ql94qViCqZ0UtSrXOaUQian5NNquYfY8kiEU34GnIArBqp8GkM8WOl4xjsbA5UHPTxCGm4hTwUsp7TRC6ncaV8QkxLE6rEOQDZCSTk06+9gId3gXkYXAHjr0w697xb3KXqz8SJqqJeqLrISR7XWlTC7xPcCG5fpeXzGAtuTnL9TPXQHvz1llp8hLF53LhdvcTK585/iKp3o67oZ4GPLZM3ojfBHzjTDTDu7wIS8VhBLzn9OiIxwZpsUxVYYLaONzh4qtJqBvZHjRQUsNODpuNYxp+qrByd7iLEnHyxgFIpAS0PKIxN4DpB+UIR8i7p54ScDEOPh/JWW1cHko2AknZSWB6h/Ip6s49Sj5Q6sJg8lnMnVsjbBBIpwYlKurJOPeduktfwrHTB8gR9ZKE686ODFvsEkyDUoKa+xqjBJ0L7w7uOqfQSoMfuk5pFX8eo9G8FM+bu4CTbjNwE3KLyIAIiUMPRhPKZc8DARZKEGDS4QVsYALP6ma3j73pzwK4/mY9aTjBIOg6l0KvtnzlzoLl26t7vxm1fTGyAZlRBcckcjKtQRlSGrWyl0X4Tb+2HMCOeBJ0wp0x54vAXh+wiSgnjtjWuM21i7So/lNECmoQ6ZCJex+VvKTb+rWF1XuXr7DNcAbLLzgYtMUU1znUDmDlEnge+i8+417tEgnwXg7e2z8gZcvZxHG4rrQp0rzXpX3t1vmCkOejiFaY+GYGaWIxU5CiOLx1MKi6pQFdPRlPDlHKxzjwglDGxpI6xGpQVSBT+kbE6j5PwbGoYFxsQLqNoyeKbfoF2RvPg27z2PCSb1anXKmL1/xaymNkGj+NJ77KzDSd03LmnPccz2LvSSkcHnJAxx7gONXSVXwPHkj6kuCweCJDQw222mkLQsti8weZikBwcRA0VAvvJPCM3lDZhFuOSVoEKixXo7zxGRgKcLkYJv5dt7Vu6J0+MxQSdRhrS+JIwWnN6o2lQ8+F9Gq75QxsOZXxO29qyQu/yeyHeWA5nWz57LsisZdp7uwt3p2hCduldFMYm9ggupVffwxg/GRTBkXusnTEu8XVS6bYwou1yYo+FkNitMVN0wuHCN97ILu2Fgez57M+/tOMe9imecNwSOy/NcIeS47cprr+JHq0zv7eT8Jjdhuez0gPEoe3mTp73UOU5ic3Ovxzbam66cZYzKKQa5BFbkSZv1pKiWjsFQVmNJTVvS11V4DAHbx+hz296Wnr3KRBmlPWVxeCQv7WCw2eXagj34bJO4Z5e5i0Qeo2qqPnwx3Vho+vrAT5rK1/yPMx0JJGpP23qtQGHmrT6Jk0atBbanPB8Ao8gJqx+qbNpZqBSsj2/2ZtTjUJEpA17GYOrJh8jkc4SUZLIw+AswZOsL7mfiV1q+wiw+dc7b1PKnREze+rfY7Zm4/rwdFxxGEZM/3/ifFJAqS8U9WVmqR2JVFOFB+W2AxNlFDnFD+fy6E35FuvM3Jn/iK9DBKczCdAAdnLc82b1onNimd7PB9ohGVTOzy4FMlAXZgyldskbvYO58a6jIdAZVsssWIlel7LBEzZ7Siowqx7crfjwVIHOWcxw0TO+3jiV1hXWmZ7kmTTV1yUOyUD89XQ7p4Sbg85lz3MbQEwsh0xRHTuJzRqmqLavJEex95vlqs/Gay8/A+Pr16+TF8jpgLpsnBYpw0bg7LlXFVFvlt+ccx3748yfeqsNeeEoXnHB7RBk1ajhpbLQ8nHieeVQt0ZkKgi42STPZySxkeaoXgTFTAYf/vWs8nJoEDt8DJ0pfRbxFLv4e80/yaMCsDJwwfGvxAoN6LIkxILEqvMclSc0r+UmTQKi4gT8YcPSrlkQwOtWHxK/PnqpUPkzScEtQ4ddi9c+J5+StQLRiG3EcdgLA6Z99xqelC/MPqSjNKKPpsCFSWsierEGm3n21gnT4QLwQewywBzGG2+JVqorQwrUoegX2IZW4sXGTHop5QeAuznG/Bj3KPN2HjWKpckyBuPwFPtW4k94E5r1FOtegWonu6t+hV7Qnc3o9OiQCbx06Ftyj97pw/kKuEwcoAkkvhmA5jzbPBacuBHB8ePva9e7ipUsYS7CK0vsJ17IrKIe9OrhP3o55ZTyX2dl7L3EvyDEGnp0Djtwnz8NZrKnEWVmjR1Tg4MpjVpurxjp6HBpAaQjTzi7Pd8uHZ/qF7sSzZSLffRoHL2WF2+E/Gq7jvVidd7HsqqK6qqg0OButXusqUksFIIw+2vv4SYSq17HniXdwPKWq7/A7CYfqKxzM42Rgy4KW039pQaENBEpIRR8MOPj1EBLAT6SeuNRF0gSIY8sQjtaJJAWq5dSeCrXvpW403//fz1ZCKqHh2mCKa2N8xyEnXQtvcYJ44lWvpCqtIFZ56rcWgk8gDWnxGr+3GMmjb8Bs/Yt+MEwE6oAbns50733kA93PvvcdOiQshfzLsf8AmF+UARAU6KtpX2b2jBYFz7y2sFpe557EmRl6Iq72Vr3dw2KqRXIR1dM85hEor9dWdXRyf52xnSeXC2OFHnJJw4fv9NCqqCsI7ZLWU8d7/NnzeERINgCDgE+1G0/3jrGLvG4zJeIVIB7j4RjVHs6F3Gi07P6gR9QCgSwtkJ/EPKLxsMfM0ZDQRJVao9OsW9qXUJWPzB+rKmGH9L5bqt2OZa1re0oafg8uXmHhwgUua7XRkbWkSfjRdzya38AXVqGeI2ftWm4DxkHWk9nF12fPS/qVk7coljzS0hMYq7fQeG9zjlZ/koUFwRF8dbXThhw0dhqBiKrQQ5MfrYzprcR+yx+SqHqYTXIKNFJY4pNOv2LwhCe+cYaX05OdBPN7fDcLVdmDySbCdjogCZIlUH0ZbGULR4knJf1u5Rvhri9xwwyhKh53ccbRFdFLTb3nne/qnsOSqAq2fMaTwe35VFHBmt5wDia1h2ynnHnSmjcs3WIaItZGxpouQ7M/1D9MAIOr+jgNYY+3jAV1fp5rtPF3OZqMf8QY84iFAF4PHgFF6JzX0wqZ0whIN+MUBqppGhHwdjwZ1Rgj0iGq8c3rVxEYVusgnBp2VhB2VWm3NMl09tK3HW9ypKNWXCxIYVjtDJ7No4o6T1mzNtZe2J0hMjfxtOTu0Ct7zfkqwrjB1MrGbdbJ0nC4CmftPMcxMvZ1/NlYuDVUlCB0btb/fPQ/lsG5yaFM1FmrTZ/tb5zm931XEE91+ssz4ZfWQeHZ80fS9EhFGBuyBpi2Iex8WPngB4+W5NNa8lJ5j2P36ci0+s1KWrAqdlqRkLP/HuVlTjYbJRj56n+K2INPCjV83fEi81fPZLoSnCZARh7Kiqm+xnhiWHlYsYVZ37MRMm4BTa8bYPAe2ErUKU7IprdVpV3O3sIZFjdvIVDnOGLQ9aGa7O0pZfJ5blCyuo6woIjbIUS/uXEjUw2eNLetGgmspAGid25kSxTvGm8cu3mf4WJvzXQe8Jh5xx2WyN3+zcsIyZnunQ89nHWot7ii/IhlcK5p9WxTj7LY1hoK/fzT8EP/lz8biJ1bV8FjO4YjBe/yA+9h4cD5WGsP6dGkg6b9zH3SEIQkqMiOHZ24l0JyjYcpOz52P6ZWfOc191BDVZM1XO0h/NsYePagGwoDvDTLvZTvzNEh0jO9CfjZ2Lo7Xr/g23NtmlIZnZfMexLBT8tgXCFYH/JJK2sLMY5/8gPB+TOF4fZudnT661pv6Ltevbefg6uFDXza6IgzSEU2zNtYPduk4aZhZPw9BtOHDuB4AXFTlWTnrcEYx5p6H0Ocej8F/FTCf9UPzR86MxUL/+6GQMU1NITh+bbd3UACoMGTxPsYI97xzvu7hx95X/fT73074A+4DwNdMXm6LG0e4ZydYbsQVeapa/s7qLLMH8Lq6X2WubV3md0KlmWJcV2MEVYsPajWzG2sjje3r5pZd8jqmgMETWNKLtoB3gwLO2/9+jWEmBlCzo/J/R4w3y5/ESaEKBZR1NY9ekN02e7MPZe6ZVbuXHjwYY5LZKkcveMN1rVubN/KGTTrhO12ml1h8qhxYOfUDRLg9i5VUAVEAbCR3N5irMu/eeY/5Sk3LR+yedk4Turv0DtuexQIYXWZDhfKso3L8a64ZRkg9JC2ingvjvmuJpWAO5zxm8jdETgJU+e1B0o3J79I6f4ZIfW9vhOolFu5b8cRbRK18G/JpL1yOFFTQeA0sPolKQPyxnfBVcQb9B6pWBFbDv3T9AWjnieCh08LbYX8vs4CiV81LlQTFT9xFra+Stiq2jIWwrumDwwPhEQMPMvVu9N6yKQbxWlxLYvjOrOUYZI1CMic9z34SPfSc891G6yGuXDuInlbbpgKdQyOhQnBgj+/PY3tLAxa+wjxw7Koaut13xpZrnO3/S6q4YE78WF2L1Ld377NWlRujFLtXF7jglOWyJHGvxmWlG1fvd4dn2GuEIPIChZWBU11URwWgJ+r4oCloK6cP9tdfOD+jBGtfXvhAw6p8vSApauvcfcGZ+Sggq7yrXPFjL2Ac6bezbiHgScWXoWTMiFL9IIanqwrzvhBnXWMbG9q2D6wN1x4QE8a6zNhxl/iyBAXTbjNS5XWE8spUMaV9lj21I5NxxyW+jMMDcj5XokaLQWY4RHqw2f7My3tFo/J2DJVG7lIDRJY/CHs4jO87uoqjfECNvF6OBO2qtRmRLx5BT6ZJqMx5IZAoVBo9GkthBxTbBbPFnvadwKv+Z/EwxiDXyEySRT445xHQSdeG4wSohOBw2eLNXg0+o6RCD2EoxueVGwcBZGVFLghjLiGNhr4UuFWAyHQKpUOIywiIF7qsrG1g5GFtaqs6VSBWWYu0p7B8VfO0qHHdK3nnL3BHlZEOMX5xRz9CHxXo3il+BY9xh4qrMaJPXdPrKxHpXPHxrqXxHCKmutgFbh5GgN3jKgHKEBu2DVPBVxFevXcGdKWQWiZMWEYHlXZKRFVUNcqz4PnEYJxhCBbZi2tywh2hMSpGgUZWuUCVVRvDTRRCcnfBnKHsaL0UXXV1qqF2TW7W/g7dt5myeA8vf8qvaENxPce/2b3wgs/7/7ibz7bXX7Xu9JA7dCrq9bSYoCill5hqwSSL7j2NQV25fLND0GJZ9VWLEPwzJ9xrbV65tF+ypOv4QU4fCkHU74tgW1SxQWj9N7mNCTPR8UV7zIMQe5JpElGlY7vkZcFSY+on4n0uItrRTJYNm19VPVHdyYSXLHzybCW2Un/O7/HMVvlTGK10o9jjSumitpiTdJVnJS39xwEEM9GgaTjQzXMWmJUl1CPUkQ3JKUnxEmV4+4c26kWmdq4ziqYbYRr+bifRyPMMaDTGp6VtOSZpFSoYuLcIMEIJ70bgbu7qK8a1Y5RWxe59OUSWZCXS8/c6e+ZNa7OQfPFOml6bvWlV5NBXBAgLFVKV9ScO3/RDhmhYm8k41h7TJk6u0hoGDLfCexjphlcEaQKqrHo6GA9BhUpV4wJpuStQUh9wJ7U+yldMXSIv6t9ogHSozmXKC9scVCy2sI2iwlcBCDsXbaQ7II/BAD0XK58e/o73+5++MMfdvf9wR90H/vkv+k+/ok/YlUTjRoNxdZt91UyPQS92jyx+Ixd1ROeNIoGWYf1NJb+vY0APKWvQjZ2bXzZ/BJOFDskaZcGAJhJFf/qiQcGIWFt02oQJs+WlYYmF0oEMaILNbH8zd5GvyyZOeIUqoTla/rHwglpLIgtxt3SGD6E9Xk3Zm9pf5ensAqPk6laM9BK0EfsI5+e5iSM079bua1oaeV3mBZ2U9VMxav/wIDbzM2dZQfHBz/yse7x169k/HUA8zm2O2ZqwJPcFOBlbuC1F5ExnMR3rBThYX4PCUWw6F20UKKq5gjGfv5x0d4U441zmnMwuZfnuHzNOUBxswX2YKdsQaJOXSrnXkpxm3W8CHOjiKae3U+ZqRbxoFRan6uuVFdZFkfPOIvA7KJWbmBkYjBHT4s1FriZL2WMLD+pRroIvDGsK3ZkpxjqgLnBdMkm86KOEV3MoOXVxeDbbxx29953X/eRP/pU9wpbvm7cuNFtPf/T7kfPPd994fNf7O5/8IHuT//sT7sPfOAPEXrwAIYqbS7XERd7YmuD/xoco6pagPgSErU2waIZZyPuhyw/8atSVwxrt48c0PU94VkpVcMT49d70aCIV7Da8Chx+rxMyRytleSrqfOb/MC/XJiMIOAIqqIodEboEesxFylfiyX79MOjj5tUpm4ZTPyHqL/HS2vNJoSZAGlhR9rGTzq9GiqGtXeegdW++3T6lRe/0M53ic5rxi3wGlSBEfDwtG8jmL+CtuzBVIzxfv3yKzkFfBMmWkTNOsRKSVfAxD5bm1wxs07vhWt414oa5gkZLzk+QtzpCWAv1FLVUzcjc2ITvaKNDnmhemb/onWLkDm/Zb0puN7TWAdXUXBVUKY+DmkQ7MuyEom3WBUJtqdLTQNWAfbgJ6tcVTrqLdMYtAjdBuXc5hLTOXaJrJ45X4u8yVvjjRP5sZSCp6r2jOf1gK6Lzz3P1blWaWqeTqVk1Q+Z7GBhVaV94OFHugcffrT7wXM/ZIrjndBzv3vzlTe7F37yQvfUt75Fw/aR7k//7Z93H//oJ+ktz2EA2i6hJD8bI1czpRKsiMbE+FgQG4QmdPGxbPxNOetPEHEVKL7WTYua7xDGPIwI3YjjnwBTj0ROUAGqtGYmkD4NTYgE9x+OAA0BxQRQTFjQv48rXD74ib7hxwgW76at2ElhME6/ipvP/seiCIpc7nApKJmV0WSgxB3xxh5hUgkw9jz5LhpECKF4aeXSM4TjqVCZv6pPaDnCPfNWEQbjKIv2Xooe6lx6BEz2WEidSLf3WGPli2XXAPPKa693P/j+093XvvSF7pUXnu8eeeg9zNWxc/34BrsfiEUvenC0CQbMQe4gpKh45qErepCfPSwuR5aCpwIyg+o6x2DDQ4bdDqWaWPdfFP70dxgx7KEZp3HFgDSnSpljBM9t5vtgXifpFxgLHtJD06Kkx4P6SWN+yCuOMsLYZXxxDhL1G2AuQsgNw4z1tm5fzfhzcf1cwl2xI23dPraPcFkOL4bdZcx36xYboW9gTAIvt7HRuYO7UzOMgWkcvE79mHWEHkL16Pve173w0xe6q29cYU0s5+CcY0HD2gqaxnb39Hee7p794bPdI48+2v3lpz/dfepTf9ydZ0G87a4CfwCMuueyiNloav1qhTZ//ve1TJ55n/iMqj9lMb5O7mniqBdki2v9opAs7wCdSPmygfOd8uliaOyj1ZhRTzxMa3XbIiZqfkwygOzfeoyMxf8mghUr0Uc/xp0AGqUcxZl+DYFaqaeD3uJL8jTok2gKWanc4DAOHt4lzuTPlDJ9warK0a8JsBQyqRXhPJb+bSuQYzCnHrRI7mBpfPYH3++egVle/PkL3Uu/eKm7ifVzFgZapua2YM6bGiJg6nP0mK7D9Po4mfYad1w4xpi753KpkWS4zzhqlx5ICyQimF5MvHKko63/AkxPBdq7OG+pQDp/57h07dBxonjTazKtocFlG0Fxwbb+LmJfn0PtJL0NyZxdFzygq5rjlzDV3FCEnnif6Qcn6V1CJ/OoHmr9dSWNcKWJl/CIjyqh8dzmdfHycno8p0jkNXtll9wdAGNpBRUWJlUDOIcld9F1qeSzzhawB979ru6FX74cmJvQqlbteCEt5/QwWP7J8z/uXnrhZ91XvvLl7v3vf6z7o099KkLsqqQtx8/AdA52zrG4pRjqHyT8mLCoxX5Lp5BZ76aZAkMqwcg7+tvonXQtvKRmOrSuER/8QNMMgKRwNuerFWWvITPmVHB7QdSW4NSEtyXgWa0CL2NAo89xIUbJJumMe7dI0wkq4om4JWBGVNCs9p4MxCvBaj4TYCHw5DNvZYqg1DCpJLYHzHgEYnimjQTT6GGlez7pT3/yM/6e777znae652GQ26yecQfFIkK6Qo9xsD2XFTVXGQMtoTYe9qtilhHEDZhmSfgsYNnY2GR8t9adOctuBRh8m6mQnKK9yBgTQVJYJZAL6xDDUlFbnRFkiRX0XEZqeoR5H4OJeJ5jPWrdqKxxiSLANfuom3OMNz36Q0XY3l6SBiQ/tuT2lvLAvrv8sYC6smebhQV7TPrv0rXNMHd4xEU4u2gHWlTBCggKtquMWDpHPOdbtx0bOqYFF8eXXho7xx+dIkLLnCM4rK17GFYJ8Tpj2wteOot/jGKqzBi6tL62edEFFkys0yO+8spr3YsvvtR99atfzXjyv/zMZ7pPfvKTMYJl8TkNiCp8bveihJZqaKwtuWQFc+UgPMy3jZuNxMDT0sUIzfXvzWd4xr99mYj/lCn8B+6+66cT3tAzxiPePbP2LaNt4enOqvJP1aVigG+cA2HxaMxdwdVaNAGbKkwl+1f/LRwmYMdL4MTdqtCFOA2xFh2kxbvFyrpC4iuUHo2vcWaF+TzvuX/55V933//e97unn36m+8VLP++uXLlih0P4OgzOPB6q5wzjO1UzV6vAtays2e5Wl7jMhV50g21PjOa6FXs4dEIXe7srQ/VtDzXLMaXL22LUoVfy0lDXjjLko0fEn2Jo/bTKzNfyOG1xBG47/HHOfw6vKmvjEY3GRiyciluGFhDKssaokroDDyrTeu0plHAkINSxl3MxgsdybDLOvXnjZqYqzrFAYJYlePsIWkvrPKJzjU0Ir1y5ykkCqOMKILxD81ZMidq4T8/vCQPnL16m0aCXRfVehCYat9x5MoeafUScY04TV5hdwWMvaj1uI2RzWFa95Eft5AA43/v+MzSIz3d/+ME/7P7yL/+i+9CHPtzdc889NAZoGYS7jjfqooVPCau00+8p8r/qTzXmRcsxYI7s7CX1BDO2pUYtciUt9r2bIFkB9qDjwsgoSZsCF7RJ+lb4lovPUcSx913ehVDjmOl05tEaAxsM2SrCCZIebVhhvk/+zCLfiVOVLVmyvUlGlMlRx1Y5t9Nx4OPfeqL72r/8S/ezn/2EPbmsbJlHhST8LIYEe4bNLVQ4Su8mWc31KhOewk3zBcy57totx2tsdSKd847zLIh2SdwGap692iuvvNzdc/lephIWujev/Cbzhe+470FSVxPhOBn+TOmsmah+tYCzZ1Kyp361lDr0wNZIz850Ax3iLGfeaH01nBaDCX936BuXEWy0HiFKU2nnX4qfpXk2Khv+MT2zwZEf9rqmm2Nz8pxL9uhh15jH3OJkA4oe6+jhLliT782r14CBpoBG4I5/1dhlVvooVJzXj/860z8XEL4VGqRNcGDUC0qX3/UOrmRf6a5D0zkaq3lsHaxXQqjptWjA7NU9v2eLsas85C6Vs+vnwxvPfv/Z7rnnnu0efOCB7r/6+79Hhf3jbg1r8C4qsHyR274srcX1x/KPnNM7aahs8FQjcI2HBz4L3xtQ/N73ZYlblnFgKmtGSR6NP9GEyE8dh9oweOyohB7wyZDq0v3VWVW+nYxVzB2sTgk15diFAHi0shg2EaJxzNPfZcvf7mwOqvAlfJWi8u7xBUzyBRFxEW6dwVLnk3p6mgaTGzdvdD/4wbPd//ufv9w99eR3cpDTIiZ+J9jtERwrbWMYybhNVUH0qIf0yn1h96nUPVqpGVrzN9mpLzOorh4ihJfmL3asg8Hq6pTBdneNXufixXPdLYQxO+uZV3Rp2DrCkwXalgy4wVncVaf0o+LPX7qYMaVjuzcxfijEboGKpZWe3UaCR5zxZbSKI8rSrHihqcQyvirqtTevYkx5DSHcosz0+jQg7vi/Cc5aT89yqsEiaqvjQNe+2mvJkLl9i8YoB2mBpEqsDcgex3VIL3vcd3JQVq43gEFXOfxq2ykLesh7aZTOnTvfXd+5mjJmThPauqfSy15LWBDKMLzTKa53RU2nUVxn/lQr7AsvvNj9r//z/9J96KP/0v13//3/0D32gccy7tdIpPprPQ6MaL1JSFx7DWUpR6mxfWBFCe80uRkLYh9890cDTmbephXXAPltxTY36emGVGSsCWHi+uonnb6N8ftwGcTXMdA+qHmbZ+FRTDUKvuur4Jw+sGUtZy59YXzrCyZOBR8i8tKE1/eWopVdmC5gdgOwBNU4sLa4hjq22T3/ox913/j617uf/vQn3Us//znjpB1UqbMww0o26u6y5tJDlKyqqI/g4HitqUEuEXPRtPfX2xJ6J7296Da9wxvXbnZHFxhLcWK3W5MueX038UyzzxrTQw4ZdoG147ODX7zEwul709st0RsoIM4jWgaZOGuIKYdmfdUhdVjn7RzvuRFYw4tjPQoZNXuPheR79JJrq+DNymzru1runlLSDHhS1rJl0TffGrn2EewNrLGzmHeXETIUa8Ay9iOPGXpb7+y46ZiZelKtdx3qDPut1A38704NOV6V27GftxO7CXoN9V9+ceXPMmU8ZN/WwYKNonZn67bwESdQCU5IY9FaDxCWDtngDA02N1nVQ6Ozvn4hdHEBwYv/0//Y/RFzmJ/5zF91H/7wh9EMNLo534tQugXM+gKGq5csa8kBwPHTNf7Ku9++4PrD1RMveCK8qQfgWVfhxx5GpShY4mvjdFeXcvXZFApGFaE+ibnp+u+++srv1F8jNrRPRngL/yGflnGltWsfOL/FMYfRuzFtlcsLDHnJfCOFlzDeQFQWwJrDU0AcczjnduWNN7snnvxW98Tjj3c/f+nn3U2Ov7cXWGDMssgE/DaqZam8RQLHePY2KWNDFfhmTpXw5K9CqWzXZM51OzDhMZZXTf4HzNst0Yssc9zEisYNVFU7LlXYReLPLq6wQgWh3Ntipz2rec5eoJdzOsNph37lSN82VX2LT00vLJOWWEM8z8C5gCEHDq49hDCLsuuh1Ufok4UpDET+KQp45snPGoaSvf17uuMNLqMh76tvXmejMcKAwHlO6+HsLVoDDstyAzO9pxCkKRGCz+IKBhTonGMe6bHMxFU9l9gFss5idKc3HC9aV/Z0K2gNm8CyTDZmVe9Vf8J2He4BhqEcthw8LTcNhpVOfI1EB+BHR0nvV0K5t7/T/eevfJVx/rPdxz76ke6zn/1s97GPfzw8oVB6LKU0zQIJchSXYSEMefpdU3kUb+TGXUNRTwry1z8shHT0M04c8bDxHww4RjjpLLyqhW2ilTYBXoPmQI3vaalJAgCRnjjjWagWv8L8rHjlP52ukC0YFb9UHlqZwDJty6HSj/P03Za54lTEMp+jUjLuiykfoq/ABHO05jdv3+ye/e7TWEO/2z377LPdK6++VmMcVJi1M/fEIrjtjgcWNQstAm0rSu1T/zSN9E60ruYnNsahLUhvk2JLE/yUUfgjDDPLxx5jPdXVTYRxwa1MMKBjuH2Y8Bgr6CJwPVQqqjJ7CzeYF5xl/+F5e1FX0ShJ1NEC8azY7JaQMWmN3Vq1iKpmnq459d5G1dIFx4oI0DxjsOw7pEyOv6TvLGPa3DIlrvSs9lzuuFeVdNPvPgXcBeAcavP8Gqo5vatznZ4at0nPOIc1WK1gk/iclJ2LXSWKGgFdMxzlNW8YZYBxhPV1jXlDjTQLpHFJXxpZaIVh8GGJAABAAElEQVTiEKZ3Ibh0dS1qbATwZeoROBqN1GhqSoe0+DksGPiAfFXtbQy06OagK+CtrV5ibnS/+9rXvkVd/7j7sz/78+5v/+av2VnzUG9Ec1UPY1Ro5cILBcky+JzwcLJLWXlTUggHZ+KFN1qafFs35S+WcYabAA8WihfSA+KG9TEpz/BhuN7QCudPXvw41U0hS4zJ9+npJuETcPoNeCV3iWB4qSCFH+hSoeP1qMZRAP1rTl71yxb0kH18EndlFVM+reo1TuJ+6Re/YKnVD7snn/p29/zPfsrc1E6soe4jlGm0vm1s3gBmMYc4QJISdKpAYRS1mKvJSX6S4WwHNQAEE6UysUodnqEp1Lgig+4BzEXhe0x5uNt9BYGxd7TJ2YEhDjHldzsIAZCWSLPEZL8HRB0fcZxHr1qFhqpC/POORVe+LNgbgYx0FAuvMnepnLjKXykQ6fVIeejZBsYzGE8ZXWOHp8dtYJ11zs59iBpMHM/ZqHgSnfkdEw8KCZ3cahw4i5HKOcaah2Qsh41ldslNyDQox17QQ32QInO01IfEygkBQgIvhe7Xv/pl9+tXsVLPYRnmAK5Q0koFFxsKcbcMjkHDC5YWT/EPHxEvvAtzHLm7hPguvLes6ywf3AWpf/ziP3bfePwbCOUfd5/+80+zkOCR7iLGpEPi7dKomI/LE0sGBAEQ88VF+Mmf/80r/uOf1A8RwtPFyMHNOFq6NUqlIL0SMk479R5AlX0ynAq820eP6N2Cf3f/avEssq1u1E9rBed7kaLKo584+2fLnsE8FeM8mwP125jXr2CI+OY3vtF965tP0AO+EgvhEcJnT3GGs2KgPZVAK45Q+z7LPBqcGGKWoFsdJfQ5EU2OsBEYKqjCs8MlxLeqxM9y8AfKnj9zbI/D2HAF9VeR4YceaJ+egvxIEmFF3bSEjitm59ld4VIyBCvpAWSYItDXMY0BvRt5WHYBRjwQzGWYz7FjxpTAdtEAXQ54S1Pm7rB0HjOJvrAEfYlXy/qcp9zMNMkuFs5duqtdtmPRoaEyM07kWyPuAX9O+ygMc/Synr+qMHisZMprz0m9OdWxSD14ivoB40EXGYjrMmN0VVTjmi4rjsDZOU3ra3sPvLlCXPq6Adtxr5ZuviKwGqZ60gd31VMFmQfEQXUlH2/eShxwlTe0OdwCtksInS++yXzuP/zDP3WPP/5k99gffqj76Icf6z7x8Y92Dz30UMqlNjVLS+f4Nbwl4XFFd1ViqwzguIZLPuKBT/O0QnSVkBfXpiaQ1jsh8av4kVKBGsGWtEExou+GtT/9Jk4kdbJiiyuBraS344yra8+C0VJK/CoDtC0UEr2InqxVaWAwt+9k8A2TLbnHjx7nNxxN+ORTT3Rf/9o3mBP8NQuQb8KoqGxY5VZWMIWDunN2W/QCMQDQ/Vr5wvVMl0lv27e4CSvDh9Ils+VQXRJputel7MGR9NJEWmhB5X2G653M/9bNa+B3CQviUqYK1sH35nU38GKNVAVEtZPxFiib9xV6yL6Lp9dg4FXUV40jjgOlVfKw9WBOzs2686hxGndcGO6xGHC+Ghv8aX2Ij4WzjIWb9XaIkEmLGGpYJbNNg7EJI26zY2QLmFvgtEVPeINxNB0V85gA1KrK/OYWqr7HObpIoePKOoVcSlhzroI5BK9V1GZJorovLdwe5dhwFs0lIyMF57jO7bl161r3KsMF8T9kTOvKHhM7taNRxGUKwmrTdLwWZ1ppBvTf9eYvJaQO7M3KyGUjwtI76sttawr8No3jt5i6evZ7z3T/9MUvdZ/4xMe7v/6bv+oeeeTRNGAuTHc6RiGW36OlkddYDZWOCiZY9K4hI168+x+al7zQ0MSnxe2fJhZMn/REaPtsoZOsUjDT9sLUYp6WxyTsd3mD8FRSmKhl3z8tkLRXlXDPn4K/5NIxxlMbMIzL0Z5gb9yXv/Kl7pe/fplMYVAWLa+wftQVLTsw2ozrMwmxtdyHGaWiLXbKkxYWRid/XQTMSjC8qEoYrRv5mrfH9Y8H+IlDOgXP/xpJSMx/1DU9GAttOvkPvrcRwEUm1Jed3AYve6A5euxdGGYWRtlHgF3FolyJzRbzfJ53Y6vvcRlqCTGAUA7xsHfzEGB7HiIimM47Fr3CLL4jMKkn6UnvT1NGXHou3p1e0PKpdrHFeHkHYXAHirskVE+3eF9aIy50L4MNGjUCu5iVSZ7hiuWYPN2xYUPhPCFFjyAtEefcBQ6cYm9mVFPwTY8IGtnbSflf+NHz1N8vuznmIG9TbpAnFBrzz3OCrBMt1wqjBijL7hBAnhhgpeEp1d3eUl4lGDysg2Iix9d79Pj7TLXUONHF+V336iu/Yc73le7JJ5/s/viPP9X91V//Tffoo4+Ghvuc76qsqO7a4MUBT14wA33EtuXRwpsAhhDxjDD6JjImKRck20f/FHiZd1tAEaR9+RxnWJm1UAtc4UUAmMSX5DnJd5y+UhaRKl4JoqhqdNEVCNID3K039mTzMOMak+e3MSC89NJL3fM//lH3xFMuTXseCyRHUpBodQ0TNyZzxzG3YqWTZDXGaGqolZGxkd0DeMIjMJIMXAuxZYSQjWd4w28YuKyXvKap5ImzrK1sCqVCqsDWWBfeB/8j1DMPd9q1bITdZDf/zNlSncKkMP4WApptQuC2tcMxixxM/PobqNfX57uL5y91F1Gt11k+pwoobaS5KrK75j3mUAacBX8Z2KWM4m3JZVgbgeoFEULwOKI3PEQd8zBhVxlJqzdZW7uJ5fcA4Buojo4XZUS7Mi/RcVx9g8XfZ5mcd3qILZAUhU3LNHhSR/iW/wy9vkvgbOg0IF3kWMk6GkSBclgB4jSMJnqdBfY/fv5F6IIxBxqoss4z1pS8YJrGiOY5vbjTLjZIORQa3MZO/kgjCe5qNzFSSQ/ym/Cq/pQd3Fxupzq/u0vvRyPiCqgrV97s/uP//bnuiSee7D7zmb/OFq73Pvwge0pZU0zZdxwvK5T9n/XrPytjkkdhlbq3AiRM7yY9Y5scI23FGMVK5PH3+N3AJErl+3UyY/3KVTzfG3PePW6fhEdWZ6RQk/RRfWDcHPVAHI+UX1tbDjM8+cRT3X/68le6F3/2s+7NN99AtaHXoJVfXmUcCIFqaZbXmkW8ImRCPmQs41SHBUmlWDGTLEMW77JXSJuTEqqmlqOUJUPq2w29ttjxIVxX4Myj6NTSu+LmGAbYvX4jBw/PcsLbjdtbnH96HpWPObsZJthvwyAMKPYRVjcQLy7vMs7EEozw3eRQ4UV6R1fCgHape/SkMp69PPwiVmqoKSNNQXBxzKnRI5ZIhErVLxuKocomx1zsIoyOo26w9ctdEM4fykAeGGXD4Xj2GFVNsZ5jDJj7PAn33o/zTOC7dQx0YeZsnUUNxyCGKksHjRWVcTHrdbNnE2EJb4J8LJ/U2ZvX3ui++fi3upffvIH6y9wj2kTipl4Kf8sXEade5AlVXleP2SgqgPZY1Qva2Cor1BN1UkYfemnCJ72njab1RUT+nP+sRpnGHvVcoVpkiuhNpnL+z//wf3X/zPrXD33kMSywn+3eT0/pXlV5VTuDxiGFUo3AOm78zuu0M6swATRy7aAR/Q4SfUA+h58KrU9T62xTm7MAk4QWugp0EgmZvKWpZ/LuGbWFyNhj5H33nz1EaowCayhwnLe+XkvT3mA96Le//RQD7292P/7xTzOnJJzVNRZnw8D2KDuMc6rVBy/kyUp3xKFSJl4KdowtPTWCz7joeETgtI6SQPhVkTAQaWpLDoDwb9RQUAuOvSsttwYKGJnOp+IQt8Ix2RO+yNmoh1zDfUBPMEMDuUVre/48Z87MslTu1g3KQAu8csj0xBnGkFwBjql+bRU8oqrehOlRRe1cyWMWtdKF37PMRB/scOQFXZVrPm1gZLJMacDE1p7nn7ox2XH2zQ3vQmQRAqppbqWyRyLSIaqy6vSO60OBoUQdIOiWXuZ31ZAGMgFKx4ucIqARR6tGjKSxQ5AQYI6VvPbgHHOWWlUdryYYWFlXy0D0yW8+2f3opz8n7Zm6+pzeDrJkjCo/VKOohz0iqiKNn3CgNJ11Px0BmtaRAumz1ZFC6F/js+o5qy5sjORf4xvuOTqxiPPu9evCWmIp4TUaiX/+yte77333ue4D7/8AJxB8tHvPe+/vHnn40ZzosEeD5FSQ+WR3jVBDOHDqWdkcJaVEG3rG8ihkEjb6mSSoWBXku3+GnpYOgoyjV6JTfseR6r0hbJtnFjK9ql1acAikJess57VofHE+0PWhP/zxs5i/X04FLzhWxBggIzhZHB0GOGqcMqEGGi1rKgPmmJ355pHxRsuvbxDuUghx8s8BvCp8Vq0AKytgeIYqfRxbb14FnMrwNZXMM0TCQ2F2c4/OA4q9X+ICLW0sjhiO5I8c0Uhr7dhydo34WHdvb7L/cW6LVvWgWybsypXX2elxLqogLRAtOaZ4SrkNY3g0RV04Az4YV6RPVsWkUfIcmtqY63OHceItdpF4aLFH7CuE3CNOehjSPwTUpW82KtaTdWNjJqO6cOLipfNZTXOT9avuJ5yF2C4Ep1lIz+G5rfc/+BAq7fnElz6qp8ekPUaV/u53vtM9/f3nuk0bljl6GmhItlmVZJVE5HixJ2pTDsJoUxvS0fppvOS3rn1XmMJWVTAOs77cgK1TIPMXtR4e0Y9EnmBnOVfYWXODK/ce/9aT3bdYIHLp0oXuIx/+SPfBD32w+7d/8WesLWZhOg2dSxJVydu2uwJvqwVE4InHzK9ffLpyTdYW0mIWo/Ve1RkZ2bDilxbUP0WxBfj+r+GqVTJzJ5Ndpe+ias9wsYKfeeaZ7guf+1zWidpauWJCFUWLmLsi6t3NqfQOoOTlnyVAji9kT504OxaFqfzix9U50VQM/i3OMY/CrZsi4ol0CSNuBvWJDB3tmnERZHI3f/qHCJ3QVJeXaX0fhGGtwBV7DxC7fet65smcHPccmPOMEdcwgswe7XXr9EpLlE3muXzxMmtcMQ6hxnrz8BqWyBXWenrglEcupjEApxyrSHxXw2gIEh9VLO/WkMm2mH9bpPeipI4FmAbAigjMq9dfh/GpI9LeZOeGzUnmWsHrEmPZe++9HMF0T6X7PLXsuhRPS6iHYnkJz3sfeYT1s/dg+KBhgfg2FG5WfvKJb3ef+/znupt2qvR2u9Bqz9PHwY0ON66e7GrBwCPPqiXZAzUhEzed5bSBcGyoAcrw5u976zHj2f9Ug1K9ZkWvNC2+T/8AzdNeT35DhYUu4pVpEt4ffYSjQf7kT7o//7NPs4TxYuotOFCftWFbeSIBcFz6qLI/5YotprySqT4kDdNUqAhWgQNNiNVuVHD/G0Yc+VTbMvKYejW2cEUSYgA/6ii9z1nM96/+5vXu6e9+l2VMX2bj7g8jPcsw4DzrQ1WpHGxrTAhT0BK71UgGPs4kMQRAWOOgorkE7yDIV/7TqvP0LBhbx7EL0cYevKf0wqoaG9FmOqJ5WUlSLy2z77aIOCuF4WLCGeFRZhiH33kQ2YU5nfDH2I4RhU3I9Hiqp4dM9s/QE0qb6+6LfMc7UJvq/o7b7JQ4otdy/LYOg64euazO5WdaGatBy/whedtgKUyqpFqQbe1BjCVtTIlkioGF8ayHnSdsZfUcHS3jIQWG+oC0/KEqwuD2cp4WsM4ufKdZzrL30GM5PDU8Rj9o5KLyNF6UTsvpO9/97twFAg9SalfaQEd6esf7n//iP3S3hU/gLkJ1aM9NF1y1xlMp4D9mFsqpPcBxYU9bqUwZStV06FHWWacx9O+riqf0b2msibGjF6aXN61THQ22+bSe0ned8By62LbuYcSRH9VydM9hBf7Rj37cfe3r3+z+8i8+zUKCP2cLlzdG70Bv6oKGxlLJaaa4QxgF0pjLd92YLSuhSdufPidjmKo5wsA4BMRLYQyqErR3eYu+A7kxQhgrPRxv66tn2Qd4q/vyf/p894UvfJ4d3c9DHNQDrstWADcxtQvTua+WR3Yj0BpKOJ3WNXuAjPeIHSPNFM5gRGUVk4rNpNIaTOFIl/E3iARKpTDVnc74YYKkt3lB4PCLf1IAU53FxocKyqlsMFasfMRTC7Ans9U9w/cy6jf9PQKsIYJxMHsdnWpYx5J6kxMCNjHknGMd6CYq5jbHeFy4cLZbYrL85vVdGOHebu0IemKM0eJqvaiuu0naFjtCSd5HtNyzzHceIuzCWUTTmEctVt3KvY80EFpPtR7aiyxg1FhABT5LY5G5QnriqMOUTy3jNlZYrY3nUbtXGBOvY5RaZV2svZk9mE3QCj33EyzE//w//FN3Db/ZmaUI/744QruDaC/VgEE80ihobMVSDQcHedDqdq0wSe5oTG1cFVDTOI4LnpRVgTvJ760h1l81uOpQ2OZhQ118RaZpCErjkWfQKqgPz5Z1YbzzrFpif/bCi93Lv/xV9zhC+e/+7t9FKBVhLcM2CtVHnNIzmsHYNQaLwBBQT9uo5mOM9n5ayjvDE1uK4TLW4rVNwKr/W1bV0Q1a+a9+9V+6L33pH7sfslRNfye8Nc1v0upmpz3qk7jIvBLR9BaQRltfASccUpFbCYFPXRMKEhuS7wTwM66gFq9HOWHVO1RFBVZLOHqabuKqvPS9VAMVyqd5mG/yIqpVnDz40Uyv/fE2wiDrHaKmas1c565FT2GzJ3HjsAaXX/3qZRZlcwENtTpP+A5h+54MADyXwrGYBtXQ0wbYK4ga75TF/jHrchEqaSaji2nWnEI/rZjYLTPJfwStXc+5+8YbjMM5HgRGvo2hxv2MMvYFLKaOtQ9YeO1CC2l7gAW2FhowBcKtygeM211woSV6mTWo5xHaNb49Nc5VL1ocv/H1r3Vf+uIXu61YNjASgccBtoFauAFUiCOWJXjWV/XQlIw8dSUMPqfprqGueEPcdNadznipA54Ft/wSyI9+JcSGa1RDhYFe5hgjnHzmFA7amHD8c8xaONRcq1MttE0cVLvEVNsvu3//v/377pmnn+7+7u//DqPP+7K4RKxAsXrGMAMep7kwBwEDX6U8/IQGvdoHYaadkXoi5dG/Q4xS1wRoDJmRMN/JyFUNtpaeXP3kk091//H/+Vz3fcaGbmb1+AlN1znaUAIgaF4Qo0oqU4hJzNoFGiKaJ4BVT4QfRsELp0WuufSGQ+Ga7+nP1mIaap4nK11YI9B9RYNCKj0YWmj+2xeIXYstgviZXlyUSmPxbtodzOq2tM73GW+Nit3liI8tmN4lYM4Bvvrqq90ZFoGveTEqWoM3P21xecwyPY7GGjgpxpgbpNMY5jrRY9TRcAFtVk3BsOGZo/tvcDX4Amrpm+xauUGDeJtejYFfd/YixgjGkFvkJzw3AXt+Ts5Upad2rew641hV5bYcz9PwljB+uCPhDBuO33nf/elBXR+qSnsNYf3S5/8Bq+nPuhtYiw65VzLL/1ju5n7II6ak7InSXEAfZAHCoZ5Cj/kMvBoNIY3047N2zkjDcpJUgbQXVsBMK12rXmrC3nTGszFvzrjynIJnXN0kNz7AwzpTxS9/8ief8KPjSPjTFDlmhEbs6Iyq6Xz3+DcfZ/XXL7r/+r/9b1gH+yeBk6HVyz9vBpypbMw3rvmKiqLTsCm269WGsJbRjV1IDxH1xtkD1G8JcNOro8sTZi+nIN6iIr/4j1/o/vf/4z+w1Iq5NNSprJdUvZUwEMAeUgnz6AYXAFiQrHaRYBDHh7k5+qo5SvCq/z0WBI6ccXWpIJ/5mv5pldF8T2vAGjU0uMQFUeGC8P9H2ZsF3Zqd9X3vmfucPn26pZaEQAgBklBkKHAcMI6VosoG24GExClyEztxHMeuVJILX6Ry50oqlYtUpeyLuMqVqlRsXAnEmHkQsRmMDQgJSUhIaO5BjXruVs99pj59hvx+//969t7f6SNM1vft/a53rWc987Omd9gYxh5U7P0b6LCWrfnQRyY7DgM2QcOoc4x7O93kuI+Ha+9lF/m+e/nRHGYGr3KpwzfCuei8yEPP/jbFOYLxbUxHX2MUvUWwevucv9V4Fx3cfRzPMePwMoBTRvlwbeS6S9qOwt4M7sV7L5k888xXcxnjFEFDRLNexEZcSjK5R3vhvnuxDzvXeV0dIzkj3GlwvfLiVzNK32RzRdt83dvesb3jne/c3vL1b88o6FvxvD/4mScf336JTbjPffFB3lR5H3f6sE7jpo3XvU4IDS89ubbyEkb0jyxqy8BpUMmJ5/rdsl/8o9PJFK7ygRk4g1M/KZ6OgAb92FmM9aHCmC8VMRyk4IEegS6N0aV4ZXTaqPPTdAKuQe9mGZFfAadj/f4f+IHtr/3n/+l2nrujsOQbXa8+vQQ8oGt2kB8tPiw9zO+hpnSEyjNzrg8h5jVA5/Cf/oPPbP/4R390+8SnPgnTPDPIkwu+2Nbb1Lwwo6Ls9TJ1wFntHOwpXce4caPTu+4y7ZRhAI+xLNeg4sHAk3Z3FgHn3TBjkKn/4x4zoAGsUQwmL5zJTe4oIQe3nJU/Sm9D61RHMdr7O6VT205HffeLz+M9//xzvMqCB5F5lvAeHsI9zwgojOuxY4xcXmq4xGsnnuHyhj2wE/gXXn0hF+cN5Gv8OOp5Aov4hg56MAjB4C6uu87PvfBCZiGOwJe5fujbCLLzzCzjJK/+OGfHKNfoyBsacmkEfR5n19dOz87vJWg4JT7Oe12V2E20Czyn+FYC0ftRvf3QEffT/+rj2+985Le35y8xOrMvcOkqHRBrzxs+XmVQgNeOwtSFiIMxHZRy4dQ1aXV4aK9uzOxta3vtIQz/+EU90bzvkZWWn4ERPinGUAI1XL9px25BcQROf1MfnMQ/0YM77DOa2l5ftGNxb8NR00typ3jqxssnH2T25y2Pf+tv/Zf7DRyZmyRj//pkAz93gj10NNkcmGUggsa5tE8miMHn9H7pl36B+fT/zmvvL7EZwTtkULw3STtyZjrg6AKT8hl94iDqAZEyRXUjQjpOEwy4UQyFjCxS4YhSXJ90KiJPLT80ZgC/xtfopYbteuNOoN4b6citv5vy0l+PkJTLTHenM1A8R4IDAzj99s1n9rbi8KFdf7TUEfcSa8MvP/wIlzy+idGNO1xYSxpYpxhVbvDTb8KyF4tTu5VPGbizucVtapdYpznN9C0Cr3IZQ7N4qcML9S+99DzTYV6zz7Tybh4p8vLERZ6Qd1PHTpFhD164zMBGmUFid+Pmx0muPfrWA2cpt7gp3B/C8Qb5a/T6F3j4+R3vfNf2De/85vykwSsvX9w+8tu/u/0eN2c8zg37N5iCXuO3QG68hl3B7S72DW3HmtafsusFehXXDs3QOMkNuXbCJgOvd8wAsJK2MbhmN1VdWybvc7TepI+1DF/SmVayzI/2tqPWn5yKUhRezIwvdESUl3LleW5109gr6W8GJ0Riw4yebH553dG34P36r/wqCOgQHv/yJ8JFnH41HkKDbI6SO6BB8RD0OPmB9ijqCUZV2ZHMnsNe9QzXvby4/WM/9n9tP/1TP4lxeTMaF1F9P2gUwmhob3STRZ66ipIJJoVR6ExfpALpTu2kqXMDz3HkiGKjwBpPpR6VI81CM8Fi2xbtvsc4HicN/jk/PPZu/JYIJ750ImREofHTnhOdoj26UOLnqBNRTobb3Oy8xME0yCksz2P69MN9TBPfzLtV1cdrXhfk3tu7CC6norfcnGGEcmfvDNN/7/30VjJfluXDxr7+UX7y+kecJNc7KfDmAH8I9Sy3DvpT5U5ZTxLExHTY0oZXE8hsDDGSeQ3xFtc4b0HLX8FyBPjGd7yLtepdPHb0LXSsF7bHH3tie5znER/4/GfJP8XbAZiKwsNV1ojH+SmDPhvp+nURiRqcmqoOfaD6Oc6ObWY8FJtSzfcseVIWfXpt2dGz6zfLHU0nCA9taJ33nVo3ARldUD5201+dbhtkswSxYzf5+BuWhB4+p9lSevQreODlFG28UcABwx8Syrt+GJ29n9rNr24r0TaPzwSHmtBx7C0s90wTVHi/61qW/1FpWmT2TzMDgd4Idr0u5XtO3HT4+3//f8v9h+e8R5HpjtvnWWxDO8ZwreVWPidSdgTMhWNIhzdwemWgLztyokQ+SinzUbxODbC9KGoLD7cbZCRRceKwfj7jAJ7XMdAAcOanzvNDnLmtDr4sz2hMT88pqXAn2dQQ3l5XA+MKBGUvSp9kfeZo6pCfXtXnAcVvWzC4m3wMfb7EzeQXrz61vZUL7N7vedobsmnnayVxMT7gP46zc3Rk9aHcK4xqGe1wQDfKuvvnzQs4iW7NtT7vtoEtWjkpZePnBtcfvQMlmxJM71jv6ZxeV7vmzimO7qWN82+6P5dPvulb3stO75Xt4ccf3x789Qe2L/zBZ3NHz1k2cG7ddS9TYKbdPuSNDC43s3HF5ZOMKPCOWvjAmzMM6HsLYfSMDkzqVHvKuzZwha3IKafewGtCY6tNggVaY78FkMOMkJ6oXzt3UPZjpwgN8fhm9DwRQtUu7NQ3Z7GttGT+DilsBDm2YGYSmwPrJSXl8Dotd+D8XlsDLdLhwrM4L+UF6Ldv5SqMDEyLHtM8X54vZzZHE58WcFozb3T+zKc/xbT0H2yf++wXue70JjfnUJS4HSmc5rlL1alFHCnxZGCifBDK34wWIVmKWV8ASm+bBiU+CkLLqu51rkVVmml5cIR1cXcqKxu3y1ZYyyf4dJQae01lFrq0rSqiS3/XQofzkR/6w8gYHOjUYDQfo8slDKaHho4P32b6QxmcoUuVxZ4HI6K3BvqY2IXz/HIxlwna4fQ2PbSHHKzB6Izyrhx48Z2sbhZYZ6cj7/lJcKdiwPn7F/5YjrZ6mfWpuvZm7zzVz7RX/uXTGw68vU2NOuI6tfXVJQbh0089t73A+vMiG0zuiL5O7+gIaidwnby3u6XDlQEtRrDp5PLuKKUOvEnbNbCXIVIGJRqpgGWTTsOrM/SFwtox3tmywh0GnbCWTZpzy6Y8y5oBoFy+4sN2lCuJguIsgcSmzUziiP2tZyR0cPOPLOeVX3HUgyNvnvRIS76AOZLsbywc5IPoCCSEYJ0ig2NSc5bLVgXrYtxn1x7jifoP/uLPb7/xq/+cB2ovbm9969fzir+L4HCkoB/0dra4CbTJ9vlBmAebI+B1nOYm82vfwhXx7MJJvoJwkhz4XGE5wLAoQg4z2kNk6WvAjx7BK80okpo5joEEtuzw3Pxsp5s/0gZ8beM3dSj/FtPuXtx3elQAN25oGH1no2AxaefhX0Z7FaJwNuHj5sgpKrxJ/LrTS1/VQTDdzfQ/7yTFLt7bepy3vnkJxKm8vXxHdPUCOpw/b7VjMGFmBx02ga5e5II+t68xihqc7nxefYWXS7HTnSBhCuzjTHnNRnBy3Zf1pW8D95a669xQ7vRXfUOAc25bw66xAVNm5yftfjja6yCH58qm7LUrHQoBnOmgOkNkyx22MksSzs4VphuE4BeXgHdIY5Pbj2NHcciuurHDiZNgg9DV3uCcEbJLjBLpKAdn2gscmtGgNyUI4Rk2PQMBHR5guK9db7xcm9x0VsCvSu+mqYKnQTMABkMaraIcVOgkGTTtSzxrqbyZU4Hpceldfdnv3/u7fy+vOvTFSaf5WWyfpJiLpiomO58wbUpvlzCMecBUATIJWQoa4m7kxEhtWSdHM04R5QVNpvdV4/6p5jFMmoRbc9SlwSolL9zATt0cLTc/9W11p286B4wgakzWoFtGs7B+5FFmCwfqwEcdyNLrViDJNKda90ZuHf8qgfMaF/p9+uLVEzyYzOjn40I+peFU+PUz7na6cwpOdka9tq6TXGXK6E+GO/q4u3idx7a8lU0dXXX0A7+XPHwqxuuZjmBuvOUlzXSicdx0fAQGuG9C02czbzndJMhcs/rLU47g6smNJWFO4oCZ56zOdDcrImi9icD7PeUxnZc888mD3rEceuJPx7fcIPFSwaENxj5U3zG9cebjjKUI1WzqRQ4dR+y8ahK+AMpMI8sIaq3rJSsgl+3SCZF38IgNnU0UVQrk0ydyxO3HvYEbdIK7YCzzVpJo2Wi2bYfzCEr1olc4vquAkNqVmRl8uTWNOfwzTz+1/a//y//Mu2ae41rZ/fm9Cbv7rAtgzkDKQ6GYKL0TKB3GNYadpnzbo8ohE7OMLI4WiFIebK+3K6hQjLQ6h/zaJiO8dSD1hztN7rhZJ/dxlARH8ak+He3QwLaZc4+Tt62fw/PJ28YkH/tNMnv0sJo6N6LysG10naLK3WzaKpNtnNYZzvLmxofJm6VPM/q5IeC9ozd5jtFXJgrOe58Y4XjkihHOFx+fI0hffvKp6P1+XnKszhzt3NFWE74e0inpVdaDL/D272zw0HtffIXZC/W+HcEnK65CQ0vkJ+d0LBTZi9+OMHaA8us9scxm1DmO7J9TZmrqX/BPLvfm3nRDyQ6a5x0njQ7jGwRcztFRRnaAMpppp9h44U9jcBoASz+Dz+PtZfE1KzIRhD8D25Ga9uI3sOx4qAjf8pCbBqRL+fA4eD23TS1js/qkuvPPqwg+6iVr2SFnsNC9GRr3wej5ndJRJ7sThGW6tEly6xuGDGTvvzvD9OmXPvgLPLH9AOvDt2wvcL+ltxc5JU1vAqwc2cvseBcT7RssYTeBZLEX+qMEQUIWuuS96FzlQNtAp7AcCaRz7JVkiWUaWvJRYtYCIJKGPTT0S6DQh9+j/BgGHF4/6nSpUFPvmXSLKNwGYDbMol+I+AaBwkCcFF5lBZ0I25by66aRjgdMdOY9l45kBBLXIvP0ChGg7MdxfB0jN3i/5hSTly+xNFAn/jLT8zzI7APA3sSdkVmnA7druyvszgrv5D9vcUO3DVKu/fHCKl+h4RQ0MtvMTzZO1BmjcXQJ/xi0QQPP4I5c8JTpMvzlYWaDlimpcO4Sp4PQxtCOfgwMz7QVHDlAWW7w75J64cSpa2wOP8J7SCITXPDg0Y/0DJbITr2dc0Y1Zga2jS9CzAAyIDNCMk2RL2VxdDToHUW948h1XyoXScNXHwZVfYyjHa9vUYA05Qa/9sNvOefJlTLX9pIhyd0fmaxfsDu4fRtzKt3pzDlegfF7v/eR7f/95V/kqe430yPSa9IUOyR5yHNsnhkVKik9xx5fRker1TbFmeBw7BShcAkcq5Uc3mqGOiMF0Fz8it88nxgDRQYpbVLOUSO7Fmm5rd+Y9sFSw5auaA/1KT/9DK52FpaV7znKs7Lt64fm4nudppmOwEd/tzPxDQG4NRCuvfhz9JEPFMY+KArzhcE8fsVtdUqVoGEtedGbvZ/hVSS0OcW5PBBmBCPy+7shvP1bAW4Z3Jlu9oI7K3auEWoM+1DWdr4lHH7c3JC/3FCgPCa8Ltf8NLp6lz/zSa5pG9BzqcBrmNGJsJFNPS2bub6iLFNGZMOPCxtfyknoBXubt14M4uLjPbM33MnF7m48aXM/8uHlBXmTtDO62Fh+KcgPziYgOQdfuz9Ewk9s71IsHbuVuyQnfIwnYPTR8GFAZu1B50Igwhb17G47MoksUbyQWDlOscN7kJEE/cZCAqNRvKUKjT7I0lGk3B/j/Jmf+am8P+Qt978ztzxFmgiJQmvTtkXYKiCn6TWaW99Rennzt+Ijg13MVONE6b0Q3lE5fEyPOTDSpSLTb+DDO4jiAMJQZ5BOyiNYnAgnTHZyNY7OEHpyYa86o/Jed8IDmnYdCcVxtD6N+drRL7opTnsbWaxN1I8nntuNpMyhIhM+je2I4jmjO7I7lY2sBA8DZxzL50NNx3yyH0w6plvsXoRelLJWNDDjB+qJ0Uu8+grfyYe2AqIL15aOqJzwmkaCWX2Yjy7Lj5e0EnTsKkdf3kiQUUd5MK7K4ZOpbGyEXzLjUDf5ufNgt0x+9Nt27A7L6iPtwh9cwLNWzDRxtUug4WN3MQrf4Ed2DCD5yA/dcnlB8l7uybVt2iuLH3k252NcMzC4RDLpK7YTLlwQzHY+WQNTPnY3EGMHbOLRmeHgsq02YDweovaZ/z9SGIC5NFmcmbecU43rE95/8NlPb5/4+CfY5XOzhqcMiL46u8xDXUmAr+MiWHDku7g8X+gDw2lqI5yVVGMA5+/Wr5Ytt6H/lBcFiiXvdDbrNB2JGtsEB4riP8of4k5RTBmBaJtgSMm0KcU47Sqfw9Ey4WqI9JS70WGgR//Czad1Gq9JOSrJKghoSvjKpoLmJGU9gzs6YuqE6XCBMVy8pSzJIDOw0IOBd4u7WyINODz3FYzGvjSZTJnJNNjfSUz8066jgvrRMd2k6dTTdrKSvgOnF6+baa4xWTTR3rZyobODl0DWfgZPHNlgwqm1qOUhLvyygfagq/E0ZXwDAgAFFpmC3gwF08n78wByk05CpqFDbIeuevDXxfTP7CeIzmATB+mwkw6tUMAmyoIw5RNZ3DIlyY768Sy85IuzFLRdAClQb4zNEBvoAItkZQr5hu+4NjAhQ1uFs03x2LOVCXuYn/2Zn+OtbBd5HQH3RtIzbtyVnwCktT2ZO1jTe8QqMaFlCl/S04OMsErmvZuHI5Ojfnse6MOTfbxIsoaQtwgMn6sntOcWn5L6lPv0XK5XlCzCGPD8qShTekgbJJlRcSofDYBrAjXORLkyNO1xDC4kmMp1LA1ala+woJGortdCLpzFwLvG1E1LgTP7sdKRg7Ze39XRw6p4KHPaZZbvrAu9g8dpWkJGHCiwI2CphAUCKfq3vT3/kj2baNGz8ggJ/8BmRKZIDWs/7ZCbESKXXUTlVA/iVYd6UpYsnGdEAzZTO0akBnn5iZyQUr/xVelbJe98TGMDdWZgWeqsIUsQBgQ3UUSgD+Y3TbLutp+gQwGZPmrAFltQ3vZlTaimXF48H/opRB59ulBobBmqyzBvWIAedKcNXeQ4xR6xiDTWYdLBjyYK/PcT2CrCXthrUG5lf/KTn9h+76Mfz6K8r8Nw6tI2FQRTQSh3dlgOd9WlxIAUuFKSOUgRSph90miBB0fuKhFvenMdL4jsfkM8O7z20KRisb55FdOdva4F0sngcQ1LUBQ0vI4jeAnB1jknN9vWreccIr42RAbtXQ87EVnrOqV2UH7bHYpdndD8TqkNRHKk1mmPDun1xYwCIEyQSSb4JUzWvQrOfe2DwatqtUmuey6MmRVYSQNxYDCy1belFEZmtZCOUwdEzpFBnXoN0CPzIsqX09LAW/YMwFxbXdYAS2GkJa8GBdn6mQRJtLUTdbRVp9LOKE2bXSAGsIEZGVY0wEmC0IDMRhOzH20iLjdhfAY0A8Vqf3gYGzeAxubRwg6s9rNzdoSlY3IdHA7hkTJTdCHfS0meZ77S3m2H64+VUTlJakHhDCScXf0prG9o/skf/4ntElvi997z5vyGvfNkYaJYofbWCnMyNIaavIawgeRm5zW9JiUVuoa1TEFVZi6RSET8fDISB0GVIMvezhU89Jr2PHAVvkASo8ub2yEaWP3sdgXFQ8oo3Gy+3eF1J7DrgQadFdLwdq7wsXi03GAxtWdMVpBsgiiyvXk2BVToSh1h5qQOq07U1aQYFzx2RLn7hrpdZ6TgJFpGn+pFneke8u14FV0pr38yRAp2cWI/d1ITsXwl4Kh0R9QOVZ7dxHGGkCmmPnEbb45wuRJiO0ZsZyLilwfzIA3F3Ftq1jN0kI4aXoWuPJVj/EVt2pHId17RAV1pS88f+PGmpbRYMqXTUBPw6k+Q6w9Km53cOPEEmu2atKWPQJncPRdfGkUWpeB0dJbTxsWUtcrRf8lM8A//8V0d8UDlQVgKze59ocQWwMFBgnVshe9a8cz20z/7s9vHPvZRnnl7K0ryPkgXqTZDw3CVh39BaSc7SbstWVrkyVJqCjiX+Z0iKazCVZzGbUAe9j62i5GcqikrgK5XlFED5xUcJZMAST0BPUnZ4lC0iQZsSgofzYZ2bm/jfD8NBdquXP6hYyfh1C00gXNaaLLntI3BaUB48d1zdZGpc1hBPv6Uy+me0ypFkBVHNGsn+RCvdW545EVJ+6ryIiAA4tIpbCqIciqTSX2lU8npCiwMpfzGS9rAYOClF5tabk9PwZKTkn0a3FT3ftjqX1yjC6/vmdQ3Yu1HdKLXlwpnZMQh02EAN/x6jB+kjM5FHkh5BIs6A8w7sm6AQJGyU04mfhRQ6KF33+ejfLJq5xp9D9/YcHzNzkaaVslnrANNsVsmyuHNs/rj4lHDAuRsZdaZ4hVe24UIhyRwAbwQmiW/G1kCsf8SiQHg4zMmhbeX+Rw3Bv/E//NjXF/kp6m58di1olMxuexBo/mhUe5EkIdlZYuoiDAcdd7DJE2TTc0JV4devKx6YXRw61Q6KoGGhoCuleSdlmio0LMIOEcjYfyU1uKFBv6VsgdckE+QgtH43fFGefwB3jMxt2eXDs3nWqjT3egOpuTLEXJozgaAlraNv90Rm4AHtVU3FSFrZ7KRMTo1L6e0i5x2ha5L+ItOKTfw5N0bnxVJPpzaRUvyHtw6ETt+ysiHakHJwgCZuXDt9FO+LYsJJzDFIRMeadzrjgYS9JgW0kIDBL9QloOIL/mQE3MU8bHcVz2GR/lZKXTJzyxDXndyUm7QZaBwJALHrB0HhXxFvvAPj+kIoSo9y0i2maQ8jojeqeRlEc/VnUn7h3d5oLz+Da+gqx6URv2V/7H1TKmFyaWNSC2MgG1TJBTldMrERjJAaMvHxa8jRxXlA7D+0Mkvf/AXcyPxBe608XXwURINXGYgMl8SQxA+bkGHriYon6ExX2F+KiRKqnADsT8Ku6MF7Cg0raxboLk8wZnTT4lOMHed01G+bW3ZVtIsHps4OhnEGk1+3shDWum4Kxn0CQCMG3AaDa/SKivLkOjHugUYOu00SswqcQljsGaTSnzaQ4bCFIRxNnnLSAoFp5JLnDhRLj+ASzlOcq0w00GaZeZAmdcp7cgSBMFPJeeukQNLmXU6bPjVnsOXzMsHelJXdugnhbPMEZljOrOwyfnqcDhNEk86K84GbnALMD7QYNDWa4PpoC7tKI8SoqilUw6ylyIU4t1P0odkZgWOig3Cds7STSCrg8jnEqIDkOdBxndwWr/+7Nyrp0IgeZJt7CTmWqbn3lJnlxn7QGaB9kDxkaTwIUzF9KSSyFSHo0/k+5DqRz/yYX6953d4Fwqv9uOZRRlTOFwXQjrdUhqcOaXBJLJQ3Byj5Ai4yN+eh487pR1/C8cEorBORUc6jzpG0KZQRei0xWtgZjQFwH5iyqMwA5D22TQg006pjjg9pPI2eZx8HQrxd3JqGNAn2ZnJofdeytdcjDYAO2QoQxrjx45q8IGTqb9jPoqlL+VvyQZWnT7TMcVStshXOZsFN8RcF0Y2eRWvbVOerh6ElMhX6qnziD57Q/+C5bxDmDEmHtsMHjsBccnISlT3PBnAqUeWzJ4O4RaYehKlKbzJz+J77DznY0vPTdm8st3yAWOzPieD/INrFxTAjb2t7DQScZWXTSZpRT54PORHOu2wwC2z6gC8yqPUB5ILukvD4xTsu8pptqgICL4D5iDocE+hzuy41sde7B25YMki2Rfv/NN/+hME5hUeEj7P+pHoJ/iWicscsLm7HvxLv1GsDGU9NVKGBiqZ8+GYoy2jdPN6+BJ3DGMwmboOK5VDI5kXb2U8qqrDMvFNkKnsjgL2lq7ZGoTimjQ4E0QUjoSWo72yaQ+8+G25cgvLB1SWaUsL7Lq8oKd91bdat8hAU1fenpYf2Cy4jdNesFgI3rwElBEfpJVFGNpT7rpd1pxCcpi4T73nqQQTUPkWSHmzbLEj8C9llGe3uHq1KYCCBz6jDIBdE3rJIAB8KVmgkq/+UikAuIs89FSzOMS7jjsYM39ECl7QphOGnppMoEVLK2DBqX1NocsxtqVo/Ko2D0hgyjmapl0ClSp17LOm4rfe+4UTL/bsKxW/tRFpyQRsFWIxSCEcR4kSKvg4mwR1svTi5HV0CVvvqxju4rGdX/+VX9keefjBvJ/FO/yPsX4Up0rMHBXj3zzmhdoyWmoKgwAqWGXgfEd2CG0rdwozeXiNq65z60dh5k3yNWUeRyFTbtnIJnwMJg9huIFsUAs3Qe2IZcdjirLTEUirrMnOBKIsRumUKe10GhPch5cOhMuoKB985CFH9UFGaVFZ6OQdMASCPE2nk+6INlkuAGsje38bVtdi8xPIjOx5PSNtOmpRJw84UGwgLOfhn7xyyYOZPPFONrePLf7sREzqobxLa+XRn1NdR9I4uyzskg1X45TVB81KOzXrmCmnMtqCY3lLozd8WTezGyu9ET5hL//KvHia4PP2v2wiIUg1XxriUKbyqB72vLprbBvt6s9DZOy3OjTwZ3w9upUe5evK1s5mAIqY5FF50GlGKcu0dpihJf+uPxoUq/eSkAEB8m65e+qC1t9XOLU99dST3Az+8zDA+1K8E+MYF/gzJUUBovcbEt7RotOokFzQxalUgDby0ZoEg8qCuwSgbRddsuHNgy/zkaXAW0BKr0Q7BTNZNzt1yqIhTMFNfo4p5GtwWW6a+h2/8KVDW966ShbgfMm/wdp6n7GM/YRPKTRmhAovi1EP6D+BAIkdfWAnZesdPN661XsowW0909dQJOtSzBZpZcdJPp0OxwaZJbRPDWWcdcOKFpwU3oDDPl6OOUjRH3ZQA9kQk/8QsqB0MnPCJ/rbiB291anms0614prAVx/aNX4hCssEINnGz5wbiI6u8mqbBBNl07HZZgeLTgyQBlI7LQp2rAqbRFl0gxhdW652VNp+fMHOTNsAjv8cpROb4dczFRYUiLR159yfhQ9lGrubrn7ls/IBzL+0y4cbOLYHKsKTsYHfbaAwXk/RBCq0o6FGj3HxNHvo89wM/uEPfWh7+olneantW3jZkQ8L83v0cKe7NolZZvoV/AnQBuK+zlxTFvta0pSGZgxdvj2PwSwzRZLkKE4aIaepBkrACmtznQENu7GkQuVpkkqb4HY30qSRMnoA115Vh5ENzx2p3BG1s9HF1mifluozmehW3OM8gUWH3mdp2sGRUaLYYsHXkJRpAGxSHlanCW/yomD+JJom04EDA+0EmNPRgQE+BDiPM3KUl3F4AZV1UvGAaJUd8h8YEecfvbGRd5zrkcJI1x7JAI7uFp3MIBa87Sub+hTujbZQ90ixSNHwDkndKbOwPvh8p5QpMxXKo+9Ky+T9rl5WmhT5xhhRlPqpTMJkPY51TPFTjtarhOms8vC2JbBrJ6px1bEp6uIrdHJOwIpP0TR6807p7GUJPJEn3KnFcUcA8Vnse0z8ddqHmJr+yq/9Gq/zO88vGfGuzPV+l0xrizwMZ61DwzArvsVY7p6x14OTktOAi1GVZdCER74iFPRXW0p2ScEU0jTVwk1+DF0ISIDb7kKYCTxhDnGbH4UZcPaU4mtnZC9dPicIywMOpVGEk1i61PJkmQ/PpudWB1QL3SQ0+IU3IYu05DGXSORNPRFs5bG8Va9qjz9lCs+F2eGCE2V0fRgVwki1Ck5IdXoNJW0OACy2o5KN2HDpMfwMb+Bg/uX0rZKQj06rExvOT+Cpicoin/2ELmcm5TE4Mv0V8CBNnUXq99BWA1a9V19Iswvo6qnthNFe0rHcc+0gn16e07/DI/KkI6I82oFFsplu7nE76mnLdtTykZcuoz9tD4LeAw0tdeq0VXpDN/jsuNV+eAFehCaPqiDME9Kqq5Fh+foDaRrz7b9veFN5P//zP8dPLT/JLw+9g5cQ81p5NnN4ZAukOFkUK2aTx1LUaCnBQVKk9SfRZgcp1ytZtneuFirg0TTnpTkKGKMIa2+oQads38vZ1k8NNbAeC9t6SXqfZWmXjjDF2et6abOC0OCrGsCrs4aEGsY5PMEfhp8Y0nqSnVU2xzCacOGBzkCjC+eUL7yoSmAzcqNzaeXSizZYSV6loU0MHHGNNZVXJ1P26MZzEVtKGzsQcSaZoUre82dlK/imxM4JgWZaHc+hjbzZVHm69hL/EpSc/OxHRHBIgy/byJ/1YvY/eeoWi4ETymASR0c865u3Tlyduiq7JZb1k7zbrKTxDeWejta25sUvL7YTx0KTdvmiXAa7UMEGAGVwYdajdqUgrsOkTJGTwpMKFhKLwwy1NMijQ5S1x+y1Ig0sF/7lsgUMPvjgA9unPvUpXkh0b3ZT3XKXIa9VuWiViaXGtJ0xQIakm3ppS5PzrFNXXmFCT5p86sjLKUVwhyScqco8pHYIDD4VC/8ZlTMytV24hb5pcE3LGqVr3ta1TZQ5PMq77WO4abmOFKs7p0S86nsH49MWlsdhpWueP0U5vPAensHtujvTv8CqZwCxulzXXjkNUd8VZKq4BO/Sj+Hs3TsoInT6dP5avxs4/kHLgJ0gGacJPo1L89z2xtpYMln/0Fbf8WfET7LhFZ7EBYwbKdpZ3N4dJHk7HFkSd/QGHo/pOIBrEIu97aQdPhxtMK/PYYq7rikuPcobUAx6qTdNfmjFn0RwkCwzkG22o7FgbGfyeLtftIZvlOyOsRt9nf1FMJFh806Jhw+woFd1X8Q+k3pSI0ncIisyHbXMcySkJAyoHAXV2PYQ3vZ2hlc5fPITH+WXkl7hESl+Sde3h9kOhNeZSkVBnvMxZeivrkqLsqErPQ1jEFcRUl5JBklhfOU93wvm2dE0DjTCWmveNnVkHIKOY84ju4rRQw7SYXu51fDl7wAIbUnP+llfyn3kXWCynXZCEThdr1b32XmR9KLdsAJuZNXI/PmPp0Ot9KyOM1PfTqUgkhTGNuxde5Ik/a5jZIaiOK5IgbQLDwnPwRs7ibeNXVOHf2ilKWHqecrSlg7boASnI5C7vvLW1mIknykyPBQ5PFTSQx0bfE0GpPqk8+FOoOKCKcVRDqeaAPJSAfL6pPpbM4XF10KUQ32ZLI0yyyCbfQJrl1+ItyO3o3j1QJHVAu3KPFOBoxvPEh8Z9cGBDly3qxbhip+DumMuOrbJ+lyQSJKRsdGRQHOxbYVYvBewVel5fTJZhdzAmtd4ua1O9xRvevvwR34r4P6qEbGPorxNyHkyI4CKLUcxirwZ3h3uZWKfVKQC2cu7PopRhgHAJriEUWl/VLK+il0CHACrZO/Ag9P04I4QxhHFJPASoMKUx7ZPmx3NGsXAiQMHN/Dw2jYNVg2VP1COYQVNvIkLeh58nMaR0k7Ijx1F5KNuMRW2bGtva8o6jfxRHlK1+zIQ8yOw2GB0p4jRizrgr+UGkKTsaBvUAx9kMmk7HKkdQemrqta0rTDZHQeHN3mIXx6SKFMHXQ/Kg+fIyV8fEB47VafWgS3yhUr8qHzSJHizzAHPNXbzUTw4e+ve6LobNQ1a+cxP0MODKXxj9ASHJ+IntS1cce5ScnCF4hIlgPmCx92mW+0v+hkRc9cTSGpL5aIR/KojSWoB8fsRxmNWnzqRlSpABm1nD6H+PRFRgisFGsO71+/KT1s98shj24X7v55rjYyKEMvLe4o2QtlWe3oUv3md/40BKVOFszff3yYnbK8DjZMM8yOImG9P1t0pRUq/rOZjx2GmvZzKseeukmwvT0PP8yaVp8OIqCkjEwbUwYRXvpj4cC0MaNiiPvTE7R8jhhXhmbJYAN7EM2nkGbE8Ry2BOQWc5e33sKGykUpDHPJkoUBauniVvXIIrV16XdV8UCxEkYd8plp6KSl8Kye+IC8+eS8NYe1Q/cj+onQw/SPI9DPqXaPQBaTNorjylafyqxd1DawdYOSAOs3tvKhMGzsm9VG/so0tSj05YEcmj9YkYAFkb2Ula4pv9N2KaWFd9Wv9+KPH6Ig1gbgSQzQZtLZ2tuC57ZRGeO0VWwSQ3VTjK4xT4xFyNkGZbSiifLiwaYB68Vbi/nbib//mh2jjhXBiup7AueptT2OZxCVYxmWijMQS4FZ5YQwiKth8eLNOwiQd/XAub5lwpuBXsAjR8tvzhzBxtI1fSwAAQABJREFUUKwWWWNjXb9TK1pnyrPILvwG656OMGokoz/t3awaXhKQi+mZcoatQ4SRHxRLSOV3s8OCLLcPYSktuaUjYL3TRX6BjtHDC7i8wNymbJBD1A7MnrujpzUSdPTbb0xEB9hImOg9epRoA9lW1WV79O48apfaVILW72VNC4qLr3qCMh56wmvPeio0piOSvq4y+vNc69vetjWxecB0eAGWn6VQPQy+1ebQ1qEPYCTHdxfCtMlUGoX7Wg9p4mIknz20g5K2eulsbXTg0WmzAZmfm+e8deUvOgfL3NG0qwOX+NWbIpvUmWOkMJbZmWUDhxL/U6Gx2hEJiEGpyChJE0eNa7zA9iyXMz7z2S9sj/Abc+f4bYfX+TEVxlGo2UMwxB/giqIXM9JQQapHZbQXmzVYGqGP9jIy6g28O/ZBX7V6/NpJ4aSZXnOBZewr8aUQsdpldGs5zhSbW2qqA7jO6K5veZ41tD2qumgHQ53yrXb23HE26OlUVPW4k2ThXvykGUYfo4hI/q2eUSAwFthUZ9CD/YYPHSCP+1jlOi1rqfbaaSekTHjkT73bc8sVUHGKVnMeEgaDxCUVZoI/zyzivIHFL+InBgb/jnR5m4B5AOTPn2FIHtn4Txo+80vS8hPYOqZYuoZq5xc6cimrMKOcaKn8GiTgl38Z6FMuncZGjzTay2z7fTosn6eNIiy4rOumSjtHcdfGvC1hzQCkxRgcWFmTnilH8m5MeU1RfstLKqOn4JcGH5ulSyVeOggZjDSalMbGlGUAlZgvouUV8ZyMM/qjpr/1r34ju2On+THOa745TMc2eFWQmlR5EjUPJnuc3qmwjE2LEcT65IH1r4xC0BuXPek/eMQl+gp7mB9cKk8EDaKAlw+yyuWnSmcEUShQSjMjlFNW1sbWJ+VoHogcMDwv/HV94vWlmY4o62y2ZHSkBZjTxqM0nGl4FI1JsXaJQv26UztPVmUOh4C0CIJ8ZQvd2gQYbdxAszMs/22nbJPMa9X9tGxghdF2Ovhqpw5ty78bXfUT6uxsDWjrtYO86ivYXvi+Lc1OYj/CBGvgoOARvadDg2JGEfFQZqcY37M8QYwvwOxs+OQNbdRJV0mozDEdwfBtHZ9IsXiMBiibJO/+HmjxCAtdOrGO8MIZ5JpBXO2AYE3CkVvc6plm+FbLxXWGN68Ln9kH5Q5QVhsHtn0dftVF8IO7HUo7SApd3KlIg6GOGiVT4a8KMYabWR+Q8dsKd/HjmA8/9ND2+c8/uJ3hd/XC1E1vf1MAg1i6EAwXHKTNJzTcbl4jXxVJHakjpLCOaEwVVtD4mhK9NDzJozhNS8k9kV6NGCOsuk79hJAhDqt7FiYBaxX4fQLD7egaIwWiD01BQps2tpO/k8fuikzHdRJlUzjqTNGAjRe854dJo08aXsVvGifU0Xf87coNFJMB0AASXr7tdIQXjXqMnrGltsiP2VBRGTqKOtcwEPLUBcbxL1zxJU+TvDaq7VJvnfqzOvJ5NEsA0UYJfLeQ8pq37e4GdeprX3laOBYch4w4HpVh6I/83v1Veap/4WKHZjyL3sp2ec86EDqZ44Sxsm0HYFuopDNyQ8fqciwq/cxzg8OlR+VLCXk7jabSWSfBaV4++yQLvoRtmsSJnYIMHNDMNe3wVd25P3EcGDdEebh4z5KR6mlMRBAaxfZkMTIInWbchdIeePCh7WVep3E3r9N4jXejKuTgKRPBEGfxvtWvmcBdR6myY1gM4DGxbUNkjxL33XnQKW45z+kRYwqv8k12DPZPE5ypo3zoehQRFDkih4gXTdun3kySncU4pbjb803t7igqT8rCrlgjSX94sGLyBuEkaQo7Ttny5Ux0xdWNhq7e58l54YovAiA3RrbM7ht7Gk8xsY4Z3yqDsV2ywC0c0Q95echodpswURttXOvwHV8xrLVdpnIHcmoO4SfNyOr5Xr/6wvDf8jhy2pUG3ARF/DRt5U+ey7dH+Q3O1STN06o4fZ3kXH6SV9t0YjyQ7OjfuAKetRMKzT7dMjSKbOwG1hTUZkdfZJ2gjFDIBi1fDmZn2k3D4gn78ODfSaM5ZHBaCzSMUxJ7UINRg2s5EbiJ8tJLL20f++hHCUyYALm/6JRWcX7h+WgIaLk26D15gJJ3uqFhqwQAhOOzT+L0X14Uc++g9vQtK7Tt9oYs/sGlemTblI0N6A7szsFtT71TTUeAlNfWKU9jvxaenJM/zusMBbDdrEuD27IFO9PfI42ht5N7IR9+Q4Z6z3P9DB2RXT2sXLantd6OMTcNLC7lO7ONaI26ehZtVk9NvXQbUBSHR3FWZx47cnnuGS21oUdP0J1tjLnwK0wq4BFVDO7Rb4/yX2QzSnhu3QSLecsMTGE87ytH4Bvfar0G6Ug++GTJOtdw4ordDozUjT51WWMukVh9hOnKos4WHjNKK/zwOpdgpGXa7UT3dJUZEwcFKztyeupsQlshNWRq39BVbs6lh1ekc7B8BWYVtZ9OiMDAceoqWm+85SI/GzdP85sZj3z5D/lRznNc41nzbnqR9iQQTeDaxDwEUVoSlBQyKlKIfFACWT8moPl2rcHHafLtiTYGjp9/XQp6gMbQFZZvnYBy+XA9CoukIlRht6cjJYCp3J1Mh8ACgsyeegySNeXCfQj6tfITiK0/pCzO9vhZTqRj5CfTlv6d/jhxSH+4kEs7jgpPdoKjj0iq0BU80HunPsrZro2ZyLfqyc+b1YKP4lkrj0MbMH7+dSkOCS+Ho6U7lsOTulT2fpoXp+W2sfyPk4qneLNWkz8aqjNx2GnbGYhzeUd8f9p5NM2xch6Vrx1D/V5YdeKvgJVH20tMn9t3juWieHJvqiPh9JwGZK6zof1s2MRhGyZneJ/N7/7ux7nt7Tq/mntfXqmRnSNho3yOYRgFBT+ChQcYyAi7N5rMloU04ITwp4BDkiGTa41Wt8sAflUizO2GHiVZXqUUj9/TAcxNywOrzMI7mMi565wZ3ab1EWOjyNmBk7/dSKehZJyjWYM8axJlJ8l1PsKQhn5O1tc48WG9cNXrQBaTa0GFkpZfBpu8WOsmkPIf0jjMD6bD4+jyEM6yOc9MSVoQ2MnsKTB5y7baIz9tPE7qGg7/kUf4mjS4PW9ensXZqbztLLcDH5jZFGrH307+kJZwh0Gdhm/4qo13EwjqIxr8SU8eTIN3ZGqp5f10etzSgRVT80uWYFZnneFlkKHXzFv29KWlMzvOY1yC6L2pq9BADIBRYcp0wTm0xj7OrxI9v336U78fBdmLm2Ru8ogSyWydD5U6vEKKN0IvYXdtyaTcAtKinDYzSc0II66CNLhWfg7BvzQpP0cMLwWmKf6ZDh0/1Fff4dTc/zrHYD56nI6hqAR2wlG8WlLc016eTH4fiJ2ycUvrVuuUG/yKsZoGl+fFqR7VuzqlbHVSQ4+WeefnoS6ClC9h/ByVfWq/9jG4CSJx5iPhSeKEeXXdYLNuX1965TVNqNqN2BQMnw3waumw8xuebVtY+Rj9jgaDefdlvTwc6tTKcAa/4rk93ansEObQpoqvn1fe8dCWLSo0LY0b3B2031CqXtSX9etwSIaL/jgPHPq/gmr1GSnjViOOPht28sw5ris+sj3/3LP8fNiFvvENVN1Bgr2DXm8oqExVJu5couDcX6M1xcjJWR/W3li+6lfFHVR8CFA8RwxoNbgty2YHncoh3eTRkddFO0UHvjoL4oE9wl9qBk5nXD00RW4SKcnAz7F0gNWS1huwoy97RYLK9fWkce4DtQRnQdT1cnCIScP2spGO71CAQShN4AILksEf21M3fB2AHynTobw0ZXJEEM9OX5QN3h7doV6BgpxwlzZumqib6yw/DulmhFmdCpgksb67fpa35bpgWvpbihFPnX3k81gbd3cfZOBOAKgncPlxhK2hpdcyMju+zJvUU+gvei2Vv/JZTv2tjsLN9HfgsiMNy+FJnbDHoo6cXfkonJ3QSd6GwYHEXWai9eNFXQuka2PHoRJVBawJkeizn/kUT2vc4gZx7z91vdieqlu3i0Ewa4pxLV01M1QRr0Ck6I5JSntB5UZexFVFMrO3JHS9qDwpShaQFDeAh4ymwGYqSrnnw1ScxpPFZFt6sqiHKNxwtLQfjMh5YSmj0PMjSdn5HI7Mh46qcU1eBohgOTErb1Jp0slaNI4CXUACB4h3+K9Zf3hIh7Dm1+n04Hj826BPOxDEsSRhZyDCO6RD55PfBp/slT9trhj+tuCUicZ8p25acaWUsUFBmwiA9jIK7niiHRbzr3Sx6WJLntWDT0BMUvtWO0uzvnfDYOvIItVOhYOCMvWcjuqgExbn7JQ641Msp7aWm4or2d2XerDcj/CVdek1HIlnZNz7pXLru0qpwfxB1+hTvXBV0ZvJxe1U/OZNBjxt6IZE5uMwZNNOCw1Oph/ZNT2xvcLvsz/80BdZX/HrttBLL7DUDorkooSZ4o43iI9PpFhwnt4pVdUHNeIg6GSBNT3H9s4NWqqinBp/HJ1CmtSo8uUkUgZmSif2BmbbxfHVcOLkwJGE4xMnQSb/YggKQxcDWp8L0gd8BJ88TJmNFp7DY3gAZqkwMPPlqCNdk3gOjzlJQfnTuWuvOvo4RVuDnvaO2J73F4lph36mfofPenCpRzuTku2u5WKhuhDf4i+64Ty4aV+nrv7DvzIIj90CpT0p85KdO6Z2ZokB4eLDBqUc2Y77n3lDe15XsXzqJq8BrT50fmzFEmH04wjpQwxqxe/Xoel7hSCS8/EPj9qo7V1f729gkPLgm/zhuWXqN+wunmTc7Fw6E+YwZQZEvTcmOGh5XduXJZ/wxhHy6kcafnIHTnbbLACLhR1uySOVv2dwijsLnnjkCd5z81VeUmzPz7VFpy5wQXCHwRk1IiSYMo0Bl0Ggn4tXVxdn8tX6Id9vyOtoucYjb7ZfC+Hbp0hpeIBPHpQmvKB8KHZTauGBqW50ENv6gHJ3N1ADc7ZG3eJJ5Z5nLY0cuyAOX7bTkf1NSneBy6s8m8YRPB/Zd9OreGN5CDBf4VsZVvspv9Ox/q2Mk+yxyS8Z5FN+/bdieBBaOoepsC2RP+Wxed8Gn2ip3OCZtsomlqDX8anTF6ZebL45UHsYktLwdzvdvaxeKqe+EbmhKVuOag4N127tX5+RJ0coC5xAVe+Olr42v4QtP0QIX+Cz41yyWxyeaR8brnIHI6fS1jkzHB8TZuh5LB6x7JPlk7p/ogBlz1WlbV5nJuHPDGQn3mofHTqhr7gEuBqYrhmXgIfMqTj/jXoV9fADX+JC/8vbPRfeyk9V8xOcRHYJ6vgl7NERTHgOKde3k7fSXoQTA7IQlk2P6tQsQC3kW4UEdoT1hFThl5MFjuGftq0NSGFER3l+e8NimCkJDGGdeIN7zlGNDrUQeRyONLSOOTRSvvgdY8hv3yBXx61hB4Os7PM7IvJ1h7Q3/FHHfiOoHBWvIakDhx+nTdY4KgIyPFpmfod/nVtu2jtfz9OXaa3gaMfm+rtTUmWqTrSn8g1uK+SqU8raXYzWJxiK3n6xSZ4IGumYHCCOeVeKZUvrglqtw7/uo1P8gEbp1hfEO1POTI2Fx27t1IEJs0f51GZ2wOEJ4r4xPG/G5+cMd7KAZ2QbG1p3e7LIt43nPlbbcN7lVEfgthj7cKaCoK3OPVlP+lMqo0k6bBsMkAx++ctfiQFUnmo2BKMcRqshaFnRUBPKwtlzchLa9Fz22CHF1xKodCQu5s6rnQ5EUWWqnLFONVURIdBzvg97Y2tys7qw0koQW+oUA/oU+ku7ku9OsU7geT/KlUTbzHw8kV0PS0/Cmh2nDPz6uj0IlW+MHd0eAHsui2HmoLw97EEB2eLFSXMBW25IkY3enKyBKE9uEDjymMqn5VQs+YbWbCQ5CgqXXwqzw4TfylaaytjpmYGUvj7w2kfF+O1xkrhEEH3xdY0po5e2nLJZZ4clbX/FmgKa8eHocuQ470/yl6lO8ELs166+vr1w+WWmdVcTJMf50ZnTrK/u4QVoZ/lpencrHS1Lmc2QPISsY4d88HbGo/wjQ6p3X9VPr1la6GWHU/zsQWSALzsjdadOWrZrusvEpvCvzkzq03faOktQ5o7PtUGf6MgqecnewUgcBCPMqxiQWJDzoNQ4viDoBLuoD29f/MIXtnN3XwDOBbm7QhU48OrzwBgG1JzqK4vHhTXACZ4s5m0pMlIMbiYOhvJWefiyfIdJ+DpbilVEMvuvoRtbrymbtZ7vzed1rG4QhCsqcz100Q222xAfGmQCcfgX/jA/BjSIhNV5B/UeToPjpEwpLLNzmHRIq7iLvxoEV4KhDt42Ohy5fA2WHqVhGp7M6ygNxOItjwbL2Lf8iq4dwSijviG/g1d8R9LiIXIiO9Qi364NRXCLLaxrciPqOFM5Ho3dnv7qC9vxs/du3/Fv/dnt2/+N92WaZ4f76MNf3h743Oe2yy9f2e49zys3cINbftEB7XczRe76rJssHcn3/jJ31ChNbVjdqG9HVjlKMEUGZcRG+HxvSBd1ZZHrsVHktCDJjsEgRLqB5ah/R2oJBHeh/RYuV1R1zjoK7MmhDfWa9AbHt5dfeIkL/Vdg9Gym4agsjtDtYw22d6A2q4IlwMYfKFcvuWgPgwpgfp8Q2nm1txBRVxXJBnAId9Opsfwl7TK34VDcgolDzvaQS/nyhWwC5lX5LnzlUn7MyRN50wRRTm77En5S2h7IciiXdXOLV+CB8+K85XEYh296j50NBultx9HzXn/yX6BwAj7r1NWkHSxwGZ2o7y2Ctjjo8T21LR9TD+bbQczoWTk6ezFfWOCgbTrUyZy7CWj72b20necaJmQVQt4JhKuMdi8yIr77O//09h/91b+xffN738/u/dnYxPu3br52aXv0oS9sv/7PP7h9/Lf/+fbmu0/z8AKP8fGr2DpMLmERmCf9FWY7q6WTMBdqFqknwZG3FaumJzPLEkaP8MYG8eTF03SWhx3QyBu908BzP8JYJq5c+pBSZhWlMXQX+RzwboffKl8kNs4RZ3VkdFryzLPPbJcvXeX6Iu9C5a0qPkLkyJQAAT5Bq2Ayw59DsfGpoieJ1zTGllk/CYoBkmHGdMsDvqalrW5wVkAD6U7iVNGZFqx6oeRpz81SWIJRRUNv8SZOYWMieGjCeZFaPjt/KH/WqafDI0ztjSD+r5FmdFKWrI04On2e8mkmfj/qw6QtenN6ebSjVb7RRGQ9pKs8u/PUBs98Wed62lgwOOQ4dlK95Pfy9b5k22WUCD9C1OZHYFMq5ErB346mNl8/HorqqOJj5wBtt+iR77lXLm1/6gM/sP03/91/v71+5sL2Ku/CfvHyje011gsnmL6ePXXX9rb3/Zvbf/G+P7G9+z3v2X7xx/4R9vOXoQhYNha13xV+CvwWP7h09z13x5pyYuDpA8rXHEcyY6WU7fTdEXJmfXacNtIvuq4Vumn81xF1ksu6XJs/7YupoBx9acO2awwQd5SEHxhR/9nAEaGK75HBNT7m+K+yjm+vvPwqRjiVV21czW6hhmL9xhP+gspGCSgc6oDKrUy7qEhS8L0A0przOQqW39WjV9P9hQ4blsPoPtHTgEslTv04jTCD+7BMJVQmZSzmThkOkJhFD6nlyyNaZE1irnN8Q/Vmftmk8k7waIjS7Q5haQeTWHbpUNbhcwJtznfAKzNtPKrCHLUX9VKQJ3uwaAgAz5Q1Du7I0EarUD2sURlInaQXrGlE0tmClHz1BZ4MvVISVTubnPAl75bl0gogjoCzXvVBZ1NbJttzRhl/TdkpZWTRzSDmNPDKlde3u9/ytu1H/rO/vt28602sF1/bTp6/wJzx2HYaf3v7fae2l159fXv50pXtHOvNv/iX/wqj/fHtZ//v/2N708m78LnT4OB3Xu4+v73l/jdtjz/xOKPmGegiq986JvzmUgvBn2cvkc+Br/V2fO6I+zb8LetSVZjLR/Bofh4OCABfc7ve+ICBGJ2qm/wNpL4HAnixU/XNeadZDlzzJW6JP0bcOo49sAHpp8pxA8EGL77wwvalL35xu+vs2WANwmXkJVsIJAxdqCOZoXLM6zx1jcVNzRID6CCk6QTMh02YkgHYzqfl1uzT0bN9+eTGQQ7pmK/Tl+6iNk1yFK9wGstUOnw7+mAgjRScqZXNjlhpQ5lHL0Lnem0crTALfHcYeINnPsG76O4Ayagfk7z3bddo5mBNaZ3ahpN84IKem47Dzgsx5FE5PM7MRMdSQo+jK/HMiEF3wh91qffYGYzsDT9SNcn3wOnQdqY6ZXUdEIlPhuyaYcgPPiRfcnPLbX8c8+JrN7bv+O4PbPd//bu2l668xs3op7aXL17dXuW3XK69dnl755u37V3vuIvYZIZA8L186eb2/T/0I9v7vut7tudeeoXfeznD/dJXtve8573b//B3/s723m99NzO6K3k4+ibTX/lTU276+MD0KfTq7nmmzKjMH5g1OHxFiM/tXrnCe4HX5Q6n9nkCaaSB9/GBjoqVMzoVL7rRb9RR7swy4LAdKhgMOSq3utesKxhbHzeUCAhyfZHdqyefeXp74snHE+0uYCWgLVS+n3kyPotbqryoSXOEjj+EqWIvs80f/VaoMVqggrftpZVNjQhPO2EPE+cKHMOuox2J58GbJm/Mt97Oxw5g0QpeT6rEObUeD1tA0VKq5kt5ReKtXumMUIxHjXzIQ6Dkl0yM1YLq6gCt8pg8xpiMCjf94LR+ZMdye2BTf0YBHcQJXD7oAEAJuFJweq7+1mcfjNA7qBv+ElRhxcoG7+DzqGw+CJ4ZBfkJ4tBagLZsEpF2Mqh5e4RTOT4Ghh33deQ7wdrwO/7Ud3Pr5Vn879r2Le84t333e85vf/Jdd2/v/8YL201e7/KOCye2b3z73Rtj5nYdOY8zCn7gz/8QvyZxAV5Obud4f+/Tz764fewTv89vVZ7YTp89T9fODim4T4P3FNPcu+++ZzvFC9WwEDMdZneMqNfd3OAJi6effWH7vj/3/dtf/xt/k6eS8GdHeC8PIaeb2NpU80zH5LOk+pudi/pypDQ4/Zyk0/BheSyS9l72O0Xn5i+xe8nJl4BfYzp9g6PXR7ObqlKL3B5UlUmtxyuXLva3F8+xeaMmqfLyRJ2ZkyQ1DAEac5XGiORER6rBBJlRt73IvjyGEw0o0oBDRl/brmLLXQfG9cjLh3WW58h5HCdFdZojDkG9537kuzcPLKIgEIftrYuAlICFc075mvrQwCjDrvTTq2VRz25YpubwqvFQumn4Mh/6HKWj4+6S5xjP9aAdT/k4aIsu8d/g7PqjTu1NF9qL76ByCh4bhWP4hoRUIjvyze50KKsLZVEv4Qc4jrtEuWkdwCOPXeMLZrsk6UcnQpB2KOQRWfiLP1EVWksvjmLZbBH+2Gk+p7i55Nz29rd+Qy5RnCZofC39BWaZbzrnbXGnc9GcCe72ne88vX2ZGzmfevJqbiD41ve/f3vrO75pu/TCs9vN03dvL1y6tv3LD31se+aZi1wiubC9dPGF7dZr/Coa604D/TXyd99zZrvn7nPbmU2MKPfMcQL23HaSX9s+c+6u7f6v+7rtOPxcZbT29aN5B5D2Ved88hd9Kacdb+2qClSNsvY3USw3ONACncP4WG3VJaF3Rjkf2T21IRLdXYeIsj0l8+CXHshGzrlTXPe5wo4VMGFkjZAi783SlMoUBLPgRcljL1HpnIfnaUeBzprgA2uCDBz+xYDiti0wprqcBcsRkt3nhTFFEbYFbj5VQuuBWBmO/Iu3ATTl4kCAKHDPt7hgrfyRr+OXnuuAOle2j6ILiZRVDeaZX3VNOz9HMDsnH1nr9FYQYNrIBiu1vbDSyIudaBuUsmwb/0MkpWnn6Dtyx1xURcLBX6aGSPHNGXUG8x7ENwOy9FjBNGCicialzQ7T4m5Je1hjJ8Now1ovdqKtHYp+9Roj2/UbuCWX007hoKc4vnL59e0a9236eJvye8HgnjMntve94/x2710ntkcffWW7cN+btre95e3bIy++uF3issh7v+Wbt//2b/9X29/7B/9o+473vXv7tm/9hu3Fl17ePv+5L22PPf7M9ub7zm+f+9KntydfuridvHacgL7M1Pfmdu7C/QTlhe0i09PjJxlFz97HNJa7Y7ZrdIbOSvhtGafI60+u4xMcO5jV3xDOGvyqseT7kvT/W3QG+lps4V4E6+RMZW3PzKCrbE5M+165AXGZ+fezzzxDgHkjq1Mlt3VRiGuj9HqcZ/vGYGkAlTmYkZ/yJOr4l4Yd4x4VIiALLu6SfDcXeq5Tie5IEh9/g2vqPJ8dUh1SBSRwxMHnED6wOnYY63EcGH2CfY2E6QkgKDuLEVCThr8qPkFGhXhLqx2JIS+JtgGFzYThoC7rkOWzVcUrhYH12pd5cTg76UgNBvEigzTrFBRFHmHLh7bVCSjx62um8qy7AekIIDHzOKGE3DAJPxZCY/Q/cBZLs8d8J98voeEdp04OXF7KCjh500U7fApusjN64dy23XP2XOhpRyYcTGe5Z1Vd8ktXtjvBBfrtmtdG76Yd7yfiCd3rJxjv+BGma296+3by7e/c3vtd37t95sE/3P7jP/PnthdefIU3GvKQ/JOPbv/gH/749t3f9u7tAkHtzxE++9zL22989JPbCxttGXxefv3Ydo5rmOfZBPImkZP8tqi/sHWMTTy6kvIdiaKKdOjapJteowfg89d2Cxwc1R1QSM2HzjnBqAE6jfTYaZYLy8cee3z78sOPZCMnvTHR7QiytMdRhaBeIr7q11ykfPUwhrG4JauSszjTOtUhJ2UtpKZhUFrijpM0l7LwvFNEkWiwwCPPtMlUQUcFx4xk43DSM+/6Smc2P2kPo06EK3/KEwfHUTNig9hNlWl6VF5F2LeDuaAPFbKl7Ugq261TJ+b2nKQyckGlGLIMSL/bABOXLQ4aiUf8I1PytF5kJJm0q3ekXrJZEW48D5QERO7ZomPRIpiaHWI7GGReChm5giZNbYUctFd/peAyg1Hi9VvcYPLo9t3f6/2oJ7YvMg09dotLamwknjt1Y/uGe49v999/bnvu4q3toUcvblcZ1YiK7RbXFC+5uX+TmQNTysv48E02eG6evIfZ7/ntM4+/sP3dn/hn2//4X/+V7WkC7Bf+yQe3v/1Xf2R7/7/9F7YP/Onv2L7tG9+0fepzX9z+wjd/y3bp7Fu2Z+Hjdaaof+4Hf3B79PNf2J74yoNs9pzYrvFThxfuYkqNHJFL/XpC2umRsrn+mgq+XFcqb+595ZgOW9YpjF2iQIK4zuI0yV5V1bB5w0+93UI5Tz7+xPb8s8/yozbcebOMJVYmDNU1Dqri0QELYYKYwEwPbC8nAXtWP8swGvMwH0z0uE59WPbyR+9jzwINMOQI72kjLDX8tc5++gR4hUse2k6ge7WsKlIBgDcI5Xt9QOwsiQ9H6wFzqpzRfvEq+35mWtYez0ZLHtuhE6du6aCAnZSAGlpTKOdOVWTIvHIsGI9umftR/iMODLRruWwg2AH4cZSD6YxcnCdxGN3a3o2Gvkai+A55in6BEe6wTVijzBT5rY+u1BMbHdjqJh9v9qia9Bn1YWfUTsepXHd8F57DTgxcMUgoLPvamRNAqBFHP7n9/sc/manked7H++qVU9urN89vz1w9vT31Krrmut2TL9/cPvXY1e3p104TgAbxqe3xZ1/annr+OdZ4p5nqMjLytsJrbMicO31mO8/IeolLIy9dub5dZSC5dPXY9sUnLm6vXKUta8TnLr22ffihp7b/6ad+Zfvlj352+/f+3R/C39/MTxse27712963ff9/+B9sT187u933je/ZfuAHf3i7SDBfhybbTeih/qMPqV/9KmM+55bFz4Bx2eZSJNJzXluwwcMPCx8/7qWX+oa+jDICZiZGcN2nQh955GHufjij29RZVy9vExHq8lnnxSDLKcQRS0K8FhOcshqtZi7JOIIPysJFPgUMD2bjsthYx8vtmBYqUnDRjkaOovKSSw9KQ53SiNsRb0YmywsnVgKYtm5vm0YO9TCB0FEUyOgGoDnaYMEFlrx4Jx2CjaO3Tl7wOJwzW+yipuJwKh64Jdvgaxnfo16yw+Nh2RF4TgyS8iWV6iMZvpQt8hkHw3DkcE225KHZMuNqJh7kxMvyx6lNZ0NOacSlzNrCcu3TD3VLRwdipD3gwesG1lnWia/wNolf+83fgT+mnm4YMarIk7ueL14+uT3w7DXWhacIhdPcs2pHfHr7xEc+uV3nUojvaGLpx8XzY1yaOL3dc9fx7TQ3KZ9jlre9coW7yJjiMpV1v+Yu3gN6gl3cs9S9eAUmbl7YPvngEwToie1Nb3kTA8y57dc//qnt/Fvu377zT3/v9u1/8nu2D/w7f367cZIbCXj9jD24s0Kk5VNl1POW3pY+IiT68JKTOjKpJwctZ5v1EXUH38cQ0lEv2FW/yqbG7eZLr7ySntB5ejYnALM3SGcmAfKOfHBHe4+yMwQdowxAhmgMUaLAJOmY3expF0Kh8oAzQzj8CJmeh1yeGeQcVhdNp3bQMphKjvPD5O6W12/A4yhClRJOcFQ+C9YIoyb4dxQMTeQQtvLZct8WT1uOrCEWedsHBnzw5CihfLbfJ52UM4rkSz2FBrIKFd6EH7qLh+loNJ7pMPBTcNtXRAldZSj8rkMCNramPvrVhlLnP10UvBik4U28OptIUgv/BMztz+25lf8607qyrvy0Fr94ODprCM/KaXBCWZdxdFYmHTp3dd30gj3rxAvHto9+5MPbaUatH/7hH8aJuRng2o3tMnOnj3+Fa4+s7e5Gj76W/wI7n5//4gPbpz/5+26G5i6es6eP8XqYZ7af/PGf3p55+PHtMdaHZy6wDmXP4zKvF711Gj1ya+c5prH3Mmq+xnXM7/qW9273vvmt29t4r9PdXCp5iTt4bnJZ76EXbm2ff+DJ7a/95b+4Xbz0yvbPfutjrFHPwgOXM9jUceQ7uXSUGaGKjGL1P3TFn/rw5neTkjqwmSyvblGzyiMRibTWaTlYlusd7GK9/PJL2xNPPB6Hz0ObEnGKgiYdgmNEiWso8Kto62pmUZoHn45nXkMsohSvhIGXMF0zdpSLIYGQlwatWMVGAp9iaeAIk3MrVr1Z8+CVR3skWY8KFn0dwSR+6xTckuQ9XynXTnEmO4nQozzX1VDW4BjYHjttU86T9LwTQKmTH/DIW6UpD/6YjMnLBqMfO4QYJDVHsqvk8FCcU2JT8dh5TjpEN7odWiO4XUuDpUFvW31i9JwOJFVqqUGqbW7c8A3ryKQTkEq/dkzHmjr5aZvSpR2dPY0jt1NgH4c6zkX+Y+xenmPk+8i//K3tyqXL2we+7/u2r//Gb+DqB9cCwU8sZqPjBoH7xc9/fvsX/+xXt6svPM+li0ug4+4eeLvOTQK/+S/+JZdKzm6/+ezjtDu7vfnc6e1nf+bntwsE3cYjgP/iQx/evvLV57Z33s/dOueObX/zh//s9v5vesf2hYce2x576nkeimAEZRr5oU89tP3g9/yJ7ezpk9sXHnws9G8wPb7JpZebx64xMjPY8OdzvqNbpFdDDATo1HI6Ik6B187qlK+xz95MXtrQIevgItMBTzB0G4ivXHyVHopHVejBDC6vx2gANT4X93UwDSA133BFJUzZJ3h9RqL8a1UzB6llMkYPKU5YGGcVzPq0ArfrlhgxZcXVdYqs1AlmzWLbXrMzWOvoI+8cO9LCZ4KDwLIRQni0rlNUC+HBRtKlPBKQb5HOOxiFFUWdsiNjy+Zb7L4lTAd1CdDHoKTQFH1Ql+kcNEziix7WuWW2z0jjCanc7PlQlVl/Zlok6z40K10gxSNO2k0LHSmdDmXebSK+aB7YCWh17FuvQSLJtB8dqYLD0VB+LRNKPqVt2ayrS3v5DI6qg6J1nJpLCJjr2hXXplxmYPj70ic/yU/UP769693fvH37t71re+tb3sydOFws5/rjpz77xe3RL31hu+fay9sFdlAvcnvbiWO8uiIBjn8y8t24eZElDhsvr1/OpZKrl49tLz755HY/Gz4f/NVf3S5evbb9pe95//ZpngL5jQ9/Ynv6Pe/efvsPeEE3U96Hv/SowcHa8TKj7rHt848+xTuDX9juYc3kzyOOb/nYiKP7CT6TlFV95+phdom9IEMZznQMfrJ+RMbxF9upI+kl06OKdZ5+Y/vKVx7ZrjKc38W1lsvcRa+D7xS66KpHjW8kZTqC0TyNMZNfgJSNYzV4NIZ1narEoZbjidOPtY4WBkgdkgw1GjobTWRqdMtvSwhdhzooX/httHNmAxnB23P1bpJBWpo6ltyUH49zbv5OaToF29+epqydDvX8Z+oqoHTkEYd/Y8tiGtpjB8+PZzFNkBw0qo4tKO+2zrTIWJLOBFVmFcK08Q2WFCY0G7ihZ9lsZGXqv9B66HRLlDqXzZwduKnVqVqwWXFbkkf1YJ+RzhF9HWN05AGqLINO3rjEg/DcIvfVR7cvPPfU9tTnP7udwQfFB9Wuty69zFMeXCtkpDvBHTu3CMZc0jIY1u+OKPLpjE5cQmRX9jwEX4PWPdyBc/2Vy9t9p7l54OqN7aEvP7E9w4h4lekv0b794x//J9yed2v7T37gzyDL9e0XfuU3tuPgTafK2wfm2vpOrKV/RY3vuD/gEnCV1xp+D6C6I14IIH/gSL11ZLRFh4Ao1DvOP/+ZT8OEUydHN6ci9gaSrmKbNc+ISYUM5AciJeAwTHmMuWinZYxieOWMLw3HNwrSAbIeAeWhExQWbODxGpdPDefaFB3AOPcEQLAuw1/nPSNyl/s0Q8kvnB1ETjGzNpJvin1jXRQjCGVDf45Dh+pdnfk/bmp79KRnkBIsrGGaLFR+yvlAXTaBlY9C3P49fMnzidnZsmMhSct27blF0FExcgM/bUPM6QifmkvdrJmENhQAn9itbxePXnN2N+AGI4TYS696VYJ2BO31IzcK7txDnGrbVivBqLh8jE0+8CBIcp8qZ7euvsxI+fp21l1cxphTx9mt4U6d1wm8Y8B43e/6xSs8+3iRh5e9MG+AeEkEGfSV1dGe8N4zdla95HHz2mvQMziZzL72MjebX90ee/hhLoVw9881fn37JG0vXyXojzE63tjexmbOv/+B79o+xLuCn3v26e2t589tV16+xC1tzhLlNxoAIySY7airzC6kf6hr6h17og/ayZtapIGFOywEI+pIRNgrd+PjJe5keI5FsLd3XfNxFP7sHXT6zHelLhIU4g0AdrBOLaDCR+dmuhBmpifbG0CTmHYlBjnBYEkGS3Jl2gwfeC4s33G8ChAsqagDZHSDvqKNg9hQM2uABB9Hkz2x8LSk0vb7NjvaBW2QIus+mYcKfIe8BMiII3ceLUCbZLctbcVvhe1CtY0CGyzhOets+EGxaZvqgy95G9mCR1gT5d7E7DyCy9JQkal90m7S935Q2/X+SrRCubZ3swuS5KsLBfJPu7sjndEPUoqAWUng0G4gzQ5xyuVFCD+Lr5wp87Lvrt4KyjMqxAQUGEh2yByS55zgOumtcnQA13iY2M0i71TxtRg36UEM2pvHXuOc38YgQJEQtEEAplgdGmB1eYCscpUgNTi56+bNp49vv/RzP7ed5dLdvYysJy9f3s4Db6jcZEr6nd/7nTjLte1jH/nIdh/L2iuvvsLSFvz4oRuckZIvVNoBBXlyQwO0shl4oIt2ROgGYF8l0tnZ8jtsp9UajChG1l0jaJjneVLj8uU+RnI9P4HmvNg6jll8+kwahs1o6loIGrUSKDvyxCwqnHZ+THWkOkp6DgupyxTX4GWE1CGVQQeyla+zs4c2rA7fLSrzme5ZlR6c9jAiDduHKas8J+VGgjmXr6oy9SpGpyx/e14zWq72QcKXohQnRpG3A9moCOnKW3wAACIPizflNQAW/d7ZsrCDWz7UhzcoD+/Dl5ypN1mStwQMerIgTwbgeeql1MRZWbprWfppZ+RZCy9+cjdP1bSjab10DABlHF7knVMqa0fhtI2wQw/uPEkS1rawWxzkO3rQQBuvoFZHxwg0u2/be1umkelIeez4afyAtafPPNI+jzExEoUvbpXzjuhbt/BXglfLhp9ogSyBaIBeY6PMF2MZpK7ffAZSDZ5g6nrrtVdZCxJ3/OCN8t3kJpY3n7uxPfbQA9v/+Q9/dLvyyovAMPpyo/op2l7nN0rtYNx8tFPIbIoANQAT9FGQswokYbDKoMW1z94VZrmyRmGRx7jTcuzMUmErA2Ep+Kknn9peeenSdu+9b2WUU+kEHMw6FLsWsCnYENcgRn0Qj32oMz+OX6cEPsxJlxYFAWf48Bvc4iArnHgBCioVBE8RiuoTML0LOCgbDAomUjmQfU9NQbXoxjwoueXhPvTAEJNJb3gMUAF3Wev3RebBMU65oAbG09ZJVaeSimmcuPKpUCF2KbzChzJSODjk65A3gyl8j8ywM/Xqon8tq1y+JIkxpGx3dIH3dHY4qh1sevMdI2bgAKXnZ8NPodcU7fmorIc6m7olW1vsMMqfKsxGIBnfNieOfEoNecXnpl/9jfEjbMi4QZpOKIEiDPTUn7ogAPklGDiGX3BlZAS3eqoYrB99dpHadvSUM8V2kpW3xuHTPsKVzpt8YgE8Z+iEbjB6PvbIQ+gP/6TuJPzduMmSjfYGtjvA4Q+fRYDIoytnAKEGRvmHf6Eg6NRUmQ1YS7MjzwASF1Ev1NosjKoQe9gnHnuUm2ddR4EZPnst0htlhYwrRCGZ/qh4rjN2dgBiT2XAHg98zuWd7k5SZUCBy2He8QFYHMLrgf5cl9zE2DQpZ8UHKnCrrIVLQYHNVIej9fsWxZF6YQ5qgl9Q0m6kRQehSVnaLNzCeG5Kb0a56uKATpgd2GNMoiyj3QDsWh4ALIkSPCK5LdUha6TBrFPFaVF+HAz8DXDNeZDEZ51OajH5kamOabvOQiwPD0AmUNkjMPgnlT90rV2ieNCBtBov1OCeNvsj7bT9EqBiSq87q2CK7afe5UI6VBDouN191Ufgh8DUP5x55dExRjcHj8hDdZZY+Gv5crqNzPhHcOumpojlTiv5RfRERmB48kKIcjlKOkUHJPj1cZ6f8vKUd6K5GaSDyavjqsGkuvoDPbbTq4GJsM581nLA+EmttOyMCF5gBPMh7JvI5wzI9vYOJx0erVUIfyTylYsXt0cff2w7f/4e6VNlnSMUrkY+mx+RUG0bVEwR0vNIRJKUihKmTcpfZVsnQisdaWmrIslXSQgLSAKk8Z5AE4fDvwboDhYwMFZSGGspuNyEQgS358u6MFPXlotLWv5NsrnThOFdWoMzYPArbacY09I2uTRBJtcHg3dhlLGgl0dlRt7bkqV+TDun1ikJ7gQKTrAErI6AU++2ETVmDIIhNbjSRuZW6k6n5/KAHVedx9ABgZt1DUT5VfGS1hcYmVCiOlTuG6suAPlqwPUVLI4KBiH+gQNKZoJqOph9O/koDcuGpwQY565brXd6WkDcP5txyE+F7m1wqANvCk9nEc049WdazSjmDfUjUwLIfQ3a8s3RjR4CQJt7zyhtrlOXm1lGoYs/lqYwyqYPs0bvBDLZPWgFBxNngLN2PtSdcKNj87Z4HT3mbivrKJBXNAgf+nAL1shIYFDocPz4c89vL7Bm9GFMNyQk6nzbexLtoXbJvEg0NHChmMo6jVlrcxY48zW2bPRz1FHt02VYBepYTIpht3ggEmNzuuND5w0Ry1SYDs0nVAyqxbDOpFOIP/AyRlJh2YLHgcJnqldlIeBFVjRkk/yYnAl4O53OJ037xpHcIEgacWmkivx8rWSVv5IlITsv5dHRkrehU45wARVsYVIuS/NtG53pSBLWDpO64Yn6Bmmx1Ultd9gWt+XU2Uop7GvFF3aO0Gr7uS5pvcljgxIsnNi2/Bi8C6ig+dahC9dCp8/p9NL56j20Rw51HcPAZLmuv5jXX2MP2jRxjL5GEnWhYTpLGJhbzAKKDTh0betOI8llpFMXpsrgsTq11I96tuNuh+QouBs01JX8lGyge3dZW9KUevwpGfOZZ7J589WvbhdfvZynnw0HYOIQ4qv+qlgRiwPqKLhlCimMTJhU7qirRhSu+Pqy4PFWYVEywjg3H1h3ZHdGo2Gxiri8pERa0zY0w9UKRB1HJXIEl2O1I58LfZFI5xSjkHP8cVjhTdap3IBDe3gSl/kkRw7n8SZ0cDAbX7xWPvmG/NJNjdpv8AQXEAxEQAQ3HEGFj5dxbKzSklq/suWv0xDg75zkdcfvDsQyTtBdNkMWD4OjnQtkU14ddpNNiL3NRFf7iC8C5Fx6dUx9o3lh38hHp27d3S31gVFkdd8ZiHRqx8QhvmrfMjMYW6bzQAvua4TW6nwybaXsuBtRSXRk4HaEnOTT+Nn7WD4WTsIA9qXDzztzOG8Q65+steUNBMppOuxE9qN8PC71dq6Twi/4rM3s0A4GPeWiv0CZfgLw6KOPbq9zl8Nd590xRQEwnl6ajLZRWUZ/lksdNtCPzhJADgA53UrZuBxlIoJ9nYxhli6zzMWYCBQHwDna29QBIBy08rdLiwcOodCe0qnb0eRmgaN9gHJnSZUnX+mBVSKySD+OQ89YHotHOfuRb6toSdbuSeO1sAetkjdYL5wlqqHgKvwKp7xyvRK4JvAtEWV4I1+2l1PZPkIIVV5iB2zgWt5lgp2hSX7l0bNS6nd0HADLK5dA+qttBNYuhSuCOreNqMMOPiGzw9Pi1tl+paBaPFgUXhSGNPoc5w1dyh05Z/RsWbm389qJLQJSAlK+qSzZ4m6d4P7dIe1ZDFPeAXPYcWZDZa3z2toZWfWgMbRjp6HSU4MTmOXVNq0vdflUFt/J69GO3o0l837iS4undHg0E6ez7lQacFcuX9oeeOCBBKa3+ajMLDqNHxe5IltOlXYw4Wjmjqe8c7Nn6nH3BOgpr1/poCISVpBkgIgeKQFnazgClxEKTWVOT3VGslR5hwxKoLt06maPZeqtb8IzLYjighgO5JBk2zXazk5spnlLKdLJ7UkMQY4Stq7D0JvKh+fyz7+KTNCJ9yAJo/GsP5rKY1UNZurt6eXdlx453YphbA0NncytdXeJ02Egj6QzeoG401M7GQw7/GC34Iix7SSQh2WFo435faKB7Cwec7AInSKhikwHqb0NRNM4j8cJotb0e+SVvsmDcJ57SeSws2mLBtLAKG+ucWLTuY4tnHjFpfazYQc/2YmlLv4QZNSlU5S2Htd2iqMtyhLlBm5q06jlVAa/vVGSVi//tm5+2RPelKU6cBYkNnXONzqr/qTvtJf6OLZ1ylC7euxoqW7CKfikJ7Olk+mthONs8HOVG2xfepE7H4DRoLnJm0bTg6ZxOQ1zYwxn25o+DSUMJVVwnd4mz3JRpriwAvMNmggtRyTxyEzXeMsQ1qW6I5cG9DRTkziQSlO4Yo53ikxl8t+pcloEbmAHbYJdjMBmZIFHMZoiV0YbSjQmn30qVPDAc/gOn3uIyUUu51q7ZFsdBBlpUxeQnsG31ixU9G/pETigq98dh8Wj7JHTNt6pEtbcfGlQDln5KI0Grk5ju7GJMjpTUccZzVfDtts7lcXRDcdxtAV6cJDWweltWduJY3hUhtqwjqu0tR0NwZP1m4JFBhHbPqe3YQ54vsKjfpFmAgu6dOYop+TYV3lbvq83d8ck38sKmXEFqTzr1U3lq/KbN0nD9w/vYqfFfOs7s8Ms8LqY47zVH2386jNf3V7i7eEnePmPN8N6UdMe1jfFVWHtITO0Qk0mnMJ4V0ICfnEVtwa/vcZ1e2z/AFCIKsqNEy+d1FHjasAbxBMSw7wo5S/GcOtaIRixvHY0N1zbPjuRwGYXkOMoQHpVjIqXHhjhq7ujnJJO8RCqSitN4AGbUZRCKNIq+qqA2dCx8yjidmYCCHOQ5LazCfVGW0FoE6dHJjDsoaMf6HAE9WGN0iXoXeXIwUGrtF+okw9vi68UHHyp7zqgAhaX1U7KUFjkH5mmmTppmymZ454T24y97Jywwk43Qls3eORhYMtmO4AJwHZu1e1sCInD8mzY1WV2OPRLZXZPICn8whv/2nFojbQpU2EGEQfj8QS+fyTZ9kCH5h2RK5vG0ZeQGTwdQEpn8p2yiqN4BpW8TN6ZUWYvFBgLXl/lHVtsbxO5vi38wQe/lJ3Ut7/jm7fL3Abnhc3r3NoWY6hjJMxoqeP52SXDwbGwi1Jk2U1DlTv28ctta+rSm8CEwRkVuobkfycsUFHUIpHrXRYIZHt1Ib0izjkm5aiCU5l6DV/hpwy89oycOr1NCko6Bqd1MBunCJM6BI7DHR6m8objZsS0kcZQBg3irmqDLAKmhSDgYF3XR8EwOptFTrfkvXV1sHFUjR4n0GPEv2T2grHXNJVXeWRvUtvUwa0bR9g74UCq97acgKgjK2P1E9pLx8OLbcx7nLWdGBeqHfK23dM4bD84pGsa2GlcXLXv8D91h0fVcntb9RSdigQ9eaOC9LzLRyvNEoWGQZX28ZvK0OIG5tASFZrGpuV3yvWN6Cy2dq0OSWYkwWkdPiiP0p8UmOAR4z45A7GFfmNUCJdfLjbnb2k8+ugfbhfuvZeeUkfzzvv15jKAy57EmSf7d0BQEjLkJwFBvSNPp6gYGsdXfkfU9rLt/V0L5TqNCCDRQCBjoAsPjjqgeIWh8EiqM1tkMClegoNze5rblRki0FTFGUGU014VOgmm6fGgY68MaD5t53eVJj152fXc5MMeX2OGGsjpvjXyTVsp2wHpKMpHqbWm6I9jeLPCJqsnyzJCXihS7ZBLntNdEp8x5cPclXtspFPZUn7L3Rx14vZJ1pvmSE6ElnCMHdZ5y1LFlzSaD/8LRvj29nuawt4pZXq+9C4O/WNoL8y7Zq2vrabQMt+fYyCoLyjGZ9Szbu4SQ5zOUJIO2LBoaOkPh/JrGWWb5cPoTByOiJ3Oi196kmY4YBaoTw/O0IOHBBy0gq+FsXv2U7C45W4onRSBxrvGuySfefIZRIF5lONGiwwwWyXDKJLFMtmFTGYnKXSCLPIsoansM48SW1PKpRDxOvW85cVt2oYbkS3kHRhQq1UUd7v6NiMIT22UGKC1uSLPKjZo3cjw5uKA8uUcndFy3Y6V5/iocwqyGx103AofpRsdymeKPjhW2fCj4ktI2+80opgNAGF1hmxbxUHFI4nojEa+p0ZjCJ/NgIxShVflcQL5t03w+mtIYul5KnoGDlin6c5RaHDYIcm3+Dz6mY2JKddOuesquAtbOrXv0QBrsA/+8AmT4jD1XPuahuYSRGFI+kz8hvzw1HY9Vy+wuXC1LIPMcpQjsCuIZ4PHOsMxuj6QW7pH2i19gN2q8JHRLzrShy0Dl8zIzxKpm2ro0dFYOYgj8U4nHhbFPY3Iqyvt7jFLPegpj+3tGE86hTrNs11f/soj27Pck3rs2BmWD9ylYKgK6cup1EjRhimrRKpqmzQCJRTkQq0SkGZa5fS028kV2Dpl80uViS2S5ijyENjh73RUsLavMhV8eSW4HBkTVLQq1tblV5ZXu+mhFF762S014gHNojxNrCj/4VHPx6I6SxgqC+VZGda5OHOjO40MwDr1AIivxiITxdeJxduptLqTb/UaRUJPR1Jv+2QtnQ78hd99RXLy2F1UT2eKrprFob4CFlmEjVOEX+2nemetJ191kgkSj3snFrY6KsbirzIc2aS9FBO6pV177dvVeY/Ct2wxCvKhW31JbV+3s7+lCEBcIBO8o59wtAQeGYZ/sWivbiLZVjqWmsDjCiaFDWgHboPR9t7oIb7ptNICgPKi7fc811rVrXidBUYv0kMNiQ9J0caO+KQj1PEzx7bHH3ucN2dd2c7fd45bpHof6vET3HaEw7smUrousr2UIYF9LyrjMtEeGabJv65AeLnb+Nmu93+84JIAACtaSURBVCxBoJom2Q5JaSw+5VfpMUBAargIgBNab8pBvqBjatBD175QDzYlsMxonJAgBw1OslZdiskiXNzCg9iejvvyE9i2tn34Em14s8Q8wMjWnpAgYISD81RWF+rBEUVuHZHdI3GdIT7WgOQNnEx1Oe+T4kiAPhxx404ER0ZOt8xDsvjVr1v+e2cMR9FvdSW0dEvLvDLIl2kPY8cg7tmJFU6e1K0B2Y9tJnDF6UjhdbM6t+farPRKs8qXnjDikf6suTwq1//X2L0tzZIcV2JuNDfQHFKXutD7v9CYdDmk7mmSmYYEpkmgcehZ31rpVbU3GkPF/1dmZISf3cMj8lBZaM4+gwM7mjjCS+DHEup72ir7xNCSqoS3+BiP0McLBjpIpFRX/IP3LmcvF07Ijv967btKcexD1wdx/OCeX6ebbjRGi/2CAexDDoOXbC0Rm42JpK3ypyMhRcG8xs4Fmzzd70altsoSo61GmcAhEAZxQ746krZ8Et5jUWlyT8bT7C0T+hRZ4IXaNQSmPOA/2Wy2BZNgeKh8vRsGItgxmg9KllCWCn3zs7XaUwySLZczGhg+JHqxqfWvudQpT9M0n/Y07OoAgHqlsw9nM+ejVDNcQE4vj9rJTAJCglvQjAHH+oBFtsugHh0+Bcap/HMU7Rq850CyfJYLzmtrUPSAnQTd1/CdzWOHycWet6SeBuANFrZVHAfkdey3Mv7gC7vxARobxAV96TqaBtAGDhoG4skigIe7ZdywP7aBr/6Mq5bdW6/BnW6kVm6v3gngGYjqChpwuO2SQTuejTZ9j1s/u151E8/Z5dX4VKpbkPE7nmTCvbJlA7e3D7NnP6udPIHjPsifvvuXf8kSNenbD0PKlr/KlzoRle8NuE4vj4RbDoYw5XTFoKYWX5r8s5kujT0nrNLJu8+AMcFWuEoUqOLuahRTx2VpewIQjMaUM/45cI2RKwPhfnil4IHvwBMceEf+yYHQPt0CzkuF/NiK7HtDLgfVmWCVg9eamSPbM77JUHnS1WWH2y2PXd4pADuB6wmZOCQdC5i0PwUONLbaRaQFCpnbnB64sWR1ubaM/jhts4rTiQvyh+zf3FXGpxddetxHcw573AzuIKWyP7CCR6zs1tHs8kNe0gRUYG5VhIaBttkGjfmMrp8Dcjf501v538tFWhqUXVYFR1y1CWho5UtIViSvsvrpdntyKy9ffdTBnN6vQTxHPLIWNZvBORLvPAGXHeCdzAdtr38rnvmHLTzF5nywr51MLPXZa2IbJw/fXkiLIb8Q7Kef/pgfCfmXPr1Oj5ijSygMYtYO0kiU1xYsyLmiqxIC568meTLcDjj7jAZ6dZA+jq7X/s+v5Rs8FzSongg2yL8p5K/jo2DX8RGYEdDp4EutPNpwQYEOOa6ks2JNtscm0SmhH96vpe6Bf+wvkBnSXx3eFUR0eoK44JWTEII+fapPgXOlVDKDkl17uOevQ/BAun9jfNS+sQ87/HUJhzR/xZPs+VwwbtDBXToBex9ZW//gJRcwkZCPkvHQ+Ax+noX7EiX1rrZeDfw3mbaqmWzof02HzRLIgVUEv1OaDzJtvw2e3w6Qs4f96YP3BvRkoIuP/r9VPs/Pj87fgl37ZHbumnycwZhozqD0PU78xwrP1INwnPMs9t/lV3n+kJdP/f4xrMGwAWEojuym1S6lgvlSMr2CyGqshs15jEDqbY0w6c15g0Y9glWKShKE/HdmMzul66686mbwGmdSv/k9DuvLX90yaECMlgs4cBokiZe/OB+L4n1R8UNnhnpvZfAO08ca1Ss8yj9gvRDg4KN8Ok2czCZnzg/AVC8IGrCxA9mUXtGtrLEL2TzEgFj+wUaCmmpL17ezxvtuEm8gnC9K+Bc3ZPtrHeAJ/tnss192z+ybR8AEd5Nz5JYko+1Lp5Pqlmoz8QUaQdRZd3ZgRjz3GV/8bzBfu3g8uMlNtunw6Ypv5T6/3B6N491KNsdLrOpeYtnpApjDPfiT49p997P+qR5LDNd3icUsd7ZpLfr0Cq+Exg/FtVrsNJfTl5y3biHg2dTvvvtdXlb8b/+6Xyf2xUhIf+7AeowQJ/Rplxw+KrYCTg7vdxqTJTPNduAZ72YZT91Ew+rG8HAJ7+Ncq8aIo79YfsTxvZiSPop5rZ1yRlVHg/MXuKEmCwysxnXQm/eBlRb8lWkC3fLAhST3Pt/PeqL/IjFnaIBvUDz1Hj96fLYV8NlUpw94jDfoJjdRKkt25PfFVCR3ASj8XnpcoGp7Gmly1eBrv4EkOJTNVKNjEExOumzQDsYAGSH9Pt/OJk1QIYm+Al4QDn5tR2v78Uyog35kG5/6PDzQPJkPBu7Jor5nWclLrvVVhsYQiLWRA579tbXy8L56NGj17HPGnywGIFlvOcx+s0fhYyKxeLzqt56+uQOfkk1jcMxCh2zzg86XfAVGe0mnNpDY8pezpMrws9lSS/h3mfq7fKH4D3ku9dd5bblv2+eEKgRyzpi/DOsy3vItDAkdiG5TX/ZuDpiU2WYcN+P7Fj512ZPwk+0xYnDrjCc4mmHbBmMK3cyQhuDvhFnmaSAGlhSl8VDuhSC4KJxxAhbX5Ycp/6B1TqcB9PCeTKlfScM5+pr+/+x/CccVR/KS0R+Wyjleu/NzAfDO1pZRbD5nTZduhzwKo/nYbjS75Z6U2aV2CipbNLD1DKD4+IDdJzsy1gfa37Dqo7X29W1mgHs+uEDv+2GeuDl6Pf+D+JTahF2ez+Rb4qDWS96EqgdNlJP9cz/e63v5vNAnq71VwM710B6+wTO78xGzaO8gra8MIFeZRXqc8djVOMh/+i7hwSvDtt0rRZw79vwxNCT2LXWteogT2iKC7r2iHh4Zdnkk9Tff/d//9N+++93vfpe3Lf8fefP5vwfZUiGukXWTEfpUDSoaj/P4a2wN4bil3f1mQ+DmwGUMzJVbf+94y1y4LrSURvDq1MA6VgxUBrN88uvASn6XoLPgMtkuNHU50N7xMQAmV2gkur1mMA2V5BzqoBpMjWALiCWE9Ug01H4B9PiXNgvuwYIuRoKy9W/wm5zCe+dCcEaRxiSMj176rweA3uyfnfrw7Dcotn8wgMZOZ8e1blu7pf/lo9D81BE3pf4SfPxbZuPJJ2hsAJxA9j4r442HIPdZAJ+seGtDa67mr11pJfPn7HOwcPfBQ6J760jmN/fJ0IQe/vlvIRM1enoQ4K5MyGUSomPa3C1A6KJAO3lcvMJ7yXJxUTsGnqxb9k4C8iLmCn8jgKD4Op0Kv/xPHr3VKSvEn/J25n/+p3+KcDlHCIRAMJ/Z9kZ9jOh8DnFIWNm/qGkLIzf7vTLDA+emxsxfUSiGw9KGMCmX5RjHb/DV6KHRp0HSNvhsn2yOrwtMmxktoWUQV9V2ZapEs7mLLpUtx5G2utAnYmSpZaZ/ZO8+ONmfXJW09guw1NdeFisWyP+85AIDffDD3Rrj6FslzLZsQI51PWYpHnCcS0A9cui/5ZTePlHEF/4QwQnP53PLzgte/UqDvniru9iU/Bbim3W8/qEBWrpF6YbMNcHTdPbV+DnQ1ReYABM7OYUg++Au4E7eJ0HHh+QkeyE/9touUR0N9MErS3yhgyQR7WNjz/+2WroCP7yRzxvfyH68JPXJG1nTDob+9VlJGgGWzxJOKildvaXVpCDef5PbgKOBtvEBan7R7vQLkT8G1hVzdDzPbDY0SCGcPLT68v/9v/9P3pH63/PuyLzzJhmqmcRVKxoS0gdFAmVXZ5RqD9JIEIJP4i7L0mowYfR2nsY0axMUiQSGTT7Jm7jyqz7l012qa+dQLyNmhD7gHR7Ow5zz3SyEJsUjTXlV2kdJ9XP2zzGgZAOQDJ31XzhtjiSNzjgFNXQTKLKGEpzKGNo7lHCG51hrv1XuQAl4v+61ow5AWbH2DA2BJgFZpmqbnMfmnHQBnzhbDBa25MmTMnHe9jj6n3ZHm41g+Di33zkRCsp6msVTNbAewuvO9uhtRs+rnLKiql+aMN6+Hv9bXcQD6b+ir3KE/+31gVlQLl5GYzZY+/hb9j1uKD7cztwxvltcbPT3Vj/acwA2FEc7Pr1kg6ZvTVCTDuLJR3u/mxusmxVd92gCDFwGSPjmfa3x45cuP4dTefEJX0vbkCn/Pm6JiYb085WY3IMWfJL2dkdKg/e3ed/NjzlnvPd0MpIBdYOpin0Y1PHXJQSTXZvtE7gNVcEczhG1GWfOzQCrMzLLhkBkCJ5lo/tXCcbwZAwf8S8xpDNKbSACJ9s/5Lc/JIzyyV4pTvZNJKX1nGinDQ76CsOTia4lkGYZ8RUu5f/QpNC4FLe65PgGMf0+S6GfJjzHl85zDGvUrkHaLH8BiAq9P6mtzlkn/556GS74FYFSS9b531Iw4G/w6IPFBl7A5MhOrfe+sp+6o+1qn9KgDqxvq3zSYtP6NdZTr22jRH0ZB/ayfZU6WeeL8zG40dC/wQycTGhdH/h3gXM83vFyNC2FyXvlZEHTS54/SyCTLKejU57GUACtAg3sg27SyuoRvMEstOOVxEHkCMHGp0o+drYnsz3/uIZy/TvlQw+0iSXDPv1ODb/8X//nf/3u9/nNgt/84//+3R8MgBDwen4ZIfNSptigAaZRSoMxdYquzPCrL/jGeE7avbcpB+fPfeVWMlkHRpaPncpzjopH/vpVoRCTYXyThGMUPvnSd3iiu2ShsbNd8LSdYSpZ5TOwlxGbFQP/6zwh5NlaS5PsWs54z1F2oXc+BYd5gfF546nj9TX+jqGUzoN/9gK7c1JBJ9NH6zh2gR2UF+NUg3swaBmYytG6+rf8tWurfFkO/SVv0HZsFhEG6wezgahibeE353XL6BIWfh2o9BQHWSno1y7w0V/wk78Kd58ckD4GJG8t1GOW+9LEPdjSTLWyZQBsif2ePW9Qnt7O4rD51L/KZNOcFFZ9B2qOaaRULiMoml95vTk9tFxnuNspYMh4V9vJV3843027vzhrZHSl5hfa0ppCNi18JlHEdjmdWk9aA9SY48McOC0wMCVGsHLFl3/+53/KOdgPNXAFrlERPUM+XEv2m83jgArcLngTshX1x2Fdoj3HNeaDm+4azKFzVE60HJGF75lWtJqVorYBhwNjcxKOweofOIUDDHY/hf66ICDg8ycZsjHEe8DjnfFn1hIZSDACB8HSvf5U/xpOQJJFM33ImKby6zKqVI5qdHlgrwVOMzW4ECl1jU9Z8OHLke923evbYFt9SBfgA5cMZeDQLu+v5d8R2wqi8X/ROqXGrP2qAo7V6bql2QZ/uYfppMQ3MlctwZpKOu47hmJXkF558UyDeuGfzs/j1cXn1+WG20je0dcwBDAAJRmzIPuIOQOiE1BjMI2PXKWSeqJtOnXAvYX+KlmF2A3EmQ12YNkju2GhraZ9LSfhlx9/+4fvfsovuv7qB1I1P7YvRwHPTBIhkazpn9F8yEfqKyOCxfwB6ozkOEq+4NOLdo9N9wmC/jxbGpot0YiTEx6BXKb0AMEQEI4h0cgA+SMDqFex0HyYyLKCHv/Kkr1ApIss1G+llE9aDLTgNxAFPNnIckqkBZFrA/epMz4FeeDh6d8ycxe/4MrA2t50ox1YAR0nL/jIGz88tNZm2RY5u94hx2cggn2AK8VfbxpobMEHAX1M1Fi4ZZ222ir9gpQAnp2MJWqrJgtKRLpdIdTzwGrzmv3gCnTyrwQm+l7yYX8D0fn78e3PpPWe62w6fWe/g5ktjyb9JQ7n2plNnHIoOah0GivnYuhsc7NUZRQxsUWkqD3IQOXjN3rdRhdRGN70cmU0e/x33pfm0IH3sOxsiOfOb0k0GRsjmE/KR8YwfYpZ9cu//tu/xdguJBgw6QkC4tCoj7m6QaF8LlNP+DNgAbIZ5HMUehcABkEHQwS686c6CEaUUijSD9jI4TZJly9Bnvsfutnt4srj+lhj/eGX+usmcu2RTdrwdtjlAvhnEL0zlN60p68ysAO40pheNVHkbduHoo7hrIzGuBmEo2tAebppsA9odrAq29NR2q/uDdjRykl+fGW27cUBtg3wt/aHSpbPPrwlyZ57suWJ+uKTSmjBQ7u46BDd005FWGxMlhFofKDdgAxduqaLO6dOcJyS5OD7EOsqA4BO9P15eOMpv6SLrrdtV98gNCiPN5KfttgKCgcyXumgCI7fm/TNl8lphiTDWy46EjESp8/DImyQgXXtFf+BCX0+ro6JKcvrJejTK/vSn86VhWFfcg3ui7Y/JjO5XPurrH/DNrPOc9I58TrzWDJiZhbb1czApP4qDAG+TF+tDTJDG94yJPUCV2ADzgyS4+z7xzqP01A0YKboMlKZBN9siLvcUno1UmiHv8FrEJHvZqOAzR7l4ugt77KdtpXTYYniacsOHzNxTiEmU88l0siuPgN972NsMqCnn673yj4y6pOUWg/Mz3ksA88FFVgcI+fdfgiRQKytawP99GIJcCdBmz82GWA9j0k/mKBVt/DvYY5RauKJL8ip8Mf20eGBddwZNMftc4k+RZsZVfJ0ukGSuwjnx3fNmI5nC7afrDQ6PdFZXe1dtH3bzq/s9lMe5phdp9oSH7lHP5LFV2bPycvmFllbZASuYOl7Blt1ji7sIl65wCrNvvfP88UAst+FM7ETMV6FnGSYXxEPfFZeKweY9iS3zu6xFfgvv/4hA/37bOIAz8jtG/2By9mwLGYQVQokPwyi/vqdivQ1CEivno9nU5Vt5yjHFU0fAXJkOPUpFZbRbhBm76PM4HJRoJtxwYwQk1isUkSTZSbntCBXQ8qaO6dZx2gvaFOPHOX0BPNgHhKPPo4Kkz28ckgmj4UmE6Weov99uGSgS9zu5H6AI32yaKNNrVFm+qePgflOejKu1/HTWaBU9ykQuNH+W1v9le8BXKJCY5ncMUFr/4o0rQ0iWm3Ijfp6juHtz0qRXVMOG/jPkjfmqr16OpH+vqsmYPUrX4U3+c734zSZ1T/byWwZ+NNP+6U0eMrt1atH4mg09RVi7Tn49JSeK51FyffYIlkkS9h4/aHV1848fcfvlbwCE9FSQj12qxEcxhasczKEeuj/nAds/K6kdvr4Nk6yxs++2Y8ZoxTQMIwDnuXKE7J1HKNZ5l2hYwP0o02WVBikAlf5CeQ8hGLNlHfjkwb5Nyb+7DJyBwcKgiXU0fugT/jeJ4rXLyCdx9ShaAV+S6MZ5BzJwGdA1MGZ5RuIPZzc7fvYYM94guCH3F9TGqB5yH03bwcsCDtQIp8l4ZuudrK8y4LFMcfhK5kQafUuJ2PmG3hoHQ0gBYP1wKP0t8vxWJCBGx4/Pj5i38fGkyC8Q3twwkdrdCJTPlLh+ZEwYkQC6elO6krlDVr357/sX0mwUAG4vh6/N6fjtaBz8lxsOb42cPOx2vxlVTHys794Qnfa2KoPlr5u0PvuKRgx+iX3I6UjN+3R7u+QBmdL0UwGgaFul9+BMaj6g7KR9d5HtMFMtvEr01D9U1ZC//H7P/QOww8/fAkv54t5LrXZzOIvF3GqXDSA2no8YNZR7/cHq8BIMvtNwtcyPOc3+7kxANbcC8A5agM89DKIvo9QG1RfZ8Y6OEQ5H9aMHuObEcPk59yjdPLdwcZRAp7cMVDb1LU95VtnFuY6v9njpd8sjyNcWbFL9KwczFAZ8Tnv2FNBS0CZxWNwtuyLqHj0VQTrDgzs+4ItBzvGC092uMLhzZj5Mm7P+QrH2mDoRTIqh/DD63Sarda3ei348AlSMPHdIEdFUGtfQFtyOj56ZZS+3a/TkU8AdusKbujRIZ/zFXLa/DL0ydPRHADLPCRYV9HvQ2f78dVmZeDlwIOTsSP2o8dw4IM/Go6nz+PD+E7/wbDdrtSHUOg2RPAOjPJ1nOAXOvnrxFAIF2VMQYutDkh+SzxakZJjRb+hLDbJsjGgT+L9x//t7zMYf5dYyq8xf//3+4UH0uwSfIAT6D1Xx55wMjKDPQoR9BQbwwReYFoohpHBwNFGIf1C0En6ssdAQyQ0Qze78QFoashO9aOg6RbYq9SwFk6PjEHqb2mkvYbIIGl5jFL6D/LbUON7x2Cu/oBuR5bK5OriT12e/+pPaQht8F7jwVWAemWQXjlmJ4F4hSMnx2B1GXhM1wHRG2UPpXTezDoVcn6pLcB4XlbWFwukLz5y/y48r4BdecsgGDbYq1C6txfc5fOA9tyvCSCyeUIokEvSD0mYTxwMkRwafbppv1pXHpG91xzABFI7OPuO6bVofZXzxZJ0EiH7hMmuYk7Pg3khtcIvDdsdlVlQY4+ex9FLPD7tiHZwZ8Cz8ZJQ/JC60vvh1ansX5PSo+z0DWhjIUTtTy6/6sYPEqpkHSuU5nC/7w9N/fDDb7778cf8tk34ffmTnwTDGMPsH76vK1xEqgMjccReZpT9DbSUBsmDBJYgpmVLXOv6fv0muI2T2JBwDXwNSSN/5+rirLH20GAoA3c39BHNp0YLnQSd4Ot1gxi1Sym9BmDgFoMMkkESWcqLfD6PgbnSrICmcsY7BxzeCyJ4D+qCAmYYyXYdZKEFVypbsgKA8mhPBnb0ze89/hYJ3jRjC7N/kWJWgcuu6PeiQY5jpdEOlJdMf8qsfgP1BmSTQfC+TgLhgG7tid+7vGiETy9ORJ7q1++25gBewWdT2rLxZ4nVH4jsKv/666Po2CSSrp7bPzLYtXpCJXbqh8A71WAv5Z7QeqBri7OB/nd9vhBen+2Sh8RwcPblEyD7q9/M/AlHL/ouwc3HjLirwFZMgehMOZ5osf+tJucb/jeRYbi6C0seK7yfFf9S5qVB0ABjDOFViFL8Z2MX0erozpkfkKvKprBkGYwFqb8qGCPdSTzDPj4J4tWyjwBgX73fyDMJFhy9SmiGTSF30FIssRagji5AXwYGYVYKPNJfkYeQcs4ZvYduDq59UGTFcImpSUQTivnXAx5f2dFXixwnl7zVHaH3FnyOlmTUHjqtrX56PE3dkXNX/aYNncGVX2UY9CWhXewa/S6fmpwme68VsL77zuTNB+fOGtn72QZCXgL4JXngiK3PYnBbdRlkr1/3DQC71UeR14BpMvKkVm0YnLThBU6SauLNom46jMNbTjZP8nLJlJD9DGZyavtfl0991N1GkRTYN2J0r01c9/cV+96n2f19P3P6k8u4Io+4MCvzbXXL/h/+4R+/+/v/8mPpfnHjU0/Ac/7GWDkOLEZTJA4Jsf5+eQLqlC7rMkJ4glDRjAHVsoLhvCpRVkmaLZ+KBAWc4jEYEIHdUtlSRNYd9zoiEBbAcNObT0pkraI3ENearRkkeoS+GbezS9DqQPqFcN/TE/pLnqjm4BcLfo+cqSVUiPou6qHHegyNihmd7J9l5wpAn45v+j9h1cEBOXDmZZsXfnTreUpg0togHQbsFba5Mrwl0A1GwR8OkqUS33DP97F7gz1N9MmoKc8GUfj/uef2iYX0B3SxYoTI+P7Cc4nvrSDdjXPtHbys2BniLR9WrilsSTob9kJfAtjM3hk6thfEBmpPDc445P8odN0TQRJJaJWNzeSD9mGaD8x39a0H2J//6qrtQdJyD6NEphKl/yYCx00g2fuOY1cRP+dRzMixyWixeElT4sozshE6lY56xPNJHmKfFjxksro9mmBCYRnsl0oHVbp6KT/EBImB9LLJqGabFo58cXpTO9K3f/d81k7Cz7ZIaTCQ0V/I1yAFmbzbPrgBUCOzdvCTdzTb19suj9ELtb7PLbjeo2MsMN2/Ib45jMOe4I2sdaLElLZvy81i6LH5JTAvDpse32K8jw2CyvJu+qpWmSztU2Tz+rNElxj5hTbnnnYlq2doPbzT6x+fGa5qd8AxQdmnop6DHoepyOr5H5wPw9RPbJ1/g7IPbTQY0xCc9ndSSOM3ptpAQO6dEO5WkiU32xW//ZT6X5f655HtaB/GDZ6OAX6oX+KfRyZqkVfRB55SyDW2PvyM9ugtTjMYc2sjPmEmHX1KgsEZXpCEuAckvDVuVyZDUqor9XJu8DegH+ZhsYc2cpxFzSNMc3jr2TTb9SJPBvoU0CqbLbsUhob0GhtNf1XAy7RAgHYZYGZ0VTgtaM+goXsWe6jQbz+Yw2FpTL/998lkgmfv6mwHwulnVFG28jbm2h3rnwMOChoa74KvJZ/AJnjlTtvs+4Z74T34lSS69jzyDfbST9N0fXdulZHk+QSOpLvlXWxDp8j8Zz8celeKg4pdvLLZ+Dmm/68tzeJ7y1Se5XOzlSRxVyJ3Mzy9cd2dU6JH5wZu6PkuoTp9MJvdDP5dZZYiIk5ls6JhH8WtEzY7PzY+0360C/RsmgDii7/8xXL2GSmkLtMBvW21dn18N3nAbHCrnS82eObvl35WGSnsqn9L2pOa3NPdnQgLu/miKKnzDRn/lPuMfeq8mleIzokx8mOq7A2tlBgi47EF6wsge8f3AdAgU0nnTprVQZgRGBd95SHoCPEKzbicktsE1v2RZWUYz8FrxzFnwM2IBuGMNaDh23YgfZDZ8odeG/Snc6/6Qm6gpDX73q+KMV/SfNIJqG8j/CVPZ/SWB9z/pFxA1xAl+hCk72fEoKMtH0sgln6ngzE5US6oN6Oub1uJ1SnGnpPUBrbnLg7M0PlGRs7kHKWgKJHNImC1eE9q7U0GbfoTfJZYhckxHvzxKuDy+XZpWlkDNG+9ONb3ePedSIgp7PFU1zD51S/Qr317wBtIf3IFPDPu976/SL6HEL7sWDs8gwnusYT/bbk+4pAYvSu1xfuwzRu4b3s0AYuhEoIv1r/77ocffshrb/7o1kZOTLWGt5uUKznOjJlVftrMaGH9IfADVGH0KbefGdZm28cOq9cc5N4gXqMZk/QigcyRjJ9LiruP6XJ6INJnEjZOe44TOWtQjUpAdsk7zo6CM1b6XGBYd/e+pgKjQVxaZImDXgM5jnloomEwNrgC0x82eQSumZ6R8OkIJ1CupqG3Wads/8aGJMuGViPqtYXmlO546Cn4CByeq1wxxs9JUnAqazbkIv+3gXU0Ds7xAgHX4MTe9qUdoHHVZrAtaA7+ftJdoq1twrQ0nMI8daQOXl0B5bt6dz2gbXQhlPLoyv+Sr5QgcbiFUZ+XAkD63bIP2tnor9v0SVyZqEqrD1CE7mPJ2stFqq6oogRRzn44nW9fMuIeoEv6WI/HJcj1oyEPnWqjZaYdTTO0z8le+ukTM+pf+sZDA87MFwXkDib0H7OjtxLgnl+Octs4QynRx8AfGG0/xQYZsm8bwnwUjyMYBdMO/t1L+zN5kgSwNFbKj5ycX/jx1k+GEy29gUcb12xesEdjfMHvGwjx2iFDSbuPN+U1uz2Znv57Df/x2wAgDwNbqpHjW52RVNY++QXCOfXp7K62PFmevS/2ftJ0mb98Ht0ukSAA5V0YoEZ4Nz21npfFti6IXPFoouLizMsIqikWNtVT4uGTtrWx/e/NbEA+NqFnv7wbOdJTsJ77zjmZCIZpBVUch1llaMZvA0Dj+aycNbxKbfY6kritINhCkjdwDBLcKUau6Jgk8pckADfvb3DAqY6PTT5trm86WQWQjg/Erc98ev1kRnPt8IZr+boEs7bSzObf//3f8/mP/NYGJvlYQGJyDyXXYJ+efYyFgIJRjfDA1HhpP3oFyuYubxOwVqjDcQwGGvniq3IC29+5yCuOAnoGX5aDAGuDVm3H28c+K4WJXvC1PPvsXBcNzRjUjPI4n7sKmV0N+awGzll3rjad2CrgMCJ0q48t1vrLW3SVXRQLnwdn564C7sFLu/tYTRbOKyKLhHSKnMNfer/QqulzZHcEP5pS/Xx4Gg26L/HB58Wv8S7oPDFlufPl17GgZU/8yty9+pmKhL6SvpDgy12xf5qzw+GTuuP6KMon3RWw8vBLgz10utpZ0Js5PykYbGc3e/5YvOxqMIL1UTqNs9V3bsiX3lR+5Q23wXTtF+/O78SNLxUbWI2TYx7NyLKnc/AZnNmQm8URu9uvvlOs3//Hf5ROpAjBLhU9gRBJG8jL9CeIfZVD8cW4jQW5AGPUGwcNtjR0EBZq5ss7sOqM0QMfoP2PB1iEfJqFk3kM5DZlH6/pegMRKW0952zHL27O+cMNdgyibmmp3L2zOj/HsUoGwDtrMvLPHtKOYfUx5tGqfBcAabx4PAey2fHHq3XwDtg0Bb3CGXRGnSD0VlvtgbQaLCJwSfMJhNpRFxucDDl+l9F3fH7CZ8vQzYRNSul/nSu/kV+1foUIqfoipxN8EzpkqwqWzvSMOadrglV/cCryh2yV9aHMMsDIo96D9JV0MDfwAI/q50BcQFvy30y0ATaOZi6c0WebhNOmfMRSNutiJGGArfw5xkld0S6GR2vHjYXIa/K69sEfr9mmPkti24UdfePT2Hno/vjjj9/9Pt88+fWX3PwPuTKfWzCjCsPYjzmh2pHdRGzLawPuswjvLhNLK8Z6FIxUGV9TYLoKtCcgBN1DiIKcg4bSezOCoPTIdsZ/lD/EQv/1pjpFcLLfB5T6eJ32G2R1SmieoQtbgTMoPNrEORorX/R5nHwO1KXAB2L2k/nlCw7J5kXbjIj0DfIi5hh8eegsH0GReqRmF0se9I+n/ae8pfNsDu5gDDqpJOOn5WjUZ/g95ehJNjylR9Jr4khdIhO6ZNXb/ggdbTVUgQVysMlXXQOV//o2YFQa5lDe2+lzMghovy1S6MgwmdkXV7AwbcZ7xyJxfacWeSTc9cNJBHZgbRxIIKXYfSKts9r4keVWemzg6Zmznfb5B88VPPE5HSa7fDb+3lX8r/893yc2hQW4L7ZjEM7x+T4ndYx8z1m+CR2L976qPxm9l7gfDTkuHAto9U85UoHv8pCULQZn4Ay89Ozb7sVOW4zYeTb7LFeKXJzDtUcxe7uPEnIzuLaHr1szQsf9wDvv2/kSZz3G7iw0QmwBd8KjQ64MBHQsRchndsqnMxlYEHHelTZlo+fqpzqHoH2vFoQzCqkEyMxdy1EvvAXQi0/PVegPdPtPPy3YHjsWanBAwW8wDe8h0t0uaOCdoMtS8GhX+Ag3TdgvV1DZg8Ahw6elFtpwKncpToZrOduA8fgfHkF4PhA+ZHL0HNLbBR021FZbpt+5Ib3pM1h+ZCfJFWC2HXwjNBj+TncKOPB3cQrOw3IAOTDAhMXZbPwtRS1X34N0tppt0bxjNH2TRfliYGd/Mv/2t3l5+E95ZPQ3ee0NOSJaAYH1L4c7kV9QjWhB/mpDcNgVVHBF6p6Qh/BjnTK+5U+NwHCPNeB24EdZ3HpvMEHeuj5XdDMQ2VYW3ysUZzAJET4Z/rpEk/AYm2cfK8Jp4olzlUeMp762tbNEhmMAMvbeJTRceT752GZL1M3i7NABX8kOjYToPXI/9Ow+ZV/YHs72t3RD15XmOx97U/sa3hGZlwdRX+BVzg9mC5ZC27QU+gncfk1IAkzBG83pwH4jxC/KmQcPYLXBxwAo0INzoX6DgBx78mZXorWLhytly251wpaj13f7d3xOrvqMZRuDoCaXhGZ2JYrlKjjH+o/+0bw9XaogctVPUhgdMGjMNus/PDRXtqfHTDALaLXC+uNPezn3b3LbBSP3L8zTzQBAp7fRrH+mdmewucZM4O9xUG+JhMtdCROYc9GcUgUS+BWYBKHXbHgapsmMcwp5zEmg9ZJrdl2CBM8iybfHk8cip6xjqMTIjqvARJ3CJYpwDYD2AmjDgX7HD+SrPMYmYx2cvZkCbJdvAZREvjxLLW/Q46wmlocxiSSyrSwib32hzVCL3QJ3n5/daKdqdQZY4PZX5vBWdoEhVi2PZVaI7NBgKdR7s6XSHQtgHgmjp6Cd/76+wwyHhl4D39Mf5Cl8+euZbJNuRLT6fFvang0e03P2qz0L7D7sbjv9Jj8nd18O5u+e8wfmVgGftA+/9o4dptNiDBx+2tjqbbtJ6PhdDMz5gl67YLmZ6+DomdTQJKH+6//ym+i6QXN08MEPzq0gLom0Lf1kviU0X92qo8vZzJA//fGnLLvzkxp5CwITg/9iqdZMmWAXdJy5vxm8fQaMv8CIia6rVQJ/qtq/Z0Cw6FJnRR/6TLHZQ99hz+VzyNpQ7oPVeFr6BdfQ62+ok+ehTfnxCUZQV3/4akDudQjm4CfXbW9ZKKEczAXmr3oFeKTe5B7Hhp4LPUqfm8y+P2oTOmbhP+Y8h+5+tBUFtCtWaVruyIobpKmsvy2rnw35ZMMz7dFdEnBce4YXOLTxuKduZqLpe/2FiVyTI3YUnI8tI6ZRmcPZoMv4ZC+82fEBC1BK8JgVilPm77Nsq5s0pkyWDZj34Jn+bnJb5t054AIZpf+sgLml4New2P5SgprMS+KkZSL6UJvt+jNzKtXGXlsjrU0/5Rfa/i5XjmuD4BtUyo2BvukuA9PpCuKnxRLH4qJMg7NleS4WZlb8bX5sSmx0cilNg5FR64UZtrNAiJY5oIfBBQVBGgxh/nfBE8Q3c1ymPkfYf+IxjKyjbTMkxcLp5cBY5cFpxhYYv072jvC1jBONwHb2ZlgHKcfv6iGRNhpMfrvHhoXHf7IGpkaUUcOjgngav0QT1Mvi6DOyFUC7uiHTSi82xQ57ObA2AyWfBHWlcKUxVEtlKjw6b0CT52yl/pijduJ0VlK6JF71tdVHtsJFyS0BQyN4u6SOK7uyiQ9oj6RF3jQeL629epx+AUpaSNM9bVkRCEQXNOBegf8KzOKMD9t5Nf7JcLQEn58gdAHKbYKvZ7PJd7Y4HnU6Pkl6tU90a3xU1una5WOEoQPe91oYPD5L9SF+aDCIRNmLZ+JAs81zjqfaSSRvn5A84oDYZY/ylY9ldTCEZZhm0thsWbzaOXYLXR9ewBudH//Hb7/7H3lx+K+fXwlnP+D/E15FGW6SpxmgAAAAAElFTkSuQmCC",
    "activeThemeId" : "e59eeb42-ccf0-4a36-bdf9-e630fdab686d",
    "audiateSessionId" : "",
    "firstMedia" : true,
    "hasNotifiedAboutHFRMedia" : false,
    "projectDuration" : "02:33"
  }
}
