{
  "title" : "",
  "description" : "",
  "author" : "",
  "targetLoudness" : -18.0,
  "shouldApplyLoudnessNormalization" : true,
  "videoFormatFrameRate" : 30,
  "audioFormatSampleRate" : 44100,
  "width" : 1280.0,
  "height" : 720.0,
  "version" : "5.0",
  "editRate" : 30,
  "authoringClientName" :  {
    "name" : "Camtasia",
    "platform" : "Mac",
    "version" : "2021.0.12"
  },
  "sourceBin" : [
    {
      "id" : 1,
      "src" : "./media/G7oug18Y/Pasted Image.pdf",
      "rect" : [0, 0, 960, 540],
      "lastMod" : "20220727T152453",
      "loudnessNormalization" : true,
      "sourceTracks" : [
        {
          "range" : [0, 1],
          "type" : 1,
          "editRate" : 600,
          "trackRect" : [0, 0, 960, 540],
          "sampleRate" : 0,
          "bitDepth" : 0,
          "numChannels" : 0,
          "integratedLUFS" : 100.0,
          "peakLevel" : -1.0,
          "metaData" : ""
        }
      ],
      "metadata" : {
        "timeAdded" : "20220727T152453.989711"
      }
    },
    {
      "id" : 2,
      "src" : "./media/1658940907.674358/02.5-TalkingHead.mp4",
      "rect" : [0, 0, 400, 474],
      "lastMod" : "20220727T152325",
      "loudnessNormalization" : true,
      "sourceTracks" : [
        {
          "range" : [0, 4581990],
          "type" : 0,
          "editRate" : 44100,
          "trackRect" : [0, 0, 400, 474],
          "sampleRate" : 30,
          "bitDepth" : 0,
          "numChannels" : 0,
          "integratedLUFS" : 100.0,
          "peakLevel" : -1.0,
          "metaData" : ""
        },
        {
          "range" : [0, 4581990],
          "type" : 2,
          "editRate" : 44100,
          "trackRect" : [0, 0, 0, 0],
          "sampleRate" : 44100,
          "bitDepth" : 0,
          "numChannels" : 2,
          "integratedLUFS" : -18.0056542916914,
          "peakLevel" : 1.00357127189636,
          "metaData" : ""
        }
      ],
      "metadata" : {
        "timeAdded" : "20220727T152506.428195"
      }
    },
    {
      "id" : 3,
      "src" : "./media/1658940907.675965/Pasted Image.pdf",
      "rect" : [0, 0, 658, 540],
      "lastMod" : "20220711T165841",
      "loudnessNormalization" : true,
      "sourceTracks" : [
        {
          "range" : [0, 1],
          "type" : 1,
          "editRate" : 600,
          "trackRect" : [0, 0, 658, 540],
          "sampleRate" : 0,
          "bitDepth" : 0,
          "numChannels" : 0,
          "integratedLUFS" : 100.0,
          "peakLevel" : -1.0,
          "metaData" : ""
        }
      ],
      "metadata" : {
        "timeAdded" : "20220727T152737.005919"
      }
    },
    {
      "id" : 4,
      "src" : "./media/DOXU7AF5/Pasted Image.tiff",
      "rect" : [0, 0, 1662, 1062],
      "lastMod" : "20220727T153332",
      "loudnessNormalization" : true,
      "sourceTracks" : [
        {
          "range" : [0, 1],
          "type" : 1,
          "editRate" : 600,
          "trackRect" : [0, 0, 1662, 1062],
          "sampleRate" : 0,
          "bitDepth" : 0,
          "numChannels" : 0,
          "integratedLUFS" : 100.0,
          "peakLevel" : -1.0,
          "metaData" : ""
        }
      ],
      "metadata" : {
        "timeAdded" : "20220727T153332.476181"
      }
    },
    {
      "id" : 5,
      "src" : "./media/pDbbU5pM/Pasted Image.tiff",
      "rect" : [0, 0, 1734, 1074],
      "lastMod" : "20220727T154151",
      "loudnessNormalization" : true,
      "sourceTracks" : [
        {
          "range" : [0, 1],
          "type" : 1,
          "editRate" : 600,
          "trackRect" : [0, 0, 1734, 1074],
          "sampleRate" : 0,
          "bitDepth" : 0,
          "numChannels" : 0,
          "integratedLUFS" : 100.0,
          "peakLevel" : -1.0,
          "metaData" : ""
        }
      ],
      "metadata" : {
        "timeAdded" : "20220727T154151.867839"
      }
    },
    {
      "id" : 6,
      "src" : "./media/kPBDFdXO/Pasted Image.pdf",
      "rect" : [0, 0, 454, 85],
      "lastMod" : "20220727T155204",
      "loudnessNormalization" : true,
      "sourceTracks" : [
        {
          "range" : [0, 1],
          "type" : 1,
          "editRate" : 600,
          "trackRect" : [0, 0, 454, 85],
          "sampleRate" : 0,
          "bitDepth" : 0,
          "numChannels" : 0,
          "integratedLUFS" : 100.0,
          "peakLevel" : -1.0,
          "metaData" : ""
        }
      ],
      "metadata" : {
        "timeAdded" : "20220727T155204.533385"
      }
    },
    {
      "id" : 7,
      "src" : "./media/GBHe5TzN/Pasted Image.pdf",
      "rect" : [0, 0, 505, 118],
      "lastMod" : "20220727T155243",
      "loudnessNormalization" : true,
      "sourceTracks" : [
        {
          "range" : [0, 1],
          "type" : 1,
          "editRate" : 600,
          "trackRect" : [0, 0, 505, 118],
          "sampleRate" : 0,
          "bitDepth" : 0,
          "numChannels" : 0,
          "integratedLUFS" : 100.0,
          "peakLevel" : -1.0,
          "metaData" : ""
        }
      ],
      "metadata" : {
        "timeAdded" : "20220727T155243.328887"
      }
    },
    {
      "id" : 8,
      "src" : "./media/HjuSbnej/Pasted Image.tiff",
      "rect" : [0, 0, 877, 1280],
      "lastMod" : "20220727T155737",
      "loudnessNormalization" : true,
      "sourceTracks" : [
        {
          "range" : [0, 1],
          "type" : 1,
          "editRate" : 600,
          "trackRect" : [0, 0, 877, 1280],
          "sampleRate" : 0,
          "bitDepth" : 0,
          "numChannels" : 0,
          "integratedLUFS" : 100.0,
          "peakLevel" : -1.0,
          "metaData" : ""
        }
      ],
      "metadata" : {
        "timeAdded" : "20220727T155737.217992"
      }
    },
    {
      "id" : 9,
      "src" : "./media/hGCJqExx/Pasted Image.pdf",
      "rect" : [0, 0, 146, 94],
      "lastMod" : "20220727T160010",
      "loudnessNormalization" : true,
      "sourceTracks" : [
        {
          "range" : [0, 1],
          "type" : 1,
          "editRate" : 600,
          "trackRect" : [0, 0, 146, 94],
          "sampleRate" : 0,
          "bitDepth" : 0,
          "numChannels" : 0,
          "integratedLUFS" : 100.0,
          "peakLevel" : -1.0,
          "metaData" : ""
        }
      ],
      "metadata" : {
        "timeAdded" : "20220727T160010.883393"
      }
    },
    {
      "id" : 10,
      "src" : "./media/ZkggOoSI/Pasted Image.pdf",
      "rect" : [0, 0, 151, 81],
      "lastMod" : "20220727T160039",
      "loudnessNormalization" : true,
      "sourceTracks" : [
        {
          "range" : [0, 1],
          "type" : 1,
          "editRate" : 600,
          "trackRect" : [0, 0, 151, 81],
          "sampleRate" : 0,
          "bitDepth" : 0,
          "numChannels" : 0,
          "integratedLUFS" : 100.0,
          "peakLevel" : -1.0,
          "metaData" : ""
        }
      ],
      "metadata" : {
        "timeAdded" : "20220727T160039.569861"
      }
    },
    {
      "id" : 11,
      "src" : "./media/Oqdhr29v/Pasted Image.pdf",
      "rect" : [0, 0, 218, 91],
      "lastMod" : "20220727T160106",
      "loudnessNormalization" : true,
      "sourceTracks" : [
        {
          "range" : [0, 1],
          "type" : 1,
          "editRate" : 600,
          "trackRect" : [0, 0, 218, 91],
          "sampleRate" : 0,
          "bitDepth" : 0,
          "numChannels" : 0,
          "integratedLUFS" : 100.0,
          "peakLevel" : -1.0,
          "metaData" : ""
        }
      ],
      "metadata" : {
        "timeAdded" : "20220727T160106.688173"
      }
    },
    {
      "id" : 12,
      "src" : "./media/XJ4nSMHh/Two ways to Generate SQL for ingestion:\r\n.pdf",
      "rect" : [0, 0, 718, 84],
      "lastMod" : "20220727T160537",
      "loudnessNormalization" : true,
      "sourceTracks" : [
        {
          "range" : [0, 1],
          "type" : 1,
          "editRate" : 600,
          "trackRect" : [0, 0, 718, 84],
          "sampleRate" : 0,
          "bitDepth" : 0,
          "numChannels" : 0,
          "integratedLUFS" : 100.0,
          "peakLevel" : -1.0,
          "metaData" : ""
        }
      ],
      "metadata" : {
        "timeAdded" : "20220727T160537.524603"
      }
    },
    {
      "id" : 13,
      "src" : "./media/XYjg36Rj/Two ways to Generate SQL for ingestion:\r\nConnection Wizard\r\n.pdf",
      "rect" : [0, 0, 719, 133],
      "lastMod" : "20220727T160617",
      "loudnessNormalization" : true,
      "sourceTracks" : [
        {
          "range" : [0, 1],
          "type" : 1,
          "editRate" : 600,
          "trackRect" : [0, 0, 719, 133],
          "sampleRate" : 0,
          "bitDepth" : 0,
          "numChannels" : 0,
          "integratedLUFS" : 100.0,
          "peakLevel" : -1.0,
          "metaData" : ""
        }
      ],
      "metadata" : {
        "timeAdded" : "20220727T160617.221069"
      }
    },
    {
      "id" : 14,
      "src" : "./media/M6V0kGhQ/Pasted Image.pdf",
      "rect" : [0, 0, 664, 540],
      "lastMod" : "20220727T160757",
      "loudnessNormalization" : true,
      "sourceTracks" : [
        {
          "range" : [0, 1],
          "type" : 1,
          "editRate" : 600,
          "trackRect" : [0, 0, 664, 540],
          "sampleRate" : 0,
          "bitDepth" : 0,
          "numChannels" : 0,
          "integratedLUFS" : 100.0,
          "peakLevel" : -1.0,
          "metaData" : ""
        }
      ],
      "metadata" : {
        "timeAdded" : "20220727T160757.735930"
      }
    },
    {
      "id" : 15,
      "src" : "./media/aoajay60/Pasted Image.pdf",
      "rect" : [0, 0, 630, 540],
      "lastMod" : "20220727T160827",
      "loudnessNormalization" : true,
      "sourceTracks" : [
        {
          "range" : [0, 1],
          "type" : 1,
          "editRate" : 600,
          "trackRect" : [0, 0, 630, 540],
          "sampleRate" : 0,
          "bitDepth" : 0,
          "numChannels" : 0,
          "integratedLUFS" : 100.0,
          "peakLevel" : -1.0,
          "metaData" : ""
        }
      ],
      "metadata" : {
        "timeAdded" : "20220727T160827.724740"
      }
    },
    {
      "id" : 16,
      "src" : "./media/LqcP99rp/Pasted Image.pdf",
      "rect" : [0, 0, 630, 540],
      "lastMod" : "20220727T161013",
      "loudnessNormalization" : true,
      "sourceTracks" : [
        {
          "range" : [0, 1],
          "type" : 1,
          "editRate" : 600,
          "trackRect" : [0, 0, 630, 540],
          "sampleRate" : 0,
          "bitDepth" : 0,
          "numChannels" : 0,
          "integratedLUFS" : 100.0,
          "peakLevel" : -1.0,
          "metaData" : ""
        }
      ],
      "metadata" : {
        "timeAdded" : "20220727T161013.221325"
      }
    },
    {
      "id" : 17,
      "src" : "./media/4l6cFfoC/Pasted Image.pdf",
      "rect" : [0, 0, 722, 540],
      "lastMod" : "20220727T161349",
      "loudnessNormalization" : true,
      "sourceTracks" : [
        {
          "range" : [0, 1],
          "type" : 1,
          "editRate" : 600,
          "trackRect" : [0, 0, 722, 540],
          "sampleRate" : 0,
          "bitDepth" : 0,
          "numChannels" : 0,
          "integratedLUFS" : 100.0,
          "peakLevel" : -1.0,
          "metaData" : ""
        }
      ],
      "metadata" : {
        "timeAdded" : "20220727T161349.567360"
      }
    },
    {
      "id" : 18,
      "src" : "./media/QL1twKeM/Two ways to Generate SQL for ingestion:\r\nConnection Wizard\r\nJSON Spec Conversion\r\n.pdf",
      "rect" : [0, 0, 719, 181],
      "lastMod" : "20220727T161505",
      "loudnessNormalization" : true,
      "sourceTracks" : [
        {
          "range" : [0, 1],
          "type" : 1,
          "editRate" : 600,
          "trackRect" : [0, 0, 719, 181],
          "sampleRate" : 0,
          "bitDepth" : 0,
          "numChannels" : 0,
          "integratedLUFS" : 100.0,
          "peakLevel" : -1.0,
          "metaData" : ""
        }
      ],
      "metadata" : {
        "timeAdded" : "20220727T161505.573256"
      }
    },
    {
      "id" : 19,
      "src" : "./media/QPRwBCEe/Pasted Image.tiff",
      "rect" : [0, 0, 922, 194],
      "lastMod" : "20220727T161819",
      "loudnessNormalization" : true,
      "sourceTracks" : [
        {
          "range" : [0, 1],
          "type" : 1,
          "editRate" : 600,
          "trackRect" : [0, 0, 922, 194],
          "sampleRate" : 0,
          "bitDepth" : 0,
          "numChannels" : 0,
          "integratedLUFS" : 100.0,
          "peakLevel" : -1.0,
          "metaData" : ""
        }
      ],
      "metadata" : {
        "timeAdded" : "20220727T161819.324969"
      }
    },
    {
      "id" : 20,
      "src" : "./media/2m64a2kS/Pasted Image.tiff",
      "rect" : [0, 0, 1274, 186],
      "lastMod" : "20220727T162826",
      "loudnessNormalization" : true,
      "sourceTracks" : [
        {
          "range" : [0, 1],
          "type" : 1,
          "editRate" : 600,
          "trackRect" : [0, 0, 1274, 186],
          "sampleRate" : 0,
          "bitDepth" : 0,
          "numChannels" : 0,
          "integratedLUFS" : 100.0,
          "peakLevel" : -1.0,
          "metaData" : ""
        }
      ],
      "metadata" : {
        "timeAdded" : "20220727T162826.824731"
      }
    },
    {
      "id" : 21,
      "src" : "./media/IKMCd649/Pasted Image.pdf",
      "rect" : [0, 0, 484, 1493],
      "lastMod" : "20220727T163209",
      "loudnessNormalization" : true,
      "sourceTracks" : [
        {
          "range" : [0, 1],
          "type" : 1,
          "editRate" : 600,
          "trackRect" : [0, 0, 484, 1493],
          "sampleRate" : 0,
          "bitDepth" : 0,
          "numChannels" : 0,
          "integratedLUFS" : 100.0,
          "peakLevel" : -1.0,
          "metaData" : ""
        }
      ],
      "metadata" : {
        "timeAdded" : "20220727T163209.673758"
      }
    },
    {
      "id" : 22,
      "src" : "./media/loPsWevs/Pasted Image.pdf",
      "rect" : [0, 0, 546, 1493],
      "lastMod" : "20220727T163547",
      "loudnessNormalization" : true,
      "sourceTracks" : [
        {
          "range" : [0, 1],
          "type" : 1,
          "editRate" : 600,
          "trackRect" : [0, 0, 546, 1493],
          "sampleRate" : 0,
          "bitDepth" : 0,
          "numChannels" : 0,
          "integratedLUFS" : 100.0,
          "peakLevel" : -1.0,
          "metaData" : ""
        }
      ],
      "metadata" : {
        "timeAdded" : "20220727T163547.813103"
      }
    },
    {
      "id" : 23,
      "src" : "./media/AJXjd0Zd/Pasted Image.tiff",
      "rect" : [0, 0, 1280, 1057],
      "lastMod" : "20220727T164240",
      "loudnessNormalization" : true,
      "sourceTracks" : [
        {
          "range" : [0, 1],
          "type" : 1,
          "editRate" : 600,
          "trackRect" : [0, 0, 1280, 1057],
          "sampleRate" : 0,
          "bitDepth" : 0,
          "numChannels" : 0,
          "integratedLUFS" : 100.0,
          "peakLevel" : -1.0,
          "metaData" : ""
        }
      ],
      "metadata" : {
        "timeAdded" : "20220727T164240.955406"
      }
    },
    {
      "id" : 24,
      "src" : "./media/dOVysw7J/Pasted Image.pdf",
      "rect" : [0, 0, 169, 125],
      "lastMod" : "20220727T164348",
      "loudnessNormalization" : true,
      "sourceTracks" : [
        {
          "range" : [0, 1],
          "type" : 1,
          "editRate" : 600,
          "trackRect" : [0, 0, 169, 125],
          "sampleRate" : 0,
          "bitDepth" : 0,
          "numChannels" : 0,
          "integratedLUFS" : 100.0,
          "peakLevel" : -1.0,
          "metaData" : ""
        }
      ],
      "metadata" : {
        "timeAdded" : "20220727T164348.076501"
      }
    },
    {
      "id" : 25,
      "src" : "./media/1eBYGhiA/Pasted Image.tiff",
      "rect" : [0, 0, 2962, 1800],
      "lastMod" : "20220727T165035",
      "loudnessNormalization" : true,
      "sourceTracks" : [
        {
          "range" : [0, 1],
          "type" : 1,
          "editRate" : 600,
          "trackRect" : [0, 0, 2962, 1800],
          "sampleRate" : 0,
          "bitDepth" : 0,
          "numChannels" : 0,
          "integratedLUFS" : 100.0,
          "peakLevel" : -1.0,
          "metaData" : ""
        }
      ],
      "metadata" : {
        "timeAdded" : "20220727T165035.467864"
      }
    },
    {
      "id" : 26,
      "src" : "./media/1658941684.965257/Screen Recording 2022-07-27 at 11.00.40 AM.mov",
      "rect" : [0, 0, 2656, 1636],
      "lastMod" : "20220727T170413",
      "loudnessNormalization" : true,
      "sourceTracks" : [
        {
          "range" : [0, 123800],
          "type" : 0,
          "editRate" : 6000,
          "trackRect" : [0, 0, 2656, 1636],
          "sampleRate" : "14927/250",
          "bitDepth" : 0,
          "numChannels" : 0,
          "integratedLUFS" : 100.0,
          "peakLevel" : -1.0,
          "metaData" : ""
        }
      ],
      "metadata" : {
        "timeAdded" : "20220727T170522.047744"
      }
    }
  ],
  "timeline" : {
    "id" : 27,
    "sceneTrack" : {
      "scenes" : [
        {
          "csml" : {
            "tracks" : [
              {
                "trackIndex" : 0,
                "medias" : [
                ]
              },
              {
                "trackIndex" : 1,
                "medias" : [
                  {
                    "id" : 28,
                    "_type" : "IMFile",
                    "src" : 1,
                    "trackNumber" : 0,
                    "trimStartSum" : 0,
                    "attributes" : {
                      "ident" : "Pasted Image"
                    },
                    "parameters" : {
                      "translation1" : {
                        "type" : "double",
                        "defaultValue" : 0.0249653805635717,
                        "interp" : "eioe"
                      },
                      "scale0" : {
                        "type" : "double",
                        "defaultValue" : 1.3334332001682,
                        "interp" : "eioe"
                      },
                      "scale1" : {
                        "type" : "double",
                        "defaultValue" : 1.3334332001682,
                        "interp" : "eioe"
                      },
                      "sourceCrop0" : {
                        "type" : "double",
                        "defaultValue" : 0.0,
                        "interp" : "eioe"
                      },
                      "sourceCrop1" : {
                        "type" : "double",
                        "defaultValue" : 0.0,
                        "interp" : "eioe"
                      },
                      "sourceCrop2" : {
                        "type" : "double",
                        "defaultValue" : 0.0,
                        "interp" : "eioe"
                      },
                      "sourceCrop3" : {
                        "type" : "double",
                        "defaultValue" : 0.0,
                        "interp" : "eioe"
                      },
                      "geometryCrop0" : {
                        "type" : "double",
                        "defaultValue" : 0.0,
                        "interp" : "eioe"
                      },
                      "geometryCrop1" : {
                        "type" : "double",
                        "defaultValue" : 0.0,
                        "interp" : "eioe"
                      },
                      "geometryCrop2" : {
                        "type" : "double",
                        "defaultValue" : 0.0,
                        "interp" : "eioe"
                      },
                      "geometryCrop3" : {
                        "type" : "double",
                        "defaultValue" : 0.0,
                        "interp" : "eioe"
                      }
                    },
                    "effects" : [

                    ],
                    "start" : 0,
                    "duration" : 3117,
                    "mediaStart" : 0,
                    "mediaDuration" : 1,
                    "scalar" : 1,
                    "metadata" : {
                      "clipSpeedAttribute" : false,
                      "default-scale" : "1",
                      "effectApplied" : "none",
                      "lockAspectRatio" : true
                    },
                    "animationTracks" : {

                    }
                  }
                ],
                "transitions" : [
                  {
                    "name" : "Fade",
                    "duration" : 30,
                    "rightMedia" : 28,
                    "attributes" : {
                      "bypass" : false,
                      "reverse" : false,
                      "trivial" : false,
                      "useAudioPreRoll" : true,
                      "useVisualPreRoll" : true
                    }

                  },
                  {
                    "name" : "Fade",
                    "duration" : 30,
                    "leftMedia" : 28,
                    "attributes" : {
                      "bypass" : false,
                      "reverse" : false,
                      "trivial" : false,
                      "useAudioPreRoll" : true,
                      "useVisualPreRoll" : true
                    }

                  }
                ]
              },
              {
                "trackIndex" : 2,
                "medias" : [
                  {
                    "id" : 29,
                    "_type" : "UnifiedMedia",
                    "video" : 
                        {
                          "id" : 30,
                          "_type" : "VMFile",
                          "src" : 2,
                          "trackNumber" : 0,
                          "attributes" : {
                            "ident" : "02.5-TalkingHead"
                          },
                          "parameters" : {
                            "translation0" : {
                              "type" : "double",
                              "defaultValue" : 476.703900890687,
                              "interp" : "eioe"
                            },
                            "translation1" : {
                              "type" : "double",
                              "defaultValue" : -164.934122555464,
                              "interp" : "eioe"
                            },
                            "scale0" : {
                              "type" : "double",
                              "defaultValue" : 0.696480495546565,
                              "interp" : "eioe"
                            },
                            "scale1" : {
                              "type" : "double",
                              "defaultValue" : 0.696480495546565,
                              "interp" : "eioe"
                            },
                            "sourceCrop0" : {
                              "type" : "double",
                              "defaultValue" : 0.0,
                              "interp" : "eioe"
                            },
                            "sourceCrop1" : {
                              "type" : "double",
                              "defaultValue" : 0.0,
                              "interp" : "eioe"
                            },
                            "sourceCrop2" : {
                              "type" : "double",
                              "defaultValue" : 0.0,
                              "interp" : "eioe"
                            },
                            "sourceCrop3" : {
                              "type" : "double",
                              "defaultValue" : 0.0,
                              "interp" : "eioe"
                            },
                            "geometryCrop0" : {
                              "type" : "double",
                              "defaultValue" : 0.0,
                              "interp" : "eioe"
                            },
                            "geometryCrop1" : {
                              "type" : "double",
                              "defaultValue" : 0.0,
                              "interp" : "eioe"
                            },
                            "geometryCrop2" : {
                              "type" : "double",
                              "defaultValue" : 0.0,
                              "interp" : "eioe"
                            },
                            "geometryCrop3" : {
                              "type" : "double",
                              "defaultValue" : 0.0,
                              "interp" : "eioe"
                            }
                          },
                          "effects" : [

                          ],
                          "start" : 0,
                          "duration" : 3117,
                          "mediaStart" : 0,
                          "mediaDuration" : 3117,
                          "scalar" : 1,
                          "animationTracks" : {

                          }
                        },
                    "audio" : 
                        {
                          "id" : 31,
                          "_type" : "AMFile",
                          "src" : 2,
                          "trackNumber" : 1,
                          "attributes" : {
                            "ident" : "",
                            "gain" : 1.0,
                            "mixToMono" : false,
                            "loudnessNormalization" : true,
                            "sourceFileOffset" : 0
                          },
                            "channelNumber" : "0,1",
                          "effects" : [

                          ],
                          "start" : 0,
                          "duration" : 3117,
                          "mediaStart" : 0,
                          "mediaDuration" : 3117,
                          "scalar" : 1,
                          "animationTracks" : {

                          }
                        }
,
                    "start" : 0,
                    "duration" : 3117,
                    "mediaStart" : 0,
                    "mediaDuration" : 3117,
                    "scalar" : 1,
                    "metadata" : {
                      "clipSpeedAttribute" : false,
                      "default-scale" : "1",
                      "effectApplied" : "none",
                      "lockAspectRatio" : true
                    }
                  }
                ],
                "transitions" : [
                  {
                    "name" : "Fade",
                    "duration" : 30,
                    "rightMedia" : 29,
                    "attributes" : {
                      "bypass" : false,
                      "reverse" : false,
                      "trivial" : false,
                      "useAudioPreRoll" : true,
                      "useVisualPreRoll" : true
                    }

                  },
                  {
                    "name" : "Fade",
                    "duration" : 30,
                    "leftMedia" : 29,
                    "attributes" : {
                      "bypass" : false,
                      "reverse" : false,
                      "trivial" : false,
                      "useAudioPreRoll" : true,
                      "useVisualPreRoll" : true
                    }

                  }
                ]
              },
              {
                "trackIndex" : 3,
                "medias" : [
                  {
                    "id" : 32,
                    "_type" : "IMFile",
                    "src" : 3,
                    "trackNumber" : 0,
                    "trimStartSum" : 0,
                    "attributes" : {
                      "ident" : "Pasted Image"
                    },
                    "parameters" : {
                      "translation0" : {
                        "type" : "double",
                        "defaultValue" : -214.0,
                        "interp" : "eioe"
                      },
                      "translation1" : {
                        "type" : "double",
                        "defaultValue" : -69.0,
                        "interp" : "eioe"
                      },
                      "sourceCrop0" : {
                        "type" : "double",
                        "defaultValue" : 0.0,
                        "interp" : "eioe"
                      },
                      "sourceCrop1" : {
                        "type" : "double",
                        "defaultValue" : 0.0,
                        "interp" : "eioe"
                      },
                      "sourceCrop2" : {
                        "type" : "double",
                        "defaultValue" : 0.0,
                        "interp" : "eioe"
                      },
                      "sourceCrop3" : {
                        "type" : "double",
                        "defaultValue" : 0.0,
                        "interp" : "eioe"
                      },
                      "geometryCrop0" : {
                        "type" : "double",
                        "defaultValue" : 0.0,
                        "interp" : "eioe"
                      },
                      "geometryCrop1" : {
                        "type" : "double",
                        "defaultValue" : 0.0,
                        "interp" : "eioe"
                      },
                      "geometryCrop2" : {
                        "type" : "double",
                        "defaultValue" : 0.0,
                        "interp" : "eioe"
                      },
                      "geometryCrop3" : {
                        "type" : "double",
                        "defaultValue" : 0.0,
                        "interp" : "eioe"
                      }
                    },
                    "effects" : [

                    ],
                    "start" : 30,
                    "duration" : 164,
                    "mediaStart" : 0,
                    "mediaDuration" : 1,
                    "scalar" : 1,
                    "metadata" : {
                      "clipSpeedAttribute" : false,
                      "default-scale" : "1",
                      "effectApplied" : "none",
                      "lockAspectRatio" : true
                    },
                    "animationTracks" : {

                    }
                  },
                  {
                    "id" : 33,
                    "_type" : "IMFile",
                    "src" : 6,
                    "trackNumber" : 0,
                    "trimStartSum" : 0,
                    "attributes" : {
                      "ident" : "Pasted Image"
                    },
                    "parameters" : {
                      "translation0" : {
                        "type" : "double",
                        "defaultValue" : -174.0,
                        "interp" : "eioe"
                      },
                      "sourceCrop0" : {
                        "type" : "double",
                        "defaultValue" : 0.0,
                        "interp" : "eioe"
                      },
                      "sourceCrop1" : {
                        "type" : "double",
                        "defaultValue" : 0.0,
                        "interp" : "eioe"
                      },
                      "sourceCrop2" : {
                        "type" : "double",
                        "defaultValue" : 0.0,
                        "interp" : "eioe"
                      },
                      "sourceCrop3" : {
                        "type" : "double",
                        "defaultValue" : 0.0,
                        "interp" : "eioe"
                      },
                      "geometryCrop0" : {
                        "type" : "double",
                        "defaultValue" : 0.0,
                        "interp" : "eioe"
                      },
                      "geometryCrop1" : {
                        "type" : "double",
                        "defaultValue" : 0.0,
                        "interp" : "eioe"
                      },
                      "geometryCrop2" : {
                        "type" : "double",
                        "defaultValue" : 0.0,
                        "interp" : "eioe"
                      },
                      "geometryCrop3" : {
                        "type" : "double",
                        "defaultValue" : 0.0,
                        "interp" : "eioe"
                      }
                    },
                    "effects" : [

                    ],
                    "start" : 201,
                    "duration" : 101,
                    "mediaStart" : 0,
                    "mediaDuration" : 1,
                    "scalar" : 1,
                    "metadata" : {
                      "clipSpeedAttribute" : false,
                      "default-scale" : "1",
                      "effectApplied" : "none",
                      "lockAspectRatio" : true
                    },
                    "animationTracks" : {

                    }
                  },
                  {
                    "id" : 34,
                    "_type" : "IMFile",
                    "src" : 8,
                    "trackNumber" : 0,
                    "trimStartSum" : 0,
                    "attributes" : {
                      "ident" : "Pasted Image"
                    },
                    "parameters" : {
                      "translation0" : {
                        "type" : "double",
                        "defaultValue" : -174.0,
                        "interp" : "eioe"
                      },
                      "translation1" : {
                        "type" : "double",
                        "defaultValue" : -165.418846320614,
                        "interp" : "eioe"
                      },
                      "scale0" : {
                        "type" : "double",
                        "defaultValue" : 0.30403305262404,
                        "interp" : "eioe"
                      },
                      "scale1" : {
                        "type" : "double",
                        "defaultValue" : 0.30403305262404,
                        "interp" : "eioe"
                      },
                      "sourceCrop0" : {
                        "type" : "double",
                        "defaultValue" : 0.0,
                        "interp" : "eioe"
                      },
                      "sourceCrop1" : {
                        "type" : "double",
                        "defaultValue" : 0.0,
                        "interp" : "eioe"
                      },
                      "sourceCrop2" : {
                        "type" : "double",
                        "defaultValue" : 0.0,
                        "interp" : "eioe"
                      },
                      "sourceCrop3" : {
                        "type" : "double",
                        "defaultValue" : 0.0,
                        "interp" : "eioe"
                      },
                      "geometryCrop0" : {
                        "type" : "double",
                        "defaultValue" : 0.0,
                        "interp" : "eioe"
                      },
                      "geometryCrop1" : {
                        "type" : "double",
                        "defaultValue" : 0.0,
                        "interp" : "eioe"
                      },
                      "geometryCrop2" : {
                        "type" : "double",
                        "defaultValue" : 0.0,
                        "interp" : "eioe"
                      },
                      "geometryCrop3" : {
                        "type" : "double",
                        "defaultValue" : 0.0,
                        "interp" : "eioe"
                      }
                    },
                    "effects" : [

                    ],
                    "start" : 394,
                    "duration" : 268,
                    "mediaStart" : 0,
                    "mediaDuration" : 1,
                    "scalar" : 1,
                    "metadata" : {
                      "clipSpeedAttribute" : false,
                      "default-scale" : "0.5625",
                      "effectApplied" : "none",
                      "lockAspectRatio" : true
                    },
                    "animationTracks" : {

                    }
                  },
                  {
                    "id" : 35,
                    "_type" : "IMFile",
                    "src" : 12,
                    "trackNumber" : 0,
                    "trimStartSum" : 0,
                    "attributes" : {
                      "ident" : "Two ways to Generate SQL for ingestion:\r\n"
                    },
                    "parameters" : {
                      "translation0" : {
                        "type" : "double",
                        "defaultValue" : -154.0,
                        "interp" : "eioe"
                      },
                      "translation1" : {
                        "type" : "double",
                        "defaultValue" : 58.0,
                        "interp" : "eioe"
                      },
                      "sourceCrop0" : {
                        "type" : "double",
                        "defaultValue" : 0.0,
                        "interp" : "eioe"
                      },
                      "sourceCrop1" : {
                        "type" : "double",
                        "defaultValue" : 0.0,
                        "interp" : "eioe"
                      },
                      "sourceCrop2" : {
                        "type" : "double",
                        "defaultValue" : 0.0,
                        "interp" : "eioe"
                      },
                      "sourceCrop3" : {
                        "type" : "double",
                        "defaultValue" : 0.0,
                        "interp" : "eioe"
                      },
                      "geometryCrop0" : {
                        "type" : "double",
                        "defaultValue" : 0.0,
                        "interp" : "eioe"
                      },
                      "geometryCrop1" : {
                        "type" : "double",
                        "defaultValue" : 0.0,
                        "interp" : "eioe"
                      },
                      "geometryCrop2" : {
                        "type" : "double",
                        "defaultValue" : 0.0,
                        "interp" : "eioe"
                      },
                      "geometryCrop3" : {
                        "type" : "double",
                        "defaultValue" : 0.0,
                        "interp" : "eioe"
                      }
                    },
                    "effects" : [

                    ],
                    "start" : 664,
                    "duration" : 120,
                    "mediaStart" : 0,
                    "mediaDuration" : 1,
                    "scalar" : 1,
                    "metadata" : {
                      "clipSpeedAttribute" : false,
                      "default-scale" : "1",
                      "effectApplied" : "none",
                      "lockAspectRatio" : true
                    },
                    "animationTracks" : {

                    }
                  },
                  {
                    "id" : 36,
                    "_type" : "IMFile",
                    "src" : 14,
                    "trackNumber" : 0,
                    "trimStartSum" : 0,
                    "attributes" : {
                      "ident" : "Pasted Image"
                    },
                    "parameters" : {
                      "translation0" : {
                        "type" : "double",
                        "defaultValue" : -195.0,
                        "interp" : "eioe"
                      },
                      "translation1" : {
                        "type" : "double",
                        "defaultValue" : -58.3471108866975,
                        "interp" : "eioe"
                      },
                      "scale0" : {
                        "type" : "double",
                        "defaultValue" : 0.960544855135917,
                        "interp" : "eioe"
                      },
                      "scale1" : {
                        "type" : "double",
                        "defaultValue" : 0.960544855135917,
                        "interp" : "eioe"
                      },
                      "sourceCrop0" : {
                        "type" : "double",
                        "defaultValue" : 0.0,
                        "interp" : "eioe"
                      },
                      "sourceCrop1" : {
                        "type" : "double",
                        "defaultValue" : 0.0,
                        "interp" : "eioe"
                      },
                      "sourceCrop2" : {
                        "type" : "double",
                        "defaultValue" : 0.0,
                        "interp" : "eioe"
                      },
                      "sourceCrop3" : {
                        "type" : "double",
                        "defaultValue" : 0.0,
                        "interp" : "eioe"
                      },
                      "geometryCrop0" : {
                        "type" : "double",
                        "defaultValue" : 0.0,
                        "interp" : "eioe"
                      },
                      "geometryCrop1" : {
                        "type" : "double",
                        "defaultValue" : 0.0,
                        "interp" : "eioe"
                      },
                      "geometryCrop2" : {
                        "type" : "double",
                        "defaultValue" : 0.0,
                        "interp" : "eioe"
                      },
                      "geometryCrop3" : {
                        "type" : "double",
                        "defaultValue" : 0.0,
                        "interp" : "eioe"
                      }
                    },
                    "effects" : [

                    ],
                    "start" : 910,
                    "duration" : 96,
                    "mediaStart" : 0,
                    "mediaDuration" : 1,
                    "scalar" : 1,
                    "metadata" : {
                      "clipSpeedAttribute" : false,
                      "default-scale" : "1",
                      "effectApplied" : "none",
                      "lockAspectRatio" : true
                    },
                    "animationTracks" : {

                    }
                  },
                  {
                    "id" : 37,
                    "_type" : "IMFile",
                    "src" : 16,
                    "trackNumber" : 0,
                    "trimStartSum" : 0,
                    "attributes" : {
                      "ident" : "Pasted Image"
                    },
                    "parameters" : {
                      "translation0" : {
                        "type" : "double",
                        "defaultValue" : -195.0,
                        "interp" : "eioe"
                      },
                      "translation1" : {
                        "type" : "double",
                        "defaultValue" : -69.0,
                        "interp" : "eioe"
                      },
                      "sourceCrop0" : {
                        "type" : "double",
                        "defaultValue" : 0.0,
                        "interp" : "eioe"
                      },
                      "sourceCrop1" : {
                        "type" : "double",
                        "defaultValue" : 0.0,
                        "interp" : "eioe"
                      },
                      "sourceCrop2" : {
                        "type" : "double",
                        "defaultValue" : 0.0,
                        "interp" : "eioe"
                      },
                      "sourceCrop3" : {
                        "type" : "double",
                        "defaultValue" : 0.0,
                        "interp" : "eioe"
                      },
                      "geometryCrop0" : {
                        "type" : "double",
                        "defaultValue" : 0.0,
                        "interp" : "eioe"
                      },
                      "geometryCrop1" : {
                        "type" : "double",
                        "defaultValue" : 0.0,
                        "interp" : "eioe"
                      },
                      "geometryCrop2" : {
                        "type" : "double",
                        "defaultValue" : 0.0,
                        "interp" : "eioe"
                      },
                      "geometryCrop3" : {
                        "type" : "double",
                        "defaultValue" : 0.0,
                        "interp" : "eioe"
                      }
                    },
                    "effects" : [

                    ],
                    "start" : 1095,
                    "duration" : 451,
                    "mediaStart" : 0,
                    "mediaDuration" : 1,
                    "scalar" : 1,
                    "metadata" : {
                      "clipSpeedAttribute" : false,
                      "default-scale" : "1",
                      "effectApplied" : "none",
                      "lockAspectRatio" : true
                    },
                    "animationTracks" : {

                    }
                  },
                  {
                    "id" : 38,
                    "_type" : "IMFile",
                    "src" : 17,
                    "trackNumber" : 0,
                    "trimStartSum" : 0,
                    "attributes" : {
                      "ident" : "Pasted Image"
                    },
                    "parameters" : {
                      "translation0" : {
                        "type" : "double",
                        "defaultValue" : -182.0,
                        "interp" : "eioe"
                      },
                      "translation1" : {
                        "type" : "double",
                        "defaultValue" : -69.0,
                        "interp" : "eioe"
                      },
                      "sourceCrop0" : {
                        "type" : "double",
                        "defaultValue" : 0.0,
                        "interp" : "eioe"
                      },
                      "sourceCrop1" : {
                        "type" : "double",
                        "defaultValue" : 0.0,
                        "interp" : "eioe"
                      },
                      "sourceCrop2" : {
                        "type" : "double",
                        "defaultValue" : 0.0,
                        "interp" : "eioe"
                      },
                      "sourceCrop3" : {
                        "type" : "double",
                        "defaultValue" : 0.0,
                        "interp" : "eioe"
                      },
                      "geometryCrop0" : {
                        "type" : "double",
                        "defaultValue" : 0.0,
                        "interp" : "eioe"
                      },
                      "geometryCrop1" : {
                        "type" : "double",
                        "defaultValue" : 0.0,
                        "interp" : "eioe"
                      },
                      "geometryCrop2" : {
                        "type" : "double",
                        "defaultValue" : 0.0,
                        "interp" : "eioe"
                      },
                      "geometryCrop3" : {
                        "type" : "double",
                        "defaultValue" : 0.0,
                        "interp" : "eioe"
                      }
                    },
                    "effects" : [

                    ],
                    "start" : 1548,
                    "duration" : 115,
                    "mediaStart" : 0,
                    "mediaDuration" : 1,
                    "scalar" : 1,
                    "metadata" : {
                      "clipSpeedAttribute" : false,
                      "default-scale" : "1",
                      "effectApplied" : "none",
                      "lockAspectRatio" : true
                    },
                    "animationTracks" : {

                    }
                  },
                  {
                    "id" : 39,
                    "_type" : "IMFile",
                    "src" : 13,
                    "trackNumber" : 0,
                    "trimStartSum" : 0,
                    "attributes" : {
                      "ident" : "Two ways to Generate SQL for ingestion:\r\nConnection Wizard\r\n"
                    },
                    "parameters" : {
                      "translation0" : {
                        "type" : "double",
                        "defaultValue" : -155.0,
                        "interp" : "eioe"
                      },
                      "translation1" : {
                        "type" : "double",
                        "defaultValue" : 34.0,
                        "interp" : "eioe"
                      },
                      "sourceCrop0" : {
                        "type" : "double",
                        "defaultValue" : 0.0,
                        "interp" : "eioe"
                      },
                      "sourceCrop1" : {
                        "type" : "double",
                        "defaultValue" : 0.0,
                        "interp" : "eioe"
                      },
                      "sourceCrop2" : {
                        "type" : "double",
                        "defaultValue" : 0.0,
                        "interp" : "eioe"
                      },
                      "sourceCrop3" : {
                        "type" : "double",
                        "defaultValue" : 0.0,
                        "interp" : "eioe"
                      },
                      "geometryCrop0" : {
                        "type" : "double",
                        "defaultValue" : 0.0,
                        "interp" : "eioe"
                      },
                      "geometryCrop1" : {
                        "type" : "double",
                        "defaultValue" : 0.0,
                        "interp" : "eioe"
                      },
                      "geometryCrop2" : {
                        "type" : "double",
                        "defaultValue" : 0.0,
                        "interp" : "eioe"
                      },
                      "geometryCrop3" : {
                        "type" : "double",
                        "defaultValue" : 0.0,
                        "interp" : "eioe"
                      }
                    },
                    "effects" : [

                    ],
                    "start" : 1665,
                    "duration" : 74,
                    "mediaStart" : 0,
                    "mediaDuration" : 1,
                    "scalar" : 1,
                    "metadata" : {
                      "clipSpeedAttribute" : false,
                      "default-scale" : "1",
                      "effectApplied" : "none",
                      "lockAspectRatio" : true
                    },
                    "animationTracks" : {

                    }
                  },
                  {
                    "id" : 40,
                    "_type" : "IMFile",
                    "src" : 22,
                    "trackNumber" : 0,
                    "trimStartSum" : 0,
                    "attributes" : {
                      "ident" : "Pasted Image"
                    },
                    "parameters" : {
                      "translation0" : {
                        "type" : "double",
                        "defaultValue" : -214.459571323296,
                        "interp" : "eioe"
                      },
                      "translation1" : {
                        "type" : "double",
                        "defaultValue" : -666.0,
                        "interp" : "eioe",
                        "keyframes" : [
                          {
                            "endTime" : 230,
                            "time" : 33,
                            "value" : 605.0,
                            "duration" : 197
                          }
                        ]
                      },
                      "scale0" : {
                        "type" : "double",
                        "defaultValue" : 1.13416437610112,
                        "interp" : "eioe"
                      },
                      "scale1" : {
                        "type" : "double",
                        "defaultValue" : 1.13416437610112,
                        "interp" : "eioe"
                      },
                      "sourceCrop0" : {
                        "type" : "double",
                        "defaultValue" : 0.0,
                        "interp" : "eioe"
                      },
                      "sourceCrop1" : {
                        "type" : "double",
                        "defaultValue" : 0.0,
                        "interp" : "eioe"
                      },
                      "sourceCrop2" : {
                        "type" : "double",
                        "defaultValue" : 0.0,
                        "interp" : "eioe"
                      },
                      "sourceCrop3" : {
                        "type" : "double",
                        "defaultValue" : 0.0,
                        "interp" : "eioe"
                      },
                      "geometryCrop0" : {
                        "type" : "double",
                        "defaultValue" : 0.0,
                        "interp" : "eioe"
                      },
                      "geometryCrop1" : {
                        "type" : "double",
                        "defaultValue" : 0.0,
                        "interp" : "eioe"
                      },
                      "geometryCrop2" : {
                        "type" : "double",
                        "defaultValue" : 0.0,
                        "interp" : "eioe"
                      },
                      "geometryCrop3" : {
                        "type" : "double",
                        "defaultValue" : 0.0,
                        "interp" : "eioe"
                      }
                    },
                    "effects" : [

                    ],
                    "start" : 1882,
                    "duration" : 260,
                    "mediaStart" : 0,
                    "mediaDuration" : 1,
                    "scalar" : 1,
                    "metadata" : {
                      "clipSpeedAttribute" : false,
                      "default-scale" : "0.482251",
                      "effectApplied" : "none",
                      "lockAspectRatio" : true
                    },
                    "animationTracks" : {
                      "visual" : [
                        {
                          "endTime" : 230,
                          "duration" : 197,
                          "range" : [ 33, 197]
                        }
                      ]
                    }
                  },
                  {
                    "id" : 41,
                    "_type" : "IMFile",
                    "src" : 23,
                    "trackNumber" : 0,
                    "trimStartSum" : 0,
                    "attributes" : {
                      "ident" : "Pasted Image"
                    },
                    "parameters" : {
                      "translation0" : {
                        "type" : "double",
                        "defaultValue" : -171.404665232517,
                        "interp" : "eioe"
                      },
                      "translation1" : {
                        "type" : "double",
                        "defaultValue" : -165.692758711539,
                        "interp" : "eioe"
                      },
                      "scale0" : {
                        "type" : "double",
                        "defaultValue" : 0.513353342078449,
                        "interp" : "eioe"
                      },
                      "scale1" : {
                        "type" : "double",
                        "defaultValue" : 0.513353342078449,
                        "interp" : "eioe"
                      },
                      "sourceCrop0" : {
                        "type" : "double",
                        "defaultValue" : 0.0,
                        "interp" : "eioe"
                      },
                      "sourceCrop1" : {
                        "type" : "double",
                        "defaultValue" : 0.0,
                        "interp" : "eioe"
                      },
                      "sourceCrop2" : {
                        "type" : "double",
                        "defaultValue" : 0.0,
                        "interp" : "eioe"
                      },
                      "sourceCrop3" : {
                        "type" : "double",
                        "defaultValue" : 0.0,
                        "interp" : "eioe"
                      },
                      "geometryCrop0" : {
                        "type" : "double",
                        "defaultValue" : 0.0,
                        "interp" : "eioe"
                      },
                      "geometryCrop1" : {
                        "type" : "double",
                        "defaultValue" : 0.0,
                        "interp" : "eioe"
                      },
                      "geometryCrop2" : {
                        "type" : "double",
                        "defaultValue" : 0.0,
                        "interp" : "eioe"
                      },
                      "geometryCrop3" : {
                        "type" : "double",
                        "defaultValue" : 0.0,
                        "interp" : "eioe"
                      }
                    },
                    "effects" : [

                    ],
                    "start" : 2156,
                    "duration" : 237,
                    "mediaStart" : 0,
                    "mediaDuration" : 1,
                    "scalar" : 1,
                    "metadata" : {
                      "clipSpeedAttribute" : false,
                      "default-scale" : "0.681173",
                      "effectApplied" : "none",
                      "lockAspectRatio" : true
                    },
                    "animationTracks" : {

                    }
                  },
                  {
                    "id" : 42,
                    "_type" : "IMFile",
                    "src" : 22,
                    "trackNumber" : 0,
                    "trimStartSum" : 0,
                    "attributes" : {
                      "ident" : "Pasted Image"
                    },
                    "parameters" : {
                      "translation0" : {
                        "type" : "double",
                        "defaultValue" : -214.459571323296,
                        "interp" : "eioe"
                      },
                      "translation1" : {
                        "type" : "double",
                        "defaultValue" : -666.0,
                        "interp" : "eioe",
                        "keyframes" : [
                          {
                            "endTime" : 230,
                            "time" : 33,
                            "value" : 605.0,
                            "duration" : 197
                          }
                        ]
                      },
                      "scale0" : {
                        "type" : "double",
                        "defaultValue" : 1.13416437610112,
                        "interp" : "eioe"
                      },
                      "scale1" : {
                        "type" : "double",
                        "defaultValue" : 1.13416437610112,
                        "interp" : "eioe"
                      },
                      "sourceCrop0" : {
                        "type" : "double",
                        "defaultValue" : 0.0,
                        "interp" : "eioe"
                      },
                      "sourceCrop1" : {
                        "type" : "double",
                        "defaultValue" : 0.0,
                        "interp" : "eioe"
                      },
                      "sourceCrop2" : {
                        "type" : "double",
                        "defaultValue" : 0.0,
                        "interp" : "eioe"
                      },
                      "sourceCrop3" : {
                        "type" : "double",
                        "defaultValue" : 0.0,
                        "interp" : "eioe"
                      },
                      "geometryCrop0" : {
                        "type" : "double",
                        "defaultValue" : 0.0,
                        "interp" : "eioe"
                      },
                      "geometryCrop1" : {
                        "type" : "double",
                        "defaultValue" : 0.0,
                        "interp" : "eioe"
                      },
                      "geometryCrop2" : {
                        "type" : "double",
                        "defaultValue" : 0.0,
                        "interp" : "eioe"
                      },
                      "geometryCrop3" : {
                        "type" : "double",
                        "defaultValue" : 0.0,
                        "interp" : "eioe"
                      }
                    },
                    "effects" : [

                    ],
                    "start" : 2399,
                    "duration" : 230,
                    "mediaStart" : 0,
                    "mediaDuration" : 1,
                    "scalar" : 1,
                    "metadata" : {
                      "clipSpeedAttribute" : false,
                      "default-scale" : "0.482251",
                      "effectApplied" : "none",
                      "lockAspectRatio" : true
                    },
                    "animationTracks" : {
                      "visual" : [
                        {
                          "endTime" : 230,
                          "duration" : 197,
                          "range" : [ 33, 197]
                        }
                      ]
                    }
                  }
                ],
                "transitions" : [
                  {
                    "name" : "Fade",
                    "duration" : 30,
                    "rightMedia" : 32,
                    "attributes" : {
                      "bypass" : false,
                      "reverse" : false,
                      "trivial" : false,
                      "useAudioPreRoll" : true,
                      "useVisualPreRoll" : true
                    }

                  },
                  {
                    "name" : "Fade",
                    "duration" : 30,
                    "leftMedia" : 32,
                    "attributes" : {
                      "bypass" : false,
                      "reverse" : false,
                      "trivial" : false,
                      "useAudioPreRoll" : true,
                      "useVisualPreRoll" : true
                    }

                  },
                  {
                    "name" : "Fade",
                    "duration" : 30,
                    "rightMedia" : 33,
                    "attributes" : {
                      "bypass" : false,
                      "reverse" : false,
                      "trivial" : false,
                      "useAudioPreRoll" : true,
                      "useVisualPreRoll" : true
                    }

                  },
                  {
                    "name" : "Fade",
                    "duration" : 30,
                    "leftMedia" : 33,
                    "attributes" : {
                      "bypass" : false,
                      "reverse" : false,
                      "trivial" : false,
                      "useAudioPreRoll" : true,
                      "useVisualPreRoll" : true
                    }

                  },
                  {
                    "name" : "Fade",
                    "duration" : 30,
                    "rightMedia" : 34,
                    "attributes" : {
                      "bypass" : false,
                      "reverse" : false,
                      "trivial" : false,
                      "useAudioPreRoll" : true,
                      "useVisualPreRoll" : true
                    }

                  },
                  {
                    "name" : "Fade",
                    "duration" : 30,
                    "leftMedia" : 34,
                    "attributes" : {
                      "bypass" : false,
                      "reverse" : false,
                      "trivial" : false,
                      "useAudioPreRoll" : true,
                      "useVisualPreRoll" : true
                    }

                  },
                  {
                    "name" : "Fade",
                    "duration" : 30,
                    "rightMedia" : 35,
                    "attributes" : {
                      "bypass" : false,
                      "reverse" : false,
                      "trivial" : false,
                      "useAudioPreRoll" : true,
                      "useVisualPreRoll" : true
                    }

                  },
                  {
                    "name" : "Fade",
                    "duration" : 30,
                    "rightMedia" : 36,
                    "attributes" : {
                      "bypass" : false,
                      "reverse" : false,
                      "trivial" : false,
                      "useAudioPreRoll" : true,
                      "useVisualPreRoll" : true
                    }

                  },
                  {
                    "name" : "Fade",
                    "duration" : 30,
                    "rightMedia" : 37,
                    "attributes" : {
                      "bypass" : false,
                      "reverse" : false,
                      "trivial" : false,
                      "useAudioPreRoll" : true,
                      "useVisualPreRoll" : true
                    }

                  },
                  {
                    "name" : "Fade",
                    "duration" : 30,
                    "leftMedia" : 37,
                    "attributes" : {
                      "bypass" : false,
                      "reverse" : false,
                      "trivial" : false,
                      "useAudioPreRoll" : true,
                      "useVisualPreRoll" : true
                    }

                  },
                  {
                    "name" : "Fade",
                    "duration" : 30,
                    "rightMedia" : 38,
                    "attributes" : {
                      "bypass" : false,
                      "reverse" : false,
                      "trivial" : false,
                      "useAudioPreRoll" : true,
                      "useVisualPreRoll" : true
                    }

                  },
                  {
                    "name" : "Fade",
                    "duration" : 30,
                    "leftMedia" : 38,
                    "attributes" : {
                      "bypass" : false,
                      "reverse" : false,
                      "trivial" : false,
                      "useAudioPreRoll" : true,
                      "useVisualPreRoll" : true
                    }

                  },
                  {
                    "name" : "Fade",
                    "duration" : 30,
                    "rightMedia" : 39,
                    "attributes" : {
                      "bypass" : false,
                      "reverse" : false,
                      "trivial" : false,
                      "useAudioPreRoll" : true,
                      "useVisualPreRoll" : true
                    }

                  },
                  {
                    "name" : "Fade",
                    "duration" : 30,
                    "rightMedia" : 40,
                    "attributes" : {
                      "bypass" : false,
                      "reverse" : false,
                      "trivial" : false,
                      "useAudioPreRoll" : true,
                      "useVisualPreRoll" : true
                    }

                  },
                  {
                    "name" : "Fade",
                    "duration" : 30,
                    "leftMedia" : 40,
                    "attributes" : {
                      "bypass" : false,
                      "reverse" : false,
                      "trivial" : false,
                      "useAudioPreRoll" : true,
                      "useVisualPreRoll" : true
                    }

                  },
                  {
                    "name" : "Fade",
                    "duration" : 30,
                    "rightMedia" : 41,
                    "attributes" : {
                      "bypass" : false,
                      "reverse" : false,
                      "trivial" : false,
                      "useAudioPreRoll" : true,
                      "useVisualPreRoll" : true
                    }

                  },
                  {
                    "name" : "Fade",
                    "duration" : 30,
                    "leftMedia" : 41,
                    "attributes" : {
                      "bypass" : false,
                      "reverse" : false,
                      "trivial" : false,
                      "useAudioPreRoll" : true,
                      "useVisualPreRoll" : true
                    }

                  },
                  {
                    "name" : "Fade",
                    "duration" : 30,
                    "rightMedia" : 42,
                    "attributes" : {
                      "bypass" : false,
                      "reverse" : false,
                      "trivial" : false,
                      "useAudioPreRoll" : true,
                      "useVisualPreRoll" : true
                    }

                  }
                ]
              },
              {
                "trackIndex" : 4,
                "medias" : [
                  {
                    "id" : 43,
                    "_type" : "IMFile",
                    "src" : 4,
                    "trackNumber" : 0,
                    "trimStartSum" : 0,
                    "attributes" : {
                      "ident" : "Pasted Image"
                    },
                    "parameters" : {
                      "translation0" : {
                        "type" : "double",
                        "defaultValue" : -213.768471282422,
                        "interp" : "eioe"
                      },
                      "translation1" : {
                        "type" : "double",
                        "defaultValue" : -14.8446952455284,
                        "interp" : "eioe"
                      },
                      "scale0" : {
                        "type" : "double",
                        "defaultValue" : 0.361081118838146,
                        "interp" : "eioe"
                      },
                      "scale1" : {
                        "type" : "double",
                        "defaultValue" : 0.361081118838146,
                        "interp" : "eioe"
                      },
                      "sourceCrop0" : {
                        "type" : "double",
                        "defaultValue" : 0.0,
                        "interp" : "eioe"
                      },
                      "sourceCrop1" : {
                        "type" : "double",
                        "defaultValue" : 0.0,
                        "interp" : "eioe"
                      },
                      "sourceCrop2" : {
                        "type" : "double",
                        "defaultValue" : 0.0,
                        "interp" : "eioe"
                      },
                      "sourceCrop3" : {
                        "type" : "double",
                        "defaultValue" : 0.0,
                        "interp" : "eioe"
                      },
                      "geometryCrop0" : {
                        "type" : "double",
                        "defaultValue" : 0.0,
                        "interp" : "eioe"
                      },
                      "geometryCrop1" : {
                        "type" : "double",
                        "defaultValue" : 0.0,
                        "interp" : "eioe"
                      },
                      "geometryCrop2" : {
                        "type" : "double",
                        "defaultValue" : 0.0,
                        "interp" : "eioe"
                      },
                      "geometryCrop3" : {
                        "type" : "double",
                        "defaultValue" : 0.0,
                        "interp" : "eioe"
                      }
                    },
                    "effects" : [

                    ],
                    "start" : 30,
                    "duration" : 85,
                    "mediaStart" : 0,
                    "mediaDuration" : 1,
                    "scalar" : 1,
                    "metadata" : {
                      "clipSpeedAttribute" : false,
                      "default-scale" : "0.677966",
                      "effectApplied" : "none",
                      "lockAspectRatio" : true
                    },
                    "animationTracks" : {

                    }
                  },
                  {
                    "id" : 44,
                    "_type" : "IMFile",
                    "src" : 7,
                    "trackNumber" : 0,
                    "trimStartSum" : -19,
                    "attributes" : {
                      "ident" : "Pasted Image"
                    },
                    "parameters" : {
                      "translation0" : {
                        "type" : "double",
                        "defaultValue" : -171.0,
                        "interp" : "eioe"
                      },
                      "translation1" : {
                        "type" : "double",
                        "defaultValue" : 16.0,
                        "interp" : "eioe"
                      },
                      "sourceCrop0" : {
                        "type" : "double",
                        "defaultValue" : 0.0,
                        "interp" : "eioe"
                      },
                      "sourceCrop1" : {
                        "type" : "double",
                        "defaultValue" : 0.0,
                        "interp" : "eioe"
                      },
                      "sourceCrop2" : {
                        "type" : "double",
                        "defaultValue" : 0.0,
                        "interp" : "eioe"
                      },
                      "sourceCrop3" : {
                        "type" : "double",
                        "defaultValue" : 0.0,
                        "interp" : "eioe"
                      },
                      "geometryCrop0" : {
                        "type" : "double",
                        "defaultValue" : 0.0,
                        "interp" : "eioe"
                      },
                      "geometryCrop1" : {
                        "type" : "double",
                        "defaultValue" : 0.0,
                        "interp" : "eioe"
                      },
                      "geometryCrop2" : {
                        "type" : "double",
                        "defaultValue" : 0.0,
                        "interp" : "eioe"
                      },
                      "geometryCrop3" : {
                        "type" : "double",
                        "defaultValue" : 0.0,
                        "interp" : "eioe"
                      }
                    },
                    "effects" : [

                    ],
                    "start" : 272,
                    "duration" : 121,
                    "mediaStart" : 0,
                    "mediaDuration" : 1,
                    "scalar" : 1,
                    "metadata" : {
                      "clipSpeedAttribute" : false,
                      "default-scale" : "1",
                      "effectApplied" : "none",
                      "lockAspectRatio" : true
                    },
                    "animationTracks" : {

                    }
                  },
                  {
                    "id" : 45,
                    "_type" : "IMFile",
                    "src" : 9,
                    "trackNumber" : 0,
                    "trimStartSum" : 30,
                    "attributes" : {
                      "ident" : "Pasted Image"
                    },
                    "parameters" : {
                      "translation0" : {
                        "type" : "double",
                        "defaultValue" : -401.0,
                        "interp" : "eioe"
                      },
                      "translation1" : {
                        "type" : "double",
                        "defaultValue" : 94.0,
                        "interp" : "eioe"
                      },
                      "scale0" : {
                        "type" : "double",
                        "defaultValue" : 2.0,
                        "interp" : "eioe"
                      },
                      "scale1" : {
                        "type" : "double",
                        "defaultValue" : 2.0,
                        "interp" : "eioe"
                      },
                      "sourceCrop0" : {
                        "type" : "double",
                        "defaultValue" : 0.0,
                        "interp" : "eioe"
                      },
                      "sourceCrop1" : {
                        "type" : "double",
                        "defaultValue" : 0.0,
                        "interp" : "eioe"
                      },
                      "sourceCrop2" : {
                        "type" : "double",
                        "defaultValue" : 0.0,
                        "interp" : "eioe"
                      },
                      "sourceCrop3" : {
                        "type" : "double",
                        "defaultValue" : 0.0,
                        "interp" : "eioe"
                      },
                      "geometryCrop0" : {
                        "type" : "double",
                        "defaultValue" : 0.0,
                        "interp" : "eioe"
                      },
                      "geometryCrop1" : {
                        "type" : "double",
                        "defaultValue" : 0.0,
                        "interp" : "eioe"
                      },
                      "geometryCrop2" : {
                        "type" : "double",
                        "defaultValue" : 0.0,
                        "interp" : "eioe"
                      },
                      "geometryCrop3" : {
                        "type" : "double",
                        "defaultValue" : 0.0,
                        "interp" : "eioe"
                      }
                    },
                    "effects" : [

                    ],
                    "start" : 424,
                    "duration" : 238,
                    "mediaStart" : 0,
                    "mediaDuration" : 1,
                    "scalar" : 1,
                    "metadata" : {
                      "clipSpeedAttribute" : false,
                      "default-scale" : "1",
                      "effectApplied" : "none",
                      "lockAspectRatio" : true
                    },
                    "animationTracks" : {

                    }
                  },
                  {
                    "id" : 46,
                    "_type" : "IMFile",
                    "src" : 13,
                    "trackNumber" : 0,
                    "trimStartSum" : 0,
                    "attributes" : {
                      "ident" : "Two ways to Generate SQL for ingestion:\r\nConnection Wizard\r\n"
                    },
                    "parameters" : {
                      "translation0" : {
                        "type" : "double",
                        "defaultValue" : -155.0,
                        "interp" : "eioe"
                      },
                      "translation1" : {
                        "type" : "double",
                        "defaultValue" : 34.0,
                        "interp" : "eioe"
                      },
                      "sourceCrop0" : {
                        "type" : "double",
                        "defaultValue" : 0.0,
                        "interp" : "eioe"
                      },
                      "sourceCrop1" : {
                        "type" : "double",
                        "defaultValue" : 0.0,
                        "interp" : "eioe"
                      },
                      "sourceCrop2" : {
                        "type" : "double",
                        "defaultValue" : 0.0,
                        "interp" : "eioe"
                      },
                      "sourceCrop3" : {
                        "type" : "double",
                        "defaultValue" : 0.0,
                        "interp" : "eioe"
                      },
                      "geometryCrop0" : {
                        "type" : "double",
                        "defaultValue" : 0.0,
                        "interp" : "eioe"
                      },
                      "geometryCrop1" : {
                        "type" : "double",
                        "defaultValue" : 0.0,
                        "interp" : "eioe"
                      },
                      "geometryCrop2" : {
                        "type" : "double",
                        "defaultValue" : 0.0,
                        "interp" : "eioe"
                      },
                      "geometryCrop3" : {
                        "type" : "double",
                        "defaultValue" : 0.0,
                        "interp" : "eioe"
                      }
                    },
                    "effects" : [

                    ],
                    "start" : 754,
                    "duration" : 150,
                    "mediaStart" : 0,
                    "mediaDuration" : 1,
                    "scalar" : 1,
                    "metadata" : {
                      "clipSpeedAttribute" : false,
                      "default-scale" : "1",
                      "effectApplied" : "none",
                      "lockAspectRatio" : true
                    },
                    "animationTracks" : {

                    }
                  },
                  {
                    "id" : 47,
                    "_type" : "IMFile",
                    "src" : 15,
                    "trackNumber" : 0,
                    "trimStartSum" : 0,
                    "attributes" : {
                      "ident" : "Pasted Image"
                    },
                    "parameters" : {
                      "translation0" : {
                        "type" : "double",
                        "defaultValue" : -191.0,
                        "interp" : "eioe"
                      },
                      "translation1" : {
                        "type" : "double",
                        "defaultValue" : -69.0,
                        "interp" : "eioe"
                      },
                      "sourceCrop0" : {
                        "type" : "double",
                        "defaultValue" : 0.0,
                        "interp" : "eioe"
                      },
                      "sourceCrop1" : {
                        "type" : "double",
                        "defaultValue" : 0.0,
                        "interp" : "eioe"
                      },
                      "sourceCrop2" : {
                        "type" : "double",
                        "defaultValue" : 0.0,
                        "interp" : "eioe"
                      },
                      "sourceCrop3" : {
                        "type" : "double",
                        "defaultValue" : 0.0,
                        "interp" : "eioe"
                      },
                      "geometryCrop0" : {
                        "type" : "double",
                        "defaultValue" : 0.0,
                        "interp" : "eioe"
                      },
                      "geometryCrop1" : {
                        "type" : "double",
                        "defaultValue" : 0.0,
                        "interp" : "eioe"
                      },
                      "geometryCrop2" : {
                        "type" : "double",
                        "defaultValue" : 0.0,
                        "interp" : "eioe"
                      },
                      "geometryCrop3" : {
                        "type" : "double",
                        "defaultValue" : 0.0,
                        "interp" : "eioe"
                      }
                    },
                    "effects" : [

                    ],
                    "start" : 976,
                    "duration" : 114,
                    "mediaStart" : 0,
                    "mediaDuration" : 1,
                    "scalar" : 1,
                    "metadata" : {
                      "clipSpeedAttribute" : false,
                      "default-scale" : "1",
                      "effectApplied" : "none",
                      "lockAspectRatio" : true
                    },
                    "animationTracks" : {

                    }
                  },
                  {
                    "id" : 48,
                    "_type" : "Callout",
                    "def" : {
                      "kind" : "TypeWinSVG",
                      "shape" : "",
                      "style" : "",
                      "DrawTime" : 1.0,
                      "borderColorBlue" : 0.0,
                      "borderColorGreen" : 1.0,
                      "borderColorRed" : 1.0,
                      "borderWidth" : 3.0,
                      "height" : 298.899,
                      "width" : 396.015,
                      "xmlContent" : "<?xml version=\"1.0\" encoding=\"utf-8\"?>\r\n<!-- Generator: Adobe Illustrator 16.0.1, SVG Export Plug-In . SVG Version: 6.00 Build 0)  -->\r\n<!DOCTYPE svg PUBLIC \"-//W3C//DTD SVG 1.1//EN\" \"http://www.w3.org/Graphics/SVG/1.1/DTD/svg11.dtd\">\r\n<svg version=\"1.1\" id=\"Layer_1\" xmlns=\"http://www.w3.org/2000/svg\" xmlns:xlink=\"http://www.w3.org/1999/xlink\" x=\"0px\" y=\"0px\"\r\n\t width=\"420px\" height=\"420px\" viewBox=\"0 0 420 420\" enable-background=\"new 0 0 420 420\" xml:space=\"preserve\">\r\n<path fill=\"none\" stroke=\"#000000\" stroke-miterlimit=\"10\" d=\"M10.35,74.71c167.706-23.586,317.749-8.256,396.015-3.239\"/>\r\n<path fill=\"none\" stroke=\"#000000\" stroke-miterlimit=\"10\" d=\"M397.31,61.825c-0.659,43.625-3.076,250.613-15.326,292.303\"/>\r\n<path fill=\"none\" stroke=\"#000000\" stroke-miterlimit=\"10\" d=\"M15.533,352.518c88.501-11.957,289.369,6.726,377.472-8.39\"/>\r\n<path fill=\"none\" stroke=\"#000000\" stroke-miterlimit=\"10\" d=\"M18.421,64.116c10.886,70.13,3.417,225.354,6.713,296.608\"/>\r\n</svg>\r\n"
                    },
                    "attributes" : {
                      "ident" : "",
                      "autoRotateText" : true
                    },
                    "parameters" : {
                      "translation0" : -85.3143464094929,
                      "translation1" : 58.4099754747804,
                      "scale0" : 0.290593799117805,
                      "scale1" : 0.290593799117805,
                      "sourceCrop0" : 0.0,
                      "sourceCrop1" : 0.0,
                      "sourceCrop2" : 0.0,
                      "sourceCrop3" : 0.0,
                      "geometryCrop0" : 0.0,
                      "geometryCrop1" : 0.0,
                      "geometryCrop2" : 0.0,
                      "geometryCrop3" : 0.0
                    },
                    "leftEdgeMods" : [
                      {
                        "group" : "DrawPercentageFade",
                        "duration" : 30,
                        "parameters" : [
                          {
                            "name" : "DrawTime",
                              "func" : "FadeInFunc"
                            }
                        ]
                      }
                    ],
                    "effects" : [

                    ],
                    "start" : 1125,
                    "duration" : 80,
                    "mediaStart" : 0,
                    "mediaDuration" : 80,
                    "scalar" : 1,
                    "metadata" : {
                      "clipSpeedAttribute" : false,
                      "default-scale" : "1",
                      "effectApplied" : "none",
                      "lockAspectRatio" : true
                    },
                    "animationTracks" : {

                    }
                  },
                  {
                    "id" : 49,
                    "_type" : "Callout",
                    "def" : {
                      "kind" : "TypeWinSVG",
                      "shape" : "",
                      "style" : "",
                      "DrawTime" : 1.0,
                      "borderColorBlue" : 0.0,
                      "borderColorGreen" : 1.0,
                      "borderColorRed" : 1.0,
                      "borderWidth" : 3.0,
                      "height" : 117.784,
                      "width" : 393.632165165746,
                      "xmlContent" : "<?xml version=\"1.0\" encoding=\"utf-8\"?>\r\n<!-- Generator: Adobe Illustrator 15.0.2, SVG Export Plug-In . SVG Version: 6.00 Build 0)  -->\r\n<!DOCTYPE svg PUBLIC \"-//W3C//DTD SVG 1.1//EN\" \"http://www.w3.org/Graphics/SVG/1.1/DTD/svg11.dtd\">\r\n<svg version=\"1.1\"\r\n\t id=\"svg5220\" xmlns:inkscape=\"http://www.inkscape.org/namespaces/inkscape\" xmlns:rdf=\"http://www.w3.org/1999/02/22-rdf-syntax-ns#\" xmlns:sodipodi=\"http://sodipodi.sourceforge.net/DTD/sodipodi-0.dtd\" xmlns:dc=\"http://purl.org/dc/elements/1.1/\" inkscape:version=\"0.47 r22583\" sodipodi:docname=\"ArrowWithEndsHorizontal.svg\" xmlns:cc=\"http://creativecommons.org/ns#\" xmlns:svg=\"http://www.w3.org/2000/svg\"\r\n\t xmlns=\"http://www.w3.org/2000/svg\" xmlns:xlink=\"http://www.w3.org/1999/xlink\" x=\"0px\" y=\"0px\" width=\"420px\" height=\"420px\"\r\n\t viewBox=\"0 0 420 420\" enable-background=\"new 0 0 420 420\" xml:space=\"preserve\">\r\n<path id=\"path5262\" fill=\"none\" stroke=\"#000000\" d=\"M86.29,214.062c94.915-4.859,190.082-2.303,284.301-10.154\"/>\r\n<path id=\"path5264\" fill=\"none\" stroke=\"#000000\" d=\"M336.069,151.109c121.832,53.957,69.983,77.532-32.492,111.69\"/>\r\n<path id=\"path5276\" fill=\"none\" stroke=\"#000000\" d=\"M63.952,226.246c-19.393,6.622-33.466,19.268-44.675,26.398\"/>\r\n<path id=\"path5274\" fill=\"none\" stroke=\"#000000\" d=\"M106.598,230.309c-11.248,24.146-48.816,36.396-54.83,38.584\"/>\r\n<path id=\"path5272\" fill=\"none\" stroke=\"#000000\" d=\"M163.457,222.186c-14.525,10.278-37.127,36.186-44.676,44.676\"/>\r\n<path id=\"path5270\" fill=\"none\" stroke=\"#000000\" d=\"M78.167,189.693c-17.274-10.646-45.521-17.846-64.983-22.338\"/>\r\n<path id=\"path5268\" fill=\"none\" stroke=\"#000000\" d=\"M135.027,197.816c-21.581-14.107-43.436-25.907-62.952-36.553\"/>\r\n<path id=\"path5266\" fill=\"none\" stroke=\"#000000\" d=\"M179.703,191.725c-19.56-9.541-42.049-24.968-52.799-32.492\"/>\r\n</svg>\r\n"
                    },
                    "attributes" : {
                      "ident" : "",
                      "autoRotateText" : true
                    },
                    "parameters" : {
                      "translation0" : 0.0466810383069998,
                      "translation1" : -243.647275451277,
                      "rotation2" : -0.785398163397451,
                      "scale0" : 0.431758514578799,
                      "scale1" : 0.431758514578799,
                      "sourceCrop0" : 0.0,
                      "sourceCrop1" : 0.0,
                      "sourceCrop2" : 0.0,
                      "sourceCrop3" : 0.0,
                      "geometryCrop0" : 0.0,
                      "geometryCrop1" : 0.0,
                      "geometryCrop2" : 0.0,
                      "geometryCrop3" : 0.0
                    },
                    "leftEdgeMods" : [
                      {
                        "group" : "DrawPercentageFade",
                        "duration" : 30,
                        "parameters" : [
                          {
                            "name" : "DrawTime",
                              "func" : "FadeInFunc"
                            }
                        ]
                      }
                    ],
                    "effects" : [

                    ],
                    "start" : 1465,
                    "duration" : 81,
                    "mediaStart" : 0,
                    "mediaDuration" : 81,
                    "scalar" : 1,
                    "metadata" : {
                      "clipSpeedAttribute" : false,
                      "default-scale" : "1",
                      "effectApplied" : "none",
                      "lockAspectRatio" : true
                    },
                    "animationTracks" : {

                    }
                  },
                  {
                    "id" : 50,
                    "_type" : "IMFile",
                    "src" : 18,
                    "trackNumber" : 0,
                    "trimStartSum" : 0,
                    "attributes" : {
                      "ident" : "Two ways to Generate SQL for ingestion:\r\nConnection Wizard\r\nJSON Spec Conversion\r\n"
                    },
                    "parameters" : {
                      "translation0" : {
                        "type" : "double",
                        "defaultValue" : -155.0,
                        "interp" : "eioe"
                      },
                      "translation1" : {
                        "type" : "double",
                        "defaultValue" : 10.0,
                        "interp" : "eioe"
                      },
                      "sourceCrop0" : {
                        "type" : "double",
                        "defaultValue" : 0.0,
                        "interp" : "eioe"
                      },
                      "sourceCrop1" : {
                        "type" : "double",
                        "defaultValue" : 0.0,
                        "interp" : "eioe"
                      },
                      "sourceCrop2" : {
                        "type" : "double",
                        "defaultValue" : 0.0,
                        "interp" : "eioe"
                      },
                      "sourceCrop3" : {
                        "type" : "double",
                        "defaultValue" : 0.0,
                        "interp" : "eioe"
                      },
                      "geometryCrop0" : {
                        "type" : "double",
                        "defaultValue" : 0.0,
                        "interp" : "eioe"
                      },
                      "geometryCrop1" : {
                        "type" : "double",
                        "defaultValue" : 0.0,
                        "interp" : "eioe"
                      },
                      "geometryCrop2" : {
                        "type" : "double",
                        "defaultValue" : 0.0,
                        "interp" : "eioe"
                      },
                      "geometryCrop3" : {
                        "type" : "double",
                        "defaultValue" : 0.0,
                        "interp" : "eioe"
                      }
                    },
                    "effects" : [

                    ],
                    "start" : 1709,
                    "duration" : 164,
                    "mediaStart" : 0,
                    "mediaDuration" : 1,
                    "scalar" : 1,
                    "metadata" : {
                      "clipSpeedAttribute" : false,
                      "default-scale" : "1",
                      "effectApplied" : "none",
                      "lockAspectRatio" : true
                    },
                    "animationTracks" : {

                    }
                  },
                  {
                    "id" : 51,
                    "_type" : "IMFile",
                    "src" : 19,
                    "trackNumber" : 0,
                    "trimStartSum" : 0,
                    "attributes" : {
                      "ident" : "Pasted Image"
                    },
                    "parameters" : {
                      "translation0" : {
                        "type" : "double",
                        "defaultValue" : -211.939365524377,
                        "interp" : "eioe"
                      },
                      "translation1" : {
                        "type" : "double",
                        "defaultValue" : -283.008962148797,
                        "interp" : "eioe"
                      },
                      "scale0" : {
                        "type" : "double",
                        "defaultValue" : 0.797916048144232,
                        "interp" : "eioe"
                      },
                      "scale1" : {
                        "type" : "double",
                        "defaultValue" : 0.797916048144232,
                        "interp" : "eioe"
                      },
                      "sourceCrop0" : {
                        "type" : "double",
                        "defaultValue" : 0.0,
                        "interp" : "eioe"
                      },
                      "sourceCrop1" : {
                        "type" : "double",
                        "defaultValue" : 0.0,
                        "interp" : "eioe"
                      },
                      "sourceCrop2" : {
                        "type" : "double",
                        "defaultValue" : 0.0,
                        "interp" : "eioe"
                      },
                      "sourceCrop3" : {
                        "type" : "double",
                        "defaultValue" : 0.0,
                        "interp" : "eioe"
                      },
                      "geometryCrop0" : {
                        "type" : "double",
                        "defaultValue" : 0.0,
                        "interp" : "eioe"
                      },
                      "geometryCrop1" : {
                        "type" : "double",
                        "defaultValue" : 0.0,
                        "interp" : "eioe"
                      },
                      "geometryCrop2" : {
                        "type" : "double",
                        "defaultValue" : 0.0,
                        "interp" : "eioe"
                      },
                      "geometryCrop3" : {
                        "type" : "double",
                        "defaultValue" : 0.0,
                        "interp" : "eioe"
                      }
                    },
                    "effects" : [

                    ],
                    "start" : 1882,
                    "duration" : 260,
                    "mediaStart" : 0,
                    "mediaDuration" : 1,
                    "scalar" : 1,
                    "metadata" : {
                      "clipSpeedAttribute" : false,
                      "default-scale" : "1",
                      "effectApplied" : "none",
                      "lockAspectRatio" : true
                    },
                    "animationTracks" : {

                    }
                  },
                  {
                    "id" : 52,
                    "_type" : "IMFile",
                    "src" : 24,
                    "trackNumber" : 0,
                    "trimStartSum" : 0,
                    "attributes" : {
                      "ident" : "Pasted Image"
                    },
                    "parameters" : {
                      "translation0" : {
                        "type" : "double",
                        "defaultValue" : -273.0,
                        "interp" : "eioe"
                      },
                      "translation1" : {
                        "type" : "double",
                        "defaultValue" : 76.0,
                        "interp" : "eioe"
                      },
                      "scale0" : {
                        "type" : "double",
                        "defaultValue" : 2.0,
                        "interp" : "eioe"
                      },
                      "scale1" : {
                        "type" : "double",
                        "defaultValue" : 2.0,
                        "interp" : "eioe"
                      },
                      "sourceCrop0" : {
                        "type" : "double",
                        "defaultValue" : 0.0,
                        "interp" : "eioe"
                      },
                      "sourceCrop1" : {
                        "type" : "double",
                        "defaultValue" : 0.0,
                        "interp" : "eioe"
                      },
                      "sourceCrop2" : {
                        "type" : "double",
                        "defaultValue" : 0.0,
                        "interp" : "eioe"
                      },
                      "sourceCrop3" : {
                        "type" : "double",
                        "defaultValue" : 0.0,
                        "interp" : "eioe"
                      },
                      "geometryCrop0" : {
                        "type" : "double",
                        "defaultValue" : 0.0,
                        "interp" : "eioe"
                      },
                      "geometryCrop1" : {
                        "type" : "double",
                        "defaultValue" : 0.0,
                        "interp" : "eioe"
                      },
                      "geometryCrop2" : {
                        "type" : "double",
                        "defaultValue" : 0.0,
                        "interp" : "eioe"
                      },
                      "geometryCrop3" : {
                        "type" : "double",
                        "defaultValue" : 0.0,
                        "interp" : "eioe"
                      }
                    },
                    "effects" : [

                    ],
                    "start" : 2243,
                    "duration" : 150,
                    "mediaStart" : 0,
                    "mediaDuration" : 1,
                    "scalar" : 1,
                    "metadata" : {
                      "clipSpeedAttribute" : false,
                      "default-scale" : "1",
                      "effectApplied" : "none",
                      "lockAspectRatio" : true
                    },
                    "animationTracks" : {

                    }
                  },
                  {
                    "id" : 53,
                    "_type" : "IMFile",
                    "src" : 19,
                    "trackNumber" : 0,
                    "trimStartSum" : 0,
                    "attributes" : {
                      "ident" : "Pasted Image"
                    },
                    "parameters" : {
                      "translation0" : {
                        "type" : "double",
                        "defaultValue" : -211.939365524377,
                        "interp" : "eioe"
                      },
                      "translation1" : {
                        "type" : "double",
                        "defaultValue" : -283.008962148797,
                        "interp" : "eioe"
                      },
                      "scale0" : {
                        "type" : "double",
                        "defaultValue" : 0.797916048144232,
                        "interp" : "eioe"
                      },
                      "scale1" : {
                        "type" : "double",
                        "defaultValue" : 0.797916048144232,
                        "interp" : "eioe"
                      },
                      "sourceCrop0" : {
                        "type" : "double",
                        "defaultValue" : 0.0,
                        "interp" : "eioe"
                      },
                      "sourceCrop1" : {
                        "type" : "double",
                        "defaultValue" : 0.0,
                        "interp" : "eioe"
                      },
                      "sourceCrop2" : {
                        "type" : "double",
                        "defaultValue" : 0.0,
                        "interp" : "eioe"
                      },
                      "sourceCrop3" : {
                        "type" : "double",
                        "defaultValue" : 0.0,
                        "interp" : "eioe"
                      },
                      "geometryCrop0" : {
                        "type" : "double",
                        "defaultValue" : 0.0,
                        "interp" : "eioe"
                      },
                      "geometryCrop1" : {
                        "type" : "double",
                        "defaultValue" : 0.0,
                        "interp" : "eioe"
                      },
                      "geometryCrop2" : {
                        "type" : "double",
                        "defaultValue" : 0.0,
                        "interp" : "eioe"
                      },
                      "geometryCrop3" : {
                        "type" : "double",
                        "defaultValue" : 0.0,
                        "interp" : "eioe"
                      }
                    },
                    "effects" : [

                    ],
                    "start" : 2399,
                    "duration" : 260,
                    "mediaStart" : 0,
                    "mediaDuration" : 1,
                    "scalar" : 1,
                    "metadata" : {
                      "clipSpeedAttribute" : false,
                      "default-scale" : "1",
                      "effectApplied" : "none",
                      "lockAspectRatio" : true
                    },
                    "animationTracks" : {

                    }
                  }
                ],
                "transitions" : [
                  {
                    "name" : "Fade",
                    "duration" : 30,
                    "rightMedia" : 43,
                    "attributes" : {
                      "bypass" : false,
                      "reverse" : false,
                      "trivial" : false,
                      "useAudioPreRoll" : true,
                      "useVisualPreRoll" : true
                    }

                  },
                  {
                    "name" : "Fade",
                    "duration" : 30,
                    "leftMedia" : 43,
                    "attributes" : {
                      "bypass" : false,
                      "reverse" : false,
                      "trivial" : false,
                      "useAudioPreRoll" : true,
                      "useVisualPreRoll" : true
                    }

                  },
                  {
                    "name" : "Fade",
                    "duration" : 30,
                    "rightMedia" : 44,
                    "attributes" : {
                      "bypass" : false,
                      "reverse" : false,
                      "trivial" : false,
                      "useAudioPreRoll" : true,
                      "useVisualPreRoll" : true
                    }

                  },
                  {
                    "name" : "Fade",
                    "duration" : 30,
                    "leftMedia" : 44,
                    "attributes" : {
                      "bypass" : false,
                      "reverse" : false,
                      "trivial" : false,
                      "useAudioPreRoll" : true,
                      "useVisualPreRoll" : true
                    }

                  },
                  {
                    "name" : "Fade",
                    "duration" : 30,
                    "rightMedia" : 45,
                    "attributes" : {
                      "bypass" : false,
                      "reverse" : false,
                      "trivial" : false,
                      "useAudioPreRoll" : true,
                      "useVisualPreRoll" : true
                    }

                  },
                  {
                    "name" : "Fade",
                    "duration" : 30,
                    "leftMedia" : 45,
                    "attributes" : {
                      "bypass" : false,
                      "reverse" : false,
                      "trivial" : false,
                      "useAudioPreRoll" : true,
                      "useVisualPreRoll" : true
                    }

                  },
                  {
                    "name" : "Fade",
                    "duration" : 30,
                    "rightMedia" : 46,
                    "attributes" : {
                      "bypass" : false,
                      "reverse" : false,
                      "trivial" : false,
                      "useAudioPreRoll" : true,
                      "useVisualPreRoll" : true
                    }

                  },
                  {
                    "name" : "Fade",
                    "duration" : 30,
                    "leftMedia" : 46,
                    "attributes" : {
                      "bypass" : false,
                      "reverse" : false,
                      "trivial" : false,
                      "useAudioPreRoll" : true,
                      "useVisualPreRoll" : true
                    }

                  },
                  {
                    "name" : "Fade",
                    "duration" : 30,
                    "rightMedia" : 47,
                    "attributes" : {
                      "bypass" : false,
                      "reverse" : false,
                      "trivial" : false,
                      "useAudioPreRoll" : true,
                      "useVisualPreRoll" : true
                    }

                  },
                  {
                    "name" : "Fade",
                    "duration" : 30,
                    "leftMedia" : 47,
                    "attributes" : {
                      "bypass" : false,
                      "reverse" : false,
                      "trivial" : false,
                      "useAudioPreRoll" : true,
                      "useVisualPreRoll" : true
                    }

                  },
                  {
                    "name" : "Fade",
                    "duration" : 30,
                    "leftMedia" : 48,
                    "attributes" : {
                      "bypass" : false,
                      "reverse" : false,
                      "trivial" : false,
                      "useAudioPreRoll" : false,
                      "useVisualPreRoll" : true
                    }

                  },
                  {
                    "name" : "Fade",
                    "duration" : 30,
                    "leftMedia" : 49,
                    "attributes" : {
                      "bypass" : false,
                      "reverse" : false,
                      "trivial" : false,
                      "useAudioPreRoll" : false,
                      "useVisualPreRoll" : true
                    }

                  },
                  {
                    "name" : "Fade",
                    "duration" : 30,
                    "rightMedia" : 50,
                    "attributes" : {
                      "bypass" : false,
                      "reverse" : false,
                      "trivial" : false,
                      "useAudioPreRoll" : true,
                      "useVisualPreRoll" : true
                    }

                  },
                  {
                    "name" : "Fade",
                    "duration" : 30,
                    "leftMedia" : 50,
                    "attributes" : {
                      "bypass" : false,
                      "reverse" : false,
                      "trivial" : false,
                      "useAudioPreRoll" : true,
                      "useVisualPreRoll" : true
                    }

                  },
                  {
                    "name" : "Fade",
                    "duration" : 30,
                    "rightMedia" : 52,
                    "attributes" : {
                      "bypass" : false,
                      "reverse" : false,
                      "trivial" : false,
                      "useAudioPreRoll" : true,
                      "useVisualPreRoll" : true
                    }

                  },
                  {
                    "name" : "Fade",
                    "duration" : 30,
                    "leftMedia" : 52,
                    "attributes" : {
                      "bypass" : false,
                      "reverse" : false,
                      "trivial" : false,
                      "useAudioPreRoll" : true,
                      "useVisualPreRoll" : true
                    }

                  }
                ]
              },
              {
                "trackIndex" : 5,
                "medias" : [
                  {
                    "id" : 54,
                    "_type" : "IMFile",
                    "src" : 5,
                    "trackNumber" : 0,
                    "trimStartSum" : 0,
                    "attributes" : {
                      "ident" : "Pasted Image"
                    },
                    "parameters" : {
                      "translation0" : {
                        "type" : "double",
                        "defaultValue" : -214.389595901757,
                        "interp" : "eioe"
                      },
                      "translation1" : {
                        "type" : "double",
                        "defaultValue" : -15.0493506352441,
                        "interp" : "eioe"
                      },
                      "scale0" : {
                        "type" : "double",
                        "defaultValue" : 0.353909405279784,
                        "interp" : "eioe"
                      },
                      "scale1" : {
                        "type" : "double",
                        "defaultValue" : 0.353909405279784,
                        "interp" : "eioe"
                      },
                      "sourceCrop0" : {
                        "type" : "double",
                        "defaultValue" : 0.0,
                        "interp" : "eioe"
                      },
                      "sourceCrop1" : {
                        "type" : "double",
                        "defaultValue" : 0.0,
                        "interp" : "eioe"
                      },
                      "sourceCrop2" : {
                        "type" : "double",
                        "defaultValue" : 0.0,
                        "interp" : "eioe"
                      },
                      "sourceCrop3" : {
                        "type" : "double",
                        "defaultValue" : 0.0,
                        "interp" : "eioe"
                      },
                      "geometryCrop0" : {
                        "type" : "double",
                        "defaultValue" : 0.0,
                        "interp" : "eioe"
                      },
                      "geometryCrop1" : {
                        "type" : "double",
                        "defaultValue" : 0.0,
                        "interp" : "eioe"
                      },
                      "geometryCrop2" : {
                        "type" : "double",
                        "defaultValue" : 0.0,
                        "interp" : "eioe"
                      },
                      "geometryCrop3" : {
                        "type" : "double",
                        "defaultValue" : 0.0,
                        "interp" : "eioe"
                      }
                    },
                    "effects" : [

                    ],
                    "start" : 85,
                    "duration" : 109,
                    "mediaStart" : 0,
                    "mediaDuration" : 1,
                    "scalar" : 1,
                    "metadata" : {
                      "clipSpeedAttribute" : false,
                      "default-scale" : "0.670391",
                      "effectApplied" : "none",
                      "lockAspectRatio" : true
                    },
                    "animationTracks" : {

                    }
                  },
                  {
                    "id" : 55,
                    "_type" : "IMFile",
                    "src" : 10,
                    "trackNumber" : 0,
                    "trimStartSum" : 42,
                    "attributes" : {
                      "ident" : "Pasted Image"
                    },
                    "parameters" : {
                      "translation0" : {
                        "type" : "double",
                        "defaultValue" : -143.0,
                        "interp" : "eioe"
                      },
                      "translation1" : {
                        "type" : "double",
                        "defaultValue" : 110.0,
                        "interp" : "eioe"
                      },
                      "scale0" : {
                        "type" : "double",
                        "defaultValue" : 2.0,
                        "interp" : "eioe"
                      },
                      "scale1" : {
                        "type" : "double",
                        "defaultValue" : 2.0,
                        "interp" : "eioe"
                      },
                      "sourceCrop0" : {
                        "type" : "double",
                        "defaultValue" : 0.0,
                        "interp" : "eioe"
                      },
                      "sourceCrop1" : {
                        "type" : "double",
                        "defaultValue" : 0.0,
                        "interp" : "eioe"
                      },
                      "sourceCrop2" : {
                        "type" : "double",
                        "defaultValue" : 0.0,
                        "interp" : "eioe"
                      },
                      "sourceCrop3" : {
                        "type" : "double",
                        "defaultValue" : 0.0,
                        "interp" : "eioe"
                      },
                      "geometryCrop0" : {
                        "type" : "double",
                        "defaultValue" : 0.0,
                        "interp" : "eioe"
                      },
                      "geometryCrop1" : {
                        "type" : "double",
                        "defaultValue" : 0.0,
                        "interp" : "eioe"
                      },
                      "geometryCrop2" : {
                        "type" : "double",
                        "defaultValue" : 0.0,
                        "interp" : "eioe"
                      },
                      "geometryCrop3" : {
                        "type" : "double",
                        "defaultValue" : 0.0,
                        "interp" : "eioe"
                      }
                    },
                    "effects" : [

                    ],
                    "start" : 490,
                    "duration" : 172,
                    "mediaStart" : 0,
                    "mediaDuration" : 1,
                    "scalar" : 1,
                    "metadata" : {
                      "clipSpeedAttribute" : false,
                      "default-scale" : "1",
                      "effectApplied" : "none",
                      "lockAspectRatio" : true
                    },
                    "animationTracks" : {

                    }
                  },
                  {
                    "id" : 56,
                    "_type" : "Callout",
                    "def" : {
                      "kind" : "TypeWinSVG",
                      "shape" : "",
                      "style" : "",
                      "DrawTime" : 1.0,
                      "borderColorBlue" : 0.0,
                      "borderColorGreen" : 1.0,
                      "borderColorRed" : 1.0,
                      "borderWidth" : 3.0,
                      "height" : 59.2505900481523,
                      "width" : 400.987,
                      "xmlContent" : "<?xml version=\"1.0\" encoding=\"utf-8\"?>\r\n<!-- Generator: Adobe Illustrator 15.0.2, SVG Export Plug-In . SVG Version: 6.00 Build 0)  -->\r\n<!DOCTYPE svg PUBLIC \"-//W3C//DTD SVG 1.1//EN\" \"http://www.w3.org/Graphics/SVG/1.1/DTD/svg11.dtd\">\r\n<svg version=\"1.1\" id=\"Layer_1\" xmlns=\"http://www.w3.org/2000/svg\" xmlns:xlink=\"http://www.w3.org/1999/xlink\" x=\"0px\" y=\"0px\"\r\n\t width=\"420px\" height=\"420px\" viewBox=\"0 0 420 420\" enable-background=\"new 0 0 420 420\" xml:space=\"preserve\">\r\n<path fill=\"none\" stroke=\"#000000\" stroke-miterlimit=\"10\" d=\"M60.383,184.37c-8.266,1.782-16.925,2.15-25.362,1.716\r\n\tc55.994-5.072,111.775-11.591,168.218-13.374c45.888-1.45,92.026-3.477,137.946-2.2c18.141,0.504,43.871-1.199,60.004,3.191\r\n\tc-45.926-1.45-92.748-3.568-139.053-3.176c-58.164,0.493-116.047,4.436-174.051,8.389c-24.45,1.666-51.165,0.241-75.268,5.663\r\n\tc50.304-12.151,104.897-12.959,156.303-14.475c64.87-1.914,147.716-11.813,210.706,9.323c-9.012,3.176-22.994,1.516-33.312,1.504\r\n\tc-36.834-0.048-73.586,0.138-110.407,1.222c-76.121,2.242-153.218,16.799-229.066,16.051c71.634-4.535,140.968-15.478,213.52-13.605\r\n\tc48.931,1.264,97.727,5.188,146.572,8.036c13.602,0.793,27.662,0.291,40.895,3.908c-124.527-9.618-246.63-5.8-370.181,12.505\r\n\tc50.926,4.547,108.248-5.809,160.446-5.81c62.115-0.004,124.245,5.786,186.069,6.639c-49.217-11.589-108.559-5.909-158.891-4.592\r\n\tc-53.609,1.4-107.208,9.18-160.684,10.133c63.294,1.356,126.319-7.266,190-3.632c38.305,2.188,76.697,6.343,115.064,7.123\r\n\tc-37.316-6.239-75.154-9.06-112.971-10.182c-56.831-1.684-117.409-5.038-173.903,3.298c90.708,0.773,187.308-10.865,276.505,13.346\"\r\n\t/>\r\n</svg>\r\n"
                    },
                    "attributes" : {
                      "ident" : "",
                      "autoRotateText" : true
                    },
                    "parameters" : {
                      "translation0" : -25.7815457141949,
                      "translation1" : -288.368381861382,
                      "scale0" : 0.392618713856093,
                      "scale1" : 0.392618713856093,
                      "sourceCrop0" : 0.0,
                      "sourceCrop1" : 0.0,
                      "sourceCrop2" : 0.0,
                      "sourceCrop3" : 0.0,
                      "geometryCrop0" : 0.0,
                      "geometryCrop1" : 0.0,
                      "geometryCrop2" : 0.0,
                      "geometryCrop3" : 0.0
                    },
                    "leftEdgeMods" : [
                      {
                        "group" : "DrawPercentageFade",
                        "duration" : 30,
                        "parameters" : [
                          {
                            "name" : "DrawTime",
                              "func" : "FadeInFunc"
                            }
                        ]
                      }
                    ],
                    "effects" : [

                    ],
                    "start" : 1205,
                    "duration" : 97,
                    "mediaStart" : 0,
                    "mediaDuration" : 97,
                    "scalar" : 1,
                    "metadata" : {
                      "clipSpeedAttribute" : false,
                      "default-scale" : "1",
                      "effectApplied" : "none",
                      "lockAspectRatio" : true
                    },
                    "animationTracks" : {

                    }
                  },
                  {
                    "id" : 57,
                    "_type" : "IMFile",
                    "src" : 19,
                    "trackNumber" : 0,
                    "trimStartSum" : 0,
                    "attributes" : {
                      "ident" : "Pasted Image"
                    },
                    "parameters" : {
                      "translation0" : {
                        "type" : "double",
                        "defaultValue" : -214.012636186119,
                        "interp" : "eioe"
                      },
                      "translation1" : {
                        "type" : "double",
                        "defaultValue" : 240.0329705316,
                        "interp" : "eioe"
                      },
                      "scale0" : {
                        "type" : "double",
                        "defaultValue" : 0.713685273405668,
                        "interp" : "eioe"
                      },
                      "scale1" : {
                        "type" : "double",
                        "defaultValue" : 0.713685273405668,
                        "interp" : "eioe"
                      },
                      "sourceCrop0" : {
                        "type" : "double",
                        "defaultValue" : 0.0,
                        "interp" : "eioe"
                      },
                      "sourceCrop1" : {
                        "type" : "double",
                        "defaultValue" : 0.0,
                        "interp" : "eioe"
                      },
                      "sourceCrop2" : {
                        "type" : "double",
                        "defaultValue" : 0.0,
                        "interp" : "eioe"
                      },
                      "sourceCrop3" : {
                        "type" : "double",
                        "defaultValue" : 0.0,
                        "interp" : "eioe"
                      },
                      "geometryCrop0" : {
                        "type" : "double",
                        "defaultValue" : 0.0,
                        "interp" : "eioe"
                      },
                      "geometryCrop1" : {
                        "type" : "double",
                        "defaultValue" : 0.0,
                        "interp" : "eioe"
                      },
                      "geometryCrop2" : {
                        "type" : "double",
                        "defaultValue" : 0.0,
                        "interp" : "eioe"
                      },
                      "geometryCrop3" : {
                        "type" : "double",
                        "defaultValue" : 0.0,
                        "interp" : "eioe"
                      }
                    },
                    "effects" : [

                    ],
                    "start" : 1882,
                    "duration" : 260,
                    "mediaStart" : 0,
                    "mediaDuration" : 1,
                    "scalar" : 1,
                    "metadata" : {
                      "clipSpeedAttribute" : false,
                      "default-scale" : "1",
                      "effectApplied" : "none",
                      "lockAspectRatio" : true
                    },
                    "animationTracks" : {

                    }
                  },
                  {
                    "id" : 58,
                    "_type" : "IMFile",
                    "src" : 19,
                    "trackNumber" : 0,
                    "trimStartSum" : 0,
                    "attributes" : {
                      "ident" : "Pasted Image"
                    },
                    "parameters" : {
                      "translation0" : {
                        "type" : "double",
                        "defaultValue" : -213.991383940181,
                        "interp" : "eioe"
                      },
                      "translation1" : {
                        "type" : "double",
                        "defaultValue" : 240.0329705316,
                        "interp" : "eioe"
                      },
                      "scale0" : {
                        "type" : "double",
                        "defaultValue" : 0.713682654074013,
                        "interp" : "eioe"
                      },
                      "scale1" : {
                        "type" : "double",
                        "defaultValue" : 0.713682654074013,
                        "interp" : "eioe"
                      },
                      "sourceCrop0" : {
                        "type" : "double",
                        "defaultValue" : 0.0,
                        "interp" : "eioe"
                      },
                      "sourceCrop1" : {
                        "type" : "double",
                        "defaultValue" : 0.0,
                        "interp" : "eioe"
                      },
                      "sourceCrop2" : {
                        "type" : "double",
                        "defaultValue" : 0.0,
                        "interp" : "eioe"
                      },
                      "sourceCrop3" : {
                        "type" : "double",
                        "defaultValue" : 0.0,
                        "interp" : "eioe"
                      },
                      "geometryCrop0" : {
                        "type" : "double",
                        "defaultValue" : 0.0,
                        "interp" : "eioe"
                      },
                      "geometryCrop1" : {
                        "type" : "double",
                        "defaultValue" : 0.0,
                        "interp" : "eioe"
                      },
                      "geometryCrop2" : {
                        "type" : "double",
                        "defaultValue" : 0.0,
                        "interp" : "eioe"
                      },
                      "geometryCrop3" : {
                        "type" : "double",
                        "defaultValue" : 0.0,
                        "interp" : "eioe"
                      }
                    },
                    "effects" : [

                    ],
                    "start" : 2399,
                    "duration" : 260,
                    "mediaStart" : 0,
                    "mediaDuration" : 1,
                    "scalar" : 1,
                    "metadata" : {
                      "clipSpeedAttribute" : false,
                      "default-scale" : "1",
                      "effectApplied" : "none",
                      "lockAspectRatio" : true
                    },
                    "animationTracks" : {

                    }
                  }
                ],
                "transitions" : [
                  {
                    "name" : "Fade",
                    "duration" : 30,
                    "rightMedia" : 54,
                    "attributes" : {
                      "bypass" : false,
                      "reverse" : false,
                      "trivial" : false,
                      "useAudioPreRoll" : true,
                      "useVisualPreRoll" : true
                    }

                  },
                  {
                    "name" : "Fade",
                    "duration" : 30,
                    "leftMedia" : 54,
                    "attributes" : {
                      "bypass" : false,
                      "reverse" : false,
                      "trivial" : false,
                      "useAudioPreRoll" : true,
                      "useVisualPreRoll" : true
                    }

                  },
                  {
                    "name" : "Fade",
                    "duration" : 30,
                    "rightMedia" : 55,
                    "attributes" : {
                      "bypass" : false,
                      "reverse" : false,
                      "trivial" : false,
                      "useAudioPreRoll" : true,
                      "useVisualPreRoll" : true
                    }

                  },
                  {
                    "name" : "Fade",
                    "duration" : 30,
                    "leftMedia" : 55,
                    "attributes" : {
                      "bypass" : false,
                      "reverse" : false,
                      "trivial" : false,
                      "useAudioPreRoll" : true,
                      "useVisualPreRoll" : true
                    }

                  },
                  {
                    "name" : "Fade",
                    "duration" : 30,
                    "leftMedia" : 56,
                    "attributes" : {
                      "bypass" : false,
                      "reverse" : false,
                      "trivial" : false,
                      "useAudioPreRoll" : false,
                      "useVisualPreRoll" : true
                    }

                  }
                ]
              },
              {
                "trackIndex" : 6,
                "medias" : [
                  {
                    "id" : 59,
                    "_type" : "IMFile",
                    "src" : 11,
                    "trackNumber" : 0,
                    "trimStartSum" : 53,
                    "attributes" : {
                      "ident" : "Pasted Image"
                    },
                    "parameters" : {
                      "translation0" : {
                        "type" : "double",
                        "defaultValue" : 101.0,
                        "interp" : "eioe"
                      },
                      "translation1" : {
                        "type" : "double",
                        "defaultValue" : 98.0,
                        "interp" : "eioe"
                      },
                      "scale0" : {
                        "type" : "double",
                        "defaultValue" : 2.0,
                        "interp" : "eioe"
                      },
                      "scale1" : {
                        "type" : "double",
                        "defaultValue" : 2.0,
                        "interp" : "eioe"
                      },
                      "sourceCrop0" : {
                        "type" : "double",
                        "defaultValue" : 0.0,
                        "interp" : "eioe"
                      },
                      "sourceCrop1" : {
                        "type" : "double",
                        "defaultValue" : 0.0,
                        "interp" : "eioe"
                      },
                      "sourceCrop2" : {
                        "type" : "double",
                        "defaultValue" : 0.0,
                        "interp" : "eioe"
                      },
                      "sourceCrop3" : {
                        "type" : "double",
                        "defaultValue" : 0.0,
                        "interp" : "eioe"
                      },
                      "geometryCrop0" : {
                        "type" : "double",
                        "defaultValue" : 0.0,
                        "interp" : "eioe"
                      },
                      "geometryCrop1" : {
                        "type" : "double",
                        "defaultValue" : 0.0,
                        "interp" : "eioe"
                      },
                      "geometryCrop2" : {
                        "type" : "double",
                        "defaultValue" : 0.0,
                        "interp" : "eioe"
                      },
                      "geometryCrop3" : {
                        "type" : "double",
                        "defaultValue" : 0.0,
                        "interp" : "eioe"
                      }
                    },
                    "effects" : [

                    ],
                    "start" : 544,
                    "duration" : 118,
                    "mediaStart" : 0,
                    "mediaDuration" : 1,
                    "scalar" : 1,
                    "metadata" : {
                      "clipSpeedAttribute" : false,
                      "default-scale" : "1",
                      "effectApplied" : "none",
                      "lockAspectRatio" : true
                    },
                    "animationTracks" : {

                    }
                  },
                  {
                    "id" : 60,
                    "_type" : "IMFile",
                    "src" : 3,
                    "trackNumber" : 0,
                    "trimStartSum" : 0,
                    "attributes" : {
                      "ident" : "Pasted Image"
                    },
                    "parameters" : {
                      "translation0" : {
                        "type" : "double",
                        "defaultValue" : -214.0,
                        "interp" : "eioe"
                      },
                      "translation1" : {
                        "type" : "double",
                        "defaultValue" : -69.0,
                        "interp" : "eioe"
                      },
                      "sourceCrop0" : {
                        "type" : "double",
                        "defaultValue" : 0.0,
                        "interp" : "eioe"
                      },
                      "sourceCrop1" : {
                        "type" : "double",
                        "defaultValue" : 0.0,
                        "interp" : "eioe"
                      },
                      "sourceCrop2" : {
                        "type" : "double",
                        "defaultValue" : 0.0,
                        "interp" : "eioe"
                      },
                      "sourceCrop3" : {
                        "type" : "double",
                        "defaultValue" : 0.0,
                        "interp" : "eioe"
                      },
                      "geometryCrop0" : {
                        "type" : "double",
                        "defaultValue" : 0.0,
                        "interp" : "eioe"
                      },
                      "geometryCrop1" : {
                        "type" : "double",
                        "defaultValue" : 0.0,
                        "interp" : "eioe"
                      },
                      "geometryCrop2" : {
                        "type" : "double",
                        "defaultValue" : 0.0,
                        "interp" : "eioe"
                      },
                      "geometryCrop3" : {
                        "type" : "double",
                        "defaultValue" : 0.0,
                        "interp" : "eioe"
                      }
                    },
                    "effects" : [

                    ],
                    "start" : 1882,
                    "duration" : 260,
                    "mediaStart" : 0,
                    "mediaDuration" : 1,
                    "scalar" : 1,
                    "metadata" : {
                      "clipSpeedAttribute" : false,
                      "default-scale" : "1",
                      "effectApplied" : "none",
                      "lockAspectRatio" : true
                    },
                    "animationTracks" : {

                    }
                  },
                  {
                    "id" : 61,
                    "_type" : "IMFile",
                    "src" : 3,
                    "trackNumber" : 0,
                    "trimStartSum" : 0,
                    "attributes" : {
                      "ident" : "Pasted Image"
                    },
                    "parameters" : {
                      "translation0" : {
                        "type" : "double",
                        "defaultValue" : -214.0,
                        "interp" : "eioe"
                      },
                      "translation1" : {
                        "type" : "double",
                        "defaultValue" : -69.0,
                        "interp" : "eioe"
                      },
                      "sourceCrop0" : {
                        "type" : "double",
                        "defaultValue" : 0.0,
                        "interp" : "eioe"
                      },
                      "sourceCrop1" : {
                        "type" : "double",
                        "defaultValue" : 0.0,
                        "interp" : "eioe"
                      },
                      "sourceCrop2" : {
                        "type" : "double",
                        "defaultValue" : 0.0,
                        "interp" : "eioe"
                      },
                      "sourceCrop3" : {
                        "type" : "double",
                        "defaultValue" : 0.0,
                        "interp" : "eioe"
                      },
                      "geometryCrop0" : {
                        "type" : "double",
                        "defaultValue" : 0.0,
                        "interp" : "eioe"
                      },
                      "geometryCrop1" : {
                        "type" : "double",
                        "defaultValue" : 0.0,
                        "interp" : "eioe"
                      },
                      "geometryCrop2" : {
                        "type" : "double",
                        "defaultValue" : 0.0,
                        "interp" : "eioe"
                      },
                      "geometryCrop3" : {
                        "type" : "double",
                        "defaultValue" : 0.0,
                        "interp" : "eioe"
                      }
                    },
                    "effects" : [

                    ],
                    "start" : 2399,
                    "duration" : 574,
                    "mediaStart" : 0,
                    "mediaDuration" : 1,
                    "scalar" : 1,
                    "metadata" : {
                      "clipSpeedAttribute" : false,
                      "default-scale" : "1",
                      "effectApplied" : "none",
                      "lockAspectRatio" : true
                    },
                    "animationTracks" : {

                    }
                  }
                ],
                "transitions" : [
                  {
                    "name" : "Fade",
                    "duration" : 30,
                    "rightMedia" : 59,
                    "attributes" : {
                      "bypass" : false,
                      "reverse" : false,
                      "trivial" : false,
                      "useAudioPreRoll" : true,
                      "useVisualPreRoll" : true
                    }

                  },
                  {
                    "name" : "Fade",
                    "duration" : 30,
                    "leftMedia" : 59,
                    "attributes" : {
                      "bypass" : false,
                      "reverse" : false,
                      "trivial" : false,
                      "useAudioPreRoll" : true,
                      "useVisualPreRoll" : true
                    }

                  },
                  {
                    "name" : "Fade",
                    "duration" : 30,
                    "rightMedia" : 60,
                    "attributes" : {
                      "bypass" : false,
                      "reverse" : false,
                      "trivial" : false,
                      "useAudioPreRoll" : true,
                      "useVisualPreRoll" : true
                    }

                  },
                  {
                    "name" : "Fade",
                    "duration" : 30,
                    "leftMedia" : 60,
                    "attributes" : {
                      "bypass" : false,
                      "reverse" : false,
                      "trivial" : false,
                      "useAudioPreRoll" : true,
                      "useVisualPreRoll" : true
                    }

                  },
                  {
                    "name" : "Fade",
                    "duration" : 30,
                    "rightMedia" : 61,
                    "attributes" : {
                      "bypass" : false,
                      "reverse" : false,
                      "trivial" : false,
                      "useAudioPreRoll" : true,
                      "useVisualPreRoll" : true
                    }

                  },
                  {
                    "name" : "Fade",
                    "duration" : 30,
                    "leftMedia" : 61,
                    "attributes" : {
                      "bypass" : false,
                      "reverse" : false,
                      "trivial" : false,
                      "useAudioPreRoll" : true,
                      "useVisualPreRoll" : true
                    }

                  }
                ]
              },
              {
                "trackIndex" : 7,
                "medias" : [
                  {
                    "id" : 62,
                    "_type" : "IMFile",
                    "src" : 20,
                    "trackNumber" : 0,
                    "trimStartSum" : -1811,
                    "attributes" : {
                      "ident" : "Pasted Image"
                    },
                    "parameters" : {
                      "translation0" : {
                        "type" : "double",
                        "defaultValue" : -223.051354897946,
                        "interp" : "eioe"
                      },
                      "translation1" : {
                        "type" : "double",
                        "defaultValue" : 299.161235173695,
                        "interp" : "eioe"
                      },
                      "scale0" : {
                        "type" : "double",
                        "defaultValue" : 0.651456635351333,
                        "interp" : "eioe"
                      },
                      "scale1" : {
                        "type" : "double",
                        "defaultValue" : 0.651456635351333,
                        "interp" : "eioe"
                      },
                      "sourceCrop0" : {
                        "type" : "double",
                        "defaultValue" : 0.0,
                        "interp" : "eioe"
                      },
                      "sourceCrop1" : {
                        "type" : "double",
                        "defaultValue" : 0.0,
                        "interp" : "eioe"
                      },
                      "sourceCrop2" : {
                        "type" : "double",
                        "defaultValue" : 0.0,
                        "interp" : "eioe"
                      },
                      "sourceCrop3" : {
                        "type" : "double",
                        "defaultValue" : 0.0,
                        "interp" : "eioe"
                      },
                      "geometryCrop0" : {
                        "type" : "double",
                        "defaultValue" : 0.0,
                        "interp" : "eioe"
                      },
                      "geometryCrop1" : {
                        "type" : "double",
                        "defaultValue" : 0.0,
                        "interp" : "eioe"
                      },
                      "geometryCrop2" : {
                        "type" : "double",
                        "defaultValue" : 0.0,
                        "interp" : "eioe"
                      },
                      "geometryCrop3" : {
                        "type" : "double",
                        "defaultValue" : 0.0,
                        "interp" : "eioe"
                      }
                    },
                    "effects" : [

                    ],
                    "start" : 0,
                    "duration" : 3117,
                    "mediaStart" : 0,
                    "mediaDuration" : 1,
                    "scalar" : 1,
                    "metadata" : {
                      "clipSpeedAttribute" : false,
                      "default-scale" : "1",
                      "effectApplied" : "none",
                      "lockAspectRatio" : true
                    },
                    "animationTracks" : {

                    }
                  }
                ],
                "transitions" : [
                  {
                    "name" : "Fade",
                    "duration" : 30,
                    "rightMedia" : 62,
                    "attributes" : {
                      "bypass" : false,
                      "reverse" : false,
                      "trivial" : false,
                      "useAudioPreRoll" : true,
                      "useVisualPreRoll" : true
                    }

                  },
                  {
                    "name" : "Fade",
                    "duration" : 30,
                    "leftMedia" : 62,
                    "attributes" : {
                      "bypass" : false,
                      "reverse" : false,
                      "trivial" : false,
                      "useAudioPreRoll" : true,
                      "useVisualPreRoll" : true
                    }

                  }
                ]
              },
              {
                "trackIndex" : 8,
                "medias" : [
                  {
                    "id" : 63,
                    "_type" : "IMFile",
                    "src" : 25,
                    "trackNumber" : 0,
                    "trimStartSum" : 0,
                    "attributes" : {
                      "ident" : "Pasted Image"
                    },
                    "parameters" : {
                      "translation0" : {
                        "type" : "double",
                        "defaultValue" : -215.057167807005,
                        "interp" : "eioe"
                      },
                      "translation1" : {
                        "type" : "double",
                        "defaultValue" : -16.9168746092112,
                        "interp" : "eioe"
                      },
                      "scale0" : {
                        "type" : "double",
                        "defaultValue" : 0.209663621124155,
                        "interp" : "eioe"
                      },
                      "scale1" : {
                        "type" : "double",
                        "defaultValue" : 0.209663621124155,
                        "interp" : "eioe"
                      },
                      "sourceCrop0" : {
                        "type" : "double",
                        "defaultValue" : 0.0,
                        "interp" : "eioe"
                      },
                      "sourceCrop1" : {
                        "type" : "double",
                        "defaultValue" : 0.0,
                        "interp" : "eioe"
                      },
                      "sourceCrop2" : {
                        "type" : "double",
                        "defaultValue" : 0.0,
                        "interp" : "eioe"
                      },
                      "sourceCrop3" : {
                        "type" : "double",
                        "defaultValue" : 0.0,
                        "interp" : "eioe"
                      },
                      "geometryCrop0" : {
                        "type" : "double",
                        "defaultValue" : 0.0,
                        "interp" : "eioe"
                      },
                      "geometryCrop1" : {
                        "type" : "double",
                        "defaultValue" : 0.0,
                        "interp" : "eioe"
                      },
                      "geometryCrop2" : {
                        "type" : "double",
                        "defaultValue" : 0.0,
                        "interp" : "eioe"
                      },
                      "geometryCrop3" : {
                        "type" : "double",
                        "defaultValue" : 0.0,
                        "interp" : "eioe"
                      }
                    },
                    "effects" : [

                    ],
                    "start" : 2522,
                    "duration" : 137,
                    "mediaStart" : 0,
                    "mediaDuration" : 1,
                    "scalar" : 1,
                    "metadata" : {
                      "clipSpeedAttribute" : false,
                      "default-scale" : "0.4",
                      "effectApplied" : "none",
                      "lockAspectRatio" : true
                    },
                    "animationTracks" : {

                    }
                  },
                  {
                    "id" : 64,
                    "_type" : "VMFile",
                    "src" : 26,
                    "trackNumber" : 0,
                    "attributes" : {
                      "ident" : "Screen Recording 2022-07-27 at 11.00.40 AM"
                    },
                    "parameters" : {
                      "translation0" : {
                        "type" : "double",
                        "defaultValue" : -217.013522680896,
                        "interp" : "eioe"
                      },
                      "translation1" : {
                        "type" : "double",
                        "defaultValue" : -15.4609645092706,
                        "interp" : "eioe"
                      },
                      "scale0" : {
                        "type" : "double",
                        "defaultValue" : 0.230750267371773,
                        "interp" : "eioe"
                      },
                      "scale1" : {
                        "type" : "double",
                        "defaultValue" : 0.230750267371773,
                        "interp" : "eioe"
                      },
                      "sourceCrop0" : {
                        "type" : "double",
                        "defaultValue" : 0.0,
                        "interp" : "eioe"
                      },
                      "sourceCrop1" : {
                        "type" : "double",
                        "defaultValue" : 0.0,
                        "interp" : "eioe"
                      },
                      "sourceCrop2" : {
                        "type" : "double",
                        "defaultValue" : 0.0,
                        "interp" : "eioe"
                      },
                      "sourceCrop3" : {
                        "type" : "double",
                        "defaultValue" : 0.0,
                        "interp" : "eioe"
                      },
                      "geometryCrop0" : {
                        "type" : "double",
                        "defaultValue" : 0.0,
                        "interp" : "eioe"
                      },
                      "geometryCrop1" : {
                        "type" : "double",
                        "defaultValue" : 0.0,
                        "interp" : "eioe"
                      },
                      "geometryCrop2" : {
                        "type" : "double",
                        "defaultValue" : 0.0,
                        "interp" : "eioe"
                      },
                      "geometryCrop3" : {
                        "type" : "double",
                        "defaultValue" : 0.0,
                        "interp" : "eioe"
                      }
                    },
                    "effects" : [

                    ],
                    "start" : 2664,
                    "duration" : 309,
                    "mediaStart" : 0,
                    "mediaDuration" : "191271/364",
                    "scalar" : "364/619",
                    "metadata" : {
                      "clipSpeedAttribute" : true,
                      "default-scale" : "0.440098",
                      "effectApplied" : "Clip Speed",
                      "lockAspectRatio" : true
                    },
                    "animationTracks" : {

                    }
                  }
                ],
                "transitions" : [
                  {
                    "name" : "Fade",
                    "duration" : 30,
                    "rightMedia" : 63,
                    "attributes" : {
                      "bypass" : false,
                      "reverse" : false,
                      "trivial" : false,
                      "useAudioPreRoll" : true,
                      "useVisualPreRoll" : true
                    }

                  },
                  {
                    "name" : "Fade",
                    "duration" : 30,
                    "leftMedia" : 63,
                    "attributes" : {
                      "bypass" : false,
                      "reverse" : false,
                      "trivial" : false,
                      "useAudioPreRoll" : true,
                      "useVisualPreRoll" : true
                    }

                  },
                  {
                    "name" : "Fade",
                    "duration" : 30,
                    "rightMedia" : 64,
                    "attributes" : {
                      "bypass" : false,
                      "reverse" : false,
                      "trivial" : false,
                      "useAudioPreRoll" : true,
                      "useVisualPreRoll" : true
                    }

                  },
                  {
                    "name" : "Fade",
                    "duration" : 30,
                    "leftMedia" : 64,
                    "attributes" : {
                      "bypass" : false,
                      "reverse" : false,
                      "trivial" : false,
                      "useAudioPreRoll" : true,
                      "useVisualPreRoll" : true
                    }

                  }
                ]
              }            ]
          }
        }
      ]
    },
    "trackAttributes" : [
      {
        "ident" : "",
        "audioMuted" : false,
        "videoHidden" : false,
        "magnetic" : false,
        "matte" : 0,
        "solo" : false,
        "metadata" : {
          "IsLocked" : "False",
          "trackHeight" : "54"
        }
      },
      {
        "ident" : "",
        "audioMuted" : false,
        "videoHidden" : false,
        "magnetic" : false,
        "matte" : 0,
        "solo" : false,
        "metadata" : {
          "IsLocked" : "False",
          "trackHeight" : "54"
        }
      },
      {
        "ident" : "",
        "audioMuted" : false,
        "videoHidden" : false,
        "magnetic" : false,
        "matte" : 0,
        "solo" : false,
        "metadata" : {
          "IsLocked" : "False",
          "trackHeight" : "54"
        }
      },
      {
        "ident" : "",
        "audioMuted" : false,
        "videoHidden" : false,
        "magnetic" : false,
        "matte" : 0,
        "solo" : false,
        "metadata" : {
          "IsLocked" : "False",
          "trackHeight" : "54"
        }
      },
      {
        "ident" : "",
        "audioMuted" : false,
        "videoHidden" : false,
        "magnetic" : false,
        "matte" : 0,
        "solo" : false,
        "metadata" : {
          "IsLocked" : "False",
          "trackHeight" : "54"
        }
      },
      {
        "ident" : "",
        "audioMuted" : false,
        "videoHidden" : false,
        "magnetic" : false,
        "matte" : 0,
        "solo" : false,
        "metadata" : {
          "IsLocked" : "False",
          "trackHeight" : "54"
        }
      },
      {
        "ident" : "",
        "audioMuted" : false,
        "videoHidden" : false,
        "magnetic" : false,
        "matte" : 0,
        "solo" : false,
        "metadata" : {
          "IsLocked" : "False",
          "trackHeight" : "54"
        }
      },
      {
        "ident" : "",
        "audioMuted" : false,
        "videoHidden" : false,
        "magnetic" : false,
        "matte" : 0,
        "solo" : false,
        "metadata" : {
          "IsLocked" : "False",
          "trackHeight" : "54"
        }
      },
      {
        "ident" : "",
        "audioMuted" : false,
        "videoHidden" : false,
        "magnetic" : false,
        "matte" : 0,
        "solo" : false,
        "metadata" : {
          "IsLocked" : "False",
          "trackHeight" : "54"
        }
      }
    ],
    "captionAttributes" : {
      "enabled" : true,
      "fontName" : "Arial",
      "fontSize" : 32,
      "backgroundColor" : [ 0, 0, 0, 204],
      "foregroundColor" : [ 255, 255, 255, 255],
      "lang" : "en",
      "alignment" : 0,
      "defaultFontSize" : true,
      "opacity" : 0.5,
      "backgroundEnabled" : true,
      "backgroundOnlyAroundText" : true
    },
    "gain" : 1.0,
    "legacyAttenuateAudioMix" : false,
    "backgroundColor" : [ 0, 0, 0, 255]
  },
  "metadata" : {
    "ProjectThumbnail" : "iVBORw0KGgoAAAANSUhEUgAAAeAAAAEOCAYAAABRmsRnAAAAAXNSR0IArs4c6QAAAERlWElmTU0AKgAAAAgAAYdpAAQAAAABAAAAGgAAAAAAA6ABAAMAAAABAAEAAKACAAQAAAABAAAB4KADAAQAAAABAAABDgAAAAARszjOAAAK9ElEQVR4Ae3VwQnAMAwEQcX995zk4Rq0nzH4fTAI9pmZ9/8eAQIECBAgsChwFrdMESBAgAABAldAgJ0CAQIECBAIBAQ4QDdJgAABAgQE2A0QIECAAIFAQIADdJMECBAgQECA3QABAgQIEAgEBDhAN0mAAAECBATYDRAgQIAAgUBAgAN0kwQIECBAQIDdAAECBAgQCAQEOEA3SYAAAQIEBNgNECBAgACBQECAA3STBAgQIEBAgN0AAQIECBAIBAQ4QDdJgAABAgQE2A0QIECAAIFAQIADdJMECBAgQECA3QABAgQIEAgEBDhAN0mAAAECBATYDRAgQIAAgUBAgAN0kwQIECBAQIDdAAECBAgQCAQEOEA3SYAAAQIEBNgNECBAgACBQECAA3STBAgQIEBAgN0AAQIECBAIBAQ4QDdJgAABAgQE2A0QIECAAIFAQIADdJMECBAgQECA3QABAgQIEAgEBDhAN0mAAAECBATYDRAgQIAAgUBAgAN0kwQIECBAQIDdAAECBAgQCAQEOEA3SYAAAQIEBNgNECBAgACBQECAA3STBAgQIEBAgN0AAQIECBAIBAQ4QDdJgAABAgQE2A0QIECAAIFAQIADdJMECBAgQECA3QABAgQIEAgEBDhAN0mAAAECBATYDRAgQIAAgUBAgAN0kwQIECBAQIDdAAECBAgQCAQEOEA3SYAAAQIEBNgNECBAgACBQECAA3STBAgQIEBAgN0AAQIECBAIBAQ4QDdJgAABAgQE2A0QIECAAIFAQIADdJMECBAgQECA3QABAgQIEAgEBDhAN0mAAAECBATYDRAgQIAAgUBAgAN0kwQIECBAQIDdAAECBAgQCAQEOEA3SYAAAQIEBNgNECBAgACBQECAA3STBAgQIEBAgN0AAQIECBAIBAQ4QDdJgAABAgQE2A0QIECAAIFAQIADdJMECBAgQECA3QABAgQIEAgEBDhAN0mAAAECBATYDRAgQIAAgUBAgAN0kwQIECBAQIDdAAECBAgQCAQEOEA3SYAAAQIEBNgNECBAgACBQECAA3STBAgQIEBAgN0AAQIECBAIBAQ4QDdJgAABAgQE2A0QIECAAIFAQIADdJMECBAgQECA3QABAgQIEAgEBDhAN0mAAAECBATYDRAgQIAAgUBAgAN0kwQIECBAQIDdAAECBAgQCAQEOEA3SYAAAQIEBNgNECBAgACBQECAA3STBAgQIEBAgN0AAQIECBAIBAQ4QDdJgAABAgQE2A0QIECAAIFAQIADdJMECBAgQECA3QABAgQIEAgEBDhAN0mAAAECBATYDRAgQIAAgUBAgAN0kwQIECBAQIDdAAECBAgQCAQEOEA3SYAAAQIEBNgNECBAgACBQECAA3STBAgQIEBAgN0AAQIECBAIBAQ4QDdJgAABAgQE2A0QIECAAIFAQIADdJMECBAgQECA3QABAgQIEAgEBDhAN0mAAAECBATYDRAgQIAAgUBAgAN0kwQIECBAQIDdAAECBAgQCAQEOEA3SYAAAQIEBNgNECBAgACBQECAA3STBAgQIEBAgN0AAQIECBAIBAQ4QDdJgAABAgQE2A0QIECAAIFAQIADdJMECBAgQECA3QABAgQIEAgEBDhAN0mAAAECBATYDRAgQIAAgUBAgAN0kwQIECBAQIDdAAECBAgQCAQEOEA3SYAAAQIEBNgNECBAgACBQECAA3STBAgQIEBAgN0AAQIECBAIBAQ4QDdJgAABAgQE2A0QIECAAIFAQIADdJMECBAgQECA3QABAgQIEAgEBDhAN0mAAAECBATYDRAgQIAAgUBAgAN0kwQIECBAQIDdAAECBAgQCAQEOEA3SYAAAQIEBNgNECBAgACBQECAA3STBAgQIEBAgN0AAQIECBAIBAQ4QDdJgAABAgQE2A0QIECAAIFAQIADdJMECBAgQECA3QABAgQIEAgEBDhAN0mAAAECBATYDRAgQIAAgUBAgAN0kwQIECBAQIDdAAECBAgQCAQEOEA3SYAAAQIEBNgNECBAgACBQECAA3STBAgQIEBAgN0AAQIECBAIBAQ4QDdJgAABAgQE2A0QIECAAIFAQIADdJMECBAgQECA3QABAgQIEAgEBDhAN0mAAAECBATYDRAgQIAAgUBAgAN0kwQIECBAQIDdAAECBAgQCAQEOEA3SYAAAQIEBNgNECBAgACBQECAA3STBAgQIEBAgN0AAQIECBAIBAQ4QDdJgAABAgQE2A0QIECAAIFAQIADdJMECBAgQECA3QABAgQIEAgEBDhAN0mAAAECBATYDRAgQIAAgUBAgAN0kwQIECBAQIDdAAECBAgQCAQEOEA3SYAAAQIEBNgNECBAgACBQECAA3STBAgQIEBAgN0AAQIECBAIBAQ4QDdJgAABAgQE2A0QIECAAIFAQIADdJMECBAgQECA3QABAgQIEAgEBDhAN0mAAAECBATYDRAgQIAAgUBAgAN0kwQIECBAQIDdAAECBAgQCAQEOEA3SYAAAQIEBNgNECBAgACBQECAA3STBAgQIEBAgN0AAQIECBAIBAQ4QDdJgAABAgQE2A0QIECAAIFAQIADdJMECBAgQECA3QABAgQIEAgEBDhAN0mAAAECBATYDRAgQIAAgUBAgAN0kwQIECBAQIDdAAECBAgQCAQEOEA3SYAAAQIEBNgNECBAgACBQECAA3STBAgQIEBAgN0AAQIECBAIBAQ4QDdJgAABAgQE2A0QIECAAIFAQIADdJMECBAgQECA3QABAgQIEAgEBDhAN0mAAAECBATYDRAgQIAAgUBAgAN0kwQIECBAQIDdAAECBAgQCAQEOEA3SYAAAQIEBNgNECBAgACBQECAA3STBAgQIEBAgN0AAQIECBAIBAQ4QDdJgAABAgQE2A0QIECAAIFAQIADdJMECBAgQECA3QABAgQIEAgEBDhAN0mAAAECBATYDRAgQIAAgUBAgAN0kwQIECBAQIDdAAECBAgQCAQEOEA3SYAAAQIEBNgNECBAgACBQECAA3STBAgQIEBAgN0AAQIECBAIBAQ4QDdJgAABAgQE2A0QIECAAIFAQIADdJMECBAgQECA3QABAgQIEAgEBDhAN0mAAAECBATYDRAgQIAAgUBAgAN0kwQIECBAQIDdAAECBAgQCAQEOEA3SYAAAQIEBNgNECBAgACBQECAA3STBAgQIEBAgN0AAQIECBAIBAQ4QDdJgAABAgQE2A0QIECAAIFAQIADdJMECBAgQECA3QABAgQIEAgEBDhAN0mAAAECBATYDRAgQIAAgUBAgAN0kwQIECBAQIDdAAECBAgQCAQEOEA3SYAAAQIEBNgNECBAgACBQECAA3STBAgQIEBAgN0AAQIECBAIBAQ4QDdJgAABAgQE2A0QIECAAIFAQIADdJMECBAgQECA3QABAgQIEAgEBDhAN0mAAAECBATYDRAgQIAAgUBAgAN0kwQIECBAQIDdAAECBAgQCAQEOEA3SYAAAQIEBNgNECBAgACBQECAA3STBAgQIEBAgN0AAQIECBAIBAQ4QDdJgAABAgQE2A0QIECAAIFAQIADdJMECBAgQECA3QABAgQIEAgEBDhAN0mAAAECBATYDRAgQIAAgUBAgAN0kwQIECBAQIDdAAECBAgQCAQEOEA3SYAAAQIEBNgNECBAgACBQECAA3STBAgQIEBAgN0AAQIECBAIBAQ4QDdJgAABAgQE2A0QIECAAIFAQIADdJMECBAgQOAD2LUDGxJi0IsAAAAASUVORK5CYII=",
    "activeThemeId" : "e59eeb42-ccf0-4a36-bdf9-e630fdab686d",
    "audiateSessionId" : "",
    "firstMedia" : true,
    "hasNotifiedAboutHFRMedia" : true,
    "projectDuration" : "01:43"
  }
}
